<?xml version="1.0" encoding="UTF-8"?>
<!-- Created with Inkscape (http://www.inkscape.org/) -->
<svg id="SVGRoot" width="48px" height="48px" version="1.1" viewBox="0 0 48 48" xmlns="http://www.w3.org/2000/svg" xmlns:cc="http://creativecommons.org/ns#" xmlns:dc="http://purl.org/dc/elements/1.1/" xmlns:rdf="http://www.w3.org/1999/02/22-rdf-syntax-ns#">
 <defs id="defs815">
  <style id="style819">.cls-1{fill:none;stroke:#fff;stroke-linecap:round;stroke-linejoin:round;}</style>
  <style id="style2">.a{fill:none;stroke:#b1b5bd;stroke-linecap:round;stroke-linejoin:round;isolation:isolate;opacity:0.63;}</style>
 </defs>
 <metadata id="metadata818">
  <rdf:RDF>
   <cc:Work rdf:about="">
    <dc:format>image/svg+xml</dc:format>
    <dc:type rdf:resource="http://purl.org/dc/dcmitype/StillImage"/>
    <dc:title/>
   </cc:Work>
  </rdf:RDF>
 </metadata>
 <g id="layer1">
  <rect id="rect1373-5" x="4" y="4" width="40" height="40" ry="8" fill="#e5a771" fill-rule="evenodd" style="paint-order:stroke fill markers"/>
  <path id="rect817" d="m12 4c-4.432 0-8 3.568-8 8v24c0 4.432 3.568 8 8 8h24c4.432 0 8-3.568 8-8v-24c0-4.432-3.568-8-8-8h-24zm0 1h24c3.878 0 7 3.122 7 7v24c0 3.878-3.122 7-7 7h-24c-3.878 0-7-3.122-7-7v-24c0-3.878 3.122-7 7-7z" fill-rule="evenodd" opacity=".3" style="paint-order:stroke fill markers"/>
  <path id="rect817-9" d="m11.564 11.975v24h24v-24zm1 1h22v22h-22z" fill-rule="evenodd" opacity=".25" style="paint-order:stroke fill markers"/>
  <path id="rect822-4" d="m23.564 9.9746c-7.756 0-14 6.244-14 14s6.244 14 14 14 14-6.244 14-14-6.244-14-14-14zm0 1c7.202 0 13 5.798 13 13s-5.798 13-13 13-13-5.798-13-13 5.798-13 13-13z" fill-rule="evenodd" opacity=".25" style="paint-order:stroke fill markers"/>
  <rect id="rect828-0" x="8" y="8" width="32" height="32" ry="5" fill="#69945e" fill-rule="evenodd" style="paint-order:normal"/>
  <path id="path866" d="m10.746 25.957c0.55189-2.6534 2.6845-4.8205 4.6946-6.6385 0.86486-0.7822 1.8781-1.7166 3.0442-1.7238 0.83714-0.0052 2.2006 1.2103 2.2006 1.2103s1.7466-4.5777 3.4476-6.235c0.75979-0.74029 1.8163-1.7982 2.8241-1.4671 1.5272 0.50172 2.4902 2.7619 2.1272 4.3278-0.62935 2.7155-1.6138 6.6751-1.6138 6.6751l2.8974-3.4109s0.70843-1.3228 2.2373-0.51347c0.72077 0.38157 0.55015 2.384 0.55015 2.384s0.49568-1.4432 1.5037-1.3937c2.2396 0.10996 2.0906 3.631 2.0906 3.631l-0.14671 6.125s-0.12862 1.8697-1.7605 1.9439c-2.3565 0.10712-2.604-1.9439-2.604-1.9439l0.03668-3.1175s-0.75101 2.7661-1.5037 3.9611c-1.0717 1.7014-2.5307 1.6504-2.5307 1.6504s-0.23043 3.6339-3.631 3.3376c-2.882-0.25115-3.0808-3.851-3.0808-3.851s-0.98722 0.65222-1.5404 0.6235c-0.4424-0.02297-1.1736-0.6235-1.1736-0.6235s-1.8562 1.8507-2.8241 1.4304c-2.9776-1.2929-1.1003-5.2814-1.1003-5.2814s-0.6586 1.1213-1.2103 1.3937c-0.7139 0.35244-1.7511 0.62978-2.384 0.14671-0.71472-0.54555-0.73324-1.7604-0.55015-2.6407z" fill="#fff" opacity=".3"/>
  <path id="path854" d="m35.057 20.252c-0.67057-0.01072-1.4453 0.07617-1.4453 0.07617l-0.07813 1.0898s0.94678-0.19834 1.4258-0.18164c0.83103 0.02897 0.82424 0.39293 0.70117 0.69922-0.15152 0.37709-0.82052-0.05372-1.2188 0.02734-0.99666 0.20287-1.0117 1.0879-1.0117 1.0879l-0.02734 1.375 3.0605 0.07813v-1.2188s-2.4174 0.58983-2.4121 0.1543c0.0083-0.67335 1.0907-0.9593 1.7637-0.98438 0.73682-0.02745 0.63174-0.49796 0.64844-0.85547 0.02372-0.50802-0.2012-1.182-0.80274-1.2969-0.16772-0.03202-0.37999-0.04721-0.60352-0.05078zm-18.355 0.10156-4.5117 0.10352-0.67383 6.0703 4.5117 0.1543 0.10352-1.7637-3.5273 0.20898 0.15625-0.88281 2.3867-0.31055-0.25976-1.4004-1.8672 0.51758 0.1543-0.93359 3.3203-0.1543zm1.2461 1.0898-0.05273 1.5039 2.334-0.10352 0.15625-1.4004zm7.002 0.31055c-0.87274-0.05174-1.1934 0.83008-1.1934 0.83008l-2.4902-0.05078-0.41406 4.3555 1.1934 0.25977-0.36328-2.0742s-0.30196-1.3104 1.0879-1.2969c0.545 0.0053 0.4668 0.98633 0.4668 0.98633l-0.25781 2.4375h1.3477l-0.31055-2.6465c0-1e-6 -0.01702-1.0092 0.83008-0.98438 0.67289 0.01969 0.67383 1.1406 0.67383 1.1406l-0.20703 1.9707 1.0371-0.10352 0.1543-2.748s0.05034-1.981-1.5547-2.0762zm4.0957 0.1543c-0.5685 0.04408-1.7278 0.36617-1.8926 2.2324-0.21038 2.3829 1.5059 2.4902 1.5059 2.4902l3.5527 0.05078 0.02539-1.582s-1.9765-0.04768-2.957 0.05273c-0.86157 0.08823-1.1904-0.48621-1.1406-0.98633 0.06097-0.61245 0.89298-0.9873 1.6074-0.9082 0.95254 0.10546 2.7754 0.75391 2.7754 0.75391l0.38867-1.5566-3.5527-0.54492s-0.123-0.01665-0.3125-2e-3zm-11.617 2.0254v1.4512l2.75-0.10352-0.05273-1.3477z" fill="#fff" opacity=".8"/>
 </g>
</svg>
