<?xml version="1.0" encoding="UTF-8"?>
<!-- Created with Inkscape (http://www.inkscape.org/) -->
<svg id="SVGRoot" width="48px" height="48px" version="1.1" viewBox="0 0 48 48" xmlns="http://www.w3.org/2000/svg" xmlns:cc="http://creativecommons.org/ns#" xmlns:dc="http://purl.org/dc/elements/1.1/" xmlns:rdf="http://www.w3.org/1999/02/22-rdf-syntax-ns#">
 <defs id="defs815">
  <style id="style819">.cls-1{fill:none;stroke:#fff;stroke-linecap:round;stroke-linejoin:round;}</style>
  <style id="style2">.a{fill:none;stroke:#b1b5bd;stroke-linecap:round;stroke-linejoin:round;isolation:isolate;opacity:0.63;}</style>
  <style id="style2-9">.a{fill:none;stroke:#b1b5bd;stroke-linecap:round;stroke-linejoin:round;isolation:isolate;opacity:0.63;}</style>
 </defs>
 <metadata id="metadata818">
  <rdf:RDF>
   <cc:Work rdf:about="">
    <dc:format>image/svg+xml</dc:format>
    <dc:type rdf:resource="http://purl.org/dc/dcmitype/StillImage"/>
    <dc:title/>
   </cc:Work>
  </rdf:RDF>
 </metadata>
 <g id="layer1" fill-rule="evenodd">
  <rect id="rect1373-5" x="4" y="4" width="40" height="40" ry="8" fill="#efefef" style="paint-order:stroke fill markers"/>
  <path id="rect817" d="m12 4c-4.432 0-8 3.568-8 8v24c0 4.432 3.568 8 8 8h24c4.432 0 8-3.568 8-8v-24c0-4.432-3.568-8-8-8h-24zm0 1h24c3.878 0 7 3.122 7 7v24c0 3.878-3.122 7-7 7h-24c-3.878 0-7-3.122-7-7v-24c0-3.878 3.122-7 7-7z" opacity=".3" style="paint-order:stroke fill markers"/>
  <rect id="rect823" x="28" y="24" width="6" height="6" ry="3" fill="#d35244" style="paint-order:stroke fill markers"/>
  <rect id="rect823-2" x="24" y="30" width="6" height="6" ry="3" fill="#729dec" style="paint-order:stroke fill markers"/>
  <rect id="rect823-9" x="30" y="34" width="6" height="6" ry="3" fill="#96d56b" style="paint-order:stroke fill markers"/>
  <rect id="rect823-6" x="34" y="28" width="6" height="6" ry="3" fill="#ffcd4b" style="paint-order:stroke fill markers"/>
  <rect id="rect852" x="8" y="8" width="20" height="20" ry="10" fill="#b7bfc2" style="paint-order:stroke fill markers"/>
  <rect id="rect854" x="15" y="10" width="6" height="16" ry="1" fill="#4e4e4e" style="paint-order:stroke fill markers"/>
  <rect id="rect856" x="10" y="15" width="16" height="6" ry="1" fill="#4e4e4e" style="paint-order:stroke fill markers"/>
  <rect id="rect858" x="17" y="12" width="2" height="2" ry="1" fill="#b7bfc2" style="paint-order:stroke fill markers"/>
  <rect id="rect860" x="22" y="17" width="2" height="2" ry="1" fill="#b7bfc2" style="paint-order:stroke fill markers"/>
  <rect id="rect862" x="12" y="17" width="2" height="2" ry="1" fill="#b7bfc2" style="paint-order:stroke fill markers"/>
  <rect id="rect864" x="17" y="22" width="2" height="2" ry="1" fill="#b7bfc2" style="paint-order:stroke fill markers"/>
 </g>
</svg>
