<?xml version="1.0" encoding="UTF-8"?>
<!-- Created with Inkscape (http://www.inkscape.org/) -->
<svg id="SVGRoot" width="48px" height="48px" version="1.1" viewBox="0 0 48 48" xmlns="http://www.w3.org/2000/svg" xmlns:cc="http://creativecommons.org/ns#" xmlns:dc="http://purl.org/dc/elements/1.1/" xmlns:rdf="http://www.w3.org/1999/02/22-rdf-syntax-ns#">
 <defs id="defs815">
  <style id="style819">.cls-1{fill:none;stroke:#fff;stroke-linecap:round;stroke-linejoin:round;}</style>
  <style id="style2">.a{fill:none;stroke:#b1b5bd;stroke-linecap:round;stroke-linejoin:round;isolation:isolate;opacity:0.63;}</style>
 </defs>
 <metadata id="metadata818">
  <rdf:RDF>
   <cc:Work rdf:about="">
    <dc:format>image/svg+xml</dc:format>
    <dc:type rdf:resource="http://purl.org/dc/dcmitype/StillImage"/>
    <dc:title/>
   </cc:Work>
  </rdf:RDF>
 </metadata>
 <g id="layer1">
  <rect id="rect1373-5" x="4" y="4" width="40" height="40" ry="8" fill="#4c76a4" fill-rule="evenodd" style="paint-order:stroke fill markers"/>
  <path id="rect817" d="m12 4c-4.432 0-8 3.568-8 8v24c0 4.432 3.568 8 8 8h24c4.432 0 8-3.568 8-8v-24c0-4.432-3.568-8-8-8h-24zm0 1h24c3.878 0 7 3.122 7 7v24c0 3.878-3.122 7-7 7h-24c-3.878 0-7-3.122-7-7v-24c0-3.878 3.122-7 7-7z" fill-rule="evenodd" opacity=".3" style="paint-order:stroke fill markers"/>
  <path id="rect907" d="m15 11v28h1v-28zm6 0v28h1v-28zm6 0v28h1v-28zm5 0v28h1v-28z" fill="#fff" fill-rule="evenodd" opacity=".25" style="paint-order:normal"/>
  <path id="path839" d="m13 25 3-4h5l4-6 2 2 6-6 4 3" fill="none" stroke="#bfea83" stroke-linecap="round" stroke-linejoin="round" stroke-width="2"/>
  <path id="path841" d="m13 31 3-2 3 2 3-5 4 7 5-3 3 3 3-1" fill="none" stroke="#f6a559" stroke-linecap="round" stroke-linejoin="round" stroke-width="2"/>
  <rect id="rect843" x="9" y="10" width="1" height="30" ry=".5" fill="#fff" fill-rule="evenodd" style="paint-order:normal"/>
  <rect id="rect845" x="8" y="38" width="30" height="1" ry=".5" fill="#fff" fill-rule="evenodd" style="paint-order:normal"/>
  <path id="path847" d="m8 12h3l-1.5-3z" fill="#fff"/>
  <path id="path847-8" d="m36 40v-3l3 1.5z" fill="#fff"/>
  <rect id="rect864" x="8" y="15" width="2" height="1" ry=".5" fill="#fff" fill-rule="evenodd" style="paint-order:normal"/>
  <rect id="rect866" x="8" y="21" width="2" height="1" ry=".5" fill="#fff" fill-rule="evenodd" style="paint-order:normal"/>
  <rect id="rect868" x="8" y="27" width="2" height="1" ry=".5" fill="#fff" fill-rule="evenodd" style="paint-order:normal"/>
  <rect id="rect870" x="8" y="33" width="2" height="1" ry=".5" fill="#fff" fill-rule="evenodd" style="paint-order:normal"/>
 </g>
</svg>
