<?xml version="1.0" encoding="UTF-8"?>
<!-- Created with Inkscape (http://www.inkscape.org/) -->
<svg id="SVGRoot" width="48px" height="48px" version="1.1" viewBox="0 0 48 48" xmlns="http://www.w3.org/2000/svg" xmlns:cc="http://creativecommons.org/ns#" xmlns:dc="http://purl.org/dc/elements/1.1/" xmlns:rdf="http://www.w3.org/1999/02/22-rdf-syntax-ns#">
 <defs id="defs815">
  <style id="style819">.cls-1{fill:none;stroke:#fff;stroke-linecap:round;stroke-linejoin:round;}</style>
  <style id="style2">.a{fill:none;stroke:#b1b5bd;stroke-linecap:round;stroke-linejoin:round;isolation:isolate;opacity:0.63;}</style>
 </defs>
 <metadata id="metadata818">
  <rdf:RDF>
   <cc:Work rdf:about="">
    <dc:format>image/svg+xml</dc:format>
    <dc:type rdf:resource="http://purl.org/dc/dcmitype/StillImage"/>
    <dc:title/>
   </cc:Work>
  </rdf:RDF>
 </metadata>
 <g id="layer1" fill-rule="evenodd">
  <rect id="rect1373-5" x="4" y="4" width="40" height="40" ry="8" fill="#efefef" style="paint-order:stroke fill markers"/>
  <path id="rect817" d="m12 4c-4.432 0-8 3.568-8 8v24c0 4.432 3.568 8 8 8h24c4.432 0 8-3.568 8-8v-24c0-4.432-3.568-8-8-8h-24zm0 1h24c3.878 0 7 3.122 7 7v24c0 3.878-3.122 7-7 7h-24c-3.878 0-7-3.122-7-7v-24c0-3.878 3.122-7 7-7z" opacity=".3" style="paint-order:stroke fill markers"/>
  <path id="rect829-3" d="m35.5 7c-0.277 0-0.5 0.223-0.5 0.5v4.5h-19.5c-0.277 0-0.5 0.223-0.5 0.5s0.223 0.5 0.5 0.5h19.5v22h-22v-4.5c0-0.277-0.223-0.5-0.5-0.5s-0.5 0.223-0.5 0.5v4.5h-4.5c-0.277 0-0.5 0.223-0.5 0.5s0.223 0.5 0.5 0.5h4.5v4.5c0 0.277 0.223 0.5 0.5 0.5s0.5-0.223 0.5-0.5v-4.5h22v4.5c0 0.277 0.223 0.5 0.5 0.5s0.5-0.223 0.5-0.5v-4.5h4.5c0.277 0 0.5-0.223 0.5-0.5s-0.223-0.5-0.5-0.5h-4.5v-22h4.5c0.277 0 0.5-0.223 0.5-0.5s-0.223-0.5-0.5-0.5h-4.5v-4.5c0-0.277-0.223-0.5-0.5-0.5z" opacity=".1" style="paint-order:stroke fill markers"/>
  <path id="rect818" d="m25 12-11 22h-2v2h8v-2h-2l3-6h6.1816l0.81836 6h-2v2h10v-2h-2l-3-22h-2zm0.85742 6.2852 1.0508 7.7148h-4.9082z" fill="#46589d" style="paint-order:stroke fill markers"/>
 </g>
</svg>
