<?xml version="1.0" encoding="UTF-8"?>
<!-- Created with Inkscape (http://www.inkscape.org/) -->
<svg id="SVGRoot" width="48px" height="48px" version="1.1" viewBox="0 0 48 48" xmlns="http://www.w3.org/2000/svg" xmlns:cc="http://creativecommons.org/ns#" xmlns:dc="http://purl.org/dc/elements/1.1/" xmlns:rdf="http://www.w3.org/1999/02/22-rdf-syntax-ns#">
 <defs id="defs815">
  <style id="style819">.cls-1{fill:none;stroke:#fff;stroke-linecap:round;stroke-linejoin:round;}</style>
  <style id="style2">.a{fill:none;stroke:#b1b5bd;stroke-linecap:round;stroke-linejoin:round;isolation:isolate;opacity:0.63;}</style>
 </defs>
 <metadata id="metadata818">
  <rdf:RDF>
   <cc:Work rdf:about="">
    <dc:format>image/svg+xml</dc:format>
    <dc:type rdf:resource="http://purl.org/dc/dcmitype/StillImage"/>
    <dc:title/>
   </cc:Work>
  </rdf:RDF>
 </metadata>
 <g id="layer1" fill-rule="evenodd">
  <rect id="rect1373-5" x="4" y="4" width="40" height="40" ry="8" fill="#cf953e" style="paint-order:stroke fill markers"/>
  <path id="rect817" d="m12 4c-4.432 0-8 3.568-8 8v24c0 4.432 3.568 8 8 8h24c4.432 0 8-3.568 8-8v-24c0-4.432-3.568-8-8-8h-24zm0 1h24c3.878 0 7 3.122 7 7v24c0 3.878-3.122 7-7 7h-24c-3.878 0-7-3.122-7-7v-24c0-3.878 3.122-7 7-7z" opacity=".3" style="paint-order:stroke fill markers"/>
  <rect id="rect818" x="14" y="14" width="20" height="20" ry="10" fill="#fff" style="paint-order:stroke fill markers"/>
  <rect id="rect823" x="10" y="21" width="28" height="6" ry="1" fill="#fff" style="paint-order:stroke fill markers"/>
  <rect id="rect823-9" transform="rotate(90)" x="10" y="-27" width="28" height="6" ry="1" fill="#fff" style="paint-order:stroke fill markers"/>
  <rect id="rect823-6" transform="rotate(-45)" x="-14" y="30.941" width="28" height="6" ry="1" fill="#fff" style="paint-order:stroke fill markers"/>
  <rect id="rect823-9-0" transform="rotate(45)" x="19.941" y="-3" width="28" height="6" ry="1" fill="#fff" style="paint-order:stroke fill markers"/>
  <rect id="rect858" x="18" y="18" width="12" height="12" ry="6" fill="#cf953e" style="paint-order:stroke fill markers"/>
 </g>
</svg>
