<?xml version="1.0" encoding="UTF-8"?>
<!-- Created with Inkscape (http://www.inkscape.org/) -->
<svg id="SVGRoot" width="48px" height="48px" version="1.1" viewBox="0 0 48 48" xml:space="preserve" xmlns="http://www.w3.org/2000/svg" xmlns:cc="http://creativecommons.org/ns#" xmlns:dc="http://purl.org/dc/elements/1.1/" xmlns:rdf="http://www.w3.org/1999/02/22-rdf-syntax-ns#"><defs><style>.cls-1{fill:none;stroke:#fff;stroke-linecap:round;stroke-linejoin:round;}</style><style>.cls-1{fill:none;stroke:#fff;stroke-linecap:round;stroke-linejoin:round;}</style></defs><metadata><rdf:RDF><cc:Work rdf:about=""><dc:format>image/svg+xml</dc:format><dc:type rdf:resource="http://purl.org/dc/dcmitype/StillImage"/></cc:Work></rdf:RDF></metadata><rect x="4" y="4" width="40" height="40" ry="8" fill="#b7bfc2" fill-rule="evenodd" style="paint-order:stroke fill markers"/><path d="m12 4c-4.432 0-8 3.568-8 8v24c0 4.432 3.568 8 8 8h24c4.432 0 8-3.568 8-8v-24c0-4.432-3.568-8-8-8zm0 1h24c3.878 0 7 3.122 7 7v24c0 3.878-3.122 7-7 7h-24c-3.878 0-7-3.122-7-7v-24c0-3.878 3.122-7 7-7z" fill-rule="evenodd" opacity=".3" style="paint-order:stroke fill markers"/><rect x="12" y="28" width="24" height="8" ry="4" fill="#4e4e4e" stroke-linecap="round" stroke-linejoin="round" stroke-width="2"/><rect x="14" y="30" width="20" height="4" ry="2" fill="#fff" stroke-linecap="round" stroke-linejoin="round" stroke-width="2"/><g fill="#4e4e4e" stroke-linecap="round" stroke-linejoin="round" stroke-width="2"><rect x="17" y="28" width="2" height="8"/><rect x="29" y="28" width="2" height="8"/><rect x="23" y="28" width="2" height="8"/></g><g stroke-linecap="round" stroke-linejoin="round" stroke-width="2"><rect x="12" y="12" width="10" height="10" ry="5" fill="#2c78ba"/><rect x="26" y="12" width="10" height="10" ry="5" fill="#2c78ba"/><rect x="28" y="14" width="6" height="6" ry="3" fill="#fff"/><rect x="14" y="14" width="6" height="6" ry="3" fill="#fff"/><path d="m20 26 4-5 4 5z" opacity=".3"/></g></svg>
