<?xml version="1.0" encoding="UTF-8"?>
<!-- Created with Inkscape (http://www.inkscape.org/) -->
<svg id="SVGRoot" width="48px" height="48px" version="1.1" viewBox="0 0 48 48" xmlns="http://www.w3.org/2000/svg" xmlns:cc="http://creativecommons.org/ns#" xmlns:dc="http://purl.org/dc/elements/1.1/" xmlns:rdf="http://www.w3.org/1999/02/22-rdf-syntax-ns#">
 <defs>
  <style>.cls-1{fill:none;stroke:#fff;stroke-linecap:round;stroke-linejoin:round;}</style>
  <style>.a{fill:none;stroke:#b1b5bd;stroke-linecap:round;stroke-linejoin:round;isolation:isolate;opacity:0.63;}</style>
 </defs>
 <metadata>
  <rdf:RDF>
   <cc:Work rdf:about="">
    <dc:format>image/svg+xml</dc:format>
    <dc:type rdf:resource="http://purl.org/dc/dcmitype/StillImage"/>
   </cc:Work>
  </rdf:RDF>
 </metadata>
 <g fill-rule="evenodd">
  <rect x="4" y="4" width="40" height="40" ry="8" fill="#ffcd4b" style="paint-order:stroke fill markers"/>
  <path d="m12 4c-4.432 0-8 3.568-8 8v24c0 4.432 3.568 8 8 8h24c4.432 0 8-3.568 8-8v-24c0-4.432-3.568-8-8-8h-24zm0 1h24c3.878 0 7 3.122 7 7v24c0 3.878-3.122 7-7 7h-24c-3.878 0-7-3.122-7-7v-24c0-3.878 3.122-7 7-7z" opacity=".3" style="paint-order:stroke fill markers"/>
  <rect x="20" y="14" width="6" height="6" ry="3" fill="#4e4e4e" style="paint-order:normal"/>
  <rect x="20" y="18" width="2" height="12" ry="1" fill="#4e4e4e" style="paint-order:normal"/>
 </g>
 <g fill="none" stroke="#4e4e4e" stroke-linecap="round" stroke-linejoin="round" stroke-width="2">
  <path d="m21 19h-6l-3 5"/>
  <path d="m10 37 10-18"/>
  <path d="m21 20-4 8 2 4v5"/>
  <path d="m12 24 14 8"/>
 </g>
 <path d="m20 38 7-10h4l8 10z" fill="#4e4e4e"/>
 <path d="m12 6c-1.3557 0-2.599 0.45049-3.6016 1.2031l-2.3984 4.7969h6l3-6h-3zm6 0-3 6h6l3-6h-6zm9 0-3 6h6l3-6h-6zm9 0-3 6h6l1.7988-3.5977c-1.0926-1.4576-2.8289-2.4023-4.7988-2.4023z" fill="#4e4e4e"/>
</svg>
