<?xml version="1.0" encoding="UTF-8"?>
<!-- Created with Inkscape (http://www.inkscape.org/) -->
<svg id="SVGRoot" width="48px" height="48px" version="1.1" viewBox="0 0 48 48" xmlns="http://www.w3.org/2000/svg" xmlns:cc="http://creativecommons.org/ns#" xmlns:dc="http://purl.org/dc/elements/1.1/" xmlns:rdf="http://www.w3.org/1999/02/22-rdf-syntax-ns#">
 <defs>
  <style>.cls-1{fill:none;stroke:#fff;stroke-linecap:round;stroke-linejoin:round;}</style>
  <style>.a{fill:none;stroke:#b1b5bd;stroke-linecap:round;stroke-linejoin:round;isolation:isolate;opacity:0.63;}</style>
 </defs>
 <metadata>
  <rdf:RDF>
   <cc:Work rdf:about="">
    <dc:format>image/svg+xml</dc:format>
    <dc:type rdf:resource="http://purl.org/dc/dcmitype/StillImage"/>
   </cc:Work>
  </rdf:RDF>
 </metadata>
 <g fill-rule="evenodd">
  <rect x="4" y="4" width="40" height="40" ry="8" fill="#71b9e3" style="paint-order:stroke fill markers"/>
  <path d="m12 4c-4.432 0-8 3.568-8 8v24c0 4.432 3.568 8 8 8h24c4.432 0 8-3.568 8-8v-24c0-4.432-3.568-8-8-8h-24zm0 1h24c3.878 0 7 3.122 7 7v24c0 3.878-3.122 7-7 7h-24c-3.878 0-7-3.122-7-7v-24c0-3.878 3.122-7 7-7z" opacity=".3" style="paint-order:stroke fill markers"/>
  <rect transform="scale(-1,1)" x="-32" y="10" width="10" height="12" ry="5" fill="#fff" style="paint-order:normal"/>
 </g>
 <path d="m22 34c0 4 4 4 4 4v-21h-4z" fill="#fff"/>
 <rect transform="scale(-1,1)" x="-30" y="12" width="6" height="8" ry="3" fill="#71b9e3" fill-rule="evenodd" style="paint-order:normal"/>
 <rect transform="rotate(-61.86)" x="-17.753" y="18.883" width="10" height="12" ry="5" fill="#fff" fill-rule="evenodd" style="paint-order:normal"/>
 <path d="m34.158 27.061c3.5272 1.8865 1.6407 5.4137 1.6407 5.4137l-18.518-9.904 1.8865-3.5272z" fill="#fff"/>
 <rect transform="rotate(-61.86)" x="-15.753" y="20.883" width="6" height="8" ry="3" fill="#71b9e3" fill-rule="evenodd" style="paint-order:normal"/>
</svg>
