<?xml version="1.0" encoding="UTF-8"?>
<!-- Created with Inkscape (http://www.inkscape.org/) -->
<svg id="SVGRoot" width="48px" height="48px" version="1.1" viewBox="0 0 48 48" xmlns="http://www.w3.org/2000/svg" xmlns:cc="http://creativecommons.org/ns#" xmlns:dc="http://purl.org/dc/elements/1.1/" xmlns:rdf="http://www.w3.org/1999/02/22-rdf-syntax-ns#">
 <defs id="defs815">
  <style id="style819">.cls-1{fill:none;stroke:#fff;stroke-linecap:round;stroke-linejoin:round;}</style>
 </defs>
 <metadata id="metadata818">
  <rdf:RDF>
   <cc:Work rdf:about="">
    <dc:format>image/svg+xml</dc:format>
    <dc:type rdf:resource="http://purl.org/dc/dcmitype/StillImage"/>
    <dc:title/>
   </cc:Work>
  </rdf:RDF>
 </metadata>
 <g id="layer1" fill-rule="evenodd">
  <rect id="rect1373-5" x="4" y="4" width="40" height="40" ry="8" fill="#b7bfc2" style="paint-order:stroke fill markers"/>
  <rect id="rect889" x="9" y="9" width="30" height="30" ry="15" opacity=".3" style="paint-order:stroke fill markers"/>
  <rect id="rect828" x="10" y="10" width="28" height="28" ry="14" fill="#efefef" style="paint-order:normal"/>
  <path id="rect817" d="m12 4c-4.432 0-8 3.568-8 8v24c0 4.432 3.568 8 8 8h24c4.432 0 8-3.568 8-8v-24c0-4.432-3.568-8-8-8h-24zm0 1h24c3.878 0 7 3.122 7 7v24c0 3.878-3.122 7-7 7h-24c-3.878 0-7-3.122-7-7v-24c0-3.878 3.122-7 7-7z" opacity=".3" style="paint-order:stroke fill markers"/>
  <rect id="rect830" x="12" y="12" width="24" height="24" ry="12" fill="#4e4e4e" style="paint-order:normal"/>
  <rect id="rect832-8" x="14" y="14" width="20" height="20" ry="10" fill="#943657" style="paint-order:normal"/>
  <rect id="rect832" x="16" y="16" width="16" height="16" ry="8" fill="#d35244" style="paint-order:normal"/>
  <rect id="rect836" x="20" y="20" width="8" height="8" ry="4" fill="#f97263" style="paint-order:normal"/>
  <rect id="rect838" x="21" y="21" width="6" height="6" ry="3" fill="#d35244" style="paint-order:normal"/>
  <rect id="rect834" x="22" y="22" width="4" height="4" ry="2" fill="#ffdd75" style="paint-order:normal"/>
  <rect id="rect855" x="22" y="14" width="4" height="2" rx="2" ry="1" fill="#d35244" style="paint-order:normal"/>
  <rect id="rect855-6" x="23" y="17" width="2" height="1" rx="1" ry=".5" fill="#f97263" style="paint-order:normal"/>
  <rect id="rect855-8" transform="rotate(-45)" x="-1.5127" y="23.958" width="4" height="2" rx="2" ry="1" fill="#d35244" style="paint-order:normal"/>
  <rect id="rect855-6-8" transform="rotate(-45)" x="-.51273" y="26.958" width="2" height="1" rx="1" ry=".5" fill="#f97263" style="paint-order:normal"/>
  <rect id="rect855-8-6" transform="matrix(-.70711 -.70711 -.70711 .70711 0 0)" x="-35.455" y="-9.984" width="4" height="2" rx="2" ry="1" fill="#d35244" style="paint-order:normal"/>
  <rect id="rect855-6-8-4" transform="matrix(-.70711 -.70711 -.70711 .70711 0 0)" x="-34.455" y="-6.984" width="2" height="1" rx="1" ry=".5" fill="#f97263" style="paint-order:normal"/>
  <rect id="rect908" x="23" y="23" width="2" height="2" rx="2" ry="1" fill="#fff" style="paint-order:normal"/>
 </g>
</svg>
