<?xml version="1.0" encoding="UTF-8"?>
<!-- Created with Inkscape (http://www.inkscape.org/) -->
<svg id="SVGRoot" width="48px" height="48px" version="1.1" viewBox="0 0 48 48" xmlns="http://www.w3.org/2000/svg" xmlns:cc="http://creativecommons.org/ns#" xmlns:dc="http://purl.org/dc/elements/1.1/" xmlns:rdf="http://www.w3.org/1999/02/22-rdf-syntax-ns#" xmlns:xlink="http://www.w3.org/1999/xlink">
 <defs id="defs815">
  <style id="style819">.cls-1{fill:none;stroke:#fff;stroke-linecap:round;stroke-linejoin:round;}</style>
  <style id="style2">.a{fill:none;stroke:#b1b5bd;stroke-linecap:round;stroke-linejoin:round;isolation:isolate;opacity:0.63;}</style>
  <style id="style819-2">.cls-1{fill:none;stroke:#fff;stroke-linecap:round;stroke-linejoin:round;}</style>
 </defs>
 <metadata id="metadata818">
  <rdf:RDF>
   <cc:Work rdf:about="">
    <dc:format>image/svg+xml</dc:format>
    <dc:type rdf:resource="http://purl.org/dc/dcmitype/StillImage"/>
    <dc:title/>
   </cc:Work>
  </rdf:RDF>
 </metadata>
 <g id="layer1" fill-rule="evenodd">
  <rect id="rect1373-5" x="4" y="4" width="40" height="40" ry="8" fill="#4e4e4e" style="paint-order:stroke fill markers"/>
  <path id="rect817" d="m12 4c-4.432 0-8 3.568-8 8v24c0 4.432 3.568 8 8 8h24c4.432 0 8-3.568 8-8v-24c0-4.432-3.568-8-8-8h-24zm0 1h24c3.878 0 7 3.122 7 7v24c0 3.878-3.122 7-7 7h-24c-3.878 0-7-3.122-7-7v-24c0-3.878 3.122-7 7-7z" opacity=".4" style="paint-order:stroke fill markers"/>
  <path id="rect835" d="m25.647 11.885c-0.04767 0.0032-0.11084 0.01679-0.19154 0.03837-0.20687 0.05548-0.55052 0.10204-0.76381 0.10334-0.36965 0.0021-0.3878 0.06689-0.3878 1.3812v1.3788h0.68942c0.43384 0 0.6915 0.07987 0.6948 0.21544 0.0028 0.11848 0.08474 0.07872 0.18212-0.08853 0.0974-0.16727 0.14002-0.54015 0.0946-0.82844-0.08052-0.51092-0.06674-0.52264 0.55005-0.47128 0.51905 0.04322 0.67934 0.1515 0.8914 0.6029 0.23288 0.49575 0.33121 0.54913 0.99104 0.53827 0.54452-0.0089 0.73925-0.0839 0.75876-0.29186 0.03679-0.39201 0.0785-0.58521 0.19053-0.88298 0.35279-0.93753 0.17122-1.3556-0.5615-1.2933-0.14219 0.01206-0.34556-0.04259-0.4521-0.12119-0.10654-0.0786-0.60024-0.1712-1.0971-0.20602-0.73351-0.05139-0.96972 3e-3 -1.2556 0.28883l-0.35212 0.35212 0.10199-0.38915c0.06547-0.25038 0.05989-0.33592-0.08314-0.32653zm9.4351 0.17067c-0.12039-0.0035-0.24226-0.0017-0.35952 0.0058l-0.85302 0.05386-0.7756 1.5889c-0.60339 1.2361-0.88083 1.6262-1.2496 1.7575-0.29486 0.105-0.47398 0.10705-0.47398 0.0054 0-0.08986 0.08206-0.16326 0.18245-0.16326 0.10038 0 0.13712-0.07356 0.08147-0.16361-0.05565-0.09003 0.05618-0.24788 0.24843-0.35077 0.29979-0.16043 0.34942-0.35804 0.34942-1.3876v-1.2005h-1.5603l0.04781 2.4995c0.02722 1.4284-0.02113 2.522-0.11243 2.5523-0.096 0.03184-0.0975 0.15207-4e-3 0.30128 0.08557 0.1366 0.13939 1.1179 0.11984 2.1807-0.02813 1.5286 0.01644 1.9612 0.21241 2.0709 0.2604 0.14572 1.6414 0.22987 1.6414 0.09998 0-0.04148-0.08029-0.22565-0.17841-0.40901-0.12299-0.2298-0.12299-0.33327 0-0.33327 0.09813 0 0.17841-0.23268 0.17841-0.51706 0-0.28438 0.07757-0.51706 0.17236-0.51706 0.30624 0 0.18291-0.48996-0.18885-0.75035-0.25032-0.17533-0.32747-0.35906-0.25146-0.59853 0.06031-0.19004 0.02784-0.39623-0.07237-0.45815-0.1002-0.06193-0.13245-0.19369-0.07136-0.29253 0.0611-0.09885 0.0238-0.23351-0.08314-0.2996-0.13864-0.08567-0.12039-0.21624 0.06396-0.45478 0.24717-0.31986 0.26921-0.32115 0.49787-0.02659 0.13154 0.16943 0.33514 0.28578 0.45244 0.25853 0.11729-0.02724 0.24874 0.04747 0.29219 0.16596 0.04345 0.1185-0.0021 0.21544-0.10166 0.21544-0.09935 0-0.26093 0.14962-0.35884 0.33259-0.1377 0.25729-0.05627 0.638 0.35884 1.6805 0.29518 0.74129 0.57402 1.4111 0.61973 1.4882 0.04573 0.07715-0.19614 0.0879-0.53726 0.02386-0.37538-0.07042-0.62008-0.0485-0.62008 0.05555 0 0.22414 1.0864 0.36608 3.0162 0.39419 2.2428 0.03267 2.5328 0.01067 2.4126-0.1838-0.05884-0.09519-0.45873-0.13868-0.88837-0.09661-0.97929 0.09591-1.6104-0.13051-1.6104-0.57765 0-0.48671-0.32725-0.61938-0.6093-0.24709-0.13287 0.17539-0.24407 0.22635-0.24708 0.11345-3e-3 -0.11289 0.06891-0.25098 0.15956-0.307 0.09066-0.05602 0.12105-0.21565 0.06767-0.3548-0.05341-0.13917-0.0064-0.25315 0.10435-0.25315 0.19468 0 0.19341-0.68624-0.0017-0.86177-0.17758-0.15978-0.85234-1.7176-0.85234-1.9679 0-0.13646-0.12427-0.37203-0.27604-0.5238-0.29072-0.29076-0.21124-1.1277 0.10708-1.1277 0.09299 0 0.169-0.15062 0.169-0.33461 0-0.184 0.07755-0.3824 0.17235-0.44098 0.09479-0.05859 0.17236-0.29421 0.17236-0.5238 0-0.31301 0.11855-0.44591 0.47398-0.53086 0.26069-0.0623 0.54953-0.15665 0.64195-0.20972 0.09241-0.05307 0.3251-0.10568 0.51706-0.1168 0.9663-0.05601 1.1247-0.10332 1.1247-0.3363 0-0.26715-0.6631-0.7154-0.93852-0.63455-0.08954 0.02629-0.32607-0.03985-0.52582-0.14677-0.14982-0.08019-0.49523-0.13583-0.85639-0.14609zm-21.234 0.0414-1.8676 0.01817v1.7525c0 1.6652 0.13062 2.2666 0.39823 1.8336 0.14973-0.24226 0.60066 0.05455 0.77055 0.5073 0.06225 0.16588 0.19308 0.30162 0.29085 0.30162 0.15704 0 0.22765-0.44846 0.22386-1.4219-7.03e-4 -0.16588 0.06634-0.30162 0.1488-0.30162 0.08245 0 0.15221-0.09696 0.15518-0.21544 3e-3 -0.1185 0.19353-0.35217 0.42348-0.51942 0.40468-0.29435 0.42434-0.29251 0.61368 0.06127 0.12278 0.22942 0.19144 1.337 0.18447 2.9755-0.01049 2.4504-0.03371 2.6287-0.37972 2.9118-0.20271 0.1659-0.54126 0.30162-0.75237 0.30162-0.33774 0-0.38017-0.0827-0.35447-0.68908 0.01608-0.37902 0.08106-0.74085 0.14441-0.80421 0.19706-0.19706 0.12757-0.60296-0.08113-0.47398-0.14018 0.08664-0.16318-0.05433-0.0808-0.4935 0.06821-0.36356 0.04279-0.65949-0.06227-0.72442-0.09944-0.06146-0.17774 0.04244-0.17774 0.23631 0 0.19047-0.10498 0.4086-0.23328 0.48441-0.12829 0.0758-0.27418 0.25402-0.32417 0.39621-0.06493 0.18463-0.14469 0.12305-0.2794-0.21544-0.22876-0.5748-0.46562-0.6085-0.6056-0.08617-0.16237 0.60589-0.12642 1.8214 0.05724 1.9349 0.10442 0.06454 0.09631 0.2553-0.02189 0.51471-0.23854 0.52354-0.05741 1.3212 0.27132 1.195 0.13163-0.05052 0.29637 1e-3 0.36625 0.11378 0.08709 0.14092 0.49812 0.17902 1.3065 0.12119 0.93338-0.06677 1.306-0.18087 1.7865-0.54736 0.74016-0.56454 1.1564-1.3246 1.0715-1.9558-0.0349-0.25944 7e-4 -0.75872 0.07944-1.1095 0.08174-0.36456 0.07463-0.81815-0.01679-1.0587-0.2138-0.56234-0.04258-1.1472 0.33596-1.1472 0.37528 0 0.58678-0.48187 0.34134-0.77762-0.13453-0.16211-0.07008-0.24448 0.2555-0.32619 0.29183-0.07325 0.4356-0.22779 0.4356-0.46892 0-0.24907-0.0796-0.32956-0.25853-0.26089-0.15747 0.06043-0.25853 4.12e-4 -0.25853-0.15384 0-0.13922-0.09696-0.25439-0.21544-0.25584-0.16772-0.0021-0.16655-0.03375 0.0058-0.14307 0.12198-0.0774 0.17197-0.26952 0.11109-0.4282-0.0622-0.16206-0.02732-0.28782 0.08012-0.28782 0.10493 0 0.19087-0.06942 0.19087-0.15417 0-0.08477-0.1745-0.15069-0.3878-0.14677-0.88122 0.01629-1.6753-0.12593-1.7468-0.31238-0.05177-0.1349-0.67684-0.19284-1.944-0.18043zm7.5957 0.02324c-0.1727 3e-3 -0.39205 0.02312-0.67326 0.05454l-1.0341 0.11546 0.05251 0.65946c0.02879 0.36259-0.03756 0.76741-0.14744 0.89981-0.10988 0.1324-0.21112 0.73997-0.22487 1.3502-0.01382 0.61025-0.08313 1.1678-0.15417 1.2388-0.07104 0.07104-0.12927 0.24141-0.12927 0.37871 0 0.21016 0.06716 0.20574 0.42483-0.02862 0.52357-0.34305 0.6093-0.3467 0.6093-0.02492 0 0.14109-0.2468 0.31766-0.55645 0.3979-0.46235 0.11981-0.56395 0.2352-0.60021 0.68235-0.02401 0.29603-0.20023 1.2409-0.3915 2.0996-0.19127 0.8587-0.34774 1.6441-0.34774 1.7451 0 0.11152 0.32143 0.16286 0.81868 0.13095l0.81868-0.05251 0.17639-1.0341 0.17639-1.0341 0.71668-0.05251 0.71635-0.05218 0.10908 0.82777c0.05999 0.45541 0.12427 0.94444 0.14273 1.0866 0.03878 0.29865 1.2718 0.46519 1.5303 0.20669 0.10042-0.10042 0.05884-0.77297-0.10974-1.7784-0.1491-0.8893-0.30057-1.9271-0.33663-2.3062-0.03606-0.37915-0.10804-0.80573-0.1599-0.94792-0.05186-0.14219-0.13006-0.52999-0.1737-0.86177-0.07207-0.54797-0.3314-2.0244-0.54265-3.0896-0.09345-0.47117-0.19215-0.61942-0.71029-0.611zm4.5159 0.59811c0.03726 0 0.06767 0.11633 0.06767 0.25853 0 0.14219-0.07516 0.25853-0.16697 0.25853-0.09181 0-0.12222-0.11633-0.06767-0.25853 0.05457-0.14219 0.12971-0.25853 0.16697-0.25853zm-11.56 0.24104c0.0175-0.0044 0.03353-1.38e-4 0.04679 0.01311 0.05307 0.05307 3.44e-4 0.19211-0.11749 0.30903-0.17022 0.16894-0.19015 0.14903-0.09661-0.09661 0.04854-0.12749 0.11478-0.21306 0.1673-0.22554zm-0.4457 0.7076c0.0271 0.0017 0.06119 0.01031 0.10268 0.02624 0.13682 0.05251 0.20595 0.16492 0.1535 0.24978-0.1321 0.21374-0.19523 0.19392-0.30633-0.09559-0.04794-0.12495-0.03118-0.18504 0.05017-0.18043zm2.6802 1.292c0.14219 0 0.25853 0.07757 0.25853 0.17236 0 0.09479-0.11633 0.17235-0.25853 0.17235-0.14219 0-0.25853-0.07757-0.25853-0.17235 0-0.09479 0.11635-0.17236 0.25853-0.17236zm4.3301 0.24337c0.08199-0.01084 0.17585 0.4038 0.29455 1.257 0.05005 0.35969 0.1357 0.86231 0.19053 1.1169 0.11252 0.52255 0.01119 0.61745-0.56015 0.5238-0.32902-0.05393-0.38324-0.14593-0.31071-0.52616 0.04833-0.25331 0.1426-0.96464 0.20938-1.5808 0.05601-0.51668 0.11262-0.78239 0.17639-0.79074zm7.5947 0.10133c-0.45496 0-1.2193 0.67886-0.79142 0.70288 0.13319 0.0076-0.14088 0.19702-0.60896 0.42112-0.46808 0.2241-0.90394 0.37484-0.96848 0.33494-0.06454-0.03991-0.17513-0.40394-0.24574-0.80892-0.12632-0.72446-0.13069-0.72826-0.27166-0.24204-0.07881 0.2718-0.30272 0.60581-0.49754 0.74227-0.4112 0.28802-0.46372 0.57328-0.1057 0.57328 0.1366 0 0.29606 0.07751 0.35447 0.17202 0.07005 0.11334-0.04188 0.11539-0.32855 0.0064-0.30883-0.11742-0.47282-0.10465-0.56655 0.04377-0.07255 0.11488-0.13341 1.1588-0.13532 2.3201l-0.0034 2.1113h0.72474c0.68562 0 0.72911-0.0302 0.80791-0.56015 0.04581-0.30809 0.07723-0.75406 0.06968-0.99104-0.0076-0.23698-3e-3 -0.76051 0.01049-1.1634 0.0217-0.65022 0.07064-0.73251 0.4356-0.73251 0.37674 0 0.44617 0.14058 0.8271 1.6805l0.41574 1.6805 0.81027 0.05251c0.44579 0.02889 0.81028-0.01001 0.80993-0.08617-3.44e-4 -0.07629-0.2201-1.0084-0.48845-2.0716-0.26835-1.0631-0.43036-1.9939-0.3602-2.0682 0.07017-0.07437 0.27868-0.40858 0.46354-0.7426 0.41726-0.75396 0.25583-1.3748-0.35749-1.3748zm-1.6596 1.7235c0.10038 0 0.13467 0.07757 0.07608 0.17235-0.05859 0.0948-0.14065 0.17236-0.18245 0.17236-0.04181 0-0.07608-0.07757-0.07608-0.17236 0-0.09478 0.08206-0.17235 0.18245-0.17235zm4.9121 2.0683c0.04179 0 0.07608 0.07757 0.07608 0.17235 0 0.09479-0.08206 0.17236-0.18245 0.17236-0.10039 0-0.13466-0.07757-0.07608-0.17236 0.05859-0.09479 0.14065-0.17235 0.18245-0.17235z" fill="#fff" stroke-width=".17235" style="paint-order:stroke fill markers"/>
  <path id="rect835-4" d="m13.311 26.662c-0.33008 0.0066-0.62131 0.02759-0.81271 0.06705-0.63785 0.13145-0.69883 0.32689-0.54894 1.7551 0.0877 0.83567 0.09546 0.84607 0.63172 0.84607 0.29862 0 0.60156 0.09064 0.67327 0.20145 0.07879 0.12172 0.14983-0.10511 0.17973-0.57318l0.04974-0.77462 0.5949 0.04942c0.51534 0.04283 0.61599 0.11956 0.74944 0.57286 0.14721 0.50001 0.18631 0.52131 0.87251 0.47654 0.54092-0.0353 0.74661-0.12476 0.83285-0.36229 0.063-0.1735 0.08392-0.36815 0.04658-0.43279-0.03734-0.06465 8e-3 -0.25949 0.10073-0.4328 0.1153-0.21544 0.1169-0.45114 0.0051-0.74535-0.133-0.34982-0.2358-0.41201-0.55051-0.33302-0.21292 0.05345-0.41203 0.02297-0.44224-0.06767-0.05116-0.15349-1.3919-0.26643-2.3821-0.24677zm6.7154 9.39e-4c-0.22626 0.06264-1.2897 1.0517-1.7328 1.6257-0.13649 0.17684-0.26143 0.64662-0.2773 1.0441-0.01586 0.39744-0.09403 1.1117-0.17375 1.587-0.07971 0.47531-0.0861 1.128-0.01455 1.4504 0.07163 0.32242 0.12318 0.69486 0.11458 0.82782-0.06597 1.0186 0.06324 1.4276 0.6547 2.0683 0.54696 0.59246 0.70336 0.67129 1.3295 0.67106 0.39032-1.38e-4 0.96361-0.12704 1.2738-0.28202 0.53384-0.26668 1.1916-1.2521 1.0217-1.5307-0.11013-0.18054-1.5052-0.14613-1.5052 0.03714 0 0.25838-0.78734 0.38049-1.0497 0.16273-0.32017-0.26571-0.35502-4.2839-0.03808-4.3906 0.15733-0.05295 0.15334-0.12607-0.01825-0.33396-0.1479-0.17918-0.18439-0.45436-0.11173-0.84166 0.09976-0.53174 0.14695-0.57138 0.6226-0.52534l0.51463 0.04974 0.08059 2.3368c0.07863 2.28 0.09136 2.3472 0.51778 2.7664 0.2739 0.26931 0.55088 0.40005 0.7422 0.35001 0.26217-0.06856 0.30972-0.25398 0.33774-1.3122 0.01792-0.67773 0.06311-1.2623 0.10009-1.2993 0.03697-0.03698 0.17777 0.02446 0.31287 0.1366 0.1351 0.11212 0.24551 0.14845 0.24551 0.0809 0-0.06755-0.10565-0.20313-0.23482-0.30154-0.27388-0.20868-0.42301-0.82411-0.47308-1.9518-0.0197-0.44318-0.11551-0.95083-0.21309-1.1281-0.29578-0.53735-0.94066-1.0557-1.4218-1.1429-0.25018-0.04537-0.50694-0.11486-0.57066-0.15422-0.0072-0.0044-0.01862-0.0046-0.03368-3.21e-4zm5.7082 0.03746c-0.21307-0.0071-0.4077 0.14361-0.85835 0.58577-1.1323 1.1109-1.1848 1.2193-1.226 2.5288-0.02693 0.85461-0.10907 1.2609-0.2814 1.39-0.21692 0.16248-0.21675 0.19241 0.0028 0.27667 0.1962 0.07529 0.24646 0.39373 0.24646 1.5609 0 1.3446 0.03606 1.5137 0.43499 2.0368 0.23928 0.31371 0.58375 0.63448 0.7655 0.71293 0.55025 0.2375 1.9782 0.0745 2.3579-0.26912 0.36732-0.33242 0.79016-1.2019 0.68019-1.3985-0.11785-0.2107-1.2444-0.1204-1.57 0.12591-0.38975 0.29479-0.80128 0.30306-1.0356 0.02078-0.26549-0.3199-0.26969-4.1431-0.0048-4.3069 0.16434-0.10156 0.16341-0.17538-0.0051-0.37834-0.13645-0.16442-0.17243-0.44927-0.10325-0.81806 0.09185-0.48968 0.16814-0.56594 0.5653-0.56594 0.26982 0 0.49898 0.10508 0.55649 0.25495 0.0538 0.1402 0.09788 1.199 0.09788 2.3528v2.0976l0.48348 0.45168c0.26591 0.2484 0.48346 0.39295 0.48346 0.32137s0.13424-0.09486 0.29839-0.05194c0.26972 0.07053 0.30168-0.04299 0.33176-1.1794 0.03601-1.3601 0.08059-1.5058 0.37173-1.2147 0.10488 0.10488 0.35735 0.19074 0.56122 0.19074 0.36618 0 0.37078 0.02335 0.37078 1.9339 0 1.422 0.0513 1.9232 0.1939 1.8936 0.10665-0.02219 0.19731 0.10475 0.20144 0.28203 0.0057 0.24458 0.10222 0.31176 0.40038 0.27856 0.21611-0.02407 0.41273-0.06335 0.43688-0.0875 0.05575-0.05575 0.05253-1.0134-0.0082-2.4013-0.02603-0.5952 0.01423-1.0442 0.0894-0.99779 0.07516 0.04645 0.1366-0.24127 0.1366-0.63959 0-0.39832 0.08181-0.92863 0.18162-1.1781l0.1813-0.45357 0.13408 0.46962c0.0737 0.25831 0.08451 0.5484 0.02387 0.64463-0.23609 0.37496-0.16672 1.3334 0.209 2.8851 0.2156 0.89039 0.4571 1.684 0.53667 1.7636 0.07955 0.07955 0.34718 0.12069 0.59489 0.09159 0.48489-0.05693 0.47722-0.04109 0.9682-1.9465 0.15418-0.5983 0.33924-1.0878 0.41139-1.0878 0.07215 0 0.15205 0.67082 0.17752 1.4907l0.04625 1.4907h1.4504l0.04686-1.3295c0.03649-1.0366 0.09864-1.3295 0.28203-1.3295 0.31164 0 0.30016-0.38997-0.01923-0.65501-0.18414-0.15282-0.24124-0.43633-0.20679-1.0271 0.02617-0.44874 0.09307-0.88838 0.14855-0.97701 0.1764-0.28183 0.07886-1.3107-0.15045-1.587-0.17724-0.21356-0.18136-0.31415-0.02045-0.50802 0.15254-0.1838 0.15449-0.24173 0.0075-0.24173-0.12471 0-0.17517-0.21188-0.14195-0.59741 0.04954-0.57492 0.02846-0.60213-0.5609-0.72458-0.8258-0.17158-1.5609 0.19442-1.5609 0.77714 0 0.28101-0.10537 0.44146-0.32861 0.49984-0.28951 0.07572-0.30149 0.11716-0.09852 0.34749 0.20064 0.22768 0.18486 0.51153-0.12275 2.1914-0.33418 1.8248-0.50926 2.1164-0.65754 1.0957-0.03569-0.24583-0.1823-1.0271-0.32578-1.7362-0.14348-0.70909-0.26328-1.5249-0.26628-1.813-0.0028-0.28807-0.06162-0.52376-0.13032-0.52376-0.0687 0-0.16972-0.22379-0.22442-0.49732-0.05867-0.29339-0.18087-0.47029-0.29808-0.43122-0.27766 0.09256-0.16529 1.3465 0.1857 2.073 0.24238 0.50165 0.25037 0.62477 0.05886 0.88668-0.192 0.26258-0.24344 0.27129-0.37708 0.06328-0.1373-0.21374-0.17273-0.21382-0.3135 7.96e-4 -0.11741 0.17884-0.15934 0.06482-0.16116-0.43815-0.0018-0.53869 0.04767-0.66053 0.23922-0.58702 0.26879 0.10315 0.32486-0.11504 0.09064-0.35253-0.08304-0.08421-0.17369-0.47963-0.20144-0.87849-0.04949-0.71124-0.06199-0.7262-0.6547-0.77525l-0.60434-0.05004v2.266c0 2.1305-0.01844 2.266-0.31067 2.266-0.36686 0-0.86002-0.44499-0.72867-0.65753 0.05038-0.08148 0.02688-0.14826-0.05224-0.14826-0.15978 0-0.20412-0.25498-0.20932-1.2087-0.0048-0.85764-0.51195-1.8735-1.113-2.2285-0.26779-0.15818-0.48694-0.24921-0.48694-0.20207 0 0.04714-0.17715 0.01848-0.39376-0.0639-0.08527-0.03239-0.15844-0.05242-0.22946-0.05477zm-12.377 0.11049c0.06105 0.01602 0.10734 0.2194 0.10734 0.49543 0 0.70282-0.09927 0.74491-0.19642 0.08309-0.03959-0.26981-0.01193-0.52816 0.06202-0.57381 0.0092-0.0057 0.01839-0.0071 0.02711-0.0048zm2.5335 3.0027c-0.56622 0-0.99218 0.43347-0.64305 0.65439 0.19871 0.12574 0.19723 0.14956-0.0103 0.16808-0.13295 0.01194-0.29612 0.01292-0.3626 0.0025-0.06647-0.01046-0.12087 0.04746-0.12087 0.12905 0 0.0816-0.21756 0.19624-0.48347 0.25464-0.26591 0.05841-0.48463 0.19118-0.48599 0.29493-0.0014 0.10876-0.06857 0.08618-0.15864-0.0532-0.08591-0.13295-0.15728-0.5179-0.15864-0.85552-0.0014-0.36767-0.06714-0.57397-0.16368-0.51432-0.08863 0.05479-0.16116 0.24262-0.16116 0.41737 0 0.17475-0.25382 0.54064-0.56405 0.81303l-0.56405 0.49512v4.1567h1.4504v-1.6116c0-1.6048 0.0014-1.6116 0.3966-1.6116 0.33157 0 0.4257 0.11242 0.57317 0.68492 0.09703 0.3767 0.23844 0.90248 0.31413 1.1684 0.07568 0.26591 0.18179 0.6829 0.23576 0.92665 0.08852 0.39983 0.16625 0.44318 0.7935 0.44318 0.38241 0 0.73415-0.03911 0.78186-0.08688 0.04771-0.04771-0.12808-0.89066-0.39062-1.8734l-0.47718-1.7869 0.42776-0.78627c0.51693-0.94977 0.4402-1.4293-0.22883-1.4293zm-3.3623 1.6228c0.14988-0.0062 0.31727 0.06119 0.37204 0.14983 0.11453 0.18531 0.10892 0.18531-0.32231 0-0.26275-0.11291-0.27188-0.14059-0.04974-0.14983zm21.477 0.01868c0.01161-0.01145 0.0252 0.01765 0.03963 0.09285 0.03856 0.20046 0.0372 0.49054-0.0032 0.64463-0.04038 0.15408-0.07198-0.01-0.07019-0.36449 0.0014-0.22159 0.01439-0.35384 0.03373-0.37299z" fill="#fff" stroke-width=".16116" style="paint-order:stroke fill markers"/>
 </g>
</svg>
