<?xml version="1.0" encoding="UTF-8"?>
<!-- Created with Inkscape (http://www.inkscape.org/) -->
<svg id="SVGRoot" width="48px" height="48px" version="1.1" viewBox="0 0 48 48" xml:space="preserve" xmlns="http://www.w3.org/2000/svg" xmlns:cc="http://creativecommons.org/ns#" xmlns:dc="http://purl.org/dc/elements/1.1/" xmlns:rdf="http://www.w3.org/1999/02/22-rdf-syntax-ns#"><defs><style>.cls-1{fill:none;stroke:#fff;stroke-linecap:round;stroke-linejoin:round;}</style></defs><metadata><rdf:RDF><cc:Work rdf:about=""><dc:format>image/svg+xml</dc:format><dc:type rdf:resource="http://purl.org/dc/dcmitype/StillImage"/></cc:Work></rdf:RDF></metadata><path d="m44 12-22.16 1.8301-17.783 23.135c0.47338 3.974 3.8379 7.0352 7.9434 7.0352h24c4.432 0 8-3.568 8-8v-24z" fill="#69B3E7" fill-rule="evenodd" style="paint-order:stroke fill markers"/><path d="m12 4c-4.432 0-8 3.568-8 8v24c0 0.3265 0.018993 0.6488 0.056641 0.96484l39.943-24.965c0-4.432-3.568-8-8-8h-24z" fill="#2277b9" stroke-linecap="round" stroke-linejoin="round"/><rect x="8" y="8" width="32" height="32" ry="4" fill="#efefef" stroke-linecap="round" stroke-linejoin="round"/><path d="m12 4c-4.432 0-8 3.568-8 8v24c0 4.432 3.568 8 8 8h24c4.432 0 8-3.568 8-8v-24c0-4.432-3.568-8-8-8zm0 1h24c3.878 0 7 3.122 7 7v24c0 3.878-3.122 7-7 7h-24c-3.878 0-7-3.122-7-7v-24c0-3.878 3.122-7 7-7z" fill-rule="evenodd" opacity=".3" style="paint-order:stroke fill markers"/><path d="m14 18v12h10v-6z" fill="#FFC107" stroke-linecap="round" stroke-linejoin="round"/><path d="m14 30 20-12v12z" fill="#4f606f" stroke-linecap="round" stroke-linejoin="round"/></svg>
