<?xml version="1.0" encoding="UTF-8"?>
<!-- Created with Inkscape (http://www.inkscape.org/) -->
<svg id="SVGRoot" width="48px" height="48px" version="1.1" viewBox="0 0 48 48" xmlns="http://www.w3.org/2000/svg" xmlns:cc="http://creativecommons.org/ns#" xmlns:dc="http://purl.org/dc/elements/1.1/" xmlns:rdf="http://www.w3.org/1999/02/22-rdf-syntax-ns#">
 <defs>
  <style>.cls-1{fill:none;stroke:#fff;stroke-linecap:round;stroke-linejoin:round;}</style>
 </defs>
 <metadata>
  <rdf:RDF>
   <cc:Work rdf:about="">
    <dc:format>image/svg+xml</dc:format>
    <dc:type rdf:resource="http://purl.org/dc/dcmitype/StillImage"/>
   </cc:Work>
  </rdf:RDF>
 </metadata>
 <rect x="4" y="4" width="40" height="40" ry="8" fill="#efefef" fill-rule="evenodd" style="paint-order:stroke fill markers"/>
 <path d="m12 4c-4.432 0-8 3.568-8 8v24c0 4.432 3.568 8 8 8h24c4.432 0 8-3.568 8-8v-24c0-4.432-3.568-8-8-8zm0 1h24c3.878 0 7 3.122 7 7v24c0 3.878-3.122 7-7 7h-24c-3.878 0-7-3.122-7-7v-24c0-3.878 3.122-7 7-7z" fill-rule="evenodd" opacity=".3" style="paint-order:stroke fill markers"/>
 <path d="m34.272 19.546c-0.1624 0.126-3.0299 1.7418-3.0299 5.3345 0 4.1556 3.6487 5.6258 3.7581 5.6622-0.01683 0.08962-0.57966 2.0135-1.9238 3.9736-1.1985 1.7251-2.4503 3.4472-4.3544 3.4472-1.9041 0-2.3942-1.1061-4.5925-1.1061-2.1422 0-2.9039 1.1425-4.6458 1.1425-1.7418 0-2.957-1.5962-4.3544-3.5563-1.6186-2.3019-2.9262-5.8778-2.9262-9.2718 0-5.4437 3.5396-8.3308 7.0231-8.3308 1.851 0 3.3939 1.2153 4.5561 1.2153 1.1061 0 2.8311-1.2881 4.9369-1.2881 0.79808 0 3.6655 0.0728 5.553 2.7778zm-6.5527-5.0824c0.87088-1.0333 1.4869-2.4671 1.4869-3.9008 0-0.19882-0.01683-0.40044-0.0532-0.56286-1.4169 0.05318-3.1027 0.9437-4.1193 2.1226-0.79808 0.90728-1.543 2.341-1.543 3.7944 0 0.21842 0.0364 0.43684 0.0532 0.50684 0.08962 0.01683 0.23522 0.03641 0.38084 0.03641 1.2713 0 2.8704-0.85128 3.7944-1.9967z" opacity=".4" stroke-width="1.6294"/>
</svg>
