<?xml version="1.0" encoding="UTF-8"?>
<!-- Created with Inkscape (http://www.inkscape.org/) -->
<svg id="SVGRoot" width="48px" height="48px" version="1.1" viewBox="0 0 48 48" xml:space="preserve" xmlns="http://www.w3.org/2000/svg" xmlns:cc="http://creativecommons.org/ns#" xmlns:dc="http://purl.org/dc/elements/1.1/" xmlns:rdf="http://www.w3.org/1999/02/22-rdf-syntax-ns#"><defs><style>.cls-1{fill:none;stroke:#fff;stroke-linecap:round;stroke-linejoin:round;}</style></defs><metadata><rdf:RDF><cc:Work rdf:about=""><dc:format>image/svg+xml</dc:format><dc:type rdf:resource="http://purl.org/dc/dcmitype/StillImage"/></cc:Work></rdf:RDF></metadata><rect x="4" y="4" width="40" height="40" ry="8" fill="#efefef" fill-rule="evenodd" style="paint-order:stroke fill markers"/><path d="m12 4c-4.432 0-8 3.568-8 8v24c0 4.432 3.568 8 8 8h24c4.432 0 8-3.568 8-8v-24c0-4.432-3.568-8-8-8zm0 1h24c3.878 0 7 3.122 7 7v24c0 3.878-3.122 7-7 7h-24c-3.878 0-7-3.122-7-7v-24c0-3.878 3.122-7 7-7z" fill-rule="evenodd" opacity=".3" style="paint-order:stroke fill markers"/><path d="m11.371 14.072a1.0001 1.0001 0 0 0-1.3516 1.123l0.94141 4.709c-0.21794 0.45117-0.96094 2.0664-0.96094 4.0957 0 2.25 0.83115 4.7289 2.6426 6.6797 1.8114 1.9508 4.6193 3.3203 8.3574 3.3203 6.5019 0 11.149-4.9137 11-10.029-0.064781-2.2303-0.91475-4.5065-2.7363-6.2031-1.8216-1.6966-4.5732-2.7676-8.2637-2.7676-1.046 0-2.3033 0.27006-3.3711 0.52734-0.87215 0.21015-1.3292 0.35179-1.5664 0.42188zm0.9707 2.541 3.2871 1.3145a1.0001 1.0001 0 0 0 0.66016 0.0293s0.80128-0.24166 1.8086-0.48438c1.0073-0.24272 2.2486-0.47266 2.9023-0.47266 3.3095 0 5.501 0.92904 6.9004 2.2324 1.3994 1.3034 2.0482 3.0272 2.0996 4.7969 0.11182 3.8497-3.5019 7.9707-9 7.9707-3.2619 0-5.454-1.1305-6.8926-2.6797-1.4386-1.5492-2.1074-3.5703-2.1074-5.3203 0-1.6667 0.89453-3.5527 0.89453-3.5527a1.0001 1.0001 0 0 0 0.08594-0.64258z" fill="#f15a22" stop-color="#000000" stroke-linecap="round" stroke-linejoin="round"/><g fill="#0086c2"><path d="m27 15c-6.5019 0-11.149 4.9137-11 10.029 0.06478 2.2303 0.91475 4.5065 2.7363 6.2031 1.8216 1.6966 4.5732 2.7676 8.2637 2.7676 1.046 0 2.3033-0.27006 3.3711-0.52734 0.87215-0.21015 1.3292-0.35179 1.5664-0.42188l4.6914 1.877a1.0001 1.0001 0 0 0 1.3516-1.123l-0.94141-4.709c0.21794-0.45117 0.96094-2.0664 0.96094-4.0957 0-2.25-0.83115-4.7289-2.6426-6.6797-1.8114-1.9508-4.6193-3.3203-8.3574-3.3203zm0 2c3.2619 0 5.454 1.1305 6.8926 2.6797 1.4386 1.5492 2.1074 3.5703 2.1074 5.3203 0 1.6667-0.89453 3.5527-0.89453 3.5527a1.0001 1.0001 0 0 0-0.08594 0.64258l0.63867 3.1914-3.2871-1.3145a1.0001 1.0001 0 0 0-0.66016-0.0293s-0.80128 0.24166-1.8086 0.48438c-1.0073 0.24272-2.2486 0.47266-2.9023 0.47266-3.3095 0-5.501-0.92904-6.9004-2.2324-1.3994-1.3034-2.0482-3.0272-2.0996-4.7969-0.11182-3.8497 3.5019-7.9707 9-7.9707z" stop-color="#000000" stroke-linecap="round" stroke-linejoin="round"/><rect x="20" y="20.5" width="3" height="3" ry="1.5"/><rect x="25" y="20.5" width="3" height="3" ry="1.5"/></g><path d="m21.316 25.051a1 1 0 0 0-0.76367 0.05469 1 1 0 0 0-0.44726 1.3418s1.2279 2.5527 3.8945 2.5527 3.8945-2.5527 3.8945-2.5527a1 1 0 0 0-0.44726-1.3418 1 1 0 0 0-1.3418 0.44726c0-2e-6 -0.77214 1.4473-2.1055 1.4473s-2.1055-1.4473-2.1055-1.4473a1 1 0 0 0-0.57812-0.50195z" fill="#f68b1f" stop-color="#000000" stroke-linecap="round" stroke-linejoin="round"/></svg>
