<?xml version="1.0" encoding="UTF-8"?>
<!-- Created with Inkscape (http://www.inkscape.org/) -->
<svg id="SVGRoot" width="48px" height="48px" version="1.1" viewBox="0 0 48 48" xml:space="preserve" xmlns="http://www.w3.org/2000/svg" xmlns:cc="http://creativecommons.org/ns#" xmlns:dc="http://purl.org/dc/elements/1.1/" xmlns:rdf="http://www.w3.org/1999/02/22-rdf-syntax-ns#"><defs><style>.cls-1{fill:none;stroke:#fff;stroke-linecap:round;stroke-linejoin:round;}</style></defs><metadata><rdf:RDF><cc:Work rdf:about=""><dc:format>image/svg+xml</dc:format><dc:type rdf:resource="http://purl.org/dc/dcmitype/StillImage"/></cc:Work></rdf:RDF></metadata><rect x="4" y="4" width="40" height="40" ry="8" fill="#66c350" fill-rule="evenodd" style="paint-order:stroke fill markers"/><path d="m12 4c-4.432 0-8 3.568-8 8v24c0 4.432 3.568 8 8 8h24c4.432 0 8-3.568 8-8v-24c0-4.432-3.568-8-8-8zm0 1h24c3.878 0 7 3.122 7 7v24c0 3.878-3.122 7-7 7h-24c-3.878 0-7-3.122-7-7v-24c0-3.878 3.122-7 7-7z" fill-rule="evenodd" opacity=".3" style="paint-order:stroke fill markers"/><g fill="#fff"><path d="m17 16c-2.77 0-5 2.23-5 5 0 1.5389 0.68867 2.9104 1.7754 3.8262-0.38313 0.47991-0.77539 1.2076-0.77539 2.1738 0 0.86825 0.31605 1.5433 0.6582 2.0195-1.0192 0.73128-1.6582 1.794-1.6582 2.9805 0 2.216 2.23 4 5 4s5-1.784 5-4-2.23-4-5-4c-0.50314 0-0.98794 0.058355-1.4453 0.16797a1 1 0 0 0-0.054688-0.033203s-0.5-0.18208-0.5-1.1348 0.5-1.1348 0.5-1.1348a1 1 0 0 0 0.095703-0.0625c0.44501 0.12904 0.91658 0.19727 1.4043 0.19727 2.77 0 5-2.23 5-5s-2.23-5-5-5zm0 2c1.662 0 3 1.338 3 3s-1.338 3-3 3-3-1.338-3-3 1.338-3 3-3zm0 12c1.662 0 3 0.892 3 2s-1.338 2-3 2-3-0.892-3-2 1.338-2 3-2z" stroke-linecap="round" stroke-linejoin="round" stroke-width="2"/><path d="m30 12c-3.324 0-6 2.676-6 6s2.676 6 6 6 6-2.676 6-6-2.676-6-6-6zm0 2c2.216 0 4 1.784 4 4s-1.784 4-4 4-4-1.784-4-4 1.784-4 4-4z"/><path d="m30 15c-1.662 0-3 1.338-3 3s1.338 3 3 3 3-1.338 3-3-1.338-3-3-3zm0 2c0.554 0 1 0.446 1 1s-0.446 1-1 1-1-0.446-1-1 0.446-1 1-1z"/></g></svg>
