<?xml version="1.0" encoding="UTF-8"?>
<!-- Created with Inkscape (http://www.inkscape.org/) -->
<svg id="SVGRoot" width="48px" height="48px" version="1.1" viewBox="0 0 48 48" xml:space="preserve" xmlns="http://www.w3.org/2000/svg" xmlns:cc="http://creativecommons.org/ns#" xmlns:dc="http://purl.org/dc/elements/1.1/" xmlns:rdf="http://www.w3.org/1999/02/22-rdf-syntax-ns#"><defs><style>.cls-1{fill:none;stroke:#fff;stroke-linecap:round;stroke-linejoin:round;}</style></defs><metadata><rdf:RDF><cc:Work rdf:about=""><dc:format>image/svg+xml</dc:format><dc:type rdf:resource="http://purl.org/dc/dcmitype/StillImage"/></cc:Work></rdf:RDF></metadata><rect x="4" y="4" width="40" height="40" ry="8" fill="#f3e95f" fill-rule="evenodd" style="paint-order:stroke fill markers"/><path d="m12 4c-4.432 0-8 3.568-8 8v24c0 4.432 3.568 8 8 8h24c4.432 0 8-3.568 8-8v-24c0-4.432-3.568-8-8-8zm0 1h24c3.878 0 7 3.122 7 7v24c0 3.878-3.122 7-7 7h-24c-3.878 0-7-3.122-7-7v-24c0-3.878 3.122-7 7-7z" fill-rule="evenodd" opacity=".3" style="paint-order:stroke fill markers"/><path d="m14 10v9c0 3 3 3 3 3h1v8h-2v8h8 8v-8h-2v-8h1s3 0 3-3v-9h-4v2h-2v-2h-3v2h-2v-2h-3v2h-2v-2h-4z" fill="#443D44"/><path d="m20 22v10h-2v4h12v-4h-2v-10h-4zm4 2c1.108 0 2 0.892 2 2v4h-4v-4c0-1.108 0.892-2 2-2z" fill="#766c77"/><path d="m16 12v7s0 1 1 1h7 7c1 0 1-1 1-1v-7h-2v4h-2v-4h-3v4h-2v-4h-3v4h-2v-4h-2z" fill="#766C77"/><path d="m24 25c-0.554 0-1 0.446-1 1v1 1 1h1 1v-1-1-1c0-0.554-0.446-1-1-1z" fill="#F3E95F"/></svg>
