<?xml version="1.0" encoding="UTF-8"?>
<!-- Created with Inkscape (http://www.inkscape.org/) -->
<svg id="SVGRoot" width="48px" height="48px" version="1.1" viewBox="0 0 48 48" xml:space="preserve" xmlns="http://www.w3.org/2000/svg" xmlns:cc="http://creativecommons.org/ns#" xmlns:dc="http://purl.org/dc/elements/1.1/" xmlns:rdf="http://www.w3.org/1999/02/22-rdf-syntax-ns#"><defs><style>.cls-1{fill:none;stroke:#fff;stroke-linecap:round;stroke-linejoin:round;}</style></defs><metadata><rdf:RDF><cc:Work rdf:about=""><dc:format>image/svg+xml</dc:format><dc:type rdf:resource="http://purl.org/dc/dcmitype/StillImage"/></cc:Work></rdf:RDF></metadata><rect x="4" y="4" width="40" height="40" ry="8" fill="#d34948" fill-rule="evenodd" style="paint-order:stroke fill markers"/><path d="m12 4c-4.432 0-8 3.568-8 8v24c0 4.432 3.568 8 8 8h24c4.432 0 8-3.568 8-8v-24c0-4.432-3.568-8-8-8zm0 1h24c3.878 0 7 3.122 7 7v24c0 3.878-3.122 7-7 7h-24c-3.878 0-7-3.122-7-7v-24c0-3.878 3.122-7 7-7z" fill-rule="evenodd" opacity=".3" style="paint-order:stroke fill markers"/><path d="m27.593 37.008c-2.1133-1.7741-4.5604-3.1116-7.1385-4.0661 1.7886-0.2286 6.704-4.0394 8.336-5.2484 0.78621 0.21872-1.3867 2.5457-0.08548 2.8801 1.6487-0.07288 3.4873-0.84614 4.2831-2.3749 0.51231-2.4224-0.49068-4.9138-2.1548-6.6654-0.76032-0.96547-1.92-1.7384-2.4508-2.8146 1.8796 0.5706 3.5925 1.6536 5.1523 2.8388 2.1588 1.788 4.1208 4.1975 4.4655 7.0719-0.14848 2.2311-1.8801 4.0139-3.8987 4.7671-1.7014 0.73329-3.5362 1.0581-5.3466 1.3882-1.0948 0.70646 0.42067 2.6166 0.08966 3.2155-0.43583-0.30601-0.84351-0.65063-1.2518-0.99219zm-17.563-17c-0.28741-2.3339 1.5796-4.3561 3.6197-5.1809 1.8373-0.89391 3.9123-0.95433 5.8391-1.5362 0.32835-1.0558-0.50193-2.1963-0.64106-3.2906 0.79979 0.2581 4.235 4.0092 8.6472 5.1801-2.2025 0.44907-6.592 4.0425-8.5303 5.4706 0.03247-0.98887 1.6431-3.5429-0.44074-2.9606-1.55 0.37897-3.5285 1.1487-3.7395 2.9713-0.07381 3.4045 2.1174 6.4279 4.778 8.3436 1.3219 1.3991-8.0095-2.0266-9.5323-8.9973z" fill="#fff" stroke-width=".22068"/></svg>
