<?xml version="1.0" encoding="UTF-8"?>
<!-- Created with Inkscape (http://www.inkscape.org/) -->
<svg id="SVGRoot" width="48px" height="48px" version="1.1" viewBox="0 0 48 48" xml:space="preserve" xmlns="http://www.w3.org/2000/svg" xmlns:cc="http://creativecommons.org/ns#" xmlns:dc="http://purl.org/dc/elements/1.1/" xmlns:rdf="http://www.w3.org/1999/02/22-rdf-syntax-ns#"><defs><style>.cls-1{fill:none;stroke:#fff;stroke-linecap:round;stroke-linejoin:round;}</style></defs><metadata><rdf:RDF><cc:Work rdf:about=""><dc:format>image/svg+xml</dc:format><dc:type rdf:resource="http://purl.org/dc/dcmitype/StillImage"/></cc:Work></rdf:RDF></metadata><rect x="4" y="4" width="40" height="40" ry="8" fill="#efefef" fill-rule="evenodd" style="paint-order:stroke fill markers"/><path d="m12 4c-4.432 0-8 3.568-8 8v24c0 4.432 3.568 8 8 8h24c4.432 0 8-3.568 8-8v-24c0-4.432-3.568-8-8-8zm0 1h24c3.878 0 7 3.122 7 7v24c0 3.878-3.122 7-7 7h-24c-3.878 0-7-3.122-7-7v-24c0-3.878 3.122-7 7-7z" fill-rule="evenodd" opacity=".3" style="paint-order:stroke fill markers"/><path d="m24 10a1.0001 1.0001 0 0 0-0.70703 0.29297l-13 13a1.0001 1.0001 0 0 0 0 1.4141l13 13a1.0001 1.0001 0 0 0 1.4141 0l1.5-1.5-12.207-12.207 12.207-12.207-1.5-1.5a1.0001 1.0001 0 0 0-0.70703-0.29297z" fill="#404041" stop-color="#000000" stroke-linecap="round" stroke-linejoin="round"/><path d="m30.57 16.156c-2.7329 1.5413-4.5703 4.4702-4.5703 7.8438s1.8374 6.3024 4.5703 7.8438l7.1367-7.1367a1.0001 1.0001 0 0 0 0-1.4141l-7.1367-7.1367z" fill="#2fc0f0"/></svg>
