<?xml version="1.0" encoding="UTF-8"?>
<!-- Created with Inkscape (http://www.inkscape.org/) -->
<svg id="SVGRoot" width="48px" height="48px" version="1.1" viewBox="0 0 48 48" xml:space="preserve" xmlns="http://www.w3.org/2000/svg" xmlns:cc="http://creativecommons.org/ns#" xmlns:dc="http://purl.org/dc/elements/1.1/" xmlns:rdf="http://www.w3.org/1999/02/22-rdf-syntax-ns#"><defs><style>.cls-1{fill:none;stroke:#fff;stroke-linecap:round;stroke-linejoin:round;}</style></defs><metadata><rdf:RDF><cc:Work rdf:about=""><dc:format>image/svg+xml</dc:format><dc:type rdf:resource="http://purl.org/dc/dcmitype/StillImage"/></cc:Work></rdf:RDF></metadata><rect x="4" y="4" width="40" height="40" ry="8" fill="#4277A3" fill-rule="evenodd" style="paint-order:stroke fill markers"/><g fill="#fff" stroke-linecap="round" stroke-linejoin="round" stroke-width="2"><path d="m13.695 26.033-3.4941 0.34961c0.24836 1.4596 0.72205 2.8412 1.3828 4.1074z"/><path d="m33.783 25.467c-0.624 2.0497-2.5241 3.5332-4.7832 3.5332-0.42621 0-0.83989-0.05291-1.2344-0.15234l-1.3633 3.0293c1.7911 0.99423 3.0959 2.7509 3.4805 4.8379 4.1365-1.9129 7.1648-5.7882 7.918-10.445z"/><path d="m24.098 24.994-9.2422 0.92383-2.6641 5.625c1.0751 1.684 2.5006 3.1195 4.1758 4.207 0.93276-2.768 3.5424-4.75 6.6328-4.75 0.88069 0 1.7231 0.16067 2.498 0.45508l1.3262-2.9492c-1.3876-0.66834-2.4155-1.9572-2.7266-3.5117z"/><path d="m20.998 18.24c-0.52988 0.47269-1.2288 0.75977-1.998 0.75977-0.28317 0-0.55706-0.038661-0.81641-0.11133l-2.8281 5.9727 8.6445-0.86328c4.75e-4 -1.0033 0.29362-1.9357 0.79883-2.7168z"/></g><g fill="#d2e1ff" stroke-linecap="round" stroke-linejoin="round" stroke-width="2"><path d="m15.053 13.215c-3.0906 2.564-5.0527 6.4374-5.0527 10.785 0 0.4694 0.02365 0.93336 0.06836 1.3906l4.127-0.41211 3.0859-6.5156c-0.77567-0.54126-1.2813-1.4412-1.2813-2.4629 0-0.69462 0.23354-1.3324 0.62695-1.8398z"/><path d="m29.928 11.225-0.01758 7.8574c2.3324 0.42563 4.0898 2.459 4.0898 4.918 0 0.16315-0.0083 0.32532-0.02344 0.48438-6e-5 6.4e-4 6.2e-5 0.0013 0 2e-3l3.9492 0.78906c0.02053-0.22887 0.03542-0.45944 0.04492-0.69141l0.01758 0.0039v-0.36332c0.001192-0.075558 0.011721-0.14876 0.011721-0.22461 0-0.18582-0.0027-0.37067-0.0098-0.55469-7.6e-5 -2e-3 7.7e-5 -0.0039 0-0.0059l0.0098-9.4394z"/><path d="m21.752 10.178c-2.1537 0.34489-4.1404 1.1784-5.8438 2.3828l1.4941 0.89648c0.46184-0.28978 1.0099-0.45703 1.5977-0.45703 0.36409 0 0.71282 0.06388 1.0352 0.18164z"/><path d="m24 10c-0.34193 0-0.67998 0.01129-1.0156 0.03516l-2.082 3.6426c0.67044 0.5493 1.0977 1.384 1.0977 2.3223 0 0.53033-0.13548 1.0276-0.375 1.459l3.7988 3.0391c0.88733-0.90626 2.1197-1.4744 3.4883-1.498l0.01563-8.1191-0.21289-0.07226-0.0078-0.0039c-0.0064-0.0023-0.01315-0.0036-0.01953-0.0059l-0.23828-0.08203 2e-3 0.0098c-1.3985-0.46618-2.8922-0.72657-4.4512-0.72657z"/></g><path d="m12 4c-4.432 0-8 3.568-8 8v24c0 4.432 3.568 8 8 8h24c4.432 0 8-3.568 8-8v-24c0-4.432-3.568-8-8-8zm0 1h24c3.878 0 7 3.122 7 7v24c0 3.878-3.122 7-7 7h-24c-3.878 0-7-3.122-7-7v-24c0-3.878 3.122-7 7-7z" fill-rule="evenodd" opacity=".3" style="paint-order:stroke fill markers"/><g fill="#d2e1ff" stroke-linecap="round" stroke-linejoin="round" stroke-width="2"><rect x="25" y="20" width="8" height="8" ry="4"/><rect x="17" y="14" width="4" height="4" ry="2"/><path d="m23 32c-2.7251 0-5.0154 1.7996-5.752 4.2793 1.9998 1.098 4.3007 1.7207 6.752 1.7207 1.7389 0 3.402-0.3143 4.9355-0.88867-0.42677-2.8998-2.9135-5.1113-5.9355-5.1113z"/></g></svg>
