<?xml version="1.0" encoding="UTF-8"?>
<!-- Created with Inkscape (http://www.inkscape.org/) -->
<svg id="SVGRoot" width="48px" height="48px" version="1.1" viewBox="0 0 48 48" xml:space="preserve" xmlns="http://www.w3.org/2000/svg" xmlns:cc="http://creativecommons.org/ns#" xmlns:dc="http://purl.org/dc/elements/1.1/" xmlns:rdf="http://www.w3.org/1999/02/22-rdf-syntax-ns#"><defs><style>.cls-1{fill:none;stroke:#fff;stroke-linecap:round;stroke-linejoin:round;}</style></defs><metadata><rdf:RDF><cc:Work rdf:about=""><dc:format>image/svg+xml</dc:format><dc:type rdf:resource="http://purl.org/dc/dcmitype/StillImage"/></cc:Work></rdf:RDF></metadata><rect x="4" y="4" width="40" height="40" ry="8" fill="#567484" fill-rule="evenodd" style="paint-order:stroke fill markers"/><path d="m12 4c-4.432 0-8 3.568-8 8v24c0 4.432 3.568 8 8 8h24c4.432 0 8-3.568 8-8v-24c0-4.432-3.568-8-8-8zm0 1h24c3.878 0 7 3.122 7 7v24c0 3.878-3.122 7-7 7h-24c-3.878 0-7-3.122-7-7v-24c0-3.878 3.122-7 7-7z" fill-rule="evenodd" opacity=".3" style="paint-order:stroke fill markers"/><g fill="#fff" stroke-linecap="round" stroke-linejoin="round"><path d="m12.203 23.01c-2.3534 0.15206-4.2031 2.0971-4.2031 4.4902 0 2.493 2.007 4.5 4.5 4.5 0.76329 0 1.4809-0.18872 2.1094-0.52148-0.38472-0.5622-0.60938-1.2429-0.60938-1.9785 0-0.2383 0.023402-0.47063 0.068359-0.69531-1.2623-1.0059-2.0684-2.5577-2.0684-4.3047 0-0.51693 0.070998-1.0166 0.20312-1.4902z" stroke-width="2"/><path d="m16.523 16c-1.3977 0-2.5234 1.1258-2.5234 2.5234 0 0.52276 0.15754 1.0063 0.42773 1.4082 0.75193-0.50551 1.6357-0.83038 2.5918-0.91211 0.081852-0.95608 0.40663-1.8399 0.91211-2.5918-0.40164-0.27023-0.88551-0.42773-1.4082-0.42773z" stroke-width="2"/><path d="m17.5 20c-2.493 0-4.5 2.007-4.5 4.5 0 1.3073 0.55114 2.4801 1.4355 3.3008 0.51919-0.93788 1.4571-1.6086 2.5645-1.7656-5.7e-5 -0.011699 0-0.023443 0-0.035156 0-2.2193 1.0216-4.19 2.623-5.4707-0.63193-0.33737-1.3539-0.5293-2.123-0.5293z" stroke-width="2.1321"/><g stroke-width="2"><path d="m17.076 27.035c-1.1814 0.2005-2.0762 1.2246-2.0762 2.4648 0 1.385 1.115 2.5 2.5 2.5 0.7196 0 1.367-0.30169 1.8223-0.78516-1.1848-1.0628-2.0028-2.5251-2.2461-4.1797z"/><rect x="18" y="20" width="12" height="12" ry="6"/><path d="m22.5 15c-2.3323 0-4.2385 1.7576-4.4746 4.0254 0.92423 0.086679 1.7792 0.39841 2.5117 0.88281 1.0198-0.57899 2.2015-0.9082 3.4629-0.9082 1.0737 0 2.0885 0.23956 2.9961 0.66797 0.002019-0.055649 0.003906-0.11181 0.003906-0.16797 0-2.493-2.007-4.5-4.5-4.5z"/><path d="m32 22c-0.70623 0-1.3783 0.14434-1.9863 0.40625 0.62614 1.0492 0.98633 2.2783 0.98633 3.5938 0 1.9438-0.78386 3.6969-2.0547 4.9629 0.8438 0.65029 1.9022 1.0371 3.0547 1.0371 0.91688 0 1.7745-0.24451 2.5117-0.67188-0.3249-0.53147-0.51172-1.1571-0.51172-1.8281 0-1.738 1.2538-3.1725 2.9102-3.4512-0.44175-2.3121-2.4655-4.0488-4.9102-4.0488z"/><rect x="35" y="27" width="5" height="5" ry="2.5"/><path d="m28 18c-0.068422 0-0.13557 0.002496-0.20312 0.005859 0.13294 0.475 0.20312 0.97557 0.20312 1.4941 0 0.24284-0.014702 0.48245-0.044922 0.7168 0.55497 0.37922 1.0511 0.83594 1.4746 1.3555 0.74286-0.35078 1.5708-0.55266 2.4453-0.57031-0.44143-1.7296-2.0041-3.002-3.875-3.002z"/></g></g></svg>
