<?xml version="1.0" encoding="UTF-8"?>
<!-- Created with Inkscape (http://www.inkscape.org/) -->
<svg id="SVGRoot" width="48px" height="48px" version="1.1" viewBox="0 0 48 48" xml:space="preserve" xmlns="http://www.w3.org/2000/svg" xmlns:cc="http://creativecommons.org/ns#" xmlns:dc="http://purl.org/dc/elements/1.1/" xmlns:rdf="http://www.w3.org/1999/02/22-rdf-syntax-ns#"><defs><style>.cls-1{fill:none;stroke:#fff;stroke-linecap:round;stroke-linejoin:round;}</style><style>.cls-1{fill:none;stroke:#fff;stroke-linecap:round;stroke-linejoin:round;}</style></defs><metadata><rdf:RDF><cc:Work rdf:about=""><dc:format>image/svg+xml</dc:format><dc:type rdf:resource="http://purl.org/dc/dcmitype/StillImage"/></cc:Work></rdf:RDF></metadata><g fill-rule="evenodd"><rect x="4" y="4" width="40" height="40" ry="8" fill="#ffd34e" style="paint-order:stroke fill markers"/><path d="m28 10.021c-3.0466 0-5.5605 2.5139-5.5605 5.5605 0 0.60909 0.16848 1.1721 0.35352 1.7227-0.0098 0.005099-0.019567 0.010345-0.029297 0.015624-1.8424 2.3846-2.9836 4.9043-4.0117 7.5195-0.1714 0.43602-1.2343 1.3882-2.6133 2.041-1.379 0.65284-2.9475 1.0918-3.5527 1.2246-1.0745 0.23585-1.7569 1.2952-1.5273 2.3711l0.79688 3.7305c0.23127 1.0804 1.2947 1.7686 2.375 1.5371 3.4425-0.73471 6.7965-1.795 9.4414-3.9844 0.48741 0.34934 0.95095 0.61775 1.4492 1.0918 1.2246 1.165 2.1136 2.4477 2.6406 3.8652 0.38498 1.0356 1.5367 1.563 2.5723 1.1777l2.4688-0.91797 0.80274-0.23437c1.1117-0.24669 1.9626-1.4455 1.4375-2.7246-1.0056-2.7378-2.5246-5.1892-4.1777-7.5078 1.6773-0.07662 3.4146-0.16559 4.9609-0.8418 0.89642-0.39238 1.3774-1.3757 1.1367-2.3242-6.46e-4 -0.0026-0.001253-0.005213-0.001953-0.007812l-0.1582-1.4512-0.18945-1.5664c-0.14258-1.1742-1.2675-1.9689-2.4219-1.7109-0.52394 0.1173-1.156 0.03404-1.7207 0.08789 0.63365-0.9025 1.0879-1.9386 1.0879-3.1133 0-3.0466-2.5119-5.5605-5.5586-5.5605zm7.043 23.996h0.001953v-0.003906s-0.009897-0.025436-0.029297-0.072266l0.027344 0.076172zm-7.043-21.996c1.9658 0 3.5586 1.5948 3.5586 3.5605s-1.5928 3.5586-3.5586 3.5586c-1.9656 0-3.5605-1.5928-3.5605-3.5586s1.5949-3.5605 3.5605-3.5605zm-3.6543 6.5234c1.6247 1.533 3.4112 2.0879 5.084 2.2793 1.8428 0.21084 3.6042 0.0915 5.1992-0.26562l0.39453 3.2773c-2.0147 0.88099-8.0469 0.76758-8.0469 0.76758 2.5349 2.9995 4.8293 6.394 6.1914 10.104-0.79567 0.29297-2.4815 0.92373-3.5312 1.3145-0.64695-1.7401-1.7309-3.2799-3.1387-4.6191-1.0123-0.96308-2.0517-1.6888-2.9199-2.2012-2.29 2.5918-5.8277 3.7474-9.7656 4.5879l-0.79688-3.7305c1.5254-0.33469 6.5505-1.8224 7.5977-4.4863 1.0034-2.5525 2.0621-4.8655 3.7324-7.0273z" clip-rule="evenodd" fill="#4e4e4e" stop-color="#000000" stroke-linecap="round" stroke-linejoin="round" style="paint-order:stroke fill markers"/><path d="m12 4c-4.432 0-8 3.568-8 8v24c0 4.432 3.568 8 8 8h24c4.432 0 8-3.568 8-8v-24c0-4.432-3.568-8-8-8zm0 1h24c3.878 0 7 3.122 7 7v24c0 3.878-3.122 7-7 7h-24c-3.878 0-7-3.122-7-7v-24c0-3.878 3.122-7 7-7z" opacity=".3" style="paint-order:stroke fill markers"/></g></svg>
