<?xml version="1.0" encoding="UTF-8"?>
<!-- Created with Inkscape (http://www.inkscape.org/) -->
<svg id="SVGRoot" width="48px" height="48px" version="1.1" viewBox="0 0 48 48" xmlns="http://www.w3.org/2000/svg" xmlns:cc="http://creativecommons.org/ns#" xmlns:dc="http://purl.org/dc/elements/1.1/" xmlns:rdf="http://www.w3.org/1999/02/22-rdf-syntax-ns#">
 <defs id="defs815">
  <style id="style819">.cls-1{fill:none;stroke:#fff;stroke-linecap:round;stroke-linejoin:round;}</style>
 </defs>
 <metadata id="metadata818">
  <rdf:RDF>
   <cc:Work rdf:about="">
    <dc:format>image/svg+xml</dc:format>
    <dc:type rdf:resource="http://purl.org/dc/dcmitype/StillImage"/>
    <dc:title/>
   </cc:Work>
  </rdf:RDF>
 </metadata>
 <g id="layer1">
  <rect id="rect1373-5" x="4" y="4" width="40" height="40" ry="8" fill="#efefef" fill-rule="evenodd" style="paint-order:stroke fill markers"/>
  <path id="rect817" d="m12 4c-4.432 0-8 3.568-8 8v24c0 4.432 3.568 8 8 8h24c4.432 0 8-3.568 8-8v-24c0-4.432-3.568-8-8-8h-24zm0 1h24c3.878 0 7 3.122 7 7v24c0 3.878-3.122 7-7 7h-24c-3.878 0-7-3.122-7-7v-24c0-3.878 3.122-7 7-7z" fill-rule="evenodd" opacity=".3" style="paint-order:stroke fill markers"/>
  <path id="path842" d="m23.699 11.859c-5.6992 0-6.6992 4.1406-6.6992 4.1406l3 1.4895s0.94729-1.4884 3.3548-1.4728c2.716 0.01755 2.6393 1.9833 2.6393 1.9833s-10.062-0.95363-9.9941 6.4609c0.02492 2.7062 1.5538 5.6064 4.9238 5.5508 3.72 0.0139 5.0231-1.3122 5.7331-2.0795 0.60218 1.2046 2.22 2.0795 2.22 2.0795l3.123-3.0957s-1.8183-1.5559-1.8145-2.7754c0.01073-3.3982 0-6.4648 0-6.4648s0.74245-5.8164-6.4863-5.8164zm2.2949 10.141c0 2-0.99414 4.0131-3.043 4.0625-1.9512 0.047051-2.8451-1.0899-2.8451-2.1348 0-0.92773 0.8939-1.9277 5.888-1.9277z" fill="#4e4e4e"/>
  <path id="path847" d="m8.1976 30.813c-0.15908-0.15939-0.30984-0.46704-0.16786-0.64051 0.17217-0.21036 0.59888-0.13648 0.8393 0 3.3792 1.9184 6.7605 3.4725 14.436 3.7897 5.8435 0.24147 9.5932-1.0974 12.478-2.1884 0.35063-0.13263 0.90347-0.45538 1.1191-0.16013 0.24333 0.33323-0.2639 0.83852-0.61548 1.0675-2.0141 1.3118-8.2848 3.4469-12.589 3.416-5.4862-0.0393-12.374-2.1534-15.499-5.2842z" fill="#f6a559"/>
  <path id="path849" d="m34.492 29.318c1.9449-0.41646 4.7978-0.67007 5.3485 0.0026 0.63232 0.77237-0.50397 3.699-1.5024 5.2493-0.18342 0.28482-0.4533 0.59155-0.78124 0.46534-0.3897-0.14998-0.27125-0.63109-0.0601-0.97334 1.0449-1.6936 0.73882-2.7288 0.47147-3.1637-0.38817-0.6315-1.1101-1.0403-2.8753-0.95931-0.35965 0.01649-0.91809 0.30179-1.0817 0-0.12364-0.22804 0.21728-0.56446 0.48076-0.62088z" fill="#f6a559"/>
 </g>
</svg>
