<?xml version="1.0" encoding="UTF-8" standalone="no"?>
<!-- Created with Inkscape (http://www.inkscape.org/) -->

<svg
   id="SVGRoot"
   width="48px"
   height="48px"
   version="1.1"
   viewBox="0 0 48 48"
   sodipodi:docname="blogger.svg"
   xml:space="preserve"
   inkscape:version="1.4.2 (ebf0e940d0, 2025-05-08)"
   xmlns:inkscape="http://www.inkscape.org/namespaces/inkscape"
   xmlns:sodipodi="http://sodipodi.sourceforge.net/DTD/sodipodi-0.dtd"
   xmlns="http://www.w3.org/2000/svg"
   xmlns:svg="http://www.w3.org/2000/svg"
   xmlns:rdf="http://www.w3.org/1999/02/22-rdf-syntax-ns#"
   xmlns:cc="http://creativecommons.org/ns#"
   xmlns:dc="http://purl.org/dc/elements/1.1/"><sodipodi:namedview
     id="namedview1"
     pagecolor="#505050"
     bordercolor="#eeeeee"
     borderopacity="1"
     inkscape:showpageshadow="0"
     inkscape:pageopacity="0"
     inkscape:pagecheckerboard="0"
     inkscape:deskcolor="#505050"
     showgrid="false"
     inkscape:zoom="11.85877"
     inkscape:cx="24.285824"
     inkscape:cy="24.07501"
     inkscape:window-width="1920"
     inkscape:window-height="1014"
     inkscape:window-x="0"
     inkscape:window-y="0"
     inkscape:window-maximized="1"
     inkscape:current-layer="SVGRoot"><inkscape:grid
       id="grid1"
       units="px"
       originx="0"
       originy="0"
       spacingx="1"
       spacingy="1"
       empcolor="#0099e5"
       empopacity="0.30196078"
       color="#0099e5"
       opacity="0.14902"
       empspacing="5"
       enabled="true"
       visible="false" /></sodipodi:namedview><defs
     id="defs815"><style
       id="style819">.cls-1{fill:none;stroke:#fff;stroke-linecap:round;stroke-linejoin:round;}</style><style
       id="style819-6">.cls-1{fill:none;stroke:#fff;stroke-linecap:round;stroke-linejoin:round;}</style></defs><metadata
     id="metadata818"><rdf:RDF><cc:Work
         rdf:about=""><dc:format>image/svg+xml</dc:format><dc:type
           rdf:resource="http://purl.org/dc/dcmitype/StillImage" /></cc:Work></rdf:RDF></metadata><rect
     id="rect1373-5"
     x="4"
     y="4"
     width="40"
     height="40"
     ry="8"
     fill="#efefef"
     style="fill-rule:evenodd;paint-order:stroke fill markers;fill:#f6a559" /><path
     id="rect817"
     d="M 12,4 C 7.568,4 4,7.568 4,12 v 24 c 0,4.432 3.568,8 8,8 h 24 c 4.432,0 8,-3.568 8,-8 V 12 C 44,7.568 40.432,4 36,4 Z m 0,1 h 24 c 3.878,0 7,3.122 7,7 v 24 c 0,3.878 -3.122,7 -7,7 H 12 C 8.122,43 5,39.878 5,36 V 12 C 5,8.122 8.122,5 12,5 Z"
     opacity="0.3"
     style="fill-rule:evenodd;paint-order:stroke fill markers" /><path
     style="fill:#ffffff;stroke-width:4;stroke-linecap:round;stroke-linejoin:round"
     d="m 12,19 c 0,-7 7,-7 7,-7 h 6 c 7,0 7,7 7,7 v 1 c 0,0 0,1 1,1 0.333333,0 1,0 1,0 0,0 2,0 2,2 v 6 c 0,7 -7,7 -7,7 H 18.974444 c 0,0 -6.974444,0 -7,-7 C 11.962275,25.666678 12,22.333344 12,19 Z"
     id="path1"
     sodipodi:nodetypes="scsccscssccss" /><rect
     style="fill:#f6a559;stroke-width:4;stroke-linecap:round;stroke-linejoin:round"
     id="rect1"
     width="8"
     height="3"
     x="18"
     y="18"
     ry="1.5" /><rect
     style="fill:#f6a559;stroke-width:4;stroke-linecap:round;stroke-linejoin:round"
     id="rect2"
     width="12"
     height="3"
     x="18"
     y="27"
     ry="1.5" /></svg>
