<?xml version="1.0" encoding="UTF-8"?>
<!-- Created with Inkscape (http://www.inkscape.org/) -->
<svg id="SVGRoot" width="48px" height="48px" version="1.1" viewBox="0 0 48 48" xmlns="http://www.w3.org/2000/svg" xmlns:cc="http://creativecommons.org/ns#" xmlns:dc="http://purl.org/dc/elements/1.1/" xmlns:rdf="http://www.w3.org/1999/02/22-rdf-syntax-ns#">
 <defs id="defs815">
  <style id="style819">.cls-1{fill:none;stroke:#fff;stroke-linecap:round;stroke-linejoin:round;}</style>
 </defs>
 <metadata id="metadata818">
  <rdf:RDF>
   <cc:Work rdf:about="">
    <dc:format>image/svg+xml</dc:format>
    <dc:type rdf:resource="http://purl.org/dc/dcmitype/StillImage"/>
    <dc:title/>
   </cc:Work>
  </rdf:RDF>
 </metadata>
 <g id="layer1">
  <rect id="rect1373-5" x="4" y="4" width="40" height="40" ry="8" fill="#efefef" fill-rule="evenodd" style="paint-order:stroke fill markers"/>
  <path id="rect817" d="m12 4c-4.432 0-8 3.568-8 8v24c0 4.432 3.568 8 8 8h24c4.432 0 8-3.568 8-8v-24c0-4.432-3.568-8-8-8h-24zm0 1h24c3.878 0 7 3.122 7 7v24c0 3.878-3.122 7-7 7h-24c-3.878 0-7-3.122-7-7v-24c0-3.878 3.122-7 7-7z" fill-rule="evenodd" opacity=".3" style="paint-order:stroke fill markers"/>
  <path id="path942" d="m10.393 15.523a3.0003 3.0003 0 0 0-0.39258 1.4766v14a3.0003 3.0003 0 0 0 2.5078 3h3.4922v-2.9316a3.0003 3.0003 0 0 0 0-0.068359v-8z" color="#000000" color-rendering="auto" dominant-baseline="auto" fill="#729dec" image-rendering="auto" shape-rendering="auto" solid-color="#000000" style="font-feature-settings:normal;font-variant-alternates:normal;font-variant-caps:normal;font-variant-ligatures:normal;font-variant-numeric:normal;font-variant-position:normal;isolation:auto;mix-blend-mode:normal;shape-padding:0;text-decoration-color:#000000;text-decoration-line:none;text-decoration-style:solid;text-indent:0;text-orientation:mixed;text-transform:none;white-space:normal"/>
  <path id="path979" d="m16 15.578-1.8398 2.9609 1.8398 4.793 6.0996 4.9902a3.0003 3.0003 0 0 0 3.8008 0l6.0996-4.9902 1.4551-4.6895-1.4551-3.0645-8 6.5449z" fill="#d35244"/>
  <path id="path946" d="m12.957 14a3.0003 3.0003 0 0 0-2.957 3v1l6 5.332v-7.7539l-1.0996-0.90039a3.0003 3.0003 0 0 0-1.9434-0.67773z" fill="#943657"/>
  <path id="path942-2" d="m37.607 15.523a3.0003 3.0003 0 0 1 0.39258 1.4766v14a3.0003 3.0003 0 0 1-2.5078 3h-3.4922v-2.9316a3.0003 3.0003 0 0 1 0-0.06836v-8z" color="#000000" color-rendering="auto" dominant-baseline="auto" fill="#96d56b" image-rendering="auto" shape-rendering="auto" solid-color="#000000" style="font-feature-settings:normal;font-variant-alternates:normal;font-variant-caps:normal;font-variant-ligatures:normal;font-variant-numeric:normal;font-variant-position:normal;isolation:auto;mix-blend-mode:normal;shape-padding:0;text-decoration-color:#000000;text-decoration-line:none;text-decoration-style:solid;text-indent:0;text-orientation:mixed;text-transform:none;white-space:normal"/>
  <path id="path946-2" d="m35.043 14a3.0003 3.0003 0 0 1 2.957 3v1l-6 5.332v-7.7539l1.0996-0.90039a3.0003 3.0003 0 0 1 1.9434-0.67773z" fill="#ffcd4b"/>
 </g>
</svg>
