<?xml version="1.0" encoding="UTF-8"?>
<!-- Created with Inkscape (http://www.inkscape.org/) -->
<svg id="SVGRoot" width="48px" height="48px" version="1.1" viewBox="0 0 48 48" xmlns="http://www.w3.org/2000/svg" xmlns:cc="http://creativecommons.org/ns#" xmlns:dc="http://purl.org/dc/elements/1.1/" xmlns:rdf="http://www.w3.org/1999/02/22-rdf-syntax-ns#">
 <defs id="defs815">
  <style id="style819">.cls-1{fill:none;stroke:#fff;stroke-linecap:round;stroke-linejoin:round;}</style>
 </defs>
 <metadata id="metadata818">
  <rdf:RDF>
   <cc:Work rdf:about="">
    <dc:format>image/svg+xml</dc:format>
    <dc:type rdf:resource="http://purl.org/dc/dcmitype/StillImage"/>
    <dc:title/>
   </cc:Work>
  </rdf:RDF>
 </metadata>
 <g id="layer1">
  <rect id="rect1373-5" x="4" y="4" width="40" height="40" ry="8" fill="#efefef" fill-rule="evenodd" style="paint-order:stroke fill markers"/>
  <path id="rect817" d="m12 4c-4.432 0-8 3.568-8 8v24c0 4.432 3.568 8 8 8h24c4.432 0 8-3.568 8-8v-24c0-4.432-3.568-8-8-8h-24zm0 1h24c3.878 0 7 3.122 7 7v24c0 3.878-3.122 7-7 7h-24c-3.878 0-7-3.122-7-7v-24c0-3.878 3.122-7 7-7z" fill-rule="evenodd" opacity=".3" style="paint-order:stroke fill markers"/>
  <path id="path817" d="m16 14v20l12-10z" fill="#729dec" stroke="#729dec" stroke-linecap="round" stroke-linejoin="round" stroke-width="4"/>
  <path id="path860" d="m26 24-11.414 11.414c0.59676 0.59168 1.5503 0.797 2.3848 0.33398l13.357-7.4199v-4.3281z" fill="#d35244"/>
  <path id="path860-3" d="m16.014 12c-0.55745-0.0038-1.0627 0.22082-1.4277 0.58594l11.414 11.414h4.3281v-4.3281l-13.357-7.4199c-0.29287-0.16282-0.62195-0.24946-0.95703-0.25195z" fill="#96d56b"/>
  <path id="path858" d="m30.328 19.672-4.3281 4.3281 4.3281 4.3281 4.6426-2.5801c1.3707-0.76231 1.3707-2.7338 0-3.4961z" fill="#ffcd4b"/>
 </g>
</svg>
