<?xml version="1.0" encoding="UTF-8"?>
<!-- Created with Inkscape (http://www.inkscape.org/) -->
<svg id="SVGRoot" width="48px" height="48px" version="1.1" viewBox="0 0 48 48" xmlns="http://www.w3.org/2000/svg" xmlns:cc="http://creativecommons.org/ns#" xmlns:dc="http://purl.org/dc/elements/1.1/" xmlns:rdf="http://www.w3.org/1999/02/22-rdf-syntax-ns#">
 <defs id="defs815">
  <style id="style819">.cls-1{fill:none;stroke:#fff;stroke-linecap:round;stroke-linejoin:round;}</style>
 </defs>
 <metadata id="metadata818">
  <rdf:RDF>
   <cc:Work rdf:about="">
    <dc:format>image/svg+xml</dc:format>
    <dc:type rdf:resource="http://purl.org/dc/dcmitype/StillImage"/>
    <dc:title/>
   </cc:Work>
  </rdf:RDF>
 </metadata>
 <g id="layer1" fill-rule="evenodd">
  <rect id="rect1373-5" x="4" y="4" width="40" height="40" ry="8" fill="#f97263" style="paint-order:stroke fill markers"/>
  <path id="rect817" d="m12 4c-4.432 0-8 3.568-8 8v24c0 4.432 3.568 8 8 8h24c4.432 0 8-3.568 8-8v-24c0-4.432-3.568-8-8-8h-24zm0 1h24c3.878 0 7 3.122 7 7v24c0 3.878-3.122 7-7 7h-24c-3.878 0-7-3.122-7-7v-24c0-3.878 3.122-7 7-7z" opacity=".3" style="paint-order:stroke fill markers"/>
  <path id="rect855" d="m22 12c-6.648 0-12 5.352-12 12s5.352 12 12 12 12-5.352 12-12c0-0.6834-0.06903-1.3484-0.17773-2h-11.822v4h7.7402c-0.88468 3.4566-4.0003 6-7.7402 6-4.432 0-8-3.568-8-8s3.568-8 8-8c2.2171 0 4.2088 0.89962 5.6523 2.3477l2.8398-2.8398c-2.169-2.169-5.1682-3.5078-8.4922-3.5078z" fill="#fff" style="paint-order:stroke fill markers"/>
  <rect id="rect881" x="32" y="14" width="8" height="2" fill="#fff" style="paint-order:stroke fill markers"/>
  <rect id="rect883" x="35" y="11" width="2" height="8" fill="#fff" style="paint-order:stroke fill markers"/>
 </g>
</svg>
