<?xml version="1.0" encoding="UTF-8"?>
<!-- Created with Inkscape (http://www.inkscape.org/) -->
<svg id="SVGRoot" width="48px" height="48px" version="1.1" viewBox="0 0 48 48" xmlns="http://www.w3.org/2000/svg" xmlns:cc="http://creativecommons.org/ns#" xmlns:dc="http://purl.org/dc/elements/1.1/" xmlns:rdf="http://www.w3.org/1999/02/22-rdf-syntax-ns#">
 <defs id="defs815">
  <style id="style819">.cls-1{fill:none;stroke:#fff;stroke-linecap:round;stroke-linejoin:round;}</style>
 </defs>
 <metadata id="metadata818">
  <rdf:RDF>
   <cc:Work rdf:about="">
    <dc:format>image/svg+xml</dc:format>
    <dc:type rdf:resource="http://purl.org/dc/dcmitype/StillImage"/>
    <dc:title/>
   </cc:Work>
  </rdf:RDF>
 </metadata>
 <g id="layer1" fill-rule="evenodd">
  <rect id="rect1373-5" x="4" y="4" width="40" height="40" ry="8" fill="#efefef" style="paint-order:stroke fill markers"/>
  <path id="rect817" d="m12 4c-4.432 0-8 3.568-8 8v24c0 4.432 3.568 8 8 8h24c4.432 0 8-3.568 8-8v-24c0-4.432-3.568-8-8-8h-24zm0 1h24c3.878 0 7 3.122 7 7v24c0 3.878-3.122 7-7 7h-24c-3.878 0-7-3.122-7-7v-24c0-3.878 3.122-7 7-7z" opacity=".3" style="paint-order:stroke fill markers"/>
  <path id="rect905" d="m24 12c-3.324 0-6.3232 1.3388-8.4922 3.5078l2.8301 2.8301c1.446-1.446 3.4461-2.3379 5.6621-2.3379s4.2161 0.89189 5.6621 2.3379l2.8301-2.8301c-2.169-2.169-5.1682-3.5078-8.4922-3.5078z" fill="#d35244" style="paint-order:stroke fill markers"/>
  <path id="rect905-0" d="m15.508 15.508c-2.169 2.169-3.5078 5.1682-3.5078 8.4922s1.3388 6.3232 3.5078 8.4922l2.8301-2.8301c-1.446-1.446-2.3379-3.4461-2.3379-5.6621s0.89189-4.2161 2.3379-5.6621z" fill="#ffcd4b" style="paint-order:stroke fill markers"/>
  <path id="rect905-0-5" d="m24 22v4h7.7402c-0.36045 1.4085-1.0837 2.6677-2.0781 3.6621l2.8301 2.8301c2.169-2.169 3.5078-5.1682 3.5078-8.4922 0-0.6834-0.068972-1.3485-0.17773-2h-3.8223z" fill="#729dec" style="paint-order:stroke fill markers"/>
  <path id="rect905-4" d="m18.338 29.662-2.8301 2.8301c2.169 2.169 5.1682 3.5078 8.4922 3.5078s6.3232-1.3388 8.4922-3.5078l-2.8301-2.8301c-1.446 1.446-3.4461 2.3379-5.6621 2.3379s-4.2161-0.89189-5.6621-2.3379z" fill="#96d56b" style="paint-order:stroke fill markers"/>
 </g>
</svg>
