<?xml version="1.0" encoding="UTF-8"?>
<!-- Created with Inkscape (http://www.inkscape.org/) -->
<svg id="SVGRoot" width="48px" height="48px" version="1.1" viewBox="0 0 48 48" xmlns="http://www.w3.org/2000/svg" xmlns:cc="http://creativecommons.org/ns#" xmlns:dc="http://purl.org/dc/elements/1.1/" xmlns:rdf="http://www.w3.org/1999/02/22-rdf-syntax-ns#">
 <defs id="defs815">
  <style id="style819">.cls-1{fill:none;stroke:#fff;stroke-linecap:round;stroke-linejoin:round;}</style>
 </defs>
 <metadata id="metadata818">
  <rdf:RDF>
   <cc:Work rdf:about="">
    <dc:format>image/svg+xml</dc:format>
    <dc:type rdf:resource="http://purl.org/dc/dcmitype/StillImage"/>
    <dc:title/>
   </cc:Work>
  </rdf:RDF>
 </metadata>
 <g id="layer1" fill-rule="evenodd">
  <path id="rect849-2" d="m4 24v12c0 4.432 3.568 8 8 8h12v-20h-20z" fill="#96d56b" style="paint-order:stroke fill markers"/>
  <path id="rect849-9" d="m12 4c-4.432 0-8 3.568-8 8v12h20v-20h-12z" fill="#ffcd4b" style="paint-order:stroke fill markers"/>
  <path id="rect849-7" d="m24 4v20h20v-12c0-4.432-3.568-8-8-8h-12z" fill="#d35244" style="paint-order:stroke fill markers"/>
  <path id="rect849" d="m24 24v20h12c4.432 0 8-3.568 8-8v-12h-20z" fill="#729dec" style="paint-order:stroke fill markers"/>
  <path id="rect817" d="m12 4c-4.432 0-8 3.568-8 8v24c0 4.432 3.568 8 8 8h24c4.432 0 8-3.568 8-8v-24c0-4.432-3.568-8-8-8h-24zm0 1h24c3.878 0 7 3.122 7 7v24c0 3.878-3.122 7-7 7h-24c-3.878 0-7-3.122-7-7v-24c0-3.878 3.122-7 7-7z" opacity=".3" style="paint-order:stroke fill markers"/>
  <path id="rect822-2" d="m24 24c-3.324 0-6 2.676-6 6s2.676 6 6 6z" fill="#fff" style="paint-order:stroke fill markers"/>
  <path id="rect822-1" d="m24 24c0-3.324-2.676-6-6-6s-6 2.676-6 6z" fill="#fff" style="paint-order:stroke fill markers"/>
  <path id="rect822-3" d="m24 24c3.324 0 6-2.676 6-6s-2.676-6-6-6z" fill="#fff" style="paint-order:stroke fill markers"/>
  <path id="rect822-1-7" d="m24 24c0 3.324 2.676 6 6 6s6-2.676 6-6z" fill="#fff" style="paint-order:stroke fill markers"/>
 </g>
</svg>
