<?xml version="1.0" encoding="UTF-8"?>
<!-- Created with Inkscape (http://www.inkscape.org/) -->
<svg id="SVGRoot" width="48px" height="48px" version="1.1" viewBox="0 0 48 48" xml:space="preserve" xmlns="http://www.w3.org/2000/svg" xmlns:cc="http://creativecommons.org/ns#" xmlns:dc="http://purl.org/dc/elements/1.1/" xmlns:rdf="http://www.w3.org/1999/02/22-rdf-syntax-ns#"><defs><style>.cls-1{fill:none;stroke:#fff;stroke-linecap:round;stroke-linejoin:round;}</style></defs><metadata><rdf:RDF><cc:Work rdf:about=""><dc:format>image/svg+xml</dc:format><dc:type rdf:resource="http://purl.org/dc/dcmitype/StillImage"/></cc:Work></rdf:RDF></metadata><rect x="4" y="4" width="40" height="40" ry="8" fill="#E7B462" fill-rule="evenodd" style="paint-order:stroke fill markers"/><g stroke-linecap="round" stroke-linejoin="round"><rect x="11" y="11" width="26" height="26" ry="3" opacity=".3" stroke-width="2"/><rect x="12" y="12" width="24" height="24" ry="2" fill="#fce94e" stroke-width="2"/><rect x="11" y="11" width="6" height="6" ry="3" opacity=".3" stroke-width="1.5"/></g><path d="m12 4c-4.432 0-8 3.568-8 8v24c0 4.432 3.568 8 8 8h24c4.432 0 8-3.568 8-8v-24c0-4.432-3.568-8-8-8zm0 1h24c3.878 0 7 3.122 7 7v24c0 3.878-3.122 7-7 7h-24c-3.878 0-7-3.122-7-7v-24c0-3.878 3.122-7 7-7z" fill-rule="evenodd" opacity=".3" style="paint-order:stroke fill markers"/><rect x="10" y="10" width="6" height="6" ry="3" fill="#3F6EAC" stroke-linecap="round" stroke-linejoin="round" stroke-width="1.5"/><g stroke-linecap="round" stroke-linejoin="round" stroke-width="2"><rect x="20" y="16" width="12" height="4" ry="1" opacity=".3"/><rect x="16" y="22" width="16" height="4" ry="1" opacity=".3"/><rect x="16" y="28" width="16" height="4" ry="1" opacity=".3"/><path d="m13 10c-1.662 0-3 1.338-3 3s1.338 3 3 3 3-1.338 3-3-1.338-3-3-3zm0 1c1.108 0 2 0.892 2 2s-0.892 2-2 2-2-0.892-2-2 0.892-2 2-2z" opacity=".3"/></g><rect x="11" y="11" width="2" height="2" ry="1" fill="#fff" opacity=".3" stroke-linecap="round" stroke-linejoin="round" stroke-width="1.3333"/></svg>
