<?xml version="1.0" encoding="UTF-8"?>
<!-- Created with Inkscape (http://www.inkscape.org/) -->
<svg id="SVGRoot" width="48px" height="48px" version="1.1" viewBox="0 0 48 48" xmlns="http://www.w3.org/2000/svg" xmlns:cc="http://creativecommons.org/ns#" xmlns:dc="http://purl.org/dc/elements/1.1/" xmlns:rdf="http://www.w3.org/1999/02/22-rdf-syntax-ns#">
 <defs id="defs815">
  <style id="style819">.cls-1{fill:none;stroke:#fff;stroke-linecap:round;stroke-linejoin:round;}</style>
 </defs>
 <metadata id="metadata818">
  <rdf:RDF>
   <cc:Work rdf:about="">
    <dc:format>image/svg+xml</dc:format>
    <dc:type rdf:resource="http://purl.org/dc/dcmitype/StillImage"/>
    <dc:title/>
   </cc:Work>
  </rdf:RDF>
 </metadata>
 <g id="layer1">
  <rect id="rect1373-9" x="4" y="4" width="40" height="40" ry="8" fill="#71b9e3" fill-rule="evenodd" style="paint-order:stroke fill markers"/>
  <path id="rect817" d="m12 4c-4.432 0-8 3.568-8 8v24c0 4.432 3.568 8 8 8h24c4.432 0 8-3.568 8-8v-24c0-4.432-3.568-8-8-8h-24zm0 1h24c3.878 0 7 3.122 7 7v24c0 3.878-3.122 7-7 7h-24c-3.878 0-7-3.122-7-7v-24c0-3.878 3.122-7 7-7z" fill-rule="evenodd" opacity=".3" style="paint-order:stroke fill markers"/>
  <path id="path830" d="m24.413 19.696s-0.54428-5.0814 3.5825-6.4289c3.4076-1.1126 5.9381 1.6686 5.9381 1.6686s0.8981-0.10088 3.4844-1.4723c-0.77461 1.9863-2.1593 2.8954-2.1593 2.8954s1.2727 0.10958 2.8954-0.49075c-1.0674 1.6708-2.601 2.5519-2.601 2.5519s1.0288 8.0329-5.3983 12.858c-9.494 7.1273-18.256 1.4723-18.256 1.4723s5.3774 0.20642 7.6067-2.6501c0.03854-0.06052-3.6905 0.27148-5.1529-3.5825 1.0132 0.08509 2.2084 0.04907 2.2084 0.04907s-4.0143-1.5443-4.1223-5.4964c0.99636 0.13567 2.2575 0.44168 2.2575 0.44168s-3.3558-3.0558-1.7667-7.1159c4.4761 5.0675 11.484 5.3001 11.484 5.3001z" fill="#fff"/>
 </g>
</svg>
