<?xml version="1.0" encoding="UTF-8"?>
<!-- Created with Inkscape (http://www.inkscape.org/) -->
<svg id="SVGRoot" width="48px" height="48px" version="1.1" viewBox="0 0 48 48" xmlns="http://www.w3.org/2000/svg" xmlns:cc="http://creativecommons.org/ns#" xmlns:dc="http://purl.org/dc/elements/1.1/" xmlns:rdf="http://www.w3.org/1999/02/22-rdf-syntax-ns#">
 <defs id="defs815">
  <style id="style819">.cls-1{fill:none;stroke:#fff;stroke-linecap:round;stroke-linejoin:round;}</style>
 </defs>
 <metadata id="metadata818">
  <rdf:RDF>
   <cc:Work rdf:about="">
    <dc:format>image/svg+xml</dc:format>
    <dc:type rdf:resource="http://purl.org/dc/dcmitype/StillImage"/>
    <dc:title/>
   </cc:Work>
  </rdf:RDF>
 </metadata>
 <g id="layer1">
  <rect id="rect1373-5" x="4" y="4" width="40" height="40" ry="8" fill="#4e4e4e" fill-rule="evenodd" style="paint-order:stroke fill markers"/>
  <path id="rect817" d="m12 4c-4.432 0-8 3.568-8 8v24c0 4.432 3.568 8 8 8h24c4.432 0 8-3.568 8-8v-24c0-4.432-3.568-8-8-8h-24zm0 1h24c3.878 0 7 3.122 7 7v24c0 3.878-3.122 7-7 7h-24c-3.878 0-7-3.122-7-7v-24c0-3.878 3.122-7 7-7z" fill-rule="evenodd" opacity=".4" style="paint-order:stroke fill markers"/>
  <path id="path839" d="m23 12c-0.73658 0.01149-1.2084 0.78838-0.87891 1.4473 0 0 0.14453 0.2194 0.14453 1.0527s-0.20416 2.172-1.1445 4.0527c-0.5941 1.1882-1.7763 2.3673-2.8926 3.6719-1.1163 1.3046-2.2129 2.8221-2.2129 4.7754 0 4.2917 2.0046 6.7267 4.0039 7.8691 1.9993 1.1425 3.9961 1.1309 3.9961 1.1309s1.9968 0.01162 3.9961-1.1309c1.9993-1.1425 4.0039-3.5775 4.0039-7.8691 0-1.6111-0.27104-2.743-0.57227-3.4961-0.30123-0.75307-0.7207-1.2109-0.7207-1.2109-0.52561-0.52605-1.4211-0.31485-1.6562 0.39062 0 0-0.48506 1.4486-1.1953 2.8691-0.35512 0.71025-0.70515 1.2708-0.972 1.7366-0.12865 0.22454-0.4727 0.66283-0.81718 0.69414-0.54894 0.04989-1.2868-0.17804-1.0176-0.95071 0.72518-2.0816 1.9513-3.9469 1.9513-8.0327 0-1.8333-0.86108-3.4693-1.668-4.6797-0.80689-1.2103-1.625-2.0273-1.625-2.0273-0.19132-0.19141-0.45205-0.29711-0.72266-0.29297z" color="#000000" color-rendering="auto" dominant-baseline="auto" fill="#fff" image-rendering="auto" shape-rendering="auto" solid-color="#000000" style="font-feature-settings:normal;font-variant-alternates:normal;font-variant-caps:normal;font-variant-ligatures:normal;font-variant-numeric:normal;font-variant-position:normal;isolation:auto;mix-blend-mode:normal;shape-padding:0;text-decoration-color:#000000;text-decoration-line:none;text-decoration-style:solid;text-indent:0;text-orientation:mixed;text-transform:none;white-space:normal"/>
 </g>
</svg>
