<?xml version="1.0" encoding="UTF-8"?>
<!-- Created with Inkscape (http://www.inkscape.org/) -->
<svg id="SVGRoot" width="48px" height="48px" version="1.1" viewBox="0 0 48 48" xmlns="http://www.w3.org/2000/svg" xmlns:cc="http://creativecommons.org/ns#" xmlns:dc="http://purl.org/dc/elements/1.1/" xmlns:rdf="http://www.w3.org/1999/02/22-rdf-syntax-ns#">
 <defs id="defs815">
  <style id="style819">.cls-1{fill:none;stroke:#fff;stroke-linecap:round;stroke-linejoin:round;}</style>
  <style id="style2">.a{fill:none;stroke:#b1b5bd;stroke-linecap:round;stroke-linejoin:round;isolation:isolate;opacity:0.63;}</style>
 </defs>
 <metadata id="metadata818">
  <rdf:RDF>
   <cc:Work rdf:about="">
    <dc:format>image/svg+xml</dc:format>
    <dc:type rdf:resource="http://purl.org/dc/dcmitype/StillImage"/>
    <dc:title/>
   </cc:Work>
  </rdf:RDF>
 </metadata>
 <g id="layer1">
  <rect id="rect1373-5" x="4" y="4" width="40" height="40" ry="8" fill="#d35244" fill-rule="evenodd" style="paint-order:stroke fill markers"/>
  <path id="rect817" d="m12 4c-4.432 0-8 3.568-8 8v24c0 4.432 3.568 8 8 8h24c4.432 0 8-3.568 8-8v-24c0-4.432-3.568-8-8-8h-24zm0 1h24c3.878 0 7 3.122 7 7v24c0 3.878-3.122 7-7 7h-24c-3.878 0-7-3.122-7-7v-24c0-3.878 3.122-7 7-7z" fill-rule="evenodd" opacity=".3" style="paint-order:stroke fill markers"/>
  <path id="path818-4" d="m27.411 14.867c-2.6127 0-4.731 2.0627-4.731 4.6076 0 2.5444 2.1183 4.6066 4.731 4.6066 2.6127 0 4.731-2.0621 4.731-4.6066 0-2.5449-2.1183-4.6076-4.731-4.6076zm-17.184 0.22161c-0.14198 0.0058-0.19464 0.04491-0.23267 0.08313 0 0-0.06098 0.24382 0.38617 0.32477 0.44667 0.08144 3.0067 0.8334 6.5222 3.5963 3.5148 2.7634 5.4247 5.2216 6.7858 6.6644 0 0-4.1448 1.4629-9.0005 4.6729 0 0 1.7066-2.052 2.3771-7.1519 0.09801-0.74556 0.27897-1.6759 0.36577-2.56 0 0 0.10142-0.71093-0.16238-0.71093-0.26429 0-0.69101 3.5557-1.4224 5.7701-0.39839 1.2059-0.89381 2.7025-2.3162 4.653-0.87968 1.2069-1.7589 2.1119-1.5644 2.5196 0.42667 0.89381 1.3205 0.02003 1.3205 0.02003s5.6893-3.7586 11.663-5.6076c0 0 1.4546 1.5911 1.7135 1.8974 0.77971 0.92162 1.3391 1.9403 2.0042 1.9227 0.5403-0.01463 0.73149-0.30477 1.0163-1.8695 0.28429-1.5643 0.91421-3.1086 0.91421-3.1086s3.5807-0.17213 3.7587 0.97526c0.11898 0.76655-0.41348 1.1616-0.8377 1.3025-0.20676 0.06924-0.84312 0.25448-1.1074 0.33006-0.49445 0.14092-0.62073 0.89187 0.198 1.2527 1.3361 0.58857 2.7058 0.88167 2.58 1.9101-0.12191 0.99523-1.7696 1.4922-2.9258 1.2391-2.1334-0.46715-2.2358-1.4609-2.6006-1.3205-0.26429 0.10142 0.48763 0.91426 0.8938 1.1785 0.40668 0.26381 3.3934 1.7677 4.9575-0.10184 1.7681-2.1124-1.6253-3.4334-1.6253-3.4334s2.0924-0.93482 1.7067-2.7025c-0.38621-1.7676-2.662-2.0319-4.3482-2.1738 0 0 0.73144-1.849 2.4176-3.7791 0.87674-1.0035 2.2611-2.1426 3.0886-2.7634 0.81241-0.60951 1.4386-0.71828 1.2596-1.0767-0.20334-0.40619-3.4948 1.971-4.1243 2.5396-0.63002 0.56908-2.4586 2.3567-3.9825 5.0794 0 0-2.4582 0.12192-4.3278 0.56859 0 0-2.6615-2.8847-5.7701-5.3029-3.1086-2.4177-6.0138-3.8806-7.7816-4.4292-1.0779-0.33464-1.5627-0.41758-1.7993-0.4079zm17.184 0.99895c1.9208 0 3.4777 1.516 3.4777 3.387 0 1.87-1.557 3.3866-3.4777 3.3866-1.9208 0-3.4777-1.5165-3.4777-3.3866 0-1.871 1.557-3.387 3.4777-3.387zm1.6521 10.29s-0.51694 1.0225-0.75978 2.0329c-0.42765-0.54127-1.4327-1.6359-1.4327-1.6359s0.76273-0.19604 2.1924-0.39694z" fill="#fff"/>
 </g>
</svg>
