<?xml version="1.0" encoding="UTF-8"?>
<!-- Created with Inkscape (http://www.inkscape.org/) -->
<svg id="SVGRoot" width="48px" height="48px" version="1.1" viewBox="0 0 48 48" xml:space="preserve" xmlns="http://www.w3.org/2000/svg" xmlns:cc="http://creativecommons.org/ns#" xmlns:dc="http://purl.org/dc/elements/1.1/" xmlns:rdf="http://www.w3.org/1999/02/22-rdf-syntax-ns#"><defs><style>.cls-1{fill:none;stroke:#fff;stroke-linecap:round;stroke-linejoin:round;}</style><style>.cls-1{fill:none;stroke:#fff;stroke-linecap:round;stroke-linejoin:round;}</style><style>.cls-1{fill:none;stroke:#fff;stroke-linecap:round;stroke-linejoin:round;}</style></defs><metadata><rdf:RDF><cc:Work rdf:about=""><dc:format>image/svg+xml</dc:format><dc:type rdf:resource="http://purl.org/dc/dcmitype/StillImage"/></cc:Work></rdf:RDF></metadata><rect x="4" y="4" width="40" height="40" ry="8" fill="#4e4e4e" fill-rule="evenodd" style="paint-order:stroke fill markers"/><path d="m12 4c-4.432 0-8 3.568-8 8v24c0 4.432 3.568 8 8 8h24c4.432 0 8-3.568 8-8v-24c0-4.432-3.568-8-8-8zm0 1h24c3.878 0 7 3.122 7 7v24c0 3.878-3.122 7-7 7h-24c-3.878 0-7-3.122-7-7v-24c0-3.878 3.122-7 7-7z" fill-rule="evenodd" opacity=".4" style="paint-order:stroke fill markers"/><path d="m10 22v4h5.168l1.666-4zm23.869 0-1.9121 4h6.043v-4z" fill="#efefef"/><path d="m26.07 10.15 0.85547 4.2812c1.5438 0.46848 2.9275 1.2984 4.0527 2.3926l2.459-3.0742c0.01653-0.02051 0.03346-0.0407 0.05078-0.06055-2.0131-1.8527-4.5734-3.121-7.418-3.5391zm-4.3105 0.02539c-5.3541 0.85405-9.6758 4.7238-11.184 9.8242h4.25c0.97384-2.241 2.7426-4.0508 4.9551-5.0762zm-11.184 17.824c0.44548 1.5069 1.1365 2.9064 2.0273 4.1523l1.7305-4.1523zm22.598 0c-0.90466 2.0818-2.495 3.7913-4.4902 4.8457h-2e-3l-2.375 4.9668c5.323-0.87562 9.6157-4.7335 11.117-9.8125zm-15.18 4.0078-2.3945 3.1914c-0.0026 0.0033-0.0052 0.0065-0.0078 0.0098 1.7938 1.3455 3.9241 2.2699 6.2461 2.627l-1.5078-4.5254c-0.84061-0.32993-1.6254-0.76992-2.3359-1.3027z" fill="#72d0ec"/><path d="m14 34 10-24 3 15 8-10-11 23-4-12zm0 0 10-24 3 15 8-10-11 23-4-12z" fill="#72d0ec" stop-color="#000000" stroke-linecap="round" stroke-linejoin="round"/></svg>
