<?xml version="1.0" encoding="UTF-8"?>
<!-- Created with Inkscape (http://www.inkscape.org/) -->
<svg id="SVGRoot" width="48px" height="48px" version="1.1" viewBox="0 0 48 48" xmlns="http://www.w3.org/2000/svg" xmlns:cc="http://creativecommons.org/ns#" xmlns:dc="http://purl.org/dc/elements/1.1/" xmlns:rdf="http://www.w3.org/1999/02/22-rdf-syntax-ns#">
 <defs id="defs815">
  <style id="style819">.cls-1{fill:none;stroke:#fff;stroke-linecap:round;stroke-linejoin:round;}</style>
  <style id="style2">.a{fill:none;stroke:#b1b5bd;stroke-linecap:round;stroke-linejoin:round;isolation:isolate;opacity:0.63;}</style>
  <style id="style2-9">.a{fill:none;stroke:#b1b5bd;stroke-linecap:round;stroke-linejoin:round;isolation:isolate;opacity:0.63;}</style>
  <style id="style2-6">.a{fill:none;stroke:#b1b5bd;stroke-linecap:round;stroke-linejoin:round;isolation:isolate;opacity:0.63;}</style>
 </defs>
 <metadata id="metadata818">
  <rdf:RDF>
   <cc:Work rdf:about="">
    <dc:format>image/svg+xml</dc:format>
    <dc:type rdf:resource="http://purl.org/dc/dcmitype/StillImage"/>
    <dc:title/>
   </cc:Work>
  </rdf:RDF>
 </metadata>
 <g id="layer1">
  <rect id="rect1373" x="4" y="4" width="40" height="40" ry="8" fill="#f6a559" fill-rule="evenodd" style="paint-order:stroke fill markers"/>
  <path id="path819" d="m12 6c-3.324 0-6 2.676-6 6v0.30078l18 11.699-11.596-18h-0.4043zm12 18 4.5-18h-9l4.5 18zm0 0 18-11.699v-0.30078c0-3.324-2.676-6-6-6h-0.4043l-11.596 18zm0 0 18 4.5v-9l-18 4.5zm0 0 11.596 18h0.4043c3.324 0 6-2.676 6-6v-0.30078l-18-11.699zm0 0-4.5 18h9l-4.5-18zm0 0-18 11.699v0.30078c0 3.324 2.676 6 6 6h0.4043l11.596-18zm0 0-18-4.5v9l18-4.5z" fill="#fff" opacity=".35"/>
  <path id="path935" d="m37.967 8.9141c-0.38595 0.01991-0.77118 0.078515-1.0547 0.16992-0.60546 0.19521-1.0881 0.5252-2.7324 1.8672-0.78034 0.63688-1.7741 1.4434-2.209 1.793-0.94399 0.75893-1.2462 1.0807-1.4727 1.5664l-0.16992 0.36523-2.793 1.9688c-1.5358 1.0828-2.8138 1.9688-2.8418 1.9688s-0.18082-0.08516-0.33789-0.18945c-0.33143-0.22006-0.01562-0.16558-7.2363-1.2402-2.3135-0.34431-4.2094-0.63112-4.2148-0.63672-0.0054-0.0057-0.12312-0.28966-0.25977-0.63086-0.13664-0.3412-0.35201-0.80287-0.47852-1.0254-0.21746-0.38251-0.25893-0.42302-0.76758-0.74219-0.2959-0.18567-0.64148-0.38747-0.76758-0.44922-0.12609-0.06175-0.22852-0.12305-0.22852-0.13672 0-0.13604 0.18793-0.33473 0.375-0.39648 0.12114-0.03998 0.2401-0.09867 0.26562-0.13086 0.05619-0.07086 0.22282-0.9645 0.22266-1.1953-5e-5 -0.09075-0.032996-0.20802-0.072266-0.26172-0.05084-0.06952-0.058626-0.16978-0.029297-0.34766 0.08326-0.50477 0.06413-0.59369-0.14453-0.7168-0.10492-0.06191-0.22781-0.18925-0.27539-0.28125-0.04756-0.09199-0.21874-0.30474-0.37891-0.47266-0.82332-0.86317-2.2902-0.90872-3.168-0.099609-0.30101 0.27746-0.45073 0.51042-0.56836 0.89062-0.067104 0.21688-0.13597 0.32142-0.27344 0.41406-0.22982 0.15488-0.25597 0.2559-0.26172 0.95898-0.00521 0.64439 0.038571 0.77684 0.31445 0.92383 0.16233 0.08649 0.31367 0.29375 0.25586 0.35156-0.010527 0.01053-0.38137 0.1174-0.82227 0.23828-0.4409 0.12089-0.86311 0.25348-0.93945 0.29297-0.10715 0.05541-0.19301 0.20959-0.375 0.67969-0.12967 0.33494-0.2928 0.7934-0.36328 1.0176-0.046407 0.14758-0.10665 0.48851-0.16406 0.78711v2.4707c0.051811 0.12309 0.094861 0.254 0.1582 0.35938l0.17773 0.29688-0.33594 0.22656v16.432c0 4.432 3.568 8 8 8h24c0.38151 0 0.75411-0.034784 1.1211-0.085938 0.32674-0.69195 0.6077-1.5309 0.8125-2.1699 0.52027-1.8402 0.78906-3.9137 0.78906-6.0938v-1.0547l0.78516-0.55273c0.43158-0.30405 0.82223-0.612 0.86914-0.68359 0.16938-0.2585 0.0038-0.79816-0.61914-2.0156-0.79886-1.5614-2.0514-2.8327-3.2598-3.3105-0.83324-0.32953-2.9797-0.64232-5.4082-0.78711-0.50438-0.03007-0.93118-0.054418-0.94922-0.054688-0.01803-2.89e-4 -0.051376-0.27364-0.072266-0.60742-0.05436-0.8695-0.14074-0.97251-0.91992-1.0645-0.96026-0.1133-0.87976-0.07445-0.91992-0.42383-0.06741-0.58632-0.24058-1.3365-0.48633-2.1055-0.13607-0.42579-0.23987-0.78001-0.23047-0.78711s0.53985-0.28689 1.1777-0.62305c0.63788-0.33616 1.8949-1.0077 2.793-1.4922l1.6328-0.88086h0.44531c0.24539 0 0.59075-0.038414 0.76758-0.083984 0.27447-0.07073 4.8141-1.9689 5.6895-2.3789 0.66778-0.31278 1.483-1.0532 1.8398-1.6738 0.39709-0.69074 0.59208-1.7056 0.48438-2.5098-0.13141-0.98118-0.53224-1.7671-1.2754-2.498-0.58002-0.57051-1.2248-0.91507-2.0371-1.0879-0.28987-0.061674-0.67655-0.080457-1.0625-0.060547z" fill="#4e4e4e" stroke-width=".053944"/>
  <path id="path907" d="m38.176 9.7617c-0.90753-3.42e-5 -1.4393 0.17601-2.1777 0.72656-1.3447 1.0026-4.3023 3.5111-4.5723 3.877-0.1173 0.15897-0.26127 0.45678-0.3418 0.70898-0.11937 0.37385-0.13355 0.49374-0.10352 0.83789 0.04152 0.47588 0.05992 0.51851 0.19531 0.42578 0.05669-0.03882 0.86428-0.59258 1.7949-1.2305l1.6914-1.1602 0.02734-0.35156c0.01414-0.19285 0.07544-0.46024 0.13672-0.59375l0.11133-0.24219 0.0039 0.23242c7e-3 0.35647 0.16201 1.032 0.30664 1.3379 0.57552 1.2174 1.9461 2.0453 3.2051 1.9375 0.94021-0.08049 1.4895-0.33038 2.1348-0.9707 0.70185-0.6965 0.97464-1.4119 0.92383-2.4297-0.04474-0.89623-0.3541-1.5525-1.0469-2.2227-0.60582-0.58605-1.3751-0.88278-2.2891-0.88281zm0.17578 0.49609c0.15784-0.0029 0.31855 0.0081 0.48047 0.0332 0.42652 0.06603 0.98346 0.31066 1.1797 0.51953l0.12305 0.13281-0.27344-0.08008c-0.15087-0.04423-0.32229-0.07202-0.38086-0.0625-0.13377 0.02177-3.0234 2.6781-3.0234 2.7793 0 0.09135 0.19732 0.48586 0.32422 0.64844l0.09375 0.11914 1.9609-1.1367c1.0794-0.62512 1.9923-1.1479 2.0273-1.1621 0.11128-0.04496 0.24018 0.29039 0.22266 0.58008l-0.01758 0.26758-1.8848 0.89062c-1.0367 0.48976-1.8914 0.8973-1.9004 0.90625-9e-3 9e-3 0.09313 0.07203 0.22656 0.13867l0.24219 0.12109 1.5098-0.44531c0.83069-0.24435 1.5271-0.42793 1.5469-0.4082 0.14432 0.14432-0.63186 0.92175-1.2012 1.2031-0.4039 0.19962-0.44456 0.20831-1.0176 0.21875-0.32795 6e-3 -0.68574-0.01132-0.79688-0.03906-0.69451-0.17318-1.4215-0.79366-1.7598-1.502-0.18355-0.38436-0.19819-0.45205-0.21484-1.0078-0.01496-0.49916 0.0023-0.64991 0.09961-0.93945 0.35946-1.067 1.3287-1.7548 2.4336-1.7754zm-29.623 0.21094c-0.46176-0.0033-0.79576 0.05618-0.87305 0.17773-0.059191 0.09308-0.050631 0.62404 0.013672 0.85547 0.051217 0.18439 0.07574 0.20369 0.34375 0.26367 0.1589 0.03556 0.42896 0.05338 0.60156 0.03906 0.28852-0.02392 0.32948-0.04458 0.50977-0.25391l0.19727-0.22852 0.31445 0.04492c0.30772 0.04333 0.31462 0.04876 0.39648 0.27344 0.07431 0.20395 0.10369 0.22852 0.25586 0.22852 0.09408 0 0.19532-0.03072 0.22656-0.06836 0.09655-0.11634 0.1858-0.75343 0.12695-0.9082-0.04536-0.11929-0.11228-0.15015-0.47656-0.22852-0.58682-0.12623-1.175-0.19205-1.6367-0.19531zm1.0801 1.2949c-0.079483-0.0098-0.16476 0.04427-0.23438 0.16211-0.11698 0.19803-0.21918 0.24045-0.67383 0.29297-0.21059 0.02433-0.35148 0.06919-0.36914 0.11523-0.04925 0.12835 0.093993 0.59786 0.2168 0.71289 0.2981 0.27925 0.80507 0.36504 1.1973 0.20117 0.19658-0.08214 0.35801-0.36205 0.42969-0.74414 0.03067-0.16346 0.019486-0.18607-0.13867-0.25781-0.12044-0.05464-0.19323-0.13671-0.23438-0.26758-0.041363-0.13157-0.11388-0.20501-0.19336-0.21484zm-2.7773 2.3418-0.29688 0.041015c-0.16318 0.02304-0.35 0.05534-0.41406 0.07031l-0.11719 0.02539 0.10547 0.33789c0.15318 0.4957 0.26059 1.333 0.26172 2.0293l0.00195 0.61133-0.17969-0.10547c-0.098989-0.058396-0.25144-0.15124-0.33789-0.20703l-0.1582-0.10156 0.085937 0.13476c0.046293 0.07418 0.21556 0.34591 0.37695 0.60547 0.16139 0.25955 0.29601 0.47261 0.29883 0.47266 0.00268 4e-5 0.62126-0.30181 1.375-0.66992 0.75375-0.36811 1.5279-0.71956 1.7207-0.78125 0.41004-0.13117 0.97613-0.2192 1.4219-0.2207 0.27886-9.17e-4 0.31204-0.01241 0.2793-0.0957-0.02042-0.05192-0.06116-0.39672-0.0918-0.76758-0.03063-0.37086-0.06253-0.69862-0.07031-0.72852-0.0078-0.0299-0.14305-0.10148-0.30078-0.1582-0.27474-0.09879-0.28907-0.0983-0.34375-0.0059-0.20474 0.34634-0.30296 0.44832-0.54297 0.56836-0.23232 0.1163-0.33757 0.13485-0.75586 0.12894-0.34689-0.004948-0.57771-0.040107-0.80859-0.12305-0.47275-0.16981-1.0068-0.50678-1.2754-0.80274zm23.465 1.4551-4.2617 2.9551c-5.4162 3.755-5.088 3.5145-5.2109 3.7852-0.143 0.31491-0.12905 1.0059 0.01953 1.0059 0.03004 0 2.2527-1.3386 4.9414-2.9746 2.6887-1.636 4.8965-2.9802 4.9043-2.9863 0.0078-0.0061-0.04508-0.14241-0.11523-0.30273-0.17055-0.38979-0.20446-0.53759-0.24414-1.0488zm-19.043 1.7578c-0.24614 5.47e-4 -0.45703 0.12224-0.45703 0.26367 0 0.05234 0.09821 0.35589 0.21875 0.67578 0.58548 1.5537 1.1289 4.0038 1.1289 5.0879 0 0.1373 0.02856 0.24365 0.06836 0.25781 0.13256 0.04715 2.8723 0.38437 2.9199 0.35938 0.0279-0.01465 0.03521-0.38411 0.01563-0.86719-0.03701-0.9131-0.16931-1.8185-0.39062-2.6934-0.07749-0.30635-0.12757-0.59242-0.11133-0.63477 0.01624-0.04235 0.14494-0.14936 0.28516-0.23828 0.20609-0.13069 0.31249-0.16171 0.55469-0.16016 0.16479 1e-3 1.7445 0.20321 3.5098 0.44922 2.1349 0.29751 3.2414 0.43264 3.3066 0.40039 0.13022-0.0644 1.3803-0.95823 1.4121-1.0098 0.01367-0.02215-0.02999-0.06649-0.0957-0.09961-0.1362-0.06861-12.033-1.7917-12.365-1.791zm1.3926 0.80859c0.10274-0.0041 0.20735 0.02875 0.27148 0.09961 0.12528 0.13844 0.11612 0.46787-0.01758 0.60156-0.13784 0.13784-0.27245 0.13656-0.45117-0.0039-0.16556-0.13022-0.19188-0.38589-0.05859-0.57617 0.05294-0.07557 0.15312-0.11696 0.25586-0.12109zm3.5566 2.0742c-0.01524 0.01524 0.03241 0.12103 0.10742 0.23438 0.23891 0.36101 0.41792 0.75538 0.5 1.1035 0.15785 0.6695 0.06861 1.5797-0.21875 2.2402-0.081 0.18618-0.13662 0.34577-0.125 0.35547 0.01164 0.0098 0.63992 0.09219 1.3965 0.18164 0.75656 0.08945 1.3948 0.16596 1.418 0.16992 0.02319 4e-3 0.05116-0.02345 0.0625-0.06055 0.29864-0.97712 0.66876-2.0994 0.79492-2.4043 0.16011-0.38691 0.17279-0.39881 0.69726-0.76172 0.53234-0.36835 0.53246-0.36948 0.35742-0.40039-0.57831-0.10214-4.9674-0.68106-4.9902-0.6582zm-2.8848 0.04297c0.13782 0.02527 0.26568 0.14748 0.31445 0.3418 0.08561 0.3411-0.44862 0.62038-0.64648 0.33789-0.11782-0.16821-0.10826-0.38087 0.02539-0.55078 0.049-0.0623 0.10723-0.10228 0.16797-0.12109 0.04555-0.01411 0.09273-0.01625 0.13867-0.0078zm0.24219 2.3652c0.11043-0.01007 0.21683 0.02688 0.27734 0.11328 0.12598 0.17986 0.10866 0.405-0.04492 0.55859-0.14408 0.14408-0.21032 0.15635-0.39258 0.06836-0.06582-0.03179-0.14766-0.14312-0.18164-0.24609-0.05337-0.16172-0.04654-0.20704 0.04492-0.33008 0.07329-0.09859 0.18644-0.15399 0.29688-0.16406zm12.934 0.0293c-0.02712-0.02723-0.23834 0.0559-0.49609 0.19531l-0.44922 0.24219 0.01953 0.66797c0.01245 0.4714-0.0098 0.79268-0.07227 1.0918-0.04869 0.23304-0.07957 0.42969-0.07031 0.4375 0.02552 0.02154 1.3354 0.17504 1.5684 0.18359l0.20508 0.0059-0.03516-0.2832c-0.09637-0.80035-0.51416-2.3846-0.66992-2.541zm-1.793 0.93555c-0.12716 0.02827-0.4315 0.17721-1.0859 0.52148-1.0103 0.53146-1.2289 0.6773-1.1406 0.76562 0.03334 0.03335 1.6834 0.26424 1.9551 0.27344 0.16512 0.0056 0.17739-0.0083 0.25195-0.27734 0.09826-0.35456 0.15847-1.1758 0.09375-1.2734-0.0095-0.01435-0.03183-0.01916-0.07422-0.0098zm-12.65 0.86523c-0.11331-7.8e-4 -0.12109 0.02151-0.12109 0.34375v0.3457l0.36328 0.03125c0.20026 0.01734 0.58259 0.04674 0.84961 0.06445 1.7639 0.11698 3.2925 0.40166 4.209 0.7832 0.49538 0.20623 1.2399 0.68956 1.6777 1.0898l0.30664 0.28125 3.457 0.35742c1.9015 0.19657 3.5728 0.35958 3.7129 0.36328l0.25391 0.0078 0.35547-0.42773c0.42964-0.51932 0.52814-0.56113 1.2832-0.53516l0.54883 0.01758-0.01758-0.32226c-0.01044-0.17802-0.0292-0.33342-0.04102-0.3457-0.023906-0.024912-16.647-2.0534-16.838-2.0547zm-2.2715 1.4805c-0.49413 0.027335-0.78896 0.15012-1.5566 0.43945-1.503 0.56645-2.9568 1.2798-4.4219 2.1348v0.47852c2.027-0.99704 3.8736-1.7789 5.0781-2.1094l0.40625-0.11133 0.36914 0.19336c0.83599 0.4393 1.6455 1.5398 2.0078 2.7266l0.10742 0.35156 4.0586 0.35742c4.6851 0.41248 4.3008 0.38322 4.3008 0.31836 0-0.10518-0.29062-0.85402-0.4707-1.2129-0.5982-1.1921-1.5439-2.194-2.4805-2.627-0.68602-0.31711-1.8508-0.57535-3.1172-0.69141-0.32636-0.02992-1.4312-0.10661-2.4531-0.17188-0.53728-0.03431-0.93064-0.06167-1.2422-0.07422-0.23366-0.0094-0.42123-0.01101-0.58594-2e-3zm19.52 2.1172c0 0.0079 0.17552 0.1033 0.39062 0.21094 1.4851 0.74321 2.3732 1.8096 2.7109 3.2578l0.0957 0.40625 3.1074 0.30274c1.7096 0.16669 3.2137 0.30514 3.3418 0.30859 0.21736 0.0059 0.23096-0.0021 0.19727-0.11524-0.01987-0.06675-0.17015-0.36347-0.33398-0.66016-0.91495-1.6568-1.9654-2.666-3.1367-3.0137-0.80409-0.23871-3.0318-0.52301-4.916-0.62695-0.57855-0.03191-1.1426-0.06301-1.2539-0.07031-0.11126-0.0072-0.20312-0.0076-0.20312 0zm-9.2578 0.30078c-0.0055 0.0061 0.08164 0.17043 0.19141 0.36328 0.42006 0.73799 0.90755 2.098 0.84375 2.3535-0.01574 0.06304-0.3444 0.41032-0.73047 0.77344l-0.70312 0.66016v0.3457c0 0.18948 0.0062 0.3456 0.01367 0.34766 0.12399 0.03432 10.342 0.95516 10.533 0.94922l0.26953-0.0098 0.01563-0.51172c0.01854-0.60503-0.04795-1.0808-0.23047-1.6562-0.34413-1.085-1.1905-1.9785-2.4219-2.5547-0.80011-0.37439-1.0022-0.40812-4.5098-0.75195-1.7938-0.17584-3.266-0.31472-3.2715-0.30859zm-10.594 2.5c-0.024939-0.02576-0.23777 0.09487-0.47656 0.26758l-0.43164 0.3125 0.16211 0.23633c0.37495 0.54497 0.67692 1.3945 0.79883 2.252 0.078512 0.55218 0.066084 1.7562-0.023438 2.3457-0.20955 1.3797-0.76615 2.5938-1.5938 3.4746-0.44746 0.47624-0.80224 0.70338-1.3281 0.84766-0.48657 0.13349-0.92163 0.12771-1.3223-0.0039 0.31618 0.45455 0.6804 0.8714 1.082 1.25 0.13265-0.01337 0.29417-0.0152 0.36914-0.03516 0.72044-0.19179 1.4704-0.69905 2.0137-1.3633 1.2524-1.5313 1.8255-3.2427 1.8281-5.457 0.0012-1.0416-0.1063-1.7791-0.38086-2.6152-0.18374-0.55956-0.55572-1.3657-0.69727-1.5117zm11.639 1.1523c0.11716 0 0.20129 0.04342 0.2793 0.14258 0.14831 0.18855 0.14032 0.37334-0.02148 0.53516-0.16182 0.16181-0.34466 0.16785-0.5332 0.01953-0.29097-0.22888-0.106-0.69727 0.27539-0.69727zm-8.8379 0.26953-0.19531 2e-3 -0.03711 1.0645c-0.08204 2.3713-0.18756 3.4435-0.49805 5.0566-0.37409 1.9435-0.96839 3.7078-1.7813 5.3398 0.65903 0.17453 1.349 0.2773 2.0645 0.2773h5.3398c0.02928-0.07216 0.07422-0.16984 0.07422-0.19531 0-0.02229-0.4304-0.05767-0.95703-0.07813s-1.0008-0.04962-1.0527-0.06445c-0.13642-0.03897-0.11555-0.21477 0.06836-0.60352l0.16016-0.33984 1.1211 0.01758 1.1191 0.01758 0.17969-0.51367c0.14497-0.41296 0.65466-2.3027 0.65625-2.4336 2.02e-4 -0.01831-0.4304-0.04978-0.95703-0.07031-0.52663-0.02052-1.0008-0.04936-1.0527-0.06445-0.11303-0.03285-0.11778-0.19525-0.01953-0.61328l0.070308-0.29688h2.1484l0.0625-0.43164c0.10148-0.6927 0.25753-2.5042 0.21875-2.543-0.01952-0.01952-0.47923-0.06277-1.0215-0.0957-0.54226-0.03293-1.0198-0.08117-1.0605-0.10742-0.05591-0.03605-0.06822-0.14513-0.04883-0.44726 0.01411-0.22009 0.049-0.42204 0.07617-0.44922 0.02992-0.02992 0.44115-0.02215 1.0449 0.02148 0.5483 0.0396 1.0168 0.06337 1.0391 0.05078 0.02225-0.01257 0.03906-0.48119 0.03906-1.041v-1.0176l-0.2832-0.03125c-0.35385-0.03919-6.253-0.4105-6.5176-0.41016zm11.615 0.0039c0.32603-0.01047 0.55154 0.37494 0.33398 0.68555-0.12582 0.17962-0.46414 0.16811-0.61328-0.02148-0.06149-0.07817-0.11133-0.17678-0.11133-0.21875 0-0.12367 0.15163-0.37782 0.24609-0.41406 0.04962-0.01904 0.09795-0.02975 0.14453-0.03125zm2.877 0.32031c0.11339 0.01001 0.22282 0.05837 0.28906 0.14258 0.06149 0.07818 0.11133 0.18499 0.11133 0.23633 0 0.05134-0.04984 0.1562-0.11133 0.23438-0.13805 0.1755-0.46664 0.19853-0.60742 0.04297-0.12066-0.13331-0.11692-0.45354 0.0078-0.56641 0.0789-0.0714 0.19716-0.09985 0.31055-0.08984zm2.5488 0.26953c0.19308 0 0.23363 0.02274 0.30469 0.16016 0.11327 0.21905 0.10375 0.35691-0.03516 0.48633-0.15186 0.14148-0.47822 0.14599-0.60156 0.0098-0.12066-0.13331-0.11501-0.45354 0.0098-0.56641 0.0584-0.05285 0.18988-0.08984 0.32226-0.08984zm2.4648 1.1328 0.01758 0.74219c0.05408 2.2448-0.43838 5.2409-1.2227 7.4395-0.23336 0.65419-0.48542 1.2578-0.75586 1.832h3.7949c0.02772-0.06966 0.03866-0.1142 0.09375-0.22656l0.17578-0.35742 1.1523 0.01953 1.1523 0.01758 0.18359-0.45313c0.18004-0.44609 0.55638-1.5637 0.66016-1.9609l0.05273-0.20117h-0.17187c-0.46785-2.85e-4 -1.9574-0.12263-2-0.16406-0.02895-0.02812-0.0065-0.20776 0.05469-0.44141l0.10352-0.39258 1.1133 0.01758c1.2647 0.01944 1.1281 0.07407 1.2285-0.50391 0.08754-0.50392 0.21818-1.7461 0.21875-2.082v-0.30469l-0.31055-0.03125c-0.1706-0.01816-0.601-0.04907-0.95703-0.06836-0.35603-0.01928-0.67343-0.05752-0.70703-0.08398-0.07711-0.06071-0.03421-0.74594 0.05273-0.83789 0.04709-0.04982 0.27584-0.05055 0.99414-0.0059 0.5129 0.03199 0.94428 0.04596 0.95898 0.03125 0.02906-0.02906-0.05907-1.4374-0.0918-1.4668-0.02315-0.02072-5.454-0.51774-5.6562-0.51758z" fill="#fff" stroke-width=".053944"/>
  <path id="rect817" d="m12 4c-4.432 0-8 3.568-8 8v24c0 4.432 3.568 8 8 8h24c4.432 0 8-3.568 8-8v-24c0-4.432-3.568-8-8-8h-24zm0 1h24c3.878 0 7 3.122 7 7v24c0 3.878-3.122 7-7 7h-24c-3.878 0-7-3.122-7-7v-24c0-3.878 3.122-7 7-7z" fill-rule="evenodd" opacity=".3" style="paint-order:stroke fill markers"/>
 </g>
</svg>
