<?xml version="1.0" encoding="UTF-8"?>
<!-- Created with Inkscape (http://www.inkscape.org/) -->
<svg id="SVGRoot" width="48px" height="48px" version="1.1" viewBox="0 0 48 48" xmlns="http://www.w3.org/2000/svg" xmlns:cc="http://creativecommons.org/ns#" xmlns:dc="http://purl.org/dc/elements/1.1/" xmlns:rdf="http://www.w3.org/1999/02/22-rdf-syntax-ns#">
 <defs>
  <style>.cls-1{fill:none;stroke:#fff;stroke-linecap:round;stroke-linejoin:round;}</style>
 </defs>
 <rect x="4" y="4" width="40" height="40" ry="8" fill="#3D4EAF" fill-rule="evenodd" style="paint-order:stroke fill markers"/>
 <path d="m12 4c-4.432 0-8 3.568-8 8v24c0 4.432 3.568 8 8 8h24c4.432 0 8-3.568 8-8v-24c0-4.432-3.568-8-8-8zm0 1h24c3.878 0 7 3.122 7 7v24c0 3.878-3.122 7-7 7h-24c-3.878 0-7-3.122-7-7v-24c0-3.878 3.122-7 7-7z" fill-rule="evenodd" opacity=".3" style="paint-order:stroke fill markers"/>
 <path d="m7.7539 7.7539c-1.0845 1.0845-1.7539 2.5841-1.7539 4.2461v24c0 3.324 2.676 6 6 6h24c1.662 0 3.1616-0.66941 4.2461-1.7539l-32.492-32.492z" opacity=".3" style="paint-order:stroke fill markers"/>
 <path d="m12 12v17c0 7 7 7 7 7h17v-17c0-7-7-7-7-7z" fill="#fff" style="paint-order:stroke fill markers"/>
 <g fill="#3d4eaf">
  <path d="m16 26h16v6h-14c-1.108 0-2-0.892-2-2z" style="paint-order:stroke fill markers"/>
  <path d="m16 16h14c1.108 0 2 0.892 2 2v4h-16z" style="paint-order:stroke fill markers"/>
  <path d="m12 12 4 4v6h6l4 4h-10v4c0 1 1 2 2 2h14l4 4h-17s-7 0-7-7v-17z" opacity=".3" style="paint-order:stroke fill markers"/>
 </g>
</svg>
