<?xml version="1.0" encoding="UTF-8"?>
<!-- Created with Inkscape (http://www.inkscape.org/) -->
<svg id="SVGRoot" width="48px" height="48px" version="1.1" viewBox="0 0 48 48" xml:space="preserve" xmlns="http://www.w3.org/2000/svg" xmlns:cc="http://creativecommons.org/ns#" xmlns:dc="http://purl.org/dc/elements/1.1/" xmlns:rdf="http://www.w3.org/1999/02/22-rdf-syntax-ns#"><defs><style>.cls-1{fill:none;stroke:#fff;stroke-linecap:round;stroke-linejoin:round;}</style><style>.cls-1{fill:none;stroke:#fff;stroke-linecap:round;stroke-linejoin:round;}</style></defs><metadata><rdf:RDF><cc:Work rdf:about=""><dc:format>image/svg+xml</dc:format><dc:type rdf:resource="http://purl.org/dc/dcmitype/StillImage"/></cc:Work></rdf:RDF></metadata><rect x="4" y="4" width="40" height="40" ry="8" fill="#6799e1" fill-rule="evenodd" style="paint-order:stroke fill markers"/><path d="m12 4c-4.432 0-8 3.568-8 8v24c0 4.432 3.568 8 8 8h24c4.432 0 8-3.568 8-8v-24c0-4.432-3.568-8-8-8zm0 1h24c3.878 0 7 3.122 7 7v24c0 3.878-3.122 7-7 7h-24c-3.878 0-7-3.122-7-7v-24c0-3.878 3.122-7 7-7z" fill-rule="evenodd" opacity=".3" style="paint-order:stroke fill markers"/><path d="m13 12c-0.94281 0-2 1-2 2 0 2 4.44e-4 6 0.46875 9 0.62843 4.0258 4.526 4.1529 5.9824 4.0566-0.91348 0.15715-2.7186 0.74558-3.4512 2.9434-1 3 2.3966 6 5 6 2.9998 0 4.9997-5.999 5-6 3.41e-4 0.001022 2.0003 6 5 6 2.6034 0 6-3 5-6-0.7326-2.1978-2.5377-2.7862-3.4512-2.9434 1.4564 0.096301 5.354-0.03088 5.9824-4.0566 0.46831-3 0.46875-7 0.46875-9 0-1-1.0572-2-2-2-4 0-11 11-11 11s-7-11-11-11z" fill="#fff" stroke-linecap="round" stroke-linejoin="round" stroke-width="2"/></svg>
