<?xml version="1.0" encoding="UTF-8"?>
<!-- Created with Inkscape (http://www.inkscape.org/) -->
<svg id="SVGRoot" width="48px" height="48px" version="1.1" viewBox="0 0 48 48" xml:space="preserve" xmlns="http://www.w3.org/2000/svg" xmlns:cc="http://creativecommons.org/ns#" xmlns:dc="http://purl.org/dc/elements/1.1/" xmlns:rdf="http://www.w3.org/1999/02/22-rdf-syntax-ns#"><defs><style>.cls-1{fill:none;stroke:#fff;stroke-linecap:round;stroke-linejoin:round;}</style></defs><metadata><rdf:RDF><cc:Work rdf:about=""><dc:format>image/svg+xml</dc:format><dc:type rdf:resource="http://purl.org/dc/dcmitype/StillImage"/></cc:Work></rdf:RDF></metadata><rect x="4" y="4" width="40" height="40" ry="8" fill="#1F934F" fill-rule="evenodd" style="paint-order:stroke fill markers"/><path d="m12 4c-4.432 0-8 3.568-8 8v24c0 4.432 3.568 8 8 8h24c4.432 0 8-3.568 8-8v-24c0-4.432-3.568-8-8-8zm0 1h24c3.878 0 7 3.122 7 7v24c0 3.878-3.122 7-7 7h-24c-3.878 0-7-3.122-7-7v-24c0-3.878 3.122-7 7-7z" fill-rule="evenodd" opacity=".4" style="paint-order:stroke fill markers"/><path d="m10.738 6.1328c-1.4532 0.30889-2.7098 1.139-3.5625 2.2891 0.72979 2.9416 1.8018 6.8355 3.1895 10.746 0.57111 1.6095 1.1942 3.2245 1.875 4.7852 0.27251-0.26897 0.57019-0.59468 0.92383-0.98047 0.58202-0.63492 1.2268-1.3965 2.1113-2.1328-0.40038-0.9868-0.7818-1.9966-1.1406-3.0078-1.5509-4.3708-2.7008-8.765-3.3965-11.699zm26.523 0c-0.69565 2.9342-1.8456 7.3285-3.3965 11.699-0.88837 2.5036-1.913 4.994-3.0273 7.1641 0.053075 0.002291 0.10652 0.003906 0.16211 0.003906 1.3 0 1.8216-0.58223 3.1309-2.0195 0.65464-0.71865 1.3946-1.6041 2.4746-2.4277 0.21552-0.16436 0.44969-0.32477 0.70117-0.47656 0.11106-0.30258 0.22074-0.60557 0.32812-0.9082 1.3876-3.9106 2.4597-7.8045 3.1895-10.746-0.85266-1.1501-2.1093-1.9802-3.5625-2.2891zm-19.246 20.428c-0.13682 0.14761-0.28023 0.30375-0.42969 0.4668-0.64383 0.70236-1.4919 1.573-2.5645 2.3203 0.19721 0.31704 0.39875 0.62741 0.60352 0.92969 2.1341 3.1503 4.8417 5.7227 8.375 5.7227 3.2778 0 5.8444-2.2136 7.9023-5.0488-0.29223 0.03196-0.59264 0.048828-0.90234 0.048828-1.3895 0-2.5988-0.33555-3.6465-0.83398-1.2028 1.2286-2.3537 1.834-3.3535 1.834-1.4667 0-3.2591-1.3027-5.0625-3.9648-0.31202-0.4606-0.61953-0.95404-0.92188-1.4746z" fill="#fff" stop-color="#000000" stroke-linecap="round" stroke-linejoin="round"/><path d="m20 20c-1.5 0-2.8046 0.61501-3.7637 1.3496-0.95906 0.7346-1.6688 1.5711-2.3359 2.2988-1.3342 1.4555-2.2004 2.3516-3.9004 2.3516-1.1667 0-2.5245-0.85262-3.5859-1.9141-0.14625-0.14625-0.28446-0.29232-0.41406-0.43555v5.1914c1.1285 0.67361 2.4625 1.1582 4 1.1582 3.3 0 5.4338-2.1039 6.8496-3.6484 0.7079-0.77225 1.3106-1.4358 1.8203-1.8262 0.50969-0.3904 0.83008-0.52539 1.3301-0.52539 1.7 0 2.5859 0.91406 4.0859 2.4141s3.6141 3.5859 6.9141 3.5859 5.4237-2.1105 6.8281-3.6523c0.70224-0.7709 1.2993-1.4319 1.8086-1.8203s0.83761-0.52734 1.3633-0.52734c0.40985 0 0.73582 0.045697 1 0.11719v-4.0547c-0.31866-0.040699-0.65223-0.0625-1-0.0625-1.5088 0-2.8232 0.61107-3.7891 1.3477s-1.6757 1.5756-2.3398 2.3047c-1.3283 1.4582-2.1711 2.3477-3.8711 2.3477s-2.5859-0.91406-4.0859-2.4141c-1.5-1.5-3.6141-3.5859-6.9141-3.5859z" fill="#fff" stop-color="#000000" stroke-linecap="round" stroke-linejoin="round"/></svg>
