<?xml version="1.0" encoding="UTF-8"?>
<!-- Created with Inkscape (http://www.inkscape.org/) -->
<svg id="SVGRoot" width="48px" height="48px" version="1.1" viewBox="0 0 48 48" xml:space="preserve" xmlns="http://www.w3.org/2000/svg" xmlns:cc="http://creativecommons.org/ns#" xmlns:dc="http://purl.org/dc/elements/1.1/" xmlns:rdf="http://www.w3.org/1999/02/22-rdf-syntax-ns#"><defs><style>.cls-1{fill:none;stroke:#fff;stroke-linecap:round;stroke-linejoin:round;}</style><style>.cls-1{fill:none;stroke:#fff;stroke-linecap:round;stroke-linejoin:round;}</style><style>.a{fill:none;stroke:#b1b5bd;stroke-linecap:round;stroke-linejoin:round;isolation:isolate;opacity:0.63;}</style><style>.cls-1{fill:none;stroke:#fff;stroke-linecap:round;stroke-linejoin:round;}</style></defs><metadata><rdf:RDF><cc:Work rdf:about=""><dc:format>image/svg+xml</dc:format><dc:type rdf:resource="http://purl.org/dc/dcmitype/StillImage"/></cc:Work></rdf:RDF></metadata><rect x="4" y="4" width="40" height="40" ry="8" fill="#efefef" fill-rule="evenodd" style="paint-order:stroke fill markers"/><path d="m12 4c-4.432 0-8 3.568-8 8v24c0 4.432 3.568 8 8 8h24c4.432 0 8-3.568 8-8v-24c0-4.432-3.568-8-8-8zm0 1h24c3.878 0 7 3.122 7 7v24c0 3.878-3.122 7-7 7h-24c-3.878 0-7-3.122-7-7v-24c0-3.878 3.122-7 7-7z" fill-rule="evenodd" opacity=".3" style="paint-order:stroke fill markers"/><rect x="26" y="16" width="10" height="8" rx="5" ry="2" fill="#4e4e4e"/><rect x="12" y="12" width="10" height="10" ry="5" fill="#4e4e4e"/><rect x="14" y="14" width="6" height="6" ry="3" fill="#fff"/><rect x="26" y="12" width="10" height="10" ry="5" fill="#4e4e4e"/><rect x="28" y="14" width="6" height="6" ry="3" fill="#fff"/><g fill="#4e4e4e"><path d="m28 18s0-2 2-2h2c2 0 2-2 2-2h-6z"/><rect x="16" y="20" width="2" height="10" ry="1"/><path d="m17 28a1.0001 1.0001 0 0 0-0.89453 0.55273l-3 6a1 1 0 0 0 0.44726 1.3418 1 1 0 0 0 1.3418-0.44726l2.1055-4.2109 2.1055 4.2109a1 1 0 0 0 1.3418 0.44726 1 1 0 0 0 0.44726-1.3418l-3-6a1.0001 1.0001 0 0 0-0.89453-0.55273z" stop-color="#000000" stroke-linecap="round" stroke-linejoin="round"/><path d="m16.553 22.105-6 3a1 1 0 0 0-0.44726 1.3418 1 1 0 0 0 1.3418 0.44726l5.5527-2.7773 5.5527 2.7773a1 1 0 0 0 1.3418-0.44726 1 1 0 0 0-0.44726-1.3418l-6-3a1.0001 1.0001 0 0 0-0.89453 0z" stop-color="#000000" stroke-linecap="round" stroke-linejoin="round"/><rect x="30" y="20" width="2" height="10" ry="1"/><path d="m31 28a1.0001 1.0001 0 0 0-0.89453 0.55273l-3 6a1 1 0 0 0 0.44726 1.3418 1 1 0 0 0 1.3418-0.44726l2.1055-4.2109 2.1055 4.2109a1 1 0 0 0 1.3418 0.44726 1 1 0 0 0 0.44726-1.3418l-3-6a1.0001 1.0001 0 0 0-0.89453-0.55273z" stop-color="#000000" stroke-linecap="round" stroke-linejoin="round"/><path d="m30.553 22.105-6 3a1 1 0 0 0-0.44726 1.3418 1 1 0 0 0 1.3418 0.44726l5.5527-2.7773 5.5527 2.7773a1 1 0 0 0 1.3418-0.44726 1 1 0 0 0-0.44726-1.3418l-6-3a1.0001 1.0001 0 0 0-0.89453 0z" stop-color="#000000" stroke-linecap="round" stroke-linejoin="round"/></g></svg>
