<?xml version="1.0" encoding="UTF-8"?>
<!-- Created with Inkscape (http://www.inkscape.org/) -->
<svg id="SVGRoot" width="48px" height="48px" version="1.1" viewBox="0 0 48 48" xmlns="http://www.w3.org/2000/svg" xmlns:cc="http://creativecommons.org/ns#" xmlns:dc="http://purl.org/dc/elements/1.1/" xmlns:rdf="http://www.w3.org/1999/02/22-rdf-syntax-ns#">
 <defs id="defs815">
  <style id="style819">.cls-1{fill:none;stroke:#fff;stroke-linecap:round;stroke-linejoin:round;}</style>
  <style id="style2">.a{fill:none;stroke:#b1b5bd;stroke-linecap:round;stroke-linejoin:round;isolation:isolate;opacity:0.63;}</style>
  <style id="style2-5">.a{fill:none;stroke:#b1b5bd;stroke-linecap:round;stroke-linejoin:round;isolation:isolate;opacity:0.63;}</style>
 </defs>
 <metadata id="metadata818">
  <rdf:RDF>
   <cc:Work rdf:about="">
    <dc:format>image/svg+xml</dc:format>
    <dc:type rdf:resource="http://purl.org/dc/dcmitype/StillImage"/>
    <dc:title/>
   </cc:Work>
  </rdf:RDF>
 </metadata>
 <g id="layer1">
  <rect id="rect1373" x="4" y="4" width="40" height="40" ry="8" fill="#efefef" fill-rule="evenodd" style="paint-order:stroke fill markers"/>
  <path id="path872" d="m12 4c-1.027 0-2.0037 0.19931-2.9043 0.54883l24.904 12.451-12-13h-10z" fill="#96d56b"/>
  <path id="path870" d="m35 19v-8l-5-7h-13z" fill="#72c7ec"/>
  <path id="path868" d="m30 4 6 20 7.2422-15.391c-1.2727-2.7251-4.0256-4.6094-7.2422-4.6094h-6z" fill="#f56784"/>
  <rect id="rect890" x="11" y="11" width="26" height="26" ry="13" fill-rule="evenodd" opacity=".25" style="paint-order:normal"/>
  <rect id="rect818" x="12" y="12" width="24" height="24" ry="12" fill="#efefef" fill-rule="evenodd" style="paint-order:normal"/>
  <rect id="rect820" x="14" y="14" width="20" height="20" ry="10" fill="#7c8487" fill-rule="evenodd" style="paint-order:normal"/>
  <rect id="rect859" x="16" y="16" width="16" height="16" ry="8" fill="#4e4e4e" fill-rule="evenodd" style="paint-order:normal"/>
  <path id="rect861" d="m24 18c-3.324 0-6 2.676-6 6 0 1.662 0.66941 3.1616 1.7539 4.2461l8.4922-8.4922c-1.0845-1.0845-2.5841-1.7539-4.2461-1.7539z" fill="#7c8487" fill-rule="evenodd" style="paint-order:normal"/>
  <path id="rect817" d="m12 4c-4.432 0-8 3.568-8 8v24c0 4.432 3.568 8 8 8h24c4.432 0 8-3.568 8-8v-24c0-4.432-3.568-8-8-8h-24zm0 1h24c3.878 0 7 3.122 7 7v24c0 3.878-3.122 7-7 7h-24c-3.878 0-7-3.122-7-7v-24c0-3.878 3.122-7 7-7z" fill-rule="evenodd" opacity=".3" style="paint-order:stroke fill markers"/>
 </g>
</svg>
