<?xml version="1.0" encoding="UTF-8"?>
<!-- Created with Inkscape (http://www.inkscape.org/) -->
<svg id="SVGRoot" width="48px" height="48px" version="1.1" viewBox="0 0 48 48" xmlns="http://www.w3.org/2000/svg" xmlns:cc="http://creativecommons.org/ns#" xmlns:dc="http://purl.org/dc/elements/1.1/" xmlns:rdf="http://www.w3.org/1999/02/22-rdf-syntax-ns#">
 <defs id="defs815">
  <style id="style819">.cls-1{fill:none;stroke:#fff;stroke-linecap:round;stroke-linejoin:round;}</style>
 </defs>
 <metadata id="metadata818">
  <rdf:RDF>
   <cc:Work rdf:about="">
    <dc:format>image/svg+xml</dc:format>
    <dc:type rdf:resource="http://purl.org/dc/dcmitype/StillImage"/>
    <dc:title/>
   </cc:Work>
  </rdf:RDF>
 </metadata>
 <g id="layer1">
  <rect id="rect1373-5" x="4" y="4" width="40" height="40" ry="8" fill="#47506f" fill-rule="evenodd" style="paint-order:stroke fill markers"/>
  <path id="path960" d="m7 36c-1 0-1 1-1 1v1c0 1.04-0.53943 1.5338-1.0586 1.7734 1.3441 2.519 3.9932 4.2266 7.0586 4.2266h12 12c3.0654 0 5.7145-1.7076 7.0586-4.2266-0.51916-0.23962-1.0586-0.73346-1.0586-1.7734v-1s0-1-1-1h-17-17z" fill="#e5b871"/>
  <path id="path1025-6" d="m14 36c0 7-2 8-2 8h24s-2-1-2-8z" fill="#ffdd75"/>
  <path id="rect921" d="m12 4c-4.432 0-8 3.568-8 8v7c0 2.216 1.784 4 4 4h32c2.216 0 4-1.784 4-4v-7c0-4.432-3.568-8-8-8h-24z" fill="#e5b871" fill-rule="evenodd" style="paint-order:stroke fill markers"/>
  <rect id="rect895" x="8" y="8" width="32" height="11" ry="4" fill="#47506f" fill-rule="evenodd" style="paint-order:stroke fill markers"/>
  <path id="rect817" d="m12 4c-4.432 0-8 3.568-8 8v24c0 4.432 3.568 8 8 8h24c4.432 0 8-3.568 8-8v-24c0-4.432-3.568-8-8-8h-24zm0 1h24c3.878 0 7 3.122 7 7v24c0 3.878-3.122 7-7 7h-24c-3.878 0-7-3.122-7-7v-24c0-3.878 3.122-7 7-7z" fill-rule="evenodd" opacity=".4" style="paint-order:stroke fill markers"/>
  <rect id="rect856" x="4" y="8" width="40" height="27" rx="19.956" ry="12.5" fill="#e5b871" fill-rule="evenodd" style="paint-order:stroke fill markers"/>
  <path id="rect856-3" d="m23.955 8c-11.056 0-19.955 5.575-19.955 12.5v2c0 4.8544 4.3813 9.0371 10.805 11.109 0.64426 0.20785 1.311 0.39094 1.9941 0.55469 0.10595 0.025534 0.2135 0.047826 0.32031 0.072266 0.56199 0.12781 1.1342 0.23956 1.7188 0.33594 0.19488 0.032453 0.38873 0.064918 0.58594 0.09375 0.54751 0.079179 1.1039 0.14093 1.668 0.19141 0.18957 0.017196 0.37509 0.040864 0.56641 0.054687 0.75431 0.053746 1.5189 0.087891 2.2969 0.087891h0.089844c0.77802 0 1.5426-0.034145 2.2969-0.087891 0.19131-0.013823 0.37684-0.037491 0.56641-0.054687 0.56403-0.050479 1.1205-0.11223 1.668-0.19141 0.19721-0.028832 0.39105-0.061297 0.58594-0.09375 0.58458-0.096375 1.1568-0.20813 1.7188-0.33594 0.10681-0.02444 0.21436-0.046732 0.32031-0.072266 0.68317-0.16375 1.3499-0.34684 1.9941-0.55469 6.4234-2.0723 10.805-6.255 10.805-11.109v-2c0-6.925-8.8994-12.5-19.955-12.5h-0.089844zm0.044922 1c10.526 0 19 4.906 19 11v3c0 4.0153-3.6922 7.5036-9.2129 9.4238l0.21289-0.42383-10-1-10 1 0.21289 0.42383c-5.5207-1.9202-9.2129-5.4086-9.2129-9.4238v-3c0-6.094 8.474-11 19-11z" fill-rule="evenodd" opacity=".3" style="paint-order:stroke fill markers"/>
  <rect id="rect919" x="8" y="10" width="32" height="18" rx="16" ry="7" fill="#f9de81" fill-rule="evenodd" style="paint-order:stroke fill markers"/>
  <rect id="rect818" x="10" y="12" width="28" height="14" rx="14" ry="6" fill="#4e4e4e" fill-rule="evenodd" style="paint-order:stroke fill markers"/>
  <rect id="rect820" x="14" y="14" width="10" height="10" ry="5" fill="#f9de81" fill-rule="evenodd" style="paint-order:stroke fill markers"/>
  <rect id="rect820-6" x="24" y="14" width="10" height="10" ry="5" fill="#f9de81" fill-rule="evenodd" style="paint-order:stroke fill markers"/>
  <path id="path837" d="m16 19 3-3 3 3-3 3z" fill="#4e4e4e"/>
  <path id="path837-7" d="m26 19 3-3 3 3-3 3z" fill="#4e4e4e"/>
  <path id="path940" d="m15 35s1 11 9 11 9-11 9-11z" fill="#e5b871"/>
  <path id="path938" d="m16 32s-1 1.9459-1 3c0 3 3 5 3 5l6 1 6-1s3-2 3-5c0-1.0541-1-3-1-3l-8-1z" fill="#4e4e4e"/>
  <path id="path854" d="m14 32h20s0-9-10-9-10 9-10 9z" fill="#ffdd75"/>
  <path id="path860-1" d="m18 40s0 6.0193 6 6.0193 6-6.0193 6-6.0193z" fill="#f9de81"/>
  <path id="path940-6" d="m24 26-8 6s-1 1.9459-1 3c0 0.49431 0.0866 0.959 0.22266 1.3945 0.49549 2.5812 2.0677 8.0574 6.7207 9.3379 0.18312 0.05535 0.3854 0.09277 0.58594 0.13281 0.02179 0.0041 0.04254 0.0098 0.06445 0.01367 0.43167 0.08165 0.88935 0.14062 1.4062 0.14062s0.97458-0.05897 1.4062-0.14062c0.02187-0.0041 0.04279-0.0093 0.06445-0.01367 0.20054-0.04004 0.40282-0.07746 0.58594-0.13281 4.653-1.2805 6.2252-6.7567 6.7207-9.3379 0.13606-0.43554 0.22266-0.90022 0.22266-1.3945 0-1.0541-1-3-1-3zm0 1.0078 7.3203 5.916c0.0885 0.18623 0.12594 0.24502 0.25195 0.55664 0.23149 0.57246 0.42773 1.3087 0.42773 1.5195 0 0.37751-0.06603 0.73812-0.17773 1.0957-0.01116 0.03592-0.02029 0.07243-0.02734 0.10938-0.23551 1.2269-0.73656 3.1517-1.6914 4.8574s-2.3099 3.154-4.3125 3.7051c-0.0078 0.0025-0.01566 0.0051-0.02344 0.0078-0.10737 0.03245-0.28235 0.06748-0.49219 0.10938h-2e-3c-0.05005 0.0101-0.0659 0.01455-0.05078 0.01172h-2e-3c-0.39105 0.074028-0.77977 0.12306-1.2206 0.12306-0.44084 0-0.82946-0.04904-1.2207-0.12305-0.0039-6.74e-4 -0.0078-0.0013-0.01172-2e-3 0.03036 0.0054 2.37e-4 -0.0013-0.04297-0.0098l-0.0098-2e-3c-0.20435-0.04081-0.37717-0.07561-0.48242-0.10742-0.0078-0.0027-0.01559-0.0053-0.02344-0.0078-2.0026-0.55112-3.3577-1.9994-4.3125-3.7051s-1.4559-3.6306-1.6914-4.8574c-0.0071-0.03694-0.01618-0.07346-0.02734-0.10938-0.11163-0.35735-0.1777-0.71808-0.1777-1.0956 0-0.21082 0.19625-0.94707 0.42773-1.5195 0.12601-0.31162 0.16345-0.37041 0.25195-0.55664z" opacity=".25"/>
  <path id="path860" d="m16 32s0-7.0441 8-7.0441 8 7.0441 8 7.0441z" fill="#ffedb5"/>
  <path id="path854-6" d="m24 23c-10 0-10 9-10 9h1s0-7.8809 9-7.8809 9 7.8809 9 7.8809h1s0-9-10-9z" opacity=".25"/>
 </g>
</svg>
