<?xml version="1.0" encoding="UTF-8"?>
<!-- Created with Inkscape (http://www.inkscape.org/) -->
<svg id="SVGRoot" width="48px" height="48px" version="1.1" viewBox="0 0 48 48" xmlns="http://www.w3.org/2000/svg" xmlns:cc="http://creativecommons.org/ns#" xmlns:dc="http://purl.org/dc/elements/1.1/" xmlns:rdf="http://www.w3.org/1999/02/22-rdf-syntax-ns#">
 <defs id="defs815">
  <style id="style819">.cls-1{fill:none;stroke:#fff;stroke-linecap:round;stroke-linejoin:round;}</style>
  <style id="style2">.a{fill:none;stroke:#b1b5bd;stroke-linecap:round;stroke-linejoin:round;isolation:isolate;opacity:0.63;}</style>
 </defs>
 <metadata id="metadata818">
  <rdf:RDF>
   <cc:Work rdf:about="">
    <dc:format>image/svg+xml</dc:format>
    <dc:type rdf:resource="http://purl.org/dc/dcmitype/StillImage"/>
    <dc:title/>
   </cc:Work>
  </rdf:RDF>
 </metadata>
 <g id="layer1" fill-rule="evenodd">
  <rect id="rect1373-5" x="4" y="4" width="40" height="40" ry="8" fill="#4e4e4e" style="paint-order:stroke fill markers"/>
  <path id="rect817" d="m12 4c-4.432 0-8 3.568-8 8v24c0 4.432 3.568 8 8 8h24c4.432 0 8-3.568 8-8v-24c0-4.432-3.568-8-8-8h-24zm0 1h24c3.878 0 7 3.122 7 7v24c0 3.878-3.122 7-7 7h-24c-3.878 0-7-3.122-7-7v-24c0-3.878 3.122-7 7-7z" opacity=".4" style="paint-order:stroke fill markers"/>
  <path id="rect876-2" d="m24 10v16c0 2.216-1.784 4-4 4s-4-1.784-4-4 1.784-4 4-4v-4c-4.432 0-8 3.568-8 8s3.568 8 8 8 8-3.568 8-8v-9.6289c1.2606 1.8685 3.1864 3.6289 6 3.6289v-4c-3 0-6-6-6-6z" fill="#96dfd3" style="paint-order:normal"/>
  <path id="rect876-0" d="m28 14v16c0 2.216-1.784 4-4 4s-4-1.784-4-4 1.784-4 4-4v-4c-4.432 0-8 3.568-8 8s3.568 8 8 8 8-3.568 8-8v-9.6289c1.2606 1.8685 3.1864 3.6289 6 3.6289v-4c-3 0-6-6-6-6z" fill="#f97263" style="paint-order:normal"/>
  <path id="rect876" d="m26 12v16c0 2.216-1.784 4-4 4s-4-1.784-4-4 1.784-4 4-4v-4c-4.432 0-8 3.568-8 8s3.568 8 8 8 8-3.568 8-8v-9.6289c1.2606 1.8685 3.1864 3.6289 6 3.6289v-4c-3 0-6-6-6-6z" fill="#fff" style="paint-order:normal"/>
 </g>
</svg>
