<?xml version="1.0" encoding="UTF-8"?>
<!-- Created with Inkscape (http://www.inkscape.org/) -->
<svg id="SVGRoot" width="48px" height="48px" version="1.1" viewBox="0 0 48 48" xmlns="http://www.w3.org/2000/svg" xmlns:cc="http://creativecommons.org/ns#" xmlns:dc="http://purl.org/dc/elements/1.1/" xmlns:rdf="http://www.w3.org/1999/02/22-rdf-syntax-ns#">
 <defs id="defs815">
  <style id="style819">.cls-1{fill:none;stroke:#fff;stroke-linecap:round;stroke-linejoin:round;}</style>
 </defs>
 <metadata id="metadata818">
  <rdf:RDF>
   <cc:Work rdf:about="">
    <dc:format>image/svg+xml</dc:format>
    <dc:type rdf:resource="http://purl.org/dc/dcmitype/StillImage"/>
    <dc:title/>
   </cc:Work>
  </rdf:RDF>
 </metadata>
 <g id="layer1">
  <rect id="rect1373" x="4" y="4" width="40" height="40" ry="8" fill="#f6a559" fill-rule="evenodd" style="paint-order:stroke fill markers"/>
  <path id="rect817" d="m12 4c-4.432 0-8 3.568-8 8v24c0 4.432 3.568 8 8 8h24c4.432 0 8-3.568 8-8v-24c0-4.432-3.568-8-8-8h-24zm0 1h24c3.878 0 7 3.122 7 7v24c0 3.878-3.122 7-7 7h-24c-3.878 0-7-3.122-7-7v-24c0-3.878 3.122-7 7-7z" fill-rule="evenodd" opacity=".3" style="paint-order:stroke fill markers"/>
  <path id="path897-9" d="m34.506 10.035c0.30391-0.02763 0.65808 0.06237 1.0117 0.41602l1.8848 1.8848c0.94305 0.94305 0 1.8867 0 1.8867l-14.145 14.146-5.6582 3.7715-1.8867 3.7715-5.6582 1.8867 1.8867-5.6582 3.7715-1.8867 3.7715-5.6582 14.146-14.145s0.36848-0.36997 0.875-0.41602z" opacity=".25" stroke="#000" stroke-linecap="round" stroke-linejoin="round" stroke-width="2"/>
  <path id="path897" d="m23.257 28.368 14.146-14.146s0.94305-0.94305 0-1.8861l-1.8861-1.8861c-0.94305-0.94305-1.8861 0-1.8861 0l-14.146 14.146 0.94305 2.8292z" fill="#ffdd75"/>
  <path id="path895" d="m17.599 32.14 5.6583-3.7722-3.7722-3.7722-3.7722 5.6583v1.8861z" fill="#4e4e4e"/>
  <path id="path893" d="m10.055 37.799 5.6583-1.8861 1.8861-3.7722-1.8861-1.8861-3.7722 1.8861z" fill="#ffdd75"/>
  <rect id="rect899" transform="matrix(-.70711 -.70711 -.70711 .70711 0 0)" x="-35.171" y="12.95" width="2.6673" height="2.6673" ry="1.3337" fill-rule="evenodd" opacity=".25" style="paint-order:stroke fill markers"/>
 </g>
</svg>
