<?xml version="1.0" encoding="UTF-8"?>
<!-- Created with Inkscape (http://www.inkscape.org/) -->
<svg id="SVGRoot" width="48px" height="48px" version="1.1" viewBox="0 0 48 48" xmlns="http://www.w3.org/2000/svg" xmlns:cc="http://creativecommons.org/ns#" xmlns:dc="http://purl.org/dc/elements/1.1/" xmlns:rdf="http://www.w3.org/1999/02/22-rdf-syntax-ns#">
 <defs id="defs815">
  <style id="style819">.cls-1{fill:none;stroke:#fff;stroke-linecap:round;stroke-linejoin:round;}</style>
 </defs>
 <metadata id="metadata818">
  <rdf:RDF>
   <cc:Work rdf:about="">
    <dc:format>image/svg+xml</dc:format>
    <dc:type rdf:resource="http://purl.org/dc/dcmitype/StillImage"/>
    <dc:title/>
   </cc:Work>
  </rdf:RDF>
 </metadata>
 <g id="layer1" fill-rule="evenodd">
  <rect id="rect1373" x="4" y="4" width="40" height="40" ry="8" fill="#4db3a6" style="paint-order:stroke fill markers"/>
  <path id="rect817" d="m12 4c-4.432 0-8 3.568-8 8v24c0 4.432 3.568 8 8 8h24c4.432 0 8-3.568 8-8v-24c0-4.432-3.568-8-8-8h-24zm0 1h24c3.878 0 7 3.122 7 7v24c0 3.878-3.122 7-7 7h-24c-3.878 0-7-3.122-7-7v-24c0-3.878 3.122-7 7-7z" opacity=".3" style="paint-order:stroke fill markers"/>
  <path id="rect833" d="m13.08 16.035c-0.91406-0.024606-1.6653 0.34173-1.9219 1.2871-0.1755 0.64656 0.051078 1.9808-0.1582 2.6172-0.18928 0.57561-0.97234 1.1367-1.7227 1.1367-0.75031 0-1.1645-0.49824-1.2773-1.0762v15c0 2.77 2.23 5 5 5h22c2.77 0 5-2.23 5-5v-6c-0.98166 0-0.94291-0.62681-0.95117-1.1602-0.0048-0.31067-0.001701-1.3146 0.011719-1.625 0.05266-1.2141-0.50812-2.3494-1.6777-2.2793-1.9766 0.11851-1.4777 2.9619-1.6328 5.3672-0.12531 1.9435 0.12088 2.7435 0.22656 4.2168 0.06263 1.1316-0.61445 1.6015-1.2734 1.5547-0.6078-0.04319-0.76567-0.85589-0.74414-1.4648 0.04462-0.65307 0.42166-1.3124 0.42188-1.6895 4.31e-4 -1.6223-1.6078-3.9799-3.5762-3.9707-1.5349 0.0072-2.5783 2.1044-2.9277 3.4492-0.13437 0.51713 0.10729 1.332 0.050781 1.8633-0.07653 0.71913-0.42968 1.2514-0.99414 1.2344-0.54058-0.01608-0.89767-0.80329-0.84766-1.3418 0.20458-2.2024 0.2145-4.0441 0.17383-5.5586-0.0943-3.5121-1.4843-6.4724-4.3516-6.4473-3.9183 0.034359-4.6278 4.3054-4.8672 7.666-0.1568 2.2015 0.6073 3.6051 0.86914 6.5801 0.06231 0.70785-0.38539 1.8083-1.0957 1.8281-0.68701 0.01915-0.91678-1.0208-0.87891-1.707 0.18221-3.3018 0.10725-7.4313 0.03125-11.393-0.06251-3.2586 0.50199-7.2879-1.9297-7.9395-0.32833-0.087975-0.65234-0.14024-0.95703-0.14844z" fill="#fff" style="paint-order:stroke fill markers"/>
 </g>
</svg>
