<?xml version="1.0" encoding="UTF-8"?>
<!-- Created with Inkscape (http://www.inkscape.org/) -->
<svg id="SVGRoot" width="48px" height="48px" version="1.1" viewBox="0 0 48 48" xml:space="preserve" xmlns="http://www.w3.org/2000/svg" xmlns:cc="http://creativecommons.org/ns#" xmlns:dc="http://purl.org/dc/elements/1.1/" xmlns:rdf="http://www.w3.org/1999/02/22-rdf-syntax-ns#" xmlns:xlink="http://www.w3.org/1999/xlink"><defs><linearGradient id="linearGradient1"><stop stop-color="#fff" offset="0"/><stop stop-color="#fff" stop-opacity="0" offset="1"/></linearGradient><style>.cls-1{fill:none;stroke:#fff;stroke-linecap:round;stroke-linejoin:round;}</style><linearGradient id="linearGradient2" x1="22" x2="29" y1="16" y2="21" gradientTransform="translate(5,1)" gradientUnits="userSpaceOnUse" xlink:href="#linearGradient1"/><linearGradient id="linearGradient3" x1="22" x2="29" y1="16" y2="19" gradientTransform="translate(-43,1)" gradientUnits="userSpaceOnUse" xlink:href="#linearGradient1"/><linearGradient id="linearGradient4" x1="22" x2="28" y1="16" y2="21" gradientTransform="translate(-43,-47)" gradientUnits="userSpaceOnUse" xlink:href="#linearGradient1"/><linearGradient id="linearGradient5" x1="22" x2="30" y1="16" y2="19" gradientTransform="translate(5,-47)" gradientUnits="userSpaceOnUse" xlink:href="#linearGradient1"/><style>.cls-1{fill:none;stroke:#fff;stroke-linecap:round;stroke-linejoin:round;}</style></defs><metadata><rdf:RDF><cc:Work rdf:about=""><dc:format>image/svg+xml</dc:format><dc:type rdf:resource="http://purl.org/dc/dcmitype/StillImage"/></cc:Work></rdf:RDF></metadata><rect x="4" y="4" width="40" height="40" ry="8" fill="#7285ec" fill-rule="evenodd" style="paint-order:stroke fill markers"/><path d="m12 4c-4.432 0-8 3.568-8 8v24c0 4.432 3.568 8 8 8h24c4.432 0 8-3.568 8-8v-24c0-4.432-3.568-8-8-8zm0 1h24c3.878 0 7 3.122 7 7v24c0 3.878-3.122 7-7 7h-24c-3.878 0-7-3.122-7-7v-24c0-3.878 3.122-7 7-7z" fill-rule="evenodd" opacity=".3" style="paint-order:stroke fill markers"/><g stroke-linecap="round" stroke-linejoin="round" stroke-width="2"><rect x="21" y="11" width="16" height="16" ry="8" fill="url(#linearGradient2)" style="paint-order:stroke fill markers"/><rect transform="rotate(-90)" x="-27" y="11" width="16" height="16" ry="8" fill="url(#linearGradient3)" style="paint-order:stroke fill markers"/><rect transform="scale(-1)" x="-27" y="-37" width="16" height="16" ry="8" fill="url(#linearGradient4)" style="paint-order:stroke fill markers"/><rect transform="rotate(90)" x="21" y="-37" width="16" height="16" ry="8" fill="url(#linearGradient5)" style="paint-order:stroke fill markers"/></g></svg>
