<?xml version="1.0" encoding="UTF-8"?>
<!-- Created with Inkscape (http://www.inkscape.org/) -->
<svg id="SVGRoot" width="48px" height="48px" version="1.1" viewBox="0 0 48 48" xmlns="http://www.w3.org/2000/svg" xmlns:cc="http://creativecommons.org/ns#" xmlns:dc="http://purl.org/dc/elements/1.1/" xmlns:rdf="http://www.w3.org/1999/02/22-rdf-syntax-ns#">
 <defs id="defs815">
  <style id="style819">.cls-1{fill:none;stroke:#fff;stroke-linecap:round;stroke-linejoin:round;}</style>
  <style id="style819-6">.cls-1{fill:none;stroke:#fff;stroke-linecap:round;stroke-linejoin:round;}</style>
  <style id="current-color-scheme" type="text/css">.ColorScheme-Text {
        color:#31363b;
      }
      .ColorScheme-Accent {
        color:#3daee9;
      }</style>
 </defs>
 <metadata id="metadata818">
  <rdf:RDF>
   <cc:Work rdf:about="">
    <dc:format>image/svg+xml</dc:format>
    <dc:type rdf:resource="http://purl.org/dc/dcmitype/StillImage"/>
    <dc:title/>
   </cc:Work>
  </rdf:RDF>
 </metadata>
 <g id="layer1">
  <rect id="rect1373-5" x="4" y="4" width="40" height="40" ry="8" fill="#efefef" fill-rule="evenodd" style="paint-order:stroke fill markers"/>
  <path id="rect817" d="m12 4c-4.432 0-8 3.568-8 8v24c0 4.432 3.568 8 8 8h24c4.432 0 8-3.568 8-8v-24c0-4.432-3.568-8-8-8h-24zm0 1h24c3.878 0 7 3.122 7 7v24c0 3.878-3.122 7-7 7h-24c-3.878 0-7-3.122-7-7v-24c0-3.878 3.122-7 7-7z" fill-rule="evenodd" opacity=".3" style="paint-order:stroke fill markers"/>
  <path id="path828" d="m27.528 11.955c-2.3445 0-3.172 1.1436-3.4673 5.8612-0.29528 4.7176-0.10188 8.1976-0.10188 8.1976l-5.9106 0.06053s3.2948-4.124 3.7618-7.5096c0.30442-2.2067 0.58612-6.4473-1.7584-6.4473-1.1052 0-2.3445 1.1722-2.3445 2.3445 0 0.80554 0.70468 1.5476 0.58612 2.3445-0.33535 2.2536-2.1679 4.4486-3.5167 6.2849-1.3927 1.8961-3.6599 5.1429-3.6599 6.3152 0 0.97687 0.58612 1.7584 1.7584 1.7584 0.70443 0 1.1722-1.1746 1.7584-1.1722h7.3472v2.4272c0 0.58612-1.1722 0.58612-1.1722 0.58612h-1.1722c-0.58612 0-1.5959 0.46832-1.5959 1.5354 0 0.9763 1.0098 1.4446 1.5959 1.4446h5.1732c1.1722 0 1.1722-1.1722 1.1722-1.1722v-3.5167c0-1.1722 1.951-1.2393 1.951-2.3445 0-1.1722-1.5768-1.1722-1.5768-1.7584 0-1.1722 0.58612-1.1722 0.58612-1.1722s9.1771 1.1722 9.1771-6.4473-4.5633-7.6195-8.591-7.6195zm1.6565 1.7584s2.8317 0 2.8317 5.8612c0 4.6889-2.8317 4.6889-2.8317 4.6889s-1.1722 0-1.1722-1.1722v-8.2057c0-1.1722 1.1722-1.1722 1.1722-1.1722z" fill="#729dec" stroke-width=".14653"/>
 </g>
</svg>
