<?xml version="1.0" encoding="UTF-8"?>
<!-- Created with Inkscape (http://www.inkscape.org/) -->
<svg id="SVGRoot" width="48px" height="48px" version="1.1" viewBox="0 0 48 48" xmlns="http://www.w3.org/2000/svg" xmlns:cc="http://creativecommons.org/ns#" xmlns:dc="http://purl.org/dc/elements/1.1/" xmlns:rdf="http://www.w3.org/1999/02/22-rdf-syntax-ns#" xmlns:xlink="http://www.w3.org/1999/xlink">
 <defs id="defs815">
  <style id="style819">.cls-1{fill:none;stroke:#fff;stroke-linecap:round;stroke-linejoin:round;}</style>
  <style id="style819-1">.cls-1{fill:none;stroke:#fff;stroke-linecap:round;stroke-linejoin:round;}</style>
 </defs>
 <metadata id="metadata818">
  <rdf:RDF>
   <cc:Work rdf:about="">
    <dc:format>image/svg+xml</dc:format>
    <dc:type rdf:resource="http://purl.org/dc/dcmitype/StillImage"/>
    <dc:title/>
   </cc:Work>
  </rdf:RDF>
 </metadata>
 <g id="layer1" fill-rule="evenodd">
  <rect id="rect1373-5" x="4" y="4" width="40" height="40" ry="8" fill="#c2c2b7" style="paint-order:stroke fill markers"/>
  <path id="rect816" d="m20 4v22c0 1.108 0.892 2 2 2h4c1.108 0 2-0.892 2-2v-22z" fill="#4e4e4e" style="paint-order:normal"/>
  <path id="rect825" d="m24 4v2h2v-2h-2zm0 2h-2v2h2v-2zm0 2v2h2v-2h-2zm0 2h-2v2h2v-2zm0 2v2h2v-2h-2zm0 2h-2v2h2v-2zm0 2v2h2v-2h-2zm0 2h-2v2h2v-2zm0 2v2h2v-2h-2zm0 2h-2v2h2v-2zm0 2v2h1 1v-1-1h-2z" fill="#808080" style="paint-order:normal"/>
  <rect id="rect859" x="20" y="6" width="8" height="12" ry="2" fill="#efefef" style="paint-order:normal"/>
  <path id="rect857" d="m22 4v1 1 5c0 0.554 0.446 1 1 1h2c0.554 0 1-0.446 1-1v-5-1-1h-1-2-1z" fill="#efefef" style="paint-order:normal"/>
  <rect id="rect861" x="22" y="14" width="4" height="2" ry=".92781" fill="#4e4e4e" style="paint-order:normal"/>
  <path id="rect868" d="m22 5v6c0 0.554 0.446 1 1 1h2c0.554 0 1-0.446 1-1v-6h-1v0.5 1.5 3.5c0 0.277-0.223 0.5-0.5 0.5h-1c-0.277 0-0.5-0.223-0.5-0.5v-3.5-1.5-0.5h-1z" opacity=".25" style="paint-order:normal"/>
  <path id="rect817" d="m12 4c-4.432 0-8 3.568-8 8v24c0 4.432 3.568 8 8 8h24c4.432 0 8-3.568 8-8v-24c0-4.432-3.568-8-8-8h-24zm0 1h24c3.878 0 7 3.122 7 7v24c0 3.878-3.122 7-7 7h-24c-3.878 0-7-3.122-7-7v-24c0-3.878 3.122-7 7-7z" opacity=".3" style="paint-order:stroke fill markers"/>
 </g>
</svg>
