<?xml version="1.0" encoding="UTF-8"?>
<!-- Created with Inkscape (http://www.inkscape.org/) -->
<svg id="SVGRoot" width="48px" height="48px" version="1.1" viewBox="0 0 48 48" xmlns="http://www.w3.org/2000/svg" xmlns:cc="http://creativecommons.org/ns#" xmlns:dc="http://purl.org/dc/elements/1.1/" xmlns:rdf="http://www.w3.org/1999/02/22-rdf-syntax-ns#">
 <defs id="defs815">
  <style id="style819">.cls-1{fill:none;stroke:#fff;stroke-linecap:round;stroke-linejoin:round;}</style>
 </defs>
 <metadata id="metadata818">
  <rdf:RDF>
   <cc:Work rdf:about="">
    <dc:format>image/svg+xml</dc:format>
    <dc:type rdf:resource="http://purl.org/dc/dcmitype/StillImage"/>
    <dc:title/>
   </cc:Work>
  </rdf:RDF>
 </metadata>
 <g id="layer1">
  <rect id="rect1373" transform="scale(-1,1)" x="-44" y="4" width="40" height="40" ry="8" fill="#729dec" fill-rule="evenodd" style="paint-order:stroke fill markers"/>
  <path id="path874" d="m12 6c-3.324 0-6 2.676-6 6v9l10 10v5c0 5 6 5 6 5v1h14c3.324 0 6-2.676 6-6v-0.64844c-0.88464-0.78406-2.1576-1.3516-4-1.3516h-6v-6s0-4-4-4h-13v-3h3c4 0 4-4 4-4v-7h7c3 0 3-3 3-3v-1h-20z" opacity=".25"/>
  <path id="rect856-4-9-9-4" d="m30 4c-8.864 0-16 7.136-16 16s7.136 16 16 16c6.0424 0 11.277-3.3194 14-8.2383v3.5684c-3.2947 4.0714-8.3309 6.6699-14 6.6699-9.972 0-18-8.028-18-18 0-6.9926 3.9547-13.017 9.752-16z" fill="#fff" fill-rule="evenodd" opacity=".1" style="paint-order:normal"/>
  <path id="rect817" d="m12 4c-4.432 0-8 3.568-8 8v24c0 4.432 3.568 8 8 8h24c4.432 0 8-3.568 8-8v-24c0-4.432-3.568-8-8-8h-24zm0 1h24c3.878 0 7 3.122 7 7v24c0 3.878-3.122 7-7 7h-24c-3.878 0-7-3.122-7-7v-24c0-3.878 3.122-7 7-7z" fill-rule="evenodd" opacity=".3" style="paint-order:stroke fill markers"/>
  <path id="rect856-4-9-3" d="m30 8c6.648 0 12 5.352 12 12s-5.352 12-12 12-12-5.352-12-12 5.352-12 12-12zm0 2c-5.54 0-10 4.46-10 10s4.46 10 10 10 10-4.46 10-10-4.46-10-10-10z" fill="#fff" fill-rule="evenodd" opacity=".3" style="paint-order:normal"/>
  <path id="rect856-4" d="m30 12c4.432 0 8 3.568 8 8s-3.568 8-8 8-8-3.568-8-8 3.568-8 8-8zm0 4c-2.216 0-4 1.784-4 4s1.784 4 4 4 4-1.784 4-4-1.784-4-4-4z" fill="#fff" fill-rule="evenodd" opacity=".5" style="paint-order:normal"/>
  <path id="path852" d="m30.059 18.002c0.48451 0.01402 0.94744 0.20349 1.3027 0.5332l14 13c1.3303 1.2372 0.45537 3.464-1.3613 3.4648h-4.4004l3.9551 6.4277c2.2042 3.4314-3.0392 6.6584-5.1094 3.1445l-4.0664-6.6074-2.8613 3.3359c-1.2085 1.4071-3.5153 0.55404-3.5176-1.3008v-20c7.33e-4 -1.127 0.93203-2.031 2.0586-1.998z" color="#000000" color-rendering="auto" dominant-baseline="auto" fill="#efefef" image-rendering="auto" shape-rendering="auto" solid-color="#000000" style="font-feature-settings:normal;font-variant-alternates:normal;font-variant-caps:normal;font-variant-ligatures:normal;font-variant-numeric:normal;font-variant-position:normal;isolation:auto;mix-blend-mode:normal;shape-padding:0;text-decoration-color:#000000;text-decoration-line:none;text-decoration-style:solid;text-indent:0;text-orientation:mixed;text-transform:none;white-space:normal"/>
  <path id="path852-4" d="m30.059 18.002c0.48451 0.01402 0.94744 0.20349 1.3027 0.5332l14 13c1.3303 1.2372 0.45537 3.464-1.3613 3.4648h-4.4004l3.9551 6.4277c2.2042 3.4314-3.0392 6.6584-5.1094 3.1445l-4.0664-6.6074-2.8613 3.3359c-1.2085 1.4071-3.5153 0.55404-3.5176-1.3008v-20c7.33e-4 -1.127 0.93203-2.031 2.0586-1.998zm-0.0293 1c-0.57627-0.016831-1.0289 0.42153-1.0293 0.99805v20c0.0014 0.51167 0.27501 0.79601 0.65234 0.93555 0.37787 0.13973 0.77316 0.10208 1.1074-0.28711l3.752-4.375 4.791 7.7832 0.0039 0.0078c0.38984 0.66175 0.82805 0.91088 1.3008 0.99806 0.47273 0.08718 1.0141-0.02953 1.4707-0.31055 0.45661-0.28102 0.80428-0.71057 0.93945-1.1719 0.13517-0.46131 0.11041-0.96514-0.30469-1.6113l-0.0039-0.0078-4.8984-7.961h6.1895c0.49984-2.2e-4 0.78495-0.26639 0.92969-0.63477 0.14474-0.36838 0.11601-0.75724-0.25-1.0977l-13.998-13c-0.17785-0.16504-0.40981-0.25861-0.65234-0.26562z" color="#000000" color-rendering="auto" dominant-baseline="auto" image-rendering="auto" opacity=".25" shape-rendering="auto" solid-color="#000000" style="font-feature-settings:normal;font-variant-alternates:normal;font-variant-caps:normal;font-variant-ligatures:normal;font-variant-numeric:normal;font-variant-position:normal;isolation:auto;mix-blend-mode:normal;shape-padding:0;text-decoration-color:#000000;text-decoration-line:none;text-decoration-style:solid;text-indent:0;text-orientation:mixed;text-transform:none;white-space:normal"/>
 </g>
</svg>
