<?xml version="1.0" encoding="UTF-8"?>
<!-- Created with Inkscape (http://www.inkscape.org/) -->
<svg id="SVGRoot" width="48px" height="48px" version="1.1" viewBox="0 0 48 48" xmlns="http://www.w3.org/2000/svg" xmlns:cc="http://creativecommons.org/ns#" xmlns:dc="http://purl.org/dc/elements/1.1/" xmlns:rdf="http://www.w3.org/1999/02/22-rdf-syntax-ns#" xmlns:xlink="http://www.w3.org/1999/xlink">
 <defs id="defs815">
  <style id="style819">.cls-1{fill:none;stroke:#fff;stroke-linecap:round;stroke-linejoin:round;}</style>
  <style id="style819-4">.cls-1{fill:none;stroke:#fff;stroke-linecap:round;stroke-linejoin:round;}</style>
  <style id="style819-5">.cls-1{fill:none;stroke:#fff;stroke-linecap:round;stroke-linejoin:round;}</style>
  <style id="style2">.a{fill:none;stroke:#b1b5bd;stroke-linecap:round;stroke-linejoin:round;isolation:isolate;opacity:0.63;}</style>
  <style id="style819-1">.cls-1{fill:none;stroke:#fff;stroke-linecap:round;stroke-linejoin:round;}</style>
 </defs>
 <metadata id="metadata818">
  <rdf:RDF>
   <cc:Work rdf:about="">
    <dc:format>image/svg+xml</dc:format>
    <dc:type rdf:resource="http://purl.org/dc/dcmitype/StillImage"/>
    <dc:title/>
   </cc:Work>
  </rdf:RDF>
 </metadata>
 <g id="layer1">
  <rect id="rect1373-5" x="4" y="4" width="40" height="40" ry="8" fill="#efefef" fill-rule="evenodd" style="paint-order:stroke fill markers"/>
  <path id="rect817" d="m12 4c-4.432 0-8 3.568-8 8v24c0 4.432 3.568 8 8 8h24c4.432 0 8-3.568 8-8v-24c0-4.432-3.568-8-8-8h-24zm0 1h24c3.878 0 7 3.122 7 7v24c0 3.878-3.122 7-7 7h-24c-3.878 0-7-3.122-7-7v-24c0-3.878 3.122-7 7-7z" fill-rule="evenodd" opacity=".3" style="paint-order:stroke fill markers"/>
  <path id="rect825" d="m12 10c-1.108 0-2 0.892-2 2v24c0 1.108 0.892 2 2 2h24c1.108 0 2-0.892 2-2v-24c0-1.108-0.892-2-2-2zm0 1h24c0.554 0 1 0.446 1 1v24c0 0.554-0.446 1-1 1h-24c-0.554 0-1-0.446-1-1v-24c0-0.554 0.446-1 1-1z" fill-rule="evenodd" opacity=".25" style="paint-order:stroke fill markers"/>
  <path id="path886" d="m24 14h2l4 5h-2z" fill="#4e4e4e"/>
  <path id="path888" d="m27.361 20.067c-2.9376 0-4.4199 0.98633-4.4199 0.98633v2.5762s1.5975-1.3809 4.2422-1.3809c4.817 0 4.3633 2.7925 4.3633 2.7925h-4.8984c-3.309 0-4.7426 2.3363-4.7188 4.541 0.02488 2.3011 1.0316 4.4755 5.0093 4.4994 4.0024 0.02403 5.0082-2.4057 5.0082-2.4057v1.8691h2.0488v-8.3691s0.05496-5.1089-6.6348-5.1089zm0.2168 7.0386h4.0957s0.05247 0.47254 0.05247 2.0283c0 1.4443-2.493 2.9804-4.6326 2.9873-1.2588 0.0041-2.9036-1.0601-2.9824-2.3164-0.09863-1.5711 1.2109-2.6992 3.4668-2.6992z" fill="#4e4e4e"/>
 </g>
</svg>
