<?xml version="1.0" encoding="UTF-8"?>
<!-- Created with Inkscape (http://www.inkscape.org/) -->
<svg id="SVGRoot" width="48px" height="48px" version="1.1" viewBox="0 0 48 48" xmlns="http://www.w3.org/2000/svg" xmlns:cc="http://creativecommons.org/ns#" xmlns:dc="http://purl.org/dc/elements/1.1/" xmlns:rdf="http://www.w3.org/1999/02/22-rdf-syntax-ns#">
 <defs id="defs815">
  <style id="style819">.cls-1{fill:none;stroke:#fff;stroke-linecap:round;stroke-linejoin:round;}</style>
  <style id="style819-1">.cls-1{fill:none;stroke:#fff;stroke-linecap:round;stroke-linejoin:round;}</style>
  <style id="style819-7">.cls-1{fill:none;stroke:#fff;stroke-linecap:round;stroke-linejoin:round;}</style>
  <style id="style2">.a{fill:none;stroke:#b1b5bd;stroke-linecap:round;stroke-linejoin:round;isolation:isolate;opacity:0.63;}</style>
 </defs>
 <metadata id="metadata818">
  <rdf:RDF>
   <cc:Work rdf:about="">
    <dc:format>image/svg+xml</dc:format>
    <dc:type rdf:resource="http://purl.org/dc/dcmitype/StillImage"/>
    <dc:title/>
   </cc:Work>
  </rdf:RDF>
 </metadata>
 <g id="layer1">
  <rect id="rect1373-5" x="4" y="4" width="40" height="40" ry="8" fill="#e5b871" fill-rule="evenodd" style="paint-order:stroke fill markers"/>
  <path id="rect817" d="m12 4c-4.432 0-8 3.568-8 8v24c0 4.432 3.568 8 8 8h24c4.432 0 8-3.568 8-8v-24c0-4.432-3.568-8-8-8h-24zm0 1h24c3.878 0 7 3.122 7 7v24c0 3.878-3.122 7-7 7h-24c-3.878 0-7-3.122-7-7v-24c0-3.878 3.122-7 7-7z" fill-rule="evenodd" opacity=".3" style="paint-order:stroke fill markers"/>
  <path id="rect875" d="m12 6c-3.324 0-6 2.676-6 6v24c0 3.324 2.676 6 6 6v-2-32-2z" fill="#8b5628" fill-rule="evenodd" style="paint-order:stroke fill markers"/>
  <path id="path822" d="m21.344 15.244-5.0449 11.803c-0.43716 1.0365-0.83572 1.7241-1.1953 2.0625-0.17627 0.16922-0.56278 0.30635-1.1621 0.41211v0.39062h4.5156v-0.39062c-0.69099-0.04936-1.142-0.15424-1.3535-0.31641-0.20448-0.16922-0.30664-0.36345-0.30664-0.58203 0-0.27498 0.11964-0.69103 0.35938-1.248l0.97266-2.2637h5.5527l0.86719 2.0625c0.28204 0.66984 0.42383 1.1605 0.42383 1.4707 0 0.23268-0.10216 0.42963-0.30664 0.5918-0.19743 0.16217-0.58318 0.25695-1.1543 0.28516v0.39062h5.6602v-0.39062c-0.58522-0.03525-1.0436-0.19453-1.375-0.47656-0.32434-0.28909-0.68794-0.91217-1.0898-1.8711l-4.9922-11.93zm-0.39062 3.2891 2.4316 5.7949h-4.9277zm13.156 1.4062c-1.1211 0-1.9908 0.25406-2.6113 0.76172-0.62048 0.50766-0.93164 1.0635-0.93164 1.6699 0 0.31729 0.08197 0.56863 0.24414 0.75195 0.16922 0.18332 0.38365 0.27539 0.64453 0.27539 0.26793-1e-6 0.48431-0.08935 0.64648-0.26563 0.16922-0.17627 0.25195-0.42566 0.25195-0.75l-0.01953-0.61328c0-0.31024 0.13246-0.58644 0.40039-0.82617 0.26088-0.23973 0.61439-0.35938 1.0586-0.35938 0.58522 0 1.0288 0.17947 1.332 0.53906 0.31024 0.3596 0.46484 1.0243 0.46484 1.9902v0.37891c-1.664 0.60638-2.855 1.1219-3.5742 1.5449-0.71214 0.42305-1.2129 0.87406-1.502 1.3535-0.21153 0.34549-0.31641 0.75415-0.31641 1.2266 0 0.74739 0.21443 1.3503 0.64453 1.8086 0.43716 0.45831 0.99032 0.6875 1.6602 0.6875 0.4301 0 0.83605-0.0874 1.2168-0.26367 0.25383-0.11986 0.87692-0.56348 1.8711-1.332 7e-3 0.57817 0.11388 0.98683 0.31836 1.2266 0.20448 0.23973 0.47873 0.35938 0.82422 0.35938 0.71919 0 1.474-0.5283 2.2637-1.5859v-0.59375c-0.42305 0.42305-0.7074 0.68178-0.85547 0.77344-0.08461 0.04935-0.18406 0.07422-0.29688 0.07422-0.10576 0-0.20055-0.03691-0.28516-0.10742-0.07756-0.07051-0.13467-0.20763-0.16992-0.41211-0.03525-0.21153-0.05273-0.77946-0.05273-1.7031v-3.2891c-1e-6 -0.93777-0.06254-1.5581-0.18945-1.8613-0.19742-0.46536-0.50587-0.80681-0.92188-1.0254-0.54997-0.28909-1.255-0.43359-2.1152-0.43359zm1.4805 4.1992v3.6914c-0.87431 0.70509-1.5794 1.0566-2.1152 1.0566-0.39485 0-0.74369-0.1647-1.0469-0.49609-0.30319-0.33844-0.45312-0.76187-0.45312-1.2695 0-0.4019 0.11964-0.77289 0.35938-1.1113 0.23973-0.33844 0.63829-0.66242 1.1953-0.97266 0.31024-0.17627 0.99586-0.47538 2.0605-0.89844z" fill="#8b5628"/>
 </g>
</svg>
