<?xml version="1.0" encoding="UTF-8"?>
<!-- Created with Inkscape (http://www.inkscape.org/) -->
<svg id="SVGRoot" width="48px" height="48px" version="1.1" viewBox="0 0 48 48" xml:space="preserve" xmlns="http://www.w3.org/2000/svg" xmlns:cc="http://creativecommons.org/ns#" xmlns:dc="http://purl.org/dc/elements/1.1/" xmlns:rdf="http://www.w3.org/1999/02/22-rdf-syntax-ns#"><defs><style>.cls-1{fill:none;stroke:#fff;stroke-linecap:round;stroke-linejoin:round;}</style><style>.cls-1{fill:none;stroke:#fff;stroke-linecap:round;stroke-linejoin:round;}</style><style>.cls-1{fill:none;stroke:#fff;stroke-linecap:round;stroke-linejoin:round;}</style><style>.cls-1{fill:none;stroke:#fff;stroke-linecap:round;stroke-linejoin:round;}</style><style>.a{fill:none;stroke:#b1b5bd;stroke-linecap:round;stroke-linejoin:round;isolation:isolate;opacity:0.63;}</style><style>.cls-1{fill:none;stroke:#fff;stroke-linecap:round;stroke-linejoin:round;}</style></defs><metadata><rdf:RDF><cc:Work rdf:about=""><dc:format>image/svg+xml</dc:format><dc:type rdf:resource="http://purl.org/dc/dcmitype/StillImage"/></cc:Work></rdf:RDF></metadata><g stroke-linecap="round" stroke-linejoin="round" stroke-width="2"><path d="m24 24-20-13v26z" fill="#729dec" style="paint-order:stroke fill markers"/><path d="m24 24 20-13v26z" fill="#f68d59" style="paint-order:stroke fill markers"/><path d="m12 4c-4.432 0-8 3.568-8 8l20 12v-20h-12z" fill="#b072dd" style="paint-order:stroke fill markers"/><path d="m24 24-20 12c0 4.432 3.568 8 8 8h12v-20z" fill="#96d56b" style="paint-order:stroke fill markers"/><path d="m24 4v20l20-12c0-4.432-3.568-8-8-8h-12z" fill="#da5a4c" style="paint-order:stroke fill markers"/><path d="m24 24v20h12c4.432 0 8-3.568 8-8l-20-12z" fill="#ffdd75" style="paint-order:stroke fill markers"/></g><g fill-rule="evenodd"><path d="m24 10c-7.756 0-14 6.244-14 14s6.244 14 14 14 14-6.244 14-14-6.244-14-14-14zm0 1c7.202 0 13 5.798 13 13s-5.798 13-13 13-13-5.798-13-13 5.798-13 13-13z" opacity=".25" style="paint-order:stroke fill markers"/><path d="m12 4c-4.432 0-8 3.568-8 8v24c0 4.432 3.568 8 8 8h24c4.432 0 8-3.568 8-8v-24c0-4.432-3.568-8-8-8zm0 1h24c3.878 0 7 3.122 7 7v24c0 3.878-3.122 7-7 7h-24c-3.878 0-7-3.122-7-7v-24c0-3.878 3.122-7 7-7z" opacity=".3" style="paint-order:stroke fill markers"/><rect x="10" y="10" width="28" height="28" ry="14" fill="#fff" style="paint-order:stroke fill markers"/></g><path d="m21 19v10l9-5z" fill="#729dec" stroke="#729dec" stroke-linecap="round" stroke-linejoin="round" stroke-width="2"/></svg>
