<?xml version="1.0" encoding="UTF-8"?>
<!-- Created with Inkscape (http://www.inkscape.org/) -->
<svg id="SVGRoot" width="48px" height="48px" version="1.1" viewBox="0 0 48 48" xml:space="preserve" xmlns="http://www.w3.org/2000/svg" xmlns:cc="http://creativecommons.org/ns#" xmlns:dc="http://purl.org/dc/elements/1.1/" xmlns:rdf="http://www.w3.org/1999/02/22-rdf-syntax-ns#"><defs><style>.cls-1{fill:none;stroke:#fff;stroke-linecap:round;stroke-linejoin:round;}</style><style>.cls-1{fill:none;stroke:#fff;stroke-linecap:round;stroke-linejoin:round;}</style><style>.a{fill:none;stroke:#b1b5bd;stroke-linecap:round;stroke-linejoin:round;isolation:isolate;opacity:0.63;}</style><style>.cls-1{fill:none;stroke:#fff;stroke-linecap:round;stroke-linejoin:round;}</style></defs><metadata><rdf:RDF><cc:Work rdf:about=""><dc:format>image/svg+xml</dc:format><dc:type rdf:resource="http://purl.org/dc/dcmitype/StillImage"/></cc:Work></rdf:RDF></metadata><rect x="4" y="4" width="40" height="40" ry="8" fill="#efefef" fill-rule="evenodd" style="paint-order:stroke fill markers"/><path d="m12 4c-4.432 0-8 3.568-8 8v24c0 4.432 3.568 8 8 8h24c4.432 0 8-3.568 8-8v-24c0-4.432-3.568-8-8-8zm0 1h24c3.878 0 7 3.122 7 7v24c0 3.878-3.122 7-7 7h-24c-3.878 0-7-3.122-7-7v-24c0-3.878 3.122-7 7-7z" fill-rule="evenodd" opacity=".3" style="paint-order:stroke fill markers"/><g transform="matrix(.15807 0 0 .15807 8.8956 9.1734)"><path d="m13.947 140.96s16.784 8.662 25.818 8.3091c13.175-0.5146 32.346-13.651 32.346-13.651l-9.7929-10.386 45.107-8.9026-14.838 41.546-10.386-11.277s-20.556 16.759-38.578 15.728c-21.595-1.2354-29.675-21.366-29.675-21.366z" fill="#96d56b"/><path d="m20 72s-14.298 19.555-12.581 30.38c2.774 17.493 15.134 21.07 15.134 21.07l-7.4189 13.354 37.688-17.212-14.244-25.818-7.7156 13.651s-8.5691-1.5613-13.057-12.167c-3.0348-7.1714 2.1947-23.258 2.1947-23.258z" fill="#ffca2c"/><path d="m115.14 113.66 18.696-38.281 37.094 19.883-18.102 5.6383s7.3035 20.39-12.167 45.403c-14.258 18.317-47.777 25.521-47.777 25.521s24.918-12.53 35.907-37.094c5.4766-12.242 3.8578-27.598 3.8578-27.598z" fill="#729dec"/><path d="m115.14 45.403 21.07 20.476 5.9351-13.057s20.055 3.0071 25.818 10.386c11.03 14.124 8.3091 30.566 8.3091 30.566s9.7592-22.223 6.5286-32.94c-6.8252-22.642-34.127-21.07-34.127-21.07l5.3416-12.464z" fill="#b072dd"/><path d="m81.904 27.598 7.4189 5.0448s13.738-13.773 34.72-16.025c21.128-2.2671 31.456 7.7156 31.456 7.7156s-12.309-3.4062-27.598-1.7805c-12.931 1.3749-29.972 15.431-29.972 15.431l7.7156 4.7481-35.611 11.573z" fill="#f97263"/><path d="m32.346 60.835 8.6059-1.7805s3.211-10.573 6.5286-14.838c10.757-13.829 30.862-17.805 30.862-17.805s-14.487 7.032-22.257 18.102c-2.049 2.9192-3.5611 10.09-3.5611 10.09l10.386-3.5611-18.399 23.74z" fill="#f68d59"/></g></svg>
