<?xml version="1.0" encoding="UTF-8"?>
<!-- Created with Inkscape (http://www.inkscape.org/) -->
<svg id="SVGRoot" width="48px" height="48px" version="1.1" viewBox="0 0 48 48" xmlns="http://www.w3.org/2000/svg" xmlns:cc="http://creativecommons.org/ns#" xmlns:dc="http://purl.org/dc/elements/1.1/" xmlns:rdf="http://www.w3.org/1999/02/22-rdf-syntax-ns#" xmlns:xlink="http://www.w3.org/1999/xlink">
 <defs id="defs815">
  <style id="style819">.cls-1{fill:none;stroke:#fff;stroke-linecap:round;stroke-linejoin:round;}</style>
  <style id="style819-4">.cls-1{fill:none;stroke:#fff;stroke-linecap:round;stroke-linejoin:round;}</style>
  <style id="style819-5">.cls-1{fill:none;stroke:#fff;stroke-linecap:round;stroke-linejoin:round;}</style>
  <style id="style2">.a{fill:none;stroke:#b1b5bd;stroke-linecap:round;stroke-linejoin:round;isolation:isolate;opacity:0.63;}</style>
  <style id="style819-1">.cls-1{fill:none;stroke:#fff;stroke-linecap:round;stroke-linejoin:round;}</style>
  <style id="style819-6">.cls-1{fill:none;stroke:#fff;stroke-linecap:round;stroke-linejoin:round;}</style>
  <style id="style2-9">.a{fill:none;stroke:#b1b5bd;stroke-linecap:round;stroke-linejoin:round;isolation:isolate;opacity:0.63;}</style>
  <style id="style819-1-5">.cls-1{fill:none;stroke:#fff;stroke-linecap:round;stroke-linejoin:round;}</style>
 </defs>
 <metadata id="metadata818">
  <rdf:RDF>
   <cc:Work rdf:about="">
    <dc:format>image/svg+xml</dc:format>
    <dc:type rdf:resource="http://purl.org/dc/dcmitype/StillImage"/>
    <dc:title/>
   </cc:Work>
  </rdf:RDF>
 </metadata>
 <g id="layer1">
  <rect id="rect1373-5" x="4" y="4" width="40" height="40" ry="8" fill="#d35244" fill-rule="evenodd" style="paint-order:stroke fill markers"/>
  <path id="rect817" d="m12 4c-4.432 0-8 3.568-8 8v24c0 4.432 3.568 8 8 8h24c4.432 0 8-3.568 8-8v-24c0-4.432-3.568-8-8-8h-24zm0 1h24c3.878 0 7 3.122 7 7v24c0 3.878-3.122 7-7 7h-24c-3.878 0-7-3.122-7-7v-24c0-3.878 3.122-7 7-7z" fill-rule="evenodd" opacity=".3" style="paint-order:stroke fill markers"/>
  <path id="path850" d="m22.363 11.03c-1.3082 0.03696-2.2652 1.2039-2.3236 3.094-0.06176 2.0001 1.5247 5.8138 1.5247 5.8138s-1.5276 4.3726-3.6589 8.4989c0 0-2.9491 0.87815-4.5367 1.9386-2.3918 1.5977-3.2164 3.2366-2.3255 4.6584 0.67223 1.0729 2.7022 1.2334 3.8128 0.59797 3.2506-1.8598 5.6788-6.5989 5.6788-6.5989 2.5658-1.0005 6.7084-1.6029 6.7084-1.6029s2.7845 2.4439 5.9076 2.7217c2.6032 0.23161 3.4753-0.5251 3.6984-1.8634 0.21104-1.2661-0.99759-2.2362-2.7457-2.7584-2.042-0.60999-6.4026 0.14853-6.4026 0.14853-1.908-1.7526-3.6984-4.5484-3.6984-4.5484s1.4495-3.863 1.2959-6.6336c-0.12392-2.2353-1.4016-3.5096-2.935-3.4663zm-0.07101 1.3117c0.57898-0.02289 0.87957 0.90923 0.86197 1.4756-0.05185 1.6684-0.86197 4.4288-0.86197 4.4288s-0.72641-2.6134-0.80871-4.2186c-0.0318-0.62022 0.17422-1.6608 0.80871-1.6859zm1.1776 10.654c0.77276 1.5065 1.3133 2.1332 2.1342 3.0554-1.5877 0.27006-2.6644 0.52155-3.9252 1.0436 0.97039-1.8547 1.2715-2.8167 1.791-4.099zm8.0891 3.7595c0.55758 0.0031 1.1719 0.02559 1.8206 0.07909 0.51224 0.04225 1.0763 0.6595 0.99215 1.1554-0.13976 0.82376-1.0612 0.79815-1.6391 0.67127-2.5999-0.57085-4.0022-1.7515-4.0022-1.7515s1.1558-0.16344 2.8285-0.15432zm-14.531 3.3969s-1.2506 1.8798-3.0869 3.7267c-0.41174 0.41411-1.2106 0.91424-1.6766 0.55939-0.37214-0.28336-0.22429-1.0582 0.1144-1.3792 1.8629-1.7655 4.6491-2.9069 4.6491-2.9069z" fill="#fff"/>
 </g>
</svg>
