<?xml version="1.0" encoding="UTF-8"?>
<!-- Created with Inkscape (http://www.inkscape.org/) -->
<svg id="SVGRoot" width="48px" height="48px" version="1.1" viewBox="0 0 48 48" xml:space="preserve" xmlns="http://www.w3.org/2000/svg" xmlns:cc="http://creativecommons.org/ns#" xmlns:dc="http://purl.org/dc/elements/1.1/" xmlns:rdf="http://www.w3.org/1999/02/22-rdf-syntax-ns#"><defs><style>.cls-1{fill:none;stroke:#fff;stroke-linecap:round;stroke-linejoin:round;}</style><style>.cls-1{fill:none;stroke:#fff;stroke-linecap:round;stroke-linejoin:round;}</style><style>.cls-1{fill:none;stroke:#fff;stroke-linecap:round;stroke-linejoin:round;}</style><style>.cls-1{fill:none;stroke:#fff;stroke-linecap:round;stroke-linejoin:round;}</style><style>.a{fill:none;stroke:#b1b5bd;stroke-linecap:round;stroke-linejoin:round;isolation:isolate;opacity:0.63;}</style><style>.cls-1{fill:none;stroke:#fff;stroke-linecap:round;stroke-linejoin:round;}</style><style>.cls-1{fill:none;stroke:#fff;stroke-linecap:round;stroke-linejoin:round;}</style><style>.cls-1{fill:none;stroke:#fff;stroke-linecap:round;stroke-linejoin:round;}</style><style>.cls-1{fill:none;stroke:#fff;stroke-linecap:round;stroke-linejoin:round;}</style><style>.a{fill:none;stroke:#b1b5bd;stroke-linecap:round;stroke-linejoin:round;isolation:isolate;opacity:0.63;}</style><style>.cls-1{fill:none;stroke:#fff;stroke-linecap:round;stroke-linejoin:round;}</style></defs><metadata><rdf:RDF><cc:Work rdf:about=""><dc:format>image/svg+xml</dc:format><dc:type rdf:resource="http://purl.org/dc/dcmitype/StillImage"/></cc:Work></rdf:RDF></metadata><g fill-rule="evenodd"><rect x="4" y="4" width="40" height="40" ry="8" fill="#f064b0" style="paint-order:stroke fill markers"/><rect x="8" y="8" width="32" height="32" ry="4" opacity=".5" style="paint-order:stroke fill markers"/><path d="m12 4c-4.432 0-8 3.568-8 8v24c0 4.432 3.568 8 8 8h24c4.432 0 8-3.568 8-8v-24c0-4.432-3.568-8-8-8zm0 1h24c3.878 0 7 3.122 7 7v24c0 3.878-3.122 7-7 7h-24c-3.878 0-7-3.122-7-7v-24c0-3.878 3.122-7 7-7z" opacity=".3" style="paint-order:stroke fill markers"/></g><text x="11.85" y="33.946999" fill="#aa5ebb" font-family="Sans" font-size="13.333px" font-style="italic" opacity=".3" stroke-linecap="round" stroke-linejoin="round" stroke-width="2" style="paint-order:stroke fill markers" xml:space="preserve"><tspan x="11.85" y="33.946999"/></text><path d="m21.636 31.618h-6.6605v-1.7625l1.783-0.81975v-9.4681l-1.783-0.81975v-1.7625h6.6605v1.7625l-1.783 0.81975v9.4681l1.783 0.81975zm5.8202 0.20494q-1.8649 0-3.0331-1.4551-1.1681-1.4756-1.1681-4.3242 0-2.8896 1.1886-4.3447 1.1886-1.4756 3.1151-1.4756 1.1886 0 1.9264 0.47136 0.73778 0.47136 1.2091 1.1681h0.10247q-0.06148-0.36889-0.12296-1.0247-0.04099-0.6763-0.04099-1.2296v-3.5659h3.1151v15.575h-2.3773l-0.61481-1.4551h-0.12296q-0.43037 0.69679-1.1886 1.1886-0.75827 0.47136-1.9879 0.47136zm1.0862-2.4798q1.2501 0 1.7625-0.71728 0.51234-0.73778 0.53284-2.2338v-0.3279q0-1.619-0.49185-2.4798-0.49185-0.86074-1.8239-0.86074-1.0042 0-1.578 0.86074-0.55333 0.86074-0.55333 2.5002t0.55333 2.4593q0.57383 0.79926 1.5985 0.79926z" fill="#f064b0" stroke-linecap="round" stroke-linejoin="round" stroke-width="3.0741" style="paint-order:stroke fill markers" aria-label="Id"/></svg>
