<?xml version="1.0" encoding="UTF-8"?>
<!-- Created with Inkscape (http://www.inkscape.org/) -->
<svg id="SVGRoot" width="48px" height="48px" version="1.1" viewBox="0 0 48 48" xml:space="preserve" xmlns="http://www.w3.org/2000/svg" xmlns:cc="http://creativecommons.org/ns#" xmlns:dc="http://purl.org/dc/elements/1.1/" xmlns:rdf="http://www.w3.org/1999/02/22-rdf-syntax-ns#"><defs><style>.cls-1{fill:none;stroke:#fff;stroke-linecap:round;stroke-linejoin:round;}</style><style>.cls-1{fill:none;stroke:#fff;stroke-linecap:round;stroke-linejoin:round;}</style><style>.cls-1{fill:none;stroke:#fff;stroke-linecap:round;stroke-linejoin:round;}</style></defs><metadata><rdf:RDF><cc:Work rdf:about=""><dc:format>image/svg+xml</dc:format><dc:type rdf:resource="http://purl.org/dc/dcmitype/StillImage"/></cc:Work></rdf:RDF></metadata><rect x="4" y="4" width="40" height="40" ry="8" fill="#00E3DD" fill-rule="evenodd" style="paint-order:stroke fill markers"/><rect x="8" y="8" width="32" height="32" ry="4" fill-rule="evenodd" opacity=".5" style="paint-order:stroke fill markers"/><path d="m22.993 27.014q0 1.9493-1.4158 3.1188-1.3953 1.1491-3.9807 1.1491-2.3186 0-4.1448-0.88232v-2.8932q1.0465 0.45141 2.1545 0.84127 1.1285 0.36934 2.2365 0.36934 1.1491 0 1.621-0.4309 0.49246-0.45141 0.49246-1.1285 0-0.55401-0.38986-0.94387-0.36934-0.38986-1.0054-0.71816-0.63609-0.34883-1.4569-0.73868-0.51297-0.24623-1.108-0.57453-0.59505-0.34883-1.1491-0.84127-0.53349-0.51297-0.88232-1.2311-0.34883-0.71812-0.34883-1.7236 0-1.9698 1.3338-3.0573 1.3338-1.108 3.6318-1.108 1.1491 0 2.175 0.26675 1.0465 0.26675 2.175 0.7592l-1.0054 2.4213q-1.0054-0.41038-1.8056-0.63609-0.80024-0.22571-1.6415-0.22571-0.88232 0-1.3542 0.41038-0.47188 0.41038-0.47194 1.067 0 0.77972 0.69764 1.2311 0.69764 0.45141 2.0724 1.108 1.1285 0.53349 1.9083 1.108 0.80024 0.57453 1.2311 1.3542 0.4309 0.77972 0.4309 1.9287zm6.0531-7.3457q1.1491 0 1.9287 0.45141 0.80024 0.4309 1.3132 1.1695h0.1026l0.26675-1.4158h2.6264v11.285q0 2.3802-1.3748 3.6114-1.3748 1.2311-4.2475 1.2311-1.2926 0-2.3186-0.16415-1.0259-0.14363-1.9287-0.51297v-2.6264q0.94387 0.41038 1.9083 0.63609 0.96439 0.22571 2.2365 0.22571 1.2721 0 1.9493-0.59504 0.67712-0.59506 0.67712-1.6415v-0.30778q0-0.24623 0.02052-0.65661 0.04104-0.41038 0.08208-0.71816h-0.1026q-0.47194 0.73868-1.2516 1.1901-0.7592 0.45141-1.9083 0.45141-1.9493 0-3.0984-1.4979t-1.1491-4.2885 1.1695-4.309q1.1695-1.5184 3.0984-1.5184zm1.0054 2.4417q-1.0259 0-1.58 0.88232-0.53349 0.88232-0.53349 2.5444 0 3.324 2.175 3.324 1.2311 0 1.7441-0.71816 0.53349-0.71816 0.53349-2.2365v-0.45141q0-1.6825-0.53349-2.5033-0.51297-0.84127-1.8056-0.84127z" fill="#00e3dd" stroke-linecap="round" stroke-linejoin="round" stroke-width="3.0778" style="paint-order:stroke fill markers" aria-label="Sg"/><path d="m12 4c-4.432 0-8 3.568-8 8v24c0 4.432 3.568 8 8 8h24c4.432 0 8-3.568 8-8v-24c0-4.432-3.568-8-8-8zm0 1h24c3.878 0 7 3.122 7 7v24c0 3.878-3.122 7-7 7h-24c-3.878 0-7-3.122-7-7v-24c0-3.878 3.122-7 7-7z" fill-rule="evenodd" opacity=".3" style="paint-order:stroke fill markers"/><text x="11.85" y="33.946999" fill="#aa5ebb" font-family="Sans" font-size="13.333px" font-style="italic" opacity=".3" stroke-linecap="round" stroke-linejoin="round" stroke-width="2" style="paint-order:stroke fill markers" xml:space="preserve"><tspan x="11.85" y="33.946999"/></text></svg>
