<?xml version="1.0" encoding="UTF-8"?>
<!-- Created with Inkscape (http://www.inkscape.org/) -->
<svg id="SVGRoot" width="48px" height="48px" version="1.1" viewBox="0 0 48 48" xmlns="http://www.w3.org/2000/svg" xmlns:cc="http://creativecommons.org/ns#" xmlns:dc="http://purl.org/dc/elements/1.1/" xmlns:rdf="http://www.w3.org/1999/02/22-rdf-syntax-ns#">
 <defs>
  <style>.cls-1{fill:none;stroke:#fff;stroke-linecap:round;stroke-linejoin:round;}</style>
 </defs>
 <metadata>
  <rdf:RDF>
   <cc:Work rdf:about="">
    <dc:format>image/svg+xml</dc:format>
    <dc:type rdf:resource="http://purl.org/dc/dcmitype/StillImage"/>
   </cc:Work>
  </rdf:RDF>
 </metadata>
 <g fill-rule="evenodd">
  <rect x="4" y="4" width="40" height="40" ry="8" fill="#CB8CF7" style="paint-order:stroke fill markers"/>
  <rect x="8" y="8" width="32" height="32" ry="4" opacity=".5" style="paint-order:stroke fill markers"/>
  <path d="m12 4c-4.432 0-8 3.568-8 8v24c0 4.432 3.568 8 8 8h24c4.432 0 8-3.568 8-8v-24c0-4.432-3.568-8-8-8zm0 1h24c3.878 0 7 3.122 7 7v24c0 3.878-3.122 7-7 7h-24c-3.878 0-7-3.122-7-7v-24c0-3.878 3.122-7 7-7z" opacity=".3" style="paint-order:stroke fill markers"/>
 </g>
 <text x="11.85" y="33.946999" fill="#aa5ebb" font-family="Sans" font-size="13.333px" font-style="italic" opacity=".3" stroke-linecap="round" stroke-linejoin="round" stroke-width="2" style="paint-order:stroke fill markers" xml:space="preserve"><tspan x="11.85" y="33.946999"/></text>
 <path d="m19.194 19.562q-1.6685 0-2.6386 1.2611-0.95066 1.2417-0.95066 3.434 0 2.1923 0.91186 3.4146 0.93126 1.2029 2.7938 1.2029 0.91186 0 1.7461-0.21341 0.85366-0.21342 1.7073-0.54324v2.5222q-1.6491 0.69845-3.7833 0.69845-2.2117 0-3.6474-0.87306-1.4163-0.89246-2.1147-2.4834-0.67904-1.6103-0.67904-3.7445 0-2.0953 0.77605-3.7056t2.27-2.5222 3.6474-0.91186q1.0283 0 2.0759 0.23282 1.0671 0.21342 2.0177 0.67905l-0.97006 2.367q-0.69845-0.32982-1.4939-0.56264-0.77605-0.25222-1.6685-0.25222zm9.0798-0.19401q0 0.87306-0.0388 1.5327-0.0388 0.64024-0.09701 1.0089h0.15521q0.52384-0.81485 1.2999-1.1835 0.79545-0.36862 1.7655-0.36862 1.7073 0 2.755 0.93126 1.0477 0.91186 1.0477 2.949v6.9069h-2.9296v-6.1696q0-2.2894-1.6879-2.2894-1.2999 0-1.7849 0.91186-0.48503 0.89246-0.48503 2.5804v4.9667h-2.9296v-14.745h2.9296z" fill="#cb8cf7" stroke-linecap="round" stroke-linejoin="round" stroke-width="1.4551" style="paint-order:stroke fill markers" aria-label="Ch"/>
</svg>
