<?xml version="1.0" encoding="UTF-8"?>
<!-- Created with Inkscape (http://www.inkscape.org/) -->
<svg id="SVGRoot" width="48px" height="48px" version="1.1" viewBox="0 0 48 48" xml:space="preserve" xmlns="http://www.w3.org/2000/svg" xmlns:cc="http://creativecommons.org/ns#" xmlns:dc="http://purl.org/dc/elements/1.1/" xmlns:rdf="http://www.w3.org/1999/02/22-rdf-syntax-ns#"><defs><style>.cls-1{fill:none;stroke:#fff;stroke-linecap:round;stroke-linejoin:round;}</style><style>.cls-1{fill:none;stroke:#fff;stroke-linecap:round;stroke-linejoin:round;}</style><style>.cls-1{fill:none;stroke:#fff;stroke-linecap:round;stroke-linejoin:round;}</style></defs><metadata><rdf:RDF><cc:Work rdf:about=""><dc:format>image/svg+xml</dc:format><dc:type rdf:resource="http://purl.org/dc/dcmitype/StillImage"/></cc:Work></rdf:RDF></metadata><rect x="4" y="4" width="40" height="40" ry="8" fill="#2FA3F7" fill-rule="evenodd" style="paint-order:stroke fill markers"/><rect x="8" y="8" width="32" height="32" ry="4" fill-rule="evenodd" opacity=".5" style="paint-order:stroke fill markers"/><path d="m18.755 16.221q2.8903 0 4.2726 1.2148 1.3823 1.1938 1.3823 3.3929 0 1.3195-0.54454 2.4714t-1.8221 1.864q-1.2566 0.7121-3.4139 0.7121h-1.3614v5.2988h-3.2044v-14.954zm-0.10472 2.618h-1.3823v4.3982h1.0681q1.3195 0 2.0735-0.5236 0.77493-0.5236 0.77493-1.7802 0-1.0053-0.62832-1.5499-0.60738-0.54454-1.9059-0.54454zm16.273 8.964q0 1.6336-1.1729 2.618-1.1519 0.96342-3.5605 0.96342-1.2148 0-2.1363-0.16755-0.92154-0.14661-1.7802-0.50266v-2.618q0.92154 0.43982 1.9687 0.69115 1.0681 0.25133 1.864 0.25133 0.96342 0 1.3823-0.27227 0.43982-0.27227 0.43982-0.73304 0-0.31416-0.23038-0.56549-0.20944-0.25133-0.77493-0.5236-0.54454-0.27227-1.5708-0.67021-1.5289-0.60738-2.3248-1.3404-0.77493-0.75398-0.77493-2.1782 0-1.5917 1.2357-2.4086 1.2566-0.81682 3.3092-0.81682 1.0891 0 2.0525 0.23038t1.9478 0.64926l-0.92154 2.1572q-0.79587-0.35605-1.6336-0.58643t-1.487-0.23038q-1.508 0-1.508 0.83776 0 0.31416 0.20944 0.54454 0.23038 0.20944 0.77493 0.46077 0.56549 0.25133 1.5708 0.64926 1.0263 0.41888 1.7174 0.8587 0.7121 0.43982 1.0472 1.0891 0.35605 0.62832 0.35605 1.6127z" fill="#2FA3F7" stroke-linecap="round" stroke-linejoin="round" stroke-width="3.1416" style="paint-order:stroke fill markers" aria-label="Ps"/><path d="m12 4c-4.432 0-8 3.568-8 8v24c0 4.432 3.568 8 8 8h24c4.432 0 8-3.568 8-8v-24c0-4.432-3.568-8-8-8zm0 1h24c3.878 0 7 3.122 7 7v24c0 3.878-3.122 7-7 7h-24c-3.878 0-7-3.122-7-7v-24c0-3.878 3.122-7 7-7z" fill-rule="evenodd" opacity=".3" style="paint-order:stroke fill markers"/><text x="11.85" y="33.946999" fill="#aa5ebb" font-family="Sans" font-size="13.333px" font-style="italic" opacity=".3" stroke-linecap="round" stroke-linejoin="round" stroke-width="2" style="paint-order:stroke fill markers" xml:space="preserve"><tspan x="11.85" y="33.946999"/></text></svg>
