<?xml version="1.0" encoding="UTF-8"?>
<!-- Created with Inkscape (http://www.inkscape.org/) -->
<svg id="SVGRoot" width="48px" height="48px" version="1.1" viewBox="0 0 48 48" xml:space="preserve" xmlns="http://www.w3.org/2000/svg" xmlns:cc="http://creativecommons.org/ns#" xmlns:dc="http://purl.org/dc/elements/1.1/" xmlns:rdf="http://www.w3.org/1999/02/22-rdf-syntax-ns#"><defs><style>.cls-1{fill:none;stroke:#fff;stroke-linecap:round;stroke-linejoin:round;}</style><style>.cls-1{fill:none;stroke:#fff;stroke-linecap:round;stroke-linejoin:round;}</style><style>.cls-1{fill:none;stroke:#fff;stroke-linecap:round;stroke-linejoin:round;}</style></defs><metadata><rdf:RDF><cc:Work rdf:about=""><dc:format>image/svg+xml</dc:format><dc:type rdf:resource="http://purl.org/dc/dcmitype/StillImage"/></cc:Work></rdf:RDF></metadata><rect x="4" y="4" width="40" height="40" ry="8" fill="#C667D9" fill-rule="evenodd" style="paint-order:stroke fill markers"/><rect x="8" y="8" width="32" height="32" ry="4" fill-rule="evenodd" opacity=".5" style="paint-order:stroke fill markers"/><path d="m18.702 16.239q2.8887 0 4.2703 1.2141 1.3816 1.1932 1.3816 3.3911 0 1.3188-0.54426 2.4701-0.54426 1.1513-1.8212 1.863-1.256 0.71172-3.4121 0.71172h-1.3606v5.296h-3.2027v-14.946zm-0.10466 2.6166h-1.3816v4.3959h1.0676q1.3188 0 2.0724-0.52332 0.77452-0.52332 0.77452-1.7793 0-1.0048-0.62799-1.549-0.60706-0.54426-1.9049-0.54426zm14.486 0.69079q0.31399 0 0.66985 0.04187 0.35586 0.04187 0.58612 0.08373l-0.31399 2.9515q-0.23026-0.0628-0.54426-0.08373-0.31399-0.04187-0.75358-0.04187-0.64892 0-1.2978 0.27213-0.64892 0.27213-1.0885 0.90012-0.41866 0.62799-0.41866 1.7165v5.7984h-3.1609v-11.429h2.4073l0.46052 1.9258h0.14653q0.50239-0.87918 1.3606-1.5072 0.87918-0.62799 1.9468-0.62799z" fill="#C667D9" stroke-linecap="round" stroke-linejoin="round" stroke-width="3.1399" style="paint-order:stroke fill markers" aria-label="Pr"/><path d="m12 4c-4.432 0-8 3.568-8 8v24c0 4.432 3.568 8 8 8h24c4.432 0 8-3.568 8-8v-24c0-4.432-3.568-8-8-8zm0 1h24c3.878 0 7 3.122 7 7v24c0 3.878-3.122 7-7 7h-24c-3.878 0-7-3.122-7-7v-24c0-3.878 3.122-7 7-7z" fill-rule="evenodd" opacity=".3" style="paint-order:stroke fill markers"/><text x="11.85" y="33.946999" fill="#aa5ebb" font-family="Sans" font-size="13.333px" font-style="italic" opacity=".3" stroke-linecap="round" stroke-linejoin="round" stroke-width="2" style="paint-order:stroke fill markers" xml:space="preserve"><tspan x="11.85" y="33.946999"/></text></svg>
