<?xml version="1.0" encoding="UTF-8"?>
<!-- Created with Inkscape (http://www.inkscape.org/) -->
<svg id="SVGRoot" width="48px" height="48px" version="1.1" viewBox="0 0 48 48" xml:space="preserve" xmlns="http://www.w3.org/2000/svg" xmlns:cc="http://creativecommons.org/ns#" xmlns:dc="http://purl.org/dc/elements/1.1/" xmlns:rdf="http://www.w3.org/1999/02/22-rdf-syntax-ns#"><defs><style>.cls-1{fill:none;stroke:#fff;stroke-linecap:round;stroke-linejoin:round;}</style><style>.cls-1{fill:none;stroke:#fff;stroke-linecap:round;stroke-linejoin:round;}</style><style>.cls-1{fill:none;stroke:#fff;stroke-linecap:round;stroke-linejoin:round;}</style></defs><metadata><rdf:RDF><cc:Work rdf:about=""><dc:format>image/svg+xml</dc:format><dc:type rdf:resource="http://purl.org/dc/dcmitype/StillImage"/></cc:Work></rdf:RDF></metadata><g fill-rule="evenodd"><rect x="4" y="4" width="40" height="40" ry="8" fill="#B474F5" style="paint-order:stroke fill markers"/><rect x="8" y="8" width="32" height="32" ry="4" opacity=".5" style="paint-order:stroke fill markers"/><path d="m12 4c-4.432 0-8 3.568-8 8v24c0 4.432 3.568 8 8 8h24c4.432 0 8-3.568 8-8v-24c0-4.432-3.568-8-8-8zm0 1h24c3.878 0 7 3.122 7 7v24c0 3.878-3.122 7-7 7h-24c-3.878 0-7-3.122-7-7v-24c0-3.878 3.122-7 7-7z" opacity=".3" style="paint-order:stroke fill markers"/></g><text x="11.85" y="33.946999" fill="#aa5ebb" font-family="Sans" font-size="13.333px" font-style="italic" opacity=".3" stroke-linecap="round" stroke-linejoin="round" stroke-width="2" style="paint-order:stroke fill markers" xml:space="preserve"><tspan x="11.85" y="33.946999"/></text><path d="m16.854 16.299q5.8231 0 5.8231 4.3412 0 1.5236-0.77224 2.4837-0.77223 0.96008-1.9202 1.5027l4.2369 6.5744h-3.6525l-3.3185-5.7187h-1.7741v5.7187h-3.1933v-14.902zm-0.06261 2.4837h-1.3149v4.2369h1.3149q1.2731 0 1.9619-0.52178t0.68875-1.7114q0-1.0018-0.64701-1.5027-0.62614-0.50091-2.0036-0.50091zm19.431 1.0227v11.396h-2.4211l-0.39655-1.461h-0.18784q-0.54265 0.87659-1.4819 1.2731-0.9392 0.39655-2.0245 0.39655-1.8158 0-2.9428-0.98095-1.1062-1.0018-1.1062-3.1933v-7.4301h3.1724v6.637q0 1.2105 0.41742 1.8367 0.4383 0.60526 1.3775 0.60526 1.4192 0 1.9202-0.96008 0.52178-0.96008 0.52178-2.7759v-5.343z" fill="#b474f5" stroke-linecap="round" stroke-linejoin="round" stroke-width="3.1307" style="paint-order:stroke fill markers" aria-label="Ru"/></svg>
