<?xml version="1.0" encoding="UTF-8"?>
<!-- Created with Inkscape (http://www.inkscape.org/) -->
<svg id="SVGRoot" width="48px" height="48px" version="1.1" viewBox="0 0 48 48" xml:space="preserve" xmlns="http://www.w3.org/2000/svg" xmlns:cc="http://creativecommons.org/ns#" xmlns:dc="http://purl.org/dc/elements/1.1/" xmlns:rdf="http://www.w3.org/1999/02/22-rdf-syntax-ns#"><defs><style>.cls-1{fill:none;stroke:#fff;stroke-linecap:round;stroke-linejoin:round;}</style><style>.cls-1{fill:none;stroke:#fff;stroke-linecap:round;stroke-linejoin:round;}</style><style>.cls-1{fill:none;stroke:#fff;stroke-linecap:round;stroke-linejoin:round;}</style><style>.cls-1{fill:none;stroke:#fff;stroke-linecap:round;stroke-linejoin:round;}</style><style>.a{fill:none;stroke:#b1b5bd;stroke-linecap:round;stroke-linejoin:round;isolation:isolate;opacity:0.63;}</style><style>.cls-1{fill:none;stroke:#fff;stroke-linecap:round;stroke-linejoin:round;}</style><style>.cls-1{fill:none;stroke:#fff;stroke-linecap:round;stroke-linejoin:round;}</style><style>.a{fill:none;stroke:#b1b5bd;stroke-linecap:round;stroke-linejoin:round;isolation:isolate;opacity:0.63;}</style><style>.cls-1{fill:none;stroke:#fff;stroke-linecap:round;stroke-linejoin:round;}</style></defs><metadata><rdf:RDF><cc:Work rdf:about=""><dc:format>image/svg+xml</dc:format><dc:type rdf:resource="http://purl.org/dc/dcmitype/StillImage"/></cc:Work></rdf:RDF></metadata><g fill-rule="evenodd"><rect x="4" y="4" width="40" height="40" ry="8" fill="#27aa94" style="paint-order:stroke fill markers"/><rect x="8" y="8" width="32" height="32" ry="4" opacity=".5" style="paint-order:stroke fill markers"/><path d="m12 4c-4.432 0-8 3.568-8 8v24c0 4.432 3.568 8 8 8h24c4.432 0 8-3.568 8-8v-24c0-4.432-3.568-8-8-8zm0 1h24c3.878 0 7 3.122 7 7v24c0 3.878-3.122 7-7 7h-24c-3.878 0-7-3.122-7-7v-24c0-3.878 3.122-7 7-7z" opacity=".3" style="paint-order:stroke fill markers"/></g><text x="11.85" y="33.946999" fill="#aa5ebb" font-family="Sans" font-size="13.333px" font-style="italic" opacity=".3" stroke-linecap="round" stroke-linejoin="round" stroke-width="2" style="paint-order:stroke fill markers" xml:space="preserve"><tspan x="11.85" y="33.946999"/></text><path d="m21.571 31.536-1.1219-3.4269h-5.1404l-1.1219 3.4269h-3.3657l5.12-14.626h3.8349l5.1608 14.626zm-3.7125-12.423-1.8154 6.3847h3.6921zm18.828 1.2851v11.137h-2.3662l-0.38757-1.4279h-0.18358c-0.35357 0.57115-0.83633 0.98592-1.4483 1.2443-0.61195 0.25838-1.2715 0.38757-1.9786 0.38757-1.1831 0-2.1418-0.31957-2.8762-0.95872-0.72074-0.65274-1.0811-1.6931-1.0811-3.1209v-7.2618h3.1005v6.4867c0 0.78873 0.13599 1.3871 0.40797 1.795 0.28558 0.39437 0.73434 0.59155 1.3463 0.59155 0.92472 0 1.5503-0.31277 1.8766-0.93832 0.33997-0.62555 0.50996-1.5299 0.50996-2.713v-5.222z" fill="#27aa94" stroke-linecap="round" stroke-linejoin="round" stroke-width="1.5299" style="paint-order:stroke fill markers" aria-label="Au"/></svg>
