<?xml version="1.0" encoding="UTF-8"?>
<!-- Created with Inkscape (http://www.inkscape.org/) -->
<svg id="SVGRoot" width="48px" height="48px" version="1.1" viewBox="0 0 48 48" xml:space="preserve" xmlns="http://www.w3.org/2000/svg" xmlns:cc="http://creativecommons.org/ns#" xmlns:dc="http://purl.org/dc/elements/1.1/" xmlns:rdf="http://www.w3.org/1999/02/22-rdf-syntax-ns#"><defs><style>.cls-1{fill:none;stroke:#fff;stroke-linecap:round;stroke-linejoin:round;}</style><style>.cls-1{fill:none;stroke:#fff;stroke-linecap:round;stroke-linejoin:round;}</style><style>.cls-1{fill:none;stroke:#fff;stroke-linecap:round;stroke-linejoin:round;}</style><style>.cls-1{fill:none;stroke:#fff;stroke-linecap:round;stroke-linejoin:round;}</style><style>.a{fill:none;stroke:#b1b5bd;stroke-linecap:round;stroke-linejoin:round;isolation:isolate;opacity:0.63;}</style><style>.cls-1{fill:none;stroke:#fff;stroke-linecap:round;stroke-linejoin:round;}</style><style>.cls-1{fill:none;stroke:#fff;stroke-linecap:round;stroke-linejoin:round;}</style><style>.cls-1{fill:none;stroke:#fff;stroke-linecap:round;stroke-linejoin:round;}</style><style>.cls-1{fill:none;stroke:#fff;stroke-linecap:round;stroke-linejoin:round;}</style><style>.a{fill:none;stroke:#b1b5bd;stroke-linecap:round;stroke-linejoin:round;isolation:isolate;opacity:0.63;}</style><style>.cls-1{fill:none;stroke:#fff;stroke-linecap:round;stroke-linejoin:round;}</style></defs><metadata><rdf:RDF><cc:Work rdf:about=""><dc:format>image/svg+xml</dc:format><dc:type rdf:resource="http://purl.org/dc/dcmitype/StillImage"/></cc:Work></rdf:RDF></metadata><g fill-rule="evenodd"><rect x="4" y="4" width="40" height="40" ry="8" fill="#f280ea" style="paint-order:stroke fill markers"/><rect x="8" y="8" width="32" height="32" ry="4" opacity=".5" style="paint-order:stroke fill markers"/><path d="m12 4c-4.432 0-8 3.568-8 8v24c0 4.432 3.568 8 8 8h24c4.432 0 8-3.568 8-8v-24c0-4.432-3.568-8-8-8zm0 1h24c3.878 0 7 3.122 7 7v24c0 3.878-3.122 7-7 7h-24c-3.878 0-7-3.122-7-7v-24c0-3.878 3.122-7 7-7z" opacity=".3" style="paint-order:stroke fill markers"/></g><text x="11.85" y="33.946999" fill="#aa5ebb" font-family="Sans" font-size="13.333px" font-style="italic" opacity=".3" stroke-linecap="round" stroke-linejoin="round" stroke-width="2" style="paint-order:stroke fill markers" xml:space="preserve"><tspan x="11.85" y="33.946999"/></text><path transform="matrix(1.5374 0 0 1.5374 -8.0652 -13.067)" d="m19.785 29.065h-4.3333v-1.1467l1.16-0.53333v-6.16l-1.16-0.53333v-1.1467h4.3333v1.1467l-1.16 0.53333v6.16l1.16 0.53333zm4.5733 0.13333q-1.0533 0-1.8533-0.38666-0.78666-0.4-1.2267-1.2267t-0.44-2.12q0-1.3333 0.48-2.1733 0.48-0.85333 1.3067-1.24 0.82666-0.4 1.88-0.4 0.62666 0 1.2 0.13333t1.0133 0.36l-0.6 1.52q-0.4-0.17333-0.81333-0.28-0.4-0.12-0.8-0.12-0.77333 0-1.2 0.54666-0.41333 0.54666-0.41333 1.64 0 1.08 0.41333 1.6 0.42666 0.52 1.1733 0.52 0.56 0 1.08-0.14667 0.52-0.16 0.96-0.41333v1.64q-0.42667 0.25333-0.94666 0.4-0.50667 0.14667-1.2133 0.14667z" fill="#f280ea" stroke-linecap="round" stroke-linejoin="round" stroke-width="2" style="paint-order:stroke fill markers;white-space:pre" aria-label="Ic"/></svg>
