<?xml version="1.0" encoding="UTF-8"?>
<!-- Created with Inkscape (http://www.inkscape.org/) -->
<svg id="SVGRoot" width="48px" height="48px" version="1.1" viewBox="0 0 48 48" xmlns="http://www.w3.org/2000/svg" xmlns:cc="http://creativecommons.org/ns#" xmlns:dc="http://purl.org/dc/elements/1.1/" xmlns:rdf="http://www.w3.org/1999/02/22-rdf-syntax-ns#" xmlns:xlink="http://www.w3.org/1999/xlink">
 <defs id="defs815">
  <style id="style819">.cls-1{fill:none;stroke:#fff;stroke-linecap:round;stroke-linejoin:round;}</style>
  <style id="style819-6">.cls-1{fill:none;stroke:#fff;stroke-linecap:round;stroke-linejoin:round;}</style>
 </defs>
 <metadata id="metadata818">
  <rdf:RDF>
   <cc:Work rdf:about="">
    <dc:format>image/svg+xml</dc:format>
    <dc:type rdf:resource="http://purl.org/dc/dcmitype/StillImage"/>
    <dc:title/>
   </cc:Work>
  </rdf:RDF>
 </metadata>
 <g id="layer1">
  <rect id="rect1373-5" x="4" y="4" width="40" height="40" ry="8" fill="#7d92e4" fill-rule="evenodd" style="paint-order:stroke fill markers"/>
  <rect id="rect851" x="8" y="8" width="32" height="32" ry="4" fill-rule="evenodd" opacity=".5" style="paint-order:stroke fill markers"/>
  <path id="rect817" d="m12 4c-4.432 0-8 3.568-8 8v24c0 4.432 3.568 8 8 8h24c4.432 0 8-3.568 8-8v-24c0-4.432-3.568-8-8-8h-24zm0 1h24c3.878 0 7 3.122 7 7v24c0 3.878-3.122 7-7 7h-24c-3.878 0-7-3.122-7-7v-24c0-3.878 3.122-7 7-7z" fill-rule="evenodd" opacity=".3" style="paint-order:stroke fill markers"/>
  <rect id="rect845" x="12" y="14" width="4" height="20" fill="#7d92e4" fill-rule="evenodd" style="paint-order:stroke fill markers"/>
  <path id="path847" d="m33.899 23.561 1.4124-2.4397s-2.3546-1.1556-4.2373-1.1556c-2.004 0-5.1361 1.0954-5.1361 3.7237 0 4.3411 6.2918 4.294 6.2918 6.249 0 0.97872-1.5465 1.2412-2.5253 1.2412-2.0001 0-3.6809-1.1984-3.6809-1.1984v2.9961s0.93182 1.07 4.0233 1.07c3.5973 0 6.035-1.6244 6.035-4.0661 0-3.9602-6.677-4.7007-6.677-6.5058 0-0.65333 1.0159-1.0272 1.6692-1.0272 1.911 0 2.8249 1.1128 2.8249 1.1128z" fill="#7d92e4"/>
  <path id="path849" d="m15 17h4s2 0 2 3c0 4-2 4-2 4h-4v3h4s6 0 6-7c0-6-6-6-6-6h-4z" fill="#7d92e4"/>
 </g>
</svg>
