<?xml version="1.0" encoding="UTF-8"?>
<!-- Created with Inkscape (http://www.inkscape.org/) -->
<svg id="SVGRoot" width="48px" height="48px" version="1.1" viewBox="0 0 48 48" xmlns="http://www.w3.org/2000/svg" xmlns:cc="http://creativecommons.org/ns#" xmlns:dc="http://purl.org/dc/elements/1.1/" xmlns:rdf="http://www.w3.org/1999/02/22-rdf-syntax-ns#">
 <defs>
  <style>.cls-1{fill:none;stroke:#fff;stroke-linecap:round;stroke-linejoin:round;}</style>
 </defs>
 <metadata>
  <rdf:RDF>
   <cc:Work rdf:about="">
    <dc:format>image/svg+xml</dc:format>
    <dc:type rdf:resource="http://purl.org/dc/dcmitype/StillImage"/>
   </cc:Work>
  </rdf:RDF>
 </metadata>
 <rect x="4" y="4" width="40" height="40" ry="8" fill="#CB8CF7" fill-rule="evenodd" style="paint-order:stroke fill markers"/>
 <rect x="8" y="8" width="32" height="32" ry="4" fill-rule="evenodd" opacity=".5" style="paint-order:stroke fill markers"/>
 <path d="m21.949 31.175-1.1519-3.5186h-5.2779l-1.1519 3.5186h-3.4558l5.2569-15.017h3.9375l5.2988 15.017zm-3.8118-12.755-1.864 6.5555h3.7909zm13.676 1.11c1.5917 0 2.8414 0.4468 3.749 1.3404 0.92154 0.89361 1.3823 2.1782 1.3823 3.8537v1.5289h-7.3513c0.04189 0.86568 0.30718 1.5499 0.79587 2.0525 0.50266 0.48869 1.2217 0.73304 2.1572 0.73304 0.7121 0 1.3614-0.06981 1.9478-0.20944 0.58643-0.13963 1.1868-0.34907 1.8012-0.62832v2.3667c-0.55851 0.27925-1.1519 0.48171-1.7802 0.60738-0.62832 0.13963-1.3963 0.20944-2.3038 0.20944-1.131 0-2.1363-0.20944-3.0159-0.62832-0.86568-0.43284-1.5499-1.0821-2.0525-1.9478s-0.75398-1.9548-0.75398-3.2673c0-1.9967 0.49568-3.4976 1.487-4.503 1.0053-1.0053 2.3178-1.508 3.9375-1.508zm0.08378 2.241c-0.62832 0-1.1449 0.20246-1.5499 0.60738-0.39096 0.39096-0.61436 0.97739-0.67021 1.7593h4.3145c-0.013963-0.68417-0.19548-1.2497-0.54454-1.6965-0.3351-0.4468-0.85172-0.67021-1.5499-0.67021z" fill="#cb8cf7" stroke-linecap="round" stroke-linejoin="round" stroke-width="3.1416" style="paint-order:stroke fill markers" aria-label="Ae"/>
 <path d="m12 4c-4.432 0-8 3.568-8 8v24c0 4.432 3.568 8 8 8h24c4.432 0 8-3.568 8-8v-24c0-4.432-3.568-8-8-8zm0 1h24c3.878 0 7 3.122 7 7v24c0 3.878-3.122 7-7 7h-24c-3.878 0-7-3.122-7-7v-24c0-3.878 3.122-7 7-7z" fill-rule="evenodd" opacity=".3" style="paint-order:stroke fill markers"/>
 <text x="11.85" y="33.946999" fill="#aa5ebb" font-family="Sans" font-size="13.333px" font-style="italic" opacity=".3" stroke-linecap="round" stroke-linejoin="round" stroke-width="2" style="paint-order:stroke fill markers" xml:space="preserve"><tspan x="11.85" y="33.946999"/></text>
</svg>
