<?xml version="1.0" encoding="UTF-8"?>
<!-- Created with Inkscape (http://www.inkscape.org/) -->
<svg id="SVGRoot" width="48px" height="48px" version="1.1" viewBox="0 0 48 48" xml:space="preserve" xmlns="http://www.w3.org/2000/svg" xmlns:cc="http://creativecommons.org/ns#" xmlns:dc="http://purl.org/dc/elements/1.1/" xmlns:rdf="http://www.w3.org/1999/02/22-rdf-syntax-ns#"><defs><style>.cls-1{fill:none;stroke:#fff;stroke-linecap:round;stroke-linejoin:round;}</style><style>.cls-1{fill:none;stroke:#fff;stroke-linecap:round;stroke-linejoin:round;}</style><style>.cls-1{fill:none;stroke:#fff;stroke-linecap:round;stroke-linejoin:round;}</style></defs><metadata><rdf:RDF><cc:Work rdf:about=""><dc:format>image/svg+xml</dc:format><dc:type rdf:resource="http://purl.org/dc/dcmitype/StillImage"/></cc:Work></rdf:RDF></metadata><rect x="4" y="4" width="40" height="40" ry="8" fill="#e663be" fill-rule="evenodd" style="paint-order:stroke fill markers"/><rect x="8" y="8" width="32" height="32" ry="4" fill-rule="evenodd" opacity=".5" style="paint-order:stroke fill markers"/><path d="m25.61 30.993h-3.6221l-3.2516-5.2891-3.2722 5.2891h-3.4986l4.8775-7.5734-4.5893-7.1207h3.4986l3.0253 5.0215 2.9635-5.0215h3.5192l-4.6099 7.3059zm4.0759 0.2058c-1.2485 0-2.2638-0.48706-3.0458-1.4612-0.78204-0.98784-1.1731-2.4353-1.1731-4.3424 0-1.9345 0.39788-3.3888 1.1936-4.363 0.79576-0.98784 1.8385-1.4818 3.1282-1.4818 0.79576 0 1.4406 0.15778 1.9345 0.47334s0.89866 0.70658 1.2142 1.1731h0.1029c-0.04116-0.24696-0.08232-0.58996-0.12348-1.029-0.02744-0.45276-0.04116-0.86436-0.04116-1.2348v-3.5809h3.1282v15.641h-2.3873l-0.6174-1.4612h-0.12348c-0.28812 0.46648-0.686 0.86436-1.1936 1.1936-0.50764 0.31556-1.1731 0.47334-1.9963 0.47334zm1.0907-2.4902c0.83692 0 1.4269-0.2401 1.7699-0.7203 0.343-0.49392 0.52136-1.2417 0.53508-2.2432v-0.32928c0-1.0839-0.16464-1.9139-0.49392-2.4902s-0.93982-0.86436-1.8316-0.86436c-0.67228 0-1.2005 0.28812-1.5847 0.86436-0.37044 0.57624-0.55566 1.4132-0.55566 2.5108s0.18522 1.9208 0.55566 2.4696c0.38416 0.53508 0.91924 0.80262 1.6052 0.80262z" fill="#e663be" stroke-linecap="round" stroke-linejoin="round" stroke-width="3.087" style="paint-order:stroke fill markers" aria-label="Xd"/><path d="m12 4c-4.432 0-8 3.568-8 8v24c0 4.432 3.568 8 8 8h24c4.432 0 8-3.568 8-8v-24c0-4.432-3.568-8-8-8zm0 1h24c3.878 0 7 3.122 7 7v24c0 3.878-3.122 7-7 7h-24c-3.878 0-7-3.122-7-7v-24c0-3.878 3.122-7 7-7z" fill-rule="evenodd" opacity=".3" style="paint-order:stroke fill markers"/><text x="11.85" y="33.946999" fill="#aa5ebb" font-family="Sans" font-size="13.333px" font-style="italic" opacity=".3" stroke-linecap="round" stroke-linejoin="round" stroke-width="2" style="paint-order:stroke fill markers" xml:space="preserve"><tspan x="11.85" y="33.946999"/></text></svg>
