<?xml version="1.0" encoding="UTF-8"?>
<!-- Created with Inkscape (http://www.inkscape.org/) -->
<svg id="SVGRoot" width="48px" height="48px" version="1.1" viewBox="0 0 48 48" xml:space="preserve" xmlns="http://www.w3.org/2000/svg" xmlns:cc="http://creativecommons.org/ns#" xmlns:dc="http://purl.org/dc/elements/1.1/" xmlns:rdf="http://www.w3.org/1999/02/22-rdf-syntax-ns#"><defs><style>.cls-1{fill:none;stroke:#fff;stroke-linecap:round;stroke-linejoin:round;}</style><style>.cls-1{fill:none;stroke:#fff;stroke-linecap:round;stroke-linejoin:round;}</style></defs><metadata><rdf:RDF><cc:Work rdf:about=""><dc:format>image/svg+xml</dc:format><dc:type rdf:resource="http://purl.org/dc/dcmitype/StillImage"/></cc:Work></rdf:RDF></metadata><rect x="4" y="4" width="40" height="40" ry="8" fill="#90F264" fill-rule="evenodd" style="paint-order:stroke fill markers"/><path d="m12 4c-4.432 0-8 3.568-8 8v24c0 4.432 3.568 8 8 8h24c4.432 0 8-3.568 8-8v-24c0-4.432-3.568-8-8-8zm0 1h24c3.878 0 7 3.122 7 7v24c0 3.878-3.122 7-7 7h-24c-3.878 0-7-3.122-7-7v-24c0-3.878 3.122-7 7-7z" fill-rule="evenodd" opacity=".3" style="paint-order:stroke fill markers"/><path d="m33.642 25-6.6422 13h9v-17h-2.7019s-4.9441 9.6492-10.282 11.08c-3.1905 0.8549-3.995-0.68497-3.995-2.2062 0-4.8319 16.994-8.9741 16.994-13.834 0-5.2479-6.8275-6.0398-11.015-6.0398-6.9645 0-11 2-11 2v8s7.2297-6 15-6c2.451 0 5 0.03383 5 2 0 3.2499-21.986 5.2993-21.986 15 0 4.8501 2.6865 7 5.9863 7 9.1337 0 14.94-13.404 14.94-13.404z" fill="#4b4b4b" stroke-linecap="round" stroke-linejoin="round" stroke-width="2"/></svg>
