<?xml version="1.0" encoding="UTF-8"?>
<!-- Created with Inkscape (http://www.inkscape.org/) -->
<svg id="SVGRoot" width="48px" height="48px" version="1.1" viewBox="0 0 48 48" xml:space="preserve" xmlns="http://www.w3.org/2000/svg" xmlns:cc="http://creativecommons.org/ns#" xmlns:dc="http://purl.org/dc/elements/1.1/" xmlns:rdf="http://www.w3.org/1999/02/22-rdf-syntax-ns#"><defs><style>.cls-1{fill:none;stroke:#fff;stroke-linecap:round;stroke-linejoin:round;}</style><style>.cls-1{fill:none;stroke:#fff;stroke-linecap:round;stroke-linejoin:round;}</style></defs><metadata><rdf:RDF><cc:Work rdf:about=""><dc:format>image/svg+xml</dc:format><dc:type rdf:resource="http://purl.org/dc/dcmitype/StillImage"/></cc:Work></rdf:RDF></metadata><rect x="4" y="4" width="40" height="40" ry="8" fill="#46589d" fill-rule="evenodd" style="paint-order:stroke fill markers"/><path d="m12 4c-4.432 0-8 3.568-8 8v24c0 4.432 3.568 8 8 8h24c4.432 0 8-3.568 8-8v-24c0-4.432-3.568-8-8-8zm0 1h24c3.878 0 7 3.122 7 7v24c0 3.878-3.122 7-7 7h-24c-3.878 0-7-3.122-7-7v-24c0-3.878 3.122-7 7-7z" fill-rule="evenodd" opacity=".4" style="paint-order:stroke fill markers"/><g stroke-linecap="round" stroke-linejoin="round" stroke-width="2"><rect x="9" y="16" width="30" height="12" rx="14.94" ry="6" opacity=".3"/><path d="m14 13s1-1 1.8222-1c3 0 4.1778 2 4.1778 2l2 14-10-6z" opacity=".3"/><rect x="12" y="10" width="24" height="24" ry="12" fill="#dce6fc"/><path d="m16.684 12.475c-2.8516 2.19-4.6836 5.636-4.6836 9.5254 0 2.6165 0.82942 5.0323 2.2402 7h9.7598s-8-4-8-13c0-1.8748 0.39063-2.9687 0.68359-3.5254z" opacity=".2"/><path d="m22 28s-8-4-8-15c-4 3-4 11-4 11l6 5z" fill="#889de2"/><path d="m24 38c-11 0-15-10-15-16 0 0 1.5753 6 15 6s15-6 15-6c0 7-4 16-15 16z" fill="#a4b6f1"/></g></svg>
