<?xml version="1.0" encoding="UTF-8"?>
<!-- Created with Inkscape (http://www.inkscape.org/) -->
<svg id="SVGRoot" width="48px" height="48px" version="1.1" viewBox="0 0 48 48" xmlns="http://www.w3.org/2000/svg" xmlns:cc="http://creativecommons.org/ns#" xmlns:dc="http://purl.org/dc/elements/1.1/" xmlns:rdf="http://www.w3.org/1999/02/22-rdf-syntax-ns#">
 <defs>
  <style>.cls-1{fill:none;stroke:#fff;stroke-linecap:round;stroke-linejoin:round;}</style>
 </defs>
 <metadata>
  <rdf:RDF>
   <cc:Work rdf:about="">
    <dc:format>image/svg+xml</dc:format>
    <dc:type rdf:resource="http://purl.org/dc/dcmitype/StillImage"/>
   </cc:Work>
  </rdf:RDF>
 </metadata>
 <path d="m12 4c-4.432 0-8 3.568-8 8v23l12 9h20c4.432 0 8-3.568 8-8v-24c0-4.432-3.568-8-8-8h-24z" fill="#f28a38" fill-rule="evenodd" style="paint-order:stroke fill markers"/>
 <g stroke-width=".26458">
  <path d="m23.137 23.799c3.4051 2.3388 4.2198 4.9669 5.8996 8.6908l3.3418-0.89453c-2.6806-3.8469-4.6877-6.2217-9.2414-7.7963z" fill="#fff" style="paint-order:fill markers stroke"/>
  <path d="m21.117 14.482-1.0059 3.752c5.0582 0.18462 9.8578 2.5281 13.718 5.8266-3.0602-4.5243-7.5609-8.1919-12.712-9.5786z" fill="#fff" style="paint-order:fill markers stroke"/>
  <path d="m18.18 9.5391c-1.3658 0.18844-1.5544 1.249-1.8594 2.3867-0.13964 0.52115 0.034719 1.015 0.29688 1.4395 0.43792 0.70904 0.39249 1.5882 0.15234 2.543-0.46958 1.8669-0.71712 2.6496-1.3691 4.4609-0.75212 2.0894-1.9851 2.8393-3.8984 2.6309-2.4853 0-4.5 2.0147-4.5 4.5 1.092e-4 0.41137 0.056624 0.82078 0.16797 1.2168 0.27137 1.2548-0.036926 2.6015-0.95117 3.6172l-2.2188 2.666v1c0 4.432 3.568 8 8 8h4l0.5293-0.85547c2.4707-3.9932 13.79-6.3781 21.539-9.5195 1.4669-0.39305 2.3305-1.8905 1.9375-3.3574-0.08598-0.32088-0.19641-0.50682-0.33398-0.60547l0.076172-0.35938-2.6426 0.70898h-0.00586l-21.793 6.1582 0.33594-1.252 1.0176-3.7969 3.3887-12.643 1.6094-6.0078 0.51758-1.9316-1.9316-0.51758c-0.0066-0.0018 0.59014 0.17618-0.019532-0.003906-0.61297-0.18106-1.8446-0.48373-2.0449-0.47852z" fill="#17a78b" style="paint-order:fill markers stroke"/>
 </g>
 <circle cx="11.5" cy="27.5" r="3.5" fill="#fff" style="paint-order:fill markers stroke"/>
 <ellipse cx="12.5" cy="26.5" rx="1.5" ry="1.5" fill="#2c3e50" style="paint-order:fill markers stroke"/>
 <path d="m21.207 10.279-8.8672 27.633h2e-3c-0.08714 0.32546-0.0041 0.6729 0.2207 0.92383 0.2513 0.27995 0.63871 0.39473 1.002 0.29688v0.0038l26.439-8.869-0.25781-0.96484-24.441 6.8672 6.8691-25.631z" fill="#3ee5c4" stroke-width=".26458" style="paint-order:fill markers stroke"/>
 <path d="m22.174 10.539-4.3774 23.139 21.95-4.3754-24.441 6.8672z" opacity=".4" style="paint-order:fill markers stroke"/>
 <path d="m12 4c-4.432 0-8 3.568-8 8v24c0 4.432 3.568 8 8 8h24c4.432 0 8-3.568 8-8v-24c0-4.432-3.568-8-8-8zm0 1h24c3.878 0 7 3.122 7 7v24c0 3.878-3.122 7-7 7h-24c-3.878 0-7-3.122-7-7v-24c0-3.878 3.122-7 7-7z" fill-rule="evenodd" opacity=".3" style="paint-order:stroke fill markers"/>
</svg>
