<?xml version="1.0" encoding="UTF-8"?>
<!-- Created with Inkscape (http://www.inkscape.org/) -->
<svg id="SVGRoot" width="48px" height="48px" version="1.1" viewBox="0 0 48 48" xml:space="preserve" xmlns="http://www.w3.org/2000/svg" xmlns:cc="http://creativecommons.org/ns#" xmlns:dc="http://purl.org/dc/elements/1.1/" xmlns:rdf="http://www.w3.org/1999/02/22-rdf-syntax-ns#"><defs><style>.cls-1{fill:none;stroke:#fff;stroke-linecap:round;stroke-linejoin:round;}</style><linearGradient id="linearGradient2" x1="24" x2="24" y1="6" y2="42" gradientUnits="userSpaceOnUse"><stop stop-color="#89f3b0" offset="0"/><stop stop-color="#438bd6" offset="1"/></linearGradient></defs><metadata><rdf:RDF><cc:Work rdf:about=""><dc:format>image/svg+xml</dc:format><dc:type rdf:resource="http://purl.org/dc/dcmitype/StillImage"/></cc:Work></rdf:RDF></metadata><rect x="4" y="4" width="40" height="40" ry="8" fill="url(#linearGradient2)" fill-rule="evenodd" style="paint-order:stroke fill markers"/><path d="m12 4c-4.432 0-8 3.568-8 8v24c0 4.432 3.568 8 8 8h24c4.432 0 8-3.568 8-8v-24c0-4.432-3.568-8-8-8zm0 1h24c3.878 0 7 3.122 7 7v24c0 3.878-3.122 7-7 7h-24c-3.878 0-7-3.122-7-7v-24c0-3.878 3.122-7 7-7z" fill-rule="evenodd" opacity=".3" style="paint-order:stroke fill markers"/><path d="m30.117 35.952c-2.3784-0.45861-3.9952-2.8428-6.4593-3.1963-2.6335-0.37778-4.9528 1.1958-7.1892 2.3528-1.5957 0.82546-3.6662 1.155-5.0837-0.22167-1.9839-1.9267-1.7849-5.4381-0.07436-7.4085 1.0916-1.2574 2.7936-1.6373 4.1749-2.4765 1.8903-1.1484 4.2727-1.9399 5.3359-4.094 1.2421-2.5166 1.7511-5.6058 3.8963-7.5019 1.4317-1.2654 3.8939-1.9871 5.4503-0.64989 1.4548 1.2499 1.5618 3.5261 1.5209 5.4021-0.04247 1.9451-0.60648 4.1702 0.53617 5.8636 1.2301 1.823 4.016 1.4337 5.1622 3.4115 1.1357 1.9597 0.05909 4.3534-1.2778 5.868-1.5086 1.709-3.7371 3.0857-5.9921 2.6508z" fill="#fff" stroke-width=".063822"/></svg>
