<?xml version="1.0" encoding="UTF-8"?>
<!-- Created with Inkscape (http://www.inkscape.org/) -->
<svg id="SVGRoot" width="48px" height="48px" version="1.1" viewBox="0 0 48 48" xmlns="http://www.w3.org/2000/svg" xmlns:cc="http://creativecommons.org/ns#" xmlns:dc="http://purl.org/dc/elements/1.1/" xmlns:rdf="http://www.w3.org/1999/02/22-rdf-syntax-ns#">
 <defs id="defs815">
  <style id="style819">.cls-1{fill:none;stroke:#fff;stroke-linecap:round;stroke-linejoin:round;}</style>
 </defs>
 <metadata id="metadata818">
  <rdf:RDF>
   <cc:Work rdf:about="">
    <dc:format>image/svg+xml</dc:format>
    <dc:type rdf:resource="http://purl.org/dc/dcmitype/StillImage"/>
    <dc:title/>
   </cc:Work>
  </rdf:RDF>
 </metadata>
 <g id="layer1">
  <rect id="rect1373-5" x="4" y="4" width="40" height="40" ry="8" fill="#8e58b5" fill-rule="evenodd" style="paint-order:stroke fill markers"/>
  <path id="rect817" d="m12 4c-4.432 0-8 3.568-8 8v24c0 4.432 3.568 8 8 8h24c4.432 0 8-3.568 8-8v-24c0-4.432-3.568-8-8-8h-24zm0 1h24c3.878 0 7 3.122 7 7v24c0 3.878-3.122 7-7 7h-24c-3.878 0-7-3.122-7-7v-24c0-3.878 3.122-7 7-7z" fill-rule="evenodd" opacity=".3" style="paint-order:stroke fill markers"/>
  <path id="path846" d="m28.227 8.0781c-2.7186 1.565-3.4297 3.4297-3.4297 3.4297 0 0-1.9192-0.53018-2.9023-0.52734-6.8954 0.019899-9.8945 4.0195-9.8945 4.0195h3s-5.061 1.9948-8 8c-0.047816 0.07707 2-1 2-1s-1 3-1 6v6c0 3.324 2.676 6 6 6h12v-3c0-4.9856-4-8.5933-4-11 0-1.9326 0.55923-3.6174 2-4 3.1585 3.9556 6 4 6 4s0.30976 2 2 2c2.3815 0 3-1.5858 3-3 0-1.0044-0.47693-1.4146-1.125-2.6738-1.2374-2.4042-2.8049-5.8007-3.875-7.3262-1.2658-1.8045-1.4219-3.4922-1.4219-3.4922 0 0-0.0235-0.94602 0.66016-2.375-1.046 0.49707-1.627 1.2324-1.627 1.2324s-0.02051-0.74896 0.61523-2.2871z" fill="#e3d9ea"/>
 </g>
</svg>
