<?xml version="1.0" encoding="UTF-8"?>
<!-- Created with Inkscape (http://www.inkscape.org/) -->
<svg id="SVGRoot" width="48px" height="48px" version="1.1" viewBox="0 0 48 48" xml:space="preserve" xmlns="http://www.w3.org/2000/svg" xmlns:cc="http://creativecommons.org/ns#" xmlns:dc="http://purl.org/dc/elements/1.1/" xmlns:rdf="http://www.w3.org/1999/02/22-rdf-syntax-ns#"><defs><style>.cls-1{fill:none;stroke:#fff;stroke-linecap:round;stroke-linejoin:round;}</style><style>.cls-1{fill:none;stroke:#fff;stroke-linecap:round;stroke-linejoin:round;}</style><style id="current-color-scheme" type="text/css">.ColorScheme-Text {
        color:#31363b;
      }
      .ColorScheme-Accent {
        color:#3daee9;
      }</style></defs><metadata><rdf:RDF><cc:Work rdf:about=""><dc:format>image/svg+xml</dc:format><dc:type rdf:resource="http://purl.org/dc/dcmitype/StillImage"/></cc:Work></rdf:RDF></metadata><rect x="4" y="4" width="40" height="40" ry="8" fill="#7289ec" fill-rule="evenodd" style="paint-order:stroke fill markers"/><path d="m12 4c-4.432 0-8 3.568-8 8v24c0 4.432 3.568 8 8 8h24c4.432 0 8-3.568 8-8v-24c0-4.432-3.568-8-8-8zm0 1h24c3.878 0 7 3.122 7 7v24c0 3.878-3.122 7-7 7h-24c-3.878 0-7-3.122-7-7v-24c0-3.878 3.122-7 7-7z" fill-rule="evenodd" opacity=".3" style="paint-order:stroke fill markers"/><path d="m24 9a2 2 0 0 0-2 2v2a2.0002 2.0002 0 0 0 1.2578 1.8574l0.35547 0.14258-5.3555 2.1426a2.0002 2.0002 0 0 0 0.16797 3.7734l4.5137 1.3535-4.6816 1.873a2.0002 2.0002 0 0 0 0.34961 3.8184l4.2852 0.85742-4.7871 2.3926a2.0002 2.0002 0 0 0 0.15234 3.6465l3.7422 1.4961v0.64648a2 2 0 0 0 2 2 2 2 0 0 0 2-2v-2a2.0002 2.0002 0 0 0-1.2578-1.8574l-0.86328-0.3457 6.0156-3.0078a2.0002 2.0002 0 0 0-0.50195-3.75l-3.4023-0.67969 3.752-1.502a2.0002 2.0002 0 0 0-0.16797-3.7734l-4.5137-1.3535 4.6816-1.873a2.0002 2.0002 0 0 0 0-3.7148l-3.7422-1.4961v-0.64648a2 2 0 0 0-2-2z" fill="#efefef" stop-color="#000000" stroke-linecap="round" stroke-linejoin="round"/><g fill="#fff"><rect x="6" y="12" width="14" height="2" opacity=".3"/><rect x="6" y="24" width="9" height="2" opacity=".3"/><path d="m11 15-2 2h1v4h-1l2 2 2-2h-1v-4h1z" opacity=".3"/><rect transform="scale(-1)" x="-42" y="-36" width="14" height="2" opacity=".3"/><rect transform="scale(-1)" x="-42" y="-24" width="9" height="2" opacity=".3"/><path d="m37 33 2-2h-1v-4h1l-2-2-2 2h1v4h-1z" opacity=".3"/></g><g><path d="m18.105 31.211 5.7734 1.5859 6.0156-3.0078-7.002-0.9707z" opacity=".2"/><path d="m18.258 24.143 7.7324 1.2168 3.752-1.502-6.8027-1.5879z" opacity=".2"/><path d="m25.061 18.73-6.8027-1.5879 5.3555-2.1426 6.1289 1.8574z" opacity=".2"/></g></svg>
