<?xml version="1.0" encoding="UTF-8"?>
<!-- Created with Inkscape (http://www.inkscape.org/) -->
<svg id="SVGRoot" width="48px" height="48px" version="1.1" viewBox="0 0 48 48" xmlns="http://www.w3.org/2000/svg" xmlns:cc="http://creativecommons.org/ns#" xmlns:dc="http://purl.org/dc/elements/1.1/" xmlns:rdf="http://www.w3.org/1999/02/22-rdf-syntax-ns#">
 <defs id="defs815">
  <style id="style819">.cls-1{fill:none;stroke:#fff;stroke-linecap:round;stroke-linejoin:round;}</style>
  <style id="style2">.a{fill:none;stroke:#b1b5bd;stroke-linecap:round;stroke-linejoin:round;isolation:isolate;opacity:0.63;}</style>
  <style id="style819-0">.cls-1{fill:none;stroke:#fff;stroke-linecap:round;stroke-linejoin:round;}</style>
 </defs>
 <metadata id="metadata818">
  <rdf:RDF>
   <cc:Work rdf:about="">
    <dc:format>image/svg+xml</dc:format>
    <dc:type rdf:resource="http://purl.org/dc/dcmitype/StillImage"/>
    <dc:title/>
   </cc:Work>
  </rdf:RDF>
 </metadata>
 <g id="layer1">
  <rect id="rect1373-5" x="4" y="4" width="40" height="40" ry="8" fill="#92b4da" fill-rule="evenodd" style="paint-order:stroke fill markers"/>
  <path id="rect817" d="m12 4c-4.432 0-8 3.568-8 8v24c0 4.432 3.568 8 8 8h24c4.432 0 8-3.568 8-8v-24c0-4.432-3.568-8-8-8h-24zm0 1h24c3.878 0 7 3.122 7 7v24c0 3.878-3.122 7-7 7h-24c-3.878 0-7-3.122-7-7v-24c0-3.878 3.122-7 7-7z" fill-rule="evenodd" opacity=".3" style="paint-order:stroke fill markers"/>
  <rect id="rect858" x="18" y="18" width="12" height="12" ry="6" fill="#92b4da" fill-rule="evenodd" style="paint-order:stroke fill markers"/>
  <path id="path885" d="m12.019 25.008c-0.17985-6.5951 8.9673-7.5074 8.9673-7.5074l-0.12212 0.9453s-6.9966 0.68482-7.0781 5.751c-0.05234 3.2457 6.1737 5.9404 10.568 5.7019 6.2227-0.3381 9.6875-2.8809 9.88-5.8003 0.19004-2.8821-4.1781-4.9155-4.1781-4.9155l0.73729-0.44239s5.2362 1.799 5.1119 5.4561c-0.15951 4.7008-4.0976 7.8549-11.649 7.9629-5.1172 0.07323-12.108-2.429-12.237-7.1516z" fill="#fff" stroke-width=".33128"/>
  <path id="path887" d="m22.85 12.074-9.4414 23.852h4.6379l5.963-14.576 3.12 7.627c1.6995-0.33079 3.5056-1.0016 4.1184-1.5024l-6.0789-15.4zm9.721 18.7c-1.1331 0.68346-2.4952 1.1979-4.0807 1.5289l1.4823 3.6228h4.6379z" fill="#fff" stroke-width=".33128"/>
  <circle id="circle889" cx="29.761" cy="18.79" r="1.1305" fill="#fff" stroke-width=".33128" style="paint-order:stroke fill markers"/>
 </g>
</svg>
