<?xml version="1.0" encoding="UTF-8"?>
<!-- Created with Inkscape (http://www.inkscape.org/) -->
<svg id="SVGRoot" width="48px" height="48px" version="1.1" viewBox="0 0 48 48" xml:space="preserve" xmlns="http://www.w3.org/2000/svg" xmlns:cc="http://creativecommons.org/ns#" xmlns:dc="http://purl.org/dc/elements/1.1/" xmlns:rdf="http://www.w3.org/1999/02/22-rdf-syntax-ns#"><defs><style>.cls-1{fill:none;stroke:#fff;stroke-linecap:round;stroke-linejoin:round;}</style><style>.cls-1{fill:none;stroke:#fff;stroke-linecap:round;stroke-linejoin:round;}</style><style>.cls-1{fill:none;stroke:#fff;stroke-linecap:round;stroke-linejoin:round;}</style><style>.a{fill:none;stroke:#b1b5bd;stroke-linecap:round;stroke-linejoin:round;isolation:isolate;opacity:0.63;}</style><style>.cls-1{fill:none;stroke:#fff;stroke-linecap:round;stroke-linejoin:round;}</style><style>.cls-1{fill:none;stroke:#fff;stroke-linecap:round;stroke-linejoin:round;}</style><style>.cls-1{fill:none;stroke:#fff;stroke-linecap:round;stroke-linejoin:round;}</style><style>.cls-1{fill:none;stroke:#fff;stroke-linecap:round;stroke-linejoin:round;}</style><style>.cls-1{fill:none;stroke:#fff;stroke-linecap:round;stroke-linejoin:round;}</style><style>.cls-1{fill:none;stroke:#fff;stroke-linecap:round;stroke-linejoin:round;}</style><style>.cls-1{fill:none;stroke:#fff;stroke-linecap:round;stroke-linejoin:round;}</style></defs><metadata><rdf:RDF><cc:Work rdf:about=""><dc:format>image/svg+xml</dc:format><dc:type rdf:resource="http://purl.org/dc/dcmitype/StillImage"/></cc:Work></rdf:RDF></metadata><rect x="4" y="4" width="40" height="40" ry="8" fill="#729dec" fill-rule="evenodd" style="paint-order:stroke fill markers"/><path d="m12 4c-4.432 0-8 3.568-8 8v24c0 4.432 3.568 8 8 8h24c4.432 0 8-3.568 8-8v-24c0-4.432-3.568-8-8-8zm0 1h24c3.878 0 7 3.122 7 7v24c0 3.878-3.122 7-7 7h-24c-3.878 0-7-3.122-7-7v-24c0-3.878 3.122-7 7-7z" fill-rule="evenodd" opacity=".3" style="paint-order:stroke fill markers"/><path d="m12 6c-3.324 0-6 2.676-6 6v9l10 10v5c0 5 6 5 6 5v1h14c3.324 0 6-2.676 6-6v-0.64844c-0.88464-0.78406-2.1576-1.3516-4-1.3516h-6v-6s0-4-4-4h-13v-3h3c4 0 4-4 4-4v-7h7c3 0 3-3 3-3v-1h-20z" opacity=".25"/><path d="m12 8c-2.216 0-4 1.784-4 4v8c0 1.108 0.892 2 2 2h2l4 4v-4h8c1.108 0 2-0.892 2-2v-10c0-1.108-0.892-2-2-2z" fill="#96d56b" stroke-linecap="round" stroke-linejoin="round" stroke-width="4"/><path d="m36 40c2.216 0 4-1.784 4-4v-8c0-1.108-0.892-2-2-2h-2l-4-4v4h-8c-1.108 0-2 0.892-2 2v10c0 1.108 0.892 2 2 2z" fill="#7e42a7" stroke-linecap="round" stroke-linejoin="round" stroke-width="4"/><path d="m32.241 28.082-0.33967 6.5759h-1.6384l-0.33967-6.5759zm-1.1589 7.6393c0.32737 0 0.60942 0.08698 0.84586 0.25975 0.22734 0.17278 0.34189 0.46752 0.34189 0.88582 0 0.40011-0.11456 0.69063-0.34189 0.8725-0.23643 0.17278-0.51849 0.25975-0.84586 0.25975-0.31827 0-0.59188-0.08698-0.81922-0.25975-0.23643-0.18187-0.353-0.47238-0.353-0.8725 0-0.4183 0.11656-0.71304 0.353-0.88582 0.22734-0.17278 0.50094-0.25975 0.81922-0.25975z" fill="#c184ed"/><path d="m17.474 10c-0.61369 0-1.1777 0.07573-1.6922 0.22915-0.51442 0.15342-0.99215 0.35343-1.4344 0.5971l0.71608 1.474c0.38807-0.19855 0.7669-0.35639 1.1369-0.47372 0.37904-0.11732 0.76008-0.17627 1.1391-0.17627 0.37002 0 0.65834 0.07793 0.86591 0.23135 0.2166 0.15342 0.32389 0.37021 0.32389 0.64998 0 0.1805-0.03156 0.34673-0.09474 0.50016-0.05415 0.1444-0.16144 0.29805-0.32389 0.4605s-0.40661 0.35606-0.7315 0.58168c-0.46027 0.32489-0.77176 0.64478-0.93421 0.96065-0.16245 0.30684-0.24457 0.68568-0.24457 1.1369v0.48914h1.6128v-0.29965c0-0.18952 0.02517-0.35156 0.07932-0.48694 0.06317-0.13537 0.17267-0.27423 0.32609-0.41863 0.15342-0.15342 0.37021-0.33025 0.64998-0.5288 0.53246-0.37904 0.92808-0.75788 1.1898-1.1369s0.3944-0.84419 0.3944-1.3947c0-0.73101-0.26315-1.3118-0.78659-1.745-0.51442-0.43319-1.2447-0.64998-2.1923-0.64998zm-0.37897 7.7161c-0.33392 0-0.61385 0.08632-0.83947 0.25779-0.22562 0.17147-0.33931 0.46398-0.33931 0.87913 0 0.39709 0.11369 0.68541 0.33931 0.86591 0.22562 0.17147 0.50555 0.25779 0.83947 0.25779 0.30684 0 0.57198-0.08632 0.7976-0.25779 0.23464-0.1805 0.35253-0.46882 0.35253-0.86591 0-0.41514-0.11789-0.70766-0.35253-0.87913-0.22562-0.17147-0.49076-0.25779-0.7976-0.25779z" opacity=".3" stroke-linecap="round" stroke-linejoin="round" stroke-width="4.5124"/></svg>
