<?xml version="1.0" encoding="UTF-8"?>
<!-- Created with Inkscape (http://www.inkscape.org/) -->
<svg id="SVGRoot" width="48px" height="48px" version="1.1" viewBox="0 0 48 48" xmlns="http://www.w3.org/2000/svg" xmlns:cc="http://creativecommons.org/ns#" xmlns:dc="http://purl.org/dc/elements/1.1/" xmlns:rdf="http://www.w3.org/1999/02/22-rdf-syntax-ns#">
 <defs id="defs815">
  <style id="style819">.cls-1{fill:none;stroke:#fff;stroke-linecap:round;stroke-linejoin:round;}</style>
 </defs>
 <metadata id="metadata818">
  <rdf:RDF>
   <cc:Work rdf:about="">
    <dc:format>image/svg+xml</dc:format>
    <dc:type rdf:resource="http://purl.org/dc/dcmitype/StillImage"/>
    <dc:title/>
   </cc:Work>
  </rdf:RDF>
 </metadata>
 <g id="layer1">
  <rect id="rect1373-5" x="4" y="4" width="40" height="40" ry="8" fill="#59ca84" fill-rule="evenodd" style="paint-order:stroke fill markers"/>
  <path id="rect817" d="m12 4c-4.432 0-8 3.568-8 8v24c0 4.432 3.568 8 8 8h24c4.432 0 8-3.568 8-8v-24c0-4.432-3.568-8-8-8h-24zm0 1h24c3.878 0 7 3.122 7 7v24c0 3.878-3.122 7-7 7h-24c-3.878 0-7-3.122-7-7v-24c0-3.878 3.122-7 7-7z" fill-rule="evenodd" opacity=".3" style="paint-order:stroke fill markers"/>
  <rect id="rect842" x="22" y="22" width="4" height="4" ry="2" fill="#fff" fill-rule="evenodd" style="paint-order:normal"/>
  <path id="path844" d="m12.01 27.063s-3.3858-1.7693-3.416-3.5762c-0.061679-3.6802 9.3241-5.0455 14.305-4.9639 5.9065 0.09673 16.208 1.5214 16.173 6.4585-0.01432 1.9834-3.5228 3.0958-3.5228 3.0958" fill="none" stroke="#fff" stroke-linecap="round" stroke-linejoin="round" stroke-width="1.5"/>
  <path id="path844-2" d="m20.765 35.321s-3.2937 1.9353-4.8425 1.0042c-3.1546-1.8964 0.65704-10.581 3.3635-14.763 3.2096-4.9593 9.0191-12.464 13.188-9.8193 1.675 1.0624 0.86758 4.7878 0.86758 4.7878" fill="none" stroke="#fff" stroke-linecap="round" stroke-linejoin="round" stroke-width="1.5"/>
  <path id="path844-1" d="m29.37 22.224s1.9699 3.5435 2.5697 7.1995c0.59975 3.656 0.89684 6.8906-0.95433 7.8742-3.2504 1.727-8.9227-5.1384-11.258-9.5384-2.7692-5.218-6.4996-14.926-2.1599-17.28 1.7435-0.94583 4.4126 1.5884 4.4126 1.5884" fill="none" stroke="#fff" stroke-linecap="round" stroke-linejoin="round" stroke-width="1.5"/>
 </g>
</svg>
