<?xml version="1.0" encoding="UTF-8"?>
<!-- Created with Inkscape (http://www.inkscape.org/) -->
<svg id="SVGRoot" width="48px" height="48px" version="1.1" viewBox="0 0 48 48" xmlns="http://www.w3.org/2000/svg" xmlns:cc="http://creativecommons.org/ns#" xmlns:dc="http://purl.org/dc/elements/1.1/" xmlns:rdf="http://www.w3.org/1999/02/22-rdf-syntax-ns#">
 <defs id="defs815">
  <style id="style819">.cls-1{fill:none;stroke:#fff;stroke-linecap:round;stroke-linejoin:round;}</style>
 </defs>
 <metadata id="metadata818">
  <rdf:RDF>
   <cc:Work rdf:about="">
    <dc:format>image/svg+xml</dc:format>
    <dc:type rdf:resource="http://purl.org/dc/dcmitype/StillImage"/>
    <dc:title/>
   </cc:Work>
  </rdf:RDF>
 </metadata>
 <g id="layer1" fill-rule="evenodd">
  <rect id="rect1373-5" x="4" y="4" width="40" height="40" ry="8" fill="#4e4e4e" style="paint-order:stroke fill markers"/>
  <path id="rect817" d="m12 4c-4.432 0-8 3.568-8 8v24c0 4.432 3.568 8 8 8h24c4.432 0 8-3.568 8-8v-24c0-4.432-3.568-8-8-8h-24zm0 1h24c3.878 0 7 3.122 7 7v24c0 3.878-3.122 7-7 7h-24c-3.878 0-7-3.122-7-7v-24c0-3.878 3.122-7 7-7z" opacity=".4" style="paint-order:stroke fill markers"/>
  <rect id="rect844" x="22" y="22" width="4" height="4" ry="2" fill="#bfea83" style="paint-order:stroke fill markers"/>
  <path id="rect836" d="m24 10c-3.324 0-6 6.244-6 14s2.676 14 6 14 6-6.244 6-14-2.676-14-6-14zm0 2c2.216 0 4 5.352 4 12s-1.784 12-4 12-4-5.352-4-12 1.784-12 4-12z" fill="#bfea83" style="paint-order:normal"/>
  <path id="rect836-9-1" d="m35.905 16.633c1.7491 2.8266-2.1524 8.3878-8.7477 12.469-6.5954 4.0813-13.313 5.0914-15.062 2.2648-1.7491-2.8266 2.1524-8.3878 8.7477-12.469 6.5954-4.0813 13.313-5.0914 15.062-2.2648zm-1.7007 1.0524c-1.1661-1.8844-6.6559-0.58515-12.309 2.9131-5.6532 3.4982-9.2655 7.8315-8.0994 9.7159s6.6559 0.58515 12.309-2.9131c5.6532-3.4982 9.2655-7.8315 8.0994-9.7159z" fill="#bfea83" style="paint-order:normal"/>
  <path id="rect836-9-1-0" d="m12.095 16.633c-1.7491 2.8266 2.1524 8.3878 8.7477 12.469 6.5954 4.0813 13.313 5.0914 15.062 2.2648 1.7491-2.8266-2.1524-8.3878-8.7477-12.469-6.5954-4.0813-13.313-5.0914-15.062-2.2648zm1.7007 1.0524c1.1661-1.8844 6.6559-0.58515 12.309 2.9131 5.6532 3.4982 9.2655 7.8315 8.0994 9.7159s-6.6559 0.58515-12.309-2.9131c-5.6532-3.4982-9.2655-7.8315-8.0994-9.7159z" fill="#bfea83" style="paint-order:normal"/>
 </g>
</svg>
