<?xml version="1.0" encoding="UTF-8"?>
<!-- Created with Inkscape (http://www.inkscape.org/) -->
<svg id="SVGRoot" width="48px" height="48px" version="1.1" viewBox="0 0 48 48" xmlns="http://www.w3.org/2000/svg" xmlns:cc="http://creativecommons.org/ns#" xmlns:dc="http://purl.org/dc/elements/1.1/" xmlns:rdf="http://www.w3.org/1999/02/22-rdf-syntax-ns#">
 <defs id="defs815">
  <style id="style819">.cls-1{fill:none;stroke:#fff;stroke-linecap:round;stroke-linejoin:round;}</style>
 </defs>
 <metadata id="metadata818">
  <rdf:RDF>
   <cc:Work rdf:about="">
    <dc:format>image/svg+xml</dc:format>
    <dc:type rdf:resource="http://purl.org/dc/dcmitype/StillImage"/>
    <dc:title/>
   </cc:Work>
  </rdf:RDF>
 </metadata>
 <g id="layer1" fill-rule="evenodd">
  <rect id="rect1373-5" x="4" y="4" width="40" height="40" ry="8" fill="#4e4e4e" style="paint-order:stroke fill markers"/>
  <path id="rect817" d="m12 4c-4.432 0-8 3.568-8 8v24c0 4.432 3.568 8 8 8h24c4.432 0 8-3.568 8-8v-24c0-4.432-3.568-8-8-8h-24zm0 1h24c3.878 0 7 3.122 7 7v24c0 3.878-3.122 7-7 7h-24c-3.878 0-7-3.122-7-7v-24c0-3.878 3.122-7 7-7z" opacity=".4" style="paint-order:stroke fill markers"/>
  <path id="path827" d="m24.572 14.018c-0.31453-0.0084-0.63078-7e-3 -0.94531 0.0039-2.8121 0.0976-7.8839 0.98074-7.627 2.8984 0.15745 1.1753 1.1584 2.9068 2.3633 2.7168 3.8208-0.60244 4.5127-0.64141 5.6387-0.54297 0.54536 0.04768 1.3684 0.25684 1.4297 0.78516 0.06957 0.59981-0.75924 1.2272-1.3809 1.2188-2.5049-0.03437-9.6997 0.91031-10.006 6.9414-0.15092 2.9725 2.8487 5.5729 7.1582 5.6035 3.1395 0.02228 4.2747-1.5048 5.4707-1.5078 0.88166-0.0022 3.2324 1.8711 3.2324 1.8711l4.043-3.0176s-1.2441-1.4327-1.2441-2.2969c1.5e-5 -1.9241 1.3665-2.7714 1.3066-5.4922-0.14701-6.6816-4.7215-9.0551-9.4395-9.1816zm-0.57227 10.982c1.108 0 2 0.892 2 2s-0.892 2-2 2-2-0.892-2-2 0.892-2 2-2z" fill="#b7bfc2" style="paint-order:normal"/>
 </g>
</svg>
