<?xml version="1.0" encoding="UTF-8"?>
<!-- Created with Inkscape (http://www.inkscape.org/) -->
<svg id="SVGRoot" width="48px" height="48px" version="1.1" viewBox="0 0 48 48" xmlns="http://www.w3.org/2000/svg" xmlns:cc="http://creativecommons.org/ns#" xmlns:dc="http://purl.org/dc/elements/1.1/" xmlns:rdf="http://www.w3.org/1999/02/22-rdf-syntax-ns#" xmlns:xlink="http://www.w3.org/1999/xlink">
 <defs id="defs815">
  <style id="style819">.cls-1{fill:none;stroke:#fff;stroke-linecap:round;stroke-linejoin:round;}</style>
  <style id="style819-4">.cls-1{fill:none;stroke:#fff;stroke-linecap:round;stroke-linejoin:round;}</style>
  <style id="style819-5">.cls-1{fill:none;stroke:#fff;stroke-linecap:round;stroke-linejoin:round;}</style>
  <style id="style2">.a{fill:none;stroke:#b1b5bd;stroke-linecap:round;stroke-linejoin:round;isolation:isolate;opacity:0.63;}</style>
  <style id="style819-1">.cls-1{fill:none;stroke:#fff;stroke-linecap:round;stroke-linejoin:round;}</style>
  <style id="style819-6">.cls-1{fill:none;stroke:#fff;stroke-linecap:round;stroke-linejoin:round;}</style>
  <style id="style2-9">.a{fill:none;stroke:#b1b5bd;stroke-linecap:round;stroke-linejoin:round;isolation:isolate;opacity:0.63;}</style>
  <style id="style819-1-5">.cls-1{fill:none;stroke:#fff;stroke-linecap:round;stroke-linejoin:round;}</style>
  <style id="style819-0">.cls-1{fill:none;stroke:#fff;stroke-linecap:round;stroke-linejoin:round;}</style>
 </defs>
 <metadata id="metadata818">
  <rdf:RDF>
   <cc:Work rdf:about="">
    <dc:format>image/svg+xml</dc:format>
    <dc:type rdf:resource="http://purl.org/dc/dcmitype/StillImage"/>
    <dc:title/>
   </cc:Work>
  </rdf:RDF>
 </metadata>
 <g id="layer1" fill-rule="evenodd">
  <rect id="rect1373-5" x="4" y="4" width="40" height="40" ry="8" fill="#46589d" style="paint-order:stroke fill markers"/>
  <path id="rect817" d="m12 4c-4.432 0-8 3.568-8 8v24c0 4.432 3.568 8 8 8h24c4.432 0 8-3.568 8-8v-24c0-4.432-3.568-8-8-8h-24zm0 1h24c3.878 0 7 3.122 7 7v24c0 3.878-3.122 7-7 7h-24c-3.878 0-7-3.122-7-7v-24c0-3.878 3.122-7 7-7z" opacity=".4" style="paint-order:stroke fill markers"/>
  <path id="rect835" d="m20 19c-1.108 0-2 0.892-2 2s-0.892 2-2 2-2-0.892-2-2v15c0-1.108 0.892-2 2-2s2 0.892 2 2 0.892 2 2 2 2-0.892 2-2c0-0.1385 0.01446-0.27387 0.04102-0.4043 0.18588-0.91301 0.98948-1.5957 1.959-1.5957 1.108 0 2 0.892 2 2s0.892 2 2 2 2-0.892 2-2 0.892-2 2-2 2 0.892 2 2v-15c0 1.108-0.892 2-2 2s-2-0.892-2-2-0.892-2-2-2-2 0.892-2 2-0.892 2-2 2-2-0.892-2-2-0.892-2-2-2z" fill="#ffdd75" style="paint-order:stroke fill markers"/>
  <path id="rect915" d="m20 23c-0.554 0-1 0.446-1 1v2s0 1-1 1-1-1-1-1c0-0.554-0.446-1-1-1s-1 0.446-1 1v5c0 0.554 0.446 1 1 1s1-0.446 1-1c0 0 0-1 1-1s1 1 1 1v2c0 0.554 0.446 1 1 1s1-0.446 1-1v-2s0-1 1-1 1 1 1 1c0 0.554 0.446 1 1 1s1-0.446 1-1c0 0 0-1 1-1s1 1 1 1v2c0 0.554 0.446 1 1 1s1-0.446 1-1v-2s0-1 1-1 1 1 1 1c0 0.554 0.446 1 1 1s1-0.446 1-1v-5c0-0.554-0.446-1-1-1s-1 0.446-1 1c0 0 0 1-1 1s-1-1-1-1v-2c0-0.554-0.446-1-1-1s-1 0.446-1 1v2s0 1-1 1-1-1-1-1c0-0.554-0.446-1-1-1s-1 0.446-1 1c0 0 0 1-1 1s-1-1-1-1v-2c0-0.554-0.446-1-1-1z" fill="#d35244" style="paint-order:stroke fill markers"/>
  <path id="rect818" d="m22 11c-4.986 0-9 4.014-9 9v1.0723c-1.7945 1.3798-3 3.9563-3 6.9277 0 4.432 2.676 8 6 8v-16c0-3.324 2.676-6 6-6h4c3.324 0 6 2.676 6 6v16c3.324 0 6-3.568 6-8 0-2.9714-1.2055-5.5479-3-6.9277v-1.0723c0-4.986-4.014-9-9-9z" fill="#729dec" style="paint-order:stroke fill markers"/>
 </g>
</svg>
