<?xml version="1.0" encoding="UTF-8"?>
<!-- Created with Inkscape (http://www.inkscape.org/) -->
<svg id="SVGRoot" width="48px" height="48px" version="1.1" viewBox="0 0 48 48" xmlns="http://www.w3.org/2000/svg" xmlns:cc="http://creativecommons.org/ns#" xmlns:dc="http://purl.org/dc/elements/1.1/" xmlns:rdf="http://www.w3.org/1999/02/22-rdf-syntax-ns#">
 <defs id="defs815">
  <style id="style819">.cls-1{fill:none;stroke:#fff;stroke-linecap:round;stroke-linejoin:round;}</style>
 </defs>
 <metadata id="metadata818">
  <rdf:RDF>
   <cc:Work rdf:about="">
    <dc:format>image/svg+xml</dc:format>
    <dc:type rdf:resource="http://purl.org/dc/dcmitype/StillImage"/>
    <dc:title/>
   </cc:Work>
  </rdf:RDF>
 </metadata>
 <g id="layer1">
  <rect id="rect1373-5" x="4" y="4" width="40" height="40" ry="8" fill="#71b9e3" fill-rule="evenodd" style="paint-order:stroke fill markers"/>
  <path id="path832" d="m20.621 5.9766-6.7578 3.3809s0.3725 2.6255-0.75391 3.752c-1.1264 1.1264-3.752 0.75391-3.752 0.75391l-3.3809 6.7578s2.0547 1.1261 2.0547 3.3789-2.0547 3.3789-2.0547 3.3789l3.3809 6.7578s2.4107-0.30024 3.5371 0.82617c1.1264 1.1264 0.96875 3.6797 0.96875 3.6797l6.7578 3.3809s1.1261-2.127 3.3789-2.127 3.3789 2.127 3.3789 2.127l6.7578-3.3809s-0.15766-2.5533 0.96875-3.6797c1.1264-1.1264 3.5371-0.82617 3.5371-0.82617l3.3809-6.7578s-2.0547-1.1261-2.0547-3.3789c0-2.2528 2.0547-3.3789 2.0547-3.3789l-3.3809-6.7578s-2.6255 0.3725-3.752-0.75391c-1.1264-1.1264-0.75391-3.752-0.75391-3.752l-6.7578-3.3809s-1.1261 1.9121-3.3789 1.9121-3.3789-1.9121-3.3789-1.9121z" fill="#3772ae"/>
  <path id="rect817" d="m12 4c-4.432 0-8 3.568-8 8v24c0 4.432 3.568 8 8 8h24c4.432 0 8-3.568 8-8v-24c0-4.432-3.568-8-8-8h-24zm0 1h24c3.878 0 7 3.122 7 7v24c0 3.878-3.122 7-7 7h-24c-3.878 0-7-3.122-7-7v-24c0-3.878 3.122-7 7-7z" fill-rule="evenodd" opacity=".3" style="paint-order:stroke fill markers"/>
  <path id="rect815" d="m29 12c-3.878 0-7 3.122-7 7v10c0 1.662-1.338 3-3 3s-3-1.338-3-3 1.338-3 3-3h1v-4h-1c-3.878 0-7 3.122-7 7s3.122 7 7 7 7-3.122 7-7v-3h2c1.108 0 2-0.892 2-2s-0.892-2-2-2h-2v-3c0-1.662 1.338-3 3-3s3 1.338 3 3c0 1.108 0.892 2 2 2s2-0.892 2-2c0-3.878-3.122-7-7-7z" fill="#fff" fill-rule="evenodd" style="paint-order:stroke fill markers"/>
 </g>
</svg>
