<?xml version="1.0" encoding="UTF-8"?>
<!-- Created with Inkscape (http://www.inkscape.org/) -->
<svg id="SVGRoot" width="48px" height="48px" version="1.1" viewBox="0 0 48 48" xml:space="preserve" xmlns="http://www.w3.org/2000/svg" xmlns:cc="http://creativecommons.org/ns#" xmlns:dc="http://purl.org/dc/elements/1.1/" xmlns:rdf="http://www.w3.org/1999/02/22-rdf-syntax-ns#"><defs><style>.cls-1{fill:none;stroke:#fff;stroke-linecap:round;stroke-linejoin:round;}</style><style>.cls-1{fill:none;stroke:#fff;stroke-linecap:round;stroke-linejoin:round;}</style><style>.cls-1{fill:none;stroke:#fff;stroke-linecap:round;stroke-linejoin:round;}</style><style>.a{fill:none;stroke:#b1b5bd;stroke-linecap:round;stroke-linejoin:round;isolation:isolate;opacity:0.63;}</style><style>.cls-1{fill:none;stroke:#fff;stroke-linecap:round;stroke-linejoin:round;}</style></defs><metadata><rdf:RDF><cc:Work rdf:about=""><dc:format>image/svg+xml</dc:format><dc:type rdf:resource="http://purl.org/dc/dcmitype/StillImage"/></cc:Work></rdf:RDF></metadata><rect x="4" y="4" width="40" height="40" ry="8" fill="#efefef" fill-rule="evenodd" style="paint-order:stroke fill markers"/><path d="m12 4c-4.432 0-8 3.568-8 8v24c0 4.432 3.568 8 8 8h24c4.432 0 8-3.568 8-8v-24c0-4.432-3.568-8-8-8zm0 1h24c3.878 0 7 3.122 7 7v24c0 3.878-3.122 7-7 7h-24c-3.878 0-7-3.122-7-7v-24c0-3.878 3.122-7 7-7z" fill-rule="evenodd" opacity=".3" style="paint-order:stroke fill markers"/><path d="m21.114 37.951c-1.348-0.09876-2.9803-0.46313-4.0403-0.90185-3.3958-1.4057-5.3162-3.8544-6.0496-7.7134-0.47534-2.5009-0.42973-5.2698 0.13299-8.0749 0.66645-3.322 1.917-6.0332 3.5835-7.7694 1.0673-1.112 1.8812-1.5621 3.3948-1.8773 1.0428-0.21718 4.0039-0.53683 5.6738-0.61249 0.4459-0.02021 0.82138-0.05402 0.83444-0.07516 0.01306-0.02114-0.06189-0.08454-0.16655-0.14091-0.10466-0.05636-0.1903-0.12957-0.1903-0.16269 0-0.2631 1.1723-0.74664 1.6019-0.66074 0.09364 0.018728 0.33275 0.12637 0.53137 0.23921 0.1986 0.11284 0.69414 0.36278 1.1012 0.55546 1.8624 0.88155 2.9682 1.4519 3.3821 1.7444 2.1742 1.5365 3.3136 2.6505 4.3619 4.2644 1.2619 1.9429 1.9523 4.0482 2.1229 6.4732 0.1675 2.3807-0.44318 5.4075-1.4853 7.3622-1.5626 2.9307-4.4465 5.2366-8.0878 6.4668-2.1198 0.71624-4.5706 1.0393-6.7009 0.88315zm3.995-1.9774c1.3295-0.14158 2.637-0.49043 3.6449-0.97252 3.9058-1.8682 6.7184-6.6998 6.7159-11.536-1e-3 -1.9509-0.31997-3.3907-1.0955-4.9447-0.42994-0.8616-0.89129-1.5349-1.5171-2.2141-0.79668-0.8647-1.43-1.3214-2.9309-2.1132l-0.58262-0.3074-0.51145 0.17135c-0.35236 0.11805-0.57188 0.16234-0.70567 0.14238-0.10681-0.01594-0.63929-0.26418-1.1833-0.55168-2.0447-1.0805-2.8897-1.2878-4.6028-1.129-1.4938 0.13843-3.1588 0.56759-4.6492 1.1983-0.82052 0.34727-1.3313 0.69147-1.9584 1.3198-1.7549 1.7582-2.9249 4.8651-3.2368 8.5956-0.08263 0.98808-0.0365 3.2086 0.08457 4.0707 0.30846 2.1962 0.90439 3.8301 1.8186 4.9864 1.887 2.3864 6.3351 3.7509 10.709 3.285zm-2.2476-5.0974c-2.0321-0.22848-3.9022-1.024-5.1031-2.1708-0.98972-0.94525-1.4989-1.9939-1.5688-3.2311-0.03004-0.53176-0.02619-0.55874 0.08863-0.62016 0.28667-0.15342 0.39732-0.0419 0.66738 0.67266 0.81106 2.1458 4.485 3.8337 7.7355 3.5534 2.2944-0.19773 4.1206-1.1349 5.4782-2.8113 0.38223-0.47198 0.46238-0.54418 0.58808-0.52962 0.14245 0.01649 0.14528 0.02448 0.13408 0.37916-0.0071 0.22532-0.07411 0.55696-0.17718 0.87712-0.69732 2.166-2.7158 3.5608-5.6224 3.8851-0.57355 0.06401-1.63 0.06186-2.2202-0.0045zm4.9001-8.0578c-0.25321-0.07343-0.60107-0.48066-0.70257-0.82241-0.23618-0.79532 0.05228-1.4011 0.77006-1.6171 0.36056-0.10852 0.55367-0.09662 0.8773 0.05408 0.45817 0.21334 0.68804 0.59522 0.68586 1.1394-0.0014 0.39004-0.13793 0.67016-0.46745 0.9602-0.35609 0.31344-0.7414 0.40814-1.1632 0.2858zm-8.9564-0.19234c-0.45175-0.1959-0.71167-0.64964-0.71252-1.2438-9.27e-4 -0.64254 0.24417-1.0215 0.75703-1.1706 0.31877-0.09266 0.69161-0.06716 0.94671 0.06477 0.19338 0.1 0.46959 0.4223 0.57512 0.67109 0.1784 0.42059 0.08569 1.1521-0.1846 1.4565-0.25424 0.28632-0.96884 0.40121-1.3817 0.22216z" fill="#4e4e4e" stroke-width=".054821"/></svg>
