<?xml version="1.0" encoding="UTF-8"?>
<!-- Created with Inkscape (http://www.inkscape.org/) -->
<svg id="SVGRoot" width="48px" height="48px" version="1.1" viewBox="0 0 48 48" xmlns="http://www.w3.org/2000/svg" xmlns:cc="http://creativecommons.org/ns#" xmlns:dc="http://purl.org/dc/elements/1.1/" xmlns:rdf="http://www.w3.org/1999/02/22-rdf-syntax-ns#" xmlns:xlink="http://www.w3.org/1999/xlink">
 <defs id="defs815">
  <style id="style819">.cls-1{fill:none;stroke:#fff;stroke-linecap:round;stroke-linejoin:round;}</style>
 </defs>
 <metadata id="metadata818">
  <rdf:RDF>
   <cc:Work rdf:about="">
    <dc:format>image/svg+xml</dc:format>
    <dc:type rdf:resource="http://purl.org/dc/dcmitype/StillImage"/>
    <dc:title/>
   </cc:Work>
  </rdf:RDF>
 </metadata>
 <g id="layer1" fill-rule="evenodd">
  <rect id="rect1373-5" x="4" y="4" width="40" height="40" ry="8" fill="#627ad4" style="paint-order:stroke fill markers"/>
  <path id="rect817" d="m12 4c-4.432 0-8 3.568-8 8v24c0 4.432 3.568 8 8 8h24c4.432 0 8-3.568 8-8v-24c0-4.432-3.568-8-8-8h-24zm0 1h24c3.878 0 7 3.122 7 7v24c0 3.878-3.122 7-7 7h-24c-3.878 0-7-3.122-7-7v-24c0-3.878 3.122-7 7-7z" opacity=".3" style="paint-order:stroke fill markers"/>
  <path id="rect830" d="m20.209 10.934c-1.5033 0.0036-2.7334 1.117-3.327 3.0115-0.29017 0.92618-0.41667 1.7222-0.46266 2.9113l-0.04278 1.1051-0.29696 0.07376c-1.9226 0.47787-3.5789 1.2553-4.6726 2.1932-0.89977 0.77154-0.96448 1.234-0.09385 0.6708 0.66504-0.43021 1.5044-0.78761 2.5771-1.0975 0.8436-0.2437 2.4923-0.57643 2.5534-0.51531 0.01707 0.01707 0.09273 0.45225 0.16834 0.96725 0.52266 3.5611 1.9066 7.3393 3.8088 10.399l0.53218 0.85602-0.484 0.15391c-0.28651 0.09118-0.76471 0.16856-1.1722 0.18968-0.65146 0.03377-0.70942 0.02454-1.0799-0.1709-1.1223-0.59218-1.4154-2.1872-0.79435-4.3215l0.14317-0.49239-0.21226-0.5583c-0.11679-0.3071-0.31688-0.87631-0.44473-1.2649-0.12784-0.38856-0.25483-0.70647-0.28224-0.70647-0.07165 0-0.81059 1.3492-1.2494 2.2813-0.46836 0.9949-0.95271 2.4645-1.1164 3.387-0.09332 0.52593-0.11681 0.95823-0.09256 1.7028 0.02809 0.86371 0.0587 1.0656 0.22776 1.5014 0.60453 1.5583 1.9338 2.2673 3.8553 2.0561 1.1244-0.12358 2.2265-0.51737 3.6779-1.3142l0.63981-0.35134 0.77312 0.75328c1.3348 1.3005 2.5433 2.0924 3.8526 2.5245 0.47265 0.156 0.94206 0.1804 0.94168 0.04883-1.52e-4 -0.04983-0.20387-0.19626-0.4528-0.32542-0.99015-0.51372-2.3783-1.7353-3.5147-3.093l-0.54142-0.64683 0.20696-0.15021c1.2-0.87044 3.6359-3.2477 4.6547-4.5427 1.2731-1.6183 2.1328-2.9275 2.9139-4.4371l0.48198-0.93159 0.43082 0.42446c1.0487 1.0332 1.3373 1.8904 0.93064 2.7638-0.42507 0.91304-1.7643 1.718-3.4519 2.0747-0.10448 0.02204-0.28342 0.16283-0.3976 0.31279-0.1142 0.14999-0.4934 0.60581-0.84265 1.0129-0.34924 0.40709-0.63493 0.75754-0.63493 0.77886 0 0.06697 1.9066 0.04218 2.6914-0.03521 3.3779-0.33228 5.6576-1.4484 6.486-3.1757 0.25913-0.54032 0.32051-1.5159 0.13545-2.1525-0.42708-1.4691-1.6791-2.8272-3.7718-4.0913l-0.60273-0.36383 0.14053-0.4875c0.58982-2.0456 0.69553-4.2916 0.26279-5.5859-0.25988-0.77734-0.35557-0.65164-0.37807 0.49716-0.02418 1.2335-0.20803 2.178-0.73725 3.786-0.21969 0.66752-0.41291 1.2136-0.42934 1.2136-0.01635 0-0.34213-0.12987-0.72377-0.28872-3.1032-1.2915-7.1946-2.0339-10.704-1.942l-1.2906 0.03378 0.04958-0.29636c0.14957-0.89342 0.65727-1.8748 1.1348-2.1937 1.0112-0.67533 2.5632-0.14494 4.0211 1.3744 0.3962 0.41289 0.4925 0.47575 0.79701 0.51987 0.1905 0.02774 0.76567 0.13114 1.2781 0.23011 0.51247 0.09892 0.94875 0.16287 0.96959 0.14203 0.02097-0.02097-0.13381-0.3406-0.34369-0.71061-1.3943-2.4583-3.1888-4.3969-4.8434-5.2326-0.49437-0.24967-1.3776-0.4763-1.8524-0.47519zm-1.3705 8.092 1.4428 0.04524c2.6317 0.08253 4.8431 0.51596 7.312 1.4332 0.77322 0.28726 2.6887 1.1949 2.9598 1.4024 0.12717 0.09737 0.11273 0.13861-0.28359 0.81399-1.1077 1.8875-2.1327 3.2168-3.6515 4.7356-1.3594 1.3594-2.632 2.3737-4.0748 3.2476l-0.26791 0.16219-0.33252-0.56509c-1.7548-2.9817-2.8898-6.8039-3.0573-10.295z" fill="#fff" style="paint-order:stroke fill markers"/>
 </g>
</svg>
