<?xml version="1.0" encoding="UTF-8"?>
<!-- Created with Inkscape (http://www.inkscape.org/) -->
<svg id="SVGRoot" width="48px" height="48px" version="1.1" viewBox="0 0 48 48" xml:space="preserve" xmlns="http://www.w3.org/2000/svg" xmlns:cc="http://creativecommons.org/ns#" xmlns:dc="http://purl.org/dc/elements/1.1/" xmlns:rdf="http://www.w3.org/1999/02/22-rdf-syntax-ns#"><defs><style>.cls-1{fill:none;stroke:#fff;stroke-linecap:round;stroke-linejoin:round;}</style><style>.cls-1{fill:none;stroke:#fff;stroke-linecap:round;stroke-linejoin:round;}</style><style>.cls-1{fill:none;stroke:#fff;stroke-linecap:round;stroke-linejoin:round;}</style></defs><metadata><rdf:RDF><cc:Work rdf:about=""><dc:format>image/svg+xml</dc:format><dc:type rdf:resource="http://purl.org/dc/dcmitype/StillImage"/></cc:Work></rdf:RDF></metadata><rect x="4" y="4" width="40" height="40" ry="8" fill="#ffd34e" fill-rule="evenodd" style="paint-order:stroke fill markers"/><path d="m15 4c-3.878 0-7 3.122-7 7v16 6 3c0 2.216 1.784 4 4 4h3 18 3c2.216 0 4-1.784 4-4v-3-6-16c0-3.878-3.122-7-7-7h-18z" fill="#ac826d" stroke-linecap="round" stroke-linejoin="round" stroke-width="2" style="paint-order:stroke fill markers"/><path d="m15 4c-3.5383 0-6.4473 2.5991-6.9297 6h31.859c-0.48243-3.4009-3.3914-6-6.9297-6h-18z" opacity=".3" stroke-linecap="round" stroke-linejoin="round" stroke-width="2" style="paint-order:stroke fill markers"/><path d="m12 4c-4.432 0-8 3.568-8 8v24c0 4.432 3.568 8 8 8h24c4.432 0 8-3.568 8-8v-24c0-4.432-3.568-8-8-8zm0 1h24c3.878 0 7 3.122 7 7v24c0 3.878-3.122 7-7 7h-24c-3.878 0-7-3.122-7-7v-24c0-3.878 3.122-7 7-7z" fill-rule="evenodd" opacity=".3" style="paint-order:stroke fill markers"/><g stroke-linecap="round" stroke-linejoin="round"><rect x="7" y="22" width="34" height="4" fill="#ffd34e" stroke-width="1.7888" style="paint-order:stroke fill markers"/><rect x="8" y="30" width="32" height="6" opacity=".3" stroke-width="1.7889" style="paint-order:stroke fill markers"/><g stroke-width="2"><rect x="18" y="22" width="12" height="10" ry="4" fill="#ffd34e" style="paint-order:stroke fill markers"/><rect x="22" y="24" width="4" height="4" ry="2" fill="#4e4e4e" style="paint-order:stroke fill markers"/><rect x="23" y="25" width="2" height="5" ry="1" fill="#4e4e4e" style="paint-order:stroke fill markers"/></g><rect x="8" y="16" width="32" height="6" opacity=".3" stroke-width="1.7889" style="paint-order:stroke fill markers"/></g></svg>
