<?xml version="1.0" encoding="UTF-8"?>
<!-- Created with Inkscape (http://www.inkscape.org/) -->
<svg id="SVGRoot" width="48px" height="48px" version="1.1" viewBox="0 0 48 48" xmlns="http://www.w3.org/2000/svg" xmlns:cc="http://creativecommons.org/ns#" xmlns:dc="http://purl.org/dc/elements/1.1/" xmlns:rdf="http://www.w3.org/1999/02/22-rdf-syntax-ns#" xmlns:xlink="http://www.w3.org/1999/xlink">
 <defs id="defs815">
  <style id="style819">.cls-1{fill:none;stroke:#fff;stroke-linecap:round;stroke-linejoin:round;}</style>
 </defs>
 <metadata id="metadata818">
  <rdf:RDF>
   <cc:Work rdf:about="">
    <dc:format>image/svg+xml</dc:format>
    <dc:type rdf:resource="http://purl.org/dc/dcmitype/StillImage"/>
    <dc:title/>
   </cc:Work>
  </rdf:RDF>
 </metadata>
 <g id="layer1">
  <rect id="rect1373-5" x="4" y="4" width="40" height="40" ry="8" fill="#ffb94b" fill-rule="evenodd" style="paint-order:stroke fill markers"/>
  <path id="rect817" d="m12 4c-4.432 0-8 3.568-8 8v24c0 4.432 3.568 8 8 8h24c4.432 0 8-3.568 8-8v-24c0-4.432-3.568-8-8-8h-24zm0 1h24c3.878 0 7 3.122 7 7v24c0 3.878-3.122 7-7 7h-24c-3.878 0-7-3.122-7-7v-24c0-3.878 3.122-7 7-7z" fill-rule="evenodd" opacity=".3" style="paint-order:stroke fill markers"/>
  <path id="path846" d="m20 12v4c-0.49169 0.02-1.3942 0-1.8652 0h-3.1348v2s1.7188-0.02999 1.6914 0c0.92026-0.014 1.2133 0.65409 1.3086 1.0996v9.9004c-0.03527 0.28155-0.0053 0.98-0.64844 1 0.0297 0.026-2.3516 0-2.3516 0v2h3.2539c0.5502-0.02 1.2146 0 1.7461 0v4l2-0.03711v-3.9629h1.9688l0.0625 4h2l-0.0625-4c6.0312 0 6.0312-3 6.0312-4.502 0-1.498-0.63423-3.4961-3-3.498 1.3658 0.0019 2-2.2565 2-4 0-2.2566-2-4-5-4v-4h-2v4c-0.59725 0-1.3937-0.022-2 0v-4zm2 6c2 0 5.0003 3.8e-5 5 2.5 3.47e-4 2.5002-3 2.5-5 2.5zm0 7c4 1.25e-4 6.0004 3.8e-5 6 2.5 4.16e-4 2.5002-2 2.5-6 2.5z" fill="#fff"/>
 </g>
</svg>
