<?xml version="1.0" encoding="UTF-8"?>
<!-- Created with Inkscape (http://www.inkscape.org/) -->
<svg id="SVGRoot" width="48px" height="48px" version="1.1" viewBox="0 0 48 48" xml:space="preserve" xmlns="http://www.w3.org/2000/svg" xmlns:cc="http://creativecommons.org/ns#" xmlns:dc="http://purl.org/dc/elements/1.1/" xmlns:rdf="http://www.w3.org/1999/02/22-rdf-syntax-ns#"><defs><style>.cls-1{fill:none;stroke:#fff;stroke-linecap:round;stroke-linejoin:round;}</style><style>.cls-1{fill:none;stroke:#fff;stroke-linecap:round;stroke-linejoin:round;}</style><style>.cls-1{fill:none;stroke:#fff;stroke-linecap:round;stroke-linejoin:round;}</style><style>.cls-1{fill:none;stroke:#fff;stroke-linecap:round;stroke-linejoin:round;}</style><style>.a{fill:none;stroke:#b1b5bd;stroke-linecap:round;stroke-linejoin:round;isolation:isolate;opacity:0.63;}</style><style>.cls-1{fill:none;stroke:#fff;stroke-linecap:round;stroke-linejoin:round;}</style><style>.cls-1{fill:none;stroke:#fff;stroke-linecap:round;stroke-linejoin:round;}</style><style>.a{fill:none;stroke:#b1b5bd;stroke-linecap:round;stroke-linejoin:round;isolation:isolate;opacity:0.63;}</style><style>.cls-1{fill:none;stroke:#fff;stroke-linecap:round;stroke-linejoin:round;}</style><style>.cls-1{fill:none;stroke:#fff;stroke-linecap:round;stroke-linejoin:round;}</style></defs><metadata><rdf:RDF><cc:Work rdf:about=""><dc:format>image/svg+xml</dc:format><dc:type rdf:resource="http://purl.org/dc/dcmitype/StillImage"/></cc:Work></rdf:RDF></metadata><rect x="4" y="4" width="40" height="40" ry="8" fill="#46589d" fill-rule="evenodd" style="paint-order:stroke fill markers"/><path d="m12 4c-4.432 0-8 3.568-8 8v24c0 4.432 3.568 8 8 8h24c4.432 0 8-3.568 8-8v-24c0-4.432-3.568-8-8-8zm0 1h24c3.878 0 7 3.122 7 7v24c0 3.878-3.122 7-7 7h-24c-3.878 0-7-3.122-7-7v-24c0-3.878 3.122-7 7-7z" fill-rule="evenodd" opacity=".3" style="paint-order:stroke fill markers"/><path d="m24 10c-5.803 0-9.41 2.7127-11.426 5.4004-2.0158 2.6877-2.5547 5.4043-2.5547 5.4043a1 1 0 0 0 0.78516 1.1758 1 1 0 0 0 1.1758-0.78516s0.46111-2.2834 2.1953-4.5957c1.7342-2.3123 4.6272-4.5996 9.8242-4.5996 5.6667 0 8.512 2.7187 10.137 5.5039 0.72965 1.2508 1.1114 2.4429 1.3867 3.4434l-3.0098-1.8047a1 1 0 0 0-1.3711 0.34375 1 1 0 0 0 0.34375 1.3711l5 3a1.0001 1.0001 0 0 0 1.5098-0.94141s-0.2575-3.2051-2.1328-6.4199-5.5299-6.4961-11.863-6.4961zm-13.01 14a1.0001 1.0001 0 0 0-0.98633 1.084s0.2575 3.2051 2.1328 6.4199 5.5299 6.4961 11.863 6.4961c5.803 0 9.41-2.7127 11.426-5.4004 2.0158-2.6877 2.5547-5.4043 2.5547-5.4043a1 1 0 0 0-0.78516-1.1758 1 1 0 0 0-1.1758 0.78516s-0.46111 2.2834-2.1953 4.5957c-1.7342 2.3123-4.6272 4.5996-9.8242 4.5996-5.6667 0-8.512-2.7187-10.137-5.5039-0.72965-1.2508-1.1114-2.4429-1.3867-3.4434l3.0098 1.8047a1 1 0 0 0 1.3711-0.34375 1 1 0 0 0-0.34375-1.3711l-5-3a1.0001 1.0001 0 0 0-0.52344-0.14258z" fill="#fff" stop-color="#000000" stroke-linecap="round" stroke-linejoin="round"/></svg>
