<?xml version="1.0" encoding="UTF-8"?>
<!-- Created with Inkscape (http://www.inkscape.org/) -->
<svg id="SVGRoot" width="48px" height="48px" version="1.1" viewBox="0 0 48 48" xml:space="preserve" xmlns="http://www.w3.org/2000/svg" xmlns:cc="http://creativecommons.org/ns#" xmlns:dc="http://purl.org/dc/elements/1.1/" xmlns:rdf="http://www.w3.org/1999/02/22-rdf-syntax-ns#"><defs><style>.cls-1{fill:none;stroke:#fff;stroke-linecap:round;stroke-linejoin:round;}</style><style>.cls-1{fill:none;stroke:#fff;stroke-linecap:round;stroke-linejoin:round;}</style><style>.cls-1{fill:none;stroke:#fff;stroke-linecap:round;stroke-linejoin:round;}</style></defs><metadata><rdf:RDF><cc:Work rdf:about=""><dc:format>image/svg+xml</dc:format><dc:type rdf:resource="http://purl.org/dc/dcmitype/StillImage"/></cc:Work></rdf:RDF></metadata><rect x="12" y="2" width="12" height="7" ry="2" fill="#5585db" stroke-linecap="round" stroke-linejoin="round" stroke-width="4" style="paint-order:stroke fill markers"/><path d="m14 2c-1.108 0-2 0.892-2 2v3c0 1.108 0.892 2 2 2h8c1.108 0 2-0.892 2-2v-3c0-1.108-0.892-2-2-2zm0 1h8c0.554 0 1 0.446 1 1v3c0 0.554-0.446 1-1 1h-8c-0.554 0-1-0.446-1-1v-3c0-0.554 0.446-1 1-1z" opacity=".3" stroke-linecap="round" stroke-linejoin="round" stroke-width="4" style="paint-order:stroke fill markers"/><rect x="4" y="4" width="40" height="40" ry="8" fill="#efefef" fill-rule="evenodd" style="paint-order:stroke fill markers"/><path d="m4 22v14c0 0.69109 0.086741 1.3612 0.25 2h39.5c0.16326-0.63882 0.25-1.3089 0.25-2v-14z" fill="#5585db" stroke-linecap="round" stroke-linejoin="round" stroke-width="4.2426" style="paint-order:stroke fill markers"/><path d="m22 5s0 7 5.668 9.9844c3.4458 1.8143 6.1383 3.0156 12.332 3.0156v-6s0-4-4-4h-10.957c-0.55262 0-1.0098-0.44747-1.0195-1-0.023383-1.3331-0.023438-2-0.023438-2h-2z" opacity=".3" stroke-linecap="round" stroke-linejoin="round" stroke-width="4" style="paint-order:stroke fill markers"/><rect x="4" y="20" width="40" height="2" fill="#f88383" style="paint-order:stroke fill markers"/><path d="m12 4c-4.432 0-8 3.568-8 8v24c0 4.432 3.568 8 8 8h24c4.432 0 8-3.568 8-8v-24c0-4.432-3.568-8-8-8zm0 1h24c3.878 0 7 3.122 7 7v24c0 3.878-3.122 7-7 7h-24c-3.878 0-7-3.122-7-7v-24c0-3.878 3.122-7 7-7z" fill-rule="evenodd" opacity=".3" style="paint-order:stroke fill markers"/><g stroke-linecap="round" stroke-linejoin="round"><rect x="14" y="24" width="20" height="12" rx="10" ry="6" fill="#fff" stroke-width="4" style="paint-order:stroke fill markers"/><rect x="16" y="25" width="16" height="10" rx="8" ry="5" fill="#f88383" stroke-width="4" style="paint-order:stroke fill markers"/><path d="m31.381 26.938-0.82812 0.08203a0.60006 0.60006 0 0 0-0.48438 0.3457l-0.15625 0.33789-0.22852-0.30469a0.60006 0.60006 0 0 0-0.54102-0.23828l-0.82227 0.08203a0.60006 0.60006 0 0 0-0.29297 0.21484 0.60006 0.60006 0 0 0-0.20117-0.16602l-0.73242 0.07422a0.60006 0.60006 0 0 0-0.53711 0.65625l0.21094 2.1113c0.0186 0.18653-0.02289 0.23615 2e-3 0.20117a0.60006 0.60006 0 0 0-0.0059 0.0078c0.03138-0.04558 0.06965-0.03095-0.06445-0.01758-0.12839 0.01281-0.12045-0.0085-0.0957 0.01172 0.06129 0.05017 0.0026 0.0231-0.01758-0.17969l-0.21095-2.1172a0.60006 0.60006 0 0 0-0.65625-0.53711l-0.73242 0.07227a0.60006 0.60006 0 0 0-0.38086 0.4668 0.60006 0.60006 0 0 0-0.4668-0.38086l-0.6582 0.06445a0.60006 0.60006 0 0 0-0.53711 0.65625l0.0332 0.33984-0.43359-0.60156a0.60006 0.60006 0 0 0-0.54492-0.24609l-0.92578 0.0918a0.60006 0.60006 0 0 0-0.26562 0.32617 0.60006 0.60006 0 0 0-0.32617-0.26758l-1.5742 0.1582a0.60006 0.60006 0 0 0-0.53711 0.65625l0.04102 0.41602a0.60006 0.60006 0 0 0 0.40234 0.50781l0.07813 0.02734 0.13867 1.3926a0.60006 0.60006 0 0 0-0.14844-0.12109l-0.80273 0.08008-0.22461-2.252a0.60006 0.60006 0 0 0-0.65625-0.53711l-0.74219 0.07422a0.60006 0.60006 0 0 0-0.53711 0.65625l0.3457 3.459a0.60006 0.60006 0 0 0 0.65625 0.53711l2.1406-0.21289a0.60006 0.60006 0 0 0 0.14062-0.17188 0.60006 0.60006 0 0 0 0.16992 0.14062l1.5742-0.15625a0.60006 0.60006 0 0 0 0.26562-0.32617 0.60006 0.60006 0 0 0 0.32617 0.26758l0.65234-0.06641a0.60006 0.60006 0 0 0 0.53906-0.65625l-0.0332-0.33789 0.42969 0.59961a0.60006 0.60006 0 0 0 0.54688 0.24609l0.93164-0.0918a0.60006 0.60006 0 0 0 0.53711-0.65625l-0.03516-0.35547c0.09716 0.14637 0.09866 0.3498 0.23633 0.46094a0.60006 0.60006 0 0 0 0.0039 2e-3c0.41226 0.32816 0.95417 0.42885 1.5137 0.37305 0.39062-0.03896 0.74815-0.1397 1.0527-0.33984a0.60006 0.60006 0 0 0 0.0039-2e-3c0.10321-0.06865 0.14896-0.1918 0.23633-0.2793a0.60006 0.60006 0 0 0 0.5625 0.38672l0.82422-0.08203a0.60006 0.60006 0 0 0 0.48047-0.33398l0.21875-0.44727 0.29883 0.39453a0.60006 0.60006 0 0 0 0.53711 0.23242l0.85352-0.08398a0.60006 0.60006 0 0 0 0.40234-0.97852l-1.0918-1.3223 0.73828-1.4785a0.60006 0.60006 0 0 0-0.5957-0.86523zm-2.7734 2.1543 0.30859 0.38672-0.22656 0.44141z" fill="#5585db" stop-color="#000000" style="paint-order:stroke fill markers"/><path d="m16.86 32.482-0.34497-3.4588 0.74118-0.07393 0.28409 2.8485 1.4-0.13963 0.06087 0.61039zm4.0256-0.4015-1.5744 0.15702-0.04155-0.41661 0.40213-0.23581-0.22322-2.2381-0.44078-0.15174-0.04155-0.41661 1.5744-0.15702 0.04155 0.41661-0.40213 0.23581 0.22322 2.2381 0.44078 0.15174zm3.6575-0.36478-0.93011 0.09276-1.7675-2.4657-0.01937 2e-3q0.03432 0.2461 0.06866 0.49219 0.03917 0.24561 0.0735 0.4917l0.16234 1.6277-0.65398 0.06522-0.34497-3.4588 0.92527-0.09228 1.7602 2.4419 0.01453-0.0015q-0.02903-0.24173-0.06236-0.47814-0.03336-0.2364-0.06673-0.47281l-0.1633-1.6374 0.65883-0.0657zm3.5648-1.5884q0.03575 0.35848-0.09512 0.66508-0.12651 0.30128-0.42933 0.50272-0.29845 0.19611-0.78289 0.24442-0.68789 0.06861-1.0812-0.24443-0.39375-0.31788-0.45124-0.89436l-0.22225-2.2284 0.73149-0.07296 0.21114 2.117q0.04252 0.4263 0.23431 0.5833t0.53574 0.1227q0.35848-0.03575 0.4995-0.24063 0.14587-0.20536 0.10576-0.60743l-0.21065-2.1121 0.73149-0.07296zm3.7598 0.85792-0.8526 0.08504-0.88957-1.1687-0.64608 1.3218-0.82353 0.08214 0.9703-1.8972-1.2475-1.5684 0.82353-0.08214 0.83 1.111 0.57969-1.2516 0.82838-0.08262-0.91361 1.828z" fill="#fff" stop-color="#000000" style="paint-order:stroke fill markers"/></g></svg>
