<?xml version="1.0" encoding="UTF-8"?>
<!-- Created with Inkscape (http://www.inkscape.org/) -->
<svg id="SVGRoot" width="48px" height="48px" version="1.1" viewBox="0 0 48 48" xmlns="http://www.w3.org/2000/svg" xmlns:cc="http://creativecommons.org/ns#" xmlns:dc="http://purl.org/dc/elements/1.1/" xmlns:rdf="http://www.w3.org/1999/02/22-rdf-syntax-ns#">
 <defs id="defs815">
  <style id="style819">.cls-1{fill:none;stroke:#fff;stroke-linecap:round;stroke-linejoin:round;}</style>
 </defs>
 <metadata id="metadata818">
  <rdf:RDF>
   <cc:Work rdf:about="">
    <dc:format>image/svg+xml</dc:format>
    <dc:type rdf:resource="http://purl.org/dc/dcmitype/StillImage"/>
    <dc:title/>
   </cc:Work>
  </rdf:RDF>
 </metadata>
 <g id="layer1">
  <rect id="rect1373" x="4" y="4" width="40" height="40" ry="8" fill="#cff6de" fill-rule="evenodd" style="paint-order:stroke fill markers"/>
  <path id="rect817" d="m12 4c-4.432 0-8 3.568-8 8v24c0 4.432 3.568 8 8 8h24c4.432 0 8-3.568 8-8v-24c0-4.432-3.568-8-8-8h-24zm0 1h24c3.878 0 7 3.122 7 7v24c0 3.878-3.122 7-7 7h-24c-3.878 0-7-3.122-7-7v-24c0-3.878 3.122-7 7-7z" fill-rule="evenodd" opacity=".3" style="paint-order:stroke fill markers"/>
  <g id="g919" transform="matrix(.62321 0 0 .62321 3.6213 5.9185)" stroke-width=".50813">
   <path id="path4333" d="m45.273 5.7687c-0.35657 0.025879-0.67269 0.20274-0.95274 0.53988-0.31625 0.38072-0.47517 0.89398-0.42873 1.3497 0.0686 0.6734 0.26779 1.2285 1.0798 2.8423 0.44628 0.88702 0.59249 1.2423 0.74631 1.9531 0.21723 1.0039 0.30322 1.8833 0.3017 3.0488-0.0017 1.0733-0.06743 1.8547-0.23818 2.8741-0.14992 0.89497-0.40655 1.9711-0.46049 1.9531-0.08231-0.02743-0.18006-0.86241-0.25406-2.0801-0.08714-1.4338-0.1606-2.0073-0.28582-2.5724-0.33315-1.5035-1.0741-2.1389-2.3024-1.9531-0.34465 0.05214-0.90099 0.22124-0.95274 0.28582-0.02215 0.02763 0.1018 0.46419 0.44461 1.445 0.26933 0.7706 0.49223 1.4151 0.49225 1.4291 6.6e-5 0.04851-0.19611 0.11431-0.23818 0.07939-0.02167-0.01799-0.21607-0.29449-0.42873-0.6034-0.44879-0.65188-0.67713-0.96888-0.9845-1.3338-0.82683-0.98174-1.7221-1.4513-2.6518-1.3973-0.33925 0.01969-0.84965 0.13137-0.93686 0.20643-0.06048 0.05206-0.04567 0.14026 1.1115 4.3508l1.1909 4.3032-0.26994 2.6359c-0.14616 1.4536-0.28762 2.6759-0.3017 2.7153-0.02506 0.07006-0.02998 0.0794-0.50813 0.0794-0.26888 0-0.8141-0.01952-1.2068-0.04762-0.86771-0.06217-1.9495-0.06924-2.3183-0.0159-0.37488 0.05424-0.91999 0.19061-1.4291 0.36521-1.59 0.54533-2.9817 1.5092-4.1444 2.89-1.0717 1.2727-1.9804 2.8932-2.8741 5.1289-0.26824 0.67101-0.8478 2.2796-0.98449 2.7153-0.33818 1.078-0.52533 2.2223-0.55576 3.4616-0.02709 1.1038 0.05677 2.012 0.28582 2.9376 0.26869 1.0858 0.66893 1.9267 1.2227 2.6359 0.13256 0.16979 0.27539 0.31975 0.42873 0.47637 0.0053 0.0054 0.01059 0.01046 0.0159 0.0159 0.0045 0.0051 0.01105 0.01105 0.01591 0.01591 3e-3 3e-3 -3e-3 0.01272 0 0.01591 0.71283 0.71471 1.4886 1.1324 2.4771 1.3338 0.7065 0.14398 1.9372 0.16746 1.9372 0.03176 0-0.02266-0.21377-0.66125-0.47637-1.4132-0.2626-0.75198-0.47628-1.3783-0.47637-1.3973-1.9e-4 -0.03338 0.13182-0.11116 0.19055-0.11116 0.01566 0 0.18166 0.22911 0.36521 0.50812 0.73894 1.1232 1.307 1.7665 1.9531 2.2072 0.38361 0.26164 0.8865 0.4627 1.2862 0.524 0.24685 0.03785 0.83652 0.03522 1.0798-0.01591 0.30029-0.06304 0.59827-0.16196 0.63516-0.20643 0.0045-0.0058-0.02094-0.03638-0.03176-0.06351 0.0053 0.01997-0.02307 0.03176-0.04761 0.04761-0.03156 0.02037-0.0756 0.04762-0.19055 0.07939-0.06526 0.01803-0.12115 0.03008-0.19055 0.04762 0.01004-0.0026 0.02206-0.01333 0.03176-0.01591 0.17031-0.04462 0.32312-0.09648 0.34934-0.11116 0.02758-0.01545-0.15123-0.33466-0.50813-0.9051 0.16766 0.26757 0.4005 0.60614 0.44461 0.68279-0.0088 0-3e-3 0.02851 0.01591 0.06352 0.01874 0.03501 0.03887 0.06351 0.04761 0.06351 0.0067 0-0.0056-0.02409-0.01591-0.04761 0.0035 7e-3 0.06303 0.0934 0.06351 0.09527-0.05108-0.12795-0.27364-0.50568-0.87334-1.445-0.97945-1.5341-1.0208-1.5992-1.0004-1.6197 7e-3 -7e-3 0.1737 0.10498 0.36522 0.25406 1.25 0.97304 2.5245 1.6593 3.6839 1.9849 1.452 0.40771 2.8202 0.20988 3.8586-0.57164 0.3286-0.24731 0.66826-0.58287 0.65104-0.63516-0.0078-0.02403-1.2142-0.53616-2.6835-1.1433-1.4693-0.60711-2.6767-1.1226-2.6835-1.1433-0.01971-0.05916 1.1395 0.0088 2.3977 0.1429 0.40281 0.04293 1.058 0.11568 1.4609 0.15879 1.2953 0.13865 1.5856 0.15927 2.4771 0.15879 0.9465-5.08e-4 1.361-0.03907 2.0801-0.19055 1.1202-0.23596 2.3206-0.80092 3.3028-1.5403 0.39991-0.30102 0.59512-0.48601 0.57164-0.524-0.01286-0.02083-1.5875-0.01535-4.6366 0-3.1391 0.0158-4.5676 0.0061-4.6208-0.01591-0.0088-0.0015-0.02672 2e-3 -0.03176 0-0.02023-0.03272 0.31461-0.94819 0.36522-1.0004 0.01454-0.01499 0.13193 0.02271 0.25406 0.09527 2.1144 1.2562 6.669 0.93256 9.972-0.71455 0.94778-0.47264 1.5719-0.9186 2.1913-1.5403 0.74086-0.74361 1.178-1.556 1.2386-2.3342 0.01783-0.22951 0.0097-0.23818-0.04765-0.23818-0.07053 0-1.2246 0.31634-1.842 0.50813-0.22768 0.07073-0.81168 0.25768-1.3021 0.41285-3.2031 1.0136-4.5321 1.2855-6.2722 1.318-0.99461 0.0186-1.8864-0.04126-1.8578-0.12704 0.03234-0.09702 1.385-0.56168 2.3024-0.79395 0.7832-0.19828 1.1954-0.28319 3.017-0.65104 2.6928-0.54377 3.6686-0.79609 4.859-1.2703 2.5104-1.0002 3.9343-2.6298 4.3826-5.0019 0.11668-0.61712 0.18605-1.699 0.11116-1.699-0.01566 0-1.3042 0.72748-2.8741 1.6038-1.57 0.87629-2.871 1.5838-2.89 1.572-0.04345-0.02683-0.22782-0.43911-0.20643-0.46049 0.0087-0.0087 0.20982-0.11914 0.46049-0.25406 1.204-0.64806 2.1191-1.3287 3.1123-2.3183 1.8562-1.8495 2.9425-3.9853 3.2075-6.2722 0.07132-0.61558 0.04858-1.7384-0.04764-2.3024-0.11396-0.6681-0.38002-1.6563-0.46049-1.6832-0.01821-0.0061-1.1406 1.6133-2.4771 3.5886-2.8144 4.1596-2.9631 4.373-2.9852 4.3508-0.05058-0.05055 0.61983-1.2373 1.7467-3.1123 0.48784-0.81168 1.0124-1.6904 1.1592-1.9531 0.36102-0.64635 0.86974-1.7182 1.0639-2.2231 0.68206-1.7735 0.77778-3.2789 0.3017-4.716-0.13826-0.41733-0.47101-1.0973-0.73043-1.4926-0.25721-0.39193-0.64275-0.88669-0.68279-0.87334-0.01809 0.0061-0.78964 1.8285-1.7149 4.0491l-1.6832 4.0332-2.3342 3.9856c-2.3344 3.9908-2.437 4.1845-2.4612 4.1603-0.01942-0.01941 0.19393-0.61748 0.41285-1.1592 0.54763-1.355 1.1101-2.4343 2.6518-5.0813 0.98463-1.6905 1.4279-2.4823 1.8261-3.2711 1.2403-2.4571 1.8374-4.4404 1.9849-6.6056 0.02983-0.44008 0.02987-0.65027 0-0.93686-0.1558-1.4949-0.68219-3.3567-1.2385-4.3984-0.32323-0.60524-0.74173-1.0887-1.1115-1.2703-0.16735-0.08217-0.22294-0.095274-0.49225-0.095274-0.27759 0-0.32757 0.011643-0.53988 0.11115-0.51815 0.24285-0.66724 0.62378-0.66692 1.6038 1.53e-4 0.52556 0.04053 0.93644 0.20643 2.1119l0.11116 0.8257-0.01589 0.93686c-0.01779 0.92943-0.03113 1.2287-0.12704 2.096-0.21093 1.9076-0.72814 4.102-1.4926 6.431-0.2884 0.87859-0.71483 2.1016-0.76219 2.1754-0.11064 0.17242 0.16234-1.0877 0.71455-3.3505 0.90565-3.711 1.1217-5.0355 1.1592-6.9073 0.02591-1.2954-0.06112-2.1902-0.30175-3.2393-0.14424-0.6288-0.20104-0.79293-0.41285-1.2226-0.59381-1.2045-1.6302-2.4797-2.4771-3.0329-0.43656-0.28513-0.83435-0.40697-1.1909-0.38109z" fill="#46589d"/>
   <path id="path4323" d="m33.825 15.899c-0.30749 0.0037-0.63578 0.02998-0.825 0.06208-1.1912 0.2022-2.1428 0.64108-2.6376 1.239-0.38747 0.46821-0.49658 1.0546-0.30161 1.6204 0.02577 0.07517 0.04507 0.1471 0.03252 0.15968-0.01257 0.01257-1.1801 0.1358-2.5874 0.28387-1.1488 0.12086-1.7807 0.20763-2.1143 0.2543-0.15783 0.0245-0.31755 0.03158-0.47608 0.04736 0.05643 0.3335 0.15005 0.6345 0.20699 0.87527 0.2265 0.79167 0.27453 0.95216 0.23952 0.95216-0.0077 0-0.12613-0.08251-0.2543-0.17446-0.52963-0.37993-1.0106-0.56437-1.5258-0.58844-0.56891-0.02656-0.92866 0.12755-1.3336 0.52339-0.0088 0.0085-0.02372 0.0089-0.03252 0.01775-0.20314 0.20341-0.27786 0.2971-0.41102 0.5707-0.19403 0.39866-0.29283 0.75421-0.31936 1.2242-0.03099 0.549 0.0909 1.2419 0.28683 1.6973l0.06505 0.15968h0.26909c0.12203 0.0095 0.17497-0.02208 0.2543-0.04732 0.09821-0.03125 0.14079-0.15085 0.20699-0.22177 0.27894-0.42753 0.78029-0.75655 1.3809-0.90484 0.40874-0.10091 1.1606-0.1006 1.6678 0 1.8274 0.36251 3.1946 1.6023 3.1256 2.8417-0.0184 0.33047-0.13279 0.54536-0.42581 0.83979-0.24425 0.24543-0.56365 0.46373-1.1118 0.76291-0.19264 0.10515-0.51418 0.28595-0.7156 0.39624-0.20141 0.11029-0.48933 0.28449-0.63576 0.38145-0.29011 0.19212-0.65054 0.51204-0.65054 0.58844 0 0.06583 0.17947 0.06444 0.95216-0.01484 0.3314-0.03399 0.6044-0.08636 0.89006-0.12714 1.3856-0.19779 2.3112-0.46661 3.0339-0.93737 0.6869-0.44744 1.2018-1.1597 1.3957-1.9073 0.03146-0.12133 0.06088-0.20403 0.07983-0.20403s0.1434 0.06373 0.26909 0.14194c0.81571 0.50763 1.4873 0.68959 2.0492 0.5707 0.5022-0.10625 0.98659-0.40752 1.8747-1.1739 0.23552-0.20323 0.43791-0.38146 0.45834-0.38146 0.02043 0 0.2066 0.40593 0.41398 0.89006 0.20738 0.48413 0.40173 0.90499 0.42877 0.93737 0.04762 0.05699 0.08759 0.06119 0.84275-0.06506 0.42909-0.07173 0.78999-0.15813 0.80726-0.17446 0.04411-0.04167-0.11917-0.59686-0.26909-0.95216-0.24158-0.57251-0.65838-1.0895-1.1591-1.4134-0.30014-0.19415-0.74988-0.40577-1.4755-0.68307-0.79002-0.30189-1.1995-0.49481-1.5731-0.74517-0.37017-0.24802-0.72854-0.57843-0.68307-0.62097 0.01753-0.01641 0.14672-0.0608 0.28683-0.10942 1.116-0.38725 1.8789-1.1227 2.3804-2.3035 0.20636-0.48588 0.37658-1.1058 0.6535-2.3331 0.12565-0.55683 0.28797-1.1869 0.34893-1.3987 0.06097-0.21172 0.10392-0.40457 0.09462-0.42877-1e-3 -0.0027-0.03698 0.01256-0.04732 0.01484-0.11094 0.02415-0.74741 0.31894-2.3035 1.097-1.2807 0.64038-2.3487 1.1648-2.3656 1.1591-0.01692-0.0056 0.39144-0.37584 0.90484-0.82501 0.51341-0.44916 0.97778-0.85291 1.0172-0.89006 0.02536-0.02389 0.02179-0.04847 0.03252-0.07984 0.01606-0.04709 0.02957-0.11091 0.02957-0.2543 0-0.26468-0.0089-0.28058-0.09462-0.3164-0.06946-0.029-0.34305-0.03622-0.65054-0.03252z" fill="#4e4e4e"/>
   <path id="path4223" d="m28.31 20.805c-0.63896-0.02597-1.3454 0.46721-1.3454 0.46721s0.93343 1.2351 2.5815 0.21882c0 0-0.4913-0.65576-1.236-0.68603zm-0.01181 4.8909c-0.25268 0.01961-0.78197 0.10608-1.3484 0.22177-2.5787 0.52673-4.6417 1.4384-5.843 2.5903-0.24275 0.23277-0.57366 0.61815-0.57366 0.66533 0 0.0106 0.01059 0.01723 0.03252 0.01774 4.2118-1.237 4.7431-1.3482 7.8745-2.1911 0.05959-0.05977 0.0595-1.2548 0-1.304-0.01166-0.0095-0.05771-0.0065-0.14194 0z" fill="#d35244"/>
   <path id="path4217" d="m11.991 25.983c-0.02957-0.02953-0.64136 0.0501-0.89006 0.11237-0.70659 0.17693-1.1308 0.59699-1.3809 1.3632-0.04486 0.1375-0.07983 0.26882-0.07983 0.30162 0 0.07455 0.02492 0.07666 0.30162 0 0.57616-0.15966 1.0316-0.42943 1.3987-0.81022 0.3003-0.31155 0.7079-0.90958 0.65054-0.96694zm4.8288 2.4928 0.01484 0.11237c0.01997 0.21414 0.1316 0.71951 0.22178 0.96694 0.28469 0.78104 0.77862 1.2606 1.5879 1.5258 0.19233 0.06303 0.28058 0.06603 0.30162 0.02957 0.03008-0.05213-0.04663-0.79411-0.10942-1.0616-0.18606-0.79253-0.66428-1.2725-1.4785-1.4785-0.15884-0.04019-0.34097-0.07368-0.41102-0.07983zm-11.053 3.303c-0.033383 0.01302-0.040862 0.0432-0.062103 0.09462-0.057425 0.13895-0.14489 0.67023-0.14489 0.87527 0 0.53925 0.24722 0.98448 0.7156 1.3011 0.18137 0.1226 0.20801 0.12489 0.20699 0.04732-0.00152-0.13829-0.25115-2.2567-0.26909-2.2858-0.011052-0.01794-0.11706-0.03252-0.23952-0.03252-0.11061 0-0.1736-0.01302-0.20699 0zm16.991 7.0022c-0.05484 0-0.34028 0.29372-0.47608 0.49382-0.37448 0.55178-0.66763 1.3715-0.84275 2.3804-0.06217 0.35802-0.06109 0.52417-0.06211 1.3011-1e-3 0.98208 0.02124 1.2042 0.20699 1.7624 0.20468 0.61509 0.54373 1.0269 0.95216 1.1769 0.06545 0.02405 0.18152 0.04649 0.26909 0.04732 0.51275 0.0051 0.98704-0.56324 1.2065-1.4282 0.18654-0.73538 0.04659-1.3538-0.63576-2.7944-0.43671-0.92197-0.54961-1.286-0.61801-1.8422-0.03308-0.26906-0.03537-0.53643 0.01484-0.93737 0.01408-0.11234 0.0085-0.15968-0.01484-0.15968zm-12.83 6.05c-0.04275 0-0.03954 0.08979 0.03252 0.44355 0.11754 0.57702 0.32741 0.92649 0.7156 1.1296 0.23843 0.12474 0.38772 0.16088 0.74516 0.22178 0.13135 0.02236 0.25542 0.04553 0.26909 0.04732 0.09329 0.01227 0.01952-0.36065-0.14194-0.69785-0.14934-0.31193-0.50428-0.65435-0.87232-0.84275-0.26782-0.13709-0.68467-0.30161-0.74812-0.30161z" opacity=".3"/>
   <path id="path4209" d="m14.23 26.237c-0.37911 0.02357-0.86771 0.13988-1.175 0.28582-0.877 0.41649-1.3923 1.1724-1.6355 2.366-0.14233 0.69844-0.16634 1.0812-0.17467 2.9376-0.0045 0.96844-0.01915 1.7661-0.03176 1.7784-0.01256 0.01241-0.0583-0.01809-0.11116-0.07939-0.19798-0.22962-0.45236-0.63899-0.80983-1.3497-0.13167-0.26179-0.23796-0.43558-0.34934-0.63516-0.06-0.10751-0.14334-0.30187-0.17467-0.34934-0.19397-0.29389-0.55133-0.6634-0.79395-0.8257-0.20749-0.13882-0.52044-0.25406-0.73043-0.25406-0.60652 0-1.1412 0.55562-1.3021 1.3497-0.15464 0.76318 0.14624 1.396 0.77807 1.6355 0.10344 0.03923 0.2638 0.05743 0.57164 0.06352 0.23456 0.0045 0.44824 0.01763 0.46049 0.03176 0.012263 0.01408 0.063088 0.14571 0.11116 0.28582 0.14057 0.40986 0.48154 1.0827 1.0004 1.9531 0.54822 0.91969 0.89825 1.5894 1.048 2.0007 0.16057 0.44108 0.91383 3.35 1.0163 3.9221 0.08913 0.49785 0.11234 0.95233 0.06351 1.1909-0.02149 0.10509-0.11986 0.40509-0.2223 0.65104-0.28424 0.68234-0.30574 0.93805-0.11116 1.4767 0.38709 1.0716 1.0679 1.7997 2.0484 2.2072 0.24805 0.10308 0.28973 0.10907 0.34934-0.03176 0.13352-0.31549 0.30618-1.0016 0.36522-1.4767 0.09664-0.77784 0.02567-1.3312-0.3811-3.1282-0.18819-0.83139-0.33603-1.842-0.26994-1.842 0.01539 2.1e-5 0.13868 0.08327 0.26994 0.19055 0.13126 0.10728 0.56571 0.45502 0.96862 0.76219 1.0515 0.80168 1.1817 0.91025 2.3818 2.096 0.45352 0.4481 0.78131 0.75028 1.0639 1.0004 0.56199 0.49738 0.898 0.71213 1.3656 0.87334 0.25194 0.08686 0.356 0.11084 0.57164 0.11116 0.52634 5.08e-4 0.76615-0.21937 0.79395-0.73043 0.01961-0.36074-0.09049-0.77593-0.3811-1.3656-0.28415-0.57658-0.51195-0.87895-0.95274-1.3021-0.51296-0.4924-0.9889-0.8408-2.5248-1.8261-1.3076-0.83884-1.8905-1.2693-2.3977-1.7784-0.66852-0.67107-0.95243-1.2278-0.98449-1.9531-0.02642-0.59707 0.12215-0.97796 0.50813-1.3656 0.39573-0.39743 0.83247-0.61861 2.1119-1.0639 1.3518-0.47047 1.8559-0.76606 2.0801-1.2227 0.07803-0.15893 0.07946-0.20986 0.07939-0.47637-7.6e-5 -0.2561 1.11e-4 -0.3233-0.06351-0.44461-0.29452-0.56148-1.1809-0.89971-2.62-0.98449l-0.36521-0.01591-1.2227 1.2227c-0.67188 0.67105-1.2284 1.201-1.2386 1.1909-0.01015-0.01015 0.28248-1.577 0.65104-3.4934 0.36856-1.9164 0.6828-3.5086 0.6828-3.541 0-0.05467-0.02967-0.06556-0.31758-0.04761z" fill="#582621" fill-opacity=".95169"/>
  </g>
 </g>
</svg>
