<?xml version="1.0" encoding="UTF-8"?>
<!-- Created with Inkscape (http://www.inkscape.org/) -->
<svg id="SVGRoot" width="48px" height="48px" version="1.1" viewBox="0 0 48 48" xmlns="http://www.w3.org/2000/svg" xmlns:cc="http://creativecommons.org/ns#" xmlns:dc="http://purl.org/dc/elements/1.1/" xmlns:rdf="http://www.w3.org/1999/02/22-rdf-syntax-ns#">
 <defs id="defs815">
  <style id="style819">.cls-1{fill:none;stroke:#fff;stroke-linecap:round;stroke-linejoin:round;}</style>
 </defs>
 <metadata id="metadata818">
  <rdf:RDF>
   <cc:Work rdf:about="">
    <dc:format>image/svg+xml</dc:format>
    <dc:type rdf:resource="http://purl.org/dc/dcmitype/StillImage"/>
    <dc:title/>
   </cc:Work>
  </rdf:RDF>
 </metadata>
 <g id="layer1">
  <rect id="rect1373-5" x="4" y="4" width="40" height="40" ry="8" fill="#e2f5ed" fill-rule="evenodd" style="paint-order:stroke fill markers"/>
  <path id="rect817" d="m12 4c-4.432 0-8 3.568-8 8v24c0 4.432 3.568 8 8 8h24c4.432 0 8-3.568 8-8v-24c0-4.432-3.568-8-8-8h-24zm0 1h24c3.878 0 7 3.122 7 7v24c0 3.878-3.122 7-7 7h-24c-3.878 0-7-3.122-7-7v-24c0-3.878 3.122-7 7-7z" fill-rule="evenodd" opacity=".3" style="paint-order:stroke fill markers"/>
  <path id="path830" d="m31 26c0-7 6-13 6-13s-1.4399 3.4826-1 5.1244c1 3.7321-0.94447 5.7139-0.88594 8.8756 0.052713 2.8475 0.88594 8 0.88594 8s-5-3-5-9z" fill="#729dec" stroke="#729dec" stroke-linejoin="round" stroke-width="2"/>
  <path id="rect832" d="m15 16c-2.4272 0-4.4394 1.7126-4.9004 4h9.8008c-0.461-2.2874-2.4732-4-4.9004-4z" fill="#729dec" fill-rule="evenodd" style="paint-order:stroke fill markers"/>
  <path id="path828" d="m20.25 12c-4.3428 0-8.25 4-8.25 11s4.3931 13 9.166 13c10.083 0 12.834-13 12.834-13s-2.75-11-13.75-11zm-2.1758 8h9.8008c0.06512 0.32308 0.09961 0.65717 0.09961 1 0 2.77-2.23 5-5 5s-5-2.23-5-5c0-0.34283 0.0345-0.67692 0.09961-1z" fill="#729dec"/>
  <path id="rect882" d="m22.275 20c-0.1711 0.295-0.27539 0.63307-0.27539 1 0 1.108 0.892 2 2 2s2-0.892 2-2c0-0.36693-0.10429-0.705-0.27539-1z" fill="#56595b" fill-rule="evenodd" style="paint-order:stroke fill markers"/>
  <path id="path1007" d="m34.252 20.77c-0.0012 0.01211-0.0066 0.02501-0.0078 0.03711-0.0027-0.0067-0.0012-7e-3 -0.0039-0.01367 0.0037-0.0083 8e-3 -0.01511 0.01172-0.02344z" color="#000000" color-rendering="auto" dominant-baseline="auto" image-rendering="auto" shape-rendering="auto" solid-color="#000000" style="font-feature-settings:normal;font-variant-alternates:normal;font-variant-caps:normal;font-variant-ligatures:normal;font-variant-numeric:normal;font-variant-position:normal;isolation:auto;mix-blend-mode:normal;shape-padding:0;text-decoration-color:#000000;text-decoration-line:none;text-decoration-style:solid;text-indent:0;text-orientation:mixed;text-transform:none;white-space:normal"/>
 </g>
</svg>
