<?xml version="1.0" encoding="UTF-8"?>
<!-- Created with Inkscape (http://www.inkscape.org/) -->
<svg id="SVGRoot" width="48px" height="48px" version="1.1" viewBox="0 0 48 48" xmlns="http://www.w3.org/2000/svg" xmlns:cc="http://creativecommons.org/ns#" xmlns:dc="http://purl.org/dc/elements/1.1/" xmlns:rdf="http://www.w3.org/1999/02/22-rdf-syntax-ns#">
 <defs id="defs815">
  <style id="style819">.cls-1{fill:none;stroke:#fff;stroke-linecap:round;stroke-linejoin:round;}</style>
  <style id="style2">.a{fill:none;stroke:#b1b5bd;stroke-linecap:round;stroke-linejoin:round;isolation:isolate;opacity:0.63;}</style>
 </defs>
 <metadata id="metadata818">
  <rdf:RDF>
   <cc:Work rdf:about="">
    <dc:format>image/svg+xml</dc:format>
    <dc:type rdf:resource="http://purl.org/dc/dcmitype/StillImage"/>
    <dc:title/>
   </cc:Work>
  </rdf:RDF>
 </metadata>
 <g id="layer1">
  <rect id="rect1373-5" x="4" y="4" width="40" height="40" ry="8" fill="#d35244" fill-rule="evenodd" style="paint-order:stroke fill markers"/>
  <path id="rect817" d="m12 4c-4.432 0-8 3.568-8 8v24c0 4.432 3.568 8 8 8h24c4.432 0 8-3.568 8-8v-24c0-4.432-3.568-8-8-8h-24zm0 1h24c3.878 0 7 3.122 7 7v24c0 3.878-3.122 7-7 7h-24c-3.878 0-7-3.122-7-7v-24c0-3.878 3.122-7 7-7z" fill-rule="evenodd" opacity=".3" style="paint-order:stroke fill markers"/>
  <rect id="rect936" x="9" y="9" width="30" height="30" ry="15" fill-rule="evenodd" opacity=".25" style="paint-order:stroke fill markers"/>
  <rect id="rect945" x="10" y="10" width="28" height="28" ry="14" fill="#efefef" fill-rule="evenodd" style="paint-order:stroke fill markers"/>
  <path id="path860" d="m18.482 11.125c-3.3043 1.4112-5.9463 4.0531-7.3574 7.3574l12.875 5.5176zm5.5176 12.875 5.5176 12.875c3.3043-1.4112 5.9463-4.0531 7.3574-7.3574z" fill="#fff"/>
  <rect id="rect949" x="19" y="19" width="10" height="10" ry="5" fill-rule="evenodd" opacity=".25" style="paint-order:stroke fill markers"/>
  <rect id="rect947" x="20" y="20" width="8" height="8" ry="4" fill="#fff" fill-rule="evenodd" style="paint-order:stroke fill markers"/>
  <rect id="rect822" x="22" y="22" width="4" height="4" ry="2" fill="#979797" fill-rule="evenodd" style="paint-order:stroke fill markers"/>
  <path id="path842" d="m13 21s-5 1-6 6c-0.41345 2.0672 3.6146 6.5894 2 6-0.9891-0.36104-2.082-1.3974-3-2.4336v5.4336c0 3.324 2.676 6 6 6h24c3.324 0 6-2.676 6-6v-3.5469c-0.74244 1.6642-1.3719 3.0206-2.3926 2.2793-2.2885-1.6622-1.2527-4.5424-1.9473-6.4473-1.4547-3.9895-5.6602-4.2852-5.6602-4.2852s2.2915 3.2288 2 5c-0.68028 4.1329-4.1517 7.1348-6.8008 5.5527-1.4593-0.87146-2.3158-4.2266-1.6797-5.8027 1.5559-3.8554-7.5195-3.75-7.5195-3.75s2.6296 2.4906 1.9277 4.3574c-0.66359 1.765-1.0435 3.5702-2.9277 3.6426-3.0709 0.11794-4.0312-2.7864-4.8516-5.748-0.56275-2.0317 0.85156-6.252 0.85156-6.252z" fill="#f68d59"/>
  <path id="rect873" d="m10.111 22.307c-0.3606 0.24862-0.72226 0.54175-1.0703 0.88476-0.014283 0.26953-0.041016 0.53538-0.041016 0.80859 0 8.31 6.69 15 15 15 6.3208 0 11.695-3.8748 13.91-9.3848-0.03984-0.47134-0.10253-0.92567-0.25-1.3301-0.059408-0.16292-0.12916-0.3101-0.19726-0.46094-1.6578 5.8828-7.0356 10.176-13.463 10.176-7.756 0-14-6.244-14-14 0-0.57449 0.04474-1.1374 0.11133-1.6934zm8.998 2.7266c0.47408 2.2702 2.4756 3.9668 4.8906 3.9668 0.53548 0 1.0405-0.1053 1.5234-0.25977 0.1661-0.41589 0.20147-0.78274 0.14453-1.1113-0.5084 0.23313-1.0701 0.37109-1.668 0.37109-1.8268 0-3.344-1.2194-3.8262-2.8867-0.45843-0.04217-0.72206-0.06569-1.0645-0.08008z" fill="#d35244" fill-rule="evenodd" style="paint-order:stroke fill markers"/>
 </g>
</svg>
