<?xml version="1.0" encoding="UTF-8"?>
<!-- Created with Inkscape (http://www.inkscape.org/) -->
<svg id="SVGRoot" width="48px" height="48px" version="1.1" viewBox="0 0 48 48" xmlns="http://www.w3.org/2000/svg" xmlns:cc="http://creativecommons.org/ns#" xmlns:dc="http://purl.org/dc/elements/1.1/" xmlns:rdf="http://www.w3.org/1999/02/22-rdf-syntax-ns#">
 <defs id="defs815">
  <style id="style819">.cls-1{fill:none;stroke:#fff;stroke-linecap:round;stroke-linejoin:round;}</style>
  <style id="style819-8">.cls-1{fill:none;stroke:#fff;stroke-linecap:round;stroke-linejoin:round;}</style>
 </defs>
 <metadata id="metadata818">
  <rdf:RDF>
   <cc:Work rdf:about="">
    <dc:format>image/svg+xml</dc:format>
    <dc:type rdf:resource="http://purl.org/dc/dcmitype/StillImage"/>
    <dc:title/>
   </cc:Work>
  </rdf:RDF>
 </metadata>
 <g id="layer1">
  <rect id="rect1373-5" x="4" y="4" width="40" height="40" ry="8" fill="#f6a559" fill-rule="evenodd" style="paint-order:stroke fill markers"/>
  <path id="rect817" d="m12 4c-4.432 0-8 3.568-8 8v24c0 4.432 3.568 8 8 8h24c4.432 0 8-3.568 8-8v-24c0-4.432-3.568-8-8-8h-24zm0 1h24c3.878 0 7 3.122 7 7v24c0 3.878-3.122 7-7 7h-24c-3.878 0-7-3.122-7-7v-24c0-3.878 3.122-7 7-7z" fill-rule="evenodd" opacity=".3" style="paint-order:stroke fill markers"/>
  <g id="layer1-2" transform="matrix(1.2978 0 0 1.2978 -7.1159 -6.2029)" fill="#fff" stroke-width=".12938">
   <path id="path832" d="m24.883 33.414c0.41258-0.3557 1.3469-1.098 2.0763-1.6496 0.78774-0.59567 1.3262-1.094 1.3262-1.2275 0-0.1451-0.27864-0.3653-0.78698-0.62191-1.5594-0.78717-3.1136-1.4178-3.4943-1.4178-0.65899 0-4.3875 1.7631-4.3875 2.0747 0 0.06765 0.45122 0.45272 1.0027 0.8557 0.5515 0.40298 1.3812 1.0617 1.8437 1.4639 0.89611 0.77908 1.4218 1.1693 1.5752 1.1693 0.05193 0 0.43197-0.29103 0.84455-0.64673z"/>
   <path id="path828" d="m20.582 28.828c0.81322-0.39934 1.4631-0.84491 2.1295-1.46 1.2753-1.1771 1.2692-1.1954-0.89611-2.6593-0.95362-0.64471-1.6803-1.2235-1.6803-1.3383 0-0.1113 0.32022-0.81563 0.71161-1.5652 0.39139-0.74956 0.71161-1.471 0.71161-1.6031 0-0.55924-0.66736-0.98602-2.7754-1.7748l-2.0638-0.77227 0.8993-0.10224c1.5527-0.17654 2.4046-0.12999 3.5967 0.19656 0.82923 0.22714 1.17 0.38178 1.2363 0.56103 0.05034 0.1361-0.10574 1.323-0.34686 2.6375-0.24112 1.3145-0.40812 2.4689-0.37111 2.5654 0.10463 0.27268 1.9347 0.63097 2.7396 0.53637 1.1307-0.13289 1.6718-0.35869 1.7227-0.71885 0.02442-0.17283-0.14655-1.3534-0.3799-2.6235-0.36815-2.0037-0.39971-2.333-0.23847-2.4883 0.10221-0.09847 0.6225-0.31505 1.1562-0.48128 0.80397-0.25041 1.2153-0.29776 2.3986-0.27612 2.3173 0.04237 2.3145 0.12215-0.03549 1.0083-2.1291 0.8028-2.6219 1.1197-2.6219 1.6862 0 0.1866 0.32238 0.96489 0.71639 1.7295 0.39402 0.76463 0.68394 1.4734 0.64427 1.575-0.03966 0.10162-0.82783 0.69728-1.7515 1.3237-1.3452 0.91231-1.6793 1.1988-1.6793 1.4399 0 0.52191 1.618 1.9145 3.0128 2.593 0.66224 0.32216 1.3409 0.58575 1.5082 0.58575 0.41353 0 1.3794-0.81567 1.6924-1.4292 0.34244-0.67124 0.32207-1.3386-0.07033-2.3043-0.2694-0.663-0.29974-0.85224-0.17468-1.0897 0.08323-0.15806 0.88778-1.0734 1.7879-2.0341 2.0966-2.2376 2.2062-2.3855 2.2062-2.9765 0-0.38014-0.18167-0.755-0.85116-1.7564-0.90338-1.3512-2.6074-3.5483-2.7507-3.5469-0.04707 4.8e-4 -0.78425 0.13445-1.6382 0.29771-1.6621 0.31776-1.6675 0.31742-3.4755-0.21788-1.4677-0.43455-2.0056-0.42705-3.4907 0.04866-1.4316 0.45857-1.7267 0.46959-3.4769 0.12978-0.73192-0.14211-1.3726-0.25855-1.4237-0.25877-0.14652-6.2e-4 -1.9276 2.2752-2.7843 3.5577-0.8059 1.2064-1.0163 1.7981-0.81651 2.2966 0.06414 0.16008 0.96537 1.1935 2.0027 2.2965 1.0374 1.103 1.9213 2.1363 1.9642 2.2962 0.0469 0.17453-0.05672 0.62748-0.25928 1.1335-0.18556 0.46352-0.3361 0.97316-0.33454 1.1325 0.0089 0.90595 1.2594 2.4246 1.9966 2.4246 0.21023 0 0.90893-0.25864 1.5527-0.57474z"/>
  </g>
 </g>
</svg>
