<?xml version="1.0" encoding="UTF-8"?>
<!-- Created with Inkscape (http://www.inkscape.org/) -->
<svg id="SVGRoot" width="48px" height="48px" version="1.1" viewBox="0 0 48 48" xml:space="preserve" xmlns="http://www.w3.org/2000/svg" xmlns:cc="http://creativecommons.org/ns#" xmlns:dc="http://purl.org/dc/elements/1.1/" xmlns:rdf="http://www.w3.org/1999/02/22-rdf-syntax-ns#"><defs><style>.cls-1{fill:none;stroke:#fff;stroke-linecap:round;stroke-linejoin:round;}</style><style>.cls-1{fill:none;stroke:#fff;stroke-linecap:round;stroke-linejoin:round;}</style><style>.cls-1{fill:none;stroke:#fff;stroke-linecap:round;stroke-linejoin:round;}</style><style>.cls-1{fill:none;stroke:#fff;stroke-linecap:round;stroke-linejoin:round;}</style><style>.cls-1{fill:none;stroke:#fff;stroke-linecap:round;stroke-linejoin:round;}</style><style>.cls-1{fill:none;stroke:#fff;stroke-linecap:round;stroke-linejoin:round;}</style><style>.cls-1{fill:none;stroke:#fff;stroke-linecap:round;stroke-linejoin:round;}</style><style>.a{fill:none;stroke:#b1b5bd;stroke-linecap:round;stroke-linejoin:round;isolation:isolate;opacity:0.63;}</style><style>.cls-1{fill:none;stroke:#fff;stroke-linecap:round;stroke-linejoin:round;}</style></defs><metadata><rdf:RDF><cc:Work rdf:about=""><dc:format>image/svg+xml</dc:format><dc:type rdf:resource="http://purl.org/dc/dcmitype/StillImage"/></cc:Work></rdf:RDF></metadata><rect x="4" y="4" width="40" height="40" ry="8" fill="#4e4e4e" fill-rule="evenodd" style="paint-order:stroke fill markers"/><path d="m12 4c-4.432 0-8 3.568-8 8v24c0 4.432 3.568 8 8 8h24c4.432 0 8-3.568 8-8v-24c0-4.432-3.568-8-8-8zm0 1h24c3.878 0 7 3.122 7 7v24c0 3.878-3.122 7-7 7h-24c-3.878 0-7-3.122-7-7v-24c0-3.878 3.122-7 7-7z" fill-rule="evenodd" opacity=".4" style="paint-order:stroke fill markers"/><path d="m15.047 12a1.0001 1.0001 0 0 0-0.91602 0.50391l-4 7a1.0001 1.0001 0 0 0 0.10156 1.1367l4.4297 5.3164c-0.18202 0.18736-0.21353 0.19189-0.42969 0.45117-0.55259 0.66285-1.2324 1.4362-1.2324 2.5918 0 1.9444 1.3183 3.2524 2.4707 3.9727 0.87603 0.54752 1.7425 0.83877 2.1074 0.94727l5.8672 3.9121a1.0001 1.0001 0 0 0 1.1094 0l5.8691-3.9121c0.36491-0.10849 1.2294-0.39975 2.1055-0.94727 1.1524-0.72028 2.4707-2.0282 2.4707-3.9727 0-1.1556-0.67983-1.9289-1.2324-2.5918-0.23819-0.28571-0.28187-0.30006-0.47461-0.49609l4.5215-6.3301a1.0001 1.0001 0 0 0 0.017578-1.1367l-4-6a1.0001 1.0001 0 0 0-1.1777-0.38281s-0.62884 0.23076-1.4238 0.4668c-0.79499 0.23604-1.7862 0.45957-2.2539 0.4707-0.63027 0.015-1.3506-0.19302-2.1758-0.45312-0.8252-0.26011-1.7553-0.57231-2.8242-0.54688-0.91424 0.02176-1.6751 0.33154-2.3281 0.57617s-1.1959 0.42383-1.6484 0.42383c-1.6667 0-4.6836-0.94922-4.6836-0.94922a1.0001 1.0001 0 0 0-0.26953-0.050781zm8.9766 2c0.63027-0.015 1.3506 0.19302 2.1758 0.45312 0.8252 0.26011 1.7553 0.57231 2.8242 0.54688 0.90631-0.02157 1.9158-0.29695 2.7773-0.55273 0.43992-0.13061 0.50909-0.16412 0.78906-0.25977l3.1953 4.793-4.5996 6.4375a1.0001 1.0001 0 0 0 0.14648 1.3262s0.45298 0.40863 0.90039 0.94531c0.44042 0.5283 0.75778 1.2443 0.76758 1.3105 0 1.0556-0.68175 1.7476-1.5293 2.2773-0.70649 0.44155-1.2081 0.56311-1.4277 0.62695l-5.043-2.5215v-1.8828l3.5996-2.6992a1.0001 1.0001 0 0 0 0.38672-0.96484l-0.83984-5.0449 4.0488-0.81055a1 1 0 0 0 0.78516-1.1758 1 1 0 0 0-1.1758-0.78516l-5 1a1.0001 1.0001 0 0 0-0.79102 1.1445l0.90039 5.4004-2.9141 2.1855-2.9141-2.1855 0.90039-5.4004a1.0001 1.0001 0 0 0-0.79102-1.1445l-5-1a1 1 0 0 0-1.1758 0.78516 1 1 0 0 0 0.78516 1.1758l4.0488 0.81055-0.83984 5.0449a1.0001 1.0001 0 0 0 0.38672 0.96484l3.5996 2.6992v1.8828l-5.043 2.5215c-0.21963-0.063841-0.72125-0.1854-1.4277-0.62695-0.84755-0.52972-1.5293-1.2218-1.5293-2.2773v-0.001953c0.009803-0.06625 0.32716-0.7803 0.76758-1.3086 0.44741-0.53668 0.90039-0.94531 0.90039-0.94531a1.0001 1.0001 0 0 0 0.099609-1.3848l-4.5547-5.4668 3.2637-5.709c0.892 0.28276 2.709 0.81641 4.5234 0.81641 0.92179 0 1.6917-0.30359 2.3516-0.55078 0.65988-0.2472 1.2121-0.43828 1.6719-0.44922zm-0.023438 17.117 4.0117 2.0059-4.0117 2.6758-4.0117-2.6758 4.0117-2.0059z" fill="#fff" stop-color="#000000" stroke-linecap="round" stroke-linejoin="round" style="paint-order:stroke fill markers"/></svg>
