<?xml version="1.0" encoding="UTF-8"?>
<!-- Created with Inkscape (http://www.inkscape.org/) -->
<svg id="SVGRoot" width="48px" height="48px" version="1.1" viewBox="0 0 48 48" xmlns="http://www.w3.org/2000/svg" xmlns:cc="http://creativecommons.org/ns#" xmlns:dc="http://purl.org/dc/elements/1.1/" xmlns:rdf="http://www.w3.org/1999/02/22-rdf-syntax-ns#">
 <defs>
  <style>.cls-1{fill:none;stroke:#fff;stroke-linecap:round;stroke-linejoin:round;}</style>
 </defs>
 <metadata>
  <rdf:RDF>
   <cc:Work rdf:about="">
    <dc:format>image/svg+xml</dc:format>
    <dc:type rdf:resource="http://purl.org/dc/dcmitype/StillImage"/>
   </cc:Work>
  </rdf:RDF>
 </metadata>
 <rect x="4" y="4" width="40" height="40" ry="8" fill="#43555e" fill-rule="evenodd" style="paint-order:stroke fill markers"/>
 <g stroke-linecap="round" stroke-linejoin="bevel" stroke-width="2">
  <rect x="8" y="23" width="32" height="10" fill="#f6bfbf"/>
  <rect x="8" y="14" width="32" height="10" fill="#c9abf2"/>
  <path d="m12 8c-2.216 0-4 1.784-4 4v4h32v-4c0-2.216-1.784-4-4-4h-24z" fill="#afcdf8"/>
  <path d="m12 40c-2.216 0-4-1.784-4-4v-4h32v4c0 2.216-1.784 4-4 4z" fill="#fea"/>
 </g>
 <path d="m12 4c-4.432 0-8 3.568-8 8v24c0 4.432 3.568 8 8 8h24c4.432 0 8-3.568 8-8v-24c0-4.432-3.568-8-8-8zm0 1h24c3.878 0 7 3.122 7 7v24c0 3.878-3.122 7-7 7h-24c-3.878 0-7-3.122-7-7v-24c0-3.878 3.122-7 7-7z" fill-rule="evenodd" opacity=".4" style="paint-order:stroke fill markers"/>
</svg>
