<?xml version="1.0" encoding="UTF-8"?>
<!-- Created with Inkscape (http://www.inkscape.org/) -->
<svg id="SVGRoot" width="48px" height="48px" version="1.1" viewBox="0 0 48 48" xmlns="http://www.w3.org/2000/svg" xmlns:cc="http://creativecommons.org/ns#" xmlns:dc="http://purl.org/dc/elements/1.1/" xmlns:rdf="http://www.w3.org/1999/02/22-rdf-syntax-ns#">
 <defs id="defs815">
  <style id="style819">.cls-1{fill:none;stroke:#fff;stroke-linecap:round;stroke-linejoin:round;}</style>
 </defs>
 <metadata id="metadata818">
  <rdf:RDF>
   <cc:Work rdf:about="">
    <dc:format>image/svg+xml</dc:format>
    <dc:type rdf:resource="http://purl.org/dc/dcmitype/StillImage"/>
    <dc:title/>
   </cc:Work>
  </rdf:RDF>
 </metadata>
 <g id="layer1">
  <rect id="rect1373-5" x="4" y="4" width="40" height="40" ry="8" fill="#8b5628" fill-rule="evenodd" style="paint-order:stroke fill markers"/>
  <path id="rect817" d="m12 4c-4.432 0-8 3.568-8 8v24c0 4.432 3.568 8 8 8h24c4.432 0 8-3.568 8-8v-24c0-4.432-3.568-8-8-8h-24zm0 1h24c3.878 0 7 3.122 7 7v24c0 3.878-3.122 7-7 7h-24c-3.878 0-7-3.122-7-7v-24c0-3.878 3.122-7 7-7z" fill-rule="evenodd" opacity=".3" style="paint-order:stroke fill markers"/>
  <path id="path828" d="m10 38h28s0 2.0103-4 2.0103h-19c-5 0-5-2.0103-5-2.0103z" fill="#f8d8a8"/>
  <path id="path830" d="m14 24v6s0 6 5 6h9c4 0 4-4 4-4h2s2 0 2-2v-4c0-2-2-2-2-2zm18 2h1c0.554 0 1 0.446 1 1v2c0 0.554-0.446 1-1 1h-1v-3z" fill="#f8d8a8"/>
  <path id="path838" d="m24.645 7.9431s-2.6279 1.8848-2.6279 4.778c0 2.3227 2.1159 4.2392 2.389 6.5459 0.11497 0.97112-0.33446 2.9146-0.33446 2.9146s1.9382-3.3205 1.959-5.1602c0.02158-1.909-1.9112-2.8888-1.9112-5.3991 0-1.2265 0.52558-3.6791 0.52558-3.6791z" fill="#f8d8a8"/>
  <path id="path838-9" d="m20.852 12.395s-1.8063 1.2955-1.8063 3.2841c0 1.5965 1.4544 2.9138 1.6421 4.4992 0.07903 0.66749-0.22989 2.0033-0.22989 2.0033s1.3322-2.2823 1.3465-3.5469c0.01483-1.3122-1.3136-1.9856-1.3136-3.7111 0-0.843 0.36125-2.5288 0.36125-2.5288z" fill="#f8d8a8"/>
  <path id="path838-9-5" d="m28.796 10s-1.8063 1.2955-1.8063 3.2841c0 1.5965 1.4544 2.9138 1.6421 4.4992 0.07903 0.66749-0.22989 2.0033-0.22989 2.0033s1.3322-2.2823 1.3465-3.5469c0.01483-1.3122-1.3136-1.9856-1.3136-3.7111 0-0.843 0.36125-2.5288 0.36125-2.5288z" fill="#f8d8a8"/>
  <path id="path946" d="m16 26h2v4c0 3 1 4 1 4s-3 0-3-4z" fill="#8b5628"/>
 </g>
</svg>
