<?xml version="1.0" encoding="UTF-8"?>
<!-- Created with Inkscape (http://www.inkscape.org/) -->
<svg id="SVGRoot" width="48px" height="48px" version="1.1" viewBox="0 0 48 48" xml:space="preserve" xmlns="http://www.w3.org/2000/svg" xmlns:cc="http://creativecommons.org/ns#" xmlns:dc="http://purl.org/dc/elements/1.1/" xmlns:rdf="http://www.w3.org/1999/02/22-rdf-syntax-ns#"><defs><style>.cls-1{fill:none;stroke:#fff;stroke-linecap:round;stroke-linejoin:round;}</style><style>.a{fill:none;stroke:#b1b5bd;stroke-linecap:round;stroke-linejoin:round;isolation:isolate;opacity:0.63;}</style><style>.cls-1{fill:none;stroke:#fff;stroke-linecap:round;stroke-linejoin:round;}</style></defs><metadata><rdf:RDF><cc:Work rdf:about=""><dc:format>image/svg+xml</dc:format><dc:type rdf:resource="http://purl.org/dc/dcmitype/StillImage"/></cc:Work></rdf:RDF></metadata><g fill-rule="evenodd"><rect x="4" y="4" width="40" height="40" ry="8" fill="#e5a771" style="paint-order:stroke fill markers"/><path d="m12 4c-4.432 0-8 3.568-8 8v24c0 4.432 3.568 8 8 8h24c4.432 0 8-3.568 8-8v-24c0-4.432-3.568-8-8-8zm0 1h24c3.878 0 7 3.122 7 7v24c0 3.878-3.122 7-7 7h-24c-3.878 0-7-3.122-7-7v-24c0-3.878 3.122-7 7-7z" opacity=".3" style="paint-order:stroke fill markers"/><path d="m11.564 12.098v24h24v-24zm1 1h22v22h-22z" opacity=".25" style="paint-order:stroke fill markers"/><path d="m23.564 9.9746c-7.756 0-14 6.244-14 14s6.244 14 14 14 14-6.244 14-14-6.244-14-14-14zm0 1c7.202 0 13 5.798 13 13s-5.798 13-13 13-13-5.798-13-13 5.798-13 13-13z" opacity=".25" style="paint-order:stroke fill markers"/><rect x="8" y="8" width="32" height="32" ry="5" fill="#4e4e4e" style="paint-order:normal"/></g><g fill="#fff"><path d="m26 14a1.0001 1.0001 0 0 0-0.86328 0.49609l-6.2402 10.697-2.0957-2.793a1.0001 1.0001 0 0 0-0.80078-0.40039h-4v2h3.5l2.6992 3.5996a1.0001 1.0001 0 0 0 1.6641-0.0957l6.7109-11.504h7.4258v2h2v-3a1.0001 1.0001 0 0 0-1-1z" opacity=".8" stop-color="#000000" stroke-linecap="square" stroke-linejoin="round"/><path d="m30 20c-2.216 0-4 1.784-4 4s1.784 4 4 4c0.72958 0 1.4123-0.19275 2-0.53125v0.71094h2v-4.1797-4h-2v0.53125c-0.58768-0.3385-1.2704-0.53125-2-0.53125zm0 2c1.108 0 2 0.892 2 2s-0.892 2-2 2-2-0.892-2-2 0.892-2 2-2z" opacity=".8"/><rect x="12" y="30" width="24" height="2" opacity=".8"/><rect x="20" y="34" width="8" height="2" opacity=".8"/></g></svg>
