<?xml version="1.0" encoding="UTF-8"?>
<!-- Created with Inkscape (http://www.inkscape.org/) -->
<svg id="SVGRoot" width="48px" height="48px" version="1.1" viewBox="0 0 48 48" xmlns="http://www.w3.org/2000/svg" xmlns:cc="http://creativecommons.org/ns#" xmlns:dc="http://purl.org/dc/elements/1.1/" xmlns:rdf="http://www.w3.org/1999/02/22-rdf-syntax-ns#">
 <defs id="defs815">
  <style id="style819">.cls-1{fill:none;stroke:#fff;stroke-linecap:round;stroke-linejoin:round;}</style>
 </defs>
 <metadata id="metadata818">
  <rdf:RDF>
   <cc:Work rdf:about="">
    <dc:format>image/svg+xml</dc:format>
    <dc:type rdf:resource="http://purl.org/dc/dcmitype/StillImage"/>
    <dc:title/>
   </cc:Work>
  </rdf:RDF>
 </metadata>
 <g id="layer1">
  <rect id="rect1373-5" x="4" y="4" width="40" height="40" ry="8" fill="#c6a798" fill-rule="evenodd" style="paint-order:stroke fill markers"/>
  <path id="rect817" d="m12 4c-4.432 0-8 3.568-8 8v24c0 4.432 3.568 8 8 8h24c4.432 0 8-3.568 8-8v-24c0-4.432-3.568-8-8-8h-24zm0 1h24c3.878 0 7 3.122 7 7v24c0 3.878-3.122 7-7 7h-24c-3.878 0-7-3.122-7-7v-24c0-3.878 3.122-7 7-7z" fill-rule="evenodd" opacity=".3" style="paint-order:stroke fill markers"/>
  <rect id="rect834" x="20" y="33" width="8" height="8" ry="4" fill="#9a705c" fill-rule="evenodd" style="paint-order:stroke fill markers"/>
  <rect id="rect828" x="19" y="27" width="10" height="10" ry="5" fill="#4e4e4e" fill-rule="evenodd" style="paint-order:stroke fill markers"/>
  <path id="path836" d="m19.5 28-0.5 3s-7 0-8 4c-0.51131 2.0452 2.8068 4.0523 2 6-0.28524 0.68862-1.2546 1-2 1s-2-0.25464-2-1 1.7351-0.3033 2-1c0.63793-1.6779-2-2-2-5 0-8.0623 10.5-7 10.5-7z" fill="#7d4836"/>
  <rect id="rect830" x="15" y="28" width="9" height="9" ry="4.5" fill="#bd7a66" fill-rule="evenodd" style="paint-order:stroke fill markers"/>
  <path id="path836-3" d="m28.5 28 0.5 3s7 0 8 4c0.51131 2.0452-2.8068 4.0523-2 6 0.28524 0.68862 1.2546 1 2 1s2-0.25464 2-1-1.7351-0.3033-2-1c-0.63793-1.6779 2-2 2-5 0-8.0623-10.5-7-10.5-7z" fill="#7d4836"/>
  <rect id="rect832" x="24" y="28" width="9" height="9" ry="4.5" fill="#bd7a66" fill-rule="evenodd" style="paint-order:stroke fill markers"/>
  <path id="path853" d="m26 24s0.68411-2.7878 3-4c2.0882-1.0931 7-1 7-1s-1.3751 6.1004-5 7c-2.6448 0.65637-5-2-5-2z" fill="#d7fdb2"/>
  <path id="path855" d="m29.689 23.156c-0.31536-1.1044 0.03184-2.2828 0.03184-2.2828s0.83813 0.41938 1.1411 1.3486c0.30298 0.9292 0.15561 2.2303 0.15561 2.2303s-1.0132-0.19175-1.3286-1.2961z" fill="#4e4e4e"/>
  <path id="path881" d="m7.5898 16.992c-0.19095 0.0044-0.37666 0.06334-0.53516 0.16992l-4.6016 3c-0.60544 0.39454-0.60544 1.2812 0 1.6758l4.6016 3c1.1217 0.74938 2.2305-0.95252 1.0918-1.6758l-0.14648-2.1621 0.14648-2.1621c0.85822-0.54137 0.45779-1.8691-0.55664-1.8457z" color="#000000" color-rendering="auto" dominant-baseline="auto" fill="#24738b" image-rendering="auto" shape-rendering="auto" solid-color="#000000" style="font-feature-settings:normal;font-variant-alternates:normal;font-variant-caps:normal;font-variant-ligatures:normal;font-variant-numeric:normal;font-variant-position:normal;isolation:auto;mix-blend-mode:normal;shape-padding:0;text-decoration-color:#000000;text-decoration-line:none;text-decoration-style:solid;text-indent:0;text-orientation:mixed;text-transform:none;white-space:normal"/>
  <path id="path881-3" d="m7.5898 16.992c-0.19095 0.0044-0.37666 0.06334-0.53516 0.16992l-4.6016 3c-0.60544 0.39454-0.60544 1.2812 0 1.6758l4.6016 3c1.1217 0.74938 2.2305-0.95252 1.0918-1.6758l-0.14648-2.1621 0.14648-2.1621c0.85822-0.54137 0.45779-1.8691-0.55664-1.8457zm0.011719 1.0078a1.0001 1.0001 0 0 0-0.45312 0.76953l-0.14648 2.1621a1.0001 1.0001 0 0 0 0 0.13672l0.14648 2.1621a1.0001 1.0001 0 0 0 0.42773 0.75391l-4.5762-2.9844z" color="#000000" color-rendering="auto" dominant-baseline="auto" image-rendering="auto" opacity=".45" shape-rendering="auto" solid-color="#000000" style="font-feature-settings:normal;font-variant-alternates:normal;font-variant-caps:normal;font-variant-ligatures:normal;font-variant-numeric:normal;font-variant-position:normal;isolation:auto;mix-blend-mode:normal;shape-padding:0;text-decoration-color:#000000;text-decoration-line:none;text-decoration-style:solid;text-indent:0;text-orientation:mixed;text-transform:none;white-space:normal"/>
  <rect id="rect884" x="7" y="13" width="16" height="16" ry="8" fill="#bdd1e9" fill-rule="evenodd" style="paint-order:stroke fill markers"/>
  <path id="path853-3" d="m22 24s-0.68411-2.7878-3-4c-2.0882-1.0931-7-1-7-1s1.3751 6.1004 5 7c2.6448 0.65637 5-2 5-2z" fill="#c3ecd8"/>
  <path id="path855-3" d="m18.311 23.156c0.31536-1.1044-0.03184-2.2828-0.03184-2.2828s-0.83813 0.41938-1.1411 1.3486c-0.30298 0.9292-0.15561 2.2303-0.15561 2.2303s1.0132-0.19175 1.3286-1.2961z" fill="#79a38e"/>
  <path id="rect875" d="m15 12c-4.986 0-9 4.014-9 9s4.014 9 9 9 9-4.014 9-9-4.014-9-9-9zm0 2c3.878 0 7 3.122 7 7s-3.122 7-7 7-7-3.122-7-7 3.122-7 7-7z" fill="#65b0c8" fill-rule="evenodd" style="paint-order:stroke fill markers"/>
  <path id="rect948" d="m15 12c-4.986 0-9 4.014-9 9s4.014 9 9 9 9-4.014 9-9-4.014-9-9-9zm0 1c4.432 0 8 3.568 8 8s-3.568 8-8 8-8-3.568-8-8 3.568-8 8-8z" fill-rule="evenodd" opacity=".25" style="paint-order:stroke fill markers"/>
  <path id="path886" d="m11 8c1-2 12.933-1.0606 19 1s16.804 8 16 11-13.016 0.06121-19-2c-5.9838-2.0612-17-8-16-10z" fill="#4e4e4e"/>
  <path id="path886-0" d="m15.852 6.8945c-2.5641 0.01918-4.4766 0.35547-4.8516 1.1055-1 2 10.016 7.9388 16 10 5.9838 2.0612 18.196 5 19 2s-9.9333-8.9394-16-11c-3.7917-1.2879-9.875-2.1374-14.148-2.1055zm0.0059 1c0.82666-0.00644 1.7331 0.02073 2.6797 0.080078 3.7865 0.23739 8.2525 0.99167 11.141 1.9727 2.9264 0.994 7.1007 2.9779 10.363 5.0449 1.6313 1.0335 3.0397 2.0955 3.9355 3.0117 0.44791 0.45812 0.76312 0.88217 0.92188 1.1973 0.15876 0.3151 0.15255 0.4727 0.13476 0.53906-0.01328 0.04956-0.01671 0.09839-0.26758 0.21875-0.25086 0.12036-0.71429 0.23625-1.3164 0.28711-1.2042 0.10172-2.9425-0.03417-4.8496-0.33594-3.8143-0.60354-8.3413-1.8454-11.273-2.8555-2.8909-0.99584-7.1245-2.9849-10.438-4.9395-1.6566-0.9773-3.0912-1.9543-3.9903-2.748-0.44954-0.39689-0.76074-0.75604-0.88867-0.9668 0.02858-0.018302-0.0044-0.00639 0.19336-0.080078 0.31524-0.11749 0.82553-0.23008 1.4531-0.30469 0.62759-0.07461 1.3745-0.11466 2.2012-0.12109z" color="#000000" color-rendering="auto" dominant-baseline="auto" image-rendering="auto" opacity=".4" shape-rendering="auto" solid-color="#000000" style="font-feature-settings:normal;font-variant-alternates:normal;font-variant-caps:normal;font-variant-ligatures:normal;font-variant-numeric:normal;font-variant-position:normal;isolation:auto;mix-blend-mode:normal;shape-padding:0;text-decoration-color:#000000;text-decoration-line:none;text-decoration-style:solid;text-indent:0;text-orientation:mixed;text-transform:none;white-space:normal"/>
  <path id="path888" d="m21.934 10.179 2.8526-7.7574s2.8526-1.4607 9.5086 0.96967c5.3112 1.9393 5.7052 3.8787 5.7052 3.8787l-2.8526 7.7574s-2.6235 1.9393-8.5578 0c-5.9343-1.9393-6.656-4.8484-6.656-4.8484z" fill="#4e4e4e"/>
  <path id="rect895" d="m15.279 16.011c-2.9312 0-5.2909 2.3597-5.2909 5.2909 0 0.3564 0.035633 0.70398 0.10219 1.0403 0.5434 0.08061 1.0949 0.13549 1.6614 0.13549 3.2649 0 6.1847-1.3954 8.2234-3.6145-0.87932-1.6964-2.6463-2.8521-4.6961-2.8521z" fill="#fff" fill-rule="evenodd" opacity=".25" style="paint-order:normal"/>
  <path id="rect953" d="m15 14c-3.878 0-7 3.122-7 7s3.122 7 7 7 7-3.122 7-7-3.122-7-7-7zm0 1c3.324 0 6 2.676 6 6s-2.676 6-6 6-6-2.676-6-6 2.676-6 6-6z" fill-rule="evenodd" opacity=".25" style="paint-order:stroke fill markers"/>
  <path id="path888-1" d="m27.045 1.994c-1.5452 0.061381-2.2578 0.4277-2.2578 0.4277l-2.8535 7.7571s0.72199 2.9097 6.6562 4.8491c5.9343 1.9393 8.5566 0 8.5566 0l2.8535-7.7589s-0.39387-1.9392-5.7051-3.8785c-3.328-1.2152-5.7048-1.4578-7.25-1.3964zm0.04297 0.93582c1.3903-0.055228 3.624 0.15678 6.8438 1.3324 2.5582 0.93413 3.8572 1.8435 4.4941 2.451 0.29209 0.27863 0.42027 0.47196 0.5 0.60499l-2.5898 7.0388c-0.08836 0.06342-0.35025 0.29084-1.4238 0.47705-1.2179 0.21123-3.1663 0.23261-5.9922-0.6909-2.8321-0.92555-4.3365-2.0483-5.1367-2.8897-0.4001-0.42069-0.62517-0.77313-0.74805-1.0053-0.03687-0.06966-0.02041-0.04378-0.03906-0.08408l2.584-7.0241c0.02171-0.00605 0.0041-0.00243 0.0293-0.00914 0.29671-0.079059 0.78338-0.17344 1.4785-0.20106z" color="#000000" color-rendering="auto" dominant-baseline="auto" image-rendering="auto" opacity=".4" shape-rendering="auto" solid-color="#000000" style="font-feature-settings:normal;font-variant-alternates:normal;font-variant-caps:normal;font-variant-ligatures:normal;font-variant-numeric:normal;font-variant-position:normal;isolation:auto;mix-blend-mode:normal;shape-padding:0;text-decoration-color:#000000;text-decoration-line:none;text-decoration-style:solid;text-indent:0;text-orientation:mixed;text-transform:none;white-space:normal"/>
  <path id="path888-4" d="m22.76 7.9361-0.82617 2.2427s0.72199 2.9097 6.6562 4.8491c5.9343 1.9393 8.5566 0 8.5566 0l0.82422-2.2427c-0.0098 0.0072-2.6315 1.9339-8.5547-0.0018-5.9343-1.9393-6.6562-4.8473-6.6562-4.8473z" fill="#7c8487"/>
 </g>
</svg>
