<?xml version="1.0" encoding="UTF-8"?>
<!-- Created with Inkscape (http://www.inkscape.org/) -->
<svg id="SVGRoot" width="48px" height="48px" version="1.1" viewBox="0 0 48 48" xmlns="http://www.w3.org/2000/svg" xmlns:cc="http://creativecommons.org/ns#" xmlns:dc="http://purl.org/dc/elements/1.1/" xmlns:rdf="http://www.w3.org/1999/02/22-rdf-syntax-ns#">
 <defs id="defs815">
  <style id="style819">.cls-1{fill:none;stroke:#fff;stroke-linecap:round;stroke-linejoin:round;}</style>
 </defs>
 <metadata id="metadata818">
  <rdf:RDF>
   <cc:Work rdf:about="">
    <dc:format>image/svg+xml</dc:format>
    <dc:type rdf:resource="http://purl.org/dc/dcmitype/StillImage"/>
    <dc:title/>
   </cc:Work>
  </rdf:RDF>
 </metadata>
 <g id="layer1">
  <rect id="rect1373-5" x="4" y="4" width="40" height="40" ry="8" fill="#efefef" fill-rule="evenodd" style="paint-order:stroke fill markers"/>
  <rect id="rect865" x="8" y="8" width="32" height="32" ry="5" fill="#c184ed" fill-rule="evenodd" style="paint-order:stroke fill markers"/>
  <path id="rect817" d="m12 4c-4.432 0-8 3.568-8 8v24c0 4.432 3.568 8 8 8h24c4.432 0 8-3.568 8-8v-24c0-4.432-3.568-8-8-8h-24zm0 1h24c3.878 0 7 3.122 7 7v24c0 3.878-3.122 7-7 7h-24c-3.878 0-7-3.122-7-7v-24c0-3.878 3.122-7 7-7z" fill-rule="evenodd" opacity=".3" style="paint-order:stroke fill markers"/>
  <path id="path817" d="m8 21s6 3 16 3 16-3 16-3v2s-2 9-16 9-16-9-16-9z" fill="#fff"/>
  <path id="rect819-4" d="m14 22.92v6.9414c0.60195 0.31668 1.2759 0.60382 2 0.86719v-7.4219c-0.70568-0.12303-1.3814-0.24779-2-0.38672zm20 0c-0.6186 0.13893-1.2943 0.26369-2 0.38672v7.4219c0.72412-0.26337 1.3981-0.5505 2-0.86719zm-11 1.0625v7.998c0.32829 0.01051 0.6575 0.019531 1 0.019531s0.67171-9e-3 1-0.01953v-7.998c-0.33245 0.006773-0.65812 0.017578-1 0.017578s-0.66755-0.01081-1-0.01758z" fill="#b7bfc2" fill-rule="evenodd" style="paint-order:stroke fill markers"/>
  <path id="rect889" d="m17 14c-2.77 0-5 2.23-5 5 0 0.554 0.446 1 1 1s1-0.446 1-1c0-1.662 1.338-3 3-3s3 1.338 3 3c0 0.554 0.446 1 1 1s1-0.446 1-1c0-2.77-2.23-5-5-5zm14 0c-2.77 0-5 2.23-5 5 0 0.554 0.446 1 1 1s1-0.446 1-1c0-1.662 1.338-3 3-3s3 1.338 3 3c0 0.554 0.446 1 1 1s1-0.446 1-1c0-2.77-2.23-5-5-5z" fill="#4e4e4e" fill-rule="evenodd" style="paint-order:stroke fill markers"/>
 </g>
</svg>
