<?xml version="1.0" encoding="UTF-8"?>
<!-- Created with Inkscape (http://www.inkscape.org/) -->
<svg id="SVGRoot" width="48px" height="48px" version="1.1" viewBox="0 0 48 48" xml:space="preserve" xmlns="http://www.w3.org/2000/svg" xmlns:cc="http://creativecommons.org/ns#" xmlns:dc="http://purl.org/dc/elements/1.1/" xmlns:rdf="http://www.w3.org/1999/02/22-rdf-syntax-ns#"><defs><style>.cls-1{fill:none;stroke:#fff;stroke-linecap:round;stroke-linejoin:round;}</style><style>.cls-1{fill:none;stroke:#fff;stroke-linecap:round;stroke-linejoin:round;}</style><style>.cls-1{fill:none;stroke:#fff;stroke-linecap:round;stroke-linejoin:round;}</style><style>.cls-1{fill:none;stroke:#fff;stroke-linecap:round;stroke-linejoin:round;}</style><style>.cls-1{fill:none;stroke:#fff;stroke-linecap:round;stroke-linejoin:round;}</style><style>.a{fill:none;stroke:#b1b5bd;stroke-linecap:round;stroke-linejoin:round;isolation:isolate;opacity:0.63;}</style><style>.cls-1{fill:none;stroke:#fff;stroke-linecap:round;stroke-linejoin:round;}</style><style>.cls-1{fill:none;stroke:#fff;stroke-linecap:round;stroke-linejoin:round;}</style><style>.cls-1{fill:none;stroke:#fff;stroke-linecap:round;stroke-linejoin:round;}</style><style>.a{fill:none;stroke:#b1b5bd;stroke-linecap:round;stroke-linejoin:round;isolation:isolate;opacity:0.63;}</style><style>.cls-1{fill:none;stroke:#fff;stroke-linecap:round;stroke-linejoin:round;}</style></defs><metadata><rdf:RDF><cc:Work rdf:about=""><dc:format>image/svg+xml</dc:format><dc:type rdf:resource="http://purl.org/dc/dcmitype/StillImage"/></cc:Work></rdf:RDF></metadata><path d="m24 2c-0.25588 0-0.51177 0.097785-0.70703 0.29297l-1.293 1.293-0.29297-0.29297c-0.39053-0.39037-1.0235-0.39037-1.4141 0l-0.70703 0.70703h-7.5859c-4.432 0-8 3.568-8 8v24c0 4.432 3.568 8 8 8h24c4.432 0 8-3.568 8-8v-24c0-4.432-3.568-8-8-8h-7.5859l-0.70703-0.70703c-0.39053-0.39037-1.0235-0.39037-1.4141 0l-0.29297 0.29297-1.293-1.293c-0.19526-0.19518-0.45115-0.29297-0.70703-0.29297z" fill="#96d56b" style="paint-order:stroke fill markers"/><path d="m24 2c-0.25588 0-0.51177 0.097785-0.70703 0.29297l-1.293 1.293-0.29297-0.29297c-0.39053-0.39037-1.0235-0.39037-1.4141 0l-0.70703 0.70703h-7.5859c-4.432 0-8 3.568-8 8v24c0 4.432 3.568 8 8 8h24c4.432 0 8-3.568 8-8v-24c0-4.432-3.568-8-8-8h-7.5859l-0.70703-0.70703c-0.39053-0.39037-1.0235-0.39037-1.4141 0l-0.29297 0.29297-1.293-1.293c-0.19526-0.19518-0.45115-0.29297-0.70703-0.29297zm0 1 1.293 1.293a1.0001 1.0001 0 0 0 1.4141 0l0.29297-0.29297 0.70703 0.70703a1.0001 1.0001 0 0 0 0.70703 0.29297h7.5859c3.8953 0 7 3.1047 7 7v24c0 3.8953-3.1047 7-7 7h-24c-3.8953 0-7-3.1047-7-7v-24c0-3.8953 3.1047-7 7-7h7.5859a1.0001 1.0001 0 0 0 0.70703-0.29297l0.70703-0.70703 0.29297 0.29297a1.0001 1.0001 0 0 0 1.4141 0l1.293-1.293z" opacity=".3" stop-color="#000000" stroke-linejoin="round" style="paint-order:stroke fill markers"/><g stroke-linecap="round" stroke-linejoin="round"><path d="m24 25c-3.4492 0-5.9384 1.1882-7.5 2.4375-1.3469 1.0775-2.0376 2.2168-2.2305 2.5605-0.0253 0.0451-0.03906 0.07031-0.03906 0.07031a1.0001 1.0001 0 0 0-0.04297 0.08984c-0.0012 0.0026-0.0027 0.0052-0.0039 0.0078v2e-3a1.0001 1.0001 0 0 0-2e-3 0.0039c-0.0053 0.01297-0.01055 0.02599-0.01563 0.03906-0.01716 0.04067-0.03439 0.08133-0.04883 0.12305-0.0018 0.0046-0.0041 9e-3 -0.0059 0.01367a1.0001 1.0001 0 0 0-0.02148 0.0625c-0.01031 0.03417-0.01887 0.06884-0.02734 0.10352-0.0121 0.04648-0.02253 0.09339-0.03125 0.14062a1.0001 1.0001 0 0 0-0.0059 0.03125c-5e-3 0.03306-0.0084 0.06634-0.01172 0.09961-0.0057 0.04802-0.0096 0.09623-0.01172 0.14453a1.0001 1.0001 0 0 0-0.001831 0.054669c1.94e-4 0.01824 0.0013 0.03646 2e-3 0.05469 2.1e-5 2e-3 -2.7e-5 0.0039 0 0.0059 6.13e-4 0.01498 1e-3 0.02996 2e-3 0.04492 0.0013 0.03519 0.0027 0.07039 0.0059 0.10547a1.0001 1.0001 0 0 0 0.0039 0.04102c0.0078 0.05903 0.01822 0.11768 0.03125 0.17578 0.0016 0.0084 0.0022 0.017 0.0039 0.02539l-0.01563-0.16016a1.0001 1.0001 0 0 0 0.02344 0.19726c0.02055 0.08495 0.04665 0.16847 0.07813 0.25a1.0001 1.0001 0 0 0 0.0039 0.0059c0.03435 0.08737 0.07482 0.17222 0.12109 0.25391a1.0001 1.0001 0 0 0 0 0.0039c0.04012 0.07033 0.08447 0.13817 0.13281 0.20312a1.0001 1.0001 0 0 0 0.0059 0.0059c0.03689 0.04864 0.076 0.09557 0.11719 0.14062l-0.0059-0.0039c0.0231 0.02567 0.04787 0.04978 0.07226 0.07422 0.01849 0.01863 0.03744 0.0368 0.05664 0.05469 0.0056 0.0054 0.01187 0.01025 0.01758 0.01563 0.0027 0.0025 0.0051 0.0053 0.0078 0.0078 0.01991 0.01853 0.0399 0.03698 0.06055 0.05469a1.0001 1.0001 0 0 0 0.01563 0.01367s0.02041 0.01581 0.04492 0.03516c0.21897 0.17278 1.4533 1.135 3.043 2.1133 1.7154 1.0556 3.8459 2.2968 6.1718 2.2968s4.4564-1.2412 6.1719-2.2969c1.5897-0.97826 2.824-1.9405 3.043-2.1133 0.02451-0.01934 0.04492-0.03516 0.04492-0.03516a1.0001 1.0001 0 0 0 0.01563-0.01367c0.02065-0.0177 0.04064-0.03616 0.06055-0.05469l0.0078-0.0078c0.02521-0.02294 0.05021-0.04612 0.07422-0.07031 0.0244-0.02444 0.04916-0.04855 0.07227-0.07422l-0.0059 0.0039c0.04119-0.04506 0.08029-0.09199 0.11719-0.14062a1.0001 1.0001 0 0 0 0.03711-0.05078c0.01617-0.02439 0.0318-0.04914 0.04687-0.07422 0.01295-0.01958 0.0268-0.03857 0.03906-0.05859a1.0001 1.0001 0 0 0 0.01563-0.0293c0.04627-0.08169 0.08674-0.16654 0.12109-0.25391a1.0001 1.0001 0 0 0 0.0059-0.01172c0.0318-0.08408 0.05791-0.17022 0.07813-0.25781a1.0001 1.0001 0 0 0 0.0059-0.02344c0.0017-0.0084 0.0023-0.01698 0.0039-0.02539l0.01172-0.06055c0.0073-0.03827 0.01443-0.07659 0.01953-0.11523a1.0001 1.0001 0 0 0 0.0039-0.04102c0.0031-0.03508 0.0046-0.07028 0.0059-0.10547l2e-3 -0.04492c8.26e-4 -0.02018 0.0017-0.04035 2e-3 -0.06055a1.0001 1.0001 0 0 0-2e-3 -0.05469c-0.0022-0.0483-0.0061-0.09651-0.01172-0.14453-0.0034-0.03327-0.0067-0.06655-0.01172-0.09961a1.0001 1.0001 0 0 0-0.0059-0.03125c-0.0087-0.04723-0.01915-0.09414-0.03125-0.14062-0.0085-0.03467-0.01703-0.06934-0.02734-0.10352a1.0001 1.0001 0 0 0-0.02148-0.0625c-0.0017-0.0046-0.0041-9e-3 -0.0059-0.01367l-0.02539-0.06445c-0.0076-0.01963-0.01526-0.03921-0.02344-0.05859l-0.01563-0.03906a1.0001 1.0001 0 0 0-0.04883-0.10352s-0.01376-0.02521-0.03906-0.07031c-0.19287-0.34378-0.88363-1.4831-2.2305-2.5606-1.5616-1.2493-4.0508-2.4375-7.5-2.4375z" opacity=".3" stop-color="#000000"/><path d="m16 30a1.0001 1.0001 0 0 0-0.625 1.7812s1.2931 1.0343 2.9766 2.0703 3.704 2.1484 5.6484 2.1484 3.965-1.1124 5.6484-2.1484c1.6835-1.036 2.9766-2.0703 2.9766-2.0703a1.0001 1.0001 0 0 0-0.625-1.7812z" fill="#f6a559" stop-color="#000000"/><path d="m24 26c-3.2222 0-5.4726 1.0969-6.875 2.2188s-2.0195 2.334-2.0195 2.334a1.0001 1.0001 0 0 0 0.52344 1.377s1.2907 0.5128 2.959 1.0254 3.6978 1.0449 5.4121 1.0449 3.7438-0.53233 5.4121-1.0449 2.959-1.0254 2.959-1.0254a1.0001 1.0001 0 0 0 0.52344-1.377s-0.61717-1.2121-2.0195-2.334-3.6528-2.2188-6.875-2.2188z" fill="#ffdd75" stop-color="#000000"/></g><rect x="33" y="18" width="7" height="2" ry="1" fill="#4e4e4e"/><rect x="28" y="14" width="10" height="12" ry="5" fill="#fff"/><rect x="30" y="18" width="6" height="6" ry="3" fill="#4e4e4e"/><path d="m11 23s1-2 4-2 4 2 4 2" fill="none" stroke="#4e4e4e" stroke-linecap="round" stroke-linejoin="round" stroke-width="2"/></svg>
