<?xml version="1.0" encoding="UTF-8"?>
<!-- Created with Inkscape (http://www.inkscape.org/) -->
<svg id="SVGRoot" width="48px" height="48px" version="1.1" viewBox="0 0 48 48" xmlns="http://www.w3.org/2000/svg" xmlns:cc="http://creativecommons.org/ns#" xmlns:dc="http://purl.org/dc/elements/1.1/" xmlns:rdf="http://www.w3.org/1999/02/22-rdf-syntax-ns#">
 <defs id="defs815">
  <style id="style819">.cls-1{fill:none;stroke:#fff;stroke-linecap:round;stroke-linejoin:round;}</style>
 </defs>
 <metadata id="metadata818">
  <rdf:RDF>
   <cc:Work rdf:about="">
    <dc:format>image/svg+xml</dc:format>
    <dc:type rdf:resource="http://purl.org/dc/dcmitype/StillImage"/>
    <dc:title/>
   </cc:Work>
  </rdf:RDF>
 </metadata>
 <g id="layer1">
  <rect id="rect849" x="7" y="11" width="28" height="30" fill="#a8a8a8" fill-rule="evenodd" style="paint-order:normal"/>
  <rect id="rect828" x="12" y="6" width="30" height="30" ry="15" fill="#45498f" fill-rule="evenodd" style="paint-order:normal"/>
  <path id="rect964" d="m26.891 6c-8.249 0-14.891 6.6416-14.891 14.891v0.21875c0 8.249 6.6416 14.891 14.891 14.891h0.21875c8.249 0 14.891-6.6416 14.891-14.891v-0.21875c0-8.249-6.6416-14.891-14.891-14.891zm0.10938 1c7.756 0 14 6.244 14 14s-6.244 14-14 14-14-6.244-14-14 6.244-14 14-14z" fill-rule="evenodd" opacity=".4" style="paint-order:normal"/>
  <path id="path857" d="m32.078 9.0527s-1.4227 2.549-2.4863 3.5098c-1.3158 1.1885-2.9234 1.9616-4.5527 2.7109v0.11133s2.9915-0.17453 5.5215 2.3555c2.1122 2.1122 2.7535 4.7428 2.9492 6.0078 0.55787-1.4763 1.0633-2.8948 1.6387-3.875 0.78575-1.3387 3.4355-3.1445 3.4355-3.1445s-0.74265-5.2628-6.5059-7.6758z" fill="#848eda"/>
  <rect id="rect919" x="18" y="22" width="8" height="8" ry="4" fill="#848eda" fill-rule="evenodd" style="paint-order:normal"/>
  <path id="path857-8" d="m22 16.768c-0.45629 0.25834-0.90313 0.53051-1.3262 0.83789-4.3178 3.1373-4.1589 8.5508-1.6816 11.551 2.3764 2.8777 8.3998 3.1221 11.186 0.51172 0.58308-0.54639 1.0687-1.2185 1.5059-1.9414-4.6836 2.2734-7.8026 1.9273-10.684-0.72656-3.035-3.3825-1-7 1-10.232z" fill="#848eda"/>
  <rect id="rect905" x="20" y="24" width="4" height="4" ry="2" fill="#fff" fill-rule="evenodd" opacity=".5" style="paint-order:normal"/>
  <path id="rect1373" d="m12 4c-4.432 0-8 3.568-8 8v24c0 4.432 3.568 8 8 8h24c4.432 0 8-3.568 8-8v-18s0-2-3-2c-1.6667 0-3 4-3 4s-1.1736 9.4792-7 15.699c-4.3297 4.6222-11.5 7-18.5 0s-4.8654-14.645 0-18.699c6-5 15.5-7 15.5-7s4-1 4-3c0-3-2-3-2-3h-18z" fill="#efefef" fill-rule="evenodd" style="paint-order:stroke fill markers"/>
  <path id="rect1373-6" d="m12 4c-4.432 0-8 3.568-8 8v24c0 4.432 3.568 8 8 8h24c4.432 0 8-3.568 8-8v-18s0-2-3-2c-1.6667 0-3 4-3 4s-1.1736 9.4792-7 15.699c-4.3297 4.6222-11.5 7-18.5 0s-4.8654-14.645 0-18.699c6-5 15.5-7 15.5-7s4-1 4-3c0-3-2-3-2-3h-18zm0 1h18s0.15639-0.0072199 0.40039 0.17578c0.244 0.183 0.59961 0.54644 0.59961 1.8242 0 0.16667-0.07488 0.34832-0.33203 0.60547-0.25715 0.25715-0.67486 0.52981-1.1152 0.75-0.88074 0.44037-1.7949 0.67383-1.7949 0.67383-0.10964 0.022458-9.6366 1.9849-15.898 7.2031-2.6149 2.1791-4.5133 5.3353-4.8047 8.9316-0.2914 3.5963 1.0736 7.5775 4.7383 11.242 3.6608 3.6608 7.5377 4.9719 11.051 4.6465 3.5131-0.32541 6.5921-2.2202 8.8867-4.6699 5.9907-6.3955 7.187-15.698 7.2383-16.115-0.001119 0.003287-0.019531 0.048828-0.019531 0.048828l0.042969-0.19336s-0.02227 0.13504-0.023438 0.14453c0.025278-0.074218 0.31544-0.92384 0.78516-1.791 0.24526-0.45279 0.53769-0.8897 0.79688-1.1602 0.25919-0.27046 0.43255-0.31641 0.44922-0.31641 1.2778 0 1.6412 0.35561 1.8242 0.59961s0.17578 0.40039 0.17578 0.40039v18c0 3.8953-3.1047 7-7 7h-24c-3.8953 0-7-3.1047-7-7v-24c0-3.8953 3.1047-7 7-7z" color="#000000" color-rendering="auto" dominant-baseline="auto" fill-rule="evenodd" image-rendering="auto" opacity=".3" shape-rendering="auto" solid-color="#000000" style="font-feature-settings:normal;font-variant-alternates:normal;font-variant-caps:normal;font-variant-ligatures:normal;font-variant-numeric:normal;font-variant-position:normal;isolation:auto;mix-blend-mode:normal;paint-order:stroke fill markers;shape-padding:0;text-decoration-color:#000000;text-decoration-line:none;text-decoration-style:solid;text-indent:0;text-orientation:mixed;text-transform:none;white-space:normal"/>
 </g>
</svg>
