<?xml version="1.0" encoding="UTF-8"?>
<!-- Created with Inkscape (http://www.inkscape.org/) -->
<svg id="SVGRoot" width="48px" height="48px" version="1.1" viewBox="0 0 48 48" xml:space="preserve" xmlns="http://www.w3.org/2000/svg" xmlns:cc="http://creativecommons.org/ns#" xmlns:dc="http://purl.org/dc/elements/1.1/" xmlns:rdf="http://www.w3.org/1999/02/22-rdf-syntax-ns#"><defs><style>.cls-1{fill:none;stroke:#fff;stroke-linecap:round;stroke-linejoin:round;}</style><style>.a{fill:none;stroke:#b1b5bd;stroke-linecap:round;stroke-linejoin:round;isolation:isolate;opacity:0.63;}</style><style>.cls-1{fill:none;stroke:#fff;stroke-linecap:round;stroke-linejoin:round;}</style></defs><metadata><rdf:RDF><cc:Work rdf:about=""><dc:format>image/svg+xml</dc:format><dc:type rdf:resource="http://purl.org/dc/dcmitype/StillImage"/></cc:Work></rdf:RDF></metadata><path d="m6.5898 6.1094c-1.5898 1.4602-2.5898 3.5518-2.5898 5.8906v12h20l-7-11-10.41-6.8906z" fill="#b072dd"/><path d="m41.41 6.1094-10.41 6.8906-7 11h20v-12c0-2.3388-1-4.4304-2.5898-5.8906z" fill="#f68d59"/><path d="m4 24v12c0 2.3388 1 4.4304 2.5898 5.8906l10.41-6.8906 7-11h-20z" fill="#729dec"/><path d="m24 24 7 11 10.41 6.8906c1.5898-1.4602 2.5898-3.5518 2.5898-5.8906v-12h-20z" fill="#ffdd75"/><path d="m24 4-2 10 2 10 17.662-17.662c-1.446-1.446-3.4461-2.3379-5.6621-2.3379h-12z" fill="#d35244"/><path d="m12 4c-2.216 0-4.2161 0.89189-5.6621 2.3379l17.662 17.662v-20h-12z" fill="#f280a3"/><path d="m24 24-17.662 17.662c1.446 1.446 3.4461 2.3379 5.6621 2.3379h12l2-10-2-10z" fill="#96dfd3"/><path d="m24 24v20h12c2.216 0 4.2161-0.89189 5.6621-2.3379l-17.662-17.662z" fill="#96d56b"/><path d="m12 4c-4.432 0-8 3.568-8 8v24c0 4.432 3.568 8 8 8h24c4.432 0 8-3.568 8-8v-24c0-4.432-3.568-8-8-8h-24zm0 1h24c3.878 0 7 3.122 7 7v24c0 3.878-3.122 7-7 7h-24c-3.878 0-7-3.122-7-7v-24c0-3.878 3.122-7 7-7z" fill-rule="evenodd" opacity=".3" style="paint-order:stroke fill markers"/><rect x="8" y="8" width="32" height="32" ry="4" fill="#4e4e4e" stroke-linecap="round" stroke-linejoin="round" stroke-width="2"/><path d="m14 14c12.5 0 18.333 5.8333 20 20-10.833-8.3333-20 0-20 0s8.3333-11.667 0-20z" fill="#fff" stroke-linecap="round" stroke-linejoin="round" stroke-width="2"/></svg>
