<?xml version="1.0" encoding="UTF-8"?>
<!-- Created with Inkscape (http://www.inkscape.org/) -->
<svg id="SVGRoot" width="48px" height="48px" version="1.1" viewBox="0 0 48 48" xmlns="http://www.w3.org/2000/svg" xmlns:cc="http://creativecommons.org/ns#" xmlns:dc="http://purl.org/dc/elements/1.1/" xmlns:rdf="http://www.w3.org/1999/02/22-rdf-syntax-ns#">
 <defs id="defs815">
  <style id="style819">.cls-1{fill:none;stroke:#fff;stroke-linecap:round;stroke-linejoin:round;}</style>
 </defs>
 <metadata id="metadata818">
  <rdf:RDF>
   <cc:Work rdf:about="">
    <dc:format>image/svg+xml</dc:format>
    <dc:type rdf:resource="http://purl.org/dc/dcmitype/StillImage"/>
    <dc:title/>
   </cc:Work>
  </rdf:RDF>
 </metadata>
 <g id="layer1">
  <rect id="rect1373-5" x="4" y="4" width="40" height="40" ry="8" fill="#4e4e4e" fill-rule="evenodd" style="paint-order:stroke fill markers"/>
  <path id="rect817" d="m12 4c-4.432 0-8 3.568-8 8v24c0 4.432 3.568 8 8 8h24c4.432 0 8-3.568 8-8v-24c0-4.432-3.568-8-8-8h-24zm0 1h24c3.878 0 7 3.122 7 7v24c0 3.878-3.122 7-7 7h-24c-3.878 0-7-3.122-7-7v-24c0-3.878 3.122-7 7-7z" fill-rule="evenodd" opacity=".4" style="paint-order:stroke fill markers"/>
  <rect id="rect825" x="14" y="14" width="20" height="20" ry="10" fill="#fff" fill-rule="evenodd" style="paint-order:stroke fill markers"/>
  <g id="text17473" transform="matrix(1.0557 0 0 1 -1.3839 0)" aria-label="8">
   <path id="path832" d="m28.749 26.975c0 1.1538-0.45134 2.1132-1.354 2.8784-0.89671 0.76519-2.0266 1.1478-3.3896 1.1478-1.4467 0-2.6005-0.37363-3.4613-1.1209-0.85486-0.74726-1.2823-1.7038-1.2823-2.8695 0-0.74128 0.21521-1.4108 0.64563-2.0086 0.43042-0.60378 1.0372-1.082 1.8203-1.4347v-0.0538c-0.46749-0.2397-0.76891-0.47198-1.158-1.0988-0.30085-0.48472-0.30141-1.1633-0.30141-1.8448 0-1.0043 0.44194-2.0122 1.0313-2.5263 0.80219-0.69972 1.4324-1.0043 2.7057-1.0043 1.3331 0 1.8082 0.31983 2.6033 0.95948 0.79508 0.63965 1.1926 1.4527 1.1926 2.4391 0 0.60378-0.18831 1.1986-0.56493 1.7845-0.37662 0.57987-0.62038 0.87876-1.0699 1.363v0.0538c0.83693 0.35868 1.4766 0.80106 1.919 1.3271s0.66356 1.1956 0.66356 2.0086zm-2.7142-6.5191c0-0.63965-0.25988-1.2418-0.65592-1.6177-0.3905-0.37064-0.72034-0.48063-1.3825-0.48063-0.65017 0-1.0427 0.23474-1.3448 0.50694-0.32177 0.28985-0.58084 0.88954-0.58084 1.4993 0 0.43042 0.07823 1.0128 0.28611 1.3533 0.15152 0.2482 0.25832 0.40308 0.52766 0.58601 0.22119 0.1076 0.53803 0.24809 0.95051 0.42145 0.41846 0.17336 0.82497 0.31684 1.2195 0.43042 0.34152-0.45673 0.41236-0.80405 0.63952-1.2285 0.22717-0.42444 0.34075-0.91464 0.34075-1.4706zm0.86695 6.6895c0-0.54998-0.12255-0.98937-0.36765-1.3182-0.23912-0.33477-0.71139-0.66954-1.4168-1.0043-0.28097-0.13152-0.58884-0.25407-0.92361-0.36765-0.33477-0.11358-0.78014-0.272-1.3361-0.47526-0.53803 0.29292-0.97144 0.69047-1.3002 1.1926-0.32282 0.50216-0.33846 1.0701-0.33846 1.7037 0 0.80704 0.13222 1.4736 0.68818 1.9997 0.55596 0.52607 1.2614 0.7891 2.1162 0.7891 0.8728 0 1.5692-0.22418 2.0893-0.67253 0.52607-0.44836 0.7891-1.0641 0.7891-1.8472z" fill="#4e4e4e" stroke-width=".45912"/>
  </g>
 </g>
</svg>
