<?xml version="1.0" encoding="UTF-8"?>
<!-- Created with Inkscape (http://www.inkscape.org/) -->
<svg id="SVGRoot" width="48px" height="48px" version="1.1" viewBox="0 0 48 48" xmlns="http://www.w3.org/2000/svg" xmlns:cc="http://creativecommons.org/ns#" xmlns:dc="http://purl.org/dc/elements/1.1/" xmlns:rdf="http://www.w3.org/1999/02/22-rdf-syntax-ns#">
 <defs id="defs815">
  <style id="style819">.cls-1{fill:none;stroke:#fff;stroke-linecap:round;stroke-linejoin:round;}</style>
 </defs>
 <metadata id="metadata818">
  <rdf:RDF>
   <cc:Work rdf:about="">
    <dc:format>image/svg+xml</dc:format>
    <dc:type rdf:resource="http://purl.org/dc/dcmitype/StillImage"/>
    <dc:title/>
   </cc:Work>
  </rdf:RDF>
 </metadata>
 <g id="layer1">
  <rect id="rect1373-5" x="4" y="4" width="40" height="40" ry="8" fill="#f68d59" fill-rule="evenodd" style="paint-order:stroke fill markers"/>
  <path id="rect828-6" d="m4.9023 8.3066c-0.57348 1.1042-0.90234 2.3585-0.90234 3.6934v24c0 4.432 3.568 8 8 8h24c1.3349 0 2.5891-0.32887 3.6934-0.90234-2.2091-18.222-16.569-32.582-34.791-34.791z" fill="#fff" fill-rule="evenodd" style="paint-order:stroke fill markers"/>
  <path id="path910" d="m4 12v24c0.41986 1.35e-4 0.7951-0.26199 0.93945-0.65625l8-20.002c0.15759-0.43319-0.0013-0.91798-0.38476-1.1738 0 0-3.288-2.168-8.5547-2.168z" color="#000000" color-rendering="auto" dominant-baseline="auto" fill="#f6a559" image-rendering="auto" shape-rendering="auto" solid-color="#000000" style="font-feature-settings:normal;font-variant-alternates:normal;font-variant-caps:normal;font-variant-ligatures:normal;font-variant-numeric:normal;font-variant-position:normal;isolation:auto;mix-blend-mode:normal;shape-padding:0;text-decoration-color:#000000;text-decoration-line:none;text-decoration-style:solid;text-indent:0;text-orientation:mixed;text-transform:none;white-space:normal"/>
  <path id="path902" d="m16.945 16.002a1.0001 1.0001 0 0 0-0.88476 0.65625l-8 22a1.0001 1.0001 0 0 0 1.2812 1.2812l22-8a1.0001 1.0001 0 0 0 0.58594-1.3105s-2.0439-5.1592-6.2207-9.3359c-4.1768-4.1768-8.4648-5.2637-8.4648-5.2637a1.0001 1.0001 0 0 0-0.29688-0.02734z" color="#000000" color-rendering="auto" dominant-baseline="auto" fill="#f6a559" image-rendering="auto" shape-rendering="auto" solid-color="#000000" style="font-feature-settings:normal;font-variant-alternates:normal;font-variant-caps:normal;font-variant-ligatures:normal;font-variant-numeric:normal;font-variant-position:normal;isolation:auto;mix-blend-mode:normal;shape-padding:0;text-decoration-color:#000000;text-decoration-line:none;text-decoration-style:solid;text-indent:0;text-orientation:mixed;text-transform:none;white-space:normal"/>
  <path id="path906" d="m32.982 35c-0.11068 0.0021-0.22024 0.02256-0.32422 0.06055l-20.002 8c-0.39426 0.14435-0.65638 0.51959-0.65625 0.93945h24c0-5.2667-2.168-8.5547-2.168-8.5547-0.1889-0.28343-0.50905-0.45124-0.84961-0.44531z" color="#000000" color-rendering="auto" dominant-baseline="auto" fill="#f6a559" image-rendering="auto" shape-rendering="auto" solid-color="#000000" style="font-feature-settings:normal;font-variant-alternates:normal;font-variant-caps:normal;font-variant-ligatures:normal;font-variant-numeric:normal;font-variant-position:normal;isolation:auto;mix-blend-mode:normal;shape-padding:0;text-decoration-color:#000000;text-decoration-line:none;text-decoration-style:solid;text-indent:0;text-orientation:mixed;text-transform:none;white-space:normal"/>
  <rect id="rect953" x="30" y="10" width="6" height="6" ry="3" fill="#fff" fill-rule="evenodd" opacity=".5" style="paint-order:stroke fill markers"/>
  <rect id="rect955" x="36" y="16" width="4" height="4" ry="2" fill="#fff" fill-rule="evenodd" opacity=".5" style="paint-order:stroke fill markers"/>
  <path id="rect817" d="m12 4c-4.432 0-8 3.568-8 8v24c0 4.432 3.568 8 8 8h24c4.432 0 8-3.568 8-8v-24c0-4.432-3.568-8-8-8h-24zm0 1h24c3.878 0 7 3.122 7 7v24c0 3.878-3.122 7-7 7h-24c-3.878 0-7-3.122-7-7v-24c0-3.878 3.122-7 7-7z" fill-rule="evenodd" opacity=".3" style="paint-order:stroke fill markers"/>
 </g>
</svg>
