<?xml version="1.0" encoding="UTF-8"?>
<!-- Created with Inkscape (http://www.inkscape.org/) -->
<svg id="SVGRoot" width="48px" height="48px" version="1.1" viewBox="0 0 48 48" xml:space="preserve" xmlns="http://www.w3.org/2000/svg" xmlns:cc="http://creativecommons.org/ns#" xmlns:dc="http://purl.org/dc/elements/1.1/" xmlns:rdf="http://www.w3.org/1999/02/22-rdf-syntax-ns#"><defs><style>.cls-1{fill:none;stroke:#fff;stroke-linecap:round;stroke-linejoin:round;}</style></defs><metadata><rdf:RDF><cc:Work rdf:about=""><dc:format>image/svg+xml</dc:format><dc:type rdf:resource="http://purl.org/dc/dcmitype/StillImage"/></cc:Work></rdf:RDF></metadata><rect x="4" y="4" width="40" height="40" ry="8" fill="#dadada" fill-rule="evenodd" style="paint-order:stroke fill markers"/><path d="m12 4c-4.432 0-8 3.568-8 8v24c0 4.432 3.568 8 8 8h24c4.432 0 8-3.568 8-8v-24c0-4.432-3.568-8-8-8zm0 1h24c3.878 0 7 3.122 7 7v24c0 3.878-3.122 7-7 7h-24c-3.878 0-7-3.122-7-7v-24c0-3.878 3.122-7 7-7z" fill-rule="evenodd" opacity=".3" style="paint-order:stroke fill markers"/><path d="m24.865 12.038c-0.77812 0.0233-1.5539 0.11432-2.3196 0.25331-1.5862 0.28796-4.1291 2.5917-4.1291 2.5917s-1.5651-0.19823-4.3742 1.2958c-6.051 3.2184-3.4574 10.304-3.4574 10.304l3.9151 6.8277s3.3403 4.3125 7.4023 2.1187c5.1592-2.7863 2.2034-7.3973 2.2034-7.3973l-2.7234-4.8041s-1.3157-2.2671-3.0578-1.2958c-1.7135 0.95528-0.49027 3.0661-0.49027 3.0661l2.3862 4.1716s1.4195 1.6704-0.15303 2.6239c-1.4481 0.87801-2.355-0.72626-2.355-0.72626l-2.9062-5.1219c0 1e-6 -2.3523-4.3539 1.6522-6.447 4.7956-2.5066 7.6162 2.0221 7.6162 2.0221l3.3341 5.8789s3.1663 4.5816 7.8316 1.9913c4.7276-2.6248 1.774-7.2699 1.774-7.2699s-2.661-5.8421-5.3236-7.9332c-2.1396-1.6804-4.4912-2.2194-6.8256-2.1495zm0.41376 3.8978c1.4798-0.0333 3.6974 0.32202 5.0047 2.4555 1.1011 1.7969 3.1825 5.4689 3.1825 5.4689s0.84737 1.4028-0.61213 2.1802c-1.3603 0.72465-2.2331-0.97957-2.2331-0.97957s-2.393-4.084-3.5793-6.1322c-0.95541-1.6496-3.2732-2.8128-3.2732-2.8128s0.62259-0.16012 1.5105-0.1801z" fill="#e25abb" stroke-linecap="round" stroke-linejoin="round" stroke-width="1.475" style="paint-order:stroke fill markers"/></svg>
