<?xml version="1.0" encoding="UTF-8"?>
<!-- Created with Inkscape (http://www.inkscape.org/) -->
<svg id="SVGRoot" width="48px" height="48px" version="1.1" viewBox="0 0 48 48" xml:space="preserve" xmlns="http://www.w3.org/2000/svg" xmlns:cc="http://creativecommons.org/ns#" xmlns:dc="http://purl.org/dc/elements/1.1/" xmlns:rdf="http://www.w3.org/1999/02/22-rdf-syntax-ns#"><defs><style>.cls-1{fill:none;stroke:#fff;stroke-linecap:round;stroke-linejoin:round;}</style><style>.cls-1{fill:none;stroke:#fff;stroke-linecap:round;stroke-linejoin:round;}</style><style>.cls-1{fill:none;stroke:#fff;stroke-linecap:round;stroke-linejoin:round;}</style><style>.cls-1{fill:none;stroke:#fff;stroke-linecap:round;stroke-linejoin:round;}</style><style>.cls-1{fill:none;stroke:#fff;stroke-linecap:round;stroke-linejoin:round;}</style></defs><metadata><rdf:RDF><cc:Work rdf:about=""><dc:format>image/svg+xml</dc:format><dc:type rdf:resource="http://purl.org/dc/dcmitype/StillImage"/></cc:Work></rdf:RDF></metadata><rect x="4" y="4" width="40" height="40" ry="8" fill="#dadada" fill-rule="evenodd" style="paint-order:stroke fill markers"/><path d="m12 4c-4.432 0-8 3.568-8 8v24c0 4.432 3.568 8 8 8h24c4.432 0 8-3.568 8-8v-24c0-4.432-3.568-8-8-8zm0 1h24c3.878 0 7 3.122 7 7v24c0 3.878-3.122 7-7 7h-24c-3.878 0-7-3.122-7-7v-24c0-3.878 3.122-7 7-7z" fill-rule="evenodd" opacity=".3" style="paint-order:stroke fill markers"/><path d="m19.72 29.681 9.1375-4.0532s4.7198-1.8548 2.4979-6.5747c-2.0474-4.3493-7.2345-2.9928-7.2345-2.9928l-7.5173 3.2991s-1.4595 0.45516-0.70695 2.0737c0.69125 1.4868 2.4508 0.80122 2.4508 0.80122l5.42-2.4272s2.4738-0.99286 3.3698 0.68339c1.1718 2.1922-1.2254 2.8278-1.2254 2.8278l-5.3964 2.3565s-5.2542 2.5209-8.1535-2.0737c-3.2091-5.0855 1.7438-7.6351 1.7438-7.6351l7.3523-3.1577s9.1272-3.6675 13.856 4.9015c4.0548 7.3473-3.3934 10.934-3.3934 10.934l-6.2626 2.8749 1.1254 1.7438s0.81598 1.7135-0.98973 2.4979c-1.9278 0.83738-2.933-0.93689-2.933-0.93689z" fill="#4e4e4e" stroke-linecap="round" stroke-linejoin="round" stroke-width="1.5808" style="paint-order:stroke fill markers"/></svg>
