<?xml version="1.0" encoding="UTF-8"?>
<!-- Created with Inkscape (http://www.inkscape.org/) -->
<svg id="SVGRoot" width="48px" height="48px" version="1.1" viewBox="0 0 48 48" xml:space="preserve" xmlns="http://www.w3.org/2000/svg" xmlns:cc="http://creativecommons.org/ns#" xmlns:dc="http://purl.org/dc/elements/1.1/" xmlns:rdf="http://www.w3.org/1999/02/22-rdf-syntax-ns#"><defs><style>.cls-1{fill:none;stroke:#fff;stroke-linecap:round;stroke-linejoin:round;}</style></defs><metadata><rdf:RDF><cc:Work rdf:about=""><dc:format>image/svg+xml</dc:format><dc:type rdf:resource="http://purl.org/dc/dcmitype/StillImage"/></cc:Work></rdf:RDF></metadata><rect x="4" y="4" width="40" height="40" ry="8" fill="#DADADA" fill-rule="evenodd" style="paint-order:stroke fill markers"/><path d="m12 4c-4.432 0-8 3.568-8 8v24c0 4.432 3.568 8 8 8h24c4.432 0 8-3.568 8-8v-24c0-4.432-3.568-8-8-8zm0 1h24c3.878 0 7 3.122 7 7v24c0 3.878-3.122 7-7 7h-24c-3.878 0-7-3.122-7-7v-24c0-3.878 3.122-7 7-7z" fill-rule="evenodd" opacity=".3" style="paint-order:stroke fill markers"/><path d="m21.288 12.162s1.8938-0.5665 2.5533 0.70986c1.1021 2.133-0.91534 2.6366-0.91534 2.6366l-6.7447 3.3465s-4.3022 2.7706-1.5416 8.569c2.7669 5.8117 8.6235 4.5127 8.6235 4.5127l8.8162-3.7521s3.3723-1.0141 1.8789-5.0704c-1.4935-4.0563-5.8293-2.8901-5.8293-2.8901l-6.4556 2.8394s-0.87461 0.58955-0.52994 1.4704c0.5898 1.5073 1.7343 0.96338 1.7343 0.96338l5.1067-2.3324s1.6862-0.45634 2.3125 0.65915c0.62629 1.1155 0.48176 1.8253 0 2.1296s-5.9738 2.9915-5.9738 2.9915-4.5435 0.96322-6.2629-2.4845c-2.1654-4.3419 1.3008-6.2873 1.3008-6.2873l6.1665-2.9408s7.3709-2.4338 10.984 2.9408c3.6132 5.3746-0.09635 10.141-1.8789 10.901-1.7825 0.76056-9.5389 4.4112-9.5389 4.4112s-8.3109 2.7195-12.863-4.9183c-5.6819-9.5333 2.3125-15.059 2.3125-15.059z" fill="#757679" style="paint-order:stroke fill markers"/></svg>
