<?xml version="1.0" encoding="UTF-8"?>
<!-- Created with Inkscape (http://www.inkscape.org/) -->
<svg id="SVGRoot" width="48px" height="48px" version="1.1" viewBox="0 0 48 48" xmlns="http://www.w3.org/2000/svg" xmlns:cc="http://creativecommons.org/ns#" xmlns:dc="http://purl.org/dc/elements/1.1/" xmlns:rdf="http://www.w3.org/1999/02/22-rdf-syntax-ns#">
 <defs>
  <style>.cls-1{fill:none;stroke:#fff;stroke-linecap:round;stroke-linejoin:round;}</style>
  <style>.cls-1{fill:none;stroke:#fff;stroke-linecap:round;stroke-linejoin:round;}</style>
  <style>.cls-1{fill:none;stroke:#fff;stroke-linecap:round;stroke-linejoin:round;}</style>
  <style>.cls-1{fill:none;stroke:#fff;stroke-linecap:round;stroke-linejoin:round;}</style>
  <style>.cls-1{fill:none;stroke:#fff;stroke-linecap:round;stroke-linejoin:round;}</style>
  <style>.cls-1{fill:none;stroke:#fff;stroke-linecap:round;stroke-linejoin:round;}</style>
  <style>.a{fill:none;stroke:#b1b5bd;stroke-linecap:round;stroke-linejoin:round;isolation:isolate;opacity:0.63;}</style>
  <style>.cls-1{fill:none;stroke:#fff;stroke-linecap:round;stroke-linejoin:round;}</style>
  <style>.cls-1{fill:none;stroke:#fff;stroke-linecap:round;stroke-linejoin:round;}</style>
  <style>.cls-1{fill:none;stroke:#fff;stroke-linecap:round;stroke-linejoin:round;}</style>
  <style>.cls-1{fill:none;stroke:#fff;stroke-linecap:round;stroke-linejoin:round;}</style>
  <style>.a{fill:none;stroke:#b1b5bd;stroke-linecap:round;stroke-linejoin:round;isolation:isolate;opacity:0.63;}</style>
  <style>.cls-1{fill:none;stroke:#fff;stroke-linecap:round;stroke-linejoin:round;}</style>
  <style>.cls-1{fill:none;stroke:#fff;stroke-linecap:round;stroke-linejoin:round;}</style>
  <style>.cls-1{fill:none;stroke:#fff;stroke-linecap:round;stroke-linejoin:round;}</style>
 </defs>
 <metadata>
  <rdf:RDF>
   <cc:Work rdf:about="">
    <dc:format>image/svg+xml</dc:format>
    <dc:type rdf:resource="http://purl.org/dc/dcmitype/StillImage"/>
   </cc:Work>
  </rdf:RDF>
 </metadata>
 <g fill-rule="evenodd">
  <rect x="4" y="4" width="40" height="40" ry="8" fill="#efefef" style="paint-order:stroke fill markers"/>
  <path d="m12 4c-4.432 0-8 3.568-8 8v24c0 4.432 3.568 8 8 8h24c4.432 0 8-3.568 8-8v-24c0-4.432-3.568-8-8-8zm0 1h24c3.878 0 7 3.122 7 7v24c0 3.878-3.122 7-7 7h-24c-3.878 0-7-3.122-7-7v-24c0-3.878 3.122-7 7-7z" opacity=".3" style="paint-order:stroke fill markers"/>
  <path d="m20.418 10.809-9.4004 9.8633 1.8379 1.8066c0.0015 0.0018 0.0025 4e-3 0.0039 0.0059 0.20606 0.26057 0.44498 0.49344 0.70898 0.69531 0.67308 0.51463 1.5151 0.82027 2.4316 0.82027h4c2.216 0 4-1.784 4-4v-4c0-1.0624-0.41291-2.0235-1.084-2.7383l2e-3 -0.0039-0.23633-0.23047z" fill="#88372e" style="paint-order:stroke fill markers"/>
  <rect x="10" y="10" width="12" height="12" ry="4" fill="#d35244" style="paint-order:stroke fill markers"/>
  <path transform="scale(-1,1)" d="m-27.582 10.809 2.2637 2.2188 0.23633 0.23047-2e-3 0.0039c0.67112 0.71483 1.084 1.6759 1.084 2.7383v4c0 2.216-1.784 4-4 4h-4c-0.91651 0-1.7586-0.30564-2.4316-0.82031-0.264-0.20187-0.50292-0.43475-0.70898-0.69531-0.0015-0.0018-0.0025-4e-3 -0.0039-0.0059l-1.8379-1.8066z" fill="#4f7b32" style="paint-order:stroke fill markers"/>
  <rect x="26" y="10" width="12" height="12" ry="4" fill="#96d56b" style="paint-order:stroke fill markers"/>
  <path transform="scale(1,-1)" d="m16-24c-0.91651 0-1.7586-0.30564-2.4316-0.82031-0.264-0.20187-0.50292-0.43475-0.70898-0.69531-0.0015-0.0018-0.0025-4e-3 -0.0039-0.0059l-1.8379-1.8066 9.4004-9.8633 2.2637 2.2188 0.23633 0.23047-2e-3 0.0039c0.67112 0.71487 1.084 1.676 1.084 2.7383v4c0 2.216-1.784 4-4 4z" fill="#b59430" style="paint-order:stroke fill markers"/>
  <rect x="10" y="26" width="12" height="12" ry="4" fill="#ffdd75" style="paint-order:stroke fill markers"/>
  <path transform="scale(-1)" d="m-28-24c2.216 0 4-1.784 4-4v-4c0-1.0624-0.41291-2.0235-1.084-2.7383l2e-3 -0.0039-0.23633-0.23047-2.2637-2.2188-9.4004 9.8633 1.8379 1.8066 0.0039 0.0059c0.20606 0.26056 0.44498 0.49344 0.70898 0.69531 0.67303 0.51462 1.5151 0.82026 2.4316 0.82026z" fill="#503e96" style="paint-order:stroke fill markers"/>
  <rect x="26" y="26" width="12" height="12" ry="4" fill="#8872dd" style="paint-order:stroke fill markers"/>
 </g>
</svg>
