<?xml version="1.0" encoding="UTF-8"?>
<!-- Created with Inkscape (http://www.inkscape.org/) -->
<svg id="SVGRoot" width="48px" height="48px" version="1.1" viewBox="0 0 48 48" xmlns="http://www.w3.org/2000/svg" xmlns:cc="http://creativecommons.org/ns#" xmlns:dc="http://purl.org/dc/elements/1.1/" xmlns:rdf="http://www.w3.org/1999/02/22-rdf-syntax-ns#">
 <defs>
  <style>.cls-1{fill:none;stroke:#fff;stroke-linecap:round;stroke-linejoin:round;}</style>
 </defs>
 <metadata>
  <rdf:RDF>
   <cc:Work rdf:about="">
    <dc:format>image/svg+xml</dc:format>
    <dc:type rdf:resource="http://purl.org/dc/dcmitype/StillImage"/>
   </cc:Work>
  </rdf:RDF>
 </metadata>
 <rect x="4" y="4" width="40" height="40" ry="8" fill="#efefef" fill-rule="evenodd" style="paint-order:stroke fill markers"/>
 <rect x="15" y="15" width="18" height="18" ry="4" opacity=".3" stroke-linecap="round" stroke-linejoin="round" stroke-width="2"/>
 <rect x="29" y="28" width="14" height="7" opacity=".15" stroke-linecap="round" stroke-linejoin="round" stroke-width="2"/>
 <path d="m12 4c-4.432 0-8 3.568-8 8v24c0 4.432 3.568 8 8 8h24c4.432 0 8-3.568 8-8v-24c0-4.432-3.568-8-8-8zm0 1h24c3.878 0 7 3.122 7 7v24c0 3.878-3.122 7-7 7h-24c-3.878 0-7-3.122-7-7v-24c0-3.878 3.122-7 7-7z" fill-rule="evenodd" opacity=".3" style="paint-order:stroke fill markers"/>
 <g stroke-linecap="round" stroke-linejoin="round" stroke-width="2">
  <rect x="16" y="16" width="16" height="16" ry="3" fill="#d5946d"/>
  <rect x="18" y="18" width="12" height="12" ry="2" opacity=".35"/>
  <rect x="18" y="20" width="12" height="10" ry="2" opacity=".4"/>
  <path d="m46 32-2 3 2 3-2 3 2 3h-8v-12z" fill="#efefef"/>
  <rect x="23" y="32" width="15" height="12" fill="#efefef"/>
  <path d="m23 43v1h23l-2-3 2-3-2-3 2-3h-23v1h21l-1 2 2 3-2 3 1 2z" opacity=".3"/>
 </g>
</svg>
