<?xml version="1.0" encoding="UTF-8"?>
<!-- Created with Inkscape (http://www.inkscape.org/) -->
<svg id="SVGRoot" width="48px" height="48px" version="1.1" viewBox="0 0 48 48" xml:space="preserve" xmlns="http://www.w3.org/2000/svg" xmlns:cc="http://creativecommons.org/ns#" xmlns:dc="http://purl.org/dc/elements/1.1/" xmlns:rdf="http://www.w3.org/1999/02/22-rdf-syntax-ns#"><defs><style>.cls-1{fill:none;stroke:#fff;stroke-linecap:round;stroke-linejoin:round;}</style><style>.cls-1{fill:none;stroke:#fff;stroke-linecap:round;stroke-linejoin:round;}</style><style>.cls-1{fill:none;stroke:#fff;stroke-linecap:round;stroke-linejoin:round;}</style><style>.cls-1{fill:none;stroke:#fff;stroke-linecap:round;stroke-linejoin:round;}</style><style>.cls-1{fill:none;stroke:#fff;stroke-linecap:round;stroke-linejoin:round;}</style><style>.cls-1{fill:none;stroke:#fff;stroke-linecap:round;stroke-linejoin:round;}</style><style>.a{fill:none;stroke:#b1b5bd;stroke-linecap:round;stroke-linejoin:round;isolation:isolate;opacity:0.63;}</style></defs><metadata><rdf:RDF><cc:Work rdf:about=""><dc:format>image/svg+xml</dc:format><dc:type rdf:resource="http://purl.org/dc/dcmitype/StillImage"/></cc:Work></rdf:RDF></metadata><rect x="4" y="4" width="40" height="40" ry="8" fill="#efefef" fill-rule="evenodd" style="paint-order:stroke fill markers"/><rect x="8" y="8" width="32" height="32" ry="4" fill="#4e4e4e" stroke-linecap="round" stroke-linejoin="round" stroke-width="2"/><path d="m12 4c-4.432 0-8 3.568-8 8v24c0 4.432 3.568 8 8 8h24c4.432 0 8-3.568 8-8v-24c0-4.432-3.568-8-8-8zm0 1h24c3.878 0 7 3.122 7 7v24c0 3.878-3.122 7-7 7h-24c-3.878 0-7-3.122-7-7v-24c0-3.878 3.122-7 7-7z" fill-rule="evenodd" opacity=".3" style="paint-order:stroke fill markers"/><g stroke-linecap="round" stroke-linejoin="round"><g stroke-width="2"><path d="m24 10c-0.554 0-1 0.446-1 1v2c0 0.554 0.446 1 1 1s1-0.446 1-1v-2c0-0.554-0.446-1-1-1zm-9.1934 3.8066c-0.25562 0-0.51116 0.0971-0.70703 0.29297-0.39174 0.39174-0.39174 1.0243 0 1.416l1.416 1.4141c0.39174 0.39174 1.0223 0.39174 1.4141 0 0.39174-0.39174 0.39174-1.0223 0-1.4141l-1.4141-1.416c-0.19587-0.19587-0.45336-0.29297-0.70898-0.29297zm18.387 0c-0.25562 0-0.51312 0.0971-0.70898 0.29297l-1.4141 1.416c-0.39174 0.39174-0.39174 1.0223 0 1.4141 0.39174 0.39174 1.0223 0.39174 1.4141 0l1.416-1.4141c0.39174-0.39174 0.39174-1.0243 0-1.416-0.19587-0.19587-0.45141-0.29297-0.70703-0.29297zm-22.193 9.1934c-0.554 0-1 0.446-1 1s0.446 1 1 1h2c0.554 0 1-0.446 1-1s-0.446-1-1-1zm24 0c-0.554 0-1 0.446-1 1s0.446 1 1 1h2c0.554 0 1-0.446 1-1s-0.446-1-1-1zm-18.777 7.7773c-0.25562 0-0.51116 0.0971-0.70703 0.29297l-1.416 1.4141c-0.39174 0.39174-0.39174 1.0243 0 1.416 0.39174 0.39174 1.0243 0.39174 1.416 0l1.4141-1.416c0.39174-0.39174 0.39174-1.0223 0-1.4141-0.19587-0.19587-0.45141-0.29297-0.70703-0.29297zm15.555 0c-0.25562 0-0.51116 0.0971-0.70703 0.29297-0.39174 0.39174-0.39174 1.0223 0 1.4141l1.4141 1.416c0.39174 0.39174 1.0243 0.39174 1.416 0 0.39174-0.39174 0.39174-1.0243 0-1.416l-1.416-1.4141c-0.19587-0.19587-0.45141-0.29297-0.70703-0.29297zm-7.7773 3.2227c-0.554 0-1 0.446-1 1v2c0 0.554 0.446 1 1 1s1-0.446 1-1v-2c0-0.554-0.446-1-1-1z" fill="#efefef"/><path d="m18.485 11.132c-0.5092 0.21825-0.74343 0.80388-0.52519 1.3131l0.78789 1.8383c0.21825 0.5092 0.80388 0.74343 1.3131 0.52519s0.74343-0.80388 0.52519-1.3131l-0.78789-1.8383c-0.21825-0.5092-0.80388-0.74343-1.3131-0.52519zm-6.9503 7.1205c-0.23495 0.1007-0.43158 0.29062-0.53444 0.54781-0.20574 0.51438 0.04345 1.0958 0.55783 1.3015l1.8586 0.74188c0.51438 0.20574 1.094-0.04268 1.2997-0.55706 0.20574-0.51438-0.04268-1.094-0.55706-1.2997l-1.8575-0.74444c-0.25719-0.10287-0.53212-0.09068-0.76706 0.01002zm16.9-7.2434c-0.23495 0.1007-0.43337 0.29139-0.53624 0.54858l-0.74188 1.8586c-0.20574 0.51438 0.04268 1.094 0.55706 1.2997 0.51438 0.20574 1.094-0.04268 1.2997-0.55706l0.74444-1.8575c0.20574-0.51438-0.04345-1.0958-0.55783-1.3015-0.25719-0.10287-0.53032-0.09145-0.76527 0.0093zm-16.777 17.193c-0.5092 0.21825-0.74343 0.80388-0.52519 1.3131s0.80388 0.74343 1.3131 0.52519l1.8383-0.78789c0.5092-0.21825 0.74343-0.80388 0.52519-1.3131s-0.80388-0.74343-1.3131-0.52519zm22.059-9.4547c-0.5092 0.21825-0.74343 0.80388-0.52519 1.3131s0.80388 0.74343 1.3131 0.52519l1.8383-0.78789c0.5092-0.21825 0.74343-0.80388 0.52519-1.3131s-0.80388-0.74343-1.3131-0.52519zm-14.195 14.546c-0.23495 0.1007-0.43157 0.29062-0.53444 0.54781l-0.74444 1.8575c-0.20574 0.51438 0.04345 1.0958 0.55783 1.3015 0.51438 0.20574 1.0958-0.04345 1.3015-0.55783l0.74188-1.8586c0.20574-0.51438-0.04268-1.094-0.55706-1.2997-0.25719-0.10287-0.53032-0.09144-0.76527 0.0093zm14.297-6.1277c-0.23495 0.1007-0.43158 0.29062-0.53444 0.54781-0.20574 0.51438 0.04268 1.094 0.55706 1.2997l1.8575 0.74444c0.51438 0.20574 1.0958-0.04345 1.3015-0.55783 0.20574-0.51438-0.04345-1.0958-0.55783-1.3015l-1.8586-0.74188c-0.25719-0.10287-0.53032-0.09145-0.76527 0.0093zm-5.8789 6.0259c-0.5092 0.21825-0.74343 0.80388-0.52519 1.3131l0.78789 1.8383c0.21825 0.5092 0.80388 0.74343 1.3131 0.52519s0.74343-0.80388 0.52519-1.3131l-0.78789-1.8383c-0.21825-0.5092-0.80388-0.74343-1.3131-0.52519z" fill="#fff" opacity=".2"/><path d="m24 14-4 8h8z" fill="#f97263"/></g><rect x="19" y="19" width="10" height="10" ry="5" fill="#efefef" stroke-width="1.25"/></g></svg>
