<?xml version="1.0" encoding="UTF-8"?>
<!-- Created with Inkscape (http://www.inkscape.org/) -->
<svg id="SVGRoot" width="48px" height="48px" version="1.1" viewBox="0 0 48 48" xmlns="http://www.w3.org/2000/svg" xmlns:cc="http://creativecommons.org/ns#" xmlns:dc="http://purl.org/dc/elements/1.1/" xmlns:rdf="http://www.w3.org/1999/02/22-rdf-syntax-ns#">
 <defs>
  <style>.cls-1{fill:none;stroke:#fff;stroke-linecap:round;stroke-linejoin:round;}</style>
  <style>.a{fill:none;stroke:#b1b5bd;stroke-linecap:round;stroke-linejoin:round;isolation:isolate;opacity:0.63;}</style>
 </defs>
 <metadata>
  <rdf:RDF>
   <cc:Work rdf:about="">
    <dc:format>image/svg+xml</dc:format>
    <dc:type rdf:resource="http://purl.org/dc/dcmitype/StillImage"/>
   </cc:Work>
  </rdf:RDF>
 </metadata>
 <rect x="4" y="4" width="40" height="40" ry="8" fill="#ae48d4" fill-rule="evenodd" style="paint-order:stroke fill markers"/>
 <path d="m12 4c-4.432 0-8 3.568-8 8v24c0 4.432 3.568 8 8 8h24c4.432 0 8-3.568 8-8v-24c0-4.432-3.568-8-8-8zm0 1h24c3.878 0 7 3.122 7 7v24c0 3.878-3.122 7-7 7h-24c-3.878 0-7-3.122-7-7v-24c0-3.878 3.122-7 7-7z" fill-rule="evenodd" opacity=".3" style="paint-order:stroke fill markers"/>
 <g fill="#efefef" fill-rule="evenodd">
  <rect x="16" y="16" width="16" height="16" ry="8" stroke-width=".8" style="paint-order:stroke fill markers"/>
  <rect x="13" y="22" width="22" height="4" ry="1" style="paint-order:stroke fill markers"/>
  <rect transform="rotate(90)" x="13" y="-26" width="22" height="4" ry="1" style="paint-order:stroke fill markers"/>
  <rect transform="rotate(-45)" x="-11" y="31.941" width="22" height="4" ry="1" style="paint-order:stroke fill markers"/>
  <rect transform="rotate(45)" x="22.941" y="-2" width="22" height="4" ry="1" style="paint-order:stroke fill markers"/>
 </g>
 <rect x="20" y="20" width="8" height="8" ry="4" fill="#d38f00" fill-rule="evenodd" stroke-width=".66667" style="paint-order:stroke fill markers"/>
 <path d="m9 13c3-1 4-4 4-4s1 3 4 4c-3 1-4 4-4 4s-1-3-4-4z" fill="#ffe2a7" stroke-linecap="round" stroke-linejoin="round" stroke-width="2" style="paint-order:stroke fill markers"/>
 <path d="m31 35c3-1 4-4 4-4s1 3 4 4c-3 1-4 4-4 4s-1-3-4-4z" fill="#ffe2a7" stroke-linecap="round" stroke-linejoin="round" stroke-width="2" style="paint-order:stroke fill markers"/>
</svg>
