<?xml version="1.0" encoding="UTF-8"?>
<!-- Created with Inkscape (http://www.inkscape.org/) -->
<svg id="SVGRoot" width="48px" height="48px" version="1.1" viewBox="0 0 48 48" xml:space="preserve" xmlns="http://www.w3.org/2000/svg" xmlns:cc="http://creativecommons.org/ns#" xmlns:dc="http://purl.org/dc/elements/1.1/" xmlns:rdf="http://www.w3.org/1999/02/22-rdf-syntax-ns#"><defs><style>.cls-1{fill:none;stroke:#fff;stroke-linecap:round;stroke-linejoin:round;}</style><style>.cls-1{fill:none;stroke:#fff;stroke-linecap:round;stroke-linejoin:round;}</style></defs><metadata><rdf:RDF><cc:Work rdf:about=""><dc:format>image/svg+xml</dc:format><dc:type rdf:resource="http://purl.org/dc/dcmitype/StillImage"/></cc:Work></rdf:RDF></metadata><rect x="4" y="4" width="40" height="40" ry="8" fill="#7290B8" fill-rule="evenodd" style="paint-order:stroke fill markers"/><path d="m27 18-2 2h-2c-1.662 0-3 1.338-3 3v14c0 1.662 1.338 3 3 3h13c2.216 0 4-1.784 4-4v-13c0-1.662-1.338-3-3-3h-2l-2-2z" fill="#1e3c65" stroke-linecap="round" stroke-linejoin="round" stroke-width="4" style="paint-order:stroke fill markers"/><path d="m12 4c-4.432 0-8 3.568-8 8v24c0 4.432 3.568 8 8 8h24c4.432 0 8-3.568 8-8v-24c0-4.432-3.568-8-8-8zm0 1h24c3.878 0 7 3.122 7 7v24c0 3.878-3.122 7-7 7h-24c-3.878 0-7-3.122-7-7v-24c0-3.878 3.122-7 7-7z" fill-rule="evenodd" opacity=".3" style="paint-order:stroke fill markers"/><path d="m12 8c-2.216 0-4 1.784-4 4v5h2v-5c0-1.108 0.892-2 2-2h5v-2zm7 0v2h10v-2zm12 0v2h5c1.108 0 2 0.892 2 2v6h2v-6c0-2.216-1.784-4-4-4zm-23 11v10h2v-10zm0 12v5c0 2.216 1.784 4 4 4h6v-2h-6c-1.108 0-2-0.892-2-2v-5z" fill="#cfdeff" fill-rule="evenodd" style="paint-order:stroke fill markers"/><path d="m30 24c-3.324 0-6 2.676-6 6s2.676 6 6 6 6-2.676 6-6-2.676-6-6-6zm0 2c2.216 0 4 1.784 4 4s-1.784 4-4 4-4-1.784-4-4 1.784-4 4-4z" fill="#D0E4FF" stroke-linecap="round" stroke-linejoin="round" stroke-width="4" style="paint-order:stroke fill markers"/></svg>
