<?xml version="1.0" encoding="UTF-8"?>
<!-- Created with Inkscape (http://www.inkscape.org/) -->
<svg id="SVGRoot" width="48px" height="48px" version="1.1" viewBox="0 0 48 48" xml:space="preserve" xmlns="http://www.w3.org/2000/svg" xmlns:cc="http://creativecommons.org/ns#" xmlns:dc="http://purl.org/dc/elements/1.1/" xmlns:rdf="http://www.w3.org/1999/02/22-rdf-syntax-ns#"><defs><style>.cls-1{fill:none;stroke:#fff;stroke-linecap:round;stroke-linejoin:round;}</style><style>.cls-1{fill:none;stroke:#fff;stroke-linecap:round;stroke-linejoin:round;}</style><style>.cls-1{fill:none;stroke:#fff;stroke-linecap:round;stroke-linejoin:round;}</style><style>.cls-1{fill:none;stroke:#fff;stroke-linecap:round;stroke-linejoin:round;}</style><style>.cls-1{fill:none;stroke:#fff;stroke-linecap:round;stroke-linejoin:round;}</style><style>.cls-1{fill:none;stroke:#fff;stroke-linecap:round;stroke-linejoin:round;}</style><style>.cls-1{fill:none;stroke:#fff;stroke-linecap:round;stroke-linejoin:round;}</style><style>.a{fill:none;stroke:#b1b5bd;stroke-linecap:round;stroke-linejoin:round;isolation:isolate;opacity:0.63;}</style><style>.cls-1{fill:none;stroke:#fff;stroke-linecap:round;stroke-linejoin:round;}</style><style>.cls-1{fill:none;stroke:#fff;stroke-linecap:round;stroke-linejoin:round;}</style><style>.cls-1{fill:none;stroke:#fff;stroke-linecap:round;stroke-linejoin:round;}</style><style>.cls-1{fill:none;stroke:#fff;stroke-linecap:round;stroke-linejoin:round;}</style><style>.a{fill:none;stroke:#b1b5bd;stroke-linecap:round;stroke-linejoin:round;isolation:isolate;opacity:0.63;}</style><style>.cls-1{fill:none;stroke:#fff;stroke-linecap:round;stroke-linejoin:round;}</style></defs><metadata><rdf:RDF><cc:Work rdf:about=""><dc:format>image/svg+xml</dc:format><dc:type rdf:resource="http://purl.org/dc/dcmitype/StillImage"/></cc:Work></rdf:RDF></metadata><rect x="4" y="4" width="40" height="40" ry="8" fill="#adadad" fill-rule="evenodd" style="paint-order:stroke fill markers"/><rect x="8" y="8" width="32" height="32" ry="5" fill="#354661" fill-rule="evenodd" style="paint-order:stroke fill markers"/><path d="m19 9v2h-7v-1.875c-0.35498 0.09072-0.69066 0.22807-1 0.40625v1.4688h-1.4688c-0.17818 0.30934-0.31553 0.64502-0.40625 1h1.875v7h-2v1h2v7h-2v1h2v7h-2c0 0.34555 0.04337 0.68059 0.125 1h1.875v2.4688c0.30934 0.17818 0.64502 0.31553 1 0.40625v-2.875h7v3h1v-3h7v3h1v-3h7v3c0.34555 0 0.68059-0.043371 1-0.125v-2.875h2.875c0.081629-0.31941 0.125-0.65445 0.125-1h-3v-7h3v-1h-3v-7h3v-1h-3v-7h2.875c-0.09072-0.35498-0.22807-0.69066-0.40625-1h-2.4688v-1.875c-0.31941-0.08163-0.65445-0.125-1-0.125v2h-7v-2h-1v2h-7v-2h-1zm-7 3h7v7h-7v-7zm8 0h7v7h-7v-7zm8 0h7v7h-7v-7zm-16 8h7v7h-7v-7zm8 0h7v7h-7v-7zm8 0h7v7h-7v-7zm-16 8h7v7h-7v-7zm8 0h7v7h-7v-7zm8 0h7v7h-7v-7z" fill="#3d6f5d" style="paint-order:normal"/><path d="m12 4c-4.432 0-8 3.568-8 8v24c0 4.432 3.568 8 8 8h24c4.432 0 8-3.568 8-8v-24c0-4.432-3.568-8-8-8zm0 1h24c3.878 0 7 3.122 7 7v24c0 3.878-3.122 7-7 7h-24c-3.878 0-7-3.122-7-7v-24c0-3.878 3.122-7 7-7z" fill-rule="evenodd" opacity=".3" style="paint-order:stroke fill markers"/><g><path d="m16 15-2 11h-5v9c0 2.216 1.784 4 4 4h22c2.216 0 4-1.784 4-4v-9h-9l-2 3-2-7-2 2h-3l-2 10z" fill="#3d6f5d"/><path d="m15.273 19-0.18164 1h1.6973l-0.1582-1h-1.3574zm11.727 6.5v1.5h-6.5996l-0.20117 1h6.8008v7h-7v-6l-1 5v1h-7v-7h6.0527l-0.1582-1h-5.8945v-1h-1v1h-2v1h2v7h-2c2.8e-6 0.34553 0.043373 0.6806 0.125 1h1.875v2.4688c0.30934 0.17818 0.64502 0.31553 1 0.40625v-2.875h7v3h1v-3h7v3h1v-3h7v3c0.34553-3e-6 0.6806-0.043373 1-0.125v-2.875h2.875c0.081629-0.31941 0.125-0.65445 0.125-1h-3v-7h3v-1h-3v-1h-1v1h-5.666l-0.66797 1h6.334v7h-7v-6l-1-3.5z" fill="#edff75" opacity=".3"/><path d="m16.027 12.002a1.0001 1.0001 0 0 0-1.0156 0.8457l-1.8691 12.152h-5.1426v0.83203a1.0001 1.0001 0 0 0 0 0.32617v0.8418h6a1.0001 1.0001 0 0 0 0.98828-0.84766l0.97461-6.3379 2.0469 14.326a1.0001 1.0001 0 0 0 1.9707 0.05469l1.8398-9.1953h2.1797a1.0001 1.0001 0 0 0 0.83203-0.44531l0.74609-1.1191 1.4512 5.8066a1.0001 1.0001 0 0 0 1.8027 0.3125l1.7031-2.5547h9.4648v-0.83203a1.0001 1.0001 0 0 0 0-0.32617v-0.8418h-10a1.0001 1.0001 0 0 0-0.83203 0.44531l-0.74609 1.1191-1.4512-5.8066a1.0001 1.0001 0 0 0-1.8027-0.3125l-1.7031 2.5547h-2.4648a1.0001 1.0001 0 0 0-0.98047 0.80469l-0.85547 4.2754-2.1738-15.221a1.0001 1.0001 0 0 0-0.96289-0.85742z" color="#000000" color-rendering="auto" dominant-baseline="auto" fill="#edff75" image-rendering="auto" shape-rendering="auto" solid-color="#000000" style="font-feature-settings:normal;font-variant-alternates:normal;font-variant-caps:normal;font-variant-ligatures:normal;font-variant-numeric:normal;font-variant-position:normal;isolation:auto;mix-blend-mode:normal;shape-padding:0;text-decoration-color:#000000;text-decoration-line:none;text-decoration-style:solid;text-indent:0;text-orientation:mixed;text-transform:none;white-space:normal"/></g></svg>
