<?xml version="1.0" encoding="UTF-8"?>
<!-- Created with Inkscape (http://www.inkscape.org/) -->
<svg id="SVGRoot" width="48px" height="48px" version="1.1" viewBox="0 0 48 48" xmlns="http://www.w3.org/2000/svg" xmlns:cc="http://creativecommons.org/ns#" xmlns:dc="http://purl.org/dc/elements/1.1/" xmlns:rdf="http://www.w3.org/1999/02/22-rdf-syntax-ns#">
 <defs>
  <style>.cls-1{fill:none;stroke:#fff;stroke-linecap:round;stroke-linejoin:round;}</style>
 </defs>
 <metadata>
  <rdf:RDF>
   <cc:Work rdf:about="">
    <dc:format>image/svg+xml</dc:format>
    <dc:type rdf:resource="http://purl.org/dc/dcmitype/StillImage"/>
   </cc:Work>
  </rdf:RDF>
 </metadata>
 <rect x="4" y="4" width="40" height="40" ry="8" fill="#ADADAD" fill-rule="evenodd" style="paint-order:stroke fill markers"/>
 <path d="m12 10c-1.108 0-2 0.892-2 2v6c0 1.108 0.892 2 2 2h24c1.108 0 2-0.892 2-2v-6c0-1.108-0.892-2-2-2h-24zm0 12c-1.108 0-2 0.892-2 2s0.892 2 2 2h24c1.108 0 2-0.892 2-2s-0.892-2-2-2h-24zm-1 6c-0.554 0-1 0.446-1 1s0.446 1 1 1h26c0.554 0 1-0.446 1-1s-0.446-1-1-1h-26zm0 4c-0.554 0-1 0.446-1 1s0.446 1 1 1h12c0.554 0 1-0.446 1-1s-0.446-1-1-1h-12z" fill="#485F84" stroke-linecap="round" stroke-linejoin="round" stroke-width="4"/>
 <path d="m12 4c-4.432 0-8 3.568-8 8v24c0 4.432 3.568 8 8 8h24c4.432 0 8-3.568 8-8v-24c0-4.432-3.568-8-8-8zm0 1h24c3.878 0 7 3.122 7 7v24c0 3.878-3.122 7-7 7h-24c-3.878 0-7-3.122-7-7v-24c0-3.878 3.122-7 7-7z" fill-rule="evenodd" opacity=".3" style="paint-order:stroke fill markers"/>
 <rect transform="rotate(15)" x="42.496" y="1.442" width="6" height="7" ry="2" fill="#48b9c7" fill-rule="evenodd" style="paint-order:stroke fill markers"/>
 <path d="m33.169 40.404 1.6037 5.6061 4.1919-4.0532-2.1213-3.6742z" fill="#69D6E4"/>
 <rect transform="rotate(15)" x="42.496" y="5.442" width="6" height="25" fill="#48B9C7" fill-rule="evenodd" style="paint-order:stroke fill markers"/>
 <path d="m42.607 12.909c-1.0702-0.28677-2.1627 0.34397-2.4495 1.4142l-6.9881 26.08 0.96298 3.3639 0.6407 2.2422 1.676-1.6215 2.5159-2.4317 6.9881-26.08c0.28677-1.0702-0.34397-2.1627-1.4142-2.4495zm-0.25882 0.96592 1.9319 0.51764c0.55183 0.14786 0.85497 0.67291 0.70711 1.2247l-0.51764 1.9319-3.8637-1.0353 0.51764-1.9319c0.14786-0.55183 0.67291-0.85497 1.2247-0.70711zm-2.0012 3.6049 3.8637 1.0353-0.77646 2.8978-3.8637-1.0353zm-1.0353 3.8637 3.8637 1.0353-4.9176 18.353-3.8637-1.0353 0.25882-0.96593zm-5.016 19.361 3.543 0.94935-2.0844 2.0135a1.0001 1.0001 0 0 0-5.18e-4 0.0019l-0.47775 0.46237-0.18255-0.63934a1.0001 1.0001 0 0 0 5.18e-4 -0.0019z" color="#000000" color-rendering="auto" dominant-baseline="auto" fill-rule="evenodd" image-rendering="auto" opacity=".25" shape-rendering="auto" solid-color="#000000" style="font-feature-settings:normal;font-variant-alternates:normal;font-variant-caps:normal;font-variant-ligatures:normal;font-variant-numeric:normal;font-variant-position:normal;isolation:auto;mix-blend-mode:normal;paint-order:stroke fill markers;shape-padding:0;text-decoration-color:#000000;text-decoration-line:none;text-decoration-style:solid;text-indent:0;text-orientation:mixed;text-transform:none;white-space:normal"/>
</svg>
