<?xml version="1.0" encoding="UTF-8"?>
<!-- Created with Inkscape (http://www.inkscape.org/) -->
<svg id="SVGRoot" width="48px" height="48px" version="1.1" viewBox="0 0 48 48" xmlns="http://www.w3.org/2000/svg" xmlns:cc="http://creativecommons.org/ns#" xmlns:dc="http://purl.org/dc/elements/1.1/" xmlns:rdf="http://www.w3.org/1999/02/22-rdf-syntax-ns#">
 <defs>
  <style>.cls-1{fill:none;stroke:#fff;stroke-linecap:round;stroke-linejoin:round;}</style>
 </defs>
 <metadata>
  <rdf:RDF>
   <cc:Work rdf:about="">
    <dc:format>image/svg+xml</dc:format>
    <dc:type rdf:resource="http://purl.org/dc/dcmitype/StillImage"/>
   </cc:Work>
  </rdf:RDF>
 </metadata>
 <rect x="4" y="4" width="40" height="40" ry="8" fill="#37ADBB" fill-rule="evenodd" style="paint-order:stroke fill markers"/>
 <rect x="8" y="8" width="32" height="32" ry="16" fill="#85EAF8" stroke-linecap="round" stroke-linejoin="round" stroke-width="4.2667"/>
 <rect x="10" y="10" width="28" height="28" ry="14" fill="#B983ED" stroke-linecap="round" stroke-linejoin="round" stroke-width="4"/>
 <path d="m12 4c-4.432 0-8 3.568-8 8v24c0 4.432 3.568 8 8 8h24c4.432 0 8-3.568 8-8v-24c0-4.432-3.568-8-8-8zm0 1h24c3.878 0 7 3.122 7 7v24c0 3.878-3.122 7-7 7h-24c-3.878 0-7-3.122-7-7v-24c0-3.878 3.122-7 7-7z" fill-rule="evenodd" opacity=".3" style="paint-order:stroke fill markers"/>
 <g stroke-linecap="round" stroke-linejoin="round">
  <rect x="12" y="12" width="24" height="24" ry="12" fill="#efefef" stroke-width="4"/>
  <rect x="14" y="19" width="20" height="10" ry="5" fill="#008490" stroke-width="4"/>
  <rect x="26" y="21" width="6" height="6" ry="3" fill="#fff" stroke-width="6"/>
 </g>
</svg>
