<?xml version="1.0" encoding="UTF-8"?>
<!-- Created with Inkscape (http://www.inkscape.org/) -->
<svg id="SVGRoot" width="48px" height="48px" version="1.1" viewBox="0 0 48 48" xmlns="http://www.w3.org/2000/svg" xmlns:cc="http://creativecommons.org/ns#" xmlns:dc="http://purl.org/dc/elements/1.1/" xmlns:rdf="http://www.w3.org/1999/02/22-rdf-syntax-ns#">
 <defs>
  <style>.cls-1{fill:none;stroke:#fff;stroke-linecap:round;stroke-linejoin:round;}</style>
 </defs>
 <metadata>
  <rdf:RDF>
   <cc:Work rdf:about="">
    <dc:format>image/svg+xml</dc:format>
    <dc:type rdf:resource="http://purl.org/dc/dcmitype/StillImage"/>
   </cc:Work>
  </rdf:RDF>
 </metadata>
 <rect x="4" y="4" width="40" height="40" ry="8" fill="#b7bfc2" fill-rule="evenodd" style="paint-order:stroke fill markers"/>
 <path d="m12 4c-4.432 0-8 3.568-8 8v24c0 4.432 3.568 8 8 8h24c4.432 0 8-3.568 8-8v-24c0-4.432-3.568-8-8-8zm0 1h24c3.878 0 7 3.122 7 7v24c0 3.878-3.122 7-7 7h-24c-3.878 0-7-3.122-7-7v-24c0-3.878 3.122-7 7-7z" fill-rule="evenodd" opacity=".3" style="paint-order:stroke fill markers"/>
 <g>
  <rect x="8" y="8" width="32" height="32" ry="5" fill="#3f4777" fill-rule="evenodd" style="paint-order:stroke fill markers"/>
  <path d="m16 10c-3.324 0-6 2.676-6 6v8c0 1.108 0.892 2 2 2s2-0.892 2-2c0 1.108 0.892 2 2 2s2-0.892 2-2c0 1.108 0.892 2 2 2s2-0.892 2-2v-8c0-3.324-2.676-6-6-6z" fill="#d7e3ff" stroke-linecap="round" stroke-linejoin="round" stroke-width="2.4"/>
  <path d="m13 8c-2.77 0-5 2.23-5 5v22c0 2.77 2.23 5 5 5h22c2.77 0 5-2.23 5-5v-22c0-2.77-2.23-5-5-5h-22zm0 1h22c2.216 0 4 1.784 4 4v22c0 2.216-1.784 4-4 4h-22c-2.216 0-4-1.784-4-4v-22c0-2.216 1.784-4 4-4z" opacity=".3" stroke-linecap="round" stroke-linejoin="round" stroke-width="2"/>
 </g>
 <path d="m12.494 14.5a0.5 0.5 0 0 0-0.064453 0.005859 0.5 0.5 0 0 0-0.33008 0.19336 0.5 0.5 0 0 0 0.09961 0.70117l1.4668 1.0996-1.4668 1.0996a0.5 0.5 0 0 0-0.09961 0.70117 0.5 0.5 0 0 0 0.70117 0.09961l2-1.5a0.50005 0.50005 0 0 0 0-0.80078l-2-1.5a0.5 0.5 0 0 0-0.30664-0.099609zm5.0059 1.5c-0.277 0-0.5 0.223-0.5 0.5s0.223 0.5 0.5 0.5h2c0.277 0 0.5-0.223 0.5-0.5s-0.223-0.5-0.5-0.5h-2z" fill="#3f4777" stop-color="#000000" stroke-linecap="round" stroke-linejoin="round"/>
</svg>
