<?xml version="1.0" encoding="UTF-8"?>
<!-- Created with Inkscape (http://www.inkscape.org/) -->
<svg id="SVGRoot" width="48px" height="48px" version="1.1" viewBox="0 0 48 48" xmlns="http://www.w3.org/2000/svg" xmlns:cc="http://creativecommons.org/ns#" xmlns:dc="http://purl.org/dc/elements/1.1/" xmlns:rdf="http://www.w3.org/1999/02/22-rdf-syntax-ns#">
 <defs>
  <style>.cls-1{fill:none;stroke:#fff;stroke-linecap:round;stroke-linejoin:round;}</style>
 </defs>
 <metadata>
  <rdf:RDF>
   <cc:Work rdf:about="">
    <dc:format>image/svg+xml</dc:format>
    <dc:type rdf:resource="http://purl.org/dc/dcmitype/StillImage"/>
   </cc:Work>
  </rdf:RDF>
 </metadata>
 <g fill-rule="evenodd">
  <rect x="4" y="4" width="40" height="40" ry="8" fill="#8A4C45" style="paint-order:stroke fill markers"/>
  <path d="m12 4c-4.432 0-8 3.568-8 8v24c0 4.432 3.568 8 8 8h24c4.432 0 8-3.568 8-8v-24c0-4.432-3.568-8-8-8zm0 1h24c3.878 0 7 3.122 7 7v24c0 3.878-3.122 7-7 7h-24c-3.878 0-7-3.122-7-7v-24c0-3.878 3.122-7 7-7z" opacity=".4" style="paint-order:stroke fill markers"/>
  <rect x="10" y="10" width="28" height="28" ry="14" fill="#F1E0C4" style="paint-order:stroke fill markers"/>
 </g>
 <path d="m24 19c-2.77 0-5 2.23-5 5s2.23 5 5 5 5-2.23 5-5-2.23-5-5-5zm0 1c2.216 0 4 1.784 4 4s-1.784 4-4 4-4-1.784-4-4 1.784-4 4-4z" fill="#8a4c45" opacity=".5" stroke-linecap="round" stroke-linejoin="round" stroke-width="2" style="paint-order:stroke fill markers"/>
 <path d="m23 17v7l5 5" fill="none" stroke="#8a4c45" stroke-linecap="round" stroke-linejoin="round" stroke-width="2"/>
 <g fill="#8a4c45" stroke-linecap="round" stroke-linejoin="round" stroke-width="2">
  <path d="m24 12c-6.648 0-12 5.352-12 12s5.352 12 12 12 12-5.352 12-12-5.352-12-12-12zm0 1c6.094 0 11 4.906 11 11s-4.906 11-11 11-11-4.906-11-11 4.906-11 11-11z" style="paint-order:stroke fill markers"/>
  <path d="m12.91 23c-0.50445 0-0.91016 0.40571-0.91016 0.91016v0.17969c0 0.50445 0.40571 0.91016 0.91016 0.91016h2.1797c0.50445 0 0.91016-0.40571 0.91016-0.91016v-0.17969c0-0.50445-0.40571-0.91016-0.91016-0.91016h-2.1797zm20.09 0c-0.554 0-1 0.446-1 1s0.446 1 1 1h2c0.554 0 1-0.446 1-1s-0.446-1-1-1h-2z" opacity=".5" style="paint-order:stroke fill markers"/>
  <path d="m25 12.91c0-0.50445-0.40571-0.91016-0.91016-0.91016h-0.17969c-0.50445 0-0.91016 0.40571-0.91016 0.91016v2.1797c0 0.50445 0.40571 0.91016 0.91016 0.91016h0.17969c0.50445 0 0.91016-0.40571 0.91016-0.91016zm0 20.09c0-0.554-0.446-1-1-1s-1 0.446-1 1v2c0 0.554 0.446 1 1 1s1-0.446 1-1z" opacity=".5" style="paint-order:stroke fill markers"/>
  <path d="m15.451 31.135c-0.3567 0.3567-0.3567 0.93046 0 1.2872l0.12706 0.12706c0.3567 0.3567 0.93046 0.3567 1.2872 0l1.5413-1.5413c0.3567-0.3567 0.3567-0.93046 0-1.2872l-0.12706-0.12706c-0.3567-0.3567-0.93046-0.3567-1.2872 0zm14.206-14.206c-0.39174 0.39174-0.39174 1.0225 0 1.4142s1.0225 0.39174 1.4142 0l1.4142-1.4142c0.39174-0.39174 0.39174-1.0225 0-1.4142-0.39174-0.39174-1.0225-0.39174-1.4142 0z" opacity=".5" style="paint-order:stroke fill markers"/>
  <path d="m16.865 15.451c-0.3567-0.3567-0.93046-0.3567-1.2872 0l-0.12706 0.12706c-0.3567 0.3567-0.3567 0.93046 0 1.2872l1.5413 1.5413c0.3567 0.3567 0.93046 0.3567 1.2872 0l0.12706-0.12706c0.3567-0.3567 0.3567-0.93046 0-1.2872zm14.206 14.206c-0.39174-0.39174-1.0225-0.39174-1.4142 0s-0.39174 1.0225 0 1.4142l1.4142 1.4142c0.39174 0.39174 1.0225 0.39174 1.4142 0 0.39174-0.39174 0.39174-1.0225 0-1.4142z" opacity=".5" style="paint-order:stroke fill markers"/>
 </g>
</svg>
