<?xml version="1.0" encoding="UTF-8"?>
<!-- Created with Inkscape (http://www.inkscape.org/) -->
<svg id="SVGRoot" width="48px" height="48px" version="1.1" viewBox="0 0 48 48" xmlns="http://www.w3.org/2000/svg" xmlns:cc="http://creativecommons.org/ns#" xmlns:dc="http://purl.org/dc/elements/1.1/" xmlns:rdf="http://www.w3.org/1999/02/22-rdf-syntax-ns#">
 <defs id="defs815">
  <style id="style819">.cls-1{fill:none;stroke:#fff;stroke-linecap:round;stroke-linejoin:round;}</style>
 </defs>
 <metadata id="metadata818">
  <rdf:RDF>
   <cc:Work rdf:about="">
    <dc:format>image/svg+xml</dc:format>
    <dc:type rdf:resource="http://purl.org/dc/dcmitype/StillImage"/>
    <dc:title/>
   </cc:Work>
  </rdf:RDF>
 </metadata>
 <g id="layer1">
  <rect id="rect1373-5" x="4" y="4" width="40" height="40" ry="8" fill="#729dec" fill-rule="evenodd" style="paint-order:stroke fill markers"/>
  <path id="rect868" d="m15 38c-1.108 0-2 0.892-2 2v4h10v-4c0-1.108-0.892-2-2-2h-6z" fill="#fff" fill-rule="evenodd" style="paint-order:stroke fill markers"/>
  <path id="rect818" d="m12 6c-3.324 0-6 2.676-6 6 0 1.108 0.892 2 2 2h32c1.108 0 2-0.892 2-2 0-3.324-2.676-6-6-6h-24z" fill-rule="evenodd" opacity=".4" style="paint-order:normal"/>
  <rect id="rect822-2" x="14" y="16" width="4" height="4" ry="2" fill-rule="evenodd" opacity=".25" style="paint-order:normal"/>
  <rect id="rect824" x="30" y="16" width="4" height="4" ry="2" fill-rule="evenodd" opacity=".25" style="paint-order:normal"/>
  <path id="path820-8" d="m16 18s2 7 8 7 8-7 8-7" fill="none" opacity=".25" stroke="#000" stroke-linecap="round" stroke-linejoin="round" stroke-width="2"/>
  <path id="path820" d="m16 18s2 5 8 5 8-5 8-5" fill="none" stroke="#fff" stroke-linecap="round" stroke-linejoin="round" stroke-width="2"/>
  <rect id="rect829" x="13" y="26" width="10" height="10" ry="5" fill="#fff" fill-rule="evenodd" style="paint-order:stroke fill markers"/>
  <rect id="rect864" x="25" y="42" width="10" height="2" ry="1" fill="#fff" fill-rule="evenodd" style="paint-order:stroke fill markers"/>
  <rect id="rect866" x="29" y="38" width="2" height="6" ry="1" fill="#fff" fill-rule="evenodd" style="paint-order:stroke fill markers"/>
  <path id="path892" d="m25.963 26a1.0001 1.0001 0 0 0-0.96289 1v8a1.0001 1.0001 0 0 0 1.4473 0.89453l8-4a1.0001 1.0001 0 0 0 0-1.7891l-8-4a1.0001 1.0001 0 0 0-0.48438-0.10547z" color="#000000" color-rendering="auto" dominant-baseline="auto" fill="#fff" image-rendering="auto" shape-rendering="auto" solid-color="#000000" style="font-feature-settings:normal;font-variant-alternates:normal;font-variant-caps:normal;font-variant-ligatures:normal;font-variant-numeric:normal;font-variant-position:normal;isolation:auto;mix-blend-mode:normal;shape-padding:0;text-decoration-color:#000000;text-decoration-line:none;text-decoration-style:solid;text-indent:0;text-orientation:mixed;text-transform:none;white-space:normal"/>
  <path id="rect817" d="m12 4c-4.432 0-8 3.568-8 8v24c0 4.432 3.568 8 8 8h24c4.432 0 8-3.568 8-8v-24c0-4.432-3.568-8-8-8h-24zm0 1h24c3.878 0 7 3.122 7 7v24c0 3.878-3.122 7-7 7h-24c-3.878 0-7-3.122-7-7v-24c0-3.878 3.122-7 7-7z" fill-rule="evenodd" opacity=".3" style="paint-order:stroke fill markers"/>
 </g>
</svg>
