<?xml version="1.0" encoding="UTF-8"?>
<!-- Created with Inkscape (http://www.inkscape.org/) -->
<svg id="SVGRoot" width="48px" height="48px" version="1.1" viewBox="0 0 48 48" xml:space="preserve" xmlns="http://www.w3.org/2000/svg" xmlns:cc="http://creativecommons.org/ns#" xmlns:dc="http://purl.org/dc/elements/1.1/" xmlns:rdf="http://www.w3.org/1999/02/22-rdf-syntax-ns#"><defs><style>.cls-1{fill:none;stroke:#fff;stroke-linecap:round;stroke-linejoin:round;}</style></defs><metadata><rdf:RDF><cc:Work rdf:about=""><dc:format>image/svg+xml</dc:format><dc:type rdf:resource="http://purl.org/dc/dcmitype/StillImage"/></cc:Work></rdf:RDF></metadata><rect x="4" y="4" width="40" height="40" ry="8" fill="#C1D2D3" fill-rule="evenodd" style="paint-order:stroke fill markers"/><rect x="8" y="8" width="32" height="32" ry="4" fill="#1e2527" stroke-linecap="round" stroke-linejoin="round" stroke-width="2"/><path d="m17 8v9h-9v2h9v10h-9v2h9v9h2v-9h10v9h2v-9h9v-2h-9v-10h9v-2h-9v-9h-2v9h-10v-9zm2 11h10v10h-10z" fill="#c1d2d3" opacity=".15"/><path d="m12 4c-4.432 0-8 3.568-8 8v24c0 4.432 3.568 8 8 8h24c4.432 0 8-3.568 8-8v-24c0-4.432-3.568-8-8-8zm0 1h24c3.878 0 7 3.122 7 7v24c0 3.878-3.122 7-7 7h-24c-3.878 0-7-3.122-7-7v-24c0-3.878 3.122-7 7-7z" fill-rule="evenodd" opacity=".3" style="paint-order:stroke fill markers"/><path d="m17.293 28.293-5 5a1.0001 1.0001 0 0 0 0.38867 1.6543s0.81263 0.27563 1.8828 0.47852 2.4137 0.36958 3.6816 0.04883c2.5306-0.64018 3.6484-3.0273 3.6484-3.0273a1.0001 1.0001 0 0 0-0.1875-1.1543l-3-3a1.0001 1.0001 0 0 0-1.4141 0zm0.70703 2.1211 1.6953 1.6953c-0.36698 0.50429-0.95292 1.1777-1.9414 1.4277-0.72476 0.18335-1.8713 0.09604-2.7988-0.07813z" fill="#c1d2d3" stop-color="#000000" stroke-linecap="round" stroke-linejoin="round"/><path d="m34.502 11.816c-0.39555 0-0.74365 0.10098-1.0918 0.24024-0.69628 0.27851-1.4099 0.73958-2.1973 1.3301-1.5747 1.181-3.4031 2.8894-5.1699 4.6562-3.5337 3.5337-6.7988 7.3027-6.7988 7.3027a1.0001 1.0001 0 0 0 0.0957 1.4062l4 3.5137a1.0001 1.0001 0 0 0 1.4043-0.08398s3.2677-3.6463 6.2969-7.5625c1.5146-1.9581 2.9709-3.979 3.9531-5.6992 0.49111-0.86013 0.86674-1.6372 1.0703-2.3672 0.10179-0.36497 0.16466-0.722 0.13867-1.1055-0.02599-0.38347-0.16843-0.82664-0.49609-1.1543-0.33124-0.33124-0.80952-0.47656-1.2051-0.47656zm-0.34961 2.0957c0.0021-8.26e-4 0.0019 8.13e-4 0.0039 0-0.0095 0.04552-0.0027 0.05014-0.01758 0.10352-0.12455 0.4466-0.43642 1.1303-0.88281 1.9121-0.89278 1.5636-2.3115 3.5464-3.7969 5.4668-2.6674 3.4485-5.0101 6.0609-5.5703 6.6914l-2.4551-2.1582c0.56011-0.64117 2.9073-3.3546 6.0234-6.4707 1.7332-1.7332 3.5297-3.3998 4.9551-4.4688 0.71267-0.5345 1.3428-0.91719 1.7402-1.0762z" fill="#c1d2d3" stop-color="#000000" stroke-linecap="round" stroke-linejoin="round"/></svg>
