<?xml version="1.0" encoding="UTF-8"?>
<!-- Created with Inkscape (http://www.inkscape.org/) -->
<svg id="SVGRoot" width="48px" height="48px" version="1.1" viewBox="0 0 48 48" xml:space="preserve" xmlns="http://www.w3.org/2000/svg" xmlns:cc="http://creativecommons.org/ns#" xmlns:dc="http://purl.org/dc/elements/1.1/" xmlns:rdf="http://www.w3.org/1999/02/22-rdf-syntax-ns#"><defs><style>.cls-1{fill:none;stroke:#fff;stroke-linecap:round;stroke-linejoin:round;}</style><style>.cls-1{fill:none;stroke:#fff;stroke-linecap:round;stroke-linejoin:round;}</style><style>.cls-1{fill:none;stroke:#fff;stroke-linecap:round;stroke-linejoin:round;}</style><style>.cls-1{fill:none;stroke:#fff;stroke-linecap:round;stroke-linejoin:round;}</style><style>.cls-1{fill:none;stroke:#fff;stroke-linecap:round;stroke-linejoin:round;}</style></defs><metadata><rdf:RDF><cc:Work rdf:about=""><dc:format>image/svg+xml</dc:format><dc:type rdf:resource="http://purl.org/dc/dcmitype/StillImage"/></cc:Work></rdf:RDF></metadata><g fill-rule="evenodd"><rect x="4" y="4" width="40" height="40" ry="8" fill="#B5B5B5" style="paint-order:stroke fill markers"/><path d="m7.5312 8c-0.51642 0.57691-0.92074 1.2533-1.1836 2h35.305c-0.26286-0.74668-0.66718-1.4231-1.1836-2h-32.938zm-1.5312 6v2h36v-2zm0 6v2h36v-2zm0 6v2h36v-2zm0 6v2h36v-2zm0.34766 6c0.26286 0.74668 0.66717 1.4231 1.1836 2h32.938c0.51642-0.57692 0.92074-1.2533 1.1836-2h-35.305z" opacity=".1" style="paint-order:stroke fill markers"/><path d="m12 4c-4.432 0-8 3.568-8 8v24c0 4.432 3.568 8 8 8h24c4.432 0 8-3.568 8-8v-24c0-4.432-3.568-8-8-8zm0 1h24c3.878 0 7 3.122 7 7v24c0 3.878-3.122 7-7 7h-24c-3.878 0-7-3.122-7-7v-24c0-3.878 3.122-7 7-7z" opacity=".3" style="paint-order:stroke fill markers"/></g><g transform="translate(0,-2)"><path d="m19 47 5-6h21" fill="none" stroke="#a041c9" stroke-linecap="round" stroke-linejoin="round" stroke-width="2"/><path d="m39 47-5-6h-21" fill="none" stroke="#a041c9" stroke-linecap="round" stroke-linejoin="round" stroke-width="2"/><g fill-rule="evenodd"><rect x="32" y="38" width="10" height="6" fill="#5fadd4" opacity=".5" style="paint-order:stroke fill markers"/><rect x="16" y="38" width="10" height="6" fill="#5fadd4" opacity=".5" style="paint-order:stroke fill markers"/><path d="m14.5 36c-1.385 0-2.5 1.115-2.5 2.5v2.5h2v1c0 2.216 1.784 4 4 4h6c2.216 0 4-1.784 4-4v-2h2v2c0 2.216 1.784 4 4 4h6c2.216 0 4-1.784 4-4v-1h2v-2.5c0-1.385-1.115-2.5-2.5-2.5h-12.5c-0.554 0-1 0.446-1 1v1h-2v-1c0-0.554-0.446-1-1-1h-9zm3.5 2h7c0.554 0 1 0.446 1 1v3c0 1.108-0.892 2-2 2h-6c-1.108 0-2-0.892-2-2v-2c0-1.108 0.892-2 2-2zm15 0h7c1.108 0 2 0.892 2 2v2c0 1.108-0.892 2-2 2h-6c-1.108 0-2-0.892-2-2v-3c0-0.554 0.446-1 1-1z" fill="#a041c9" style="paint-order:stroke fill markers"/><path d="m14.5 36c-1.385 0-2.5 1.115-2.5 2.5v2.5h2v1c0 2.216 1.784 4 4 4h6c2.216 0 4-1.784 4-4v-2h2v2c0 2.216 1.784 4 4 4h6c2.216 0 4-1.784 4-4v-1h2v-2.5c0-1.385-1.115-2.5-2.5-2.5h-12.5c-0.554 0-1 0.446-1 1v1h-2v-1c0-0.554-0.446-1-1-1h-9zm0 1h12.5v5c0 1.6793-1.3207 3-3 3h-6c-1.6793 0-3-1.3207-3-3v-2h-2v-1.5c0-0.8483 0.6517-1.5 1.5-1.5zm16.5 0h12.5c0.8483 0 1.5 0.6517 1.5 1.5v1.5h-2v2c0 1.6793-1.3207 3-3 3h-6c-1.6793 0-3-1.3207-3-3v-3z" color="#000000" color-rendering="auto" dominant-baseline="auto" image-rendering="auto" opacity=".35" shape-rendering="auto" solid-color="#000000" style="font-feature-settings:normal;font-variant-alternates:normal;font-variant-caps:normal;font-variant-ligatures:normal;font-variant-numeric:normal;font-variant-position:normal;isolation:auto;mix-blend-mode:normal;paint-order:normal;shape-padding:0;text-decoration-color:#000000;text-decoration-line:none;text-decoration-style:solid;text-indent:0;text-orientation:mixed;text-transform:none;white-space:normal"/><path d="m18 38c-1.108 0-2 0.892-2 2v2c0 1.108 0.892 2 2 2h6c1.108 0 2-0.892 2-2v-3c0-0.554-0.446-1-1-1h-2zm0 1h6.5c0.277 0 0.5 0.223 0.5 0.5v2.5c0 0.554-0.446 1-1 1h-6c-0.554 0-1-0.446-1-1v-2c0-0.554 0.446-1 1-1z" fill="#fff" opacity=".3" style="paint-order:normal"/><path d="m40 38c1.108 0 2 0.892 2 2v2c0 1.108-0.892 2-2 2h-6c-1.108 0-2-0.892-2-2v-3c0-0.554 0.446-1 1-1h2zm0 1h-6.5c-0.277 0-0.5 0.223-0.5 0.5v2.5c0 0.554 0.446 1 1 1h6c0.554 0 1-0.446 1-1v-2c0-0.554-0.446-1-1-1z" fill="#fff" opacity=".3" style="paint-order:normal"/></g></g></svg>
