<?xml version="1.0" encoding="UTF-8"?>
<!-- Created with Inkscape (http://www.inkscape.org/) -->
<svg id="SVGRoot" width="48px" height="48px" version="1.1" viewBox="0 0 48 48" xmlns="http://www.w3.org/2000/svg" xmlns:cc="http://creativecommons.org/ns#" xmlns:dc="http://purl.org/dc/elements/1.1/" xmlns:rdf="http://www.w3.org/1999/02/22-rdf-syntax-ns#" xmlns:xlink="http://www.w3.org/1999/xlink">
 <defs id="defs815">
  <style id="style819">.cls-1{fill:none;stroke:#fff;stroke-linecap:round;stroke-linejoin:round;}</style>
  <style id="style819-4">.cls-1{fill:none;stroke:#fff;stroke-linecap:round;stroke-linejoin:round;}</style>
  <style id="style819-5">.cls-1{fill:none;stroke:#fff;stroke-linecap:round;stroke-linejoin:round;}</style>
  <style id="style2">.a{fill:none;stroke:#b1b5bd;stroke-linecap:round;stroke-linejoin:round;isolation:isolate;opacity:0.63;}</style>
  <style id="style819-1">.cls-1{fill:none;stroke:#fff;stroke-linecap:round;stroke-linejoin:round;}</style>
  <style id="style819-6">.cls-1{fill:none;stroke:#fff;stroke-linecap:round;stroke-linejoin:round;}</style>
  <style id="style2-9">.a{fill:none;stroke:#b1b5bd;stroke-linecap:round;stroke-linejoin:round;isolation:isolate;opacity:0.63;}</style>
  <style id="style819-1-5">.cls-1{fill:none;stroke:#fff;stroke-linecap:round;stroke-linejoin:round;}</style>
 </defs>
 <metadata id="metadata818">
  <rdf:RDF>
   <cc:Work rdf:about="">
    <dc:format>image/svg+xml</dc:format>
    <dc:type rdf:resource="http://purl.org/dc/dcmitype/StillImage"/>
    <dc:title/>
   </cc:Work>
  </rdf:RDF>
 </metadata>
 <g id="layer1">
  <rect id="rect1373-5" x="4" y="4" width="40" height="40" ry="8" fill="#a3d65c" fill-rule="evenodd" style="paint-order:stroke fill markers"/>
  <path id="rect817" d="m12 4c-4.432 0-8 3.568-8 8v24c0 4.432 3.568 8 8 8h24c4.432 0 8-3.568 8-8v-24c0-4.432-3.568-8-8-8h-24zm0 1h24c3.878 0 7 3.122 7 7v24c0 3.878-3.122 7-7 7h-24c-3.878 0-7-3.122-7-7v-24c0-3.878 3.122-7 7-7z" fill-rule="evenodd" opacity=".3" style="paint-order:stroke fill markers"/>
  <rect id="rect828" x="5" y="31" width="38" height="1" fill-rule="evenodd" opacity=".25" style="paint-order:stroke fill markers"/>
  <path id="path830" d="m10 32s2 4 5 4c1 0 1-1 1-1v-3z" fill="#fff"/>
  <path id="path830-4" d="m38 32s-2 4-5 4c-1 0-1-1-1-1v-3z" fill="#fff"/>
  <rect id="rect851" x="10" y="20" width="6" height="6" ry="3" fill="#4e4e4e" fill-rule="evenodd" style="paint-order:stroke fill markers"/>
  <rect id="rect853" x="32" y="20" width="6" height="6" ry="3" fill="#4e4e4e" fill-rule="evenodd" style="paint-order:stroke fill markers"/>
  <path id="path904" d="m8.2344 2.0195c-1.1076 0-1.4805 1.0859-1.4805 1.0859s-1.1413 2.6592-0.61328 5.4297c0.61084 3.2048 3.3691 4.2969 3.3691 4.2969s0.98236 0.83723 3.2168-1.0371c1.7002-1.4262 1.123-2.1719 1.123-2.1719s-2.5341-1.953-3.3691-3.2598c-0.62238-0.974-1.123-3.2578-1.123-3.2578s-0.087712-1.0859-1.123-1.0859zm31.527 0c-1.0353 0-1.123 1.0859-1.123 1.0859 0-1e-7 -0.50066 2.2838-1.123 3.2578-0.83502 1.3068-3.3691 3.2598-3.3691 3.2598s-0.57714 0.74569 1.123 2.1719c2.2344 1.8743 3.2168 1.0371 3.2168 1.0371s2.7583-1.0921 3.3691-4.2969c0.52807-2.7705-0.61328-5.4297-0.61328-5.4297s-0.37286-1.0859-1.4805-1.0859z" fill="#4e4e4e"/>
  <path id="path906" d="m8.651 4.2886c-1.1442 0.10618-0.6968 3.3295 1.0221 4.9427 0.40508 0.3802 1.2702 0.37004 1.6864-0.14828 0.48906-0.60907-0.11908-1.0011-0.45994-1.3345-1.5573-1.5235-1.9018-3.4921-2.2486-3.4599z" fill="#fff" opacity=".5"/>
  <path id="path908" d="m7.2626 8.1107c0.3882-0.20519 0.85497 0.95791 1.1769 1.5042 0.32984 0.55968 1.2887 1.4012 0.75658 1.7888-0.54189 0.39465-1.2549-0.65322-1.5972-1.2196-0.36505-0.60392-0.97095-1.7378-0.33626-2.0733z" fill="#52735b"/>
  <path id="path904-5-0" d="m8.2344 2.0195c-1.1076 0-1.4805 1.0859-1.4805 1.0859 0 0-1.1413 2.6592-0.61328 5.4297 0.61084 3.2048 3.3691 4.2969 3.3691 4.2969s0.98237 0.83723 3.2168-1.0371c1.7002-1.4262 1.123-2.1719 1.123-2.1719s-2.5341-1.953-3.3691-3.2598c-0.62238-0.974-1.123-3.2578-1.123-3.2578 0 0-0.087712-1.0859-1.123-1.0859zm31.527 0c-1.0353 2e-7 -1.123 1.0859-1.123 1.0859 0-2e-7 -0.50066 2.2838-1.123 3.2578-0.83502 1.3068-3.3691 3.2598-3.3691 3.2598s-0.57714 0.74569 1.123 2.1719c2.2344 1.8743 3.2168 1.0371 3.2168 1.0371s2.7583-1.0921 3.3691-4.2969c0.52807-2.7705-0.61328-5.4297-0.61328-5.4297s-0.37286-1.0859-1.4805-1.0859zm-31.439 0.99219c-0.00612-1.402e-4 -0.028364 0.00725-0.011719 0.037109 0.03329 0.059715 0.050781 0.13672 0.050781 0.13672a1.0001 1.0001 0 0 0 0.019531 0.13477s0.13224 0.60155 0.3457 1.3301c0.21346 0.72853 0.47548 1.5686 0.91211 2.252 0.54294 0.84968 1.4127 1.6546 2.1777 2.3301 0.55911 0.49371 0.8094 0.68375 1.0391 0.86523-0.03204 0.10474-0.10616 0.37354-0.77148 0.93164-1.0058 0.84368-1.6064 0.97661-1.8516 0.98828-0.11575 0.0055-0.15455-0.01183-0.16406-0.01563a1.0001 1.0001 0 0 0-0.19141-0.09961s-2.2389-0.85278-2.7539-3.5547c-0.45641-2.3945 0.54883-4.8476 0.54883-4.8476a1.0001 1.0001 0 0 0 0.027344-0.070312s0.081174-0.41016 0.53516-0.41016c0.084021 0 0.094014-0.00767 0.087891-0.00781zm31.352 0c-0.0061 1.402e-4 0.0039 0.00781 0.08789 0.00781 0.45398 0 0.53516 0.41016 0.53516 0.41016a1.0001 1.0001 0 0 0 0.027345 0.070315s1.0052 2.4531 0.54883 4.8477c-0.515 2.7019-2.7539 3.5547-2.7539 3.5547a1.0001 1.0001 0 0 0-0.18945 0.09961c-0.0087 0.0035-0.0489 0.0212-0.16602 0.01563-0.24516-0.01167-0.8458-0.1446-1.8516-0.98828-0.66532-0.5581-0.73944-0.8269-0.77148-0.93164 0.22966-0.18148 0.47995-0.37152 1.0391-0.86523 0.76499-0.67551 1.6348-1.4804 2.1777-2.3301 0.43663-0.68331 0.69865-1.5234 0.91211-2.252 0.21346-0.72853 0.3457-1.3301 0.3457-1.3301a1.0001 1.0001 0 0 0 0.01953-0.13477s0.01749-0.077003 0.05078-0.13672c0.01664-0.029858-0.0056-0.03725-0.01172-0.037109z" color="#000000" color-rendering="auto" dominant-baseline="auto" image-rendering="auto" opacity=".4" shape-rendering="auto" solid-color="#000000" style="font-feature-settings:normal;font-variant-alternates:normal;font-variant-caps:normal;font-variant-ligatures:normal;font-variant-numeric:normal;font-variant-position:normal;isolation:auto;mix-blend-mode:normal;shape-padding:0;text-decoration-color:#000000;text-decoration-line:none;text-decoration-style:solid;text-indent:0;text-orientation:mixed;text-transform:none;white-space:normal"/>
  <path id="path906-9" d="m39.345 4.2886c1.1442 0.10618 0.6968 3.3295-1.0221 4.9427-0.40508 0.3802-1.2702 0.37004-1.6864-0.14828-0.48906-0.60907 0.11908-1.0011 0.45994-1.3345 1.5573-1.5235 1.9018-3.4921 2.2486-3.4599z" fill="#fff" opacity=".5"/>
  <path id="path908-7" d="m40.733 8.1107c-0.3882-0.20519-0.85497 0.95791-1.1769 1.5042-0.32984 0.55968-1.2887 1.4012-0.75658 1.7888 0.54189 0.39465 1.2549-0.65322 1.5972-1.2196 0.36506-0.60392 0.97095-1.7378 0.33626-2.0733z" fill="#52735b"/>
  <rect id="rect888" x="12" y="21" width="2" height="2" ry="1" fill="#fff" fill-rule="evenodd" opacity=".5" style="paint-order:stroke fill markers"/>
  <rect id="rect890" x="34" y="21" width="2" height="2" ry="1" fill="#fff" fill-rule="evenodd" opacity=".5" style="paint-order:stroke fill markers"/>
  <rect id="rect892" x="33" y="23" width="4" height="3" rx="2" ry="1.5" fill="#52735b" fill-rule="evenodd" style="paint-order:stroke fill markers"/>
  <rect id="rect892-2" x="11" y="23" width="4" height="3" rx="2" ry="1.5" fill="#52735b" fill-rule="evenodd" style="paint-order:stroke fill markers"/>
 </g>
</svg>
