<?xml version="1.0" encoding="UTF-8"?>
<!-- Created with Inkscape (http://www.inkscape.org/) -->
<svg id="SVGRoot" width="48px" height="48px" version="1.1" viewBox="0 0 48 48" xmlns="http://www.w3.org/2000/svg" xmlns:cc="http://creativecommons.org/ns#" xmlns:dc="http://purl.org/dc/elements/1.1/" xmlns:rdf="http://www.w3.org/1999/02/22-rdf-syntax-ns#">
 <defs id="defs815">
  <style id="style819">.cls-1{fill:none;stroke:#fff;stroke-linecap:round;stroke-linejoin:round;}</style>
 </defs>
 <metadata id="metadata818">
  <rdf:RDF>
   <cc:Work rdf:about="">
    <dc:format>image/svg+xml</dc:format>
    <dc:type rdf:resource="http://purl.org/dc/dcmitype/StillImage"/>
    <dc:title/>
   </cc:Work>
  </rdf:RDF>
 </metadata>
 <g id="layer1">
  <rect id="rect1373-5" x="4" y="4" width="40" height="40" ry="8" fill="#ffdd75" fill-rule="evenodd" style="paint-order:stroke fill markers"/>
  <path id="rect817" d="m12 4c-4.432 0-8 3.568-8 8v24c0 4.432 3.568 8 8 8h24c4.432 0 8-3.568 8-8v-24c0-4.432-3.568-8-8-8h-24zm0 1h24c3.878 0 7 3.122 7 7v24c0 3.878-3.122 7-7 7h-24c-3.878 0-7-3.122-7-7v-24c0-3.878 3.122-7 7-7z" fill-rule="evenodd" opacity=".3" style="paint-order:stroke fill markers"/>
  <path id="path828-9-7" d="m14.775 18.245c-2.0774 0-3.7497 1.6735-3.7497 3.7522v0.62537c0 1.3936 0.75341 2.6018 1.8749 3.249v1.1286s-3.7497 0.62537-4.3747 1.2507c-0.57709 0.57747-0.61913 2.7765-0.62251 3.0249-1.4e-4 0.0051-0.00238 0.0095-0.00238 0.01466v0.15635c-6.39e-5 0.30336 0.2436 0.54719 0.54677 0.54719h12.655c0.30317 0 0.54684-0.24383 0.54684-0.5472v-0.15635c0-0.0051-0.0023-0.0095-0.0024-0.01466-0.0033-0.24846-0.04543-2.4475-0.62252-3.0249-0.62496-0.62537-4.3747-1.2507-4.3747-1.2507v-1.1286c1.1215-0.64718 1.8749-1.8554 1.8749-3.249v-0.62537c6.3e-5 -2.0787-1.6723-3.7522-3.7497-3.7522z" opacity=".25"/>
  <path id="path828-9-7-8" d="m33.24 18.377c-2.046 0-3.6931 1.6482-3.6931 3.6956v0.61593c0 1.3726 0.74204 2.5625 1.8466 3.2v1.1116s-3.6932 0.61593-4.3087 1.2319c-0.56838 0.56875-0.60979 2.7346-0.61312 2.9793-1.38e-4 5e-3 -0.0023 0.0094-0.0023 0.01444v0.15398c-6.2e-5 0.29879 0.23993 0.53893 0.53852 0.53893h12.464c0.29859 0 0.53858-0.24015 0.53858-0.53894v-0.15398c0-5e-3 -0.0023-0.0094-0.0024-0.01443-0.0033-0.24471-0.04475-2.4105-0.61312-2.9793-0.61552-0.61593-4.3087-1.2319-4.3087-1.2319v-1.1116c1.1045-0.63741 1.8466-1.8274 1.8466-3.2v-0.61593c6.2e-5 -2.0474-1.6471-3.6956-3.6931-3.6956z" opacity=".25"/>
  <path id="path828-9-9" d="m24 13c-3.324 0-6 2.6778-6 6.004v1.0007c0 2.23 1.2055 4.1632 3 5.1987v1.8059s-5.0273 1.0007-6.0273 2.0013c-0.9234 0.92401-0.99068 3.4699-0.99609 3.8675-2.25e-4 0.0082-0.0039 0.01519-0.0039 0.02345v0.25016c0 0.48543 0.38989 0.87558 0.875 0.87558h18.305c0.48511 0 0.875-0.39015 0.875-0.87558v-0.25016c0-0.0083-0.0037-0.01524-0.0039-0.02345-0.0054-0.39756-0.0727-2.9435-0.9961-3.8675-1-1.0007-6.0273-2.0013-6.0273-2.0013v-1.8059c1.7945-1.0356 3-2.9688 3-5.1987v-1.0007c0-3.3262-2.676-6.004-6-6.004z" fill="#4e4e4e"/>
 </g>
</svg>
