<?xml version="1.0" encoding="UTF-8"?>
<!-- Created with Inkscape (http://www.inkscape.org/) -->
<svg id="SVGRoot" width="48px" height="48px" version="1.1" viewBox="0 0 48 48" xmlns="http://www.w3.org/2000/svg" xmlns:cc="http://creativecommons.org/ns#" xmlns:dc="http://purl.org/dc/elements/1.1/" xmlns:rdf="http://www.w3.org/1999/02/22-rdf-syntax-ns#">
 <defs id="defs815">
  <style id="style819">.cls-1{fill:none;stroke:#fff;stroke-linecap:round;stroke-linejoin:round;}</style>
 </defs>
 <metadata id="metadata818">
  <rdf:RDF>
   <cc:Work rdf:about="">
    <dc:format>image/svg+xml</dc:format>
    <dc:type rdf:resource="http://purl.org/dc/dcmitype/StillImage"/>
    <dc:title/>
   </cc:Work>
  </rdf:RDF>
 </metadata>
 <g id="layer1">
  <rect id="rect1373-5" x="4" y="4" width="40" height="40" ry="8" fill="#afd56b" fill-rule="evenodd" style="paint-order:stroke fill markers"/>
  <path id="rect817" d="m12 4c-4.432 0-8 3.568-8 8v24c0 4.432 3.568 8 8 8h24c4.432 0 8-3.568 8-8v-24c0-4.432-3.568-8-8-8h-24zm0 1h24c3.878 0 7 3.122 7 7v24c0 3.878-3.122 7-7 7h-24c-3.878 0-7-3.122-7-7v-24c0-3.878 3.122-7 7-7z" fill-rule="evenodd" opacity=".3" style="paint-order:stroke fill markers"/>
  <path id="path829" d="m20.184 10c-0.41579-0.020228-0.82975 0.23283-1.2715 0.75781-0.35873 0.42633-0.6543 0.9356-0.6543 1.1328 0 0.44916-0.12767 0.44973-0.82617 0-0.3069-0.19759-0.96121-0.43332-1.4551-0.52344-1.0675-0.19482-1.396 0.10246-1.6914 1.5332-0.20276 0.98216-0.21255 0.98806-1.5801 1.1133-1.2626 0.11562-1.3823 0.18094-1.4531 0.79297-0.04246 0.36678 0.10145 1.0953 0.32031 1.6191 0.4508 1.0789 0.36305 1.2383-0.87109 1.5527-0.5421 0.13814-1.0228 0.47849-1.252 0.88672-0.34568 0.61588-0.32926 0.70953 0.2207 1.2949 0.62477 0.66504 0.57301 1.4121-0.095703 1.4121-0.5232 0-0.51294 1.455 0.013672 2.0371 0.36526 0.40361 0.3538 0.48409-0.12695 0.96484-0.5797 0.5797-0.67638 1.2787-0.23828 1.7168 0.21273 0.21273 0.10412 0.44292-0.42773 0.90039-0.6965 0.5991-0.705 0.62783-0.28711 1.2656 0.58485 0.8926 0.55512 1.3665-0.052734 0.81641-0.26571-0.24046-0.74906-0.39928-1.0723-0.35352-0.47882 0.067827-0.6023 0.25752-0.66602 1.0273-0.084675 1.0232-0.30532 1.137-0.7168 0.44531v2.8477c0.046314-0.021314 0.087165-0.038437 0.15039-0.072265 0.26321-0.14084 0.67529-0.45068 0.91406-0.68945 0.23877-0.23876 0.61747-0.44732 0.83984-0.46289 0.22237-0.01555 0.58733-0.048566 0.8125-0.072266 0.23702-0.02486 0.47324-0.36033 0.56055-0.79688 0.10407-0.52041 0.29072-0.74311 0.59961-0.7168 0.91992 0.07834 1.2712-0.05379 1.3945-0.52539 0.08938-0.34176 0.02361-0.44487-0.22461-0.34961-0.24297 0.09325-0.30276 0.0087-0.19531-0.27148 0.08569-0.22329 0.31054-0.40625 0.5-0.40625 0.18946 0 0.51938-0.33607 0.73242-0.74805 0.34309-0.66349 0.3432-0.73298 0.00586-0.60352-0.20948 0.08038-0.38281 0.02266-0.38281-0.13086 0-0.15338 0.15943-0.28125 0.35156-0.28125 0.19413 5e-6 0.39647-0.3276 0.45703-0.74023 0.05994-0.40838 0.017757-0.68732-0.095703-0.61719-0.1135 0.07013-0.20703-0.0345-0.20703-0.23438 0-0.43334 0.56851-0.6099 1.8496-0.57422 0.81127 0.02257 0.96236-0.06368 1.0801-0.60547 0.07527-0.34642 0.16156-0.7354 0.19336-0.86719 0.04728-0.19597-1.4614-1.1484-1.8203-1.1484-0.05614 0-0.048652 0.28444 0.017578 0.63086 0.06621 0.34642 0.023517 0.63086-0.095703 0.63086-0.11937 0-0.2168-0.32453-0.2168-0.71875 0-0.63899-0.6424-1.5488-1.0918-1.5488-0.09301 0-0.16992 0.30556-0.16992 0.67969 0 0.40452-0.08708 0.58179-0.21875 0.43945-0.31263-0.338-0.62202-2.21-0.33594-2.0332 0.12716 0.07859 0.36333-0.15176 0.52734-0.51172 0.16402-0.35998 0.36022-0.59486 0.43555-0.51953 0.07535 0.07535 0.01365 0.37003-0.13867 0.6543-0.23374 0.43677-0.17726 0.58204 0.36523 0.9375 0.35308 0.23136 0.67332 0.37763 0.71094 0.32422 0.80575-1.1442 0.95498-1.5588 0.63476-1.7617-0.18781-0.119-0.50416-0.2186-0.70508-0.2207-0.27506-0.0031-0.29603-0.07703-0.078125-0.29492 0.21791-0.2179 0.4531-0.17919 0.95312 0.14844 0.57845 0.379 0.71851 0.38725 1.084 0.074219 0.23077-0.19767 0.6467-0.45071 0.92383-0.5625 0.45437-0.18329 0.45894-0.21298 0.058593-0.30859-0.24425-0.05832-0.38069-0.20635-0.30664-0.32617 0.07404-0.11979 0.47804-0.094455 0.90039 0.052735 0.42235 0.14724 1.1854 0.19544 1.6953 0.10938 0.50991-0.08605 1.7772-0.29734 2.8164-0.4707 1.7835-0.29752 1.8955-0.35582 1.9707-1.0098 0.04741-0.41201-0.04259-0.69141-0.2207-0.69141-0.22629 0-0.2232-0.09194 0.011719-0.375 0.17229-0.20758 0.24258-0.64421 0.1582-0.98047-0.16622-0.66226 0.30007-1.0124 0.99414-0.74609 0.23792 0.09128 0.68431-0.1289 1.1328-0.55859 0.31087-0.29783 0.53244-0.4535 0.64648-0.48633 0.19009-0.0547 0.08106 0.22895-0.41211 0.75391-0.41773 0.44466-0.46087 0.66711-0.25586 1.2754 0.13662 0.4054 0.28851 1.1669 0.33789 1.6895 0.09632 1.0193 1.213 2.4482 1.9199 2.4551 0.34612 0.0033 0.34781 0.03308 0.015625 0.24609-0.20784 0.13328-0.57587 0.18091-0.81836 0.10547-0.49941-0.1554-1.4492 0.08637-1.4492 0.36914 0 0.10277 0.14321 0.37751 0.31641 0.60938 0.27298 0.36544 0.4329 0.38022 1.1973 0.10938 0.48498-0.17186 1.0278-0.40675 1.207-0.52148 0.18072-0.11567 0.46237-0.098887 0.63086 0.039063 0.16714 0.13684 1.4039 0.26316 2.75 0.2793 1.3462 0.01614 2.6344 0.09967 2.8633 0.1875 0.35872 0.13765 0.37482 0.08515 0.11914-0.39258-0.16311-0.30478-0.57217-0.66056-0.91016-0.78906-0.33799-0.1285-0.61523-0.32761-0.61523-0.44141 0-0.28741 0.98388-0.20489 1.8887 0.1582 0.4157 0.1668 0.89906 0.35323 1.0723 0.41406 0.17322 0.060829 0.31641 0.23112 0.31641 0.37891 0 0.18758-0.15002 0.19176-0.49024 0.009765-0.65405-0.35004-0.77148-0.33314-0.77148 0.12695 0 0.21494 0.39447 0.55703 0.875 0.75781 1.1412 0.47682 1.4076 0.46016 1.2383-0.076172-0.09791-0.31022 0.02074-0.25923 0.40039 0.17188 0.2967 0.33697 0.73032 0.7672 0.96484 0.95703 0.38305 0.31006 0.36659 0.32972-0.17383 0.17969-0.54147-0.15034-0.58975-0.10189-0.47656 0.49023 0.06916 0.36182 0.029526 0.6582-0.089844 0.6582-0.11937 0-0.21875-0.29104-0.21875-0.64453 0-0.50005-0.20096-0.72598-0.9082-1.0215-1.0628-0.44407-1.1887-0.38024-0.9707 0.48828 0.11235 0.44763 0.38658 0.69269 0.89648 0.80469 0.89098 0.19569 0.75247 0.60544-0.14648 0.43359-0.51786-0.09898-0.63477-0.02019-0.63477 0.41406 0 0.29329-0.11342 0.5332-0.25195 0.5332-0.13857 0-0.25195-0.27388-0.25195-0.60547 0-0.64451-0.41577-0.9082-1.4277-0.9082-0.5727 0-0.61824 0.08072-0.51172 0.87109 0.16568 1.2294-0.14854 1.3784-0.47461 0.22461-0.26192-0.9268-0.32237-0.9714-1.4473-1.0449-1.1725-0.07663-1.1744-0.076981-0.92383 0.58203 0.30765 0.80917 0.31743 1.1309 0.035156 1.1309-0.11853 0-0.32086-0.36802-0.44922-0.81836-0.20492-0.7189-0.35148-0.82805-1.2031-0.89844-1.174-0.09706-1.5603 0.20512-1.1777 0.91992 0.17571 0.32832 0.18543 0.56951 0.029297 0.66602-0.1349 0.083349-0.31996-0.14651-0.41211-0.51367-0.15147-0.60349-0.25189-0.65403-1.0566-0.52344-0.48961 0.07947-0.97262 0.27627-1.0723 0.4375-0.10254 0.16591-0.32113 0.2067-0.50391 0.09375-0.22311-0.13789-0.27808-0.083759-0.17774 0.17773 0.18754 0.48876-0.5489 2.0165-0.91406 1.8965-0.15349-0.05047-0.31445-0.6354-0.35742-1.3008-0.06604-1.0228-0.01421-1.1833 0.32617-1.0527 0.59772 0.22936 0.73483-0.45425 0.24414-1.2031-0.27594-0.42113-0.65987-0.65306-1.0898-0.6582-0.6472-0.0076-0.64943-0.01976-0.1582-0.39258 0.49865-0.37853 0.49832-0.38491-0.125-0.87695-0.50316-0.3972-0.85993-0.46599-1.7656-0.3418-1.3572 0.1861-1.4229 0.2338-1.0059 0.73633 0.60253 0.726 0.02954 0.6943-0.59961-0.033203l-0.62305-0.72266 1.373-0.3418c1.124-0.2812 1.321-0.40978 1.084-0.69531-0.2916-0.35135-1.8728-0.47405-2.584-0.20117-0.23315 0.08945-0.32236 0.31045-0.22656 0.56641 0.14164 0.37835 0.11307 0.38335-0.30469 0.042969-0.8792-0.71638-2.7815 0.15995-2.0137 0.92773 0.6527 0.6527 0.38944 0.94334-0.2832 0.3125l-0.65234-0.61133-0.48438 0.5957c-0.66848 0.82407-0.60527 1.1716 0.32227 1.832 0.58898 0.41939 0.83024 0.48386 0.91016 0.24414 0.35022-1.0507 2.3184-2.5711 2.3184-1.791 0 0.13769 0.46777 0.59006 1.0391 1.0039l1.0391 0.75195 0.73242-1.0137c0.89455-1.2349 1.3016-1.0889 1.0801 0.38867-0.13157 0.87744-0.06802 1.182 0.32227 1.5723 0.2658 0.2658 0.62896 1.0136 0.81055 1.6621 0.18159 0.64856 0.42273 1.1797 0.5332 1.1797 0.11046 0 0.52342-0.39593 0.91992-0.87695 0.65055-0.78923 0.81247-0.85763 1.6562-0.7207 3.0623 0.49694-2.3422 3.0714-5.8223 2.7734-1.2576-0.10767-1.563-0.07577-1.2109 0.125 0.25873 0.14754 1.3025 0.27468 2.3184 0.28125 2.1347 0.01399 2.1632 0.15936 0.33984 1.8066-1.053 0.95134-1.0641 0.95463-2.8496 0.83398-1.7609-0.119-1.7751-0.11334-0.9082 0.25 1.013 0.4246 3.5666 0.29892 4.1738-0.20508 0.30678-0.2546 0.44124-0.22381 0.73633 0.16602 0.81317 1.0743 0.32638 2.1503-1.1797 2.6035-2.1731 0.65394-3.6245 1.2992-4.3633 1.9375l-0.75391 0.65039 0.71289-0.42188c1.3342-0.79198 3.9565-1.6465 5.0566-1.6465 1.5268 0 2.6585 0.53767 4.0039 1.9023 1.5191 1.5408 1.9414 2.4981 1.9414 4.3828 0 0.93846-0.048998 1.3341-0.3457 1.7988h2.5977c0.002483-0.056245 0.015625-0.088668 0.015624-0.15234 0-0.83509-0.03881-0.87762-0.69141-0.73828-0.6632 0.1416-0.67126 0.13013-0.20312-0.24805 0.26898-0.21729 0.58422-0.39453 0.70117-0.39453 0.11696-4e-6 0.082081-0.23925-0.074219-0.53125-0.20778-0.38827-0.35652-0.45596-0.56055-0.25195-0.42019 0.42023-0.78991 0.33638-0.42969-0.097656 0.25022-0.3015 0.25022-0.45436 0-0.75586-0.25298-0.30485-0.24768-0.37367 0.03125-0.35938 0.46264 0.0236 1.2722 0.35082 1.2285 0.49609-0.13244 0.44067 0.39909 0.99805 0.95117 0.99805h0.64844l-0.55078 0.58008c-0.30991 0.32988-0.54688 0.9104-0.54688 1.3359 0 0.039695-0.01516 0.078617-0.017578 0.11914h1.7168c0.26466-0.78769 1.795-1.5332 3.1895-1.5332 1.1662-2e-6 1.7376 0.39374 1.1289 0.7793-0.19094 0.12094-0.64981 0.22264-1.0195 0.22461-0.8291 0.004816-1.3464 0.1972-1.4492 0.5293h1.5957c0.44238 0 0.87246-0.05061 1.2871-0.14062 0.013755-0.21873 0.1802-0.38477 0.51172-0.38477 0.53963 0 0.44027-0.66515-0.1875-1.25-0.66389-0.61851-2.3421-0.67481-3.8574-0.12891-0.55426 0.19969-1.0245 0.36717-1.043 0.36914-0.01846 0.0019-0.09387-0.31035-0.16992-0.69141-0.10248-0.51329-2e-3 -0.79864 0.39062-1.1035 0.45164-0.3507 0.54022-0.72148 0.59766-2.5117 0.03708-1.1554-0.04684-2.2372-0.18555-2.4043-0.4057-0.48884-3.7529-2.0055-5.2598-2.3828-0.76211-0.19083-2.0019-0.71626-2.7559-1.168-0.75397-0.45171-1.5179-0.82227-1.6992-0.82227-0.52589 0-0.38458-0.87178 0.23438-1.4355 0.66979-0.61006 1.5052-1.0618 2.4746-1.3398 0.54384-0.15598 0.79895-0.092 1.1367 0.28125 0.426 0.47073 0.44776 0.46222 0.9082-0.29492 0.55132-0.90657 0.84551-0.87335 1.4219 0.15234 0.23154 0.41205 0.44722 0.79131 0.47852 0.8457 0.15304 0.26602 0.84936-0.63136 1.0293-1.3262 0.19133-0.73882 0.29526-0.7989 1.6992-0.97656 1.5551-0.1968 1.6837-0.14106 2.373 1.0586 0.29784 0.51835 0.93068-0.04584 1.1445-1.0195 0.12354-0.56239 0.45078-0.89193 1.3379-1.3418 2.3507-1.1921 2.5224-1.9576 0.78711-3.5254-0.54835-0.4954-0.99609-1.0654-0.99609-1.2637 0-0.69674-0.77637-1.1702-1.8535-1.1309-1.0197 0.03718-3.4149-0.32606-4.2148-0.64062-0.22326-0.0878-0.54447 0.01366-0.72461 0.23047-0.43624 0.52564-0.92595 0.48873-1.7988-0.13281-0.52756-0.37566-0.73047-0.7299-0.73047-1.2715 0-0.41314-0.17435-1.0874-0.38672-1.498-0.27838-0.53832-0.33695-1.0963-0.2168-2.002 0.15404-1.161 0.12549-1.2559-0.36328-1.2559-0.29088 0-1.155 0.28684-1.9199 0.63672l-1.3906 0.63672-0.94727-0.49414c-0.52088-0.27068-1.2654-0.89568-1.6523-1.3906-0.44434-0.56833-0.8596-0.86246-1.2754-0.88281zm0.28711 0.87109c0.03609-5.86e-4 0.054688 0.01743 0.054688 0.05664 0 0.15631-0.10194 0.34876-0.22656 0.42578-0.12461 0.07702-0.47486 0.56392-0.78125 1.084-0.49488 0.84002-0.50238 0.89754-0.068359 0.50586 0.26871-0.24248 0.598-0.44141 0.73438-0.44141 0.49515 0 1.5619 1.4125 1.9551 2.5898 0.57231 1.7137 0.53216 1.9453-0.35156 1.9453-0.64552 0-0.75781-0.096199-0.75781-0.6543 0-0.44155-0.16342-0.69416-0.50391-0.7832-0.27713-0.07247-0.50195-0.29623-0.50195-0.49609 0-0.19989-0.12137-0.28882-0.26953-0.19727-0.14813 0.09155-0.23672 0.63358-0.19531 1.207 0.05955 0.8249-0.01454 1.0625-0.35938 1.1289-0.37622 0.072469-0.44012-0.15262-0.46875-1.6367-0.02734-1.4167-0.06775-1.5626-0.2207-0.83594l-0.18555 0.88086-0.023438-0.88086c-0.01341-0.48498 0.12805-1.1535 0.3125-1.4863 0.18445-0.33285 0.27632-0.84407 0.20508-1.1348-0.07127-0.29069-0.036655-0.4418 0.078125-0.33594 0.11478 0.10586 0.52925-0.114 0.91992-0.48828 0.293-0.28071 0.54609-0.45136 0.6543-0.45312zm-4.6504 1.1445c0.3725-0.04171 0.80564 0.033641 1.1953 0.24219 0.68909 0.36879 0.60583 0.66126-0.23828 0.83008-0.39953 0.07989-1.0241 0.21955-1.3867 0.31055-0.72027 0.18076-0.83872-0.09138-0.39844-0.91406 0.14356-0.26824 0.45563-0.42705 0.82812-0.46875zm1.0059 1.7617 0.55078 0.017578-0.56641 0.27344c-0.31178 0.15036-0.56836 0.366-0.56836 0.47852 0 0.29883 0.83014 0.67655 1.1973 0.54492 0.19634-0.07039 0.26255 0.02931 0.17188 0.26562-0.08005 0.20861-0.0071 0.6442 0.16211 0.9668 0.3061 0.58295 0.30326 0.58535-0.22852 0.11328-0.527-0.46782-0.54695-0.46643-1.4043 0.1875-0.47875 0.36516-0.90728 0.65524-0.95117 0.64648-0.04391-0.0088-0.33651-0.11681-0.64844-0.24219-0.31193-0.12537-0.74884-0.15813-0.97266-0.072266-0.5815 0.22313-0.11353-0.58533 0.89062-1.541 0.42763-0.40698 0.77734-0.90286 0.77734-1.0996 0-0.21099 0.15099-0.29854 0.36914-0.21484 0.2034 0.07805 0.43763 0.032901 0.51953-0.099609 0.08188-0.13252 0.39758-0.23404 0.70117-0.22461zm7.2188 0.48828c-0.35063 0-0.49609 0.1715-0.49609 0.58789 0 0.32332 0.07757 0.66349 0.16992 0.75586 0.27213 0.27212 1.3418 0.19288 1.3418-0.099609 0-0.57606-0.54453-1.2441-1.0156-1.2441zm-10.607 0.25781c0.34338-0.0054 0.26815 0.10947-0.03125 0.56641-0.22034 0.33628-0.43712 0.99779-0.48242 1.4688l-0.083984 0.85742-0.45508-0.83789c-0.67794-1.2439-0.48938-1.9173 0.5625-2.0176 0.21429-0.0205 0.37577-0.03535 0.49023-0.037109zm13.445 0.10937c0.1147-0.02153 0.23744 0.07416 0.45117 0.26758 0.6059 0.54833 0.9459 2.8671 0.46484 3.1719-0.4248 0.26915-0.96485 0.28784-0.99609 0.035156-0.01263-0.10394-0.002895-0.68672 0.021485-1.2949 0.03688-0.91565-0.02506-1.0799-0.35547-0.95312-0.5083 0.19504-0.50746-0.06907 0.003906-0.79883 0.18844-0.26905 0.29547-0.40617 0.41016-0.42774zm-11.139 0.2793c-0.16626 0.04165-0.3797 0.20598-0.75 0.51758-0.76858 0.64672-0.79174 0.71104-0.36719 1.0215 0.61005 0.44608 0.68019 0.43258 1.3691-0.30078 0.53756-0.57221 0.5591-0.67333 0.20898-1.0234-0.17505-0.17508-0.29466-0.25648-0.46094-0.21484zm8.4199 1.1875c-0.42586-0.0023-0.61523 0.2176-0.61523 0.68359 0 0.28864 0.21939 0.51128 0.56641 0.57812 1.0927 0.21045 1.1973 0.17639 1.1973-0.42188 0-0.43549-0.17701-0.64927-0.64062-0.76562-0.19603-0.04919-0.36586-0.073379-0.50781-0.074219zm-0.23633 1.6172 0.61133 0.66992c0.38798 0.42381 0.87418 0.66602 1.332 0.66602 0.6427 0 0.69163-0.05463 0.45117-0.50391-0.14832-0.27714-0.46356-0.50595-0.70117-0.50781-0.23761-0.0018-0.71608-0.07615-1.0625-0.16406l-0.63086-0.16016zm-1.8027 0.32617c-1.4589 0-1.6639 0.22082-0.7793 0.83789 0.65593 0.45756 0.747 0.4704 2.0215 0.25977 0.91109-0.15056 0.93568-0.17789 0.5293-0.62695-0.31368-0.34661-0.77758-0.4707-1.7715-0.4707zm-10.543 0.14844c0.14255 0.0073 0.28199 0.035738 0.41211 0.085938 0.27527 0.10621 0.09046 0.36273-0.69141 0.94922-0.91443 0.68591-1.1152 0.74855-1.375 0.43555-0.51284-0.61794 0.65649-1.5236 1.6543-1.4707zm10.621 1.3652 0.58984 0.62891c0.43118 0.45897 0.8543 0.63086 1.5566 0.63086 1.0484 0 1.0913-0.04612 0.70312-0.77148-0.20592-0.38475-0.53441-0.48828-1.5566-0.48828h-1.293zm6.6836 1.0078 0.64844 0.74024c0.5247 0.59795 0.83637 0.73223 1.6152 0.70117 1.0176-0.04058 1.1626-0.27834 0.61328-1.002-0.24102-0.3175-0.68933-0.43945-1.6055-0.43945h-1.2715zm-1.2598 0.015625c-0.25621 0.0057-0.52564 0.0875-0.81836 0.24414-0.45671 0.24442-0.46245 0.30029-0.082032 0.88086 0.35812 0.54656 0.52922 0.59974 1.4492 0.45898 0.57351-0.087749 1.0902-0.19945 1.1484-0.25 0.0583-0.05057-0.16143-0.37678-0.48633-0.72266-0.31655-0.33696-0.62791-0.53181-0.95898-0.5918-0.08277-0.015-0.16655-0.021441-0.25195-0.019531zm4.5586 0.10938 0.38867 0.5918c0.2136 0.32545 0.62133 0.68858 0.9082 0.80469 0.92088 0.37271 1.7303 0.29129 1.5586-0.15625-0.08412-0.21919-0.1543-0.55068-0.1543-0.73438 0-0.22511-0.44111-0.36176-1.3516-0.41992l-1.3496-0.085938zm-7.5059 0.56836c-0.1588-9e-3 -0.29429 0.01125-0.38672 0.06836-0.28919 0.17878-0.28792 0.31451 0.003906 0.85938 0.36341 0.67903 1.2935 0.86323 2.0254 0.40039 0.33592-0.21242 0.33592-0.27739 0-0.58008-0.46638-0.42024-1.1662-0.72073-1.6426-0.74805zm-14.57 0.62891c0.17794-0.03391 0.38794 0.13701 0.73438 0.56641 0.33538 0.4157 0.61057 0.95477 0.61133 1.1973 6.92e-4 0.24248-0.025887 0.43064-0.060547 0.41797-1.1909-0.43553-1.9832-1.5669-1.457-2.082 0.056009-0.05485 0.11256-0.088329 0.17188-0.099609zm1.1426 2.7051c0.28314 0.0273 0.44789 0.1666 0.35742 0.40234-0.08412 0.21919-0.1543 0.78417-0.1543 1.2578 0 1.0272-0.15673 1.0505-1.0703 0.15234-0.81803-0.80424-0.86921-1.1934-0.20508-1.5488 0.3871-0.20717 0.78913-0.29096 1.0723-0.26367zm16.684 0.001953c0.58274 0 0.72813 0.47001 0.39453 1.2754-0.37544 0.9064-0.68914 0.94523-0.89844 0.11133-0.19787-0.78841 0.01957-1.3867 0.50391-1.3867zm8.0176 0.035156c0.14705 0.044 0.19531 0.26753 0.19531 0.70703 0 0.98709-0.34889 1.1532-0.76953 0.36719-0.29103-0.54379-0.28898-0.67155 0.023438-0.86914 0.14951-0.09459 0.27134-0.15963 0.36914-0.19141 0.07335-0.02382 0.13262-0.028342 0.18164-0.013672zm-6.5625 0.46875h0.97266 0.96875l-0.27148 0.81836c-0.43091 1.2914-0.63159 1.3309-1.168 0.2207l-0.50195-1.0391zm-14.918 0.24609c-0.06471 0.02023-0.1425 0.09591-0.23047 0.23828-0.17909 0.2898-0.18257 0.73047-0.011719 1.2793 0.02153 0.06929 0.15483-0.1923 0.29688-0.58203 0.20684-0.56742 0.13947-0.99635-0.054688-0.93555zm-1.0586 0.064453c-0.1629 0.02383-0.34234 0.28888-0.40039 0.7793-0.0565 0.47724 0.03672 0.67383 0.31641 0.67383 0.2729 0 0.39258-0.23821 0.39258-0.77539 0-0.48195-0.14572-0.70147-0.30859-0.67774zm-3.248 1.9434h0.001953c0.6898 0.02179 0.9207 0.5808 0.39648 1.3809-0.52021 0.79394-0.62677 0.79581-1.1855 0.027344-0.54536-0.7499-0.55593-1.0434-0.042969-1.2402 0.32046-0.12298 0.60015-0.17524 0.83008-0.16797zm3.4414 0.013672c-0.58198 0-1.1426 0.61094-1.1426 1.2441 0 0.56883 1.1777 0.27012 1.4707-0.37305 0.39059-0.85724 0.38626-0.87109-0.32812-0.87109zm-0.85938 1.7637c-0.5029 0-0.78597 0.17627-0.98242 0.60742-0.2452 0.53814-0.21003 0.62275 0.32812 0.75781 0.33361 0.08375 0.72591 0.37105 0.86914 0.63867 0.24691 0.46139 0.2245 0.46829-0.43359 0.125-0.94715-0.49407-1.0742-0.46234-1.0742 0.26563 0 0.34642-0.11142 0.62891-0.25 0.62891-0.13859 0-0.25195-0.28249-0.25195-0.62891 0-0.92134-0.97529-0.78272-1.334 0.18945-0.10636 0.28831-0.038875 0.43945 0.19336 0.43945 0.19533 0 0.43408 0.13062 0.5332 0.29102 0.12417 0.2009 0.0095 0.24899-0.375 0.14844-0.48259-0.12617-0.54775-0.0578-0.48047 0.50976 0.055947 0.4721 0.26934 0.70767 0.76758 0.83984 0.51574 0.13684 0.69531 0.09323 0.69531-0.17188 0-0.19587 0.11342-0.35742 0.25195-0.35742 0.13857 0 0.25 0.22679 0.25 0.50391 0 0.27713 0.15348 0.50391 0.33984 0.50391 0.3434 0 1.1739 0.77662 1.1738 1.0977 0 0.09622-0.28793-0.0145-0.63867-0.24414-0.75203-0.49275-0.73458-0.50648-1.0664 0.7832l-0.25977 1.0098-0.02539-1.1562c-0.022-0.98202-0.12299-1.2009-0.66797-1.4492-0.35294-0.16082-0.94968-0.30156-1.3242-0.3125-0.37459-0.01107-0.53844-0.0766-0.36523-0.14648 0.28215-0.11385 0.47257-1.5977 0.20508-1.5977-0.060285 0-0.39847 0.11095-0.75391 0.24609-0.51893 0.19731-0.64648 0.41521-0.64648 1.1035 0 0.49362-0.17819 1.004-0.41992 1.2031-0.38182 0.31451-0.40754 0.2618-0.27148-0.58398 0.12792-0.79514 0.089908-0.90827-0.27148-0.7832-0.17125 0.059265-0.32454 0.15559-0.46289 0.27148v2.1387c0 0.03957 0.0051044 0.077805 0.0058594 0.11719 0.25658-0.077677 0.45574-0.12339 0.58984-0.11719 0.16438 0.0073 0.26125 0.07768 0.34766 0.2168 0.25106 0.40428 0.73438 2.5471 0.73438 3.2559 0 0.23673-0.091709 0.37016-0.23633 0.42774 1.0988 1.2841 2.7283 2.0996 4.5586 2.0996h1.4531c-0.16542-0.42853-0.39619-0.77734-0.52344-0.77734-0.14745 0-0.15063-0.15838-0.009766-0.41016 0.12939-0.23123 0.6321-0.44533 1.1543-0.49219 0.54306-0.04872 0.86465 0.01696 0.77734 0.1582-0.08178 0.13233-0.35978 0.24023-0.61719 0.24023-0.57259 0-0.77311 0.47594-0.45898 1.0859 0.030815 0.059838 0.040964 0.12897 0.0625 0.19531h2.5898c-0.33508-1.078-0.91155-2.1172-1.6172-2.8398-0.79138-0.81044-0.93169-1.1165-0.87891-1.9082 0.03458-0.51838-0.04772-1.5083-0.18164-2.2012-0.14988-0.7754-0.15178-1.3527-0.007812-1.5 0.35658-0.36478 0.27889-1.8078-0.15234-2.8398-0.21219-0.50785-0.32904-1.0714-0.25977-1.252 0.08508-0.22167-0.10427-0.33008-0.58203-0.33008zm-5.207 0.25195c0.43518 0 1.2272 0.92572 1.0449 1.2207-0.082615 0.13365-0.49225 0.36086-0.9082 0.50586-0.70161 0.24458-0.75781 0.22103-0.75781-0.33203 0-0.83079 0.25271-1.3945 0.62109-1.3945zm17.361 1.3379c0.03716-0.0064 0.0668-0.001499 0.08789 0.019531 0.06671 0.06671-0.11517 0.37703-0.40625 0.68945-0.29107 0.31243-0.5293 0.44191-0.5293 0.28711 0-0.30113 0.58762-0.95113 0.84766-0.99609zm1.2109 0.96875c0.04345-0.0064 0.08024 0.001904 0.10547 0.027344 0.101 0.101-0.0095 0.39515-0.24414 0.6543-0.40357 0.44593-0.39317 0.49252 0.18164 0.86914 0.57133 0.37435 0.63953 0.36291 1.1621-0.19336 0.53135-0.5656 0.53756-0.60337 0.095703-0.88281-0.39535-0.25002-0.35952-0.26982 0.25586-0.13867 0.39549 0.08431 1.0121 0.34484 1.3711 0.58008 0.35903 0.23526 0.87426 0.3892 1.1426 0.34375 0.34906-0.05914 0.19005 0.19974-0.55469 0.9082-1.418 1.3489-1.4151 1.3604 0.66016 2.9902 0.45034 0.35368 0.82031 0.7468 0.82031 0.87305 0 0.26549-0.06031 0.26149-1.3242-0.074219-0.60565-0.16088-0.9467-0.39942-0.94922-0.66602-0.0019-0.22872-0.1155-0.58707-0.25195-0.79492-0.22052-0.33592-0.27558-0.33592-0.49609 0-0.19876 0.30279-0.2489 0.25828-0.25195-0.23047-0.0049-0.78218-0.68722-1.5464-1.2051-1.3477-0.29363 0.11268-0.35461 0.04459-0.23633-0.26367 0.18474-0.48146-0.6549-1.0494-1.2266-0.83008-0.19702 0.07562-0.35742 0.0111-0.35742-0.14258 0-0.15359-0.20087-0.4399-0.44336-0.63867-0.40472-0.33175-0.38678-0.35038 0.19141-0.22266 0.46013 0.10166 0.74323-0.01056 1.0527-0.41797 0.17475-0.23 0.37156-0.38325 0.50195-0.40234zm2.4277 1.293c-0.2642-0.0015-0.51596 0.12729-0.78516 0.39648-0.51041 0.5104-0.51066 0.53265-0.048828 1.043l0.4707 0.52148 0.57422-0.70117c0.71608-0.87487 0.72225-1.0042 0.058594-1.2148-0.09185-0.02914-0.18146-0.044412-0.26953-0.044922zm2.8516 0.6582c0.40536 0.02256 0.85829 0.18207 1.2461 0.49609l0.57812 0.4668-0.50391 0.79492c-0.54322 0.85795-0.84961 0.80712-0.84961-0.14453-2e-6 -0.51189-0.07023-0.55966-0.48828-0.33594-0.7349 0.3933-0.95249 0.32023-1.082-0.35742-0.11836-0.61919 0.42402-0.95748 1.0996-0.91992zm-22.518 1.5898c0.38828-0.02738 0.74888 0.21259 0.99805 0.70508 0.38609 0.76311 0.41842 2.374 0.0625 3.0391-0.31715 0.5926-0.74805 0.63689-0.74805 0.078125 0-0.22421-0.33821-0.79608-0.75391-1.2695-0.87667-0.99848-0.95075-1.5962-0.27148-2.2109 0.236-0.21358 0.47992-0.32536 0.71289-0.3418zm21.432 0.1582 0.58984 0.082031c0.32422 0.04592 0.70152 0.33958 0.83789 0.65039 0.16822 0.38342 0.39151 0.51962 0.69336 0.42383 0.4672-0.14828 0.54488 0.12113 0.29883 1.0371-0.0763 0.284-0.35872 0.6567-0.62695 0.82422-0.42607 0.26608-0.48633 0.23362-0.48633-0.24414 0-0.30078-0.29543-1.0478-0.6543-1.6602l-0.65234-1.1133zm-18.623 2.3105c1.2598 0 1.6153 0.89492 0.90039 2.2773-0.48949 0.94659-0.79173 0.94151-1.002-0.015625-0.0916-0.41712-0.32731-0.91715-0.52344-1.1133-0.51538-0.51538-0.17106-1.1484 0.625-1.1484z" fill="#377059" stroke-width=".25194"/>
 </g>
</svg>
