<?xml version="1.0" encoding="UTF-8"?>
<!-- Created with Inkscape (http://www.inkscape.org/) -->
<svg id="SVGRoot" width="48px" height="48px" version="1.1" viewBox="0 0 48 48" xmlns="http://www.w3.org/2000/svg" xmlns:cc="http://creativecommons.org/ns#" xmlns:dc="http://purl.org/dc/elements/1.1/" xmlns:rdf="http://www.w3.org/1999/02/22-rdf-syntax-ns#">
 <defs id="defs815">
  <style id="style819">.cls-1{fill:none;stroke:#fff;stroke-linecap:round;stroke-linejoin:round;}</style>
 </defs>
 <metadata id="metadata818">
  <rdf:RDF>
   <cc:Work rdf:about="">
    <dc:format>image/svg+xml</dc:format>
    <dc:type rdf:resource="http://purl.org/dc/dcmitype/StillImage"/>
    <dc:title/>
   </cc:Work>
  </rdf:RDF>
 </metadata>
 <g id="layer1" fill-rule="evenodd">
  <rect id="rect1373-5" x="4" y="4" width="40" height="40" ry="8" fill="#b8e39b" style="paint-order:stroke fill markers"/>
  <path id="rect817" d="m12 4c-4.432 0-8 3.568-8 8v24c0 4.432 3.568 8 8 8h24c4.432 0 8-3.568 8-8v-24c0-4.432-3.568-8-8-8h-24zm0 1h24c3.878 0 7 3.122 7 7v24c0 3.878-3.122 7-7 7h-24c-3.878 0-7-3.122-7-7v-24c0-3.878 3.122-7 7-7z" opacity=".3" style="paint-order:stroke fill markers"/>
  <path id="rect817-6" d="m24 10c-7.756 0-14 6.244-14 14s6.244 14 14 14c3.1528 0 6.0456-1.0453 8.3809-2.791l-5.7969-5.7969c-0.78257 0.37268-1.6564 0.58789-2.584 0.58789-3.324 0-6-2.676-6-6s2.676-6 6-6c0.92756 0 1.8014 0.21521 2.584 0.58789l5.7969-5.7969c-2.3353-1.7457-5.228-2.791-8.3809-2.791zm11.209 5.6191-5.7969 5.7969c0.37268 0.78257 0.58789 1.6564 0.58789 2.584s-0.21521 1.8014-0.58789 2.584l5.7969 5.7969c1.7457-2.3353 2.791-5.228 2.791-8.3809s-1.0453-6.0456-2.791-8.3809z" fill="#388359" style="paint-order:normal"/>
  <rect id="rect821" x="20" y="20" width="8" height="8" ry="4" fill="#388359" style="paint-order:normal"/>
 </g>
</svg>
