<?xml version="1.0" encoding="UTF-8"?>
<!-- Created with Inkscape (http://www.inkscape.org/) -->
<svg id="SVGRoot" width="48px" height="48px" version="1.1" viewBox="0 0 48 48" xml:space="preserve" xmlns="http://www.w3.org/2000/svg" xmlns:cc="http://creativecommons.org/ns#" xmlns:dc="http://purl.org/dc/elements/1.1/" xmlns:rdf="http://www.w3.org/1999/02/22-rdf-syntax-ns#"><defs><style>.cls-1{fill:none;stroke:#fff;stroke-linecap:round;stroke-linejoin:round;}</style><style>.cls-1{fill:none;stroke:#fff;stroke-linecap:round;stroke-linejoin:round;}</style><style>.cls-1{fill:none;stroke:#fff;stroke-linecap:round;stroke-linejoin:round;}</style><style>.cls-1{fill:none;stroke:#fff;stroke-linecap:round;stroke-linejoin:round;}</style><style>.cls-1{fill:none;stroke:#fff;stroke-linecap:round;stroke-linejoin:round;}</style></defs><metadata><rdf:RDF><cc:Work rdf:about=""><dc:format>image/svg+xml</dc:format><dc:type rdf:resource="http://purl.org/dc/dcmitype/StillImage"/></cc:Work></rdf:RDF></metadata><rect x="4" y="4" width="40" height="40" ry="8" fill="#efefef" fill-rule="evenodd" style="paint-order:stroke fill markers"/><path d="m29.662 6-0.66211 7-20 28-0.080078 0.15625c0.89924 0.53663 1.9526 0.84375 3.0801 0.84375h24c3.324 0 6-2.676 6-6v-24c0-3.324-2.676-6-6-6h-6.3379z" opacity=".15" stroke-linecap="round" stroke-width="2"/><path d="m12 4c-4.432 0-8 3.568-8 8v24c0 4.432 3.568 8 8 8h24c4.432 0 8-3.568 8-8v-24c0-4.432-3.568-8-8-8zm0 1h24c3.878 0 7 3.122 7 7v24c0 3.878-3.122 7-7 7h-24c-3.878 0-7-3.122-7-7v-24c0-3.878 3.122-7 7-7z" fill-rule="evenodd" opacity=".3" style="paint-order:stroke fill markers"/><g stroke-linecap="round"><path d="m4.9491 40.547c-0.10894-1.3195 1.6384-2.0882 2.3255-3.2199 2.1359-3.5181 2.7128-2.5622 3.8161-4.0547 2.1993-2.9751 6.3205-5.605 6.3205-5.605l-3.518 0.89441 4.7702-3.8161h-1.6099s10.488-14.798 12.283-14.728c2.4228 0.09405 1.8484 13.237 1.8484 13.237l-0.83478-1.7888s0.49152 2.7714 0.23851 6.1416c-0.22505 2.9978-1.8484 9.123-1.8484 9.123s-0.98449-2.8415-0.47702-7.3342c-1.811 3.4261-2.2195-2.8035-3.2814 2.2624-0.87819 4.1896-3.1188 6.2323-3.9931 7.9339-2.4391 2.4457-5.0087 2.6832-5.0087 2.6832s1.7105-1.7 2.2062-3.995c-2.0826 2.5789-2.9061 4.5114-5.3665 4.7702-2.7381 0.28797-7.7238-0.7245-7.8708-2.5043z" fill="#4e4e4e" stroke-width="2"/><path d="m23.553 27.548 1.9677-4.6509 1.4795-2.8969s1.7206 7.56 1.1441 10.947c-1.1273 6.6219-6.3205 8.2882-6.3205 8.2882s3.1751-3.7645 2.9217-8.0497c-0.07532-1.2737-1.1925-3.6373-1.1925-3.6373z" fill="#4fb47b" stroke-width="2"/><path d="m29.293 10.018c-1.9143 0.15957-12.24 14.729-12.24 14.729h1.6113l-4.7715 3.8145 3.5195-0.89258s-4.1229 2.6284-6.3223 5.6035c-1.1033 1.4925-1.6786 0.53663-3.8145 4.0547-0.68708 1.1317-2.4351 1.9013-2.3262 3.2207 0.14696 1.7798 5.133 2.7919 7.8711 2.5039 2.4604-0.25876 3.2827-2.1906 5.3652-4.7695-0.49576 2.2951-2.2051 3.9941-2.2051 3.9941s2.5688-0.23794 5.0078-2.6836c0.78718-1.5319 2.6826-3.3395 3.6934-6.7422-0.46652 3.5502-2.8574 6.3848-2.8574 6.3848s5.1773-1.6611 6.3145-8.2598c-0.15646 3.5694 0.60156 5.7559 0.60156 5.7559s1.6226-6.1252 1.8477-9.123c0.25301-3.3702-0.23828-6.1406-0.23828-6.1406l0.83594 1.7871s0.57318-13.142-1.8496-13.236c-0.01402-5.44e-4 -0.027899-0.0013-0.042969 0zm-0.042969 1.1074c0.12769 0.21926 0.29192 0.66067 0.42188 1.2246 0.26127 1.1338 0.41974 2.7509 0.49805 4.3691 0.09291 1.92 0.034605 2.6021 0.009766 3.8516a1.0001 1.0001 0 0 0-0.81445 1.0703s0.46732 2.6596 0.22461 5.8926c-0.06211 0.82727-0.35856 2.1265-0.59375 3.3184a1.0001 1.0001 0 0 0-1.8438-0.046874c-0.37685 2.1867-1.2266 3.6028-2.1328 4.7285 0.26527-0.73079 0.48099-1.5258 0.60742-2.3691 0.0036-0.012169 0.010042-0.017086 0.013672-0.029296l-0.005859-0.001954c8e-3 -0.054299 0.031882-0.09767 0.039062-0.15234a1.0001 1.0001 0 0 0-1.9512-0.41602c-0.9023 3.0374-2.5131 4.6045-3.4746 6.3398-0.66554 0.66126-1.2195 0.87871-1.8184 1.2227 0.26175-0.54902 0.58769-0.96474 0.73242-1.6348a1.0001 1.0001 0 0 0-1.7539-0.83984c-1.0775 1.3344-1.8164 2.4668-2.498 3.2051s-1.211 1.0957-2.1953 1.1992c-1.1851 0.12463-3.0592-0.04311-4.5371-0.44727-0.73897-0.20208-1.3846-0.46618-1.7812-0.7207-0.37186-0.23862-0.44429-0.41105-0.45117-0.42383-0.017067-0.20671 0.1168-0.44252 0.56836-0.88477s1.1306-0.9329 1.6172-1.7344c1.0264-1.6906 1.5743-2.1787 2.0156-2.4902 0.44135-0.31156 1.0863-0.59513 1.748-1.4902 2.0116-2.7211 6.0547-5.3535 6.0547-5.3535a1.0001 1.0001 0 0 0-0.37695-1.6133l1.7168-1.3711a1.0001 1.0001 0 0 0-0.38086-1.6074c0.7316-1.0226 2.0765-2.9287 4.3398-5.8672 1.4026-1.821 2.8646-3.6469 4.0723-5.002 0.60384-0.67754 1.1454-1.2386 1.5605-1.6074 0.26084-0.23175 0.3486-0.28093 0.36719-0.30859 5.1e-4 -9.82e-4 0.00161-0.004904 0.001953-0.00586 1.87e-4 -9.46e-4 -4.1e-5 -0.002951 0-0.003906z" opacity=".4" stop-color="#000000" stroke-linejoin="round"/><path d="m7.168 40.765s6.4625-3.426 9.5277-6.1212c3.4668-3.0483 6.0832-7.093 8.0497-11.27 2.2078-4.6889 3.7059-9.8584 4.0998-15.026 0.11245-1.4751-0.22404-4.4124-0.22404-4.4124l0.37888-1.9354s0.97982 4.2432 0.85882 6.3478c-0.30548 5.3135-1.9161 10.617-4.1594 15.443-2.0082 4.3205-4.5263 8.6882-8.2286 11.687-3.259 2.6398-10.303 5.2864-10.303 5.2864z" fill="#939fa3" stroke-width="2"/></g></svg>
