<?xml version="1.0" encoding="UTF-8"?>
<!-- Created with Inkscape (http://www.inkscape.org/) -->
<svg id="SVGRoot" width="48px" height="48px" version="1.1" viewBox="0 0 48 48" xmlns="http://www.w3.org/2000/svg" xmlns:cc="http://creativecommons.org/ns#" xmlns:dc="http://purl.org/dc/elements/1.1/" xmlns:rdf="http://www.w3.org/1999/02/22-rdf-syntax-ns#">
 <defs>
  <style>.cls-1{fill:none;stroke:#fff;stroke-linecap:round;stroke-linejoin:round;}</style>
 </defs>
 <metadata>
  <rdf:RDF>
   <cc:Work rdf:about="">
    <dc:format>image/svg+xml</dc:format>
    <dc:type rdf:resource="http://purl.org/dc/dcmitype/StillImage"/>
   </cc:Work>
  </rdf:RDF>
 </metadata>
 <path d="m14 4-10 24v8c0 4.432 3.568 8 8 8h24c4.432 0 8-3.568 8-8v-8l-10-24h-20z" fill="#ffc35a" fill-rule="evenodd" style="paint-order:stroke fill markers"/>
 <path d="m13 31-6.2188 9.6738c1.2799 1.4291 3.1405 2.3262 5.2188 2.3262h24c2.0782 0 3.9389-0.89709 5.2188-2.3262l-6.2188-9.6738-11 6z" opacity=".1"/>
 <path d="m34 4v14c0 10 10 10 10 10v-16c0-4.432-3.568-8-8-8h-2z" fill="#f7e6ff" fill-rule="evenodd" style="paint-order:stroke fill markers"/>
 <path d="m12 4c-4.432 0-8 3.568-8 8v16s10 0 10-10v-14h-2z" fill="#f7e6ff" stroke-linecap="round" stroke-linejoin="round" stroke-width="2"/>
 <path d="m5 14v4h5.084c1.0613 0 1.916-0.85473 1.916-1.916v-0.16797c0-1.0613-0.85473-1.916-1.916-1.916h-5.084zm32.916 0c-1.0613 0-1.916 0.85473-1.916 1.916v0.16797c0 1.0613 0.85473 1.916 1.916 1.916h5.084v-4h-5.084z" opacity=".6" stroke-linecap="round" stroke-linejoin="round" stroke-width="2"/>
 <path d="m17 4c0 1.662 1.338 3 3 3s3-1.338 3-3h-6zm8 0c0 1.662 1.338 3 3 3s3-1.338 3-3h-6zm-1 4c-1.662 0-3 1.338-3 3s1.338 3 3 3 3-1.338 3-3-1.338-3-3-3z" fill="#b677d3"/>
 <path d="m12 4c-4.432 0-8 3.568-8 8v24c0 4.432 3.568 8 8 8h24c4.432 0 8-3.568 8-8v-24c0-4.432-3.568-8-8-8zm0 1h24c3.878 0 7 3.122 7 7v24c0 3.878-3.122 7-7 7h-24c-3.878 0-7-3.122-7-7v-24c0-3.878 3.122-7 7-7z" fill-rule="evenodd" opacity=".3" style="paint-order:stroke fill markers"/>
 <g stroke-linecap="round">
  <path d="m14.047 30.002a1.0001 1.0001 0 0 0-0.51953 0.11719 1.0001 1.0001 0 0 0-0.52734 0.88086s0.0023 6.6746-4.8145 13.418a1.0001 1.0001 0 0 0 1.0566 1.5527c8.5516-2.1379 11.693-10.619 11.693-10.619a1.0001 1.0001 0 0 0-0.38086-1.1836l-6-4a1.0001 1.0001 0 0 0-0.50781-0.16602zm19.906 0a1.0001 1.0001 0 0 0-0.50781 0.16602l-6 4a1.0001 1.0001 0 0 0-0.38086 1.1836s3.1417 8.4812 11.693 10.619a1.0001 1.0001 0 0 0 1.0566-1.5527c-4.8167-6.7434-4.8145-13.418-4.8145-13.418a1.0001 1.0001 0 0 0-0.52734-0.88086 1.0001 1.0001 0 0 0-0.51953-0.11719z" fill="#ffc35a" stop-color="#000000" stroke-linejoin="round"/>
  <path d="m13.812 30.018a1.0001 1.0001 0 0 0-0.28516 0.10156 1.0001 1.0001 0 0 0-0.52734 0.88086s0.0023 6.6746-4.8145 13.418a1.0001 1.0001 0 0 0 1.0566 1.5527c6.8587-1.7147 10.238-7.509 11.307-9.7363l-0.80273-0.64258c-0.86941 1.8827-4.0603 7.7368-10.746 9.4082 4.9982-6.9975 5-14 5-14l-0.1875-0.98242zm20.471 0.023438-0.2832 0.95898s0.001757 7.0025 5 14c-6.6858-1.6715-9.8767-7.5255-10.746-9.4082l-0.80273 0.64258c1.069 2.2273 4.448 8.0217 11.307 9.7363a1.0001 1.0001 0 0 0 1.0566-1.5527c-4.8167-6.7434-4.8145-13.418-4.8145-13.418a1.0001 1.0001 0 0 0-0.52734-0.88086 1.0001 1.0001 0 0 0-0.18945-0.078125z" opacity=".3" stop-color="#000000"/>
  <path d="m18.043 32a1.0001 1.0001 0 0 0-1.0234 1.1953s0.96079 4.7349-0.98047 11.529a1.0001 1.0001 0 0 0 1.457 1.1445c3.6346-2.0769 5.5417-4.725 6.5039-6.877 0.96219 2.1519 2.8693 4.8 6.5039 6.877a1.0001 1.0001 0 0 0 1.457-1.1445c-1.9413-6.7944-0.98047-11.529-0.98047-11.529a1.0001 1.0001 0 0 0-1.2969-1.1445l-5.6836 1.8945-5.6836-1.8945a1.0001 1.0001 0 0 0-0.27344-0.050781z" fill="#ffc35a" stop-color="#000000" stroke-linejoin="round"/>
  <path d="m17.547 32.107a1.0001 1.0001 0 0 0-0.52734 1.0879s0.96079 4.7349-0.98047 11.529a1.0001 1.0001 0 0 0 1.457 1.1445c3.6346-2.0769 5.5417-4.725 6.5039-6.877 0.96219 2.1519 2.8693 4.8 6.5039 6.877a1.0001 1.0001 0 0 0 1.457-1.1445c-1.9413-6.7944-0.98047-11.529-0.98047-11.529a1.0001 1.0001 0 0 0-0.48242-1.0625l-0.49805 0.86719c-0.0011 0.0058-0.99776 5.0078 1 12-3.4475-1.97-5.2019-4.4345-6.0879-6.416l-0.91211-2.041-0.91211 2.041c-0.88599 1.9815-2.6404 4.446-6.0879 6.416 1.9978-6.9922 1.0011-11.994 1-12l-0.45312-0.89258z" opacity=".3" stop-color="#000000"/>
 </g>
</svg>
