<?xml version="1.0" encoding="UTF-8"?>
<!-- Created with Inkscape (http://www.inkscape.org/) -->
<svg id="SVGRoot" width="48px" height="48px" version="1.1" viewBox="0 0 48 48" xmlns="http://www.w3.org/2000/svg" xmlns:cc="http://creativecommons.org/ns#" xmlns:dc="http://purl.org/dc/elements/1.1/" xmlns:rdf="http://www.w3.org/1999/02/22-rdf-syntax-ns#" xmlns:xlink="http://www.w3.org/1999/xlink">
 <defs id="defs815">
  <style id="style819">.cls-1{fill:none;stroke:#fff;stroke-linecap:round;stroke-linejoin:round;}</style>
  <style id="style819-3">.cls-1{fill:none;stroke:#fff;stroke-linecap:round;stroke-linejoin:round;}</style>
  <style id="style819-1">.cls-1{fill:none;stroke:#fff;stroke-linecap:round;stroke-linejoin:round;}</style>
  <style id="style2">.a{fill:none;stroke:#b1b5bd;stroke-linecap:round;stroke-linejoin:round;isolation:isolate;opacity:0.63;}</style>
  <style id="style819-12">.cls-1{fill:none;stroke:#fff;stroke-linecap:round;stroke-linejoin:round;}</style>
  <style id="style819-0">.cls-1{fill:none;stroke:#fff;stroke-linecap:round;stroke-linejoin:round;}</style>
  <style id="style819-3-4">.cls-1{fill:none;stroke:#fff;stroke-linecap:round;stroke-linejoin:round;}</style>
  <style id="style819-1-7">.cls-1{fill:none;stroke:#fff;stroke-linecap:round;stroke-linejoin:round;}</style>
  <style id="style2-3">.a{fill:none;stroke:#b1b5bd;stroke-linecap:round;stroke-linejoin:round;isolation:isolate;opacity:0.63;}</style>
  <style id="style819-12-9">.cls-1{fill:none;stroke:#fff;stroke-linecap:round;stroke-linejoin:round;}</style>
  <style id="style819-09">.cls-1{fill:none;stroke:#fff;stroke-linecap:round;stroke-linejoin:round;}</style>
  <style id="style819-5">.cls-1{fill:none;stroke:#fff;stroke-linecap:round;stroke-linejoin:round;}</style>
 </defs>
 <metadata id="metadata818">
  <rdf:RDF>
   <cc:Work rdf:about="">
    <dc:format>image/svg+xml</dc:format>
    <dc:type rdf:resource="http://purl.org/dc/dcmitype/StillImage"/>
    <dc:title/>
   </cc:Work>
  </rdf:RDF>
 </metadata>
 <g id="layer1">
  <rect id="rect1373-5" x="4" y="4" width="40" height="40" ry="8" fill="#4cc5a0" fill-rule="evenodd" style="paint-order:stroke fill markers"/>
  <path id="rect895-5-0" d="m24 44v-20h-20v12c0 4.432 3.568 8 8 8z" fill="#c0f46f" fill-rule="evenodd" style="paint-order:stroke fill markers"/>
  <path id="path945-5" d="m24 24-17.662 17.662c1.446 1.446 3.4461 2.3379 5.6621 2.3379h12v-20z" fill="#f4cc6f"/>
  <path id="path945" d="m6.3379 6.3379c-1.446 1.446-2.3379 3.4461-2.3379 5.6621v12h20l-17.662-17.662z" fill="#71d567"/>
  <path id="rect895-5" d="m24 44v-20h20v12c0 4.432-3.568 8-8 8z" fill="#f09d55" fill-rule="evenodd" style="paint-order:stroke fill markers"/>
  <path id="path945-6-5" d="m24 24 17.662 17.662c1.446-1.446 2.3379-3.4461 2.3379-5.6621v-12h-20z" fill="#f97263"/>
  <path id="rect895" d="m24 4v20h20v-12c0-4.432-3.568-8-8-8z" fill="#4ca0c5" fill-rule="evenodd" style="paint-order:stroke fill markers"/>
  <path id="path945-6" d="m41.662 6.3379-17.662 17.662h20v-12c0-2.216-0.89189-4.2161-2.3379-5.6621z" fill="#6761bf"/>
  <path id="rect817" d="m12 4c-4.432 0-8 3.568-8 8v24c0 4.432 3.568 8 8 8h24c4.432 0 8-3.568 8-8v-24c0-4.432-3.568-8-8-8h-24zm0 1h24c3.878 0 7 3.122 7 7v24c0 3.878-3.122 7-7 7h-24c-3.878 0-7-3.122-7-7v-24c0-3.878 3.122-7 7-7z" fill-rule="evenodd" opacity=".3" style="paint-order:stroke fill markers"/>
  <rect id="rect893" x="8" y="8" width="32" height="32" ry="5" fill="#4e4e4e" fill-rule="evenodd" style="paint-order:stroke fill markers"/>
  <path id="rect1020" d="m24 14c-2.216 0-4 1.784-4 4 0 2 2 4 4 6 2-2 4-4 4-6 0-2.216-1.784-4-4-4z" fill="#4ca0c5" fill-rule="evenodd" style="paint-order:stroke fill markers"/>
  <path id="rect1020-6" d="m33.66 31c1.108-1.9191 0.45501-4.3561-1.4641-5.4641-1.7321-1-4.4641-0.26795-7.1962 0.4641 0.73205 2.7321 1.4641 5.4641 3.1962 6.4641 1.9191 1.108 4.3561 0.45501 5.4641-1.4641z" fill="#f97263" fill-rule="evenodd" style="paint-order:stroke fill markers"/>
  <path id="rect1020-6-0" d="m14.34 31c-1.108-1.9191-0.45501-4.3561 1.4641-5.4641 1.7321-1 4.4641-0.26795 7.1962 0.4641-0.73205 2.7321-1.4641 5.4641-3.1962 6.4641-1.9191 1.108-4.3561 0.45501-5.4641-1.4641z" fill="#c0f46f" fill-rule="evenodd" style="paint-order:stroke fill markers"/>
 </g>
</svg>
