<?xml version="1.0" encoding="UTF-8"?>
<!-- Created with Inkscape (http://www.inkscape.org/) -->
<svg id="SVGRoot" width="48px" height="48px" version="1.1" viewBox="0 0 48 48" xmlns="http://www.w3.org/2000/svg" xmlns:cc="http://creativecommons.org/ns#" xmlns:dc="http://purl.org/dc/elements/1.1/" xmlns:rdf="http://www.w3.org/1999/02/22-rdf-syntax-ns#">
 <defs id="defs815">
  <style id="style819">.cls-1{fill:none;stroke:#fff;stroke-linecap:round;stroke-linejoin:round;}</style>
 </defs>
 <metadata id="metadata818">
  <rdf:RDF>
   <cc:Work rdf:about="">
    <dc:format>image/svg+xml</dc:format>
    <dc:type rdf:resource="http://purl.org/dc/dcmitype/StillImage"/>
    <dc:title/>
   </cc:Work>
  </rdf:RDF>
 </metadata>
 <g id="layer1" fill-rule="evenodd">
  <rect id="rect1373-5" x="4" y="4" width="40" height="40" ry="8" fill="#efefef" style="paint-order:stroke fill markers"/>
  <path id="rect817" d="m12 4c-4.432 0-8 3.568-8 8v24c0 4.432 3.568 8 8 8h24c4.432 0 8-3.568 8-8v-24c0-4.432-3.568-8-8-8h-24zm0 1h24c3.878 0 7 3.122 7 7v24c0 3.878-3.122 7-7 7h-24c-3.878 0-7-3.122-7-7v-24c0-3.878 3.122-7 7-7z" opacity=".3" style="paint-order:stroke fill markers"/>
  <rect id="rect828" x="10" y="10" width="16" height="16" ry="8" fill="#dfef54" style="paint-order:stroke fill markers"/>
  <path id="rect948" d="m18 24.975c-3.878 0-7-3.122-7-7 0-3.705 2.8523-6.7129 6.4883-6.9746-2.5274 0.25514-4.4883 2.3777-4.4883 4.9746 0 2.77 2.23 5 5 5s5-2.23 5-5c0-2.5969-1.9609-4.7195-4.4883-4.9746 3.636 0.26167 6.4883 3.2696 6.4883 6.9746 0 3.878-3.122 7-7 7z" fill="#fff" opacity=".4" style="paint-order:stroke fill markers"/>
  <path id="rect851" d="m18 10c-4.432 0-8 3.568-8 8s3.568 8 8 8 8-3.568 8-8-3.568-8-8-8zm0 1c3.878 0 7 3.122 7 7s-3.122 7-7 7-7-3.122-7-7 3.122-7 7-7z" opacity=".25" style="paint-order:stroke fill markers"/>
  <rect id="rect828-0" x="22" y="14" width="16" height="16" ry="8" fill="#4e4e4e" style="paint-order:stroke fill markers"/>
  <path id="rect948-8" d="m30 28.975c-3.878 0-7-3.122-7-7 0-3.705 2.8523-6.7129 6.4883-6.9746-2.5274 0.25514-4.4883 2.3777-4.4883 4.9746 0 2.77 2.23 5 5 5s5-2.23 5-5c0-2.5969-1.9609-4.7195-4.4883-4.9746 3.636 0.26167 6.4883 3.2696 6.4883 6.9746 0 3.878-3.122 7-7 7z" fill="#fff" opacity=".25" style="paint-order:stroke fill markers"/>
  <path id="rect851-8" d="m30 14c-4.432 0-8 3.568-8 8s3.568 8 8 8 8-3.568 8-8-3.568-8-8-8zm0 1c3.878 0 7 3.122 7 7s-3.122 7-7 7-7-3.122-7-7 3.122-7 7-7z" opacity=".4" style="paint-order:stroke fill markers"/>
  <rect id="rect828-1" x="14" y="22" width="16" height="16" ry="8" fill="#dfef54" style="paint-order:stroke fill markers"/>
  <path id="rect948-4" d="m22 36.975c-3.878 0-7-3.122-7-7 0-3.705 2.8523-6.7129 6.4883-6.9746-2.5274 0.25514-4.4883 2.3777-4.4883 4.9746 0 2.77 2.23 5 5 5s5-2.23 5-5c0-2.5969-1.9609-4.7195-4.4883-4.9746 3.636 0.26167 6.4883 3.2696 6.4883 6.9746 0 3.878-3.122 7-7 7z" fill="#fff" opacity=".4" style="paint-order:stroke fill markers"/>
  <path id="rect851-7" d="m22 22c-4.432 0-8 3.568-8 8s3.568 8 8 8 8-3.568 8-8-3.568-8-8-8zm0 1c3.878 0 7 3.122 7 7s-3.122 7-7 7-7-3.122-7-7 3.122-7 7-7z" opacity=".25" style="paint-order:stroke fill markers"/>
  <rect id="rect940" x="26" y="17" width="8" height="5" rx="4" ry="2.5" fill="#fff" opacity=".4" style="paint-order:stroke fill markers"/>
  <rect id="rect942" x="18" y="25" width="8" height="5" rx="4" ry="2.5" fill="#fff" opacity=".6" style="paint-order:stroke fill markers"/>
  <rect id="rect944" x="14" y="13" width="8" height="5" rx="4" ry="2.5" fill="#fff" opacity=".6" style="paint-order:stroke fill markers"/>
 </g>
</svg>
