<?xml version="1.0" encoding="UTF-8"?>
<!-- Created with Inkscape (http://www.inkscape.org/) -->
<svg id="SVGRoot" width="48px" height="48px" version="1.1" viewBox="0 0 48 48" xmlns="http://www.w3.org/2000/svg" xmlns:cc="http://creativecommons.org/ns#" xmlns:dc="http://purl.org/dc/elements/1.1/" xmlns:rdf="http://www.w3.org/1999/02/22-rdf-syntax-ns#">
 <defs id="defs815">
  <style id="style819">.cls-1{fill:none;stroke:#fff;stroke-linecap:round;stroke-linejoin:round;}</style>
 </defs>
 <metadata id="metadata818">
  <rdf:RDF>
   <cc:Work rdf:about="">
    <dc:format>image/svg+xml</dc:format>
    <dc:type rdf:resource="http://purl.org/dc/dcmitype/StillImage"/>
    <dc:title/>
   </cc:Work>
  </rdf:RDF>
 </metadata>
 <g id="layer1">
  <path id="rect857" d="m4 34v2c0 4.432 3.568 8 8 8h12v-10h-20z" fill="#71b9e3" fill-rule="evenodd" style="paint-order:stroke fill markers"/>
  <path id="rect818" d="m12 4c-4.432 0-8 3.568-8 8v2h20v-10h-12z" fill="#8e58b5" fill-rule="evenodd" style="paint-order:stroke fill markers"/>
  <path id="rect1373-5" d="m24 4v10h20v-2c0-4.432-3.568-8-8-8h-12z" fill="#ffdd75" fill-rule="evenodd" style="paint-order:stroke fill markers"/>
  <rect id="rect820" x="4" y="14" width="10" height="10" fill="#c184ed" fill-rule="evenodd" style="paint-order:stroke fill markers"/>
  <path id="rect823" d="m24 24v20h12c4.432 0 8-3.568 8-8v-12h-20z" fill="#d35244" fill-rule="evenodd" style="paint-order:stroke fill markers"/>
  <rect id="rect825" x="24" y="34" width="10" height="10" fill="#f97263" fill-rule="evenodd" style="paint-order:stroke fill markers"/>
  <rect id="rect827" x="14" y="14" width="10" height="10" fill="#729dec" fill-rule="evenodd" style="paint-order:stroke fill markers"/>
  <path id="path829" d="m14 14 10 10v-10z" fill="#46589d"/>
  <rect id="rect827-6" transform="scale(1,-1)" x="24" y="-24" width="10" height="10" fill="#4fb47b" fill-rule="evenodd" style="paint-order:stroke fill markers"/>
  <path id="path829-8" d="m24 24 10-10v10z" fill="#96d56b"/>
  <rect id="rect851" x="4" y="24" width="20" height="10" fill="#cfe0f6" fill-rule="evenodd" style="paint-order:stroke fill markers"/>
  <path id="path849" d="m14 24-10 10v-10z" fill="#d4a7f7"/>
  <path id="path853" d="m24 44 20-20h-20z" fill="#f68d59"/>
  <path id="path855" d="m24 44 10-10h-10z" fill="#f6a559"/>
  <rect id="rect859" x="34" y="14" width="10" height="10" fill="#c7e45f" fill-rule="evenodd" style="paint-order:stroke fill markers"/>
  <path id="path863" d="m24 4 10 10h-10z" fill="#f6a559"/>
  <path id="rect817" d="m12 4c-4.432 0-8 3.568-8 8v24c0 4.432 3.568 8 8 8h24c4.432 0 8-3.568 8-8v-24c0-4.432-3.568-8-8-8h-24zm0 1h24c3.878 0 7 3.122 7 7v24c0 3.878-3.122 7-7 7h-24c-3.878 0-7-3.122-7-7v-24c0-3.878 3.122-7 7-7z" fill-rule="evenodd" opacity=".3" style="paint-order:stroke fill markers"/>
 </g>
</svg>
