<?xml version="1.0" encoding="UTF-8"?>
<!-- Created with Inkscape (http://www.inkscape.org/) -->
<svg id="SVGRoot" width="48px" height="48px" version="1.1" viewBox="0 0 48 48" xmlns="http://www.w3.org/2000/svg" xmlns:cc="http://creativecommons.org/ns#" xmlns:dc="http://purl.org/dc/elements/1.1/" xmlns:rdf="http://www.w3.org/1999/02/22-rdf-syntax-ns#">
 <defs id="defs815">
  <style id="style819">.cls-1{fill:none;stroke:#fff;stroke-linecap:round;stroke-linejoin:round;}</style>
 </defs>
 <metadata id="metadata818">
  <rdf:RDF>
   <cc:Work rdf:about="">
    <dc:format>image/svg+xml</dc:format>
    <dc:type rdf:resource="http://purl.org/dc/dcmitype/StillImage"/>
    <dc:title/>
   </cc:Work>
  </rdf:RDF>
 </metadata>
 <g id="layer1" fill-rule="evenodd">
  <rect id="rect1373-5" x="4" y="4" width="40" height="40" ry="8" fill="#f6a559" style="paint-order:stroke fill markers"/>
  <rect id="rect818" x="6" y="14" width="22" height="22" ry="11" fill="#8b5628" style="paint-order:stroke fill markers"/>
  <path id="rect833" d="m30 4v4 32 4h6c4.432 0 8-3.568 8-8v-24c0-4.432-3.568-8-8-8h-6z" fill="#8b5628" style="paint-order:stroke fill markers"/>
  <rect id="rect823" x="32" y="12" width="10" height="10" ry="5" fill="#f6a559" style="paint-order:stroke fill markers"/>
  <rect id="rect825" x="32" y="24" width="4" height="4" ry="2" fill="#f6a559" style="paint-order:stroke fill markers"/>
  <rect id="rect827" x="38" y="24" width="4" height="4" ry="2" fill="#f6a559" style="paint-order:stroke fill markers"/>
  <rect id="rect829" x="32" y="30" width="4" height="4" ry="2" fill="#f6a559" style="paint-order:stroke fill markers"/>
  <rect id="rect831" x="38" y="30" width="4" height="4" ry="2" fill="#f6a559" style="paint-order:stroke fill markers"/>
  <rect id="rect837" x="34" y="14" width="2" height="2" ry="1" fill="#8b5628" style="paint-order:stroke fill markers"/>
  <rect id="rect839" x="5" y="16" width="24" height="2" fill="#f6a559" style="paint-order:stroke fill markers"/>
  <rect id="rect839-7" x="5" y="20" width="24" height="2" fill="#f6a559" style="paint-order:stroke fill markers"/>
  <rect id="rect839-9" x="5" y="24" width="24" height="2" fill="#f6a559" style="paint-order:stroke fill markers"/>
  <rect id="rect839-7-9" x="5" y="28" width="24" height="2" fill="#f6a559" style="paint-order:stroke fill markers"/>
  <rect id="rect839-3" x="5" y="32" width="24" height="2" fill="#f6a559" style="paint-order:stroke fill markers"/>
  <path id="rect817" d="m12 4c-4.432 0-8 3.568-8 8v24c0 4.432 3.568 8 8 8h24c4.432 0 8-3.568 8-8v-24c0-4.432-3.568-8-8-8h-24zm0 1h24c3.878 0 7 3.122 7 7v24c0 3.878-3.122 7-7 7h-24c-3.878 0-7-3.122-7-7v-24c0-3.878 3.122-7 7-7z" opacity=".3" style="paint-order:stroke fill markers"/>
 </g>
</svg>
