<?xml version="1.0" encoding="UTF-8"?>
<!-- Created with Inkscape (http://www.inkscape.org/) -->
<svg id="SVGRoot" width="48px" height="48px" version="1.1" viewBox="0 0 48 48" xml:space="preserve" xmlns="http://www.w3.org/2000/svg" xmlns:cc="http://creativecommons.org/ns#" xmlns:dc="http://purl.org/dc/elements/1.1/" xmlns:rdf="http://www.w3.org/1999/02/22-rdf-syntax-ns#"><defs><style>.cls-1{fill:none;stroke:#fff;stroke-linecap:round;stroke-linejoin:round;}</style><style>.cls-1{fill:none;stroke:#fff;stroke-linecap:round;stroke-linejoin:round;}</style><style>.cls-1{fill:none;stroke:#fff;stroke-linecap:round;stroke-linejoin:round;}</style><style>.cls-1{fill:none;stroke:#fff;stroke-linecap:round;stroke-linejoin:round;}</style><style>.cls-1{fill:none;stroke:#fff;stroke-linecap:round;stroke-linejoin:round;}</style><style>.cls-1{fill:none;stroke:#fff;stroke-linecap:round;stroke-linejoin:round;}</style><style>.cls-1{fill:none;stroke:#fff;stroke-linecap:round;stroke-linejoin:round;}</style><style>.cls-1{fill:none;stroke:#fff;stroke-linecap:round;stroke-linejoin:round;}</style></defs><metadata><rdf:RDF><cc:Work rdf:about=""><dc:format>image/svg+xml</dc:format><dc:type rdf:resource="http://purl.org/dc/dcmitype/StillImage"/></cc:Work></rdf:RDF></metadata><rect x="4" y="4" width="40" height="40" ry="8" fill="#efefef" fill-rule="evenodd" style="paint-order:stroke fill markers"/><path d="m12 4c-4.432 0-8 3.568-8 8v24c0 4.432 3.568 8 8 8h24c4.432 0 8-3.568 8-8v-24c0-4.432-3.568-8-8-8zm0 1h24c3.878 0 7 3.122 7 7v24c0 3.878-3.122 7-7 7h-24c-3.878 0-7-3.122-7-7v-24c0-3.878 3.122-7 7-7z" fill-rule="evenodd" opacity=".3" style="paint-order:stroke fill markers"/><path d="m24 6v36h12c3.324 0 6-2.676 6-6v-24c0-3.324-2.676-6-6-6h-12z" opacity=".15" stroke-linecap="round" stroke-linejoin="round" stroke-width="2" style="paint-order:stroke fill markers"/><g fill="#4e4e4e"><path d="m22.967 28.029s-0.99816 1.9963-0.99816 2.9945c0 0.94106 0.99816 1.9963 1.9963 1.9963 0.99816 0 1.9963-1.0553 1.9963-1.9963 0-0.99816-0.96126-3.0237-0.96126-3.0237l-1.0351 1.0274z" stroke-width=".24954"/><path d="m19 36.012a0.49908 0.49908 0 0 0-0.66211 0.24805 0.49908 0.49908 0 0 0 0.25 0.66016s2.4378 1.1149 5.3828 1.0859c2.8051-0.02756 5.1797-1.0273 5.1797-1.0273a0.49908 0.49908 0 0 0 0.26758-0.65234 0.49908 0.49908 0 0 0-0.65234-0.26758s-2.2317 0.92394-4.8047 0.94922c-2.6873 0.026408-4.9609-0.99609-4.9609-0.99609z" stop-color="#000000" stroke-linecap="round" stroke-linejoin="round"/><path d="m20 24s-1.0092-5-6-5c-1.488 0-3.0176 1.044-3.0143 2.0421 0.0033 0.99816 0.019928 2.9579 3.0143 2.9579 1.3718 0 1.9797-0.4625 3.976-0.4625 1.0522 0 2.024 0.4625 2.024 0.4625z" stroke-width=".24954"/><path d="m30.5 17c-0.277 0-0.5 0.223-0.5 0.5v0.5h-0.79297c-0.66885 0-1.207 0.53818-1.207 1.207v3.623c0 0.66885 0.53818 1.207 1.207 1.207h0.79297v0.46289c0 0.277 0.223 0.5 0.5 0.5s0.5-0.223 0.5-0.5v-0.46289h1.5v0.46289c0 0.277 0.223 0.5 0.5 0.5s0.5-0.223 0.5-0.5v-0.46289h1.5v0.46289c0 0.277 0.223 0.5 0.5 0.5s0.5-0.223 0.5-0.5v-0.46289h0.73242c0.66885 0 1.207-0.53818 1.207-1.207v-3.623c0-0.66885-0.53818-1.207-1.207-1.207h-0.73242v-0.5c0-0.277-0.223-0.5-0.5-0.5s-0.5 0.223-0.5 0.5v0.5h-1.5v-0.5c0-0.277-0.223-0.5-0.5-0.5s-0.5 0.223-0.5 0.5v0.5h-1.5v-0.5c0-0.277-0.223-0.5-0.5-0.5z" stroke-width=".28867" style="paint-order:stroke fill markers"/></g><path d="m31 19v4h4v-4zm1 1h2v2h-2z" fill="#fff" style="paint-order:stroke fill markers"/></svg>
