<?xml version="1.0" encoding="UTF-8"?>
<!-- Created with Inkscape (http://www.inkscape.org/) -->
<svg id="SVGRoot" width="48px" height="48px" version="1.1" viewBox="0 0 48 48" xmlns="http://www.w3.org/2000/svg" xmlns:cc="http://creativecommons.org/ns#" xmlns:dc="http://purl.org/dc/elements/1.1/" xmlns:rdf="http://www.w3.org/1999/02/22-rdf-syntax-ns#">
 <defs id="defs815">
  <style id="style819">.cls-1{fill:none;stroke:#fff;stroke-linecap:round;stroke-linejoin:round;}</style>
 </defs>
 <metadata id="metadata818">
  <rdf:RDF>
   <cc:Work rdf:about="">
    <dc:format>image/svg+xml</dc:format>
    <dc:type rdf:resource="http://purl.org/dc/dcmitype/StillImage"/>
    <dc:title/>
   </cc:Work>
  </rdf:RDF>
 </metadata>
 <g id="layer1">
  <rect id="rect1373-5" x="4" y="4" width="40" height="40" ry="8" fill="#cfe0f6" fill-rule="evenodd" style="paint-order:stroke fill markers"/>
  <path id="rect817" d="m12 4c-4.432 0-8 3.568-8 8v24c0 4.432 3.568 8 8 8h24c4.432 0 8-3.568 8-8v-24c0-4.432-3.568-8-8-8h-24zm0 1h24c3.878 0 7 3.122 7 7v24c0 3.878-3.122 7-7 7h-24c-3.878 0-7-3.122-7-7v-24c0-3.878 3.122-7 7-7z" fill-rule="evenodd" opacity=".3" style="paint-order:stroke fill markers"/>
  <path id="rect830" d="m23.969 10s-4.9841 7.3947-7.4761 11.092c-1.3284 1.9709-2.4953 4.1466-2.4953 6.7388 0 5.6447 4.4473 10.189 9.9714 10.189 5.5242 0 9.9714-4.5443 9.9714-10.189 0-2.5922-1.1669-4.7679-2.4953-6.7388-2.492-3.6974-7.4761-11.092-7.4761-11.092z" fill="#46589d" fill-rule="evenodd" style="paint-order:stroke fill markers"/>
  <path id="path835" d="m24 14-6.2632 8.7363s1.2464-1.2773 4.3521-1.2773c2.4929 0 4.3729 2.5509 4.3729 2.5509s-4.3702-1.0854-4.3702 3.8209c0 1.8012 1.361 3.2493 3.1238 3.2493 4.3158 0 6.5839-4.523 6.5839-4.523s-0.36359-1.4791-1.6421-3.8209c-1.7413-3.1893-6.1571-8.7363-6.1571-8.7363z" fill="#729dec"/>
  <path id="path837" d="m23.081 23.433s-1.0108 0.11494-1.9565 0.80186c-0.74338 0.53994-1.3444 1.9059-1.1133 4.2471 0.26744 2.7098 1.2093 3.5624 2.8243 4.2645 1.6149 0.70207 3.8716-0.20774 3.8716-0.20774s-0.74029 1.3887-2.8666 1.6143-5.2969-0.23342-5.8187-5.583c-0.38211-3.9174 1.3327-5.2487 2.5889-5.5434 1.2562-0.29462 2.4704 0.40645 2.4704 0.40645z" fill="#cfe0f6"/>
 </g>
</svg>
