<?xml version="1.0" encoding="UTF-8"?>
<!-- Created with Inkscape (http://www.inkscape.org/) -->
<svg id="SVGRoot" width="48px" height="48px" version="1.1" viewBox="0 0 48 48" xmlns="http://www.w3.org/2000/svg" xmlns:cc="http://creativecommons.org/ns#" xmlns:dc="http://purl.org/dc/elements/1.1/" xmlns:rdf="http://www.w3.org/1999/02/22-rdf-syntax-ns#">
 <defs id="defs815">
  <style id="style819">.cls-1{fill:none;stroke:#fff;stroke-linecap:round;stroke-linejoin:round;}</style>
 </defs>
 <metadata id="metadata818">
  <rdf:RDF>
   <cc:Work rdf:about="">
    <dc:format>image/svg+xml</dc:format>
    <dc:type rdf:resource="http://purl.org/dc/dcmitype/StillImage"/>
    <dc:title/>
   </cc:Work>
  </rdf:RDF>
 </metadata>
 <g id="layer1">
  <rect id="rect1373-5" x="4" y="4" width="40" height="40" ry="8" fill="#729dec" fill-rule="evenodd" style="paint-order:stroke fill markers"/>
  <path id="rect817" d="m12 4c-4.432 0-8 3.568-8 8v24c0 4.432 3.568 8 8 8h24c4.432 0 8-3.568 8-8v-24c0-4.432-3.568-8-8-8h-24zm0 1h24c3.878 0 7 3.122 7 7v24c0 3.878-3.122 7-7 7h-24c-3.878 0-7-3.122-7-7v-24c0-3.878 3.122-7 7-7z" fill-rule="evenodd" opacity=".3" style="paint-order:stroke fill markers"/>
  <path id="path856" d="m41 8s-27.713 0-32 16c-2.7492 10.26 2.2312 15.507 6.3555 18h20.645c0.71949 0 1.4048-0.13309 2.043-0.36328-4.9296-3.1581-12.897-9.0992-13.043-14.637-0.42076-16 16-19 16-19z" fill="#fff" opacity=".4"/>
  <rect id="rect828" transform="rotate(15.114)" x="42.733" y="-3.543" width="4" height="38" ry="1" fill="#4e4e4e" fill-rule="evenodd" style="paint-order:stroke fill markers"/>
  <path id="rect830" d="m43.405 7.0173c-0.53484-0.14445-1.0817 0.16983-1.2262 0.70466l-1.8252 6.7579 3.8616 1.043 1.8252-6.7579c0.14445-0.53484-0.16983-1.0817-0.70466-1.2262z" fill="#efefef" fill-rule="evenodd" style="paint-order:stroke fill markers"/>
  <path id="rect830-6" d="m32.975 45.634c-0.53484-0.14445-0.84912-0.69132-0.70466-1.2262l1.8252-6.7579 3.8616 1.043-1.8252 6.7579c-0.14445 0.53484-0.69132 0.84912-1.2262 0.70466z" fill="#efefef" fill-rule="evenodd" style="paint-order:stroke fill markers"/>
  <path id="rect850" d="m43.405 7.0173c-0.53484-0.14445-1.0817 0.16983-1.2262 0.70466l-9.9083 36.686c-0.14445 0.53484 0.16983 1.0817 0.70466 1.2262l1.9308 0.52149c0.53484 0.14445 1.0817-0.16983 1.2262-0.70466l9.9083-36.686c0.14445-0.53484-0.16983-1.0817-0.70466-1.2262zm0.22196 1.0958 0.96541 0.26074c0.26742 0.072226 0.42456 0.34566 0.35233 0.61308l-9.6475 35.72c-0.07222 0.26742-0.34566 0.42456-0.61308 0.35233l-0.96541-0.26074c-0.26742-0.072223-0.42456-0.34566-0.35233-0.61308l9.6475-35.72c0.072223-0.26742 0.34566-0.42456 0.61308-0.35233z" fill-rule="evenodd" opacity=".25" style="paint-order:stroke fill markers"/>
  <path id="path874" d="m24.984 25.99c-0.32454-0.0018-0.62202 0.18063-0.76758 0.4707l-1.5801 3.1602-3.1602 1.5801c-0.62718 0.31506-0.62718 1.2103 0 1.5254l3.1602 1.5801 1.5801 3.1602c0.31506 0.62718 1.2103 0.62718 1.5254 0l1.5801-3.1602 3.1602-1.5801c0.62718-0.31506 0.62718-1.2103 0-1.5254l-3.1602-1.5801-1.5801-3.1602c-0.14398-0.28693-0.43679-0.4688-0.75781-0.4707z" color="#000000" color-rendering="auto" dominant-baseline="auto" fill="#fff" image-rendering="auto" shape-rendering="auto" solid-color="#000000" style="font-feature-settings:normal;font-variant-alternates:normal;font-variant-caps:normal;font-variant-ligatures:normal;font-variant-numeric:normal;font-variant-position:normal;isolation:auto;mix-blend-mode:normal;shape-padding:0;text-decoration-color:#000000;text-decoration-line:none;text-decoration-style:solid;text-indent:0;text-orientation:mixed;text-transform:none;white-space:normal"/>
  <path id="path895" d="m32.026 15.985a0.57147 0.57148 0 0 0-0.51561 0.31584l-1.058 2.1149-2.1149 1.058a0.57147 0.57148 0 0 0 0 1.0223l2.1149 1.058 1.058 2.1149a0.57147 0.57148 0 0 0 1.0223 0l1.058-2.1149 2.1149-1.058a0.57147 0.57148 0 0 0 0-1.0223l-2.1149-1.058-1.058-2.1149a0.57147 0.57148 0 0 0-0.50669-0.31584z" color="#000000" color-rendering="auto" dominant-baseline="auto" fill="#fff" image-rendering="auto" shape-rendering="auto" solid-color="#000000" style="font-feature-settings:normal;font-variant-alternates:normal;font-variant-caps:normal;font-variant-ligatures:normal;font-variant-numeric:normal;font-variant-position:normal;isolation:auto;mix-blend-mode:normal;shape-padding:0;text-decoration-color:#000000;text-decoration-line:none;text-decoration-style:solid;text-indent:0;text-orientation:mixed;text-transform:none;white-space:normal"/>
  <path id="path895-2" d="m17.044 8.0333a1.2858 1.2858 0 0 0-1.1601 0.71065l-2.3805 4.7586-4.7586 2.3806a1.2858 1.2858 0 0 0 0 2.3002l4.7586 2.3806 2.3805 4.7586a1.2858 1.2858 0 0 0 2.3002 0l2.3805-4.7586 4.7586-2.3806a1.2858 1.2858 0 0 0 0-2.3002l-4.7586-2.3806-2.3805-4.7586a1.2858 1.2858 0 0 0-1.14-0.71065z" color="#000000" color-rendering="auto" dominant-baseline="auto" fill="#fff" image-rendering="auto" shape-rendering="auto" solid-color="#000000" style="font-feature-settings:normal;font-variant-alternates:normal;font-variant-caps:normal;font-variant-ligatures:normal;font-variant-numeric:normal;font-variant-position:normal;isolation:auto;mix-blend-mode:normal;shape-padding:0;text-decoration-color:#000000;text-decoration-line:none;text-decoration-style:solid;text-indent:0;text-orientation:mixed;text-transform:none;white-space:normal"/>
 </g>
</svg>
