<?xml version="1.0" encoding="UTF-8"?>
<!-- Created with Inkscape (http://www.inkscape.org/) -->
<svg id="SVGRoot" width="48px" height="48px" version="1.1" viewBox="0 0 48 48" xml:space="preserve" xmlns="http://www.w3.org/2000/svg" xmlns:cc="http://creativecommons.org/ns#" xmlns:dc="http://purl.org/dc/elements/1.1/" xmlns:rdf="http://www.w3.org/1999/02/22-rdf-syntax-ns#"><defs><style>.cls-1{fill:none;stroke:#fff;stroke-linecap:round;stroke-linejoin:round;}</style></defs><metadata><rdf:RDF><cc:Work rdf:about=""><dc:format>image/svg+xml</dc:format><dc:type rdf:resource="http://purl.org/dc/dcmitype/StillImage"/></cc:Work></rdf:RDF></metadata><rect x="4" y="4" width="40" height="40" ry="8" fill="#cceee3" fill-rule="evenodd" style="paint-order:stroke fill markers"/><path d="m12 4c-4.432 0-8 3.568-8 8v24c0 4.432 3.568 8 8 8h24c4.432 0 8-3.568 8-8v-24c0-4.432-3.568-8-8-8zm0 1h24c3.878 0 7 3.122 7 7v24c0 3.878-3.122 7-7 7h-24c-3.878 0-7-3.122-7-7v-24c0-3.878 3.122-7 7-7z" fill-rule="evenodd" opacity=".3" style="paint-order:stroke fill markers"/><g stroke-width=".0017239"><path d="m29.05 35.965c-2.1396-0.23832-3.9733-1.3969-5.8491-2.2902-1.2865-0.59003-2.5611-1.3932-4.0292-1.4881-0.8787-0.05751-1.7787 0.02773-2.541 0.46987-1.1327 0.53754-1.8638 1.5353-2.7856 2.3045-0.97226 0.53961-1.8333-0.53889-1.7895-1.3814-0.11946-1.1732 0.94272-2.0179 1.7386-2.7821 1.4258-1.3102 3.4163-2.2241 5.4615-1.9901 2.4128 0.25184 4.4562 1.5846 6.5713 2.577 1.4547 0.71469 3.1001 1.5565 4.7973 1.091 1.5483-0.39891 2.4076-1.7429 3.4326-2.7728 0.75041-0.61366 1.7888 0.16445 1.8564 0.9559 0.25922 0.98217-0.40948 1.8264-1.0467 2.5373-1.208 1.4593-2.9464 2.6778-4.9896 2.7874-0.27559 0.03287-0.55245 0.01039-0.82698-0.01819z" fill="#36c"/><path d="m28.816 27.587c-2.4102-0.38766-4.4422-1.7547-6.5832-2.7646-1.2447-0.62852-2.6317-1.1858-4.0816-0.99338-1.685 0.17235-2.9283 1.3928-3.9754 2.5204-0.64029 0.7897-1.8238 0.29203-2.0424-0.55686-0.374-0.91104 0.08455-1.8812 0.77701-2.5421 1.5082-1.6539 3.6916-3.0391 6.1255-2.8543 2.7528 0.20292 5.0159 1.8216 7.4269 2.9015 1.2339 0.62001 2.6501 1.155 4.0726 0.82736 1.5094-0.37442 2.4252-1.6385 3.3545-2.7001 0.54375-0.71282 1.6733-0.33661 1.9205 0.41034 0.41072 0.87291 0.08976 1.8716-0.55821 2.566-1.3098 1.7125-3.307 3.2737-5.6917 3.2196-0.24849 0.0028-0.498-0.0026-0.74451-0.03376z" fill="#33b2cc"/><path d="m28.61 19.184c-3.0457-0.51048-5.4264-2.5519-8.2971-3.4924-1.3605-0.38463-2.9257-0.3052-4.1018 0.49469-0.93425 0.52437-1.5576 1.3759-2.3403 2.0522-0.7302 0.47761-1.5799-0.16672-1.7477-0.85704-0.37047-0.94069 0.15076-1.9378 0.87969-2.5977 1.475-1.6255 3.6415-2.9494 6.0197-2.767 2.7804 0.21348 5.0798 1.8349 7.505 2.9527 1.3395 0.67968 2.9821 1.2237 4.4746 0.62267 1.3294-0.50142 2.1206-1.6666 2.9875-2.656 0.69886-0.67165 1.8104 0.03738 1.9306 0.8207 0.25614 0.84773-0.13704 1.6985-0.72899 2.3394-1.2811 1.6645-3.2125 3.1681-5.527 3.166-0.35302 0.0038-0.70618-0.0238-1.0542-0.07816z" fill="#3c9"/></g></svg>
