<?xml version="1.0" encoding="UTF-8"?>
<!-- Created with Inkscape (http://www.inkscape.org/) -->
<svg id="SVGRoot" width="48px" height="48px" version="1.1" viewBox="0 0 48 48" xml:space="preserve" xmlns="http://www.w3.org/2000/svg" xmlns:cc="http://creativecommons.org/ns#" xmlns:dc="http://purl.org/dc/elements/1.1/" xmlns:rdf="http://www.w3.org/1999/02/22-rdf-syntax-ns#"><defs><style>.cls-1{fill:none;stroke:#fff;stroke-linecap:round;stroke-linejoin:round;}</style><style>.a{fill:none;stroke:#b1b5bd;stroke-linecap:round;stroke-linejoin:round;isolation:isolate;opacity:0.63;}</style><style>.cls-1{fill:none;stroke:#fff;stroke-linecap:round;stroke-linejoin:round;}</style><style id="current-color-scheme" type="text/css">.ColorScheme-Text {
        color:#31363b;
      }
      .ColorScheme-Accent {
        color:#3daee9;
      }</style></defs><metadata><rdf:RDF><cc:Work rdf:about=""><dc:format>image/svg+xml</dc:format><dc:type rdf:resource="http://purl.org/dc/dcmitype/StillImage"/></cc:Work></rdf:RDF></metadata><rect x="4" y="4" width="40" height="40" ry="8" fill="#729dec" fill-rule="evenodd" style="paint-order:stroke fill markers"/><path d="m6 34v2c0 3.324 2.676 6 6 6h24c3.324 0 6-2.676 6-6v-2z" fill="#fff" fill-rule="evenodd" opacity=".5" style="paint-order:normal"/><path d="m22 8c-1.662 0-3 1.338-3 3v0.92773l-0.65625-0.65625c-1.1752-1.1752-3.0689-1.1752-4.2441 0l-2.8281 2.8281c-1.1752 1.1752-1.1752 3.0689 0 4.2441l5.6562 5.6562-5.6562 5.6562c-1.1752 1.1752-1.1752 3.0689 0 4.2441l2.8281 2.8281c1.1752 1.1752 3.0689 1.1752 4.2441 0l0.65625-0.65625v0.92773c0 1.662 1.338 3 3 3h4c1.662 0 3-1.338 3-3v-0.92773l0.65625 0.65625c1.1752 1.1752 3.0689 1.1752 4.2441 0l2.8281-2.8281c1.1752-1.1752 1.1752-3.0689 0-4.2441l-5.6562-5.6562 5.6562-5.6562c1.1752-1.1752 1.1752-3.0689 0-4.2441l-2.8281-2.8281c-1.1752-1.1752-3.0689-1.1752-4.2441 0l-0.65625 0.65625v-0.92773c0-1.662-1.338-3-3-3h-4z" fill="#729dec" stroke-linecap="round" stroke-linejoin="round" stroke-width="2"/><g fill-rule="evenodd"><path d="m12 4c-4.432 0-8 3.568-8 8v24c0 4.432 3.568 8 8 8h24c4.432 0 8-3.568 8-8v-24c0-4.432-3.568-8-8-8zm0 1h24c3.878 0 7 3.122 7 7v24c0 3.878-3.122 7-7 7h-24c-3.878 0-7-3.122-7-7v-24c0-3.878 3.122-7 7-7z" opacity=".3" style="paint-order:stroke fill markers"/><rect x="29" y="29" width="5" height="5" ry="2.5" opacity=".25" style="paint-order:normal"/><g fill="#efefef"><rect x="14" y="14" width="20" height="20" ry="10" style="paint-order:stroke fill markers"/><rect x="10" y="21" width="28" height="6" ry="1" style="paint-order:stroke fill markers"/><rect transform="rotate(90)" x="10" y="-27" width="28" height="6" ry="1" style="paint-order:stroke fill markers"/><rect transform="rotate(-45)" x="-14" y="30.941" width="28" height="6" ry="1" style="paint-order:stroke fill markers"/><rect transform="rotate(45)" x="19.941" y="-3" width="28" height="6" ry="1" style="paint-order:stroke fill markers"/></g><rect x="18" y="18" width="12" height="12" ry="6" fill="#729dec" style="paint-order:stroke fill markers"/></g></svg>
