<?xml version="1.0" encoding="UTF-8"?>
<!-- Created with Inkscape (http://www.inkscape.org/) -->
<svg id="SVGRoot" width="48px" height="48px" version="1.1" viewBox="0 0 48 48" xmlns="http://www.w3.org/2000/svg" xmlns:cc="http://creativecommons.org/ns#" xmlns:dc="http://purl.org/dc/elements/1.1/" xmlns:rdf="http://www.w3.org/1999/02/22-rdf-syntax-ns#">
 <defs>
  <style>.cls-1{fill:none;stroke:#fff;stroke-linecap:round;stroke-linejoin:round;}</style>
 </defs>
 <metadata>
  <rdf:RDF>
   <cc:Work rdf:about="">
    <dc:format>image/svg+xml</dc:format>
    <dc:type rdf:resource="http://purl.org/dc/dcmitype/StillImage"/>
   </cc:Work>
  </rdf:RDF>
 </metadata>
 <rect x="4" y="4" width="40" height="40" ry="8" fill="#2DB594" fill-rule="evenodd" style="paint-order:stroke fill markers"/>
 <rect x="8" y="8" width="20" height="32" ry="4" fill="#007C5B" stroke-linecap="round" stroke-linejoin="round" stroke-width="4" style="paint-order:stroke fill markers"/>
 <path d="m12 4c-4.432 0-8 3.568-8 8v24c0 4.432 3.568 8 8 8h24c4.432 0 8-3.568 8-8v-24c0-4.432-3.568-8-8-8zm0 1h24c3.878 0 7 3.122 7 7v24c0 3.878-3.122 7-7 7h-24c-3.878 0-7-3.122-7-7v-24c0-3.878 3.122-7 7-7z" fill-rule="evenodd" opacity=".3" style="paint-order:stroke fill markers"/>
 <g stroke-linecap="round" stroke-linejoin="round" stroke-width="4">
  <path d="m24 8v32h12c2.216 0 4-1.784 4-4v-24c0-2.216-1.784-4-4-4z" fill="#A6FFE8" style="paint-order:stroke fill markers"/>
  <rect x="10" y="16" width="18" height="4" ry="1.8211" fill="#fff" style="paint-order:stroke fill markers"/>
  <rect x="12" y="24" width="20" height="10" ry="5" fill="#fff" style="paint-order:stroke fill markers"/>
  <rect x="14" y="26" width="6" height="6" ry="3" fill="#005a41" style="paint-order:stroke fill markers"/>
  <path d="m24 16v4h12c1.108 0 2-0.892 2-2s-0.892-2-2-2z" fill="#005A41" style="paint-order:stroke fill markers"/>
  <path d="m24 24v10h7c2.77 0 5-2.23 5-5s-2.23-5-5-5h-2z" fill="#005a41" style="paint-order:stroke fill markers"/>
 </g>
</svg>
