<?xml version="1.0" encoding="UTF-8"?>
<!-- Created with Inkscape (http://www.inkscape.org/) -->
<svg id="SVGRoot" width="48px" height="48px" version="1.1" viewBox="0 0 48 48" xmlns="http://www.w3.org/2000/svg" xmlns:cc="http://creativecommons.org/ns#" xmlns:dc="http://purl.org/dc/elements/1.1/" xmlns:rdf="http://www.w3.org/1999/02/22-rdf-syntax-ns#">
 <defs id="defs815">
  <style id="style819">.cls-1{fill:none;stroke:#fff;stroke-linecap:round;stroke-linejoin:round;}</style>
  <style id="style2">.a{fill:none;stroke:#b1b5bd;stroke-linecap:round;stroke-linejoin:round;isolation:isolate;opacity:0.63;}</style>
 </defs>
 <metadata id="metadata818">
  <rdf:RDF>
   <cc:Work rdf:about="">
    <dc:format>image/svg+xml</dc:format>
    <dc:type rdf:resource="http://purl.org/dc/dcmitype/StillImage"/>
    <dc:title/>
   </cc:Work>
  </rdf:RDF>
 </metadata>
 <g id="layer1">
  <rect id="rect1373-5" x="4" y="4" width="40" height="40" ry="8" fill="#c184ed" fill-rule="evenodd" style="paint-order:stroke fill markers"/>
  <path id="rect817" d="m12 4c-4.432 0-8 3.568-8 8v24c0 4.432 3.568 8 8 8h24c4.432 0 8-3.568 8-8v-24c0-4.432-3.568-8-8-8h-24zm0 1h24c3.878 0 7 3.122 7 7v24c0 3.878-3.122 7-7 7h-24c-3.878 0-7-3.122-7-7v-24c0-3.878 3.122-7 7-7z" fill-rule="evenodd" opacity=".3" style="paint-order:stroke fill markers"/>
  <rect id="rect936" x="9" y="9" width="30" height="30" ry="15" fill-rule="evenodd" opacity=".25" style="paint-order:stroke fill markers"/>
  <path id="rect945" d="m24 10c-7.756 0-14 6.244-14 14s6.244 14 14 14 14-6.244 14-14l-14-14z" fill="#efefef" fill-rule="evenodd" style="paint-order:stroke fill markers"/>
  <path id="path860" d="m18.482 11.125c-3.3043 1.4112-5.9463 4.0531-7.3574 7.3574l12.875 5.5176zm5.5176 12.875 5.5176 12.875c3.3043-1.4112 5.9463-4.0531 7.3574-7.3574z" fill="#fff"/>
  <rect id="rect949" x="19" y="19" width="10" height="10" ry="5" fill-rule="evenodd" opacity=".25" style="paint-order:stroke fill markers"/>
  <rect id="rect947" x="20" y="20" width="8" height="8" ry="4" fill="#fff" fill-rule="evenodd" style="paint-order:stroke fill markers"/>
  <rect id="rect822" x="22" y="22" width="4" height="4" ry="2" fill="#c184ed" fill-rule="evenodd" style="paint-order:stroke fill markers"/>
  <path id="rect859" d="m24 10v14h14c0-7.756-6.244-14-14-14z" fill="#c184ed" fill-rule="evenodd" style="paint-order:stroke fill markers"/>
 </g>
</svg>
