<?xml version="1.0" encoding="UTF-8"?>
<!-- Created with Inkscape (http://www.inkscape.org/) -->
<svg id="SVGRoot" width="48px" height="48px" version="1.1" viewBox="0 0 48 48" xml:space="preserve" xmlns="http://www.w3.org/2000/svg" xmlns:cc="http://creativecommons.org/ns#" xmlns:dc="http://purl.org/dc/elements/1.1/" xmlns:rdf="http://www.w3.org/1999/02/22-rdf-syntax-ns#"><defs><style>.cls-1{fill:none;stroke:#fff;stroke-linecap:round;stroke-linejoin:round;}</style><style>.cls-1{fill:none;stroke:#fff;stroke-linecap:round;stroke-linejoin:round;}</style><style>.cls-1{fill:none;stroke:#fff;stroke-linecap:round;stroke-linejoin:round;}</style><style>.cls-1{fill:none;stroke:#fff;stroke-linecap:round;stroke-linejoin:round;}</style><style>.cls-1{fill:none;stroke:#fff;stroke-linecap:round;stroke-linejoin:round;}</style><style>.a{fill:none;stroke:#b1b5bd;stroke-linecap:round;stroke-linejoin:round;isolation:isolate;opacity:0.63;}</style></defs><metadata><rdf:RDF><cc:Work rdf:about=""><dc:format>image/svg+xml</dc:format><dc:type rdf:resource="http://purl.org/dc/dcmitype/StillImage"/></cc:Work></rdf:RDF></metadata><rect x="4" y="4" width="40" height="40" ry="8" fill="#4e4e4e" fill-rule="evenodd" style="paint-order:stroke fill markers"/><path d="m12 6c-3.324 0-6 2.676-6 6v24c0 3.324 2.676 6 6 6h24c3.324 0 6-2.676 6-6v-24c0-3.324-2.676-6-6-6h-24zm0 1h24c2.77 0 5 2.23 5 5v24c0 2.77-2.23 5-5 5h-24c-2.77 0-5-2.23-5-5v-24c0-2.77 2.23-5 5-5z" fill="#fff" opacity=".3"/><path d="m12 7c-1.385 0-2.6353 0.55719-3.5391 1.4609l4.2148 4.2148c2.892-2.892 6.8922-4.6758 11.324-4.6758s8.4322 1.7838 11.324 4.6758l4.2148-4.2148c-0.90375-0.90375-2.1541-1.4609-3.5391-1.4609h-24zm0.67578 28.324-4.2148 4.2148c0.90375 0.90375 2.1541 1.4609 3.5391 1.4609h24c1.385 0 2.6353-0.55719 3.5391-1.4609l-4.2148-4.2148c-2.892 2.892-6.8922 4.6758-11.324 4.6758s-8.4322-1.7838-11.324-4.6758z" fill="#fff" opacity=".1"/><path d="m24 8c-8.864 0-16 7.136-16 16s7.136 16 16 16 16-7.136 16-16-7.136-16-16-16zm0 1c8.31 0 15 6.69 15 15s-6.69 15-15 15-15-6.69-15-15 6.69-15 15-15z" opacity=".3"/><rect x="10" y="10" width="28" height="28" ry="14" fill="#808080"/><g fill-rule="evenodd"><path d="m12 4c-4.432 0-8 3.568-8 8v24c0 4.432 3.568 8 8 8h24c4.432 0 8-3.568 8-8v-24c0-4.432-3.568-8-8-8zm0 1h24c3.878 0 7 3.122 7 7v24c0 3.878-3.122 7-7 7h-24c-3.878 0-7-3.122-7-7v-24c0-3.878 3.122-7 7-7z" opacity=".4" style="paint-order:stroke fill markers"/><rect x="12" y="12" width="24" height="24" ry="12" fill="#4e4e4e" stroke-width="1.2" style="paint-order:stroke fill markers"/><rect x="14.092" y="14.092" width="19.817" height="19.817" ry="9.9085" fill="#71b9e3" stroke-width="1.6514" style="paint-order:stroke fill markers"/><path d="m24 14.092c-5.4893 0-9.9082 4.4189-9.9082 9.9082s4.4189 9.9082 9.9082 9.9082 9.9082-4.4189 9.9082-9.9082-4.4189-9.9082-9.9082-9.9082zm0 0.9082c4.986 0 9 4.014 9 9s-4.014 9-9 9-9-4.014-9-9 4.014-9 9-9z" opacity=".3" stroke-width="1.9817" style="paint-order:stroke fill markers"/></g><path d="m24 17c-3.878 0-7 3.122-7 7s3.122 7 7 7 7-3.122 7-7-3.122-7-7-7zm0 1c3.324 0 6 2.676 6 6s-2.676 6-6 6-6-2.676-6-6 2.676-6 6-6z" opacity=".2"/><path d="m20.5 16c-0.277 0-0.5 0.223-0.5 0.5v8c0 0.094449 0.025159 0.18262 0.070312 0.25781 0.16883 0.88728 0.63051 1.6688 1.2793 2.2422h-4.8496c-0.277 0-0.5 0.223-0.5 0.5s0.223 0.5 0.5 0.5h7.5 0.5c0.094449 0 0.18262-0.025159 0.25781-0.070312 0.88728-0.16883 1.6688-0.63051 2.2422-1.2793v4.8496c0 0.277 0.223 0.5 0.5 0.5s0.5-0.223 0.5-0.5v-8c0-0.094449-0.025159-0.18262-0.070312-0.25781-0.16883-0.88728-0.63051-1.6688-1.2793-2.2422h4.9395c0.22745 0 0.41016-0.18271 0.41016-0.41016v-0.17969c0-0.22745-0.18271-0.41016-0.41016-0.41016h-8.1797c-0.09671 0-0.18585 0.032349-0.25586 0.087891-0.85133 0.18167-1.5998 0.63423-2.1543 1.2617v-4.8496c0-0.277-0.223-0.5-0.5-0.5zm3.5 6c1.108 0 2 0.892 2 2s-0.892 2-2 2-2-0.892-2-2 0.892-2 2-2z" opacity=".2"/><rect x="18" y="18" width="6" height="6" ry="3" fill="#fff" fill-rule="evenodd" opacity=".5" stroke-width="1.5" style="paint-order:stroke fill markers"/><rect x="26" y="26" width="4" height="4" ry="2" fill="#fff" fill-rule="evenodd" opacity=".5" stroke-width="2" style="paint-order:stroke fill markers"/></svg>
