<?xml version="1.0" encoding="UTF-8"?>
<!-- Created with Inkscape (http://www.inkscape.org/) -->
<svg id="SVGRoot" width="48px" height="48px" version="1.1" viewBox="0 0 48 48" xmlns="http://www.w3.org/2000/svg" xmlns:cc="http://creativecommons.org/ns#" xmlns:dc="http://purl.org/dc/elements/1.1/" xmlns:rdf="http://www.w3.org/1999/02/22-rdf-syntax-ns#">
 <defs id="defs815">
  <style id="style819">.cls-1{fill:none;stroke:#fff;stroke-linecap:round;stroke-linejoin:round;}</style>
 </defs>
 <metadata id="metadata818">
  <rdf:RDF>
   <cc:Work rdf:about="">
    <dc:format>image/svg+xml</dc:format>
    <dc:type rdf:resource="http://purl.org/dc/dcmitype/StillImage"/>
    <dc:title/>
   </cc:Work>
  </rdf:RDF>
 </metadata>
 <g id="layer1" fill-rule="evenodd">
  <rect id="rect1373-5" x="4" y="4" width="40" height="40" ry="8" fill="#71b9e3" style="paint-order:stroke fill markers"/>
  <path id="rect817" d="m12 4c-4.432 0-8 3.568-8 8v24c0 4.432 3.568 8 8 8h24c4.432 0 8-3.568 8-8v-24c0-4.432-3.568-8-8-8h-24zm0 1h24c3.878 0 7 3.122 7 7v24c0 3.878-3.122 7-7 7h-24c-3.878 0-7-3.122-7-7v-24c0-3.878 3.122-7 7-7z" opacity=".3" style="paint-order:stroke fill markers"/>
  <path id="rect830" d="m24 10c-1.662 0-3 1.338-3 3 0 1.3091 0.83531 2.4068 2 2.8184v2.1816h-6v2h6v12s-0.1781 1-1 1c-4 0-6.6922-4-6.6922-4l1.3957-0.48438c-0.57219-1.6201-2.5615-3.0731-4-4.5156-3.2018 3.2803-1 8-1 8l1.6035-1.3516s2.693 4.3516 8.693 5.3516l2 2 2-2c6-1 8.737-5.3516 8.737-5.3516l1.6035 1.3516s2.2018-4.7197-1-8c-1.4385 1.4425-3.4278 2.8955-4 4.5156l1.4836 0.48438s-2.8241 4-6.8241 4c-0.8219 0-1-1-1-1v-12h6v-2h-6v-2.1816c1.1647-0.41156 2-1.5093 2-2.8184 0-1.662-1.338-3-3-3zm0 2c0.554 0 1 0.446 1 1s-0.446 1-1 1-1-0.446-1-1 0.446-1 1-1z" fill="#fff" style="paint-order:stroke fill markers"/>
 </g>
</svg>
