<?xml version="1.0" encoding="UTF-8"?>
<!-- Created with Inkscape (http://www.inkscape.org/) -->
<svg id="SVGRoot" width="48px" height="48px" version="1.1" viewBox="0 0 48 48" xmlns="http://www.w3.org/2000/svg" xmlns:cc="http://creativecommons.org/ns#" xmlns:dc="http://purl.org/dc/elements/1.1/" xmlns:rdf="http://www.w3.org/1999/02/22-rdf-syntax-ns#">
 <defs id="defs815">
  <style id="style819">.cls-1{fill:none;stroke:#fff;stroke-linecap:round;stroke-linejoin:round;}</style>
  <style id="current-color-scheme" type="text/css">.ColorScheme-Text {
        color:#31363b;
      }
      .ColorScheme-Accent {
        color:#3daee9;
      }</style>
  <style id="current-color-scheme-8" type="text/css">.ColorScheme-Text {
        color:#31363b;
      }
      .ColorScheme-Accent {
        color:#3daee9;
      }</style>
 </defs>
 <metadata id="metadata818">
  <rdf:RDF>
   <cc:Work rdf:about="">
    <dc:format>image/svg+xml</dc:format>
    <dc:type rdf:resource="http://purl.org/dc/dcmitype/StillImage"/>
    <dc:title/>
   </cc:Work>
  </rdf:RDF>
 </metadata>
 <g id="layer1">
  <rect id="rect1373-5" x="4" y="4" width="40" height="40" ry="8" fill="#e9bf73" fill-rule="evenodd" style="paint-order:stroke fill markers"/>
  <path id="rect817" d="m12 4c-4.432 0-8 3.568-8 8v24c0 4.432 3.568 8 8 8h24c4.432 0 8-3.568 8-8v-24c0-4.432-3.568-8-8-8zm-3 4h13c1.0608 2.04e-4 2.0781 0.42173 2.8281 1.1719l0.82812 0.82812h13.344c2.216 0 4 1.784 4 4v22c0 3.878-3.122 7-7 7h-24c-3.878 0-7-3.122-7-7v-24c2.209e-4 -2.209 1.791-3.9998 4-4z" fill-rule="evenodd" opacity=".3" style="paint-order:stroke fill markers"/>
  <path id="path838" d="m10.004 21.055c-0.4714 0-1 0.52859-1 1 0 7 11.996 9.9453 11.996 11.945 0 4.9554-2 9-2 9h10s-2-4.0446-2-9c0-2 11.996-4.9453 11.996-11.945 0-0.47141-0.5286-1-1-1-0.4714 0-0.29289 0.29289-1 1-1 1-5.9961 2.9453-9.9961 2.9453-1.6651 0-2.9583 2.4336-3 3-0.04171-0.56636-1.3349-3-3-3-4 0-8.9961-1.9453-9.9961-2.9453-0.70711-0.70711-0.5286-1-1-1z" opacity=".3"/>
 </g>
</svg>
