<?xml version="1.0" encoding="UTF-8"?>
<!-- Created with Inkscape (http://www.inkscape.org/) -->
<svg id="SVGRoot" width="48px" height="48px" version="1.1" viewBox="0 0 48 48" xmlns="http://www.w3.org/2000/svg" xmlns:cc="http://creativecommons.org/ns#" xmlns:dc="http://purl.org/dc/elements/1.1/" xmlns:rdf="http://www.w3.org/1999/02/22-rdf-syntax-ns#">
 <defs id="defs815">
  <style id="style819">.cls-1{fill:none;stroke:#fff;stroke-linecap:round;stroke-linejoin:round;}</style>
  <style id="style2">.a{fill:none;stroke:#b1b5bd;stroke-linecap:round;stroke-linejoin:round;isolation:isolate;opacity:0.63;}</style>
  <style id="style819-9">.cls-1{fill:none;stroke:#fff;stroke-linecap:round;stroke-linejoin:round;}</style>
 </defs>
 <metadata id="metadata818">
  <rdf:RDF>
   <cc:Work rdf:about="">
    <dc:format>image/svg+xml</dc:format>
    <dc:type rdf:resource="http://purl.org/dc/dcmitype/StillImage"/>
    <dc:title/>
   </cc:Work>
  </rdf:RDF>
 </metadata>
 <g id="layer1">
  <rect id="rect1373-5" x="4" y="4" width="40" height="40" ry="8" fill="#fff" fill-rule="evenodd" opacity=".5" style="paint-order:stroke fill markers"/>
  <path id="rect936-5" d="m24 9c-8.31 0-15 6.69-15 15s6.69 15 15 15 15-6.69 15-15-6.69-15-15-15zm0 14c0.554 0 1 0.446 1 1s-0.446 1-1 1-1-0.446-1-1 0.446-1 1-1z" fill-rule="evenodd" opacity=".25" style="paint-order:stroke fill markers"/>
  <path id="rect945-9" d="m24 10c-7.756 0-14 6.244-14 14s6.244 14 14 14 14-6.244 14-14-6.244-14-14-14zm0 12c1.108 0 2 0.892 2 2s-0.892 2-2 2-2-0.892-2-2 0.892-2 2-2z" fill="#efefef" fill-rule="evenodd" style="paint-order:stroke fill markers"/>
  <path id="path860-7" d="m18.482 11.125c-3.3043 1.4112-5.9463 4.0531-7.3574 7.3574l11.035 4.7285c0.20155-0.47111 0.57967-0.84923 1.0508-1.0508zm7.3574 13.664c-0.20155 0.47111-0.57967 0.84923-1.0508 1.0508l4.7285 11.035c3.3043-1.4112 5.9463-4.0531 7.3574-7.3574z" fill="#fff"/>
  <path id="rect875" d="m4 30v6c0 4.432 3.568 8 8 8h24c4.432 0 8-3.568 8-8v-6h-4-32-4z" fill="#627ad4" fill-rule="evenodd" style="paint-order:stroke fill markers"/>
  <path id="rect949-7" d="m24 19c-2.77 0-5 2.23-5 5s2.23 5 5 5 5-2.23 5-5-2.23-5-5-5zm0 3c1.108 0 2 0.892 2 2s-0.892 2-2 2-2-0.892-2-2 0.892-2 2-2z" fill-rule="evenodd" opacity=".25" style="paint-order:stroke fill markers"/>
  <path id="rect947-5" d="m24 20c-2.216 0-4 1.784-4 4s1.784 4 4 4 4-1.784 4-4-1.784-4-4-4zm0 2c1.108 0 2 0.892 2 2s-0.892 2-2 2-2-0.892-2-2 0.892-2 2-2z" fill="#fff" fill-rule="evenodd" style="paint-order:stroke fill markers"/>
  <rect id="rect898" x="11" y="33" width="3" height="3" fill="#fff" fill-rule="evenodd" style="paint-order:stroke fill markers"/>
  <rect id="rect900" x="11" y="37" width="3" height="3" fill="#fff" fill-rule="evenodd" style="paint-order:stroke fill markers"/>
  <rect id="rect902" x="15" y="33" width="3" height="3" fill="#fff" fill-rule="evenodd" style="paint-order:stroke fill markers"/>
  <rect id="rect904" x="15" y="37" width="3" height="3" fill="#fff" fill-rule="evenodd" style="paint-order:stroke fill markers"/>
  <path id="path906" d="m22 40.535v-6.4876h1.9111v0.94796s0.51103-0.87931 1.3627-0.94796c1.0213-0.08232 1.4219 0.6221 1.4219 0.6221l-0.74059 1.3923s-0.30657-0.46229-1.0368-0.26661c-0.81508 0.2184-0.91834 1.0665-0.91834 1.0665v3.6733z" fill="#fff"/>
  <rect id="rect908" x="28" y="32" width="2" height="2" fill="#fff" fill-rule="evenodd" style="paint-order:stroke fill markers"/>
  <rect id="rect910" x="28" y="35" width="2" height="5.4459" fill="#fff" fill-rule="evenodd" style="paint-order:stroke fill markers"/>
  <path id="path912" d="m35.748 34.107c-1.1426 0-1.748 0.67969-1.748 0.67969v-0.78711h-2l-0.0293 8h2.0293v-1.9688s1.1988 0.41895 1.8672 0.38508c1.8264-0.09254 2.054-1.7856 2.043-3.0511-0.01519-1.7479-0.85848-3.2578-2.1621-3.2578zm-0.84375 1.8652c0.54979 0 0.99219 0.62865 0.99219 1.4082s-0.4424 1.4062-0.99219 1.4062-0.99219-0.6267-0.99219-1.4062 0.4424-1.4082 0.99219-1.4082z" fill="#fff"/>
  <path id="rect817" d="m12 4c-4.432 0-8 3.568-8 8v24c0 4.432 3.568 8 8 8h24c4.432 0 8-3.568 8-8v-24c0-4.432-3.568-8-8-8h-24zm0 1h24c3.878 0 7 3.122 7 7v24c0 3.878-3.122 7-7 7h-24c-3.878 0-7-3.122-7-7v-24c0-3.878 3.122-7 7-7z" fill-rule="evenodd" opacity=".3" style="paint-order:stroke fill markers"/>
 </g>
</svg>
