<?xml version="1.0" encoding="UTF-8"?>
<!-- Created with Inkscape (http://www.inkscape.org/) -->
<svg id="SVGRoot" width="48px" height="48px" version="1.1" viewBox="0 0 48 48" xmlns="http://www.w3.org/2000/svg" xmlns:cc="http://creativecommons.org/ns#" xmlns:dc="http://purl.org/dc/elements/1.1/" xmlns:rdf="http://www.w3.org/1999/02/22-rdf-syntax-ns#">
 <defs id="defs815">
  <style id="style819">.cls-1{fill:none;stroke:#fff;stroke-linecap:round;stroke-linejoin:round;}</style>
 </defs>
 <metadata id="metadata818">
  <rdf:RDF>
   <cc:Work rdf:about="">
    <dc:format>image/svg+xml</dc:format>
    <dc:type rdf:resource="http://purl.org/dc/dcmitype/StillImage"/>
    <dc:title/>
   </cc:Work>
  </rdf:RDF>
 </metadata>
 <g id="layer1" fill-rule="evenodd">
  <rect id="rect1373-5" x="4" y="4" width="40" height="40" ry="8" fill="#8e58b5" style="paint-order:stroke fill markers"/>
  <rect id="rect818-2" x="8" y="10" width="28" height="28" ry="14" fill="#f6a559" style="paint-order:stroke fill markers"/>
  <rect id="rect818" x="12" y="10" width="28" height="28" ry="14" fill="#b072dd" style="paint-order:stroke fill markers"/>
  <path id="rect817" d="m12 4c-4.432 0-8 3.568-8 8v24c0 4.432 3.568 8 8 8h24c4.432 0 8-3.568 8-8v-24c0-4.432-3.568-8-8-8h-24zm0 1h24c3.878 0 7 3.122 7 7v24c0 3.878-3.122 7-7 7h-24c-3.878 0-7-3.122-7-7v-24c0-3.878 3.122-7 7-7z" opacity=".3" style="paint-order:stroke fill markers"/>
  <rect id="rect904" x="16" y="14" width="20" height="20" ry="10" fill="#8e58b5" style="paint-order:stroke fill markers"/>
  <path id="rect835" d="m6 18v2h33.418c-0.20498-0.69278-0.47102-1.3572-0.77539-2h-32.643zm0 5v2h33.949c0.023281-0.33156 0.050781-0.66232 0.050781-1s-0.0275-0.66844-0.050781-1h-33.949zm0 5v2h32.643c0.30437-0.64285 0.57042-1.3072 0.77539-2h-33.418z" fill="#fff" style="paint-order:stroke fill markers"/>
 </g>
</svg>
