<?xml version="1.0" encoding="UTF-8"?>
<!-- Created with Inkscape (http://www.inkscape.org/) -->
<svg id="SVGRoot" width="48px" height="48px" version="1.1" viewBox="0 0 48 48" xmlns="http://www.w3.org/2000/svg" xmlns:cc="http://creativecommons.org/ns#" xmlns:dc="http://purl.org/dc/elements/1.1/" xmlns:rdf="http://www.w3.org/1999/02/22-rdf-syntax-ns#">
 <defs id="defs815">
  <style id="style819">.cls-1{fill:none;stroke:#fff;stroke-linecap:round;stroke-linejoin:round;}</style>
 </defs>
 <metadata id="metadata818">
  <rdf:RDF>
   <cc:Work rdf:about="">
    <dc:format>image/svg+xml</dc:format>
    <dc:type rdf:resource="http://purl.org/dc/dcmitype/StillImage"/>
    <dc:title/>
   </cc:Work>
  </rdf:RDF>
 </metadata>
 <g id="layer1">
  <rect id="rect1373-5" x="4" y="4" width="40" height="40" ry="8" fill="#f6a559" fill-rule="evenodd" style="paint-order:stroke fill markers"/>
  <path id="rect817" d="m12 4c-4.432 0-8 3.568-8 8v24c0 4.432 3.568 8 8 8h24c4.432 0 8-3.568 8-8v-24c0-4.432-3.568-8-8-8h-24zm0 1h24c3.878 0 7 3.122 7 7v24c0 3.878-3.122 7-7 7h-24c-3.878 0-7-3.122-7-7v-24c0-3.878 3.122-7 7-7z" fill-rule="evenodd" opacity=".3" style="paint-order:stroke fill markers"/>
  <path id="path839" d="m18.821 37.477s-0.85201-2.1228-0.69922-4.0682c0.17899-2.279 0.7846-3.3054 0.7846-3.3054s-2.5698-0.20417-3.2978 3.0511c-0.76074 3.4017 3.2125 4.3224 3.2125 4.3224z" fill="#d35244"/>
  <path id="path841" d="m20.782 38.017s-0.71604-1.5534-0.731-4.4496c-0.01221-2.3635 0.57209-3.4007 0.57209-3.4007s1.1123 0.20782 1.8145 0.09309c1.0099-0.16502 2.1885-0.99587 3.596-6.386 0.7962-3.0493 0.30105-4.3471-0.1907-5.117-0.33065-0.5177-1.3031-1.3031-1.3031-1.3031s0.13874-1.7915 1.2395-3.7821c0.88922-1.6081 2.0977-2.2883 2.0977-2.2883s3.6486 1.0115 3.8457 6.1658c0.10521 2.7517-0.36371 6.186-1.1506 8.8248-1.1597 3.8892-1.4392 7.1276-5.206 10.34-1.515 1.2921-4.5841 1.3031-4.5841 1.3031z" fill="#d35244"/>
  <path id="path843" d="m22.712 17.074s0.20342-2.1333 1.0787-3.8655c0.85832-1.6985 2.2024-3.1463 2.2024-3.1463s-3.4063-0.68718-4.5846 1.9777c-1.3676 3.0929 1.3035 5.0341 1.3035 5.0341z" fill="#d35244"/>
  <path id="path845" d="m9 27s-0.34239-6.8591 1.0244-6.9628c1.8794-0.14256 1.8208 8.2808 3.913 8.1338 1.0627-0.07465 0.11417-4.5945 0.70347-5.6717 0.21358-0.3904 1.0684 0.78985 1.275 0.3957 1.035-1.9747 0.19487-5.3529 1.6268-5.3639 2.1467-0.01654 0.72654 10.574 2.4182 10.552 1.1208-0.01488 0.72827-2.4297 2.2423-2.5061 1.1526-0.05815 1.7428 2.9706 2.638 2.2423 0.85404-0.6948-0.81162-8.2459 0.87933-8.3976 1.4671-0.13168 1.8452 8.5593 3.2795 8.5783 1.2208 0.01619 0.65109-3.8598 1.5568-4.3135 1.3366-0.66964 4.4432 2.3135 4.4432 2.3135" fill="none" stroke="#fff" stroke-linecap="round" stroke-linejoin="round" stroke-width="2"/>
  <path id="path855" d="m30.701 22.52 1.7178 2.0211-1.8133 0.29475 1.1929 0.6737-0.95435 0.37896 1.1929 0.84213-2.0518 1.4316 2.1473-0.6316-1.527 2.5264 2.3381-1.6422 0.2863 0.88424 0.71576-0.50528-0.04772 3.158 1.0975-3.4106 1.9087 2.6527-0.66804-2.9053 2.2904 1.0106-1.1929-1.5158 2.3859-0.54738-1.6224-0.92634 1.9564-0.50528-2.21-0.93936 1.7805-2.3028-2.544 1.6291 0.33402-1.179-1.1452 0.6737 0.34902-2.0081-1.3034 1.5449-0.65304-2.2186-0.52489 2.358-0.62032-0.92634-0.42946 1.3474z" fill="#ffdd75"/>
  <rect id="rect847" x="33" y="24" width="4" height="4" rx="1.9848" ry="2.8143" fill="#fff" fill-rule="evenodd" style="paint-order:stroke fill markers"/>
 </g>
</svg>
