<?xml version="1.0" encoding="UTF-8"?>
<!-- Created with Inkscape (http://www.inkscape.org/) -->
<svg id="SVGRoot" width="48px" height="48px" version="1.1" viewBox="0 0 48 48" xmlns="http://www.w3.org/2000/svg" xmlns:cc="http://creativecommons.org/ns#" xmlns:dc="http://purl.org/dc/elements/1.1/" xmlns:rdf="http://www.w3.org/1999/02/22-rdf-syntax-ns#">
 <defs id="defs815">
  <style id="style819">.cls-1{fill:none;stroke:#fff;stroke-linecap:round;stroke-linejoin:round;}</style>
 </defs>
 <metadata id="metadata818">
  <rdf:RDF>
   <cc:Work rdf:about="">
    <dc:format>image/svg+xml</dc:format>
    <dc:type rdf:resource="http://purl.org/dc/dcmitype/StillImage"/>
    <dc:title/>
   </cc:Work>
  </rdf:RDF>
 </metadata>
 <g id="layer1">
  <rect id="rect1373-5" x="4" y="4" width="40" height="40" ry="8" fill="#96d56b" fill-rule="evenodd" style="paint-order:stroke fill markers"/>
  <path id="rect817" d="m12 4c-4.432 0-8 3.568-8 8v24c0 4.432 3.568 8 8 8h24c4.432 0 8-3.568 8-8v-24c0-4.432-3.568-8-8-8h-24zm0 1h24c3.878 0 7 3.122 7 7v24c0 3.878-3.122 7-7 7h-24c-3.878 0-7-3.122-7-7v-24c0-3.878 3.122-7 7-7z" fill-rule="evenodd" opacity=".3" style="paint-order:stroke fill markers"/>
  <path id="path819" d="m12 6c-3.324 0-6 2.676-6 6v0.30078l18 11.699-11.596-18h-0.4043zm12 18 4.5-18h-9l4.5 18zm0 0 18-11.699v-0.30078c0-3.324-2.676-6-6-6h-0.4043l-11.596 18zm0 0 18 4.5v-9l-18 4.5zm0 0 11.596 18h0.4043c3.324 0 6-2.676 6-6v-0.30078l-18-11.699zm0 0-4.5 18h9l-4.5-18zm0 0-18 11.699v0.30078c0 3.324 2.676 6 6 6h0.4043l11.596-18zm0 0-18-4.5v9l18-4.5z" fill="#fff" opacity=".15"/>
  <path id="path828-2" d="m13.982 13c-0.3281 0.0058-0.63247 0.17224-0.81445 0.44531l-4 6c-0.11175 0.16758-0.17029 0.365-0.16797 0.56641v0.98828c1.14e-4 0.24035 0.086782 0.47262 0.24414 0.6543l13 15c0.19023 0.21871 0.466 0.34412 0.75586 0.34375v0.001953h2v-2e-3c0.28986 3.68e-4 0.56563-0.12504 0.75586-0.34375l13-15c0.15736-0.18163 0.24403-0.4139 0.24414-0.65425v-0.97656c0.0047-0.20539-0.05393-0.40724-0.16797-0.57813l-4-6c-0.18547-0.27818-0.49769-0.44528-0.83203-0.44531h-19.977c-0.01367-2.8e-4 -0.02735-2.8e-4 -0.04102 0z" color="#000000" color-rendering="auto" dominant-baseline="auto" image-rendering="auto" opacity=".4" shape-rendering="auto" solid-color="#000000" style="font-feature-settings:normal;font-variant-alternates:normal;font-variant-caps:normal;font-variant-ligatures:normal;font-variant-numeric:normal;font-variant-position:normal;isolation:auto;mix-blend-mode:normal;shape-padding:0;text-decoration-color:#000000;text-decoration-line:none;text-decoration-style:solid;text-indent:0;text-orientation:mixed;text-transform:none;white-space:normal"/>
  <path id="path828" d="m15 14 4 6 4-6z" fill="#fff"/>
  <path id="path828-4" d="m20 20 4-6 4 6z" fill="#fff"/>
  <path id="path828-0" d="m25 14 4 6 4-6z" fill="#fff"/>
  <path id="path828-4-3" d="m10 20 4-6 4 6z" fill="#fff"/>
  <path id="path828-4-1" d="m30 20 4-6 4 6z" fill="#fff"/>
  <path id="path872" d="m10 21h9l4 15z" fill="#fff"/>
  <path id="path874" d="m20 21 4 15 4-15z" fill="#fff"/>
  <path id="path872-4" d="m38 21h-9l-4 15z" fill="#fff"/>
 </g>
</svg>
