<?xml version="1.0" encoding="UTF-8"?>
<!-- Created with Inkscape (http://www.inkscape.org/) -->
<svg id="SVGRoot" width="48px" height="48px" version="1.1" viewBox="0 0 48 48" xmlns="http://www.w3.org/2000/svg" xmlns:cc="http://creativecommons.org/ns#" xmlns:dc="http://purl.org/dc/elements/1.1/" xmlns:rdf="http://www.w3.org/1999/02/22-rdf-syntax-ns#">
 <defs id="defs815">
  <style id="style819">.cls-1{fill:none;stroke:#fff;stroke-linecap:round;stroke-linejoin:round;}</style>
 </defs>
 <metadata id="metadata818">
  <rdf:RDF>
   <cc:Work rdf:about="">
    <dc:format>image/svg+xml</dc:format>
    <dc:type rdf:resource="http://purl.org/dc/dcmitype/StillImage"/>
    <dc:title/>
   </cc:Work>
  </rdf:RDF>
 </metadata>
 <g id="layer1">
  <rect id="rect1373-5" x="4" y="4" width="40" height="40" ry="8" fill="#cfe0f6" fill-rule="evenodd" style="paint-order:stroke fill markers"/>
  <path id="rect817" d="m12 4c-4.432 0-8 3.568-8 8v24c0 4.432 3.568 8 8 8h24c4.432 0 8-3.568 8-8v-24c0-4.432-3.568-8-8-8h-24zm0 1h24c3.878 0 7 3.122 7 7v24c0 3.878-3.122 7-7 7h-24c-3.878 0-7-3.122-7-7v-24c0-3.878 3.122-7 7-7z" fill-rule="evenodd" opacity=".3" style="paint-order:stroke fill markers"/>
  <path id="path822-6" d="m24 22s-2 2-2 5v4 3s0 2 2 2h8c2 0 2-2 2-2v-3s2 0 2-2c0-3-4-7-4-7z" fill="#bfea83"/>
  <path id="path822-4-4" d="m24 22s-2 2-2 5v7s0 2 2 2h8c2 0 2-2 2-2v-3s2 0 2-2c0-3-4-7-4-7zm0.49609 1h7.043c0.20048 0.20605 0.82638 0.82719 1.6523 1.9629 0.94913 1.3051 1.8086 2.9816 1.8086 4.0371 0 0.66667-0.18578 0.72473-0.44727 0.85547-0.26149 0.13074-0.55273 0.14453-0.55273 0.14453v-1.5c0-0.277-0.223-0.5-0.5-0.5s-0.5 0.223-0.5 0.5v5.5s-0.01379 0.29125-0.14453 0.55273c-0.13074 0.26149-0.1888 0.44727-0.85547 0.44727h-8c-0.66667 0-0.72473-0.18578-0.85547-0.44727-0.13074-0.26149-0.14453-0.55273-0.14453-0.55273v-7c0-2.2401 1.1723-3.6363 1.4961-4z" color="#000000" color-rendering="auto" dominant-baseline="auto" image-rendering="auto" opacity=".4" shape-rendering="auto" solid-color="#000000" style="font-feature-settings:normal;font-variant-alternates:normal;font-variant-caps:normal;font-variant-ligatures:normal;font-variant-numeric:normal;font-variant-position:normal;isolation:auto;mix-blend-mode:normal;shape-padding:0;text-decoration-color:#000000;text-decoration-line:none;text-decoration-style:solid;text-indent:0;text-orientation:mixed;text-transform:none;white-space:normal"/>
  <path id="path822" d="m16 22s-4 4-4 7c0 2 2 2 2 2v3s0 2 2 2h8c2 0 2-2 2-2v-3-4c0-3-2-5-2-5z" fill="#729dec"/>
  <path id="path822-4" d="m16 22s-4 4-4 7c0 2 2 2 2 2v3s0 2 2 2h8c2 0 2-2 2-2v-7c0-3-2-5-2-5zm0.46094 1h7.043c0.3238 0.36366 1.4961 1.7599 1.4961 4v7s-0.01379 0.29125-0.14453 0.55273c-0.13074 0.26149-0.1888 0.44727-0.85547 0.44727h-8c-0.66667 0-0.72473-0.18578-0.85547-0.44727s-0.14453-0.55273-0.14453-0.55273v-5.5c0-0.277-0.223-0.5-0.5-0.5s-0.5 0.223-0.5 0.5v1.5s-0.29125-0.01379-0.55273-0.14453c-0.26149-0.13074-0.44727-0.1888-0.44727-0.85547 0-1.0556 0.85946-2.7321 1.8086-4.0371 0.82596-1.1357 1.4519-1.7568 1.6523-1.9629z" color="#000000" color-rendering="auto" dominant-baseline="auto" image-rendering="auto" opacity=".4" shape-rendering="auto" solid-color="#000000" style="font-feature-settings:normal;font-variant-alternates:normal;font-variant-caps:normal;font-variant-ligatures:normal;font-variant-numeric:normal;font-variant-position:normal;isolation:auto;mix-blend-mode:normal;shape-padding:0;text-decoration-color:#000000;text-decoration-line:none;text-decoration-style:solid;text-indent:0;text-orientation:mixed;text-transform:none;white-space:normal"/>
  <rect id="rect818" x="14" y="12" width="12" height="12" ry="6" fill="#729dec" fill-rule="evenodd" style="paint-order:stroke fill markers"/>
  <path id="rect970" d="m20 12c-3.324 0-6 2.676-6 6s2.676 6 6 6 6-2.676 6-6-2.676-6-6-6zm0 1c2.77 0 5 2.23 5 5s-2.23 5-5 5-5-2.23-5-5 2.23-5 5-5z" fill-rule="evenodd" opacity=".4" style="paint-order:stroke fill markers"/>
  <rect id="rect820" x="22" y="12" width="12" height="12" ry="6" fill="#bfea83" fill-rule="evenodd" style="paint-order:stroke fill markers"/>
  <path id="path839" d="m16 22c1.2819 0.49559 1.7071 2.8215 1 4s-2.9167 1.8458-4 1c-0.7882-0.61541-0.47186-2.1183 0-3 0.5671-1.0596 1.879-2.4334 3-2z" fill="#bfea83"/>
  <path id="rect975" d="m28 12c-3.324 0-6 2.676-6 6s2.676 6 6 6 6-2.676 6-6-2.676-6-6-6zm0 1c2.77 0 5 2.23 5 5s-2.23 5-5 5-5-2.23-5-5 2.23-5 5-5z" fill-rule="evenodd" opacity=".4" style="paint-order:stroke fill markers"/>
  <path id="path839-4" d="m32 22c-1.2819 0.49559-1.7071 2.8215-1 4s2.9167 1.8458 4 1c0.7882-0.61541 0.47186-2.1183 0-3-0.5671-1.0596-1.879-2.4334-3-2z" fill="#729dec"/>
  <path id="path839-7" d="m15.572 21.918c-1.0098-0.012903-2.0761 1.1548-2.5723 2.082-0.47186 0.88168-0.7882 2.3846 0 3 1.0833 0.8458 3.2929 0.17851 4-1s0.2819-3.5044-1-4c-0.14012-0.05417-0.28347-0.08019-0.42773-0.08203zm0.06641 1.0156c0.18488 0.07147 0.49995 0.44823 0.63086 1.0293 0.13091 0.58107 0.03178 1.2589-0.12695 1.5234-0.15996 0.26661-0.69107 0.65342-1.2617 0.80664-0.57065 0.15322-1.0845 0.0594-1.2656-0.08203-0.03171-0.02476-0.11657-0.16058-0.08984-0.54102 0.02673-0.38043 0.18721-0.88287 0.35547-1.1973 0.21701-0.40548 0.63386-0.93626 1.0273-1.2441s0.62382-0.33616 0.73047-0.29492z" color="#000000" color-rendering="auto" dominant-baseline="auto" image-rendering="auto" opacity=".4" shape-rendering="auto" solid-color="#000000" style="font-feature-settings:normal;font-variant-alternates:normal;font-variant-caps:normal;font-variant-ligatures:normal;font-variant-numeric:normal;font-variant-position:normal;isolation:auto;mix-blend-mode:normal;shape-padding:0;text-decoration-color:#000000;text-decoration-line:none;text-decoration-style:solid;text-indent:0;text-orientation:mixed;text-transform:none;white-space:normal"/>
  <path id="path839-4-3" d="m32.428 21.918c-0.14426 0.001843-0.28761 0.027858-0.42773 0.082031-1.2819 0.49559-1.7071 2.8215-1 4s2.9167 1.8458 4 1c0.7882-0.61541 0.47186-2.1183 0-3-0.49622-0.92719-1.5624-2.0949-2.5723-2.082zm-0.06641 1.0156c0.10665-0.04123 0.33698-0.01295 0.73047 0.29492 0.39349 0.30788 0.81033 0.83866 1.0273 1.2441 0.16826 0.31439 0.32874 0.81684 0.35547 1.1973 0.02673 0.38043-0.05813 0.51625-0.08984 0.54102-0.18114 0.14143-0.69498 0.23525-1.2656 0.08203-0.57065-0.15322-1.1018-0.54004-1.2617-0.80664-0.15873-0.26455-0.25787-0.94237-0.12695-1.5234 0.13091-0.58107 0.44598-0.95782 0.63086-1.0293z" color="#000000" color-rendering="auto" dominant-baseline="auto" image-rendering="auto" opacity=".4" shape-rendering="auto" solid-color="#000000" style="font-feature-settings:normal;font-variant-alternates:normal;font-variant-caps:normal;font-variant-ligatures:normal;font-variant-numeric:normal;font-variant-position:normal;isolation:auto;mix-blend-mode:normal;shape-padding:0;text-decoration-color:#000000;text-decoration-line:none;text-decoration-style:solid;text-indent:0;text-orientation:mixed;text-transform:none;white-space:normal"/>
 </g>
</svg>
