<?xml version="1.0" encoding="UTF-8"?>
<!-- Created with Inkscape (http://www.inkscape.org/) -->
<svg id="SVGRoot" width="48px" height="48px" version="1.1" viewBox="0 0 48 48" xmlns="http://www.w3.org/2000/svg" xmlns:cc="http://creativecommons.org/ns#" xmlns:dc="http://purl.org/dc/elements/1.1/" xmlns:rdf="http://www.w3.org/1999/02/22-rdf-syntax-ns#">
 <defs id="defs815">
  <style id="style819">.cls-1{fill:none;stroke:#fff;stroke-linecap:round;stroke-linejoin:round;}</style>
 </defs>
 <metadata id="metadata818">
  <rdf:RDF>
   <cc:Work rdf:about="">
    <dc:format>image/svg+xml</dc:format>
    <dc:type rdf:resource="http://purl.org/dc/dcmitype/StillImage"/>
    <dc:title/>
   </cc:Work>
  </rdf:RDF>
 </metadata>
 <g id="layer1">
  <rect id="rect1373" x="4" y="4" width="40" height="40" ry="8" fill="#868686" fill-rule="evenodd" style="paint-order:stroke fill markers"/>
  <path id="path864" d="m24.25 5 3.2324 10.543 1.0176-0.042969-3.1953-10.5h-1.0547zm10.363 0-5.3613 14.252 0.74805 0.74805 5.625-15h-1.0117zm-27.07 1.5938c-0.2687 0.22157-0.51539 0.46967-0.74805 0.72852l16.457 7.4258 0.74805-0.74805-16.457-7.4062zm11.957 8.9062-14.5 3.248v1.0293l14.5-3.2207v-1.0566zm-1.5 4.5-6 14 0.75 0.68945 5.998-13.941-0.74805-0.74805zm25 0.17188-14.543 3.3105 0.042969 1.0176 14.5-3.2734v-1.0547zm-23.5 4.3281 3.4824 11.543 1.0176-0.042969-3.4434-11.5h-1.0566zm5.248 0.75195-0.74805 0.74805 19 7.2383v-1.0156l-18.252-6.9707z" opacity=".3"/>
  <path id="rect828" d="m4 34v2c0 4.432 3.568 8 8 8h24c4.432 0 8-3.568 8-8v-2h-40z" fill="#efefef" fill-rule="evenodd" style="paint-order:normal"/>
  <path id="rect817" d="m12 4c-4.432 0-8 3.568-8 8v24c0 4.432 3.568 8 8 8h24c4.432 0 8-3.568 8-8v-24c0-4.432-3.568-8-8-8h-24zm0 1h24c3.878 0 7 3.122 7 7v24c0 3.878-3.122 7-7 7h-24c-3.878 0-7-3.122-7-7v-24c0-3.878 3.122-7 7-7z" fill-rule="evenodd" opacity=".3" style="paint-order:stroke fill markers"/>
  <path id="path834" d="m24 14-4.5 1.5-1.5 4.5 1.5 4.5 4.5 1.5 4.5-1.5 1.5-4.5-1.5-4.5z" fill="#4e4e4e"/>
  <path id="path834-9" d="m24 14-4.5 1.5-1.5 4.5 1.5 4.5 4.5 1.5 4.5-1.5 1.5-4.5-1.5-4.5zm0 0.94727 3.791 1.2617 1.2617 3.791-1.2617 3.791-3.791 1.2617-3.791-1.2617-1.2617-3.791 1.2617-3.791z" opacity=".4"/>
  <rect id="rect1076" x="14" y="37" width="20" height="2" ry="1" fill="#4e4e4e" fill-rule="evenodd" style="paint-order:normal"/>
  <rect id="rect1078" x="17" y="36" width="4" height="4" ry="2" fill="#efefef" fill-rule="evenodd" style="paint-order:normal"/>
  <rect id="rect1080" x="8" y="36" width="4" height="4" ry="2" fill="#b7bfc2" fill-rule="evenodd" style="paint-order:normal"/>
  <rect id="rect1082" x="36" y="36" width="4" height="4" ry="2" fill="#b7bfc2" fill-rule="evenodd" style="paint-order:normal"/>
  <path id="rect1084" d="m19 36c-1.108 0-2 0.892-2 2s0.892 2 2 2 2-0.892 2-2-0.892-2-2-2zm0 1c0.554 0 1 0.446 1 1s-0.446 1-1 1-1-0.446-1-1 0.446-1 1-1z" fill-rule="evenodd" opacity=".25" style="paint-order:normal"/>
 </g>
</svg>
