<?xml version="1.0" encoding="UTF-8"?>
<!-- Created with Inkscape (http://www.inkscape.org/) -->
<svg id="SVGRoot" width="48px" height="48px" version="1.1" viewBox="0 0 48 48" xml:space="preserve" xmlns="http://www.w3.org/2000/svg" xmlns:cc="http://creativecommons.org/ns#" xmlns:dc="http://purl.org/dc/elements/1.1/" xmlns:rdf="http://www.w3.org/1999/02/22-rdf-syntax-ns#"><defs><style>.cls-1{fill:none;stroke:#fff;stroke-linecap:round;stroke-linejoin:round;}</style><style>.cls-1{fill:none;stroke:#fff;stroke-linecap:round;stroke-linejoin:round;}</style><style>.cls-1{fill:none;stroke:#fff;stroke-linecap:round;stroke-linejoin:round;}</style></defs><metadata><rdf:RDF><cc:Work rdf:about=""><dc:format>image/svg+xml</dc:format><dc:type rdf:resource="http://purl.org/dc/dcmitype/StillImage"/></cc:Work></rdf:RDF></metadata><rect x="4" y="4" width="40" height="40" ry="8" fill="#cffad9" fill-rule="evenodd" style="paint-order:stroke fill markers"/><g stroke-linecap="round" stroke-linejoin="round"><rect x="10" y="10" width="28" height="28" ry="14" fill="#4e4e4e" stroke-width="2"/><rect x="8" y="24" width="16" height="16" fill="#cffad9" stroke-width="2.2857"/><rect x="12" y="12" width="24" height="24" ry="12" fill="#b7bfc2" stroke-width="1.7143"/><rect x="24" y="8" width="16" height="16" fill="#cffad9" stroke-width="2.2857"/><rect x="16" y="16" width="16" height="16" ry="8" fill="#2bb18b" stroke-width="1.1429"/><rect x="20" y="20" width="8" height="8" ry="4" fill="#cffad9" stroke-width=".57143"/></g><path d="m12 4c-4.432 0-8 3.568-8 8v24c0 4.432 3.568 8 8 8h24c4.432 0 8-3.568 8-8v-24c0-4.432-3.568-8-8-8zm0 1h24c3.878 0 7 3.122 7 7v24c0 3.878-3.122 7-7 7h-24c-3.878 0-7-3.122-7-7v-24c0-3.878 3.122-7 7-7z" fill-rule="evenodd" opacity=".3" style="paint-order:stroke fill markers"/></svg>
