<?xml version="1.0" encoding="UTF-8"?>
<!-- Created with Inkscape (http://www.inkscape.org/) -->
<svg id="SVGRoot" width="48px" height="48px" version="1.1" viewBox="0 0 48 48" xmlns="http://www.w3.org/2000/svg" xmlns:cc="http://creativecommons.org/ns#" xmlns:dc="http://purl.org/dc/elements/1.1/" xmlns:rdf="http://www.w3.org/1999/02/22-rdf-syntax-ns#">
 <defs id="defs815">
  <style id="style819">.cls-1{fill:none;stroke:#fff;stroke-linecap:round;stroke-linejoin:round;}</style>
 </defs>
 <metadata id="metadata818">
  <rdf:RDF>
   <cc:Work rdf:about="">
    <dc:format>image/svg+xml</dc:format>
    <dc:type rdf:resource="http://purl.org/dc/dcmitype/StillImage"/>
    <dc:title/>
   </cc:Work>
  </rdf:RDF>
 </metadata>
 <g id="layer1" fill-rule="evenodd">
  <rect id="rect1373-5" x="4" y="4" width="40" height="40" ry="8" fill="#efefef" style="paint-order:stroke fill markers"/>
  <path id="rect817" d="m12 4c-4.432 0-8 3.568-8 8v24c0 4.432 3.568 8 8 8h24c4.432 0 8-3.568 8-8v-24c0-4.432-3.568-8-8-8h-24zm0 1h24c3.878 0 7 3.122 7 7v24c0 3.878-3.122 7-7 7h-24c-3.878 0-7-3.122-7-7v-24c0-3.878 3.122-7 7-7z" opacity=".3" style="paint-order:stroke fill markers"/>
  <path id="rect818" d="m13 8v15h4v-15h-4zm6 0v15h4v-15h-4zm6 0v15h4v-15h-4zm6 0v15h4v-15h-4zm-20 0.13867c-1.7263 0.44369-3 1.9928-3 3.8613v11h3v-14.861zm26 0v14.861h3v-11c0-1.8686-1.2737-3.4176-3-3.8613zm-29 16.861v11c0 1.8686 1.2737 3.4176 3 3.8613v-14.861h-3zm5 0v15h4v-15h-4zm6 0v15h4v-15h-4zm6 0v15h4v-15h-4zm6 0v15h4v-15h-4zm6 0v14.861c1.7263-0.44369 3-1.9928 3-3.8613v-11h-3z" fill="#d35244" style="paint-order:normal"/>
  <rect id="rect869" x="8" y="20" width="8" height="8" ry="1" fill="#fff" style="paint-order:normal"/>
  <rect id="rect871" x="10" y="22" width="4" height="4" ry="2" fill="#7c8487" style="paint-order:normal"/>
  <path id="rect974" d="m9 20c-0.554 0-1 0.446-1 1v6c0 0.554 0.446 1 1 1h6c0.554 0 1-0.446 1-1v-6c0-0.554-0.446-1-1-1zm0.5 1h5c0.277 0 0.5 0.223 0.5 0.5v5c0 0.277-0.223 0.5-0.5 0.5h-5c-0.277 0-0.5-0.223-0.5-0.5v-5c0-0.277 0.223-0.5 0.5-0.5z" opacity=".25" style="paint-order:normal"/>
 </g>
</svg>
