<?xml version="1.0" encoding="UTF-8"?>
<!-- Created with Inkscape (http://www.inkscape.org/) -->
<svg id="SVGRoot" width="48px" height="48px" version="1.1" viewBox="0 0 48 48" xmlns="http://www.w3.org/2000/svg" xmlns:cc="http://creativecommons.org/ns#" xmlns:dc="http://purl.org/dc/elements/1.1/" xmlns:rdf="http://www.w3.org/1999/02/22-rdf-syntax-ns#">
 <defs id="defs815">
  <style id="style819">.cls-1{fill:none;stroke:#fff;stroke-linecap:round;stroke-linejoin:round;}</style>
 </defs>
 <metadata id="metadata818">
  <rdf:RDF>
   <cc:Work rdf:about="">
    <dc:format>image/svg+xml</dc:format>
    <dc:type rdf:resource="http://purl.org/dc/dcmitype/StillImage"/>
    <dc:title/>
   </cc:Work>
  </rdf:RDF>
 </metadata>
 <g id="layer1">
  <rect id="rect1373" x="4" y="4" width="40" height="40" ry="8" fill="#efefef" fill-rule="evenodd" style="paint-order:stroke fill markers"/>
  <path id="rect817" d="m12 4c-4.432 0-8 3.568-8 8v24c0 4.432 3.568 8 8 8h24c4.432 0 8-3.568 8-8v-24c0-4.432-3.568-8-8-8h-24zm0 1h24c3.878 0 7 3.122 7 7v24c0 3.878-3.122 7-7 7h-24c-3.878 0-7-3.122-7-7v-24c0-3.878 3.122-7 7-7z" fill-rule="evenodd" opacity=".3" style="paint-order:stroke fill markers"/>
  <rect id="rect828" x="17" y="20" width="16" height="2" ry="1" fill="#4e4e4e" fill-rule="evenodd" style="paint-order:normal"/>
  <path id="path830" d="m33.299 11.951c-1.8081 0.05701-3.3711 1.9199-3.3711 1.9199s-1.3601-0.85222-3.8906-0.77885c-4.553 0.132-6.4824 6.7945-6.4824 6.7945l-2.541 11.672s-0.2161 2.3761-1.8672 2.541c-0.79381 0.07927-1.2877-1.3146-2.0762-1.1934-0.58051 0.08928-1.221 0.71019-1.1934 1.2969 0.04382 0.92939 0.84235 1.8869 2.0762 1.8672 2.5678-0.04106 4.0977-2.0742 4.0977-2.0742s0.99799 1.1611 2.8008 1.1406c6.3755-0.07247 7.0585-6.3156 8.0391-11.307 0.70938-3.6109 2.351-10.446 3.6309-10.426 1.5416 0.02486 1.0783 2.5239 2.1777 2.541 1.0827 0.01686 1.4209-0.99398 1.3496-1.8145-0.12799-1.4734-1.5814-2.2165-2.75-2.1797zm-7.5195 2.1795c1.7959-0.05942 2.6973 1.5549 2.6973 1.5549s-1.5722 3.9949-2.334 7.5215c-0.58926 2.7278-1.7129 8.1953-1.7129 8.1953s-0.34384 2.1598-2.2305 2.2812c-1.68 0.10818-2.9043-1.3477-2.9043-1.3477s1.8054-5.4404 2.334-8.248c0.71032-3.7731 1.8164-7.623 1.8164-7.623 0 0 0.53474-2.2747 2.334-2.3342z" fill="#4e4e4e"/>
  <rect id="rect835" x="24" y="32" width="3" height="3" ry="1.5" fill="#f68d59" fill-rule="evenodd" style="paint-order:normal"/>
  <rect id="rect837" x="29" y="28" width="3" height="1" fill="#f68d59" fill-rule="evenodd" style="paint-order:normal"/>
  <rect id="rect839" x="30" y="27" width="1" height="3" fill="#f68d59" fill-rule="evenodd" style="paint-order:normal"/>
  <rect id="rect837-1" x="19" y="38" width="3" height="1" fill="#f68d59" fill-rule="evenodd" style="paint-order:normal"/>
  <rect id="rect839-1" x="20" y="37" width="1" height="3" fill="#f68d59" fill-rule="evenodd" style="paint-order:normal"/>
  <path id="path859" d="m20.488 38.508 9.9587-10.011" fill="#f68d59" stroke="#f68d59" stroke-linecap="round" stroke-linejoin="round" stroke-width="1px"/>
 </g>
</svg>
