<?xml version="1.0" encoding="UTF-8"?>
<!-- Created with Inkscape (http://www.inkscape.org/) -->
<svg id="SVGRoot" width="48px" height="48px" version="1.1" viewBox="0 0 48 48" xmlns="http://www.w3.org/2000/svg" xmlns:cc="http://creativecommons.org/ns#" xmlns:dc="http://purl.org/dc/elements/1.1/" xmlns:rdf="http://www.w3.org/1999/02/22-rdf-syntax-ns#">
 <defs id="defs815">
  <style id="style819">.cls-1{fill:none;stroke:#fff;stroke-linecap:round;stroke-linejoin:round;}</style>
  <style id="style819-6">.cls-1{fill:none;stroke:#fff;stroke-linecap:round;stroke-linejoin:round;}</style>
  <style id="style819-60">.cls-1{fill:none;stroke:#fff;stroke-linecap:round;stroke-linejoin:round;}</style>
 </defs>
 <metadata id="metadata818">
  <rdf:RDF>
   <cc:Work rdf:about="">
    <dc:format>image/svg+xml</dc:format>
    <dc:type rdf:resource="http://purl.org/dc/dcmitype/StillImage"/>
    <dc:title/>
   </cc:Work>
  </rdf:RDF>
 </metadata>
 <g id="layer1">
  <rect id="rect1373-5" x="4" y="4" width="40" height="40" ry="8" fill="#4e4e4e" fill-rule="evenodd" style="paint-order:stroke fill markers"/>
  <path id="rect817" d="m12 4c-4.432 0-8 3.568-8 8v24c0 4.432 3.568 8 8 8h24c4.432 0 8-3.568 8-8v-24c0-4.432-3.568-8-8-8h-24zm0 1h24c3.878 0 7 3.122 7 7v24c0 3.878-3.122 7-7 7h-24c-3.878 0-7-3.122-7-7v-24c0-3.878 3.122-7 7-7z" fill-rule="evenodd" opacity=".4" style="paint-order:stroke fill markers"/>
  <path id="path828" d="m19 10s-6 6-5 14c0.86824 6.9459 10 14 10 14s9.1318-7.0541 10-14c1-8-5-14-5-14l-4 5h-2z" fill="#fff"/>
  <path id="path846" d="m21.5 33.491 2.594-2.9458 2.4182 2.9897" fill="none" stroke="#4e4e4e" stroke-linecap="round" stroke-linejoin="round" stroke-width="1px"/>
  <path id="path848" d="m16.469 21.178c-1.2883 1.0765 0.16044 4.4937 1.8221 6.0986 1.7449 1.6853 3.4116 2.2692 4.4493 1.1246 0.57127-0.63015 0.1992-2.8474-1.3136-4.5848-1.876-2.1546-4.2172-3.2573-4.9578-2.6384z" fill="#4e4e4e"/>
  <path id="path848-0" d="m31.557 21.178c1.2883 1.0765-0.16044 4.4937-1.8221 6.0986-1.7449 1.6853-3.4116 2.2692-4.4493 1.1246-0.57127-0.63015-0.1992-2.8474 1.3136-4.5848 1.876-2.1546 4.2172-3.2573 4.9578-2.6384z" fill="#4e4e4e"/>
 </g>
</svg>
