<?xml version="1.0" encoding="UTF-8"?>
<!-- Created with Inkscape (http://www.inkscape.org/) -->
<svg id="SVGRoot" width="48px" height="48px" version="1.1" viewBox="0 0 48 48" xmlns="http://www.w3.org/2000/svg" xmlns:cc="http://creativecommons.org/ns#" xmlns:dc="http://purl.org/dc/elements/1.1/" xmlns:rdf="http://www.w3.org/1999/02/22-rdf-syntax-ns#" xmlns:xlink="http://www.w3.org/1999/xlink">
 <defs id="defs815">
  <style id="style819">.cls-1{fill:none;stroke:#fff;stroke-linecap:round;stroke-linejoin:round;}</style>
 </defs>
 <metadata id="metadata818">
  <rdf:RDF>
   <cc:Work rdf:about="">
    <dc:format>image/svg+xml</dc:format>
    <dc:type rdf:resource="http://purl.org/dc/dcmitype/StillImage"/>
    <dc:title/>
   </cc:Work>
  </rdf:RDF>
 </metadata>
 <g id="layer1">
  <rect id="rect1373" x="4" y="4" width="40" height="40" ry="8" fill="#c2c2b7" fill-rule="evenodd" style="paint-order:stroke fill markers"/>
  <path id="rect817" d="m12 4c-4.432 0-8 3.568-8 8v24c0 4.432 3.568 8 8 8h24c4.432 0 8-3.568 8-8v-24c0-4.432-3.568-8-8-8h-24zm0 1h24c3.878 0 7 3.122 7 7v24c0 3.878-3.122 7-7 7h-24c-3.878 0-7-3.122-7-7v-24c0-3.878 3.122-7 7-7z" fill-rule="evenodd" opacity=".3" style="paint-order:stroke fill markers"/>
  <rect id="rect821-0" x="8" y="8" width="32" height="32" ry="5" fill="#4e4e4e" fill-rule="evenodd" style="paint-order:stroke fill markers"/>
  <rect id="rect822" x="20" y="28" width="8" height="2" fill="#fbf1c7" fill-rule="evenodd" style="paint-order:stroke fill markers"/>
  <path id="path833" d="m14.296 12.036c-0.71288 0-1.2876 0.70591-1.2876 1.5851 0 0.87922 0.57473 1.5876 1.2876 1.5876 0.71288 0 1.2851-0.70841 1.2851-1.5876-1e-6 -0.87922-0.57223-1.5851-1.2851-1.5851zm2.5577 1.0276c-0.48317 0-0.87007 0.47852-0.87007 1.0726 0 0.59406 0.3869 1.0726 0.87007 1.0726 0.48317 0 0.87257-0.47852 0.87257-1.0726 0-0.59406-0.3894-1.0726-0.87257-1.0726zm1.8727 1.1726c-0.3802 0-0.68506 0.3565-0.68506 0.80006 0 0.44357 0.30485 0.80256 0.68506 0.80256 0.3802 0 0.68756-0.359 0.68756-0.80256 0-0.44357-0.30735-0.80006-0.68756-0.80006zm1.4301 1.2876c-0.33268-2e-6 -0.60005 0.28611-0.60005 0.64255s0.26737 0.64505 0.60005 0.64505c0.33268 0 0.60255-0.28861 0.60255-0.64505s-0.26987-0.64255-0.60255-0.64255zm-4.6579 0.15251c-0.26181-0.0119-0.52259-0.0045-0.77506 0.02001-1.0668 0.1036-2.3024 0.94971-2.5152 2.0002-0.43115 2.1278 3.2218 3.552 3.1153 5.7205-0.08484 1.7269-2.0537 2.7888-2.9152 4.2878-0.98115 1.7072-0.12103 3.2045 1.0576 3.4603 3.1213 0.67738 5.1316-4.2248 6.348-7.1781 0.6981-1.695 1.0928-3.8305 0.31503-5.4904-0.82854-1.7682-2.7977-2.7369-4.6304-2.8202zm5.5054 1.2201c-0.2599 0-0.47004 0.22281-0.47004 0.50004 0 0.27723 0.21014 0.50004 0.47004 0.50004s0.46754-0.22281 0.46754-0.50004c0-0.27723-0.20763-0.50004-0.46754-0.50004z" fill="#fbf1c7"/>
 </g>
</svg>
