<?xml version="1.0" encoding="UTF-8"?>
<!-- Created with Inkscape (http://www.inkscape.org/) -->
<svg id="SVGRoot" width="48px" height="48px" version="1.1" viewBox="0 0 48 48" xmlns="http://www.w3.org/2000/svg" xmlns:cc="http://creativecommons.org/ns#" xmlns:dc="http://purl.org/dc/elements/1.1/" xmlns:rdf="http://www.w3.org/1999/02/22-rdf-syntax-ns#">
 <defs id="defs815">
  <style id="style819">.cls-1{fill:none;stroke:#fff;stroke-linecap:round;stroke-linejoin:round;}</style>
 </defs>
 <metadata id="metadata818">
  <rdf:RDF>
   <cc:Work rdf:about="">
    <dc:format>image/svg+xml</dc:format>
    <dc:type rdf:resource="http://purl.org/dc/dcmitype/StillImage"/>
    <dc:title/>
   </cc:Work>
  </rdf:RDF>
 </metadata>
 <g id="layer1">
  <path id="rect1373-5" d="m12 4c-4.432 0-8 3.568-8 8v24c0 4.432 3.568 8 8 8h2l30-30v-2c0-4.432-3.568-8-8-8h-24z" fill="#3772ae" fill-rule="evenodd" style="paint-order:stroke fill markers"/>
  <path id="rect853" d="m14 10c-2.216 0-4 1.784-4 4v26c0 2.216 1.784 4 4 4h22c4.432 0 8-3.568 8-8v-22c0-2.216-1.784-4-4-4h-26z" fill="#fff" fill-rule="evenodd" style="paint-order:stroke fill markers"/>
  <path id="rect817" d="m12 4c-4.432 0-8 3.568-8 8v24c0 4.432 3.568 8 8 8h24c4.432 0 8-3.568 8-8v-24c0-4.432-3.568-8-8-8h-24zm0 1h24c3.878 0 7 3.122 7 7v24c0 3.878-3.122 7-7 7h-24c-3.878 0-7-3.122-7-7v-24c0-3.878 3.122-7 7-7z" fill-rule="evenodd" opacity=".3" style="paint-order:stroke fill markers"/>
  <path id="rect855" d="m17 16c-0.554 0-1 0.446-1 1v25h20c3.324 0 6-2.676 6-6v-20h-25z" fill="#71b9e3" fill-rule="evenodd" style="paint-order:stroke fill markers"/>
  <rect id="rect879" x="10" y="26" width="18" height="6" fill="#fff" fill-rule="evenodd" style="paint-order:normal"/>
  <path id="path881" d="m27 23v12l9-6z" fill="#fff" stroke="#fff" stroke-linecap="round" stroke-linejoin="round" stroke-width="2"/>
 </g>
</svg>
