<?xml version="1.0" encoding="UTF-8"?>
<!-- Created with Inkscape (http://www.inkscape.org/) -->
<svg id="SVGRoot" width="48px" height="48px" version="1.1" viewBox="0 0 48 48" xmlns="http://www.w3.org/2000/svg" xmlns:cc="http://creativecommons.org/ns#" xmlns:dc="http://purl.org/dc/elements/1.1/" xmlns:rdf="http://www.w3.org/1999/02/22-rdf-syntax-ns#">
 <defs id="defs815">
  <style id="style819">.cls-1{fill:none;stroke:#fff;stroke-linecap:round;stroke-linejoin:round;}</style>
 </defs>
 <metadata id="metadata818">
  <rdf:RDF>
   <cc:Work rdf:about="">
    <dc:format>image/svg+xml</dc:format>
    <dc:type rdf:resource="http://purl.org/dc/dcmitype/StillImage"/>
    <dc:title/>
   </cc:Work>
  </rdf:RDF>
 </metadata>
 <g id="layer1">
  <rect id="rect1373-5" x="4" y="4" width="40" height="40" ry="8" fill="#f6a559" fill-rule="evenodd" style="paint-order:stroke fill markers"/>
  <path id="rect836" d="m7 7v24h7v5h20v-5h7v-24z" fill="#f6a559" fill-rule="evenodd" style="paint-order:normal"/>
  <rect id="rect841" x="14" y="23" width="20" height="13" ry="2" fill="#b7bfc2" fill-rule="evenodd" style="paint-order:normal"/>
  <rect id="rect827" x="10" y="12" width="28" height="20" ry="2" fill="#fff" fill-rule="evenodd" style="paint-order:normal"/>
  <path id="rect818" d="m34 34c0 1.108-0.892 2-2 2h-16c-1.108 0-2-0.892-2-2v4c0 1.108 0.892 2 2 2h16c1.108 0 2-0.892 2-2z" fill="#f9de81" fill-rule="evenodd" style="paint-order:normal"/>
  <path id="path902" d="M 12,14 20.746094,21.289062 14,29 21.804688,22.169922 24,24 26.195312,22.169922 34,29 27.253906,21.289062 36,14 24,22 Z" opacity=".25"/>
  <path id="rect876" d="m12 4c-4.432 0-8 3.568-8 8v14c0 4.432 3.568 8 8 8h2v-4h-1c-2.77 0-5-2.23-5-5v-12c0-2.77 2.23-5 5-5h22c2.77 0 5 2.23 5 5v12c0 2.77-2.23 5-5 5h-1v4h2c4.432 0 8-3.568 8-8v-14c0-4.432-3.568-8-8-8h-24z" fill="#f9de81" fill-rule="evenodd" style="paint-order:stroke fill markers"/>
  <path id="rect817" d="m12 4c-4.432 0-8 3.568-8 8v24c0 4.432 3.568 8 8 8h24c4.432 0 8-3.568 8-8v-24c0-4.432-3.568-8-8-8h-24zm0 1h24c3.878 0 7 3.122 7 7v24c0 3.878-3.122 7-7 7h-24c-3.878 0-7-3.122-7-7v-24c0-3.878 3.122-7 7-7z" fill-rule="evenodd" opacity=".3" style="paint-order:stroke fill markers"/>
 </g>
</svg>
