<?xml version="1.0" encoding="UTF-8"?>
<!-- Created with Inkscape (http://www.inkscape.org/) -->
<svg id="SVGRoot" width="48px" height="48px" version="1.1" viewBox="0 0 48 48" xml:space="preserve" xmlns="http://www.w3.org/2000/svg" xmlns:cc="http://creativecommons.org/ns#" xmlns:dc="http://purl.org/dc/elements/1.1/" xmlns:rdf="http://www.w3.org/1999/02/22-rdf-syntax-ns#"><defs><style>.cls-1{fill:none;stroke:#fff;stroke-linecap:round;stroke-linejoin:round;}</style><style>.cls-1{fill:none;stroke:#fff;stroke-linecap:round;stroke-linejoin:round;}</style><style>.cls-1{fill:none;stroke:#fff;stroke-linecap:round;stroke-linejoin:round;}</style><style>.cls-1{fill:none;stroke:#fff;stroke-linecap:round;stroke-linejoin:round;}</style><style>.a{fill:none;stroke:#b1b5bd;stroke-linecap:round;stroke-linejoin:round;isolation:isolate;opacity:0.63;}</style><style>.cls-1{fill:none;stroke:#fff;stroke-linecap:round;stroke-linejoin:round;}</style><style>.cls-1{fill:none;stroke:#fff;stroke-linecap:round;stroke-linejoin:round;}</style></defs><metadata><rdf:RDF><cc:Work rdf:about=""><dc:format>image/svg+xml</dc:format><dc:type rdf:resource="http://purl.org/dc/dcmitype/StillImage"/></cc:Work></rdf:RDF></metadata><rect x="4" y="4" width="40" height="40" ry="8" fill="#efefef" fill-rule="evenodd" style="paint-order:stroke fill markers"/><path d="m12 4c-4.432 0-8 3.568-8 8v24c0 4.432 3.568 8 8 8h24c4.432 0 8-3.568 8-8v-24c0-4.432-3.568-8-8-8zm0 1h24c3.878 0 7 3.122 7 7v24c0 3.878-3.122 7-7 7h-24c-3.878 0-7-3.122-7-7v-24c0-3.878 3.122-7 7-7z" fill-rule="evenodd" opacity=".3" style="paint-order:stroke fill markers"/><g stroke-linecap="round" stroke-linejoin="round"><rect x="12" y="12" width="24" height="24" ry="12" fill="#4e4e4e"/><rect x="14" y="14" width="20" height="20" ry="10" fill="#efefef"/><rect x="20" y="10" width="8" height="8" ry="4" fill="#4e4e4e"/><rect x="22" y="12" width="4" height="4" ry="2" fill="#9494f7"/><rect x="14" y="30" width="8" height="8" ry="4" fill="#4e4e4e"/><rect x="16" y="32" width="4" height="4" ry="2" fill="#9494f7"/><rect x="26" y="30" width="8" height="8" ry="4" fill="#4e4e4e"/><rect x="28" y="32" width="4" height="4" ry="2" fill="#9494f7"/><rect x="10" y="18" width="8" height="8" ry="4" fill="#4e4e4e"/><rect x="12" y="20" width="4" height="4" ry="2" fill="#9494f7"/><rect x="30" y="18" width="8" height="8" ry="4" fill="#4e4e4e"/><rect x="32" y="20" width="4" height="4" ry="2" fill="#9494f7"/></g></svg>
