<?xml version="1.0" encoding="UTF-8"?>
<!-- Created with Inkscape (http://www.inkscape.org/) -->
<svg id="SVGRoot" width="48px" height="48px" version="1.1" viewBox="0 0 48 48" xmlns="http://www.w3.org/2000/svg" xmlns:cc="http://creativecommons.org/ns#" xmlns:dc="http://purl.org/dc/elements/1.1/" xmlns:rdf="http://www.w3.org/1999/02/22-rdf-syntax-ns#" xmlns:xlink="http://www.w3.org/1999/xlink">
 <defs id="defs815">
  <style id="style819">.cls-1{fill:none;stroke:#fff;stroke-linecap:round;stroke-linejoin:round;}</style>
  <style id="style819-6">.cls-1{fill:none;stroke:#fff;stroke-linecap:round;stroke-linejoin:round;}</style>
  <style id="style819-79">.cls-1{fill:none;stroke:#fff;stroke-linecap:round;stroke-linejoin:round;}</style>
  <style id="style819-6-2">.cls-1{fill:none;stroke:#fff;stroke-linecap:round;stroke-linejoin:round;}</style>
  <style id="style819-4">.cls-1{fill:none;stroke:#fff;stroke-linecap:round;stroke-linejoin:round;}</style>
  <style id="style819-8">.cls-1{fill:none;stroke:#fff;stroke-linecap:round;stroke-linejoin:round;}</style>
  <style id="style2">.a{fill:none;stroke:#b1b5bd;stroke-linecap:round;stroke-linejoin:round;isolation:isolate;opacity:0.63;}</style>
  <style id="style819-7">.cls-1{fill:none;stroke:#fff;stroke-linecap:round;stroke-linejoin:round;}</style>
  <style id="style819-8-0">.cls-1{fill:none;stroke:#fff;stroke-linecap:round;stroke-linejoin:round;}</style>
  <style id="style2-3">.a{fill:none;stroke:#b1b5bd;stroke-linecap:round;stroke-linejoin:round;isolation:isolate;opacity:0.63;}</style>
  <style id="style819-2">.cls-1{fill:none;stroke:#fff;stroke-linecap:round;stroke-linejoin:round;}</style>
 </defs>
 <metadata id="metadata818">
  <rdf:RDF>
   <cc:Work rdf:about="">
    <dc:format>image/svg+xml</dc:format>
    <dc:type rdf:resource="http://purl.org/dc/dcmitype/StillImage"/>
    <dc:title/>
   </cc:Work>
  </rdf:RDF>
 </metadata>
 <g id="layer1">
  <rect id="rect1373-5" x="4" y="4" width="40" height="40" ry="8" fill="#7287ec" fill-rule="evenodd" style="paint-order:stroke fill markers"/>
  <path id="rect817" d="m12 4c-4.432 0-8 3.568-8 8v24c0 4.432 3.568 8 8 8h24c4.432 0 8-3.568 8-8v-24c0-4.432-3.568-8-8-8h-24zm0 1h24c3.878 0 7 3.122 7 7v24c0 3.878-3.122 7-7 7h-24c-3.878 0-7-3.122-7-7v-24c0-3.878 3.122-7 7-7z" fill-rule="evenodd" opacity=".3" style="paint-order:stroke fill markers"/>
  <path id="rect925" d="m9.5 9c-0.277 0-0.5 0.223-0.5 0.5v2.5h-1.5527c-0.24826 0-0.44727 0.199-0.44727 0.44727v0.10547c0 0.24826 0.199 0.44727 0.44727 0.44727h1.5527v4h-1.5c-0.277 0-0.5 0.223-0.5 0.5s0.223 0.5 0.5 0.5h1.5v18h-1.5527c-0.24826 0-0.44727 0.199-0.44727 0.44727v0.10547c0 0.24826 0.199 0.44727 0.44727 0.44727h1.5527v3.5c0 0.277 0.223 0.5 0.5 0.5s0.5-0.223 0.5-0.5v-3.5h28v3.5c0 0.277 0.223 0.5 0.5 0.5s0.5-0.223 0.5-0.5v-3.5h1.5527c0.24826 0 0.44727-0.199 0.44727-0.44727v-0.10547c0-0.24826-0.199-0.44727-0.44727-0.44727h-1.5527v-18h1.5c0.277 0 0.5-0.223 0.5-0.5s-0.223-0.5-0.5-0.5h-1.5v-4h1.5527c0.24826 0 0.44727-0.199 0.44727-0.44727v-0.10547c0-0.24826-0.199-0.44727-0.44727-0.44727h-1.5527v-2.5c0-0.277-0.223-0.5-0.5-0.5s-0.5 0.223-0.5 0.5v2.5h-28v-2.5c0-0.277-0.223-0.5-0.5-0.5zm0.5 4h28v4h-28zm0 5h28v18h-28zm5 2c-1.662 0-3 1.338-3 3s1.338 3 3 3 3-1.338 3-3-1.338-3-3-3zm0 1c1.108 0 2 0.892 2 2s-0.892 2-2 2-2-0.892-2-2 0.892-2 2-2zm0 1c-0.554 0-1 0.446-1 1s0.446 1 1 1 1-0.446 1-1-0.446-1-1-1zm0 6c-1.662 0-3 1.338-3 3s1.338 3 3 3 3-1.338 3-3-1.338-3-3-3zm0 1c1.108 0 2 0.892 2 2s-0.892 2-2 2-2-0.892-2-2 0.892-2 2-2zm7 1v4h14v-4zm1 1h12v2h-12z" fill-rule="evenodd" opacity=".3" style="paint-order:normal"/>
  <path id="path850" d="m42 18-34.602 21.854c1.0989 1.3122 2.7483 2.1465 4.6016 2.1465h24c3.324 0 6-2.676 6-6v-18zm-4 7v10c0 3-3 3-3 3h-17l20-13z" fill="#ffcd4b"/>
 </g>
</svg>
