<?xml version="1.0" encoding="UTF-8"?>
<!-- Created with Inkscape (http://www.inkscape.org/) -->
<svg id="SVGRoot" width="48px" height="48px" version="1.1" viewBox="0 0 48 48" xmlns="http://www.w3.org/2000/svg" xmlns:cc="http://creativecommons.org/ns#" xmlns:dc="http://purl.org/dc/elements/1.1/" xmlns:rdf="http://www.w3.org/1999/02/22-rdf-syntax-ns#">
 <defs id="defs815">
  <style id="style819">.cls-1{fill:none;stroke:#fff;stroke-linecap:round;stroke-linejoin:round;}</style>
 </defs>
 <metadata id="metadata818">
  <rdf:RDF>
   <cc:Work rdf:about="">
    <dc:format>image/svg+xml</dc:format>
    <dc:type rdf:resource="http://purl.org/dc/dcmitype/StillImage"/>
    <dc:title/>
   </cc:Work>
  </rdf:RDF>
 </metadata>
 <g id="layer1">
  <rect id="rect1373-5" x="4" y="4" width="40" height="40" ry="8" fill="#c4d9f5" fill-rule="evenodd" style="paint-order:stroke fill markers"/>
  <path id="rect817" d="m12 4c-4.432 0-8 3.568-8 8v24c0 4.432 3.568 8 8 8h24c4.432 0 8-3.568 8-8v-24c0-4.432-3.568-8-8-8h-24zm0 1h24c3.878 0 7 3.122 7 7v24c0 3.878-3.122 7-7 7h-24c-3.878 0-7-3.122-7-7v-24c0-3.878 3.122-7 7-7z" fill-rule="evenodd" opacity=".3" style="paint-order:stroke fill markers"/>
  <path id="path971" d="m11.882 9.9045a0.72672 0.72672 0 0 0-0.37053 1.3312c2.8328 1.8879 4.531 5.062 4.531 8.4628 0 1.748-0.45145 3.4618-1.3243 4.9679a0.72672 0.72672 0 0 0 0.23787 0.97894c2.9318 1.8686 4.7071 5.1005 4.7071 8.5771 0 0.23546-0.0085 0.46969-0.02744 0.74335a0.72672 0.72672 0 0 0 0.22644 0.57867c1.139 1.0688 2.4746 1.8638 3.918 2.3742a0.72672 0.72672 0 0 0 0.4849 0c1.4435-0.51032 2.7767-1.3053 3.9157-2.3742a0.72672 0.72672 0 0 0 0.22872-0.57867c-0.01897-0.27385-0.02745-0.50801-0.02745-0.74335 0-3.4766 1.772-6.7082 4.7163-8.5771a0.72672 0.72672 0 0 0 0.24245-0.97436c-0.86189-1.5077-1.3129-3.2244-1.3129-4.9724 0-3.4008 1.6982-6.5749 4.531-8.4628a0.72672 0.72672 0 0 0-0.44373-1.3289c-4.3855 0.23846-8.2062 2.965-9.9563 6.9806-0.681 0.15792-1.3856 0.26761-2.1248 0.26761-0.73985 0-1.4432-0.10939-2.1248-0.26761-1.7503-4.0152-5.5712-6.7422-9.9563-6.9806a0.72672 0.72672 0 0 0-0.0709-0.00235zm21.724 1.9716c-1.9266 2.1163-3.0306 4.8962-3.0306 7.8223a0.72672 0.72672 0 0 0 0.02287 0.18069c0.02724 1.725 0.47544 3.399 1.2443 4.9359-3.0485 2.1747-4.913 5.6464-4.913 9.4074 0 0.13115 9e-3 0.27611 0.01373 0.4117-0.86716 0.76512-1.8516 1.3559-2.9208 1.768-1.0691-0.41217-2.0537-1.0029-2.9208-1.768 0.0047-0.13562 0.01373-0.28061 0.01373-0.4117 0-3.7605-1.8627-7.2302-4.8993-9.4051 0.80597-1.5924 1.2786-3.3315 1.2786-5.1188 0-2.9256-1.1046-5.7039-3.0306-7.8201 2.8459 0.92949 5.199 3.0551 6.3196 5.9422a0.72672 0.72672 0 0 0 0.49176 0.44144c0.88538 0.23381 1.8118 0.34537 2.7584 0.34537 0.9466 0 1.8731-0.11156 2.7584-0.34537a0.72672 0.72672 0 0 0 0.49176-0.44144c1.1209-2.8879 3.475-5.0154 6.3219-5.9445z" color="#000000" color-rendering="auto" dominant-baseline="auto" fill="#3250b0" image-rendering="auto" shape-rendering="auto" solid-color="#000000" style="font-feature-settings:normal;font-variant-alternates:normal;font-variant-caps:normal;font-variant-ligatures:normal;font-variant-numeric:normal;font-variant-position:normal;isolation:auto;mix-blend-mode:normal;shape-padding:0;text-decoration-color:#000000;text-decoration-line:none;text-decoration-style:solid;text-indent:0;text-orientation:mixed;text-transform:none;white-space:normal"/>
  <path id="path1244-3-3" d="m21.115 22.125v2.9066" fill="none" stroke="#f01d0a" stroke-linecap="round" stroke-linejoin="round" stroke-width="1.4533"/>
  <path id="path1244-5-6" d="m26.955 22.125v2.9066" fill="none" stroke="#f01d0a" stroke-linecap="round" stroke-linejoin="round" stroke-width="1.4533"/>
  <circle id="circle1152-5" cx="22.568" cy="32.873" r=".72665" fill="#3250b0"/>
  <circle id="circle1154-6" cx="25.475" cy="32.873" r=".72665" fill="#3250b0"/>
 </g>
</svg>
