<?xml version="1.0" encoding="UTF-8"?>
<!-- Created with Inkscape (http://www.inkscape.org/) -->
<svg id="SVGRoot" width="48px" height="48px" version="1.1" viewBox="0 0 48 48" xmlns="http://www.w3.org/2000/svg" xmlns:cc="http://creativecommons.org/ns#" xmlns:dc="http://purl.org/dc/elements/1.1/" xmlns:rdf="http://www.w3.org/1999/02/22-rdf-syntax-ns#">
 <defs id="defs815">
  <style id="style819">.cls-1{fill:none;stroke:#fff;stroke-linecap:round;stroke-linejoin:round;}</style>
 </defs>
 <metadata id="metadata818">
  <rdf:RDF>
   <cc:Work rdf:about="">
    <dc:format>image/svg+xml</dc:format>
    <dc:type rdf:resource="http://purl.org/dc/dcmitype/StillImage"/>
    <dc:title/>
   </cc:Work>
  </rdf:RDF>
 </metadata>
 <g id="layer1">
  <path id="rect817-34" d="m12 12v24h24v-24zm1 1h22v22h-22z" fill-rule="evenodd" opacity=".25" style="paint-order:stroke fill markers"/>
  <path id="rect822-0" d="m24 10c-7.756 0-14 6.244-14 14s6.244 14 14 14 14-6.244 14-14-6.244-14-14-14zm0 1c7.202 0 13 5.798 13 13s-5.798 13-13 13-13-5.798-13-13 5.798-13 13-13z" fill-rule="evenodd" opacity=".25" style="paint-order:stroke fill markers"/>
  <rect id="rect1373-5" x="4" y="4" width="40" height="40" ry="8" fill="#b1835c" fill-rule="evenodd" style="paint-order:stroke fill markers"/>
  <rect id="rect828-8" x="10" y="8" width="28" height="32" ry="2" fill="#efefef" fill-rule="evenodd" style="paint-order:normal"/>
  <path id="rect817" d="m12 4c-4.432 0-8 3.568-8 8v24c0 4.432 3.568 8 8 8h24c4.432 0 8-3.568 8-8v-24c0-4.432-3.568-8-8-8h-24zm0 1h24c3.878 0 7 3.122 7 7v24c0 3.878-3.122 7-7 7h-24c-3.878 0-7-3.122-7-7v-24c0-3.878 3.122-7 7-7z" fill-rule="evenodd" opacity=".3" style="paint-order:stroke fill markers"/>
  <path id="path852" d="m32 22v-4s-2-1.9327-8-1.9327c-4.0139 0-9.9327 2.9327-9.9327 10.238 0 5.6943 3.9327 9.8135 9.9327 9.8135 4 0 8-2.1192 8-2.1192v-6h2v-2h-8v2h2v5s-1 1-4 1c-5 0-6-3-6-7.6943 0-5.9897 3-8.3057 6-8.3057 5 0 6 2 6 2v2z" fill="#d35244"/>
  <path id="rect830" d="m24 2c-1.3091 0-2.4068 0.83531-2.8184 2h-3.1816c-1.108 0-2 0.892-2 2v4h16v-4c0-1.108-0.892-2-2-2h-3.1816c-0.41156-1.1647-1.5093-2-2.8184-2zm0 2c0.554 0 1 0.446 1 1s-0.446 1-1 1-1-0.446-1-1 0.446-1 1-1z" fill="#b7bfc2" fill-rule="evenodd" style="paint-order:normal"/>
  <rect id="rect836" x="16" y="8" width="16" height="1" fill="#efefef" fill-rule="evenodd" style="paint-order:normal"/>
  <path id="rect830-5" d="m24 2c-1.3091 0-2.4068 0.83531-2.8184 2h-3.1816c-1.108 0-2 0.892-2 2v4h16v-4c0-1.108-0.892-2-2-2h-3.1816c-0.41156-1.1647-1.5093-2-2.8184-2zm0 1c0.88369 0 1.5995 0.55435 1.875 1.334l0.23633 0.66602h3.8887c0.5713 0 1 0.4287 1 1v3h-14v-3c0-0.5713 0.4287-1 1-1h3.8887l0.23633-0.66602c0.2755-0.77964 0.99131-1.334 1.875-1.334z" color="#000000" color-rendering="auto" dominant-baseline="auto" fill-rule="evenodd" image-rendering="auto" opacity=".25" shape-rendering="auto" solid-color="#000000" style="font-feature-settings:normal;font-variant-alternates:normal;font-variant-caps:normal;font-variant-ligatures:normal;font-variant-numeric:normal;font-variant-position:normal;isolation:auto;mix-blend-mode:normal;paint-order:normal;shape-padding:0;text-decoration-color:#000000;text-decoration-line:none;text-decoration-style:solid;text-indent:0;text-orientation:mixed;text-transform:none;white-space:normal"/>
 </g>
</svg>
