<?xml version="1.0" encoding="UTF-8"?>
<!-- Created with Inkscape (http://www.inkscape.org/) -->
<svg id="SVGRoot" width="48px" height="48px" version="1.1" viewBox="0 0 48 48" xmlns="http://www.w3.org/2000/svg" xmlns:cc="http://creativecommons.org/ns#" xmlns:dc="http://purl.org/dc/elements/1.1/" xmlns:rdf="http://www.w3.org/1999/02/22-rdf-syntax-ns#">
 <defs id="defs815">
  <style id="style819">.cls-1{fill:none;stroke:#fff;stroke-linecap:round;stroke-linejoin:round;}</style>
 </defs>
 <metadata id="metadata818">
  <rdf:RDF>
   <cc:Work rdf:about="">
    <dc:format>image/svg+xml</dc:format>
    <dc:type rdf:resource="http://purl.org/dc/dcmitype/StillImage"/>
    <dc:title/>
   </cc:Work>
  </rdf:RDF>
 </metadata>
 <g id="layer1">
  <rect id="rect1373-5" x="4" y="4" width="40" height="40" ry="8" fill="#efefef" fill-rule="evenodd" style="paint-order:stroke fill markers"/>
  <path id="rect817" d="m12 4c-4.432 0-8 3.568-8 8v24c0 4.432 3.568 8 8 8h24c4.432 0 8-3.568 8-8v-24c0-4.432-3.568-8-8-8h-24zm0 1h24c3.878 0 7 3.122 7 7v24c0 3.878-3.122 7-7 7h-24c-3.878 0-7-3.122-7-7v-24c0-3.878 3.122-7 7-7z" fill-rule="evenodd" opacity=".3" style="paint-order:stroke fill markers"/>
  <rect id="rect821" x="8" y="8" width="32" height="32" ry="5" fill="#729dec" fill-rule="evenodd" style="paint-order:stroke fill markers"/>
  <path id="path828-9" d="m24 13c-3.324 0-6 2.6778-6 6.004v1.0007c0 2.23 1.2055 4.1632 3 5.1987v1.8059s-4.9937 1.0007-5.9937 2.0013c-0.9234 0.92401-0.99068 3.4364-0.99609 3.834-2.25e-4 0.0082-0.0039 0.01519-0.0039 0.02345v0.25016c0 0.48543 0.38989 0.87558 0.875 0.87558h18.2c0.48511 0 0.73639-0.41036 0.875-0.87558v-0.25016c0-0.0083-0.0037-0.01524-0.0039-0.02345-0.0054-0.39756-0.0727-2.91-0.9961-3.834-1-1.0007-5.9565-2.0013-5.9565-2.0013v-1.8059c1.7945-1.0356 3-2.9688 3-5.1987v-1.0007c0-3.3262-2.676-6.004-6-6.004z" opacity=".4"/>
 </g>
</svg>
