<?xml version="1.0" encoding="UTF-8"?>
<!-- Created with Inkscape (http://www.inkscape.org/) -->
<svg id="SVGRoot" width="48px" height="48px" version="1.1" viewBox="0 0 48 48" xmlns="http://www.w3.org/2000/svg" xmlns:cc="http://creativecommons.org/ns#" xmlns:dc="http://purl.org/dc/elements/1.1/" xmlns:rdf="http://www.w3.org/1999/02/22-rdf-syntax-ns#">
 <defs id="defs815">
  <style id="style819">.cls-1{fill:none;stroke:#fff;stroke-linecap:round;stroke-linejoin:round;}</style>
 </defs>
 <metadata id="metadata818">
  <rdf:RDF>
   <cc:Work rdf:about="">
    <dc:format>image/svg+xml</dc:format>
    <dc:type rdf:resource="http://purl.org/dc/dcmitype/StillImage"/>
    <dc:title/>
   </cc:Work>
  </rdf:RDF>
 </metadata>
 <g id="layer1">
  <rect id="rect1373-5" x="4" y="4" width="40" height="40" ry="8" fill="#efefef" fill-rule="evenodd" style="paint-order:stroke fill markers"/>
  <path id="rect817" d="m12 4c-4.432 0-8 3.568-8 8v24c0 4.432 3.568 8 8 8h24c4.432 0 8-3.568 8-8v-24c0-4.432-3.568-8-8-8h-24zm0 1h24c3.878 0 7 3.122 7 7v24c0 3.878-3.122 7-7 7h-24c-3.878 0-7-3.122-7-7v-24c0-3.878 3.122-7 7-7z" fill-rule="evenodd" opacity=".3" style="paint-order:stroke fill markers"/>
  <path id="rect1044" d="m14 16c-1.108 0-2 0.892-2 2s0.892 2 2 2 2-0.892 2-2-0.892-2-2-2zm-8 0.0098v19.99c0 3.324 2.676 6 6 6h24c3.324 0 6-2.676 6-6-0.0026-3.0809 0-7 0-9.5 0-1.385-1.115-2.5-2.5-2.5-1.3121 0-2.3696 1.0041-2.4785 2.2871-0.29968-0.17876-0.64578-0.28711-1.0215-0.28711-0.06425 0-0.12484 0.01366-0.1875 0.01953 0.1153-0.31936 0.1875-0.65944 0.1875-1.0195 0-1.662-1.338-3-3-3s-3 1.338-3 3c0 0.78985 0.30914 1.5005 0.80469 2.0352-0.23361-0.014815-0.46565-0.035156-0.70313-0.035156-4.2798 0-7.9574 2.4488-9.7422 6.0215-0.9573-0.64568-2.1129-1.0215-3.3594-1.0215-0.34286 0-0.67706 0.03513-1.0039 0.08984 4.44e-4 -0.030206 0.003906-0.059513 0.003906-0.08984 0-1.5706-0.60303-2.9913-1.584-4.0586 0.18919 0.037123 0.3836 0.058594 0.58398 0.058594 1.662 0 3-1.338 3-3s-1.338-3-3-3c-0.4953 0-0.95432 0.13098-1.3652 0.3418-0.6288-1.3817-2.0125-2.3418-3.6348-2.3418-0.27163 0-0.53681 0.027004-0.79297 0.078125-0.69134-1.6291-1.8106-3.0225-3.207-4.0684zm31 1.9902c-0.554 0-1 0.446-1 1s0.446 1 1 1 1-0.446 1-1-0.446-1-1-1z" fill="#b7bfc2" fill-rule="evenodd" style="paint-order:normal"/>
  <path id="rect828" d="m21 28s-5 2-5 8c0 1.108 0.892 2 2 2s2-0.892 2-2c0-5 2-6 2-6h4s2 1 2 6c0 1.108 0.892 2 2 2s2-0.892 2-2c0-6-5-8-5-8z" fill="#d35244" fill-rule="evenodd" style="paint-order:normal"/>
  <path id="rect828-4" d="m21 28s-5 2-5 8c0 1.108 0.892 2 2 2s2-0.892 2-2c0-5 2-6 2-6h4s2 1 2 6c0 1.108 0.892 2 2 2s2-0.892 2-2c0-6-5-8-5-8zm0.26562 1h0.73438a1.0001 1.0001 0 0 0-0.44727 0.10547s-0.27934 0.1527-0.54102 0.39258c-0.26168 0.23987-0.57997 0.60431-0.88086 1.1309-0.60177 1.0531-1.1309 2.7378-1.1309 5.3711 0 0.5713-0.4287 1-1 1s-1-0.4287-1-1c0-5.313 4.0646-6.9221 4.2656-7zm4.7344 0h0.73438c0.20103 0.077924 4.2656 1.687 4.2656 7 0 0.5713-0.4287 1-1 1s-1-0.4287-1-1c0-2.6333-0.52909-4.318-1.1309-5.3711-0.30089-0.52655-0.61918-0.89099-0.88086-1.1309-0.26168-0.23987-0.54102-0.39258-0.54102-0.39258a1.0001 1.0001 0 0 0-0.44727-0.10547z" color="#000000" color-rendering="auto" dominant-baseline="auto" fill-rule="evenodd" image-rendering="auto" opacity=".25" shape-rendering="auto" solid-color="#000000" style="font-feature-settings:normal;font-variant-alternates:normal;font-variant-caps:normal;font-variant-ligatures:normal;font-variant-numeric:normal;font-variant-position:normal;isolation:auto;mix-blend-mode:normal;paint-order:normal;shape-padding:0;text-decoration-color:#000000;text-decoration-line:none;text-decoration-style:solid;text-indent:0;text-orientation:mixed;text-transform:none;white-space:normal"/>
  <path id="path845" d="m20 22c0 6 2 12 2 12h4s2-6 2-12c0-8-4-12-4-12s-4 4-4 12z" fill="#f97263"/>
  <path id="rect864" d="m22 16v2h2v-2zm2 2v2h2v-2zm2 0h1.6426c-0.13174-0.71733-0.29632-1.3792-0.47852-2h-1.1641zm0 2v2h2c0-0.70114-0.03964-1.3603-0.0957-2zm0 2h-2v2h2zm0 2v2h1.7305c0.08053-0.65391 0.14777-1.3193 0.19336-2zm-2 0h-2v2h2zm-2 0v-2h-2c0 0.67015 0.03185 1.3382 0.07617 2zm0-2h2v-2h-2zm0-2v-2h-1.6426c-0.11514 0.62698-0.20031 1.2993-0.26172 2z" fill="#fff" fill-rule="evenodd" style="paint-order:normal"/>
  <path id="path845-2" d="m24 10s-4 4-4 12c0 6 2 12 2 12h4s2-6 2-12c0-8-4-12-4-12zm0 1.7754c0.34042 0.42389 0.53179 0.52451 1.1055 1.6719 0.94037 1.8807 1.8945 4.7194 1.8945 8.5527 0 5.2404-1.4694 10.051-1.7676 11h-2.4648c-0.29817-0.94901-1.7676-5.7596-1.7676-11 0-3.8333 0.95416-6.672 1.8945-8.5527 0.57368-1.1474 0.76505-1.248 1.1055-1.6719z" color="#000000" color-rendering="auto" dominant-baseline="auto" image-rendering="auto" opacity=".25" shape-rendering="auto" solid-color="#000000" style="font-feature-settings:normal;font-variant-alternates:normal;font-variant-caps:normal;font-variant-ligatures:normal;font-variant-numeric:normal;font-variant-position:normal;isolation:auto;mix-blend-mode:normal;shape-padding:0;text-decoration-color:#000000;text-decoration-line:none;text-decoration-style:solid;text-indent:0;text-orientation:mixed;text-transform:none;white-space:normal"/>
  <path id="path952" d="m24 12s-2 3-2 7c0 8 1 14 1 14h1s-1-6-1-14c0-4 1-7 1-7z" fill="#fff" opacity=".5"/>
 </g>
</svg>
