<?xml version="1.0" encoding="UTF-8"?>
<!-- Created with Inkscape (http://www.inkscape.org/) -->
<svg id="SVGRoot" width="48px" height="48px" version="1.1" viewBox="0 0 48 48" xmlns="http://www.w3.org/2000/svg" xmlns:cc="http://creativecommons.org/ns#" xmlns:dc="http://purl.org/dc/elements/1.1/" xmlns:rdf="http://www.w3.org/1999/02/22-rdf-syntax-ns#">
 <defs id="defs815">
  <style id="style819">.cls-1{fill:none;stroke:#fff;stroke-linecap:round;stroke-linejoin:round;}</style>
  <style id="style819-6">.cls-1{fill:none;stroke:#fff;stroke-linecap:round;stroke-linejoin:round;}</style>
  <style id="style819-60">.cls-1{fill:none;stroke:#fff;stroke-linecap:round;stroke-linejoin:round;}</style>
  <style id="style819-67">.cls-1{fill:none;stroke:#fff;stroke-linecap:round;stroke-linejoin:round;}</style>
  <style id="style819-1">.cls-1{fill:none;stroke:#fff;stroke-linecap:round;stroke-linejoin:round;}</style>
  <style id="style819-7">.cls-1{fill:none;stroke:#fff;stroke-linecap:round;stroke-linejoin:round;}</style>
  <style id="style2">.a{fill:none;stroke:#b1b5bd;stroke-linecap:round;stroke-linejoin:round;isolation:isolate;opacity:0.63;}</style>
 </defs>
 <metadata id="metadata818">
  <rdf:RDF>
   <cc:Work rdf:about="">
    <dc:format>image/svg+xml</dc:format>
    <dc:type rdf:resource="http://purl.org/dc/dcmitype/StillImage"/>
    <dc:title/>
   </cc:Work>
  </rdf:RDF>
 </metadata>
 <g id="layer1">
  <rect id="rect1373-5" x="4" y="4" width="40" height="40" ry="8" fill="#ffdd75" fill-rule="evenodd" style="paint-order:stroke fill markers"/>
  <path id="rect817" d="m12 4c-4.432 0-8 3.568-8 8v24c0 4.432 3.568 8 8 8h24c4.432 0 8-3.568 8-8v-24c0-4.432-3.568-8-8-8h-24zm0 1h24c3.878 0 7 3.122 7 7v24c0 3.878-3.122 7-7 7h-24c-3.878 0-7-3.122-7-7v-24c0-3.878 3.122-7 7-7z" fill-rule="evenodd" opacity=".3" style="paint-order:stroke fill markers"/>
  <path id="rect841" d="m27 13c-6.094 0-11 4.906-11 11s4.906 11 11 11 11-4.906 11-11-4.906-11-11-11zm0 2c4.986 0 9 4.014 9 9s-4.014 9-9 9-9-4.014-9-9 4.014-9 9-9z" fill="#4e4e4e" fill-rule="evenodd" style="paint-order:normal"/>
  <rect id="rect846" x="25" y="22" width="4" height="4" ry="2" fill="#4e4e4e" fill-rule="evenodd" style="paint-order:normal"/>
  <path id="path848" d="m27 17v7" fill="none" stroke="#4e4e4e" stroke-linecap="round" stroke-width="2"/>
  <path id="path848-3" d="m27 24 5 5" fill="none" stroke="#4e4e4e" stroke-linecap="round" stroke-width="2"/>
  <rect id="rect872" x="30" y="20" width="16" height="10" ry="2" fill="#eba330" fill-rule="evenodd" style="paint-order:normal"/>
  <path id="rect874" d="m32 20c-1.108 0-2 0.892-2 2v6c0 1.108 0.892 2 2 2h12c1.108 0 2-0.892 2-2v-6c0-1.108-0.892-2-2-2zm0 1h12c0.554 0 1 0.446 1 1v6c0 0.554-0.446 1-1 1h-12c-0.554 0-1-0.446-1-1v-6c0-0.554 0.446-1 1-1z" fill-rule="evenodd" opacity=".25" style="paint-order:normal"/>
  <rect id="rect879" x="33" y="23" width="4" height="4" ry="2" fill="#ffdd75" fill-rule="evenodd" style="paint-order:normal"/>
  <path id="rect875-1" d="m12 6c-3.324 0-6 2.676-6 6v24c0 3.324 2.676 6 6 6v-34z" fill="#eba330" fill-rule="evenodd" style="paint-order:stroke fill markers"/>
 </g>
</svg>
