<?xml version="1.0" encoding="UTF-8"?>
<!-- Created with Inkscape (http://www.inkscape.org/) -->
<svg id="SVGRoot" width="48px" height="48px" version="1.1" viewBox="0 0 48 48" xmlns="http://www.w3.org/2000/svg" xmlns:cc="http://creativecommons.org/ns#" xmlns:dc="http://purl.org/dc/elements/1.1/" xmlns:rdf="http://www.w3.org/1999/02/22-rdf-syntax-ns#">
 <defs id="defs815">
  <style id="style819">.cls-1{fill:none;stroke:#fff;stroke-linecap:round;stroke-linejoin:round;}</style>
  <style id="style819-6">.cls-1{fill:none;stroke:#fff;stroke-linecap:round;stroke-linejoin:round;}</style>
  <style id="style819-60">.cls-1{fill:none;stroke:#fff;stroke-linecap:round;stroke-linejoin:round;}</style>
  <style id="style819-65">.cls-1{fill:none;stroke:#fff;stroke-linecap:round;stroke-linejoin:round;}</style>
  <style id="style819-67">.cls-1{fill:none;stroke:#fff;stroke-linecap:round;stroke-linejoin:round;}</style>
  <style id="style819-6-6">.cls-1{fill:none;stroke:#fff;stroke-linecap:round;stroke-linejoin:round;}</style>
  <style id="style819-3">.cls-1{fill:none;stroke:#fff;stroke-linecap:round;stroke-linejoin:round;}</style>
 </defs>
 <metadata id="metadata818">
  <rdf:RDF>
   <cc:Work rdf:about="">
    <dc:format>image/svg+xml</dc:format>
    <dc:type rdf:resource="http://purl.org/dc/dcmitype/StillImage"/>
    <dc:title/>
   </cc:Work>
  </rdf:RDF>
 </metadata>
 <g id="layer1">
  <rect id="rect1373-5" x="4" y="4" width="40" height="40" ry="8" fill-rule="evenodd" opacity=".5" style="paint-order:stroke fill markers"/>
  <path id="rect817" d="m12 4c-4.432 0-8 3.568-8 8v24c0 4.432 3.568 8 8 8h24c4.432 0 8-3.568 8-8v-24c0-4.432-3.568-8-8-8h-24zm0 1h24c3.878 0 7 3.122 7 7v24c0 3.878-3.122 7-7 7h-24c-3.878 0-7-3.122-7-7v-24c0-3.878 3.122-7 7-7z" fill-rule="evenodd" opacity=".4" style="paint-order:stroke fill markers"/>
  <rect id="rect860" x="8" y="8" width="14" height="14" ry="4" fill="#efefef" fill-rule="evenodd" style="paint-order:stroke fill markers"/>
  <path id="rect855" d="m12 8c-2.216 0-4 1.784-4 4v6c0 2.216 1.784 4 4 4h6c2.216 0 4-1.784 4-4v-6c0-2.216-1.784-4-4-4zm0 1h6c1.662 0 3 1.338 3 3v6c0 1.662-1.338 3-3 3h-6c-1.662 0-3-1.338-3-3v-6c0-1.662 1.338-3 3-3z" fill-rule="evenodd" opacity=".3" style="paint-order:stroke fill markers"/>
  <rect id="rect860-2" x="26" y="8" width="14" height="14" ry="4" fill="#efefef" fill-rule="evenodd" style="paint-order:stroke fill markers"/>
  <path id="rect855-6" d="m30 8c-2.216 0-4 1.784-4 4v6c0 2.216 1.784 4 4 4h6c2.216 0 4-1.784 4-4v-6c0-2.216-1.784-4-4-4zm0 1h6c1.662 0 3 1.338 3 3v6c0 1.662-1.338 3-3 3h-6c-1.662 0-3-1.338-3-3v-6c0-1.662 1.338-3 3-3z" fill-rule="evenodd" opacity=".3" style="paint-order:stroke fill markers"/>
  <rect id="rect860-3" x="8" y="26" width="14" height="14" ry="4" fill="#efefef" fill-rule="evenodd" style="paint-order:stroke fill markers"/>
  <path id="rect855-61" d="m12 26c-2.216 0-4 1.784-4 4v6c0 2.216 1.784 4 4 4h6c2.216 0 4-1.784 4-4v-6c0-2.216-1.784-4-4-4zm0 1h6c1.662 0 3 1.338 3 3v6c0 1.662-1.338 3-3 3h-6c-1.662 0-3-1.338-3-3v-6c0-1.662 1.338-3 3-3z" fill-rule="evenodd" opacity=".3" style="paint-order:stroke fill markers"/>
  <rect id="rect860-2-9" x="26" y="26" width="14" height="14" ry="4" fill="#efefef" fill-rule="evenodd" style="paint-order:stroke fill markers"/>
  <path id="rect855-6-7" d="m30 26c-2.216 0-4 1.784-4 4v6c0 2.216 1.784 4 4 4h6c2.216 0 4-1.784 4-4v-6c0-2.216-1.784-4-4-4zm0 1h6c1.662 0 3 1.338 3 3v6c0 1.662-1.338 3-3 3h-6c-1.662 0-3-1.338-3-3v-6c0-1.662 1.338-3 3-3z" fill-rule="evenodd" opacity=".3" style="paint-order:stroke fill markers"/>
  <path id="path896-5" d="m18.293 10.042c-0.53487-0.0349-1.2192 0.35223-1.5489 0.75887-0.43486 0.5364-0.71545 1.6892-0.1375 2.0671 0.55239 0.36118 1.4737-0.37387 1.8777-0.89573 0.36067-0.46585 0.70165-1.3333 0.27501-1.7396-0.12636-0.12034-0.28806-0.17906-0.46635-0.19069zm-3.2709 0.46635c-0.40765-0.01157-0.72143 0.42044-0.70634 0.99886 0.0096 0.3672 0.0986 0.97342 0.46505 0.99886 0.46392 0.03221 0.67593-0.71358 0.75758-1.1714 0.08867-0.49724-0.19142-0.81711-0.51629-0.82633zm-2.0989 0.68169c-0.04033 0.0025-0.08128 0.01018-0.12324 0.024-0.38828 0.12786-0.35488 0.81858-0.22377 1.2058 0.1017 0.30034 0.40187 0.72838 0.70569 0.63758 0.36961-0.11046 0.38968-0.74601 0.29317-1.1195-0.13128-0.50803-0.36952-0.76547-0.65185-0.74785zm-1.4496 1.1189c-0.04601-0.0012-0.09241 0.0067-0.13815 0.0253-0.36591 0.14821-0.30301 0.8993-0.13751 1.2226 0.1655 0.32333 0.53464 0.59991 0.82698 0.46505 0.29234-0.13486 0.3086-0.63168 0.18939-0.96448-0.10431-0.2912-0.41866-0.74009-0.74071-0.7485zm4.0506 1.1422c-1.3532 0.05333-2.8888 0.53085-3.4993 1.6559-0.52146 0.96105-0.02967 2.3416 0.62007 3.221 0.61816 0.83666 1.7198 1.7118 2.7559 1.6196 1.0182-0.09067 2.3565-1.0295 2.4115-2.0503 0.01857-0.34462-0.39572-0.71372-0.74071-0.7232-1.1724-0.03222-0.98063 1.3345-1.7227 1.3089-0.40999-0.01412-0.779-0.31317-0.79195-0.7232-0.03657-1.1581 3.0898-1.5675 3.1004-3.4791 0.0032-0.59071-0.9777-0.79773-1.5677-0.82698-0.18263-9e-3 -0.37227-0.01022-0.56559-0.0026z" fill="#7c8487"/>
  <rect id="rect1018" x="29" y="29" width="8" height="8" ry="4" fill="#7c8487" fill-rule="evenodd" style="paint-order:normal"/>
  <rect id="rect1020" x="28" y="32" width="10" height="2" ry=".94985" fill="#7c8487" fill-rule="evenodd" style="paint-order:normal"/>
  <rect id="rect1020-2" transform="rotate(90)" x="28" y="-34" width="10" height="2" ry="1" fill="#7c8487" fill-rule="evenodd" style="paint-order:normal"/>
  <rect id="rect1020-6" transform="rotate(-45)" x="-5" y="45.669" width="10" height="2" ry=".94985" fill="#7c8487" fill-rule="evenodd" style="paint-order:normal"/>
  <rect id="rect1020-2-4" transform="rotate(45)" x="41.669" y="-1" width="10" height="2" ry="1" fill="#7c8487" fill-rule="evenodd" style="paint-order:normal"/>
  <rect id="rect1055" x="31" y="31" width="4" height="4" ry="2" fill="#efefef" fill-rule="evenodd" style="paint-order:normal"/>
 </g>
</svg>
