<?xml version="1.0" encoding="UTF-8"?>
<!-- Created with Inkscape (http://www.inkscape.org/) -->
<svg id="SVGRoot" width="48px" height="48px" version="1.1" viewBox="0 0 48 48" xmlns="http://www.w3.org/2000/svg" xmlns:cc="http://creativecommons.org/ns#" xmlns:dc="http://purl.org/dc/elements/1.1/" xmlns:rdf="http://www.w3.org/1999/02/22-rdf-syntax-ns#" xmlns:xlink="http://www.w3.org/1999/xlink">
 <defs id="defs815">
  <style id="style819">.cls-1{fill:none;stroke:#fff;stroke-linecap:round;stroke-linejoin:round;}</style>
  <linearGradient id="linearGradient989" x1="27" x2="23" y1="20" y2="20" gradientUnits="userSpaceOnUse">
   <stop id="stop983" stop-color="#549b67" offset="0"/>
   <stop id="stop985" stop-color="#52735b" stop-opacity="0" offset="1"/>
  </linearGradient>
  <linearGradient id="linearGradient1010" x1="24" x2="24" y1="15" y2="34" gradientUnits="userSpaceOnUse">
   <stop id="stop1004" stop-color="#4e4e4e" offset="0"/>
   <stop id="stop1006" stop-color="#549b67" offset="1"/>
  </linearGradient>
 </defs>
 <metadata id="metadata818">
  <rdf:RDF>
   <cc:Work rdf:about="">
    <dc:format>image/svg+xml</dc:format>
    <dc:type rdf:resource="http://purl.org/dc/dcmitype/StillImage"/>
    <dc:title/>
   </cc:Work>
  </rdf:RDF>
 </metadata>
 <g id="layer1">
  <rect id="rect1373-5" x="4" y="4" width="40" height="40" ry="8" fill="#efefef" fill-rule="evenodd" style="paint-order:stroke fill markers"/>
  <path id="rect817" d="m12 4c-4.432 0-8 3.568-8 8v24c0 4.432 3.568 8 8 8h24c4.432 0 8-3.568 8-8v-24c0-4.432-3.568-8-8-8h-24zm0 1h24c3.878 0 7 3.122 7 7v24c0 3.878-3.122 7-7 7h-24c-3.878 0-7-3.122-7-7v-24c0-3.878 3.122-7 7-7z" fill-rule="evenodd" opacity=".3" style="paint-order:stroke fill markers"/>
  <path id="rect822-1" d="m24 10c-7.756 0-14 6.244-14 14s6.244 14 14 14 14-6.244 14-14-6.244-14-14-14zm0 1c7.202 0 13 5.798 13 13s-5.798 13-13 13-13-5.798-13-13 5.798-13 13-13z" fill-rule="evenodd" opacity=".25" style="paint-order:stroke fill markers"/>
  <path id="path898" d="m11.959 7.959a4.0004 4.0004 0 0 0-2.7871 6.8691l9.1719 9.1719-9.1719 9.1719a4.0004 4.0004 0 1 0 5.6562 5.6562l9.1719-9.1719 9.1719 9.1719a4.0004 4.0004 0 1 0 5.6562-5.6562l-9.1719-9.1719 9.1719-9.1719a4.0004 4.0004 0 0 0-2.9062-6.8672 4.0004 4.0004 0 0 0-2.75 1.2109l-9.1719 9.1719-9.1719-9.1719a4.0004 4.0004 0 0 0-2.8691-1.2129z" color="#000000" color-rendering="auto" dominant-baseline="auto" fill="#b7bfc2" image-rendering="auto" shape-rendering="auto" solid-color="#000000" style="font-feature-settings:normal;font-variant-alternates:normal;font-variant-caps:normal;font-variant-ligatures:normal;font-variant-numeric:normal;font-variant-position:normal;isolation:auto;mix-blend-mode:normal;shape-padding:0;text-decoration-color:#000000;text-decoration-line:none;text-decoration-style:solid;text-indent:0;text-orientation:mixed;text-transform:none;white-space:normal"/>
  <rect id="rect881-0" x="8" y="8" width="32" height="32" ry="16" fill="#b7bfc2" fill-rule="evenodd" style="paint-order:normal"/>
  <rect id="rect881" x="12" y="12" width="24" height="24" ry="12" fill="url(#linearGradient1010)" fill-rule="evenodd" style="paint-order:normal"/>
  <path id="rect999" d="m23 12v4.0684c-3.6276 0.44941-6.4822 3.3041-6.9316 6.9316h-4.0684v2h4.0684c0.44941 3.6276 3.3041 6.4822 6.9316 6.9316v4.0684h2v-4.0684c3.6276-0.44941 6.4822-3.3041 6.9316-6.9316h4.0684v-2h-4.0684c-0.44941-3.6276-3.3041-6.4822-6.9316-6.9316v-4.0684zm0 6.0898v4.9102h-4.9102c0.41989-2.5181 2.392-4.4903 4.9102-4.9102zm2 0c2.5181 0.41989 4.4903 2.392 4.9102 4.9102h-4.9102zm-6.9102 6.9102h4.9102v4.9102c-2.5181-0.41989-4.4903-2.392-4.9102-4.9102zm6.9102 0h4.9102c-0.41989 2.5181-2.392 4.4903-4.9102 4.9102z" fill-rule="evenodd" opacity=".25" style="paint-order:normal"/>
  <path id="rect981" d="m24 14c-2.77 0-5.2706 1.1144-7.0781 2.9219l7.0781 7.0781 7.0781-7.0781c-1.8075-1.8075-4.3081-2.9219-7.0781-2.9219z" fill="url(#linearGradient989)" fill-rule="evenodd" style="paint-order:normal"/>
  <path id="path934" d="m24 24 7-7" fill="none" stroke="#96d56b" stroke-linecap="round" stroke-linejoin="round" stroke-width="2"/>
  <rect id="rect1013" x="22" y="16" width="2" height="2" ry="1" fill="#96d56b" fill-rule="evenodd" style="paint-order:normal"/>
  <rect id="rect1013-4" x="20" y="26" width="2" height="2" ry="1" fill="#96d56b" fill-rule="evenodd" style="paint-order:normal"/>
  <rect id="rect1013-9" x="28" y="28" width="2" height="2" ry="1" fill="#96d56b" fill-rule="evenodd" style="paint-order:normal"/>
  <path id="rect881-0-0" d="m24 8c-8.864 0-16 7.136-16 16s7.136 16 16 16 16-7.136 16-16-7.136-16-16-16zm0 1c8.31 0 15 6.69 15 15s-6.69 15-15 15-15-6.69-15-15 6.69-15 15-15z" fill-rule="evenodd" opacity=".25" style="paint-order:normal"/>
 </g>
</svg>
