<?xml version="1.0" encoding="UTF-8"?>
<!-- Created with Inkscape (http://www.inkscape.org/) -->
<svg id="SVGRoot" width="48px" height="48px" version="1.1" viewBox="0 0 48 48" xmlns="http://www.w3.org/2000/svg" xmlns:cc="http://creativecommons.org/ns#" xmlns:dc="http://purl.org/dc/elements/1.1/" xmlns:rdf="http://www.w3.org/1999/02/22-rdf-syntax-ns#">
 <defs id="defs815">
  <style id="style819">.cls-1{fill:none;stroke:#fff;stroke-linecap:round;stroke-linejoin:round;}</style>
 </defs>
 <metadata id="metadata818">
  <rdf:RDF>
   <cc:Work rdf:about="">
    <dc:format>image/svg+xml</dc:format>
    <dc:type rdf:resource="http://purl.org/dc/dcmitype/StillImage"/>
    <dc:title/>
   </cc:Work>
  </rdf:RDF>
 </metadata>
 <g id="layer1">
  <rect id="rect1373-5" x="4" y="4" width="40" height="40" ry="8" fill="#ffdd75" fill-rule="evenodd" style="paint-order:stroke fill markers"/>
  <path id="rect887" d="m12 4c-3.6432 0-6.6963 2.4124-7.6699 5.7324 0.17765 0.16232 0.4092 0.26758 0.66992 0.26758h38.74c-0.88468-3.4566-4.0003-6-7.7402-6h-24z" fill="#fff" fill-rule="evenodd" opacity=".4" style="paint-order:stroke fill markers"/>
  <path id="rect817" d="m12 4c-4.432 0-8 3.568-8 8v24c0 4.432 3.568 8 8 8h24c4.432 0 8-3.568 8-8v-24c0-4.432-3.568-8-8-8h-24zm0 1h24c3.878 0 7 3.122 7 7v24c0 3.878-3.122 7-7 7h-24c-3.878 0-7-3.122-7-7v-24c0-3.878 3.122-7 7-7z" fill-rule="evenodd" opacity=".3" style="paint-order:stroke fill markers"/>
  <path id="path828" d="m43 20s-3 18-4 19-17 4-17 4h14c3.878 0 7-3.122 7-7v-16z" opacity=".3"/>
  <path id="path911" d="m9.0458 22.598c0.42009 0.30741-0.51986 1.3322-0.023328 1.4885 1.1318 0.35628 2.531-1.0885 3.4109-2.0906 0.8305-0.94582 1.6182-2.787 1.5404-3.4476-0.11092-0.94173-0.92496-1.4878-0.40344-1.8338 0.51157-0.33947 0.87375-0.07105 1.5037 0.83021 0.26609 0.38067 1.1981 2.2043 1.7972 4.5612 1.9343-2.6818 3.9367-5.0454 6.7485-5.0614 2.2193-0.0126 2.659 1.7055 2.659 1.7055s-0.03338 0.6447-0.27507 0.67852c-0.24583 0.0344-0.45846-0.58682-0.45846-0.58682s-0.40438-1.0976-1.9989-1.0269c-1.7278 0.07652-3.8662 2.2526-5.4963 4.6654-0.63483 0.93965-1.1926 1.9152-1.6189 2.8167-0.12567 0.2657-0.33777 0.69242-0.6235 0.6235-0.38712-0.09337-0.48274-0.75601-0.36677-1.137 0.3223-1.0587 0.2621-1.5574 0.16558-2.3258-0.17415-1.3866-0.64238-1.7086-0.64238-1.7086s-1.0776 1.3759-1.7605 1.9072c-1.2953 1.0077-2.7113 2.6301-4.3278 2.3473-0.95044-0.1663-1.2399-1.0022-1.0914-1.6656 0.13496-0.60292 0.76283-1.1047 1.2614-0.73982z" opacity=".4"/>
  <path id="path913" d="m29.695 18.299c-0.23881 0.0057-0.55056 0.24692-0.72656 0.42188-0.69444 0.69031-2.2656 2.2695-2.2656 2.2695s-0.92411 0.20718-1.5215 0.40039c-0.1339 0.04331 0.04451 0.26159 0.3125 0.28711 0.16328 0.01555 0.62109-0.04687 0.62109-0.04687s-0.98323 1.3316-1.9375 2.0371c-0.30712 0.22705-1.354 0.36313-1.4082 0.16211-0.08251-0.30612-0.07735-0.6342-0.18164-0.93359-0.08649-0.24829-0.09968-0.67539-0.36133-0.70117-0.27543-0.02713-0.65208 0.28697-0.51953 0.64844 0.12532 0.34175 0.10023 0.77253-0.07813 1.0898-0.32395 0.57634-0.95421 1.0083-1.6074 0.90625-0.28989-0.0453-0.39146-0.30365-0.36328-0.5957 0.04606-0.47731 0.52817-0.574 0.93359-0.83008 0.18677-0.11797 0.5566-0.11546 0.57031-0.33594 0.01491-0.23989-0.33091-0.46275-0.57031-0.44141-0.69321 0.06179-1.4984 0.72363-1.8672 1.6074-0.03153 0.59213 0.45386 1.1899 1.0371 1.2969 0.89099 0.16337 1.775-0.57451 2.5684-1.0117 0.36914-0.20343 1.3839-0.27097 1.3887 0.21094 0.0042 0.41953 0.43676 0.97261 1.2305 1.0332 1.0686 0.08158 2.8125-0.93359 2.8125-0.93359s0.14899 0.65398 1.6992 0.72656c0.77933 0.03648 2.2559-0.62109 2.2559-0.62109 0 1e-6 0.32962 0.83797 1.5059 0.51758 0.66857-0.18211 1.1406-1.7383 1.1406-1.7383s0.8734-0.44969 1.4785-1.0098c0.23687-0.21924 0.39966-0.65064 0.16211-0.86914-0.07897-0.07263-0.58731 0.27058-0.86328 0.45312-0.51993 0.34391-1.0098 0.58207-1.5307 0.8426-0.61037 0.30528-1.8658 0.84294-1.8658 0.84294s-7e-3 -0.36352 0-0.54492c0.0073-0.1895-0.14627-0.33323-0.28516-0.31055-0.16805 0.02744-0.24709 0.28476-0.20898 0.4668 0.03961 0.1892 0.10352 0.57031 0.10352 0.57031s-0.95933 0.67585-1.5547 0.64844c-1.3579-0.06251-1.1152-0.62305-1.1152-0.62305s1.5204-0.43423 1.6602-1.0371c0.08398-0.36222-0.28735-0.81756-0.64844-0.90625-0.72462-0.17799-1.3189 0.39567-1.7773 0.98438-0.21777 0.27964-0.45312 1.0645-0.45312 1.0645s-1.6663 1.0636-2.3086 0.5957c-0.23798-0.17336-0.23764-0.65174-0.05273-0.88086 0.87432-1.0834 2.334-2.4395 2.334-2.4395s10.078-0.42107 12.293-0.28516c0.4815 0.02954-0.24278-0.84827-1.166-0.85547-3.6656-0.02867-10.893 0.57031-10.893 0.57031s1.2051-1.2915 1.9453-2.0215c0.15693-0.15476 0.43305-0.43425 0.28516-0.59766-0.05551-0.06133-0.12743-0.08587-0.20703-0.08398zm-0.38086 4.6309c0.11642 0.02427 0.22291 0.08123 0.28906 0.17383 0.13336 0.18667-0.2922 0.38326-0.50586 0.4668-0.20128 0.0787-0.63445 0.21567-0.64844 0-0.01082-0.16677 0.263-0.53862 0.51953-0.62305 0.10356-0.03408 0.22928-0.04185 0.3457-0.01758zm4.3086 0.82226s0.02008 0.77927-0.73828 1.0508c-0.42089 0.15069-0.93788-0.06797-0.74024-0.23438 0.69617-0.58614 1.4785-0.81641 1.4785-0.81641z" opacity=".4"/>
 </g>
</svg>
