<?xml version="1.0" encoding="UTF-8"?>
<!-- Created with Inkscape (http://www.inkscape.org/) -->
<svg id="SVGRoot" width="48px" height="48px" version="1.1" viewBox="0 0 48 48" xmlns="http://www.w3.org/2000/svg" xmlns:cc="http://creativecommons.org/ns#" xmlns:dc="http://purl.org/dc/elements/1.1/" xmlns:rdf="http://www.w3.org/1999/02/22-rdf-syntax-ns#">
 <defs id="defs815">
  <style id="style819">.cls-1{fill:none;stroke:#fff;stroke-linecap:round;stroke-linejoin:round;}</style>
 </defs>
 <metadata id="metadata818">
  <rdf:RDF>
   <cc:Work rdf:about="">
    <dc:format>image/svg+xml</dc:format>
    <dc:type rdf:resource="http://purl.org/dc/dcmitype/StillImage"/>
    <dc:title/>
   </cc:Work>
  </rdf:RDF>
 </metadata>
 <g id="layer1" fill-rule="evenodd">
  <rect id="rect1373-5" x="4" y="4" width="40" height="40" ry="8" fill="#efefef" style="paint-order:stroke fill markers"/>
  <path id="rect817" d="m12 4c-4.432 0-8 3.568-8 8v24c0 4.432 3.568 8 8 8h24c4.432 0 8-3.568 8-8v-24c0-4.432-3.568-8-8-8h-24zm0 1h24c3.878 0 7 3.122 7 7v24c0 3.878-3.122 7-7 7h-24c-3.878 0-7-3.122-7-7v-24c0-3.878 3.122-7 7-7z" opacity=".3" style="paint-order:stroke fill markers"/>
  <path id="rect818" d="m24 10c-1.108 0-2 0.892-2 2v4c0 1.108 0.892 2 2 2s2-0.892 2-2v-4c0-1.108-0.892-2-2-2zm-9.0215 2.9805a2.0002 2.0002 0 0 0-1.3926 3.4336l3 3a2.0002 2.0002 0 1 0 2.8281-2.8281l-3-3a2.0002 2.0002 0 0 0-1.4355-0.60547zm17.982 0a2.0002 2.0002 0 0 0-1.375 0.60547l-3 3a2.0002 2.0002 0 1 0 2.8281 2.8281l3-3a2.0002 2.0002 0 0 0-1.4531-3.4336zm-20.961 9.0195c-1.108 0-2 0.892-2 2s0.892 2 2 2h4c1.108 0 2-0.892 2-2s-0.892-2-2-2h-4zm20 0c-1.108 0-2 0.892-2 2s0.892 2 2 2h4c1.108 0 2-0.892 2-2s-0.892-2-2-2h-4zm-14.039 5.9805a2.0002 2.0002 0 0 0-1.375 0.60547l-3 3a2.0002 2.0002 0 1 0 2.8281 2.8281l3-3a2.0002 2.0002 0 0 0-1.4531-3.4336zm12.018 0a2.0002 2.0002 0 0 0-1.3926 3.4336l3 3a2.0002 2.0002 0 1 0 2.8281-2.8281l-3-3a2.0002 2.0002 0 0 0-1.4355-0.60547zm-5.9785 2.0195c-1.108 0-2 0.892-2 2v4c0 1.108 0.892 2 2 2s2-0.892 2-2v-4c0-1.108-0.892-2-2-2z" opacity=".4" style="paint-order:stroke fill markers"/>
 </g>
</svg>
