<?xml version="1.0" encoding="UTF-8"?>
<!-- Created with Inkscape (http://www.inkscape.org/) -->
<svg id="SVGRoot" width="48px" height="48px" version="1.1" viewBox="0 0 48 48" xmlns="http://www.w3.org/2000/svg" xmlns:cc="http://creativecommons.org/ns#" xmlns:dc="http://purl.org/dc/elements/1.1/" xmlns:rdf="http://www.w3.org/1999/02/22-rdf-syntax-ns#">
 <defs id="defs815">
  <style id="style819">.cls-1{fill:none;stroke:#fff;stroke-linecap:round;stroke-linejoin:round;}</style>
 </defs>
 <metadata id="metadata818">
  <rdf:RDF>
   <cc:Work rdf:about="">
    <dc:format>image/svg+xml</dc:format>
    <dc:type rdf:resource="http://purl.org/dc/dcmitype/StillImage"/>
    <dc:title/>
   </cc:Work>
  </rdf:RDF>
 </metadata>
 <g id="layer1">
  <rect id="rect1373-5" x="4" y="4" width="40" height="40" ry="8" fill="#efefef" fill-rule="evenodd" style="paint-order:stroke fill markers"/>
  <path id="rect817" d="m12 4c-4.432 0-8 3.568-8 8v24c0 4.432 3.568 8 8 8h24c4.432 0 8-3.568 8-8v-24c0-4.432-3.568-8-8-8h-24zm0 1h24c3.878 0 7 3.122 7 7v24c0 3.878-3.122 7-7 7h-24c-3.878 0-7-3.122-7-7v-24c0-3.878 3.122-7 7-7z" fill-rule="evenodd" opacity=".3" style="paint-order:stroke fill markers"/>
  <path id="rect828" d="m11 10c-1.108 0-2 0.892-2 2v24.046c0 1.108 0.892 2 2 2h4.0374c1.108 0 2-0.892 2-2v-24.046c0-1.108-0.892-2-2-2zm0 1h4.0374c0.554 0 1 0.446 1 1v24.046c0 0.554-0.446 1-1 1h-4.0374c-0.554 0-1-0.446-1-1v-24.046c0-0.554 0.446-1 1-1z" fill-rule="evenodd" opacity=".3" style="paint-order:normal"/>
  <path id="path834" d="m11 24 4-3v6z" opacity=".4"/>
  <path id="path896" d="m20.347 21.008c-0.37746-0.73741-0.52026-2.4512 0.31428-2.7892 0.83454-0.33801 1.7317 0.89094 2.0035 1.65 0.27188 0.75902 0.2346 1.8924-0.43213 2.2-0.66673 0.30757-1.5082-0.32328-1.8857-1.0607z" opacity=".4"/>
  <path id="path898" d="m23.49 18.415c-0.29903-0.88306-0.37484-2.4583 0.5107-2.7499 0.76562-0.25212 1.4256 0.32576 1.7678 1.65 0.22012 0.85182 0.17512 2.3016-0.66784 2.5535-0.69291 0.20708-1.3787-0.76856-1.6107-1.4535z" opacity=".4"/>
  <path id="path900" d="m27.458 16.333c-0.03442-1.3192 0.68094-2.3049 1.6107-2.2785 0.74093 0.02103 1.3808 0.75162 1.1785 1.8857-0.18621 1.0441-0.67047 2.7448-1.7285 2.6714-0.83576-0.05803-1.0388-1.441-1.0607-2.2785z" opacity=".4"/>
  <path id="path902" d="m32.683 19.436c-1.3181-0.86186-0.6775-3.4908 0.31428-4.7142 1.0025-1.2366 3.4435-2.3942 4.5963-1.2964 0.97305 0.92664 0.19403 2.9053-0.62856 3.9678-0.92149 1.1902-3.0222 2.8666-4.2821 2.0428z" opacity=".4"/>
  <path id="path904" d="m23.647 31.89c-1.4819-2.0057-2.6035-5.1544-1.4143-7.3463 1.5911-2.9325 5.939-3.9365 9.2712-3.7714 1.3456 0.0667 3.5824 0.53844 3.5749 1.8857-0.02405 4.3598-7.1547 5.2944-7.0713 7.9355 0.02954 0.93516 0.87203 1.6177 1.8071 1.65 1.6925 0.05832 1.2545-3.0591 3.9285-2.9857 0.78682 0.02162 1.7316 0.86399 1.6892 1.65-0.12545 2.3281-3.1776 4.4681-5.4999 4.6749-2.3632 0.21044-4.8757-1.7846-6.2856-3.6928z" opacity=".4"/>
 </g>
</svg>
