<?xml version="1.0" encoding="UTF-8"?>
<!-- Created with Inkscape (http://www.inkscape.org/) -->
<svg id="SVGRoot" width="48px" height="48px" version="1.1" viewBox="0 0 48 48" xmlns="http://www.w3.org/2000/svg" xmlns:cc="http://creativecommons.org/ns#" xmlns:dc="http://purl.org/dc/elements/1.1/" xmlns:rdf="http://www.w3.org/1999/02/22-rdf-syntax-ns#">
 <defs id="defs815">
  <style id="style819">.cls-1{fill:none;stroke:#fff;stroke-linecap:round;stroke-linejoin:round;}</style>
 </defs>
 <metadata id="metadata818">
  <rdf:RDF>
   <cc:Work rdf:about="">
    <dc:format>image/svg+xml</dc:format>
    <dc:type rdf:resource="http://purl.org/dc/dcmitype/StillImage"/>
    <dc:title/>
   </cc:Work>
  </rdf:RDF>
 </metadata>
 <g id="layer1">
  <rect id="rect1373" x="4" y="4" width="40" height="40" ry="8" fill="#8e58b5" fill-rule="evenodd" style="paint-order:stroke fill markers"/>
  <path id="rect817" d="m12 4c-4.432 0-8 3.568-8 8v24c0 4.432 3.568 8 8 8h24c4.432 0 8-3.568 8-8v-24c0-4.432-3.568-8-8-8h-24zm0 1h24c3.878 0 7 3.122 7 7v24c0 3.878-3.122 7-7 7h-24c-3.878 0-7-3.122-7-7v-24c0-3.878 3.122-7 7-7z" fill-rule="evenodd" opacity=".3" style="paint-order:stroke fill markers"/>
  <path id="path819" d="m12.012 6 11.988 18-3.0059-18h-8.9824zm11.988 18 13.572-17.785c-0.50171-0.13522-1.0267-0.21484-1.5723-0.21484h-9.0605l-2.9395 18zm0 0 18-3.0801v-8.9199c0-0.030985-0.003443-0.060926-0.003906-0.091797l-17.996 12.092zm0 0 17.785 13.572c0.13522-0.50171 0.21484-1.0267 0.21484-1.5723v-9.0605l-18-2.9395zm0 0 3.0059 18h8.9824l-11.988-18zm0 0-13.572 17.785c0.50171 0.13522 1.0267 0.21484 1.5723 0.21484h9.0605l2.9395-18zm0 0-18 3.0801v8.9199c0 0.030985 0.0034429 0.060926 0.0039062 0.091797l17.996-12.092zm0 0-17.785-13.572c-0.13522 0.50171-0.21484 1.0267-0.21484 1.5723v9.0605l18 2.9395z" fill="#fff" opacity=".15"/>
  <rect id="rect818" x="14" y="14" width="20" height="20" ry="10" fill="#efefef" fill-rule="evenodd" style="paint-order:stroke fill markers"/>
  <rect id="rect823" x="10" y="21" width="28" height="6" ry="1" fill="#efefef" fill-rule="evenodd" style="paint-order:stroke fill markers"/>
  <rect id="rect823-9" transform="rotate(90)" x="10" y="-27" width="28" height="6" ry="1" fill="#efefef" fill-rule="evenodd" style="paint-order:stroke fill markers"/>
  <rect id="rect823-6" transform="rotate(-45)" x="-14" y="30.941" width="28" height="6" ry="1" fill="#efefef" fill-rule="evenodd" style="paint-order:stroke fill markers"/>
  <rect id="rect823-9-0" transform="rotate(45)" x="19.941" y="-3" width="28" height="6" ry="1" fill="#efefef" fill-rule="evenodd" style="paint-order:stroke fill markers"/>
  <rect id="rect858" x="18" y="18" width="12" height="12" ry="6" fill="#8e58b5" fill-rule="evenodd" style="paint-order:stroke fill markers"/>
 </g>
</svg>
