<?xml version="1.0" encoding="UTF-8"?>
<!-- Created with Inkscape (http://www.inkscape.org/) -->
<svg id="SVGRoot" width="48px" height="48px" version="1.1" viewBox="0 0 48 48" xmlns="http://www.w3.org/2000/svg" xmlns:cc="http://creativecommons.org/ns#" xmlns:dc="http://purl.org/dc/elements/1.1/" xmlns:rdf="http://www.w3.org/1999/02/22-rdf-syntax-ns#">
 <defs id="defs815">
  <style id="style819">.cls-1{fill:none;stroke:#fff;stroke-linecap:round;stroke-linejoin:round;}</style>
 </defs>
 <metadata id="metadata818">
  <rdf:RDF>
   <cc:Work rdf:about="">
    <dc:format>image/svg+xml</dc:format>
    <dc:type rdf:resource="http://purl.org/dc/dcmitype/StillImage"/>
    <dc:title/>
   </cc:Work>
  </rdf:RDF>
 </metadata>
 <g id="layer1">
  <rect id="rect1373-5" x="4" y="4" width="40" height="40" ry="8" fill="#efefef" fill-rule="evenodd" style="paint-order:stroke fill markers"/>
  <rect id="rect877" x="8" y="8" width="32" height="32" ry="4" fill="#b7bfc2" fill-rule="evenodd" style="paint-order:stroke fill markers"/>
  <rect id="rect879" x="14" y="14" width="28" height="28" fill="#efefef" fill-rule="evenodd" style="paint-order:stroke fill markers"/>
  <path id="rect893" d="m13 9v4h-4v1h4v4h-4v1h4v4h-4v1h4v4h-4v1h4v4h-4v1h4v5h1v-5h4v5h1v-5h4v5h1v-5h4v5h1v-5h4v5h1v-5h5v-1h-5v-4h5v-1h-5v-4h5v-1h-5v-4h5v-1h-5v-4h5v-1h-5v-4h-1v4h-4v-4h-1v4h-4v-4h-1v4h-4v-4h-1v4h-4v-4h-1zm1 5h4v4h-4v-4zm5 0h4v4h-4v-4zm5 0h4v4h-4v-4zm5 0h4v4h-4v-4zm-15 5h4v4h-4v-4zm5 0h4v4h-4v-4zm5 0h4v4h-4v-4zm5 0h4v4h-4v-4zm-15 5h4v4h-4v-4zm5 0h4v4h-4v-4zm5 0h4v4h-4v-4zm5 0h4v4h-4v-4zm-15 5h4v4h-4v-4zm5 0h4v4h-4v-4zm5 0h4v4h-4v-4zm5 0h4v4h-4v-4z" fill-rule="evenodd" opacity=".25" style="paint-order:normal"/>
  <path id="rect881" d="m12 8c-2.216 0-4 1.784-4 4v24c0 2.216 1.784 4 4 4h24c2.216 0 4-1.784 4-4v-24c0-2.216-1.784-4-4-4h-24zm0 1h24c1.662 0 3 1.338 3 3v24c0 1.662-1.338 3-3 3h-24c-1.662 0-3-1.338-3-3v-24c0-1.662 1.338-3 3-3z" fill-rule="evenodd" opacity=".3" style="paint-order:stroke fill markers"/>
  <path id="rect817" d="m12 4c-4.432 0-8 3.568-8 8v24c0 4.432 3.568 8 8 8h24c4.432 0 8-3.568 8-8v-24c0-4.432-3.568-8-8-8h-24zm0 1h24c3.878 0 7 3.122 7 7v24c0 3.878-3.122 7-7 7h-24c-3.878 0-7-3.122-7-7v-24c0-3.878 3.122-7 7-7z" fill-rule="evenodd" opacity=".3" style="paint-order:stroke fill markers"/>
  <path id="rect818" d="m20 33v6c0 3.878 5.7812 7 12.963 7h0.07422c7.1817 0 12.963-3.122 12.963-7v-6z" fill="#d35244" fill-rule="evenodd" style="paint-order:normal"/>
  <path id="rect818-0" d="m33 33v13h0.03711c7.1817 0 12.963-3.122 12.963-7v-6z" fill="#485fa9" fill-rule="evenodd" style="paint-order:normal"/>
  <path id="rect1118" d="m28 33v12.469c1.5279 0.3405 3.202 0.53125 4.9629 0.53125h0.07422c1.7609 0 3.435-0.19075 4.9629-0.53125v-12.469z" fill="#4fb461" fill-rule="evenodd" style="paint-order:normal"/>
  <rect id="rect820" x="20" y="26" width="26" height="14" rx="13" ry="6.9633" fill="#f97263" fill-rule="evenodd" style="paint-order:normal"/>
  <path id="rect1067" d="m33 33v7c7.202 0 13-3.1052 13-6.9629v-0.037109z" fill="#729dec" fill-rule="evenodd" style="paint-order:normal"/>
  <path id="rect944" d="m33 26c-7.202 0-13 3.122-13 7v6c0 3.878 5.798 7 13 7s13-3.122 13-7v-6c0-3.878-5.798-7-13-7zm0 1c6.648 0 12 2.676 12 6v6c0 3.324-5.352 6-12 6s-12-2.676-12-6v-6c0-3.324 5.352-6 12-6z" fill-rule="evenodd" opacity=".25" style="paint-order:normal"/>
  <path id="path1116" d="m33 33-5 6.4414 0.05078 0.03711c1.5246 0.33474 3.1943 0.52148 4.9492 0.52148s3.4246-0.18674 4.9492-0.52148l0.050781-0.03711z" fill="#96d56b"/>
  <path id="rect950" d="m21 33v2.7266c1.9572 2.5141 6.5806 4.2734 12 4.2734s10.043-1.7593 12-4.2734v-2.7266c0 3.324-5.352 6-12 6s-12-2.676-12-6z" fill="#fff" fill-rule="evenodd" opacity=".75" style="paint-order:normal"/>
 </g>
</svg>
