<?xml version="1.0" encoding="UTF-8"?>
<!-- Created with Inkscape (http://www.inkscape.org/) -->
<svg id="SVGRoot" width="48px" height="48px" version="1.1" viewBox="0 0 48 48" xmlns="http://www.w3.org/2000/svg" xmlns:cc="http://creativecommons.org/ns#" xmlns:dc="http://purl.org/dc/elements/1.1/" xmlns:rdf="http://www.w3.org/1999/02/22-rdf-syntax-ns#">
 <defs id="defs815">
  <style id="style819">.cls-1{fill:none;stroke:#fff;stroke-linecap:round;stroke-linejoin:round;}</style>
 </defs>
 <metadata id="metadata818">
  <rdf:RDF>
   <cc:Work rdf:about="">
    <dc:format>image/svg+xml</dc:format>
    <dc:type rdf:resource="http://purl.org/dc/dcmitype/StillImage"/>
    <dc:title/>
   </cc:Work>
  </rdf:RDF>
 </metadata>
 <g id="layer1">
  <rect id="rect1373-5" x="4" y="4" width="40" height="40" ry="8" fill="#46589d" fill-rule="evenodd" style="paint-order:stroke fill markers"/>
  <path id="rect817" d="m12 4c-4.432 0-8 3.568-8 8v24c0 4.432 3.568 8 8 8h24c4.432 0 8-3.568 8-8v-24c0-4.432-3.568-8-8-8h-24zm0 1h24c3.878 0 7 3.122 7 7v24c0 3.878-3.122 7-7 7h-24c-3.878 0-7-3.122-7-7v-24c0-3.878 3.122-7 7-7z" fill-rule="evenodd" opacity=".3" style="paint-order:stroke fill markers"/>
  <path id="path819-3-8" d="m25.203 14.385c-1.2578 0.27513-2.4675 0.68802-3.627 1.2383 0.01965 1.0023 0.09876 2.0055 0.23633 3.0078-0.94331 0.53061-1.8077 1.1596-2.5938 1.8867-0.76644-0.53061-1.5729-0.99367-2.418-1.3867-0.94331 0.96297-1.7575 2.0241-2.4453 3.1836 0.51096 0.8254 1.0608 1.6222 1.6504 2.3887v7.252l4.4805 0.10156c0.23583 0.01965 0.38245 0.15663 0.44141 0.41211l0.11914 2.5039 3.8906 0.04687 0.29883-1.5508c0.03931-0.21618 0.18593-0.36475 0.44141-0.44336h4.7129c0.25548 0.07861 0.40406 0.22718 0.44336 0.44336l0.23438 1.5195 3.8926 0.01563 0.11719-2.2246c0.05896-0.25548 0.20558-0.39246 0.44141-0.41211l4.4805-0.41211v-7.252c0.58957-0.76644 1.1414-1.5633 1.6523-2.3887-0.68783-1.1595-1.504-2.2206-2.4473-3.1836-0.84505 0.39305-1.6515 0.8561-2.418 1.3867-0.78609-0.72714-1.6504-1.3561-2.5938-1.8867 0.13757-1.0023 0.21668-2.0055 0.23633-3.0078-1.1595-0.55027-2.3692-0.96315-3.627-1.2383-0.51096 0.84505-0.96242 1.8772-1.3555 2.7812-0.96297-0.13757-1.9257-0.13757-2.8887 0-0.39305-0.90401-0.84451-1.9362-1.3555-2.7812zm-3.2031 10.615c1.662 0 3 1.338 3 3s-1.338 3-3 3-3-1.338-3-3 1.338-3 3-3zm12 0c1.662 0 3 1.338 3 3s-1.338 3-3 3-3-1.338-3-3 1.338-3 3-3zm-12 1c-1.108 0-2 0.892-2 2s0.892 2 2 2 2-0.892 2-2-0.892-2-2-2zm12 0c-1.108 0-2 0.892-2 2s0.892 2 2 2 2-0.892 2-2-0.892-2-2-2zm-6 1c0.554 0 1 0.446 1 1v2c0 0.554-0.446 1-1 1s-1-0.446-1-1v-2c0-0.554 0.446-1 1-1zm-11.994 5.9277v1.1484c0 8.1361 23.965 8.1361 23.994 0v-1.1484l-3.9492 0.35352-0.14648 2.2812c-0.03931 0.19652-0.17824 0.32581-0.41406 0.38477l-4.7754 0.01367c-0.23583-1e-6 -0.39209-0.10804-0.4707-0.32422l-0.29492-1.6367h-3.8301l-0.35547 1.668c-0.07861 0.21618-0.23683 0.32422-0.47266 0.32422l-4.7754-0.07617c-0.23583-0.05896-0.37281-0.18824-0.41211-0.38477l-0.14844-2.5605z" fill="#729dec" stroke-width=".029479"/>
  <path id="path819-3" d="m17.203 6.3848c-1.2578 0.27513-2.4675 0.68802-3.627 1.2383 0.01965 1.0023 0.09876 2.0055 0.23633 3.0078-0.94331 0.53061-1.8077 1.1596-2.5938 1.8867-0.76644-0.53061-1.5729-0.99367-2.418-1.3867-0.94331 0.96297-1.7575 2.0241-2.4453 3.1836 0.51096 0.8254 1.0608 1.6222 1.6504 2.3887v7.252l4.4805 0.10156c0.23583 0.01965 0.38245 0.15663 0.44141 0.41211l0.11914 2.5039 3.8906 0.04687 0.29883-1.5508c0.03931-0.21618 0.18593-0.36475 0.44141-0.44336h4.7129c0.25548 0.07861 0.40406 0.22718 0.44336 0.44336l0.23438 1.5195 3.8926 0.01563 0.11719-2.2246c0.05896-0.25548 0.20558-0.39246 0.44141-0.41211l4.4805-0.41211v-7.252c0.58957-0.76644 1.1414-1.5633 1.6523-2.3887-0.68783-1.1595-1.504-2.2206-2.4473-3.1836-0.84505 0.39305-1.6515 0.8561-2.418 1.3867-0.78609-0.72714-1.6504-1.3561-2.5938-1.8867 0.13757-1.0023 0.21668-2.0055 0.23633-3.0078-1.1595-0.55027-2.3692-0.96315-3.627-1.2383-0.51096 0.84505-0.96242 1.8772-1.3555 2.7812-0.96297-0.13757-1.9257-0.13757-2.8887 0-0.39305-0.90401-0.84451-1.9362-1.3555-2.7812zm-3.2031 10.615c1.662 0 3 1.338 3 3s-1.338 3-3 3-3-1.338-3-3 1.338-3 3-3zm12 0c1.662 0 3 1.338 3 3s-1.338 3-3 3-3-1.338-3-3 1.338-3 3-3zm-12 1c-1.108 0-2 0.892-2 2s0.892 2 2 2 2-0.892 2-2-0.892-2-2-2zm12 0c-1.108 0-2 0.892-2 2s0.892 2 2 2 2-0.892 2-2-0.892-2-2-2zm-6 1c0.554 0 1 0.446 1 1v2c0 0.554-0.446 1-1 1s-1-0.446-1-1v-2c0-0.554 0.446-1 1-1zm-11.994 5.9277v1.1484c0 8.1361 23.965 8.1361 23.994 0v-1.1484l-3.9492 0.35352-0.14648 2.2812c-0.03931 0.19652-0.17824 0.32581-0.41406 0.38477l-4.7754 0.01367c-0.23583-1e-6 -0.39209-0.10804-0.4707-0.32422l-0.29492-1.6367h-3.8301l-0.35547 1.668c-0.07861 0.21618-0.23683 0.32422-0.47266 0.32422l-4.7754-0.07617c-0.23583-0.05896-0.37281-0.18824-0.41211-0.38477l-0.14844-2.5605z" fill="#729dec" stroke-width=".029479"/>
  <path id="path819" d="m21.203 10.385c-1.2578 0.27513-2.4675 0.68802-3.627 1.2383 0.01965 1.0023 0.09876 2.0055 0.23633 3.0078-0.94331 0.53061-1.8077 1.1596-2.5938 1.8867-0.76644-0.53061-1.5729-0.99367-2.418-1.3867-0.94331 0.96297-1.7575 2.0241-2.4453 3.1836 0.51096 0.8254 1.0608 1.6222 1.6504 2.3887v7.252l4.4805 0.10156c0.23583 0.019653 0.38245 0.15663 0.44141 0.41211l0.11914 2.5039 3.8906 0.046875 0.29883-1.5508c0.039307-0.21618 0.18593-0.36475 0.44141-0.44336h4.7129c0.25548 0.078609 0.40406 0.22718 0.44336 0.44336l0.23438 1.5195 3.8926 0.015625 0.11719-2.2246c0.05896-0.25548 0.20558-0.39246 0.44141-0.41211l4.4805-0.41211v-7.252c0.58957-0.76644 1.1414-1.5633 1.6523-2.3887-0.68783-1.1595-1.504-2.2206-2.4473-3.1836-0.84505 0.39305-1.6515 0.8561-2.418 1.3867-0.78609-0.72714-1.6504-1.3561-2.5938-1.8867 0.13757-1.0023 0.21668-2.0055 0.23633-3.0078-1.1595-0.55027-2.3692-0.96315-3.627-1.2383-0.51096 0.84505-0.96242 1.8772-1.3555 2.7812-0.96297-0.13757-1.9257-0.13757-2.8887 0-0.39305-0.90401-0.84451-1.9362-1.3555-2.7812zm-3.2031 10.615c1.662 0 3 1.338 3 3s-1.338 3-3 3-3-1.338-3-3 1.338-3 3-3zm12 0c1.662 0 3 1.338 3 3s-1.338 3-3 3-3-1.338-3-3 1.338-3 3-3zm-12 1c-1.108 0-2 0.892-2 2s0.892 2 2 2 2-0.892 2-2-0.892-2-2-2zm12 0c-1.108 0-2 0.892-2 2s0.892 2 2 2 2-0.892 2-2-0.892-2-2-2zm-6 1c0.554 0 1 0.446 1 1v2c0 0.554-0.446 1-1 1s-1-0.446-1-1v-2c0-0.554 0.446-1 1-1zm-11.994 5.9277v1.1484c0 8.1361 23.965 8.1361 23.994 0v-1.1484l-3.9492 0.35352-0.14648 2.2812c-0.039307 0.19652-0.17824 0.32581-0.41406 0.38477l-4.7754 0.013672c-0.23583-1e-6 -0.39209-0.10804-0.4707-0.32422l-0.29492-1.6367h-3.8301l-0.35547 1.668c-0.078609 0.21618-0.23683 0.32422-0.47266 0.32422l-4.7754-0.076172c-0.23583-0.05896-0.37281-0.18824-0.41211-0.38477l-0.14844-2.5605-3.9492-0.042969z" fill="#fff" stroke-width=".029479"/>
 </g>
</svg>
