<?xml version="1.0" encoding="UTF-8"?>
<!-- Created with Inkscape (http://www.inkscape.org/) -->
<svg id="SVGRoot" width="48px" height="48px" version="1.1" viewBox="0 0 48 48" xmlns="http://www.w3.org/2000/svg" xmlns:cc="http://creativecommons.org/ns#" xmlns:dc="http://purl.org/dc/elements/1.1/" xmlns:rdf="http://www.w3.org/1999/02/22-rdf-syntax-ns#">
 <defs id="defs815">
  <style id="style819">.cls-1{fill:none;stroke:#fff;stroke-linecap:round;stroke-linejoin:round;}</style>
 </defs>
 <metadata id="metadata818">
  <rdf:RDF>
   <cc:Work rdf:about="">
    <dc:format>image/svg+xml</dc:format>
    <dc:type rdf:resource="http://purl.org/dc/dcmitype/StillImage"/>
    <dc:title/>
   </cc:Work>
  </rdf:RDF>
 </metadata>
 <g id="layer1">
  <path id="rect1373" d="m8 9c-2.216 0-4 1.784-4 4v23c0 4.432 3.568 8 8 8h24c4.432 0 8-3.568 8-8v-23c0-2.216-1.784-4-4-4h-32z" fill="#366fd6" fill-rule="evenodd" style="paint-order:stroke fill markers"/>
  <path id="path828" d="m8 8.1078c-2.216 0-4 1.784-4 4v22.892s0-9 6-9c8.518 0 10 13 22 13 7 0 12-7 12-7v-19.892c0-2.216-1.784-4-4-4z" fill="#6599f9"/>
  <path id="path830" d="m8 7.0078c-1.385 0-2.6009 0.69609-3.3184 1.7598-9.377e-4 0.0021295-0.0029703 0.0037289-0.0039062 0.0058594-0.43345 0.98664-0.67773 2.0762-0.67773 3.2266v11s1-8 8-8c8 0 14 18 24 18 6 0 8-6 8-6v-15c0-1.1503-0.24428-2.2399-0.67773-3.2266-0.001298-0.0019314-0.002606-0.0039304-0.003907-0.0058594-0.71742-1.0637-1.9334-1.7598-3.3184-1.7598h-32z" fill="#9ac4ff"/>
  <path id="path832" d="m12 4c-4.432 0-8 3.568-8 8v1s2.6523-5 10.652-5c9.5336 0 17.348 17 25.348 17 3 0 4-2 4-2v-11c0-4.432-3.568-8-8-8h-24z" fill="#c8e3ff"/>
  <path id="path834" d="m23 4c12 4 13 15 18 15 3 0 3-1 3-1v-6c0-4.432-3.568-8-8-8h-13z" fill="#f5f5f5"/>
  <path id="rect817" d="m12 4c-4.432 0-8 3.568-8 8v24c0 4.432 3.568 8 8 8h24c4.432 0 8-3.568 8-8v-24c0-4.432-3.568-8-8-8h-24zm0 1h24c3.878 0 7 3.122 7 7v24c0 3.878-3.122 7-7 7h-24c-3.878 0-7-3.122-7-7v-24c0-3.878 3.122-7 7-7z" fill-rule="evenodd" opacity=".3" style="paint-order:stroke fill markers"/>
 </g>
</svg>
