<?xml version="1.0" encoding="UTF-8"?>
<!-- Created with Inkscape (http://www.inkscape.org/) -->
<svg id="SVGRoot" width="48px" height="48px" version="1.1" viewBox="0 0 48 48" xmlns="http://www.w3.org/2000/svg" xmlns:cc="http://creativecommons.org/ns#" xmlns:dc="http://purl.org/dc/elements/1.1/" xmlns:rdf="http://www.w3.org/1999/02/22-rdf-syntax-ns#">
 <defs id="defs815">
  <style id="style819">.cls-1{fill:none;stroke:#fff;stroke-linecap:round;stroke-linejoin:round;}</style>
 </defs>
 <metadata id="metadata818">
  <rdf:RDF>
   <cc:Work rdf:about="">
    <dc:format>image/svg+xml</dc:format>
    <dc:type rdf:resource="http://purl.org/dc/dcmitype/StillImage"/>
    <dc:title/>
   </cc:Work>
  </rdf:RDF>
 </metadata>
 <g id="layer1">
  <rect id="rect1373-5" x="4" y="4" width="40" height="40" ry="8" fill="#ffcd4b" fill-rule="evenodd" style="paint-order:stroke fill markers"/>
  <path id="rect817" d="m12 4c-4.432 0-8 3.568-8 8v24c0 4.432 3.568 8 8 8h24c4.432 0 8-3.568 8-8v-24c0-4.432-3.568-8-8-8h-24zm0 1h24c3.878 0 7 3.122 7 7v24c0 3.878-3.122 7-7 7h-24c-3.878 0-7-3.122-7-7v-24c0-3.878 3.122-7 7-7z" fill-rule="evenodd" opacity=".3" style="paint-order:stroke fill markers"/>
  <path id="path819" d="m16.155 17.979c0.1072 2.3542 0.69708 5.6986 1.733 7.8153 1.7569 3.3155 4.1802 5.447 6.1795 6.2951 2.0653-0.96566 4.0609-2.2698 5.1496-4.0744h-5.6691c-1.4687-1.2172-2.6216-3.6049-2.8878-5.9364h16.635c-0.82062 3.747-2.561 7.1598-4.2224 9.3279-2.3101 3.0159-5.4299 5.3131-8.9957 6.6237h-0.05324c-5.9647-2.3774-9.1792-6.1226-11.292-10.347-1.3549-2.706-2.7758-9.0748-2.7758-15.684h28.088c0.0063 1.8611-0.11639 4.1353-0.36717 5.9794z" fill="#4e4e4e" stroke-width=".18358"/>
 </g>
</svg>
