<?xml version="1.0" encoding="UTF-8"?>
<!-- Created with Inkscape (http://www.inkscape.org/) -->
<svg id="SVGRoot" width="48px" height="48px" version="1.1" viewBox="0 0 48 48" xmlns="http://www.w3.org/2000/svg" xmlns:cc="http://creativecommons.org/ns#" xmlns:dc="http://purl.org/dc/elements/1.1/" xmlns:rdf="http://www.w3.org/1999/02/22-rdf-syntax-ns#">
 <defs id="defs815">
  <style id="style819">.cls-1{fill:none;stroke:#fff;stroke-linecap:round;stroke-linejoin:round;}</style>
 </defs>
 <metadata id="metadata818">
  <rdf:RDF>
   <cc:Work rdf:about="">
    <dc:format>image/svg+xml</dc:format>
    <dc:type rdf:resource="http://purl.org/dc/dcmitype/StillImage"/>
    <dc:title/>
   </cc:Work>
  </rdf:RDF>
 </metadata>
 <g id="layer1">
  <rect id="rect1373-5" x="4" y="4" width="40" height="40" ry="8" fill="#729dec" fill-rule="evenodd" style="paint-order:stroke fill markers"/>
  <path id="rect917-7" d="m35 8h-4v32h4zm-6 0h-4v32h4zm-6 0h-4v32h4zm-6 0h-4v32h4z" fill-rule="evenodd" opacity=".3" style="paint-order:stroke fill markers"/>
  <path id="rect917" d="m8 13v4h32v-4zm0 6v4h32v-4zm0 6v4h32v-4zm0 6v4h32v-4z" fill-rule="evenodd" opacity=".3" style="paint-order:stroke fill markers"/>
  <rect id="rect830" x="10" y="10" width="28" height="28" ry="4" fill="#efefef" fill-rule="evenodd" style="paint-order:stroke fill markers"/>
  <path id="rect817" d="m12 4c-4.432 0-8 3.568-8 8v24c0 4.432 3.568 8 8 8h24c4.432 0 8-3.568 8-8v-24c0-4.432-3.568-8-8-8h-24zm0 1h24c3.878 0 7 3.122 7 7v24c0 3.878-3.122 7-7 7h-24c-3.878 0-7-3.122-7-7v-24c0-3.878 3.122-7 7-7z" fill-rule="evenodd" opacity=".3" style="paint-order:stroke fill markers"/>
  <rect id="rect828" x="12" y="12" width="24" height="24" ry="2" fill-rule="evenodd" opacity=".4" style="paint-order:stroke fill markers"/>
  <path id="path905" d="m22 14h3v1l-1.5 2h1.5v1h-3v-1l1.5-2h-1.5z" fill="#fff"/>
  <path id="path905-8" d="m14 14h6v2l-3 4h3v2h-6v-2l3-4h-3z" fill="#fff"/>
  <path id="rect922" d="m28.6 20.2c0.84343 1.0331 1.3496 2.3532 1.3496 3.7969 0 3.324-2.676 6-6 6-1.4437 0-2.7638-0.50618-3.7969-1.3496 0.73928 3.0748 3.4889 5.3496 6.7969 5.3496 3.878 0 7-3.122 7-7 0-3.308-2.2748-6.0576-5.3496-6.7969z" fill="#ffdd75" fill-rule="evenodd" style="paint-order:normal"/>
 </g>
</svg>
