<?xml version="1.0" encoding="UTF-8"?>
<!-- Created with Inkscape (http://www.inkscape.org/) -->
<svg id="SVGRoot" width="48px" height="48px" version="1.1" viewBox="0 0 48 48" xmlns="http://www.w3.org/2000/svg" xmlns:cc="http://creativecommons.org/ns#" xmlns:dc="http://purl.org/dc/elements/1.1/" xmlns:rdf="http://www.w3.org/1999/02/22-rdf-syntax-ns#">
 <defs id="defs815">
  <style id="style819">.cls-1{fill:none;stroke:#fff;stroke-linecap:round;stroke-linejoin:round;}</style>
 </defs>
 <metadata id="metadata818">
  <rdf:RDF>
   <cc:Work rdf:about="">
    <dc:format>image/svg+xml</dc:format>
    <dc:type rdf:resource="http://purl.org/dc/dcmitype/StillImage"/>
    <dc:title/>
   </cc:Work>
  </rdf:RDF>
 </metadata>
 <g id="layer1">
  <rect id="rect1373-5" x="4" y="4" width="40" height="40" ry="8" fill="#f6a559" fill-rule="evenodd" style="paint-order:stroke fill markers"/>
  <path id="rect817" d="m12 4c-4.432 0-8 3.568-8 8v24c0 4.432 3.568 8 8 8h24c4.432 0 8-3.568 8-8v-24c0-4.432-3.568-8-8-8h-24zm0 1h24c3.878 0 7 3.122 7 7v24c0 3.878-3.122 7-7 7h-24c-3.878 0-7-3.122-7-7v-24c0-3.878 3.122-7 7-7z" fill-rule="evenodd" opacity=".3" style="paint-order:stroke fill markers"/>
  <path id="path953" d="m12 6c-3.324 0-6 2.676-6 6v4.4141l5.293 5.293a1.0001 1.0001 0 0 0 1.4141 0l9-9a1.0001 1.0001 0 0 0 0-1.4141l-5.293-5.293h-4.4141zm7.5859 0 3.707 3.707a1.0001 1.0001 0 0 0 1.4141 0l3.707-3.707h-8.8281zm12 0-5.293 5.293a1.0001 1.0001 0 0 0 0 1.4141l9 9a1.0001 1.0001 0 0 0 1.4141 0l5.293-5.293v-4.4141c0-3.324-2.676-6-6-6h-4.4141zm-7.6016 8a1.0001 1.0001 0 0 0-0.69141 0.29297l-9 9a1.0001 1.0001 0 0 0 0 1.4141l9 9a1.0001 1.0001 0 0 0 1.4141 0l9-9a1.0001 1.0001 0 0 0 0-1.4141l-9-9a1.0001 1.0001 0 0 0-0.72266-0.29297zm-17.984 5.5859v8.8281l3.707-3.707a1.0001 1.0001 0 0 0 0-1.4141l-3.707-3.707zm36 0-3.707 3.707a1.0001 1.0001 0 0 0 0 1.4141l3.707 3.707v-8.8281zm-30.016 6.4141a1.0001 1.0001 0 0 0-0.69141 0.29297l-5.293 5.293v4.4141c0 3.324 2.676 6 6 6h4.4141l5.293-5.293a1.0001 1.0001 0 0 0 0-1.4141l-9-9a1.0001 1.0001 0 0 0-0.72266-0.29297zm24 0a1.0001 1.0001 0 0 0-0.69141 0.29297l-9 9a1.0001 1.0001 0 0 0 0 1.4141l5.293 5.293h4.4141c3.324 0 6-2.676 6-6v-4.4141l-5.293-5.293a1.0001 1.0001 0 0 0-0.72266-0.29297zm-12 12a1.0001 1.0001 0 0 0-0.69141 0.29297l-3.707 3.707h8.8281l-3.707-3.707a1.0001 1.0001 0 0 0-0.72266-0.29297z" color="#000000" color-rendering="auto" dominant-baseline="auto" fill="#ffdd75" image-rendering="auto" shape-rendering="auto" solid-color="#000000" style="font-feature-settings:normal;font-variant-alternates:normal;font-variant-caps:normal;font-variant-ligatures:normal;font-variant-numeric:normal;font-variant-position:normal;isolation:auto;mix-blend-mode:normal;shape-padding:0;text-decoration-color:#000000;text-decoration-line:none;text-decoration-style:solid;text-indent:0;text-orientation:mixed;text-transform:none;white-space:normal"/>
  <path id="rect989" d="m31 37v4s0 1-3 1c-2 0-2 2-2 2 0 1.108 3.122 2 7 2s7-0.892 7-2c0 0 0-2-2-2-3 0-3-1-3-1v-4h-2z" fill="#fff" fill-rule="evenodd" style="paint-order:stroke fill markers"/>
  <path id="rect989-8" d="m31 37v4s0 1-3 1c-2 0-2 2-2 2 0 1.108 3.122 2 7 2s7-0.892 7-2c0 0 0-2-2-2-3 0-3-1-3-1v-4h-2zm1 1h2v3s0.02596 0.35076 0.15234 0.60352c0.12638 0.25276 0.35246 0.51818 0.66797 0.72852 0.63102 0.42068 1.5686 0.66797 3.1797 0.66797 0.66667 0 0.72473 0.18578 0.85547 0.44727 0.08693 0.17385 0.11506 0.32777 0.12891 0.43359 0.028588-0.024829 0.015625-0.006594 0.015625 0.11914 0 0-0.0086-0.0658-0.01563-0.11914-0.01521 0.01321-0.01987 0.02024-0.09375 0.07031-0.21279 0.14422-0.64318 0.33974-1.2109 0.50195-1.1355 0.32443-2.8174 0.54688-4.6797 0.54688s-3.5442-0.22244-4.6797-0.54688c-0.56775-0.16222-0.99815-0.35774-1.2109-0.50195-0.07388-0.05007-0.07854-0.0571-0.09375-0.07031-0.00698 0.053337-0.015625 0.11914-0.015625 0.11914 0-0.12574-0.01296-0.14397 0.01563-0.11914 0.01385-0.10582 0.04198-0.25974 0.12891-0.43359 0.13074-0.26149 0.1888-0.44727 0.85546-0.44727 1.6111 0 2.5487-0.24729 3.1797-0.66797 0.31551-0.21034 0.54159-0.47576 0.66797-0.72852 0.12638-0.25276 0.15234-0.60352 0.15234-0.60352z" color="#000000" color-rendering="auto" dominant-baseline="auto" fill-rule="evenodd" image-rendering="auto" opacity=".3" shape-rendering="auto" solid-color="#000000" style="font-feature-settings:normal;font-variant-alternates:normal;font-variant-caps:normal;font-variant-ligatures:normal;font-variant-numeric:normal;font-variant-position:normal;isolation:auto;mix-blend-mode:normal;paint-order:stroke fill markers;shape-padding:0;text-decoration-color:#000000;text-decoration-line:none;text-decoration-style:solid;text-indent:0;text-orientation:mixed;text-transform:none;white-space:normal"/>
  <path id="rect987" d="m22.047 18c-1.29 2.0197-2.0469 4.4158-2.0469 7 0 7.202 5.798 13 13 13s13-5.798 13-13c0-2.5842-0.75687-4.9803-2.0469-7z" fill="#ffdd75" fill-rule="evenodd" style="paint-order:stroke fill markers"/>
  <path id="rect1039-1" d="m33 19c-6.219 0-11.382 1.3311-12.678 3.1211-0.20998 0.92504-0.32227 1.8879-0.32227 2.8789 0 2.6784 0.80388 5.1606 2.1816 7.2246 2.3269 1.0727 6.2945 1.7754 10.818 1.7754s8.4914-0.70267 10.818-1.7754c1.3778-2.064 2.1816-4.5463 2.1816-7.2246 0-0.99098-0.11228-1.9539-0.32227-2.8789-1.296-1.79-6.4587-3.1211-12.678-3.1211z" fill="#f6a559" fill-rule="evenodd" style="paint-order:stroke fill markers"/>
  <path id="rect1039" d="m22.047 18c-0.89786 1.4057-1.5301 2.9962-1.8359 4.7031 1.0749 1.878 6.3679 3.2969 12.789 3.2969s11.714-1.4188 12.789-3.2969c-0.30588-1.7069-0.93807-3.2974-1.8359-4.7031z" fill="#dd5c89" fill-rule="evenodd" style="paint-order:stroke fill markers"/>
  <rect id="rect1026" x="22" y="16" width="22" height="4" rx="11" ry="2" fill="#f5b2ca" fill-rule="evenodd" style="paint-order:stroke fill markers"/>
  <path id="rect987-2-5" d="m33 16c-6.094 0-11 0.892-11 2 0 0.01851 0.0129 0.0363 0.01563 0.05469-0.19043 0.30129-0.36717 0.61244-0.5332 0.92969-0.04266 0.08184-0.08209 0.16519-0.12305 0.24805-0.14955 0.30113-0.2895 0.60805-0.41602 0.92188-0.01553 0.0388-0.03366 0.07625-0.04883 0.11523-0.23415 0.59736-0.42763 1.2144-0.57226 1.8516v2e-3c-0.04291 0.18917-0.07482 0.38194-0.10938 0.57422-3.65e-4 2e-3 -0.0016 0.0038-2e-3 0.0059-0.04059 0.2265-0.07485 0.45501-0.10352 0.68555-0.01281 0.10256-0.02476 0.20527-0.03516 0.30859-0.042915 0.42897-0.072218 0.86169-0.072218 1.3026 0 0.4032 0.02294 0.79981 0.05859 1.1934 0.01073 0.1187 0.02714 0.23578 0.04102 0.35352 0.03498 0.29631 0.07836 0.58919 0.13281 0.87891 0.01968 0.10497 0.03838 0.2104 0.06055 0.31445 0.07967 0.37292 0.17049 0.74145 0.28125 1.1016 0.02825 0.09204 0.06354 0.18034 0.09375 0.27148 0.08648 0.26039 0.17909 0.51879 0.28125 0.77148 0.06045 0.14974 0.12561 0.29648 0.19141 0.44336 0.09385 0.20924 0.19444 0.41404 0.29883 0.61719 0.06473 0.1261 0.12663 0.25331 0.19531 0.37695 0.17128 0.30808 0.35198 0.61038 0.54688 0.90234 2.327 3.486 6.2947 5.7754 10.818 5.7754 4.5233 0 8.4893-2.2898 10.816-5.7754h2e-3c0.19489-0.29197 0.3756-0.59427 0.54688-0.90234 0.06868-0.12364 0.13059-0.25085 0.19531-0.37695 0.10439-0.20315 0.20498-0.40794 0.29883-0.61719 0.06579-0.14688 0.13096-0.29362 0.19141-0.44336 0.10216-0.2527 0.19477-0.5111 0.28125-0.77148 0.03021-0.09115 0.06551-0.17944 0.09375-0.27148 0.11076-0.36011 0.20158-0.72865 0.28125-1.1016 0.02217-0.10405 0.04087-0.20948 0.06055-0.31445 0.05446-0.28972 0.09783-0.5826 0.13281-0.87891 0.01387-0.11773 0.03029-0.23482 0.04102-0.35352 0.035596-0.39355 0.058539-0.79016 0.058539-1.1934 0-0.44095-0.0293-0.87367-0.07227-1.3027-0.01039-0.10332-0.02235-0.20603-0.03516-0.30859-0.05325-0.42832-0.12094-0.85363-0.21484-1.2676-0.14463-0.63715-0.33812-1.2542-0.57226-1.8516-0.01517-0.03898-0.03329-0.07644-0.04883-0.11523-0.12652-0.31382-0.26646-0.62074-0.41602-0.92188-0.04096-0.08286-0.08038-0.1662-0.12305-0.24805-0.16603-0.31724-0.34278-0.6284-0.5332-0.92969 0.002732-0.018389 0.015635-0.036176 0.015635-0.054688 0-1.108-4.906-2-11-2zm0 1.1816c2.9893 0 5.6905 0.22391 7.5742 0.56641 0.94185 0.17125 1.6848 0.3794 2.0957 0.55664 0.11903 0.05134 0.13189 0.06668 0.18555 0.09961a1.1819 1.1819 0 0 0 0.13086 0.28125c0.17008 0.26909 0.32934 0.55333 0.48242 0.8457 0.02857 0.0548 0.0663 0.12956 0.11328 0.22461a1.1819 1.1819 0 0 0 0 2e-3c0.13751 0.27689 0.26377 0.55539 0.37695 0.83594 0.03581 0.08939 0.0523 0.12247 0.04492 0.10352a1.1819 1.1819 0 0 0 2e-3 0.0039c0.21396 0.54586 0.3888 1.1057 0.51953 1.6816 0.08237 0.36313 0.14537 0.75066 0.19531 1.1523 0.012 0.09605 0.02209 0.19018 0.03125 0.28125 0.04031 0.40297 0.06641 0.79563 0.06641 1.1836 0 0.35837-0.0214 0.71797-0.05469 1.0859a1.1819 1.1819 0 0 0 0 2e-3c-0.0073 0.08043-0.02121 0.18536-0.03711 0.32031-0.03228 0.27341-0.0723 0.53927-0.12109 0.79883-0.02111 0.11258-0.0382 0.20974-0.05469 0.28711-0.07456 0.34902-0.15638 0.68292-0.25391 1a1.1819 1.1819 0 0 0 0 2e-3c-0.0093 0.03041-0.04144 0.1101-0.08594 0.24414-0.08065 0.24284-0.16561 0.47794-0.25586 0.70117-0.05021 0.12437-0.10938 0.25844-0.17383 0.40234-0.08263 0.18424-0.1736 0.37005-0.27148 0.56055a1.1819 1.1819 0 0 0 0 2e-3c-0.07238 0.14102-0.12977 0.25544-0.17774 0.3418-0.15621 0.28098-0.31693 0.54986-0.48633 0.80469a1.1819 1.1819 0 0 0-0.01172 0.01563c-2.1155 3.1686-5.7096 5.25-9.834 5.25-4.1249 0-7.7207-2.0812-9.8359-5.25-0.17312-0.25961-0.33686-0.53401-0.49613-0.8205-0.04795-0.08633-0.10534-0.20076-0.17774-0.3418a1.1819 1.1819 0 0 0 0-2e-3c-0.09761-0.18987-0.18904-0.37482-0.27148-0.55855v-2e-3c-0.06444-0.14377-0.12361-0.27791-0.17383-0.4023-0.09003-0.22269-0.17539-0.45702-0.25586-0.69922v-2e-3c-0.04447-0.13396-0.07657-0.21557-0.08594-0.24609-0.09752-0.31708-0.17934-0.65098-0.25391-1-0.01649-0.07738-0.03359-0.1726-0.05469-0.28516a1.1819 1.1819 0 0 0 0-2e-3c-0.04879-0.25957-0.08882-0.52542-0.12109-0.79883-0.0159-0.13491-0.02984-0.23987-0.03711-0.32031a1.1819 1.1819 0 0 0 0-2e-3c-0.03332-0.36759-0.054682-0.72744-0.054682-1.0858 0-0.38796 0.0261-0.78072 0.06641-1.1836v-2e-3c0.0091-0.09049 0.01934-0.18388 0.03125-0.2793 0.02623-0.21097 0.05909-0.41872 0.0957-0.62305a1.1819 1.1819 0 0 0 0-2e-3 1.1819 1.1819 0 0 0 2e-3 -0.0039c0.03646-0.20293 0.0651-0.37796 0.09766-0.52148a1.1819 1.1819 0 0 0 0-2e-3v-2e-3c0.13069-0.57507 0.3058-1.1344 0.51953-1.6797a1.1819 1.1819 0 0 0 2e-3 -0.0039c-0.0072 0.0186 0.0088-0.01645 0.04297-0.10156l2e-3 -2e-3c0.1132-0.28028 0.23945-0.55883 0.37696-0.83572a1.1819 1.1819 0 0 0 0-2e-3c0.04647-0.094 0.08288-0.16796 0.11133-0.22266l2e-3 -2e-3c0.15309-0.29238 0.31234-0.57661 0.48242-0.8457a1.1819 1.1819 0 0 0 0.12891-0.28125c0.05351-0.03291 0.06749-0.04785 0.1875-0.09961 0.41094-0.17714 1.1539-0.3853 2.0957-0.55655 1.8835-0.3424 4.5847-0.56641 7.574-0.56641z" color="#000000" color-rendering="auto" dominant-baseline="auto" fill-rule="evenodd" image-rendering="auto" opacity=".3" shape-rendering="auto" solid-color="#000000" style="font-feature-settings:normal;font-variant-alternates:normal;font-variant-caps:normal;font-variant-ligatures:normal;font-variant-numeric:normal;font-variant-position:normal;isolation:auto;mix-blend-mode:normal;paint-order:stroke fill markers;shape-padding:0;text-decoration-color:#000000;text-decoration-line:none;text-decoration-style:solid;text-indent:0;text-orientation:mixed;text-transform:none;white-space:normal"/>
  <path id="rect1251" d="m24.033 18.072c-0.27425 0.0791-0.5331 0.15913-0.70312 0.23242-0.12001 0.05176-0.13399 0.0667-0.1875 0.09961a1.1819 1.1819 0 0 1-0.12891 0.28125c-0.02446 0.0387-0.04629 0.08179-0.07031 0.12109 1.7023 0.70279 5.5479 1.1934 10.057 1.1934s8.3544-0.49057 10.057-1.1934c-0.02403-0.03931-0.04585-0.08239-0.07031-0.12109a1.1819 1.1819 0 0 1-0.13086-0.28125c-0.05366-0.03293-0.06651-0.04827-0.18555-0.09961-0.17002-0.07333-0.42888-0.15331-0.70312-0.23242-0.33514 0.51957-4.2024 0.92774-8.9668 0.92774s-8.6317-0.40816-8.9668-0.92773z" fill="#fff" fill-rule="evenodd" opacity=".5" style="paint-order:stroke fill markers"/>
  <rect id="rect1028" x="26" y="12" width="2" height="6" rx=".93881" ry=".57167" fill="#895729" fill-rule="evenodd" style="paint-order:stroke fill markers"/>
  <path id="path1033" d="m21 13h12l-6-5z" fill="#96d56b" stroke="#96d56b" stroke-linecap="round" stroke-linejoin="round" stroke-width="2"/>
  <path id="path1035" d="m27 8-2 5h4z" fill="#bfea83" stroke="#bfea83" stroke-linecap="round" stroke-linejoin="round" stroke-width="2"/>
  <rect id="rect1037" x="24" y="13" width="6" height="1" fill="#bfea83" fill-rule="evenodd" style="paint-order:stroke fill markers"/>
  <path id="path858" d="m26.994 7a1.0001 1.0001 0 0 0-0.63477 0.23242l-6 5a1.0001 1.0001 0 0 0 0.64062 1.7676h12a1.0001 1.0001 0 0 0 0.64062-1.7676l-6-5a1.0001 1.0001 0 0 0-0.64648-0.23242zm0.005859 1 6 5h-12z" color="#000000" color-rendering="auto" dominant-baseline="auto" image-rendering="auto" opacity=".25" shape-rendering="auto" solid-color="#000000" style="font-feature-settings:normal;font-variant-alternates:normal;font-variant-caps:normal;font-variant-ligatures:normal;font-variant-numeric:normal;font-variant-position:normal;isolation:auto;mix-blend-mode:normal;shape-padding:0;text-decoration-color:#000000;text-decoration-line:none;text-decoration-style:solid;text-indent:0;text-orientation:mixed;text-transform:none;white-space:normal"/>
 </g>
</svg>
