<?xml version="1.0" encoding="UTF-8"?>
<!-- Created with Inkscape (http://www.inkscape.org/) -->
<svg id="SVGRoot" width="48px" height="48px" version="1.1" viewBox="0 0 48 48" xmlns="http://www.w3.org/2000/svg" xmlns:cc="http://creativecommons.org/ns#" xmlns:dc="http://purl.org/dc/elements/1.1/" xmlns:rdf="http://www.w3.org/1999/02/22-rdf-syntax-ns#" xmlns:xlink="http://www.w3.org/1999/xlink">
 <defs id="defs815">
  <style id="style819">.cls-1{fill:none;stroke:#fff;stroke-linecap:round;stroke-linejoin:round;}</style>
  <style id="style819-3">.cls-1{fill:none;stroke:#fff;stroke-linecap:round;stroke-linejoin:round;}</style>
  <style id="style819-1">.cls-1{fill:none;stroke:#fff;stroke-linecap:round;stroke-linejoin:round;}</style>
  <style id="style2">.a{fill:none;stroke:#b1b5bd;stroke-linecap:round;stroke-linejoin:round;isolation:isolate;opacity:0.63;}</style>
  <style id="style819-12">.cls-1{fill:none;stroke:#fff;stroke-linecap:round;stroke-linejoin:round;}</style>
  <style id="style819-0">.cls-1{fill:none;stroke:#fff;stroke-linecap:round;stroke-linejoin:round;}</style>
  <style id="style819-3-4">.cls-1{fill:none;stroke:#fff;stroke-linecap:round;stroke-linejoin:round;}</style>
  <style id="style819-1-7">.cls-1{fill:none;stroke:#fff;stroke-linecap:round;stroke-linejoin:round;}</style>
  <style id="style2-3">.a{fill:none;stroke:#b1b5bd;stroke-linecap:round;stroke-linejoin:round;isolation:isolate;opacity:0.63;}</style>
  <style id="style819-12-9">.cls-1{fill:none;stroke:#fff;stroke-linecap:round;stroke-linejoin:round;}</style>
  <style id="style2-4">.a{fill:none;stroke:#b1b5bd;stroke-linecap:round;stroke-linejoin:round;isolation:isolate;opacity:0.63;}</style>
 </defs>
 <metadata id="metadata818">
  <rdf:RDF>
   <cc:Work rdf:about="">
    <dc:format>image/svg+xml</dc:format>
    <dc:type rdf:resource="http://purl.org/dc/dcmitype/StillImage"/>
    <dc:title/>
   </cc:Work>
  </rdf:RDF>
 </metadata>
 <g id="layer1" fill-rule="evenodd">
  <rect id="rect1373-5" x="4" y="4" width="40" height="40" ry="8" fill="#f68d59" style="paint-order:stroke fill markers"/>
  <path id="rect817" d="m12 4c-4.432 0-8 3.568-8 8v24c0 4.432 3.568 8 8 8h24c4.432 0 8-3.568 8-8v-24c0-4.432-3.568-8-8-8h-24zm0 1h24c3.878 0 7 3.122 7 7v24c0 3.878-3.122 7-7 7h-24c-3.878 0-7-3.122-7-7v-24c0-3.878 3.122-7 7-7z" opacity=".3" style="paint-order:stroke fill markers"/>
  <path id="rect846" d="m18.773 9.9275c-1.0642 0.0054-2.2276 0.06955-2.9601 0.17808-3.1551 0.46752-6.3672 1.6957-9.0912 3.477-0.34607 0.2263-0.68258 0.40602-0.72214 0.41737v5.5643l0.74833-0.69359c3.9194-3.6301 9.8453-5.5753 15.046-4.5182 1.6696 0.33938 3.4091 1.0978 4.8203 2.101 0.9176 0.65232 2.4685 2.1963 3.089 3.0754 1.6085 2.2787 2.4566 4.7315 2.602 7.7409 0.17787 3.68-1.1202 7.4066-3.3081 9.4962-1.3926 1.33-3.2029 2.2407-5.3264 2.6792-0.7594 0.15689-3.1642 0.26887-3.8756 0.1806-1.5357-0.19036-3.3992-0.73786-4.558-1.3391-2.2291-1.1566-3.9765-3.2289-4.7594-5.6448-0.31867-0.98339-0.40186-1.4428-0.40186-2.2143 0-2.8563 1.6325-5.2636 4.4885-6.6192 1.4757-0.70041 2.8456-1.0469 4.417-1.117 0.90366-0.04036 1.0945-0.02608 1.5712 0.11939 1.7847 0.54456 3.0758 2.3534 2.9928 4.1929-0.03823 0.84722-0.48643 1.747-1.2922 2.5942-1.2303 1.2937-2.6835 1.6571-3.655 0.91416-0.40325-0.30836-0.80811-0.86131-0.92861-1.5357-0.1434-0.8025-0.31341-1.1625-0.62999-1.3341-0.41263-0.22365-0.8528-0.08579-1.4414 0.49274-0.8282 0.81411-1.2701 1.8028-1.2862 3.2724-0.01078 0.98606 0.12463 1.4039 0.71711 2.2087 0.7727 1.0496 2.2146 1.8402 3.9432 2.2133 0.69682 0.1504 2.5243 0.12823 3.3312-0.04048 1.3755-0.28756 2.4587-0.88298 3.5306-1.9406 1.0744-1.0601 1.8487-2.2878 2.383-3.7796 1.1403-3.1836 0.80376-6.1193-0.97293-8.488-1.4163-1.8882-3.5893-3.1349-6.5824-3.776-0.88963-0.19056-1.1465-0.21068-2.6695-0.21349-1.8026-0.0033-2.3202 0.06588-3.6011 0.48111-2.8042 0.909-6.1369 3.6192-8.0523 6.5488l-0.33891 0.45026v10.625l0.23349 0.62087c1.4356 2.3189 3.8145 4.4854 6.102 5.5573l0.51081 0.16225h16.41l1.009-0.45278c4.2223-2.6338 6.3618-6.5849 7.3681-11.122 0.61402-2.7686 0.42146-5.6409-0.55445-8.2679-2.1443-5.7721-7.6148-10.513-14.459-11.888-0.62706-0.12599-1.596-0.27121-2.1533-0.32276-0.45238-0.04184-1.055-0.05991-1.6936-0.05666z" fill="#fff" style="paint-order:stroke fill markers"/>
 </g>
</svg>
