<?xml version="1.0" encoding="UTF-8"?>
<!-- Created with Inkscape (http://www.inkscape.org/) -->
<svg id="SVGRoot" width="48px" height="48px" version="1.1" viewBox="0 0 48 48" xmlns="http://www.w3.org/2000/svg" xmlns:cc="http://creativecommons.org/ns#" xmlns:dc="http://purl.org/dc/elements/1.1/" xmlns:rdf="http://www.w3.org/1999/02/22-rdf-syntax-ns#" xmlns:xlink="http://www.w3.org/1999/xlink">
 <defs id="defs815">
  <style id="style819">.cls-1{fill:none;stroke:#fff;stroke-linecap:round;stroke-linejoin:round;}</style>
  <linearGradient id="linearGradient922" x1="24" x2="24" y1="38" y2="10" gradientUnits="userSpaceOnUse">
   <stop id="stop916" stop-color="#9dd874" offset="0"/>
   <stop id="stop918" stop-color="#65b132" offset="1"/>
  </linearGradient>
  <style id="style2">.a{fill:none;stroke:#b1b5bd;stroke-linecap:round;stroke-linejoin:round;isolation:isolate;opacity:0.63;}</style>
  <style id="style819-9">.cls-1{fill:none;stroke:#fff;stroke-linecap:round;stroke-linejoin:round;}</style>
 </defs>
 <metadata id="metadata818">
  <rdf:RDF>
   <cc:Work rdf:about="">
    <dc:format>image/svg+xml</dc:format>
    <dc:type rdf:resource="http://purl.org/dc/dcmitype/StillImage"/>
    <dc:title/>
   </cc:Work>
  </rdf:RDF>
 </metadata>
 <g id="layer1">
  <rect id="rect1373" x="4" y="4" width="40" height="40" ry="8" fill="url(#linearGradient922)" fill-rule="evenodd" style="paint-order:stroke fill markers"/>
  <path id="rect817" d="m12 4c-4.432 0-8 3.568-8 8v24c0 4.432 3.568 8 8 8h24c4.432 0 8-3.568 8-8v-24c0-4.432-3.568-8-8-8h-24zm0 1h24c3.878 0 7 3.122 7 7v24c0 3.878-3.122 7-7 7h-24c-3.878 0-7-3.122-7-7v-24c0-3.878 3.122-7 7-7z" fill-rule="evenodd" opacity=".3" style="paint-order:stroke fill markers"/>
  <g id="g875" fill="#fff" opacity=".5">
   <path id="path817" d="m18 44s-8-6-8-20 8-20 8-20-10 6-10 20 10 20 10 20z"/>
   <path id="path817-2" d="m30 44s8-6 8-20-8-20-8-20 10 6 10 20-10 20-10 20z"/>
  </g>
  <path id="path817-0" d="m4 18s6-8 20-8 20 8 20 8-6-10-20-10-20 10-20 10z" fill="#fff" opacity=".5"/>
  <path id="path817-2-2" d="m4 30s6 8 20 8 20-8 20-8-6 10-20 10-20-10-20-10z" fill="#fff" opacity=".5"/>
  <rect id="rect908" x="10" y="10" width="4" height="4" ry="2" fill="#fff" fill-rule="evenodd" opacity=".75" style="paint-order:normal"/>
  <rect id="rect910" x="34" y="10" width="4" height="4" ry="2" fill="#fff" fill-rule="evenodd" opacity=".75" style="paint-order:normal"/>
  <rect id="rect912" x="10" y="34" width="4" height="4" ry="2" fill="#fff" fill-rule="evenodd" opacity=".75" style="paint-order:normal"/>
  <rect id="rect914" x="34" y="34" width="4" height="4" ry="2" fill="#fff" fill-rule="evenodd" opacity=".75" style="paint-order:normal"/>
  <path id="path845" d="m35.177 21.347s0.70984 0.40869 1.3413 0.77883c0.15035 0.08812 0.3365 0.59537-0.21634 0.47595-0.50319-0.10869-1.5144-0.30288-1.5144-0.30288z" fill="#4e4e4e"/>
  <path id="path931" d="m29.012 8.0605c-0.51434-0.032907-0.8632 0.24488-1.0547 0.44531-0.01671-0.00846-0.02367-0.019071-0.04102-0.027344-0.23881-0.11392-0.57469-0.24264-1.0273-0.13086-0.68098 0.16816-0.81894 0.58779-0.95312 0.86328-0.079587 0.1634-0.1172 0.31566-0.16797 0.47266-0.10664-0.018068-0.20158-0.047247-0.35156-0.027344-0.23084 0.030632-0.53131 0.16407-0.72656 0.38672-0.51004 0.5816-0.51693 1.1226-0.5 1.6035-0.12516 0.03636-0.21199-0.0248-0.3418 0.07227-0.4754 0.35549-0.60317 0.85942-0.64258 1.2383-0.03941 0.37886 7.68e-4 0.71688 0.05273 1.0234 0.01263 0.07448 0.02056 0.06593 0.03516 0.13672-0.13674 0.08252-0.26902 0.10391-0.39258 0.30664-0.24712 0.40546-0.22565 0.77193-0.1875 1.0449 0.0027 0.01935 0.0106 0.03 0.01367 0.04883-0.22172 0.09312-0.46161 0.15022-0.63086 0.46289-0.24112 0.44546-0.15035 0.86116-0.06055 1.1152 0.03933 0.11128 0.09049 0.1698 0.13672 0.25586-0.04561 0.05422-0.08954 0.08419-0.13477 0.15039-0.13723 0.20089-0.3093 0.49086-0.27539 0.93555 0.01759 0.23063 0.12568 0.30816 0.20703 0.44531-0.10133 0.13647-0.16902 0.36704-0.21874 0.61523-0.79369-0.46884-1.4235-0.78338-1.8672-1.1855-1.5329-1.3895-4.2949-5.4785-4.2949-5.4785a1.0001 1.0001 0 0 0-0.125-0.1543s-0.16142-0.16618-0.39453-0.33008c-0.11655-0.08195-0.25175-0.17378-0.4668-0.25-0.21504-0.07621-0.58977-0.16501-1.0059 0.05469-0.2051 0.1083-0.20698 0.25606-0.30469 0.40039-0.0057-0.0013-0.0079-0.0046-0.01367-0.0059-0.27412-0.06162-0.70258-0.10574-1.125 0.18555-0.47939 0.33056-0.6215 0.81809-0.67383 1.1816-0.05233 0.36355-0.02818 0.68695 0.0098 0.98047 8e-3 0.06166 0.01588 0.05415 0.02539 0.11328-0.08447 0.06133-0.15389 0.04211-0.23633 0.15039-0.29856 0.39217-0.32353 0.78133-0.31641 1.084 0.0071 0.30266 0.06375 0.56059 0.125 0.79102 0.03688 0.13874 0.04829 0.13539 0.08789 0.25-0.08592 0.13806-0.17544 0.29794-0.24805 0.51367-0.07405 0.22002-0.15864 0.52998-0.01367 0.93945 0.08505 0.24022 0.22044 0.30233 0.3457 0.41602-0.09657 0.2363-0.14879 0.52924-0.01172 0.97266 0.19425 0.62838 0.51888 0.78627 0.79297 0.90625-0.03572 0.24895-0.13196 0.46564 0.11719 0.89844 0.21594 0.37512 0.40555 0.37799 0.60547 0.46875-0.04353 0.34636-0.12646 0.78415 0.38672 1.3496 0.12051 0.13279 0.20776 0.13506 0.3125 0.20117 0.01143 0.22584 0.08155 0.48556 0.35937 0.8125 0.23719 0.27912 0.37149 0.19383 0.56055 0.25 0.0274 0.18053 7e-3 0.34969 0.19922 0.55859 0.13148 0.14289 0.24021 0.11272 0.37305 0.16992 5.09e-4 0.0054-5.52e-4 0.0083 0 0.01367 0.02383 0.23332 0.0749 0.55006 0.37305 0.86524 0.18508 0.19564 0.34237 0.20483 0.50586 0.25391 0.03579 0.14761 0.0046 0.26596 0.14453 0.43359 0.27556 0.33019 0.58679 0.40258 0.79492 0.4375 0.09601 0.01611 0.15472 0.0059 0.23242 0.0078 0.10346 0.22689 0.13174 0.46937 0.62695 0.66602 0.40134 0.15937 0.53096 0.01209 0.75195-0.04883 0.1316 0.1712 0.35963 0.42769 0.80078 0.49805 0.25074 0.03999 0.36142-0.0663 0.52734-0.12891 0.16611 0.16702 0.34089 0.36626 0.71875 0.39648 0.27853 0.02229 0.3951-0.11251 0.57031-0.20508 0.14533 0.12619 0.23308 0.27685 0.50781 0.32422 0.11738 0.02024 0.15094-0.0486 0.25-0.05664-0.36269 0.55937-0.7611 1.1746-1.0273 1.459-0.75013 0.80128-1.6541 1.3487-2.8516 2.1445-0.29392 0.19536-0.48475 0.5325-0.54883 0.78125-0.06407 0.24875-0.05436 0.42693-0.04883 0.56055 0.01106 0.26724-0.02987 0.38535 0.03516 0.19922-0.02701 0.07731-0.02166 0.05722-0.14258 0.22656-0.12092 0.16935-0.3155 0.46678-0.49023 0.89258-0.19241 0.46887-0.1156 0.78881-0.04687 1.0898 0.06873 0.30103 0.18018 0.57885 0.32422 0.8457 0.14404 0.26686 0.30759 0.51981 0.58398 0.75391 0.1382 0.11705 0.31163 0.23696 0.5625 0.30859 0.25087 0.07164 0.60101 0.06444 0.88672-0.07227 0.5667-0.27116 1.0283-0.56331 1.5156-0.85742 0.09499 0.08474 0.1587 0.18207 0.41797 0.22852 0.37151 0.06655 0.85718-0.186 1.0195-0.39453 0.72664-0.93333 1.3153-1.7832 1.7871-2.3965s0.90553-0.93975 0.84766-0.91797c1.4995-0.56426 4.7189-1.6714 6.8926-3.8672 1.9452-1.965 2.8668-5.0117 3.4102-6.2793-0.05072 0.11832-0.0527 0.06682 0.18555-0.09375 0.08986-0.06056 0.23347-0.26246 0.35938-0.36328 0.22994 0.04517 0.449 0.08483 0.66211 0.13086 0.26978 0.05827 0.60666 0.09624 0.98633-0.11523 0.37967-0.21148 0.58738-0.69284 0.5957-0.99414 0.0083-0.3013-0.06797-0.49771-0.16016-0.67578-0.09218-0.17807-0.16942-0.34322-0.49023-0.53125-0.48744-0.28571-0.83132-0.48252-1.0312-0.59766-0.10254-0.2953-0.12721-0.59802-0.375-0.85937-0.42992-0.45345-1.092-0.72566-1.8262-0.75586-0.55552-0.02285-1.0239 0.13566-1.4551 0.3418 0.04158-0.22261 0.15486-0.41745 0.16406-0.64258 0.02124-0.51988-0.07091-1.0527-0.15625-1.6191-0.08534-0.56642-0.17733-1.1413-0.19531-1.3594-0.17271-2.0953 0.23656-3.1291 0.34961-5.627 0.01873-0.41465-0.079557-0.73291-0.27543-1.0624-0.19588-0.32954-0.58662-0.76172-1.2422-0.76172-0.4064-2e-7 -0.61271 0.22875-0.83984 0.41797-0.22193-0.28957-0.56532-0.63972-1.1289-0.67578z" color="#000000" color-rendering="auto" dominant-baseline="auto" image-rendering="auto" opacity=".25" shape-rendering="auto" solid-color="#000000" style="font-feature-settings:normal;font-variant-alternates:normal;font-variant-caps:normal;font-variant-ligatures:normal;font-variant-numeric:normal;font-variant-position:normal;isolation:auto;mix-blend-mode:normal;shape-padding:0;text-decoration-color:#000000;text-decoration-line:none;text-decoration-style:solid;text-indent:0;text-orientation:mixed;text-transform:none;white-space:normal"/>
  <path id="path841" d="m23.711 27.924s-1.3177 2.4224-2.2499 3.4182c-0.86544 0.92445-1.8542 1.5125-3.0288 2.2932-0.29225 0.19425-0.05733 0.70715-0.17307 1.0384-0.14693 0.42054-0.36007 0.46413-0.64902 1.1682-0.19421 0.47325 0.49046 1.865 0.9519 1.6442 0.8557-0.40944 1.2485-0.56177 2.0769-1.1682 0.17456-0.12779 0.38632 0.60339 0.51922 0.43268 1.4126-1.8144 2.3194-3.3513 3.072-3.6345 1.5171-0.57091 4.6004-1.6818 6.5335-3.6345 1.6745-1.6915 2.6092-4.5883 3.2018-5.971 0.26119-0.60936 1.3419-0.5918 1.3413-1.8605-3.28e-4 -0.74455-0.34301-1.551-1.5577-1.6009-1.3-0.05346-3.3316 2.0336-3.3316 2.0336s1.0335-2.1946 1.0817-3.3749c0.02599-0.6362-0.29384-2.2211-0.34615-2.8557-0.18521-2.2469 0.2378-3.3607 0.34615-5.7547 0.01411-0.31169-0.20721-0.77883-0.51922-0.77883-0.62402-2e-7 -1.0384 1.5577-1.0384 1.5577s-0.30594-1.7732-0.99517-1.8173c-0.39154-0.02505-0.69229 0.9519-0.69229 0.9519s-0.69751-0.79785-1.125-0.69229c-0.43945 0.10852-0.69229 1.8173-0.69229 1.8173s-0.77134-0.68791-0.99517-0.43268c-0.45804 0.5223-0.17307 2.0769-0.17307 2.0769s-0.59195-0.4317-0.8221-0.25961c-0.60074 0.44922 0.04327 2.2499 0.04327 2.2499s-0.60447-0.04201-0.73556 0.17307c-0.24759 0.40623 0.34614 1.3846 0.34614 1.3846s-0.94528-0.20216-1.125 0.1298c-0.18422 0.34034 0.51922 1.0384 0.51922 1.0384s-0.76434 0.48788-0.73556 0.86536c0.02177 0.28545 0.64902 0.56249 0.64902 0.56249s-0.74066 0.42177-0.73556 0.77883c0.0055 0.3875 0.8221 0.8221 0.8221 0.8221l-0.69229 0.8221s-2.5389-1.3393-3.5913-2.2932c-1.7807-1.6142-4.4566-5.6681-4.4566-5.6681s-0.46414-0.46661-0.69229-0.34614c-0.28318 0.14953-0.1298 0.9519-0.1298 0.9519s-0.85848-0.67611-1.2115-0.43268c-0.58192 0.40127-0.04327 2.1201-0.04327 2.1201s-0.4822-0.07575-0.60575 0.08654c-0.34351 0.45121 0.21634 1.6875 0.21634 1.6875s-0.549 0.62334-0.43268 0.9519c0.09687 0.27361 0.77883 0.38941 0.77883 0.38941s-0.54343 0.68017-0.43268 1.0384c0.10161 0.32869 0.86536 0.56249 0.86536 0.56249s-0.21611 0.73819-0.04327 1.0384c0.1545 0.26838 0.8221 0.43268 0.8221 0.43268s-0.2283 0.91227 0.04327 1.2115c0.14668 0.16162 0.64902 0.08654 0.64902 0.08654s-0.16241 0.70986 0.04327 0.9519c0.18134 0.2134 0.8221 0.17307 0.8221 0.17307s-0.22465 0.45566-0.08654 0.60576c0.1663 0.18074 0.73556-0.04327 0.73556-0.04327s-0.24779 0.81977 0 1.0817c0.17868 0.18888 0.77883 0.04327 0.77883 0.04327s-0.23555 0.51374-0.08654 0.69229c0.1666 0.19962 0.77883 0.04327 0.77883 0.04327s0.19318 0.66654 0.47595 0.77883c0.30567 0.12138 0.9519-0.25961 0.9519-0.25961s0.14027 0.60929 0.38941 0.64902c0.28271 0.04509 0.64902-0.56249 0.64902-0.56249s0.19614 0.79625 0.51922 0.8221c0.32594 0.02608 0.64902-0.73556 0.64902-0.73556s0.18772 0.80821 0.51922 0.86536c0.31301 0.05396 0.73556-0.60576 0.73556-0.60576z" fill="#fff"/>
  <rect id="rect843" x="33.576" y="20.611" width=".99517" height=".99517" ry=".49758" fill="#4e4e4e" fill-rule="evenodd" style="paint-order:normal"/>
  <path id="path847" d="m23.711 27.924s0.67764-0.63223 1.1018-0.63653c0.57054-0.0058 1.4992 0.82607 1.4992 0.82607s1.8494-0.67947 1.3768-1.591c-0.28167-0.54322-0.91814-0.83412-1.4686-1.1014-4.8163-2.3389-6.6392-6.0579-6.6392-6.0579s-0.79111 2.5744-0.0306 3.4267c2.0593 2.3079 6.578 2.9983 6.578 2.9983s-1.429 0.04196-2.1417 0c-0.78384-0.04616-0.27569 2.1357-0.27569 2.1357z" fill="#d8e9f0"/>
  <path id="path849" d="m28.947 9.0586c-0.39154-0.02505-0.69336 0.95117-0.69336 0.95117s-0.69753-0.79696-1.125-0.69141c-0.43945 0.10852-0.69141 1.8164-0.69141 1.8164s-0.77227-0.68687-0.99609-0.43164c-0.45804 0.5223-0.17188 2.0762-0.17188 2.0762s-0.59212-0.43186-0.82226-0.25977c-0.60074 0.44922 0.04297 2.25 0.04297 2.25s-0.60524-0.04126-0.73633 0.17383c-0.24759 0.40623 0.3457 1.3848 0.3457 1.3848s-0.94531-0.20306-1.125 0.12891c-0.18422 0.34034 0.51953 1.0391 0.51953 1.0391s-0.76316 0.48775-0.73438 0.86523c0.02177 0.28545 0.64844 0.5625 0.64844 0.5625s-0.74143 0.42224-0.73633 0.7793c0.0055 0.3875 0.82227 0.82227 0.82227 0.82227l-0.69141 0.82226 5.8652 3.7969s-0.98647-1.8968-1.0703-2.9355c-0.12697-1.573-0.08874-3.4099 0.88672-4.6504 0.60936-0.77494 2.1067-0.43093 2.6914-1.2246 0.01352-0.01835 0.0239-0.04168 0.03711-0.06055-0.01743-0.12915-0.05282-0.3281-0.06055-0.42188-0.18521-2.2469 0.23931-3.3599 0.34766-5.7539 0.01411-0.31169-0.20752-0.7793-0.51953-0.7793-0.62402-2e-7 -1.0391 1.5566-1.0391 1.5566s-0.30491-1.7723-0.99414-1.8164z" fill="#d8e9f0"/>
 </g>
</svg>
