<?xml version="1.0" encoding="UTF-8"?>
<!-- Created with Inkscape (http://www.inkscape.org/) -->
<svg id="SVGRoot" width="48px" height="48px" version="1.1" viewBox="0 0 48 48" xmlns="http://www.w3.org/2000/svg" xmlns:cc="http://creativecommons.org/ns#" xmlns:dc="http://purl.org/dc/elements/1.1/" xmlns:rdf="http://www.w3.org/1999/02/22-rdf-syntax-ns#">
 <defs id="defs815">
  <style id="style819">.cls-1{fill:none;stroke:#fff;stroke-linecap:round;stroke-linejoin:round;}</style>
 </defs>
 <metadata id="metadata818">
  <rdf:RDF>
   <cc:Work rdf:about="">
    <dc:format>image/svg+xml</dc:format>
    <dc:type rdf:resource="http://purl.org/dc/dcmitype/StillImage"/>
    <dc:title/>
   </cc:Work>
  </rdf:RDF>
 </metadata>
 <g id="layer1">
  <rect id="rect1373-5" x="4" y="4" width="40" height="40" ry="8" fill="#ffdd75" fill-rule="evenodd" style="paint-order:stroke fill markers"/>
  <path id="rect817" d="m12 4c-4.432 0-8 3.568-8 8v24c0 4.432 3.568 8 8 8h24c4.432 0 8-3.568 8-8v-24c0-4.432-3.568-8-8-8h-24zm0 1h24c3.878 0 7 3.122 7 7v24c0 3.878-3.122 7-7 7h-24c-3.878 0-7-3.122-7-7v-24c0-3.878 3.122-7 7-7z" fill-rule="evenodd" opacity=".3" style="paint-order:stroke fill markers"/>
  <rect id="rect860" x="12" y="26" width="24" height="10" rx="11.974" ry="5" fill="#46589d" fill-rule="evenodd" style="paint-order:normal"/>
  <rect id="rect828" transform="rotate(15.114)" x="42.733" y="-3.543" width="4" height="38" ry="1" fill="#4e4e4e" fill-rule="evenodd" style="paint-order:stroke fill markers"/>
  <path id="rect830" d="m43.405 7.0173c-0.53484-0.14445-1.0817 0.16983-1.2262 0.70466l-1.8252 6.7579 3.8616 1.043 1.8252-6.7579c0.14445-0.53484-0.16983-1.0817-0.70466-1.2262z" fill="#efefef" fill-rule="evenodd" style="paint-order:stroke fill markers"/>
  <path id="rect830-6" d="m32.975 45.634c-0.53484-0.14445-0.84912-0.69132-0.70466-1.2262l1.8252-6.7579 3.8616 1.043-1.8252 6.7579c-0.14445 0.53484-0.69132 0.84912-1.2262 0.70466z" fill="#efefef" fill-rule="evenodd" style="paint-order:stroke fill markers"/>
  <path id="rect850" d="m43.405 7.0173c-0.53484-0.14445-1.0817 0.16983-1.2262 0.70466l-9.9083 36.686c-0.14445 0.53484 0.16983 1.0817 0.70466 1.2262l1.9308 0.52149c0.53484 0.14445 1.0817-0.16983 1.2262-0.70466l9.9083-36.686c0.14445-0.53484-0.16983-1.0817-0.70466-1.2262zm0.22196 1.0958 0.96541 0.26074c0.26742 0.072226 0.42456 0.34566 0.35233 0.61308l-9.6475 35.72c-0.07222 0.26742-0.34566 0.42456-0.61308 0.35233l-0.96541-0.26074c-0.26742-0.072223-0.42456-0.34566-0.35233-0.61308l9.6475-35.72c0.072223-0.26742 0.34566-0.42456 0.61308-0.35233z" fill-rule="evenodd" opacity=".25" style="paint-order:stroke fill markers"/>
  <path id="path862" d="m18 29 3-12s1-3 8-3c3 0 5 5 5 5s-3-2-5 0c-2.3688 2.3688 1 10 1 10z" fill="#46589d" stroke="#46589d" stroke-linecap="round" stroke-linejoin="round" stroke-width="4"/>
  <rect id="rect864" x="20" y="18" width="4" height="4" ry="2" fill="#ffdd75" fill-rule="evenodd" style="paint-order:normal"/>
  <rect id="rect864-2" x="18" y="26" width="6" height="6" ry="3" fill="#ffdd75" fill-rule="evenodd" style="paint-order:normal"/>
  <rect id="rect881" x="26" y="24" width="2" height="2" ry="1" fill="#ffdd75" fill-rule="evenodd" style="paint-order:normal"/>
 </g>
</svg>
