<?xml version="1.0" encoding="UTF-8"?>
<!-- Created with Inkscape (http://www.inkscape.org/) -->
<svg id="SVGRoot" width="48px" height="48px" version="1.1" viewBox="0 0 48 48" xmlns="http://www.w3.org/2000/svg" xmlns:cc="http://creativecommons.org/ns#" xmlns:dc="http://purl.org/dc/elements/1.1/" xmlns:rdf="http://www.w3.org/1999/02/22-rdf-syntax-ns#">
 <defs id="defs815">
  <style id="style819">.cls-1{fill:none;stroke:#fff;stroke-linecap:round;stroke-linejoin:round;}</style>
 </defs>
 <metadata id="metadata818">
  <rdf:RDF>
   <cc:Work rdf:about="">
    <dc:format>image/svg+xml</dc:format>
    <dc:type rdf:resource="http://purl.org/dc/dcmitype/StillImage"/>
    <dc:title/>
   </cc:Work>
  </rdf:RDF>
 </metadata>
 <g id="layer1">
  <rect id="rect1373-5" x="4" y="4" width="40" height="40" ry="8" fill="#71b9e3" fill-rule="evenodd" style="paint-order:stroke fill markers"/>
  <path id="rect817" d="m12 4c-4.432 0-8 3.568-8 8v24c0 4.432 3.568 8 8 8h24c4.432 0 8-3.568 8-8v-24c0-4.432-3.568-8-8-8h-24zm0 1h24c3.878 0 7 3.122 7 7v24c0 3.878-3.122 7-7 7h-24c-3.878 0-7-3.122-7-7v-24c0-3.878 3.122-7 7-7z" fill-rule="evenodd" opacity=".3" style="paint-order:stroke fill markers"/>
  <path id="path830-8" d="m 18,11 -1,5 -3,-2 0.441708,3.537083 L 10,18 12.841615,21.352689 10,24 13.457034,25.106753 11,30 15.672548,27.814603 16,31 18.072688,29.045445 20,32 20.595912,28.676192 24,31 23.180677,27.445351 27,28 25.580816,26.091426 29,26 26.811658,22.89124 31,20 26.38086,19.383343 27,16 24.226889,16.55241 24,13 20.226658,15.136942 Z" fill="#ffbf4e"/>
  <rect id="rect828-5" x="13.961" y="16.098" width="11.865" height="11.865" ry="5.9325" fill="#fff" fill-rule="evenodd" style="paint-order:normal"/>
  <rect id="rect832" x="18" y="28" width="20" height="8" ry="4" fill="#fffcdf" fill-rule="evenodd" style="paint-order:normal"/>
  <rect id="rect836" x="26" y="23" width="8" height="8" ry="4" fill="#fffcdf" fill-rule="evenodd" style="paint-order:normal"/>
  <rect id="rect834" x="22" y="25" width="6" height="6" ry="3" fill="#fffcdf" fill-rule="evenodd" style="paint-order:normal"/>
 </g>
</svg>
