<?xml version="1.0" encoding="UTF-8"?>
<!-- Created with Inkscape (http://www.inkscape.org/) -->
<svg id="SVGRoot" width="48px" height="48px" version="1.1" viewBox="0 0 48 48" xmlns="http://www.w3.org/2000/svg" xmlns:cc="http://creativecommons.org/ns#" xmlns:dc="http://purl.org/dc/elements/1.1/" xmlns:rdf="http://www.w3.org/1999/02/22-rdf-syntax-ns#" xmlns:xlink="http://www.w3.org/1999/xlink">
 <defs id="defs815">
  <style id="style819">.cls-1{fill:none;stroke:#fff;stroke-linecap:round;stroke-linejoin:round;}</style>
 </defs>
 <metadata id="metadata818">
  <rdf:RDF>
   <cc:Work rdf:about="">
    <dc:format>image/svg+xml</dc:format>
    <dc:type rdf:resource="http://purl.org/dc/dcmitype/StillImage"/>
    <dc:title/>
   </cc:Work>
  </rdf:RDF>
 </metadata>
 <g id="layer1">
  <rect id="rect1373" x="4" y="4" width="40" height="40" ry="8" fill="#4e4e4e" fill-rule="evenodd" style="paint-order:stroke fill markers"/>
  <path id="rect817" d="m12 4c-4.432 0-8 3.568-8 8v24c0 4.432 3.568 8 8 8h24c4.432 0 8-3.568 8-8v-24c0-4.432-3.568-8-8-8h-24zm0 1h24c3.878 0 7 3.122 7 7v24c0 3.878-3.122 7-7 7h-24c-3.878 0-7-3.122-7-7v-24c0-3.878 3.122-7 7-7z" fill-rule="evenodd" opacity=".4" style="paint-order:stroke fill markers"/>
  <path id="path2313" d="m23.732 9.9785c-0.8772-0.00175-1.7455 0.31859-2.375 0.96289l-10.473 10.715c-3.5384 4.3819 2.4079 3.8727 4.957 5.1348 0.91442 0.93469-3.5062 1.6251-2.5918 2.5605 0.91442 0.93469 5.5313 1.8016 6.4473 2.7363 0.91442 0.93469-1.8734 1.9247-0.95898 2.8594 0.91442 0.93469 3.0298 0.04921 3.4258 2.207 0.2822 1.542 3.8112 0.66327 5.5371-0.59961 0.91442-0.93547-1.7484-0.84656-0.83398-1.7812 2.274-2.3254 4.39-0.84568 5.168-3.1758 0.38432-1.1514-3.3457-1.7762-2.4297-2.7109 2.631-1.5365 11.723-2.5367 7.4082-6.8516l-10.855-11.094c-0.66379-0.63729-1.5486-0.96114-2.4258-0.96289zm0.09375 1.0215c0.62628 0.0033 1.2498 0.23614 1.6992 0.69141l4.1445 4.209c0.3929 0.40147 0.38585 1.1786 0.16602 1.4023l-2.0566-1.6445-0.4043 2.4355-1.7188-0.90625-2.752 1.7383-0.91211-3.666-1.4785 2.5586h-2.2617c-0.92144 0-1.0287-1.1686-0.19141-2.0059 1.4624-1.5786 3.1407-3.1887 4.0527-4.1211 0.45838-0.46851 1.0866-0.69472 1.7129-0.69141zm-4.9766 16.371c0.27986 0.17384 4.5144 1.0336 5.5488 1.2051 0.3586 0.07562 0.10362 0.44585-0.39063 0.69531-1.1148 0.29623-6.5224-1.9004-5.1582-1.9004zm16.459 2.9453c-0.85167 0.02933-1.6903 0.46544-1.9219 1.2812 0 0.53166 3.916 0.88063 3.916-0.125-0.27908-0.80762-1.1425-1.1856-1.9941-1.1562zm-17.801 2.3105c-1.2564-0.09607-2.8726 0.83782-1.7676 1.7949 0.92767 0.80216 2.3595-0.19891 2.7891-1.3184-0.22471-0.29857-0.60268-0.44454-1.0215-0.47656zm15.387 0.0625c-1.1958 1.0727 0.13381 2.1618 1.3125 1.4688 0.26271-0.26661-0.0067-1.2021-1.3125-1.4688z" fill="#fff" stroke-width=".077956"/>
 </g>
 <style id="style26" type="text/css">.specularity {opacity:0.5;}
	.low-specularity {opacity:0.25;}
	.full-specularity {opacity:1;}
	.black {fill:#000000;}
	.white {fill:#ffffff;}
	.outline-big {stroke-width:16;stroke:none;opacity:0.1;fill:none;}
	.outline-small {stroke-width:8;stroke:none;opacity:0.2;fill:none;}
	.stroke-highlight {fill:none;stroke:none;opacity:0.2;}
       	.base-shadow 	{fill:black;opacity:75;}</style>
</svg>
