<?xml version="1.0" encoding="UTF-8"?>
<!-- Created with Inkscape (http://www.inkscape.org/) -->
<svg id="SVGRoot" width="48px" height="48px" version="1.1" viewBox="0 0 48 48" xmlns="http://www.w3.org/2000/svg" xmlns:cc="http://creativecommons.org/ns#" xmlns:dc="http://purl.org/dc/elements/1.1/" xmlns:rdf="http://www.w3.org/1999/02/22-rdf-syntax-ns#" xmlns:xlink="http://www.w3.org/1999/xlink">
 <defs id="defs815">
  <style id="style819">.cls-1{fill:none;stroke:#fff;stroke-linecap:round;stroke-linejoin:round;}</style>
  <linearGradient id="linearGradient894" x1="25" x2="25" y1="6" y2="42" gradientUnits="userSpaceOnUse">
   <stop id="stop888" stop-color="#b072dd" offset="0"/>
   <stop id="stop896" stop-color="#dd5c89" offset=".5"/>
   <stop id="stop890" stop-color="#ffdd75" offset="1"/>
  </linearGradient>
 </defs>
 <metadata id="metadata818">
  <rdf:RDF>
   <cc:Work rdf:about="">
    <dc:format>image/svg+xml</dc:format>
    <dc:type rdf:resource="http://purl.org/dc/dcmitype/StillImage"/>
    <dc:title/>
   </cc:Work>
  </rdf:RDF>
 </metadata>
 <g id="layer1" fill-rule="evenodd">
  <rect id="rect1373" x="4" y="4" width="40" height="40" ry="8" fill="url(#linearGradient894)" style="paint-order:stroke fill markers"/>
  <path id="rect817" d="m12 4c-4.432 0-8 3.568-8 8v24c0 4.432 3.568 8 8 8h24c4.432 0 8-3.568 8-8v-24c0-4.432-3.568-8-8-8h-24zm0 1h24c3.878 0 7 3.122 7 7v24c0 3.878-3.122 7-7 7h-24c-3.878 0-7-3.122-7-7v-24c0-3.878 3.122-7 7-7z" opacity=".3" style="paint-order:stroke fill markers"/>
  <path id="rect817-8" d="m16 12c-2.216 0-4 1.784-4 4v16c0 2.216 1.784 4 4 4h16c2.216 0 4-1.784 4-4v-16c0-2.216-1.784-4-4-4zm0 2h16c1.108 0 2 0.892 2 2v16c0 1.108-0.892 2-2 2h-16c-1.108 0-2-0.892-2-2v-16c0-1.108 0.892-2 2-2z" fill="#fff" style="paint-order:stroke fill markers"/>
  <path id="rect821" d="m24 18c-3.324 0-6 2.676-6 6s2.676 6 6 6 6-2.676 6-6-2.676-6-6-6zm0 2c2.216 0 4 1.784 4 4s-1.784 4-4 4-4-1.784-4-4 1.784-4 4-4z" fill="#fff" style="paint-order:stroke fill markers"/>
  <rect id="rect825" x="30" y="16" width="2" height="2" ry="1" fill="#fff" style="paint-order:stroke fill markers"/>
 </g>
</svg>
