<?xml version="1.0" encoding="UTF-8"?>
<!-- Created with Inkscape (http://www.inkscape.org/) -->
<svg id="SVGRoot" width="48px" height="48px" version="1.1" viewBox="0 0 48 48" xmlns="http://www.w3.org/2000/svg" xmlns:cc="http://creativecommons.org/ns#" xmlns:dc="http://purl.org/dc/elements/1.1/" xmlns:rdf="http://www.w3.org/1999/02/22-rdf-syntax-ns#">
 <defs id="defs815">
  <style id="style819">.cls-1{fill:none;stroke:#fff;stroke-linecap:round;stroke-linejoin:round;}</style>
 </defs>
 <metadata id="metadata818">
  <rdf:RDF>
   <cc:Work rdf:about="">
    <dc:format>image/svg+xml</dc:format>
    <dc:type rdf:resource="http://purl.org/dc/dcmitype/StillImage"/>
    <dc:title/>
   </cc:Work>
  </rdf:RDF>
 </metadata>
 <g id="layer1">
  <rect id="rect1373-5" x="4" y="4" width="40" height="40" ry="8" fill="#3772ae" fill-rule="evenodd" style="paint-order:stroke fill markers"/>
  <path id="rect817" d="m12 4c-4.432 0-8 3.568-8 8v24c0 4.432 3.568 8 8 8h24c4.432 0 8-3.568 8-8v-24c0-4.432-3.568-8-8-8h-24zm0 1h24c3.878 0 7 3.122 7 7v24c0 3.878-3.122 7-7 7h-24c-3.878 0-7-3.122-7-7v-24c0-3.878 3.122-7 7-7z" fill-rule="evenodd" opacity=".3" style="paint-order:stroke fill markers"/>
  <path id="path830" d="m24 20c-7.756 0-14 3.122-14 7v7l1 1 1 5s1 6 12 6 12-6 12-6l1-5 1-1v-7c0-3.878-6.244-7-14-7z" fill="#efefef"/>
  <path id="path865-5" d="m24 20c-7.756 0-14 3.122-14 7v7l1 1 1 5s1 6 12 6 12-6 12-6l1-5 1-1v-7c0-3.878-6.244-7-14-7zm0 1c3.7438 0 7.1132 0.76558 9.4609 1.9395 2.3477 1.1739 3.5391 2.6582 3.5391 4.0605v2.5859c-0.2821 0.35302-0.61347 0.69336-1 1.0156v4.2969l-0.98438 4.9219-0.001953 0.015626s-0.148 1.1204-1.5664 2.4297c-1.4183 1.3093-4.1291 2.7344-9.4473 2.7344s-8.0289-1.4251-9.4473-2.7344-1.5664-2.4297-1.5664-2.4297l-0.001953-0.015626-0.98438-4.9219v-4.2969c-0.38653-0.32227-0.7179-0.6626-1-1.0156v-2.5859c0-1.4023 1.1913-2.8867 3.5391-4.0605 2.3477-1.1739 5.7171-1.9395 9.4609-1.9395zm-10 10.904v5.0957l2 1v-5.252c-0.7189-0.2501-1.3888-0.53213-2-0.84375zm20 0c-0.61121 0.31162-1.2811 0.59366-2 0.84375v5.252l2-1v-5.0957zm-16 1.418v5.1777l2 0.5v-5.293c-0.69263-0.10247-1.3573-0.23261-2-0.38476zm12 0c-0.64272 0.15215-1.3074 0.28229-2 0.38476v5.293l2-0.5v-5.1777zm-7 0.65234v5.0254h2v-5.0254c-0.33156 0.011641-0.66232 0.025391-1 0.025391s-0.66844-0.01375-1-0.025391z" opacity=".3"/>
  <rect id="rect889" x="13" y="22" width="22" height="10" rx="11" ry="4.9481" fill-rule="evenodd" opacity=".25" style="paint-order:normal"/>
  <path id="path922" d="m31.908 18.953-2.7871 0.03516-2.0176 1.5781-1.4668-0.36719-2.2363 0.36719-3.7422-0.62305-4.9141 7.6641-0.32617 0.86719c1.8792 1.5075 5.4512 2.5254 9.582 2.5254 5.4247 0 9.8996-1.7505 10.818-4.0684l-0.30664-1.6348-1.9062-1.6504 0.62305-1.3926z" fill="#9fc070"/>
  <path id="path1090" d="m34.512 25.297-5.3613 0.81445-4.3574 2.957-3.2148 1.0898-2.3867-2.5684 0.50391-1.7051-3.6719-0.27344-1.2793 1.9961-0.32617 0.86719c1.8792 1.5075 5.4512 2.5254 9.582 2.5254 5.4247 0 9.8996-1.7505 10.818-4.0684z" opacity=".25"/>
  <path id="path895" d="m11.993 25.04 1.1736 2.8608 2.0906 0.11003 4.4379-2.1272 2.0906-3.1175 0.58682-1.9072-1.0269-3.0075 6.3817-3.7043 0.73353-3.9611-3.2275-0.25674-6.0883 6.1617-1.4304-0.22006 2.0539-7.9955-2.6774-1.8338-2.0906 1.7972 0.51347 8.619-3.5209 3.0808z" fill="#bfea83"/>
  <path id="path1088" d="m20.047 16.465-0.38867 3.4785-4.0195 5.5723-0.38086 2.4961 4.4375-2.127 2.0898-3.1191 0.58789-1.9062-1.0273-3.0078z" opacity=".25"/>
 </g>
</svg>
