<?xml version="1.0" encoding="UTF-8"?>
<!-- Created with Inkscape (http://www.inkscape.org/) -->
<svg id="SVGRoot" width="48px" height="48px" version="1.1" viewBox="0 0 48 48" xmlns="http://www.w3.org/2000/svg" xmlns:cc="http://creativecommons.org/ns#" xmlns:dc="http://purl.org/dc/elements/1.1/" xmlns:rdf="http://www.w3.org/1999/02/22-rdf-syntax-ns#">
 <defs id="defs815">
  <style id="style819">.cls-1{fill:none;stroke:#fff;stroke-linecap:round;stroke-linejoin:round;}</style>
 </defs>
 <metadata id="metadata818">
  <rdf:RDF>
   <cc:Work rdf:about="">
    <dc:format>image/svg+xml</dc:format>
    <dc:type rdf:resource="http://purl.org/dc/dcmitype/StillImage"/>
    <dc:title/>
   </cc:Work>
  </rdf:RDF>
 </metadata>
 <g id="layer1">
  <rect id="rect1373-5" x="4" y="4" width="40" height="40" ry="8" fill="#efefef" fill-rule="evenodd" style="paint-order:stroke fill markers"/>
  <path id="rect817-3" d="m12 12v24h24v-24zm1 1h22v22h-22z" fill-rule="evenodd" opacity=".25" style="paint-order:stroke fill markers"/>
  <path id="rect822" d="m24 10c-7.756 0-14 6.244-14 14s6.244 14 14 14 14-6.244 14-14-6.244-14-14-14zm0 1c7.202 0 13 5.798 13 13s-5.798 13-13 13-13-5.798-13-13 5.798-13 13-13z" fill-rule="evenodd" opacity=".25" style="paint-order:stroke fill markers"/>
  <rect id="rect817-2" x="10" y="10" width="28" height="28" ry="4" fill="#729dec" fill-rule="evenodd" style="paint-order:normal"/>
  <path id="path830-1" d="m31.176 16.754c0.88218 0.84986 1.5714 1.8705 2.0676 3.0618 0.5041 1.1837 0.75616 2.5117 0.75616 3.9837 0 1.0623-0.15753 2.1436-0.4726 3.2439-0.31507 0.87412-0.78135 1.453-1.1815 1.9554h-6.1233l-0.18904-0.59638c-0.23162 0.43405-0.37503 0.70192-1.1547 1.1679-0.41746 0.16694-1.02 0.25041-1.8077 0.25041-1.2839 0-2.3236-0.5084-3.1192-1.5252-0.79554-1.0244-1.1933-2.4016-1.1933-4.1317 0-0.92575 0.1339-1.7339 0.40171-2.4244 0.2678-0.6981 0.63407-1.3052 1.0988-1.8211 0.43321-0.48564 0.95701-0.86504 1.5714-1.1382 0.61438-0.27317 1.2248-0.40976 1.8313-0.40976 0.51986 0 0.98064 0.09485 1.3824 0.28455 0.40171 0.18211 0.49549 0.37561 0.71603 0.58049v-0.70569h2.9584v8.8143h2.0085c0.28356-0.59946 0.49229-0.77468 0.6262-1.4728 0.14178-0.70569 0.21267-1.381 0.21267-2.026 0-1.2824-0.1851-2.4054-0.5553-3.3691-0.3702-0.97128-0.88218-1.7756-1.5359-2.413-0.66951-0.65258-1.4532-1.1382-2.3512-1.4569-0.89794-0.3187-1.8707-0.47805-2.9183-0.47805-1.0003 0-1.9534 0.1897-2.8592 0.56911-0.89794 0.3794-1.6895 0.8916-2.3748 1.5366-0.70102 0.66016-1.2721 1.4873-1.7132 2.4813-0.43322 0.99404-0.64982 2.0829-0.64982 3.2667 0 1.29 0.20479 2.432 0.61438 3.426 0.41746 0.99404 0.96883 1.8211 1.6541 2.4813 0.68527 0.65257 1.4808 1.1496 2.3866 1.4911 0.90581 0.34146 1.8628 0.5122 2.871 0.5122 0.66952 0 1.4296-0.0607 2.2803-0.18211 0.85855-0.11382 1.6186-0.26558 2.2803-0.45528v2.2081c-0.73253 0.15934-1.4611 0.28076-2.1858 0.36423-0.72465 0.08346-1.5163 0.12521-2.3748 0.12521-1.4414 0-2.7765-0.23902-4.0053-0.71707-1.2209-0.47805-2.2803-1.1572-3.1782-2.0374-0.89006-0.87263-1.5871-1.9274-2.0912-3.1642-0.49623-1.2369-0.74434-2.5875-0.74434-4.052 0-1.4114 0.25993-2.7165 0.77979-3.9155 0.51986-1.2065 1.2366-2.2575 2.1503-3.1528 0.89006-0.88022 1.9534-1.5745 3.19-2.0829 1.2445-0.5084 2.5638-0.7626 3.958-0.7626 1.3863 0 2.6781 0.23523 3.8753 0.70569 1.2051 0.47046 2.2409 1.1306 3.1073 1.9805zm-5.4026 9.9935v-5.7366c-0.32294-0.15934-0.47735-0.27317-0.75304-0.34146-0.27568-0.07588-0.58681-0.11382-0.93338-0.11382-0.75616 0-1.339 0.3187-1.7486 0.9561-0.40958 0.6374-0.61438 1.51-0.61438 2.6179 0 1.1989 0.16935 2.0867 0.50804 2.6634 0.33869 0.57669 0.89794 0.86504 1.6777 0.86504 0.40959 0 0.76797-0.07588 1.0752-0.22764 0.30719-0.15934 0.47342-0.38699 0.78848-0.68293z" fill="#fff"/>
  <path id="rect817" d="m12 4c-4.432 0-8 3.568-8 8v24c0 4.432 3.568 8 8 8h24c4.432 0 8-3.568 8-8v-24c0-4.432-3.568-8-8-8h-24zm0 1h24c3.878 0 7 3.122 7 7v24c0 3.878-3.122 7-7 7h-24c-3.878 0-7-3.122-7-7v-24c0-3.878 3.122-7 7-7z" fill-rule="evenodd" opacity=".3" style="paint-order:stroke fill markers"/>
  <path id="rect849" d="m12 4c-0.68298 0-1.3426 0.09434-1.9746 0.25391 0.13256 2.0944 1.8456 3.7461 3.9746 3.7461 2.216 0 4-1.784 4-4h-6zm8 0c0 2.216 1.784 4 4 4s4-1.784 4-4h-8zm10 0c0 2.216 1.784 4 4 4 2.129 0 3.842-1.6517 3.9746-3.7461-0.63205-0.15957-1.2916-0.25391-1.9746-0.25391h-6zm-25.746 6.0254c-0.15957 0.63205-0.25391 1.2916-0.25391 1.9746v6c2.216 0 4-1.784 4-4 0-2.129-1.6517-3.842-3.7461-3.9746zm39.492 0c-2.0944 0.13256-3.7461 1.8456-3.7461 3.9746 0 2.216 1.784 4 4 4v-6c0-0.68298-0.09434-1.3426-0.25391-1.9746zm-39.746 9.9746v8c2.216 0 4-1.784 4-4s-1.784-4-4-4zm40 0c-2.216 0-4 1.784-4 4s1.784 4 4 4v-8zm-40 10v6c0 0.68298 0.09434 1.3426 0.25391 1.9746 2.0944-0.13256 3.7461-1.8456 3.7461-3.9746 0-2.216-1.784-4-4-4zm40 0c-2.216 0-4 1.784-4 4 0 2.129 1.6517 3.842 3.7461 3.9746 0.15957-0.63205 0.25391-1.2916 0.25391-1.9746v-6zm-30 10c-2.129 0-3.842 1.6517-3.9746 3.7461 0.63205 0.15957 1.2916 0.25391 1.9746 0.25391h6c0-2.216-1.784-4-4-4zm10 0c-2.216 0-4 1.784-4 4h8c0-2.216-1.784-4-4-4zm10 0c-2.216 0-4 1.784-4 4h6c0.68298 0 1.3426-0.09434 1.9746-0.25391-0.13256-2.0944-1.8456-3.7461-3.9746-3.7461z" fill-rule="evenodd" opacity=".1" style="paint-order:stroke fill markers"/>
 </g>
</svg>
