<?xml version="1.0" encoding="UTF-8"?>
<!-- Created with Inkscape (http://www.inkscape.org/) -->
<svg id="SVGRoot" width="48px" height="48px" version="1.1" viewBox="0 0 48 48" xml:space="preserve" xmlns="http://www.w3.org/2000/svg" xmlns:cc="http://creativecommons.org/ns#" xmlns:dc="http://purl.org/dc/elements/1.1/" xmlns:rdf="http://www.w3.org/1999/02/22-rdf-syntax-ns#"><defs><style>.cls-1{fill:none;stroke:#fff;stroke-linecap:round;stroke-linejoin:round;}</style><style>.cls-1{fill:none;stroke:#fff;stroke-linecap:round;stroke-linejoin:round;}</style><style>.cls-1{fill:none;stroke:#fff;stroke-linecap:round;stroke-linejoin:round;}</style><style>.cls-1{fill:none;stroke:#fff;stroke-linecap:round;stroke-linejoin:round;}</style></defs><metadata><rdf:RDF><cc:Work rdf:about=""><dc:format>image/svg+xml</dc:format><dc:type rdf:resource="http://purl.org/dc/dcmitype/StillImage"/></cc:Work></rdf:RDF></metadata><rect x="4" y="4" width="40" height="40" ry="8" fill="#d35244" fill-rule="evenodd" style="paint-order:stroke fill markers"/><path d="m12 4c-4.432 0-8 3.568-8 8v24c0 4.432 3.568 8 8 8h24c4.432 0 8-3.568 8-8v-24c0-4.432-3.568-8-8-8zm0 1h24c3.878 0 7 3.122 7 7v24c0 3.878-3.122 7-7 7h-24c-3.878 0-7-3.122-7-7v-24c0-3.878 3.122-7 7-7z" fill-rule="evenodd" opacity=".3" style="paint-order:stroke fill markers"/><g stroke-linecap="round" stroke-width="6"><rect x="6" y="14" width="36" height="20" opacity=".3"/><rect x="10" y="10" width="28" height="28" ry="14" fill="#efefef"/><rect x="12" y="12" width="24" height="24" ry="12" opacity=".3"/></g><g fill="#efefef" stroke-linecap="round"><g stroke-width="6"><path d="m25 14c-1.1753 0-2 0.68558-2 3.3516v6.6484h2s0.04317-4.4469 2.523-6.9267c0.52463-0.52463 1.3366-0.76862 1.3366-1.5106 0-1.0405-2.8596-1.5627-3.8596-1.5627z"/><path d="m23 34c1.1753 0 2-0.68558 2-3.3516v-6.6484h-2s-0.04317 4.4469-2.523 6.9267c-0.52463 0.52463-1.3366 0.76862-1.3366 1.5106 0 1.0405 2.8596 1.5627 3.8596 1.5627z"/><path d="m34 25c0-1.1753-0.68558-2-3.3516-2h-6.6484v2s4.4469 0.04317 6.9267 2.523c0.52463 0.52463 0.76862 1.3366 1.5106 1.3366 1.0405 0 1.5627-2.8596 1.5627-3.8596z"/><path d="m14 23c0 1.1753 0.68558 2 3.3516 2h6.6484v-2s-4.4469-0.04317-6.9267-2.523c-0.52463-0.52463-0.76862-1.3366-1.5106-1.3366-1.0405 0-1.5627 2.8596-1.5627 3.8596z"/><path d="m31.778 17.636c-0.83105-0.83105-1.899-0.92943-3.7841 0.95569-2.4112 2.4112-4.7012 4.7012-4.7012 4.7012l1.4142 1.4142s3.175-3.1139 6.6819-3.1139c0.74194 0 1.4886 0.40166 2.0133-0.12298 0.73575-0.73575-0.91704-3.1271-1.6241-3.8342z"/><path d="m16.222 30.364c0.83105 0.83105 1.899 0.92943 3.7841-0.95569 2.4112-2.4112 4.7012-4.7012 4.7012-4.7012l-1.4142-1.4142s-3.175 3.1139-6.6819 3.1139c-0.74194 0-1.4886-0.40166-2.0133 0.12298-0.73575 0.73575 0.91704 3.1271 1.6241 3.8342z"/><path d="m30.364 31.778c0.83105-0.83105 0.92943-1.899-0.95569-3.7841-2.4112-2.4112-4.7012-4.7012-4.7012-4.7012l-1.4142 1.4142s3.1139 3.175 3.1139 6.6819c0 0.74194-0.40166 1.4886 0.12298 2.0133 0.73575 0.73575 3.1271-0.91704 3.8342-1.6241z"/><path d="m17.636 16.222c-0.83105 0.83105-0.92943 1.899 0.95569 3.7841 2.4112 2.4112 4.7012 4.7012 4.7012 4.7012l1.4142-1.4142s-3.1139-3.175-3.1139-6.6819c0-0.74194 0.40166-1.4886-0.12298-2.0133-0.73575-0.73575-3.1271 0.91704-3.8342 1.6241z"/></g><rect x="20" y="20" width="8" height="8" ry="4" stroke-width="8"/></g><rect x="22" y="22" width="4" height="4" ry="2" opacity=".3" stroke-linecap="round" stroke-width="6"/></svg>
