<?xml version="1.0" encoding="UTF-8"?>
<!-- Created with Inkscape (http://www.inkscape.org/) -->
<svg id="SVGRoot" width="48px" height="48px" version="1.1" viewBox="0 0 48 48" xml:space="preserve" xmlns="http://www.w3.org/2000/svg" xmlns:cc="http://creativecommons.org/ns#" xmlns:dc="http://purl.org/dc/elements/1.1/" xmlns:rdf="http://www.w3.org/1999/02/22-rdf-syntax-ns#"><defs><style>.cls-1{fill:none;stroke:#fff;stroke-linecap:round;stroke-linejoin:round;}</style><style>.cls-1{fill:none;stroke:#fff;stroke-linecap:round;stroke-linejoin:round;}</style><style>.a{fill:none;stroke:#b1b5bd;stroke-linecap:round;stroke-linejoin:round;isolation:isolate;opacity:0.63;}</style></defs><metadata><rdf:RDF><cc:Work rdf:about=""><dc:format>image/svg+xml</dc:format><dc:type rdf:resource="http://purl.org/dc/dcmitype/StillImage"/></cc:Work></rdf:RDF></metadata><g fill-rule="evenodd"><rect x="4" y="4" width="40" height="40" ry="8" fill="#5763b9" style="paint-order:stroke fill markers"/><path d="m35 8h-4v32h4zm-6 0h-4v32h4zm-6 0h-4v32h4zm-6 0h-4v32h4z" opacity=".3" style="paint-order:stroke fill markers"/><path d="m8 13v4h32v-4zm0 6v4h32v-4zm0 6v4h32v-4zm0 6v4h32v-4z" opacity=".3" style="paint-order:stroke fill markers"/><rect x="10" y="10" width="28" height="28" ry="4" fill="#efefef" style="paint-order:stroke fill markers"/><path d="m12 4c-4.432 0-8 3.568-8 8v24c0 4.432 3.568 8 8 8h24c4.432 0 8-3.568 8-8v-24c0-4.432-3.568-8-8-8zm0 1h24c3.878 0 7 3.122 7 7v24c0 3.878-3.122 7-7 7h-24c-3.878 0-7-3.122-7-7v-24c0-3.878 3.122-7 7-7z" opacity=".3" style="paint-order:stroke fill markers"/><rect x="12" y="12" width="24" height="24" ry="2" opacity=".4" style="paint-order:stroke fill markers"/></g><g fill="#efefef"><path d="m23.994 22c-0.23215 0.0015-0.45657 0.08362-0.63477 0.23242l-6 5c-0.55326 0.46186-0.45115 1.3396 0.19336 1.6621l6 3c0.28156 0.14078 0.61297 0.14078 0.89453 0l6-3c0.64451-0.32252 0.74662-1.2002 0.19336-1.6621l-6-5c-0.18129-0.15138-0.4103-0.23372-0.64648-0.23242zm-5.2891 5.2734c0.7417 0.28929 3.8802 1.377 5.2949 1.377s4.5532-1.0877 5.2949-1.377l0.01758 0.01562c0.44257 0.36984 0.36127 1.0718-0.1543 1.3301l-4.8008 2.2969c-0.22523 0.11272-0.48961 0.11272-0.71484 0l-4.8008-2.2969c-0.51557-0.25822-0.59687-0.96027-0.1543-1.3301z" style="font-feature-settings:normal;font-variant-alternates:normal;font-variant-caps:normal;font-variant-ligatures:normal;font-variant-numeric:normal;font-variant-position:normal;isolation:auto;mix-blend-mode:normal;shape-padding:0;text-decoration-color:#000000;text-decoration-line:none;text-decoration-style:solid;text-indent:0;text-orientation:mixed;text-transform:none;white-space:normal"/><rect x="14" y="17" width="6" height="6" ry="3" fill-rule="evenodd" style="paint-order:stroke fill markers"/><rect x="28" y="17" width="6" height="6" ry="3" fill-rule="evenodd" style="paint-order:stroke fill markers"/></g></svg>
