<?xml version="1.0" encoding="UTF-8"?>
<!-- Created with Inkscape (http://www.inkscape.org/) -->
<svg id="SVGRoot" width="48px" height="48px" version="1.1" viewBox="0 0 48 48" xml:space="preserve" xmlns="http://www.w3.org/2000/svg" xmlns:cc="http://creativecommons.org/ns#" xmlns:dc="http://purl.org/dc/elements/1.1/" xmlns:rdf="http://www.w3.org/1999/02/22-rdf-syntax-ns#"><defs><style>.cls-1{fill:none;stroke:#fff;stroke-linecap:round;stroke-linejoin:round;}</style><style>.cls-1{fill:none;stroke:#fff;stroke-linecap:round;stroke-linejoin:round;}</style></defs><metadata><rdf:RDF><cc:Work rdf:about=""><dc:format>image/svg+xml</dc:format><dc:type rdf:resource="http://purl.org/dc/dcmitype/StillImage"/></cc:Work></rdf:RDF></metadata><path d="m12 4c-0.86943 0-1.7058 0.13642-2.4883 0.39062l6.4883 39.609h20c4.432 0 8-3.568 8-8v-24c0-4.432-3.568-8-8-8h-24z" fill="#efefef" fill-rule="evenodd" style="paint-order:stroke fill markers"/><path d="m10 10v6 4h18v-4h10v-6h-28zm0 14v6 4h24v-4h4v-6h-28z" opacity=".3" style="paint-order:stroke fill markers"/><path d="m22 34s-3 1-3 5c0 3 3 4 3 4h-9l2-9z" opacity=".2" style="paint-order:stroke fill markers"/><path d="m9.5117 4.3906c-3.2068 1.0414-5.5117 4.0465-5.5117 7.6094v24c0 4.432 3.568 8 8 8h9s-5 0-5-5c0-4 3-4 3-4 0.54342-0.01858 2.5646-0.16127 3.7012-1.7461 0.83805-1.1685-0.36328-3.1934-0.36328-3.1934s-7.8379-17.061-10.338-23.061c-0.61563-1.4775-1.6337-2.2286-2.4883-2.6094z" fill="#269a89" stroke-linecap="round" stroke-linejoin="round" stroke-width="4" style="paint-order:stroke fill markers"/><path d="m10.668 5.123c-0.40156 0.085529-0.79179 0.21823-1.2207 0.4082 0.58747 0.33034 1.201 0.82665 1.6289 1.8535 2.5266 6.0637 10.354 23.094 10.354 23.094 0.014669 0.03143 0.030968 0.062066 0.048828 0.091796 0 0 0.24092 0.41671 0.39648 0.93555s0.1414 0.98793 0.013672 1.166c-0.82598 1.1517-2.4686 1.3126-2.9219 1.3281h0.033203c-0.02467 3.2e-5 -1.0607 0.0053-2.0547 0.66797-1.006 0.67068-1.9453 2.082-1.9453 4.332 0 1.8617 0.73758 3.069 1.623 4h1.2461c-1.0081-0.70998-1.8691-1.924-1.8691-4 0-4 3-4 3-4 0.54342-0.01858 2.5646-0.16127 3.7012-1.7461 0.83805-1.1685-0.36328-3.1934-0.36328-3.1934s-7.8379-17.061-10.338-23.061c-0.34905-0.83772-0.82738-1.4414-1.332-1.877z" opacity=".3" stop-color="#000000" stroke-linecap="round" stroke-linejoin="round" style="paint-order:stroke fill markers"/><path d="m12 4c-4.432 0-8 3.568-8 8v24c0 4.432 3.568 8 8 8h24c4.432 0 8-3.568 8-8v-24c0-4.432-3.568-8-8-8zm0 1h24c3.878 0 7 3.122 7 7v24c0 3.878-3.122 7-7 7h-24c-3.878 0-7-3.122-7-7v-24c0-3.878 3.122-7 7-7z" fill-rule="evenodd" opacity=".3" style="paint-order:stroke fill markers"/><path d="m7.9805 6.2617c-0.26013 0.18216-0.50787 0.38063-0.74023 0.5957 1.3233 3.0283 3.6565 8.3154 6.7598 15.143 0.82761 1.8207-2 6-2 6s-2 5-2 10c0 4 4 5 4 5h1s-4-1-4-5c0-5 2-10 2-10s2.8276-4.1793 2-6c-3.3182-7.3001-5.7553-12.838-7.0195-15.738z" opacity=".3" style="paint-order:stroke fill markers"/><path d="m13.579 27.126s-1.0662 3.0029-0.57899 8.8741c0.49781 5.9987 3.623 7 3.623 7h-1.623s-4.2699-1.0956-4-5c0.71073-10.281 2.579-10.874 2.579-10.874z" opacity=".2" style="paint-order:stroke fill markers"/></svg>
