<?xml version="1.0" encoding="UTF-8"?>
<!-- Created with Inkscape (http://www.inkscape.org/) -->
<svg id="SVGRoot" width="48px" height="48px" version="1.1" viewBox="0 0 48 48" xml:space="preserve" xmlns="http://www.w3.org/2000/svg" xmlns:cc="http://creativecommons.org/ns#" xmlns:dc="http://purl.org/dc/elements/1.1/" xmlns:rdf="http://www.w3.org/1999/02/22-rdf-syntax-ns#"><defs><style>.cls-1{fill:none;stroke:#fff;stroke-linecap:round;stroke-linejoin:round;}</style><style>.cls-1{fill:none;stroke:#fff;stroke-linecap:round;stroke-linejoin:round;}</style><style>.cls-1{fill:none;stroke:#fff;stroke-linecap:round;stroke-linejoin:round;}</style><style>.cls-1{fill:none;stroke:#fff;stroke-linecap:round;stroke-linejoin:round;}</style><style>.cls-1{fill:none;stroke:#fff;stroke-linecap:round;stroke-linejoin:round;}</style><style>.a{fill:none;stroke:#b1b5bd;stroke-linecap:round;stroke-linejoin:round;isolation:isolate;opacity:0.63;}</style></defs><metadata><rdf:RDF><cc:Work rdf:about=""><dc:format>image/svg+xml</dc:format><dc:type rdf:resource="http://purl.org/dc/dcmitype/StillImage"/></cc:Work></rdf:RDF></metadata><rect x="4" y="4" width="40" height="40" ry="8" fill="#bc8046" fill-rule="evenodd" style="paint-order:stroke fill markers"/><g stroke-linecap="round" stroke-linejoin="round"><rect x="8" y="8" width="32" height="32" ry="4" opacity=".3" stroke-width="2" style="paint-order:stroke fill markers"/><rect x="8" y="17" width="32" height="11" opacity=".2" stroke-width="2.2111" style="paint-order:stroke fill markers"/><rect x="8" y="17" width="32" height="7" opacity=".2" stroke-width="1.7638" style="paint-order:stroke fill markers"/></g><g><rect x="16" y="18" width="16" height="14" fill="#55c79a" stroke-linecap="round" stroke-linejoin="round" stroke-width="2" style="paint-order:stroke fill markers"/><rect x="16" y="26" width="16" height="6" fill="#005eb7" opacity=".3" style="paint-order:stroke fill markers"/><path d="m30 28c-4.432 0-8 3.568-8 8 0 1.4592 0.38746 2.8246 1.0645 4l13.393-0.02562c0.677-1.1754 1.5427-2.5152 1.5427-3.9744 0-4.432-3.568-8-8-8z" fill="#d780f2" stroke-linecap="round" stroke-linejoin="round" stroke-width="1.8824" style="paint-order:stroke fill markers"/><path d="m30 28c-0.18017 0-0.35803 6e-3 -0.53516 0.01758 3.1056 0.23535 5.5352 2.8146 5.5352 5.9824 0 3.324-2.676 6-6 6l7.4573-0.02562c0.677-1.1754 1.5427-2.5152 1.5427-3.9744 0-4.432-3.568-8-8-8zm-1 12c-3.324 0-6-2.676-6-6 0-1.192 0.34472-2.3006 0.93945-3.2324-1.2092 1.4008-1.9395 3.2282-1.9395 5.2324 0 1.4592 0.38746 2.8246 1.0645 4z" fill="#0100a4" opacity=".2" stroke-linecap="round" stroke-linejoin="round" stroke-width="1.8824" style="paint-order:stroke fill markers"/></g><path d="m17 28a2.0002 2.0002 0 0 0-1.7285 0.99219l-5.8672 10.057c0.69756 0.59367 1.6038 0.95117 2.5957 0.95117h13.15l-6.4219-11.008a2.0002 2.0002 0 0 0-1.7285-0.99219z" fill="#f68d59" stop-color="#000000" stroke-linecap="round" stroke-linejoin="round" style="paint-order:stroke fill markers"/><path d="m21.562 33.85c-0.7472 2.4094-2.9871 4.1504-5.6484 4.1504-1.8689 0-3.529-0.85766-4.6113-2.2031l-1.8984 3.252c0.69756 0.59367 1.6038 0.95117 2.5957 0.95117h13.15l-3.5879-6.1504z" fill="#c90000" opacity=".2" stop-color="#000000" stroke-linecap="round" stroke-linejoin="round" style="paint-order:stroke fill markers"/><path d="m12 8c-2.216 0-4 1.784-4 4v24c0 2.216 1.784 4 4 4h24c2.216 0 4-1.784 4-4v-24c0-2.216-1.784-4-4-4h-24zm0 1h24c1.662 0 3 1.338 3 3v24c0 1.662-1.338 3-3 3h-24c-1.662 0-3-1.338-3-3v-24c0-1.662 1.338-3 3-3z" opacity=".3" style="paint-order:stroke fill markers"/><path d="m12 5c-0.24447 6e-7 -0.48479 0.012888-0.72266 0.037109-3.5354 0.36-6.2773 3.3294-6.2773 6.9629v9.6504c0.73183 0.82812 1.8029 1.3496 3 1.3496 2.216 0 4-1.784 4-4 0 2.216 1.784 4 4 4s4-1.784 4-4c0 2.216 1.784 4 4 4s4-1.784 4-4c0 2.216 1.784 4 4 4s4-1.784 4-4c0 2.216 1.784 4 4 4 1.1971 0 2.2682-0.52149 3-1.3496v-9.6504c0-3.6335-2.7419-6.6029-6.2773-6.9629h-0.001953v-0.0019532h-0.001953-0.001953c-0.23589-0.023813-0.47442-0.035156-0.7168-0.035156h-4-8-8-4z" opacity=".3" style="paint-order:normal"/><path d="m8 22c-2.216 0-4-1.784-4-4v-6c0-4.432 3.568-8 8-8v14c0 2.216-1.784 4-4 4z" fill="#f97263" fill-rule="evenodd" style="paint-order:normal"/><path d="m40 22c-2.216 0-4-1.784-4-4v-14c4.432 0 8 3.568 8 8v6c0 2.216-1.784 4-4 4z" fill="#f97263" fill-rule="evenodd" style="paint-order:normal"/><path transform="scale(1,-1)" d="m12-4v-4-10c0-2.216 1.784-4 4-4s4 1.784 4 4v10 4h-4-4z" fill="#efefef" style="paint-order:normal"/><path transform="scale(1,-1)" d="m20-4v-4-10c0-2.216 1.784-4 4-4s4 1.784 4 4v10 4h-4-4z" fill="#f97263" style="paint-order:normal"/><path transform="scale(1,-1)" d="m28-4v-4-10c0-2.216 1.784-4 4-4s4 1.784 4 4v10 4h-4-4z" fill="#efefef" style="paint-order:normal"/><path d="m5 16v4.6504c0.73183 0.82812 1.8029 1.3496 3 1.3496 2.216 0 4-1.784 4-4 0 2.216 1.784 4 4 4s4-1.784 4-4c0 2.216 1.784 4 4 4s4-1.784 4-4c0 2.216 1.784 4 4 4s4-1.784 4-4c0 2.216 1.784 4 4 4 1.1971 0 2.2682-0.52149 3-1.3496v-4.6504z" opacity=".3" stroke-linecap="round" stroke-linejoin="round" stroke-width="2" style="paint-order:stroke fill markers"/><path d="m12 4c-4.432 0-8 3.568-8 8v24c0 4.432 3.568 8 8 8h24c4.432 0 8-3.568 8-8v-24c0-4.432-3.568-8-8-8zm0 1h24c3.878 0 7 3.122 7 7v24c0 3.878-3.122 7-7 7h-24c-3.878 0-7-3.122-7-7v-24c0-3.878 3.122-7 7-7z" fill-rule="evenodd" opacity=".3" style="paint-order:stroke fill markers"/></svg>
