<?xml version="1.0" encoding="UTF-8"?>
<!-- Created with Inkscape (http://www.inkscape.org/) -->
<svg id="SVGRoot" width="48px" height="48px" version="1.1" viewBox="0 0 48 48" xml:space="preserve" xmlns="http://www.w3.org/2000/svg" xmlns:cc="http://creativecommons.org/ns#" xmlns:dc="http://purl.org/dc/elements/1.1/" xmlns:rdf="http://www.w3.org/1999/02/22-rdf-syntax-ns#"><defs><style>.cls-1{fill:none;stroke:#fff;stroke-linecap:round;stroke-linejoin:round;}</style><style>.cls-1{fill:none;stroke:#fff;stroke-linecap:round;stroke-linejoin:round;}</style></defs><metadata><rdf:RDF><cc:Work rdf:about=""><dc:format>image/svg+xml</dc:format><dc:type rdf:resource="http://purl.org/dc/dcmitype/StillImage"/></cc:Work></rdf:RDF></metadata><rect x="4" y="4" width="40" height="40" ry="8" fill="#ACACAC" fill-rule="evenodd" style="paint-order:stroke fill markers"/><rect x="8" y="8" width="32" height="32" ry="4" fill="#4e4e4e" stroke-linecap="round" stroke-linejoin="round" stroke-width="4" style="paint-order:stroke fill markers"/><path d="m24 10c-7.756 0-14 6.244-14 14s6.244 14 14 14 14-6.244 14-14-6.244-14-14-14zm0 2c6.648 0 12 5.352 12 12s-5.352 12-12 12-12-5.352-12-12 5.352-12 12-12z" fill="#acacac" opacity=".3" stroke-linecap="round" stroke-linejoin="round" stroke-width="4" style="paint-order:stroke fill markers"/><path d="m12 4c-4.432 0-8 3.568-8 8v24c0 4.432 3.568 8 8 8h24c4.432 0 8-3.568 8-8v-24c0-4.432-3.568-8-8-8zm0 1h24c3.878 0 7 3.122 7 7v24c0 3.878-3.122 7-7 7h-24c-3.878 0-7-3.122-7-7v-24c0-3.878 3.122-7 7-7z" fill-rule="evenodd" opacity=".3" style="paint-order:stroke fill markers"/><path d="m24 11c6.648 0 12 5.352 12 12 0 2.4502-0.73144 4.7221-1.9824 6.6172 0.24216 1.0046 0.78891 2.1893 1.9824 3.3828l-2 2c-1.1935-1.1935-2.3782-1.7403-3.3828-1.9824-1.8951 1.251-4.167 1.9824-6.6172 1.9824-6.648 0-12-5.352-12-12s5.352-12 12-12z" fill="#b7bfc2"/><rect x="14" y="13" width="20" height="20" ry="10" fill="#bdd1e9" fill-rule="evenodd" style="paint-order:normal"/><path d="m24 11c-6.648 0-12 5.352-12 12s5.352 12 12 12c2.4502 0 4.7221-0.73144 6.6172-1.9824 1.0046 0.24216 3.0793 1.2754 4.3828 2.9824l2-2c-1.707-1.3035-2.7403-3.3782-2.9824-4.3828 1.251-1.8951 1.9824-4.167 1.9824-6.6172 0-6.648-5.352-12-12-12zm0 1c6.1113 0 11 4.8887 11 11 0 2.2512-0.66913 4.3284-1.8164 6.0664-0.15306 0.23118-0.20328 0.51553-0.13867 0.78516 0.22387 0.92874 1.7905 2.9913 2.6367 4.0527l-0.77734 0.77734c-1.0614-0.84619-3.124-2.4129-4.0527-2.6367-0.26963-0.06461-0.55397-0.01439-0.78516 0.13867-1.738 1.1473-3.8152 1.8164-6.0664 1.8164-6.1113 0-11-4.8887-11-11s4.8887-11 11-11z" fill-rule="evenodd" opacity=".25" style="paint-order:normal"/><path d="m42 44 3-3-8-8-3 3z" fill="#4e4e4e" stroke="#4e4e4e" stroke-linecap="round" stroke-linejoin="round" stroke-width="2"/><path d="m36.984 32a1.0001 1.0001 0 0 0-0.69141 0.29297l-3 3a1.0001 1.0001 0 0 0 0 1.4141l8 8a1.0001 1.0001 0 0 0 1.4141 0l3-3a1.0001 1.0001 0 0 0 0-1.4141l-8-8a1.0001 1.0001 0 0 0-0.72266-0.29297zm0.01563 1 8 8-3 3-8-8z" color="#000000" color-rendering="auto" dominant-baseline="auto" image-rendering="auto" opacity=".5" shape-rendering="auto" solid-color="#000000" style="font-feature-settings:normal;font-variant-alternates:normal;font-variant-caps:normal;font-variant-ligatures:normal;font-variant-numeric:normal;font-variant-position:normal;isolation:auto;mix-blend-mode:normal;shape-padding:0;text-decoration-color:#000000;text-decoration-line:none;text-decoration-style:solid;text-indent:0;text-orientation:mixed;text-transform:none;white-space:normal"/><path d="m24 13c-5.54 0-10 4.46-10 10s4.46 10 10 10 10-4.46 10-10-4.46-10-10-10zm0 1c4.986 0 9 4.014 9 9s-4.014 9-9 9-9-4.014-9-9 4.014-9 9-9z" fill-rule="evenodd" opacity=".25" style="paint-order:normal"/><path d="m24 16c-1.108 0-2 0.892-2 2s0.892 2 2 2 2-0.892 2-2-0.892-2-2-2zm-2 6v8.7559c0.62971 0.15898 1.2902 0.24414 1.9707 0.24414h0.058594c0.68046 0 1.341-0.085159 1.9707-0.24414v-8.7559h-4z" opacity=".3" stroke-linecap="round" stroke-linejoin="round" stroke-width="4" style="paint-order:stroke fill markers"/></svg>
