<?xml version="1.0" encoding="UTF-8"?>
<!-- Created with Inkscape (http://www.inkscape.org/) -->
<svg id="SVGRoot" width="48px" height="48px" version="1.1" viewBox="0 0 48 48" xml:space="preserve" xmlns="http://www.w3.org/2000/svg" xmlns:cc="http://creativecommons.org/ns#" xmlns:dc="http://purl.org/dc/elements/1.1/" xmlns:rdf="http://www.w3.org/1999/02/22-rdf-syntax-ns#"><defs><style>.cls-1{fill:none;stroke:#fff;stroke-linecap:round;stroke-linejoin:round;}</style><style>.cls-1{fill:none;stroke:#fff;stroke-linecap:round;stroke-linejoin:round;}</style><style>.cls-1{fill:none;stroke:#fff;stroke-linecap:round;stroke-linejoin:round;}</style><style>.cls-1{fill:none;stroke:#fff;stroke-linecap:round;stroke-linejoin:round;}</style><style>.a{fill:none;stroke:#b1b5bd;stroke-linecap:round;stroke-linejoin:round;isolation:isolate;opacity:0.63;}</style><style>.cls-1{fill:none;stroke:#fff;stroke-linecap:round;stroke-linejoin:round;}</style><style>.cls-1{fill:none;stroke:#fff;stroke-linecap:round;stroke-linejoin:round;}</style><style>.a{fill:none;stroke:#b1b5bd;stroke-linecap:round;stroke-linejoin:round;isolation:isolate;opacity:0.63;}</style><style>.cls-1{fill:none;stroke:#fff;stroke-linecap:round;stroke-linejoin:round;}</style></defs><metadata><rdf:RDF><cc:Work rdf:about=""><dc:format>image/svg+xml</dc:format><dc:type rdf:resource="http://purl.org/dc/dcmitype/StillImage"/></cc:Work></rdf:RDF></metadata><rect x="4" y="4" width="40" height="40" ry="8" fill="#efefef" fill-rule="evenodd" style="paint-order:stroke fill markers"/><path d="m12 4c-4.432 0-8 3.568-8 8v24c0 4.432 3.568 8 8 8h24c4.432 0 8-3.568 8-8v-24c0-4.432-3.568-8-8-8zm0 1h24c3.878 0 7 3.122 7 7v24c0 3.878-3.122 7-7 7h-24c-3.878 0-7-3.122-7-7v-24c0-3.878 3.122-7 7-7z" fill-rule="evenodd" opacity=".3" style="paint-order:stroke fill markers"/><g fill="#4e4e4e"><rect x="18" y="14" width="22" height="20" ry="2" style="paint-order:stroke fill markers"/><path d="m12 8c-2.216 0-4 1.784-4 4v24c0 2.216 1.784 4 4 4h2s2 0 2-2v-28c0-2-2-2-2-2z" style="paint-order:stroke fill markers"/><path d="m20 8c-1.108 0-2 0.892-2 2s0.892 2 2 2h10 8 2c0-2.216-1.784-4-4-4h-16z" style="paint-order:stroke fill markers"/><path d="m20 36c-1.108 0-2 0.892-2 2s0.892 2 2 2h16c2.216 0 4-1.784 4-4h-2-8-10z" style="paint-order:stroke fill markers"/></g><path d="m27 19-3 6h-5v7c0 0.554 0.446 1 1 1h18c0.554 0 1-0.446 1-1v-7h-4l-3 4-5-10z" fill="#3b748d" style="paint-order:stroke fill markers"/><g fill="#37b9f0"><path d="m27 18a1.0001 1.0001 0 0 0-0.89453 0.55273l-2.7227 5.4473h-4.3828-1v1 1h1 5a1.0001 1.0001 0 0 0 0.89453-0.55273l2.1055-4.2109 4.1055 8.2109a1.0001 1.0001 0 0 0 1.6953 0.15234l2.6992-3.5996h3.5 1v-1-1h-1-4a1.0001 1.0001 0 0 0-0.80078 0.40039l-2.0293 2.7051-4.2754-8.5527a1.0001 1.0001 0 0 0-0.89453-0.55273z" stop-color="#000000" stroke-linecap="round" stroke-linejoin="round" style="paint-order:stroke fill markers"/><path d="m8 16s0-6 3-6c2 0 1 3 3 3s2-1 2-1v4z" style="paint-order:stroke fill markers"/><path d="m16 19s0-1-2-1c-1.4907 0-0.51217 3.9074-2 4-1.1995 0.07468-2-1-3-1-0.94281 0-1 1-1 1v2h8z" style="paint-order:stroke fill markers"/><path d="m8 30s0.21246-5.1641 2-5c1.6926 0.1554-0.66736 5.6702 1 6 1.179 0.23324 0.81578-4.2051 2-4 1.3542 0.23457-0.36616 2.85 1 3 0.7409 0.08133 0.26427-0.88061 1-1 0.46532-0.07551 1 1 1 1v2h-8z" style="paint-order:stroke fill markers"/><path d="m14 34c-2 0-0.51217 3.9074-2 4-1.1995 0.07468 0-3-2-3-0.98267 0-1.4821 1.2076-1.7363 2.4355 0.57447 1.503 2.0266 2.5645 3.7363 2.5645h2s1.6529-6.24e-4 1.9531-1.5039c-0.1195-1.7773-0.53382-4.4961-1.9531-4.4961z" style="paint-order:stroke fill markers"/></g></svg>
