<?xml version="1.0" encoding="UTF-8"?>
<!-- Created with Inkscape (http://www.inkscape.org/) -->
<svg id="SVGRoot" width="48px" height="48px" version="1.1" viewBox="0 0 48 48" xmlns="http://www.w3.org/2000/svg" xmlns:cc="http://creativecommons.org/ns#" xmlns:dc="http://purl.org/dc/elements/1.1/" xmlns:rdf="http://www.w3.org/1999/02/22-rdf-syntax-ns#">
 <defs id="defs815">
  <style id="style819">.cls-1{fill:none;stroke:#fff;stroke-linecap:round;stroke-linejoin:round;}</style>
 </defs>
 <metadata id="metadata818">
  <rdf:RDF>
   <cc:Work rdf:about="">
    <dc:format>image/svg+xml</dc:format>
    <dc:type rdf:resource="http://purl.org/dc/dcmitype/StillImage"/>
    <dc:title/>
   </cc:Work>
  </rdf:RDF>
 </metadata>
 <g id="layer1">
  <rect id="rect1373-5" x="4" y="4" width="40" height="40" ry="8" fill="#4886a9" fill-rule="evenodd" style="paint-order:stroke fill markers"/>
  <path id="path874" d="m12 4c-4.432 0-8 3.568-8 8v7l12 12v5c0 5 6 5 6 5v3h14c3.6813 0 6.7577-2.4641 7.6973-5.8379-0.51182-1.7645-1.9001-4.1621-5.6973-4.1621h-6v-6s0-4-4-4h-13v-3h3c4 0 4-4 4-4v-7h7c3 0 3-3 3-3v-3h-20z" fill="#c1d56b"/>
  <path id="rect817" d="m12 4c-4.432 0-8 3.568-8 8v24c0 4.432 3.568 8 8 8h24c4.432 0 8-3.568 8-8v-24c0-4.432-3.568-8-8-8h-24zm0 1h24c3.878 0 7 3.122 7 7v24c0 3.878-3.122 7-7 7h-24c-3.878 0-7-3.122-7-7v-24c0-3.878 3.122-7 7-7z" fill-rule="evenodd" opacity=".3" style="paint-order:stroke fill markers"/>
  <path id="path968" d="m16.506 5c4.8548 6.1512 8.3387 12.601 10.779 18.057-2.4555 5.8549-5.8939 12.647-10.822 19.943h8.4258c0.99845-1.4767 1.9463-2.9696 2.8438-4.4707l9.7148 4.3203c0.52112-0.10876 1.0174-0.28099 1.4883-0.49805l4.0645-10.156v-1.8125l-4.3672 2.1836c-0.34855-1.33-1.2789-4.6055-3.3125-9.5664 2.8107-7.1684 4.3979-13.223 5.1387-16.406-1.2092-0.99756-2.7618-1.5938-4.459-1.5938h-3.1973c-0.28426 1.4788-0.92697 4.5037-2.127 8.5332-1.6101-2.8576-3.4471-5.7514-5.6113-8.5332h-8.5586zm14.43 27.674c0.34776 1.1574 0.79329 2.5372 0.86133 2.8086l-3.1836 1.5918c0.84356-1.4722 1.58-2.936 2.3223-4.4004z" color="#000000" color-rendering="auto" dominant-baseline="auto" image-rendering="auto" opacity=".3" shape-rendering="auto" solid-color="#000000" style="font-feature-settings:normal;font-variant-alternates:normal;font-variant-caps:normal;font-variant-ligatures:normal;font-variant-numeric:normal;font-variant-position:normal;isolation:auto;mix-blend-mode:normal;shape-padding:0;text-decoration-color:#000000;text-decoration-line:none;text-decoration-style:solid;text-indent:0;text-orientation:mixed;text-transform:none;white-space:normal"/>
  <path id="path828" d="m33.852 5c-0.62812 3.908-3.7864 19.41-16.197 38h6.0488c10.275-14.709 14.644-31.544 15.869-37.02-1.0454-0.61987-2.2639-0.98047-3.5723-0.98047h-2.1484z" fill="#ffd34e"/>
  <path id="path987" d="m31.779 13.648c-1.0082 3.3501-2.4588 7.4327-4.5156 12.037l3.666 4.8887c1.33-2.7421 2.4814-5.4206 3.4824-7.9746z" opacity=".25"/>
  <path id="path828-7" d="m17.762 5c11.392 14.746 15.238 31 15.238 31l-4 2 9 4 4-10-4 2s-3.8208-16.144-14.201-29h-6.0371z" fill="#ffd34e"/>
 </g>
</svg>
