<?xml version="1.0" encoding="UTF-8"?>
<!-- Created with Inkscape (http://www.inkscape.org/) -->
<svg id="SVGRoot" width="48px" height="48px" version="1.1" viewBox="0 0 48 48" xml:space="preserve" xmlns="http://www.w3.org/2000/svg" xmlns:cc="http://creativecommons.org/ns#" xmlns:dc="http://purl.org/dc/elements/1.1/" xmlns:rdf="http://www.w3.org/1999/02/22-rdf-syntax-ns#" xmlns:xlink="http://www.w3.org/1999/xlink"><defs><style>.cls-1{fill:none;stroke:#fff;stroke-linecap:round;stroke-linejoin:round;}</style><style>.cls-1{fill:none;stroke:#fff;stroke-linecap:round;stroke-linejoin:round;}</style><style>.cls-1{fill:none;stroke:#fff;stroke-linecap:round;stroke-linejoin:round;}</style><style>.a{fill:none;stroke:#b1b5bd;stroke-linecap:round;stroke-linejoin:round;isolation:isolate;opacity:0.63;}</style><style>.cls-1{fill:none;stroke:#fff;stroke-linecap:round;stroke-linejoin:round;}</style><linearGradient id="linearGradient15" x1="24" x2="24" y1="8" y2="40" gradientUnits="userSpaceOnUse"><stop stop-color="#4e4e4e" offset="0"/><stop stop-color="#386363" offset="1"/></linearGradient><style>.cls-1{fill:none;stroke:#fff;stroke-linecap:round;stroke-linejoin:round;}</style><style>.cls-1{fill:none;stroke:#fff;stroke-linecap:round;stroke-linejoin:round;}</style><style>.cls-1{fill:none;stroke:#fff;stroke-linecap:round;stroke-linejoin:round;}</style><style>.cls-1{fill:none;stroke:#fff;stroke-linecap:round;stroke-linejoin:round;}</style><style>.a{fill:none;stroke:#b1b5bd;stroke-linecap:round;stroke-linejoin:round;isolation:isolate;opacity:0.63;}</style><style>.cls-1{fill:none;stroke:#fff;stroke-linecap:round;stroke-linejoin:round;}</style><style>.cls-1{fill:none;stroke:#fff;stroke-linecap:round;stroke-linejoin:round;}</style><style>.cls-1{fill:none;stroke:#fff;stroke-linecap:round;stroke-linejoin:round;}</style><style>.cls-1{fill:none;stroke:#fff;stroke-linecap:round;stroke-linejoin:round;}</style><style>.a{fill:none;stroke:#b1b5bd;stroke-linecap:round;stroke-linejoin:round;isolation:isolate;opacity:0.63;}</style><style>.cls-1{fill:none;stroke:#fff;stroke-linecap:round;stroke-linejoin:round;}</style><style>.a{fill:none;stroke:#b1b5bd;stroke-linecap:round;stroke-linejoin:round;isolation:isolate;opacity:0.63;}</style></defs><metadata><rdf:RDF><cc:Work rdf:about=""><dc:format>image/svg+xml</dc:format><dc:type rdf:resource="http://purl.org/dc/dcmitype/StillImage"/></cc:Work></rdf:RDF></metadata><rect x="4" y="4" width="40" height="40" ry="8" fill="url(#linearGradient15)" fill-rule="evenodd" style="paint-order:stroke fill markers"/><path d="m12 4c-4.432 0-8 3.568-8 8v24c0 4.432 3.568 8 8 8h24c4.432 0 8-3.568 8-8v-24c0-4.432-3.568-8-8-8zm0 1h24c3.878 0 7 3.122 7 7v24c0 3.878-3.122 7-7 7h-24c-3.878 0-7-3.122-7-7v-24c0-3.878 3.122-7 7-7z" fill-rule="evenodd" opacity=".4" style="paint-order:stroke fill markers"/><path d="m17.994 11.994c-1.665 0-3.0039 1.3409-3.0039 3.0059s1.339 3.0059 3.0039 3.0059c1.0448 0 1.9619-0.5293 2.5-1.334 0.53815 0.80468 1.4552 1.334 2.5 1.334s1.9619-0.5293 2.5-1.334c0.53815 0.80468 1.4552 1.334 2.5 1.334 0.82799 0 1.5766-0.33109 2.1191-0.86914-0.080415 0.27194-0.12305 0.55873-0.12305 0.85742 0 1.046 0.5278 1.964 1.334 2.502-0.32596 0.2185-0.60606 0.49996-0.82422 0.82617-0.53815-0.80468-1.4552-1.332-2.5-1.332s-1.9619 0.52735-2.5 1.332c-0.53815-0.80468-1.4552-1.332-2.5-1.332s-1.9619 0.52735-2.5 1.332c-0.53815-0.80468-1.4552-1.332-2.5-1.332-1.665 0-3.0059 1.339-3.0059 3.0039 0 0.8303 0.3343 1.5802 0.875 2.123-0.27638-0.083322-0.57075-0.12695-0.875-0.12695-1.665 0-3.0039 1.339-3.0039 3.0039 0 1.665 1.339 3.0059 3.0039 3.0059 0.30425 0 0.59862-0.045584 0.875-0.12891-0.5407 0.54288-0.875 1.2928-0.875 2.123 0 1.665 1.3409 3.0059 3.0059 3.0059 1.042 0 1.9573-0.52523 2.4961-1.3262 0.53827 0.80394 1.4538 1.332 2.498 1.332 1.0448 0 1.9619-0.5293 2.5-1.334 0.53815 0.80468 1.4552 1.334 2.5 1.334 1.0483 0 1.9685-0.53261 2.5059-1.3418 0.5369 0.81219 1.4592 1.3457 2.5098 1.3457 1.665 0 3.0039-1.339 3.0039-3.0039 0-1.0496-0.53281-1.9707-1.3438-2.5078 0.80294-0.53843 1.3301-1.4545 1.3301-2.498 0-1.0454-0.52856-1.962-1.334-2.5 0.80843-0.53754 1.3398-1.4581 1.3398-2.5059 0-1.046-0.52976-1.964-1.3359-2.502 0.80318-0.53839 1.3301-1.4544 1.3301-2.498 0-1.665-1.3409-3.0039-3.0059-3.0039-0.82799 0-1.5747 0.33109-2.1172 0.86914 0.080415-0.27194 0.12305-0.56068 0.12305-0.85938 0-1.665-1.3409-3.0059-3.0059-3.0059-1.0448 0-1.9619 0.5293-2.5 1.334-0.53815-0.80468-1.4552-1.334-2.5-1.334s-1.9619 0.5293-2.5 1.334c-0.53815-0.80468-1.4552-1.334-2.5-1.334zm2.5059 12.674c0.53815 0.80468 1.4552 1.332 2.5 1.332s1.9619-0.52735 2.5-1.332c0.53815 0.80468 1.4552 1.332 2.5 1.332s1.9619-0.52735 2.5-1.332c0.21905 0.32754 0.50046 0.60924 0.82812 0.82812-0.80843 0.53753-1.3379 1.4562-1.3379 2.5039 0 1.0496 0.53086 1.9707 1.3418 2.5078-0.32845 0.22025-0.6093 0.50255-0.82812 0.83203-0.5369-0.81219-1.4592-1.3457-2.5098-1.3457-1.0448 0-1.9619 0.5293-2.5 1.334-0.53815-0.80468-1.4552-1.334-2.5-1.334-1.042 0-1.9554 0.52523-2.4941 1.3262-0.53827-0.80394-1.4557-1.3301-2.5-1.3301-0.30425 0-0.59862 0.043632-0.875 0.12695 0.5407-0.54288 0.875-1.2928 0.875-2.123 0-0.8303-0.3343-1.5802-0.875-2.123 0.27638 0.083322 0.57075 0.12891 0.875 0.12891 1.0448 0 1.9619-0.52735 2.5-1.332z" fill="#fff" stroke-linecap="round" stroke-linejoin="round" stroke-width="6.0107" style="paint-order:stroke fill markers"/></svg>
