<?xml version="1.0" encoding="UTF-8"?>
<!-- Created with Inkscape (http://www.inkscape.org/) -->
<svg id="SVGRoot" width="48px" height="48px" version="1.1" viewBox="0 0 48 48" xml:space="preserve" xmlns="http://www.w3.org/2000/svg" xmlns:cc="http://creativecommons.org/ns#" xmlns:dc="http://purl.org/dc/elements/1.1/" xmlns:rdf="http://www.w3.org/1999/02/22-rdf-syntax-ns#" xmlns:xlink="http://www.w3.org/1999/xlink"><defs><style>.cls-1{fill:none;stroke:#fff;stroke-linecap:round;stroke-linejoin:round;}</style><style>.cls-1{fill:none;stroke:#fff;stroke-linecap:round;stroke-linejoin:round;}</style><linearGradient id="linearGradient12" x1="20" x2="20" y1="44" y2="17" gradientUnits="userSpaceOnUse"><stop stop-color="#a05fba" offset="0"/><stop stop-color="#2ae2bd" offset="1"/></linearGradient></defs><metadata><rdf:RDF><cc:Work rdf:about=""><dc:format>image/svg+xml</dc:format><dc:type rdf:resource="http://purl.org/dc/dcmitype/StillImage"/></cc:Work></rdf:RDF></metadata><path d="m9.2266 13.908c-1.5866-0.060623-3.3254-0.054811-5.2266 0.037109v22.055c0 4.432 3.568 8 8 8h24c4.432 0 8-3.568 8-8v-3h-23l3-15s-3.6675-3.6674-14.773-4.0918z" fill="url(#linearGradient12)"/><path d="m12 4c-4.432 0-8 3.568-8 8v2.0625l15 0.9375 5 3-4 14 18 2h6v-22c0-4.432-3.568-8-8-8h-24z" fill="#efefef" fill-rule="evenodd" style="paint-order:stroke fill markers"/><path d="m12 4c-4.432 0-8 3.568-8 8v24c0 4.432 3.568 8 8 8h24c4.432 0 8-3.568 8-8v-24c0-4.432-3.568-8-8-8zm0 1h24c3.878 0 7 3.122 7 7v24c0 3.878-3.122 7-7 7h-24c-3.878 0-7-3.122-7-7v-24c0-3.878 3.122-7 7-7z" fill-rule="evenodd" opacity=".3" style="paint-order:stroke fill markers"/><g stroke-linecap="round"><rect x="30" y="24" width="16" height="16" ry="8" fill="#4e4e4e" stroke-linejoin="bevel" stroke-width="2"/><path d="m5.918 13.004a1 1 0 0 0-0.91406 1.0781 1 1 0 0 0 1.0781 0.91406s3.6125-0.29088 7.6035 0.05078c1.9955 0.17083 4.078 0.50314 5.8008 1.082 1.7227 0.57889 3.0377 1.4049 3.668 2.4043 0.39662 0.62888 0.38312 1.2996 0.05664 2.2637-0.32648 0.96402-0.99062 2.1002-1.6816 3.2695s-1.4123 2.3707-1.8066 3.6309c-0.39437 1.2602-0.41068 2.7172 0.47656 3.9023 1.0794 1.4418 2.8329 2.1287 4.7207 2.459 1.8878 0.3303 3.975 0.30592 5.9395 0.14258 3.9289-0.32668 7.3926-1.2344 7.3926-1.2344a1 1 0 0 0 0.71484-1.2188 1 1 0 0 0-1.2188-0.71484s-3.334 0.86446-7.0547 1.1738c-1.8603 0.15468-3.811 0.16408-5.4297-0.11914-1.6187-0.28322-2.8413-0.85724-3.4629-1.6875-0.44536-0.5949-0.45691-1.1822-0.16797-2.1055 0.28895-0.92332 0.93046-2.0455 1.6191-3.2109 0.68868-1.1654 1.4215-2.3766 1.8516-3.6465 0.43005-1.2699 0.53174-2.7188-0.25781-3.9707-1.009-1.6-2.763-2.5739-4.7227-3.2324-1.9596-0.6585-4.1729-1.0004-6.2676-1.1797-4.1893-0.35863-7.9375-0.05078-7.9375-0.05078z" fill="#4e4e4e" stop-color="#000000" stroke-linejoin="round"/><g stroke-linejoin="bevel"><g stroke-width="2"><rect x="32" y="26" width="12" height="12" ry="6" fill="#fff"/><rect x="2" y="10" width="8" height="8" ry="4" fill="#4e4e4e"/><rect x="4" y="12" width="4" height="4" ry="2" fill="#fff"/><rect x="20" y="14" width="8" height="8" ry="4" fill="#4e4e4e"/><rect x="22" y="16" width="4" height="4" ry="2" fill="#fff"/></g><rect x="16" y="26" width="10" height="10" ry="5" fill="#4e4e4e" stroke-width="2.5"/><rect x="18" y="28" width="6" height="6" ry="3" fill="#fff" stroke-width="3"/></g></g><g><path d="m6 10c-2.216 0-4 1.784-4 4s1.784 4 4 4 4-1.784 4-4-1.784-4-4-4zm0 1c1.662 0 3 1.338 3 3s-1.338 3-3 3-3-1.338-3-3 1.338-3 3-3z" opacity=".4"/><path d="m38 24c-4.432 0-8 3.568-8 8s3.568 8 8 8 8-3.568 8-8-3.568-8-8-8zm0 1c3.878 0 7 3.122 7 7s-3.122 7-7 7-7-3.122-7-7 3.122-7 7-7z" opacity=".4"/><path d="m24 14c-2.216 0-4 1.784-4 4s1.784 4 4 4 4-1.784 4-4-1.784-4-4-4zm0 1c1.662 0 3 1.338 3 3s-1.338 3-3 3-3-1.338-3-3 1.338-3 3-3z" opacity=".4"/><path d="m21 26c-2.77 0-5 2.23-5 5s2.23 5 5 5 5-2.23 5-5-2.23-5-5-5zm0 1c2.216 0 4 1.784 4 4s-1.784 4-4 4-4-1.784-4-4 1.784-4 4-4z" opacity=".4"/></g></svg>
