<?xml version="1.0" encoding="UTF-8"?>
<!-- Created with Inkscape (http://www.inkscape.org/) -->
<svg id="SVGRoot" width="48px" height="48px" version="1.1" viewBox="0 0 48 48" xmlns="http://www.w3.org/2000/svg" xmlns:cc="http://creativecommons.org/ns#" xmlns:dc="http://purl.org/dc/elements/1.1/" xmlns:rdf="http://www.w3.org/1999/02/22-rdf-syntax-ns#">
 <defs>
  <style>.cls-1{fill:none;stroke:#fff;stroke-linecap:round;stroke-linejoin:round;}</style>
 </defs>
 <metadata>
  <rdf:RDF>
   <cc:Work rdf:about="">
    <dc:format>image/svg+xml</dc:format>
    <dc:type rdf:resource="http://purl.org/dc/dcmitype/StillImage"/>
   </cc:Work>
  </rdf:RDF>
 </metadata>
 <rect x="4" y="4" width="40" height="40" ry="8" fill="#418197" fill-rule="evenodd" style="paint-order:stroke fill markers"/>
 <path d="m12 4c-4.432 0-8 3.568-8 8v24c0 4.432 3.568 8 8 8h24c4.432 0 8-3.568 8-8v-24c0-4.432-3.568-8-8-8zm0 1h24c3.878 0 7 3.122 7 7v24c0 3.878-3.122 7-7 7h-24c-3.878 0-7-3.122-7-7v-24c0-3.878 3.122-7 7-7z" fill-rule="evenodd" opacity=".3" style="paint-order:stroke fill markers"/>
 <path d="m24 8v9h14c1.108 0 2-0.892 2-2v-2-1c0-2.216-1.784-4-4-4h-12zm0 11v10h14c1.108 0 2-0.892 2-2v-6c0-1.108-0.892-2-2-2h-14zm0 12v9h12c2.1434 0 3.8767-1.6705 3.9883-3.7852 0.003778-0.071582 0.011719-0.14229 0.011719-0.21484v-1-2c0-1.108-0.892-2-2-2h-2-12z" fill="#7fe28c" stroke-linecap="round" stroke-linejoin="round" stroke-width="2"/>
 <path d="m12 8c-2.1434 0-3.8767 1.6705-3.9883 3.7852v0.001953l-0.0019532 0.001953c-2.011e-4 8.07e-4 1.708e-4 0.00504 0 0.00586-0.0034446 0.068314-0.0097656 0.13584-0.0097656 0.20508v1 2c0 1.108 0.892 2 2 2h14v-9h-12zm-2 11c-1.108 0-2 0.892-2 2v6c0 1.108 0.892 2 2 2h14v-10h-14zm0 12c-1.108 0-2 0.892-2 2v2 1c0 0.07267 0.0042397 0.14423 0.011719 0.21484 0.1116 2.1147 1.8448 3.7852 3.9883 3.7852h12v-9h-12-2z" fill="#6AB4C8" stroke-linecap="round" stroke-linejoin="round" stroke-width="2"/>
</svg>
