<?xml version="1.0" encoding="UTF-8"?>
<!-- Created with Inkscape (http://www.inkscape.org/) -->
<svg id="SVGRoot" width="48px" height="48px" version="1.1" viewBox="0 0 48 48" xmlns="http://www.w3.org/2000/svg" xmlns:cc="http://creativecommons.org/ns#" xmlns:dc="http://purl.org/dc/elements/1.1/" xmlns:rdf="http://www.w3.org/1999/02/22-rdf-syntax-ns#" xmlns:xlink="http://www.w3.org/1999/xlink">
 <defs id="defs815">
  <style id="style819">.cls-1{fill:none;stroke:#fff;stroke-linecap:round;stroke-linejoin:round;}</style>
  <style id="style819-4">.cls-1{fill:none;stroke:#fff;stroke-linecap:round;stroke-linejoin:round;}</style>
  <style id="style819-5">.cls-1{fill:none;stroke:#fff;stroke-linecap:round;stroke-linejoin:round;}</style>
  <style id="style2">.a{fill:none;stroke:#b1b5bd;stroke-linecap:round;stroke-linejoin:round;isolation:isolate;opacity:0.63;}</style>
  <style id="style819-1">.cls-1{fill:none;stroke:#fff;stroke-linecap:round;stroke-linejoin:round;}</style>
  <style id="style819-6">.cls-1{fill:none;stroke:#fff;stroke-linecap:round;stroke-linejoin:round;}</style>
  <style id="style2-9">.a{fill:none;stroke:#b1b5bd;stroke-linecap:round;stroke-linejoin:round;isolation:isolate;opacity:0.63;}</style>
  <style id="style819-1-5">.cls-1{fill:none;stroke:#fff;stroke-linecap:round;stroke-linejoin:round;}</style>
 </defs>
 <metadata id="metadata818">
  <rdf:RDF>
   <cc:Work rdf:about="">
    <dc:format>image/svg+xml</dc:format>
    <dc:type rdf:resource="http://purl.org/dc/dcmitype/StillImage"/>
    <dc:title/>
   </cc:Work>
  </rdf:RDF>
 </metadata>
 <g id="layer1">
  <rect id="rect1373-5" x="4" y="4" width="40" height="40" ry="8" fill="#4e4e4e" fill-rule="evenodd" style="paint-order:stroke fill markers"/>
  <path id="rect817" d="m12 4c-4.432 0-8 3.568-8 8v24c0 4.432 3.568 8 8 8h24c4.432 0 8-3.568 8-8v-24c0-4.432-3.568-8-8-8h-24zm0 1h24c3.878 0 7 3.122 7 7v24c0 3.878-3.122 7-7 7h-24c-3.878 0-7-3.122-7-7v-24c0-3.878 3.122-7 7-7z" fill-rule="evenodd" opacity=".4" style="paint-order:stroke fill markers"/>
  <path id="path932" d="m9 9 6 4-6 4" fill="none" stroke="#fff" stroke-linecap="round" stroke-linejoin="round" stroke-width="2"/>
  <rect id="rect934" x="16" y="16" width="8" height="2" ry=".93782" fill="#fff" fill-rule="evenodd" style="paint-order:stroke fill markers"/>
  <rect id="rect897" x="30" y="29" width="16" height="17" ry="4" fill="#8b5628" fill-rule="evenodd" style="paint-order:stroke fill markers"/>
  <rect id="rect836" x="20" y="20" width="26" height="26" ry="13" fill="#8b5628" fill-rule="evenodd" style="paint-order:stroke fill markers"/>
  <path id="path848" d="m24 22v11l8-8z" fill="#8b5628" stroke="#8b5628" stroke-linecap="round" stroke-linejoin="round" stroke-width="4"/>
  <path id="path848-9" d="m42 22v11l-8-8z" fill="#8b5628" stroke="#8b5628" stroke-linecap="round" stroke-linejoin="round" stroke-width="4"/>
  <path id="path848-0" d="m33 20c-1.9483 0-3.7876 0.43567-5.4434 1.1973l-2.8535-1.0703c-0.25072-0.09379-0.51771-0.13629-0.78516-0.125-1.0716 0.044093-1.9177 0.92553-1.918 1.998v4.0762c-1.2606 2.004-2 4.3718-2 6.9238 0 7.202 5.798 13 13 13 0.22506 0 0.44383-0.02201 0.66602-0.0332 0.11193 0.009297 0.21957 0.0332 0.33398 0.0332h8c2.216 0 4-1.784 4-4v-9c0-2.5521-0.73942-4.9199-2-6.9238v-4.0762c3.68e-4 -1.1278-0.93126-2.0329-2.0586-2-0.22037 0.0065-0.43815 0.0494-0.64453 0.12695l-2.8535 1.0703c-1.6558-0.7616-3.4951-1.1973-5.4434-1.1973zm0 1c1.7992 0 3.4935 0.40086 5.0254 1.1055l0.37891 0.17383 3.2441-1.2168c0.10321-0.038783 0.2121-0.059251 0.32226-0.0625 0.57669-0.016843 1.0295 0.42306 1.0293 1v4.3652l0.1543 0.24414c1.1654 1.8526 1.8457 4.0317 1.8457 6.3906v9c0 1.6793-1.3207 3-3 3h-8c0.02471 0-0.05019-0.01265-0.25-0.0293l-0.06836-0.0059-0.06641 0.0039c-0.25504 0.012945-0.45537 0.0313-0.61523 0.0313-6.6653 0-12-5.3347-12-12 0-2.3589 0.68032-4.538 1.8457-6.3906l0.1543-0.24414v-4.3652c1.26e-4 -0.5467 0.41274-0.97557 0.95898-0.99805h2e-3c0.13375-0.0056 0.26719 0.0156 0.39258 0.0625l3.2422 1.2148 0.37891-0.17383c1.5318-0.70461 3.2262-1.1055 5.0253-1.1055z" color="#000000" color-rendering="auto" dominant-baseline="auto" image-rendering="auto" opacity=".4" shape-rendering="auto" solid-color="#000000" style="font-feature-settings:normal;font-variant-alternates:normal;font-variant-caps:normal;font-variant-ligatures:normal;font-variant-numeric:normal;font-variant-position:normal;isolation:auto;mix-blend-mode:normal;shape-padding:0;text-decoration-color:#000000;text-decoration-line:none;text-decoration-style:solid;text-indent:0;text-orientation:mixed;text-transform:none;white-space:normal"/>
  <rect id="rect865" x="22" y="28" width="8" height="8" ry="4" fill="#fff" fill-rule="evenodd" style="paint-order:stroke fill markers"/>
  <rect id="rect867" x="32" y="28" width="8" height="8" ry="4" fill="#fff" fill-rule="evenodd" style="paint-order:stroke fill markers"/>
  <rect id="rect869" x="29" y="37" width="4" height="2" rx="2" ry=".96891" fill="#fff" fill-rule="evenodd" style="paint-order:stroke fill markers"/>
  <path id="path874" d="m21 36 3 2-3 2" fill="none" stroke="#e5b871" stroke-linecap="round" stroke-linejoin="round" stroke-width="2"/>
  <path id="path874-3" d="m43 36-5 2 5 2" fill="none" stroke="#e5b871" stroke-linecap="round" stroke-linejoin="round" stroke-width="2"/>
  <rect id="rect893" x="25" y="30" width="2" height="4" ry="1" fill="#f6a559" fill-rule="evenodd" style="paint-order:stroke fill markers"/>
  <rect id="rect895" x="35" y="30" width="2" height="4" ry="1" fill="#f6a559" fill-rule="evenodd" style="paint-order:stroke fill markers"/>
 </g>
</svg>
