<?xml version="1.0" encoding="UTF-8"?>
<!-- Created with Inkscape (http://www.inkscape.org/) -->
<svg id="SVGRoot" width="48px" height="48px" version="1.1" viewBox="0 0 48 48" xmlns="http://www.w3.org/2000/svg" xmlns:cc="http://creativecommons.org/ns#" xmlns:dc="http://purl.org/dc/elements/1.1/" xmlns:rdf="http://www.w3.org/1999/02/22-rdf-syntax-ns#">
 <defs id="defs815">
  <style id="style819">.cls-1{fill:none;stroke:#fff;stroke-linecap:round;stroke-linejoin:round;}</style>
 </defs>
 <metadata id="metadata818">
  <rdf:RDF>
   <cc:Work rdf:about="">
    <dc:format>image/svg+xml</dc:format>
    <dc:type rdf:resource="http://purl.org/dc/dcmitype/StillImage"/>
    <dc:title/>
   </cc:Work>
  </rdf:RDF>
 </metadata>
 <g id="layer1">
  <rect id="rect1373-5" x="4" y="4" width="40" height="40" ry="8" fill="#729dec" fill-rule="evenodd" style="paint-order:stroke fill markers"/>
  <path id="rect817" d="m12 4c-4.432 0-8 3.568-8 8v24c0 4.432 3.568 8 8 8h24c4.432 0 8-3.568 8-8v-24c0-4.432-3.568-8-8-8h-24zm0 1h24c3.878 0 7 3.122 7 7v24c0 3.878-3.122 7-7 7h-24c-3.878 0-7-3.122-7-7v-24c0-3.878 3.122-7 7-7z" fill-rule="evenodd" opacity=".3" style="paint-order:stroke fill markers"/>
  <path id="path818" d="m13 21-6.6523 17c0.82125 2.3329 3.0317 4 5.6523 4h8l-7-21zm7 21h7l-4-3-3 3zm7 0h9c1.8768 0 3.5459-0.85416 4.6445-2.1953l-4.6445-5.8047-9 8z" fill="#fff" opacity=".25"/>
  <path id="path836" d="m24 14-14 26-4-5.334v1.334c0 3.324 2.676 6 6 6h24c3.324 0 6-2.676 6-6v-16.727l-9 14.727-9-20z" fill="#fff" opacity=".25"/>
  <path id="path854" d="m42 15.969-5.8516 9.5078a1.0001 1.0001 0 1 0 1.7031 1.0469l4.1484-6.7422v-3.8125zm-25.014 10.02a1.0001 1.0001 0 0 0-0.86719 0.53711l-6.2305 11.572-3.8887-5.5547v3.457c0 0.010559 0.0018992 0.020705 0.0019531 0.03125l3.1797 4.543a1.0001 1.0001 0 0 0 1.6992-0.09961l7-13a1.0001 1.0001 0 0 0-0.89453-1.4863z" color="#000000" color-rendering="auto" dominant-baseline="auto" fill="#fff" image-rendering="auto" opacity=".75" shape-rendering="auto" solid-color="#000000" style="font-feature-settings:normal;font-variant-alternates:normal;font-variant-caps:normal;font-variant-ligatures:normal;font-variant-numeric:normal;font-variant-position:normal;isolation:auto;mix-blend-mode:normal;shape-padding:0;text-decoration-color:#000000;text-decoration-line:none;text-decoration-style:solid;text-indent:0;text-orientation:mixed;text-transform:none;white-space:normal"/>
  <rect id="rect850" x="10" y="10" width="28" height="28" ry="14" fill="#fff" fill-rule="evenodd" style="paint-order:stroke fill markers"/>
  <path id="path860" d="m24 12c-5.7212 0-10.473 3.9682-11.689 9.3105l6.6895 6.6895v2s0 4 4 4v1.9492c0.33046 0.027084 0.66232 0.050781 1 0.050781 3.7501 0 7.0859-1.7029 9.2832-4.3809-0.55466-0.85805-1.5386-1.6191-3.2832-1.6191h-2v-4s0-2-2-2h-8v-2h2c2 0 2-2 2-2v-4h4c2 0 2-2 2-2v-1.3086c-1.2517-0.44044-2.5939-0.69141-4-0.69141z" fill="#729dec"/>
 </g>
</svg>
