<?xml version="1.0" encoding="UTF-8"?>
<!-- Created with Inkscape (http://www.inkscape.org/) -->
<svg id="SVGRoot" width="48px" height="48px" version="1.1" viewBox="0 0 48 48" xmlns="http://www.w3.org/2000/svg" xmlns:cc="http://creativecommons.org/ns#" xmlns:dc="http://purl.org/dc/elements/1.1/" xmlns:rdf="http://www.w3.org/1999/02/22-rdf-syntax-ns#">
 <defs id="defs815">
  <style id="style819">.cls-1{fill:none;stroke:#fff;stroke-linecap:round;stroke-linejoin:round;}</style>
 </defs>
 <metadata id="metadata818">
  <rdf:RDF>
   <cc:Work rdf:about="">
    <dc:format>image/svg+xml</dc:format>
    <dc:type rdf:resource="http://purl.org/dc/dcmitype/StillImage"/>
    <dc:title/>
   </cc:Work>
  </rdf:RDF>
 </metadata>
 <g id="layer1">
  <rect id="rect1373-5" x="4" y="4" width="40" height="40" ry="8" fill="#72bef8" fill-rule="evenodd" style="paint-order:stroke fill markers"/>
  <path id="rect817" d="m12 4c-4.432 0-8 3.568-8 8v24c0 4.432 3.568 8 8 8h24c4.432 0 8-3.568 8-8v-24c0-4.432-3.568-8-8-8h-24zm0 1h24c3.878 0 7 3.122 7 7v24c0 3.878-3.122 7-7 7h-24c-3.878 0-7-3.122-7-7v-24c0-3.878 3.122-7 7-7z" fill-rule="evenodd" opacity=".3" style="paint-order:stroke fill markers"/>
  <path id="path885" d="m24.203 27.579c-2.1361 0-4.5179 0.3963-6.1616 1.7605-1.0097 0.838-1.5863 2.2204-1.7605 3.5209-0.19858 1.4829 0.88023 4.4012 0.88023 4.4012h14.084s0.9459-2.8225 0.88023-4.4012c-0.05453-1.311-0.75073-2.6829-1.7605-3.5209-1.6437-1.3642-4.0256-1.7605-6.1616-1.7605z" fill="#62738c"/>
  <path id="path835" d="m14.521 34.621c-0.34717 0-5.5709 0.60663-8.5215 1.0273v0.35156c0 3.324 2.676 6 6 6h24c3.324 0 6-2.676 6-6v-0.31445c-1.445-0.54959-3.8806-1.0645-8.1133-1.0645-0.88023 0-0.88149 1.7598-1.7617 1.7598-0.88023 0-0.87954-0.88086-1.7598-0.88086h-2.6406c-1.7605 0-1.761-0.87891-3.5215-0.87891s-1.761 0.87891-3.5215 0.87891h-2.6406c-0.88023 0-0.87953 0.88086-1.7598 0.88086-0.88023 0-0.70186-1.7598-1.7598-1.7598z" fill="#e9d4d0" stroke-width=".22006"/>
  <path id="path856" d="m24.203 34.62c-1.7605 0-1.7605 0.88023-3.5209 0.88023h-2.6407c-0.77779 0-0.86928 0.68631-1.4871 0.84628 0.38028 1.041 1.1626 2.6746 2.3673 2.6746 2.1158 0 2.6407-3.5209 5.2814-3.5209 2.6407 0 3.1656 3.5209 5.2814 3.5209 1.2048 0 1.9871-1.6337 2.3673-2.6746-0.61782-0.15997-0.70932-0.84628-1.4871-0.84628h-2.6407c-1.7605 0-1.7605-0.88023-3.5209-0.88023z" fill="#003ae0" opacity=".25"/>
  <path id="path839" d="m18.042 35.501s0.44012 2.6407 1.3203 2.6407 1.3203-2.6407 1.3203-2.6407z" fill="#fff"/>
  <path id="path839-7" d="m27.724 35.501s0.44012 2.6407 1.3203 2.6407c0.88023 0 1.3203-2.6407 1.3203-2.6407z" fill="#fff"/>
  <path id="path883" d="m13.64 29.339c-0.88023 1.5313 0.58682 1.1736 0.88023 0.88023 1.7605-1.7605 3.5209-4.4012 9.6825-4.4012s7.9221 2.6407 9.6825 4.4012c0.3019 0.3019 1.7605 0.63552 0.88023-0.88023-1.5117-2.6031-4.4012-5.2814-10.563-5.2814s-8.9812 2.5299-10.563 5.2814z" fill="#62738c"/>
  <path id="path887" d="m18.922 30.219s0 0.88023 0.88023 1.7605c0.88023 0.88023 1.7605 0.88023 1.7605 0.88023s0-0.88023-0.88023-1.7605c-0.88023-0.88023-1.7605-0.88023-1.7605-0.88023z" opacity=".4"/>
  <path id="path887-0" d="m29.485 30.219s0 0.88023-0.88023 1.7605c-0.88023 0.88023-1.7605 0.88023-1.7605 0.88023s0-0.88023 0.88023-1.7605c0.88023-0.88023 1.7605-0.88023 1.7605-0.88023z" opacity=".4"/>
  <path id="path914" d="m9.2392 17.016s1.7605-7.0419 6.1616-7.0419c0.92785 0 2.126 0.10822 2.6407 0.88023 1.7605 2.6407 0.88023 8.8023 0.88023 8.8023l-3.5209-2.6407z" fill="#e9d4d0"/>
  <path id="path916" d="m9.2392 17.896 1.7605 5.2814 3.5209 1.7605 4.4012-1.7605 0.88023-0.88023-0.88023-4.4012-2.6407-2.6407h-3.5209z" fill="#fff"/>
  <rect id="rect912" x="12.76" y="15.255" width="6.1616" height="8.8023" rx="3.0808" ry="4.4012" fill="#7069c8" fill-rule="evenodd" style="paint-order:stroke fill markers"/>
  <rect id="rect926" x="13.64" y="15.255" width="4.4012" height="7.0419" rx="2.2006" ry="3.5209" fill="#bda1f1" fill-rule="evenodd" style="paint-order:stroke fill markers"/>
  <rect id="rect930" x="17.161" y="20.537" width="2.6407" height="1.7605" rx="1.9105" ry="1.444" fill="#fff" fill-rule="evenodd" style="paint-order:stroke fill markers"/>
  <path id="path904" d="m6.5985 17.016s0.88023 2.0813 2.6407 2.0951c0.31389 0.0024 0.65827-0.11266 0.88023-0.33462 1.7605-1.7605 1.7605-2.6407 5.2814-2.6407 2.6407 0 4.4012 6.1616 4.4012 6.1616s0-8.8023-4.4012-8.8023c-4.4012 0-6.1616 3.5209-6.1616 3.5209z" fill="#4e4e4e"/>
  <rect id="rect906" x="8.359" y="24.058" width="2.6407" height="3.5209" rx="1.3203" ry="1.7605" fill="#62738c" fill-rule="evenodd" style="paint-order:stroke fill markers"/>
  <rect id="rect908" x="11" y="27.579" width="1.7605" height="1.7605" rx="1.3203" ry="1.7605" fill="#62738c" fill-rule="evenodd" style="paint-order:stroke fill markers"/>
  <path id="path910" d="m10.119 20.537s0 5.2814 3.5209 5.2814 5.2814-2.6407 5.2814-2.6407-0.88023 0.88023-5.2814 0.88023c-2.6407 0-3.5209-3.5209-3.5209-3.5209z" fill="#4e4e4e"/>
  <rect id="rect924" x="14.961" y="17.421" width="1.7605" height="4.8759" rx=".88023" ry="2.2006" fill="#4e4e4e" fill-rule="evenodd" style="paint-order:stroke fill markers"/>
  <rect id="rect928" x="13.64" y="17.896" width="2.2926" height="1.444" rx="1.9105" ry="1.444" fill="#fff" fill-rule="evenodd" style="paint-order:stroke fill markers"/>
  <path id="path914-3" d="m39.167 17.016s-1.7605-7.0419-6.1616-7.0419c-0.92785 0-2.126 0.10822-2.6407 0.88023-1.7605 2.6407-0.88023 8.8023-0.88023 8.8023l3.5209-2.6407z" fill="#e9d4d0"/>
  <path id="path916-5" d="m39.167 17.896-1.7605 5.2814-3.5209 1.7605-4.4012-1.7605-0.88023-0.88023 0.88023-4.4012 2.6407-2.6407h3.5209z" fill="#fff"/>
  <rect id="rect912-1" transform="scale(-1,1)" x="-35.646" y="15.255" width="6.1616" height="8.8023" rx="3.0808" ry="4.4012" fill="#7069c8" fill-rule="evenodd" style="paint-order:stroke fill markers"/>
  <rect id="rect926-5" transform="scale(-1,1)" x="-34.766" y="15.255" width="4.4012" height="7.0419" rx="2.2006" ry="3.5209" fill="#bda1f1" fill-rule="evenodd" style="paint-order:stroke fill markers"/>
  <rect id="rect930-1" transform="scale(-1,1)" x="-36.526" y="20.537" width="2.6407" height="1.7605" rx="1.9105" ry="1.444" fill="#fff" fill-rule="evenodd" style="paint-order:stroke fill markers"/>
  <path id="path904-4" d="m41.808 17.016s-0.88023 2.0813-2.6407 2.0951c-0.31389 0.0024-0.65827-0.11266-0.88023-0.33462-1.7605-1.7605-1.7605-2.6407-5.2814-2.6407-2.6407 0-4.4012 6.1616-4.4012 6.1616s0-8.8023 4.4012-8.8023c4.4012 0 6.1616 3.5209 6.1616 3.5209z" fill="#4e4e4e"/>
  <rect id="rect906-3" transform="scale(-1,1)" x="-40.047" y="24.058" width="2.6407" height="3.5209" rx="1.3203" ry="1.7605" fill="#62738c" fill-rule="evenodd" style="paint-order:stroke fill markers"/>
  <rect id="rect908-0" transform="scale(-1,1)" x="-37.407" y="27.579" width="1.7605" height="1.7605" rx="1.3203" ry="1.7605" fill="#62738c" fill-rule="evenodd" style="paint-order:stroke fill markers"/>
  <path id="path910-5" d="m38.287 20.537s0 5.2814-3.5209 5.2814c-3.5209 0-5.2814-2.6407-5.2814-2.6407s0.88023 0.88023 5.2814 0.88023c2.6407 0 3.5209-3.5209 3.5209-3.5209z" fill="#4e4e4e"/>
  <rect id="rect924-2" transform="scale(-1,1)" x="-33.446" y="17.421" width="1.7605" height="4.8759" rx=".88023" ry="2.2006" fill="#4e4e4e" fill-rule="evenodd" style="paint-order:stroke fill markers"/>
  <rect id="rect928-4" transform="scale(-1,1)" x="-32.657" y="17.896" width="2.2926" height="1.444" rx="1.9105" ry="1.444" fill="#fff" fill-rule="evenodd" style="paint-order:stroke fill markers"/>
 </g>
</svg>
