<?xml version="1.0" encoding="UTF-8"?>
<!-- Created with Inkscape (http://www.inkscape.org/) -->
<svg id="SVGRoot" width="48px" height="48px" version="1.1" viewBox="0 0 48 48" xml:space="preserve" xmlns="http://www.w3.org/2000/svg" xmlns:cc="http://creativecommons.org/ns#" xmlns:dc="http://purl.org/dc/elements/1.1/" xmlns:rdf="http://www.w3.org/1999/02/22-rdf-syntax-ns#" xmlns:xlink="http://www.w3.org/1999/xlink"><defs><style>.cls-1{fill:none;stroke:#fff;stroke-linecap:round;stroke-linejoin:round;}</style><linearGradient id="linearGradient5" x1="24" x2="12" y1="6" y2="42" gradientUnits="userSpaceOnUse"><stop stop-color="#f474f4" offset="0"/><stop stop-color="#09ffdd" offset="1"/></linearGradient><linearGradient id="linearGradient7" x1="39" x2="15" y1="39" y2="15" gradientUnits="userSpaceOnUse"><stop stop-color="#f4ee36" offset="0"/><stop stop-color="#f4ee36" stop-opacity="0" offset="1"/></linearGradient><style>.cls-1{fill:none;stroke:#fff;stroke-linecap:round;stroke-linejoin:round;}</style><style>.cls-1{fill:none;stroke:#fff;stroke-linecap:round;stroke-linejoin:round;}</style><style>.cls-1{fill:none;stroke:#fff;stroke-linecap:round;stroke-linejoin:round;}</style><style>.cls-1{fill:none;stroke:#fff;stroke-linecap:round;stroke-linejoin:round;}</style><style>.a{fill:none;stroke:#b1b5bd;stroke-linecap:round;stroke-linejoin:round;isolation:isolate;opacity:0.63;}</style><style>.cls-1{fill:none;stroke:#fff;stroke-linecap:round;stroke-linejoin:round;}</style><style>.cls-1{fill:none;stroke:#fff;stroke-linecap:round;stroke-linejoin:round;}</style><style>.a{fill:none;stroke:#b1b5bd;stroke-linecap:round;stroke-linejoin:round;isolation:isolate;opacity:0.63;}</style><style>.cls-1{fill:none;stroke:#fff;stroke-linecap:round;stroke-linejoin:round;}</style><style>.cls-1{fill:none;stroke:#fff;stroke-linecap:round;stroke-linejoin:round;}</style><style>.cls-1{fill:none;stroke:#fff;stroke-linecap:round;stroke-linejoin:round;}</style><linearGradient id="linearGradient13" x1="30" x2="11.877" y1="31" y2="31" gradientUnits="userSpaceOnUse"><stop stop-color="#5798e7" offset="0"/><stop stop-color="#5798e7" stop-opacity="0" offset="1"/></linearGradient></defs><metadata><rdf:RDF><cc:Work rdf:about=""><dc:format>image/svg+xml</dc:format><dc:type rdf:resource="http://purl.org/dc/dcmitype/StillImage"/></cc:Work></rdf:RDF></metadata><rect x="4" y="4" width="40" height="40" ry="8" fill="url(#linearGradient5)" fill-rule="evenodd" style="paint-order:stroke fill markers"/><rect x="6" y="6" width="36" height="36" ry="6" fill="url(#linearGradient7)" opacity=".8"/><path d="m12 4c-4.432 0-8 3.568-8 8v24c0 4.432 3.568 8 8 8h24c4.432 0 8-3.568 8-8v-24c0-4.432-3.568-8-8-8zm0 1h24c3.878 0 7 3.122 7 7v24c0 3.878-3.122 7-7 7h-24c-3.878 0-7-3.122-7-7v-24c0-3.878 3.122-7 7-7z" fill-rule="evenodd" opacity=".3" style="paint-order:stroke fill markers"/><path d="m10 26s1.9157 12 14.223 12c3.9094 0 7.2308-2.1615 7.2308-2.1615s2.9269-3.9391 2.1065-5.8385c-0.6553-1.517-4.5486-1.9717-4.5486-1.9717s-3.0114 2.9717-7.0114 2.9717c-9 0-12-5-12-5z" fill="url(#linearGradient13)" stroke-linecap="square" stroke-linejoin="round" stroke-width="2"/><g stroke-linecap="round" stroke-linejoin="round"><path d="m6.5742 7.5664c-0.98482 1.2055-1.5742 2.7485-1.5742 4.4336v0.73242c0.3225 0.40497 0.66636 0.83008 1.0273 1.2676 2.1778 2.6395 4.9349 5.7292 7.6914 7.7188 3.1763 2.2926 5.6918 3.3034 7.5469 3.7051 0.92754 0.20084 1.6869 0.2471 2.2559 0.22656 0.09641-0.0035 0.19278-0.008769 0.28516-0.017579l5.2051 3.1211c-0.03316 0.54342 0.10461 1.1201 0.41797 1.6426 1.1613 1.9365 1.9035 1.96 2.2344 2.7402 0.71031 1.6752-0.21094 2.7012-0.21094 2.7012s5.9382-3.0041 3.416-7.4863c-0.63115-1.1216-2.1737-2.4025-3.918-1.8398h-0.001953l-4.6387-3.8203s-0.005898-9.06e-4 -0.017578-0.003906c-0.01887-0.16096-0.051043-0.32683-0.095703-0.49219-0.40912-1.5147-1.7-3.2071-4.8516-5.6875-4.2202-3.3214-11.569-7.2761-14.771-8.9414z" opacity=".3" stop-color="#000000" stroke-width=".93067"/><path d="m5.0078 2.2715a2.0002 2.0002 0 0 0-2.7129 2.7754s1.5546 2.5308 3.7324 5.5781c2.1778 3.0474 4.9349 6.615 7.6914 8.9121 3.1763 2.6469 5.6918 3.8136 7.5469 4.2773 0.92754 0.23189 1.6869 0.28542 2.2559 0.26172 0.56894-0.02371 1.1113-0.17969 1.1113-0.17969a2.0002 2.0002 0 0 0 0.5918-0.31445s0.59166-0.53016 0.8457-1.1543c0.25405-0.62413 0.33154-1.4654 0.12695-2.3398-0.40917-1.7488-1.7-3.7047-4.8516-6.5684-5.5061-5.0031-16.338-11.248-16.338-11.248z" fill="#565d60" stop-color="#000000"/><path d="m3.9395 1.998a2.0002 2.0002 0 0 0-1.6445 3.0488s1.5546 2.5308 3.7324 5.5781c2.1778 3.0474 4.9349 6.615 7.6914 8.9121 3.1763 2.6469 5.6918 3.8136 7.5469 4.2773 0.92754 0.23189 1.6869 0.28542 2.2559 0.26172 0.56894-0.02371 1.1113-0.17969 1.1113-0.17969a2.0002 2.0002 0 0 0 0.5918-0.31445s0.59166-0.53016 0.8457-1.1543c0.25405-0.62413 0.33154-1.4654 0.12695-2.3398-0.40917-1.7488-1.7-3.7047-4.8516-6.5684-5.5061-5.0031-16.338-11.248-16.338-11.248a2.0002 2.0002 0 0 0-1.0684-0.27344zm0.033203 0.97266c0.16152 0.0016164 0.33852 0.051364 0.53125 0.16406a1.0001 1.0001 0 0 0 0.0039063 0.0039063s10.837 6.2784 16.166 11.121c3.0844 2.8027 4.2083 4.601 4.5488 6.0566 0.15941 0.68132 0.084395 1.3351-0.078125 1.7344-0.11926 0.293-0.53034 0.7201-0.56445 0.75586-0.07646 0.05446-0.15746 0.10169-0.24609 0.13281-0.02197 0.0058-0.45063 0.11993-0.85352 0.13672-0.46939 0.01956-1.1346-0.0229-1.9727-0.23242-1.6786-0.41966-4.0606-1.501-7.1484-4.0742-2.6172-2.181-5.3572-5.7036-7.5176-8.7266-2.1564-3.0174-3.6953-5.5195-3.6953-5.5195-0.31215-0.50697-0.17441-0.90631 0.13672-1.2246 0.15556-0.15915 0.3313-0.27561 0.5332-0.31445 0.050475-0.0097118 0.10241-0.014211 0.15625-0.013672z" opacity=".4" stop-color="#000000"/></g><path d="m23.653 23.949s-0.37382-1.1549 0.8011-2.3611 1.8552-0.92758 1.8552-0.92758l5.945 5.6498-2.0238 2.1925z" fill="#efefef"/><path d="m29.809 25.804c2.1832-2.0249 4.2932-0.18094 5.0595 1.3914 2.5222 5.1749-3.4152 8.6434-3.4152 8.6434s0.92113-1.186 0.21082-3.1201c-0.33083-0.9008-1.0733-0.92648-2.2346-3.1622-0.67598-1.3014-0.53702-2.9025 0.37946-3.7525z" fill="#565d60"/><path d="m31.795 24.912c-0.62918 0.003503-1.3041 0.25784-1.9863 0.89062-0.91649 0.85004-1.0549 2.4525-0.37891 3.7539 1.1613 2.2357 1.9035 2.2613 2.2344 3.1621 0.71031 1.9341-0.21094 3.1191-0.21094 3.1191s5.9382-3.4677 3.416-8.6426c-0.52685-1.081-1.69-2.2909-3.0742-2.2832zm0.005859 0.9707c0.22235 0.007155 0.434 0.078518 0.6582 0.17969 0.59786 0.2698 1.2195 0.97068 1.5117 1.5703 1.0872 2.2306 0.37741 3.8768-0.6543 5.2129-0.22812 0.29543-0.2834 0.2311-0.52344 0.4707-0.05162-0.31071-0.06471-0.60369-0.18945-0.94336-0.24782-0.67477-0.67326-1.0535-1.0137-1.418-0.34041-0.36451-0.73224-0.81748-1.2734-1.8594-0.49549-0.9539-0.32254-2.1 0.17188-2.5586 0.43144-0.40016 0.77609-0.58624 1.0859-0.63867 0.077461-0.013108 0.15245-0.01801 0.22656-0.015626z" opacity=".4" stop-color="#000000" stroke-linecap="round" stroke-linejoin="round"/></svg>
