<?xml version="1.0" encoding="UTF-8"?>
<!-- Created with Inkscape (http://www.inkscape.org/) -->
<svg id="SVGRoot" width="48px" height="48px" version="1.1" viewBox="0 0 48 48" xmlns="http://www.w3.org/2000/svg" xmlns:cc="http://creativecommons.org/ns#" xmlns:dc="http://purl.org/dc/elements/1.1/" xmlns:rdf="http://www.w3.org/1999/02/22-rdf-syntax-ns#">
 <defs id="defs815">
  <style id="style819">.cls-1{fill:none;stroke:#fff;stroke-linecap:round;stroke-linejoin:round;}</style>
 </defs>
 <metadata id="metadata818">
  <rdf:RDF>
   <cc:Work rdf:about="">
    <dc:format>image/svg+xml</dc:format>
    <dc:type rdf:resource="http://purl.org/dc/dcmitype/StillImage"/>
    <dc:title/>
   </cc:Work>
  </rdf:RDF>
 </metadata>
 <g id="layer1">
  <rect id="rect1373-5" x="4" y="4" width="40" height="40" ry="8" fill="#a0553b" fill-rule="evenodd" style="paint-order:stroke fill markers"/>
  <path id="rect817" d="m12 4c-4.432 0-8 3.568-8 8v24c0 4.432 3.568 8 8 8h24c4.432 0 8-3.568 8-8v-24c0-4.432-3.568-8-8-8h-24zm0 1h24c3.878 0 7 3.122 7 7v24c0 3.878-3.122 7-7 7h-24c-3.878 0-7-3.122-7-7v-24c0-3.878 3.122-7 7-7z" fill-rule="evenodd" opacity=".3" style="paint-order:stroke fill markers"/>
  <rect id="rect828-3" x="14" y="10" width="20" height="20" ry="10" fill="#f8d8a8" fill-rule="evenodd" style="paint-order:normal"/>
  <rect id="rect830" x="20" y="32" width="8" height="2" fill="#f8d8a8" fill-rule="evenodd" style="paint-order:normal"/>
  <path id="path832" d="m22 28 1.5 11h1l1.5-11z" fill="#f8d8a8"/>
  <rect id="rect834" x="17" y="12" width="14" height="14" ry="7" fill="#a0553b" fill-rule="evenodd" style="paint-order:normal"/>
  <rect id="rect840" x="18" y="13" width="9" height="9" ry="4.5" fill="#d28267" fill-rule="evenodd" style="paint-order:normal"/>
  <rect id="rect836" x="20" y="14" width="2" height="2" ry="1" fill="#f8d8a8" fill-rule="evenodd" style="paint-order:normal"/>
  <rect id="rect838" x="26" y="21" width="3" height="3" ry="1.5" fill="#f8d8a8" fill-rule="evenodd" style="paint-order:normal"/>
 </g>
</svg>
