<?xml version="1.0" encoding="UTF-8"?>
<!-- Created with Inkscape (http://www.inkscape.org/) -->
<svg id="SVGRoot" width="48px" height="48px" version="1.1" viewBox="0 0 48 48" xml:space="preserve" xmlns="http://www.w3.org/2000/svg" xmlns:cc="http://creativecommons.org/ns#" xmlns:dc="http://purl.org/dc/elements/1.1/" xmlns:rdf="http://www.w3.org/1999/02/22-rdf-syntax-ns#"><defs><style>.cls-1{fill:none;stroke:#fff;stroke-linecap:round;stroke-linejoin:round;}</style><style>.cls-1{fill:none;stroke:#fff;stroke-linecap:round;stroke-linejoin:round;}</style><style>.cls-1{fill:none;stroke:#fff;stroke-linecap:round;stroke-linejoin:round;}</style><style>.cls-1{fill:none;stroke:#fff;stroke-linecap:round;stroke-linejoin:round;}</style><style>.a{fill:none;stroke:#b1b5bd;stroke-linecap:round;stroke-linejoin:round;isolation:isolate;opacity:0.63;}</style><style>.cls-1{fill:none;stroke:#fff;stroke-linecap:round;stroke-linejoin:round;}</style></defs><metadata><rdf:RDF><cc:Work rdf:about=""><dc:format>image/svg+xml</dc:format><dc:type rdf:resource="http://purl.org/dc/dcmitype/StillImage"/></cc:Work></rdf:RDF></metadata><g fill-rule="evenodd"><rect x="4" y="4" width="40" height="40" ry="8" fill="#729dec" style="paint-order:stroke fill markers"/><path d="m24 10c-7.756 0-14 6.244-14 14s6.244 14 14 14 14-6.244 14-14-6.244-14-14-14zm0 1c7.202 0 13 5.798 13 13s-5.798 13-13 13-13-5.798-13-13 5.798-13 13-13z" opacity=".25" style="paint-order:stroke fill markers"/><path d="m12 4c-4.432 0-8 3.568-8 8v24c0 4.432 3.568 8 8 8h24c4.432 0 8-3.568 8-8v-24c0-4.432-3.568-8-8-8zm0 1h24c3.878 0 7 3.122 7 7v24c0 3.878-3.122 7-7 7h-24c-3.878 0-7-3.122-7-7v-24c0-3.878 3.122-7 7-7z" opacity=".3" style="paint-order:stroke fill markers"/></g><path d="m14.425 31.89 1.6785-0.97174 4.0194-6.493s-1.8573-1.567-1.3251-2.2085c0.63606-0.76665 3.0478-0.66256 3.0478-0.66256s1.3974-0.90031 2.2527-1.4134c0.66184-0.39708 1.9518 0.03095 2.4735-0.35336 1.822-1.3421 2.5794-2.1589 3.9752-3.1802 0.93162-0.68178 1.2866 2.6965 0.61838 3.2686 0.52094-0.06444 0.72724-0.10984 1.0601-0.22085 0.23245-0.07753 0.5544 0.16098 0.61837 0.39752 0.22864 0.84538-0.18131 1.7795-1.1926 2.3409-1.0423 0.57876-1.9032 2.1004-2.5177 3.357-0.44253 0.9048-0.66136 1.9169-0.79507 2.9152-0.09381 0.70047 0.15775 1.4313 0 2.1201-0.21902 0.95641-1.0108 1.707-1.2809 2.6502-0.30175 1.0535-0.35336 3.2686-0.35336 3.2686l-6.9346-0.088338-5.0795-3.622z" fill="#fff" stroke-width=".2105"/><path d="m25.732 20.991c-0.0085 2.26e-4 -0.01664 0.0012-0.02482 3e-3l-1.1976 0.25792c-0.0335 0.0074-0.06331 0.02633-0.08409 0.0536l-0.68232 0.89453c-0.07874 0.10413 0.01018 0.251 0.13884 0.2297l1.0763-0.18173c0.03424-0.0057 0.06529-0.02352 0.08747-0.05022l0.8031-0.9702c0.07956-0.09619 0.0079-0.2412-0.11682-0.23647z" color="#000000" color-rendering="auto" dominant-baseline="auto" fill="#729dec" image-rendering="auto" shape-rendering="auto" solid-color="#000000" stroke-width=".28896" style="font-feature-settings:normal;font-variant-alternates:normal;font-variant-caps:normal;font-variant-ligatures:normal;font-variant-numeric:normal;font-variant-position:normal;isolation:auto;mix-blend-mode:normal;shape-padding:0;text-decoration-color:#000000;text-decoration-line:none;text-decoration-style:solid;text-indent:0;text-orientation:mixed;text-transform:none;white-space:normal"/><path d="m24 10c-7.756 0-14 6.244-14 14s6.244 14 14 14 14-6.244 14-14-6.244-14-14-14zm0 2c6.648 0 12 5.352 12 12s-5.352 12-12 12-12-5.352-12-12 5.352-12 12-12z" fill="#fff" stroke-linecap="round" stroke-linejoin="round" stroke-width="2" style="paint-order:stroke fill markers"/></svg>
