<?xml version="1.0" encoding="UTF-8"?>
<!-- Created with Inkscape (http://www.inkscape.org/) -->
<svg id="SVGRoot" width="48px" height="48px" version="1.1" viewBox="0 0 48 48" xmlns="http://www.w3.org/2000/svg" xmlns:cc="http://creativecommons.org/ns#" xmlns:dc="http://purl.org/dc/elements/1.1/" xmlns:rdf="http://www.w3.org/1999/02/22-rdf-syntax-ns#">
 <defs id="defs815">
  <style id="style819">.cls-1{fill:none;stroke:#fff;stroke-linecap:round;stroke-linejoin:round;}</style>
 </defs>
 <metadata id="metadata818">
  <rdf:RDF>
   <cc:Work rdf:about="">
    <dc:format>image/svg+xml</dc:format>
    <dc:type rdf:resource="http://purl.org/dc/dcmitype/StillImage"/>
    <dc:title/>
   </cc:Work>
  </rdf:RDF>
 </metadata>
 <g id="layer1" fill-rule="evenodd">
  <rect id="rect1373-5" x="4" y="4" width="40" height="40" ry="8" fill="#96d56b" style="paint-order:stroke fill markers"/>
  <path id="rect817" d="m12 4c-4.432 0-8 3.568-8 8v24c0 4.432 3.568 8 8 8h24c4.432 0 8-3.568 8-8v-24c0-4.432-3.568-8-8-8h-24zm0 1h24c3.878 0 7 3.122 7 7v24c0 3.878-3.122 7-7 7h-24c-3.878 0-7-3.122-7-7v-24c0-3.878 3.122-7 7-7z" opacity=".3" style="paint-order:stroke fill markers"/>
  <path id="rect845" d="m12 8c-2.216 0-4 1.784-4 4v24c0 2.216 1.784 4 4 4h24c2.216 0 4-1.784 4-4v-14l-14-14zm18 0 10 10v-6c0-2.216-1.784-4-4-4z" opacity=".4" style="paint-order:stroke fill markers"/>
  <rect id="rect898" x="12" y="18" width="20" height="14" ry="2" fill="#fff" style="paint-order:normal"/>
  <rect id="rect900" x="18" y="22" width="18" height="14" ry="2" fill="#c3f4a2" style="paint-order:normal"/>
  <rect id="rect902-7" x="14" y="20" width="4" height="2" fill="#5a8040" style="paint-order:normal"/>
  <rect id="rect904-9" x="26" y="20" width="4" height="2" fill="#5a8040" style="paint-order:normal"/>
  <rect id="rect906-5" x="20" y="20" width="4" height="2" fill="#5a8040" style="paint-order:normal"/>
  <rect id="rect902-3" x="14" y="24" width="4" height="2" fill="#5a8040" style="paint-order:normal"/>
  <rect id="rect902-4" x="14" y="28" width="4" height="2" fill="#5a8040" style="paint-order:normal"/>
  <rect id="rect951" x="28" y="30" width="2" height="4" fill="#5a8040" style="paint-order:normal"/>
  <rect id="rect955" x="32" y="24" width="2" height="10" fill="#5a8040" style="paint-order:normal"/>
  <rect id="rect957" x="24" y="26" width="2" height="8" fill="#5a8040" style="paint-order:normal"/>
  <rect id="rect959" x="20" y="28" width="2" height="6" fill="#5a8040" style="paint-order:normal"/>
 </g>
</svg>
