<?xml version="1.0" encoding="UTF-8"?>
<!-- Created with Inkscape (http://www.inkscape.org/) -->
<svg id="SVGRoot" width="48px" height="48px" version="1.1" viewBox="0 0 48 48" xmlns="http://www.w3.org/2000/svg" xmlns:cc="http://creativecommons.org/ns#" xmlns:dc="http://purl.org/dc/elements/1.1/" xmlns:rdf="http://www.w3.org/1999/02/22-rdf-syntax-ns#" xmlns:xlink="http://www.w3.org/1999/xlink">
 <defs id="defs815">
  <style id="style819">.cls-1{fill:none;stroke:#fff;stroke-linecap:round;stroke-linejoin:round;}</style>
  <style id="style819-7">.cls-1{fill:none;stroke:#fff;stroke-linecap:round;stroke-linejoin:round;}</style>
  <style id="style819-1">.cls-1{fill:none;stroke:#fff;stroke-linecap:round;stroke-linejoin:round;}</style>
  <style id="style819-05">.cls-1{fill:none;stroke:#fff;stroke-linecap:round;stroke-linejoin:round;}</style>
  <style id="style819-0">.cls-1{fill:none;stroke:#fff;stroke-linecap:round;stroke-linejoin:round;}</style>
 </defs>
 <metadata id="metadata818">
  <rdf:RDF>
   <cc:Work rdf:about="">
    <dc:format>image/svg+xml</dc:format>
    <dc:type rdf:resource="http://purl.org/dc/dcmitype/StillImage"/>
    <dc:title/>
   </cc:Work>
  </rdf:RDF>
 </metadata>
 <g id="layer1" fill-rule="evenodd">
  <rect id="rect1373-5" x="4" y="4" width="40" height="40" ry="8" fill="#bc8046" style="paint-order:stroke fill markers"/>
  <path id="rect817" d="m12 4c-4.432 0-8 3.568-8 8v24c0 4.432 3.568 8 8 8h24c4.432 0 8-3.568 8-8v-24c0-4.432-3.568-8-8-8h-24zm0 1h24c3.878 0 7 3.122 7 7v24c0 3.878-3.122 7-7 7h-24c-3.878 0-7-3.122-7-7v-24c0-3.878 3.122-7 7-7z" opacity=".3" style="paint-order:stroke fill markers"/>
  <rect id="rect929" x="8" y="8" width="32" height="32" ry="4" fill="#4e4e4e" style="paint-order:normal"/>
  <rect id="rect828" x="12" y="28" width="8" height="8" ry="4" fill="#efefef" style="paint-order:normal"/>
  <rect id="rect830" x="28" y="28" width="8" height="8" ry="4" fill="#efefef" style="paint-order:normal"/>
  <rect id="rect832" x="30" y="30" width="4" height="4" ry="2" opacity=".4" style="paint-order:normal"/>
  <rect id="rect834" x="31" y="31" width="2" height="2" ry="1" fill="#efefef" style="paint-order:normal"/>
  <path id="rect832-9" d="m17.99 29.496a0.50005 0.50005 0 0 0-0.34375 0.15039l-0.63476 0.63477c-0.29752-0.17518-0.64009-0.28125-1.0117-0.28125-1.108 0-2 0.892-2 2s0.892 2 2 2 2-0.892 2-2c0-0.37163-0.10607-0.7142-0.28125-1.0117l0.63477-0.63476a0.50005 0.50005 0 0 0-0.36328-0.85742z" opacity=".4" style="paint-order:normal"/>
  <rect id="rect834-5" x="15" y="31" width="2" height="2" ry="1" fill="#efefef" style="paint-order:normal"/>
  <rect id="rect858" x="20" y="28" width="2" height="2" ry="1" opacity=".4" style="paint-order:normal"/>
  <rect id="rect858-4" x="21" y="31" width="2" height="2" ry="1" opacity=".4" style="paint-order:normal"/>
  <rect id="rect858-4-0" x="20" y="34" width="2" height="2" ry="1" opacity=".4" style="paint-order:normal"/>
  <rect id="rect913" x="12" y="12" width="16" height="10" ry="1" fill="#7e75df" style="paint-order:normal"/>
  <rect id="rect915" x="30" y="12" width="6" height="6" ry="3" fill="#efefef" style="paint-order:normal"/>
  <rect id="rect1022" x="31" y="19" width="6" height="6" ry="3" opacity=".4" style="paint-order:normal"/>
  <rect id="rect917" x="32" y="20" width="4" height="4" ry="2" fill="#4e4e4e" style="paint-order:normal"/>
  <rect id="rect919" x="12" y="24" width="2" height="2" ry="1" fill="#efefef" style="paint-order:normal"/>
  <rect id="rect921" x="16" y="24" width="2" height="2" ry="1" fill="#efefef" style="paint-order:normal"/>
  <rect id="rect923" x="20" y="24" width="2" height="2" ry="1" fill="#efefef" style="paint-order:normal"/>
  <rect id="rect925" x="24" y="24" width="2" height="2" ry="1" fill="#efefef" style="paint-order:normal"/>
  <rect id="rect927" x="28" y="24" width="2" height="2" ry="1" fill="#efefef" style="paint-order:normal"/>
  <rect id="rect1144" x="14" y="16" width="6" height="1" fill="#fff" opacity=".4" style="paint-order:normal"/>
  <rect id="rect1146" x="14" y="14" width="9" height="1" fill="#fff" opacity=".4" style="paint-order:normal"/>
  <rect id="rect1148" x="14" y="18" width="10" height="1" fill="#fff" opacity=".4" style="paint-order:normal"/>
 </g>
 <style id="style26" type="text/css">.specularity {opacity:0.5;}
	.low-specularity {opacity:0.25;}
	.full-specularity {opacity:1;}
	.black {fill:#000000;}
	.white {fill:#ffffff;}
	.outline-big {stroke-width:16;stroke:none;opacity:0.1;fill:none;}
	.outline-small {stroke-width:8;stroke:none;opacity:0.2;fill:none;}
	.stroke-highlight {fill:none;stroke:none;opacity:0.2;}
       	.base-shadow 	{fill:black;opacity:75;}</style>
</svg>
