<?xml version="1.0" encoding="UTF-8"?>
<!-- Created with Inkscape (http://www.inkscape.org/) -->
<svg id="SVGRoot" width="48px" height="48px" version="1.1" viewBox="0 0 48 48" xmlns="http://www.w3.org/2000/svg" xmlns:cc="http://creativecommons.org/ns#" xmlns:dc="http://purl.org/dc/elements/1.1/" xmlns:rdf="http://www.w3.org/1999/02/22-rdf-syntax-ns#">
 <defs id="defs815">
  <style id="style819">.cls-1{fill:none;stroke:#fff;stroke-linecap:round;stroke-linejoin:round;}</style>
 </defs>
 <metadata id="metadata818">
  <rdf:RDF>
   <cc:Work rdf:about="">
    <dc:format>image/svg+xml</dc:format>
    <dc:type rdf:resource="http://purl.org/dc/dcmitype/StillImage"/>
    <dc:title/>
   </cc:Work>
  </rdf:RDF>
 </metadata>
 <g id="layer1" fill-rule="evenodd">
  <rect id="rect1373-5" x="4" y="4" width="40" height="40" ry="8" fill="#f68d59" style="paint-order:stroke fill markers"/>
  <path id="rect817" d="m12 4c-4.432 0-8 3.568-8 8v24c0 4.432 3.568 8 8 8h24c4.432 0 8-3.568 8-8v-24c0-4.432-3.568-8-8-8h-24zm0 1h24c3.878 0 7 3.122 7 7v24c0 3.878-3.122 7-7 7h-24c-3.878 0-7-3.122-7-7v-24c0-3.878 3.122-7 7-7z" opacity=".3" style="paint-order:stroke fill markers"/>
  <path id="rect845" d="m12 8c-2.216 0-4 1.784-4 4v24c0 2.216 1.784 4 4 4h24c2.216 0 4-1.784 4-4v-14l-14-14zm18 0 10 10v-6c0-2.216-1.784-4-4-4z" opacity=".4" style="paint-order:stroke fill markers"/>
  <path id="rect961" d="m26 26c-1.108 0-2 0.892-2 2v6c0 1.108 0.892 2 2 2h8c1.108 0 2-0.892 2-2v-6c0-1.108-0.892-2-2-2h-8zm6.9805 1.9883a1.0001 1.0001 0 0 1 0.85156 1.5664l-2 3a1.0001 1.0001 0 0 1-1.5391 0.15234l-1.1367-1.1367-1.3242 1.9844a1.0001 1.0001 0 1 1-1.6641-1.1094l2-3a1.0001 1.0001 0 0 1 1.5391-0.15234l1.1367 1.1367 1.3242-1.9844a1.0001 1.0001 0 0 1 0.8125-0.45703z" fill="#f2d2a4" style="paint-order:normal"/>
  <rect id="rect963" x="12" y="18" width="20" height="2" ry=".87564" fill="#fff" style="paint-order:normal"/>
  <rect id="rect967" x="12" y="26" width="10" height="2" ry="1" fill="#fff" style="paint-order:normal"/>
  <rect id="rect969" x="12" y="30" width="10" height="2" ry=".84687" fill="#fff" style="paint-order:normal"/>
  <rect id="rect971" x="12" y="34" width="10" height="2" ry=".84687" fill="#fff" style="paint-order:normal"/>
  <rect id="rect866" x="18" y="22" width="12" height="2" ry="1" fill="#fff" style="paint-order:normal"/>
 </g>
</svg>
