<?xml version="1.0" encoding="UTF-8"?>
<!-- Created with Inkscape (http://www.inkscape.org/) -->
<svg id="SVGRoot" width="48px" height="48px" version="1.1" viewBox="0 0 48 48" xmlns="http://www.w3.org/2000/svg" xmlns:cc="http://creativecommons.org/ns#" xmlns:dc="http://purl.org/dc/elements/1.1/" xmlns:rdf="http://www.w3.org/1999/02/22-rdf-syntax-ns#">
 <defs id="defs815">
  <style id="style819">.cls-1{fill:none;stroke:#fff;stroke-linecap:round;stroke-linejoin:round;}</style>
 </defs>
 <metadata id="metadata818">
  <rdf:RDF>
   <cc:Work rdf:about="">
    <dc:format>image/svg+xml</dc:format>
    <dc:type rdf:resource="http://purl.org/dc/dcmitype/StillImage"/>
    <dc:title/>
   </cc:Work>
  </rdf:RDF>
 </metadata>
 <g id="layer1" fill-rule="evenodd">
  <rect id="rect1373-5" x="4" y="4" width="40" height="40" ry="8" fill="#cf69e6" style="paint-order:stroke fill markers"/>
  <path id="rect817" d="m12 4c-4.432 0-8 3.568-8 8v24c0 4.432 3.568 8 8 8h24c4.432 0 8-3.568 8-8v-24c0-4.432-3.568-8-8-8h-24zm0 1h24c3.878 0 7 3.122 7 7v24c0 3.878-3.122 7-7 7h-24c-3.878 0-7-3.122-7-7v-24c0-3.878 3.122-7 7-7z" opacity=".3" style="paint-order:stroke fill markers"/>
  <path id="rect845" d="m12 8c-2.216 0-4 1.784-4 4v24c0 2.216 1.784 4 4 4h24c2.216 0 4-1.784 4-4v-14l-14-14zm18 0 10 10v-6c0-2.216-1.784-4-4-4z" opacity=".4" style="paint-order:stroke fill markers"/>
  <path id="rect961" d="m28 22c-1.108 0-2 0.892-2 2v10c0 1.108 0.892 2 2 2h6c1.108 0 2-0.892 2-2v-10c0-1.108-0.892-2-2-2h-6zm0 2h2v2h-2v-2zm4 0h2v2h-2v-2zm-4 4h2v2h-2v-2zm4 0h2v2h-2v-2zm-4 4h2v2h-2v-2zm4 0h2v2h-2v-2z" fill="#fff" style="paint-order:normal"/>
  <path id="rect841" d="m12 24.307v0.69336c0 1.662 2.676 3 6 3s6-1.338 6-3v-0.69336c-1.4638 1.0375-3.6026 1.6934-6 1.6934s-4.5362-0.65584-6-1.6934z" fill="#efbcfa" style="paint-order:normal"/>
  <rect id="rect839" x="12" y="18" width="12" height="6" rx="6" ry="3" fill="#efbcfa" style="paint-order:normal"/>
  <path id="rect841-8" d="m12 28.306v0.69336c0 1.662 2.676 3 6 3s6-1.338 6-3v-0.69336c-1.4638 1.0375-3.6026 1.6934-6 1.6934s-4.5362-0.65584-6-1.6934z" fill="#efbcfa" style="paint-order:normal"/>
  <path id="rect841-85" d="m12 32.295v0.69336c0 1.662 2.676 3 6 3s6-1.338 6-3v-0.69336c-1.4638 1.0375-3.6026 1.6934-6 1.6934s-4.5362-0.65584-6-1.6934z" fill="#efbcfa" style="paint-order:normal"/>
 </g>
</svg>
