<?xml version="1.0" encoding="UTF-8"?>
<!-- Created with Inkscape (http://www.inkscape.org/) -->
<svg id="SVGRoot" width="48px" height="48px" version="1.1" viewBox="0 0 48 48" xml:space="preserve" xmlns="http://www.w3.org/2000/svg" xmlns:cc="http://creativecommons.org/ns#" xmlns:dc="http://purl.org/dc/elements/1.1/" xmlns:rdf="http://www.w3.org/1999/02/22-rdf-syntax-ns#"><defs><style>.cls-1{fill:none;stroke:#fff;stroke-linecap:round;stroke-linejoin:round;}</style><style>.cls-1{fill:none;stroke:#fff;stroke-linecap:round;stroke-linejoin:round;}</style><style>.cls-1{fill:none;stroke:#fff;stroke-linecap:round;stroke-linejoin:round;}</style><style>.cls-1{fill:none;stroke:#fff;stroke-linecap:round;stroke-linejoin:round;}</style><style>.cls-1{fill:none;stroke:#fff;stroke-linecap:round;stroke-linejoin:round;}</style></defs><metadata><rdf:RDF><cc:Work rdf:about=""><dc:format>image/svg+xml</dc:format><dc:type rdf:resource="http://purl.org/dc/dcmitype/StillImage"/></cc:Work></rdf:RDF></metadata><g fill-rule="evenodd"><rect x="4" y="4" width="40" height="40" ry="8" fill="#4e4e4e" style="paint-order:stroke fill markers"/><path d="m12 4c-4.432 0-8 3.568-8 8v24c0 4.432 3.568 8 8 8h24c4.432 0 8-3.568 8-8v-24c0-4.432-3.568-8-8-8h-24zm0 1h24c3.878 0 7 3.122 7 7v24c0 3.878-3.122 7-7 7h-24c-3.878 0-7-3.122-7-7v-24c0-3.878 3.122-7 7-7z" opacity=".4" style="paint-order:stroke fill markers"/><path d="m12 8c-2.216 0-4 1.784-4 4v24c0 2.216 1.784 4 4 4h24c2.216 0 4-1.784 4-4v-14l-14-14zm18 0 10 10v-6c0-2.216-1.784-4-4-4z" fill="#efefef" style="paint-order:stroke fill markers"/><path d="m21 8 4 4v10c0 0.554 0.44606 0.99214 1 1h10l4 4v-5h-13.5c-0.277 0-0.5-0.223-0.5-0.5v-13.5h-1z" opacity=".25" style="paint-order:stroke fill markers"/></g><path d="m12 26v9c0 0.554 0.446 1 1 1h5v-10h-6z" fill="#729dec" style="paint-order:stroke fill markers"/><rect x="18" y="20" width="6" height="16" fill="#d35244" style="paint-order:stroke fill markers"/><rect x="24" y="30" width="6" height="6" fill="#f3bd32" style="paint-order:stroke fill markers"/><path d="m30 26h6v9a1 1 135 0 1-1 1h-5z" fill="#96d56b" style="paint-order:stroke fill markers"/></svg>
