<?xml version="1.0" encoding="UTF-8"?>
<!-- Created with Inkscape (http://www.inkscape.org/) -->
<svg id="SVGRoot" width="48px" height="48px" version="1.1" viewBox="0 0 48 48" xmlns="http://www.w3.org/2000/svg" xmlns:cc="http://creativecommons.org/ns#" xmlns:dc="http://purl.org/dc/elements/1.1/" xmlns:rdf="http://www.w3.org/1999/02/22-rdf-syntax-ns#">
 <defs id="defs815">
  <style id="style819">.cls-1{fill:none;stroke:#fff;stroke-linecap:round;stroke-linejoin:round;}</style>
 </defs>
 <metadata id="metadata818">
  <rdf:RDF>
   <cc:Work rdf:about="">
    <dc:format>image/svg+xml</dc:format>
    <dc:type rdf:resource="http://purl.org/dc/dcmitype/StillImage"/>
    <dc:title/>
   </cc:Work>
  </rdf:RDF>
 </metadata>
 <g id="layer1" fill-rule="evenodd">
  <rect id="rect1373-5" x="4" y="4" width="40" height="40" ry="8" fill="#708fc6" style="paint-order:stroke fill markers"/>
  <path id="rect817" d="m12 4c-4.432 0-8 3.568-8 8v24c0 4.432 3.568 8 8 8h24c4.432 0 8-3.568 8-8v-24c0-4.432-3.568-8-8-8h-24zm0 1h24c3.878 0 7 3.122 7 7v24c0 3.878-3.122 7-7 7h-24c-3.878 0-7-3.122-7-7v-24c0-3.878 3.122-7 7-7z" opacity=".3" style="paint-order:stroke fill markers"/>
  <rect id="rect845" x="10" y="14" width="28" height="20" ry="2" fill="#fff" opacity=".5" style="paint-order:normal"/>
  <path id="rect847" d="m12 14c-1.108 0-2 0.892-2 2v16c0 1.108 0.892 2 2 2h24c1.108 0 2-0.892 2-2v-16c0-1.108-0.892-2-2-2zm0 1h24c0.554 0 1 0.446 1 1v16c0 0.554-0.446 1-1 1h-24c-0.554 0-1-0.446-1-1v-16c0-0.554 0.446-1 1-1z" fill="#fff" style="paint-order:normal"/>
  <rect id="rect862" x="13" y="19" width="22" height="10" ry="2" fill="#708fc6" style="paint-order:normal"/>
  <rect id="rect852" x="14" y="20" width="20" height="8" ry="1" fill="#fff" style="paint-order:normal"/>
  <rect id="rect854" x="16" y="22" width="4" height="4" ry="2" opacity=".6" style="paint-order:normal"/>
  <rect id="rect856" x="22" y="22" width="4" height="4" ry="2" opacity=".6" style="paint-order:normal"/>
  <rect id="rect858" x="28" y="22" width="4" height="4" ry="2" opacity=".6" style="paint-order:normal"/>
 </g>
</svg>
