<?xml version="1.0" encoding="UTF-8"?>
<!-- Created with Inkscape (http://www.inkscape.org/) -->
<svg id="SVGRoot" width="48px" height="48px" version="1.1" viewBox="0 0 48 48" xmlns="http://www.w3.org/2000/svg" xmlns:cc="http://creativecommons.org/ns#" xmlns:dc="http://purl.org/dc/elements/1.1/" xmlns:rdf="http://www.w3.org/1999/02/22-rdf-syntax-ns#">
 <defs id="defs815">
  <style id="style819">.cls-1{fill:none;stroke:#fff;stroke-linecap:round;stroke-linejoin:round;}</style>
 </defs>
 <metadata id="metadata818">
  <rdf:RDF>
   <cc:Work rdf:about="">
    <dc:format>image/svg+xml</dc:format>
    <dc:type rdf:resource="http://purl.org/dc/dcmitype/StillImage"/>
    <dc:title/>
   </cc:Work>
  </rdf:RDF>
 </metadata>
 <g id="layer1">
  <rect id="rect1373-5" x="4" y="4" width="40" height="40" ry="8" fill="#efefef" fill-rule="evenodd" style="paint-order:stroke fill markers"/>
  <path id="rect817-3" d="m12 12v24h24v-24zm1 1h22v22h-22z" fill-rule="evenodd" opacity=".25" style="paint-order:stroke fill markers"/>
  <path id="rect822" d="m24 10c-7.756 0-14 6.244-14 14s6.244 14 14 14 14-6.244 14-14-6.244-14-14-14zm0 1c7.202 0 13 5.798 13 13s-5.798 13-13 13-13-5.798-13-13 5.798-13 13-13z" fill-rule="evenodd" opacity=".25" style="paint-order:stroke fill markers"/>
  <rect id="rect817-2" x="10" y="10" width="28" height="28" ry="4" fill="#f3bd32" fill-rule="evenodd" style="paint-order:normal"/>
  <path id="rect817" d="m12 4c-4.432 0-8 3.568-8 8v24c0 4.432 3.568 8 8 8h24c4.432 0 8-3.568 8-8v-24c0-4.432-3.568-8-8-8h-24zm0 1h24c3.878 0 7 3.122 7 7v24c0 3.878-3.122 7-7 7h-24c-3.878 0-7-3.122-7-7v-24c0-3.878 3.122-7 7-7z" fill-rule="evenodd" opacity=".3" style="paint-order:stroke fill markers"/>
  <path id="rect849" d="m12 4c-0.68298 0-1.3426 0.09434-1.9746 0.25391 0.13256 2.0944 1.8456 3.7461 3.9746 3.7461 2.216 0 4-1.784 4-4h-6zm8 0c0 2.216 1.784 4 4 4s4-1.784 4-4h-8zm10 0c0 2.216 1.784 4 4 4 2.129 0 3.842-1.6517 3.9746-3.7461-0.63205-0.15957-1.2916-0.25391-1.9746-0.25391h-6zm-25.746 6.0254c-0.15957 0.63205-0.25391 1.2916-0.25391 1.9746v6c2.216 0 4-1.784 4-4 0-2.129-1.6517-3.842-3.7461-3.9746zm39.492 0c-2.0944 0.13256-3.7461 1.8456-3.7461 3.9746 0 2.216 1.784 4 4 4v-6c0-0.68298-0.09434-1.3426-0.25391-1.9746zm-39.746 9.9746v8c2.216 0 4-1.784 4-4s-1.784-4-4-4zm40 0c-2.216 0-4 1.784-4 4s1.784 4 4 4v-8zm-40 10v6c0 0.68298 0.09434 1.3426 0.25391 1.9746 2.0944-0.13256 3.7461-1.8456 3.7461-3.9746 0-2.216-1.784-4-4-4zm40 0c-2.216 0-4 1.784-4 4 0 2.129 1.6517 3.842 3.7461 3.9746 0.15957-0.63205 0.25391-1.2916 0.25391-1.9746v-6zm-30 10c-2.129 0-3.842 1.6517-3.9746 3.7461 0.63205 0.15957 1.2916 0.25391 1.9746 0.25391h6c0-2.216-1.784-4-4-4zm10 0c-2.216 0-4 1.784-4 4h8c0-2.216-1.784-4-4-4zm10 0c-2.216 0-4 1.784-4 4h6c0.68298 0 1.3426-0.09434 1.9746-0.25391-0.13256-2.0944-1.8456-3.7461-3.9746-3.7461z" fill-rule="evenodd" opacity=".1" style="paint-order:stroke fill markers"/>
  <path id="path860" d="m24 14c-8 0-8 7-8 7v4c0 2-2 3-2 3v1s0 1 1 1h18c1 0 1-1 1-1v-1s-2-1-2-3v-4s0-7-8-7z" fill="#fff"/>
  <rect id="rect883" x="21" y="28" width="6" height="6" ry="3" fill="#fff" fill-rule="evenodd" style="paint-order:stroke fill markers"/>
 </g>
</svg>
