<?xml version="1.0" encoding="UTF-8"?>
<!-- Created with Inkscape (http://www.inkscape.org/) -->
<svg id="SVGRoot" width="48px" height="48px" version="1.1" viewBox="0 0 48 48" xmlns="http://www.w3.org/2000/svg" xmlns:cc="http://creativecommons.org/ns#" xmlns:dc="http://purl.org/dc/elements/1.1/" xmlns:rdf="http://www.w3.org/1999/02/22-rdf-syntax-ns#">
 <defs id="defs815">
  <style id="style819">.cls-1{fill:none;stroke:#fff;stroke-linecap:round;stroke-linejoin:round;}</style>
 </defs>
 <metadata id="metadata818">
  <rdf:RDF>
   <cc:Work rdf:about="">
    <dc:format>image/svg+xml</dc:format>
    <dc:type rdf:resource="http://purl.org/dc/dcmitype/StillImage"/>
    <dc:title/>
   </cc:Work>
  </rdf:RDF>
 </metadata>
 <g id="layer1">
  <rect id="rect1373-5" x="4" y="4" width="40" height="40" ry="8" fill="#627ad4" fill-rule="evenodd" style="paint-order:stroke fill markers"/>
  <path id="rect817" d="m12 4c-4.432 0-8 3.568-8 8v24c0 4.432 3.568 8 8 8h24c4.432 0 8-3.568 8-8v-24c0-4.432-3.568-8-8-8h-24zm0 1h24c3.878 0 7 3.122 7 7v24c0 3.878-3.122 7-7 7h-24c-3.878 0-7-3.122-7-7v-24c0-3.878 3.122-7 7-7z" fill-rule="evenodd" opacity=".3" style="paint-order:stroke fill markers"/>
  <path id="path819" d="m11 6c-1 0-1 1-1 1v29c0 1.108 0.892 2 2 2h29c1 0 1-1 1-1v-1h-29c-0.554 0-1-0.446-1-1v-29z" fill="#475ba3"/>
  <path id="rect853-3" d="m24.982 4c-5.3524 2.8563-8.9824 8.4865-8.9824 15 0 9.418 7.582 17 17 17 4.2053 0 8.0384-1.5194 11-4.0312v-19.969c0-4.432-3.568-8-8-8h-11.018z" fill-rule="evenodd" opacity=".25" style="paint-order:stroke fill markers"/>
  <rect id="rect853" x="16" y="2" width="30" height="30" ry="15" fill="#dd5c89" fill-rule="evenodd" style="paint-order:stroke fill markers"/>
  <path id="rect853-6" d="m16.148 15c-0.086895 0.65582-0.14844 1.3197-0.14844 2 0 8.31 6.69 15 15 15s15-6.69 15-15c0-0.68032-0.06154-1.3442-0.14844-2-0.97451 7.355-7.2219 13-14.852 13s-13.877-5.645-14.852-13z" fill-rule="evenodd" opacity=".25" style="paint-order:stroke fill markers"/>
  <path id="rect863" d="m31 2c-8.31 0-15 6.69-15 15s6.69 15 15 15 15-6.69 15-15-6.69-15-15-15zm0 1c7.756 0 14 6.244 14 14s-6.244 14-14 14-14-6.244-14-14 6.244-14 14-14z" fill-rule="evenodd" opacity=".25" style="paint-order:stroke fill markers"/>
 </g>
</svg>
