<?xml version="1.0" encoding="UTF-8"?>
<!-- Created with Inkscape (http://www.inkscape.org/) -->
<svg id="SVGRoot" width="48px" height="48px" version="1.1" viewBox="0 0 48 48" xmlns="http://www.w3.org/2000/svg" xmlns:cc="http://creativecommons.org/ns#" xmlns:dc="http://purl.org/dc/elements/1.1/" xmlns:rdf="http://www.w3.org/1999/02/22-rdf-syntax-ns#" xmlns:xlink="http://www.w3.org/1999/xlink">
 <defs id="defs815">
  <style id="style819">.cls-1{fill:none;stroke:#fff;stroke-linecap:round;stroke-linejoin:round;}</style>
  <style id="style819-05">.cls-1{fill:none;stroke:#fff;stroke-linecap:round;stroke-linejoin:round;}</style>
  <style id="style819-8">.cls-1{fill:none;stroke:#fff;stroke-linecap:round;stroke-linejoin:round;}</style>
  <style id="style819-3">.cls-1{fill:none;stroke:#fff;stroke-linecap:round;stroke-linejoin:round;}</style>
  <style id="style819-16">.cls-1{fill:none;stroke:#fff;stroke-linecap:round;stroke-linejoin:round;}</style>
  <style id="style819-3-41">.cls-1{fill:none;stroke:#fff;stroke-linecap:round;stroke-linejoin:round;}</style>
  <style id="style819-1">.cls-1{fill:none;stroke:#fff;stroke-linecap:round;stroke-linejoin:round;}</style>
  <style id="style2">.a{fill:none;stroke:#b1b5bd;stroke-linecap:round;stroke-linejoin:round;isolation:isolate;opacity:0.63;}</style>
  <style id="style819-12">.cls-1{fill:none;stroke:#fff;stroke-linecap:round;stroke-linejoin:round;}</style>
  <style id="style819-0">.cls-1{fill:none;stroke:#fff;stroke-linecap:round;stroke-linejoin:round;}</style>
  <style id="style819-3-4">.cls-1{fill:none;stroke:#fff;stroke-linecap:round;stroke-linejoin:round;}</style>
  <style id="style819-1-7">.cls-1{fill:none;stroke:#fff;stroke-linecap:round;stroke-linejoin:round;}</style>
  <style id="style2-3">.a{fill:none;stroke:#b1b5bd;stroke-linecap:round;stroke-linejoin:round;isolation:isolate;opacity:0.63;}</style>
  <style id="style819-12-9">.cls-1{fill:none;stroke:#fff;stroke-linecap:round;stroke-linejoin:round;}</style>
  <style id="style819-09">.cls-1{fill:none;stroke:#fff;stroke-linecap:round;stroke-linejoin:round;}</style>
  <style id="style819-5">.cls-1{fill:none;stroke:#fff;stroke-linecap:round;stroke-linejoin:round;}</style>
 </defs>
 <metadata id="metadata818">
  <rdf:RDF>
   <cc:Work rdf:about="">
    <dc:format>image/svg+xml</dc:format>
    <dc:type rdf:resource="http://purl.org/dc/dcmitype/StillImage"/>
    <dc:title/>
   </cc:Work>
  </rdf:RDF>
 </metadata>
 <g id="layer1">
  <rect id="rect1373-5" x="4" y="4" width="40" height="40" ry="8" fill="#efefef" fill-rule="evenodd" style="paint-order:stroke fill markers"/>
  <path id="rect817" d="m12 4c-4.432 0-8 3.568-8 8v24c0 4.432 3.568 8 8 8h24c4.432 0 8-3.568 8-8v-24c0-4.432-3.568-8-8-8h-24zm0 1h24c3.878 0 7 3.122 7 7v24c0 3.878-3.122 7-7 7h-24c-3.878 0-7-3.122-7-7v-24c0-3.878 3.122-7 7-7z" fill-rule="evenodd" opacity=".3" style="paint-order:stroke fill markers"/>
  <path id="path828" d="m19.574 1.8945c-2.4023 0.058594-6.0742 0.60547-8.5742 3.1055-2.5055 2.5055-9 7-9 7s6.5024 0.26478 9.0519-0.58505c3-1 4.9481-2.4149 4.9481-2.4149v29h11c8 0 11-5 11-9 0-5-4.6667-7.0374-8-7.0374-3 0-8 2.0374-8 2.0374v-22s-0.98438-0.14062-2.4258-0.10547zm7.4258 26.105c1.3744 0 4 0 4 2 0 2.4037-3 4-6 4h-3v-5s3-1 5-1z" fill="#729dec"/>
  <path id="path828-8" d="m19.574 1.8945c-2.4023 0.058594-6.0742 0.60547-8.5742 3.1055-2.5055 2.5055-9 7-9 7s6.5032 0.2639 9.0527-0.58594c3-1 4.9473-2.4141 4.9473-2.4141v29h11c8 0 11-5 11-9 0-5-4.6667-7.0371-8-7.0371-3 0-8 2.0371-8 2.0371v-22s-0.98438-0.14062-2.4258-0.10547zm0.02344 1c0.84653-0.020647 1.0187 0.023883 1.4023 0.058594v22.535l1.377-0.5625s1.2138-0.49402 2.7969-0.99023 3.5525-0.97266 4.8262-0.97266c1.4629 0 3.2935 0.47234 4.668 1.457 1.3744 0.98469 2.332 2.3912 2.332 4.5801 0 1.75-0.65906 3.745-2.207 5.293-1.548 1.548-4.0013 2.707-7.793 2.707h-10v-30.832s-1.0342 1.6229-1.7773 2.2051c-1.2991 1.0177-1.8213 1.2054-4.4863 2.0938-1.0032 0.33441-3.2774 0.52122-5.1875 0.56055-0.25419 0.0052-0.22668-0.0058-0.4668-0.0039 2.1217-1.5239 4.8823-3.5737 6.625-5.3164 2.2054-2.2054 5.6151-2.757 7.8906-2.8125zm7.4023 24.105c-2.3333 0-5.3164 1.0508-5.3164 1.0508l-0.68359 0.22852v6.7207h4c1.6774 0 3.3337-0.43004 4.6523-1.25 1.3187-0.81996 2.3477-2.1321 2.3477-3.75 0-0.7188-0.27413-1.3908-0.70703-1.8457-0.4329-0.45494-0.96758-0.70415-1.4883-0.86133-1.0414-0.31435-2.1175-0.29297-2.8047-0.29297zm0 1c1.3744 0 4 0 4 2 0 2.4037-3 4-6 4h-3v-5s3-1 5-1z" color="#000000" color-rendering="auto" dominant-baseline="auto" image-rendering="auto" opacity=".25" shape-rendering="auto" solid-color="#000000" style="font-feature-settings:normal;font-variant-alternates:normal;font-variant-caps:normal;font-variant-ligatures:normal;font-variant-numeric:normal;font-variant-position:normal;isolation:auto;mix-blend-mode:normal;shape-padding:0;text-decoration-color:#000000;text-decoration-line:none;text-decoration-style:solid;text-indent:0;text-orientation:mixed;text-transform:none;white-space:normal"/>
 </g>
</svg>
