<?xml version="1.0" encoding="UTF-8"?>
<!-- Created with Inkscape (http://www.inkscape.org/) -->
<svg id="SVGRoot" width="48px" height="48px" version="1.1" viewBox="0 0 48 48" xmlns="http://www.w3.org/2000/svg" xmlns:cc="http://creativecommons.org/ns#" xmlns:dc="http://purl.org/dc/elements/1.1/" xmlns:rdf="http://www.w3.org/1999/02/22-rdf-syntax-ns#" xmlns:xlink="http://www.w3.org/1999/xlink">
 <defs id="defs815">
  <style id="style819">.cls-1{fill:none;stroke:#fff;stroke-linecap:round;stroke-linejoin:round;}</style>
 </defs>
 <metadata id="metadata818">
  <rdf:RDF>
   <cc:Work rdf:about="">
    <dc:format>image/svg+xml</dc:format>
    <dc:type rdf:resource="http://purl.org/dc/dcmitype/StillImage"/>
    <dc:title/>
   </cc:Work>
  </rdf:RDF>
 </metadata>
 <g id="layer1" fill-rule="evenodd">
  <rect id="rect1373" x="4" y="4" width="40" height="40" ry="8" fill="#d35244" style="paint-order:stroke fill markers"/>
  <path id="rect817" d="m12 4c-4.432 0-8 3.568-8 8v24c0 4.432 3.568 8 8 8h24c4.432 0 8-3.568 8-8v-24c0-4.432-3.568-8-8-8h-24zm0 1h24c3.878 0 7 3.122 7 7v24c0 3.878-3.122 7-7 7h-24c-3.878 0-7-3.122-7-7v-24c0-3.878 3.122-7 7-7z" opacity=".3" style="paint-order:stroke fill markers"/>
  <path id="rect846" d="m18 16c-2.77 0-5 2.23-5 5 0 0.45499 0.12509 0.87678 0.19336 1.3047 0.17556 1.1004 0.19383 2.5988-0.36719 3.3262-0.44806 0.58093-1.0467 1.235-1.6914 1.5098-1.1859 0.50543-2.1348 1.5007-2.1348 2.8594 0 1.662 1.338 3 3 3s3-1.338 3-3c0-0.50216-0.22882-0.93064-0.34961-1.3828-0.19964-0.74739-0.1089-1.6368 0.24609-2.0762 0.45327-0.56105 0.83303-1.0468 2.1816-1.4082 2.3511-0.62998 4.9219 0.84623 4.9219 1.8672 0 0.3007 0.04422 0.59422-0.3125 1.1074-0.38124 0.54848-0.6875 1.1695-0.6875 1.8926 0 1.662 1.338 3 3 3s3-1.338 3-3c0-0.7231-0.30626-1.3441-0.6875-1.8926-0.35672-0.5132-0.3125-0.80672-0.3125-1.1074-1e-6 -1.021 2.5708-2.4972 4.9219-1.8672 1.3486 0.36136 1.7284 0.84716 2.1816 1.4082 0.355 0.4394 0.44574 1.3288 0.24609 2.0762-0.12079 0.45217-0.34961 0.88065-0.34961 1.3828 0 1.662 1.338 3 3 3s3-1.338 3-3c0-1.3586-0.94891-2.3539-2.1348-2.8594-0.6447-0.27478-1.2433-0.92884-1.6914-1.5098-0.56101-0.72737-0.54274-2.2258-0.36719-3.3262 0.068268-0.4279 0.19336-0.84969 0.19336-1.3047 0-2.77-2.23-5-5-5-1.6306 0-3.0891 0.80004-3.5449 1.4004-0.76808 1.0116-1.1019 1.5996-2.4551 1.5996s-1.687-0.58796-2.4551-1.5996c-0.45581-0.60035-1.9144-1.4004-3.5449-1.4004zm6 4c1.662 0 3 1.338 3 3s-1.338 3-3 3-3-1.338-3-3 1.338-3 3-3z" fill="#fff" style="paint-order:stroke fill markers"/>
 </g>
</svg>
