<?xml version="1.0" encoding="UTF-8"?>
<!-- Created with Inkscape (http://www.inkscape.org/) -->
<svg id="SVGRoot" width="48px" height="48px" version="1.1" viewBox="0 0 48 48" xmlns="http://www.w3.org/2000/svg" xmlns:cc="http://creativecommons.org/ns#" xmlns:dc="http://purl.org/dc/elements/1.1/" xmlns:rdf="http://www.w3.org/1999/02/22-rdf-syntax-ns#">
 <defs id="defs815">
  <style id="style819">.cls-1{fill:none;stroke:#fff;stroke-linecap:round;stroke-linejoin:round;}</style>
 </defs>
 <metadata id="metadata818">
  <rdf:RDF>
   <cc:Work rdf:about="">
    <dc:format>image/svg+xml</dc:format>
    <dc:type rdf:resource="http://purl.org/dc/dcmitype/StillImage"/>
    <dc:title/>
   </cc:Work>
  </rdf:RDF>
 </metadata>
 <g id="layer1">
  <rect id="rect1373" x="4" y="4" width="40" height="40" ry="8" fill="#4994eb" fill-rule="evenodd" style="paint-order:stroke fill markers"/>
  <path id="rect817" d="m12 4c-4.432 0-8 3.568-8 8v24c0 4.432 3.568 8 8 8h24c4.432 0 8-3.568 8-8v-24c0-4.432-3.568-8-8-8h-24zm0 1h24c3.878 0 7 3.122 7 7v24c0 3.878-3.122 7-7 7h-24c-3.878 0-7-3.122-7-7v-24c0-3.878 3.122-7 7-7z" fill-rule="evenodd" opacity=".3" style="paint-order:stroke fill markers"/>
  <path id="path834" d="m24.004 20.484s-2.6816 0.35769-3.315 2.3669 0.59885 5.6591 3.5861 7.508c2.9497 1.8256 5.8133 1.9102 7.6344 1.606 2.0523-0.34284 3.1082-1.031 3.1082-1.031s0.42028-0.28186 0.67777-0.03381c0.2839 0.27349 0.03388 0.64255 0.03388 0.64255s-0.639 1.2137-2.1954 2.6534c-1.5564 1.4396-4.0516 2.9607-6.0734 3.3325-5.6748 1.0435-12.059-3.6882-12.166-8.6575-0.17282-8.0211 8.7093-8.3869 8.7093-8.3869z" fill="#90c1ff"/>
  <path id="path832" d="m27.528 23.696s-0.83227-3.1093-3.829-3.1113c-1.3918-9.43e-4 -3.315 1.4237-4.5513 3.0409-1.2363 1.6172-1.7858 3.427-1.7858 5.1431 0 2.2254 0.71633 4.7805 3.7955 7.1645 2.9019 2.2467 6.3033 1.5944 6.3033 1.5944s-1.6501 0.61775-4.2699 0.43964c-4.7134-0.32045-8.0117-2.4201-10.52-5.7749-2.9577-3.9566-2.6631-8.5302-2.6631-8.5302s-0.016651-9.3 10.777-9.3c9.5511 0 6.7434 9.3339 6.7434 9.3339z" fill="#b9e1fb"/>
  <path id="path830" d="m10.008 23.663s-0.20931-3.0775 1.7617-6.4931c1.971-3.4156 6.1224-7.1695 12.268-7.1695 3.0351 0 6.4917 0.92177 9.2235 3.0609 2.7317 2.1391 4.7386 5.4956 4.7386 8.6064 0 1.654-0.45206 3.3872-1.7202 4.7407-1.2681 1.3535-3.3522 2.3273-5.2609 2.3273-1.6862 0-4.7783-0.68458-4.7783-1.6571 0-0.81581 1.22-1.1966 1.22-2.8746 0-2.6413-1.1846-4.3282-2.8825-5.6357-1.6979-1.3076-3.7736-1.8638-5.6913-1.9058-3.9381-0.08609-6.5305 1.9346-7.7657 3.7062-1.2352 1.7716-1.1131 3.2942-1.1131 3.2942z" fill="#fff"/>
 </g>
</svg>
