<?xml version="1.0" encoding="UTF-8"?>
<!-- Created with Inkscape (http://www.inkscape.org/) -->
<svg id="SVGRoot" width="48px" height="48px" version="1.1" viewBox="0 0 48 48" xmlns="http://www.w3.org/2000/svg" xmlns:cc="http://creativecommons.org/ns#" xmlns:dc="http://purl.org/dc/elements/1.1/" xmlns:rdf="http://www.w3.org/1999/02/22-rdf-syntax-ns#" xmlns:xlink="http://www.w3.org/1999/xlink">
 <defs id="defs815">
  <style id="style819">.cls-1{fill:none;stroke:#fff;stroke-linecap:round;stroke-linejoin:round;}</style>
  <style id="style819-05">.cls-1{fill:none;stroke:#fff;stroke-linecap:round;stroke-linejoin:round;}</style>
  <style id="style819-8">.cls-1{fill:none;stroke:#fff;stroke-linecap:round;stroke-linejoin:round;}</style>
  <style id="style819-3">.cls-1{fill:none;stroke:#fff;stroke-linecap:round;stroke-linejoin:round;}</style>
  <style id="style819-16">.cls-1{fill:none;stroke:#fff;stroke-linecap:round;stroke-linejoin:round;}</style>
  <style id="style819-3-41">.cls-1{fill:none;stroke:#fff;stroke-linecap:round;stroke-linejoin:round;}</style>
  <style id="style819-1">.cls-1{fill:none;stroke:#fff;stroke-linecap:round;stroke-linejoin:round;}</style>
  <style id="style2">.a{fill:none;stroke:#b1b5bd;stroke-linecap:round;stroke-linejoin:round;isolation:isolate;opacity:0.63;}</style>
  <style id="style819-12">.cls-1{fill:none;stroke:#fff;stroke-linecap:round;stroke-linejoin:round;}</style>
  <style id="style819-0">.cls-1{fill:none;stroke:#fff;stroke-linecap:round;stroke-linejoin:round;}</style>
  <style id="style819-3-4">.cls-1{fill:none;stroke:#fff;stroke-linecap:round;stroke-linejoin:round;}</style>
  <style id="style819-1-7">.cls-1{fill:none;stroke:#fff;stroke-linecap:round;stroke-linejoin:round;}</style>
  <style id="style2-3">.a{fill:none;stroke:#b1b5bd;stroke-linecap:round;stroke-linejoin:round;isolation:isolate;opacity:0.63;}</style>
  <style id="style819-12-9">.cls-1{fill:none;stroke:#fff;stroke-linecap:round;stroke-linejoin:round;}</style>
  <style id="style819-09">.cls-1{fill:none;stroke:#fff;stroke-linecap:round;stroke-linejoin:round;}</style>
  <style id="style819-5">.cls-1{fill:none;stroke:#fff;stroke-linecap:round;stroke-linejoin:round;}</style>
 </defs>
 <metadata id="metadata818">
  <rdf:RDF>
   <cc:Work rdf:about="">
    <dc:format>image/svg+xml</dc:format>
    <dc:type rdf:resource="http://purl.org/dc/dcmitype/StillImage"/>
    <dc:title/>
   </cc:Work>
  </rdf:RDF>
 </metadata>
 <g id="layer1" fill-rule="evenodd">
  <rect id="rect1373-5" x="4" y="4" width="40" height="40" ry="8" fill="#efefef" style="paint-order:stroke fill markers"/>
  <path id="rect817" d="m12 4c-4.432 0-8 3.568-8 8v24c0 4.432 3.568 8 8 8h24c4.432 0 8-3.568 8-8v-24c0-4.432-3.568-8-8-8h-24zm0 1h24c3.878 0 7 3.122 7 7v24c0 3.878-3.122 7-7 7h-24c-3.878 0-7-3.122-7-7v-24c0-3.878 3.122-7 7-7z" opacity=".3" style="paint-order:stroke fill markers"/>
  <path id="rect1373-5-8" d="m31.506 11.025c-1.9009 0.0582-4.2469 0.72988-7.7168 2.0352-3.4565 1.3002-5.5111 1.8767-9.0273 2.5371-1.6975 0.31883-2.1367 0.45043-2.1367 0.63867 0 0.07664 0.09797 0.36027 0.2168 0.62891 0.4304 0.97298-0.11733 1.3778-2.1816 1.6133-0.69536 0.07931-1.3167 0.19754-1.3809 0.26172-0.21736 0.21736 0.021337 0.55702 0.77539 1.1055 0.4133 0.30061 0.80549 0.66814 0.87305 0.81641 0.10676 0.23432 0.08801 0.30457-0.14844 0.54102-0.21347 0.21347-0.4414 0.29384-1.0566 0.37109-0.82945 0.10415-1.0781 0.2255-1.0781 0.52734 0 0.40821 0.42945 0.61501 1.9238 0.92774 0.4359 0.09123 0.88273 0.22339 0.99414 0.29297 0.32064 0.20025 0.24195 0.55235-0.2168 0.9668-0.38809 0.35062-0.40285 0.38272-0.19336 0.4375 0.12463 0.03262 0.6682 0.0297 1.209-0.0059 1.2472-0.08193 1.683 0.0033 2.082 0.40234 0.3384 0.3384 0.59867 1.2278 0.52539 1.7949-0.03364 0.2603-0.0605 0.22832-0.21289-0.25391-0.37402-1.1835-0.66333-1.4395-1.6348-1.4395-1.0505 0-1.505 0.315-2.0703 1.4336-0.54098 1.0705-1.3301 3.0343-1.3301 3.3125 0 0.30203 0.294 0.63281 0.56055 0.63281 0.60582 0 1.976 0.39117 2.8535 0.81445 1.0923 0.52689 2.2069 1.4674 2.7227 2.2949l0.29492 0.4707 0.44141-0.94336c1.0021-2.1384 2.6121-3.9977 4.4902-5.1855 0.17338-0.10966 0.12435-0.1299-0.33594-0.14063-0.49913-0.01162-1.5361-0.17533-1.2871-0.20312 3.0755-0.34342 3.7531-0.49248 6.1074-1.3516 2.4047-0.87746 2.5074-0.90351 1.7422-0.42773-1.4922 0.92781-3.8653 1.875-4.6992 1.875-0.35152 0-1.4361 0.61423-2.2773 1.291-0.91999 0.7401-1.8897 1.8938-2.5586 3.0391-0.4989 0.85423-1.1649 2.3902-1.168 2.6973-0.0028 0.27911 0.8287 1.4018 1.6602 2.2441 0.74698 0.75675 1.5171 1.2109 2.3242 1.3691 0.66184 0.12973 0.61342 0.13135 1.4082-0.03711 0.82522-0.17492 1.6131-0.54736 2.4844-1.1758 0.51759-0.37332 0.61459-0.49778 0.61719-0.77734 0.0091-0.96314 0.69363-2.7896 1.5879-4.2383 1.6815-2.724 5.8709-7.1323 7.9902-8.4062 1.9413-1.167 3.2414-2.1984 4.1426-3.291 0.8964-1.0867 1.3643-2.2058 0.98438-2.3516-0.09382-0.036-0.79032 0.1771-1.5469 0.47266-2.8128 1.0989-6.2653 2.0981-9.1738 2.6543-0.79878 0.15275-1.6535 0.35283-1.8984 0.44531-0.52842 0.19948-0.85798 0.08204-0.96484-0.34375-0.12477-0.49714 0.18472-0.68223 1.127-0.67383 0.91812 0.0082 3.3765-0.40127 5.3398-0.89062 2.5873-0.64486 7.0794-2.2417 7.3027-2.5957 0.43797-0.69433-1.4758-3.2372-3.4375-4.5684-1.6908-1.1473-3.1479-1.7027-5.0488-1.6445zm-5.7422 3.877c0.4288-0.01173 0.8821 0.02031 1.1816 0.10352 0.46219 0.12839 1.4979 0.79599 2.0605 1.3281 0.42865 0.40541 0.53496 0.75096 0.21484 0.69727-0.11384-0.01909-0.3965 0.19051-0.71484 0.53125-0.28954 0.30991-0.67919 0.65846-0.86523 0.77344-0.45128 0.2789-1.6 0.37815-2.1211 0.18359-0.80689-0.30127-1.3249-0.88312-1.7148-1.9258l-0.24609-0.65625 0.40625-0.35156c0.22263-0.19245 0.56504-0.4262 0.76172-0.51953 0.2044-0.09699 0.6083-0.15233 1.0371-0.16406zm9.8574 0.875c0.23541 0.02708 0.29492 0.08917 0.29492 0.30273 0 0.21356-0.05951 0.27565-0.29492 0.30273-0.31795 0.03657-0.47682-0.16974-0.36133-0.4707 0.04218-0.10994 0.168-0.157 0.36133-0.13476zm6.3789 3.1641c-0.05215 0.02925-0.09947 0.05164-0.1543 0.08398-1.3859 0.81762-3.0838 2.68-3.8789 4.252-0.2279 0.45058-0.25458 0.56369-0.11914 0.51172 0.92948-0.35667 2.5056-0.58794 4.1523-0.66992zm0 4.8984c-2.1438 0.11019-4.0147 0.37839-4.4805 0.68359-0.50803 0.33287-1.2885 3.314-1.6152 6.1738-0.16158 1.4145-0.1621 1.5766-0.0059 1.9043 0.09395 0.19702 0.2825 0.43106 0.41797 0.51953 0.32216 0.2104 2.6147 0.67726 5.6836 1.2207zm-10.168 6.4434c-0.30727-0.08708-1.0395 0.38954-1.9824 1.3242-0.39224 0.3888-0.85834 0.95028-1.0352 1.248-0.17681 0.29777-0.3634 0.54177-0.41602 0.54297-0.08886 2e-3 -0.06476-0.31901 0.10937-1.4766 0.06121-0.40689 0.04472-0.45703-0.14453-0.45703-0.44566 0-0.59862 0.36029-0.68945 1.6172-0.04914 0.68-0.15773 1.3318-0.25391 1.5312-0.28092 0.58255-1.788 2.3449-2.5586 2.9922-1.7993 1.5112-3.8074 1.9983-5.2969 1.2852-0.85369-0.40874-2.0297-1.68-3.2344-3.4961-1.3863-2.0899-1.9045-2.5951-3.4648-3.3809-0.67279-0.3388-2.4444-0.87056-2.9004-0.87109-0.1322-1.49e-4 -0.39091 0.13309-0.57422 0.29688-0.28359 0.25339-0.37697 0.48216-0.63281 1.5332-0.47769 1.9624-0.6813 3.6174-0.69336 5.6465-0.00489 0.82242 0.010088 1.4255 0.035156 1.9414 1.0478 0.89619 2.4072 1.4395 3.9004 1.4395h13.014c0.69168-0.81773 1.4324-1.8357 2.2891-3.1465l1.0176-1.5566 0.67969-0.076172 0.67773-0.07617 0.96875-0.99609c0.86179-0.88824 1.0286-1.0134 1.5234-1.1289 0.54947-0.1283 0.79979-0.31145 0.92969-0.67773 0.07895-0.22262 0.07361-0.22383-1.082-0.19141-0.51676 0.0145-0.88867-0.01758-0.88867-0.07813 0-0.21074 0.46814-0.68921 1.084-1.1074 0.70802-0.48081 0.9022-0.75206 0.80664-1.1328-0.1115-0.44424-0.39381-0.3527-1.5957 0.52148-1.2958 0.94249-1.3306 0.34918-0.05273-0.9043 0.44003-0.43164 0.61914-0.687 0.61914-0.88672 0-0.15808-0.05578-0.25027-0.1582-0.2793zm3.8652 3.252c-0.0112 0.01448-0.07692 0.89785-0.14648 1.9629-0.20364 3.1182-0.52716 4.8694-1.1113 6.0176l-0.21484 0.42383 0.072266 0.060547h1.7031c3.324 0 6-2.676 6-6v-0.91016c-2.052-0.34708-3.9075-0.77671-5.3223-1.2559-0.5279-0.17879-0.96927-0.31331-0.98047-0.29883z" fill="#6ba641" style="paint-order:stroke fill markers"/>
 </g>
</svg>
