<?xml version="1.0" encoding="UTF-8"?>
<!-- Created with Inkscape (http://www.inkscape.org/) -->
<svg id="SVGRoot" width="48px" height="48px" version="1.1" viewBox="0 0 48 48" xmlns="http://www.w3.org/2000/svg" xmlns:cc="http://creativecommons.org/ns#" xmlns:dc="http://purl.org/dc/elements/1.1/" xmlns:rdf="http://www.w3.org/1999/02/22-rdf-syntax-ns#">
 <defs id="defs815">
  <style id="style819">.cls-1{fill:none;stroke:#fff;stroke-linecap:round;stroke-linejoin:round;}</style>
  <style id="style2">.a{fill:none;stroke:#b1b5bd;stroke-linecap:round;stroke-linejoin:round;isolation:isolate;opacity:0.63;}</style>
 </defs>
 <metadata id="metadata818">
  <rdf:RDF>
   <cc:Work rdf:about="">
    <dc:format>image/svg+xml</dc:format>
    <dc:type rdf:resource="http://purl.org/dc/dcmitype/StillImage"/>
    <dc:title/>
   </cc:Work>
  </rdf:RDF>
 </metadata>
 <g id="layer1">
  <rect id="rect888" x="7" y="7" width="34" height="25" fill="#fff" fill-rule="evenodd" opacity=".5" style="paint-order:stroke fill markers"/>
  <path id="rect880" d="m22 10c-6.648 0-12 5.352-12 12v12h28v-12c0-6.648-5.352-12-12-12z" fill="#d3e45f" fill-rule="evenodd" style="paint-order:normal"/>
  <path id="rect877" d="m13 7c-3.324 0-6 2.676-6 6v18h34v-18c0-3.324-2.676-6-6-6zm0 2h22c2.216 0 4 1.784 4 4v16h-30v-16c0-2.216 1.784-4 4-4z" fill-rule="evenodd" opacity=".3" style="paint-order:stroke fill markers"/>
  <path id="rect880-0" d="m22 10c-6.648 0-12 5.352-12 12v7h1v-7c0-6.094 4.906-11 11-11h4c6.094 0 11 4.906 11 11v7h1v-7c0-6.648-5.352-12-12-12z" fill-rule="evenodd" opacity=".25" style="paint-order:normal"/>
  <rect id="rect909" x="17" y="14" width="14" height="14" ry="7" fill="#fff" fill-rule="evenodd" style="paint-order:normal"/>
  <rect id="rect913" x="19" y="16" width="10" height="10" ry="5" fill="#4e4e4e" fill-rule="evenodd" style="paint-order:normal"/>
  <rect id="rect915" x="19" y="15" width="5" height="5" ry="2.5" fill="#fff" fill-rule="evenodd" style="paint-order:normal"/>
  <rect id="rect827" x="10" y="10" width="10" height="6" ry="3" fill="#fff" fill-rule="evenodd" opacity=".5" style="paint-order:normal"/>
  <rect id="rect829" x="10" y="18" width="4" height="4" ry="2" fill="#fff" fill-rule="evenodd" opacity=".5" style="paint-order:normal"/>
  <path id="rect1373-5" d="m12 4c-4.432 0-8 3.568-8 8v24c0 4.432 3.568 8 8 8h24c4.432 0 8-3.568 8-8v-24c0-4.432-3.568-8-8-8h-24zm1 4h22c2.77 0 5 2.23 5 5v17h-32v-17c0-2.77 2.23-5 5-5z" fill="#efefef" fill-rule="evenodd" style="paint-order:stroke fill markers"/>
  <path id="rect817" d="m12 4c-4.432 0-8 3.568-8 8v24c0 4.432 3.568 8 8 8h24c4.432 0 8-3.568 8-8v-24c0-4.432-3.568-8-8-8h-24zm0 1h24c3.878 0 7 3.122 7 7v24c0 3.878-3.122 7-7 7h-24c-3.878 0-7-3.122-7-7v-24c0-3.878 3.122-7 7-7z" fill-rule="evenodd" opacity=".3" style="paint-order:stroke fill markers"/>
  <path id="path917" d="m18.51 33.035a0.50005 0.50005 0 0 0-0.35352 0.14648l-2.0215 2.0215a0.50005 0.50005 0 0 0-0.13281 0.47266l0.9668 3.957a0.50005 0.50005 0 0 0 0.25391 0.32422s0.57786 0.29669 1.6836 0.57031 2.7726 0.54297 5.0547 0.54297c2.2739 0 3.9103-0.2121 4.9863-0.42773 1.076-0.21563 1.625-0.44922 1.625-0.44922a0.50005 0.50005 0 0 0 0.28516-0.33398l1.0996-4.2207a0.50005 0.50005 0 0 0-0.13867-0.48633l-2.0664-1.9785a0.50005 0.50005 0 0 0-0.3457-0.13867zm0.20703 1h10.488l1.3145 1.2598c-1.193 0.28454-3.7958 0.82167-6.5137 0.81836-2.648-0.0032-5.2527-0.5297-6.5371-0.83008zm-1.5488 2.207c1.3035 0.30912 4.0275 0.86767 6.8379 0.87109 2.843 0.0035 5.5205-0.5513 6.7539-0.84766l-0.79883 3.0684c-0.10905 0.04373-0.35181 0.15635-1.209 0.32812-1.0083 0.20205-2.5792 0.4082-4.791 0.4082-2.2036 0-3.7881-0.25969-4.8145-0.51367-0.89174-0.22067-1.1683-0.37224-1.2695-0.42188z" color="#000000" color-rendering="auto" dominant-baseline="auto" image-rendering="auto" opacity=".25" shape-rendering="auto" solid-color="#000000" style="font-feature-settings:normal;font-variant-alternates:normal;font-variant-caps:normal;font-variant-ligatures:normal;font-variant-numeric:normal;font-variant-position:normal;isolation:auto;mix-blend-mode:normal;shape-padding:0;text-decoration-color:#000000;text-decoration-line:none;text-decoration-style:solid;text-indent:0;text-orientation:mixed;text-transform:none;white-space:normal"/>
 </g>
</svg>
