<?xml version="1.0" encoding="UTF-8"?>
<!-- Created with Inkscape (http://www.inkscape.org/) -->
<svg id="SVGRoot" width="48px" height="48px" version="1.1" viewBox="0 0 48 48" xmlns="http://www.w3.org/2000/svg" xmlns:cc="http://creativecommons.org/ns#" xmlns:dc="http://purl.org/dc/elements/1.1/" xmlns:rdf="http://www.w3.org/1999/02/22-rdf-syntax-ns#">
 <defs id="defs815">
  <style id="style819">.cls-1{fill:none;stroke:#fff;stroke-linecap:round;stroke-linejoin:round;}</style>
 </defs>
 <metadata id="metadata818">
  <rdf:RDF>
   <cc:Work rdf:about="">
    <dc:format>image/svg+xml</dc:format>
    <dc:type rdf:resource="http://purl.org/dc/dcmitype/StillImage"/>
    <dc:title/>
   </cc:Work>
  </rdf:RDF>
 </metadata>
 <g id="layer1">
  <rect id="rect1373-5" x="4" y="4" width="40" height="40" ry="8" fill="#d35244" fill-rule="evenodd" style="paint-order:stroke fill markers"/>
  <path id="rect817-3" d="m12 12v24h24v-24zm1 1h22v22h-22z" fill-rule="evenodd" opacity=".25" style="paint-order:stroke fill markers"/>
  <rect id="rect828" x="8" y="8" width="32" height="32" ry="5" fill="#efefef" fill-rule="evenodd" style="paint-order:normal"/>
  <path id="rect817" d="m12 4c-4.432 0-8 3.568-8 8v24c0 4.432 3.568 8 8 8h24c4.432 0 8-3.568 8-8v-24c0-4.432-3.568-8-8-8h-24zm0 1h24c3.878 0 7 3.122 7 7v24c0 3.878-3.122 7-7 7h-24c-3.878 0-7-3.122-7-7v-24c0-3.878 3.122-7 7-7z" fill-rule="evenodd" opacity=".3" style="paint-order:stroke fill markers"/>
  <rect id="rect830" x="10" y="34" width="4" height="4" ry="2" fill="#7c8487" fill-rule="evenodd" style="paint-order:normal"/>
  <rect id="rect832" x="34" y="34" width="4" height="4" ry="2" fill="#7c8487" fill-rule="evenodd" style="paint-order:normal"/>
  <path id="rect834" d="m20 34c-0.277 0-0.5 0.223-0.5 0.5v3c0 0.277 0.223 0.5 0.5 0.5s0.5-0.223 0.5-0.5v-3c0-0.277-0.223-0.5-0.5-0.5zm2 0c-0.277 0-0.5 0.223-0.5 0.5v3c0 0.277 0.223 0.5 0.5 0.5s0.5-0.223 0.5-0.5v-3c0-0.277-0.223-0.5-0.5-0.5zm2 0c-0.277 0-0.5 0.223-0.5 0.5v3c0 0.277 0.223 0.5 0.5 0.5s0.5-0.223 0.5-0.5v-3c0-0.277-0.223-0.5-0.5-0.5zm2 0c-0.277 0-0.5 0.223-0.5 0.5v3c0 0.277 0.223 0.5 0.5 0.5s0.5-0.223 0.5-0.5v-3c0-0.277-0.223-0.5-0.5-0.5zm2 0c-0.277 0-0.5 0.223-0.5 0.5v3c0 0.277 0.223 0.5 0.5 0.5s0.5-0.223 0.5-0.5v-3c0-0.277-0.223-0.5-0.5-0.5zm-10 1c-0.277 0-0.5 0.223-0.5 0.5v1c0 0.277 0.223 0.5 0.5 0.5s0.5-0.223 0.5-0.5v-1c0-0.277-0.223-0.5-0.5-0.5zm12 0c-0.277 0-0.5 0.223-0.5 0.5v1c0 0.277 0.223 0.5 0.5 0.5s0.5-0.223 0.5-0.5v-1c0-0.277-0.223-0.5-0.5-0.5z" fill-rule="evenodd" opacity=".4" style="paint-order:normal"/>
  <path id="path851" d="m24 10s-10 0-12 2-2 9-2 9 0 7 2 9 12 2 12 2 10 0 12-2 2-9 2-9 0-7-2-9-12-2-12-2z" fill="#4e4e4e"/>
  <path id="path851-4" d="m24 12s-8.5714 0-10.286 1.8182c-1.1143 1.1818-1.1143 3.1818-1.1143 3.1818s-0.06753 2 1.1143 3.1818c1.767 1.767 10.286 1.8182 10.286 1.8182s8.5187-0.051184 10.286-1.8182c1.1818-1.1818 1.1143-3.1818 1.1143-3.1818s0-2-1.1143-3.1818c-1.7143-1.8182-10.286-1.8182-10.286-1.8182z" fill="#7c8487"/>
  <path id="path851-4-3" d="m12.637 24.547c-0.026517 0.26387-0.03711 0.45312-0.03711 0.45312s-0.06658 1.9998 1.1152 3.1816c1.767 1.767 10.285 1.8184 10.285 1.8184s8.5182-0.051361 10.285-1.8184c1.1818-1.1818 1.1152-3.1816 1.1152-3.1816s-0.01059-0.18925-0.03711-0.45312c-0.06085 0.67223-0.27007 1.8267-1.0781 2.6348-1.767 1.767-10.285 1.8184-10.285 1.8184s-8.5182-0.05136-10.285-1.8184c-0.80805-0.80805-1.0173-1.9625-1.0781-2.6348z" fill="#7c8487"/>
  <path id="path851-5" d="m24 10s-10 0-12 2-2 9-2 9 0 7 2 9 12 2 12 2 10 0 12-2 2-9 2-9 0-7-2-9-12-2-12-2zm0 1s2.4646 1e-3 5.1602 0.24609c1.3478 0.12253 2.7507 0.30786 3.8965 0.57226 1.1458 0.26441 2.031 0.6833 2.2363 0.88867 0.58752 0.58752 1.2237 2.7392 1.4648 4.668 0.2411 1.9288 0.24219 3.625 0.24219 3.625s-0.0011 1.6962-0.24219 3.625c-0.24109 1.9288-0.87732 4.0804-1.4648 4.668-0.20537 0.20537-1.0906 0.62426-2.2363 0.88867-1.1458 0.26441-2.5487 0.44974-3.8965 0.57226-2.6956 0.24505-5.1602 0.24609-5.1602 0.24609s-2.4646-1e-3 -5.1602-0.24609c-1.3478-0.12253-2.7507-0.30786-3.8965-0.57226-1.1458-0.26441-2.031-0.6833-2.2363-0.88867-0.58752-0.58752-1.2238-2.7392-1.4648-4.668-0.2411-1.9288-0.24219-3.625-0.24219-3.625s0.0011-1.6962 0.24219-3.625c0.24109-1.9288 0.87732-4.0804 1.4648-4.668 0.20537-0.20537 1.0906-0.62426 2.2363-0.88867 1.1458-0.26441 2.5487-0.44974 3.8965-0.57226 2.6956-0.24505 5.1602-0.24609 5.1602-0.24609z" color="#000000" color-rendering="auto" dominant-baseline="auto" image-rendering="auto" opacity=".25" shape-rendering="auto" solid-color="#000000" style="font-feature-settings:normal;font-variant-alternates:normal;font-variant-caps:normal;font-variant-ligatures:normal;font-variant-numeric:normal;font-variant-position:normal;isolation:auto;mix-blend-mode:normal;shape-padding:0;text-decoration-color:#000000;text-decoration-line:none;text-decoration-style:solid;text-indent:0;text-orientation:mixed;text-transform:none;white-space:normal"/>
  <path id="rect827" d="m12 34c-1.108 0-2 0.892-2 2s0.892 2 2 2 2-0.892 2-2-0.892-2-2-2zm0 1c0.554 0 1 0.446 1 1s-0.446 1-1 1-1-0.446-1-1 0.446-1 1-1z" fill-rule="evenodd" opacity=".25" style="paint-order:normal"/>
  <path id="rect827-8" d="m36 34c-1.108 0-2 0.892-2 2s0.892 2 2 2 2-0.892 2-2-0.892-2-2-2zm0 1c0.554 0 1 0.446 1 1s-0.446 1-1 1-1-0.446-1-1 0.446-1 1-1z" fill-rule="evenodd" opacity=".25" style="paint-order:normal"/>
 </g>
</svg>
