<?xml version="1.0" encoding="UTF-8"?>
<!-- Created with Inkscape (http://www.inkscape.org/) -->
<svg id="SVGRoot" width="48px" height="48px" version="1.1" viewBox="0 0 48 48" xmlns="http://www.w3.org/2000/svg" xmlns:cc="http://creativecommons.org/ns#" xmlns:dc="http://purl.org/dc/elements/1.1/" xmlns:rdf="http://www.w3.org/1999/02/22-rdf-syntax-ns#">
 <defs id="defs815">
  <style id="style819">.cls-1{fill:none;stroke:#fff;stroke-linecap:round;stroke-linejoin:round;}</style>
 </defs>
 <metadata id="metadata818">
  <rdf:RDF>
   <cc:Work rdf:about="">
    <dc:format>image/svg+xml</dc:format>
    <dc:type rdf:resource="http://purl.org/dc/dcmitype/StillImage"/>
    <dc:title/>
   </cc:Work>
  </rdf:RDF>
 </metadata>
 <g id="layer1">
  <rect id="rect1373-5" x="4" y="4" width="40" height="40" ry="8" fill="#96d56b" fill-rule="evenodd" style="paint-order:stroke fill markers"/>
  <path id="path828" d="m10 20v19s-0.027577 1.1675 0.58594 2.3945c0.61351 1.227 2.2474 2.6055 4.4141 2.6055h18c2.1667 0 3.8006-1.3784 4.4141-2.6055 0.61352-1.227 0.58594-2.3945 0.58594-2.3945v-12s0.02758-1.4175-0.71094-2.8945c-0.73851-1.477-2.6224-3.1055-5.2891-3.1055-1.6704 0-3.033 0.64003-4 1.4805-0.96699-0.84044-2.3296-1.4805-4-1.4805-2.6667 0-4.5505 1.6284-5.2891 3.1055-0.73851 1.477-0.71094 2.8945-0.71094 2.8945v10h4v-10s0.02758-0.5825 0.28906-1.1055c0.26149-0.52297 0.3776-0.89453 1.7109-0.89453s1.4495 0.37156 1.7109 0.89453c0.26149 0.52297 0.28906 1.1055 0.28906 1.1055v10h4v-10s0.02758-0.5825 0.28906-1.1055c0.26149-0.52297 0.3776-0.89453 1.7109-0.89453s1.4495 0.37156 1.7109 0.89453c0.26148 0.52297 0.28906 1.1055 0.28906 1.1055v12s-0.02758 0.3325-0.16406 0.60547c-0.13649 0.27297-0.002605 0.39453-0.83594 0.39453h-18c-0.83333 0-0.69945-0.12156-0.83594-0.39453-0.13648-0.27297-0.16406-0.60547-0.16406-0.60547v-19z" color="#000000" color-rendering="auto" dominant-baseline="auto" fill="#fff" image-rendering="auto" opacity=".75" shape-rendering="auto" solid-color="#000000" style="font-feature-settings:normal;font-variant-alternates:normal;font-variant-caps:normal;font-variant-ligatures:normal;font-variant-numeric:normal;font-variant-position:normal;isolation:auto;mix-blend-mode:normal;shape-padding:0;text-decoration-color:#000000;text-decoration-line:none;text-decoration-style:solid;text-indent:0;text-orientation:mixed;text-transform:none;white-space:normal"/>
  <path id="rect818" d="m12 6c-3.324 0-6 2.676-6 6 0 1.108 0.892 2 2 2h32c1.108 0 2-0.892 2-2 0-3.324-2.676-6-6-6h-24z" fill-rule="evenodd" opacity=".4" style="paint-order:normal"/>
  <rect id="rect822-2" x="14" y="16" width="4" height="4" ry="2" fill-rule="evenodd" opacity=".25" style="paint-order:normal"/>
  <rect id="rect824" x="30" y="16" width="4" height="4" ry="2" fill-rule="evenodd" opacity=".25" style="paint-order:normal"/>
  <path id="path820-8" d="m16 18s2 7 8 7 8-7 8-7" fill="none" opacity=".25" stroke="#000" stroke-linecap="round" stroke-linejoin="round" stroke-width="2"/>
  <path id="path820" d="m16 18s2 5 8 5 8-5 8-5" fill="none" stroke="#fff" stroke-linecap="round" stroke-linejoin="round" stroke-width="2"/>
  <path id="rect817" d="m12 4c-4.432 0-8 3.568-8 8v24c0 4.432 3.568 8 8 8h24c4.432 0 8-3.568 8-8v-24c0-4.432-3.568-8-8-8h-24zm0 1h24c3.878 0 7 3.122 7 7v24c0 3.878-3.122 7-7 7h-24c-3.878 0-7-3.122-7-7v-24c0-3.878 3.122-7 7-7z" fill-rule="evenodd" opacity=".3" style="paint-order:stroke fill markers"/>
 </g>
</svg>
