<?xml version="1.0" encoding="UTF-8"?>
<!-- Created with Inkscape (http://www.inkscape.org/) -->
<svg id="SVGRoot" width="48px" height="48px" version="1.1" viewBox="0 0 48 48" xmlns="http://www.w3.org/2000/svg" xmlns:cc="http://creativecommons.org/ns#" xmlns:dc="http://purl.org/dc/elements/1.1/" xmlns:rdf="http://www.w3.org/1999/02/22-rdf-syntax-ns#" xmlns:xlink="http://www.w3.org/1999/xlink">
 <defs id="defs815">
  <style id="style819">.cls-1{fill:none;stroke:#fff;stroke-linecap:round;stroke-linejoin:round;}</style>
  <style id="style819-55">.cls-1{fill:none;stroke:#fff;stroke-linecap:round;stroke-linejoin:round;}</style>
  <style id="style2">.a{fill:none;stroke:#b1b5bd;stroke-linecap:round;stroke-linejoin:round;isolation:isolate;opacity:0.63;}</style>
  <style id="style819-5">.cls-1{fill:none;stroke:#fff;stroke-linecap:round;stroke-linejoin:round;}</style>
  <style id="style819-2">.cls-1{fill:none;stroke:#fff;stroke-linecap:round;stroke-linejoin:round;}</style>
  <style id="style819-3">.cls-1{fill:none;stroke:#fff;stroke-linecap:round;stroke-linejoin:round;}</style>
  <style id="style819-36">.cls-1{fill:none;stroke:#fff;stroke-linecap:round;stroke-linejoin:round;}</style>
  <style id="style819-71">.cls-1{fill:none;stroke:#fff;stroke-linecap:round;stroke-linejoin:round;}</style>
  <style id="style819-3-2">.cls-1{fill:none;stroke:#fff;stroke-linecap:round;stroke-linejoin:round;}</style>
  <style id="style2-9">.a{fill:none;stroke:#b1b5bd;stroke-linecap:round;stroke-linejoin:round;isolation:isolate;opacity:0.63;}</style>
  <style id="style819-2-5">.cls-1{fill:none;stroke:#fff;stroke-linecap:round;stroke-linejoin:round;}</style>
  <style id="style819-7">.cls-1{fill:none;stroke:#fff;stroke-linecap:round;stroke-linejoin:round;}</style>
  <style id="style819-26">.cls-1{fill:none;stroke:#fff;stroke-linecap:round;stroke-linejoin:round;}</style>
  <style id="style819-6">.cls-1{fill:none;stroke:#fff;stroke-linecap:round;stroke-linejoin:round;}</style>
  <style id="current-color-scheme" type="text/css">.ColorScheme-Text {
        color:#31363b;
      }
      .ColorScheme-Accent {
        color:#3daee9;
      }</style>
  <style id="style819-9">.cls-1{fill:none;stroke:#fff;stroke-linecap:round;stroke-linejoin:round;}</style>
  <style id="style819-6-6">.cls-1{fill:none;stroke:#fff;stroke-linecap:round;stroke-linejoin:round;}</style>
  <style id="current-color-scheme-9" type="text/css">.ColorScheme-Text {
        color:#31363b;
      }
      .ColorScheme-Accent {
        color:#3daee9;
      }</style>
  <style id="style819-0">.cls-1{fill:none;stroke:#fff;stroke-linecap:round;stroke-linejoin:round;}</style>
  <style id="style2-4">.a{fill:none;stroke:#b1b5bd;stroke-linecap:round;stroke-linejoin:round;isolation:isolate;opacity:0.63;}</style>
  <style id="style819-5-8">.cls-1{fill:none;stroke:#fff;stroke-linecap:round;stroke-linejoin:round;}</style>
  <style id="style819-2-0">.cls-1{fill:none;stroke:#fff;stroke-linecap:round;stroke-linejoin:round;}</style>
  <style id="style819-3-29">.cls-1{fill:none;stroke:#fff;stroke-linecap:round;stroke-linejoin:round;}</style>
  <style id="style819-36-5">.cls-1{fill:none;stroke:#fff;stroke-linecap:round;stroke-linejoin:round;}</style>
  <style id="style819-94">.cls-1{fill:none;stroke:#fff;stroke-linecap:round;stroke-linejoin:round;}</style>
  <style id="style819-4">.cls-1{fill:none;stroke:#fff;stroke-linecap:round;stroke-linejoin:round;}</style>
  <style id="style819-08">.cls-1{fill:none;stroke:#fff;stroke-linecap:round;stroke-linejoin:round;}</style>
  <style id="style819-9-7">.cls-1{fill:none;stroke:#fff;stroke-linecap:round;stroke-linejoin:round;}</style>
  <style id="style819-98">.cls-1{fill:none;stroke:#fff;stroke-linecap:round;stroke-linejoin:round;}</style>
  <style id="style819-0-8">.cls-1{fill:none;stroke:#fff;stroke-linecap:round;stroke-linejoin:round;}</style>
  <style id="style819-1">.cls-1{fill:none;stroke:#fff;stroke-linecap:round;stroke-linejoin:round;}</style>
  <style id="style819-7-2">.cls-1{fill:none;stroke:#fff;stroke-linecap:round;stroke-linejoin:round;}</style>
  <style id="style2-8">.a{fill:none;stroke:#b1b5bd;stroke-linecap:round;stroke-linejoin:round;isolation:isolate;opacity:0.63;}</style>
  <style id="style819-56">.cls-1{fill:none;stroke:#fff;stroke-linecap:round;stroke-linejoin:round;}</style>
  <style id="style819-38">.cls-1{fill:none;stroke:#fff;stroke-linecap:round;stroke-linejoin:round;}</style>
 </defs>
 <metadata id="metadata818">
  <rdf:RDF>
   <cc:Work rdf:about="">
    <dc:format>image/svg+xml</dc:format>
    <dc:type rdf:resource="http://purl.org/dc/dcmitype/StillImage"/>
    <dc:title/>
   </cc:Work>
  </rdf:RDF>
 </metadata>
 <g id="layer1">
  <rect id="rect1373-5" x="4" y="4" width="40" height="40" ry="8" fill="#f5ecde" fill-rule="evenodd" style="paint-order:stroke fill markers"/>
  <path id="rect817" d="m12 4c-4.432 0-8 3.568-8 8v24c0 4.432 3.568 8 8 8h24c4.432 0 8-3.568 8-8v-24c0-4.432-3.568-8-8-8h-24zm0 1h24c3.878 0 7 3.122 7 7v24c0 3.878-3.122 7-7 7h-24c-3.878 0-7-3.122-7-7v-24c0-3.878 3.122-7 7-7z" fill-rule="evenodd" opacity=".3" style="paint-order:stroke fill markers"/>
  <path id="path1075" d="m18.606 39.241c-1.7535-1.1603-2.9162-2.2989-3.9798-3.8974-1.6312-2.4516-2.7223-5.8374-3.1242-9.695-0.10674-1.0246-0.2372-2.2665-0.2899-2.7598-0.06112-0.57208 0.01435-1.311 0.20838-2.0403 0.16731-0.62886 0.30148-1.2232 0.29814-1.3208-0.0033-0.09758-0.3699-1.1971-0.81458-2.4434-0.74419-2.0857-1.3289-4.1418-1.5893-5.5884-0.16788-0.93268 0.32242-1.2827 1.7954-1.2819 1.4565 8.7e-4 4.0404 0.40463 5.5034 0.85997 1.0632 0.3309 1.091 0.33077 1.8464-0.0088 1.7069-0.76737 3.619-1.0733 6.1782-0.98856 2.1073 0.06979 2.589 0.14656 4.0088 0.63885 1.562 0.5416 1.6416 0.55129 2.4838 0.30233 1.4729-0.43536 3.9527-0.80446 5.4048-0.80446 1.5866 0 1.941 0.20943 1.941 1.147 0 0.85941-0.91931 4.3472-1.6784 6.3678l-0.65696 1.7487 0.30096 1.2281c0.30718 1.2535 0.30437 1.446-0.07476 5.1212-0.46695 4.5264-1.6566 7.8308-3.8103 10.583-1.416 1.8097-3.7429 3.5163-4.6342 3.3989-0.40074-0.05281-0.38222-0.10106 0.46382-1.2082 1.2462-1.6308 3.2753-5.8547 2.8126-5.8547-0.27091 0-2.6044 0.96577-4.8634 2.0129-2.0013 0.92763-2.1464 0.96815-2.6612 0.74308-0.29948-0.13093-1.5025-0.67226-2.6735-1.203-2.7066-1.2267-4.1693-1.7721-4.1693-1.5546 0 0.35397 0.90333 2.5512 1.5972 3.8848 0.39632 0.76178 1.0773 1.803 1.5133 2.3137 0.43599 0.51078 0.79271 0.96208 0.79271 1.0029 0 0.04082-0.21955 0.07078-0.48789 0.06657-0.26834-0.0043-1.0068-0.35104-1.6411-0.77072z" fill="#434343" stroke-width=".17742"/>
  <path id="path1073" d="m24.227 10.764c-1.684 0.06787-3.4158 0.22975-4.9948 0.8486 0.19535 0.80149 2.1869-0.28639 3.022-0.12755 1.9065-0.12675 3.8289-0.02436 5.6962 0.3793 1.5252-0.22814-0.80871-0.83988-1.2958-0.8304-0.80282-0.13553-1.611-0.26987-2.4276-0.26994zm-13.398 0.21484c-1.43 0.23026-0.1961 2.2344-0.08284 3.1821 0.45999 1.3327 0.84278 2.7072 1.3969 3.9991 0.8061-1.2358-0.83643-2.7225-0.59186-4.1555 0.01758-1.777 2.3529-0.98718 3.3882-0.66374 0.50438 0.09236 1.0507 0.56767 1.4957 0.11784 0.53639-0.4566 2.5083-0.86514 0.95792-1.3373-2.1199-0.64812-4.3453-1.0784-6.5639-1.1425zm25.998 0.08008c-2.3416 0.10817-4.698 0.45202-6.9391 1.1492-0.64334 0.4806 1.0048 0.84845 1.4434 1.1639 0.41488 0.36515 0.87327 0.15377 1.3276-0.0032 1.0956-0.28199 2.3826-0.82405 3.442-0.23175 0.6134 1.2595-0.09685 2.7215-0.53349 3.941-0.56945 0.71163 0.52943 1.2421 0.53085 0.10699 0.66664-1.8896 1.351-3.824 1.5425-5.8254-0.12358-0.31665-0.53703-0.28343-0.81372-0.30067zm-12.82 5.1699c-1.1609-0.19843-2.4277 0.04852-2.026 1.5181 0.16138 2.7515 1.0705 5.6663 3.1794 7.5496 1.1195-0.02662 1.5658-1.8324 1.9551-2.7951 0.50877-1.9031 0.46079-4.0078-0.31568-5.8285-0.74478-0.57574-1.8979-0.34955-2.7928-0.44415zm-3.2461 0.40625c-1.4181 0.09906-2.3286 1.2508-2.4816 2.5967-0.35291 1.5641-0.45063 3.2121-0.11802 4.7861 0.54293-2.2051 1.4731-4.2796 2.4786-6.3078 0.0265-0.25405 0.75266-1.2178 0.12098-1.075zm7.3984 0.37109c0.22813 1.3935 0.98197 2.7419 1.5351 4.0632 0.74169 1.6 1.7062 3.1134 3.0176 4.3059 0.21142-2.0279-0.54758-4.0164-1.2254-5.8933-0.48322-1.3495-2.0243-1.8073-3.1731-2.4485zm-11.121 1.502c-2.2475 1.4926-3.6798 3.8789-4.8281 6.2617 0.39416 3.6673 1.1746 7.461 3.3965 10.487 0.75664 0.88992 1.4529 1.8993 2.416 2.5654-0.66137-1.641-1.5336-3.2126-1.9773-4.9434-1.0407-3.5768-1.6543-7.4679-0.47468-11.094 0.31077-1.1686 0.85446-2.2426 1.4676-3.2772zm15.969 1.9062c0.45709 1.9107 1.0178 3.8724 0.7472 5.849-0.7137 1.3402-0.52717 2.9422-0.99927 4.3671-0.60057 2.5433-1.5499 5.0041-2.9126 7.2373 0.51196 0.0094 1.6278-1.5957 2.2526-2.2511 1.8016-2.2213 2.6918-5.0486 3.1963-7.8276 0.14688-1.3446 0.68246-2.8488-0.16216-4.068-0.6232-1.1517-1.2589-2.3138-2.122-3.3067z" fill="#825f65" stroke-width=".17742"/>
  <path id="path1069" d="m12.719 13.584c-0.44829 0-0.5 0.06273-0.5 0.58789 0 0.63513 0.6686 2.7909 0.85938 2.7715 0.06423-0.0065 0.58559-0.56939 1.1602-1.252 0.57908-0.68793 0.97602-1.3056 0.88867-1.3848-0.26354-0.23894-1.8755-0.72266-2.4082-0.72266zm22.297 0.11328c-0.62219 0.02734-1.8406 0.34789-2.2012 0.58008-0.1983 0.12771-0.04015 0.39597 0.75391 1.2734 0.55275 0.61081 1.0067 1.1954 1.0098 1.3008 0.01061 0.3619 0.51707-0.48177 0.80078-1.3359 0.15618-0.4702 0.25775-1.0781 0.22656-1.3496-0.0487-0.42402-0.13268-0.48884-0.58984-0.46875zm-13.965 5.0957c-0.06304-0.0203-0.1295 0.10053-0.23633 0.29102-0.3669 0.65424-1.2357 3.1535-1.3223 3.4414-0.16598 0.5521-0.35174 0.92574-0.4707 2.0625l-0.10547 1.0078 0.74414 0.09961c0.40968 0.05495 1.0581 0.30882 1.4414 0.5625 0.63122 0.41772 0.69675 0.5323 0.69141 1.2129l-0.0059 0.75-0.36914-0.44336c-0.62906-0.75701-1.2494-1.0613-2.1641-1.0625-1.0468-0.0015-1.9369 0.45816-1.7891 0.92383 0.12596 0.39684-0.23564 0.41634-0.77148 0.04102-0.59396-0.41603-0.47811-0.82077 0.40234-1.4102 0.54475-0.36466 0.75948-0.6165 0.68359-0.79883-0.38131-0.91611-0.59455-2.2582-0.60547-3.8086l-0.01172-1.7793-0.3125 0.70898c-0.79494 1.8133-0.99108 2.938-0.99219 5.6777-7.97e-4 1.9552 0.08627 3.0373 0.32617 4.0801l0.32617 1.4199 1.3574 0.51953c0.7472 0.28576 2.4366 1.0228 3.7539 1.6387 1.3173 0.61591 2.472 1.1221 2.5645 1.123 0.09244 8.86e-4 1.2498-0.50838 2.5723-1.1309 1.3224-0.62247 2.9802-1.3546 3.6836-1.627l1.2773-0.49609 0.26172-1.166c0.46873-2.1047 0.67387-3.8776 0.49023-4.2207-0.22744-0.42497-0.89084-1.0193-1.0078-0.90234-0.10553 0.10553 0.16335 0.78863 0.49219 1.25 0.21348 0.29953 0.02118 0.95487-0.23828 0.8125-0.05818-0.03193-0.23674 0.04905-0.39648 0.18164-0.25335 0.21026-0.31102 0.18336-0.46094-0.21094-0.2277-0.5989-0.70027-0.82812-1.7031-0.82812-0.9769 0-1.8289 0.44664-1.9766 1.0352l-0.10547 0.41602-0.37305-0.37305c-0.34603-0.34603-0.35599-0.41136-0.11133-0.8457 0.14572-0.2587 0.62535-0.66281 1.0645-0.89844 0.67486-0.36213 0.9724-0.41549 1.9219-0.34375l1.123 0.08398-0.11719-0.46875c-0.063829-0.25774-0.27071-0.7981-0.44136-1.209-0.19465-0.46864-0.38604-0.82627-0.53516-1.1094-0.03633-0.06897-0.25304-0.69113-0.5625-1.3633l-0.5625-1.2227-0.31055 1.3301c-0.27584 1.1814-0.42041 1.5017-0.8457 2.5215-0.47143 1.1304-1.6575 2.1626-2.1328 2.0117-1.2259-0.38908-3.0714-3.3437-3.6641-5.8633-0.27297-1.1605-0.37149-1.5873-0.47656-1.6211z" fill="#f5ecde" stroke-width=".17742"/>
  <path id="path1061" d="m14.013 20.244c1.9123-2.3806 4.6665-4.1444 7.6848-4.6937 1.5485-0.14067 3.1214-0.14975 4.6674 0.02332 3.5763 0.75793 6.731 3.1032 8.6186 6.219 0.30669 0.47404 0.61338 0.94808 0.92008 1.4221 0.15868-1.252-0.03991-2.5229-0.54394-3.6804-0.9438-2.402-2.724-4.4676-5.0287-5.6539-3.2254-1.7781-7.1791-2.1938-10.676-0.99846-4.0334 1.2907-7.4146 4.948-7.7785 9.2514-0.01367 0.4325-1.72e-4 0.86536-8.63e-4 1.298 0.63886-1.1107 1.3407-2.1819 2.1371-3.1874z" fill="#f6c3ce" stroke-width=".17742"/>
 </g>
</svg>
