<?xml version="1.0" encoding="UTF-8"?>
<!-- Created with Inkscape (http://www.inkscape.org/) -->
<svg id="SVGRoot" width="48px" height="48px" version="1.1" viewBox="0 0 48 48" xmlns="http://www.w3.org/2000/svg" xmlns:cc="http://creativecommons.org/ns#" xmlns:dc="http://purl.org/dc/elements/1.1/" xmlns:rdf="http://www.w3.org/1999/02/22-rdf-syntax-ns#">
 <defs id="defs815">
  <style id="style819">.cls-1{fill:none;stroke:#fff;stroke-linecap:round;stroke-linejoin:round;}</style>
 </defs>
 <metadata id="metadata818">
  <rdf:RDF>
   <cc:Work rdf:about="">
    <dc:format>image/svg+xml</dc:format>
    <dc:type rdf:resource="http://purl.org/dc/dcmitype/StillImage"/>
    <dc:title/>
   </cc:Work>
  </rdf:RDF>
 </metadata>
 <g id="layer1">
  <rect id="rect1373-5" x="4" y="4" width="40" height="40" ry="8" fill="#b59bac" fill-rule="evenodd" style="paint-order:stroke fill markers"/>
  <path id="path962" d="m35.814 6.0547c-0.32865 0.036487-0.75946 0.32746-1.5449 0.9668-1.0675 0.86894-3.4078 2.2129-3.8535 2.2129-0.06197 0-0.29227-0.1649-0.51172-0.36719-0.56853-0.52405-1.3809-0.76322-2.8047-0.82422-1.3062-0.055959-2.3187 0.075465-3.0039 0.38867-0.43164 0.1973-0.50526 0.20507-0.7793 0.089844-0.16658-0.070041-0.64567-0.1964-1.0645-0.28125-1.4809-0.30006-3.2196 0.0065499-4.0176 0.70898l-0.42188 0.37109-0.76953-0.23633c-1.4766-0.45346-3.0942-1.3538-4.4355-2.4688-0.51144-0.42513-0.7232-0.46227-0.98828-0.17773-0.52 0.55816-0.59338 3.3018-0.14648 5.4766 0.0834 0.40588 0.29641 1.1839 0.47266 1.7305 0.38032 1.1795 0.78568 1.7169 1.5391 2.041 0.26269 0.113 0.4624 0.23379 0.44531 0.26953-0.01709 0.03575-0.28898 0.5928-0.60547 1.2363-1.2489 2.5394-1.8474 5.1962-1.9668 8.7402l-0.058594 1.7676-0.29492 0.38672c-0.16118 0.21195-0.4908 0.51573-0.73438 0.67578-0.3825 0.25133-0.42443 0.30754-0.30078 0.41016 0.18998 0.15767 0.82869-0.01725 1.4082-0.38477 0.49521-0.31406 0.53594-0.20661 0.15039 0.39062-0.31883 0.49388-0.75233 0.90923-1.3027 1.25-0.2207 0.13664-0.37638 0.2902-0.3457 0.33984 0.092503 0.14967 0.72099 0.096547 1.1445-0.095703 0.2188-0.09932 0.39844-0.16428 0.39844-0.14648s-0.08844 0.3209-0.19727 0.67383c-0.27544 0.89325-0.58789 1.4727-1.0293 1.9141-0.30558 0.30559-0.35575 0.40312-0.26562 0.51172 0.13057 0.15732 0.80079 0.1782 1.1719 0.037109 0.1392-0.05293 0.26225-0.084622 0.27539-0.070312s-0.03697 0.30013-0.11328 0.63476c-0.21437 0.9398-0.21245 3.6192 0.003906 4.4004 0.29447 1.0632 0.68338 1.7505 1.4043 2.4805 0.7603 0.76988 0.99381 0.91006 2.166 1.3086 0.70888 0.24101 0.83847 0.31699 0.81641 0.47266-0.01442 0.10175-0.050698 0.3325-0.080078 0.51367-0.02813 0.17347-0.007701 0.38689 0.037109 0.59766h17.242c0.37301-0.45777 0.75564-0.98435 0.9668-1.3613 0.18567-0.33147 0.41315-0.59159 0.60938-0.69727 0.53515-0.2882 1.2937-1.0972 1.6016-1.707 0.67646-1.3401 0.8627-3.2219 0.53711-5.4355-0.08632-0.58692-0.14247-1.0841-0.12305-1.1035 0.019441-0.019429 0.14986 0.007597 0.28906 0.060547 0.52189 0.19842 1.3652 0.07074 1.3652-0.20703 0-0.06041-0.20999-0.3077-0.46484-0.55078-0.68077-0.64932-1.0352-1.4304-1.2598-2.7734-0.028-0.16732-0.029589-0.30273-0.005859-0.30273 0.02381 0 0.1493 0.16712 0.2793 0.37305 0.2236 0.35421 0.26085 0.375 0.69726 0.375 0.25373 0 0.48312-0.034985 0.50977-0.078125 0.02665-0.04312-0.12108-0.24389-0.32812-0.44531-0.66436-0.64634-0.71057-0.77927-0.78125-2.2852-0.1307-2.7846-0.54275-6.0352-0.98633-7.7637-0.22524-0.87768-0.79851-2.3565-1.3027-3.3594-0.21024-0.41815-0.38281-0.797-0.38281-0.8418 0-0.04481 0.17768-0.16186 0.39648-0.25976 0.99103-0.44349 1.3997-1.099 1.8516-2.9766 0.36073-1.4989 0.4655-2.4312 0.46484-4.125-4.99e-4 -1.5782-0.082594-2.0134-0.43555-2.291-0.17869-0.14056-0.33992-0.21135-0.53711-0.18945z" fill="#241423" stroke-width=".093604"/>
  <path id="path960" d="m35.811 6.9102c0.05403-0.00372 0.08511 0.015775 0.11133 0.050781 0.16788 0.22414 0.15164 2.4901-0.02734 3.7734-0.18415 1.3203-0.53507 2.7047-0.8125 3.209-0.12415 0.22568-0.40882 0.5223-0.66992 0.69727-0.76348 0.51162-0.84646 0.47593-2.3281-1.002l-1.2891-1.2852-0.01758-0.97461c-0.01018-0.5358 0.01391-1.0654 0.05273-1.1777 0.03944-0.11413 0.44225-0.44572 0.91406-0.75 0.46443-0.29951 1.5685-1.0177 2.4531-1.5957 1.0813-0.70656 1.4512-0.93416 1.6133-0.94531z" fill="#6acbdc" stroke-width=".093604"/>
  <path id="path958" d="m12.02 7.0156c-0.08822 0.088219-0.2242 1.0896-0.22266 1.6465 0.0038 1.3885 0.55959 4.2322 1.0176 5.2109 0.2933 0.62677 0.73083 1.1129 1.1816 1.3145 0.38768 0.17336 0.49694 0.138 0.82812-0.27148 0.23999-0.29673 0.26694-0.37089 0.15234-0.44336-0.20901-0.13219-0.63014-0.10736-0.94726 0.056641-0.26429 0.13666-0.29314 0.13498-0.41016-0.023438-0.10835-0.1467-0.1043-0.17398 0.03125-0.19922 0.48603-0.09051 1.6581-0.53309 1.8086-0.68359 0.096628-0.09663 0.17383-0.29317 0.17383-0.43555 1e-6 -0.14238 0.079232-0.4046 0.17578-0.58398l0.17578-0.32617-0.36328-0.3125c-0.19952-0.17133-0.36133-0.3585-0.36133-0.41602 0-0.05753 0.10997-0.21933 0.24414-0.35938l0.24414-0.25391-0.28125-0.40625c-0.46306-0.67106-1.325-1.4183-2.291-1.9863-0.50195-0.29516-0.91211-0.55376-0.91211-0.57422 0-0.08749 0.81124 0.26045 1.2988 0.55664 0.4501 0.27342 1.3033 0.58232 2.1406 0.77539 0.41234 0.095087 0.19654-0.057831-0.88867-0.62891-0.60492-0.31833-1.4728-0.82852-1.9297-1.1348-0.45684-0.30624-0.84622-0.5405-0.86524-0.52148zm2.7168 2.2188c-0.01794 0 0.31236 0.33378 0.73438 0.74023 0.74988 0.72223 0.77077 0.73333 0.90039 0.53711 0.07294-0.11043 0.19754-0.25381 0.27734-0.31836 0.09089-0.07352 0.11213-0.14848 0.05664-0.20312-0.07206-0.070961-1.8556-0.75586-1.9688-0.75586z" fill="#6acbdc" stroke-width=".093604"/>
  <path id="path956" d="m27.219 8.5781c-0.34239-0.005778-0.66794 0.024749-0.9375 0.099609l-0.35156 0.097656v0.81641c-1e-6 0.69782 0.036583 0.88135 0.24609 1.2813 0.30919 0.59017 0.64119 0.94989 1.0918 1.1816 0.87274 0.44885 2.5304 0.56957 2.875 0.20898 0.15902-0.16641 0.15775-0.22581-0.046875-1.4023-0.11748-0.67549-0.28513-1.3356-0.37109-1.4668-0.29806-0.4549-1.4787-0.79907-2.5059-0.81641zm-5.9219 0.11523c-0.18853-0.00827-0.39404-0.0056895-0.60938 0.0078125-1.14 0.071485-1.6234 0.25058-2.3633 0.87305l-0.63477 0.5332 0.39844 0.22656c0.46529 0.26429 0.53716 0.35742 0.53906 0.69727 0.0012 0.22558 0.044761 0.25683 0.41602 0.3125 0.63331 0.09497 1.0113-0.077054 1.5977-0.73438 0.56967-0.63859 0.69708-0.60967 0.19727 0.044922-0.17497 0.22915-0.51116 0.51886-0.74805 0.64453-0.3167 0.16801-0.43164 0.28447-0.43164 0.43945 0 0.27505 0.071584 0.26651 0.58008-0.070312 0.23348-0.15465 0.61012-0.44492 0.83594-0.64453 0.47121-0.41653 1.3467-1.8094 1.2676-2.0156-0.066293-0.17276-0.47932-0.28966-1.0449-0.31445zm2.5742 3.0703c-0.59205 5.62e-4 -1.3572 0.060332-1.6992 0.13281-0.62196 0.13183-1.8276 0.56736-1.9922 0.71875-0.2109 0.19392 0.097779 0.17951 1.0527-0.048828 2.4297-0.58098 3.6298-0.51367 6.4297 0.36133 1.1563 0.36135 1.1631 0.36263 1.3535 0.24219 0.12131-0.07671 0.12131-0.092259 0-0.13086-0.34014-0.10824-1.0429-0.35461-1.7754-0.62305-1.3353-0.48934-2.1762-0.65344-3.3691-0.65234z" fill="#eb828d" stroke-width=".093604"/>
  <path id="path952" d="m24.773 9.1895c0.07779-0.00747 0.15117-0.00522 0.22266 0.00586 0.09531 0.014767 0.18694 0.044672 0.28711 0.089844 0.35821 0.16155 0.36524 0.17576 0.36524 0.66211 0 0.27291-0.04617 0.59874-0.10352 0.72461-0.09123 0.20023-0.16806 0.22918-0.60938 0.23438-0.27745 0.0033-0.66146 0.04932-0.85547 0.10156-0.19401 0.05224-0.7452 0.1186-1.2246 0.14844s-0.97772 0.09401-1.1055 0.14258c-0.12775 0.04857-0.24965 0.08789-0.27148 0.08789-0.05367 0 0.6718-1.1867 0.95703-1.5664 0.1757-0.23391 0.29741-0.30469 0.53125-0.30469 0.16727 0 0.35059 0.045905 0.40625 0.10156 0.07252 0.072518 0.20336 0.048486 0.46289-0.082031 0.42604-0.21426 0.70413-0.32331 0.9375-0.3457z" fill="#5f5a6b" stroke-width=".093604"/>
  <path id="path948" d="m16.988 10.264c-0.29434 0-0.42915 0.20682-0.43555 0.66797-0.0047 0.34145-0.021933 0.37585-0.12109 0.24023-0.06382-0.087283-0.17454-0.1584-0.24609-0.1582-0.17648 4.68e-4 -0.73828 0.34975-0.73828 0.45898 0 0.16773 0.57632 0.66406 0.77148 0.66406h0.19727l-0.20703 0.21875c-0.22036 0.23456-0.38416 0.68931-0.31836 0.88086 0.04867 0.14169 0.47968 0.15322 0.82617 0.021484 0.2127-0.080868 0.27493-0.065849 0.38672 0.09375 0.17598 0.25126 0.5423 0.24075 0.72461-0.019531 0.080144-0.11442 0.14648-0.33823 0.14648-0.49805 0-0.26853 0.020195-0.28745 0.27539-0.25 0.23304 0.0342 0.30518-0.008314 0.4668-0.27344 0.23543-0.38621 0.2147-0.46122-0.17969-0.65039-0.19412-0.09312-0.2703-0.17528-0.20312-0.2168 0.059312-0.03666 0.10742-0.21152 0.10742-0.38867 0-0.29207-0.024519-0.32227-0.26758-0.32227-0.16481 0-0.36389 0.09437-0.51562 0.24609l-0.24609 0.24805v-0.24219c0-0.39246-0.19203-0.7207-0.42383-0.7207zm0.10156 1.6855c0.14613 0 0.18837 0.33023 0.052734 0.41406-0.04565 0.028218-0.13356-0.009604-0.19531-0.083984-0.1294-0.15591-0.054415-0.33008 0.14258-0.33008z" fill="#f9f9f9" stroke-width=".093604"/>
  <path id="path942" d="m19.852 12.324c-0.048559 0-0.14919 0.084546-0.22266 0.18945-0.1153 0.16462-0.16592 0.1764-0.37305 0.082031-0.2071-0.09436-0.2783-0.079027-0.52148 0.11328-0.15499 0.12256-0.28431 0.2519-0.28711 0.28711-0.0029 0.03521 0.17378 0.19104 0.39258 0.3457 0.47604 0.3365 0.81308 0.34036 0.97852 0.011719 0.13756-0.27328 0.1622-1.0293 0.033203-1.0293zm-1.418 1.0762c-0.19681-0.04939-0.27529-0.011469-0.41797 0.20312-0.18485 0.27806-0.18794 0.59287-0.007813 0.70703 0.12639 0.08013 0.3971 0.011778 0.69141-0.17383 0.37597-0.2371 0.24234-0.60884-0.26562-0.73633zm-1.4258 0.4375c-0.23501-0.04526-0.45268 0.16326-0.38672 0.37109 0.031494 0.09925-0.008207 0.23866-0.091797 0.32227-0.28512 0.28512-0.11942 0.69336 0.28125 0.69336 0.11211 0 0.24463-0.052827 0.29492-0.11719s0.086978-0.36926 0.080078-0.67773c-0.01017-0.45607-0.043097-0.56587-0.17774-0.5918z" fill="#dd5463" stroke-width=".093604"/>
  <path id="path940" d="m24.174 12.443c-0.86204-0.00572-1.893 0.12936-3.0117 0.40039l-0.98828 0.24023-0.1875 0.39258c-0.15514 0.32496-0.23925 0.39584-0.48828 0.41992-0.1918 0.01855-0.4156 0.14607-0.62109 0.35156-0.2896 0.2896-0.37412 0.32227-0.8418 0.32226h-0.52148l-0.060547 0.33008c-0.10289 0.54846-0.61222 0.76578-1.0586 0.45312-0.22019-0.15423-0.24286-0.48475-0.0625-0.90039 0.05709-0.13154 0.023975-0.16406-0.16602-0.16406-0.35223 0-1.0644 0.99785-1.8848 2.6406-1.6852 3.3747-2.359 7.1507-1.5469 8.666 0.10152 0.1894 0.18555 0.39216 0.18555 0.44922 0 0.19184 1.6595 2.6059 2.1992 3.1992 0.52283 0.57478 1.2418 1.1445 1.4453 1.1445 0.09373 0-1.0352-1.7658-1.3223-2.0684-0.12563-0.13238-0.54492-0.97134-0.54492-1.0898 0-0.0353 0.20077 0.12861 0.44531 0.36328 0.82278 0.78957 1.3112 1.0242 1.2109 0.53906-0.03025-0.14643 0.097094-0.14632-0.011719-0.38476-0.19719-0.43212-0.40439-1.6719-0.4707-2.6035-0.04828-0.67823-0.017344-1.3617 0.18164-4.1152 0.01302-0.18019 0.13802-0.72771 0.2793-1.2168 0.14128-0.48908 0.26549-0.93094 0.27539-0.98242 0.0099-0.05149 0.071075-0.18885 0.13477-0.30469 0.063689-0.11584 0.089183-0.21094 0.058593-0.21094s-0.022582-0.052827 0.017578-0.11719 0.08583-0.18897 0.09961-0.27734c0.01377-0.08837 0.15161-0.36718 0.30664-0.61914 0.15503-0.25196 0.28125-0.50227 0.28125-0.55664s0.033749-0.1137 0.074219-0.13086 0.17142-0.16956 0.29102-0.33984c0.11959-0.17028 0.23388-0.29348 0.25391-0.27344 0.02004 0.02004-0.13333 0.4262-0.33984 0.90234-0.37045 0.85411-0.53028 1.3557-0.625 1.9512-0.04541 0.28549-0.032964 0.30273 0.22656 0.30273 0.1667 0 0.34759-0.080577 0.45508-0.20312 0.11876-0.13541 0.13258-0.17984 0.039062-0.13281-0.07723 0.038831 0.033946-0.089814 0.24805-0.28711 0.2141-0.1973 0.44151-0.46504 0.50586-0.59375s0.19335-0.28892 0.28711-0.35547 0.36655-0.3937 0.60547-0.72852 0.44956-0.59341 0.46875-0.57422-0.089887 0.38006-0.24414 0.80273c-0.25452 0.6974-0.26502 0.7604-0.099609 0.67188 0.10024-0.05365 0.20858-0.14021 0.24023-0.19141 0.03164-0.05121 0.13507-0.091797 0.23047-0.091797 0.13176 0 0.19031-0.096258 0.23828-0.39844 0.19668-1.2389 0.37983-1.881 0.76367-2.668 0.23228-0.47621 0.45544-0.86523 0.49609-0.86523s-0.12848 0.60036-0.37695 1.334c-0.49294 1.4554-0.63658 2.2445-0.39844 2.2012 0.11887-0.02163 0.13904 0.17007 0.12891 1.2852-0.01219 1.3427 0.12383 2.3611 0.41211 3.0879 0.08168 0.20594 0.12535 0.26933 0.097656 0.14062-0.091668-0.42607-0.16943-1.4043-0.11133-1.4043 0.03142 0 0.32294 0.14657 0.64648 0.32422 0.75058 0.41213 1.6058 0.69224 2.0859 0.55664 1.0335-0.29192 1.4876-0.42449 1.8203-1.459 0.46824-1.4559 0.39867-2.2219 0.35742-3.3262-0.04312-1.1542 0.050002-1.4715 0.16406-0.55859 0.04784 0.38291 0.10724 0.5153 0.26367 0.58398 0.11118 0.04882 0.21581 0.18371 0.23242 0.30078 0.0299 0.21072 0.80633 0.92262 1.5312 1.4023 0.42547 0.28156 1.0675 0.31876 1.4258 0.083984 0.45497-0.2981 0.44456-1.3484-0.025391-2.7285-0.18134-0.53255-0.23202-0.77264-0.13867-0.6543 0.29941 0.37957 0.86074 1.7179 1.1973 2.8555 0.41346 1.3976 0.47253 1.4799 0.89453 1.2617 0.25095-0.12977 0.31913-0.13483 0.38477-0.03125 0.04387 0.0692 0.080931 0.14614 0.082031 0.17188 0.01786 0.42307 0.22072 1.1768 0.37305 1.3828 0.2245 0.30365 0.17844 0.54183-0.12109 0.61719-0.20105 0.05058-0.20449 0.079097-0.21289 2.0449-0.0071 1.6739-0.041295 2.1511-0.21484 2.9766-0.25433 1.2096-0.59325 1.9518-1.1875 2.6094-0.30148 0.33359-0.39317 0.48487-0.27148 0.44727 0.10114-0.03125 0.46176-0.14222 0.80078-0.24609 0.65905-0.20192 1.2005-0.5415 1.8398-1.1562 0.46334-0.44552 0.51194-0.32706 0.15625 0.38672-0.14456 0.29008-0.4814 0.70269-0.83398 1.0234-0.5975 0.54354-1.3479 1.6228-0.99805 1.4355 0.09414-0.05039 0.42212-0.35996 0.72852-0.6875 0.3064-0.32754 0.68148-0.79183 0.83398-1.0332 0.1525-0.24137 0.31504-0.43936 0.35938-0.43945 0.10176-1.87e-4 0.001211 0.54979-0.2207 1.2109l-0.17188 0.50976 0.31055-0.36914c0.38252-0.4538 0.98242-1.5639 0.98242-1.8184 0-0.10317 0.037241-0.18945 0.082031-0.18945 0.063 0 0.25188-0.5108 0.3457-0.93555 0.0056-0.02574 0.038706-0.11028 0.072266-0.1875 0.03357-0.07723 0.07514-0.22321 0.09375-0.32617 0.0186-0.10296 0.05849-0.2509 0.08789-0.32812 0.02939-0.07723 0.07386-0.20403 0.09961-0.28125 0.03639-0.10911 0.048987-0.10387 0.054687 0.023438 0.0041 0.090102 0.043501 0.16406 0.087891 0.16406 0.13629 0 0.19416-0.94723 0.099609-1.6387-0.04928-0.36038-0.087684-0.92904-0.083984-1.2637 0.0076-0.67936-0.35105-2.5102-0.71094-3.623-0.4888-1.5115-1.7172-3.7809-2.502-4.625-0.17299-0.18605-0.72325-0.57798-1.2246-0.87305-0.80476-0.47363-0.942-0.52589-1.1641-0.44141-0.55634 0.21164-1.2544 0.19544-1.8574-0.042969-0.93478-0.36954-2.0814-0.68017-2.9512-0.79883-0.24718-0.03373-0.51539-0.050835-0.80273-0.052735zm-11.113 14.906-0.064453 0.56055c-0.20643 1.8062-0.26684 2.2751-0.44336 3.4629-0.10711 0.72075-0.31022 2.0463-0.45117 2.9473-0.37684 2.4088-0.30609 3.964 0.22461 4.9902 0.20198 0.39058 0.24608 0.25673 0.074219-0.22461-0.08099-0.22683-0.16652-0.70798-0.18945-1.0684-0.045801-0.7198-0.036476-0.70319 0.38281 0.60938 0.44816 1.4029 0.90043 2.1207 1.6641 2.6445 0.20638 0.14158 0.39488 0.25586 0.41992 0.25586s-0.14497-0.20302-0.37891-0.45312c-0.62476-0.66792-0.84792-1.1578-0.85742-1.8867-0.0072-0.55283 0.022637-0.6491 0.32031-1.0605 0.18019-0.24906 0.49265-0.68663 0.69531-0.97266 0.31003-0.43754 0.43874-0.50195 0.43164-0.34375-0.022642 0.50701-0.017017 0.88918-0.37695 1.6152-0.03739 0.075421 0.12251-0.003377 0.22656-0.2207 0.39279-0.82041 0.63102-1.2261 1.0996-2.5371 0.21594-0.60414 0.05325-3.2999-0.0625-3.6016-0.03056-0.07963-0.19745-0.19626-0.37305-0.25976-0.45286-0.16376-1.0879-0.8458-1.4043-1.5078-0.2114-0.44229-0.31692-0.56445-0.48047-0.56445-0.57962 0-0.67562-0.3575-0.20312-0.75195l0.30078-0.25195-0.27734-0.68945-0.27734-0.69141zm22.182 1.7773c-0.01638-0.007345-0.028604 0.07793-0.033204 0.2793-0.01968 0.86834-0.16207 1.2395-0.66211 1.7266-0.51235 0.49904-0.94457 0.66016-1.7715 0.66016h-0.57422l-0.015625 0.30469c-0.032 0.61142 0.025618 1.6221 0.11133 1.9414 0.04837 0.18019 0.31849 0.67895 0.59961 1.1074 0.61427 0.93625 0.8396 1.5538 0.8457 2.3262 0.003399 0.42878 0.028206 0.53813 0.097656 0.42188 0.05149-0.08617 0.088784-0.6846 0.083984-1.3281-0.0048-0.64353-0.011878-1.6732-0.017578-2.2891-0.0108-1.1759 0.025388-1.4344 0.11719-0.83203 0.20002 1.3124 0.45948 2.2108 0.91602 3.1602l0.49219 1.0195v0.96484c0 1.0928 0.050718 1.027 0.32226-0.4043 0.24259-1.2787 0.24294-2.1082 0-3.2188-0.13728-0.62752-0.20607-1.3631-0.24023-2.5645-0.042144-1.4823-0.2005-3.2436-0.27148-3.2754zm-19.545 1.8379c-0.07205-0.009374-0.064453 0.02525-0.064454 0.09375 0 0.05946 0.15906 0.26022 0.35352 0.44531 0.30494 0.29026 0.38264 0.43861 0.51172 1.0859 0.12345 0.61913 0.3063 1.3007 0.38672 1.8711 0.025825 0.18319 0.14378 1.0762 0.25 1.0762 0.042638 0 0.13037-0.23756 0.14258-0.5332 0.038-0.92016 0.002113-1.3339 0.033203-1.8301 0.00723-0.11543 0.027828-0.50296 0.048828-0.86133 0.043346-0.73958-0.046335-0.98633-0.35742-0.98633-0.11884 0-0.46049-0.084531-0.75976-0.1875-0.32006-0.11012-0.47283-0.16443-0.54492-0.17383zm-3.6602 0.27734c-0.00876-0.045823-0.035234 0.007151-0.083984 0.13086-0.30466 0.77311-0.6076 1.2354-1 1.5293-0.23167 0.17351-0.43662 0.35671-0.45508 0.40625-0.06245 0.16757 0.68719-0.2753 1.0801-0.63867 0.36466-0.33727 0.39265-0.40225 0.4375-0.9707 0.021142-0.26804 0.030284-0.41121 0.021484-0.45703z" fill="#5f5a6b" stroke-width=".093604"/>
  <path id="path934" d="m27.027 17.822c-0.12014 0.04087-0.1462 0.23525-0.19141 0.66406-0.1709 1.6209-1.0565 3.8414-2.002 5.0234-0.24744 0.30936-0.51274 0.77187-0.5918 1.0293-0.07894 0.25704-0.20607 0.47929-0.2832 0.49414-0.23263 0.0448-1.0283-0.53849-1.7949-1.3164-0.69377-0.70404-1.06-1.2911-1.5078-2.416-0.13092-0.32887-0.14998-0.33947-0.76367-0.40234-0.34587-0.035431-1.05-0.03561-1.5664 0l-0.93945 0.064453-0.30469 0.66602c-0.40355 0.87891-0.60851 1.501-0.67383 2.0508l-0.052734 0.45117 0.33203-0.22656c0.5155-0.34983 1.5913-0.66411 2.0312-0.59375 0.66174 0.10582 1.6702 0.53643 2.0352 0.86914l0.35547 0.32422-0.88281-0.10156 0.09961 0.25586c0.05518 0.14035 0.10783 0.52864 0.11523 0.86328 0.01663 0.74968-0.1981 1.4196-0.62109 1.7402-0.71633 0.54303-1.1464 0.41555-1.6777-0.15625-0.52961-0.56989-0.71005-1.9246-0.40039-2.5234 0.18847-0.36454 0.03635-0.36851-0.5293-0.009765-0.66245 0.42012-0.82848 0.68418-0.72461 1.1465 0.12039 0.5358 0.32728 1.0031 0.60352 1.3652 0.19375 0.25402 0.20862 0.31055 0.082031 0.31055-0.08477 0-0.28206-0.09049-0.4375-0.20117l-0.28125-0.20117 0.066406 0.22461c0.20414 0.68157 1.128 1.7256 1.7793 2.0117l0.28125 0.12305-0.32812 0.001954c-0.18019 9.45e-4 -0.58718-0.05227-0.90625-0.11914-0.31907-0.06687-0.56169-0.088608-0.53711-0.048828 0.02459 0.03978 0.349 0.28814 0.7207 0.55273l0.67578 0.48047-0.51172-0.066406-0.51367-0.066406 0.33594 0.40625c0.75538 0.9149 1.8711 1.451 4.6211 2.2188 0.92668 0.25873 1.7701 0.48948 1.873 0.51367s0.20126 0.048688 0.21875 0.054688 0.39595-0.11177 0.8418-0.26172c0.44585-0.14995 1.3158-0.42776 1.9336-0.61719 0.61779-0.18943 1.4612-0.50661 1.873-0.70703 0.76975-0.37458 1.84-1.1677 2.0137-1.4922 0.09224-0.17236 0.07162-0.17965-0.34961-0.13281l-0.44727 0.048829 0.23242-0.16797c0.12793-0.0925 0.3604-0.28284 0.51562-0.42188l0.28125-0.25195-0.8418 0.052734-0.84375 0.054687 0.43359-0.29297c0.81676-0.55288 1.6639-1.6442 1.6719-2.1543 0.0016-0.10819-0.027349-0.10644-0.16211 0.011719-0.15962 0.13996-0.71659 0.44726-0.81055 0.44726-0.02584 0 0.06174-0.11624 0.19336-0.25781 0.29698-0.31944 0.63257-0.97408 0.77734-1.5117 0.10374-0.38526 0.09721-0.41989-0.13672-0.66406-0.13612-0.14208-0.46159-0.37549-0.72266-0.51758l-0.47461-0.25781 0.083985 0.26953c0.04601 0.14882 0.082641 0.56524 0.082031 0.92578-0.0013 0.8051-0.36042 1.6425-0.82812 1.9277-0.41385 0.25235-1.0693 0.2363-1.4727-0.035156-0.62108-0.41801-0.94141-1.8363-0.59961-2.6543 0.13013-0.31146 0.1285-0.32884-0.023437-0.26758-0.0897 0.03617-0.33313 0.085499-0.53906 0.10938l-0.37305 0.042968 0.35742-0.32617c1.1577-1.0541 3.2047-1.1432 4.5957-0.19922l0.33594 0.22656v-0.55469c0-0.64969-0.17128-1.8809-0.28711-2.0684-0.06297-0.1019-0.16174-0.05215-0.45117 0.23047-0.20339 0.1986-0.40823 0.33755-0.45508 0.30859-0.04686-0.02895-0.162-0.28259-0.25781-0.56445-0.21187-0.62332-0.23851-0.63213-2.2012-0.66602-0.7465-0.01289-1.3766-0.05972-1.4023-0.10547-0.095971-0.17055 1.5933-0.33763 2.4336-0.24023 0.4376 0.05073 0.80559 0.082702 0.81836 0.070312 0.06651-0.06453-0.64946-1.0001-1.2754-1.666-0.51342-0.54621-0.85632-0.82103-1.2207-0.98242-0.14724-0.06522-0.25921-0.11375-0.3457-0.13672-0.06486-0.0172-0.11621-0.021442-0.15625-0.007812zm-6.8281 0.39844c-0.33476 0-1.6004 1.0377-2.1094 1.7285l-0.41602 0.56445 1.2031 0.050781c0.66189 0.0281 1.3035 0.059803 1.4258 0.070313 0.20349 0.01749 0.21725-0.0068 0.16016-0.28516-0.0343-0.16732-0.0897-0.71484-0.12109-1.2168-0.03139-0.50195-0.09549-0.91211-0.14258-0.91211zm3.709 9.7344c0.08273 0 0.14923 0.05283 0.14844 0.11719-0.0018 0.15178-0.18169 0.43494-0.18359 0.28906-7.4e-4 -0.06014-0.027344-0.17638-0.058594-0.25781-0.03728-0.09716-5e-3 -0.14844 0.09375-0.14844zm-2.2363 1.8262c0.08851 0.0044 0.2139 0.07647 0.35938 0.2168 0.16287 0.15711 0.42172 0.3516 0.57617 0.43164 0.15445 0.08004 0.21486 0.14617 0.13477 0.14648-0.08009 3.19e-4 -0.28844-0.10567-0.46289-0.23438-0.17445-0.12871-0.4145-0.23242-0.5332-0.23242-0.12551 0-0.21484-0.05828-0.21484-0.13672 0-0.13303 0.05212-0.19581 0.14062-0.19141zm4.3164 0.10352c0.06521-0.0251 0.11076-0.018142 0.14648 0.017578 0.12259 0.12259 0.02208 0.42936-0.11328 0.3457-0.05325-0.03292-0.28674 0.05125-0.53516 0.15234-0.71609 0.2914-1.7233 0.30388-2.5977 0.25195 1.2733-0.08698 1.7467 0.04303 2.8418-0.59375 0.12245-0.0712 0.19259-0.14872 0.25781-0.17383zm-0.10547 3.6133-1.6523 0.74609-0.79883-0.34375c-0.43978-0.18892-0.82954-0.30852-0.86524-0.26562s-0.1112 0.19164-0.16992 0.33008c-0.10021 0.23624-0.062934 0.30556 0.61914 1.1309 0.39968 0.48361 0.82139 1.0127 0.9375 1.1758 0.11611 0.16306 0.24886 0.29492 0.29492 0.29492 0.04607 0 0.49104-0.48484 0.98828-1.0781l0.9043-1.0781-0.12891-0.45508-0.12891-0.45703z" fill="#f9ead9" stroke-width=".093604"/>
  <path id="path930" d="m31.828 19.062c0.10096 0.0257 0.10188 0.20411 0.0059 0.53906-0.08011 0.27934-0.06126 0.32344 0.22656 0.54297 0.17215 0.13131 0.33773 0.30489 0.36914 0.38672 0.04901 0.12772-0.0078 0.14243-0.40234 0.0957l-0.45898-0.05469-0.15625 0.4082c-0.08578 0.22451-0.2165 0.45769-0.29102 0.51953-0.11548 0.09584-0.13672 0.03667-0.13672-0.4082 0-0.45921-0.02868-0.54148-0.24609-0.68945-0.13591-0.0925-0.37919-0.29117-0.53906-0.44141-0.33444-0.31429-0.22927-0.4081 0.27344-0.24219 0.32037 0.10573 0.34738 0.09588 0.74805-0.27344 0.30549-0.28163 0.50646-0.40851 0.60742-0.38281z" fill="#fff" stroke-width=".093604"/>
  <path id="path928" d="m28.236 24.68c0.26043-2e-6 0.38959 0.23535 0.25 0.45703-0.14084 0.22368-0.37695 0.23511-0.49023 0.02344-0.13906-0.25984-0.0288-0.48047 0.24023-0.48047z" fill="#fff" stroke-width=".093604"/>
  <path id="path926" d="m18.34 24.727c0.29527 0 0.4612 0.25862 0.29492 0.45898-0.15367 0.18516-0.46233 0.19327-0.53125 0.01367-0.09971-0.25983 0.0071-0.47266 0.23633-0.47266z" fill="#fff" stroke-width=".093604"/>
  <path id="path924" d="m28.881 25.709c-0.06541 0-0.1702 0.061749-0.23242 0.13672-0.20782 0.2504 0.11023 0.46008 0.34375 0.22656 0.12655-0.12656 0.054595-0.36328-0.11133-0.36328zm-9.8652 0.015625c-0.04481 0.00481-0.08935 0.022944-0.125 0.058594-0.14262 0.14262-0.0118 0.4142 0.18164 0.37695 0.08966-0.01727 0.17804-0.10565 0.19531-0.19531 0.027938-0.14508-0.11754-0.25468-0.25195-0.24024zm10.58 0.050782-0.13867 0.32812c-0.15065 0.36055-0.47318 0.63476-0.74805 0.63476-0.0966 0-0.2994-0.13064-0.44922-0.29102-0.22493-0.24078-0.29685-0.27144-0.41211-0.17578-0.21488 0.17833-0.16655 0.42525 0.14258 0.73438 0.41382 0.41382 1.0046 0.46267 1.4824 0.12305 0.12119-0.08614 0.3114-0.31246 0.42188-0.50391l0.20117-0.34766-0.25-0.25195-0.25-0.25zm-11.408 0.27148c-0.043407-0.017196-0.083967 0.013654-0.1543 0.083984-0.083774 0.08377-0.15234 0.20751-0.15234 0.27344 0 0.25353 0.4387 0.75929 0.75195 0.86719 0.40722 0.14026 0.35428 0.13909 0.76367 0.025391 0.60226-0.16726 0.95186-0.90199 0.53516-1.125-0.10737-0.05747-0.20367-0.089306-0.21484-0.072266s-0.093601 0.14635-0.18164 0.28711c-0.30242 0.48355-0.84397 0.42509-1.1797-0.12695-0.078649-0.12932-0.12456-0.1957-0.16797-0.21289z" fill="#f1d8a4" stroke-width=".093604"/>
  <path id="path900" d="m27.322 33.9-0.29883 0.37305c-0.16372 0.20593-0.82465 0.94366-1.4707 1.6387-0.64605 0.69501-1.4558 1.5881-1.7988 1.9844-0.79295 0.91599-1.7213 2.303-1.6074 2.4023 0.10754 0.0938 1.0036 0.29297 1.3164 0.29297 0.27359 0 0.94512-0.65045 1.5273-1.4805 0.37824-0.53922 0.38904-0.54586 1.1055-0.71094 0.88981-0.20503 1.7156-0.56084 1.9961-0.85938 0.12598-0.13409 0.30916-0.22134 0.45312-0.21484 0.19555 0.0088 0.20458 0.020554 0.052734 0.058594-0.10296 0.0258-0.33907 0.18362-0.52539 0.35156-0.38243 0.3447-1.0765 0.63024-1.9434 0.80078-0.47592 0.09363-0.6282 0.17079-0.80859 0.40625-0.12249 0.15988-0.48825 0.6232-0.8125 1.0293-0.90249 1.1303-0.87664 1.0879-0.67383 1.0879 0.09546 0 0.57445-0.39786 1.0645-0.88281 0.77299-0.76502 0.98464-0.91881 1.5938-1.1621 0.38612-0.15423 1.1659-0.46841 1.7324-0.69922 0.56652-0.23081 1.4925-0.52214 2.0586-0.64844 1.0713-0.239 1.2007-0.33181 0.94922-0.67578-0.12888-0.17626-0.14815-0.17728-0.90039-0.015626-0.42335 0.090981-0.83905 0.18692-0.92383 0.21289-0.13652 0.04183-0.13754 0.035862-0.007812-0.048828 0.08054-0.05258 0.44843-0.16391 0.81836-0.24805 0.36993-0.08414 0.67188-0.18639 0.67188-0.22656s-0.10836-0.23726-0.24219-0.4375c-0.56728-0.84882-1.1555-1.255-2.0039-1.3848-0.3303-0.05051-0.51759-0.1586-0.87109-0.50391l-0.45117-0.43945zm-6.2734 0.029297-0.31641 0.36914c-0.33183 0.38767-0.5043 0.479-1.3633 0.7168-0.65966 0.18262-0.90504 0.37502-1.4375 1.1367-0.47406 0.67814-0.49842 0.75762-0.26172 0.81641 0.090094 0.02244 0.048763 0.027096-0.091797 0.009766-0.18408-0.02267-0.28562 0.022603-0.36133 0.16406-0.11582 0.21642 0.004631 0.35668 0.31055 0.35938 0.46135 0.0041 3.8754 1.2814 4.4219 1.6543 0.15506 0.10583 0.20458 0.10406 0.31641-0.007812 0.07306-0.07306 0.11091-0.18959 0.083984-0.25977-0.02693-0.07017-0.32748-0.26367-0.66797-0.42969-0.34049-0.16602-0.61914-0.32116-0.61914-0.34375 0-0.06336 0.66424 0.22586 1.0234 0.44531l0.32226 0.19531 0.19336-0.26953c0.1064-0.14828 0.41331-0.53388 0.68359-0.85742 0.27028-0.32354 0.49219-0.62278 0.49219-0.66602 0-0.11539-0.73747-0.96476-1.7969-2.0664l-0.93164-0.9668z" fill="#e25868" stroke-width=".093604"/>
  <path id="path896" d="m16.852 37.971c0.09276-2.37e-4 0.63411 0.89782 1.1289 1.873 0.38588 0.76054 0.50964 1.112 0.55078 1.5586l0.05469 0.57812-0.30664-0.12695c-0.45303-0.18929-0.37109-0.09946 0.20312 0.22461 0.73004 0.41201 1.1735 0.834 1.377 1.3086 0.09766 0.22783 0.15664 0.43516 0.13086 0.46094s-0.28199-0.15829-0.57031-0.41016c-0.74745-0.65295-0.97858-0.78459-1.3789-0.78516-0.74613-1e-3 -1.3761 0.51948-1.377 1.1367-1.28e-4 0.09079-0.01975 0.15904-0.04883 0.21094h-0.26758c-0.02161-0.0284-0.04569-0.04758-0.0625-0.0918-0.11721-0.30828-0.11348-0.50635 0.01367-0.87109 0.12979-0.37232 0.3712-0.50429 0.7793-0.42773 0.17499 0.03275 0.4117 0.03026 0.52539-0.0059 0.18562-0.05891 0.16432-0.08388-0.20312-0.24805-0.53986-0.2412-0.90958-0.60587-0.97656-0.96289-0.02988-0.15925 0.03629-0.70878 0.14648-1.2227 0.24497-1.1424 0.33858-1.9948 0.17969-1.6367-0.05711 0.12871-0.20265 0.61283-0.32227 1.0762-0.15031 0.58226-0.23707 0.79081-0.2832 0.67383-0.11318-0.28702 0.50579-2.312 0.70703-2.3125z" fill="#6bccdc" stroke-width=".093604"/>
  <path id="path894" d="m31.543 37.992c0.13184 0.02421 1.0095 1.6626 1.0254 1.9141 0.0038 0.06009-0.18717 0.18427-0.42578 0.27539-0.23861 0.09113-0.68047 0.32437-0.98242 0.51953-0.30195 0.19516-0.54883 0.33331-0.54883 0.30664 0-0.02667 0.07945-0.2058 0.17773-0.39844 0.14508-0.28437 0.39778-1.2891 0.37891-1.5078-0.0025-0.02916-0.10305 0.19892-0.22266 0.50781-0.30336 0.78345-0.57177 1.2092-0.94531 1.4941-0.38766 0.29569-0.78322 0.94351-0.90234 1.4805-0.06596 0.29732-0.23105 0.54-0.66602 0.98047-0.23706 0.24004-0.36889 0.34564-0.48242 0.43555h-0.30078c-0.09267-0.1692-0.20224-0.49435-0.35742-1.0742-0.20565-0.76845-0.21609-0.88197-0.09375-1.0566 0.19561-0.27928 0.17252-0.87157-0.04687-1.1797-0.24765-0.34779-0.66353-0.50696-1.1758-0.44922-0.23082 0.02602-0.41797 0.02518-0.41797-0.0039 0-0.0291 0.09315-0.19535 0.20898-0.36719 0.23547-0.34931 0.44967-0.42667 2.2246-0.82617 0.59205-0.13326 1.349-0.2464 1.6836-0.25 0.6713-0.0073 0.91973-0.10091 1.4023-0.53516 0.17842-0.16054 0.38781-0.28012 0.4668-0.26562z" fill="#6bccdc" stroke-width=".093604"/>
  <path id="path892" d="m17.848 38.186c0.06189 0.01102 0.13852 0.03398 0.2168 0.06641 0.15656 0.06485 0.40185 0.11598 0.54297 0.11524 0.14112-7.6e-4 0.30451 0.03878 0.36523 0.08789 0.06072 0.0491 0.24464 0.10626 0.4082 0.12695 0.16356 0.0207 0.34544 0.07702 0.4043 0.125 0.05887 0.04798 0.31876 0.14958 0.57617 0.22656 0.47612 0.14239 1.4675 0.52226 1.5312 0.58594 0.01928 0.01926-0.1734 0.30279-0.42969 0.62891-0.7906 1.006-0.85264 1.2698-0.41211 1.7734l0.26953 0.30859-0.21289 0.85742c-0.10928 0.44304-0.20284 0.81224-0.23242 0.9121h-0.13477c-0.05388-0.05445-0.12034-0.13352-0.18945-0.23828-0.14833-0.22486-0.57533-0.81201-0.95117-1.3066-0.71257-0.9378-0.87695-1.2457-0.87695-1.6465 0-0.13173-0.16234-0.48327-0.36133-0.78125-0.34506-0.51673-0.7614-1.7132-0.63867-1.8359 0.01596-0.01597 0.06311-0.01688 0.125-0.0059z" fill="#6bccdc" stroke-width=".093604"/>
  <path id="path890" d="m33.5 39.771c0.2717-0.04112 0.20584 0.25742 0.01563 1.0391-0.2379 0.9776-0.51256 1.5817-1.041 2.2832-0.20245 0.26874-0.46279 0.53538-0.57812 0.59375-0.1795 0.09084-0.17274 0.07058 0.04687-0.14062 0.33314-0.32036 0.50098-0.66216 0.5625-1.1445 0.06713-0.52634-0.16053-0.87912-0.75976-1.1777-0.57979-0.28892-0.57672-0.29256 0.85547-1.0449 0.45115-0.237 0.73542-0.38353 0.89844-0.4082z" fill="#6bccdc" stroke-width=".093604"/>
  <path id="path888" d="m25.197 40.217c-0.1716 0-0.79427 0.62604-0.72852 0.73242 0.12929 0.2092 0.43121 0.11487 0.61914-0.19336 0.1952-0.32014 0.24022-0.53906 0.10938-0.53906zm0.95508 0.36328c-0.23611 8.47e-4 -0.49948 0.0965-0.73438 0.30273-0.39564 0.34738-0.41016 0.47585-0.083985 0.73242 0.26971 0.21216 0.87812 0.25929 1.293 0.10156 0.19506-0.07417 0.24024-0.15189 0.24024-0.41992 0-0.45564-0.32132-0.7182-0.71484-0.7168zm-4.1445 0.015625c-0.36781-0.006087-0.67364 0.21397-0.80078 0.63281-0.08139 0.2681 0.16387 0.67383 0.4082 0.67383 0.09589 0 0.2959 0.063715 0.44336 0.14062 0.38651 0.20158 0.44684 0.18376 0.86328-0.25391 0.42241-0.44394 0.41631-0.47596-0.21094-0.93164-0.23886-0.17353-0.48244-0.25802-0.70313-0.26172zm2.1035 0.67774c-0.19506 0.011251-0.39912 0.09978-0.63477 0.26758-0.28991 0.20644-0.82226 0.96205-0.82226 1.166 0 0.14044 0.55197 0.50181 0.76953 0.50391 0.08847 8.43e-4 0.49166-0.33328 0.89648-0.74414l0.73633-0.74805-0.35742-0.24805c-0.20542-0.14236-0.39284-0.20852-0.58789-0.19726zm2.3027 0.72461c-0.13731 7.5e-4 -0.34355 0.02621-0.45703 0.056641-0.19675 0.05275-0.1844 0.083815 0.25781 0.66797 0.25506 0.33692 0.46484 0.67156 0.46484 0.74414 0 0.07262 0.042259 0.10603 0.09375 0.074219 0.05148-0.03182 0.09375-0.17925 0.09375-0.32812-2e-6 -0.14888-0.045813-0.4842-0.10156-0.74414-0.09111-0.42484-0.12715-0.4718-0.35156-0.4707zm-1.2188 0.091797c-0.14393 0-0.85547 0.63056-0.85547 0.75781 0 0.035454 0.10285 0.089564 0.22852 0.12109 0.12566 0.03154 0.36397 0.24754 0.53125 0.48047 0.28999 0.40381 0.38374 0.45946 0.92383 0.54297 0.3461 0.05351 0.41903 0.022316 0.45117-0.19531 0.01599-0.10832-0.041103-0.33202-0.12695-0.49805-0.21385-0.41354-0.97226-1.209-1.1523-1.209zm-3.1992 0.25195c-0.37039-0.01743-0.40549 0.001612-0.47656 0.25976-0.0422 0.15327-0.09874 0.54676-0.125 0.87305l-0.042969 0.52539h0.3457c0.1156-0.038416 0.17866-0.10735 0.21289-0.31836 0.02923-0.18019 0.17146-0.53048 0.31641-0.77734 0.14495-0.24687 0.24274-0.47015 0.2168-0.49609-0.02593-0.02593-0.22732-0.056056-0.44726-0.066406zm2.3438 0.72461c-0.059254-0.00117-0.11801 0.015818-0.17969 0.048828-0.20202 0.10812-0.40857 0.65248-0.34375 0.88477h1.4004c-0.011707-0.054692-0.086534-0.16371-0.23828-0.375-0.27871-0.3881-0.46091-0.55509-0.63867-0.55859zm-1.7578 0.00586c-0.15835-0.02812-0.29491 0.13087-0.38086 0.45703-0.06234 0.23656-0.068885 0.37775-0.015625 0.4707h1.1211c0.03023-0.029132 0.059137-0.060043 0.091797-0.10156 0.24784-0.31508 0.20935-0.43024-0.16992-0.50781-0.16558-0.03386-0.38253-0.13616-0.48242-0.22656-0.056807-0.05141-0.11127-0.082396-0.16406-0.091796z" fill="#f0cabb" stroke-width=".093604"/>
  <path id="path880" d="m31.049 41.287c0.2087-0.02399 0.42435 0.0064 0.62891 0.10352 0.80254 0.38083 0.813 1.5394 0.01758 2.0605-0.27242 0.17849-0.84195 0.25047-1.1777 0.15039-0.2996-0.0893-0.65625-0.61739-0.65625-0.97266 0-0.70936 0.56139-1.2698 1.1875-1.3418z" fill="#f9ead9" stroke-width=".093604"/>
  <path id="path870" d="m18.076 42.922c0.37764 0.02851 0.80873 0.3291 1.5352 0.98633 0.05567 0.05037 0.04231 0.04681 0.08984 0.0918h-2.6172v-0.26758c0-0.31707 0.04631-0.4026 0.31836-0.58594 0.23937-0.16131 0.44724-0.24172 0.67383-0.22461z" fill="#f9ead9" stroke-width=".093604"/>
  <path id="rect817" d="m12 4c-4.432 0-8 3.568-8 8v24c0 4.432 3.568 8 8 8h24c4.432 0 8-3.568 8-8v-24c0-4.432-3.568-8-8-8h-24zm0 1h24c3.878 0 7 3.122 7 7v24c0 3.878-3.122 7-7 7h-24c-3.878 0-7-3.122-7-7v-24c0-3.878 3.122-7 7-7z" fill-rule="evenodd" opacity=".3" style="paint-order:stroke fill markers"/>
 </g>
</svg>
