<?xml version="1.0" encoding="UTF-8"?>
<!-- Created with Inkscape (http://www.inkscape.org/) -->
<svg id="SVGRoot" width="48px" height="48px" version="1.1" viewBox="0 0 48 48" xmlns="http://www.w3.org/2000/svg" xmlns:cc="http://creativecommons.org/ns#" xmlns:dc="http://purl.org/dc/elements/1.1/" xmlns:rdf="http://www.w3.org/1999/02/22-rdf-syntax-ns#" xmlns:xlink="http://www.w3.org/1999/xlink">
 <defs id="defs815">
  <style id="style819">.cls-1{fill:none;stroke:#fff;stroke-linecap:round;stroke-linejoin:round;}</style>
  <style id="style819-6">.cls-1{fill:none;stroke:#fff;stroke-linecap:round;stroke-linejoin:round;}</style>
  <style id="current-color-scheme" type="text/css">.ColorScheme-Text {
        color:#31363b;
      }
      .ColorScheme-Accent {
        color:#3daee9;
      }</style>
  <style id="style819-9">.cls-1{fill:none;stroke:#fff;stroke-linecap:round;stroke-linejoin:round;}</style>
  <style id="style819-6-6">.cls-1{fill:none;stroke:#fff;stroke-linecap:round;stroke-linejoin:round;}</style>
  <style id="current-color-scheme-9" type="text/css">.ColorScheme-Text {
        color:#31363b;
      }
      .ColorScheme-Accent {
        color:#3daee9;
      }</style>
  <style id="style819-0">.cls-1{fill:none;stroke:#fff;stroke-linecap:round;stroke-linejoin:round;}</style>
  <style id="style2">.a{fill:none;stroke:#b1b5bd;stroke-linecap:round;stroke-linejoin:round;isolation:isolate;opacity:0.63;}</style>
  <style id="style819-5">.cls-1{fill:none;stroke:#fff;stroke-linecap:round;stroke-linejoin:round;}</style>
  <style id="style819-2">.cls-1{fill:none;stroke:#fff;stroke-linecap:round;stroke-linejoin:round;}</style>
  <style id="style819-3">.cls-1{fill:none;stroke:#fff;stroke-linecap:round;stroke-linejoin:round;}</style>
  <style id="style819-36">.cls-1{fill:none;stroke:#fff;stroke-linecap:round;stroke-linejoin:round;}</style>
  <style id="style819-94">.cls-1{fill:none;stroke:#fff;stroke-linecap:round;stroke-linejoin:round;}</style>
  <style id="style819-4">.cls-1{fill:none;stroke:#fff;stroke-linecap:round;stroke-linejoin:round;}</style>
  <style id="style819-08">.cls-1{fill:none;stroke:#fff;stroke-linecap:round;stroke-linejoin:round;}</style>
  <style id="style819-9-7">.cls-1{fill:none;stroke:#fff;stroke-linecap:round;stroke-linejoin:round;}</style>
  <style id="style819-98">.cls-1{fill:none;stroke:#fff;stroke-linecap:round;stroke-linejoin:round;}</style>
  <style id="style819-0-8">.cls-1{fill:none;stroke:#fff;stroke-linecap:round;stroke-linejoin:round;}</style>
  <style id="style819-1">.cls-1{fill:none;stroke:#fff;stroke-linecap:round;stroke-linejoin:round;}</style>
  <style id="style819-7">.cls-1{fill:none;stroke:#fff;stroke-linecap:round;stroke-linejoin:round;}</style>
  <style id="style2-8">.a{fill:none;stroke:#b1b5bd;stroke-linecap:round;stroke-linejoin:round;isolation:isolate;opacity:0.63;}</style>
 </defs>
 <metadata id="metadata818">
  <rdf:RDF>
   <cc:Work rdf:about="">
    <dc:format>image/svg+xml</dc:format>
    <dc:type rdf:resource="http://purl.org/dc/dcmitype/StillImage"/>
    <dc:title/>
   </cc:Work>
  </rdf:RDF>
 </metadata>
 <g id="layer1">
  <rect id="rect1373-5" x="4" y="4" width="40" height="40" ry="8" fill="#b2f4d8" fill-rule="evenodd" style="paint-order:stroke fill markers"/>
  <path id="rect817" d="m12 4c-4.432 0-8 3.568-8 8v24c0 4.432 3.568 8 8 8h24c4.432 0 8-3.568 8-8v-24c0-4.432-3.568-8-8-8h-24zm0 1h24c3.878 0 7 3.122 7 7v24c0 3.878-3.122 7-7 7h-24c-3.878 0-7-3.122-7-7v-24c0-3.878 3.122-7 7-7z" fill-rule="evenodd" opacity=".3" style="paint-order:stroke fill markers"/>
  <path id="path833" d="m24 8c-5 0-9.9441 3.2579-11.959 11-1.041 4 3.959 7 3.959 7s-6 2-6 8c0 1.3744 0 2 1 4s2 2 2 2h22s1 0 2-2 1-2.6256 1-4c0-6-6-8-6-8s5-3 3.959-7c-2.0149-7.7421-6.959-11-11.959-11z" fill="#42435a"/>
  <path id="path837" d="m23.939 12v0.0039c-0.65698 0.008313-7.8035 0.5882-9.9395 6.9961-2 6 8.0605 9 8.0605 9l1.9395 3 1.9395-3s10.061-3 8.0605-9c-2.136-6.4079-9.2825-6.9878-9.9395-6.9961v-0.003906s-0.05447 0.0019-0.06055 2e-3c-0.0061-3.8e-5 -0.06055-2e-3 -0.06055-2e-3z" opacity=".3"/>
  <rect id="rect841" x="18" y="15" width="12" height="13" ry="6" fill="#f7d6ae" fill-rule="evenodd" style="paint-order:stroke fill markers"/>
  <path id="path863" d="m24 12c-5 0-8 4.2288-8 8 0 5 4 9 4 9s-1.61-4.7233-1-7c0.80385-3 3-4 3-4s-1 3 2 5c1-2 3.4641-3 4-1 0.61004 2.2767-1 7-1 7s4-4 4-9-3.4566-8-7-8z" fill="#6567af"/>
  <path id="path896" d="m10 38.663c0 1.3366 1 1.3366 1 1.3366h4l-1-4.0099s-4 0-4 2.6732z" fill="#f7d6ae"/>
  <path id="path896-7" d="m38 38.663c0 1.3366-1 1.3366-1 1.3366h-4l1-4.0099s4 0 4 2.6732z" fill="#f7d6ae"/>
  <path id="path835" d="m13 27 2 12h18l2-12z" fill="#b7bfc2" stroke="#b7bfc2" stroke-linecap="round" stroke-linejoin="round" stroke-width="2"/>
  <path id="path865" d="m21 35 3-4 3 4" fill="none" stroke="#fff" stroke-linecap="round" stroke-linejoin="round" stroke-width="2"/>
  <path id="rect1062" d="m6.252 40c1.2623 1.8145 3.3606 3 5.748 3h24c2.3875 0 4.4857-1.1855 5.748-3h-35.496z" fill-rule="evenodd" opacity=".3" style="paint-order:stroke fill markers"/>
 </g>
</svg>
