<?xml version="1.0" encoding="UTF-8"?>
<!-- Created with Inkscape (http://www.inkscape.org/) -->
<svg id="SVGRoot" width="48px" height="48px" version="1.1" viewBox="0 0 48 48" xmlns="http://www.w3.org/2000/svg" xmlns:cc="http://creativecommons.org/ns#" xmlns:dc="http://purl.org/dc/elements/1.1/" xmlns:rdf="http://www.w3.org/1999/02/22-rdf-syntax-ns#">
 <defs id="defs815">
  <style id="style819">.cls-1{fill:none;stroke:#fff;stroke-linecap:round;stroke-linejoin:round;}</style>
  <style id="style819-6">.cls-1{fill:none;stroke:#fff;stroke-linecap:round;stroke-linejoin:round;}</style>
  <style id="style2">.a{fill:none;stroke:#b1b5bd;stroke-linecap:round;stroke-linejoin:round;isolation:isolate;opacity:0.63;}</style>
 </defs>
 <metadata id="metadata818">
  <rdf:RDF>
   <cc:Work rdf:about="">
    <dc:format>image/svg+xml</dc:format>
    <dc:type rdf:resource="http://purl.org/dc/dcmitype/StillImage"/>
    <dc:title/>
   </cc:Work>
  </rdf:RDF>
 </metadata>
 <g id="layer1">
  <rect id="rect1373-5" x="4" y="4" width="40" height="40" ry="8" fill="#b072dd" fill-rule="evenodd" style="paint-order:stroke fill markers"/>
  <path id="rect817" d="m12 4c-4.432 0-8 3.568-8 8v24c0 4.432 3.568 8 8 8h24c4.432 0 8-3.568 8-8v-24c0-4.432-3.568-8-8-8h-24zm0 1h24c3.878 0 7 3.122 7 7v24c0 3.878-3.122 7-7 7h-24c-3.878 0-7-3.122-7-7v-24c0-3.878 3.122-7 7-7z" fill-rule="evenodd" opacity=".3" style="paint-order:stroke fill markers"/>
  <path id="path844" d="m19 20s-3-2-3-6c3 0 5 2 5 2" fill="none" stroke="#fff" stroke-linecap="round" stroke-linejoin="round" stroke-width="2"/>
  <path id="path844-0" d="m29 20s3-2 3-6c-3 0-5 2-5 2" fill="none" stroke="#fff" stroke-linecap="round" stroke-linejoin="round" stroke-width="2"/>
  <path id="path865" d="m28 27s7.1026-5.7947 9-2c1 2-1 3-1 3" fill="none" stroke="#703aa8" stroke-linecap="round" stroke-linejoin="round" stroke-width="2"/>
  <path id="path918" d="m12 34 12-22 12 22s-6-4-12-4-12 4-12 4z" fill="#fff" stroke="#fff" stroke-linecap="round" stroke-linejoin="round" stroke-width="2"/>
  <rect id="rect931" x="21" y="25" width="6" height="8" rx="3" ry="4" fill="#b072dd" fill-rule="evenodd" style="paint-order:stroke fill markers"/>
  <path id="path827" d="m18 18 3 3-4 1" fill="none" stroke="#382259" stroke-linecap="round" stroke-linejoin="round" stroke-width="1.5"/>
  <path id="path827-7" d="m30 18-3 3 4 1" fill="none" stroke="#382259" stroke-linecap="round" stroke-linejoin="round" stroke-width="1.5"/>
  <path id="path861" d="m21 23 1 2 2-2 2 2 1-2" fill="none" stroke="#382259" stroke-linecap="round" stroke-linejoin="round" stroke-width="1px"/>
  <path id="path863" d="m26 28s-10.464 5.5355-14 2c-2-2 2-4 2-4" fill="none" stroke="#703aa8" stroke-linecap="round" stroke-linejoin="round" stroke-width="2"/>
  <path id="path867" d="m36 28-9 3c-3 1-1 3-1 3" fill="none" stroke="#703aa8" stroke-linecap="round" stroke-linejoin="round" stroke-width="2"/>
 </g>
</svg>
