<?xml version="1.0" encoding="UTF-8"?>
<!-- Created with Inkscape (http://www.inkscape.org/) -->
<svg id="SVGRoot" width="48px" height="48px" version="1.1" viewBox="0 0 48 48" xmlns="http://www.w3.org/2000/svg" xmlns:cc="http://creativecommons.org/ns#" xmlns:dc="http://purl.org/dc/elements/1.1/" xmlns:rdf="http://www.w3.org/1999/02/22-rdf-syntax-ns#" xmlns:xlink="http://www.w3.org/1999/xlink">
 <defs id="defs815">
  <style id="style819">.cls-1{fill:none;stroke:#fff;stroke-linecap:round;stroke-linejoin:round;}</style>
  <style id="style819-6">.cls-1{fill:none;stroke:#fff;stroke-linecap:round;stroke-linejoin:round;}</style>
 </defs>
 <metadata id="metadata818">
  <rdf:RDF>
   <cc:Work rdf:about="">
    <dc:format>image/svg+xml</dc:format>
    <dc:type rdf:resource="http://purl.org/dc/dcmitype/StillImage"/>
    <dc:title/>
   </cc:Work>
  </rdf:RDF>
 </metadata>
 <g id="layer1">
  <rect id="rect1373" x="4" y="4" width="40" height="40" ry="8" fill="#71b9e3" fill-rule="evenodd" style="paint-order:stroke fill markers"/>
  <path id="rect817" d="m12 4c-4.432 0-8 3.568-8 8v24c0 4.432 3.568 8 8 8h24c4.432 0 8-3.568 8-8v-24c0-4.432-3.568-8-8-8h-24zm0 1h24c3.878 0 7 3.122 7 7v24c0 3.878-3.122 7-7 7h-24c-3.878 0-7-3.122-7-7v-24c0-3.878 3.122-7 7-7z" fill-rule="evenodd" opacity=".3" style="paint-order:stroke fill markers"/>
  <rect id="rect821-0" x="8" y="8" width="32" height="32" ry="5" fill="#4e4e4e" fill-rule="evenodd" style="paint-order:stroke fill markers"/>
  <path id="path844" d="m19 20s-3-2-3-6c3 0 5 2 5 2" fill="none" stroke="#fff" stroke-linecap="round" stroke-linejoin="round" stroke-width="2"/>
  <path id="path844-0" d="m29 20s3-2 3-6c-3 0-5 2-5 2" fill="none" stroke="#fff" stroke-linecap="round" stroke-linejoin="round" stroke-width="2"/>
  <path id="path918" d="m12 34 12-22 12 22s-6-4-12-4-12 4-12 4z" fill="#4e4e4e" stroke="#fff" stroke-linecap="round" stroke-linejoin="round" stroke-width="2"/>
  <path id="path827-5" d="m17.99 16.242c-0.74173-4.4e-5 -1.3765 0.48951-1.6211 1.0918-0.245 0.60336-0.12992 1.399 0.4043 1.916l0.80078 0.80078-0.99805 0.25c-0.48542 0.12098-0.91745 0.45982-1.1328 0.87109-0.21536 0.41127-0.24175 0.85418-0.14258 1.252 0.09918 0.39777 0.32971 0.77703 0.71289 1.0391 0.38318 0.26204 0.92473 0.35731 1.4102 0.23633l2.2715-0.56836c0.01043 0.19047-0.12466 0.36708-0.03125 0.54883l0.99414 1.9883c0.44369 0.89014 1.6984 1.0952 2.4023 0.39258l0.93945-0.93945 0.93945 0.93945c0.70397 0.7026 1.9587 0.49757 2.4023-0.39258l0.98242-1.9648c0.10269-0.18736-0.03574-0.37379-0.02344-0.57227l2.2754 0.56836c0.4854 0.12108 1.0269 0.02569 1.4102-0.23633 0.38323-0.26202 0.61371-0.64129 0.71289-1.0391 0.09918-0.39777 0.07273-0.84069-0.14258-1.252-0.21531-0.41126-0.64741-0.75002-1.1328-0.87109l-0.99805-0.25 0.80078-0.80078c0.54254-0.52419 0.6519-1.3348 0.39453-1.9414-0.25685-0.60542-0.91591-1.0882-1.668-1.0645-0.45314 0.0139-0.8849 0.20244-1.2012 0.52734l-2.9903 2.9903c-0.70404 0.70339-0.59709 1.8428 0.04883 2.4922-0.03893 0.06085-0.13982 0.0463-0.16992 0.11328l-0.05078 0.10156-0.5293-0.5293c-0.57739-0.57715-1.5437-0.57715-2.1211 0l-0.5293 0.5293-0.0625-0.125c-0.02745-0.05707-0.11449-0.04331-0.14844-0.0957 0.63884-0.65077 0.74022-1.7858 0.03906-2.4863l-2.9903-2.9903c-0.32965-0.33835-0.78337-0.52999-1.2558-0.5293zm9.5137 4.6055a1.0001 1.0001 0 0 0 0.0039 0.02148l-0.02148-0.0039zm-7.0059 2e-3 0.01563 0.01563-0.02344 0.0039a1.0001 1.0001 0 0 0 0.0078-0.01953z" color="#000000" color-rendering="auto" dominant-baseline="auto" fill="#fff" image-rendering="auto" shape-rendering="auto" solid-color="#000000" style="font-feature-settings:normal;font-variant-alternates:normal;font-variant-caps:normal;font-variant-ligatures:normal;font-variant-numeric:normal;font-variant-position:normal;isolation:auto;mix-blend-mode:normal;shape-padding:0;text-decoration-color:#000000;text-decoration-line:none;text-decoration-style:solid;text-indent:0;text-orientation:mixed;text-transform:none;white-space:normal"/>
  <path id="path827" d="m17.992 17.242a0.75008 0.75008 0 0 0-0.52344 1.2891l2.0625 2.0625-2.7129 0.67773a0.75082 0.75082 0 1 0 0.36328 1.457l4-1a0.75008 0.75008 0 0 0 0.34961-1.2598l-3-3a0.75008 0.75008 0 0 0-0.53906-0.22656z" color="#000000" color-rendering="auto" dominant-baseline="auto" fill="#4e4e4e" image-rendering="auto" shape-rendering="auto" solid-color="#000000" style="font-feature-settings:normal;font-variant-alternates:normal;font-variant-caps:normal;font-variant-ligatures:normal;font-variant-numeric:normal;font-variant-position:normal;isolation:auto;mix-blend-mode:normal;shape-padding:0;text-decoration-color:#000000;text-decoration-line:none;text-decoration-style:solid;text-indent:0;text-orientation:mixed;text-transform:none;white-space:normal"/>
  <path id="path827-7" d="m29.984 17.242a0.75008 0.75008 0 0 0-0.51562 0.22656l-3 3a0.75008 0.75008 0 0 0 0.34961 1.2598l4 1a0.75082 0.75082 0 1 0 0.36328-1.457l-2.7129-0.67773 2.0625-2.0625a0.75008 0.75008 0 0 0-0.54688-1.2891z" color="#000000" color-rendering="auto" dominant-baseline="auto" fill="#4e4e4e" image-rendering="auto" shape-rendering="auto" solid-color="#000000" style="font-feature-settings:normal;font-variant-alternates:normal;font-variant-caps:normal;font-variant-ligatures:normal;font-variant-numeric:normal;font-variant-position:normal;isolation:auto;mix-blend-mode:normal;shape-padding:0;text-decoration-color:#000000;text-decoration-line:none;text-decoration-style:solid;text-indent:0;text-orientation:mixed;text-transform:none;white-space:normal"/>
  <path id="path861" d="m21.008 22.494a0.50005 0.50005 0 0 0-0.45508 0.72852l1 2a0.50005 0.50005 0 0 0 0.80078 0.13086l1.6465-1.6465 1.6465 1.6465a0.50005 0.50005 0 0 0 0.80078-0.13086l1-2a0.50005 0.50005 0 1 0-0.89453-0.44531l-0.68945 1.3789-1.5098-1.5098a0.50005 0.50005 0 0 0-0.70703 0l-1.5098 1.5098-0.68945-1.3789a0.50005 0.50005 0 0 0-0.43945-0.2832z" color="#000000" color-rendering="auto" dominant-baseline="auto" fill="#4e4e4e" image-rendering="auto" shape-rendering="auto" solid-color="#000000" style="font-feature-settings:normal;font-variant-alternates:normal;font-variant-caps:normal;font-variant-ligatures:normal;font-variant-numeric:normal;font-variant-position:normal;isolation:auto;mix-blend-mode:normal;shape-padding:0;text-decoration-color:#000000;text-decoration-line:none;text-decoration-style:solid;text-indent:0;text-orientation:mixed;text-transform:none;white-space:normal"/>
 </g>
</svg>
