<?xml version="1.0" encoding="UTF-8"?>
<!-- Created with Inkscape (http://www.inkscape.org/) -->
<svg id="SVGRoot" width="48px" height="48px" version="1.1" viewBox="0 0 48 48" xmlns="http://www.w3.org/2000/svg" xmlns:cc="http://creativecommons.org/ns#" xmlns:dc="http://purl.org/dc/elements/1.1/" xmlns:rdf="http://www.w3.org/1999/02/22-rdf-syntax-ns#" xmlns:xlink="http://www.w3.org/1999/xlink">
 <defs id="defs815">
  <style id="style819">.cls-1{fill:none;stroke:#fff;stroke-linecap:round;stroke-linejoin:round;}</style>
  <style id="style819-1">.cls-1{fill:none;stroke:#fff;stroke-linecap:round;stroke-linejoin:round;}</style>
  <style id="style819-9">.cls-1{fill:none;stroke:#fff;stroke-linecap:round;stroke-linejoin:round;}</style>
  <style id="style2">.a{fill:none;stroke:#b1b5bd;stroke-linecap:round;stroke-linejoin:round;isolation:isolate;opacity:0.63;}</style>
  <style id="style819-5">.cls-1{fill:none;stroke:#fff;stroke-linecap:round;stroke-linejoin:round;}</style>
  <style id="style819-17">.cls-1{fill:none;stroke:#fff;stroke-linecap:round;stroke-linejoin:round;}</style>
  <style id="style819-8">.cls-1{fill:none;stroke:#fff;stroke-linecap:round;stroke-linejoin:round;}</style>
  <style id="style819-7">.cls-1{fill:none;stroke:#fff;stroke-linecap:round;stroke-linejoin:round;}</style>
  <style id="style819-9-1">.cls-1{fill:none;stroke:#fff;stroke-linecap:round;stroke-linejoin:round;}</style>
  <style id="style819-3">.cls-1{fill:none;stroke:#fff;stroke-linecap:round;stroke-linejoin:round;}</style>
  <style id="style819-16">.cls-1{fill:none;stroke:#fff;stroke-linecap:round;stroke-linejoin:round;}</style>
  <style id="style819-3-41">.cls-1{fill:none;stroke:#fff;stroke-linecap:round;stroke-linejoin:round;}</style>
  <style id="style819-1-6">.cls-1{fill:none;stroke:#fff;stroke-linecap:round;stroke-linejoin:round;}</style>
  <style id="style2-31">.a{fill:none;stroke:#b1b5bd;stroke-linecap:round;stroke-linejoin:round;isolation:isolate;opacity:0.63;}</style>
  <style id="style819-12">.cls-1{fill:none;stroke:#fff;stroke-linecap:round;stroke-linejoin:round;}</style>
  <style id="style819-0">.cls-1{fill:none;stroke:#fff;stroke-linecap:round;stroke-linejoin:round;}</style>
  <style id="style819-3-4">.cls-1{fill:none;stroke:#fff;stroke-linecap:round;stroke-linejoin:round;}</style>
  <style id="style819-1-7">.cls-1{fill:none;stroke:#fff;stroke-linecap:round;stroke-linejoin:round;}</style>
  <style id="style2-3">.a{fill:none;stroke:#b1b5bd;stroke-linecap:round;stroke-linejoin:round;isolation:isolate;opacity:0.63;}</style>
  <style id="style819-12-9">.cls-1{fill:none;stroke:#fff;stroke-linecap:round;stroke-linejoin:round;}</style>
  <style id="style819-09">.cls-1{fill:none;stroke:#fff;stroke-linecap:round;stroke-linejoin:round;}</style>
  <style id="style819-5-1">.cls-1{fill:none;stroke:#fff;stroke-linecap:round;stroke-linejoin:round;}</style>
 </defs>
 <metadata id="metadata818">
  <rdf:RDF>
   <cc:Work rdf:about="">
    <dc:format>image/svg+xml</dc:format>
    <dc:type rdf:resource="http://purl.org/dc/dcmitype/StillImage"/>
    <dc:title/>
   </cc:Work>
  </rdf:RDF>
 </metadata>
 <g id="layer1">
  <rect id="rect1373" x="4" y="4" width="40" height="40" ry="8" fill="#efefef" fill-rule="evenodd" style="paint-order:stroke fill markers"/>
  <path id="rect817" d="m12 4c-4.432 0-8 3.568-8 8v24c0 4.432 3.568 8 8 8h24c4.432 0 8-3.568 8-8v-24c0-4.432-3.568-8-8-8h-24zm0 1h24c3.878 0 7 3.122 7 7v24c0 3.878-3.122 7-7 7h-24c-3.878 0-7-3.122-7-7v-24c0-3.878 3.122-7 7-7z" fill-rule="evenodd" opacity=".3" style="paint-order:stroke fill markers"/>
  <path id="path1107" d="m12 6 6 8h12l6-8z" opacity=".3"/>
  <path id="path1109" d="m11.873 6.0059c-3.2643 0.067785-5.873 2.713-5.873 5.9941v3.8828c1.9299 1.4342 7.0011 4.1172 18 4.1172l-12.127-13.994z" fill="#4559a5"/>
  <path id="path1113" d="m6.2148 10.426c-0.09168 0.33973-0.1565 0.68959-0.1875 1.0508 1.4051 0.85291 3.6116 1.9929 6.8145 3.0605 2.728 0.90934 5.4168 1.2452 7.5957 1.3535l-0.91211-1.0527c-1.913-0.15384-4.1414-0.50611-6.3672-1.248-3.544-1.1813-5.7015-2.3671-6.9434-3.1641zm-0.21484 2.084v1.1641c1.4032 0.85476 3.6155 2.0007 6.8418 3.0762 3.6275 1.2092 7.2089 1.4204 9.5547 1.3984l-0.87109-1.002c-2.2406-0.039849-5.2979-0.32065-8.3672-1.3438-3.7247-1.2416-5.9597-2.502-7.1582-3.293z" color="#000000" color-rendering="auto" dominant-baseline="auto" fill="#fff" image-rendering="auto" opacity=".6" shape-rendering="auto" solid-color="#000000" style="font-feature-settings:normal;font-variant-alternates:normal;font-variant-caps:normal;font-variant-ligatures:normal;font-variant-numeric:normal;font-variant-position:normal;isolation:auto;mix-blend-mode:normal;shape-padding:0;text-decoration-color:#000000;text-decoration-line:none;text-decoration-style:solid;text-indent:0;text-orientation:mixed;text-transform:none;white-space:normal"/>
  <path id="path1244" d="m15 19-2 4 2 3 4-1-3 6 5 5 3-11 3 11 5-5-3-6 4 1 2-3-2-4-9 1z" fill="#d35244"/>
  <path id="path1258" d="m14 21 3 3 7-2zm10 1 7 2 3-3zm-5 2 1 1-1 5 3.4004-4 1.5996-1zm5 1 1.5996 1 3.4004 4-1-5 1-1z" opacity=".25"/>
  <path id="path1109-4" d="m36.127 6.0059c3.2643 0.067785 5.873 2.713 5.873 5.9941v3.8828c-1.9299 1.4342-7.0011 4.1172-18 4.1172z" fill="#4559a5"/>
  <path id="path1113-9" d="m41.785 10.426c0.09168 0.33973 0.1565 0.68959 0.1875 1.0508-1.4051 0.85291-3.6116 1.9929-6.8145 3.0605-2.728 0.90934-5.4168 1.2452-7.5957 1.3535l0.91211-1.0527c1.913-0.15384 4.1414-0.50611 6.3672-1.248 3.544-1.1813 5.7015-2.3671 6.9434-3.1641zm0.21484 2.084v1.1641c-1.4032 0.85476-3.6155 2.0007-6.8418 3.0762-3.6275 1.2092-7.2089 1.4204-9.5547 1.3984l0.87109-1.002c2.2406-0.03985 5.2979-0.32065 8.3672-1.3438 3.7247-1.2416 5.9597-2.502 7.1582-3.293z" color="#000000" color-rendering="auto" dominant-baseline="auto" fill="#fff" image-rendering="auto" opacity=".6" shape-rendering="auto" solid-color="#000000" style="font-feature-settings:normal;font-variant-alternates:normal;font-variant-caps:normal;font-variant-ligatures:normal;font-variant-numeric:normal;font-variant-position:normal;isolation:auto;mix-blend-mode:normal;shape-padding:0;text-decoration-color:#000000;text-decoration-line:none;text-decoration-style:solid;text-indent:0;text-orientation:mixed;text-transform:none;white-space:normal"/>
 </g>
</svg>
