<?xml version="1.0" encoding="UTF-8"?>
<!-- Created with Inkscape (http://www.inkscape.org/) -->
<svg id="SVGRoot" width="48px" height="48px" version="1.1" viewBox="0 0 48 48" xmlns="http://www.w3.org/2000/svg" xmlns:cc="http://creativecommons.org/ns#" xmlns:dc="http://purl.org/dc/elements/1.1/" xmlns:rdf="http://www.w3.org/1999/02/22-rdf-syntax-ns#" xmlns:xlink="http://www.w3.org/1999/xlink">
 <defs id="defs815">
  <style id="style819">.cls-1{fill:none;stroke:#fff;stroke-linecap:round;stroke-linejoin:round;}</style>
  <style id="style819-6">.cls-1{fill:none;stroke:#fff;stroke-linecap:round;stroke-linejoin:round;}</style>
  <style id="style819-8">.cls-1{fill:none;stroke:#fff;stroke-linecap:round;stroke-linejoin:round;}</style>
  <style id="style819-4">.cls-1{fill:none;stroke:#fff;stroke-linecap:round;stroke-linejoin:round;}</style>
  <style id="style819-5">.cls-1{fill:none;stroke:#fff;stroke-linecap:round;stroke-linejoin:round;}</style>
  <style id="style2">.a{fill:none;stroke:#b1b5bd;stroke-linecap:round;stroke-linejoin:round;isolation:isolate;opacity:0.63;}</style>
  <style id="style819-1">.cls-1{fill:none;stroke:#fff;stroke-linecap:round;stroke-linejoin:round;}</style>
  <style id="style819-6-4">.cls-1{fill:none;stroke:#fff;stroke-linecap:round;stroke-linejoin:round;}</style>
  <style id="style2-9">.a{fill:none;stroke:#b1b5bd;stroke-linecap:round;stroke-linejoin:round;isolation:isolate;opacity:0.63;}</style>
  <style id="style819-1-5">.cls-1{fill:none;stroke:#fff;stroke-linecap:round;stroke-linejoin:round;}</style>
  <style id="style819-0">.cls-1{fill:none;stroke:#fff;stroke-linecap:round;stroke-linejoin:round;}</style>
 </defs>
 <metadata id="metadata818">
  <rdf:RDF>
   <cc:Work rdf:about="">
    <dc:format>image/svg+xml</dc:format>
    <dc:type rdf:resource="http://purl.org/dc/dcmitype/StillImage"/>
    <dc:title/>
   </cc:Work>
  </rdf:RDF>
 </metadata>
 <g id="layer1">
  <rect id="rect1373-5" x="4" y="4" width="40" height="40" ry="8" fill="#e9bf73" fill-rule="evenodd" style="paint-order:stroke fill markers"/>
  <path id="rect817" d="m12 4c-4.432 0-8 3.568-8 8v24c0 4.432 3.568 8 8 8h24c4.432 0 8-3.568 8-8v-24c0-4.432-3.568-8-8-8h-24zm0 1h24c3.878 0 7 3.122 7 7v24c0 3.878-3.122 7-7 7h-24c-3.878 0-7-3.122-7-7v-24c0-3.878 3.122-7 7-7z" fill-rule="evenodd" opacity=".3" style="paint-order:stroke fill markers"/>
  <path id="rect1373" d="m33.277 29.959c1.5043-0.05666 3.2432 0.65926 4.6406 2.0566 2.2358 2.2358 2.7276 5.3447 1.1016 6.9707-1.626 1.626-4.7368 1.1362-6.9727-1.0996s-2.7257-5.3447-1.0996-6.9707c0.60977-0.60977 1.4275-0.92304 2.3301-0.95703z" fill-rule="evenodd" opacity=".3" style="paint-order:stroke fill markers"/>
  <path id="path885" d="m14.373 25.752c-1.2411-2.45e-4 -1.4619 2.1832-2.6094 2.6562-1.1842 0.4882-3.4523-1.2671-3.8418-0.04687-0.30407 0.95271 2.1616 0.75468 2.4668 1.707 0.32817 1.0241-1.3359 1.9898-1.0918 3.0371 0.14468 0.62078 1.2433 0.70488 1.377 1.3281 0.16067 0.74934-0.36124 1.5474-0.85352 2.1348-0.44251 0.52796-1.4212 0.48773-1.7559 1.0898-0.16901 0.30406-0.24598 0.79894 0 1.0449 0.21244 0.21244 0.62776 0.12622 0.90039 0 0.621-0.28751 0.69759-1.3004 1.3281-1.5664 0.42351-0.17864 1.0289-0.20453 1.377 0.0957 0.50258 0.43354 0.43346 1.2797 0.42578 1.9434-0.0077 0.66726-1.087 1.6802-0.47461 1.9453 0.79691 0.345 0.61879-1.8561 1.4238-2.1816 0.85701-0.34661 1.8009 0.80957 2.7051 0.61719 0.54132-0.11517 0.8229-0.7702 1.3281-0.99609 0.36803-0.16455 0.89084 0.03679 1.1855-0.23828 0.39539-0.36906 0.08946-1.1409 0.42578-1.5645 0.70391-0.88652 2.3568-0.6738 2.9883-1.6133 0.32828-0.48839 0.3844-1.1999 0.19141-1.7559-1.1698-3.3696-3.9292-7.636-7.4961-7.6367zm6.0723 11.053c-0.5444-0.08317-0.99228 0.73287-1.043 1.2812-0.03648 0.39457 0.17399 1.0043 0.56836 1.043 0.49164 0.04818 0.87193-0.65076 0.94922-1.1387 0.06662-0.42052-0.05373-1.1212-0.47461-1.1855z" fill="#f68d59"/>
  <path id="path881" d="m19.48 24.873c-0.86327-0.01404-1.6711 0.17863-2.3555 0.68945-1.4211 1.0608-1.3042 3.5779-0.75977 5.2656 0.18882 0.58536 1.0693 0.75072 1.2812 1.3281 0.25657 0.6991-0.78208 1.8469-0.14258 2.2285 0.51241 0.30574 0.92334-1.0013 1.5176-0.94727 0.49045 0.0446 0.61262 0.88243 1.0918 0.99609 0.51143 0.12132 1.0039-0.53902 1.5176-0.42774 0.64703 0.14017 0.85558 1.274 1.5176 1.2812 0.62968 7e-3 0.84099-1.1884 1.4707-1.1855 1.4941 0.0069 2.2302 3.69 3.4629 2.8457 1.1675-0.79963-2.0722-2.8275-1.3281-4.0312 0.3445-0.55733 1.6344 0.29158 1.9453-0.28516 0.37261-0.69118-1.3852-1.4527-0.99609-2.1348 0.32279-0.56578 1.773 0.43872 1.9453-0.18945 0.31126-1.1346-1.9409-1.3359-2.8457-2.0879-0.55058-0.45762-0.92164-1.1595-1.5664-1.4707-1.6919-0.81663-3.8567-1.8441-5.7559-1.875zm-4.0586 10.18c-0.52033-0.01448-1.0629 0.71014-1.334 1.2051-0.268 0.48935-0.591 1.3785-0.11524 1.6699 0.57261 0.35076 1.4052-0.44556 1.7266-1.0352 0.28492-0.5227 0.47927-1.5259-0.05664-1.7852-0.07257-0.0351-0.14637-0.05262-0.2207-0.05469z" fill="#ffdd75"/>
  <path id="path885-2" d="m8.0645 28.117c-0.05873 0.06403-0.10935 0.14004-0.14258 0.24414-0.29672 0.92968 2.0386 0.76622 2.4355 1.6426 0.06958-0.20989 0.09973-0.42107 0.03125-0.63476-0.24218-0.75573-1.8247-0.79517-2.3242-1.252zm1.2852 4.4043c-0.063662 0.19281-0.098804 0.38631-0.052734 0.58398 0.14014 0.60131 1.1673 0.70341 1.3535 1.2754 0.04897-0.21608 0.06936-0.4323 0.02344-0.64648-0.12442-0.5803-1.0756-0.69901-1.3242-1.2129zm12.592 1.1953c-0.04227 0.26284-0.1223 0.51819-0.26367 0.72852-0.63149 0.93948-2.2844 0.72677-2.9883 1.6133-0.33632 0.42358-0.03039 1.1954-0.42578 1.5645-0.2947 0.27507-0.81752 0.07373-1.1855 0.23828-0.50523 0.22589-0.78681 0.88092-1.3281 0.99609-0.90421 0.19238-1.8481-0.9638-2.7051-0.61719-0.80503 0.32559-0.62692 2.5266-1.4238 2.1816-0.01914-0.0083-0.02314-0.02349-0.03906-0.0332-0.16346 0.32972-0.24116 0.6111 0.03906 0.73242 0.79691 0.345 0.61879-1.8561 1.4238-2.1816 0.85701-0.34661 1.8009 0.80957 2.7051 0.61719 0.54132-0.11517 0.8229-0.7702 1.3281-0.99609 0.36803-0.16455 0.89084 0.03679 1.1855-0.23828 0.39539-0.36906 0.08946-1.1409 0.42578-1.5645 0.70391-0.88652 2.3568-0.6738 2.9883-1.6133 0.26703-0.39726 0.34439-0.93903 0.26367-1.4277zm-10.932 2.5879c-0.24779-0.0087-0.50504 0.04349-0.7168 0.13281-0.63053 0.26596-0.70712 1.2789-1.3281 1.5664-0.27263 0.12622-0.68795 0.21244-0.90039 0-0.039611-0.03961-0.058205-0.09385-0.082031-0.14453-0.10009 0.29122-0.11599 0.64573 0.082031 0.84375 0.21244 0.21244 0.62776 0.12622 0.90039 0 0.621-0.28751 0.69759-1.3004 1.3281-1.5664 0.42351-0.17864 1.0289-0.20453 1.377 0.0957 0.33749 0.29113 0.41022 0.7689 0.42383 1.252 5.9e-5 -0.0025 0.0019-0.0053 2e-3 -0.0078 0.0077-0.6637 0.0768-1.5098-0.42578-1.9434-0.17402-0.15012-0.41236-0.21979-0.66016-0.22852zm9.8809 1.0918c-0.10935 0.4775-0.46141 1.0781-0.91992 1.0332-0.25676-0.02516-0.42631-0.29556-0.50976-0.58789-0.02123 0.08255-0.05162 0.16869-0.05859 0.24414-0.03648 0.39457 0.17399 1.0043 0.56836 1.043 0.49164 0.04818 0.87193-0.65076 0.94922-1.1387 0.02737-0.17278 0.01433-0.38994-0.0293-0.59375z" opacity=".25"/>
  <path id="path875" d="m11.131 16.586c-0.12583-0.0089-0.2489 0.0081-0.36328 0.05859-0.42746 0.18855-0.6971 0.83214-0.56836 1.2812 0.19457 0.67875 1.2381 0.70545 1.7559 1.1855 0.35492 0.32911 0.92839 0.65546 0.90039 1.1387-0.03363 0.58044-1.2228 0.65113-1.2344 1.2324-0.01118 0.55938 1.3188 0.70467 1.1387 1.2344-0.36156 1.0632-3.2022-0.54842-3.3203 0.56836-0.10746 1.0162 2.4451 0.19946 2.8477 1.1387 0.2348 0.54787-0.93488 1.1282-0.66602 1.6602 0.36848 0.72908 1.9145-0.05885 2.373 0.61719 0.71565 1.055-1.6497 3.3006-0.47461 3.7949 0.81947 0.34469 0.79731-1.8738 1.6602-2.0879 0.53604-0.133 1.0793 0.32796 1.5176 0.66406 0.64274 0.49292 0.71153 1.9782 1.5176 1.8984 0.51375-0.05087 0.39918-0.96693 0.71289-1.377 0.15641-0.20443 0.31699-0.57691 0.56836-0.52148 0.40148 0.08853 0.14647 0.891 0.47461 1.1387 0.43207 0.32612 1.1994 0.53841 1.6133 0.18945 0.45999-0.38788 0.47199-1.3348 0.09375-1.8027-0.25166-0.31134-1.1387-0.43746-1.4688-0.66406-0.46728-0.32084-0.8578-0.50758-0.57031-0.99609 0.279-0.4741 2.2816-0.51071 3.5098-0.04687 0.55683 0.2103 0.93252 0.70809 1.5195 0.80664 0.41988 0.07049 0.94125-0.26507 1.0898-0.66406 0.1623-0.43581-0.03415-1.0773-0.42578-1.3281-0.44264-0.28346-1.1412 0.49848-1.5664 0.18945-1.1991-0.87148-0.04302-3.1241-0.85352-4.3652-0.37894-0.58027-1.1509-0.77196-1.707-1.1855-0.71335-0.53054-1.2072-1.5386-2.0879-1.6602-0.84946-0.11726-1.5139 1.018-2.3711 0.99609-0.47369-0.0121-0.82828-0.47811-1.2812-0.61719-0.82516-0.25336-1.8731 0.14047-2.5625-0.37891-0.45782-0.34488-0.28495-1.181-0.71094-1.5645-0.27872-0.25092-0.68306-0.50658-1.0605-0.5332zm-3.5586 10.77c-0.4854-0.09901-1.1788 0.24544-1.2969 0.72656-0.12799 0.52162 0.35478 1.2514 0.88281 1.3496 0.52364 0.09737 1.2202-0.40652 1.2969-0.93359 0.069192-0.47569-0.41181-1.0465-0.88281-1.1426zm2.6406 0.23828c-0.09264 0.01039-0.17991 0.03462-0.25391 0.07422-0.24627 0.1318-0.42618 0.52308-0.31055 0.77734 0.15166 0.33349 0.71242 0.53297 1.0371 0.36328 0.28626-0.14961 0.42558-0.65759 0.25781-0.93359-0.13078-0.21515-0.45254-0.31241-0.73047-0.28125z" fill="#96d56b"/>
  <path id="path891" d="m34.486 7.584c-0.38556-0.018889-0.87002 0.28625-0.94922 0.66406-0.08735 0.4167 0.23917 1.0646 0.66406 1.0918 0.5052 0.032365 0.99659-0.68348 0.94922-1.1875-0.02728-0.29029-0.37285-0.55409-0.66406-0.56836zm-3.1094 2.8574c-0.07127-6.4e-4 -0.14198 0.0096-0.21094 0.03516-0.45684 0.16904-0.50958 0.97023-0.33203 1.4238 0.2158 0.55134 0.92213 1.2188 1.4707 0.99609 0.43387-0.17616 0.45318-0.93792 0.28516-1.375-0.1847-0.48044-0.71402-1.0756-1.2129-1.0801zm8.5645 0.50977c-0.52773 0.02799-1.0147 0.70623-0.99609 1.2344 0.02201 0.62615 0.6574 1.4329 1.2812 1.375 0.5591-0.0519 0.96226-0.86574 0.90039-1.4238-0.0616-0.55565-0.62728-1.2152-1.1855-1.1855zm-4.8359 2.2461c-0.5428 0.02767-1.1239 0.34974-1.4727 0.74219-0.31106 0.35002 0.15124 1.2072-0.28516 1.377-0.78115 0.30394-1.3408-0.96557-2.1348-1.2344-1.5882-0.53774-3.3436-0.91149-4.9336-0.37891-1.3441 0.45022-3.0531 1.2642-3.3203 2.6562-0.15087 0.78585 1.0623 1.2972 1.1855 2.0879 0.23638 1.5168-1.605 3.1188-0.94726 4.5059 0.64849 1.3675 2.5211 1.988 4.0312 2.0879 0.83846 0.05546 1.5821-0.5699 2.373-0.85352 0.66382-0.23802 1.8139-0.03061 1.9922-0.71289 0.16436-0.62892-1.2517-0.82134-1.2812-1.4707-0.01598-0.35073 0.55766-0.50751 0.61719-0.85352 0.11453-0.66572-1.1194-1.5519-0.57031-1.9453 0.73817-0.52887 1.3284 1.6702 2.2305 1.5664 1.3906-0.16006 1.8009-2.1492 2.7988-3.1309 0.55142-0.54245 1.6125-0.75711 1.7539-1.5176 0.19661-1.0571-0.51886-2.4493-1.5176-2.8477-0.16256-0.06484-0.3386-0.08735-0.51953-0.07813zm-1.4746 11.096c-0.04794 0.0033-0.09478 0.01395-0.14062 0.03516-0.42234 0.19532-0.45447 0.96593-0.23633 1.377 0.25214 0.47509 1.0392 0.98508 1.4707 0.66406 0.38398-0.28564 0.07279-1.0248-0.19141-1.4238-0.19518-0.2948-0.56674-0.67535-0.90234-0.65234z" fill="#f280a3"/>
  <path id="path891-6" d="m35.059 7.9219c-0.15758 0.38638-0.49981 0.74166-0.85742 0.71875-0.26108-0.016725-0.47038-0.27277-0.58398-0.56055-0.03076 0.055079-0.06756 0.10827-0.08008 0.16797-0.08735 0.4167 0.23917 1.0646 0.66406 1.0918 0.5052 0.032365 0.99659-0.68348 0.94922-1.1875-0.0076-0.08103-0.04269-0.15842-0.0918-0.23047zm-4.2695 3.082c-0.07153 0.2974-0.05307 0.64613 0.04492 0.89648 0.2158 0.55134 0.92213 1.2188 1.4707 0.99609 0.3757-0.15254 0.43049-0.73413 0.33203-1.1738-0.05276 0.21337-0.14967 0.40057-0.33203 0.47461-0.54857 0.22273-1.2549-0.44476-1.4707-0.99609-0.02243-0.0573-0.03019-0.13085-0.04492-0.19727zm8.2285 0.77539c-0.04983 0.13636-0.07684 0.27614-0.07227 0.40625 0.02201 0.62615 0.6574 1.4329 1.2812 1.375 0.5591-0.0519 0.96226-0.86574 0.90039-1.4238-0.0069-0.06202-0.03987-0.12595-0.05859-0.18945-0.12674 0.44525-0.44113 0.87687-0.8418 0.91406-0.52995 0.04919-1.0455-0.52406-1.209-1.082zm-5.4824 2.3945c-0.01257 0.07122-0.01381 0.14871-0.01172 0.22852 0.01722-0.06515 0.01283-0.14811 0.01172-0.22852zm3.6074 1.25c-0.14144 0.76047-1.2025 0.97512-1.7539 1.5176-0.9979 0.98167-1.4082 2.9708-2.7988 3.1309-0.90212 0.10383-1.4923-2.0953-2.2305-1.5664-0.22685 0.16253-0.14535 0.41097 0.01563 0.69141 0.73082-0.48665 1.3192 1.6773 2.2148 1.5742 1.3906-0.16006 1.8009-2.1492 2.7988-3.1309 0.55142-0.54245 1.6125-0.75711 1.7539-1.5176 0.04134-0.22228 0.03347-0.45966 0-0.69922zm-14.109 0.70898c-0.02429 0.07567-0.05898 0.14717-0.07422 0.22656-0.14726 0.76702 0.99808 1.2743 1.168 2.0332 0.03624-0.21591 0.05083-0.43116 0.01758-0.64453-0.09676-0.6209-0.85866-1.0706-1.1113-1.6152zm7.791 4.5176c-0.18036 0.22133-0.52425 0.37922-0.51172 0.6543 0.0064 0.13974 0.08424 0.25501 0.18945 0.36133 0.16878-0.15882 0.39112-0.3028 0.42774-0.51562 0.02708-0.1574-0.02318-0.32739-0.10547-0.5zm-7.7285 1.3027c-0.05982 0.3421-0.05143 0.67739 0.10156 1 0.64849 1.3675 2.5211 1.988 4.0312 2.0879 0.83846 0.05546 1.5821-0.5699 2.373-0.85352 0.66382-0.23802 1.8139-0.03061 1.9922-0.71289 0.04496-0.17203-0.03715-0.31055-0.16797-0.43555-0.3833 0.35532-1.2698 0.2504-1.8242 0.44922-0.79097 0.28362-1.5346 0.90898-2.373 0.85352-1.5101-0.0999-3.3828-0.72042-4.0312-2.0879-0.04685-0.09879-0.07842-0.19992-0.10156-0.30078zm10.086 2.8242c-0.08379 0.3056-0.06034 0.67788 0.07227 0.92773 0.25214 0.47509 1.0392 0.98508 1.4707 0.66406 0.22505-0.16741 0.20078-0.48939 0.09766-0.80859-0.02616 0.0403-0.05629 0.07861-0.09766 0.10938-0.43154 0.32102-1.2186-0.18898-1.4707-0.66406-0.03446-0.06494-0.05085-0.14932-0.07227-0.22852z" opacity=".25"/>
  <path id="path930" d="m12.713 24.376c-0.15743-0.87282 0.40572-1.7298 0.52181-2.609 0.0954-0.72264-0.44744-1.7537 0.14231-2.1821 0.72608-0.5274 1.7427 0.43014 2.609 0.66412 1.0002 0.27012 3.0705-0.17893 2.9885 0.85386-0.10458 1.3178-2.7035-3.06e-4 -3.9373 0.47437-0.30709 0.11815-0.61678 0.30036-0.80643 0.56924-0.64349 0.91232 0.20405 3.0689-0.9013 3.2257-0.38666 0.05485-0.54736-0.61184-0.61668-0.99618z" fill="#fff" opacity=".25"/>
  <path id="path889" d="m16.365 7.1562c-0.38312-0.1024-0.71761 0.33781-1.0898 0.47461-0.51177 0.18808-1.5267-0.069184-1.5664 0.47461-0.06483 0.8889 1.6788 0.64368 2.4199 1.1387 0.39096 0.26111 0.59768 1.1 1.043 0.94922 0.50233-0.17014 0.40567-1.0499 0.28516-1.5664-0.13869-0.5944-0.50213-1.3131-1.0918-1.4707zm5.6934 0.18945c-1.1533 0.10647 0.07994 2.3984-0.85352 3.084-0.45949 0.3375-1.1559 0.05112-1.709 0.18945-0.50248 0.12567-0.81932 0.70969-1.3281 0.80664-0.64606 0.1231-1.6043-0.89443-1.9453-0.33203-0.51482 0.84916 1.6282 1.3955 1.8027 2.373 0.20922 1.1719-1.1752 2.231-1.043 3.4141 0.0708 0.63347 0.91034 1.0239 0.94922 1.6602 0.03242 0.53055-0.83506 0.98587-0.61719 1.4707 0.2808 0.62486 1.276 0.80999 1.9453 0.66406 1.213-0.26447 1.2417-1.9333 2.4668-2.1348 0.89359-0.14694 1.5346 1.2032 2.3242 0.75976 0.72166-0.40533-0.10806-2.2155 0.66406-2.5137 0.3136-0.12111 0.47984 0.85022 0.75976 0.66406 0.24982-0.16613 0.4288-0.71416 0.61524-0.94922 0.6414-0.80869 1.5753 1.2142 2.1816 0.37891 0.5867-0.80818-1.973-2.1358-1.1855-2.75 0.53364-0.41627 0.95903 1.4057 1.6133 1.2324 0.43153-0.11427 0.1834-0.94092 0.52148-1.2324 0.7668-0.66116 3.0967 0.24073 2.9414-0.75976-0.1312-0.84506-1.7676 0.4629-2.5605 0.14258-0.81958-0.33109-1.73-1.0644-1.8027-1.9453-0.06854-0.83044 1.4274-1.2563 1.375-2.0879-0.01834-0.29099-0.28049-0.69588-0.57031-0.66406-0.2672 0.029332-0.6683 0.51808-0.85352 0.71289-0.88942 0.93548-1.5646 2.1499-2.8457 1.9922-0.799-0.098361-1.2466-1.0486-1.707-1.709-0.51797-0.74283-0.23692-2.55-1.1387-2.4668zm2.9414 0.85547c-0.34899-0.03831-0.80723 0.26747-0.85547 0.61523-0.0665 0.47943 0.43284 1.021 0.90234 1.1387 0.38468 0.096389 1.0064-0.08734 1.0918-0.47461 0.12299-0.55782-0.57087-1.217-1.1387-1.2793zm-9.7246 4.3164c-0.35075-0.05692-0.86296 0.21521-0.90234 0.56836-0.04213 0.37781 0.43602 0.72206 0.80664 0.80664 0.32666 0.07455 0.8585-0.0095 0.94922-0.33203 0.1217-0.43268-0.40985-0.97097-0.85352-1.043z" fill="#729dec"/>
  <path id="path924" d="m19.117 14.604c-0.64565-0.29907-0.34414-1.5119 0-2.1347 0.31615-0.57214 1.1018-0.70392 1.6603-1.0436 0.5329-0.32412 0.99742-1.0502 1.6129-0.94874 0.90705 0.14951 2.1576 1.2392 1.8026 2.0872-0.37328 0.89164-1.9976-0.1727-2.8937 0.18975-0.88403 0.35756-1.3168 2.2508-2.1821 1.85z" fill="#fff" opacity=".25"/>
  <path id="path926" d="m24.62 21.578c-1.0827-0.52013 0.10537-2.6572 0.99618-3.4629 0.52446-0.47435 1.7427-0.99703 2.0872-0.3795 0.4146 0.7431-1.1765 1.2327-1.7077 1.8975-0.49574 0.62034-0.6599 2.2888-1.3757 1.9449z" fill="#fff" opacity=".25"/>
  <path id="path928" d="m29.174 16.122c-0.23332-0.52139 0.71349-1.0718 1.2808-1.1385 0.7307-0.08594 1.2268 0.8836 1.9449 1.0436 0.57188 0.12743 1.6144-0.66363 1.7552-0.09487 0.20903 0.84478-1.5068 1.1857-2.3718 1.091-0.57217-0.06257-0.8205-0.89172-1.3757-1.0436-0.39918-0.10921-1.0643 0.52006-1.2334 0.14231z" fill="#fff" opacity=".25"/>
  <path id="path932" d="m22.438 27.507c0.63062-0.62101 1.8274 0.2955 2.5142 0.85386 0.55548 0.45166 1.3073 1.1676 1.091 1.85-0.32495 1.0254-2.0164 1.8779-2.9411 1.3282-0.73598-0.43751-0.02553-1.7213-0.18975-2.5616-0.09878-0.50549-0.84135-1.1092-0.47437-1.4705z" fill="#fff" opacity=".25"/>
  <path id="path934" d="m11.622 30.828c-0.65884 0.09075-0.64065 1.2329-0.61668 1.8975 0.0363 1.0065 0.14866 2.6128 1.1385 2.7988 1.1982 0.22519 2.8309-1.4791 2.5142-2.6565-0.18848-0.70056-1.5032-0.18632-2.0872-0.61668-0.45898-0.3382-0.38395-1.5009-0.94874-1.4231z" fill="#fff" opacity=".25"/>
  <path id="path881-0" d="m16.004 28.141c-0.04787 0.92162 0.1057 1.895 0.36133 2.6875 0.18344 0.56868 1.014 0.74441 1.2559 1.2832 0.06357-0.23496 0.09598-0.46196 0.02539-0.6543-0.2119-0.5774-1.0924-0.74277-1.2812-1.3281-0.19125-0.59291-0.32375-1.2897-0.36133-1.9883zm12.115 1.4766c-0.18404-0.0048-0.33532 0.03824-0.41602 0.17969-0.1127 0.19754-0.0381 0.40214 0.10547 0.60938 0.44582-0.31477 1.6809 0.4798 1.8398-0.09961 0.06063-0.22102 0.0034-0.39939-0.10156-0.56055-0.26801 0.20488-0.95362-0.11656-1.4277-0.1289zm-0.95898 2.4004c-0.17423 0.0078-0.32012 0.05989-0.40625 0.19922-0.14609 0.23635-0.13467 0.5047-0.03711 0.78906 0.01338-0.02981 0.01925-0.06096 0.03711-0.08984 0.3445-0.55733 1.6344 0.29158 1.9453-0.28516 0.10433-0.19353 0.0284-0.39248-0.10742-0.59375-0.30828 0.23567-0.96829-0.04028-1.4316-0.01953zm-8.1387 0.7207c-0.59424-0.05404-1.0052 1.253-1.5176 0.94727-0.05951-0.03551-0.09021-0.08501-0.12305-0.13281-0.11131 0.35449-0.15421 0.6666 0.12305 0.83203 0.51241 0.30574 0.92334-1.0013 1.5176-0.94727 0.49045 0.0446 0.61262 0.88243 1.0918 0.99609 0.51143 0.12132 1.0039-0.53902 1.5176-0.42774 0.64703 0.14017 0.85558 1.274 1.5176 1.2812 0.62968 7e-3 0.84099-1.1884 1.4707-1.1855 1.4941 0.0069 2.2302 3.69 3.4629 2.8457 0.30588-0.2095 0.30059-0.50644 0.15234-0.84766-0.03928 0.05242-0.08663 0.10343-0.15234 0.14844-1.2327 0.84431-1.9687-2.8388-3.4629-2.8457-0.62971-0.0029-0.84102 1.1925-1.4707 1.1855-0.662-0.0073-0.87054-1.1411-1.5176-1.2812-0.51371-0.11129-1.0061 0.54905-1.5176 0.42773-0.47918-0.11366-0.60135-0.95149-1.0918-0.99609zm-3.0898 2.7383c-0.04822 0.26294-0.127 0.5234-0.23242 0.7168-0.32138 0.5896-1.154 1.3859-1.7266 1.0352-0.08547-0.05236-0.13887-0.12969-0.17773-0.21484-0.09428 0.37576-0.09765 0.74536 0.17773 0.91406 0.57261 0.35076 1.4052-0.44556 1.7266-1.0352 0.20506-0.3762 0.35967-0.99852 0.23242-1.416z" opacity=".25"/>
  <path id="path875-6" d="m10.242 17.314c-0.06683 0.20719-0.09647 0.42469-0.04297 0.61133 0.19457 0.67875 1.2381 0.70545 1.7559 1.1855 0.24183 0.22424 0.5744 0.45048 0.75977 0.72266 0.07617-0.08155 0.13412-0.17086 0.14062-0.2832 0.028-0.48321-0.54548-0.80956-0.90039-1.1387-0.49258-0.45676-1.4523-0.50972-1.7129-1.0977zm1.5703 3.8145c-0.11242 0.09701-0.18852 0.20914-0.19141 0.35352-0.0075 0.3747 0.56716 0.56746 0.90625 0.81055 0.10687-0.0599 0.18874-0.14695 0.23242-0.27539 0.13624-0.40062-0.58942-0.58238-0.94727-0.88867zm11.395 1.4004c-0.0155 0.4569-0.0353 0.9132-0.01367 1.3379 0.02016-0.44933 0.04928-0.90802 0.01367-1.3379zm-13.568 0.4375c-0.10867 0.06424-0.18271 0.16228-0.19922 0.31836-0.099751 0.94322 2.0895 0.30985 2.7266 0.96484 0.11583-0.17644 0.19504-0.35286 0.12109-0.52539-0.32891-0.76747-2.0727-0.37714-2.6484-0.75781zm2.1133 2.5605c-0.12952 0.18894-0.22231 0.3757-0.13086 0.55664 0.36848 0.72908 1.9145-0.05885 2.373 0.61719 0.03484 0.05136 0.05712 0.10739 0.07813 0.16406 0.07529-0.32407 0.08275-0.62612-0.07813-0.86328-0.41905-0.61776-1.7353-0.02713-2.2422-0.47461zm9.2852 0.33594c-0.68905 0.01044-1.2589 0.13795-1.3984 0.375-0.16688 0.28357-0.09236 0.46345 0.08008 0.62891 0.43807-0.40119 2.2703-0.41446 3.4297 0.02344 0.55683 0.2103 0.93252 0.70809 1.5195 0.80664 0.41988 0.07049 0.94125-0.26507 1.0898-0.66406 0.07739-0.2078 0.068-0.46254 0-0.69922-0.14859 0.39899-0.66996 0.73455-1.0898 0.66406-0.58701-0.09855-0.9627-0.59634-1.5195-0.80664-0.61407-0.23192-1.4223-0.33856-2.1113-0.32812zm-5.6562 1.8223c-0.06701-5.32e-4 -0.13417 0.0068-0.20117 0.02344-0.86285 0.21409-0.84069 2.4326-1.6602 2.0879-0.11886-0.04999-0.19283-0.12229-0.24609-0.20508-0.12489 0.41047-0.12353 0.74882 0.24609 0.9043 0.81947 0.34469 0.79731-1.8738 1.6602-2.0879 0.53604-0.133 1.0793 0.32796 1.5176 0.66406 0.64274 0.49292 0.71153 1.9782 1.5176 1.8984 0.51375-0.05087 0.39918-0.96693 0.71289-1.377 0.15641-0.20443 0.31699-0.57691 0.56836-0.52148 0.40148 0.08853 0.14647 0.891 0.47461 1.1387 0.43207 0.32612 1.1994 0.53841 1.6133 0.18945 0.33082-0.27896 0.42168-0.84527 0.31055-1.3164-0.05035 0.24447-0.14008 0.47344-0.31055 0.61719-0.41384 0.34896-1.1812 0.13666-1.6133-0.18945-0.32814-0.24768-0.07313-1.0501-0.47461-1.1387-0.25137-0.05543-0.41195 0.31705-0.56836 0.52148-0.31371 0.41002-0.19914 1.3261-0.71289 1.377-0.80604 0.07981-0.87484-1.4055-1.5176-1.8984-0.38348-0.29409-0.84732-0.68378-1.3164-0.6875zm-4.4668 0.1582c-0.05722 0.11292-0.1296 0.21393-0.22852 0.26562-0.27797 0.14528-0.7144 0.01199-0.93359-0.23633-0.11897 0.17413-0.181 0.40188-0.10352 0.57226 0.15166 0.33349 0.71242 0.53297 1.0371 0.36328 0.28626-0.14961 0.42558-0.65759 0.25781-0.93359-0.0073-0.01208-0.02079-0.01991-0.0293-0.03125zm-4.5625 0.10352c-0.023334 0.0461-0.064076 0.08547-0.076172 0.13476-0.12799 0.52162 0.35478 1.2514 0.88281 1.3496 0.52364 0.09737 1.2202-0.40652 1.2969-0.93359 0.021396-0.1471-0.022581-0.29883-0.089844-0.44727-0.21594 0.42166-0.76898 0.7631-1.207 0.68164-0.34909-0.064912-0.66052-0.41079-0.80664-0.78516z" opacity=".25"/>
  <path id="path889-7" d="m13.898 7.8281c-0.10873 0.055291-0.17954 0.1414-0.18945 0.27734-0.06483 0.8889 1.6788 0.64368 2.4199 1.1387 0.39096 0.26111 0.59768 1.1 1.043 0.94922 0.40469-0.13706 0.41586-0.7274 0.34375-1.2246-0.042 0.24339-0.1321 0.45371-0.34375 0.52539-0.44529 0.15082-0.65201-0.68811-1.043-0.94922-0.58367-0.38981-1.7762-0.3297-2.2305-0.7168zm7.6504 0.14844c-0.02892 0.29107-0.0031 0.64215 0.01953 1.0039 0.03461-0.31275 0.0043-0.6673-0.01953-1.0039zm2.6992 0.59766c-0.05315 0.07554-0.09173 0.15723-0.10352 0.24219-0.0665 0.47943 0.43284 1.021 0.90234 1.1387 0.38468 0.096389 1.0064-0.08734 1.0918-0.47461 0.037974-0.17223-0.019362-0.34853-0.10938-0.51953-0.20765 0.25569-0.66684 0.374-0.98242 0.29492-0.3198-0.080131-0.63959-0.36175-0.79883-0.68164zm4.8242 0.5957c-0.3175 0.5963-1.3304 1.0091-1.2734 1.6992 0.0098 0.11848 0.03639 0.23318 0.07422 0.3457 0.28495-0.6152 1.3452-1.0296 1.3008-1.7344-0.0062-0.098807-0.04758-0.20703-0.10156-0.31055zm-12.775 1.8535c-0.0251 0.02313-0.05348 0.0361-0.07422 0.07031-0.49962 0.8241 1.4894 1.3664 1.7676 2.291 0.04664-0.20355 0.07254-0.40778 0.03516-0.61719-0.12793-0.71662-1.3074-1.2018-1.7285-1.7441zm-1.7617 1.7695c-0.08451 0.08664-0.14987 0.18324-0.16211 0.29297-0.04213 0.37781 0.43601 0.72206 0.80664 0.80664 0.32666 0.07455 0.8585-0.0095 0.94922-0.33203 0.04771-0.1696-0.02247-0.34997-0.13086-0.51758-0.19997 0.16657-0.56717 0.20772-0.81836 0.15039-0.22681-0.05176-0.48107-0.20596-0.64453-0.40039zm17.361 0.3125c-0.14231 0.0515-0.33326 0.06925-0.54883 0.07226-0.56623 0.1744-1.292 0.51938-1.7461 0.33594-0.08932-0.03608-0.17926-0.09337-0.26953-0.13867-0.0347 0.02136-0.08121 0.03067-0.11133 0.05664-0.33808 0.2915-0.08996 1.1182-0.52148 1.2324-0.65425 0.17324-1.0796-1.6487-1.6133-1.2324-0.23021 0.17957-0.16016 0.42265 0.01953 0.69336 0.52435-0.35646 0.94768 1.4094 1.5938 1.2383 0.43153-0.11427 0.1834-0.94092 0.52148-1.2324 0.7668-0.66116 3.0967 0.24073 2.9414-0.75976-0.02718-0.17506-0.13014-0.24174-0.26562-0.26562zm-5.5527 2.5156c-0.0881 0.02371-0.17373 0.08055-0.25391 0.18164-0.18644 0.23506-0.36542 0.78308-0.61524 0.94922-0.27993 0.18616-0.44616-0.78517-0.75976-0.66406-0.45267 0.17482-0.36854 0.85795-0.35547 1.4844 9e-3 -0.36685 0.07539-0.67699 0.35547-0.78516 0.3136-0.12111 0.47984 0.85022 0.75976 0.66406 0.24982-0.16613 0.4288-0.71416 0.61524-0.94922 0.6414-0.80869 1.5753 1.2142 2.1816 0.37891 0.14148-0.19488 0.09433-0.4202-0.03906-0.6582-0.52938 0.61479-1.2865-0.76363-1.8887-0.60156zm-9.3184 0.72656c-0.03956 0.17591-0.06318 0.35235-0.04297 0.5332 0.05743 0.51382 0.61425 0.86933 0.8457 1.3242 0.06644-0.11815 0.11116-0.23814 0.10352-0.36328-0.03532-0.57795-0.72597-0.95541-0.90625-1.4941zm7.332 1.3262c1e-3 0.40095-0.0317 0.77331-0.30664 0.92773-0.78957 0.44348-1.4306-0.90671-2.3242-0.75976-1.2251 0.20146-1.2537 1.8703-2.4668 2.1348-0.60018 0.13085-1.4578-0.0084-1.832-0.48828-0.11249 0.17365-0.19256 0.34702-0.11328 0.52344 0.2808 0.62486 1.276 0.80999 1.9453 0.66406 1.213-0.26447 1.2417-1.9333 2.4668-2.1348 0.89359-0.14694 1.5346 1.2032 2.3242 0.75976 0.43592-0.24484 0.30786-0.9998 0.30664-1.627z" opacity=".25"/>
 </g>
</svg>
