<?xml version="1.0" encoding="UTF-8"?>
<!-- Created with Inkscape (http://www.inkscape.org/) -->
<svg id="SVGRoot" width="48px" height="48px" version="1.1" viewBox="0 0 48 48" xml:space="preserve" xmlns="http://www.w3.org/2000/svg" xmlns:cc="http://creativecommons.org/ns#" xmlns:dc="http://purl.org/dc/elements/1.1/" xmlns:rdf="http://www.w3.org/1999/02/22-rdf-syntax-ns#"><defs><style>.cls-1{fill:none;stroke:#fff;stroke-linecap:round;stroke-linejoin:round;}</style></defs><metadata><rdf:RDF><cc:Work rdf:about=""><dc:format>image/svg+xml</dc:format><dc:type rdf:resource="http://purl.org/dc/dcmitype/StillImage"/></cc:Work></rdf:RDF></metadata><rect x="4" y="4" width="40" height="40" ry="8" fill="#244263" fill-rule="evenodd" style="paint-order:stroke fill markers"/><path d="m12 4c-4.432 0-8 3.568-8 8v24c0 4.432 3.568 8 8 8h24c4.432 0 8-3.568 8-8v-24c0-4.432-3.568-8-8-8zm0 1h24c3.878 0 7 3.122 7 7v24c0 3.878-3.122 7-7 7h-24c-3.878 0-7-3.122-7-7v-24c0-3.878 3.122-7 7-7z" fill-rule="evenodd" opacity=".4" style="paint-order:stroke fill markers"/><g stroke-linecap="round" stroke-linejoin="round" stroke-width="2.0152"><path d="m34.162 23.864s-0.35703-0.82002 0-1.5621c2.227-4.6286 3.2383-8.8242-1.8324-11.295-4.9346-2.4045-7.5701 0.33044-7.5701 0.33044s-1.4184-0.49835-2.4633 1.3518c-0.4846 0.85807-0.27036 2.3732-0.27036 2.3732l-4.2957-0.03004 4.8665 2.223c5.5732 5.5407 11.565 6.6088 11.565 6.6088z" fill="#fed56f"/><path d="m16.499 34.528s-0.56109-0.34826 0-0.84112c1.5111-1.3273 2.4926-2.8808 2.5234-3.4847 0.02279-0.4468-1.0458-1.1059-0.99132-1.5848 0.05387-0.47393 0.66088-0.66817 0.66088-0.66817s-4.7703-3.1539-7.4199-8.0207l-0.3004 2.0728-0.03004-2.7937-1.3218 1.9826 1.0514-2.1929 0.63084-2.3732 0.48064-1.8925-0.06008 2.1629 0.21028 0.06008 1.3818-1.7724-0.93124 1.7123s2.8566-0.61195 6.8491-0.18024c-0.01354 0.05836 2.7673 1.4455 2.8238 1.4119 4.5945 4.6522 10.995 6.3084 10.995 6.3084l0.66088 0.99132-0.57076-0.06008 1.1115 1.502-1.1115-0.12016 1.2016 1.3518-0.9012 0.12016 0.87116 1.1115-0.6008-0.06008 1.0514 1.8625-0.63084-0.18024s0.47061 1.3102 1.6822 2.223c0.35109 0.26449-0.09012 0.69092-0.09012 0.69092s-3.3827 4.1155-10.003 4.1155c-5.8084 0-9.2223-3.4546-9.2223-3.4546z" fill="#d29452"/><path d="m9.5452 17.629c0.18584-1.2547 1.7568-1.0047 1.7568-1.0047s0.42056 0.27036 0.26116 1.2277c-0.13322 0.8001-0.892 1.1455-0.892 1.1455s-1.3191-0.06448-1.1259-1.3685z" fill="#ffcd86"/><path d="m18.692 27.949c4.1096 1.377 8.1758-2.1106 8.1758-2.1106l1.1046 0.70097-1.147-0.21242s-3.5451 4.1896-8.1334 1.622z" fill="#244263"/><path d="m22.471 13.094c0.35094-0.84734 1.3892-1.7961 2.2728-1.5506 0.96368 0.2677 1.0266 1.6682 0.74345 2.4853-0.33445 0.96518-1.4325 2.1896-2.5065 1.763-0.8505-0.33783-0.85997-1.8522-0.5098-2.6977z" fill="#244263"/><path d="m22.959 13.242c0.25786-0.62928 0.94444-1.4787 1.5931-1.2745 0.59838 0.18839 0.70814 1.2037 0.53104 1.8055-0.23242 0.7898-1.1017 1.9121-1.8693 1.6144-0.6714-0.26048-0.52796-1.479-0.2549-2.1454z" fill="#fff"/></g></svg>
