<?xml version="1.0" encoding="UTF-8"?>
<!-- Created with Inkscape (http://www.inkscape.org/) -->
<svg id="SVGRoot" width="48px" height="48px" version="1.1" viewBox="0 0 48 48" xmlns="http://www.w3.org/2000/svg" xmlns:cc="http://creativecommons.org/ns#" xmlns:dc="http://purl.org/dc/elements/1.1/" xmlns:rdf="http://www.w3.org/1999/02/22-rdf-syntax-ns#">
 <defs id="defs815">
  <style id="style819">.cls-1{fill:none;stroke:#fff;stroke-linecap:round;stroke-linejoin:round;}</style>
 </defs>
 <metadata id="metadata818">
  <rdf:RDF>
   <cc:Work rdf:about="">
    <dc:format>image/svg+xml</dc:format>
    <dc:type rdf:resource="http://purl.org/dc/dcmitype/StillImage"/>
    <dc:title/>
   </cc:Work>
  </rdf:RDF>
 </metadata>
 <g id="layer1">
  <rect id="rect1373-5" x="4" y="4" width="40" height="40" ry="8" fill="#efefef" fill-rule="evenodd" style="paint-order:stroke fill markers"/>
  <path id="rect817" d="m12 4c-4.432 0-8 3.568-8 8v24c0 4.432 3.568 8 8 8h24c4.432 0 8-3.568 8-8v-24c0-4.432-3.568-8-8-8h-24zm0 1h24c3.878 0 7 3.122 7 7v24c0 3.878-3.122 7-7 7h-24c-3.878 0-7-3.122-7-7v-24c0-3.878 3.122-7 7-7z" fill-rule="evenodd" opacity=".3" style="paint-order:stroke fill markers"/>
  <rect id="rect818" x="8" y="8" width="32" height="30" ry="4" fill="#729dec" fill-rule="evenodd" style="paint-order:stroke fill markers"/>
  <path id="path837" d="m10 18s2.8574 6.2518 8 7 20-6 20-6v18s-15.099-5.2688-20-5-8 4-8 4z" fill="#fff" opacity=".5"/>
  <path id="path835" d="m18 24c-3 0-10 10-10 10v2c0 2.216 1.784 4 4 4h24c2.216 0 4-1.784 4-4v-2s-6-7-8-7-4 5-5 5-6-8-9-8z" fill="#46589d"/>
  <rect id="rect839" x="26" y="10" width="10" height="10" ry="5" fill="#fff" fill-rule="evenodd" style="paint-order:normal"/>
 </g>
</svg>
