<?xml version="1.0" encoding="UTF-8"?>
<!-- Created with Inkscape (http://www.inkscape.org/) -->
<svg id="SVGRoot" width="48px" height="48px" version="1.1" viewBox="0 0 48 48" xml:space="preserve" xmlns="http://www.w3.org/2000/svg" xmlns:cc="http://creativecommons.org/ns#" xmlns:dc="http://purl.org/dc/elements/1.1/" xmlns:rdf="http://www.w3.org/1999/02/22-rdf-syntax-ns#"><defs><style>.cls-1{fill:none;stroke:#fff;stroke-linecap:round;stroke-linejoin:round;}</style><style>.cls-1{fill:none;stroke:#fff;stroke-linecap:round;stroke-linejoin:round;}</style><style>.cls-1{fill:none;stroke:#fff;stroke-linecap:round;stroke-linejoin:round;}</style><style>.cls-1{fill:none;stroke:#fff;stroke-linecap:round;stroke-linejoin:round;}</style><style>.cls-1{fill:none;stroke:#fff;stroke-linecap:round;stroke-linejoin:round;}</style><style>.cls-1{fill:none;stroke:#fff;stroke-linecap:round;stroke-linejoin:round;}</style><style>.a{fill:none;stroke:#b1b5bd;stroke-linecap:round;stroke-linejoin:round;isolation:isolate;opacity:0.63;}</style><style>.cls-1{fill:none;stroke:#fff;stroke-linecap:round;stroke-linejoin:round;}</style><style>.cls-1{fill:none;stroke:#fff;stroke-linecap:round;stroke-linejoin:round;}</style><style>.a{fill:none;stroke:#b1b5bd;stroke-linecap:round;stroke-linejoin:round;isolation:isolate;opacity:0.63;}</style><style>.cls-1{fill:none;stroke:#fff;stroke-linecap:round;stroke-linejoin:round;}</style></defs><metadata><rdf:RDF><cc:Work rdf:about=""><dc:format>image/svg+xml</dc:format><dc:type rdf:resource="http://purl.org/dc/dcmitype/StillImage"/></cc:Work></rdf:RDF></metadata><rect x="4" y="4" width="40" height="40" ry="8" fill="#efefef" fill-rule="evenodd" style="paint-order:stroke fill markers"/><g stroke-linecap="round" stroke-linejoin="round" stroke-width="2"><path d="m24 8c-8.864 0-16 7.136-16 16s7.136 16 16 16 16-7.136 16-16-7.136-16-16-16zm0 4c6.648 0 12 5.352 12 12s-5.352 12-12 12-12-5.352-12-12 5.352-12 12-12z" opacity=".15"/><path d="m24 8c-8.864 0-16 7.136-16 16 0 4.432 1.7838 8.4322 4.6758 11.324l2.832-2.832c-2.169-2.169-3.5078-5.1682-3.5078-8.4922 0-6.648 5.352-12 12-12s12 5.352 12 12l2 2 2-2c0-8.864-7.136-16-16-16z" fill="#729dec"/><path d="m36 24c0 3.324-1.3388 6.3232-3.5078 8.4922l2.832 2.832c2.892-2.892 4.6758-6.8922 4.6758-11.324h-4z" fill="#d35244"/></g><path d="m12 4c-4.432 0-8 3.568-8 8v24c0 4.432 3.568 8 8 8h24c4.432 0 8-3.568 8-8v-24c0-4.432-3.568-8-8-8zm0 1h24c3.878 0 7 3.122 7 7v24c0 3.878-3.122 7-7 7h-24c-3.878 0-7-3.122-7-7v-24c0-3.878 3.122-7 7-7z" fill-rule="evenodd" opacity=".3" style="paint-order:stroke fill markers"/><g stroke-linecap="round" stroke-linejoin="round"><path d="m24 12-2.1758 3.2637c-3.9158 0.97014-6.8027 4.5031-6.8027 8.7363 0 4.986 4.0046 9 8.9785 9s8.9785-4.014 8.9785-9c0-4.2333-2.887-7.7662-6.8027-8.7363l-2.1758-3.2637z" opacity=".3" stroke-width="2.5683"/><rect x="16" y="16" width="16" height="16" ry="8" fill="#efefef" stroke-width="2.2857"/><path d="m24 14-4 6h8z" fill="#efefef" stroke-width="2"/><path d="m24 20c-2.216 0-4 1.784-4 4s1.784 4 4 4 4-1.784 4-4-1.784-4-4-4zm0 2c1.108 0 2 0.892 2 2s-0.892 2-2 2-2-0.892-2-2 0.892-2 2-2z" opacity=".3" stroke-width="2"/></g></svg>
