<?xml version="1.0" encoding="UTF-8"?>
<!-- Created with Inkscape (http://www.inkscape.org/) -->
<svg id="SVGRoot" width="48px" height="48px" version="1.1" viewBox="0 0 48 48" xmlns="http://www.w3.org/2000/svg" xmlns:cc="http://creativecommons.org/ns#" xmlns:dc="http://purl.org/dc/elements/1.1/" xmlns:rdf="http://www.w3.org/1999/02/22-rdf-syntax-ns#" xmlns:xlink="http://www.w3.org/1999/xlink">
 <defs id="defs815">
  <style id="style819">.cls-1{fill:none;stroke:#fff;stroke-linecap:round;stroke-linejoin:round;}</style>
  <style id="style819-6">.cls-1{fill:none;stroke:#fff;stroke-linecap:round;stroke-linejoin:round;}</style>
  <style id="style819-8">.cls-1{fill:none;stroke:#fff;stroke-linecap:round;stroke-linejoin:round;}</style>
  <style id="style819-4">.cls-1{fill:none;stroke:#fff;stroke-linecap:round;stroke-linejoin:round;}</style>
  <style id="style819-5">.cls-1{fill:none;stroke:#fff;stroke-linecap:round;stroke-linejoin:round;}</style>
  <style id="style2">.a{fill:none;stroke:#b1b5bd;stroke-linecap:round;stroke-linejoin:round;isolation:isolate;opacity:0.63;}</style>
  <style id="style819-1">.cls-1{fill:none;stroke:#fff;stroke-linecap:round;stroke-linejoin:round;}</style>
  <style id="style819-6-4">.cls-1{fill:none;stroke:#fff;stroke-linecap:round;stroke-linejoin:round;}</style>
  <style id="style2-9">.a{fill:none;stroke:#b1b5bd;stroke-linecap:round;stroke-linejoin:round;isolation:isolate;opacity:0.63;}</style>
  <style id="style819-1-5">.cls-1{fill:none;stroke:#fff;stroke-linecap:round;stroke-linejoin:round;}</style>
  <style id="style819-0">.cls-1{fill:none;stroke:#fff;stroke-linecap:round;stroke-linejoin:round;}</style>
 </defs>
 <metadata id="metadata818">
  <rdf:RDF>
   <cc:Work rdf:about="">
    <dc:format>image/svg+xml</dc:format>
    <dc:type rdf:resource="http://purl.org/dc/dcmitype/StillImage"/>
    <dc:title/>
   </cc:Work>
  </rdf:RDF>
 </metadata>
 <g id="layer1">
  <rect id="rect1373-5" x="4" y="4" width="40" height="40" ry="8" fill="#46589d" fill-rule="evenodd" style="paint-order:stroke fill markers"/>
  <path id="rect817" d="m12 4c-4.432 0-8 3.568-8 8v24c0 4.432 3.568 8 8 8h24c4.432 0 8-3.568 8-8v-24c0-4.432-3.568-8-8-8h-24zm0 1h24c3.878 0 7 3.122 7 7v24c0 3.878-3.122 7-7 7h-24c-3.878 0-7-3.122-7-7v-24c0-3.878 3.122-7 7-7z" fill-rule="evenodd" opacity=".3" style="paint-order:stroke fill markers"/>
  <path id="rect828-0" d="m24.5 10c-4.709 0-8.5 3.791-8.5 8.5 0 1.2507 0.2748 2.4326 0.75586 3.5h5.0547c-1.1195-1.1666-1.8105-2.7479-1.8105-4.5 0-3.601 2.899-6.5 6.5-6.5 1.3028 0 2.5104 0.38421 3.5254 1.0391-1.4845-1.2698-3.4098-2.0391-5.5254-2.0391z" fill="#77f3e3" fill-rule="evenodd" style="paint-order:stroke fill markers"/>
  <rect id="rect828" x="26" y="12" width="6" height="6" ry="3" fill="#77f3e3" fill-rule="evenodd" style="paint-order:stroke fill markers"/>
  <path id="rect828-0-7" d="m26.215 26c1.1195 1.1666 1.8105 2.7479 1.8105 4.5 0 3.601-2.899 6.5-6.5 6.5-1.3028 0-2.5104-0.38421-3.5254-1.0391 1.4845 1.2698 3.4098 2.0391 5.5254 2.0391 4.709 0 8.5-3.791 8.5-8.5 0-1.2507-0.2748-2.4326-0.75586-3.5z" fill="#77f3e3" fill-rule="evenodd" style="paint-order:stroke fill markers"/>
  <rect id="rect828-5" transform="scale(-1)" x="-22.025" y="-36" width="6" height="6" ry="3" fill="#77f3e3" fill-rule="evenodd" style="paint-order:stroke fill markers"/>
  <path id="path864" d="m23 22-5 4h7l5-4z" fill="#77f3e3"/>
 </g>
</svg>
