<?xml version="1.0" encoding="UTF-8"?>
<!-- Created with Inkscape (http://www.inkscape.org/) -->
<svg id="SVGRoot" width="48px" height="48px" version="1.1" viewBox="0 0 48 48" xmlns="http://www.w3.org/2000/svg" xmlns:cc="http://creativecommons.org/ns#" xmlns:dc="http://purl.org/dc/elements/1.1/" xmlns:rdf="http://www.w3.org/1999/02/22-rdf-syntax-ns#" xmlns:xlink="http://www.w3.org/1999/xlink">
 <defs id="defs815">
  <style id="style819">.cls-1{fill:none;stroke:#fff;stroke-linecap:round;stroke-linejoin:round;}</style>
  <linearGradient id="linearGradient992" x1="14" x2="14" y1="11" y2="33" gradientUnits="userSpaceOnUse">
   <stop id="stop986" stop-color="#ecc100" offset="0"/>
   <stop id="stop988" stop-color="#16caec" offset="1"/>
  </linearGradient>
 </defs>
 <metadata id="metadata818">
  <rdf:RDF>
   <cc:Work rdf:about="">
    <dc:format>image/svg+xml</dc:format>
    <dc:type rdf:resource="http://purl.org/dc/dcmitype/StillImage"/>
    <dc:title/>
   </cc:Work>
  </rdf:RDF>
 </metadata>
 <g id="layer1">
  <rect id="rect1373" x="4" y="4" width="40" height="40" ry="8" fill="#efefef" fill-rule="evenodd" style="paint-order:stroke fill markers"/>
  <path id="rect817" d="m12 4c-4.432 0-8 3.568-8 8v24c0 4.432 3.568 8 8 8h24c4.432 0 8-3.568 8-8v-24c0-4.432-3.568-8-8-8h-24zm0 1h24c3.878 0 7 3.122 7 7v24c0 3.878-3.122 7-7 7h-24c-3.878 0-7-3.122-7-7v-24c0-3.878 3.122-7 7-7z" fill-rule="evenodd" opacity=".3" style="paint-order:stroke fill markers"/>
  <path id="path847" d="m42.971 9a3.0003 3.0003 0 0 0-2.0625 0.9082l-16 16a3.0003 3.0003 0 1 0 4.2422 4.2422l16-16a3.0003 3.0003 0 0 0-2.1797-5.1504z" color="#000000" color-rendering="auto" dominant-baseline="auto" fill="#cc8543" image-rendering="auto" shape-rendering="auto" solid-color="#000000" style="font-feature-settings:normal;font-variant-alternates:normal;font-variant-caps:normal;font-variant-ligatures:normal;font-variant-numeric:normal;font-variant-position:normal;isolation:auto;mix-blend-mode:normal;shape-padding:0;text-decoration-color:#000000;text-decoration-line:none;text-decoration-style:solid;text-indent:0;text-orientation:mixed;text-transform:none;white-space:normal"/>
  <path id="path879" d="m30.279 20.779c-0.09588 0-0.17453 0.0124-0.26172 0.01953l-5.1094 5.1094a3.0003 3.0003 0 0 0-0.44922 0.55078l4.1406 4.1406a3.0003 3.0003 0 0 0 0.55078-0.44922l5.1094-5.1094c0.06288-0.76918-0.10262-1.8839-1.2305-3.0117-1-1-2-1.25-2.75-1.25z" fill="#8c8ea1"/>
  <path id="path847-9" d="m42.971 9a3.0003 3.0003 0 0 0-2.0625 0.9082l-16 16a3.0003 3.0003 0 1 0 4.2422 4.2422l16-16a3.0003 3.0003 0 0 0-2.1797-5.1504zm0.029297 1c0.95818-0.028258 1.5961 0.49985 1.9004 1.2188s0.2401 1.5467-0.44727 2.2148a1.0001 1.0001 0 0 0-0.0098 0.0098l-16 16a1.0001 1.0001 0 0 0-0.01367 0.01367c-0.5326 0.55471-1.0178 0.69636-1.498 0.67188-0.48028-0.02449-0.97994-0.26314-1.3594-0.64258-0.37944-0.37944-0.61809-0.87909-0.64258-1.3594-0.02449-0.48028 0.11717-0.96545 0.67188-1.498a1.0001 1.0001 0 0 0 0.01367-0.01367l16-16a1.0001 1.0001 0 0 0 0.0098-0.0098c0.3625-0.3731 0.85503-0.58998 1.375-0.60547z" color="#000000" color-rendering="auto" dominant-baseline="auto" image-rendering="auto" opacity=".25" shape-rendering="auto" solid-color="#000000" style="font-feature-settings:normal;font-variant-alternates:normal;font-variant-caps:normal;font-variant-ligatures:normal;font-variant-numeric:normal;font-variant-position:normal;isolation:auto;mix-blend-mode:normal;shape-padding:0;text-decoration-color:#000000;text-decoration-line:none;text-decoration-style:solid;text-indent:0;text-orientation:mixed;text-transform:none;white-space:normal"/>
  <path id="path853" d="m6 16s1-8 9-8c3.7712 0 8 3 8 8 0 9-11 9-11 14 0 2 1 3 2 3s4-3 4-3l2 8s-10 0-10-8c0-3.4801 3-6.5199 3-10 0-3-2-4-4-4-0.74536 0-1.2546 1-2 1-1 0-1-1-1-1z" fill="url(#linearGradient992)"/>
  <path id="path851" d="m14.029 35.029c3.8751-2.2928 3.4352-6.7332 8.8963-8.6369 1.6049-0.55949 3.9284-0.59086 5.1037 0.63692 2.3257 2.4294 0.62402 8.7143-4.2593 9.5851-4.0591 0.72376-6.0018 0.66802-9.7407-1.5851z" fill="#634a36" stroke="#634a36" stroke-linecap="round" stroke-linejoin="round" stroke-width="2"/>
  <path id="path855" d="m15.861 31.834c-0.62782 0.91375-1.3051 1.7206-2.3418 2.334a1.0001 1.0001 0 0 0-0.0059 1.7188c2.0944 1.2621 3.7754 1.8593 5.5293 2.0391 0.18331-1.2858-2.3144-0.31755-2.5469-1.75-0.15102-0.93064 0.894-1.2754 0.5332-2.1465-0.25512-0.61592-1.6495 0.5671-2 0-0.39186-0.63404 1.3919-1.366 1-2-0.04567-0.0739-0.10569-0.13622-0.16797-0.19531z" fill="#1dc3e6"/>
  <path id="path919" d="m24.904 25.023c-0.81225 0.02452-1.6046 0.17842-2.3086 0.42383-2.9666 1.0342-4.4598 2.8841-5.5527 4.5742-1.0929 1.6901-1.8437 3.1526-3.5234 4.1465a1.0001 1.0001 0 0 0-0.0059 1.7188c3.8638 2.3284 6.3095 2.4479 10.432 1.7129 2.8312-0.50482 4.7477-2.5894 5.5938-4.8418 0.84603-2.2524 0.75786-4.806-0.78711-6.4199-0.81823-0.85473-1.9409-1.206-3.0312-1.2949-0.27259-0.02222-0.54566-0.0277-0.81641-0.01953zm0.0293 0.99805c0.23496-0.0073 0.47114-0.0015 0.70508 0.01758 0.9331 0.07608 1.7937 0.3667 2.3906 0.99023 1.1937 1.247 1.3247 3.3789 0.57422 5.377-0.74265 1.9771-2.3943 3.774-4.834 4.209-4.0364 0.7197-6.0233 0.65393-9.7402-1.5859 1.9374-1.1463 2.79-2.8202 3.8535-4.4648 1.0481-1.6208 2.3279-3.2273 5.043-4.1738 0.60705-0.21162 1.3029-0.34712 2.0078-0.36914z" color="#000000" color-rendering="auto" dominant-baseline="auto" image-rendering="auto" opacity=".4" shape-rendering="auto" solid-color="#000000" style="font-feature-settings:normal;font-variant-alternates:normal;font-variant-caps:normal;font-variant-ligatures:normal;font-variant-numeric:normal;font-variant-position:normal;isolation:auto;mix-blend-mode:normal;shape-padding:0;text-decoration-color:#000000;text-decoration-line:none;text-decoration-style:solid;text-indent:0;text-orientation:mixed;text-transform:none;white-space:normal"/>
 </g>
</svg>
