<?xml version="1.0" encoding="UTF-8"?>
<!-- Created with Inkscape (http://www.inkscape.org/) -->
<svg id="SVGRoot" width="48px" height="48px" version="1.1" viewBox="0 0 48 48" xml:space="preserve" xmlns="http://www.w3.org/2000/svg" xmlns:cc="http://creativecommons.org/ns#" xmlns:dc="http://purl.org/dc/elements/1.1/" xmlns:rdf="http://www.w3.org/1999/02/22-rdf-syntax-ns#"><defs><style>.cls-1{fill:none;stroke:#fff;stroke-linecap:round;stroke-linejoin:round;}</style><style>.cls-1{fill:none;stroke:#fff;stroke-linecap:round;stroke-linejoin:round;}</style><style>.cls-1{fill:none;stroke:#fff;stroke-linecap:round;stroke-linejoin:round;}</style></defs><metadata><rdf:RDF><cc:Work rdf:about=""><dc:format>image/svg+xml</dc:format><dc:type rdf:resource="http://purl.org/dc/dcmitype/StillImage"/></cc:Work></rdf:RDF></metadata><rect x="4" y="4" width="40" height="40" ry="8" fill="#6bd5a2" fill-rule="evenodd" style="paint-order:stroke fill markers"/><path d="m12 4c-4.432 0-8 3.568-8 8v24c0 4.432 3.568 8 8 8h24c4.432 0 8-3.568 8-8v-24c0-4.432-3.568-8-8-8zm0 1h24c3.878 0 7 3.122 7 7v24c0 3.878-3.122 7-7 7h-24c-3.878 0-7-3.122-7-7v-24c0-3.878 3.122-7 7-7z" fill-rule="evenodd" opacity=".3" style="paint-order:stroke fill markers"/><g stroke-linecap="round" stroke-linejoin="round" stroke-width="4"><path d="m24 13c-1.1565 0-2.8997 2.8887-4.6072 6.4581s-3.3792 7.8194-4.3928 10.542c-3.4661 1.1633-4.9998 3.9997-5 4 0 0 0 1 1 1h26c0.99992 0 1-0.99985 1-1 0 0-1.3904-2.8241-6-4-1.0503-2.1988-2.5057-5.1988-3.3459-7.6491s-1.065-4.3509 0.3459-4.3509c5 0 5 3 5 3v3h-2l3 3 3-3h-2v-4s0-7-12-7z" fill="#288d6a"/><rect x="15" y="28" width="17" height="2" fill="#fff"/><rect x="18" y="26" width="6" height="6" ry="1" fill="#fff"/><rect x="20" y="28" width="2" height="2" fill="#288d6a"/></g></svg>
