<?xml version="1.0" encoding="UTF-8"?>
<!-- Created with Inkscape (http://www.inkscape.org/) -->
<svg id="SVGRoot" width="48px" height="48px" version="1.1" viewBox="0 0 48 48" xmlns="http://www.w3.org/2000/svg" xmlns:cc="http://creativecommons.org/ns#" xmlns:dc="http://purl.org/dc/elements/1.1/" xmlns:rdf="http://www.w3.org/1999/02/22-rdf-syntax-ns#">
 <defs id="defs815">
  <style id="style819">.cls-1{fill:none;stroke:#fff;stroke-linecap:round;stroke-linejoin:round;}</style>
  <style id="style819-3">.cls-1{fill:none;stroke:#fff;stroke-linecap:round;stroke-linejoin:round;}</style>
  <style id="style819-4">.cls-1{fill:none;stroke:#fff;stroke-linecap:round;stroke-linejoin:round;}</style>
 </defs>
 <metadata id="metadata818">
  <rdf:RDF>
   <cc:Work rdf:about="">
    <dc:format>image/svg+xml</dc:format>
    <dc:type rdf:resource="http://purl.org/dc/dcmitype/StillImage"/>
    <dc:title/>
   </cc:Work>
  </rdf:RDF>
 </metadata>
 <g id="layer1" fill-rule="evenodd">
  <rect id="rect1373-5" x="4" y="4" width="40" height="40" ry="8" fill="#4d80c9" style="paint-order:stroke fill markers"/>
  <path id="rect817" d="m12 4c-4.432 0-8 3.568-8 8v24c0 4.432 3.568 8 8 8h24c4.432 0 8-3.568 8-8v-24c0-4.432-3.568-8-8-8h-24zm0 1h24c3.878 0 7 3.122 7 7v24c0 3.878-3.122 7-7 7h-24c-3.878 0-7-3.122-7-7v-24c0-3.878 3.122-7 7-7z" opacity=".3" style="paint-order:stroke fill markers"/>
  <path id="rect828" d="m21 10c-3.324 0-6 2.676-6 6s2.676 6 6 6c0.36527 0 0.72143-0.03767 1.0684-0.09961 0.19299 0.03726 0.63797 0.19605 0.85352 0.90234 0.19516 0.63948-0.18468 1.1468-0.26367 1.2441-1.4026 1.2587-2.3555 3.0033-2.5938 4.9785-0.16925 0.61134-0.56781 1.7006-1.3594 1.957-0.69509 0.22518-1.8787-0.12048-2.5918-0.36914-0.61368-0.38252-1.3339-0.61328-2.1133-0.61328-2.216 0-4 1.784-4 4s1.784 4 4 4c1.514 0 2.8107-0.84193 3.4902-2.0762l0.0039 0.0098s1.0194-1.572 2.4219-1.8711c0.84109-0.17936 1.6798 0.72816 1.6855 0.73438 1.4569 1.9433 3.7719 3.2031 6.3984 3.2031 4.432 0 8-3.568 8-8 0-2.198-0.87935-4.1818-2.3047-5.625-0.11815-0.26274-0.21729-0.74244 0.26758-1.3887 0.4264-0.56831 2.2734-1.2109 2.2734-1.2109l-0.04102-0.02344c1.0632-0.46045 1.8047-1.5158 1.8047-2.752 0-1.662-1.338-3-3-3s-3 1.338-3 3c0 0.11194 0.02137 0.21748 0.0332 0.32617l-0.01367-0.0078s0.19834 1.2009-0.29492 2.2012c-0.47064 0.95444-1.459 0.80752-1.4648 0.80664h-2e-3c-0.71583-0.20893-1.4726-0.32618-2.2578-0.32618-0.39917 0-0.7887 0.03784-1.1719 0.09375l0.12891-0.06055s-0.93766 0.24114-1.3926-0.62305c-0.38118-0.72409-0.14886-1.2833-0.07031-1.4375 0.93466-1.0573 1.5059-2.444 1.5059-3.9727 0-3.324-2.676-6-6-6z" fill="#fff" style="paint-order:normal"/>
  <rect id="rect843" x="17" y="12" width="8" height="8" ry="4" fill="#ed8cef" style="paint-order:normal"/>
  <rect id="rect845" x="34" y="18" width="2" height="2" ry="1" fill="#ffcd35" style="paint-order:normal"/>
  <rect id="rect847" x="22" y="24" width="12" height="12" ry="6" fill="#729dec" style="paint-order:normal"/>
  <rect id="rect849" x="12" y="32" width="4" height="4" ry="2" fill="#96d56b" style="paint-order:normal"/>
 </g>
</svg>
