<?xml version="1.0" encoding="UTF-8"?>
<!-- Created with Inkscape (http://www.inkscape.org/) -->
<svg id="SVGRoot" width="48px" height="48px" version="1.1" viewBox="0 0 48 48" xml:space="preserve" xmlns="http://www.w3.org/2000/svg" xmlns:cc="http://creativecommons.org/ns#" xmlns:dc="http://purl.org/dc/elements/1.1/" xmlns:rdf="http://www.w3.org/1999/02/22-rdf-syntax-ns#"><defs><style>.cls-1{fill:none;stroke:#fff;stroke-linecap:round;stroke-linejoin:round;}</style><style>.cls-1{fill:none;stroke:#fff;stroke-linecap:round;stroke-linejoin:round;}</style><style>.cls-1{fill:none;stroke:#fff;stroke-linecap:round;stroke-linejoin:round;}</style></defs><metadata><rdf:RDF><cc:Work rdf:about=""><dc:format>image/svg+xml</dc:format><dc:type rdf:resource="http://purl.org/dc/dcmitype/StillImage"/></cc:Work></rdf:RDF></metadata><g fill-rule="evenodd"><rect x="4" y="4" width="40" height="40" ry="8" fill="#65bcbd" style="paint-order:stroke fill markers"/><path d="m8 14v22c0 2.216 1.784 4 4 4h24c2.216 0 4-1.784 4-4v-22h-28z" opacity=".3" style="paint-order:stroke fill markers"/><path d="m12 4c-4.432 0-8 3.568-8 8v24c0 4.432 3.568 8 8 8h24c4.432 0 8-3.568 8-8v-24c0-4.432-3.568-8-8-8zm0 1h24c3.878 0 7 3.122 7 7v24c0 3.878-3.122 7-7 7h-24c-3.878 0-7-3.122-7-7v-24c0-3.878 3.122-7 7-7z" opacity=".3" style="paint-order:stroke fill markers"/><rect transform="rotate(15.114)" x="42.733" y="-3.543" width="4" height="38" ry="1" fill="#4e4e4e" style="paint-order:stroke fill markers"/><path d="m43.405 7.0173c-0.53484-0.14445-1.0817 0.16983-1.2262 0.70466l-1.8252 6.7579 3.8616 1.043 1.8252-6.7579c0.14445-0.53484-0.16983-1.0817-0.70466-1.2262z" fill="#efefef" style="paint-order:stroke fill markers"/><path d="m32.975 45.634c-0.53484-0.14445-0.84912-0.69132-0.70466-1.2262l1.8252-6.7579 3.8616 1.043-1.8252 6.7579c-0.14445 0.53484-0.69132 0.84912-1.2262 0.70466z" fill="#efefef" style="paint-order:stroke fill markers"/><path d="m43.405 7.0173c-0.53484-0.14445-1.0817 0.16983-1.2262 0.70466l-9.9083 36.686c-0.14445 0.53484 0.16983 1.0817 0.70466 1.2262l1.9308 0.52149c0.53484 0.14445 1.0817-0.16983 1.2262-0.70466l9.9083-36.686c0.14445-0.53484-0.16983-1.0817-0.70466-1.2262zm0.22196 1.0958 0.96541 0.26074c0.26742 0.072226 0.42456 0.34566 0.35233 0.61308l-9.6475 35.72c-0.07222 0.26742-0.34566 0.42456-0.61308 0.35233l-0.96541-0.26074c-0.26742-0.07222-0.42456-0.34566-0.35233-0.61308l9.6475-35.72c0.07222-0.26742 0.34566-0.42456 0.61308-0.35233z" opacity=".25" style="paint-order:stroke fill markers"/></g><path d="m24 17a1.2858 1.2858 0 0 0-1.1601 0.71065l-2.3805 4.7586-4.7586 2.3806a1.2858 1.2858 0 0 0 0 2.3002l4.7586 2.3806 2.3805 4.7586a1.2858 1.2858 0 0 0 2.3002 0l2.3805-4.7586 4.7586-2.3806a1.2858 1.2858 0 0 0 0-2.3002l-4.7586-2.3806-2.3805-4.7586a1.2858 1.2858 0 0 0-1.14-0.71065z" color="#000000" color-rendering="auto" dominant-baseline="auto" fill="#fff" image-rendering="auto" shape-rendering="auto" solid-color="#000000" style="font-feature-settings:normal;font-variant-alternates:normal;font-variant-caps:normal;font-variant-ligatures:normal;font-variant-numeric:normal;font-variant-position:normal;isolation:auto;mix-blend-mode:normal;shape-padding:0;text-decoration-color:#000000;text-decoration-line:none;text-decoration-style:solid;text-indent:0;text-orientation:mixed;text-transform:none;white-space:normal"/><g fill-rule="evenodd"><rect x="8" y="8" width="4" height="4" ry="2" opacity=".3" style="paint-order:normal"/><rect x="14" y="8" width="4" height="4" ry="2" opacity=".3" style="paint-order:normal"/><rect x="20" y="8" width="4" height="4" ry="2" opacity=".3" style="paint-order:normal"/></g></svg>
