<?xml version="1.0" encoding="UTF-8"?>
<!-- Created with Inkscape (http://www.inkscape.org/) -->
<svg id="SVGRoot" width="48px" height="48px" version="1.1" viewBox="0 0 48 48" xml:space="preserve" xmlns="http://www.w3.org/2000/svg" xmlns:cc="http://creativecommons.org/ns#" xmlns:dc="http://purl.org/dc/elements/1.1/" xmlns:rdf="http://www.w3.org/1999/02/22-rdf-syntax-ns#"><defs><style>.cls-1{fill:none;stroke:#fff;stroke-linecap:round;stroke-linejoin:round;}</style><style>.cls-1{fill:none;stroke:#fff;stroke-linecap:round;stroke-linejoin:round;}</style></defs><metadata><rdf:RDF><cc:Work rdf:about=""><dc:format>image/svg+xml</dc:format><dc:type rdf:resource="http://purl.org/dc/dcmitype/StillImage"/></cc:Work></rdf:RDF></metadata><rect x="4" y="4" width="40" height="40" ry="8" fill="#4e4e4e" fill-rule="evenodd" style="paint-order:stroke fill markers"/><rect x="10" y="10" width="28" height="28" ry="14" fill="#fff" stroke-linecap="round" stroke-linejoin="round" stroke-width="2"/><rect x="12" y="12" width="24" height="24" ry="12" fill="#4e4e4e" stroke-linecap="round" stroke-linejoin="round" stroke-width="2"/><path d="m12 4c-4.432 0-8 3.568-8 8v24c0 4.432 3.568 8 8 8h24c4.432 0 8-3.568 8-8v-24c0-4.432-3.568-8-8-8zm0 1h24c3.878 0 7 3.122 7 7v24c0 3.878-3.122 7-7 7h-24c-3.878 0-7-3.122-7-7v-24c0-3.878 3.122-7 7-7z" fill-rule="evenodd" opacity=".4" style="paint-order:stroke fill markers"/><path d="m20.827 12.995s-4.8079 4.1409-0.87105 8.3938c3.4983 3.7791 8.0848 0.94294 8.9877-0.87105 0 0 5.3065-0.13331 6.5329 5.8994-1.647-4.2088-5.4064-4.7523-7.9978-3.4446-4.8676 2.4563-2.4944 7.6811-2.4944 7.6811-1.7062 2.9599-5.4401 4.2253-8.4729 2.6923 4.8303 1.0067 7.5145-2.643 7.1268-6.5725-0.25636-2.5985-3.4551-4.5791-5.741-4.5532-2.526-6.372 2.9299-9.2252 2.9299-9.2252z" fill="#fff" stroke-linecap="round" stroke-linejoin="round" stroke-width="1.8781"/></svg>
