<?xml version="1.0" encoding="UTF-8"?>
<!-- Created with Inkscape (http://www.inkscape.org/) -->
<svg id="SVGRoot" width="48px" height="48px" version="1.1" viewBox="0 0 48 48" xml:space="preserve" xmlns="http://www.w3.org/2000/svg" xmlns:cc="http://creativecommons.org/ns#" xmlns:dc="http://purl.org/dc/elements/1.1/" xmlns:rdf="http://www.w3.org/1999/02/22-rdf-syntax-ns#"><defs><style>.cls-1{fill:none;stroke:#fff;stroke-linecap:round;stroke-linejoin:round;}</style><style>.cls-1{fill:none;stroke:#fff;stroke-linecap:round;stroke-linejoin:round;}</style><style>.a{fill:none;stroke:#b1b5bd;stroke-linecap:round;stroke-linejoin:round;isolation:isolate;opacity:0.63;}</style><style>.cls-1{fill:none;stroke:#fff;stroke-linecap:round;stroke-linejoin:round;}</style></defs><metadata><rdf:RDF><cc:Work rdf:about=""><dc:format>image/svg+xml</dc:format><dc:type rdf:resource="http://purl.org/dc/dcmitype/StillImage"/></cc:Work></rdf:RDF></metadata><rect x="4" y="4" width="40" height="40" ry="8" fill="#4e4e4e" fill-rule="evenodd" style="paint-order:stroke fill markers"/><path d="m19.184 35.923s5.5348 0.23088 7.9688 1.3914c2.3116 1.1022 3.4419-0.3681 3.5417-1.3492 0.19603-1.928 1.3071-3.5417 1.3071-3.5417l-1.9817-6.5774-10.456 0.42163z" fill="#7c52cf" stroke-linecap="round" stroke-linejoin="round"/><path d="m26.31 10.625s2.694 3.3367 4.5958 5.945c0.40606 0.55692 0.67739 1.2979 0.59028 1.9817-0.30924 2.4272 1.0575 5.6243 2.9514 8.3483 0.26525 0.38149 0.3309 0.99756 0.08433 1.3914-0.98109 1.567-2.5298 4.132-2.5298 4.132s-2.3218-5.1514-6.6196-5.692c-1.1592-1.4181-3.5417-7.4207-3.5417-7.4207z" fill="#ac89eb" stroke-linecap="round" stroke-linejoin="round"/><path d="m12 4c-4.432 0-8 3.568-8 8v24c0 4.432 3.568 8 8 8h24c4.432 0 8-3.568 8-8v-24c0-4.432-3.568-8-8-8zm0 1h24c3.878 0 7 3.122 7 7v24c0 3.878-3.122 7-7 7h-24c-3.878 0-7-3.122-7-7v-24c0-3.878 3.122-7 7-7z" fill-rule="evenodd" opacity=".4" style="paint-order:stroke fill markers"/><path d="m16.486 21.503s-1.8827 4.6479-2.9514 6.9147c-0.44825 0.95081-0.05039 1.6478 0.63244 2.5298 1.4419 1.8624 5.0174 4.9752 5.0174 4.9752s2.5011-4.2584 1.56-8.7699c-0.40501-1.9417 0.25298-5.945 0.25298-5.945z" fill="#ac89eb" stroke-linecap="round" stroke-linejoin="round"/><path d="m24.918 10.035c-1.3317 0.02069-4.0678 2.7335-6.8304 5.4812-0.40673 0.40453-0.83662 0.90413-0.88542 1.4757-0.18337 2.1477-0.71677 4.5114-0.71677 4.5114s3.4094 1.743 4.2585 5.6498c0.02787 0.08079 4.6379-0.42163 4.6379-0.42163s-1.836-3.8725-1.4757-6.7039c0.32827-2.58 2.4901-5.9748 2.6563-7.3363 0.08406-0.68869-0.25298-2.066-0.25298-2.066s-0.88763-0.59811-1.3914-0.59028z" fill="#e5d7ff" stroke-linecap="round" stroke-linejoin="round"/></svg>
