<?xml version="1.0" encoding="UTF-8"?>
<!-- Created with Inkscape (http://www.inkscape.org/) -->
<svg id="SVGRoot" width="48px" height="48px" version="1.1" viewBox="0 0 48 48" xml:space="preserve" xmlns="http://www.w3.org/2000/svg" xmlns:cc="http://creativecommons.org/ns#" xmlns:dc="http://purl.org/dc/elements/1.1/" xmlns:rdf="http://www.w3.org/1999/02/22-rdf-syntax-ns#"><defs id="defs815"><style id="style819">.cls-1{fill:none;stroke:#fff;stroke-linecap:round;stroke-linejoin:round;}</style><style id="style819-3">.cls-1{fill:none;stroke:#fff;stroke-linecap:round;stroke-linejoin:round;}</style><style id="style819-6">.cls-1{fill:none;stroke:#fff;stroke-linecap:round;stroke-linejoin:round;}</style><style id="style819-60">.cls-1{fill:none;stroke:#fff;stroke-linecap:round;stroke-linejoin:round;}</style></defs><metadata id="metadata818"><rdf:RDF><cc:Work rdf:about=""><dc:format>image/svg+xml</dc:format><dc:type rdf:resource="http://purl.org/dc/dcmitype/StillImage"/></cc:Work></rdf:RDF></metadata><g id="layer1"><rect id="rect1373-5" x="4" y="4" width="40" height="40" ry="8" fill="#efefef" fill-rule="evenodd" style="paint-order:stroke fill markers"/><path id="path1" d="m12.802 6s-4.8553 28.208 9.5273 30.029c14.383 1.8208 19.67-8.8173 19.67-8.8173v-13.127s-10.319 21.713-19.592 19.396c-9.2728-2.3168-1.1971-27.481-1.1971-27.481z" fill="#62a3d4" stroke-linecap="round" stroke-width="4.6198"/><path id="rect817" d="m12 4c-4.432 0-8 3.568-8 8v24c0 4.432 3.568 8 8 8h24c4.432 0 8-3.568 8-8v-24c0-4.432-3.568-8-8-8h-24zm0 1h24c3.878 0 7 3.122 7 7v24c0 3.878-3.122 7-7 7h-24c-3.878 0-7-3.122-7-7v-24c0-3.878 3.122-7 7-7z" fill-rule="evenodd" opacity=".3" style="paint-order:stroke fill markers"/><g id="g1065" transform="translate(0,-2)"><path id="path883" d="m19 47 5-6h21" fill="none" stroke="#979797" stroke-linecap="round" stroke-linejoin="round" stroke-width="2"/><path id="path883-1" d="m39 47-5-6h-21" fill="none" stroke="#979797" stroke-linecap="round" stroke-linejoin="round" stroke-width="2"/><rect id="rect900-9" x="32" y="38" width="10" height="6" fill="#fff" fill-rule="evenodd" opacity=".5" style="paint-order:stroke fill markers"/><rect id="rect958" x="16" y="38" width="10" height="6" fill="#fff" fill-rule="evenodd" opacity=".5" style="paint-order:stroke fill markers"/><path id="rect818" d="m14.5 36c-1.385 0-2.5 1.115-2.5 2.5v2.5h2v1c0 2.216 1.784 4 4 4h6c2.216 0 4-1.784 4-4v-2h2v2c0 2.216 1.784 4 4 4h6c2.216 0 4-1.784 4-4v-1h2v-2.5c0-1.385-1.115-2.5-2.5-2.5h-12.5c-0.554 0-1 0.446-1 1v1h-2v-1c0-0.554-0.446-1-1-1h-9zm3.5 2h7c0.554 0 1 0.446 1 1v3c0 1.108-0.892 2-2 2h-6c-1.108 0-2-0.892-2-2v-2c0-1.108 0.892-2 2-2zm15 0h7c1.108 0 2 0.892 2 2v2c0 1.108-0.892 2-2 2h-6c-1.108 0-2-0.892-2-2v-3c0-0.554 0.446-1 1-1z" fill="#4e4e4e" fill-rule="evenodd" style="paint-order:stroke fill markers"/><path id="rect818-8" d="m14.5 36c-1.385 0-2.5 1.115-2.5 2.5v2.5h2v1c0 2.216 1.784 4 4 4h6c2.216 0 4-1.784 4-4v-2h2v2c0 2.216 1.784 4 4 4h6c2.216 0 4-1.784 4-4v-1h2v-2.5c0-1.385-1.115-2.5-2.5-2.5h-12.5c-0.554 0-1 0.446-1 1v1h-2v-1c0-0.554-0.446-1-1-1h-9zm0 1h12.5v5c0 1.6793-1.3207 3-3 3h-6c-1.6793 0-3-1.3207-3-3v-2h-2v-1.5c0-0.8483 0.6517-1.5 1.5-1.5zm16.5 0h12.5c0.8483 0 1.5 0.6517 1.5 1.5v1.5h-2v2c0 1.6793-1.3207 3-3 3h-6c-1.6793 0-3-1.3207-3-3v-3z" color="#000000" color-rendering="auto" dominant-baseline="auto" fill-rule="evenodd" image-rendering="auto" opacity=".35" shape-rendering="auto" solid-color="#000000" style="font-feature-settings:normal;font-variant-alternates:normal;font-variant-caps:normal;font-variant-ligatures:normal;font-variant-numeric:normal;font-variant-position:normal;isolation:auto;mix-blend-mode:normal;paint-order:normal;shape-padding:0;text-decoration-color:#000000;text-decoration-line:none;text-decoration-style:solid;text-indent:0;text-orientation:mixed;text-transform:none;white-space:normal"/><path id="rect1030" d="m18 38c-1.108 0-2 0.892-2 2v2c0 1.108 0.892 2 2 2h6c1.108 0 2-0.892 2-2v-3c0-0.554-0.446-1-1-1h-2zm0 1h6.5c0.277 0 0.5 0.223 0.5 0.5v2.5c0 0.554-0.446 1-1 1h-6c-0.554 0-1-0.446-1-1v-2c0-0.554 0.446-1 1-1z" fill="#fff" fill-rule="evenodd" opacity=".5" style="paint-order:normal"/><path id="rect1030-2" d="m40 38c1.108 0 2 0.892 2 2v2c0 1.108-0.892 2-2 2h-6c-1.108 0-2-0.892-2-2v-3c0-0.554 0.446-1 1-1h2zm0 1h-6.5c-0.277 0-0.5 0.223-0.5 0.5v2.5c0 0.554 0.446 1 1 1h6c0.554 0 1-0.446 1-1v-2c0-0.554-0.446-1-1-1z" fill="#fff" fill-rule="evenodd" opacity=".5" style="paint-order:normal"/></g></g></svg>
