<?xml version="1.0" encoding="UTF-8"?>
<!-- Created with Inkscape (http://www.inkscape.org/) -->
<svg id="SVGRoot" width="48px" height="48px" version="1.1" viewBox="0 0 48 48" xmlns="http://www.w3.org/2000/svg" xmlns:cc="http://creativecommons.org/ns#" xmlns:dc="http://purl.org/dc/elements/1.1/" xmlns:rdf="http://www.w3.org/1999/02/22-rdf-syntax-ns#">
 <defs id="defs815">
  <style id="style819">.cls-1{fill:none;stroke:#fff;stroke-linecap:round;stroke-linejoin:round;}</style>
 </defs>
 <metadata id="metadata818">
  <rdf:RDF>
   <cc:Work rdf:about="">
    <dc:format>image/svg+xml</dc:format>
    <dc:type rdf:resource="http://purl.org/dc/dcmitype/StillImage"/>
    <dc:title/>
   </cc:Work>
  </rdf:RDF>
 </metadata>
 <g id="layer1" fill-rule="evenodd">
  <rect id="rect1373" x="4" y="4" width="40" height="40" ry="8" fill="#efefef" style="paint-order:stroke fill markers"/>
  <path id="rect817" d="m12 4c-4.432 0-8 3.568-8 8v24c0 4.432 3.568 8 8 8h24c4.432 0 8-3.568 8-8v-24c0-4.432-3.568-8-8-8h-24zm0 1h24c3.878 0 7 3.122 7 7v24c0 3.878-3.122 7-7 7h-24c-3.878 0-7-3.122-7-7v-24c0-3.878 3.122-7 7-7z" opacity=".3" style="paint-order:stroke fill markers"/>
  <path id="rect821" d="m12 6c-3.324 0-6 2.676-6 6v12h18v-18h-12z" fill="#ffc81f" style="paint-order:stroke fill markers"/>
  <path id="rect819" d="m24 24v18h12c3.324 0 6-2.676 6-6v-12h-18z" fill="#54abdd" style="paint-order:stroke fill markers"/>
  <path id="rect905" d="m12 8c-2.216 0-4 1.784-4 4v4c0 2.216 1.784 4 4 4s4-1.784 4-4v-4c0-2.216-1.784-4-4-4zm0 2c1.108 0 2 0.892 2 2v4c0 1.108-0.892 2-2 2s-2-0.892-2-2v-4c0-1.108 0.892-2 2-2z" opacity=".5" style="paint-order:normal"/>
  <path id="rect910" d="m26 26v12h4.5c1.939 0 3.5-1.561 3.5-3.5 0-0.98304-0.40444-1.8654-1.0527-2.5 0.6483-0.63457 1.0527-1.517 1.0527-2.5 0-1.939-1.561-3.5-3.5-3.5h-1zm2 2h2.5c0.831 0 1.5 0.669 1.5 1.5s-0.669 1.5-1.5 1.5h-2.5v-1.5zm0 5h2.5c0.831 0 1.5 0.669 1.5 1.5s-0.669 1.5-1.5 1.5h-2.5z" opacity=".5" style="paint-order:normal"/>
 </g>
</svg>
