<?xml version="1.0" encoding="UTF-8"?>
<!-- Created with Inkscape (http://www.inkscape.org/) -->
<svg id="SVGRoot" width="48px" height="48px" version="1.1" viewBox="0 0 48 48" xml:space="preserve" xmlns="http://www.w3.org/2000/svg" xmlns:cc="http://creativecommons.org/ns#" xmlns:dc="http://purl.org/dc/elements/1.1/" xmlns:rdf="http://www.w3.org/1999/02/22-rdf-syntax-ns#"><defs><style>.cls-1{fill:none;stroke:#fff;stroke-linecap:round;stroke-linejoin:round;}</style><style id="current-color-scheme" type="text/css">.ColorScheme-Text {
        color:#31363b;
      }
      .ColorScheme-Accent {
        color:#3daee9;
      }</style><style type="text/css">.ColorScheme-Text {
        color:#31363b;
      }
      .ColorScheme-Accent {
        color:#3daee9;
      }</style><style>.cls-1{fill:none;stroke:#fff;stroke-linecap:round;stroke-linejoin:round;}</style><style>.a{fill:none;stroke:#b1b5bd;stroke-linecap:round;stroke-linejoin:round;isolation:isolate;opacity:0.63;}</style><style>.cls-1{fill:none;stroke:#fff;stroke-linecap:round;stroke-linejoin:round;}</style><style>.cls-1{fill:none;stroke:#fff;stroke-linecap:round;stroke-linejoin:round;}</style><style>.a{fill:none;stroke:#b1b5bd;stroke-linecap:round;stroke-linejoin:round;isolation:isolate;opacity:0.63;}</style><style>.a{fill:none;stroke:#b1b5bd;stroke-linecap:round;stroke-linejoin:round;isolation:isolate;opacity:0.63;}</style></defs><metadata><rdf:RDF><cc:Work rdf:about=""><dc:format>image/svg+xml</dc:format><dc:type rdf:resource="http://purl.org/dc/dcmitype/StillImage"/></cc:Work></rdf:RDF></metadata><g fill-rule="evenodd"><rect x="4" y="4" width="40" height="40" ry="8" fill="#c184ed" style="paint-order:stroke fill markers"/><path d="m12 4c-4.432 0-8 3.568-8 8v24c0 4.432 3.568 8 8 8h24c4.432 0 8-3.568 8-8v-24c0-4.432-3.568-8-8-8zm-3 4h13c1.0608 2.04e-4 2.0781 0.42173 2.8281 1.1719l0.82812 0.82812h13.344c2.216 0 4 1.784 4 4v22c0 3.878-3.122 7-7 7h-24c-3.878 0-7-3.122-7-7v-24c2.209e-4 -2.209 1.791-3.9998 4-4z" opacity=".3" style="paint-order:stroke fill markers"/></g><g fill="#fff" stroke-linecap="round" stroke-linejoin="round" stroke-width="1.732"><rect x="21" y="15" width="6" height="22" ry="3"/><rect transform="rotate(90)" x="23" y="-35" width="6" height="22" ry="3"/><rect transform="rotate(-45)" x="-4.4142" y="24.355" width="6" height="22" ry="3"/><rect transform="rotate(45)" x="32.355" y="-9.5858" width="6" height="22" ry="3"/></g><rect x="20" y="22" width="8" height="8" ry="4" fill="#eb7396" stroke-linecap="round" stroke-linejoin="round" stroke-width="2.6667"/></svg>
