<?xml version="1.0" encoding="UTF-8"?>
<!-- Created with Inkscape (http://www.inkscape.org/) -->
<svg id="SVGRoot" width="48px" height="48px" version="1.1" viewBox="0 0 48 48" xmlns="http://www.w3.org/2000/svg" xmlns:cc="http://creativecommons.org/ns#" xmlns:dc="http://purl.org/dc/elements/1.1/" xmlns:rdf="http://www.w3.org/1999/02/22-rdf-syntax-ns#">
 <defs id="defs815">
  <style id="style819">.cls-1{fill:none;stroke:#fff;stroke-linecap:round;stroke-linejoin:round;}</style>
 </defs>
 <metadata id="metadata818">
  <rdf:RDF>
   <cc:Work rdf:about="">
    <dc:format>image/svg+xml</dc:format>
    <dc:type rdf:resource="http://purl.org/dc/dcmitype/StillImage"/>
    <dc:title/>
   </cc:Work>
  </rdf:RDF>
 </metadata>
 <g id="layer1">
  <rect id="rect1373-5" x="4" y="4" width="40" height="40" ry="8" fill="#efefef" fill-rule="evenodd" style="paint-order:stroke fill markers"/>
  <path id="rect817" d="m12 4c-4.432 0-8 3.568-8 8v24c0 4.432 3.568 8 8 8h24c4.432 0 8-3.568 8-8v-24c0-4.432-3.568-8-8-8h-24zm0 1h24c3.878 0 7 3.122 7 7v24c0 3.878-3.122 7-7 7h-24c-3.878 0-7-3.122-7-7v-24c0-3.878 3.122-7 7-7z" fill-rule="evenodd" opacity=".3" style="paint-order:stroke fill markers"/>
  <path id="path828" d="m19.989 24.637s-5.7608 0.91882-4.4012 1.7972c3.3902 2.1901 14.414-0.36676 14.414-0.36676s-10.987 0.46728-12.103-0.11003c-0.78847-0.40794 2.0906-1.3204 2.0906-1.3204z" fill="#2c7eb2"/>
  <path id="path830" d="m18.852 28.195s-1.4484 0.35666-1.1003 1.0269c0.47177 0.90838 2.4678 1.165 5.4648 1.137 3.6925-0.03448 5.6115-0.91691 5.6115-0.91691l-0.95359-0.91691s-3.1396 0.68335-4.768 0.69686c-2.0692 0.01717-3.7771-0.09301-4.2545-0.4768-0.14293-0.1149 0-0.55015 0-0.55015z" fill="#2c7eb2"/>
  <path id="path832" d="m19.695 30.909s-1.2789 0.50231-1.2103 1.0269c0.13893 1.0626 2.8172 1.1608 4.9513 1.1736 1.5907 0.0096 4.9513-0.77021 4.9513-0.77021l-1.3937-0.91691s-2.4727 0.49599-3.741 0.51347c-1.1757 0.0162-3.1123 0.0801-3.4843-0.36676-0.14166-0.17017-0.07335-0.66018-0.07335-0.66018z" fill="#2c7eb2"/>
  <path id="path834" d="m23.986 24.417s-2.1703-3.1602-1.9805-4.9513c0.36636-3.4583 5.1495-5.0777 5.9049-8.4723 0.33792-1.5184-0.95359-2.8974-0.95359-2.8974s0.49526 1.4988 0.14671 2.5674c-1.1506 3.5274-7.0615 4.7264-7.1519 8.4356-0.0548 2.2468 4.0344 5.3181 4.0344 5.3181z" fill="#d35244"/>
  <path id="path836" d="m25.454 25.481s2.3445-1.6088 2.4573-2.8608c0.12588-1.3971-2.3381-2.2442-2.1272-3.631 0.37703-2.4802 4.9513-4.878 4.9513-4.878s-5.609 0.95601-6.8218 4.9513c-0.46912 1.5453 1.7731 2.8319 1.9439 4.4379 0.07125 0.66996-0.40344 1.9805-0.40344 1.9805z" fill="#d35244"/>
  <path id="path838" d="m17.018 33.476s-4.2503 0.19908-3.9977 1.6138c0.2394 1.3409 7.2913 1.7976 11.003 1.7238 10.985-0.21854 9.4992-2.7507 9.4992-2.7507s0.28875 1.5684-9.3892 1.9439c-3.1444 0.12198-9.2106-0.35516-9.3525-1.2837-0.12902-0.84397 2.2373-1.247 2.2373-1.247z" fill="#2c7eb2"/>
  <path id="path840" d="m17.311 37.107s6.0638 0.48695 9.0958 0.36677c6.2772-0.24882 8.619-2.0539 8.619-2.0539s-1.117 2.4801-8.8024 2.7141c-5.9948 0.18248-8.9124-1.0269-8.9124-1.0269z" fill="#2c7eb2"/>
  <path id="path842" d="m30.442 30.249s3.5674-2.0014 3.5209-3.7043c-0.06014-2.2038-2.7507-2.0539-2.7507-2.0539s3.7472-1.0301 3.9611 2.2006c0.13036 1.9689-4.7313 3.5576-4.7313 3.5576z" fill="#2c7eb2"/>
 </g>
</svg>
