<?xml version="1.0" encoding="UTF-8"?>
<!-- Created with Inkscape (http://www.inkscape.org/) -->
<svg id="SVGRoot" width="48px" height="48px" version="1.1" viewBox="0 0 48 48" xmlns="http://www.w3.org/2000/svg" xmlns:cc="http://creativecommons.org/ns#" xmlns:dc="http://purl.org/dc/elements/1.1/" xmlns:rdf="http://www.w3.org/1999/02/22-rdf-syntax-ns#">
 <defs id="defs815">
  <style id="style819">.cls-1{fill:none;stroke:#fff;stroke-linecap:round;stroke-linejoin:round;}</style>
  <style id="style819-4">.cls-1{fill:none;stroke:#fff;stroke-linecap:round;stroke-linejoin:round;}</style>
  <style id="current-color-scheme" type="text/css">.ColorScheme-Text {
        color:#31363b;
      }
      .ColorScheme-Accent {
        color:#3daee9;
      }</style>
  <style id="current-color-scheme-6" type="text/css">.ColorScheme-Text {
        color:#31363b;
      }
      .ColorScheme-Accent {
        color:#3daee9;
      }</style>
 </defs>
 <metadata id="metadata818">
  <rdf:RDF>
   <cc:Work rdf:about="">
    <dc:format>image/svg+xml</dc:format>
    <dc:type rdf:resource="http://purl.org/dc/dcmitype/StillImage"/>
    <dc:title/>
   </cc:Work>
  </rdf:RDF>
 </metadata>
 <g id="layer1" fill-rule="evenodd">
  <rect id="rect1373-5" x="4" y="4" width="40" height="40" ry="8" fill="#d35244" style="paint-order:stroke fill markers"/>
  <rect id="rect818" x="10" y="10" width="28" height="28" ry="14" fill="#fff" style="paint-order:normal"/>
  <rect id="rect818-6" x="18" y="12" width="20" height="24" rx="10" ry="12" fill="#fba89e" style="paint-order:normal"/>
  <rect id="rect835" x="18" y="14" width="12" height="20" rx="6" ry="10" fill="#d35244" style="paint-order:normal"/>
  <path id="rect1373-5-7" d="m12 6c-3.324 0-6 2.676-6 6v24c0 3.324 2.676 6 6 6h12v-36h-12z" fill="#efefef" style="paint-order:stroke fill markers"/>
  <path id="rect818-5" d="m24 10c-7.756 0-14 6.244-14 14s6.244 14 14 14z" fill="#b7bfc2" style="paint-order:normal"/>
  <path id="rect867" d="m24 14c-3.324 0-6 4.46-6 10s2.676 10 6 10z" fill="#efefef" style="paint-order:normal"/>
  <path id="rect817" d="m12 4c-4.432 0-8 3.568-8 8v24c0 4.432 3.568 8 8 8h24c4.432 0 8-3.568 8-8v-24c0-4.432-3.568-8-8-8h-24zm0 1h24c3.878 0 7 3.122 7 7v24c0 3.878-3.122 7-7 7h-24c-3.878 0-7-3.122-7-7v-24c0-3.878 3.122-7 7-7z" opacity=".3" style="paint-order:stroke fill markers"/>
 </g>
</svg>
