<?xml version="1.0" encoding="UTF-8"?>
<!-- Created with Inkscape (http://www.inkscape.org/) -->
<svg id="SVGRoot" width="48px" height="48px" version="1.1" viewBox="0 0 48 48" xmlns="http://www.w3.org/2000/svg" xmlns:cc="http://creativecommons.org/ns#" xmlns:dc="http://purl.org/dc/elements/1.1/" xmlns:rdf="http://www.w3.org/1999/02/22-rdf-syntax-ns#" xmlns:xlink="http://www.w3.org/1999/xlink">
 <defs id="defs815">
  <style id="style819">.cls-1{fill:none;stroke:#fff;stroke-linecap:round;stroke-linejoin:round;}</style>
  <style id="style819-9">.cls-1{fill:none;stroke:#fff;stroke-linecap:round;stroke-linejoin:round;}</style>
  <style id="style819-3">.cls-1{fill:none;stroke:#fff;stroke-linecap:round;stroke-linejoin:round;}</style>
  <style id="style819-16">.cls-1{fill:none;stroke:#fff;stroke-linecap:round;stroke-linejoin:round;}</style>
  <style id="style819-3-41">.cls-1{fill:none;stroke:#fff;stroke-linecap:round;stroke-linejoin:round;}</style>
  <style id="style819-1">.cls-1{fill:none;stroke:#fff;stroke-linecap:round;stroke-linejoin:round;}</style>
  <style id="style2">.a{fill:none;stroke:#b1b5bd;stroke-linecap:round;stroke-linejoin:round;isolation:isolate;opacity:0.63;}</style>
  <style id="style819-12">.cls-1{fill:none;stroke:#fff;stroke-linecap:round;stroke-linejoin:round;}</style>
  <style id="style819-0">.cls-1{fill:none;stroke:#fff;stroke-linecap:round;stroke-linejoin:round;}</style>
  <style id="style819-3-4">.cls-1{fill:none;stroke:#fff;stroke-linecap:round;stroke-linejoin:round;}</style>
  <style id="style819-1-7">.cls-1{fill:none;stroke:#fff;stroke-linecap:round;stroke-linejoin:round;}</style>
  <style id="style2-3">.a{fill:none;stroke:#b1b5bd;stroke-linecap:round;stroke-linejoin:round;isolation:isolate;opacity:0.63;}</style>
  <style id="style819-12-9">.cls-1{fill:none;stroke:#fff;stroke-linecap:round;stroke-linejoin:round;}</style>
  <style id="style819-09">.cls-1{fill:none;stroke:#fff;stroke-linecap:round;stroke-linejoin:round;}</style>
  <style id="style819-5">.cls-1{fill:none;stroke:#fff;stroke-linecap:round;stroke-linejoin:round;}</style>
 </defs>
 <metadata id="metadata818">
  <rdf:RDF>
   <cc:Work rdf:about="">
    <dc:format>image/svg+xml</dc:format>
    <dc:type rdf:resource="http://purl.org/dc/dcmitype/StillImage"/>
    <dc:title/>
   </cc:Work>
  </rdf:RDF>
 </metadata>
 <g id="layer1" fill-rule="evenodd">
  <rect id="rect1373-5" x="4" y="4" width="40" height="40" ry="8" fill="#729dec" style="paint-order:stroke fill markers"/>
  <path id="rect817" d="m12 4c-4.432 0-8 3.568-8 8v24c0 4.432 3.568 8 8 8h24c4.432 0 8-3.568 8-8v-24c0-4.432-3.568-8-8-8h-24zm0 1h24c3.878 0 7 3.122 7 7v24c0 3.878-3.122 7-7 7h-24c-3.878 0-7-3.122-7-7v-24c0-3.878 3.122-7 7-7z" opacity=".3" style="paint-order:stroke fill markers"/>
  <path id="rect818-6-1" d="m22 8c-0.554 0-1 0.446-1 1v1.3281c-1.6449 0.35685-3.1761 1.004-4.5469 1.8809l-0.9375-0.9375c-0.39174-0.39174-1.0243-0.39174-1.416 0l-2.8281 2.8281c-0.39174 0.39174-0.39174 1.0243 0 1.416l0.9375 0.9375c-0.87686 1.3708-1.524 2.902-1.8809 4.5469h-1.3281c-0.554 0-1 0.446-1 1v4c0 0.554 0.446 1 1 1h1.3281c0.35685 1.6449 1.004 3.1761 1.8809 4.5469l-0.9375 0.9375c-0.39174 0.39174-0.39174 1.0243 0 1.416l2.8281 2.8281c0.39174 0.39174 1.0243 0.39174 1.416 0l0.9375-0.9375c1.3708 0.87686 2.902 1.524 4.5469 1.8809v1.3281c0 0.554 0.446 1 1 1h4c0.554 0 1-0.446 1-1v-1.3281c1.6449-0.35685 3.1761-1.004 4.5469-1.8809l0.9375 0.9375c0.39174 0.39174 1.0243 0.39174 1.416 0l2.8281-2.8281c0.39174-0.39174 0.39174-1.0243 0-1.416l-0.9375-0.9375c0.87686-1.3708 1.524-2.902 1.8809-4.5469h1.3281c0.554 0 1-0.446 1-1v-4c0-0.554-0.446-1-1-1h-1.3281c-0.35685-1.6449-1.004-3.1761-1.8809-4.5469l0.9375-0.9375c0.39174-0.39174 0.39174-1.0243 0-1.416l-2.8281-2.8281c-0.39174-0.39174-1.0243-0.39174-1.416 0l-0.9375 0.9375c-1.3708-0.87686-2.902-1.524-4.5469-1.8809v-1.3281c0-0.554-0.446-1-1-1z" opacity=".25" style="paint-order:normal"/>
  <path id="rect818" d="m24 14c-5.54 0-10 4.46-10 10s4.46 10 10 10 10-4.46 10-10-4.46-10-10-10zm0 4c2.216 0 4 2.676 4 6s-1.784 6-4 6-4-2.676-4-6 1.784-6 4-6z" fill="#fff" style="paint-order:normal"/>
 </g>
</svg>
