<?xml version="1.0" encoding="UTF-8"?>
<!-- Created with Inkscape (http://www.inkscape.org/) -->
<svg id="SVGRoot" width="48px" height="48px" version="1.1" viewBox="0 0 48 48" xml:space="preserve" xmlns="http://www.w3.org/2000/svg" xmlns:cc="http://creativecommons.org/ns#" xmlns:dc="http://purl.org/dc/elements/1.1/" xmlns:rdf="http://www.w3.org/1999/02/22-rdf-syntax-ns#"><defs><style>.cls-1{fill:none;stroke:#fff;stroke-linecap:round;stroke-linejoin:round;}</style></defs><metadata><rdf:RDF><cc:Work rdf:about=""><dc:format>image/svg+xml</dc:format><dc:type rdf:resource="http://purl.org/dc/dcmitype/StillImage"/></cc:Work></rdf:RDF></metadata><rect x="4" y="4" width="40" height="40" ry="8" fill="#dedcd9" fill-rule="evenodd" style="paint-order:stroke fill markers"/><path d="m12 4c-4.432 0-8 3.568-8 8v24c0 4.432 3.568 8 8 8h24c4.432 0 8-3.568 8-8v-24c0-4.432-3.568-8-8-8zm0 1h24c3.878 0 7 3.122 7 7v24c0 3.878-3.122 7-7 7h-24c-3.878 0-7-3.122-7-7v-24c0-3.878 3.122-7 7-7z" fill-rule="evenodd" opacity=".3" style="paint-order:stroke fill markers"/><path d="m12 6c-3.324 0-6 2.676-6 6v12h18v-18h-12zm12 18v18h12c3.324 0 6-2.676 6-6v-12h-18z" fill="#5c5c63" stroke-linecap="round" stroke-linejoin="round" stroke-width="2"/><path d="m20.125 13.045c0-1.4997-1.2204-2.7168-2.7265-2.7168-0.99116 0-1.8596 0.52786-2.3358 1.3172-0.47621-0.78937-1.3447-1.3172-2.3358-1.3172-1.5061 0-2.7265 1.2172-2.7265 2.7168 0 0.7813 0.33092 1.4851 0.8604 1.9807h-0.0016l4.1406 3.9743 4.2665-3.9743h-0.0016c0.52948-0.49558 0.8604-1.1994 0.8604-1.9807" fill="#dedcd9"/><g stroke-linecap="round"><path d="m33 10c-2.7413 0-5 2.2568-5 4.9981 1e-6 2.7413 2.2587 5 5 5 2.7413 0 5-2.2587 5-5 0-2.7413-2.2587-4.9981-5-4.9981zm0 3.332c0.93981 0 1.666 0.72621 1.666 1.666s-0.72621 1.668-1.666 1.668c-0.93981 0-1.666-0.72815-1.666-1.668s0.7262-1.666 1.666-1.666z" fill="#5c5c63" stop-color="#000000" stroke-linejoin="round" stroke-width=".99533"/><path d="m33.138 28.636a1.1012 1.1012 0 0 0-0.77813 0.32247 1.1012 1.1012 0 0 0 0 1.558l2.5254 2.5237-2.5254 2.5254a1.1012 1.1012 0 0 0 0 1.558 1.1012 1.1012 0 0 0 1.5563 0l4.0834-4.0817-4.0834-4.0834a1.1012 1.1012 0 0 0-0.77813-0.32247z" fill="#dedcd9" stop-color="#000000" stroke-width=".8973"/><path d="m29.101 31.939a1.1012 1.1012 0 0 0-1.1006 1.1023 1.1012 1.1012 0 0 0 1.1006 1.1006h7.3414a1.1012 1.1012 0 0 0 1.1006-1.1006 1.1012 1.1012 0 0 0-1.1006-1.1023z" fill="#dedcd9" stop-color="#000000" stroke-width=".8973"/></g><path d="m12.074 28c-1.1458 0-2.0738 0.92805-2.0738 2.0738 0 1.1458 0.92806 2.0738 2.0738 2.0738 1.1458 0 2.0738-0.92806 2.0738-2.0738 0-1.1458-0.92805-2.0738-2.0738-2.0738zm5.8075 0c-1.1458 0-2.0738 0.92805-2.0738 2.0738 0 1.1458 0.92806 2.0738 2.0738 2.0738 1.1458 0 2.0738-0.92806 2.0738-2.0738 0-1.1458-0.92805-2.0738-2.0738-2.0738zm-5.8075 5.8075c-1.1458 0-2.0738 0.92805-2.0738 2.0738 0 1.1458 0.92806 2.0738 2.0738 2.0738 1.1458 0 2.0738-0.92806 2.0738-2.0738 0-1.1458-0.92805-2.0738-2.0738-2.0738zm5.8075 0c-1.1458 0-2.0738 0.92805-2.0738 2.0738 0 1.1458 0.92806 2.0738 2.0738 2.0738 1.1458 0 2.0738-0.92806 2.0738-2.0738 0-1.1458-0.92805-2.0738-2.0738-2.0738z" fill="#5c5c63"/></svg>
