<?xml version="1.0" encoding="UTF-8"?>
<!-- Created with Inkscape (http://www.inkscape.org/) -->
<svg id="SVGRoot" width="48px" height="48px" version="1.1" viewBox="0 0 48 48" xmlns="http://www.w3.org/2000/svg" xmlns:cc="http://creativecommons.org/ns#" xmlns:dc="http://purl.org/dc/elements/1.1/" xmlns:rdf="http://www.w3.org/1999/02/22-rdf-syntax-ns#">
 <defs>
  <style>.cls-1{fill:none;stroke:#fff;stroke-linecap:round;stroke-linejoin:round;}</style>
 </defs>
 <metadata>
  <rdf:RDF>
   <cc:Work rdf:about="">
    <dc:format>image/svg+xml</dc:format>
    <dc:type rdf:resource="http://purl.org/dc/dcmitype/StillImage"/>
   </cc:Work>
  </rdf:RDF>
 </metadata>
 <rect x="4" y="4" width="40" height="40" ry="8" fill="#aa5ebb" fill-rule="evenodd" style="paint-order:stroke fill markers"/>
 <path d="m12 4c-4.432 0-8 3.568-8 8v24c0 4.432 3.568 8 8 8h24c4.432 0 8-3.568 8-8v-24c0-4.432-3.568-8-8-8zm0 1h24c3.878 0 7 3.122 7 7v24c0 3.878-3.122 7-7 7h-24c-3.878 0-7-3.122-7-7v-24c0-3.878 3.122-7 7-7z" fill-rule="evenodd" opacity=".3" style="paint-order:stroke fill markers"/>
 <g fill="#fff">
  <path d="m30.306 12.011c-1.7716 0-3.5639 0.47381-4.7793 1.339l1.1536 2.2455c0.80342-0.63862 2.0188-1.03 3.1931-1.03 1.7304 0 2.6984 0.92205 2.6984 2.3023l-3.1984-0.01512c-3.3784-0.01585-4.7585 1.7028-4.7585 3.6598 0 1.9158 1.41 3.3038 4.0056 3.3038 1.6274 0 3.3539-0.48158 3.9513-1.491l1.91e-4 1.365 3.4108-6.39e-4 -3.85e-4 -6.6523c-1.91e-4 -3.3579-2.298-5.0265-5.6764-5.0265zm-0.74699 9.6963c-1.133 0-1.8128-0.53561-1.8128-1.339 0-0.74161 0.47363-1.4786 1.9774-1.469l2.8482 0.01512 1.91e-4 1.0329c1.93e-4 1.0754-1.9418 1.7601-3.013 1.7601z" style="font-feature-settings:normal;font-variant-caps:normal;font-variant-ligatures:normal;font-variant-numeric:normal"/>
  <path d="m22.759 21.933c-0.42964 0.35212-0.73293 0.47788-1.112 0.47788-0.58129 0-0.7582-0.35212-0.7582-1.4588v-4.9046c0-1.3079-0.12638-2.0373-0.50547-2.6409-0.55601-0.90546-2.0793-1.3833-3.5704-1.3833-2.3757 0-4.2459 1.2324-4.2459 2.817 0 0.57849 0.4802 1.0815 1.0868 1.0815 0.60656 0 1.1373-0.50303 1.1373-1.0564 0-0.10061-0.02529-0.22636-0.05056-0.40242-0.05054-0.22636-0.07582-0.42758-0.07582-0.60364 0-0.6791 0.80875-1.2324 1.8197-1.2324 1.2384 0 2.1245 0.72939 2.1245 2.0876v1.9999c-3.4808 1.0224-4.5255 1.295-5.6122 2.2507-0.55602 0.50303-0.90985 1.3582-0.90985 2.1882 0 1.5846 1.112 2.6912 2.6537 2.6912 1.112 0 2.352-0.52818 3.8936-1.8361 0.12638 1.333 0.81412 1.8361 1.8503 1.8361 0.8593 0 1.39-0.30182 2.2746-1.2576zm-4.1502-1.4336c0 0.75455-0.12638 1.0312-0.65711 1.333-0.63184 0.35213-1.5179 0.55334-2.0487 0.55334-0.88457 0-1.5922-0.85516-1.5922-1.9367v-0.10061c0.02529-1.5091 1.341-1.9992 4.298-3.0304z"/>
  <path d="m30.385 25.983c-1.0513-0.0065-1.9819 0.62948-2.7717 1.264-1.6935 1.4297-2.9759 3.3883-3.4052 5.5796-0.24785 1.1235-0.27645 2.4737 0.52926 3.3886 0.4578 0.50038 1.1723 0.64027 1.8082 0.45146 1.4907-0.27961 2.8506-1.2133 3.6101-2.5324-0.03497 0.7933 0.08986 1.6807 0.65699 2.2763 0.74504 0.48573 1.753 0.32498 2.5011-0.07795 1.0994-0.82139 1.9112-1.9563 2.7853-2.9995 0.58502-0.75838 1.2096-1.4984 1.6994-2.3219 0.41468-0.58231-0.32071-1.1375-0.70595-0.47974-1.2324 1.469-2.3434 3.0597-3.7757 4.3469-0.40785 0.53113-1.4856 0.71623-1.6172-0.14048-0.19852-0.75777 0.1443-1.5104 0.23875-2.2586 0.29447-1.3198 0.63684-2.6356 0.81498-3.9768 0.02413-0.70556-1.6732 0.33891-0.97095-0.49864 0.39522-0.58714 0.1777-1.4976-0.50937-1.7522-0.2809-0.13233-0.584-0.2134-0.88804-0.26877zm-0.59978 1.545c0.63629 0.18856-0.01004 1.2212 0.11589 1.3712 0.41078-9e-3 1.2302-0.48851 0.9284 0.29832-0.19033 1.1905-0.48722 2.3691-0.84562 3.5163-0.56996 0.86266-1.3416 1.6524-2.3113 2.0478-0.52447 0.25695-1.273-0.05236-1.2718-0.68813-0.14409-1.263 0.23763-2.5312 0.77201-3.663 0.60193-1.0256 1.2089-2.1512 2.2601-2.7817 0.10876-0.05542 0.22778-0.10529 0.3523-0.10087z"/>
  <path d="m14.097 25.994c-1.2344-0.01737-1.2344 1.843 0 1.8256h4.5095c0.0052 4.57e-4 0.13036 0.01499 0.26742 0.09003 0.1398 0.07662 0.22176 0.08597 0.24513 0.42876v-0.0089l0.11232 2.3702c-0.21025-0.08053-0.35121-0.115-0.35121-0.115l-0.10786-0.02675h-4.2189c-1.9777 0-2.6911 1.9931-2.6911 1.9931l-0.04725 0.14084v1.0608c0 1.3844 0.65323 2.3402 1.3415 2.7704 0.68831 0.43019 1.3968 0.4243 1.3968 0.4243h3.4648l1.5483-1.0055 0.0089 0.14618c0.04093 1.2484 1.9274 1.1376 1.822-0.10697l-0.45634-7.7631v-0.0045c-0.06425-0.9426-0.66712-1.6183-1.19-1.9049-0.52288-0.28661-1.0304-0.31288-1.0304-0.31288l-0.0303-0.0018zm0.45639 6.3895h3.9453c0.04878 0.01426 0.23973 0.0645 0.47333 0.22017 0.2549 0.16987 0.40063 0.31464 0.40826 0.61862l0.06329 0.62219-1.9655 1.2774h-2.9246s-0.20429-0.0059-0.42876-0.14618c-0.22447-0.14029-0.48402-0.32542-0.48402-1.223v-0.714c0.04692-0.1392 0.24406-0.65517 0.91278-0.65517z" color="#000000" color-rendering="auto" dominant-baseline="auto" fill-rule="evenodd" image-rendering="auto" shape-rendering="auto" solid-color="#000000" style="font-feature-settings:normal;font-variant-alternates:normal;font-variant-caps:normal;font-variant-ligatures:normal;font-variant-numeric:normal;font-variant-position:normal;isolation:auto;mix-blend-mode:normal;shape-padding:0;text-decoration-color:#000000;text-decoration-line:none;text-decoration-style:solid;text-indent:0;text-orientation:mixed;text-transform:none;white-space:normal"/>
 </g>
</svg>
