<?xml version="1.0" encoding="UTF-8"?>
<!-- Created with Inkscape (http://www.inkscape.org/) -->
<svg id="SVGRoot" width="48px" height="48px" version="1.1" viewBox="0 0 48 48" xml:space="preserve" xmlns="http://www.w3.org/2000/svg" xmlns:cc="http://creativecommons.org/ns#" xmlns:dc="http://purl.org/dc/elements/1.1/" xmlns:rdf="http://www.w3.org/1999/02/22-rdf-syntax-ns#"><defs><style>.cls-1{fill:none;stroke:#fff;stroke-linecap:round;stroke-linejoin:round;}</style><style>.cls-1{fill:none;stroke:#fff;stroke-linecap:round;stroke-linejoin:round;}</style><style>.cls-1{fill:none;stroke:#fff;stroke-linecap:round;stroke-linejoin:round;}</style><style>.cls-1{fill:none;stroke:#fff;stroke-linecap:round;stroke-linejoin:round;}</style><style>.cls-1{fill:none;stroke:#fff;stroke-linecap:round;stroke-linejoin:round;}</style><style>.a{fill:none;stroke:#b1b5bd;stroke-linecap:round;stroke-linejoin:round;isolation:isolate;opacity:0.63;}</style><style>.cls-1{fill:none;stroke:#fff;stroke-linecap:round;stroke-linejoin:round;}</style><style>.cls-1{fill:none;stroke:#fff;stroke-linecap:round;stroke-linejoin:round;}</style></defs><metadata><rdf:RDF><cc:Work rdf:about=""><dc:format>image/svg+xml</dc:format><dc:type rdf:resource="http://purl.org/dc/dcmitype/StillImage"/></cc:Work></rdf:RDF></metadata><rect x="4" y="4" width="40" height="40" ry="8" fill="#4e4e4e" fill-rule="evenodd" style="paint-order:stroke fill markers"/><path d="m12 4c-4.432 0-8 3.568-8 8v24c0 4.432 3.568 8 8 8h24c4.432 0 8-3.568 8-8v-24c0-4.432-3.568-8-8-8zm0 1h24c3.878 0 7 3.122 7 7v24c0 3.878-3.122 7-7 7h-24c-3.878 0-7-3.122-7-7v-24c0-3.878 3.122-7 7-7z" fill-rule="evenodd" opacity=".4" style="paint-order:stroke fill markers"/><path d="m19.943 12.48-2.8262 0.08398-0.58984 3.2891s-5.3015 0.21502-6.0703 3.4141c-0.74111 3.0838 4.6367 5.6094 4.6367 5.6094l-0.7168 4.5957-3.8789-0.50586-0.54688 3.0352 3.373 0.21094-1.3242 3.7871h3l1.1055-3.8301s5.4046-0.20171 6.0723-3.668c0.59956-3.1127-4.6387-5.4805-4.6387-5.4805l0.92774-4.5117 3.2891 0.50586 0.37891-2.9102-2.8242-0.29492zm-3.8359 5.9785c0.2292-0.0025 0.37891 0.0078 0.37891 0.0078l-0.63281 3.416s-2.3053-1.311-2.0664-2.3184c0.22823-0.96219 1.6327-1.0978 2.3203-1.1055zm0.67383 7.5137s2.3932 1.1416 1.9805 2.4453c-0.35184 1.1115-2.6133 1.0547-2.6133 1.0547z" fill="#827ff7" stroke-linecap="round" stroke-linejoin="round" stroke-width="2"/><path d="m24 14 2 19h3l2-8 2 8h3l2-19h-3l-1 15-2-8h-2l-2 8-1-15z" fill="#827ff7" stroke-linecap="round" stroke-linejoin="round" stroke-width="2"/></svg>
