<?xml version="1.0" encoding="UTF-8"?>
<!-- Created with Inkscape (http://www.inkscape.org/) -->
<svg id="SVGRoot" width="48px" height="48px" version="1.1" viewBox="0 0 48 48" xml:space="preserve" xmlns="http://www.w3.org/2000/svg" xmlns:cc="http://creativecommons.org/ns#" xmlns:dc="http://purl.org/dc/elements/1.1/" xmlns:rdf="http://www.w3.org/1999/02/22-rdf-syntax-ns#"><defs><style>.cls-1{fill:none;stroke:#fff;stroke-linecap:round;stroke-linejoin:round;}</style><style>.cls-1{fill:none;stroke:#fff;stroke-linecap:round;stroke-linejoin:round;}</style><style>.cls-1{fill:none;stroke:#fff;stroke-linecap:round;stroke-linejoin:round;}</style><style>.cls-1{fill:none;stroke:#fff;stroke-linecap:round;stroke-linejoin:round;}</style><style>.a{fill:none;stroke:#b1b5bd;stroke-linecap:round;stroke-linejoin:round;isolation:isolate;opacity:0.63;}</style><style>.cls-1{fill:none;stroke:#fff;stroke-linecap:round;stroke-linejoin:round;}</style><style>.cls-1{fill:none;stroke:#fff;stroke-linecap:round;stroke-linejoin:round;}</style></defs><metadata><rdf:RDF><cc:Work rdf:about=""><dc:format>image/svg+xml</dc:format><dc:type rdf:resource="http://purl.org/dc/dcmitype/StillImage"/></cc:Work></rdf:RDF></metadata><rect x="4" y="4" width="40" height="40" ry="8" fill="#dedcd9" fill-rule="evenodd" style="paint-order:stroke fill markers"/><path d="m12 4c-4.432 0-8 3.568-8 8v24c0 4.432 3.568 8 8 8h24c4.432 0 8-3.568 8-8v-24c0-4.432-3.568-8-8-8zm0 1h24c3.878 0 7 3.122 7 7v24c0 3.878-3.122 7-7 7h-24c-3.878 0-7-3.122-7-7v-24c0-3.878 3.122-7 7-7z" fill-rule="evenodd" opacity=".3" style="paint-order:stroke fill markers"/><g stroke-linecap="round" stroke-linejoin="round"><path d="m34 34h-20" fill="none" opacity=".3" stroke="#000" stroke-width="8"/><path d="m33.1 20.154a4 4 0 0 0-3.043 0.34961l-18 10a4 4 0 0 0-1.5527 5.4395 4 4 0 0 0 5.4395 1.5527l18-10a4 4 0 0 0 1.5527-5.4395 4 4 0 0 0-2.3965-1.9023z" fill="#96d56b" stop-color="#000000"/><path d="m22.9 12.154a4 4 0 0 0-2.3965 1.9023l-10 18a4 4 0 0 0 1.5527 5.4395 4 4 0 0 0 5.4395-1.5527l10-18a4 4 0 0 0-1.5527-5.4395 4 4 0 0 0-3.043-0.34961z" fill="#d35244" stop-color="#000000"/><path d="m14 10a4 4 0 0 0-4 4v20a4 4 0 0 0 4 4 4 4 0 0 0 4-4v-20a4 4 0 0 0-4-4z" fill="#729dec" stop-color="#000000"/></g><rect x="12" y="32" width="4" height="4" ry="2" fill="#fff" fill-rule="evenodd" style="paint-order:stroke fill markers"/></svg>
