<?xml version="1.0" encoding="UTF-8"?>
<!-- Created with Inkscape (http://www.inkscape.org/) -->
<svg id="SVGRoot" width="48px" height="48px" version="1.1" viewBox="0 0 48 48" xmlns="http://www.w3.org/2000/svg" xmlns:cc="http://creativecommons.org/ns#" xmlns:dc="http://purl.org/dc/elements/1.1/" xmlns:rdf="http://www.w3.org/1999/02/22-rdf-syntax-ns#">
 <defs id="defs815">
  <style id="style819">.cls-1{fill:none;stroke:#fff;stroke-linecap:round;stroke-linejoin:round;}</style>
 </defs>
 <metadata id="metadata818">
  <rdf:RDF>
   <cc:Work rdf:about="">
    <dc:format>image/svg+xml</dc:format>
    <dc:type rdf:resource="http://purl.org/dc/dcmitype/StillImage"/>
    <dc:title/>
   </cc:Work>
  </rdf:RDF>
 </metadata>
 <g id="layer1">
  <rect id="rect1373-5" x="4" y="4" width="40" height="40" ry="8" fill="#f6a559" fill-rule="evenodd" style="paint-order:stroke fill markers"/>
  <rect id="rect865" x="8" y="8" width="32" height="32" ry="16" fill="#c184ed" fill-rule="evenodd" style="paint-order:stroke fill markers"/>
  <path id="rect817" d="m12 4c-4.432 0-8 3.568-8 8v24c0 4.432 3.568 8 8 8h24c4.432 0 8-3.568 8-8v-24c0-4.432-3.568-8-8-8h-24zm0 1h24c3.878 0 7 3.122 7 7v24c0 3.878-3.122 7-7 7h-24c-3.878 0-7-3.122-7-7v-24c0-3.878 3.122-7 7-7z" fill-rule="evenodd" opacity=".3" style="paint-order:stroke fill markers"/>
  <path id="rect922" d="m16.984 14c-0.54615 0.0086-0.98439 0.45378-0.98438 1v4c5.5e-5 0.55226 0.44774 0.99994 1 1h4c0.89064-3.5e-4 1.3366-1.077 0.70703-1.707l-1.3926-1.3926c1.1024-0.57194 2.3529-0.90039 3.6855-0.90039 4.432 0 8 3.568 8 8s-3.568 8-8 8c-2.8176 0-5.2806-1.4455-6.7051-3.6348l-0.02539 0.01953c-0.18295-0.229-0.45232-0.38476-0.76953-0.38476-0.554 0-1 0.446-1 1 0 0.23678 0.09391 0.4443 0.23047 0.61523l-0.0078 0.0078c1.7958 2.6442 4.8264 4.377 8.2773 4.377 5.54 0 10-4.46 10-10s-4.46-10-10-10c-1.891 0-3.6514 0.52489-5.1543 1.4316l-1.1387-1.1387c-0.19132-0.19141-0.45205-0.29711-0.72266-0.29297z" fill="#f9e7fe" fill-rule="evenodd" style="paint-order:normal"/>
  <path id="path939" d="m24 20v4l3 3" fill="none" stroke="#f9e7fe" stroke-linecap="round" stroke-linejoin="round" stroke-width="2"/>
 </g>
</svg>
