<?xml version="1.0" encoding="UTF-8"?>
<!-- Created with Inkscape (http://www.inkscape.org/) -->
<svg id="SVGRoot" width="48px" height="48px" version="1.1" viewBox="0 0 48 48" xml:space="preserve" xmlns="http://www.w3.org/2000/svg" xmlns:cc="http://creativecommons.org/ns#" xmlns:dc="http://purl.org/dc/elements/1.1/" xmlns:rdf="http://www.w3.org/1999/02/22-rdf-syntax-ns#"><defs><style>.cls-1{fill:none;stroke:#fff;stroke-linecap:round;stroke-linejoin:round;}</style><style>.cls-1{fill:none;stroke:#fff;stroke-linecap:round;stroke-linejoin:round;}</style><style>.cls-1{fill:none;stroke:#fff;stroke-linecap:round;stroke-linejoin:round;}</style><style>.cls-1{fill:none;stroke:#fff;stroke-linecap:round;stroke-linejoin:round;}</style><style>.cls-1{fill:none;stroke:#fff;stroke-linecap:round;stroke-linejoin:round;}</style><style>.cls-1{fill:none;stroke:#fff;stroke-linecap:round;stroke-linejoin:round;}</style><style>.a{fill:none;stroke:#b1b5bd;stroke-linecap:round;stroke-linejoin:round;isolation:isolate;opacity:0.63;}</style><style>.a{fill:none;stroke:#b1b5bd;stroke-linecap:round;stroke-linejoin:round;isolation:isolate;opacity:0.63;}</style><style>.cls-1{fill:none;stroke:#fff;stroke-linecap:round;stroke-linejoin:round;}</style><style>.cls-1{fill:none;stroke:#fff;stroke-linecap:round;stroke-linejoin:round;}</style><style>.a{fill:none;stroke:#b1b5bd;stroke-linecap:round;stroke-linejoin:round;isolation:isolate;opacity:0.63;}</style><style>.cls-1{fill:none;stroke:#fff;stroke-linecap:round;stroke-linejoin:round;}</style><style>.cls-1{fill:none;stroke:#fff;stroke-linecap:round;stroke-linejoin:round;}</style><style>.cls-1{fill:none;stroke:#fff;stroke-linecap:round;stroke-linejoin:round;}</style><style>.cls-1{fill:none;stroke:#fff;stroke-linecap:round;stroke-linejoin:round;}</style></defs><metadata><rdf:RDF><cc:Work rdf:about=""><dc:format>image/svg+xml</dc:format><dc:type rdf:resource="http://purl.org/dc/dcmitype/StillImage"/></cc:Work></rdf:RDF></metadata><rect x="4" y="4" width="40" height="40" ry="8" fill="#4e4e4e" fill-rule="evenodd" style="paint-order:stroke fill markers"/><rect x="10" y="10" width="28" height="28" ry="14" fill="#b7bfc2" stroke-linecap="round" stroke-linejoin="round" stroke-width="4"/><path d="m12 4c-4.432 0-8 3.568-8 8v24c0 4.432 3.568 8 8 8h24c4.432 0 8-3.568 8-8v-24c0-4.432-3.568-8-8-8zm0 1h24c3.878 0 7 3.122 7 7v24c0 3.878-3.122 7-7 7h-24c-3.878 0-7-3.122-7-7v-24c0-3.878 3.122-7 7-7z" fill-rule="evenodd" opacity=".3" style="paint-order:stroke fill markers"/><g stroke-linecap="round" stroke-linejoin="round"><path d="m10.285 21.158c-0.1876 0.91702-0.28516 1.8677-0.28516 2.8418 0 7.756 6.244 14 14 14 4.0572 0 7.7015-1.7094 10.254-4.4492 0 0-1.9765 1.7559-3.3906 0.11914-0.828-0.95834 0.095703-2.4766 0.095703-2.4766l-16.756-9.2168s-0.21842 1.7412-2.2031 1.5508-1.7148-2.3691-1.7148-2.3691z" fill="#fff" stroke-width="4"/><rect x="14" y="14" width="20" height="20" ry="10" fill="#4e4e4e" stroke-width="4.4444"/><rect x="19" y="19" width="10" height="10" ry="5" fill="#b7bfc2" stroke-width="5"/><path d="m32.188 18.172-9 4a2 2 0 0 0-1.0156 2.6406 2 2 0 0 0 2.6406 1.0156l9-4a2 2 0 0 0 1.0156-2.6406 2 2 0 0 0-2.6406-1.0156z" fill="#b7bfc2" stop-color="#000000"/></g><g stroke-linecap="round" stroke-linejoin="round"><path d="m15 28 9-4" fill="#000080" stop-color="#000000"/><path d="m23.188 22.172-9 4a2 2 0 0 0-1.0156 2.6406 2 2 0 0 0 2.6406 1.0156l9-4a2 2 0 0 0 1.0156-2.6406 2 2 0 0 0-2.6406-1.0156z" fill="#fff" stop-color="#000000"/></g></svg>
