<?xml version="1.0" encoding="UTF-8"?>
<!-- Created with Inkscape (http://www.inkscape.org/) -->
<svg id="SVGRoot" width="48px" height="48px" version="1.1" viewBox="0 0 48 48" xmlns="http://www.w3.org/2000/svg" xmlns:cc="http://creativecommons.org/ns#" xmlns:dc="http://purl.org/dc/elements/1.1/" xmlns:rdf="http://www.w3.org/1999/02/22-rdf-syntax-ns#">
 <defs id="defs815">
  <style id="style819">.cls-1{fill:none;stroke:#fff;stroke-linecap:round;stroke-linejoin:round;}</style>
 </defs>
 <metadata id="metadata818">
  <rdf:RDF>
   <cc:Work rdf:about="">
    <dc:format>image/svg+xml</dc:format>
    <dc:type rdf:resource="http://purl.org/dc/dcmitype/StillImage"/>
    <dc:title/>
   </cc:Work>
  </rdf:RDF>
 </metadata>
 <g id="layer1" fill-rule="evenodd">
  <rect id="rect1373-5" x="4" y="4" width="40" height="40" ry="8" fill="#3772ae" style="paint-order:stroke fill markers"/>
  <rect id="rect823" x="4" y="4" width="40" height="28" ry="8" fill="#71b9e3" style="paint-order:stroke fill markers"/>
  <path id="rect817" d="m12 4c-4.432 0-8 3.568-8 8v24c0 4.432 3.568 8 8 8h24c4.432 0 8-3.568 8-8v-24c0-4.432-3.568-8-8-8h-24zm0 1h24c3.878 0 7 3.122 7 7v24c0 3.878-3.122 7-7 7h-24c-3.878 0-7-3.122-7-7v-24c0-3.878 3.122-7 7-7z" opacity=".3" style="paint-order:stroke fill markers"/>
  <rect id="rect818" x="8" y="34" width="32" height="12" ry="4" fill="#efefef" style="paint-order:stroke fill markers"/>
  <rect id="rect825" x="15" y="34" width="6" height="2" fill="#b7bfc2" style="paint-order:stroke fill markers"/>
  <rect id="rect827" x="27" y="34" width="6" height="2" fill="#b7bfc2" style="paint-order:stroke fill markers"/>
  <rect id="rect829" x="8" y="38" width="32" height="8" ry="4" fill="#b7bfc2" style="paint-order:stroke fill markers"/>
  <path id="rect853" d="m12 34c-2.216 0-4 1.784-4 4v4c0 2.216 1.784 4 4 4h24c2.216 0 4-1.784 4-4v-4c0-2.216-1.784-4-4-4zm0 1h24c1.662 0 3 1.338 3 3v4c0 1.662-1.338 3-3 3h-24c-1.662 0-3-1.338-3-3v-4c0-1.662 1.338-3 3-3z" opacity=".25" style="paint-order:stroke fill markers"/>
  <path id="rect815" d="m29 6c-3.878 0-7 3.122-7 7v10c0 1.662-1.338 3-3 3s-3-1.338-3-3 1.338-3 3-3h1v-4h-1c-3.878 0-7 3.122-7 7s3.122 7 7 7 7-3.122 7-7v-3h2c1.108 0 2-0.892 2-2s-0.892-2-2-2h-2v-3c0-1.662 1.338-3 3-3s3 1.338 3 3c0 1.108 0.892 2 2 2s2-0.892 2-2c0-3.878-3.122-7-7-7z" fill="#fff" style="paint-order:stroke fill markers"/>
  <rect id="rect820" x="10" y="40" width="28" height="4" ry="2" fill="#4e4e4e" style="paint-order:stroke fill markers"/>
 </g>
</svg>
