<?xml version="1.0" encoding="UTF-8"?>
<!-- Created with Inkscape (http://www.inkscape.org/) -->
<svg id="SVGRoot" width="48px" height="48px" version="1.1" viewBox="0 0 48 48" xmlns="http://www.w3.org/2000/svg" xmlns:cc="http://creativecommons.org/ns#" xmlns:dc="http://purl.org/dc/elements/1.1/" xmlns:rdf="http://www.w3.org/1999/02/22-rdf-syntax-ns#">
 <defs id="defs815">
  <style id="style819">.cls-1{fill:none;stroke:#fff;stroke-linecap:round;stroke-linejoin:round;}</style>
 </defs>
 <metadata id="metadata818">
  <rdf:RDF>
   <cc:Work rdf:about="">
    <dc:format>image/svg+xml</dc:format>
    <dc:type rdf:resource="http://purl.org/dc/dcmitype/StillImage"/>
    <dc:title/>
   </cc:Work>
  </rdf:RDF>
 </metadata>
 <g id="layer1">
  <rect id="rect1373-5" x="4" y="4" width="40" height="40" ry="8" fill="#59ca84" fill-rule="evenodd" style="paint-order:stroke fill markers"/>
  <path id="rect817" d="m12 4c-4.432 0-8 3.568-8 8v24c0 4.432 3.568 8 8 8h24c4.432 0 8-3.568 8-8v-24c0-4.432-3.568-8-8-8h-24zm0 1h24c3.878 0 7 3.122 7 7v24c0 3.878-3.122 7-7 7h-24c-3.878 0-7-3.122-7-7v-24c0-3.878 3.122-7 7-7z" fill-rule="evenodd" opacity=".3" style="paint-order:stroke fill markers"/>
  <path id="path878" d="m19 23h10c2 0 2 2 2 2v2" fill="none" stroke="#c1f8cc" stroke-linecap="round" stroke-linejoin="round" stroke-width="2"/>
  <path id="path878-3" d="m31 15h2c2 0 2 2 2 2v13" fill="none" stroke="#c1f8cc" stroke-linecap="round" stroke-linejoin="round" stroke-width="2"/>
  <path id="path878-3-5" d="m13 29v4c0 2 2 2 2 2h3" fill="none" stroke="#c1f8cc" stroke-linecap="round" stroke-linejoin="round" stroke-width="2"/>
  <path id="path910" d="m17 33v4l2-2z" stroke="#c1f8cc" stroke-linecap="round" stroke-linejoin="round" stroke-width="2"/>
  <rect id="rect872" x="10" y="10" width="10" height="20" ry="3" fill="#fff" fill-rule="evenodd" style="paint-order:stroke fill markers"/>
  <rect id="rect874" x="22" y="10" width="10" height="10" ry="3" fill="#fff" fill-rule="evenodd" style="paint-order:stroke fill markers"/>
  <rect id="rect876" x="22" y="26" width="16" height="12" ry="3" fill="#fff" fill-rule="evenodd" style="paint-order:stroke fill markers"/>
  <rect id="rect912" x="24" y="12" width="6" height="2" ry="1" fill="#59ca84" fill-rule="evenodd" style="paint-order:stroke fill markers"/>
  <rect id="rect914" x="24" y="12" width="4" height="4" ry="1" fill="#59ca84" fill-rule="evenodd" style="paint-order:stroke fill markers"/>
  <rect id="rect916" x="12" y="12" width="6" height="8" ry="1" fill="#59ca84" fill-rule="evenodd" style="paint-order:stroke fill markers"/>
  <rect id="rect918" x="12" y="18" width="4" height="4" ry="1" fill="#59ca84" fill-rule="evenodd" style="paint-order:stroke fill markers"/>
  <rect id="rect920" x="24" y="28" width="12" height="4" ry="1" fill="#59ca84" fill-rule="evenodd" style="paint-order:stroke fill markers"/>
  <rect id="rect922" x="24" y="28" width="6" height="6" ry="1" fill="#59ca84" fill-rule="evenodd" style="paint-order:stroke fill markers"/>
 </g>
</svg>
