<?xml version="1.0" encoding="UTF-8"?>
<!-- Created with Inkscape (http://www.inkscape.org/) -->
<svg id="SVGRoot" width="48px" height="48px" version="1.1" viewBox="0 0 48 48" xml:space="preserve" xmlns="http://www.w3.org/2000/svg" xmlns:cc="http://creativecommons.org/ns#" xmlns:dc="http://purl.org/dc/elements/1.1/" xmlns:rdf="http://www.w3.org/1999/02/22-rdf-syntax-ns#"><defs><style>.cls-1{fill:none;stroke:#fff;stroke-linecap:round;stroke-linejoin:round;}</style><style>.cls-1{fill:none;stroke:#fff;stroke-linecap:round;stroke-linejoin:round;}</style><style>.cls-1{fill:none;stroke:#fff;stroke-linecap:round;stroke-linejoin:round;}</style></defs><metadata><rdf:RDF><cc:Work rdf:about=""><dc:format>image/svg+xml</dc:format><dc:type rdf:resource="http://purl.org/dc/dcmitype/StillImage"/></cc:Work></rdf:RDF></metadata><path d="m12 4c-4.432 0-8 3.568-8 8v12 4 8h8 24 8v-8-4-12c0-4.432-3.568-8-8-8h-24z" fill="#65bcbd" style="paint-order:stroke fill markers"/><g fill="#fff"><path d="m31 36 5-6h-15l-4-6 4-6h8l5-6h-16l-8 12 8 12z"/><g fill-rule="evenodd"><rect x="34" y="14" width="2" height="2" ry="1" style="paint-order:stroke fill markers"/><rect x="31" y="17" width="4" height="4" ry="2" style="paint-order:stroke fill markers"/><rect x="32" y="22" width="6" height="6" ry="3" style="paint-order:stroke fill markers"/></g></g><path d="m18 12 3 6 3-2zm0 0-8 12 7-4zm-8 12 2.6 4 4.4-4zm7 5 1 7 3-6zm4 1 10 6 5-6z" fill="#65bcbd" opacity=".3"/><path d="m4 34v2c0 4.432 3.568 8 8 8h24c4.432 0 8-3.568 8-8v-2h-36z" fill="#ffcd4b" fill-rule="evenodd" style="paint-order:normal"/><path d="m7 34-2.9414 2.9414c0.27174 2.3349 1.5409 4.3531 3.373 5.627l8.5684-8.5684h-8zm18 0-10 10h9l10-10zm18 0-10 10h3c4.432 0 8-3.568 8-8v-2z" opacity=".3"/><rect x="5" y="34" width="38" height="1" fill-rule="evenodd" opacity=".3" style="paint-order:stroke fill markers"/><path d="m12 4c-4.432 0-8 3.568-8 8v24c0 4.432 3.568 8 8 8h24c4.432 0 8-3.568 8-8v-24c0-4.432-3.568-8-8-8zm0 1h24c3.878 0 7 3.122 7 7v24c0 3.878-3.122 7-7 7h-24c-3.878 0-7-3.122-7-7v-24c0-3.878 3.122-7 7-7z" fill-rule="evenodd" opacity=".3" style="paint-order:stroke fill markers"/></svg>
