<?xml version="1.0" encoding="UTF-8"?>
<!-- Created with Inkscape (http://www.inkscape.org/) -->
<svg id="SVGRoot" width="48px" height="48px" version="1.1" viewBox="0 0 48 48" xml:space="preserve" xmlns="http://www.w3.org/2000/svg" xmlns:cc="http://creativecommons.org/ns#" xmlns:dc="http://purl.org/dc/elements/1.1/" xmlns:rdf="http://www.w3.org/1999/02/22-rdf-syntax-ns#" xmlns:xlink="http://www.w3.org/1999/xlink"><defs><style>.cls-1{fill:none;stroke:#fff;stroke-linecap:round;stroke-linejoin:round;}</style></defs><metadata><rdf:RDF><cc:Work rdf:about=""><dc:format>image/svg+xml</dc:format><dc:type rdf:resource="http://purl.org/dc/dcmitype/StillImage"/></cc:Work></rdf:RDF></metadata><rect x="4" y="4" width="40" height="40" ry="8" fill="#efefef" fill-rule="evenodd" style="paint-order:stroke fill markers"/><path d="m12 4c-4.432 0-8 3.568-8 8v24c0 4.432 3.568 8 8 8h24c4.432 0 8-3.568 8-8v-24c0-4.432-3.568-8-8-8zm0 1h24c3.878 0 7 3.122 7 7v24c0 3.878-3.122 7-7 7h-24c-3.878 0-7-3.122-7-7v-24c0-3.878 3.122-7 7-7z" fill-rule="evenodd" opacity=".3" style="paint-order:stroke fill markers"/><g transform="matrix(.38462 0 0 .38462 139 -65.338)" enable-background="new"><path transform="translate(-358,176)" d="m26 20v17s0.12372 2.819-2.8945 4.3281l1.7891 3.5762c4.9818-2.4909 5.1055-7.9043 5.1055-7.9043v-1h12v2s-0.0278 1.1674-0.4707 2.2305c-0.44294 1.063-0.8293 1.7695-2.5293 1.7695h-1l-2 4h3c3.3 0 5.4136-2.2935 6.2207-4.2305 0.80707-1.937 0.7793-3.7695 0.7793-3.7695v-18zm4 4h12v2h-12zm0 6h12v2h-12z" color="#000000" color-rendering="auto" dominant-baseline="auto" enable-background="new" fill="#62a0ea" image-rendering="auto" shape-rendering="auto" solid-color="#000000" style="font-feature-settings:normal;font-variant-alternates:normal;font-variant-caps:normal;font-variant-ligatures:normal;font-variant-numeric:normal;font-variant-position:normal;isolation:auto;mix-blend-mode:normal;shape-padding:0;text-decoration-color:#000000;text-decoration-line:none;text-decoration-style:solid;text-indent:0;text-orientation:mixed;text-transform:none;white-space:normal"/></g><g transform="matrix(.35807 0 0 .35807 138.97 -60.084)" enable-background="new" fill="#26a269"><path transform="translate(-352,168)" d="m60 78a2 2 0 0 0-2 2 2 2 0 0 0 2 2 2 2 0 0 0 2-2 2 2 0 0 0-2-2zm-4 6a2 2 0 0 0-2 2 2 2 0 0 0 2 2 2 2 0 0 0 2-2 2 2 0 0 0-2-2zm8 0a2 2 0 0 0-2 2 2 2 0 0 0 2 2 2 2 0 0 0 2-2 2 2 0 0 0-2-2zm6 6-4 2v4h-4v-4l-4 2v2l-8-2e-3 0.07227 4.002c-1e-3 1.1273-0.87241 1.998-2 1.998-1.1283 0-2-0.87174-2-2h-4c0 3.29 2.71 6 6 6 3.29 0 6-2.71 6-6l15.928 0.001953zm-15.928 3.9961-4 2h4z" color="#000000" color-rendering="auto" dominant-baseline="auto" enable-background="new" image-rendering="auto" shape-rendering="auto" solid-color="#000000" style="font-feature-settings:normal;font-variant-alternates:normal;font-variant-caps:normal;font-variant-ligatures:normal;font-variant-numeric:normal;font-variant-position:normal;isolation:auto;mix-blend-mode:normal;shape-padding:0;text-decoration-color:#000000;text-decoration-line:none;text-decoration-style:solid;text-indent:0;text-orientation:mixed;text-transform:none;white-space:normal"/><path d="m-309.93 268 4-2v2z" enable-background="new"/></g><text x="-58" y="126" fill="#000000" font-family="sans-serif" font-size="40px" letter-spacing="0px" stroke-width="1px" word-spacing="0px" style="line-height:1000%" xml:space="preserve"><tspan x="-58" y="336.39062"/></text><path d="m14.677 32.671q0-0.43226-0.14194-0.74839-0.14193-0.32258-0.37419-0.54194-0.09032-0.09032-0.19355-0.16774-0.15484-0.11613-0.21935-0.18064-0.25806-0.24516-0.3871-0.56774-0.12903-0.32258-0.12903-0.68387 0-0.37419 0.13548-0.69032 0.13548-0.31613 0.38064-0.56129 0.20645-0.20645 0.58064-0.3871 0.29678-0.14194 0.66452-0.14194 0.36774 0 0.67742 0.14194 0.34839 0.15484 0.58065 0.3871 0.24516 0.24516 0.38065 0.56129 0.13548 0.31613 0.13548 0.69032 0 0.39355-0.13548 0.70323-0.13548 0.30323-0.38065 0.54839-0.06452 0.06451-0.23226 0.18064-0.05161 0.03869-0.18064 0.16774-0.26452 0.25807-0.39355 0.5742-0.12258 0.30968-0.12258 0.71613 0.43871 0 0.76129-0.14839 0.32903-0.15484 0.54194-0.36774 0.08388-0.08387 0.16129-0.18709 0.11613-0.16129 0.18064-0.22581 0.25161-0.25161 0.57419-0.38064 0.32258-0.13549 0.68387-0.13549 0.37419 0 0.69032 0.13549 0.31613 0.13548 0.56129 0.38064 0.23226 0.23226 0.3871 0.58065 0.13548 0.30322 0.13548 0.67097t-0.13548 0.67097q-0.15484 0.34838-0.3871 0.58064-0.24516 0.24516-0.56129 0.38064-0.31613 0.13549-0.69032 0.13549-0.36129 0-0.68387-0.12904-0.32258-0.13548-0.57419-0.38709-0.06452-0.06452-0.18064-0.22581-0.07742-0.10322-0.16129-0.1871-0.26452-0.25161-0.58064-0.38064-0.30968-0.13548-0.72258-0.13548 0 0.4387 0.14839 0.76774 0.15484 0.32258 0.36774 0.53548 0.08387 0.08388 0.1871 0.1613 0.16129 0.11613 0.22581 0.18064 0.25161 0.25161 0.38065 0.57419 0.13548 0.32258 0.13548 0.68387 0 0.37419-0.13548 0.69032-0.13548 0.31613-0.38065 0.56129-0.23226 0.23226-0.58065 0.3871-0.30322 0.13549-0.67097 0.13549-0.36774 0-0.67097-0.13549-0.34839-0.15484-0.58064-0.3871-0.24516-0.24516-0.38064-0.56129t-0.13548-0.69032q0-0.36129 0.12903-0.68387 0.13548-0.32258 0.3871-0.57419 0.06452-0.06452 0.22581-0.18064 0.10323-0.07742 0.1871-0.1613 0.25161-0.26452 0.38065-0.57419 0.13548-0.31613 0.13548-0.72903-0.40645 0-0.72903 0.13548-0.31613 0.12903-0.56774 0.38064-0.09032 0.09032-0.16774 0.19355-0.11613 0.15484-0.18065 0.21936-0.24516 0.25806-0.56774 0.38709-0.32258 0.12904-0.68387 0.12904-0.37419 0-0.69032-0.13549-0.31613-0.13548-0.56129-0.38064-0.2129-0.20645-0.3871-0.58064-0.14194-0.29677-0.14194-0.66452 0-0.36774 0.14194-0.67742 0.15484-0.34839 0.3871-0.58065 0.24516-0.24516 0.56129-0.38064 0.31613-0.13549 0.69032-0.13549 0.39355 0 0.69678 0.13549 0.30968 0.13548 0.55484 0.38064 0.06452 0.06452 0.18065 0.23226 0.03871 0.05162 0.16774 0.18064 0.25806 0.25806 0.57419 0.3871 0.31613 0.12904 0.72258 0.12904z" fill="#a347ba"/><path d="m33 10c-2.77 0-5 2.23-5 5s2.23 5 5 5 5-2.23 5-5-2.23-5-5-5zm-2 2c0.554 0 1 0.446 1 1s-0.446 1-1 1-1-0.446-1-1 0.446-1 1-1zm4 0c0.554 0 1 0.446 1 1s-0.446 1-1 1-1-0.446-1-1 0.446-1 1-1zm-5 3h6c0 1.662-1.338 3-3 3s-3-1.338-3-3z" fill="#f5c211" stroke-linecap="round" stroke-linejoin="round" stroke-width="2"/><path d="m23 5v18h-18v2h18v18h2v-18h18v-2h-18v-18h-2z" opacity=".3" stroke-linecap="round" stroke-linejoin="round" stroke-width="2"/></svg>
