<?xml version="1.0" encoding="UTF-8"?>
<!-- Created with Inkscape (http://www.inkscape.org/) -->
<svg id="SVGRoot" width="48px" height="48px" version="1.1" viewBox="0 0 48 48" xmlns="http://www.w3.org/2000/svg" xmlns:cc="http://creativecommons.org/ns#" xmlns:dc="http://purl.org/dc/elements/1.1/" xmlns:rdf="http://www.w3.org/1999/02/22-rdf-syntax-ns#">
 <defs>
  <style>.cls-1{fill:none;stroke:#fff;stroke-linecap:round;stroke-linejoin:round;}</style>
 </defs>
 <metadata>
  <rdf:RDF>
   <cc:Work rdf:about="">
    <dc:format>image/svg+xml</dc:format>
    <dc:type rdf:resource="http://purl.org/dc/dcmitype/StillImage"/>
   </cc:Work>
  </rdf:RDF>
 </metadata>
 <g fill-rule="evenodd">
  <rect x="4" y="4" width="40" height="40" ry="8" fill="#71b9e3" style="paint-order:stroke fill markers"/>
  <path d="m12 4c-4.432 0-8 3.568-8 8v24c0 4.432 3.568 8 8 8h24c4.432 0 8-3.568 8-8v-24c0-4.432-3.568-8-8-8zm0 1h24c3.878 0 7 3.122 7 7v24c0 3.878-3.122 7-7 7h-24c-3.878 0-7-3.122-7-7v-24c0-3.878 3.122-7 7-7z" opacity=".3" style="paint-order:stroke fill markers"/>
  <path d="m29 10c-3.878 0-7 3.122-7 7v10c0 1.662-1.338 3-3 3s-3-1.338-3-3 1.338-3 3-3h1v-4h-1c-3.878 0-7 3.122-7 7s3.122 7 7 7 7-3.122 7-7v-3h2c1.108 0 2-0.892 2-2s-0.892-2-2-2h-2v-3c0-1.662 1.338-3 3-3s3 1.338 3 3c0 1.108 0.892 2 2 2s2-0.892 2-2c0-3.878-3.122-7-7-7z" fill="#fff" style="paint-order:stroke fill markers"/>
 </g>
 <rect x="10" y="36" width="28" height="2" ry="1" opacity=".3"/>
 <rect x="10" y="36" width="18" height="2" ry="1" fill="#fff"/>
</svg>
