<?xml version="1.0" encoding="UTF-8"?>
<!-- Created with Inkscape (http://www.inkscape.org/) -->
<svg id="SVGRoot" width="48px" height="48px" version="1.1" viewBox="0 0 48 48" xmlns="http://www.w3.org/2000/svg" xmlns:cc="http://creativecommons.org/ns#" xmlns:dc="http://purl.org/dc/elements/1.1/" xmlns:rdf="http://www.w3.org/1999/02/22-rdf-syntax-ns#" xmlns:xlink="http://www.w3.org/1999/xlink">
 <defs id="defs815">
  <style id="style819">.cls-1{fill:none;stroke:#fff;stroke-linecap:round;stroke-linejoin:round;}</style>
 </defs>
 <metadata id="metadata818">
  <rdf:RDF>
   <cc:Work rdf:about="">
    <dc:format>image/svg+xml</dc:format>
    <dc:type rdf:resource="http://purl.org/dc/dcmitype/StillImage"/>
    <dc:title/>
   </cc:Work>
  </rdf:RDF>
 </metadata>
 <g id="layer1" fill-rule="evenodd">
  <rect id="rect1373" x="4" y="4" width="40" height="40" ry="8" fill="#efefef" style="paint-order:stroke fill markers"/>
  <path id="rect817" d="m12 4c-4.432 0-8 3.568-8 8v24c0 4.432 3.568 8 8 8h24c4.432 0 8-3.568 8-8v-24c0-4.432-3.568-8-8-8h-24zm0 1h24c3.878 0 7 3.122 7 7v24c0 3.878-3.122 7-7 7h-24c-3.878 0-7-3.122-7-7v-24c0-3.878 3.122-7 7-7z" opacity=".3" style="paint-order:stroke fill markers"/>
  <path id="rect845" d="m24 10c-6.648 0-12 5.352-12 12s5.352 12 12 12 12-5.352 12-12-5.352-12-12-12zm0 8c2.216 0 4 1.784 4 4s-1.784 4-4 4-4-1.784-4-4 1.784-4 4-4z" opacity=".35" style="paint-order:normal"/>
  <rect id="rect849" x="12" y="34" width="6" height="6" ry="3" opacity=".35" style="paint-order:normal"/>
  <path id="rect879-2" d="m35.182 12.467c-3.2508 0.64691-6.0107 3.0625-6.9297 6.4922-0.91761 3.4246 0.25996 6.8919 2.7441 9.0781l-1.0195 3.8086 2.0234 3.1543 5.7031-1.0859 1.0195-3.8066c3.2445-0.65125 5.9984-3.0657 6.916-6.4902 0.91898-3.4297-0.26403-6.9003-2.7559-9.0859-0.0044 0.02213 0.0021 0.04233-0.0039 0.06445l-2.0703 7.7285c-0.14339 0.53512-0.68949 0.85042-1.2246 0.70703l-5.7969-1.5527c-0.53512-0.14338-0.85042-0.68949-0.70703-1.2246l2.0723-7.7285c0.0059-0.02213 0.02203-0.03723 0.0293-0.05859z" fill="#efefef" style="paint-order:normal"/>
  <path id="rect923-8" d="m29.975 31.844-2.847 10.625c-0.28677 1.0702 0.34397 2.1627 1.4142 2.4495l3.8637 1.0353c1.0702 0.28677 2.1627-0.34397 2.4495-1.4142l2.847-10.625z" fill="#7c8487" style="paint-order:normal"/>
  <path id="rect879-5-9" d="m35.181 12.467c-3.2508 0.64691-6.0111 3.0624-6.9301 6.492-0.91761 3.4246 0.25973 6.8919 2.7439 9.0781l-3.8671 14.432c-0.28677 1.0702 0.34397 2.1627 1.4142 2.4495l3.8637 1.0353c1.0702 0.28677 2.1627-0.34397 2.4495-1.4142l3.8671-14.432c3.2445-0.65125 5.9977-3.0654 6.9153-6.4899 0.91898-3.4297-0.26377-6.9017-2.7556-9.0873-0.0044 0.02213 0.0025 0.04367-0.0035 0.06579l-2.0706 7.7274c-0.14339 0.53512-0.68962 0.85049-1.2247 0.70711l-5.7955-1.5529c-0.53512-0.14338-0.85049-0.68962-0.70711-1.2247l2.0706-7.7274c0.0059-0.02213 0.02261-0.03736 0.02988-0.05872zm-1.4659 1.5544-1.6004 5.9729c-0.2823 1.0535 0.36068 2.1672 1.4142 2.4495l5.7956 1.5529c1.0535 0.2823 2.1672-0.36068 2.4495-1.4142l1.6004-5.9729c1.3741 1.8788 1.9524 4.3046 1.2973 6.7494-0.81858 3.055-3.2616 5.1892-6.1456 5.768a1.0001 1.0001 0 0 0-0.7697 0.72187l-3.8671 14.432c-0.14786 0.55183-0.67291 0.85497-1.2247 0.70711l-3.8637-1.0353c-0.55183-0.14786-0.85497-0.67291-0.70711-1.2247l3.8671-14.432a1.0001 1.0001 0 0 0-0.30565-1.01c-2.2082-1.9433-3.2568-5.0131-2.4383-8.0681 0.65507-2.4448 2.3688-4.2564 4.4982-5.1964z" color="#000000" color-rendering="auto" dominant-baseline="auto" image-rendering="auto" opacity=".25" shape-rendering="auto" solid-color="#000000" style="font-feature-settings:normal;font-variant-alternates:normal;font-variant-caps:normal;font-variant-ligatures:normal;font-variant-numeric:normal;font-variant-position:normal;isolation:auto;mix-blend-mode:normal;paint-order:normal;shape-padding:0;text-decoration-color:#000000;text-decoration-line:none;text-decoration-style:solid;text-indent:0;text-orientation:mixed;text-transform:none;white-space:normal"/>
  <rect id="rect921-9" transform="rotate(15)" x="40.196" y="31.001" width="2" height="2" ry="1" opacity=".25" style="paint-order:normal"/>
 </g>
</svg>
