<?xml version="1.0" encoding="UTF-8"?>
<!-- Created with Inkscape (http://www.inkscape.org/) -->
<svg id="SVGRoot" width="48px" height="48px" version="1.1" viewBox="0 0 48 48" xmlns="http://www.w3.org/2000/svg" xmlns:cc="http://creativecommons.org/ns#" xmlns:dc="http://purl.org/dc/elements/1.1/" xmlns:rdf="http://www.w3.org/1999/02/22-rdf-syntax-ns#" xmlns:xlink="http://www.w3.org/1999/xlink">
 <defs id="defs815">
  <style id="style819">.cls-1{fill:none;stroke:#fff;stroke-linecap:round;stroke-linejoin:round;}</style>
  <style id="style819-9">.cls-1{fill:none;stroke:#fff;stroke-linecap:round;stroke-linejoin:round;}</style>
  <style id="style819-3">.cls-1{fill:none;stroke:#fff;stroke-linecap:round;stroke-linejoin:round;}</style>
  <style id="style819-4">.cls-1{fill:none;stroke:#fff;stroke-linecap:round;stroke-linejoin:round;}</style>
  <style id="style819-3-47">.cls-1{fill:none;stroke:#fff;stroke-linecap:round;stroke-linejoin:round;}</style>
  <style id="style819-1">.cls-1{fill:none;stroke:#fff;stroke-linecap:round;stroke-linejoin:round;}</style>
  <style id="style2">.a{fill:none;stroke:#b1b5bd;stroke-linecap:round;stroke-linejoin:round;isolation:isolate;opacity:0.63;}</style>
  <style id="style819-12">.cls-1{fill:none;stroke:#fff;stroke-linecap:round;stroke-linejoin:round;}</style>
  <style id="style819-0">.cls-1{fill:none;stroke:#fff;stroke-linecap:round;stroke-linejoin:round;}</style>
  <style id="style819-3-4">.cls-1{fill:none;stroke:#fff;stroke-linecap:round;stroke-linejoin:round;}</style>
  <style id="style819-1-7">.cls-1{fill:none;stroke:#fff;stroke-linecap:round;stroke-linejoin:round;}</style>
  <style id="style2-3">.a{fill:none;stroke:#b1b5bd;stroke-linecap:round;stroke-linejoin:round;isolation:isolate;opacity:0.63;}</style>
  <style id="style819-12-9">.cls-1{fill:none;stroke:#fff;stroke-linecap:round;stroke-linejoin:round;}</style>
  <style id="style819-09">.cls-1{fill:none;stroke:#fff;stroke-linecap:round;stroke-linejoin:round;}</style>
  <style id="style819-5">.cls-1{fill:none;stroke:#fff;stroke-linecap:round;stroke-linejoin:round;}</style>
 </defs>
 <metadata id="metadata818">
  <rdf:RDF>
   <cc:Work rdf:about="">
    <dc:format>image/svg+xml</dc:format>
    <dc:type rdf:resource="http://purl.org/dc/dcmitype/StillImage"/>
    <dc:title/>
   </cc:Work>
  </rdf:RDF>
 </metadata>
 <g id="layer1">
  <rect id="rect1373-5" x="4" y="4" width="40" height="40" ry="8" fill="#f97263" fill-rule="evenodd" style="paint-order:stroke fill markers"/>
  <path id="rect817-3" d="m12 12v24h24v-24zm1 1h22v22h-22z" fill-rule="evenodd" opacity=".25" style="paint-order:stroke fill markers"/>
  <path id="rect830" d="m12 8c-2.216 0-4 1.784-4 4v30.928c1.1762 0.67827 2.5394 1.0723 4 1.0723h24c1.4606 0 2.8238-0.39399 4-1.0723v-30.928c0-2.216-1.784-4-4-4h-24z" fill="#99d055" fill-rule="evenodd" style="paint-order:stroke fill markers"/>
  <path id="rect832" d="m12.021 12c-1.108 0-2 0.892-2 2v29.744c0.6333 0.16024 1.294 0.25586 1.9785 0.25586h24c0.69208 0 1.3603-0.096052 2-0.25977v-29.74c0-1.108-0.892-2-2-2h-23.979z" fill="#7871da" fill-rule="evenodd" style="paint-order:stroke fill markers"/>
  <path id="rect817" d="m12 4c-4.432 0-8 3.568-8 8v24c0 4.432 3.568 8 8 8h24c4.432 0 8-3.568 8-8v-24c0-4.432-3.568-8-8-8h-24zm0 1h24c3.878 0 7 3.122 7 7v24c0 3.878-3.122 7-7 7h-24c-3.878 0-7-3.122-7-7v-24c0-3.878 3.122-7 7-7z" fill-rule="evenodd" opacity=".3" style="paint-order:stroke fill markers"/>
  <path id="path838" d="m18.337 24.855q0 0.62686-0.22162 1.1651-0.21529 0.53188-0.60786 0.92446-0.48756 0.48756-1.1524 0.7345-0.66485 0.24061-1.678 0.24061h-1.2537v3.5142h-1.2537v-9.4282h2.5581q0.84847 0 1.4373 0.14563 0.58887 0.1393 1.0448 0.44323 0.53821 0.36092 0.82948 0.89913 0.2976 0.53821 0.2976 1.3614zm-1.3044 0.03166q0-0.48756-0.17096-0.84848-0.17096-0.36092-0.51922-0.58887-0.30393-0.19629-0.69651-0.2786-0.38625-0.08865-0.98144-0.08865h-1.2411v3.7675h1.0574q0.75983 0 1.2347-0.13297 0.47489-0.1393 0.77249-0.4369 0.2976-0.30393 0.4179-0.63952 0.12664-0.33559 0.12664-0.7535z" fill="#fff"/>
  <path id="path840" d="m27.961 26.73q0 1.2854-0.56354 2.3301-0.55721 1.0448-1.488 1.621-0.64585 0.39891-1.4437 0.5762-0.79149 0.17729-2.0895 0.17729h-2.3808v-9.4282h2.3555q1.3804 0 2.1908 0.20262 0.81682 0.19629 1.3804 0.54454 0.96245 0.60153 1.5007 1.602 0.53821 1.0004 0.53821 2.3745zm-1.3107-0.019q0-1.1081-0.38625-1.8679-0.38625-0.75983-1.1524-1.1967-0.55721-0.3166-1.1841-0.4369-0.62686-0.12664-1.5007-0.12664h-1.1777v7.2754h1.1777q0.90546 0 1.5766-0.13297 0.67751-0.13297 1.2411-0.49389 0.70284-0.44956 1.0511-1.1841 0.35459-0.7345 0.35459-1.8363z" fill="#fff"/>
  <path id="path842" d="m36.022 23.12h-4.7679v2.6594h4.0967v1.1144h-4.0967v4.54h-1.2537v-9.4282h6.0216z" fill="#fff"/>
 </g>
</svg>
