<?xml version="1.0" encoding="UTF-8"?>
<!-- Created with Inkscape (http://www.inkscape.org/) -->
<svg id="SVGRoot" width="48px" height="48px" version="1.1" viewBox="0 0 48 48" xmlns="http://www.w3.org/2000/svg" xmlns:cc="http://creativecommons.org/ns#" xmlns:dc="http://purl.org/dc/elements/1.1/" xmlns:rdf="http://www.w3.org/1999/02/22-rdf-syntax-ns#">
 <defs id="defs815">
  <style id="style819">.cls-1{fill:none;stroke:#fff;stroke-linecap:round;stroke-linejoin:round;}</style>
  <style id="style819-4">.cls-1{fill:none;stroke:#fff;stroke-linecap:round;stroke-linejoin:round;}</style>
  <style id="current-color-scheme" type="text/css">.ColorScheme-Text {
        color:#31363b;
      }
      .ColorScheme-Accent {
        color:#3daee9;
      }</style>
  <style id="current-color-scheme-6" type="text/css">.ColorScheme-Text {
        color:#31363b;
      }
      .ColorScheme-Accent {
        color:#3daee9;
      }</style>
 </defs>
 <metadata id="metadata818">
  <rdf:RDF>
   <cc:Work rdf:about="">
    <dc:format>image/svg+xml</dc:format>
    <dc:type rdf:resource="http://purl.org/dc/dcmitype/StillImage"/>
    <dc:title/>
   </cc:Work>
  </rdf:RDF>
 </metadata>
 <g id="layer1">
  <rect id="rect1373-5" x="4" y="4" width="40" height="40" ry="8" fill="#b7bfc2" fill-rule="evenodd" style="paint-order:stroke fill markers"/>
  <path id="rect817" d="m12 4c-4.432 0-8 3.568-8 8v24c0 4.432 3.568 8 8 8h24c4.432 0 8-3.568 8-8v-24c0-4.432-3.568-8-8-8h-24zm0 1h24c3.878 0 7 3.122 7 7v24c0 3.878-3.122 7-7 7h-24c-3.878 0-7-3.122-7-7v-24c0-3.878 3.122-7 7-7z" fill-rule="evenodd" opacity=".3" style="paint-order:stroke fill markers"/>
  <path id="path855" d="m8 27s4-11 14-11c12 0 18 11 18 11s-6 5-18 5c-7 0-14-5-14-5z" fill="#4e4e4e"/>
  <rect id="rect868" x="16" y="18" width="12" height="12" ry="6" fill="#96d56b" fill-rule="evenodd" style="paint-order:normal"/>
  <rect id="rect870" x="15" y="23" width="14" height="2" fill="#96d56b" fill-rule="evenodd" style="paint-order:normal"/>
  <rect id="rect870-2" transform="rotate(90)" x="17" y="-23" width="14" height="2" fill="#96d56b" fill-rule="evenodd" style="paint-order:normal"/>
  <rect id="rect870-5" transform="rotate(-45)" x="-8.4142" y="31.527" width="14" height="2" fill="#96d56b" fill-rule="evenodd" style="paint-order:normal"/>
  <rect id="rect870-2-9" transform="rotate(45)" x="25.527" y=".41421" width="14" height="2" fill="#96d56b" fill-rule="evenodd" style="paint-order:normal"/>
  <rect id="rect905" x="19" y="21" width="6" height="6" ry="3" fill="#4e4e4e" fill-rule="evenodd" style="paint-order:normal"/>
 </g>
</svg>
