<?xml version="1.0" encoding="UTF-8"?>
<!-- Created with Inkscape (http://www.inkscape.org/) -->
<svg id="SVGRoot" width="48px" height="48px" version="1.1" viewBox="0 0 48 48" xmlns="http://www.w3.org/2000/svg" xmlns:cc="http://creativecommons.org/ns#" xmlns:dc="http://purl.org/dc/elements/1.1/" xmlns:rdf="http://www.w3.org/1999/02/22-rdf-syntax-ns#">
 <defs id="defs815">
  <style id="style819">.cls-1{fill:none;stroke:#fff;stroke-linecap:round;stroke-linejoin:round;}</style>
  <style id="style819-8">.cls-1{fill:none;stroke:#fff;stroke-linecap:round;stroke-linejoin:round;}</style>
 </defs>
 <metadata id="metadata818">
  <rdf:RDF>
   <cc:Work rdf:about="">
    <dc:format>image/svg+xml</dc:format>
    <dc:type rdf:resource="http://purl.org/dc/dcmitype/StillImage"/>
    <dc:title/>
   </cc:Work>
  </rdf:RDF>
 </metadata>
 <g id="layer1">
  <rect id="rect1373-5" x="4" y="4" width="40" height="40" ry="8" fill="#9b58b5" fill-rule="evenodd" style="paint-order:stroke fill markers"/>
  <path id="rect817" d="m12 4c-4.432 0-8 3.568-8 8v24c0 4.432 3.568 8 8 8h24c4.432 0 8-3.568 8-8v-24c0-4.432-3.568-8-8-8h-24zm0 1h24c3.878 0 7 3.122 7 7v24c0 3.878-3.122 7-7 7h-24c-3.878 0-7-3.122-7-7v-24c0-3.878 3.122-7 7-7z" fill-rule="evenodd" opacity=".3" style="paint-order:stroke fill markers"/>
  <rect id="rect902-3" transform="scale(-1,1)" x="-39" y="14" width="13" height="13" ry="6.5" fill="#fff" fill-rule="evenodd" opacity=".3" style="paint-order:normal"/>
  <rect id="rect900" x="18" y="25" width="12" height="4" ry="2" fill="#fff" fill-rule="evenodd" style="paint-order:normal"/>
  <rect id="rect904-2" transform="scale(-1,1)" x="-37" y="15" width="10" height="10" ry="5" fill="#fff" fill-rule="evenodd" style="paint-order:normal"/>
  <path id="path898" d="m24 23s-1.3808 2.9249-3 4c-1.9636 1.3038-7 1-7 1s8 8 10 8 10-8 10-8-5.0364 0.30378-7-1c-1.6192-1.0751-3-4-3-4z" fill="#f68d59"/>
  <rect id="rect902" x="9" y="14" width="13" height="13" ry="6.5" fill="#fff" fill-rule="evenodd" opacity=".3" style="paint-order:normal"/>
  <rect id="rect904" x="11" y="15" width="10" height="10" ry="5" fill="#fff" fill-rule="evenodd" style="paint-order:normal"/>
  <rect id="rect906" x="14" y="18" width="4" height="4" ry="2" fill="#9b58b5" fill-rule="evenodd" style="paint-order:normal"/>
  <rect id="rect906-9" transform="scale(-1,1)" x="-34" y="18" width="4" height="4" ry="2" fill="#9b58b5" fill-rule="evenodd" style="paint-order:normal"/>
  <path id="rect929" d="m24 23v13c-2 0-10-8-10-8s5.0364 0.30378 7-1c1.6192-1.0751 3-4 3-4z" fill="#ffc175" fill-rule="evenodd" style="paint-order:normal"/>
  <rect id="rect968" x="20" y="28" width="2" height="2" ry="1" fill-rule="evenodd" opacity=".25" style="paint-order:normal"/>
  <rect id="rect970" x="26" y="28" width="2" height="2" ry="1" fill-rule="evenodd" opacity=".25" style="paint-order:normal"/>
 </g>
</svg>
