<?xml version="1.0" encoding="UTF-8"?>
<!-- Created with Inkscape (http://www.inkscape.org/) -->
<svg id="SVGRoot" width="48px" height="48px" version="1.1" viewBox="0 0 48 48" xmlns="http://www.w3.org/2000/svg" xmlns:cc="http://creativecommons.org/ns#" xmlns:dc="http://purl.org/dc/elements/1.1/" xmlns:rdf="http://www.w3.org/1999/02/22-rdf-syntax-ns#">
 <defs id="defs815">
  <style id="style819">.cls-1{fill:none;stroke:#fff;stroke-linecap:round;stroke-linejoin:round;}</style>
 </defs>
 <metadata id="metadata818">
  <rdf:RDF>
   <cc:Work rdf:about="">
    <dc:format>image/svg+xml</dc:format>
    <dc:type rdf:resource="http://purl.org/dc/dcmitype/StillImage"/>
    <dc:title/>
   </cc:Work>
  </rdf:RDF>
 </metadata>
 <g id="layer1">
  <rect id="rect1373-5" x="4" y="4" width="40" height="40" ry="8" fill="#bc8046" fill-rule="evenodd" style="paint-order:stroke fill markers"/>
  <path id="rect817" d="m12 4c-4.432 0-8 3.568-8 8v24c0 4.432 3.568 8 8 8h24c4.432 0 8-3.568 8-8v-24c0-4.432-3.568-8-8-8h-24zm0 1h24c3.878 0 7 3.122 7 7v24c0 3.878-3.122 7-7 7h-24c-3.878 0-7-3.122-7-7v-24c0-3.878 3.122-7 7-7z" fill-rule="evenodd" opacity=".3" style="paint-order:stroke fill markers"/>
  <path id="path828" d="m24 12-7 7 3 1-6 6 4 1-6 5 10 2v2h4v-2l10-2-6-5 4-1-6-6 3-1z" opacity=".4"/>
  <path id="path846" d="m16.045 5 0.95508 21 0.95508-21h-1.9102zm7 0 0.95508 21 0.95508-21h-1.9102zm7 0 0.95508 21 0.95508-21h-1.9102zm-20.104 0.30859c-0.66095 0.20183-1.2808 0.49539-1.8418 0.87109l0.90039 19.82 0.94141-20.691zm28.117 0 0.94141 20.691 0.90039-19.82c-0.56095-0.3757-1.1808-0.66926-1.8418-0.87109zm-33.059 16.691v14c0 1.1631 0.28533 2.2555 0.7832 3.2188l-0.7832-17.219zm8 0-0.95508 21h1.9102l-0.95508-21zm8 0-0.95508 21h1.9102l-0.95508-21zm6 0-0.95508 21h1.9102l-0.95508-21zm8 0-0.95508 21h1.9102l-0.95508-21zm8 0-0.7832 17.219c0.49788-0.96329 0.7832-2.0556 0.7832-3.2188v-14z" opacity=".15"/>
 </g>
</svg>
