<?xml version="1.0" encoding="UTF-8"?>
<!-- Created with Inkscape (http://www.inkscape.org/) -->
<svg id="SVGRoot" width="48px" height="48px" version="1.1" viewBox="0 0 48 48" xml:space="preserve" xmlns="http://www.w3.org/2000/svg" xmlns:cc="http://creativecommons.org/ns#" xmlns:dc="http://purl.org/dc/elements/1.1/" xmlns:rdf="http://www.w3.org/1999/02/22-rdf-syntax-ns#"><defs><style>.cls-1{fill:none;stroke:#fff;stroke-linecap:round;stroke-linejoin:round;}</style><style>.cls-1{fill:none;stroke:#fff;stroke-linecap:round;stroke-linejoin:round;}</style><style>.cls-1{fill:none;stroke:#fff;stroke-linecap:round;stroke-linejoin:round;}</style><style>.cls-1{fill:none;stroke:#fff;stroke-linecap:round;stroke-linejoin:round;}</style></defs><metadata><rdf:RDF><cc:Work rdf:about=""><dc:format>image/svg+xml</dc:format><dc:type rdf:resource="http://purl.org/dc/dcmitype/StillImage"/></cc:Work></rdf:RDF></metadata><rect x="4" y="4" width="40" height="40" ry="8" fill="#efefef" fill-rule="evenodd" style="paint-order:stroke fill markers"/><path d="m12 6c-1.2323 0-2.3753 0.36778-3.3262 1h30.652c-0.95084-0.63222-2.0939-1-3.3262-1h-24zm-5.6602 4c-0.21956 0.62504-0.33984 1.2981-0.33984 2h36c0-0.70193-0.12028-1.375-0.33984-2h-35.32z" opacity=".3" stroke-linecap="round" stroke-linejoin="round" stroke-width="2"/><path d="m6 14v22c0 1.5395 0.57494 2.94 1.5215 4h32.957c0.94654-1.06 1.5215-2.4605 1.5215-4v-22h-36z" fill="#729dec" stroke-linecap="round" stroke-linejoin="round" stroke-width="2"/><rect x="16" y="16" width="16" height="11" ry="5.4106" opacity=".3"/><path d="m12 6c-3.324 0-6 2.676-6 6v24c0 3.324 2.676 6 6 6h4c-3.324 0-6-2.676-6-6v-24c0-3.324 2.676-6 6-6h-4zm20 0c3.324 0 6 2.676 6 6v24c0 3.324-2.676 6-6 6h4c3.324 0 6-2.676 6-6v-24c0-3.324-2.676-6-6-6h-4z" opacity=".3"/><g stroke-linecap="round" stroke-linejoin="round" stroke-width="2"><rect x="6" y="34" width="36" height="1" opacity=".3"/><rect x="6" y="31" width="36" height="1" opacity=".3"/><rect x="6" y="28" width="36" height="1" opacity=".3"/></g><path d="m5 14s1 15 19 15 19-15 19-15" fill="none" opacity=".3" stroke="#000" stroke-linecap="round" stroke-linejoin="round" stroke-width="2"/><path d="m5 13s1 14 19 14 19-14 19-14" fill="none" stroke="#efefef" stroke-linecap="round" stroke-linejoin="round" stroke-width="2"/><path d="m12 4c-4.432 0-8 3.568-8 8v24c0 4.432 3.568 8 8 8h24c4.432 0 8-3.568 8-8v-24c0-4.432-3.568-8-8-8zm0 1h24c3.878 0 7 3.122 7 7v24c0 3.878-3.122 7-7 7h-24c-3.878 0-7-3.122-7-7v-24c0-3.878 3.122-7 7-7z" fill-rule="evenodd" opacity=".3" style="paint-order:stroke fill markers"/><path d="m43 19-17 4 3 20h7c3.878 0 7-3.122 7-7z" opacity=".3"/><g stroke-linecap="round" stroke-linejoin="round"><rect transform="rotate(15)" x="30.443" y=".82481" width="18" height="13" ry="2.3636" fill="#50463f" stroke-width="4.4745"/><path d="m25.568 22.199c0.7954-2.9685 9.211 0.39752 9.211 0.39752s8.8871 1.6061 8.1757 4.2612c-0.77646 2.8978-6.3132 0.37894-6.8308 2.3108-1.2941 4.8296-1.4466 9.2626-2.6575 13.782-0.51764 1.9319-3.0776 3.3165-4.899 2.8284s-3.3461-2.9671-2.8284-4.899c1.2109-4.5191 3.2953-8.4345 4.5894-13.264 0.51764-1.9319-5.5367-2.5188-4.7603-5.4166z" fill="#cc8543" stroke-width="4"/><rect transform="rotate(15)" x="30.443" y="10.825" width="18" height="4" fill="#c6c7d1" stroke-width="3.6814"/></g><path d="m31.475 9.2875c-1.2648-0.33891-2.5555 0.40626-2.8944 1.6711l-3.0118 11.24c-0.77646 2.8978 5.2779 3.4848 4.7603 5.4166-1.2941 4.8296-3.3785 8.745-4.5894 13.264-0.51764 1.9319 1.0071 4.4109 2.8284 4.899s4.3813-0.89658 4.899-2.8284c1.2109-4.5191 1.3634-8.9522 2.6575-13.782 0.51764-1.9319 6.0544 0.58699 6.8308-2.3108l3.0118-11.24c0.33891-1.2648-0.40626-2.5555-1.6711-2.8944zm-0.25882 0.96593 12.821 3.4354c0.7466 0.20005 1.164 0.92308 0.96398 1.6697l-3.0118 11.24c-0.10784 0.40247-0.23159 0.48272-0.65899 0.61808-0.4274 0.13537-1.1234 0.17061-1.8703 0.15805-0.74683-0.01256-1.5313-0.06874-2.2917 0.03299-0.3802 0.05086-0.76735 0.13902-1.148 0.36776-0.38062 0.22874-0.7325 0.65095-0.86191 1.1339-1.3286 4.9584-1.4835 9.4003-2.6575 13.782-0.16761 0.62554-0.74136 1.2889-1.4875 1.7104-0.74615 0.42145-1.6175 0.56344-2.1867 0.41093-0.56918-0.15251-1.2528-0.71118-1.6883-1.4492-0.43546-0.73806-0.60064-1.5995-0.43302-2.225 1.174-4.3815 3.2608-8.3057 4.5894-13.264 0.12941-0.48296 0.03578-1.0246-0.17948-1.413-0.21525-0.3884-0.50647-0.65833-0.81029-0.89247-0.60766-0.46829-1.3151-0.81188-1.9682-1.1744-0.65306-0.36254-1.2382-0.74107-1.5407-1.072-0.30245-0.33093-0.3695-0.4623-0.26166-0.86477l3.0118-11.24c0.20005-0.7466 0.92308-1.164 1.6697-0.96398z" opacity=".3" stop-color="#000000" stroke-linecap="round" stroke-linejoin="round"/><rect transform="rotate(15)" x="31.443" y="10.825" width="16" height="1" opacity=".3"/><path d="m31.831 10.418-0.84581 7.0203 2.7777-6.5027z" opacity=".3"/><path d="m36.66 11.712-0.84581 7.0203 2.7777-6.5027z" opacity=".3"/><path d="m41.49 13.006-0.84581 7.0203 2.7777-6.5027z" opacity=".3"/><rect transform="rotate(15)" x="38.443" y="31.825" width="2" height="2" ry="1" opacity=".3"/></svg>
