<?xml version="1.0" encoding="UTF-8"?>
<!-- Created with Inkscape (http://www.inkscape.org/) -->
<svg id="SVGRoot" width="48px" height="48px" version="1.1" viewBox="0 0 48 48" xmlns="http://www.w3.org/2000/svg" xmlns:cc="http://creativecommons.org/ns#" xmlns:dc="http://purl.org/dc/elements/1.1/" xmlns:rdf="http://www.w3.org/1999/02/22-rdf-syntax-ns#" xmlns:xlink="http://www.w3.org/1999/xlink">
 <defs id="defs815">
  <style id="style819">.cls-1{fill:none;stroke:#fff;stroke-linecap:round;stroke-linejoin:round;}</style>
 </defs>
 <metadata id="metadata818">
  <rdf:RDF>
   <cc:Work rdf:about="">
    <dc:format>image/svg+xml</dc:format>
    <dc:type rdf:resource="http://purl.org/dc/dcmitype/StillImage"/>
    <dc:title/>
   </cc:Work>
  </rdf:RDF>
 </metadata>
 <g id="layer1">
  <rect id="rect1373" x="4" y="4" width="40" height="40" ry="8" fill="#5c4230" fill-rule="evenodd" style="paint-order:stroke fill markers"/>
  <rect id="rect828" x="16" y="10" width="16" height="8" rx="8" ry="4" fill="#f2be65" fill-rule="evenodd" style="paint-order:normal"/>
  <path id="path830" d="m18 15s-4 2-4 7c0 6 5 11 5 11s-2 1.0572-2 2c0 1 3 3 7 3s7-2 7-3c0-0.94281-2-2-2-2s5-5 5-11c0-5-4-7-4-7z" fill="#f2be65"/>
  <rect id="rect832" x="19" y="12" width="10" height="4" rx="5" ry="2" fill="#5c4230" fill-rule="evenodd" style="paint-order:normal"/>
  <path id="path837" d="m17 17s-2.5592-2.3826-4-2c-1.1616 0.30848-1.8405 1.8088-2 3-0.13991 1.0448 0.14488 2.3837 1 3 1.0817 0.77961 4 0 4 0" fill="none" stroke="#f2be65" stroke-linecap="round" stroke-linejoin="round" stroke-width="2"/>
  <path id="path837-5" d="m31 17s2.5592-2.3826 4-2c1.1616 0.30848 1.8405 1.8088 2 3 0.13991 1.0448-0.14488 2.3837-1 3-1.0817 0.77961-4 0-4 0" fill="none" stroke="#f2be65" stroke-linecap="round" stroke-linejoin="round" stroke-width="2"/>
  <path id="rect817" d="m12 4c-4.432 0-8 3.568-8 8v24c0 4.432 3.568 8 8 8h24c4.432 0 8-3.568 8-8v-24c0-4.432-3.568-8-8-8h-24zm0 1h24c3.878 0 7 3.122 7 7v24c0 3.878-3.122 7-7 7h-24c-3.878 0-7-3.122-7-7v-24c0-3.878 3.122-7 7-7z" fill-rule="evenodd" opacity=".4" style="paint-order:stroke fill markers"/>
  <path id="rect854" d="m38.824 19.013-4.2911 16.014c-0.55549-0.38026-1.179-0.68093-1.868-0.86555-3.2562-0.87251-6.5801 1.0465-7.4526 4.3028-0.87251 3.2562 1.0465 6.5801 4.3028 7.4526s6.5801-1.0465 7.4526-4.3028l3.7702-14.071c1.382 1.6895 3.1622 3.3286 5.2574 3.89-3.5856-6.2105-3.2528-11.371-3.2528-11.371z" fill="#729dec" fill-rule="evenodd" style="paint-order:normal"/>
  <path id="rect854-0" d="m38.824 19.014-1.0508 3.918-3.2402 12.096c-0.55549-0.38026-1.1801-0.68062-1.8691-0.86524-3.2562-0.87251-6.5787 1.0465-7.4512 4.3027-0.87251 3.2562 1.0465 6.5806 4.3027 7.4531s6.5787-1.0465 7.4512-4.3027l3.7715-14.072c1.382 1.6895 3.1607 3.3292 5.2559 3.8906-3.5856-6.2105-3.252-11.371-3.252-11.371zm0.70703 1.2246 2.2852 0.61133c-0.0125 0.91516 0.15511 3.9239 2.0625 8.3535-0.86011-0.6498-1.6665-1.4364-2.3672-2.293l-1.2344-1.5098-4.2754 15.955c-0.7336 2.7378-3.4907 4.3293-6.2285 3.5957-2.7378-0.7336-4.3293-3.4907-3.5957-6.2285 0.7336-2.7378 3.4907-4.3293 6.2285-3.5957 0.57251 0.1534 1.0921 0.40258 1.5625 0.72461l1.1641 0.79883 3.6074-13.461z" color="#000000" color-rendering="auto" dominant-baseline="auto" fill-rule="evenodd" image-rendering="auto" opacity=".3" shape-rendering="auto" solid-color="#000000" style="font-feature-settings:normal;font-variant-alternates:normal;font-variant-caps:normal;font-variant-ligatures:normal;font-variant-numeric:normal;font-variant-position:normal;isolation:auto;mix-blend-mode:normal;paint-order:normal;shape-padding:0;text-decoration-color:#000000;text-decoration-line:none;text-decoration-style:solid;text-indent:0;text-orientation:mixed;text-transform:none;white-space:normal"/>
 </g>
</svg>
