<?xml version="1.0" encoding="UTF-8"?>
<!-- Created with Inkscape (http://www.inkscape.org/) -->
<svg id="SVGRoot" width="48px" height="48px" version="1.1" viewBox="0 0 48 48" xmlns="http://www.w3.org/2000/svg" xmlns:cc="http://creativecommons.org/ns#" xmlns:dc="http://purl.org/dc/elements/1.1/" xmlns:rdf="http://www.w3.org/1999/02/22-rdf-syntax-ns#">
 <defs id="defs815">
  <style id="style819">.cls-1{fill:none;stroke:#fff;stroke-linecap:round;stroke-linejoin:round;}</style>
 </defs>
 <metadata id="metadata818">
  <rdf:RDF>
   <cc:Work rdf:about="">
    <dc:format>image/svg+xml</dc:format>
    <dc:type rdf:resource="http://purl.org/dc/dcmitype/StillImage"/>
    <dc:title/>
   </cc:Work>
  </rdf:RDF>
 </metadata>
 <g id="layer1">
  <path id="rect1373-5" d="m24 9-20 5v8 1 13c0 4.432 3.568 8 8 8h24c4.432 0 8-3.568 8-8v-13-1-8l-20-5z" fill="#8e58b5" fill-rule="evenodd" style="paint-order:stroke fill markers"/>
  <path id="rect828" d="m12 4c-4.432 0-8 3.568-8 8v2h40v-2c0-4.432-3.568-8-8-8h-24z" fill="#4e4e4e" fill-rule="evenodd" style="paint-order:normal"/>
  <path id="path830" d="m23 9 3-5h5l-3 5 3 5h-5z" fill="#efefef"/>
  <path id="path830-5" d="m13 9 3-5h5l-3 5 3 5h-5z" fill="#efefef"/>
  <path id="path830-1" d="m36 4-3 5 3 5h5l-3-5 2.2617-3.7695c-1.2332-0.77581-2.6911-1.2305-4.2617-1.2305z" fill="#efefef"/>
  <path id="rect879" d="m4.584 9c-0.37328 0.92637-0.58398 1.9369-0.58398 3v2h40v-2c0-1.0631-0.21071-2.0736-0.58398-3h-38.832z" fill-rule="evenodd" opacity=".25" style="paint-order:normal"/>
  <path id="path828" d="m8.709 4.709c-2.7795 1.2511-4.709 4.0349-4.709 7.291v2h9v-5l-4.291-4.291z" fill="#b7bfc2"/>
  <rect id="rect841" x="11" y="24" width="26" height="10" ry="1" fill="#fff" fill-rule="evenodd" style="paint-order:normal"/>
  <rect id="rect839" x="28" y="20" width="2" height="6" fill="#fff" fill-rule="evenodd" style="paint-order:normal"/>
  <rect id="rect843" x="10" y="26" width="28" height="6" fill="#8e58b5" fill-rule="evenodd" style="paint-order:normal"/>
  <rect id="rect839-6" x="18" y="20" width="2" height="6" fill="#fff" fill-rule="evenodd" style="paint-order:normal"/>
  <path id="rect817" d="m12 4c-4.432 0-8 3.568-8 8v24c0 4.432 3.568 8 8 8h24c4.432 0 8-3.568 8-8v-24c0-4.432-3.568-8-8-8h-24zm0 1h24c3.878 0 7 3.122 7 7v24c0 3.878-3.122 7-7 7h-24c-3.878 0-7-3.122-7-7v-24c0-3.878 3.122-7 7-7z" fill-rule="evenodd" opacity=".3" style="paint-order:stroke fill markers"/>
  <rect id="rect929" x="5" y="14" width="38" height="1" fill-rule="evenodd" opacity=".3" style="paint-order:stroke fill markers"/>
 </g>
</svg>
