<?xml version="1.0" encoding="UTF-8"?>
<!-- Created with Inkscape (http://www.inkscape.org/) -->
<svg id="SVGRoot" width="48px" height="48px" version="1.1" viewBox="0 0 48 48" xml:space="preserve" xmlns="http://www.w3.org/2000/svg" xmlns:cc="http://creativecommons.org/ns#" xmlns:dc="http://purl.org/dc/elements/1.1/" xmlns:rdf="http://www.w3.org/1999/02/22-rdf-syntax-ns#"><defs><style>.cls-1{fill:none;stroke:#fff;stroke-linecap:round;stroke-linejoin:round;}</style><style>.cls-1{fill:none;stroke:#fff;stroke-linecap:round;stroke-linejoin:round;}</style></defs><metadata><rdf:RDF><cc:Work rdf:about=""><dc:format>image/svg+xml</dc:format><dc:type rdf:resource="http://purl.org/dc/dcmitype/StillImage"/></cc:Work></rdf:RDF></metadata><rect x="4" y="4" width="40" height="40" ry="8" fill="#4e4e4e" fill-rule="evenodd" style="paint-order:stroke fill markers"/><path d="m29.504 10.031-16 2c-2.2766 0.28501-3.8757 2.5041-3.4258 4.7539l1 5c0.20802 1.0391 0.82146 1.955 1.7031 2.543l0.16406 0.10938c-0.60221 0.7194-0.94546 1.6234-0.94531 2.5625v4c5.6e-5 0.78947 0.23396 1.5619 0.67188 2.2188l2 3c0.74055 1.1107 1.9932 1.7811 3.3281 1.7812h16c2.1853-2.18e-4 3.9998-1.8147 4-4v-6c-2.04e-4 -1.06-0.42231-2.0787-1.1719-2.8281l-0.17188-0.17188 0.17188-0.17188c0.74957-0.74947 1.1717-1.7681 1.1719-2.8281v-5.002c-6.77e-4 -1.2572-0.59548-2.4434-1.6016-3.1973l-4-3c-0.82821-0.62116-1.8652-0.89737-2.8926-0.76948h-2e-3z" fill="#f9f9f9" stop-color="#000000" stroke-linecap="round" stroke-linejoin="round"/><path d="m12 4c-4.432 0-8 3.568-8 8v24c0 4.432 3.568 8 8 8h24c4.432 0 8-3.568 8-8v-24c0-4.432-3.568-8-8-8zm0 1h24c3.878 0 7 3.122 7 7v24c0 3.878-3.122 7-7 7h-24c-3.878 0-7-3.122-7-7v-24c0-3.878 3.122-7 7-7z" fill-rule="evenodd" opacity=".4" style="paint-order:stroke fill markers"/><g stroke-linecap="round" stroke-linejoin="round"><path d="m29.752 12.016-16 2c-1.153 0.14435-1.9408 1.2375-1.7129 2.377l1 5c0.10409 0.51995 0.41039 0.97729 0.85156 1.2715l2.0312 1.3535-1.4414 1.6816c-0.31014 0.36243-0.48054 0.82377-0.48047 1.3008v4c2.8e-5 0.39484 0.11692 0.78085 0.33594 1.1094l2 3c0.37094 0.55637 0.99537 0.89057 1.6641 0.89062h16c1.1045-1.1e-4 1.9999-0.89548 2-2v-6c-1.02e-4 -0.5304-0.21086-1.039-0.58594-1.4141l-1.5859-1.5859 1.5859-1.5859c0.37507-0.37502 0.58584-0.88366 0.58594-1.4141v-5c-3.39e-4 -0.62951-0.29701-1.2221-0.80078-1.5996l-4-3c-0.4144-0.31082-0.93322-0.44876-1.4473-0.38477z" fill="#312d41" stop-color="#000000"/><g stroke-width="4"><path d="m30 14 4 3v5l-6-1z" fill="#312d41"/><path d="m30 18 4 4-4 4-5 1z" fill="#58358c"/><path d="m31 25 3 3v6l-5-3z" fill="#312d41"/><path d="m31 30 3 4h-16l-2-3 7-2z" fill="#58358c"/><path d="m15 21 3 2 5-1-1-3z" fill="#58358c"/><path d="m14 16 1 5 7-1-6 7v4l15-1v-5l-5 1 4-8v-4z" fill="#ff35ba"/><path d="m30 14-16 2 0.16992 0.85352 14.83-1.8535v4l-4 8 5-1v4.0664l1-0.06641v-5l-5 1 4-8v-4z" fill="#fb87d6"/></g></g><rect x="28" y="15" width="2" height="2" ry="1" fill="#fb87d6"/><rect x="24" y="16" width="4" height="4" ry="2" fill="#FB87D6"/></svg>
