<?xml version="1.0" encoding="UTF-8"?>
<!-- Created with Inkscape (http://www.inkscape.org/) -->
<svg id="SVGRoot" width="48px" height="48px" version="1.1" viewBox="0 0 48 48" xml:space="preserve" xmlns="http://www.w3.org/2000/svg" xmlns:cc="http://creativecommons.org/ns#" xmlns:dc="http://purl.org/dc/elements/1.1/" xmlns:rdf="http://www.w3.org/1999/02/22-rdf-syntax-ns#"><defs><style>.cls-1{fill:none;stroke:#fff;stroke-linecap:round;stroke-linejoin:round;}</style><style>.cls-1{fill:none;stroke:#fff;stroke-linecap:round;stroke-linejoin:round;}</style><style>.cls-1{fill:none;stroke:#fff;stroke-linecap:round;stroke-linejoin:round;}</style><style>.cls-1{fill:none;stroke:#fff;stroke-linecap:round;stroke-linejoin:round;}</style><style>.a{fill:none;stroke:#b1b5bd;stroke-linecap:round;stroke-linejoin:round;isolation:isolate;opacity:0.63;}</style><style>.cls-1{fill:none;stroke:#fff;stroke-linecap:round;stroke-linejoin:round;}</style><style>.cls-1{fill:none;stroke:#fff;stroke-linecap:round;stroke-linejoin:round;}</style><style>.cls-1{fill:none;stroke:#fff;stroke-linecap:round;stroke-linejoin:round;}</style></defs><metadata><rdf:RDF><cc:Work rdf:about=""><dc:format>image/svg+xml</dc:format><dc:type rdf:resource="http://purl.org/dc/dcmitype/StillImage"/></cc:Work></rdf:RDF></metadata><g fill-rule="evenodd"><rect x="4" y="4" width="40" height="40" ry="8" fill="#efefef" style="paint-order:stroke fill markers"/><path d="m40 7.5312c-0.57691-0.51642-1.2533-0.92074-2-1.1836v35.305c0.74668-0.26286 1.4231-0.66718 2-1.1836v-32.938zm-6-1.5312h-2v36h2zm-6 0h-2v36h2zm-6 0h-2v36h2zm-6 0h-2v36h2zm-6 0.34766c-0.74668 0.26286-1.4231 0.66717-2 1.1836v32.938c0.57692 0.51642 1.2533 0.92074 2 1.1836v-35.305z" opacity=".05" style="paint-order:stroke fill markers"/><path d="m12 4c-4.432 0-8 3.568-8 8v24c0 4.432 3.568 8 8 8h24c4.432 0 8-3.568 8-8v-24c0-4.432-3.568-8-8-8zm0 1h24c3.878 0 7 3.122 7 7v24c0 3.878-3.122 7-7 7h-24c-3.878 0-7-3.122-7-7v-24c0-3.878 3.122-7 7-7z" opacity=".3" style="paint-order:stroke fill markers"/><path d="m12 6c-3.324 0-6 2.676-6 6v2h36v-2c0-3.324-2.676-6-6-6z" fill="#b77463" style="paint-order:stroke fill markers"/><rect x="16" y="22" width="4" height="10" ry="2" fill="#efefef" style="paint-order:normal"/></g><g fill="#fff" fill-rule="evenodd"><rect x="19" y="8" width="2" height="2" opacity=".5" style="paint-order:normal"/><rect x="27" y="8" width="2" height="2" opacity=".5" style="paint-order:normal"/><rect x="23" y="8" width="2" height="2" opacity=".5" style="paint-order:normal"/></g><g stroke-linecap="round" stroke-linejoin="round"><path d="m34 37 3-3 3 3-3 3z" fill="#f97263" stroke-width="6"/><rect x="32" y="28" width="6" height="2" ry="1" fill="#96d56b" stroke-width="3.4641"/><rect x="16" y="28" width="12" height="2" ry=".97019" fill="#96d56b" stroke-width="4"/></g><g fill="#729dec" stroke-linecap="round" stroke-linejoin="round" stroke-width="4"><path d="m29 36v2l3-4h-20l3 4v-2z"/><path d="m38 24v2l3-4h-20l3 4v-2z"/><path d="m23 18v2l3-4h-20l3 4v-2z"/></g></svg>
