<?xml version="1.0" encoding="UTF-8"?>
<!-- Created with Inkscape (http://www.inkscape.org/) -->
<svg id="SVGRoot" width="48px" height="48px" version="1.1" viewBox="0 0 48 48" xmlns="http://www.w3.org/2000/svg" xmlns:cc="http://creativecommons.org/ns#" xmlns:dc="http://purl.org/dc/elements/1.1/" xmlns:rdf="http://www.w3.org/1999/02/22-rdf-syntax-ns#">
 <defs id="defs815">
  <style id="style819">.cls-1{fill:none;stroke:#fff;stroke-linecap:round;stroke-linejoin:round;}</style>
 </defs>
 <metadata id="metadata818">
  <rdf:RDF>
   <cc:Work rdf:about="">
    <dc:format>image/svg+xml</dc:format>
    <dc:type rdf:resource="http://purl.org/dc/dcmitype/StillImage"/>
    <dc:title/>
   </cc:Work>
  </rdf:RDF>
 </metadata>
 <g id="layer1">
  <rect id="rect1373-5" x="4" y="4" width="40" height="40" ry="8" fill="#943657" fill-rule="evenodd" style="paint-order:stroke fill markers"/>
  <path id="rect883-1" d="m12 8c-2.216 0-4 1.784-4 4v24c0 2.216 1.784 4 4 4h16c4 0 4-4 4-4v-19c0-0.554-0.446-1-1-1h-14c-0.554 0-1 0.446-1 1v14c0 0.554 0.446 1 1 1h6c0.554 0 1-0.446 1-1v-2c0-0.554-0.446-1-1-1h-2c-0.554 0-1-0.446-1-1v-6c0-0.554 0.446-1 1-1h6c0.554 0 1 0.446 1 1v15h-15c-0.554 0-1-0.446-1-1v-22c0-0.554 0.446-1 1-1h22c0.554 0 1 0.446 1 1v23c0 3-3 4-3 4h3c2.216 0 4-1.784 4-4v-24c0-2.216-1.784-4-4-4z" fill="#d35244" fill-rule="evenodd" style="paint-order:normal"/>
  <path id="rect817" d="m12 4c-4.432 0-8 3.568-8 8v24c0 4.432 3.568 8 8 8h24c4.432 0 8-3.568 8-8v-24c0-4.432-3.568-8-8-8h-24zm0 1h24c3.878 0 7 3.122 7 7v24c0 3.878-3.122 7-7 7h-24c-3.878 0-7-3.122-7-7v-24c0-3.878 3.122-7 7-7z" fill-rule="evenodd" opacity=".3" style="paint-order:stroke fill markers"/>
  <path id="path1032" d="m17 43s8-2 8-12c0-2.848-3-4-3-8 1.1392-1.6439 6 0 6 0l1 20z" opacity=".3"/>
  <path id="rect835-2-4" d="m37 22c-6.094 0-11 4.906-11 11 0 5-1.5274 10.399-7 11h16.072c7 0 11-6 11-11 0-6.094-2.9785-11-9.0725-11z" fill="#f97263" fill-rule="evenodd" style="paint-order:normal"/>
  <path id="rect835-2-8" d="m34 22.422c-4.6244 1.3012-8 5.5266-8 10.578 0 3.9336-0.95546 8.1029-4.0234 10h2.0234s2-2 8-3c-5 0-5-6-5-6l-0.048828 0.24805c0.020809-0.41724 0.048828-0.8353 0.048828-1.248 0-4.51 2.9268-8.2839 7-9.5469v-1.0312z" color="#000000" color-rendering="auto" dominant-baseline="auto" fill-rule="evenodd" image-rendering="auto" opacity=".15" shape-rendering="auto" solid-color="#000000" style="font-feature-settings:normal;font-variant-alternates:normal;font-variant-caps:normal;font-variant-ligatures:normal;font-variant-numeric:normal;font-variant-position:normal;isolation:auto;mix-blend-mode:normal;paint-order:normal;shape-padding:0;text-decoration-color:#000000;text-decoration-line:none;text-decoration-style:solid;text-indent:0;text-orientation:mixed;text-transform:none;white-space:normal"/>
  <path id="rect835-2" d="m37 22c-1.0425 0-2.0456 0.15333-3 0.42188v1.0312c0.94583-0.29327 1.9527-0.45312 3-0.45312 5.5573 0 8.0723 4.4427 8.0723 10 0 2.2333-0.91648 4.7766-2.625 6.7129-1.7085 1.9363-4.1607 3.2871-7.375 3.2871h-1.0723-10-2.0234c-0.83174 0.5143-1.8093 0.87174-2.9766 1h16.072c7 0 11-6 11-11 0-6.094-2.9783-11-9.0723-11z" color="#000000" color-rendering="auto" dominant-baseline="auto" fill-rule="evenodd" image-rendering="auto" opacity=".3" shape-rendering="auto" solid-color="#000000" style="font-feature-settings:normal;font-variant-alternates:normal;font-variant-caps:normal;font-variant-ligatures:normal;font-variant-numeric:normal;font-variant-position:normal;isolation:auto;mix-blend-mode:normal;paint-order:normal;shape-padding:0;text-decoration-color:#000000;text-decoration-line:none;text-decoration-style:solid;text-indent:0;text-orientation:mixed;text-transform:none;white-space:normal"/>
  <rect id="rect858" x="32" y="16" width="14" height="14" ry="7" fill="#efefef" fill-rule="evenodd" style="paint-order:normal"/>
  <rect id="rect858-4" x="20" y="16" width="14" height="14" ry="7" fill="#efefef" fill-rule="evenodd" style="paint-order:normal"/>
  <rect id="rect879" x="22" y="20" width="6" height="6" ry="3" fill="#4e4e4e" fill-rule="evenodd" style="paint-order:normal"/>
  <rect id="rect881" x="34" y="20" width="6" height="6" ry="3" fill="#4e4e4e" fill-rule="evenodd" style="paint-order:normal"/>
  <path id="rect947" d="m27 16c-3.878 0-7 3.122-7 7s3.122 7 7 7c2.5564 0 4.7784-1.3609 6-3.3965 1.2216 2.0356 3.4436 3.3965 6 3.3965 3.878 0 7-3.122 7-7s-3.122-7-7-7c-2.5564 0-4.7784 1.3609-6 3.3965-1.2216-2.0356-3.4436-3.3965-6-3.3965zm-0.5 1h1c3.047 0 5.5 2.453 5.5 5.5v0.5c0-3.324 2.676-6 6-6s6 2.676 6 6-2.676 6-6 6-6-2.676-6-6v0.5c0 3.047-2.453 5.5-5.5 5.5h-1c-3.047 0-5.5-2.453-5.5-5.5v-1c0-3.047 2.453-5.5 5.5-5.5z" fill-rule="evenodd" opacity=".25" style="paint-order:normal"/>
 </g>
</svg>
