<?xml version="1.0" encoding="UTF-8"?>
<!-- Created with Inkscape (http://www.inkscape.org/) -->
<svg id="SVGRoot" width="48px" height="48px" version="1.1" viewBox="0 0 48 48" xmlns="http://www.w3.org/2000/svg" xmlns:cc="http://creativecommons.org/ns#" xmlns:dc="http://purl.org/dc/elements/1.1/" xmlns:rdf="http://www.w3.org/1999/02/22-rdf-syntax-ns#" xmlns:xlink="http://www.w3.org/1999/xlink">
 <defs id="defs815">
  <style id="style819">.cls-1{fill:none;stroke:#fff;stroke-linecap:round;stroke-linejoin:round;}</style>
  <style id="style819-1">.cls-1{fill:none;stroke:#fff;stroke-linecap:round;stroke-linejoin:round;}</style>
 </defs>
 <metadata id="metadata818">
  <rdf:RDF>
   <cc:Work rdf:about="">
    <dc:format>image/svg+xml</dc:format>
    <dc:type rdf:resource="http://purl.org/dc/dcmitype/StillImage"/>
    <dc:title/>
   </cc:Work>
  </rdf:RDF>
 </metadata>
 <g id="layer1" fill-rule="evenodd">
  <rect id="rect1373-5" x="4" y="4" width="40" height="40" ry="8" fill="#46589d" style="paint-order:stroke fill markers"/>
  <path id="rect817" d="m12 4c-4.432 0-8 3.568-8 8v24c0 4.432 3.568 8 8 8h24c4.432 0 8-3.568 8-8v-24c0-4.432-3.568-8-8-8h-24zm0 1h24c3.878 0 7 3.122 7 7v24c0 3.878-3.122 7-7 7h-24c-3.878 0-7-3.122-7-7v-24c0-3.878 3.122-7 7-7z" opacity=".3" style="paint-order:stroke fill markers"/>
  <path id="rect818-2-5-8-6-7-1" d="m18.5 38c2.9358 0 4.4032-2.4795 4.3887-3.9238-0.050907-5.0762 0.11133-7.0762 1.1113-10.076-3 1-5 1.1622-10.076 1.1113-1.4443-0.014484-3.9238 1.4529-3.9238 4.3887 0 2.3214 2.8738 4.3493 4 4.5 0.15066 1.1262 2.1786 4 4.5 4z" fill="#729dec" style="paint-order:normal"/>
  <path id="rect818-2-5-8-6-7" d="m18.5 10c2.9358 0 4.4032 2.4795 4.3887 3.9238-0.050907 5.0762 0.11133 7.0762 1.1113 10.076-3-1-5-1.1622-10.076-1.1113-1.4443 0.014484-3.9238-1.4529-3.9238-4.3887 0-2.3214 2.8738-4.3493 4-4.5 0.15066-1.1262 2.1786-4 4.5-4z" fill="#98dc9a" style="paint-order:normal"/>
  <path id="rect818-2-5-8-6-4" d="m29.5 38c-2.9358 0-4.4032-2.4795-4.3887-3.9238 0.050907-5.0762-0.11133-7.0762-1.1113-10.076 3 1 5 1.1622 10.076 1.1113 1.4443-0.014484 3.9238 1.4529 3.9238 4.3887 0 2.3214-2.8738 4.3493-4 4.5-0.15066 1.1262-2.1786 4-4.5 4z" fill="#f9de81" style="paint-order:normal"/>
  <path id="rect818-2-5-8-6" d="m29.5 10c-2.9358 0-4.4032 2.4795-4.3887 3.9238 0.050907 5.0762-0.11133 7.0762-1.1113 10.076 3-1 5-1.1622 10.076-1.1113 1.4443 0.014484 3.9238-1.4529 3.9238-4.3887 0-2.3214-2.8738-4.3493-4-4.5-0.15066-1.1262-2.1786-4-4.5-4z" fill="#ff837d" style="paint-order:normal"/>
 </g>
</svg>
