<?xml version="1.0" encoding="UTF-8"?>
<!-- Created with Inkscape (http://www.inkscape.org/) -->
<svg id="SVGRoot" width="48px" height="48px" version="1.1" viewBox="0 0 48 48" xmlns="http://www.w3.org/2000/svg" xmlns:cc="http://creativecommons.org/ns#" xmlns:dc="http://purl.org/dc/elements/1.1/" xmlns:rdf="http://www.w3.org/1999/02/22-rdf-syntax-ns#">
 <defs id="defs815">
  <style id="style819">.cls-1{fill:none;stroke:#fff;stroke-linecap:round;stroke-linejoin:round;}</style>
 </defs>
 <metadata id="metadata818">
  <rdf:RDF>
   <cc:Work rdf:about="">
    <dc:format>image/svg+xml</dc:format>
    <dc:type rdf:resource="http://purl.org/dc/dcmitype/StillImage"/>
    <dc:title/>
   </cc:Work>
  </rdf:RDF>
 </metadata>
 <g id="layer1">
  <rect id="rect1373-5" x="4" y="4" width="40" height="40" ry="8" fill="#c184ed" fill-rule="evenodd" style="paint-order:stroke fill markers"/>
  <path id="rect854" d="m23.939 10c-7.7225 0-13.939 6.217-13.939 13.939v0.12109c0 7.7225 6.217 13.939 13.939 13.939h0.12109c7.7225 0 13.939-6.217 13.939-13.939v-0.12109c0-7.7225-6.217-13.939-13.939-13.939h-0.12109zm0.060547 2c6.648 0 12 5.352 12 12s-5.352 12-12 12-12-5.352-12-12 5.352-12 12-12z" fill-rule="evenodd" opacity=".3" style="paint-order:stroke fill markers"/>
  <path id="rect817" d="m12 4c-4.432 0-8 3.568-8 8v24c0 4.432 3.568 8 8 8h24c4.432 0 8-3.568 8-8v-24c0-4.432-3.568-8-8-8h-24zm0 1h24c3.878 0 7 3.122 7 7v24c0 3.878-3.122 7-7 7h-24c-3.878 0-7-3.122-7-7v-24c0-3.878 3.122-7 7-7z" fill-rule="evenodd" opacity=".3" style="paint-order:stroke fill markers"/>
  <path id="rect859" d="m24 14c-5.54 0-10 4.46-10 10s4.46 10 10 10 10-4.46 10-10-4.46-10-10-10zm0 2c4.432 0 8 3.568 8 8s-3.568 8-8 8-8-3.568-8-8 3.568-8 8-8z" fill-rule="evenodd" opacity=".3" style="paint-order:stroke fill markers"/>
  <path id="path822" d="m20 30s0-2 4-2 4 2 4 2 0 6-1 7-3 1-3 1-2 0-3-1-1-7-1-7z" fill="#fff"/>
  <rect id="rect845" x="20" y="18" width="8" height="8" ry="4" fill="#fff" fill-rule="evenodd" style="paint-order:stroke fill markers"/>
 </g>
</svg>
