<?xml version="1.0" encoding="UTF-8"?>
<!-- Created with Inkscape (http://www.inkscape.org/) -->
<svg id="SVGRoot" width="48px" height="48px" version="1.1" viewBox="0 0 48 48" xmlns="http://www.w3.org/2000/svg" xmlns:cc="http://creativecommons.org/ns#" xmlns:dc="http://purl.org/dc/elements/1.1/" xmlns:rdf="http://www.w3.org/1999/02/22-rdf-syntax-ns#">
 <defs id="defs815">
  <style id="style819">.cls-1{fill:none;stroke:#fff;stroke-linecap:round;stroke-linejoin:round;}</style>
  <style id="style819-1">.cls-1{fill:none;stroke:#fff;stroke-linecap:round;stroke-linejoin:round;}</style>
  <style id="style819-8">.cls-1{fill:none;stroke:#fff;stroke-linecap:round;stroke-linejoin:round;}</style>
 </defs>
 <metadata id="metadata818">
  <rdf:RDF>
   <cc:Work rdf:about="">
    <dc:format>image/svg+xml</dc:format>
    <dc:type rdf:resource="http://purl.org/dc/dcmitype/StillImage"/>
    <dc:title/>
   </cc:Work>
  </rdf:RDF>
 </metadata>
 <g id="layer1">
  <rect id="rect1373-5" x="4" y="4" width="40" height="40" ry="8" fill="#96d56b" fill-rule="evenodd" style="paint-order:stroke fill markers"/>
  <path id="rect817" d="m12 4c-4.432 0-8 3.568-8 8v24c0 4.432 3.568 8 8 8h24c4.432 0 8-3.568 8-8v-24c0-4.432-3.568-8-8-8h-24zm0 1h24c3.878 0 7 3.122 7 7v24c0 3.878-3.122 7-7 7h-24c-3.878 0-7-3.122-7-7v-24c0-3.878 3.122-7 7-7z" fill-rule="evenodd" opacity=".3" style="paint-order:stroke fill markers"/>
  <rect id="rect828" x="12" y="10" width="10" height="10" ry="5" fill="#fff" fill-rule="evenodd" style="paint-order:normal"/>
  <rect id="rect830" x="14" y="14" width="4" height="4" ry="2" fill="#4e4e4e" fill-rule="evenodd" style="paint-order:normal"/>
  <path id="path832" d="m19 28s1.8233 2.2155 3 3c3 2 9 1 9 1s-8.3991 7.8404-13 6c-5-2 1-10 1-10z" fill="#ffdd75"/>
  <path id="path834" d="m20 23c0.40961-3.5196 4.4665-7.265 8-7 5.6606 0.42451 10 6 10 13 0 5-3 8-3 8s-0.63226-3.8375-2-5c-2.3416-1.9903-5.0845-1.0282-8-2-3-1-5.3315-4.1518-5-7z" fill="#ffdd75"/>
 </g>
</svg>
