<?xml version="1.0" encoding="UTF-8"?>
<!-- Created with Inkscape (http://www.inkscape.org/) -->
<svg id="SVGRoot" width="48px" height="48px" version="1.1" viewBox="0 0 48 48" xmlns="http://www.w3.org/2000/svg" xmlns:cc="http://creativecommons.org/ns#" xmlns:dc="http://purl.org/dc/elements/1.1/" xmlns:rdf="http://www.w3.org/1999/02/22-rdf-syntax-ns#">
 <defs id="defs815">
  <style id="style819">.cls-1{fill:none;stroke:#fff;stroke-linecap:round;stroke-linejoin:round;}</style>
 </defs>
 <metadata id="metadata818">
  <rdf:RDF>
   <cc:Work rdf:about="">
    <dc:format>image/svg+xml</dc:format>
    <dc:type rdf:resource="http://purl.org/dc/dcmitype/StillImage"/>
    <dc:title/>
   </cc:Work>
  </rdf:RDF>
 </metadata>
 <g id="layer1">
  <rect id="rect1373-5" x="4" y="4" width="40" height="40" ry="8" fill="#fae0cb" fill-rule="evenodd" style="paint-order:stroke fill markers"/>
  <path id="path1122" d="m4 16v11h40v-11s0 4-4 4c-6 2-8 2-8 2h-16s-2 0-8-2c-4 0-4-4-4-4z" fill="#faadad"/>
  <path id="rect861" d="m8 20c-2.216 0-4 1.784-4 4v12c0 4.432 3.568 8 8 8v-4-16c0-2.216-1.784-4-4-4z" fill="#f97263" fill-rule="evenodd" style="paint-order:normal"/>
  <path id="rect861-4" d="m40 20c-2.216 0-4 1.784-4 4v16 4c4.432 0 8-3.568 8-8v-12c0-2.216-1.784-4-4-4z" fill="#f97263" fill-rule="evenodd" style="paint-order:normal"/>
  <rect id="rect861-8" x="12" y="22" width="8" height="22" ry="4" fill="#efefef" fill-rule="evenodd" style="paint-order:normal"/>
  <rect id="rect861-8-5" x="20" y="22" width="8" height="22" ry="4" fill="#f97263" fill-rule="evenodd" style="paint-order:normal"/>
  <rect id="rect861-8-1" x="28" y="22" width="8" height="22" ry="4" fill="#efefef" fill-rule="evenodd" style="paint-order:normal"/>
  <rect id="rect905" x="12" y="40" width="8" height="4" fill="#efefef" fill-rule="evenodd" style="paint-order:normal"/>
  <rect id="rect909" x="20" y="40" width="8" height="4" fill="#f97263" fill-rule="evenodd" style="paint-order:normal"/>
  <rect id="rect911" x="28" y="40" width="8" height="4" fill="#efefef" fill-rule="evenodd" style="paint-order:normal"/>
  <rect id="rect915" x="12" y="8" width="8" height="8" ry="4" fill="#4e4e4e" fill-rule="evenodd" style="paint-order:normal"/>
  <rect id="rect917" x="28" y="8" width="8" height="8" ry="4" fill="#4e4e4e" fill-rule="evenodd" style="paint-order:normal"/>
  <path id="path919" d="m20 16h8s0 4-4 4-4-4-4-4z" fill="#4e4e4e"/>
  <rect id="rect1008" x="14" y="10" width="2" height="2" ry="1" fill="#fff" fill-rule="evenodd" style="paint-order:normal"/>
  <rect id="rect1010" x="30" y="10" width="2" height="2" ry="1" fill="#fff" fill-rule="evenodd" style="paint-order:normal"/>
  <path id="rect817" d="m12 4c-4.432 0-8 3.568-8 8v24c0 4.432 3.568 8 8 8h24c4.432 0 8-3.568 8-8v-24c0-4.432-3.568-8-8-8h-24zm0 1h24c3.878 0 7 3.122 7 7v24c0 3.878-3.122 7-7 7h-24c-3.878 0-7-3.122-7-7v-24c0-3.878 3.122-7 7-7z" fill-rule="evenodd" opacity=".3" style="paint-order:stroke fill markers"/>
 </g>
</svg>
