<?xml version="1.0" encoding="UTF-8"?>
<!-- Created with Inkscape (http://www.inkscape.org/) -->
<svg id="SVGRoot" width="48px" height="48px" version="1.1" viewBox="0 0 48 48" xmlns="http://www.w3.org/2000/svg" xmlns:cc="http://creativecommons.org/ns#" xmlns:dc="http://purl.org/dc/elements/1.1/" xmlns:rdf="http://www.w3.org/1999/02/22-rdf-syntax-ns#" xmlns:xlink="http://www.w3.org/1999/xlink">
 <defs id="defs815">
  <style id="style819">.cls-1{fill:none;stroke:#fff;stroke-linecap:round;stroke-linejoin:round;}</style>
 </defs>
 <metadata id="metadata818">
  <rdf:RDF>
   <cc:Work rdf:about="">
    <dc:format>image/svg+xml</dc:format>
    <dc:type rdf:resource="http://purl.org/dc/dcmitype/StillImage"/>
    <dc:title/>
   </cc:Work>
  </rdf:RDF>
 </metadata>
 <g id="layer1">
  <rect id="rect1373" x="4" y="4" width="40" height="40" ry="8" fill="#efefef" fill-rule="evenodd" style="paint-order:stroke fill markers"/>
  <path id="rect817" d="m12 4c-4.432 0-8 3.568-8 8v24c0 4.432 3.568 8 8 8h24c4.432 0 8-3.568 8-8v-24c0-4.432-3.568-8-8-8h-24zm0 1h24c3.878 0 7 3.122 7 7v24c0 3.878-3.122 7-7 7h-24c-3.878 0-7-3.122-7-7v-24c0-3.878 3.122-7 7-7z" fill-rule="evenodd" opacity=".3" style="paint-order:stroke fill markers"/>
  <path id="path830" d="m24 17.5 6 3.5v7l-6 3.5-6-3.5v-7z" fill="#f8c300"/>
  <path id="path832" d="m23 9v6.5l-6 3.5-6-3z" fill="#3895bd"/>
  <path id="path834" d="m16 21-6-3v13l6-3z" fill="#3941bf"/>
  <path id="path832-5" d="m23 40v-6.5l-6-3.5-6 3z" fill="#bb3a84"/>
  <path id="path832-59" d="m25 9v6.5l6 3.5 6-3z" fill="#8fb635"/>
  <path id="path834-6" d="m32 21 6-3v13l-6-3z" fill="#d18c3b"/>
  <path id="path832-5-2" d="m25 40v-6.5l6-3.5 6 3z" fill="#a02c35"/>
 </g>
</svg>
