<?xml version="1.0" encoding="UTF-8"?>
<!-- Created with Inkscape (http://www.inkscape.org/) -->
<svg id="SVGRoot" width="48px" height="48px" version="1.1" viewBox="0 0 48 48" xmlns="http://www.w3.org/2000/svg" xmlns:cc="http://creativecommons.org/ns#" xmlns:dc="http://purl.org/dc/elements/1.1/" xmlns:rdf="http://www.w3.org/1999/02/22-rdf-syntax-ns#">
 <defs id="defs815">
  <style id="style819">.cls-1{fill:none;stroke:#fff;stroke-linecap:round;stroke-linejoin:round;}</style>
  <style id="style819-1">.cls-1{fill:none;stroke:#fff;stroke-linecap:round;stroke-linejoin:round;}</style>
  <style id="style2">.a{fill:none;stroke:#b1b5bd;stroke-linecap:round;stroke-linejoin:round;isolation:isolate;opacity:0.63;}</style>
  <style id="style819-5">.cls-1{fill:none;stroke:#fff;stroke-linecap:round;stroke-linejoin:round;}</style>
  <style id="style2-6">.a{fill:none;stroke:#b1b5bd;stroke-linecap:round;stroke-linejoin:round;isolation:isolate;opacity:0.63;}</style>
 </defs>
 <metadata id="metadata818">
  <rdf:RDF>
   <cc:Work rdf:about="">
    <dc:format>image/svg+xml</dc:format>
    <dc:type rdf:resource="http://purl.org/dc/dcmitype/StillImage"/>
    <dc:title/>
   </cc:Work>
  </rdf:RDF>
 </metadata>
 <g id="layer1">
  <rect id="rect1373-5" x="4" y="4" width="40" height="40" ry="8" fill="#efefef" fill-rule="evenodd" style="paint-order:stroke fill markers"/>
  <path id="rect817" d="m12 4c-4.432 0-8 3.568-8 8v24c0 4.432 3.568 8 8 8h24c4.432 0 8-3.568 8-8v-24c0-4.432-3.568-8-8-8h-24zm0 1h24c3.878 0 7 3.122 7 7v24c0 3.878-3.122 7-7 7h-24c-3.878 0-7-3.122-7-7v-24c0-3.878 3.122-7 7-7z" fill-rule="evenodd" opacity=".3" style="paint-order:stroke fill markers"/>
  <g id="g999">
   <path id="path817-8-3-6" d="m17.559 13.877c-3.3428 2.1256-5.5586 5.8518-5.5586 10.123h12l-6.4414-10.123z" fill="#b072dd"/>
   <path id="path817-8-3-6-0" d="m30.441 13.877-6.4414 10.123h12c0-4.2713-2.2158-7.9974-5.5586-10.123z" fill="#f68d59"/>
   <path id="path817-8-3-6-2" d="m12 24c0 4.2713 2.2158 7.9974 5.5586 10.123l6.4414-10.123h-12z" fill="#729dec"/>
   <path id="path817-8-3-6-0-7" d="m24 24 6.4414 10.123c3.3428-2.1256 5.5586-5.8518 5.5586-10.123h-12z" fill="#ffdd75"/>
   <path id="path817-8-0" d="m24 12c-0.55282 0-1.0924 0.049408-1.625 0.12109l-0.375 1.8789 2 10 8.4922-8.4922c-2.169-2.169-5.1682-3.5078-8.4922-3.5078z" fill="#d35244"/>
   <path id="path817-8" d="m24 12c-3.324 0-6.3232 1.3388-8.4922 3.5078l8.4922 8.4922v-12z" fill="#f280a3"/>
   <path id="path817-8-3" d="m24 24-8.4922 8.4922c2.169 2.169 5.1682 3.5078 8.4922 3.5078 0.55282 0 1.0924-0.049408 1.625-0.12109l0.375-1.8789-2-10z" fill="#96dfd3"/>
   <path id="path817-8-3-0" d="m24 24v12c3.324 0 6.3232-1.3388 8.4922-3.5078l-8.4922-8.4922z" fill="#96d56b"/>
  </g>
  <path id="rect819" d="m24 12c-6.648 0-12 5.352-12 12s5.352 12 12 12 12-5.352 12-12-5.352-12-12-12zm0 1c6.094 0 11 4.906 11 11s-4.906 11-11 11-11-4.906-11-11 4.906-11 11-11z" fill-rule="evenodd" opacity=".25" style="paint-order:stroke fill markers"/>
  <rect id="rect824" x="18" y="18" width="12" height="12" ry="6" fill="#4e4e4e" fill-rule="evenodd" style="paint-order:stroke fill markers"/>
  <rect id="rect935" x="20" y="20" width="4" height="4" ry="2" fill="#fff" fill-rule="evenodd" opacity=".75" style="paint-order:stroke fill markers"/>
 </g>
</svg>
