<?xml version="1.0" encoding="UTF-8"?>
<!-- Created with Inkscape (http://www.inkscape.org/) -->
<svg id="SVGRoot" width="48px" height="48px" version="1.1" viewBox="0 0 48 48" xmlns="http://www.w3.org/2000/svg" xmlns:cc="http://creativecommons.org/ns#" xmlns:dc="http://purl.org/dc/elements/1.1/" xmlns:rdf="http://www.w3.org/1999/02/22-rdf-syntax-ns#">
 <defs id="defs815">
  <style id="style819">.cls-1{fill:none;stroke:#fff;stroke-linecap:round;stroke-linejoin:round;}</style>
 </defs>
 <metadata id="metadata818">
  <rdf:RDF>
   <cc:Work rdf:about="">
    <dc:format>image/svg+xml</dc:format>
    <dc:type rdf:resource="http://purl.org/dc/dcmitype/StillImage"/>
    <dc:title/>
   </cc:Work>
  </rdf:RDF>
 </metadata>
 <g id="layer1">
  <rect id="rect1373-5" x="4" y="4" width="40" height="40" ry="8" fill="#5597c9" fill-rule="evenodd" style="paint-order:stroke fill markers"/>
  <path id="rect817" d="m12 4c-4.432 0-8 3.568-8 8v24c0 4.432 3.568 8 8 8h24c4.432 0 8-3.568 8-8v-24c0-4.432-3.568-8-8-8h-24zm0 1h24c3.878 0 7 3.122 7 7v24c0 3.878-3.122 7-7 7h-24c-3.878 0-7-3.122-7-7v-24c0-3.878 3.122-7 7-7z" fill-rule="evenodd" opacity=".3" style="paint-order:stroke fill markers"/>
  <path id="path827" d="m12 6c-3.324 0-6 2.676-6 6v6.4453c0.92129-2.4574 2.2157-4.6834 4-5.4453 2.6192-1.1184 5.3734 4.1009 8 3 3.0277-1.2691 1.5694-6.7932 4-9 0.415-0.37677 0.99203-0.69975 1.6172-1h-11.617zm28.506 4.832c-0.18876 0.022897-0.36069 0.076101-0.50586 0.16797-4.3087 2.7267 1.5383 12.675-3 15-3.5848 1.8362-7.5324-7.049-11-5-3.7417 2.211 0.99312 9.1378-1 13-1.4797 2.8673-5.7284 6.0159-8.75 8h18.061c-0.52995-0.68071-1.0503-1.4041-1.3105-2-1.4913-3.4154-4.9145-8.6773-2-11 1.9853-1.5822 4.5475 3.6556 7 3 1.5166-0.40541 2.9232-2.2052 4-3.9941v-16.006c0-0.32587-0.032505-0.64358-0.082031-0.95508-0.4926-0.158-0.99417-0.26358-1.4121-0.21289z" opacity=".2"/>
  <path id="path817" d="m11 36 8-24 5 12 5-12 8 24h-4l-4-12-4 9h-2l-4-9-4 12z" fill="#fff"/>
 </g>
</svg>
