<?xml version="1.0" encoding="UTF-8"?>
<!-- Created with Inkscape (http://www.inkscape.org/) -->
<svg id="SVGRoot" width="48px" height="48px" version="1.1" viewBox="0 0 48 48" xml:space="preserve" xmlns="http://www.w3.org/2000/svg" xmlns:cc="http://creativecommons.org/ns#" xmlns:dc="http://purl.org/dc/elements/1.1/" xmlns:rdf="http://www.w3.org/1999/02/22-rdf-syntax-ns#"><defs><style>.cls-1{fill:none;stroke:#fff;stroke-linecap:round;stroke-linejoin:round;}</style><style>.cls-1{fill:none;stroke:#fff;stroke-linecap:round;stroke-linejoin:round;}</style></defs><metadata><rdf:RDF><cc:Work rdf:about=""><dc:format>image/svg+xml</dc:format><dc:type rdf:resource="http://purl.org/dc/dcmitype/StillImage"/></cc:Work></rdf:RDF></metadata><rect x="4" y="4" width="40" height="40" ry="8" fill="#4fb461" fill-rule="evenodd" style="paint-order:stroke fill markers"/><path d="m13 8c-2.77 0-5 2.23-5 5v3l8-8h-3zm3 0 4 4 4-4h-8zm8 0 4 4 4-4h-8zm8 0 8 8v-3c0-2.77-2.23-5-5-5h-3zm8 8-4 4 4 4v-8zm0 8-4 4 4 4v-8zm0 8-8 8h3c2.77 0 5-2.23 5-5v-3zm-8 8-4-4-4 4h8zm-8 0-4-4-4 4h8zm-8 0-8-8v3c0 2.77 2.23 5 5 5h3zm-8-8 4-4-4-4v8zm0-8 4-4-4-4v8z" opacity=".3" stroke-linecap="round" stroke-linejoin="round" stroke-width="2"/><path d="m12 4c-4.432 0-8 3.568-8 8v24c0 4.432 3.568 8 8 8h24c4.432 0 8-3.568 8-8v-24c0-4.432-3.568-8-8-8zm0 1h24c3.878 0 7 3.122 7 7v24c0 3.878-3.122 7-7 7h-24c-3.878 0-7-3.122-7-7v-24c0-3.878 3.122-7 7-7z" fill-rule="evenodd" opacity=".3" style="paint-order:stroke fill markers"/><path d="m12 12 6 3v2l-6 3v-2l4-2-4-2z" fill="#fff"/><rect x="20" y="18" width="6" height="2" fill="#fff" fill-rule="evenodd" style="paint-order:stroke fill markers"/></svg>
