<?xml version="1.0" encoding="UTF-8"?>
<!-- Created with Inkscape (http://www.inkscape.org/) -->
<svg id="SVGRoot" width="48px" height="48px" version="1.1" viewBox="0 0 48 48" xml:space="preserve" xmlns="http://www.w3.org/2000/svg" xmlns:cc="http://creativecommons.org/ns#" xmlns:dc="http://purl.org/dc/elements/1.1/" xmlns:rdf="http://www.w3.org/1999/02/22-rdf-syntax-ns#"><defs><style>.cls-1{fill:none;stroke:#fff;stroke-linecap:round;stroke-linejoin:round;}</style><style>.cls-1{fill:none;stroke:#fff;stroke-linecap:round;stroke-linejoin:round;}</style></defs><metadata><rdf:RDF><cc:Work rdf:about=""><dc:format>image/svg+xml</dc:format><dc:type rdf:resource="http://purl.org/dc/dcmitype/StillImage"/></cc:Work></rdf:RDF></metadata><rect x="4" y="4" width="40" height="40" ry="8" fill="#4e4e4e" fill-rule="evenodd" style="paint-order:stroke fill markers"/><path d="m12 4c-4.432 0-8 3.568-8 8v24c0 4.432 3.568 8 8 8h24c4.432 0 8-3.568 8-8v-24c0-4.432-3.568-8-8-8zm0 1h24c3.878 0 7 3.122 7 7v24c0 3.878-3.122 7-7 7h-24c-3.878 0-7-3.122-7-7v-24c0-3.878 3.122-7 7-7z" fill-rule="evenodd" opacity=".4" style="paint-order:stroke fill markers"/><g stroke-linecap="round" stroke-linejoin="round" stroke-width="2"><path d="m24 10c-6.3112 0-11.454 4.8234-11.959 11h-0.041016v1 16h8v-4.6777c1.2501 0.43913 2.5961 0.67773 4 0.67773 1.3101 0 2.5696-0.2091 3.748-0.59375h0.001953l4.5938 4.5938 5.6562-5.6562-3.877-3.8789c1.1896-1.8637 1.877-4.0807 1.877-6.4648 0-6.648-5.352-12-12-12z" fill="#fff"/><path d="m24 12c-5.54 0-10 4.46-10 10v14h4v-5.9883c1.6691 1.2498 3.7451 1.9883 6 1.9883 5.54 0 10-4.46 10-10s-4.46-10-10-10z" fill="#4e4e4e"/><rect x="18" y="16" width="12" height="12" ry="6" fill="#fff"/><rect x="20" y="18" width="8" height="8" ry="4" fill="#4e4e4e"/></g></svg>
