<?xml version="1.0" encoding="UTF-8"?>
<!-- Created with Inkscape (http://www.inkscape.org/) -->
<svg id="SVGRoot" width="48px" height="48px" version="1.1" viewBox="0 0 48 48" xmlns="http://www.w3.org/2000/svg" xmlns:cc="http://creativecommons.org/ns#" xmlns:dc="http://purl.org/dc/elements/1.1/" xmlns:rdf="http://www.w3.org/1999/02/22-rdf-syntax-ns#" xmlns:xlink="http://www.w3.org/1999/xlink">
 <defs id="defs815">
  <style id="style819">.cls-1{fill:none;stroke:#fff;stroke-linecap:round;stroke-linejoin:round;}</style>
 </defs>
 <metadata id="metadata818">
  <rdf:RDF>
   <cc:Work rdf:about="">
    <dc:format>image/svg+xml</dc:format>
    <dc:type rdf:resource="http://purl.org/dc/dcmitype/StillImage"/>
    <dc:title/>
   </cc:Work>
  </rdf:RDF>
 </metadata>
 <g id="layer1" fill-rule="evenodd">
  <rect id="rect1373" x="4" y="4" width="40" height="40" ry="8" fill="#efefef" style="paint-order:stroke fill markers"/>
  <path id="rect817" d="m12 4c-4.432 0-8 3.568-8 8v24c0 4.432 3.568 8 8 8h24c4.432 0 8-3.568 8-8v-24c0-4.432-3.568-8-8-8h-24zm0 1h24c3.878 0 7 3.122 7 7v24c0 3.878-3.122 7-7 7h-24c-3.878 0-7-3.122-7-7v-24c0-3.878 3.122-7 7-7z" opacity=".3" style="paint-order:stroke fill markers"/>
  <path id="path913" d="m24 10c-3.324 0-6 1.784-6 4v2h8v2h-12c-2.216 0-4 2.676-4 6s1.784 6 4 6h2v-3s-0.01379-0.95875 0.48047-1.9473c0.49426-0.98851 1.6862-2.0527 3.5195-2.0527h8c1.1667 0 1.4747-0.43578 1.7305-0.94727 0.25574-0.51149 0.26953-1.0527 0.26953-1.0527v-7c0-2.216-2.676-4-6-4z" fill="#627ad4" style="paint-order:normal"/>
  <path id="rect828-2" d="m32 18v3s0.01379 0.95875-0.48047 1.9473c-0.49426 0.98851-1.6862 2.0527-3.5195 2.0527h-8c-1.1667 0-1.4747 0.43578-1.7305 0.94727-0.25574 0.51149-0.26953 1.0527-0.26953 1.0527v7c0 2.216 2.676 4 6 4s6-1.784 6-4v-2h-8v-2h12c2.216 0 4-2.676 4-6s-1.784-6-4-6z" fill="#ffc121" style="paint-order:normal"/>
  <rect id="rect881" x="20" y="12" width="2" height="2" ry="1" fill="#efefef" style="paint-order:normal"/>
  <rect id="rect883" x="26" y="34" width="2" height="2" ry="1" fill="#efefef" style="paint-order:normal"/>
 </g>
</svg>
