<?xml version="1.0" encoding="UTF-8"?>
<!-- Created with Inkscape (http://www.inkscape.org/) -->
<svg id="SVGRoot" width="48px" height="48px" version="1.1" viewBox="0 0 48 48" xml:space="preserve" xmlns="http://www.w3.org/2000/svg" xmlns:cc="http://creativecommons.org/ns#" xmlns:dc="http://purl.org/dc/elements/1.1/" xmlns:rdf="http://www.w3.org/1999/02/22-rdf-syntax-ns#"><defs><style>.cls-1{fill:none;stroke:#fff;stroke-linecap:round;stroke-linejoin:round;}</style><style>.cls-1{fill:none;stroke:#fff;stroke-linecap:round;stroke-linejoin:round;}</style><style>.cls-1{fill:none;stroke:#fff;stroke-linecap:round;stroke-linejoin:round;}</style><style>.cls-1{fill:none;stroke:#fff;stroke-linecap:round;stroke-linejoin:round;}</style></defs><metadata><rdf:RDF><cc:Work rdf:about=""><dc:format>image/svg+xml</dc:format><dc:type rdf:resource="http://purl.org/dc/dcmitype/StillImage"/></cc:Work></rdf:RDF></metadata><rect x="4" y="4" width="40" height="40" ry="8" fill="#729dec" fill-rule="evenodd" style="paint-order:stroke fill markers"/><path d="m12 4c-4.432 0-8 3.568-8 8v24c0 4.432 3.568 8 8 8h24c4.432 0 8-3.568 8-8v-24c0-4.432-3.568-8-8-8zm0 1h24c3.878 0 7 3.122 7 7v24c0 3.878-3.122 7-7 7h-24c-3.878 0-7-3.122-7-7v-24c0-3.878 3.122-7 7-7z" fill-rule="evenodd" opacity=".3" style="paint-order:stroke fill markers"/><path transform="scale(-1)" d="m-27-12c0.554 0 1-0.446 1-1v-11.777-0.44531-5.7773c0-0.554-0.446-1-1-1s-1 0.446-1 1v0.28711c-0.79926-0.80983-1.7844-1.2871-2.8516-1.2871h-0.29688c-2.6874 0-4.8516 3.0225-4.8516 6.7773v0.44531c0 3.7548 2.1641 6.7773 4.8516 6.7773h0.29688c1.0671 0 2.0523-0.47728 2.8516-1.2871v6.2871c0 0.554 0.446 1 1 1zm-4-8c-1.662 0-3-1.338-3-3v-4c0-1.662 1.338-3 3-3s3 1.338 3 3v4c0 1.662-1.338 3-3 3z" fill="#fff" style="paint-order:stroke fill markers"/><path d="m16.852 18c-2.6874 0-4.8516 3.0225-4.8516 6.7773v0.44531c0 3.7548 2.1641 6.7773 4.8516 6.7773h0.29688c1.0671 0 2.0523-0.47728 2.8516-1.2871v6.2871c0 0.554 0.446 1 1 1s1-0.446 1-1v-11.777-0.44531-5.7773c0-0.554-0.446-1-1-1s-1 0.446-1 1v0.28711c-0.79926-0.80983-1.7844-1.2871-2.8516-1.2871h-0.29688zm0.14844 2c1.662 0 3 1.338 3 3v4c0 1.662-1.338 3-3 3s-3-1.338-3-3v-4c0-1.662 1.338-3 3-3z" fill="#b5e0ff" style="paint-order:stroke fill markers"/></svg>
