<?xml version="1.0" encoding="UTF-8"?>
<!-- Created with Inkscape (http://www.inkscape.org/) -->
<svg id="SVGRoot" width="48px" height="48px" version="1.1" viewBox="0 0 48 48" xmlns="http://www.w3.org/2000/svg" xmlns:cc="http://creativecommons.org/ns#" xmlns:dc="http://purl.org/dc/elements/1.1/" xmlns:rdf="http://www.w3.org/1999/02/22-rdf-syntax-ns#" xmlns:xlink="http://www.w3.org/1999/xlink">
 <defs id="defs815">
  <style id="style819">.cls-1{fill:none;stroke:#fff;stroke-linecap:round;stroke-linejoin:round;}</style>
 </defs>
 <metadata id="metadata818">
  <rdf:RDF>
   <cc:Work rdf:about="">
    <dc:format>image/svg+xml</dc:format>
    <dc:type rdf:resource="http://purl.org/dc/dcmitype/StillImage"/>
    <dc:title/>
   </cc:Work>
  </rdf:RDF>
 </metadata>
 <g id="layer1">
  <rect id="rect1373" x="4" y="4" width="40" height="40" ry="8" fill="#4e4e4e" fill-rule="evenodd" style="paint-order:stroke fill markers"/>
  <path id="rect817" d="m12 4c-4.432 0-8 3.568-8 8v24c0 4.432 3.568 8 8 8h24c4.432 0 8-3.568 8-8v-24c0-4.432-3.568-8-8-8h-24zm0 1h24c3.878 0 7 3.122 7 7v24c0 3.878-3.122 7-7 7h-24c-3.878 0-7-3.122-7-7v-24c0-3.878 3.122-7 7-7z" fill-rule="evenodd" opacity=".4" style="paint-order:stroke fill markers"/>
  <g id="layer1-4" transform="matrix(1.1838 0 0 1.1563 -4.9883 -3.896)">
   <path id="path841" d="m20.262 11.994c-0.05665 0.0027-0.11484 0.03556-0.20632 0.10006-0.08299 0.05851-0.27291 0.12307-0.42211 0.14357-0.18333 0.02518-0.31214 0.08146-0.39742 0.17348-0.08619 0.09301-0.17726 0.13226-0.28724 0.12388-0.16406-0.0125-0.29703 0.03832-0.29703 0.11355 0 0.02297 0.0877 0.18742 0.1949 0.36544 0.10719 0.17802 0.1949 0.34506 0.1949 0.37121 0 0.02615-0.07121 0.03329-0.15825 0.01588-0.13534-0.02708-0.18382 5.57e-4 -0.33455 0.19088-0.09693 0.1224-0.25385 0.39414-0.34869 0.60385-0.46018 1.0175-0.61441 1.3135-0.81953 1.573-0.27418 0.34686-0.4502 0.86655-0.8714 2.5719-0.4696 1.9013-0.57632 3.0089-0.39111 4.0603 0.04586 0.26033 0.08338 0.73812 0.08341 1.0617 1.67e-4 1.2264 0.13363 1.5347 0.99529 2.3008 0.63902 0.56814 1.3942 1.3805 2.4392 2.6238 1.4847 1.7663 2.7551 3.5526 3.9999 5.6243 0.33123 0.5513 0.64538 1.0399 0.69815 1.0859 0.05277 0.04594 0.15248 0.25894 0.22155 0.47333 0.15778 0.48974 0.27434 0.72269 0.33053 0.66062 0.02399-0.0265-0.0399-0.74747-0.14204-1.6023-0.10213-0.85482-0.22687-1.7569-0.27713-2.0047-0.14674-0.72351-0.48217-1.8346-1.104-3.6568-0.65858-1.9298-0.94033-2.9941-1.0626-4.0142-0.26764-2.2328 0.0955-3.3893 1.3196-4.2031 0.21737-0.14451 0.8737-0.46837 1.4585-0.71968 0.5848-0.25131 1.308-0.58323 1.6071-0.73752 0.83085-0.42858 1.7952-0.59096 2.7417-0.46159 1.8102 0.24745 2.3826 0.26754 2.6229 0.09178 0.10179-0.07442 0.10174-0.07899-0.0012-0.19273-0.26064-0.288-0.90725-0.48578-2.566-0.78505-0.52067-0.09393-1.2223-0.23186-1.5592-0.30638-0.52563-0.11628-1.6584-0.34153-3.6542-0.72664-0.49457-0.09543-0.65863-0.1573-0.59232-0.22362 0.12125-0.12125 5.5729 0.7031 6.4893 0.98126 0.19216 0.05833 0.51793 0.13343 0.72392 0.16695 0.63126 0.10273 0.90426 0.24806 1.581 0.8415 0.20413 0.17901 0.39833 0.32552 0.43157 0.32552 0.09998 0 0.06847-0.21051-0.07329-0.4903-0.33569-0.66245-1.1381-1.1253-3.0126-1.7378-1.1654-0.38083-1.6022-0.73839-1.7292-1.4157-0.09006-0.48009-0.88781-1.4233-1.5598-1.8442-0.43442-0.2721-1.5933-0.67992-2.8528-1.004-0.86692-0.22305-1.0957-0.23836-1.1809-0.07907-0.03278 0.06125-0.0865 0.11137-0.11942 0.11137-0.03291 0-0.19933-0.12753-0.36979-0.28333-0.34313-0.3136-0.36182-0.31639-1.0882-0.1663-0.27794 0.05744-0.34353 0.05452-0.45746-0.02013-0.08555-0.05606-0.14075-0.08352-0.1974-0.08082zm4.5711 2.5606c0.52781-0.0073 1.1791 0.21059 1.5561 0.63996 0.29564 0.33672 0.29078 0.65284-0.01364 0.87946-0.22468 0.16728-0.84174 0.18287-1.303 0.03295-0.57027-0.18535-1.0748-0.6532-1.0748-0.9967 0-0.36713 0.36958-0.54915 0.8353-0.55567z" fill="#f68d59" stroke-width=".055686"/>
  </g>
 </g>
</svg>
