<?xml version="1.0" encoding="UTF-8"?>
<!-- Created with Inkscape (http://www.inkscape.org/) -->
<svg id="SVGRoot" width="48px" height="48px" version="1.1" viewBox="0 0 48 48" xmlns="http://www.w3.org/2000/svg" xmlns:cc="http://creativecommons.org/ns#" xmlns:dc="http://purl.org/dc/elements/1.1/" xmlns:rdf="http://www.w3.org/1999/02/22-rdf-syntax-ns#">
 <defs id="defs815">
  <style id="style819">.cls-1{fill:none;stroke:#fff;stroke-linecap:round;stroke-linejoin:round;}</style>
 </defs>
 <metadata id="metadata818">
  <rdf:RDF>
   <cc:Work rdf:about="">
    <dc:format>image/svg+xml</dc:format>
    <dc:type rdf:resource="http://purl.org/dc/dcmitype/StillImage"/>
    <dc:title/>
   </cc:Work>
  </rdf:RDF>
 </metadata>
 <g id="layer1">
  <rect id="rect1373-5" x="4" y="4" width="40" height="40" ry="8" fill="#59ca84" fill-rule="evenodd" style="paint-order:stroke fill markers"/>
  <path id="rect817" d="m12 4c-4.432 0-8 3.568-8 8v24c0 4.432 3.568 8 8 8h24c4.432 0 8-3.568 8-8v-24c0-4.432-3.568-8-8-8h-24zm0 1h24c3.878 0 7 3.122 7 7v24c0 3.878-3.122 7-7 7h-24c-3.878 0-7-3.122-7-7v-24c0-3.878 3.122-7 7-7z" fill-rule="evenodd" opacity=".3" style="paint-order:stroke fill markers"/>
  <path id="rect828-6" d="m30 14v4h-2v4h2v6s0 6 5 6c2 0 3-1 3-1v-3h-3c-1 0-1-2-1-2v-6h4v-4h-4v-4z" fill="#fff" fill-rule="evenodd" style="paint-order:normal"/>
  <path id="path834-5" d="m18 12c-4.5338 0-8 2.0882-8 11.488 0 9.4001 3.7313 10.445 8 10.445 0.7548 0 1.4918-0.03685 2.1953-0.14258l2.8047 4.209 3-2-2.4688-3.7031c1.5057-1.4217 2.4688-4.036 2.4688-8.8086 0-9.4001-3.4662-11.488-8-11.488zm0 4.0371c2.2669 0 4 1.3345 4 7.332 0 5.9975-1.8656 6.6621-4 6.6621s-4-0.66462-4-6.6621c0-5.9975 1.7331-7.332 4-7.332z" fill="#fff"/>
 </g>
</svg>
