<?xml version="1.0" encoding="UTF-8"?>
<!-- Created with Inkscape (http://www.inkscape.org/) -->
<svg id="SVGRoot" width="48px" height="48px" version="1.1" viewBox="0 0 48 48" xmlns="http://www.w3.org/2000/svg" xmlns:cc="http://creativecommons.org/ns#" xmlns:dc="http://purl.org/dc/elements/1.1/" xmlns:rdf="http://www.w3.org/1999/02/22-rdf-syntax-ns#">
 <defs id="defs815">
  <style id="style819">.cls-1{fill:none;stroke:#fff;stroke-linecap:round;stroke-linejoin:round;}</style>
 </defs>
 <metadata id="metadata818">
  <rdf:RDF>
   <cc:Work rdf:about="">
    <dc:format>image/svg+xml</dc:format>
    <dc:type rdf:resource="http://purl.org/dc/dcmitype/StillImage"/>
    <dc:title/>
   </cc:Work>
  </rdf:RDF>
 </metadata>
 <g id="layer1">
  <rect id="rect1373-5" x="4" y="4" width="40" height="40" ry="8" fill="#59ca84" fill-rule="evenodd" style="paint-order:stroke fill markers"/>
  <path id="rect817" d="m12 4c-4.432 0-8 3.568-8 8v24c0 4.432 3.568 8 8 8h24c4.432 0 8-3.568 8-8v-24c0-4.432-3.568-8-8-8h-24zm0 1h24c3.878 0 7 3.122 7 7v24c0 3.878-3.122 7-7 7h-24c-3.878 0-7-3.122-7-7v-24c0-3.878 3.122-7 7-7z" fill-rule="evenodd" opacity=".3" style="paint-order:stroke fill markers"/>
  <path id="rect828-6" d="m30 14v4h-2v4h2v6s0 6 5 6c2 0 3-1 3-1v-3h-3c-1 0-1-2-1-2v-6h4v-4h-4v-4z" fill="#fff" fill-rule="evenodd" style="paint-order:normal"/>
  <path id="path834-5" d="m18 12c-4.5338 0-8 2.0882-8 11.488 0 9.4001 3.7313 10.445 8 10.445 0.7548 0 1.4918-0.03685 2.1953-0.14258l2.8047 4.209 3-2-2.4688-3.7031c1.5057-1.4217 2.4688-4.036 2.4688-8.8086 0-9.4001-3.4662-11.488-8-11.488zm0 4.0371c2.2669 0 4 1.3345 4 7.332 0 5.9975-1.8656 6.6621-4 6.6621s-4-0.66462-4-6.6621c0-5.9975 1.7331-7.332 4-7.332z" fill="#fff"/>
  <path id="path828" d="m27 46s-1.8496-5.4825-0.613-9.0878c1.0753-3.1352 4.2843-5.3289 7.3523-6.5834 7.5539-3.0887 12.261-8.3288 12.261-8.3288s-1.782 10.959-4.5802 15.872c-5.2263 9.1765-14.42 8.1278-14.42 8.1278z" fill="#efefef"/>
  <path id="path830" d="m28.345 44.227s4.028-5.8734 6.2633-8.6407c2.5225-3.1228 8.0463-8.9607 8.0463-8.9607s-4.4057 5.8804-6.7205 8.7321c-2.4523 3.021-7.5891 8.8692-7.5891 8.8692z" opacity=".25"/>
  <path id="path828-4" d="m46 22s-4.7058 5.2394-12.26 8.3281c-3.0679 1.2544-6.2782 3.4488-7.3535 6.584-1.2366 3.6053 0.61328 9.0879 0.61328 9.0879s9.1936 1.0495 14.42-8.127c2.7981-4.913 4.5801-15.873 4.5801-15.873zm-1.5879 2.7988c-0.20853 1.0956-0.22488 1.377-0.625 3.0645-0.78641 3.3166-1.9503 7.2557-3.2363 9.5137-4.3629 7.6605-11.118 7.7348-12.762 7.6445-0.12713-0.40915-0.34378-1.0174-0.57422-2.3809-0.29414-1.7403-0.401-3.8935 0.11719-5.4043 0.92371-2.6931 3.8691-4.7901 6.7852-5.9824 5.1107-2.0897 8.2584-4.6087 10.295-6.4551z" color="#000000" color-rendering="auto" dominant-baseline="auto" image-rendering="auto" opacity=".25" shape-rendering="auto" solid-color="#000000" style="font-feature-settings:normal;font-variant-alternates:normal;font-variant-caps:normal;font-variant-ligatures:normal;font-variant-numeric:normal;font-variant-position:normal;isolation:auto;mix-blend-mode:normal;shape-padding:0;text-decoration-color:#000000;text-decoration-line:none;text-decoration-style:solid;text-indent:0;text-orientation:mixed;text-transform:none;white-space:normal"/>
 </g>
</svg>
