<?xml version="1.0" encoding="UTF-8"?>
<!-- Created with Inkscape (http://www.inkscape.org/) -->
<svg id="SVGRoot" width="48px" height="48px" version="1.1" viewBox="0 0 48 48" xmlns="http://www.w3.org/2000/svg" xmlns:cc="http://creativecommons.org/ns#" xmlns:dc="http://purl.org/dc/elements/1.1/" xmlns:rdf="http://www.w3.org/1999/02/22-rdf-syntax-ns#">
 <defs id="defs815">
  <style id="style819">.cls-1{fill:none;stroke:#fff;stroke-linecap:round;stroke-linejoin:round;}</style>
 </defs>
 <metadata id="metadata818">
  <rdf:RDF>
   <cc:Work rdf:about="">
    <dc:format>image/svg+xml</dc:format>
    <dc:type rdf:resource="http://purl.org/dc/dcmitype/StillImage"/>
    <dc:title/>
   </cc:Work>
  </rdf:RDF>
 </metadata>
 <g id="layer1">
  <rect id="rect1373-5" x="4" y="4" width="40" height="40" ry="8" fill="#59ca84" fill-rule="evenodd" style="paint-order:stroke fill markers"/>
  <path id="rect817" d="m12 4c-4.432 0-8 3.568-8 8v24c0 4.432 3.568 8 8 8h24c4.432 0 8-3.568 8-8v-24c0-4.432-3.568-8-8-8h-24zm0 1h24c3.878 0 7 3.122 7 7v24c0 3.878-3.122 7-7 7h-24c-3.878 0-7-3.122-7-7v-24c0-3.878 3.122-7 7-7z" fill-rule="evenodd" opacity=".3" style="paint-order:stroke fill markers"/>
  <path id="rect828" d="m30 14v4h-2v4h2v6s0 6 5 6c2 0 3-1 3-1v-3h-3c-1 0-1-2-1-2v-6h4v-4h-4v-4z" fill="#fff" fill-rule="evenodd" style="paint-order:normal"/>
  <path id="path834" d="m18 12c-4.5338 0-8 2.0882-8 11.488 0 9.4001 3.7313 10.445 8 10.445 0.7548 0 1.4918-0.03685 2.1953-0.14258l2.8047 4.209 3-2-2.4688-3.7031c1.5057-1.4217 2.4688-4.036 2.4688-8.8086 0-9.4001-3.4662-11.488-8-11.488zm0 4.0371c2.2669 0 4 1.3345 4 7.332 0 5.9975-1.8656 6.6621-4 6.6621s-4-0.66462-4-6.6621c0-5.9975 1.7331-7.332 4-7.332z" fill="#fff"/>
  <path id="rect818" d="m33.835 28.977c-4.3488 0-7.8497 3.4862-7.8497 7.8166 0 3.0079 1.6908 5.6052 4.1799 6.9131l-1.0165 1.1117c-0.48036 0.4787-0.08056 1.2918 0.59375 1.2075 2.9089-0.36208 4.488-0.50664 5.4821-1.0016 0.0095-0.0047 0.01435-0.0092 0.02369-0.01388h2.8684c4.3488 0 7.8497-3.8864 7.8497-8.2168 0-4.3304-3.501-7.8166-7.8497-7.8166z" fill="#bfea83" fill-rule="evenodd" style="paint-order:normal"/>
  <path id="rect818-1" d="m33.836 28.977c-4.3488 0-7.8496 3.486-7.8496 7.8164 0 3.0079 1.6906 5.6062 4.1797 6.9141l-1.0176 1.1113c-0.48036 0.4787-0.08056 1.2913 0.59375 1.207 2.9089-0.36208 4.4883-0.50698 5.4824-1.002 0.0095-0.0047 0.0141-9e-3 0.02344-0.01367h2.8691c4.3488 0 7.8496-3.8864 7.8496-8.2168 0-4.3304-3.5009-7.8164-7.8496-7.8164zm0 1h4.2812c3.8143 0 6.8496 3.025 6.8496 6.8164s-3.0966 7.2168-6.8496 7.2168h-2.8691a1.0001 1.0001 0 0 0-0.44727 0.10547c-0.11492 0.05758-0.11617 0.05953-0.01953 0.01172a1.0001 1.0001 0 0 0-2e-3 2e-3c-0.57674 0.28715-2.2388 0.49118-4.3418 0.75977l0.4668-0.50781a1.0001 1.0001 0 0 0-0.27344-1.5605c-2.1716-1.1411-3.6445-3.3942-3.6445-6.0273 0-3.7914 3.0353-6.8164 6.8496-6.8164z" color="#000000" color-rendering="auto" dominant-baseline="auto" fill-rule="evenodd" image-rendering="auto" opacity=".25" shape-rendering="auto" solid-color="#000000" style="font-feature-settings:normal;font-variant-alternates:normal;font-variant-caps:normal;font-variant-ligatures:normal;font-variant-numeric:normal;font-variant-position:normal;isolation:auto;mix-blend-mode:normal;paint-order:normal;shape-padding:0;text-decoration-color:#000000;text-decoration-line:none;text-decoration-style:solid;text-indent:0;text-orientation:mixed;text-transform:none;white-space:normal"/>
 </g>
</svg>
