<?xml version="1.0" encoding="UTF-8"?>
<!-- Created with Inkscape (http://www.inkscape.org/) -->
<svg id="SVGRoot" width="48px" height="48px" version="1.1" viewBox="0 0 48 48" xmlns="http://www.w3.org/2000/svg" xmlns:cc="http://creativecommons.org/ns#" xmlns:dc="http://purl.org/dc/elements/1.1/" xmlns:rdf="http://www.w3.org/1999/02/22-rdf-syntax-ns#">
 <defs id="defs815">
  <style id="style819">.cls-1{fill:none;stroke:#fff;stroke-linecap:round;stroke-linejoin:round;}</style>
 </defs>
 <metadata id="metadata818">
  <rdf:RDF>
   <cc:Work rdf:about="">
    <dc:format>image/svg+xml</dc:format>
    <dc:type rdf:resource="http://purl.org/dc/dcmitype/StillImage"/>
    <dc:title/>
   </cc:Work>
  </rdf:RDF>
 </metadata>
 <g id="layer1">
  <path id="path959" d="m14 34 10-10 10 10z" fill="#f68d59"/>
  <path id="path961" d="m24 24 10-10 10 10-10 10z" fill="#efefef"/>
  <path id="path923" d="m41.662 6.3379-7.6621 7.6621 10 10v-12c0-2.216-0.89189-4.2161-2.3379-5.6621z" fill="#96d56b"/>
  <path id="path925" d="m44 24-20 20h12c4.432 0 8-3.568 8-8v-12z" fill="#59ca84"/>
  <path id="path927" d="m14 34-7.6621 7.6621c1.446 1.446 3.4461 2.3379 5.6621 2.3379h12l10-10h-20z" fill="#ffdd75"/>
  <path id="path890" d="m6.3379 6.3379c-1.446 1.446-2.3379 3.4461-2.3379 5.6621v24c0 2.216 0.89189 4.2161 2.3379 5.6621l17.662-17.662-17.662-17.662z" fill="#7276ec"/>
  <path id="path890-0" d="m12 4c-2.216 0-4.2161 0.89189-5.6621 2.3379l17.662 17.662 17.662-17.662c-1.446-1.446-3.4461-2.3379-5.6621-2.3379h-24z" fill="#f97263"/>
  <path id="path817" d="m7.0957 5.6816c-0.52885 0.41049-1.0036 0.88521-1.4141 1.4141l16.904 16.904-16.904 16.904c0.41049 0.52885 0.88521 1.0036 1.4141 1.4141l7.3184-7.3184h17.172l-9 9h2.8281l9.1504-9.1504a1.0001 1.0001 0 0 0 0.28906-0.28906l9.1465-9.1465v-2.8281l-8.5859-8.5859 6.9043-6.9043c-0.41048-0.52885-0.88521-1.0036-1.4141-1.4141l-7.5 7.5a1.0001 1.0001 0 0 0-0.2207 0.2207l-9.1836 9.1836-16.904-16.904zm26.904 9.7324 8.5859 8.5859-8.5859 8.5859-8.5859-8.5859 8.5859-8.5859zm-10 10 7.5859 7.5859h-15.172l7.5859-7.5859z" color="#000000" color-rendering="auto" dominant-baseline="auto" fill="#4e4e4e" image-rendering="auto" shape-rendering="auto" solid-color="#000000" style="font-feature-settings:normal;font-variant-alternates:normal;font-variant-caps:normal;font-variant-ligatures:normal;font-variant-numeric:normal;font-variant-position:normal;isolation:auto;mix-blend-mode:normal;shape-padding:0;text-decoration-color:#000000;text-decoration-line:none;text-decoration-style:solid;text-indent:0;text-orientation:mixed;text-transform:none;white-space:normal"/>
  <path id="rect817" d="m12 4c-4.432 0-8 3.568-8 8v24c0 4.432 3.568 8 8 8h24c4.432 0 8-3.568 8-8v-24c0-4.432-3.568-8-8-8h-24zm0 1h24c3.878 0 7 3.122 7 7v24c0 3.878-3.122 7-7 7h-24c-3.878 0-7-3.122-7-7v-24c0-3.878 3.122-7 7-7z" fill-rule="evenodd" opacity=".3" style="paint-order:stroke fill markers"/>
 </g>
</svg>
