<?xml version="1.0" encoding="UTF-8"?>
<!-- Created with Inkscape (http://www.inkscape.org/) -->
<svg id="SVGRoot" width="48px" height="48px" version="1.1" viewBox="0 0 48 48" xmlns="http://www.w3.org/2000/svg" xmlns:cc="http://creativecommons.org/ns#" xmlns:dc="http://purl.org/dc/elements/1.1/" xmlns:rdf="http://www.w3.org/1999/02/22-rdf-syntax-ns#">
 <defs id="defs815">
  <style id="style819">.cls-1{fill:none;stroke:#fff;stroke-linecap:round;stroke-linejoin:round;}</style>
 </defs>
 <metadata id="metadata818">
  <rdf:RDF>
   <cc:Work rdf:about="">
    <dc:format>image/svg+xml</dc:format>
    <dc:type rdf:resource="http://purl.org/dc/dcmitype/StillImage"/>
    <dc:title/>
   </cc:Work>
  </rdf:RDF>
 </metadata>
 <g id="layer1">
  <rect id="rect1373-5" x="4" y="4" width="40" height="40" ry="8" fill="#efefef" fill-rule="evenodd" style="paint-order:stroke fill markers"/>
  <path id="path864" d="m12.455 8c-2.4681 0-4.4551 1.987-4.4551 4.4551v20.545l4-2.625v-16.375c0-1.108 0.892-2 2-2h20c1.108 0 2 0.892 2 2v0.625l3.957-2.5977c-0.21698-2.2628-2.0906-4.0273-4.4121-4.0273z" fill="#729dec" fill-rule="evenodd" style="paint-order:stroke fill markers"/>
  <path id="rect853" d="m40 15-4 2.625v16.375c0 1.108-0.892 2-2 2h-20c-1.108 0-2-0.892-2-2v-0.625l-3.957 2.5977c0.21698 2.2628 2.0906 4.0273 4.4121 4.0273h23.09c2.4681 0 4.4551-1.987 4.4551-4.4551z" fill="#64b770" fill-rule="evenodd" style="paint-order:stroke fill markers"/>
  <path id="path861" d="m16 14v4l5 3-5 3v4l11-7z" fill="#64b770"/>
  <path id="path861-7" d="m32 20v4l-5 3 5 3v4l-11-7z" fill="#729dec"/>
  <path id="rect817" d="m12 4c-4.432 0-8 3.568-8 8v24c0 4.432 3.568 8 8 8h24c4.432 0 8-3.568 8-8v-24c0-4.432-3.568-8-8-8h-24zm0 1h24c3.878 0 7 3.122 7 7v24c0 3.878-3.122 7-7 7h-24c-3.878 0-7-3.122-7-7v-24c0-3.878 3.122-7 7-7z" fill-rule="evenodd" opacity=".3" style="paint-order:stroke fill markers"/>
 </g>
</svg>
