<?xml version="1.0" encoding="UTF-8"?>
<!-- Created with Inkscape (http://www.inkscape.org/) -->
<svg id="SVGRoot" width="48px" height="48px" version="1.1" viewBox="0 0 48 48" xml:space="preserve" xmlns="http://www.w3.org/2000/svg" xmlns:cc="http://creativecommons.org/ns#" xmlns:dc="http://purl.org/dc/elements/1.1/" xmlns:rdf="http://www.w3.org/1999/02/22-rdf-syntax-ns#" xmlns:xlink="http://www.w3.org/1999/xlink"><defs><style>.cls-1{fill:none;stroke:#fff;stroke-linecap:round;stroke-linejoin:round;}</style><style>.cls-1{fill:none;stroke:#fff;stroke-linecap:round;stroke-linejoin:round;}</style><style>.cls-1{fill:none;stroke:#fff;stroke-linecap:round;stroke-linejoin:round;}</style><style>.cls-1{fill:none;stroke:#fff;stroke-linecap:round;stroke-linejoin:round;}</style><style>.cls-1{fill:none;stroke:#fff;stroke-linecap:round;stroke-linejoin:round;}</style><style>.cls-1{fill:none;stroke:#fff;stroke-linecap:round;stroke-linejoin:round;}</style><style>.cls-1{fill:none;stroke:#fff;stroke-linecap:round;stroke-linejoin:round;}</style><style>.cls-1{fill:none;stroke:#fff;stroke-linecap:round;stroke-linejoin:round;}</style><style>.a{fill:none;stroke:#b1b5bd;stroke-linecap:round;stroke-linejoin:round;isolation:isolate;opacity:0.63;}</style><style>.cls-1{fill:none;stroke:#fff;stroke-linecap:round;stroke-linejoin:round;}</style><style>.cls-1{fill:none;stroke:#fff;stroke-linecap:round;stroke-linejoin:round;}</style><style>.cls-1{fill:none;stroke:#fff;stroke-linecap:round;stroke-linejoin:round;}</style><style>.cls-1{fill:none;stroke:#fff;stroke-linecap:round;stroke-linejoin:round;}</style><style>.a{fill:none;stroke:#b1b5bd;stroke-linecap:round;stroke-linejoin:round;isolation:isolate;opacity:0.63;}</style><style>.cls-1{fill:none;stroke:#fff;stroke-linecap:round;stroke-linejoin:round;}</style><style>.cls-1{fill:none;stroke:#fff;stroke-linecap:round;stroke-linejoin:round;}</style><style>.cls-1{fill:none;stroke:#fff;stroke-linecap:round;stroke-linejoin:round;}</style><style>.cls-1{fill:none;stroke:#fff;stroke-linecap:round;stroke-linejoin:round;}</style><style>.a{fill:none;stroke:#b1b5bd;stroke-linecap:round;stroke-linejoin:round;isolation:isolate;opacity:0.63;}</style><linearGradient id="linearGradient13" x1="8" x2="24" y1="24" y2="24" gradientUnits="userSpaceOnUse"><stop stop-color="#c98af6" offset="0"/><stop stop-color="#7baaff" offset="1"/></linearGradient></defs><metadata><rdf:RDF><cc:Work rdf:about=""><dc:format>image/svg+xml</dc:format><dc:type rdf:resource="http://purl.org/dc/dcmitype/StillImage"/></cc:Work></rdf:RDF></metadata><rect x="4" y="4" width="40" height="40" ry="8" fill="#4e4e4e" fill-rule="evenodd" style="paint-order:stroke fill markers"/><path d="m12 4c-4.432 0-8 3.568-8 8v24c0 4.432 3.568 8 8 8h24c4.432 0 8-3.568 8-8v-24c0-4.432-3.568-8-8-8zm0 1h24c3.878 0 7 3.122 7 7v24c0 3.878-3.122 7-7 7h-24c-3.878 0-7-3.122-7-7v-24c0-3.878 3.122-7 7-7z" fill-rule="evenodd" opacity=".4" style="paint-order:stroke fill markers"/><path d="m12 8v4h23c0.554 0 1 0.446 1 1v22c0 0.554-0.446 1-1 1h-23v4h24c2.216 0 4-1.784 4-4v-24c0-2.216-1.784-4-4-4h-24z" fill="#fff" stroke-linecap="round" stroke-width="6"/><path d="m15 16c-0.554 0-1 0.446-1 1v1.3398c-0.20177 0.070877-0.39872 0.15106-0.58984 0.24219l-0.94531-0.94531c-0.39174-0.39174-1.0223-0.39174-1.4141 0l-1.4141 1.4141c-0.39174 0.39174-0.39174 1.0223 0 1.4141l0.94531 0.94531c-0.091124 0.19112-0.17131 0.38808-0.24219 0.58984h-1.3398c-0.554 0-1 0.446-1 1v2c0 0.554 0.446 1 1 1h1.3398c0.070877 0.20177 0.15106 0.39872 0.24219 0.58984l-0.94531 0.94531c-0.39174 0.39174-0.39174 1.0223 0 1.4141l1.4141 1.4141c0.39174 0.39174 1.0223 0.39174 1.4141 0l0.94531-0.94531c0.19112 0.091124 0.38808 0.17131 0.58984 0.24219v1.3398c0 0.554 0.446 1 1 1h2c0.554 0 1-0.446 1-1v-1.3398c0.20177-0.070877 0.39872-0.15106 0.58984-0.24219l0.94531 0.94531c0.39174 0.39174 1.0223 0.39174 1.4141 0l1.4141-1.4141c0.39174-0.39174 0.39174-1.0223 0-1.4141l-0.94531-0.94531c0.091124-0.19112 0.17131-0.38808 0.24219-0.58984h1.3398c0.554 0 1-0.446 1-1v-2c0-0.554-0.446-1-1-1h-1.3398c-0.070877-0.20177-0.15106-0.39872-0.24219-0.58984l0.94531-0.94531c0.39174-0.39174 0.39174-1.0223 0-1.4141l-1.4141-1.4141c-0.39174-0.39174-1.0223-0.39174-1.4141 0l-0.94531 0.94531c-0.19112-0.091124-0.38808-0.17131-0.58984-0.24219v-1.3398c0-0.554-0.446-1-1-1h-2zm1 5c1.662 0 3 1.338 3 3s-1.338 3-3 3-3-1.338-3-3 1.338-3 3-3z" fill="url(#linearGradient13)" stroke-linecap="round" stroke-width="6"/></svg>
