<?xml version="1.0" encoding="UTF-8"?>
<!-- Created with Inkscape (http://www.inkscape.org/) -->
<svg id="SVGRoot" width="48px" height="48px" version="1.1" viewBox="0 0 48 48" xml:space="preserve" xmlns="http://www.w3.org/2000/svg" xmlns:cc="http://creativecommons.org/ns#" xmlns:dc="http://purl.org/dc/elements/1.1/" xmlns:rdf="http://www.w3.org/1999/02/22-rdf-syntax-ns#"><defs><style>.cls-1{fill:none;stroke:#fff;stroke-linecap:round;stroke-linejoin:round;}</style><style>.cls-1{fill:none;stroke:#fff;stroke-linecap:round;stroke-linejoin:round;}</style></defs><metadata><rdf:RDF><cc:Work rdf:about=""><dc:format>image/svg+xml</dc:format><dc:type rdf:resource="http://purl.org/dc/dcmitype/StillImage"/></cc:Work></rdf:RDF></metadata><rect x="4" y="4" width="40" height="40" ry="8" fill="#4fa1d4" fill-rule="evenodd" style="paint-order:stroke fill markers"/><path d="m24 12a1.0001 1.0001 0 0 0-0.85352 0.47852l-11 18a1.0001 1.0001 0 0 0 0.05274 1.1211s0.91221 1.1881 2.8047 2.2695c1.8925 1.0814 4.8294 2.1309 8.9961 2.1309s7.1036-1.0494 8.9961-2.1309c1.8925-1.0814 2.8047-2.2695 2.8047-2.2695a1.0001 1.0001 0 0 0 0.05273-1.1211l-11-18a1.0001 1.0001 0 0 0-0.85351-0.47852z" fill="#fff" stop-color="#000000" stroke-linecap="round" stroke-linejoin="round"/><path d="m24 12 3.9434 23.656c2.1579-0.39682 3.8248-1.0854 5.0527-1.7871 1.8925-1.0814 2.8047-2.2695 2.8047-2.2695a1.0001 1.0001 0 0 0 0.052735-1.1211l-11-18a1.0001 1.0001 0 0 0-0.85352-0.47852z" fill="#3fa0da" opacity=".3" stop-color="#000000" stroke-linecap="round" stroke-linejoin="round"/><path d="m12 4c-4.432 0-8 3.568-8 8v24c0 4.432 3.568 8 8 8h24c4.432 0 8-3.568 8-8v-24c0-4.432-3.568-8-8-8zm0 1h24c3.878 0 7 3.122 7 7v24c0 3.878-3.122 7-7 7h-24c-3.878 0-7-3.122-7-7v-24c0-3.878 3.122-7 7-7z" fill-rule="evenodd" opacity=".3" style="paint-order:stroke fill markers"/></svg>
