<?xml version="1.0" encoding="UTF-8"?>
<!-- Created with Inkscape (http://www.inkscape.org/) -->
<svg id="SVGRoot" width="48px" height="48px" version="1.1" viewBox="0 0 48 48" xml:space="preserve" xmlns="http://www.w3.org/2000/svg" xmlns:cc="http://creativecommons.org/ns#" xmlns:dc="http://purl.org/dc/elements/1.1/" xmlns:rdf="http://www.w3.org/1999/02/22-rdf-syntax-ns#"><defs><style>.cls-1{fill:none;stroke:#fff;stroke-linecap:round;stroke-linejoin:round;}</style><style>.cls-1{fill:none;stroke:#fff;stroke-linecap:round;stroke-linejoin:round;}</style><style>.cls-1{fill:none;stroke:#fff;stroke-linecap:round;stroke-linejoin:round;}</style><style>.cls-1{fill:none;stroke:#fff;stroke-linecap:round;stroke-linejoin:round;}</style></defs><metadata><rdf:RDF><cc:Work rdf:about=""><dc:format>image/svg+xml</dc:format><dc:type rdf:resource="http://purl.org/dc/dcmitype/StillImage"/></cc:Work></rdf:RDF></metadata><rect x="4" y="4" width="40" height="40" ry="8" fill="#d35244" fill-rule="evenodd" style="paint-order:stroke fill markers"/><path d="m12 4c-4.432 0-8 3.568-8 8v24c0 4.432 3.568 8 8 8h24c4.432 0 8-3.568 8-8v-24c0-4.432-3.568-8-8-8zm0 1h24c3.878 0 7 3.122 7 7v24c0 3.878-3.122 7-7 7h-24c-3.878 0-7-3.122-7-7v-24c0-3.878 3.122-7 7-7z" fill-rule="evenodd" opacity=".3" style="paint-order:stroke fill markers"/><g fill="#fff" stroke-linecap="round" stroke-linejoin="round"><g stroke-width="2"><path d="m12 29s0.45006 4 2 6c0.45657 0.58915 1 1 1 1h-1s-2 0-2-2z" style="paint-order:stroke fill markers"/><path d="m24 12c-5 0-12 2-12 13 0 2.4267 1 6 3 9 1.2403 1.8605 2 2 2 2h14s0.75965-0.13948 2-2c2-3 3-6.5733 3-9 0-11-7-13-12-13zm-3 6h6s3 0 3 3v6c0 3-3 3-3 3h-6s-3 0-3-3v-6c0-3 3-3 3-3z" style="paint-order:stroke fill markers"/><path d="m36 29s-0.45006 4-2 6c-0.45657 0.58915-1 1-1 1h1s2 0 2-2z" style="paint-order:stroke fill markers"/></g><path d="m21.447 20.105a1.0001 1.0001 0 0 0-1.4473 0.89453v6a1.0001 1.0001 0 0 0 1.4473 0.89453l6-3a1.0001 1.0001 0 0 0 0-1.7891zm0.55273 2.5117 2.7637 1.3828-2.7637 1.3828z" stop-color="#000000" style="paint-order:stroke fill markers"/><path d="m21 21v6l6-3z" stop-color="#000000" style="paint-order:stroke fill markers"/></g></svg>
