<?xml version="1.0" encoding="UTF-8"?>
<!-- Created with Inkscape (http://www.inkscape.org/) -->
<svg id="SVGRoot" width="48px" height="48px" version="1.1" viewBox="0 0 48 48" xmlns="http://www.w3.org/2000/svg" xmlns:cc="http://creativecommons.org/ns#" xmlns:dc="http://purl.org/dc/elements/1.1/" xmlns:rdf="http://www.w3.org/1999/02/22-rdf-syntax-ns#" xmlns:xlink="http://www.w3.org/1999/xlink">
 <defs id="defs815">
  <style id="style819">.cls-1{fill:none;stroke:#fff;stroke-linecap:round;stroke-linejoin:round;}</style>
  <style id="style819-36">.cls-1{fill:none;stroke:#fff;stroke-linecap:round;stroke-linejoin:round;}</style>
  <style id="style819-3">.cls-1{fill:none;stroke:#fff;stroke-linecap:round;stroke-linejoin:round;}</style>
  <style id="style819-16">.cls-1{fill:none;stroke:#fff;stroke-linecap:round;stroke-linejoin:round;}</style>
  <style id="style819-3-41">.cls-1{fill:none;stroke:#fff;stroke-linecap:round;stroke-linejoin:round;}</style>
  <style id="style819-1">.cls-1{fill:none;stroke:#fff;stroke-linecap:round;stroke-linejoin:round;}</style>
  <style id="style2">.a{fill:none;stroke:#b1b5bd;stroke-linecap:round;stroke-linejoin:round;isolation:isolate;opacity:0.63;}</style>
  <style id="style819-12">.cls-1{fill:none;stroke:#fff;stroke-linecap:round;stroke-linejoin:round;}</style>
  <style id="style819-0">.cls-1{fill:none;stroke:#fff;stroke-linecap:round;stroke-linejoin:round;}</style>
  <style id="style819-3-4">.cls-1{fill:none;stroke:#fff;stroke-linecap:round;stroke-linejoin:round;}</style>
  <style id="style819-1-7">.cls-1{fill:none;stroke:#fff;stroke-linecap:round;stroke-linejoin:round;}</style>
  <style id="style2-3">.a{fill:none;stroke:#b1b5bd;stroke-linecap:round;stroke-linejoin:round;isolation:isolate;opacity:0.63;}</style>
  <style id="style819-12-9">.cls-1{fill:none;stroke:#fff;stroke-linecap:round;stroke-linejoin:round;}</style>
  <style id="style819-09">.cls-1{fill:none;stroke:#fff;stroke-linecap:round;stroke-linejoin:round;}</style>
  <style id="style819-5">.cls-1{fill:none;stroke:#fff;stroke-linecap:round;stroke-linejoin:round;}</style>
 </defs>
 <metadata id="metadata818">
  <rdf:RDF>
   <cc:Work rdf:about="">
    <dc:format>image/svg+xml</dc:format>
    <dc:type rdf:resource="http://purl.org/dc/dcmitype/StillImage"/>
    <dc:title/>
   </cc:Work>
  </rdf:RDF>
 </metadata>
 <g id="layer1">
  <rect id="rect1373-5" x="4" y="4" width="40" height="40" ry="8" fill="#ffdd75" fill-rule="evenodd" style="paint-order:stroke fill markers"/>
  <path id="rect817" d="m12 4c-4.432 0-8 3.568-8 8v24c0 4.432 3.568 8 8 8h24c4.432 0 8-3.568 8-8v-24c0-4.432-3.568-8-8-8h-24zm0 1h24c3.878 0 7 3.122 7 7v24c0 3.878-3.122 7-7 7h-24c-3.878 0-7-3.122-7-7v-24c0-3.878 3.122-7 7-7z" fill-rule="evenodd" opacity=".3" style="paint-order:stroke fill markers"/>
  <rect id="rect828" x="8" y="8" width="2" height="10" fill="#4e4e4e" fill-rule="evenodd" style="paint-order:normal"/>
  <rect id="rect830" x="12" y="8" width="2" height="6" fill="#4e4e4e" fill-rule="evenodd" style="paint-order:normal"/>
  <rect id="rect830-2" x="16" y="8" width="2" height="6" fill="#4e4e4e" fill-rule="evenodd" style="paint-order:normal"/>
  <rect id="rect828-7" x="20" y="8" width="2" height="8" fill="#4e4e4e" fill-rule="evenodd" style="paint-order:normal"/>
  <rect id="rect830-29" x="24" y="8" width="2" height="6" fill="#4e4e4e" fill-rule="evenodd" style="paint-order:normal"/>
  <rect id="rect830-3-7" x="28" y="8" width="2" height="6" fill="#4e4e4e" fill-rule="evenodd" style="paint-order:normal"/>
  <rect id="rect882" x="32" y="8" width="2" height="10" fill="#4e4e4e" fill-rule="evenodd" style="paint-order:normal"/>
  <rect id="rect884" x="36" y="8" width="2" height="6" fill="#4e4e4e" fill-rule="evenodd" style="paint-order:normal"/>
  <path id="rect886" d="m40 8v6h2v-2c0-1.5421-0.574-3.1776-2-4z" fill="#4e4e4e" fill-rule="evenodd" style="paint-order:normal"/>
  <path id="path899" d="m11.23 23.975q0 2.082-0.65418 3.058-0.64899 0.97089-2.0197 0.97089-1.3914 0-2.0352-0.98646-0.6386-0.98646-0.6386-3.0321 0-2.0612 0.64899-3.0425 0.64899-0.98646 2.0248-0.98646 1.3914 0 2.03 1.002 0.6438 0.99685 0.6438 3.0165zm-1.3655 2.3571q0.18172-0.42054 0.24402-0.98646 0.06749-0.57111 0.06749-1.3707 0-0.78917-0.06749-1.3707-0.0623-0.58149-0.24921-0.98646-0.18172-0.39978-0.49842-0.60226-0.31151-0.20248-0.80475-0.20248-0.48804 0-0.80994 0.20248-0.31671 0.20248-0.50361 0.61264-0.17652 0.3842-0.24402 1.002-0.062303 0.61784-0.062303 1.3551 0 0.80994 0.057111 1.3551t0.24402 0.97608q0.17133 0.40497 0.48285 0.61784 0.31671 0.21287 0.8359 0.21287 0.48804 0 0.80994-0.20248 0.3219-0.20248 0.49842-0.61264z" fill="#4e4e4e"/>
  <path id="path901" d="m35.449 27.977h-4.3725v-0.82458h1.6817v-5.414h-1.6817v-0.73778q0.34177 0 0.73236-0.05425 0.39059-0.05967 0.59131-0.16817 0.24954-0.13562 0.39059-0.34177 0.14647-0.21157 0.16817-0.56419h0.84086v7.2802h1.6492z" fill="#4e4e4e"/>
 </g>
</svg>
