<?xml version="1.0" encoding="UTF-8"?>
<!-- Created with Inkscape (http://www.inkscape.org/) -->
<svg id="SVGRoot" width="48px" height="48px" version="1.1" viewBox="0 0 48 48" xmlns="http://www.w3.org/2000/svg" xmlns:cc="http://creativecommons.org/ns#" xmlns:dc="http://purl.org/dc/elements/1.1/" xmlns:rdf="http://www.w3.org/1999/02/22-rdf-syntax-ns#">
 <defs id="defs815">
  <style id="style819">.cls-1{fill:none;stroke:#fff;stroke-linecap:round;stroke-linejoin:round;}</style>
 </defs>
 <metadata id="metadata818">
  <rdf:RDF>
   <cc:Work rdf:about="">
    <dc:format>image/svg+xml</dc:format>
    <dc:type rdf:resource="http://purl.org/dc/dcmitype/StillImage"/>
    <dc:title/>
   </cc:Work>
  </rdf:RDF>
 </metadata>
 <g id="layer1">
  <rect id="rect1373-5" x="4" y="4" width="40" height="40" ry="8" fill="#488ec2" fill-rule="evenodd" style="paint-order:stroke fill markers"/>
  <path id="path830" d="m38.664 4.4609c-0.9303 1.2652-8.4392 11.533-10.664 16.539-4 9-6 19-6 19h1s7-10 16-13c0-7.0441 2.9054-12.467 4.9766-15.449-0.18191-3.297-2.335-6.0434-5.3125-7.0898z" fill="#ffdd75"/>
  <path id="path832" d="m12 6c-3.324 0-6 2.676-6 6v7.7656c0.52244 1.7912 1.1679 3.5702 2 5.2344 5 10 13 14 13 14s-2-5.9268-2-9c0-10 5-13.128 5-20 0-1.4484-0.46701-2.8892-0.94922-4h-11.051z" fill="#fff" opacity=".5"/>
  <path id="path834" d="m42.846 7.8633c-2.1815 3.5766-7.0396 11.808-10.738 20.012 0 0 2.1727-2.3243 4.5117-3.0605 0.40348-5.4639 4.6008-12.609 6.748-15.947-0.14809-0.34945-0.32729-0.68224-0.52148-1.0039z" fill="#b78217" opacity=".5"/>
  <path id="path836" d="m30.369 20.455c-0.34322 0.07654-0.9503 0.70736-1.2715 1.4297-0.404 0.90858-0.25976 1.1152-0.25976 1.1152s-4.495 10.783-6.4863 17h0.20117c4.1291-11.635 6.4668-16.793 6.4668-16.793s0.75376-0.10771 1.2715-1.1934c0.28989-0.60791 0.49471-1.4547 0.20703-1.5566-0.03668-0.013-0.07988-0.01289-0.12891-2e-3z" fill="#b78217"/>
  <path id="rect817" d="m12 4c-4.432 0-8 3.568-8 8v24c0 4.432 3.568 8 8 8h24c4.432 0 8-3.568 8-8v-24c0-4.432-3.568-8-8-8h-24zm0 1h24c3.878 0 7 3.122 7 7v24c0 3.878-3.122 7-7 7h-24c-3.878 0-7-3.122-7-7v-24c0-3.878 3.122-7 7-7z" fill-rule="evenodd" opacity=".3" style="paint-order:stroke fill markers"/>
 </g>
</svg>
