<?xml version="1.0" encoding="UTF-8"?>
<!-- Created with Inkscape (http://www.inkscape.org/) -->
<svg id="SVGRoot" width="48px" height="48px" version="1.1" viewBox="0 0 48 48" xml:space="preserve" xmlns="http://www.w3.org/2000/svg" xmlns:cc="http://creativecommons.org/ns#" xmlns:dc="http://purl.org/dc/elements/1.1/" xmlns:rdf="http://www.w3.org/1999/02/22-rdf-syntax-ns#"><defs><style>.cls-1{fill:none;stroke:#fff;stroke-linecap:round;stroke-linejoin:round;}</style><style>.cls-1{fill:none;stroke:#fff;stroke-linecap:round;stroke-linejoin:round;}</style><style>.cls-1{fill:none;stroke:#fff;stroke-linecap:round;stroke-linejoin:round;}</style><style>.cls-1{fill:none;stroke:#fff;stroke-linecap:round;stroke-linejoin:round;}</style><style>.cls-1{fill:none;stroke:#fff;stroke-linecap:round;stroke-linejoin:round;}</style><style>.a{fill:none;stroke:#b1b5bd;stroke-linecap:round;stroke-linejoin:round;isolation:isolate;opacity:0.63;}</style><style>.cls-1{fill:none;stroke:#fff;stroke-linecap:round;stroke-linejoin:round;}</style><style>.cls-1{fill:none;stroke:#fff;stroke-linecap:round;stroke-linejoin:round;}</style><style>.cls-1{fill:none;stroke:#fff;stroke-linecap:round;stroke-linejoin:round;}</style><style>.a{fill:none;stroke:#b1b5bd;stroke-linecap:round;stroke-linejoin:round;isolation:isolate;opacity:0.63;}</style></defs><metadata><rdf:RDF><cc:Work rdf:about=""><dc:format>image/svg+xml</dc:format><dc:type rdf:resource="http://purl.org/dc/dcmitype/StillImage"/></cc:Work></rdf:RDF></metadata><rect x="4" y="4" width="40" height="40" ry="8" fill="#4e4e4e" fill-rule="evenodd" style="paint-order:stroke fill markers"/><path d="m12 4c-4.432 0-8 3.568-8 8v24c0 4.432 3.568 8 8 8h24c4.432 0 8-3.568 8-8v-24c0-4.432-3.568-8-8-8zm0 1h24c3.878 0 7 3.122 7 7v24c0 3.878-3.122 7-7 7h-24c-3.878 0-7-3.122-7-7v-24c0-3.878 3.122-7 7-7z" fill-rule="evenodd" opacity=".4" style="paint-order:stroke fill markers"/><g stroke-linecap="round" stroke-linejoin="round" stroke-width="2"><path d="m19 22s0.49891 9 9 9c7 0 8-6 8-6s1.8673 2.9097-0.01642 6.4389c-2.2306 4.1791-6.4836 5.5611-8.9836 5.5611-2.994 0-8.8207-1.7702-10-7-1.0484-4.6492 2-8 2-8z" fill="#ffdd75"/><path d="m29 26s-0.49891-9-9-9c-7 0-8 6-8 6s-1.8673-2.9097 0.01642-6.4389c2.2306-4.1791 6.4836-5.5611 8.9836-5.5611 2.994 0 8.8207 1.7702 10 7 1.0484 4.6492-2 8-2 8z" fill="#729dec"/><path d="m26 19s-9 0.49891-9 9c0 7 6 8 6 8s-2.9097 1.8673-6.4389-0.01642c-4.1791-2.2306-5.5611-6.4836-5.5611-8.9836 0-2.994 1.7702-8.8207 7-10 4.6492-1.0484 8 2 8 2z" fill="#d35244"/><path d="m22 29s9-0.49891 9-9c0-7-6-8-6-8s2.9097-1.8673 6.4389 0.01642c4.1791 2.2306 5.5611 6.4836 5.5611 8.9836 0 2.994-1.7702 8.8207-7 10-4.6492 1.0484-8-2-8-2z" fill="#96d56b"/></g></svg>
