<?xml version="1.0" encoding="UTF-8"?>
<!-- Created with Inkscape (http://www.inkscape.org/) -->
<svg id="SVGRoot" width="48px" height="48px" version="1.1" viewBox="0 0 48 48" xml:space="preserve" xmlns="http://www.w3.org/2000/svg" xmlns:cc="http://creativecommons.org/ns#" xmlns:dc="http://purl.org/dc/elements/1.1/" xmlns:rdf="http://www.w3.org/1999/02/22-rdf-syntax-ns#"><defs><style>.cls-1{fill:none;stroke:#fff;stroke-linecap:round;stroke-linejoin:round;}</style><style>.cls-1{fill:none;stroke:#fff;stroke-linecap:round;stroke-linejoin:round;}</style><style>.a{fill:none;stroke:#b1b5bd;stroke-linecap:round;stroke-linejoin:round;isolation:isolate;opacity:0.63;}</style></defs><metadata><rdf:RDF><cc:Work rdf:about=""><dc:format>image/svg+xml</dc:format><dc:type rdf:resource="http://purl.org/dc/dcmitype/StillImage"/></cc:Work></rdf:RDF></metadata><rect x="4" y="4" width="40" height="40" ry="8" fill="#efefef" fill-rule="evenodd" style="paint-order:stroke fill markers"/><path d="m12 4c-4.432 0-8 3.568-8 8v24c0 4.432 3.568 8 8 8h24c4.432 0 8-3.568 8-8v-24c0-4.432-3.568-8-8-8zm0 1h24c3.878 0 7 3.122 7 7v24c0 3.878-3.122 7-7 7h-24c-3.878 0-7-3.122-7-7v-24c0-3.878 3.122-7 7-7z" fill-rule="evenodd" opacity=".3" style="paint-order:stroke fill markers"/><g stroke-linecap="round" stroke-linejoin="round" stroke-width="4"><path d="m12 12v16h-4v8h4 4v-24h-4zm20 0v24h4v-24h-4zm-8 4v4h-4v16h4 4v-20h-4z" fill="#96d56b"/><path d="m36 18v18h4v-18h-4zm-20 6v12h4v-12h-4zm12 0v12h4v-12h-4z" fill="#d35244"/><path d="m37 23-8 8-3-3-8 8-5-5-5 5c0 2.216 1.784 4 4 4h24c2.216 0 4-1.784 4-4v-10l-3-3z" fill="#ffdd75"/><path d="m12 8c-2.216 0-4 1.784-4 4v24c0 2.216 1.784 4 4 4h24c2.216 0 4-1.784 4-4v-24c0-2.216-1.784-4-4-4h-24zm0 1h24c1.662 0 3 1.338 3 3v24c0 1.662-1.338 3-3 3h-24c-1.662 0-3-1.338-3-3v-24c0-1.662 1.338-3 3-3z" fill="#363636" opacity=".3"/><path d="m15 9v6h-6v1h6v7h-6v1h6v7h-6v1h6v7h1v-7h7v7h1v-7h7v7h1v-7h7v-1h-7v-7h7v-1h-7v-7h7v-1h-7v-6h-1v6h-7v-6h-1v6h-7v-6zm1 7h7v7h-7zm8 0h7v7h-7zm-8 8h7v7h-7zm8 0h7v7h-7z" fill="#363636" opacity=".3"/></g></svg>
