<?xml version="1.0" encoding="UTF-8"?>
<!-- Created with Inkscape (http://www.inkscape.org/) -->
<svg id="SVGRoot" width="48px" height="48px" version="1.1" viewBox="0 0 48 48" xml:space="preserve" xmlns="http://www.w3.org/2000/svg" xmlns:cc="http://creativecommons.org/ns#" xmlns:dc="http://purl.org/dc/elements/1.1/" xmlns:rdf="http://www.w3.org/1999/02/22-rdf-syntax-ns#"><defs><style>.cls-1{fill:none;stroke:#fff;stroke-linecap:round;stroke-linejoin:round;}</style></defs><metadata><rdf:RDF><cc:Work rdf:about=""><dc:format>image/svg+xml</dc:format><dc:type rdf:resource="http://purl.org/dc/dcmitype/StillImage"/></cc:Work></rdf:RDF></metadata><g fill-rule="evenodd"><rect x="4" y="4" width="40" height="40" ry="8" fill="#cf953e" style="paint-order:stroke fill markers"/><path d="m12 4c-4.432 0-8 3.568-8 8v24c0 4.432 3.568 8 8 8h24c4.432 0 8-3.568 8-8v-24c0-4.432-3.568-8-8-8zm0 1h24c3.878 0 7 3.122 7 7v24c0 3.878-3.122 7-7 7h-24c-3.878 0-7-3.122-7-7v-24c0-3.878 3.122-7 7-7z" opacity=".3" style="paint-order:stroke fill markers"/><path d="m12 6c-3.324 0-6 2.676-6 6v12h36v-12c0-3.324-2.676-6-6-6z" fill="#e9bf73" style="paint-order:stroke fill markers"/></g><path d="m19 5v25.5l10-1.5v-24z" opacity=".25"/><g fill-rule="evenodd"><rect x="20" y="5" width="8" height="19" fill="#fae9ce" style="paint-order:normal"/><path d="m20 24h8v4l-8 1z" fill="#e9bf73" style="paint-order:normal"/><rect x="20" y="20" width="26" height="26" ry="13" fill="#9D92E4" style="paint-order:normal"/><path d="m33 20c-7.202 0-13 5.798-13 13s5.798 13 13 13 13-5.798 13-13-5.798-13-13-13zm0 1c6.648 0 12 5.352 12 12s-5.352 12-12 12-12-5.352-12-12 5.352-12 12-12z" opacity=".25" style="paint-order:normal"/></g><g fill="#fff" stroke-linecap="round" stroke-linejoin="round" stroke-width="2"><path d="m33 37s2-7 2-10c0-0.94281-1.0572-2-2-2s-2 1.0572-2 2c0 3 2 10 2 10z" style="paint-order:stroke fill markers"/><path d="m32 37s-1.1499-5.386-2-8c-0.3399-1.0452-1.2929-1.2357-2-1s-1.3956 0.87746-1 2c0.95309 2.7044 5 7 5 7z" style="paint-order:stroke fill markers"/><path d="m32.476 39-5.9664-6.4494c-0.2813-0.30407-0.82678-0.4145-1.1302-0.13478-0.36104 0.33283-0.68918 0.8634-0.37912 1.5842 1.1173 2.5975 7.4757 5 7.4757 5z" style="paint-order:stroke fill markers"/><path d="m32 40-3-2s-1 0-1 1 1 1 1 1z" style="paint-order:stroke fill markers"/><path d="m34 37s1.1499-5.386 2-8c0.3399-1.0452 1.2929-1.2357 2-1s1.3956 0.87746 1 2c-0.95309 2.7044-5 7-5 7z" style="paint-order:stroke fill markers"/><path transform="matrix(-1,0,0,1,66,0)" d="m32 39-5.5119-6.4305c-0.26958-0.31451-0.80556-0.4334-1.109-0.15367-0.36104 0.33283-0.68918 0.8634-0.37912 1.5842 1.1173 2.5975 7 5 7 5z" style="paint-order:stroke fill markers"/><path d="m34 40 3-2s1 0 1 1-1 1-1 1z" style="paint-order:stroke fill markers"/></g></svg>
