<?xml version="1.0" encoding="UTF-8"?>
<!-- Created with Inkscape (http://www.inkscape.org/) -->
<svg id="SVGRoot" width="48px" height="48px" version="1.1" viewBox="0 0 48 48" xmlns="http://www.w3.org/2000/svg" xmlns:cc="http://creativecommons.org/ns#" xmlns:dc="http://purl.org/dc/elements/1.1/" xmlns:rdf="http://www.w3.org/1999/02/22-rdf-syntax-ns#">
 <defs id="defs815">
  <style id="style819">.cls-1{fill:none;stroke:#fff;stroke-linecap:round;stroke-linejoin:round;}</style>
  <style id="style819-6">.cls-1{fill:none;stroke:#fff;stroke-linecap:round;stroke-linejoin:round;}</style>
 </defs>
 <metadata id="metadata818">
  <rdf:RDF>
   <cc:Work rdf:about="">
    <dc:format>image/svg+xml</dc:format>
    <dc:type rdf:resource="http://purl.org/dc/dcmitype/StillImage"/>
    <dc:title/>
   </cc:Work>
  </rdf:RDF>
 </metadata>
 <g id="layer1">
  <rect id="rect1373-5" x="4" y="4" width="40" height="40" ry="8" fill="#efefef" fill-rule="evenodd" style="paint-order:stroke fill markers"/>
  <path id="rect817" d="m12 4c-4.432 0-8 3.568-8 8v24c0 4.432 3.568 8 8 8h24c4.432 0 8-3.568 8-8v-24c0-4.432-3.568-8-8-8h-24zm0 1h24c3.878 0 7 3.122 7 7v24c0 3.878-3.122 7-7 7h-24c-3.878 0-7-3.122-7-7v-24c0-3.878 3.122-7 7-7z" fill-rule="evenodd" opacity=".3" style="paint-order:stroke fill markers"/>
  <rect id="rect818" x="8" y="8" width="32" height="32" ry="4" fill="#5e97df" fill-rule="evenodd" style="paint-order:stroke fill markers"/>
  <rect id="rect912" x="12" y="26" width="14" height="14" ry="7" fill="#fff" fill-rule="evenodd" style="paint-order:normal"/>
  <path id="rect908" d="m8 36c0 2.216 1.784 4 4 4h24c2.216 0 4-1.784 4-4z" fill="#4e4e4e" fill-rule="evenodd" style="paint-order:normal"/>
  <path id="path914" d="m24 37v-13l-7-5-2 2 1-3-2-2 3 1 4 3v-6l-3-3 4 2 1 3 3-3h2l-2 1-3 4v2l3 2 4-3v-2l-2-2 2 1v-5l2 6 2-1-2 4-4 3v14l-2 1z" fill="#4e4e4e"/>
 </g>
</svg>
