<?xml version="1.0" encoding="UTF-8"?>
<!-- Created with Inkscape (http://www.inkscape.org/) -->
<svg id="SVGRoot" width="48px" height="48px" version="1.1" viewBox="0 0 48 48" xmlns="http://www.w3.org/2000/svg" xmlns:cc="http://creativecommons.org/ns#" xmlns:dc="http://purl.org/dc/elements/1.1/" xmlns:rdf="http://www.w3.org/1999/02/22-rdf-syntax-ns#" xmlns:xlink="http://www.w3.org/1999/xlink">
 <defs id="defs815">
  <style id="style819">.cls-1{fill:none;stroke:#fff;stroke-linecap:round;stroke-linejoin:round;}</style>
  <style id="style819-6">.cls-1{fill:none;stroke:#fff;stroke-linecap:round;stroke-linejoin:round;}</style>
 </defs>
 <metadata id="metadata818">
  <rdf:RDF>
   <cc:Work rdf:about="">
    <dc:format>image/svg+xml</dc:format>
    <dc:type rdf:resource="http://purl.org/dc/dcmitype/StillImage"/>
    <dc:title/>
   </cc:Work>
  </rdf:RDF>
 </metadata>
 <g id="layer1">
  <rect id="rect1373" x="4" y="4" width="40" height="40" ry="8" fill="#90c7e0" fill-rule="evenodd" style="paint-order:stroke fill markers"/>
  <path id="rect817" d="m12 4c-4.432 0-8 3.568-8 8v24c0 4.432 3.568 8 8 8h24c4.432 0 8-3.568 8-8v-24c0-4.432-3.568-8-8-8h-24zm0 1h24c3.878 0 7 3.122 7 7v24c0 3.878-3.122 7-7 7h-24c-3.878 0-7-3.122-7-7v-24c0-3.878 3.122-7 7-7z" fill-rule="evenodd" opacity=".3" style="paint-order:stroke fill markers"/>
  <path id="path828-6" d="m20.209 22.803c-0.67081 0.02818-0.93811-1.0356-1.1003-1.6871-0.3434-1.3795-0.31342-4.0273 0.36677-5.4281 1.9177-3.9495 4.4786-5.3568 7.592-5.6482 2.2785-0.21327 5.9562 0.19684 9.2425 1.3937 0.26044 0.09485 0.59258 0.3496 0.55015 0.6235-0.05457 0.35223-0.56511 0.4929-0.91691 0.55015-2.9609 0.48177-7.1118 1.478-10.159 3.5209-1.9431 1.3025-3.0314 2.1489-4.6212 5.1347-0.25452 0.47798-0.41254 1.5177-0.95359 1.5404z" fill="#1585bc"/>
  <path id="path830-7" d="m23.216 19.722c-0.37946 0.40926-1.143 1.0215-0.80688 1.4671 0.26435 0.3504 0.88969-0.17197 1.5771-0.29341 1.2114-0.21402 3.3975-0.52024 5.2447-0.40344 3.853 0.24361 4.7369 0.96412 6.125 1.4671 0.28736 0.10412 0.72381 0.23691 0.91691 0 0.26813-0.32895-0.04387-0.87986-0.25674-1.247-1.2512-2.158-3.132-4.6783-5.6115-4.9513-2.7195-0.29946-5.7683 2.4292-7.1886 3.9611z" fill="#1585bc"/>
  <path id="path830-6" d="m27.838 21.171c-0.55704-0.03443-1.5145-0.2375-1.6463 0.3048-0.10372 0.4265 0.69658 0.57956 1.2259 1.0346 0.9329 0.80189 2.5545 2.2996 3.6341 3.8031 2.2519 3.1359 2.2542 4.2763 2.7441 5.669 0.10143 0.28832 0.27511 0.71017 0.58075 0.70955 0.42438-8.62e-4 0.65309-0.59123 0.80238-0.98849 0.8775-2.3351 1.6366-5.3868 0.27737-7.4785-1.4907-2.2941-5.5333-2.9252-7.6183-3.054z" fill="#1585bc"/>
  <path id="path830-1" d="m29.603 25.609c-0.31745-0.45903-0.74999-1.337-1.2577-1.1052-0.3993 0.18226-0.02459 0.90582-0.0548 1.6032-0.05318 1.229-0.22726 3.4296-0.74101 5.2078-1.0716 3.709-1.9663 4.4161-2.7577 5.6624-0.16383 0.25802-0.38792 0.6554-0.19841 0.89519 0.26314 0.33296 0.86851 0.14756 1.273 0.01917 2.3777-0.75461 5.2452-2.0454 6.0483-4.4072 0.88082-2.5902-1.1234-6.1572-2.3117-7.8754z" fill="#1585bc"/>
  <path id="path830-6-3" d="m27.189 29.808c0.15415-0.5364 0.55958-1.4272 0.05868-1.6733-0.39395-0.19355-0.71656 0.55467-1.2754 0.97303-0.98476 0.73727-2.7979 1.9963-4.4994 2.725-3.5489 1.5199-4.6627 1.2754-6.1285 1.4524-0.30343 0.03665-0.75288 0.11492-0.81841 0.41345-0.09099 0.41452 0.4359 0.76555 0.79145 0.99726 2.0899 1.362 4.905 2.7634 7.2413 1.8891 2.5623-0.95896 4.0532-4.7692 4.6302-6.777z" fill="#1585bc"/>
  <path id="path830-8" d="m22.202 30.602c0.52295-0.19495 1.4803-0.39853 1.3803-0.94762-0.07858-0.43184-0.87201-0.24642-1.5406-0.44701-1.1783-0.35351-3.2686-1.0629-4.8661-1.9978-3.332-1.95-3.7976-2.991-4.8113-4.0643-0.20986-0.2222-0.54-0.53705-0.81901-0.41226-0.3874 0.17327-0.35642 0.80564-0.33136 1.2293 0.14732 2.4902 0.69407 5.5869 2.7861 6.9457 2.2944 1.4902 6.2445 0.42373 8.202-0.30596z" fill="#e4f1f8"/>
  <path id="path830-6-1" d="m18.724 27.23c0.48208 0.28121 1.246 0.89307 1.6076 0.46798 0.28441-0.33432-0.36162-0.83088-0.62987-1.4753-0.47274-1.1357-1.2477-3.2026-1.5361-5.031-0.60144-3.8135-0.09076-4.8332 0.09778-6.2975 0.03903-0.30314 0.07357-0.75803-0.19971-0.8949-0.37946-0.19004-0.84918 0.23446-1.1611 0.52218-1.8337 1.6912-3.8838 4.0757-3.6102 6.5552 0.30004 2.7194 3.6272 5.1007 5.4317 6.1533z" fill="#e4f1f8"/>
 </g>
</svg>
