<?xml version="1.0" encoding="UTF-8"?>
<!-- Created with Inkscape (http://www.inkscape.org/) -->
<svg id="SVGRoot" width="48px" height="48px" version="1.1" viewBox="0 0 48 48" xml:space="preserve" xmlns="http://www.w3.org/2000/svg" xmlns:cc="http://creativecommons.org/ns#" xmlns:dc="http://purl.org/dc/elements/1.1/" xmlns:rdf="http://www.w3.org/1999/02/22-rdf-syntax-ns#"><defs><style>.cls-1{fill:none;stroke:#fff;stroke-linecap:round;stroke-linejoin:round;}</style><style>.cls-1{fill:none;stroke:#fff;stroke-linecap:round;stroke-linejoin:round;}</style><style>.cls-1{fill:none;stroke:#fff;stroke-linecap:round;stroke-linejoin:round;}</style><style>.cls-1{fill:none;stroke:#fff;stroke-linecap:round;stroke-linejoin:round;}</style><style>.cls-1{fill:none;stroke:#fff;stroke-linecap:round;stroke-linejoin:round;}</style><style>.a{fill:none;stroke:#b1b5bd;stroke-linecap:round;stroke-linejoin:round;isolation:isolate;opacity:0.63;}</style><style>.cls-1{fill:none;stroke:#fff;stroke-linecap:round;stroke-linejoin:round;}</style><style>.cls-1{fill:none;stroke:#fff;stroke-linecap:round;stroke-linejoin:round;}</style><style>.a{fill:none;stroke:#b1b5bd;stroke-linecap:round;stroke-linejoin:round;isolation:isolate;opacity:0.63;}</style><style>.cls-1{fill:none;stroke:#fff;stroke-linecap:round;stroke-linejoin:round;}</style></defs><metadata><rdf:RDF><cc:Work rdf:about=""><dc:format>image/svg+xml</dc:format><dc:type rdf:resource="http://purl.org/dc/dcmitype/StillImage"/></cc:Work></rdf:RDF></metadata><rect x="4" y="4" width="40" height="40" ry="8" fill="#4e4e4e" fill-rule="evenodd" style="paint-order:stroke fill markers"/><path d="m12 4c-4.432 0-8 3.568-8 8v24c0 4.432 3.568 8 8 8h24c4.432 0 8-3.568 8-8v-24c0-4.432-3.568-8-8-8zm0 1h24c3.878 0 7 3.122 7 7v24c0 3.878-3.122 7-7 7h-24c-3.878 0-7-3.122-7-7v-24c0-3.878 3.122-7 7-7z" fill-rule="evenodd" opacity=".4" style="paint-order:stroke fill markers"/><g fill="none" stroke="#d35244" stroke-linecap="round" stroke-linejoin="round" stroke-width="2"><path d="m20 11c-3 0-4 4-4 4s-2 0-3 2 1 4 1 4-3 0-3 3 3 3 3 3-2 2-1 4 3 2 3 2 1 4 4 4c2.9995 0 3.9997-2.9991 4-3 2.98e-4 8.95e-4 1.0004 3 4 3 3 0 4-4 4-4s2 0 3-2-1-4-1-4 3 0 3-3-3-3-3-3 2-2 1-4-3-2-3-2-1-4-4-4-4 3-4 3-1-3-4-3z"/><path d="m16 15s0 5 4 5c1 0 1-2 1-2"/><path d="m16 33s0-5 4-5c1 0 1 2 1 2"/><path d="m32 15s0 5-4 5c-1 0-1-2-1-2"/><path d="m32 33s0-5-4-5c-1 0-1 2-1 2"/></g><g fill="#fff"><path d="m23 18v2h-7v3h5c2 0 2 2 2 2v3s0 2-2 2h-7v-2h7v-3h-5c-2 0-2-2-2-2v-3c0-2 2-2 2-2z"/><rect x="25" y="18" width="10" height="2"/><rect x="29" y="18" width="2" height="12"/></g></svg>
