<?xml version="1.0" encoding="UTF-8"?>
<!-- Created with Inkscape (http://www.inkscape.org/) -->
<svg id="SVGRoot" width="48px" height="48px" version="1.1" viewBox="0 0 48 48" xml:space="preserve" xmlns="http://www.w3.org/2000/svg" xmlns:cc="http://creativecommons.org/ns#" xmlns:dc="http://purl.org/dc/elements/1.1/" xmlns:rdf="http://www.w3.org/1999/02/22-rdf-syntax-ns#"><defs><style>.cls-1{fill:none;stroke:#fff;stroke-linecap:round;stroke-linejoin:round;}</style><style>.cls-1{fill:none;stroke:#fff;stroke-linecap:round;stroke-linejoin:round;}</style><style>.cls-1{fill:none;stroke:#fff;stroke-linecap:round;stroke-linejoin:round;}</style><style>.cls-1{fill:none;stroke:#fff;stroke-linecap:round;stroke-linejoin:round;}</style><style>.cls-1{fill:none;stroke:#fff;stroke-linecap:round;stroke-linejoin:round;}</style><style>.a{fill:none;stroke:#b1b5bd;stroke-linecap:round;stroke-linejoin:round;isolation:isolate;opacity:0.63;}</style><style>.cls-1{fill:none;stroke:#fff;stroke-linecap:round;stroke-linejoin:round;}</style><style>.cls-1{fill:none;stroke:#fff;stroke-linecap:round;stroke-linejoin:round;}</style><style>.a{fill:none;stroke:#b1b5bd;stroke-linecap:round;stroke-linejoin:round;isolation:isolate;opacity:0.63;}</style><style>.cls-1{fill:none;stroke:#fff;stroke-linecap:round;stroke-linejoin:round;}</style><style>.cls-1{fill:none;stroke:#fff;stroke-linecap:round;stroke-linejoin:round;}</style><style>.a{fill:none;stroke:#b1b5bd;stroke-linecap:round;stroke-linejoin:round;isolation:isolate;opacity:0.63;}</style></defs><metadata><rdf:RDF><cc:Work rdf:about=""><dc:format>image/svg+xml</dc:format><dc:type rdf:resource="http://purl.org/dc/dcmitype/StillImage"/></cc:Work></rdf:RDF></metadata><g fill-rule="evenodd"><rect x="4" y="4" width="40" height="40" ry="8" fill="#4e4e4e" style="paint-order:stroke fill markers"/><path d="m22 10c-0.554 0-1 0.446-1 1v3.4551c-0.5665 0.17677-1.1112 0.40232-1.6289 0.67188h-0.001953l-2.4395-2.4414c-0.39174-0.39174-1.0243-0.39174-1.416 0l-2.8281 2.8281c-0.39174 0.39174-0.39174 1.0243 0 1.416l2.4414 2.4395v0.001953c-0.26955 0.51771-0.49511 1.0624-0.67188 1.6289h-3.4551c-0.554 0-1 0.446-1 1v4c0 0.554 0.446 1 1 1h3.4551c0.17676 0.56646 0.40235 1.1132 0.67188 1.6309l-2.4414 2.4395c-0.39174 0.39174-0.39174 1.0223 0 1.4141l2.8281 2.8301c0.39174 0.39174 1.0243 0.39174 1.416 0l2.4414-2.4414c0.51774 0.26958 1.0624 0.49509 1.6289 0.67188v3.4551c0 0.554 0.446 1 1 1h4c0.554 0 1-0.446 1-1v-3.4551c0.5665-0.17677 1.1112-0.40232 1.6289-0.67188h0.001953l2.4395 2.4414c0.39174 0.39174 1.0223 0.39174 1.4141 0l2.8301-2.8301c0.39174-0.39174 0.39174-1.0223 0-1.4141l-2.4414-2.4395v-0.001953c0.26955-0.51771 0.49511-1.0624 0.67188-1.6289h3.4551c0.554 0 1-0.446 1-1v-4c0-0.554-0.446-1-1-1h-3.4551c-0.17678-0.56654-0.4023-1.1131-0.67188-1.6309l2.4414-2.4395c0.39174-0.39174 0.39174-1.0243 0-1.416l-2.8301-2.8281c-0.39174-0.39174-1.0223-0.39174-1.4141 0l-2.4395 2.4414h-0.001953c-0.51767-0.26952-1.0624-0.49512-1.6289-0.67188v-3.4551c0-0.554-0.446-1-1-1h-4zm1 2h2v4.0605c1.4644 0.18106 2.8039 0.75665 3.9102 1.6152l2.8672-2.8691 1.416 1.416-2.8691 2.8672c0.85859 1.1062 1.4342 2.4457 1.6152 3.9102h4.0605v2h-4.0605c-0.18106 1.4644-0.75665 2.8039-1.6152 3.9102l2.8691 2.8672-1.416 1.416-2.8672-2.8691c-1.1062 0.85859-2.4457 1.4342-3.9102 1.6152v4.0605h-2v-4.0605c-1.4644-0.18106-2.8039-0.75665-3.9102-1.6152l-2.8672 2.8691-1.416-1.416 2.8691-2.8672c-0.85859-1.1062-1.4342-2.4457-1.6152-3.9102h-4.0605v-2h4.0605c0.18106-1.4644 0.75665-2.8039 1.6152-3.9102l-2.8691-2.8672 1.416-1.416 2.8672 2.8691c1.1062-0.85859 2.4457-1.4342 3.9102-1.6152v-4.0605z" fill="#d35244" style="paint-order:stroke fill markers"/><path d="m12 4c-4.432 0-8 3.568-8 8v24c0 4.432 3.568 8 8 8h24c4.432 0 8-3.568 8-8v-24c0-4.432-3.568-8-8-8zm0 1h24c3.878 0 7 3.122 7 7v24c0 3.878-3.122 7-7 7h-24c-3.878 0-7-3.122-7-7v-24c0-3.878 3.122-7 7-7z" opacity=".4" style="paint-order:stroke fill markers"/></g><g fill="#fff"><path d="m23 18v2h-7v3h5c2 0 2 2 2 2v3s0 2-2 2h-7v-2h7v-3h-5c-2 0-2-2-2-2v-3c0-2 2-2 2-2z"/><rect x="25" y="18" width="10" height="2"/><rect x="29" y="18" width="2" height="12"/></g></svg>
