<?xml version="1.0" encoding="UTF-8"?>
<!-- Created with Inkscape (http://www.inkscape.org/) -->
<svg id="SVGRoot" width="48px" height="48px" version="1.1" viewBox="0 0 48 48" xmlns="http://www.w3.org/2000/svg" xmlns:cc="http://creativecommons.org/ns#" xmlns:dc="http://purl.org/dc/elements/1.1/" xmlns:rdf="http://www.w3.org/1999/02/22-rdf-syntax-ns#" xmlns:xlink="http://www.w3.org/1999/xlink">
 <defs id="defs815">
  <style id="style819">.cls-1{fill:none;stroke:#fff;stroke-linecap:round;stroke-linejoin:round;}</style>
  <style id="style819-6">.cls-1{fill:none;stroke:#fff;stroke-linecap:round;stroke-linejoin:round;}</style>
 </defs>
 <metadata id="metadata818">
  <rdf:RDF>
   <cc:Work rdf:about="">
    <dc:format>image/svg+xml</dc:format>
    <dc:type rdf:resource="http://purl.org/dc/dcmitype/StillImage"/>
    <dc:title/>
   </cc:Work>
  </rdf:RDF>
 </metadata>
 <g id="layer1">
  <rect id="rect1373" x="4" y="4" width="40" height="40" ry="8" fill="#d35244" fill-rule="evenodd" style="paint-order:stroke fill markers"/>
  <path id="rect817" d="m12 4c-4.432 0-8 3.568-8 8v24c0 4.432 3.568 8 8 8h24c4.432 0 8-3.568 8-8v-24c0-4.432-3.568-8-8-8h-24zm0 1h24c3.878 0 7 3.122 7 7v24c0 3.878-3.122 7-7 7h-24c-3.878 0-7-3.122-7-7v-24c0-3.878 3.122-7 7-7z" fill-rule="evenodd" opacity=".3" style="paint-order:stroke fill markers"/>
  <path id="path828" d="m26.66 16.36 1.2448-5.6018 4.357 4.3051-1.3486 5.5499z" fill="#fff"/>
  <path id="path830" d="m25.104 15.945 1.4004-5.5499-5.5499 1.193-1.4004 5.7574z" fill="#fff"/>
  <path id="path832" d="m18.102 26.215 5.5499-1.4004 4.2532 4.1495-5.6018 1.4523z" fill="#fff"/>
  <path id="path834" d="m25.001 23.726 1.2448-5.6018 4.357 4.3051-1.3486 5.5499z" fill="#fff"/>
  <path id="path836" d="m23.445 23.311 1.4004-5.5499-5.5499 1.193-1.4004 5.7574z" fill="#fff"/>
  <path id="path838" d="m32.158 21.91 1.2448-5.6018 4.357 4.3051-1.3486 5.5499z" fill="#fff"/>
  <path id="path840" d="m30.499 29.275 1.2448-5.6018 4.357 4.3051-1.3486 5.5499z" fill="#fff"/>
  <path id="path842" d="m17.791 17.864 1.4004-5.5499-5.5499 1.193-1.4004 5.7574z" fill="#fff"/>
  <path id="path844" d="m16.027 25.23 1.4004-5.5499-5.5499 1.193-1.4004 5.7574z" fill="#fff"/>
  <path id="path846" d="m10.789 28.083 5.5499-1.4004 4.2532 4.1495-5.6018 1.4523z" fill="#fff"/>
  <path id="path848" d="m23.6 31.61 5.5499-1.4004 4.2532 4.1495-5.6018 1.4523z" fill="#fff"/>
  <path id="path850" d="m16.287 33.477 5.5499-1.4004 4.2532 4.1495-5.6018 1.4523z" fill="#fff"/>
 </g>
</svg>
