<?xml version="1.0" encoding="UTF-8"?>
<!-- Created with Inkscape (http://www.inkscape.org/) -->
<svg id="SVGRoot" width="48px" height="48px" version="1.1" viewBox="0 0 48 48" xmlns="http://www.w3.org/2000/svg" xmlns:cc="http://creativecommons.org/ns#" xmlns:dc="http://purl.org/dc/elements/1.1/" xmlns:rdf="http://www.w3.org/1999/02/22-rdf-syntax-ns#">
 <defs>
  <style>.cls-1{fill:none;stroke:#fff;stroke-linecap:round;stroke-linejoin:round;}</style>
  <style>.cls-1{fill:none;stroke:#fff;stroke-linecap:round;stroke-linejoin:round;}</style>
  <style>.cls-1{fill:none;stroke:#fff;stroke-linecap:round;stroke-linejoin:round;}</style>
 </defs>
 <metadata>
  <rdf:RDF>
   <cc:Work rdf:about="">
    <dc:format>image/svg+xml</dc:format>
    <dc:type rdf:resource="http://purl.org/dc/dcmitype/StillImage"/>
   </cc:Work>
  </rdf:RDF>
 </metadata>
 <rect x="4" y="4" width="40" height="40" ry="8" fill="#939fa3" fill-rule="evenodd" style="paint-order:stroke fill markers"/>
 <path d="m12 4c-4.432 0-8 3.568-8 8v24c0 4.432 3.568 8 8 8h24c4.432 0 8-3.568 8-8v-24c0-4.432-3.568-8-8-8zm0 1h24c3.878 0 7 3.122 7 7v24c0 3.878-3.122 7-7 7h-24c-3.878 0-7-3.122-7-7v-24c0-3.878 3.122-7 7-7z" fill-rule="evenodd" opacity=".3" style="paint-order:stroke fill markers"/>
 <path d="m16 10c-1.108 0-2 0.892-2 2v24c0 1.108 0.892 2 2 2h16c1.108 0 2-0.892 2-2v-19l-7-7zm1 2h9v6h6v17c0 0.554-0.446 1-1 1h-14c-0.554 0-1-0.446-1-1v-22c0-0.554 0.446-1 1-1z" fill="#fff" style="paint-order:stroke fill markers"/>
 <rect x="12" y="20" width="24" height="4" fill="#939fa3" stroke-linecap="round" stroke-linejoin="round" stroke-width="4"/>
 <rect x="18" y="23" width="12" height="11" fill="#fff" fill-rule="evenodd" opacity=".4" style="paint-order:stroke fill markers"/>
 <rect x="12" y="22" width="24" height="2" fill="#fff" fill-rule="evenodd" stroke-width="1.3093" style="paint-order:stroke fill markers"/>
</svg>
