<?xml version="1.0" encoding="UTF-8"?>
<!-- Created with Inkscape (http://www.inkscape.org/) -->
<svg id="SVGRoot" width="48px" height="48px" version="1.1" viewBox="0 0 48 48" xmlns="http://www.w3.org/2000/svg" xmlns:cc="http://creativecommons.org/ns#" xmlns:dc="http://purl.org/dc/elements/1.1/" xmlns:rdf="http://www.w3.org/1999/02/22-rdf-syntax-ns#">
 <defs id="defs815">
  <style id="style819">.cls-1{fill:none;stroke:#fff;stroke-linecap:round;stroke-linejoin:round;}</style>
  <style id="style819-4">.cls-1{fill:none;stroke:#fff;stroke-linecap:round;stroke-linejoin:round;}</style>
 </defs>
 <metadata id="metadata818">
  <rdf:RDF>
   <cc:Work rdf:about="">
    <dc:format>image/svg+xml</dc:format>
    <dc:type rdf:resource="http://purl.org/dc/dcmitype/StillImage"/>
    <dc:title/>
   </cc:Work>
  </rdf:RDF>
 </metadata>
 <g id="layer1" fill-rule="evenodd">
  <rect id="rect1373-5" x="4" y="4" width="40" height="40" ry="8" fill="#71b9e3" style="paint-order:stroke fill markers"/>
  <path id="rect817" d="m12 4c-4.432 0-8 3.568-8 8v24c0 4.432 3.568 8 8 8h24c4.432 0 8-3.568 8-8v-24c0-4.432-3.568-8-8-8h-24zm0 1h24c3.878 0 7 3.122 7 7v24c0 3.878-3.122 7-7 7h-24c-3.878 0-7-3.122-7-7v-24c0-3.878 3.122-7 7-7z" opacity=".3" style="paint-order:stroke fill markers"/>
  <path id="path852" d="m18.41 10.024c-4.6457 0-8.3857 3.74-8.3857 8.3857 0 1.7506 0.53082 3.3725 1.4413 4.7142-0.01994 0.29095-0.04368 0.58005-0.04368 0.87624 0 6.9685 5.61 12.578 12.578 12.578 0.29618 0 0.58529-0.02373 0.87624-0.04368 1.3417 0.91046 2.9636 1.4413 4.7142 1.4413 4.6457 0 8.3857-3.74 8.3857-8.3857 0-1.7506-0.53082-3.3725-1.4413-4.7142 0.01994-0.29095 0.04367-0.58005 0.04367-0.87624 0-6.9685-5.61-12.578-12.578-12.578-0.29618 0-0.58529 0.02373-0.87624 0.04368-1.3417-0.91046-2.9636-1.4413-4.7142-1.4413z" fill="#fff" style="paint-order:stroke fill markers"/>
  <path id="rect817-4" d="m24 16c1.5556 0 2.7707 0.39445 3.5964 0.80729 0.82568 0.41284 1.3464 0.91667 1.3464 0.91667a1.3335 1.3335 0 1 1-1.8854 1.8854s-0.14599-0.16284-0.65365-0.41667c-0.50766-0.25383-1.2925-0.52604-2.4036-0.52604-0.50608 0-1.3572 0.21824-1.9297 0.55208-0.57247 0.33385-0.73698 0.64497-0.73698 0.78125 0 1 0.24344 1.3161 0.73437 1.6979 0.49093 0.38183 1.3542 0.70312 2.3542 1.0365s2.1368 0.67871 3.1458 1.4635c1.0091 0.78483 1.7656 2.1354 1.7656 3.8021 0 1.4662-1.033 2.4871-2.0599 3.0859s-2.177 0.91406-3.2734 0.91406c-1.5556 0-2.7707-0.39445-3.5964-0.80729s-1.3464-0.91667-1.3464-0.91667a1.3335 1.3335 0 1 1 1.8854-1.8854s0.14599 0.16284 0.65365 0.41667c0.50766 0.25383 1.2925 0.52604 2.4036 0.52604 0.50608 0 1.3572-0.21824 1.9297-0.55208 0.57247-0.33385 0.73698-0.64497 0.73698-0.78125 0-1-0.24344-1.3161-0.73438-1.6979-0.49093-0.38183-1.3542-0.70312-2.3542-1.0365-1-0.33333-2.1368-0.67871-3.1458-1.4635-1.0091-0.78483-1.7656-2.1354-1.7656-3.8021 0-1.4662 1.033-2.4871 2.0599-3.0859 1.0269-0.59887 2.177-0.91406 3.2734-0.91406z" fill="#71b9e3" style="paint-order:stroke fill markers"/>
 </g>
</svg>
