<?xml version="1.0" encoding="UTF-8"?>
<!-- Created with Inkscape (http://www.inkscape.org/) -->
<svg id="SVGRoot" width="48px" height="48px" version="1.1" viewBox="0 0 48 48" xmlns="http://www.w3.org/2000/svg" xmlns:cc="http://creativecommons.org/ns#" xmlns:dc="http://purl.org/dc/elements/1.1/" xmlns:rdf="http://www.w3.org/1999/02/22-rdf-syntax-ns#">
 <defs id="defs815">
  <style id="style819">.cls-1{fill:none;stroke:#fff;stroke-linecap:round;stroke-linejoin:round;}</style>
 </defs>
 <metadata id="metadata818">
  <rdf:RDF>
   <cc:Work rdf:about="">
    <dc:format>image/svg+xml</dc:format>
    <dc:type rdf:resource="http://purl.org/dc/dcmitype/StillImage"/>
    <dc:title/>
   </cc:Work>
  </rdf:RDF>
 </metadata>
 <g id="layer1">
  <rect id="rect1373-5" x="4" y="4" width="40" height="40" ry="8" fill="#efefef" fill-rule="evenodd" style="paint-order:stroke fill markers"/>
  <path id="rect873" d="m24 24c-7.756 0-14 6.244-14 14 0 2.1532 0.49623 4.1811 1.3574 6h4.6426v-2h4v2h2v-2h4v2h2v-2h4v2h4.6426c0.86119-1.8189 1.3574-3.8468 1.3574-6 0-7.756-6.244-14-14-14zm-8 6h4v4h-4zm6 0h4v4h-4zm6 0h4v4h-4zm-12 6h4v4h-4zm6 0h4v4h-4zm6 0h4v4h-4z" fill="#729dec" fill-rule="evenodd" style="paint-order:stroke fill markers"/>
  <path id="rect817" d="m12 4c-4.432 0-8 3.568-8 8v24c0 4.432 3.568 8 8 8h24c4.432 0 8-3.568 8-8v-24c0-4.432-3.568-8-8-8h-24zm0 1h24c3.878 0 7 3.122 7 7v24c0 3.878-3.122 7-7 7h-24c-3.878 0-7-3.122-7-7v-24c0-3.878 3.122-7 7-7z" fill-rule="evenodd" opacity=".3" style="paint-order:stroke fill markers"/>
  <path id="rect818" d="m12 6c-3.324 0-6 2.676-6 6 0 1.108 0.892 2 2 2h32c1.108 0 2-0.892 2-2 0-3.324-2.676-6-6-6h-24z" fill-rule="evenodd" opacity=".4" style="paint-order:normal"/>
  <rect id="rect822-2" x="14" y="16" width="4" height="4" ry="2" fill-rule="evenodd" opacity=".25" style="paint-order:normal"/>
  <rect id="rect824" x="30" y="16" width="4" height="4" ry="2" fill-rule="evenodd" opacity=".25" style="paint-order:normal"/>
  <path id="path820-8" d="m16 18s2 7 8 7 8-7 8-7" fill="none" opacity=".25" stroke="#000" stroke-linecap="round" stroke-linejoin="round" stroke-width="2"/>
  <path id="path820" d="m16 18s2 5 8 5 8-5 8-5" fill="none" stroke="#fff" stroke-linecap="round" stroke-linejoin="round" stroke-width="2"/>
 </g>
</svg>
