<?xml version="1.0" encoding="UTF-8"?>
<!-- Created with Inkscape (http://www.inkscape.org/) -->
<svg id="SVGRoot" width="48px" height="48px" version="1.1" viewBox="0 0 48 48" xmlns="http://www.w3.org/2000/svg" xmlns:cc="http://creativecommons.org/ns#" xmlns:dc="http://purl.org/dc/elements/1.1/" xmlns:rdf="http://www.w3.org/1999/02/22-rdf-syntax-ns#">
 <defs id="defs815">
  <style id="style819">.cls-1{fill:none;stroke:#fff;stroke-linecap:round;stroke-linejoin:round;}</style>
 </defs>
 <metadata id="metadata818">
  <rdf:RDF>
   <cc:Work rdf:about="">
    <dc:format>image/svg+xml</dc:format>
    <dc:type rdf:resource="http://purl.org/dc/dcmitype/StillImage"/>
    <dc:title/>
   </cc:Work>
  </rdf:RDF>
 </metadata>
 <g id="layer1">
  <rect id="rect1373-5" x="4" y="4" width="40" height="40" ry="8" fill="#f68d59" fill-rule="evenodd" style="paint-order:stroke fill markers"/>
  <path id="rect817-2" d="m24 21c-5.2495 0-9.7983 2.8656-12.195 7.1191 0.38597-0.077408 0.78589-0.11914 1.1953-0.11914 1.139 0 2.1983 0.32036 3.1035 0.86719 1.8265-2.3516 4.675-3.8672 7.8965-3.8672 0-1.5047 0.55235-2.8728 1.4609-3.9238-0.48012-0.049357-0.96735-0.076172-1.4609-0.076172zm6 0c-2.216 0-4 1.784-4 4s1.784 4 4 4 4-1.784 4-4-1.784-4-4-4zm5.5977 6.1387c-0.5165 1.3569-1.4995 2.4798-2.7676 3.1562 0.7456 1.4013 1.1699 3.001 1.1699 4.7051 0 1.8978-0.53251 3.6615-1.4434 5.1699 1.1816 0.86999 2.0223 2.1642 2.3184 3.6602 1.9532-2.406 3.125-5.4755 3.125-8.8301 0-2.9191-0.88571-5.6229-2.4023-7.8613zm-22.598 2.8613c-2.216 0-4 1.784-4 4s1.784 4 4 4 4-1.784 4-4-1.784-4-4-4zm-2.2266 9.5703c0.56286 1.6379 1.4245 3.1319 2.5117 4.4297h6.375c-1.9465-0.93868-3.5445-2.4771-4.5371-4.3926-0.66044 0.24893-1.3734 0.39258-2.123 0.39258-0.78845 0-1.5381-0.15563-2.2266-0.42969zm18.227 1.4297c-1.8686 0-3.4176 1.2737-3.8613 3h7.7227c-0.44369-1.7263-1.9928-3-3.8613-3z" fill="#fff" fill-rule="evenodd" opacity=".75" style="paint-order:normal"/>
  <path id="rect818" d="m12 6c-3.324 0-6 2.676-6 6 0 1.108 0.892 2 2 2h32c1.108 0 2-0.892 2-2 0-3.324-2.676-6-6-6h-24z" fill-rule="evenodd" opacity=".4" style="paint-order:normal"/>
  <rect id="rect822-2" x="14" y="16" width="4" height="4" ry="2" fill-rule="evenodd" opacity=".25" style="paint-order:normal"/>
  <rect id="rect824" x="30" y="16" width="4" height="4" ry="2" fill-rule="evenodd" opacity=".25" style="paint-order:normal"/>
  <path id="path820-8" d="m16 18s2 7 8 7 8-7 8-7" fill="none" opacity=".25" stroke="#000" stroke-linecap="round" stroke-linejoin="round" stroke-width="2"/>
  <path id="path820" d="m16 18s2 5 8 5 8-5 8-5" fill="none" stroke="#fff" stroke-linecap="round" stroke-linejoin="round" stroke-width="2"/>
  <path id="rect817" d="m12 4c-4.432 0-8 3.568-8 8v24c0 4.432 3.568 8 8 8h24c4.432 0 8-3.568 8-8v-24c0-4.432-3.568-8-8-8h-24zm0 1h24c3.878 0 7 3.122 7 7v24c0 3.878-3.122 7-7 7h-24c-3.878 0-7-3.122-7-7v-24c0-3.878 3.122-7 7-7z" fill-rule="evenodd" opacity=".3" style="paint-order:stroke fill markers"/>
 </g>
</svg>
