<?xml version="1.0" encoding="UTF-8"?>
<!-- Created with Inkscape (http://www.inkscape.org/) -->
<svg id="SVGRoot" width="48px" height="48px" version="1.1" viewBox="0 0 48 48" xmlns="http://www.w3.org/2000/svg" xmlns:cc="http://creativecommons.org/ns#" xmlns:dc="http://purl.org/dc/elements/1.1/" xmlns:rdf="http://www.w3.org/1999/02/22-rdf-syntax-ns#">
 <defs id="defs815">
  <style id="style819">.cls-1{fill:none;stroke:#fff;stroke-linecap:round;stroke-linejoin:round;}</style>
 </defs>
 <metadata id="metadata818">
  <rdf:RDF>
   <cc:Work rdf:about="">
    <dc:format>image/svg+xml</dc:format>
    <dc:type rdf:resource="http://purl.org/dc/dcmitype/StillImage"/>
    <dc:title/>
   </cc:Work>
  </rdf:RDF>
 </metadata>
 <g id="layer1">
  <rect id="rect1373-5" x="4" y="4" width="40" height="40" ry="8" fill="#90bdf0" fill-rule="evenodd" style="paint-order:stroke fill markers"/>
  <path id="rect817" d="m12 4c-4.432 0-8 3.568-8 8v24c0 4.432 3.568 8 8 8h24c4.432 0 8-3.568 8-8v-24c0-4.432-3.568-8-8-8h-24zm0 1h24c3.878 0 7 3.122 7 7v24c0 3.878-3.122 7-7 7h-24c-3.878 0-7-3.122-7-7v-24c0-3.878 3.122-7 7-7z" fill-rule="evenodd" opacity=".3" style="paint-order:stroke fill markers"/>
  <path id="rect838-3" d="m24 16c-6.648 0-12 5.352-12 12 0 0.90762 0.11045 1.7864 0.30078 2.6348l-1.8125 0.48633 5.1582 3.793 2.5703-5.8633-2.0469 0.54883c-0.10733-0.51694-0.16992-1.0497-0.16992-1.5996 0-4.432 3.568-8 8-8zm10 7-4 5h2c0 4.432-3.568 8-8 8-1.546 0-2.9822-0.44176-4.2031-1.1953l-2.2207 3.3301c1.8564 1.1758 4.0547 1.8652 6.4238 1.8652 6.648 0 12-5.352 12-12h2z" fill="#cef499" fill-rule="evenodd" style="paint-order:normal"/>
  <rect id="rect828" x="20" y="24" width="8" height="8" ry="4" fill="#4e4e4e" fill-rule="evenodd" style="paint-order:normal"/>
  <rect id="rect830" x="26" y="8" width="2" height="20" fill="#4e4e4e" fill-rule="evenodd" style="paint-order:normal"/>
  <path id="path834" d="m32 22s1.9481-2.9626 0.94813-5.9626-2.9481-3.0374-4.9481-8.0374l-1 2 1 2c1 2 3.0779 3.0884 3.9481 5.0374 0.82667 1.8514 0.051868 4.9626 0.051868 4.9626z" fill="#4e4e4e"/>
 </g>
</svg>
