<?xml version="1.0" encoding="UTF-8"?>
<!-- Created with Inkscape (http://www.inkscape.org/) -->
<svg id="SVGRoot" width="48px" height="48px" version="1.1" viewBox="0 0 48 48" xmlns="http://www.w3.org/2000/svg" xmlns:cc="http://creativecommons.org/ns#" xmlns:dc="http://purl.org/dc/elements/1.1/" xmlns:rdf="http://www.w3.org/1999/02/22-rdf-syntax-ns#" xmlns:xlink="http://www.w3.org/1999/xlink">
 <defs id="defs815">
  <style id="style819">.cls-1{fill:none;stroke:#fff;stroke-linecap:round;stroke-linejoin:round;}</style>
  <linearGradient id="linearGradient904" x1="18" x2="29" y1="34" y2="13" gradientUnits="userSpaceOnUse">
   <stop id="stop898" stop-color="#c184ed" offset="0"/>
   <stop id="stop900" stop-color="#f681aa" offset="1"/>
  </linearGradient>
 </defs>
 <metadata id="metadata818">
  <rdf:RDF>
   <cc:Work rdf:about="">
    <dc:format>image/svg+xml</dc:format>
    <dc:type rdf:resource="http://purl.org/dc/dcmitype/StillImage"/>
    <dc:title/>
   </cc:Work>
  </rdf:RDF>
 </metadata>
 <g id="layer1" fill-rule="evenodd">
  <rect id="rect1373-5" x="4" y="4" width="40" height="40" ry="8" fill="#f2dff8" style="paint-order:stroke fill markers"/>
  <rect id="rect818" x="10" y="10" width="28" height="28" ry="14" fill="url(#linearGradient904)" style="paint-order:stroke fill markers"/>
  <path id="rect818-6" d="m24 10c-4.7037 0-8.8409 2.3043-11.377 5.8418-1.85e-4 5.98e-4 1.84e-4 0.001355 0 0.001953-0.00189 0.002636-0.003972 0.005175-0.005859 0.007812-0.18005 0.25158-0.35029 0.50971-0.51367 0.77344-0.044825 0.072197-0.087308 0.14569-0.13086 0.21875-0.1511 0.25418-0.29651 0.51105-0.43164 0.77539-0.03429 0.066784-0.064408 0.13572-0.097657 0.20312-0.2421 0.49312-0.45684 1.0013-0.64062 1.5254-0.036759 0.1041-0.078926 0.20532-0.11328 0.31055-0.066177 0.20417-0.12077 0.41287-0.17773 0.62109-0.057607 0.2089-0.11406 0.41809-0.16211 0.63086-0.039404 0.17597-0.074674 0.3528-0.10742 0.53125-0.051274 0.27687-0.092254 0.55734-0.12695 0.83984-0.016718 0.13745-0.036092 0.27344-0.048828 0.41211-0.039952 0.43051-0.066406 0.86518-0.066406 1.3066 0 7.756 6.244 14 14 14 0.45006 0 0.89307-0.025277 1.332-0.066406 0.13295-0.012448 0.26271-0.034671 0.39453-0.050782 0.29514-0.036081 0.58789-0.078788 0.87695-0.13281 0.15539-0.029037 0.30938-0.059656 0.46289-0.09375 0.28166-0.062548 0.5591-0.13375 0.83398-0.21289 0.13919-0.040072 0.27866-0.078825 0.41602-0.12305 0.3272-0.10535 0.6488-0.22531 0.96484-0.35352 0.069051-0.028014 0.14049-0.051002 0.20898-0.080078 0.38889-0.16506 0.76698-0.34669 1.1367-0.54492 0.090514-0.048523 0.17633-0.10386 0.26562-0.1543 0.26886-0.15188 0.53369-0.30974 0.79102-0.47852 0.12662-0.083046 0.24935-0.17081 0.37305-0.25781 0.21693-0.15257 0.42916-0.31024 0.63672-0.47461 0.12428-0.098406 0.24836-0.19633 0.36914-0.29883 0.22688-0.19255 0.44613-0.39314 0.66016-0.59961 0.076326-0.073631 0.15584-0.14341 0.23047-0.21875 0.29171-0.29447 0.57126-0.60046 0.83594-0.91992 0.04824-0.05823 0.091367-0.12066 0.13867-0.17969 0.20874-0.26042 0.40964-0.52744 0.59961-0.80274 0.083355-0.1208 0.16062-0.24561 0.24023-0.36914 0.14786-0.22943 0.28929-0.46272 0.42383-0.70117 0.072894-0.1292 0.14402-0.2589 0.21289-0.39062 0.13973-0.26723 0.26994-0.53927 0.39258-0.81641 0.045923-0.10378 0.095211-0.20544 0.13867-0.31055 0.15248-0.36875 0.29094-0.74487 0.41211-1.1289 0.007339-0.023259 0.01817-0.045046 0.025391-0.068359 9.75e-4 -0.003147 9.8e-4 -0.006618 0.001953-0.009766 0.40597-1.314 0.625-2.7113 0.625-4.1621 0-7.756-6.244-14-14-14zm0 1c7.202 0 13 5.798 13 13 0 2.3713-0.63805 4.5841-1.7383 6.4941-2.4633 2.1791-5.6985 3.5059-9.2617 3.5059-7.756 0-14-6.244-14-14 0-0.38176 0.017198-0.75898 0.046875-1.1328 1.9833-4.6349 6.5763-7.8672 11.953-7.8672z" fill="#6e55e6" opacity=".5" style="paint-order:stroke fill markers"/>
  <path id="rect817" d="m12 4c-4.432 0-8 3.568-8 8v24c0 4.432 3.568 8 8 8h24c4.432 0 8-3.568 8-8v-24c0-4.432-3.568-8-8-8h-24zm0 1h24c3.878 0 7 3.122 7 7v24c0 3.878-3.122 7-7 7h-24c-3.878 0-7-3.122-7-7v-24c0-3.878 3.122-7 7-7z" opacity=".3" style="paint-order:stroke fill markers"/>
 </g>
</svg>
