<?xml version="1.0" encoding="UTF-8"?>
<!-- Created with Inkscape (http://www.inkscape.org/) -->
<svg id="SVGRoot" width="48px" height="48px" version="1.1" viewBox="0 0 48 48" xmlns="http://www.w3.org/2000/svg" xmlns:cc="http://creativecommons.org/ns#" xmlns:dc="http://purl.org/dc/elements/1.1/" xmlns:rdf="http://www.w3.org/1999/02/22-rdf-syntax-ns#" xmlns:xlink="http://www.w3.org/1999/xlink">
 <defs id="defs815">
  <style id="style819">.cls-1{fill:none;stroke:#fff;stroke-linecap:round;stroke-linejoin:round;}</style>
  <linearGradient id="linearGradient918" x1="29" x2="24" y1="34" y2="16" gradientUnits="userSpaceOnUse">
   <stop id="stop912" stop-color="#ffdfa1" offset="0"/>
   <stop id="stop914" stop-color="#7964bc" offset="1"/>
  </linearGradient>
 </defs>
 <metadata id="metadata818">
  <rdf:RDF>
   <cc:Work rdf:about="">
    <dc:format>image/svg+xml</dc:format>
    <dc:type rdf:resource="http://purl.org/dc/dcmitype/StillImage"/>
    <dc:title/>
   </cc:Work>
  </rdf:RDF>
 </metadata>
 <g id="layer1">
  <rect id="rect1373-0" x="4" y="4" width="40" height="40" ry="8" fill="url(#linearGradient918)" fill-rule="evenodd" style="paint-order:stroke fill markers"/>
  <path id="rect817" d="m12 4c-4.432 0-8 3.568-8 8v24c0 4.432 3.568 8 8 8h24c4.432 0 8-3.568 8-8v-24c0-4.432-3.568-8-8-8h-24zm0 1h24c3.878 0 7 3.122 7 7v24c0 3.878-3.122 7-7 7h-24c-3.878 0-7-3.122-7-7v-24c0-3.878 3.122-7 7-7z" fill-rule="evenodd" opacity=".3" style="paint-order:stroke fill markers"/>
  <rect id="rect920" x="10" y="8" width="18" height="18" ry="8.8398" fill="#fff" fill-rule="evenodd" opacity=".25" style="paint-order:normal"/>
  <path id="path830-8" d="m6 31.07v4.9297c0 1.0454 0.26616 2.0267 0.73242 2.8809l20.268-0.88086s-9.8058-6.2322-21-6.9297z" fill="#655a7c"/>
  <path id="path828-8" d="m40 30c-8.7496 0-16.25 8-25 8-4.0803 0-7.1036-0.67727-8.9473-1.2441 0.37017 2.9639 2.8799 5.2441 5.9473 5.2441h24c3.324 0 6-2.676 6-6v-5.8184c-0.53779-0.10626-1.1908-0.18164-2-0.18164z" fill="#4e4e4e"/>
  <path id="rect832" d="m19 8c-0.36185 0-0.71596 0.027239-1.0664 0.068359 3.432 0.45508 6.0664 3.3714 6.0664 6.9316 0 3.878-3.122 7-7 7-3.5603 0-6.4766-2.6344-6.9316-6.0664-0.04112 0.35045-0.068359 0.70455-0.068359 1.0664 0 4.986 4.014 9 9 9s9-4.014 9-9-4.014-9-9-9z" fill="#fff" fill-rule="evenodd" style="paint-order:normal"/>
  <rect id="rect836" x="36" y="8" width="2" height="2" ry="1" fill="#fff" fill-rule="evenodd" opacity=".3" style="paint-order:normal"/>
  <rect id="rect836-1" x="8" y="10" width="2" height="2" ry="1" fill="#fff" fill-rule="evenodd" opacity=".3" style="paint-order:normal"/>
  <rect id="rect836-7" x="32" y="14" width="2" height="2" ry="1" fill="#fff" fill-rule="evenodd" opacity=".3" style="paint-order:normal"/>
  <rect id="rect836-5" x="38" y="18" width="2" height="2" ry="1" fill="#fff" fill-rule="evenodd" opacity=".3" style="paint-order:normal"/>
  <rect id="rect939" x="30" y="24" width="2" height="2" ry="1" fill="#fff" fill-rule="evenodd" opacity=".3" style="paint-order:normal"/>
  <rect id="rect941" x="10" y="26" width="2" height="2" ry="1" fill="#fff" fill-rule="evenodd" opacity=".3" style="paint-order:normal"/>
 </g>
</svg>
