<?xml version="1.0" encoding="UTF-8"?>
<!-- Created with Inkscape (http://www.inkscape.org/) -->
<svg id="SVGRoot" width="48px" height="48px" version="1.1" viewBox="0 0 48 48" xmlns="http://www.w3.org/2000/svg" xmlns:cc="http://creativecommons.org/ns#" xmlns:dc="http://purl.org/dc/elements/1.1/" xmlns:rdf="http://www.w3.org/1999/02/22-rdf-syntax-ns#" xmlns:xlink="http://www.w3.org/1999/xlink">
 <defs id="defs815">
  <style id="style819">.cls-1{fill:none;stroke:#fff;stroke-linecap:round;stroke-linejoin:round;}</style>
  <style id="style2">.a{fill:none;stroke:#b1b5bd;stroke-linecap:round;stroke-linejoin:round;isolation:isolate;opacity:0.63;}</style>
 </defs>
 <metadata id="metadata818">
  <rdf:RDF>
   <cc:Work rdf:about="">
    <dc:format>image/svg+xml</dc:format>
    <dc:type rdf:resource="http://purl.org/dc/dcmitype/StillImage"/>
    <dc:title/>
   </cc:Work>
  </rdf:RDF>
 </metadata>
 <g id="layer1">
  <rect id="rect1373" x="4" y="4" width="40" height="40" ry="8" fill="#4e4e4e" fill-rule="evenodd" style="paint-order:stroke fill markers"/>
  <path id="path829" d="m23.957 4c0.20353 0.50071 0.44585 1.0796 0.63168 1.4628 1.1595 2.3908-0.40193 3.3039-0.40193 3.3039l-11.43 7.5905s-1.9226 1.1694-4.4649 0.13364c-1.2642-0.51506-3.049-1.1316-4.2917-1.5543v11.047c1.4817 0.27711 7.0843 1.3371 10.186 2.1161 5.2891 1.3285 7.8582-1.9644 7.8582-1.9644l7.9919-7.1885s2.2294-1.6632 0.9375-5.4024c-0.9618-2.7839-2.8372-7.5573-3.6241-9.5441z" fill="#6ad9ca"/>
  <path id="path831" d="m35.234 19.453c-0.83584-0.0097-1.42 0.3938-2.3854 1.3687-2.8954 2.9239-5.8617 5.5975-8.7957 8.6621-1.3933 1.4553-1.6183 2.6869-0.44665 6.0274 0.96222 2.7433 2.4485 7.6694 2.6953 8.4889h6.1164c-0.17944-0.4396-0.51309-1.248-0.77508-1.7912-1.6082-3.3344 0.13415-5.001 0.13415-5.001s7.3722-9.7223 8.6174-11.207c0.60862-0.72556 2.8125-0.13364 2.8125-0.13364l0.79307 0.35002v-3.8513c-1.3344-0.49989-4.1552-1.5535-6.0614-2.2142-1.252-0.43396-2.0545-0.69143-2.7046-0.69901z" fill="#6ad9ca"/>
  <path id="rect817" d="m12 4c-4.432 0-8 3.568-8 8v24c0 4.432 3.568 8 8 8h24c4.432 0 8-3.568 8-8v-24c0-4.432-3.568-8-8-8h-24zm0 1h24c3.878 0 7 3.122 7 7v24c0 3.878-3.122 7-7 7h-24c-3.878 0-7-3.122-7-7v-24c0-3.878 3.122-7 7-7z" fill-rule="evenodd" opacity=".4" style="paint-order:stroke fill markers"/>
 </g>
</svg>
