<?xml version="1.0" encoding="UTF-8"?>
<!-- Created with Inkscape (http://www.inkscape.org/) -->
<svg id="SVGRoot" width="48px" height="48px" version="1.1" viewBox="0 0 48 48" xmlns="http://www.w3.org/2000/svg" xmlns:cc="http://creativecommons.org/ns#" xmlns:dc="http://purl.org/dc/elements/1.1/" xmlns:rdf="http://www.w3.org/1999/02/22-rdf-syntax-ns#">
 <defs id="defs815">
  <style id="style819">.cls-1{fill:none;stroke:#fff;stroke-linecap:round;stroke-linejoin:round;}</style>
 </defs>
 <metadata id="metadata818">
  <rdf:RDF>
   <cc:Work rdf:about="">
    <dc:format>image/svg+xml</dc:format>
    <dc:type rdf:resource="http://purl.org/dc/dcmitype/StillImage"/>
    <dc:title/>
   </cc:Work>
  </rdf:RDF>
 </metadata>
 <g id="layer1" fill-rule="evenodd">
  <rect id="rect1373-5" x="4" y="4" width="40" height="40" ry="8" fill="#afe8d4" style="paint-order:stroke fill markers"/>
  <path id="rect817" d="m12 4c-4.432 0-8 3.568-8 8v24c0 4.432 3.568 8 8 8h24c4.432 0 8-3.568 8-8v-24c0-4.432-3.568-8-8-8h-24zm0 1h24c3.878 0 7 3.122 7 7v24c0 3.878-3.122 7-7 7h-24c-3.878 0-7-3.122-7-7v-24c0-3.878 3.122-7 7-7z" opacity=".3" style="paint-order:stroke fill markers"/>
  <rect id="rect818" x="10" y="12" width="28" height="24" rx="14" ry="12" fill="#729dec" style="paint-order:normal"/>
  <rect id="rect823" x="14" y="21" width="20" height="15" rx="10" ry="7.5" fill="#71b9e3" style="paint-order:normal"/>
  <rect id="rect820" x="16" y="14" width="16" height="10" rx="8" ry="5" fill="#fff" style="paint-order:normal"/>
  <rect id="rect822" x="30" y="23" width="4" height="3" rx="2" ry="3" fill="#fff" style="paint-order:normal"/>
  <path id="rect824" d="m24 12c-7.756 0-14 5.352-14 12s6.244 12 14 12 14-5.352 14-12-6.244-12-14-12zm0 1c7.202 0 13 4.906 13 11s-5.798 11-13 11-13-4.906-13-11 5.798-11 13-11z" opacity=".25" style="paint-order:normal"/>
 </g>
</svg>
