<?xml version="1.0" encoding="UTF-8"?>
<!-- Created with Inkscape (http://www.inkscape.org/) -->
<svg id="SVGRoot" width="48px" height="48px" version="1.1" viewBox="0 0 48 48" xmlns="http://www.w3.org/2000/svg" xmlns:cc="http://creativecommons.org/ns#" xmlns:dc="http://purl.org/dc/elements/1.1/" xmlns:rdf="http://www.w3.org/1999/02/22-rdf-syntax-ns#">
 <defs id="defs815">
  <style id="style819">.cls-1{fill:none;stroke:#fff;stroke-linecap:round;stroke-linejoin:round;}</style>
 </defs>
 <metadata id="metadata818">
  <rdf:RDF>
   <cc:Work rdf:about="">
    <dc:format>image/svg+xml</dc:format>
    <dc:type rdf:resource="http://purl.org/dc/dcmitype/StillImage"/>
    <dc:title/>
   </cc:Work>
  </rdf:RDF>
 </metadata>
 <g id="layer1">
  <path id="rect1373" d="m24 4c-2.216 0-4 1.784-4 4v32c0 2.216 1.784 4 4 4h12c4.432 0 8-3.568 8-8v-24c0-4.432-3.568-8-8-8h-12z" fill="#627ad4" fill-rule="evenodd" style="paint-order:stroke fill markers"/>
  <path id="rect818" d="m12 4c-4.432 0-8 3.568-8 8v24c0 4.432 3.568 8 8 8h12v-40h-12z" fill="#46589d" fill-rule="evenodd" style="paint-order:stroke fill markers"/>
  <path id="path1092-2" d="m38 13.5 6 2.5v16.5l-6-2.5z" fill="#46589d"/>
  <path id="path836" d="m24 24-20 8v4c0 4.432 3.568 8 8 8h24c4.432 0 8-3.568 8-8v-4l-20-8z" fill="#e5b871"/>
  <path id="path912-3" d="M 24,27.916667 7,35 24,42.083333 41,35 Z" opacity=".25"/>
  <path id="path935-0-0-4" d="m26 17v13.801l-2 0.80078v-9.0099l-8 3.4083v9l-2 0.80078v-13.801z" fill="#9a3535"/>
  <path id="path935-9" d="m22 17v13.801l2 0.80078v-9.0099l8 3.4083v9l2 0.80078v-13.801z" fill="#d35244"/>
  <path id="path912" d="m24 16-12 5 12 7 12-7z" fill="#f97263"/>
  <path id="path1092" d="m10 14-6 2.5v8l6-2.5z" fill="#627ad4"/>
  <path id="path935" d="m12 21v14l2 0.80078v-9.2091l8 3.4083v9.1992l2 0.80078v-14z" fill="#d35244"/>
  <path id="path935-0" d="m36 21v14l-2 0.80078v-9.2091l-8 3.4083v9.1992l-2 0.80078v-14z" fill="#9a3535"/>
  <path id="rect817" d="m12 4c-4.432 0-8 3.568-8 8v24c0 4.432 3.568 8 8 8h24c4.432 0 8-3.568 8-8v-24c0-4.432-3.568-8-8-8h-24zm0 1h24c3.878 0 7 3.122 7 7v24c0 3.878-3.122 7-7 7h-24c-3.878 0-7-3.122-7-7v-24c0-3.878 3.122-7 7-7z" fill-rule="evenodd" opacity=".3" style="paint-order:stroke fill markers"/>
 </g>
</svg>
