<?xml version="1.0" encoding="UTF-8"?>
<!-- Created with Inkscape (http://www.inkscape.org/) -->
<svg id="SVGRoot" width="48px" height="48px" version="1.1" viewBox="0 0 48 48" xmlns="http://www.w3.org/2000/svg" xmlns:cc="http://creativecommons.org/ns#" xmlns:dc="http://purl.org/dc/elements/1.1/" xmlns:rdf="http://www.w3.org/1999/02/22-rdf-syntax-ns#" xmlns:xlink="http://www.w3.org/1999/xlink">
 <defs id="defs815">
  <style id="style819">.cls-1{fill:none;stroke:#fff;stroke-linecap:round;stroke-linejoin:round;}</style>
 </defs>
 <metadata id="metadata818">
  <rdf:RDF>
   <cc:Work rdf:about="">
    <dc:format>image/svg+xml</dc:format>
    <dc:type rdf:resource="http://purl.org/dc/dcmitype/StillImage"/>
    <dc:title/>
   </cc:Work>
  </rdf:RDF>
 </metadata>
 <g id="layer1">
  <rect id="rect1373" x="4" y="4" width="40" height="40" ry="8" fill="#bc8046" fill-rule="evenodd" style="paint-order:stroke fill markers"/>
  <path id="rect817" d="m12 4c-4.432 0-8 3.568-8 8v24c0 4.432 3.568 8 8 8h24c4.432 0 8-3.568 8-8v-24c0-4.432-3.568-8-8-8h-24zm0 1h24c3.878 0 7 3.122 7 7v24c0 3.878-3.122 7-7 7h-24c-3.878 0-7-3.122-7-7v-24c0-3.878 3.122-7 7-7z" fill-rule="evenodd" opacity=".3" style="paint-order:stroke fill markers"/>
  <path id="path846" d="m16 4 1 22 1-22h-2zm7 0 1 22 1-22h-2zm7 0 1 22 1-22h-2zm-20.012 0.26367c-0.68755 0.17711-1.3394 0.43768-1.9414 0.7793l0.95312 20.957 0.98828-21.736zm28.023 0 0.98828 21.736 0.95312-20.957c-0.60203-0.34162-1.2539-0.60219-1.9414-0.7793zm-25.012 17.736-1 22h2l-1-22zm8 0-1 22h2l-1-22zm6 0-1 22h2l-1-22zm8 0-1 22h2l-1-22z" opacity=".15"/>
  <path id="path817" d="m9 33v6h6" fill="none" stroke="#ffdd75" stroke-linecap="round" stroke-linejoin="round" stroke-width="2"/>
  <path id="path817-1" d="m39 15v-6h-6" fill="none" stroke="#ffdd75" stroke-linecap="round" stroke-linejoin="round" stroke-width="2"/>
  <path id="path834" d="m9 39 30-30" fill="none" stroke="#ffdd75" stroke-linecap="round" stroke-linejoin="round" stroke-width="2"/>
  <rect id="rect836" x="12" y="12" width="10" height="10" ry="5" fill="#ffdd75" fill-rule="evenodd" style="paint-order:stroke fill markers"/>
  <rect id="rect838" x="14" y="14" width="6" height="6" ry="3" fill="#bc8046" fill-rule="evenodd" style="paint-order:stroke fill markers"/>
 </g>
</svg>
