<?xml version="1.0" encoding="UTF-8"?>
<!-- Created with Inkscape (http://www.inkscape.org/) -->
<svg id="SVGRoot" width="48px" height="48px" version="1.1" viewBox="0 0 48 48" xmlns="http://www.w3.org/2000/svg" xmlns:cc="http://creativecommons.org/ns#" xmlns:dc="http://purl.org/dc/elements/1.1/" xmlns:rdf="http://www.w3.org/1999/02/22-rdf-syntax-ns#" xmlns:xlink="http://www.w3.org/1999/xlink">
 <defs id="defs815">
  <style id="style819">.cls-1{fill:none;stroke:#fff;stroke-linecap:round;stroke-linejoin:round;}</style>
  <style id="style819-1">.cls-1{fill:none;stroke:#fff;stroke-linecap:round;stroke-linejoin:round;}</style>
 </defs>
 <metadata id="metadata818">
  <rdf:RDF>
   <cc:Work rdf:about="">
    <dc:format>image/svg+xml</dc:format>
    <dc:type rdf:resource="http://purl.org/dc/dcmitype/StillImage"/>
    <dc:title/>
   </cc:Work>
  </rdf:RDF>
 </metadata>
 <g id="layer1" fill-rule="evenodd">
  <rect id="rect1373" x="4" y="4" width="40" height="40" ry="8" fill="#e5ebed" style="paint-order:stroke fill markers"/>
  <path id="rect828" d="m22 4v6.1504c-5.4613 0.7766-9.8871 4.6756-11.418 9.8496h4.2227c1.517-3.5351 5.0218-6 9.125-6h0.14062c4.1032 0 7.608 2.4649 9.125 6h4.2227c-1.5308-5.174-5.9566-9.073-11.418-9.8496v-6.1504zm2 12c-4.432 0-8 3.568-8 8 0 0.33946 0.02771 0.67189 0.06836 1h13.842c-0.4742 2.8438-2.9277 5-5.9102 5-1.7819 0-3.3717-0.77444-4.4688-2h-2.459c1.3798 2.3927 3.9564 4 6.9277 4 4.432 0 8-3.568 8-8 0-0.33946-0.02771-0.67189-0.06836-1h-13.842c0.4742-2.8438 2.9277-5 5.9102-5 1.7819 0 3.3717 0.77444 4.4688 2h2.459c-1.3798-2.3927-3.9564-4-6.9277-4zm-13.418 12c1.5308 5.174 5.9566 9.073 11.418 9.8496v6.1504h4v-6.1504c5.4613-0.7766 9.8871-4.6756 11.418-9.8496h-4.2227c-1.517 3.5351-5.0218 6-9.125 6h-0.14062c-4.1032 0-7.608-2.4649-9.125-6z" fill="#3fb5a5" style="paint-order:normal"/>
  <path id="rect817" d="m12 4c-4.432 0-8 3.568-8 8v24c0 4.432 3.568 8 8 8h24c4.432 0 8-3.568 8-8v-24c0-4.432-3.568-8-8-8h-24zm0 1h24c3.878 0 7 3.122 7 7v24c0 3.878-3.122 7-7 7h-24c-3.878 0-7-3.122-7-7v-24c0-3.878 3.122-7 7-7z" opacity=".3" style="paint-order:stroke fill markers"/>
 </g>
</svg>
