<?xml version="1.0" encoding="UTF-8"?>
<!-- Created with Inkscape (http://www.inkscape.org/) -->
<svg id="SVGRoot" width="48px" height="48px" version="1.1" viewBox="0 0 48 48" xmlns="http://www.w3.org/2000/svg" xmlns:cc="http://creativecommons.org/ns#" xmlns:dc="http://purl.org/dc/elements/1.1/" xmlns:rdf="http://www.w3.org/1999/02/22-rdf-syntax-ns#">
 <defs id="defs815">
  <style id="style819">.cls-1{fill:none;stroke:#fff;stroke-linecap:round;stroke-linejoin:round;}</style>
 </defs>
 <metadata id="metadata818">
  <rdf:RDF>
   <cc:Work rdf:about="">
    <dc:format>image/svg+xml</dc:format>
    <dc:type rdf:resource="http://purl.org/dc/dcmitype/StillImage"/>
    <dc:title/>
   </cc:Work>
  </rdf:RDF>
 </metadata>
 <g id="layer1">
  <rect id="rect1373-5" x="4" y="4" width="40" height="40" ry="8" fill="#efefef" fill-rule="evenodd" style="paint-order:stroke fill markers"/>
  <path id="rect817" d="m12 4c-4.432 0-8 3.568-8 8v24c0 4.432 3.568 8 8 8h24c4.432 0 8-3.568 8-8v-24c0-4.432-3.568-8-8-8h-24zm0 1h24c3.878 0 7 3.122 7 7v24c0 3.878-3.122 7-7 7h-24c-3.878 0-7-3.122-7-7v-24c0-3.878 3.122-7 7-7z" fill-rule="evenodd" opacity=".3" style="paint-order:stroke fill markers"/>
  <path id="path835" d="m30 8v7l2.4863-2.4863c1.356 1.5045 5.1743 6.8618 3.5137 18.486 5.109-11.921 0.096357-18.716-1.5137-20.486l2.5137-2.5137zm-18 9c-5.109 11.921-0.09636 18.716 1.5137 20.486l-2.5137 2.5137h7v-7l-2.4863 2.4863c-1.356-1.5045-5.1743-6.8618-3.5137-18.486z" opacity=".3"/>
  <path id="path828" d="m20.778 24.346s-4.6529 0.74212-3.5548 1.4515c2.7382 1.7689 11.642-0.29623 11.642-0.29623s-8.8744 0.37742-9.7756-0.08887c-0.63684-0.32949 1.6885-1.0664 1.6885-1.0664z" fill="#2c7eb2"/>
  <path id="path830" d="m19.86 27.22s-1.1699 0.28807-0.88869 0.82945c0.38104 0.73369 1.9932 0.94092 4.4138 0.91832 2.9823-0.02784 4.5323-0.74058 4.5323-0.74058l-0.7702-0.74058s-2.5358 0.55193-3.851 0.56284c-1.6712 0.01387-3.0507-0.07513-3.4363-0.3851-0.11544-0.09281 0-0.44435 0-0.44435z" fill="#2c7eb2"/>
  <path id="path832" d="m20.541 29.412s-1.033 0.40571-0.97756 0.82945c0.11221 0.85821 2.2754 0.93754 3.9991 0.94794 1.2848 0.0078 3.9991-0.62208 3.9991-0.62208l-1.1257-0.74058s-1.9971 0.4006-3.0216 0.41472c-0.9496 0.01309-2.5137 0.06469-2.8142-0.29623-0.11441-0.13744-0.05925-0.53322-0.05925-0.53322z" fill="#2c7eb2"/>
  <path id="path834" d="m24.007 24.168s-1.7529-2.5524-1.5996-3.9991c0.29591-2.7932 4.1591-4.1012 4.7693-6.8429 0.27293-1.2264-0.7702-2.3402-0.7702-2.3402s0.40002 1.2106 0.11849 2.0736c-0.92934 2.849-5.7034 3.8175-5.7765 6.8133-0.04426 1.8147 3.2585 4.2954 3.2585 4.2954z" fill="#d35244"/>
  <path id="path836" d="m25.192 25.027s1.8936-1.2994 1.9847-2.3106c0.10167-1.1284-1.8884-1.8126-1.7181-2.9327 0.30452-2.0033 3.9991-3.9399 3.9991-3.9399s-4.5303 0.77216-5.5099 3.9991c-0.3789 1.2481 1.4321 2.2873 1.57 3.5844 0.05755 0.54112-0.32586 1.5996-0.32586 1.5996z" fill="#d35244"/>
  <path id="path838" d="m18.378 31.485s-3.4329 0.16079-3.2289 1.3034c0.19336 1.0831 5.8891 1.4519 8.8869 1.3923 8.8725-0.17652 7.6724-2.2217 7.6724-2.2217s0.23322 1.2668-7.5835 1.57c-2.5397 0.09853-7.4392-0.28686-7.5539-1.0368-0.1042-0.68166 1.807-1.0072 1.807-1.0072z" fill="#2c7eb2"/>
  <path id="path840" d="m18.615 34.418s4.8976 0.3933 7.3465 0.29623c5.07-0.20097 6.9614-1.6589 6.9614-1.6589s-0.90222 2.0032-7.1095 2.1921c-4.842 0.14738-7.1984-0.82945-7.1984-0.82945z" fill="#2c7eb2"/>
  <path id="path842" d="m29.22 28.878s2.8814-1.6165 2.8438-2.9919c-0.04858-1.78-2.2217-1.6589-2.2217-1.6589s3.0265-0.83197 3.1993 1.7774c0.10529 1.5902-3.8214 2.8734-3.8214 2.8734z" fill="#2c7eb2"/>
 </g>
</svg>
