<?xml version="1.0" encoding="UTF-8"?>
<!-- Created with Inkscape (http://www.inkscape.org/) -->
<svg id="SVGRoot" width="48px" height="48px" version="1.1" viewBox="0 0 48 48" xmlns="http://www.w3.org/2000/svg" xmlns:cc="http://creativecommons.org/ns#" xmlns:dc="http://purl.org/dc/elements/1.1/" xmlns:rdf="http://www.w3.org/1999/02/22-rdf-syntax-ns#" xmlns:xlink="http://www.w3.org/1999/xlink">
 <defs id="defs815">
  <style id="style819">.cls-1{fill:none;stroke:#fff;stroke-linecap:round;stroke-linejoin:round;}</style>
  <linearGradient id="linearGradient1033" x1="27" x2="34" y1="41" y2="38" gradientUnits="userSpaceOnUse">
   <stop id="stop1027" stop-color="#bac5f3" offset="0"/>
   <stop id="stop1029" stop-color="#729dec" offset="1"/>
  </linearGradient>
  <style id="style819-2">.cls-1{fill:none;stroke:#fff;stroke-linecap:round;stroke-linejoin:round;}</style>
  <style id="style819-3">.cls-1{fill:none;stroke:#fff;stroke-linecap:round;stroke-linejoin:round;}</style>
  <style id="style819-1">.cls-1{fill:none;stroke:#fff;stroke-linecap:round;stroke-linejoin:round;}</style>
  <style id="style2">.a{fill:none;stroke:#b1b5bd;stroke-linecap:round;stroke-linejoin:round;isolation:isolate;opacity:0.63;}</style>
  <style id="style819-12">.cls-1{fill:none;stroke:#fff;stroke-linecap:round;stroke-linejoin:round;}</style>
  <style id="style819-0">.cls-1{fill:none;stroke:#fff;stroke-linecap:round;stroke-linejoin:round;}</style>
  <style id="style819-3-4">.cls-1{fill:none;stroke:#fff;stroke-linecap:round;stroke-linejoin:round;}</style>
  <style id="style819-1-7">.cls-1{fill:none;stroke:#fff;stroke-linecap:round;stroke-linejoin:round;}</style>
  <style id="style2-3">.a{fill:none;stroke:#b1b5bd;stroke-linecap:round;stroke-linejoin:round;isolation:isolate;opacity:0.63;}</style>
  <style id="style819-12-9">.cls-1{fill:none;stroke:#fff;stroke-linecap:round;stroke-linejoin:round;}</style>
 </defs>
 <metadata id="metadata818">
  <rdf:RDF>
   <cc:Work rdf:about="">
    <dc:format>image/svg+xml</dc:format>
    <dc:type rdf:resource="http://purl.org/dc/dcmitype/StillImage"/>
    <dc:title/>
   </cc:Work>
  </rdf:RDF>
 </metadata>
 <g id="layer1">
  <rect id="rect1373-5" x="4" y="4" width="40" height="40" ry="8" fill="#414678" fill-rule="evenodd" style="paint-order:stroke fill markers"/>
  <path id="path856" d="m10 17c0 3 0.0198 3.6403-1 5-3 4-3 8-3 8-2-2-2-4-2-4v10c0 4.432 3.568 8 8 8h15s-8.768-4.688-10-9c-2-7-1-16-7-18z" fill="#586bb5"/>
  <path id="path860" d="m33 13c-11 0-13 7-13 7-4 3-3 7-3 7l4 17h15c4.432 0 8-3.568 8-8v-11c-1-3-3-5-3-5h3c-2-3-4-3-4-3l4-1s-2-3-11-3z" fill="#729dec"/>
  <path id="path864" d="m22 41s2 2 6 2c7 0 10-7 10-7l-6-3z" fill="url(#linearGradient1033)"/>
  <path id="path858" d="m12 29c-3.5 3-4 6.5-3.625 9.25s1.625 4.75 1.625 4.75-5-3-6-8v1c0 4.432 3.568 8 8 8h9s-9-4-9-15z" fill="#729dec"/>
  <path id="path862" d="m24 24c-4.9554 0-11 3-11 10s8 10 8 10h4c-3-2-2-3-2-3s11 0 11-8c0-6-5-9-10-9z" fill="#bac8d7"/>
  <path id="path886" d="m24 24c-3.3034 0-7.0821 1.342-9.2402 4.3047l7.8945 7.1758c0.76298 0.69383 1.9284 0.69383 2.6914 0l7.5469-6.8613c-1.7454-3.0737-5.3139-4.6191-8.8926-4.6191z" color="#000000" color-rendering="auto" dominant-baseline="auto" fill="#fff" image-rendering="auto" shape-rendering="auto" solid-color="#000000" style="font-feature-settings:normal;font-variant-alternates:normal;font-variant-caps:normal;font-variant-ligatures:normal;font-variant-numeric:normal;font-variant-position:normal;isolation:auto;mix-blend-mode:normal;shape-padding:0;text-decoration-color:#000000;text-decoration-line:none;text-decoration-style:solid;text-indent:0;text-orientation:mixed;text-transform:none;white-space:normal"/>
  <path id="path866" d="m33 13c-11 0-13 7-13 7-2.7156 2.0367-3.1156 4.5064-3.0996 5.9004l0.099609 0.099609s2-4 7-4l-2-2s2-6 13-6c3.0732 0 9 2 9 2s-2-3-11-3z" fill="#bac5f3"/>
  <path id="path868" d="m23.574 19.239s0.68213-0.91234 1.193-1.0633c1.0954-0.3237 1.7117 0.23341 1.7117 0.23341s-0.09273 1.3528-1.0892 1.5301c-1.2881 0.22922-1.8154-0.70022-1.8154-0.70022z" fill="#fff"/>
  <path id="rect817" d="m12 4c-4.432 0-8 3.568-8 8v24c0 4.432 3.568 8 8 8h24c4.432 0 8-3.568 8-8v-24c0-4.432-3.568-8-8-8h-24zm0 1h24c3.878 0 7 3.122 7 7v24c0 3.878-3.122 7-7 7h-24c-3.878 0-7-3.122-7-7v-24c0-3.878 3.122-7 7-7z" fill-rule="evenodd" opacity=".3" style="paint-order:stroke fill markers"/>
 </g>
</svg>
