<?xml version="1.0" encoding="UTF-8"?>
<!-- Created with Inkscape (http://www.inkscape.org/) -->
<svg id="SVGRoot" width="48px" height="48px" version="1.1" viewBox="0 0 48 48" xmlns="http://www.w3.org/2000/svg" xmlns:cc="http://creativecommons.org/ns#" xmlns:dc="http://purl.org/dc/elements/1.1/" xmlns:rdf="http://www.w3.org/1999/02/22-rdf-syntax-ns#">
 <defs id="defs815">
  <style id="style819">.cls-1{fill:none;stroke:#fff;stroke-linecap:round;stroke-linejoin:round;}</style>
 </defs>
 <metadata id="metadata818">
  <rdf:RDF>
   <cc:Work rdf:about="">
    <dc:format>image/svg+xml</dc:format>
    <dc:type rdf:resource="http://purl.org/dc/dcmitype/StillImage"/>
    <dc:title/>
   </cc:Work>
  </rdf:RDF>
 </metadata>
 <g id="layer1">
  <rect id="rect1373-5" x="4" y="4" width="40" height="40" ry="8" fill="#4e4e4e" fill-rule="evenodd" style="paint-order:stroke fill markers"/>
  <path id="rect817" d="m12 4c-4.432 0-8 3.568-8 8v24c0 4.432 3.568 8 8 8h24c4.432 0 8-3.568 8-8v-24c0-4.432-3.568-8-8-8h-24zm0 1h24c3.878 0 7 3.122 7 7v24c0 3.878-3.122 7-7 7h-24c-3.878 0-7-3.122-7-7v-24c0-3.878 3.122-7 7-7z" fill-rule="evenodd" opacity=".4" style="paint-order:stroke fill markers"/>
  <rect id="rect945" x="10" y="10" width="28" height="28" ry="14" fill="#fff" fill-rule="evenodd" style="paint-order:stroke fill markers"/>
  <path id="path862" d="m23 17v7l5 5" fill="none" stroke="#56595b" stroke-linecap="round" stroke-linejoin="round" stroke-width="2"/>
  <rect id="rect854-3" x="22" y="12" width="2" height="2" ry=".92777" fill="#56595b" fill-rule="evenodd" style="paint-order:stroke fill markers"/>
  <rect id="rect856-3" x="12" y="24" width="2" height="2" ry=".97766" fill="#56595b" fill-rule="evenodd" style="paint-order:stroke fill markers"/>
  <rect id="rect858-5" x="34" y="22" width="2" height="2" ry="1" fill="#56595b" fill-rule="evenodd" style="paint-order:stroke fill markers"/>
  <rect id="rect860-0" x="24" y="34" width="2" height="2" ry="1" fill="#56595b" fill-rule="evenodd" style="paint-order:stroke fill markers"/>
  <rect id="rect933" x="30" y="15" width="2" height="2" ry="1" fill-rule="evenodd" opacity=".25" style="paint-order:stroke fill markers"/>
  <rect id="rect935" x="15" y="16" width="2" height="2" ry=".92777" fill-rule="evenodd" opacity=".25" style="paint-order:stroke fill markers"/>
  <rect id="rect937" x="16" y="31" width="2" height="2" ry=".97766" fill-rule="evenodd" opacity=".25" style="paint-order:stroke fill markers"/>
  <rect id="rect939" x="31" y="30" width="2" height="2" ry="1" fill-rule="evenodd" opacity=".25" style="paint-order:stroke fill markers"/>
 </g>
</svg>
