<?xml version="1.0" encoding="UTF-8"?>
<!-- Created with Inkscape (http://www.inkscape.org/) -->
<svg id="SVGRoot" width="48px" height="48px" version="1.1" viewBox="0 0 48 48" xmlns="http://www.w3.org/2000/svg" xmlns:cc="http://creativecommons.org/ns#" xmlns:dc="http://purl.org/dc/elements/1.1/" xmlns:rdf="http://www.w3.org/1999/02/22-rdf-syntax-ns#">
 <defs id="defs815">
  <style id="style819">.cls-1{fill:none;stroke:#fff;stroke-linecap:round;stroke-linejoin:round;}</style>
 </defs>
 <metadata id="metadata818">
  <rdf:RDF>
   <cc:Work rdf:about="">
    <dc:format>image/svg+xml</dc:format>
    <dc:type rdf:resource="http://purl.org/dc/dcmitype/StillImage"/>
    <dc:title/>
   </cc:Work>
  </rdf:RDF>
 </metadata>
 <g id="layer1">
  <rect id="rect1373-5" x="4" y="4" width="40" height="40" ry="8" fill="#4e4e4e" fill-rule="evenodd" style="paint-order:stroke fill markers"/>
  <path id="rect817" d="m12 4c-4.432 0-8 3.568-8 8v24c0 4.432 3.568 8 8 8h24c4.432 0 8-3.568 8-8v-24c0-4.432-3.568-8-8-8h-24zm0 1h24c3.878 0 7 3.122 7 7v24c0 3.878-3.122 7-7 7h-24c-3.878 0-7-3.122-7-7v-24c0-3.878 3.122-7 7-7z" fill-rule="evenodd" opacity=".4" style="paint-order:stroke fill markers"/>
  <path id="path817-3" d="m18 16v16l14-8z" fill="#b072dd" stroke="#b072dd" stroke-linecap="round" stroke-linejoin="round" stroke-width="8"/>
  <path id="path817-3-3" d="m26.066 16.002c-2.2335-0.036881-4.0655 1.763-4.0664 3.998v12l-3.9961 3.9961a4.0004 4.0004 0 0 0 1.9805-0.52344l2.0156-1.1523 11.984-6.8477c2.686-1.536 2.686-5.4093 0-6.9453z" color="#000000" color-rendering="auto" dominant-baseline="auto" fill="#729dec" image-rendering="auto" shape-rendering="auto" solid-color="#000000" style="font-feature-settings:normal;font-variant-alternates:normal;font-variant-caps:normal;font-variant-ligatures:normal;font-variant-numeric:normal;font-variant-position:normal;isolation:auto;mix-blend-mode:normal;shape-padding:0;text-decoration-color:#000000;text-decoration-line:none;text-decoration-style:solid;text-indent:0;text-orientation:mixed;text-transform:none;white-space:normal"/>
  <path id="path817-3-9" d="m14 18.279v13.721c8.51e-4 3.0707 3.3179 4.9956 5.9844 3.4727l8.0156-4.5801v-1.8926c0-1.9302-0.53975-3.029-2.0156-3.873z" color="#000000" color-rendering="auto" dominant-baseline="auto" fill="#fff" image-rendering="auto" opacity=".4" shape-rendering="auto" solid-color="#000000" style="font-feature-settings:normal;font-variant-alternates:normal;font-variant-caps:normal;font-variant-ligatures:normal;font-variant-numeric:normal;font-variant-position:normal;isolation:auto;mix-blend-mode:normal;shape-padding:0;text-decoration-color:#000000;text-decoration-line:none;text-decoration-style:solid;text-indent:0;text-orientation:mixed;text-transform:none;white-space:normal"/>
  <rect id="rect946" x="14" y="28" width="8" height="8" ry="4" fill="#ffdd75" fill-rule="evenodd" style="paint-order:normal"/>
  <path id="path1067" d="m18 28c-4 0-4-4-4-4v8z" fill="#ffdd75"/>
  <path id="rect1118" d="m32 20c-2.216 0-4 1.784-4 4v6.8926l5.9844-3.4199c1.343-0.76802 2.0137-2.1203 2.0137-3.4727h0.001953c0-2.216-1.784-4-4-4z" fill="#96dfd3" fill-rule="evenodd" style="paint-order:normal"/>
 </g>
</svg>
