<?xml version="1.0" encoding="UTF-8"?>
<!-- Created with Inkscape (http://www.inkscape.org/) -->
<svg id="SVGRoot" width="48px" height="48px" version="1.1" viewBox="0 0 48 48" xmlns="http://www.w3.org/2000/svg" xmlns:cc="http://creativecommons.org/ns#" xmlns:dc="http://purl.org/dc/elements/1.1/" xmlns:rdf="http://www.w3.org/1999/02/22-rdf-syntax-ns#" xmlns:xlink="http://www.w3.org/1999/xlink">
 <defs id="defs815">
  <style id="style819">.cls-1{fill:none;stroke:#fff;stroke-linecap:round;stroke-linejoin:round;}</style>
 </defs>
 <metadata id="metadata818">
  <rdf:RDF>
   <cc:Work rdf:about="">
    <dc:format>image/svg+xml</dc:format>
    <dc:type rdf:resource="http://purl.org/dc/dcmitype/StillImage"/>
    <dc:title/>
   </cc:Work>
  </rdf:RDF>
 </metadata>
 <g id="layer1">
  <rect id="rect1373" x="4" y="4" width="40" height="40" ry="8" fill="#e5a771" fill-rule="evenodd" style="paint-order:stroke fill markers"/>
  <path id="path886" d="m30 11c1.662 0 3 1.338 3 3s-1.338 3-3 3-3-1.338-3-3 1.338-3 3-3zm-10 0c1.662 0 3 1.338 3 3s-1.338 3-3 3-3-1.338-3-3 1.338-3 3-3zm18 6c1.662 0 3 1.338 3 3s-1.338 3-3 3-3-1.338-3-3 1.338-3 3-3zm-26 0c1.662 0 3 1.338 3 3s-1.338 3-3 3-3-1.338-3-3 1.338-3 3-3zm13 4c4 0 12 3.5279 12 8 0 8-12 8-12 8s-12 0-12-8c0-4.4721 8-8 12-8z" fill="#7d4836"/>
  <path id="rect817" d="m12 4c-4.432 0-8 3.568-8 8v24c0 4.432 3.568 8 8 8h24c4.432 0 8-3.568 8-8v-24c0-4.432-3.568-8-8-8h-24zm0 1h24c3.878 0 7 3.122 7 7v24c0 3.878-3.122 7-7 7h-24c-3.878 0-7-3.122-7-7v-24c0-3.878 3.122-7 7-7z" fill-rule="evenodd" opacity=".3" style="paint-order:stroke fill markers"/>
  <path id="path893" d="m34 11c-6.648 0-12 5.352-12 12 0 2.4502 0.73144 4.7221 1.9824 6.6172-0.24216 1.0046-0.78891 2.1893-1.9824 3.3828l2 2c1.1935-1.1935 2.3782-1.7403 3.3828-1.9824 1.8951 1.251 4.167 1.9824 6.6172 1.9824 6.648 0 12-5.352 12-12s-5.352-12-12-12z" fill="#b7bfc2"/>
  <rect id="rect830" transform="scale(-1,1)" x="-44" y="13" width="20" height="20" ry="10" fill="#bdd1e9" fill-rule="evenodd" style="paint-order:normal"/>
  <path id="rect828-3-4" d="m34 11c6.648 0 12 5.352 12 12s-5.352 12-12 12c-2.4502 0-4.7221-0.73144-6.6172-1.9824-1.0046 0.24216-3.0793 1.2754-4.3828 2.9824l-2-2c1.707-1.3035 2.7403-3.3782 2.9824-4.3828-1.251-1.8951-1.9824-4.167-1.9824-6.6172 0-6.648 5.352-12 12-12zm0 1c-6.1113 0-11 4.8887-11 11 0 2.2512 0.66913 4.3284 1.8164 6.0664 0.15306 0.23118 0.20328 0.51553 0.13867 0.78516-0.22387 0.92874-1.7905 2.9913-2.6367 4.0527l0.77734 0.77734c1.0614-0.84619 3.124-2.4129 4.0527-2.6367 0.26963-0.06461 0.55397-0.01439 0.78516 0.13867 1.738 1.1473 3.8152 1.8164 6.0664 1.8164 6.1113 0 11-4.8887 11-11s-4.8887-11-11-11z" fill-rule="evenodd" opacity=".25" style="paint-order:normal"/>
  <path id="path891" d="m16 44-3-3 8-8 3 3z" fill="#4e4e4e" stroke="#4e4e4e" stroke-linecap="round" stroke-linejoin="round" stroke-width="2"/>
  <path id="path1116" d="m21.016 32a1.0001 1.0001 0 0 1 0.69141 0.29297l3 3a1.0001 1.0001 0 0 1 0 1.4141l-8 8a1.0001 1.0001 0 0 1-1.4141 0l-3-3a1.0001 1.0001 0 0 1 0-1.4141l8-8a1.0001 1.0001 0 0 1 0.72266-0.29297zm-0.015625 1-8 8 3 3 8-8z" color="#000000" color-rendering="auto" dominant-baseline="auto" image-rendering="auto" opacity=".5" shape-rendering="auto" solid-color="#000000" style="font-feature-settings:normal;font-variant-alternates:normal;font-variant-caps:normal;font-variant-ligatures:normal;font-variant-numeric:normal;font-variant-position:normal;isolation:auto;mix-blend-mode:normal;shape-padding:0;text-decoration-color:#000000;text-decoration-line:none;text-decoration-style:solid;text-indent:0;text-orientation:mixed;text-transform:none;white-space:normal"/>
  <path id="rect1136" d="m34 13c5.54 0 10 4.46 10 10s-4.46 10-10 10-10-4.46-10-10 4.46-10 10-10zm0 1c-4.986 0-9 4.014-9 9s4.014 9 9 9 9-4.014 9-9-4.014-9-9-9z" fill-rule="evenodd" opacity=".25" style="paint-order:normal"/>
  <path id="path886-1" d="m32.787 15.102c-1.4484 0.21902-2.7681 0.81429-3.8496 1.6973 0.33106 0.12519 0.68655 0.20117 1.0625 0.20117 1.2717 0 2.3491-0.78596 2.7871-1.8984zm5.2129 1.8984c-1.662 0-3 1.338-3 3s1.338 3 3 3 3-1.338 3-3c0-0.62012-0.18794-1.1946-0.50781-1.6719-0.007085-0.009847-0.014356-0.019484-0.021485-0.029297-0.54-0.78475-1.442-1.2988-2.4707-1.2988zm-11.766 4.1016c-0.14735 0.60895-0.23438 1.2429-0.23438 1.8984 0 4.432 3.568 8 8 8 1.0064 0 1.964-0.193 2.8496-0.5293 0.096404-0.45799 0.15039-0.94619 0.15039-1.4707 0-4.051-6.5563-7.3173-10.766-7.8984z" opacity=".25"/>
 </g>
</svg>
