<?xml version="1.0" encoding="UTF-8"?>
<!-- Created with Inkscape (http://www.inkscape.org/) -->
<svg id="SVGRoot" width="48px" height="48px" version="1.1" viewBox="0 0 48 48" xmlns="http://www.w3.org/2000/svg" xmlns:cc="http://creativecommons.org/ns#" xmlns:dc="http://purl.org/dc/elements/1.1/" xmlns:rdf="http://www.w3.org/1999/02/22-rdf-syntax-ns#" xmlns:xlink="http://www.w3.org/1999/xlink">
 <defs id="defs815">
  <style id="style819">.cls-1{fill:none;stroke:#fff;stroke-linecap:round;stroke-linejoin:round;}</style>
  <linearGradient id="linearGradient921" x1="24" x2="24" y1="3" y2="24" gradientUnits="userSpaceOnUse">
   <stop id="stop923" stop-color="#b7bfc2" offset="0"/>
   <stop id="stop926" stop-color="#fff" offset=".090909"/>
   <stop id="stop928" stop-color="#b7bfc2" offset=".45455"/>
   <stop id="stop930" stop-color="#7c8487" offset=".75"/>
   <stop id="stop932" stop-color="#4e4e4e" offset=".875"/>
   <stop id="stop934" stop-color="#7c8487" offset="1"/>
  </linearGradient>
  <linearGradient id="linearGradient1090" x1="24" x2="24" y1="3" y2="11" gradientUnits="userSpaceOnUse">
   <stop id="stop941" stop-color="#d35244" offset="0"/>
   <stop id="stop1061" stop-color="#f97263" offset=".25"/>
   <stop id="stop1059" stop-color="#d35244" offset=".5"/>
   <stop id="stop943" stop-color="#943657" offset="1"/>
  </linearGradient>
 </defs>
 <metadata id="metadata818">
  <rdf:RDF>
   <cc:Work rdf:about="">
    <dc:format>image/svg+xml</dc:format>
    <dc:type rdf:resource="http://purl.org/dc/dcmitype/StillImage"/>
    <dc:title/>
   </cc:Work>
  </rdf:RDF>
 </metadata>
 <g id="layer1">
  <rect id="rect1373-5" x="4" y="4" width="40" height="40" ry="8" fill="#7c8487" fill-rule="evenodd" style="paint-order:stroke fill markers"/>
  <rect id="rect818" x="8" y="8" width="32" height="32" ry="5" fill="#efefef" fill-rule="evenodd" style="paint-order:normal"/>
  <path id="rect817" d="m12 4c-4.432 0-8 3.568-8 8v24c0 4.432 3.568 8 8 8h24c4.432 0 8-3.568 8-8v-24c0-4.432-3.568-8-8-8h-24zm0 1h24c3.878 0 7 3.122 7 7v24c0 3.878-3.122 7-7 7h-24c-3.878 0-7-3.122-7-7v-24c0-3.878 3.122-7 7-7z" fill-rule="evenodd" opacity=".3" style="paint-order:stroke fill markers"/>
  <path id="path820" d="m24 12-7 8h3v8h-3l7 8 7-8h-3v-8h3z" fill="#4e4e4e"/>
  <rect id="rect823-6" x="10" y="10" width="28" height="10" rx="10" ry="2" fill-rule="evenodd" opacity=".25" style="paint-order:normal"/>
  <rect id="rect823" x="10" y="2" width="28" height="10" rx="10" ry="2" fill="url(#linearGradient1090)" fill-rule="evenodd" style="paint-order:normal"/>
  <path id="rect823-1" d="m20 2c-5.54 0-10 0.892-10 2v6c0 1.108 4.46 2 10 2h8c5.54 0 10-0.892 10-2v-6c0-1.108-4.46-2-10-2zm2 1h4c6.094 0 11 0.669 11 1.5v5c0 0.831-4.906 1.5-11 1.5h-4c-6.094 0-11-0.669-11-1.5v-5c0-0.831 4.906-1.5 11-1.5z" fill-rule="evenodd" opacity=".25" style="paint-order:normal"/>
  <rect id="rect825" x="20" y="2" width="8" height="22" fill="url(#linearGradient921)" fill-rule="evenodd" style="paint-order:normal"/>
  <path id="path1142" d="m21 24v5h-1.5l4.5 5.5 4.5-5.5h-1.5v-5h1v4h3l-7 8-7-8h3v-4z" opacity=".4"/>
  <path id="rect1185" d="m20 2v22h1v-21h6v21h1v-22z" fill-rule="evenodd" opacity=".25" style="paint-order:normal"/>
  <path id="rect1193" d="m20 24v1h8v-1zm0 2v1h8v-1zm-3 2 0.875 1h12.25l0.875-1h-11zm1.75 2 0.875 1h8.75l0.875-1zm1.75 2 0.875 1h5.25l0.875-1zm1.75 2 0.875 1h1.75l0.875-1z" fill-rule="evenodd" opacity=".25" style="paint-order:normal"/>
 </g>
</svg>
