<?xml version="1.0" encoding="UTF-8"?>
<!-- Created with Inkscape (http://www.inkscape.org/) -->
<svg id="SVGRoot" width="48px" height="48px" version="1.1" viewBox="0 0 48 48" xmlns="http://www.w3.org/2000/svg" xmlns:cc="http://creativecommons.org/ns#" xmlns:dc="http://purl.org/dc/elements/1.1/" xmlns:rdf="http://www.w3.org/1999/02/22-rdf-syntax-ns#">
 <defs>
  <style>.cls-1{fill:none;stroke:#fff;stroke-linecap:round;stroke-linejoin:round;}</style>
 </defs>
 <metadata>
  <rdf:RDF>
   <cc:Work rdf:about="">
    <dc:format>image/svg+xml</dc:format>
    <dc:type rdf:resource="http://purl.org/dc/dcmitype/StillImage"/>
   </cc:Work>
  </rdf:RDF>
 </metadata>
 <rect x="4" y="4" width="40" height="40" ry="8" fill="#6A7FAE" fill-rule="evenodd" style="paint-order:stroke fill markers"/>
 <path d="m12 4c-4.432 0-8 3.568-8 8v24c0 4.432 3.568 8 8 8h24c4.432 0 8-3.568 8-8v-24c0-4.432-3.568-8-8-8zm0 1h24c3.878 0 7 3.122 7 7v24c0 3.878-3.122 7-7 7h-24c-3.878 0-7-3.122-7-7v-24c0-3.878 3.122-7 7-7z" fill-rule="evenodd" opacity=".3" style="paint-order:stroke fill markers"/>
 <path d="m12 6c-3.0783 0-5.597 2.2961-5.9531 5.2754l8.9531 16.725 9-14h18v-2c0-3.324-2.676-6-6-6z" fill="#0B71A2"/>
 <path d="m24 14 10 11-9 17h11c3.324 0 6-2.676 6-6v-22z" fill="#7AB6E8"/>
 <path d="m6 11 12 17h-3z" opacity=".15"/>
 <path d="m25 42 4-14 5-3z" opacity=".15"/>
 <path d="m42 14h-18v2z" opacity=".15"/>
 <rect x="14" y="14" width="20" height="20" ry="10" fill="#fff" fill-rule="evenodd" style="paint-order:stroke fill markers"/>
 <rect x="16" y="16" width="16" height="16" ry="8" fill="#6a7fae" fill-rule="evenodd" style="paint-order:stroke fill markers"/>
</svg>
