<?xml version="1.0" encoding="UTF-8"?>
<!-- Created with Inkscape (http://www.inkscape.org/) -->
<svg id="SVGRoot" width="48px" height="48px" version="1.1" viewBox="0 0 48 48" xmlns="http://www.w3.org/2000/svg" xmlns:cc="http://creativecommons.org/ns#" xmlns:dc="http://purl.org/dc/elements/1.1/" xmlns:rdf="http://www.w3.org/1999/02/22-rdf-syntax-ns#">
 <defs id="defs815">
  <style id="style819">.cls-1{fill:none;stroke:#fff;stroke-linecap:round;stroke-linejoin:round;}</style>
 </defs>
 <metadata id="metadata818">
  <rdf:RDF>
   <cc:Work rdf:about="">
    <dc:format>image/svg+xml</dc:format>
    <dc:type rdf:resource="http://purl.org/dc/dcmitype/StillImage"/>
    <dc:title/>
   </cc:Work>
  </rdf:RDF>
 </metadata>
 <g id="layer1">
  <rect id="rect1373-5" x="4" y="4" width="40" height="40" ry="8" fill="#f68d59" fill-rule="evenodd" style="paint-order:stroke fill markers"/>
  <path id="rect817" d="m12 4c-4.432 0-8 3.568-8 8v24c0 4.432 3.568 8 8 8h24c4.432 0 8-3.568 8-8v-24c0-4.432-3.568-8-8-8h-24zm0 1h24c3.878 0 7 3.122 7 7v24c0 3.878-3.122 7-7 7h-24c-3.878 0-7-3.122-7-7v-24c0-3.878 3.122-7 7-7z" fill-rule="evenodd" opacity=".3" style="paint-order:stroke fill markers"/>
  <path id="path839" d="m24 8c-12 0-12 10-12 10s-2 1-2 5c0 7 4 7 4 7v-12s1-8 10-8 10 8 10 8v12s4 0 4-7c0-4-2-5-2-5s0-10-12-10z" fill="#4e4e4e"/>
  <path id="path841" d="m16 17h6l-3 5h2v10h6v-15h5v19s-4 1-7 1c-9 0-9-7-9-7z" fill="#fff"/>
  <path id="path843" d="m8.4696 28s-1-2-1-4 1-4 1-4" fill="none" stroke="#4e4e4e" stroke-linecap="round" stroke-linejoin="round"/>
  <path id="path843-8" d="m39.53 28s1-2 1-4-1-4-1-4" fill="none" stroke="#4e4e4e" stroke-linecap="round" stroke-linejoin="round"/>
 </g>
</svg>
