<?xml version="1.0" encoding="UTF-8"?>
<!-- Created with Inkscape (http://www.inkscape.org/) -->
<svg id="SVGRoot" width="48px" height="48px" version="1.1" viewBox="0 0 48 48" xmlns="http://www.w3.org/2000/svg" xmlns:cc="http://creativecommons.org/ns#" xmlns:dc="http://purl.org/dc/elements/1.1/" xmlns:rdf="http://www.w3.org/1999/02/22-rdf-syntax-ns#" xmlns:xlink="http://www.w3.org/1999/xlink">
 <defs id="defs815">
  <style id="style819">.cls-1{fill:none;stroke:#fff;stroke-linecap:round;stroke-linejoin:round;}</style>
  <style id="style819-6">.cls-1{fill:none;stroke:#fff;stroke-linecap:round;stroke-linejoin:round;}</style>
 </defs>
 <metadata id="metadata818">
  <rdf:RDF>
   <cc:Work rdf:about="">
    <dc:format>image/svg+xml</dc:format>
    <dc:type rdf:resource="http://purl.org/dc/dcmitype/StillImage"/>
    <dc:title/>
   </cc:Work>
  </rdf:RDF>
 </metadata>
 <g id="layer1" fill-rule="evenodd">
  <rect id="rect1373-5" x="4" y="4" width="40" height="40" ry="8" fill="#efefef" style="paint-order:stroke fill markers"/>
  <path id="rect817" d="m12 4c-4.432 0-8 3.568-8 8v24c0 4.432 3.568 8 8 8h24c4.432 0 8-3.568 8-8v-24c0-4.432-3.568-8-8-8h-24zm0 1h24c3.878 0 7 3.122 7 7v24c0 3.878-3.122 7-7 7h-24c-3.878 0-7-3.122-7-7v-24c0-3.878 3.122-7 7-7z" opacity=".3" style="paint-order:stroke fill markers"/>
  <path id="rect1373-7" d="m6 36c0 3.324 2.676 6 6 6h24c3.324 0 6-2.676 6-6z" fill="#f97263" style="paint-order:stroke fill markers"/>
  <path id="rect952" d="m24 9c-1.662 0-3 1.338-3 3 0 1.3091 0.83532 2.4068 2 2.8184v0.05274a1.0001 1.0001 0 0 0 0 0.25976v1.3027l-4.5137 2.709a1.0001 1.0001 0 0 0-0.48633 0.85742v2h-1v4h4v-4h-1v-1.4336l3-1.8008v9.2344h-3l4 6 4-6h-3v-10.854a1.0001 1.0001 0 0 0 0-0.30859v-0.07227l3 1.8008v1.709c-0.5958 0.34556-1 0.98354-1 1.7246 0 1.108 0.892 2 2 2s2-0.892 2-2c0-0.74107-0.4042-1.379-1-1.7246v-2.2754a1.0001 1.0001 0 0 0-0.48633-0.85742l-4.1426-2.4863c0.96497-0.49758 1.6289-1.4917 1.6289-2.6562 0-1.662-1.338-3-3-3z" opacity=".35" style="paint-order:normal"/>
 </g>
</svg>
