<?xml version="1.0" encoding="UTF-8"?>
<!-- Created with Inkscape (http://www.inkscape.org/) -->
<svg id="SVGRoot" width="48px" height="48px" version="1.1" viewBox="0 0 48 48" xmlns="http://www.w3.org/2000/svg" xmlns:cc="http://creativecommons.org/ns#" xmlns:dc="http://purl.org/dc/elements/1.1/" xmlns:rdf="http://www.w3.org/1999/02/22-rdf-syntax-ns#" xmlns:xlink="http://www.w3.org/1999/xlink">
 <defs id="defs815">
  <style id="style819">.cls-1{fill:none;stroke:#fff;stroke-linecap:round;stroke-linejoin:round;}</style>
 </defs>
 <metadata id="metadata818">
  <rdf:RDF>
   <cc:Work rdf:about="">
    <dc:format>image/svg+xml</dc:format>
    <dc:type rdf:resource="http://purl.org/dc/dcmitype/StillImage"/>
    <dc:title/>
   </cc:Work>
  </rdf:RDF>
 </metadata>
 <g id="layer1">
  <rect id="rect1373" x="4" y="4" width="40" height="40" ry="8" fill="#efefef" fill-rule="evenodd" style="paint-order:stroke fill markers"/>
  <path id="rect817" d="m12 4c-4.432 0-8 3.568-8 8v24c0 4.432 3.568 8 8 8h24c4.432 0 8-3.568 8-8v-24c0-4.432-3.568-8-8-8h-24zm0 1h24c3.878 0 7 3.122 7 7v24c0 3.878-3.122 7-7 7h-24c-3.878 0-7-3.122-7-7v-24c0-3.878 3.122-7 7-7z" fill-rule="evenodd" opacity=".3" style="paint-order:stroke fill markers"/>
  <path id="rect990" d="m13 5v1.2754c-0.5958 0.34556-1 0.98354-1 1.7246 0 1.108 0.892 2 2 2s2-0.892 2-2c0-0.74107-0.4042-1.379-1-1.7246v-1.2754h-2zm20 0v1.2754c-0.5958 0.34556-1 0.98354-1 1.7246 0 1.108 0.892 2 2 2s2-0.892 2-2c0-0.74107-0.4042-1.379-1-1.7246v-1.2754h-2z" fill-rule="evenodd" opacity=".3" style="paint-order:stroke fill markers"/>
  <rect id="rect893" x="12" y="14" width="24" height="24" ry="2" fill="#54629b" fill-rule="evenodd" style="paint-order:normal"/>
  <rect id="rect891" x="14" y="16" width="20" height="20" ry="1" fill="#8babe7" fill-rule="evenodd" style="paint-order:normal"/>
  <path id="path828-9" d="m24 16.99c-3.324 0-6 2.6777-6 6.0039v1.002c0 2.23 1.2055 4.1617 3 5.1973v1.8066s-5.0273 1.0013-6.0273 2.002c-0.64475 0.64518-0.89231 2.0548-0.97266 2.998l10 1 10-1c-0.080352-0.9432-0.3279-2.3529-0.97266-2.998-1-1.0007-6.0273-2.002-6.0273-2.002v-1.8066c1.7945-1.0356 3-2.9673 3-5.1973v-1.002c0-3.3262-2.676-6.0039-6-6.0039z" fill="#54629b"/>
 </g>
</svg>
