<?xml version="1.0" encoding="UTF-8"?>
<!-- Created with Inkscape (http://www.inkscape.org/) -->
<svg id="SVGRoot" width="48px" height="48px" version="1.1" viewBox="0 0 48 48" xmlns="http://www.w3.org/2000/svg" xmlns:cc="http://creativecommons.org/ns#" xmlns:dc="http://purl.org/dc/elements/1.1/" xmlns:rdf="http://www.w3.org/1999/02/22-rdf-syntax-ns#" xmlns:xlink="http://www.w3.org/1999/xlink">
 <defs id="defs815">
  <style id="style819">.cls-1{fill:none;stroke:#fff;stroke-linecap:round;stroke-linejoin:round;}</style>
 </defs>
 <metadata id="metadata818">
  <rdf:RDF>
   <cc:Work rdf:about="">
    <dc:format>image/svg+xml</dc:format>
    <dc:type rdf:resource="http://purl.org/dc/dcmitype/StillImage"/>
    <dc:title/>
   </cc:Work>
  </rdf:RDF>
 </metadata>
 <g id="layer1">
  <rect id="rect1373" x="4" y="4" width="40" height="40" ry="8" fill="#b7bfc2" fill-rule="evenodd" style="paint-order:stroke fill markers"/>
  <path id="rect817" d="m12 4c-4.432 0-8 3.568-8 8v24c0 4.432 3.568 8 8 8h24c4.432 0 8-3.568 8-8v-24c0-4.432-3.568-8-8-8h-24zm0 1h24c3.878 0 7 3.122 7 7v24c0 3.878-3.122 7-7 7h-24c-3.878 0-7-3.122-7-7v-24c0-3.878 3.122-7 7-7z" fill-rule="evenodd" opacity=".3" style="paint-order:stroke fill markers"/>
  <rect id="rect821-0" x="8" y="8" width="32" height="32" ry="5" fill="#4e4e4e" fill-rule="evenodd" style="paint-order:stroke fill markers"/>
  <path id="path847" d="m16 15-2 11h-5v9c0 2.216 1.784 4 4 4h22c2.216 0 4-1.784 4-4v-9h-9l-2 3-2-7-2 2h-3l-2 10-3-19z" fill="#8e663e"/>
  <path id="path835" d="m16.027 12.002a1.0001 1.0001 0 0 0-1.0156 0.8457l-1.8691 12.152h-5.1426v0.83203a1.0001 1.0001 0 0 0 0 0.32617v0.8418h6a1.0001 1.0001 0 0 0 0.98828-0.84766l0.97461-6.3379 2.0469 14.326a1.0001 1.0001 0 0 0 1.9707 0.05469l1.8398-9.1953h2.1797a1.0001 1.0001 0 0 0 0.83203-0.44531l0.74609-1.1191 1.4512 5.8066a1.0001 1.0001 0 0 0 1.8027 0.3125l1.7031-2.5547h9.4648v-0.83203a1.0001 1.0001 0 0 0 0-0.32617v-0.8418h-10a1.0001 1.0001 0 0 0-0.83203 0.44531l-0.74609 1.1191-1.4512-5.8066a1.0001 1.0001 0 0 0-1.8027-0.3125l-1.7031 2.5547h-2.4648a1.0001 1.0001 0 0 0-0.98047 0.80469l-0.85547 4.2754-2.1738-15.221a1.0001 1.0001 0 0 0-0.96289-0.85742z" color="#000000" color-rendering="auto" dominant-baseline="auto" fill="#ffdd75" image-rendering="auto" shape-rendering="auto" solid-color="#000000" style="font-feature-settings:normal;font-variant-alternates:normal;font-variant-caps:normal;font-variant-ligatures:normal;font-variant-numeric:normal;font-variant-position:normal;isolation:auto;mix-blend-mode:normal;shape-padding:0;text-decoration-color:#000000;text-decoration-line:none;text-decoration-style:solid;text-indent:0;text-orientation:mixed;text-transform:none;white-space:normal"/>
 </g>
</svg>
