<?xml version="1.0" encoding="UTF-8"?>
<!-- Created with Inkscape (http://www.inkscape.org/) -->
<svg id="SVGRoot" width="48px" height="48px" version="1.1" viewBox="0 0 48 48" xmlns="http://www.w3.org/2000/svg" xmlns:cc="http://creativecommons.org/ns#" xmlns:dc="http://purl.org/dc/elements/1.1/" xmlns:rdf="http://www.w3.org/1999/02/22-rdf-syntax-ns#">
 <defs id="defs815">
  <style id="style819">.cls-1{fill:none;stroke:#fff;stroke-linecap:round;stroke-linejoin:round;}</style>
 </defs>
 <metadata id="metadata818">
  <rdf:RDF>
   <cc:Work rdf:about="">
    <dc:format>image/svg+xml</dc:format>
    <dc:type rdf:resource="http://purl.org/dc/dcmitype/StillImage"/>
    <dc:title/>
   </cc:Work>
  </rdf:RDF>
 </metadata>
 <g id="layer1">
  <rect id="rect1373-5" x="4" y="4" width="40" height="40" ry="8" fill="#96d56b" fill-rule="evenodd" style="paint-order:stroke fill markers"/>
  <path id="rect817" d="m12 4c-4.432 0-8 3.568-8 8v24c0 4.432 3.568 8 8 8h24c4.432 0 8-3.568 8-8v-24c0-4.432-3.568-8-8-8h-24zm0 1h24c3.878 0 7 3.122 7 7v24c0 3.878-3.122 7-7 7h-24c-3.878 0-7-3.122-7-7v-24c0-3.878 3.122-7 7-7z" fill-rule="evenodd" opacity=".3" style="paint-order:stroke fill markers"/>
  <path id="path828" d="m31.26 13.924c-0.077707-0.005783-0.16038-8.2e-4 -0.24805 0.017578-1.0171 0.21345-2.9299 0.57586-3.9453 0.79688-0.8724 0.18988-0.49414 0.98438-0.49414 0.98438l4.0352 9.2324s1.4093 3.1855-2.498 4.6309c-4.6419 1.717-6.957-2.0332-6.957-2.0332l-4.3594-9.8477s-0.3156-1.0076-1.4453-0.7832c-1.5517 0.30821-3.0227 0.58919-4.6543 0.92969-0.97379 0.20322-0.63867 1.2109-0.63867 1.2109l8.2285 22.938h7.8887l-3.3008-7.9727s2.3773 1.1374 6.166-0.3457c4.0998-1.6049 4.0879-4.3652 4.0879-4.3652s2.1048 1.6725 4.6055 1.6621c1.5981-0.006666 3.1216-0.53406 4.2695-1.0723v-3.5996c-0.60792 0.37006-1.2805 0.65963-1.9141 0.6543-2.1437-0.01804-3.3594-2.5645-3.3594-2.5645l-4.625-9.875s-0.29785-0.55718-0.8418-0.59766z" fill="#fff"/>
 </g>
</svg>
