<?xml version="1.0" encoding="UTF-8"?>
<!-- Created with Inkscape (http://www.inkscape.org/) -->
<svg id="SVGRoot" width="48px" height="48px" version="1.1" viewBox="0 0 48 48" xml:space="preserve" xmlns="http://www.w3.org/2000/svg" xmlns:cc="http://creativecommons.org/ns#" xmlns:dc="http://purl.org/dc/elements/1.1/" xmlns:rdf="http://www.w3.org/1999/02/22-rdf-syntax-ns#"><defs><style>.cls-1{fill:none;stroke:#fff;stroke-linecap:round;stroke-linejoin:round;}</style><style>.cls-1{fill:none;stroke:#fff;stroke-linecap:round;stroke-linejoin:round;}</style><style>.a{fill:none;stroke:#b1b5bd;stroke-linecap:round;stroke-linejoin:round;isolation:isolate;opacity:0.63;}</style><style>.a{fill:none;stroke:#b1b5bd;stroke-linecap:round;stroke-linejoin:round;isolation:isolate;opacity:0.63;}</style></defs><metadata><rdf:RDF><cc:Work rdf:about=""><dc:format>image/svg+xml</dc:format><dc:type rdf:resource="http://purl.org/dc/dcmitype/StillImage"/></cc:Work></rdf:RDF></metadata><rect x="4" y="4" width="40" height="40" ry="8" fill="#EB7396" fill-rule="evenodd" style="paint-order:stroke fill markers"/><path d="m12 4c-4.432 0-8 3.568-8 8v24c0 4.432 3.568 8 8 8h24c4.432 0 8-3.568 8-8v-24c0-4.432-3.568-8-8-8zm0 1h24c3.878 0 7 3.122 7 7v24c0 3.878-3.122 7-7 7h-24c-3.878 0-7-3.122-7-7v-24c0-3.878 3.122-7 7-7z" fill-rule="evenodd" opacity=".3" style="paint-order:stroke fill markers"/><g stroke-linecap="round" stroke-linejoin="round"><path d="m23.379 10.059c-1.3687-0.01891-2.6827 0.64921-3.4609 1.5449-0.77826 0.89571-1.1646 1.9063-1.4609 2.9004-0.0044 0.01479-0.0054 0.02426-0.0098 0.03906-0.42092-0.75132-0.86153-1.5091-1.6133-2.1289-0.87928-0.72489-2.272-1.1877-3.5898-0.90039-0.97678 0.21299-1.8561 0.6383-2.5176 1.4199-0.66152 0.78162-0.98535 2.1563-0.48438 3.2402 1.8398 3.9806 4.5312 9.4199 4.5312 9.4199l-0.17965-0.55664s0.15264 1.0041 0.8125 2c0.65986 0.99593 2.1397 2.1229 4.0273 2.0723 1.8544-0.0497 3.2571-1.0848 3.9648-2.0176 0.70483-0.9289 0.93752-1.8885 0.93945-1.8965 0.0087-0.03239 1.9048-7.1102 2.5977-11.094 0.17815-1.0242-0.09144-2.3108-0.91211-3.0859-0.82067-0.77514-1.7968-0.94532-2.6445-0.95703z" fill="#4e4e4e" stop-color="#000000"/><path d="m31.527 20.129c-5.0115-0.83683-9.4105 2.3601-10.287 6.5605-0.43258 2.0727-0.41615 4.4968 0.77148 6.6914 1.1876 2.1946 3.5874 3.9159 7.0137 4.5137 2.6166 0.45651 4.4994-0.73523 4.8301-0.95312 0.03775-0.01549 0.86022-0.34665 1.5566-1.1855 0.71228-0.85799 1.2082-2.5573 0.58398-4.1445-0.29284-0.74465-0.8972-1.3808-1.5195-1.7031-0.23799-0.12325-0.41784-0.09115-0.64062-0.15039 0.66036 0.07622 1.3712 0.05352 2.0527-0.25195 0.73497-0.32941 1.3729-0.92054 1.7109-1.584 0.33806-0.66344 0.39512-1.3188 0.36328-1.8301-0.06368-1.0226-0.47852-1.7461-0.47852-1.7461a2.0002 2.0002 0 0 0-0.02148-0.04297s-1.8738-3.4956-5.9355-4.1738zm-1.4102 7.3555c0.39008 0.07117 0.54111 0.19109 0.61914 0.25781 0.07803 0.06672-0.02148-0.06836-0.02148-0.06836l-0.02539-0.05078s0.37913 0.80315 1.2129 1.4492c0.32655 0.25304 0.84965 0.41652 1.3711 0.55469-0.14905-0.01516-0.34024-0.10884-0.47266-0.10938-0.93929-0.0038-1.6484 0.28125-1.6484 0.28125a2.0002 2.0002 0 0 0-0.35156 0.16797s-0.25784 0.15404-0.58398 0.29102c-0.32614 0.13698-0.73675 0.07686-0.29688 0.17188-1.3766-0.29735-1.5528-1.0588-1.4648-1.6758 0.03025-0.2123 0.26516-0.67499 0.60742-0.95312 0.34226-0.27814 0.67159-0.3863 1.0547-0.31641z" fill="#efefef" stop-color="#000000"/><path d="m23.199 27.098c0.63287-3.0324 4.0135-5.6613 8.0001-4.9957 3.0507 0.5094 4.5107 3.1639 4.5107 3.1639s0.8962 1.7268-0.63831 2.4146c-1.7234 0.77242-2.5958-0.9575-2.5958-0.9575s-0.50472-0.93448-2-1.2073c-2.0313-0.37059-3.7694 1.3367-4.0001 2.9558-0.23069 1.619 0.76588 3.4261 3.0213 3.9133 0.86558 0.18696 2.3405-0.70772 2.3405-0.70772s1.7804-0.64975 2.2979 0.66609c0.77733 1.9766-1.1064 2.7892-1.1064 2.7892s-1.7656 1.1214-3.6596 0.79098c-5.9708-1.0417-6.8991-5.3335-6.1703-8.8257z" fill="#4e4e4e" stroke-width="1.9965"/><path d="m12.057 15.334c-0.34518-0.74684 0.33099-1.5863 1.6136-1.866 2.956-0.64456 3.9847 4.6343 5.4199 6.9663 1.0856-3.0767 0.91503-8.4224 4.2614-8.3761 1.1042 0.01525 1.8197 0.51499 1.6136 1.7001-0.65557 3.7691-2.5651 10.947-2.5651 10.947s-0.57988 2.3396-3.0203 2.405c-2.3973 0.06425-2.8134-2.405-2.8134-2.405s-2.6908-5.436-4.5097-9.3713z" fill="#efefef" stroke-width="1.9647"/></g></svg>
