<?xml version="1.0" encoding="UTF-8"?>
<!-- Created with Inkscape (http://www.inkscape.org/) -->
<svg id="SVGRoot" width="48px" height="48px" version="1.1" viewBox="0 0 48 48" xml:space="preserve" xmlns="http://www.w3.org/2000/svg" xmlns:cc="http://creativecommons.org/ns#" xmlns:dc="http://purl.org/dc/elements/1.1/" xmlns:rdf="http://www.w3.org/1999/02/22-rdf-syntax-ns#" xmlns:xlink="http://www.w3.org/1999/xlink"><defs><style>.cls-1{fill:none;stroke:#fff;stroke-linecap:round;stroke-linejoin:round;}</style><style>.cls-1{fill:none;stroke:#fff;stroke-linecap:round;stroke-linejoin:round;}</style><style>.cls-1{fill:none;stroke:#fff;stroke-linecap:round;stroke-linejoin:round;}</style><linearGradient id="linearGradient2045-4" x1="24" x2="24" y1="43" y2="5" gradientTransform="translate(0,-48)" gradientUnits="userSpaceOnUse"><stop stop-color="#fafafa" offset="0"/><stop stop-color="#dae0e2" offset="1"/></linearGradient><clipPath id="clipPath1012"><rect transform="scale(1,-1)" x="3" y="-45" width="42" height="42" ry="7" fill="url(#linearGradient2045-4)" fill-rule="evenodd" style="paint-order:stroke fill markers"/></clipPath><style>.cls-1{fill:none;stroke:#fff;stroke-linecap:round;stroke-linejoin:round;}</style><style>.cls-1{fill:none;stroke:#fff;stroke-linecap:round;stroke-linejoin:round;}</style><style>.cls-1{fill:none;stroke:#fff;stroke-linecap:round;stroke-linejoin:round;}</style><style>.cls-1{fill:none;stroke:#fff;stroke-linecap:round;stroke-linejoin:round;}</style><style>.cls-1{fill:none;stroke:#fff;stroke-linecap:round;stroke-linejoin:round;}</style><style>.cls-1{fill:none;stroke:#fff;stroke-linecap:round;stroke-linejoin:round;}</style></defs><metadata><rdf:RDF><cc:Work rdf:about=""><dc:format>image/svg+xml</dc:format><dc:type rdf:resource="http://purl.org/dc/dcmitype/StillImage"/></cc:Work></rdf:RDF></metadata><rect x="4" y="4" width="40" height="40" ry="8" fill="#ffcd4b" fill-rule="evenodd" style="paint-order:stroke fill markers"/><path transform="rotate(-90,24,24)" d="m44 12c0-1.9999-0.73098-3.8192-1.9355-5.2188-2.6711 1.4818-5.4752 6.5537-14.111 10.303-1.4757 0.64061 8.9229 0.45324 9.6094 1.9082 0.81544 1.7284-0.64018 4.0967 0.36719 5.7207 1.2467 2.0098 3.8178 4.6211 6.0703 4.6816zm-1.3672 28.482c-0.53256-1.7635-1.8968-3.5764-4.5918-4.7461-0.05608-0.02434-0.10593-0.0394-0.15039-0.04492-1.0745-0.13353 1.124 5.0509 1.3027 7.6465 1.4021-0.60825 2.5939-1.6037 3.4395-2.8555zm-5.9824 3.4844c-0.87048-1.9997-0.43515-6.7349-3.9902-9.832-1.0966-0.95534 1.5467 4.0287 0.13086 4.3613-3.7574 0.88263-4.3353-12.254-5.1562-12.689-0.11727-0.06225-0.2398 0.13391-0.37695 0.66797-2.7372 10.659 0.0089 9.5964-1.0605 13.988-0.32315 1.3271-9.3056 2.5337-8.1973 3.5371h18c0.21963 0 0.43533-0.01601 0.65039-0.0332zm-4.8535-34.773c0-0.44701-0.80125-0.80664-1.7969-0.80664s-1.7969 0.35963-1.7969 0.80664c0 0.44701 0.80125 0.80664 1.7969 0.80664s1.7969-0.35963 1.7969-0.80664zm-1.9805 3.8145c0-0.56893-0.42484-1.0273-0.95313-1.0273-0.52829 0-0.95312 0.45842-0.95312 1.0273 0 0.56893 0.42484 1.0273 0.95312 1.0273 0.52829 0 0.95313-0.45842 0.95313-1.0273zm-5.1348-4.8789c0-0.38606-0.32605-0.69531-0.73242-0.69531s-0.73438 0.30926-0.73438 0.69531c0 0.38606 0.328 0.69727 0.73438 0.69727s0.73242-0.31121 0.73242-0.69727z" clip-path="url(#clipPath1012)" fill="#b10000" opacity=".2"/><path d="m20 14-15.943 22.92c0.45408 3.995 3.823 7.0801 7.9434 7.0801h24c4.1204 0 7.4893-3.0851 7.9434-7.0801l-15.943-22.92h-8z" opacity=".25"/><g fill-rule="evenodd"><path d="m24 12c-3.4781 0-4 2-4 2l-11.648 29.119c1.0936 0.55929 2.3313 0.88086 3.6484 0.88086h24c1.3171 0 2.5549-0.32157 3.6484-0.88086l-11.648-29.119s-0.5219-2-4-2z" fill="#4e4e4e" style="paint-order:stroke fill markers"/><path d="m18.4 18-3.2012 8h17.602l-3.2012-8z" fill="#ffcd4b" style="paint-order:stroke fill markers"/><path d="m12.801 32-3.2012 8h28.801l-3.2012-8z" fill="#ffcd4b" style="paint-order:stroke fill markers"/><path d="m12 4c-4.432 0-8 3.568-8 8v24c0 4.432 3.568 8 8 8h24c4.432 0 8-3.568 8-8v-24c0-4.432-3.568-8-8-8zm0 1h24c3.878 0 7 3.122 7 7v24c0 3.878-3.122 7-7 7h-24c-3.878 0-7-3.122-7-7v-24c0-3.878 3.122-7 7-7z" opacity=".4" style="paint-order:stroke fill markers"/></g></svg>
