<?xml version="1.0" encoding="UTF-8"?>
<!-- Created with Inkscape (http://www.inkscape.org/) -->
<svg id="SVGRoot" width="48px" height="48px" version="1.1" viewBox="0 0 48 48" xml:space="preserve" xmlns="http://www.w3.org/2000/svg" xmlns:cc="http://creativecommons.org/ns#" xmlns:dc="http://purl.org/dc/elements/1.1/" xmlns:rdf="http://www.w3.org/1999/02/22-rdf-syntax-ns#"><defs><style>.cls-1{fill:none;stroke:#fff;stroke-linecap:round;stroke-linejoin:round;}</style><style>.cls-1{fill:none;stroke:#fff;stroke-linecap:round;stroke-linejoin:round;}</style><style>.cls-1{fill:none;stroke:#fff;stroke-linecap:round;stroke-linejoin:round;}</style><style>.cls-1{fill:none;stroke:#fff;stroke-linecap:round;stroke-linejoin:round;}</style><style>.cls-1{fill:none;stroke:#fff;stroke-linecap:round;stroke-linejoin:round;}</style><style>.cls-1{fill:none;stroke:#fff;stroke-linecap:round;stroke-linejoin:round;}</style></defs><metadata><rdf:RDF><cc:Work rdf:about=""><dc:format>image/svg+xml</dc:format><dc:type rdf:resource="http://purl.org/dc/dcmitype/StillImage"/></cc:Work></rdf:RDF></metadata><rect x="4" y="4" width="40" height="40" ry="8" fill="#4fb461" fill-rule="evenodd" style="paint-order:stroke fill markers"/><path d="m20 14-15.943 22.92c0.45408 3.995 3.823 7.0801 7.9434 7.0801h24c4.1204 0 7.4893-3.0851 7.9434-7.0801l-15.943-22.92h-8z" opacity=".25"/><g fill-rule="evenodd"><path d="m24 12c-3.4781 0-4 2-4 2l-11.648 29.119c1.0936 0.55929 2.3313 0.88086 3.6484 0.88086h24c1.3171 0 2.5549-0.32157 3.6484-0.88086l-11.648-29.119s-0.5219-2-4-2z" fill="#d35244" style="paint-order:stroke fill markers"/><path d="m18.4 18-3.2012 8h17.602l-3.2012-8z" fill="#fff" style="paint-order:stroke fill markers"/><path d="m12.801 32-3.2012 8h28.801l-3.2012-8z" fill="#fff" style="paint-order:stroke fill markers"/><path d="m12 4c-4.432 0-8 3.568-8 8v24c0 4.432 3.568 8 8 8h24c4.432 0 8-3.568 8-8v-24c0-4.432-3.568-8-8-8h-24zm0 1h24c3.878 0 7 3.122 7 7v24c0 3.878-3.122 7-7 7h-24c-3.878 0-7-3.122-7-7v-24c0-3.878 3.122-7 7-7z" opacity=".4" style="paint-order:stroke fill markers"/></g></svg>
