<?xml version="1.0" encoding="UTF-8"?>
<!-- Created with Inkscape (http://www.inkscape.org/) -->
<svg id="SVGRoot" width="48px" height="48px" version="1.1" viewBox="0 0 48 48" xml:space="preserve" xmlns="http://www.w3.org/2000/svg" xmlns:cc="http://creativecommons.org/ns#" xmlns:dc="http://purl.org/dc/elements/1.1/" xmlns:rdf="http://www.w3.org/1999/02/22-rdf-syntax-ns#"><defs><style>.cls-1{fill:none;stroke:#fff;stroke-linecap:round;stroke-linejoin:round;}</style><style>.cls-1{fill:none;stroke:#fff;stroke-linecap:round;stroke-linejoin:round;}</style><style>.cls-1{fill:none;stroke:#fff;stroke-linecap:round;stroke-linejoin:round;}</style></defs><metadata><rdf:RDF><cc:Work rdf:about=""><dc:format>image/svg+xml</dc:format><dc:type rdf:resource="http://purl.org/dc/dcmitype/StillImage"/></cc:Work></rdf:RDF></metadata><rect x="4" y="4" width="40" height="40" ry="8" fill="#414242" fill-rule="evenodd" style="paint-order:stroke fill markers"/><path d="m12 4c-4.432 0-8 3.568-8 8v24c0 4.432 3.568 8 8 8h24c4.432 0 8-3.568 8-8v-24c0-4.432-3.568-8-8-8zm0 1h24c3.878 0 7 3.122 7 7v24c0 3.878-3.122 7-7 7h-24c-3.878 0-7-3.122-7-7v-24c0-3.878 3.122-7 7-7z" fill-rule="evenodd" opacity=".4" style="paint-order:stroke fill markers"/><g stroke-linecap="round" stroke-linejoin="round" stroke-width="4"><path d="m29 12-1 1-16.658 14.701s-0.74466 0.90908 0 1.7287c0.38853 0.42762 0.90501 0.72345 1.307 1.1384 0.72948 0.75291 1.3914 0 1.3914 0l16.96-12.568-1-6z" fill="#1366a1"/><path d="m29.209 36.041-1-1-16.658-14.701s-0.74466-0.90908 0-1.7287c0.38853-0.42762 0.90501-0.72345 1.307-1.1384 0.72948-0.75291 1.3914 0 1.3914 0l16.96 12.568-0.20898 4.959z" fill="#1986d6"/><path d="m29.709 11.959c-0.32611-0.01358-0.70898 0.04102-0.70898 0.04102s1 0 1 1v22c0 1-1 1-1 1s0.38287 0.0546 0.70898 0.04102c0.1087-0.0045 0.21126-0.01687 0.29102-0.04102 5-2 6-2 6-4v-16c0-2-1-2-6-4-0.07976-0.02415-0.18231-0.03649-0.29102-0.04102z" fill="#49a7eb"/></g></svg>
