<?xml version="1.0" encoding="UTF-8"?>
<!-- Created with Inkscape (http://www.inkscape.org/) -->
<svg id="SVGRoot" width="48px" height="48px" version="1.1" viewBox="0 0 48 48" xml:space="preserve" xmlns="http://www.w3.org/2000/svg" xmlns:cc="http://creativecommons.org/ns#" xmlns:dc="http://purl.org/dc/elements/1.1/" xmlns:rdf="http://www.w3.org/1999/02/22-rdf-syntax-ns#"><defs><style>.cls-1{fill:none;stroke:#fff;stroke-linecap:round;stroke-linejoin:round;}</style><style>.cls-1{fill:none;stroke:#fff;stroke-linecap:round;stroke-linejoin:round;}</style></defs><metadata><rdf:RDF><cc:Work rdf:about=""><dc:format>image/svg+xml</dc:format><dc:type rdf:resource="http://purl.org/dc/dcmitype/StillImage"/></cc:Work></rdf:RDF></metadata><rect x="4" y="4" width="40" height="40" ry="8" fill="#627ad4" fill-rule="evenodd" style="paint-order:stroke fill markers"/><path d="m12 4c-4.432 0-8 3.568-8 8v24c0 4.432 3.568 8 8 8h24c4.432 0 8-3.568 8-8v-24c0-4.432-3.568-8-8-8zm0 1h24c3.878 0 7 3.122 7 7v24c0 3.878-3.122 7-7 7h-24c-3.878 0-7-3.122-7-7v-24c0-3.878 3.122-7 7-7z" fill-rule="evenodd" opacity=".4" style="paint-order:stroke fill markers"/><path d="m24.769 36.049c-0.6327-0.26864-1.7051-0.6283-2.3829-0.79926-2.6713-0.67364-2.922-0.78298-3.9253-1.7119-0.53243-0.49295-1.0887-1.1504-1.2361-1.461-0.14741-0.31064-0.72991-1.0405-1.2945-1.6221-0.93556-0.9636-1.1036-1.0678-1.8984-1.1771-0.68495-0.0942-0.99277-0.24078-1.4356-0.68358-0.79149-0.7915-0.76548-1.3611 0.0937-2.0515 0.36155-0.29055 0.65829-0.60834 0.65944-0.70619 0.0012-0.09786 0.227-0.62164 0.50189-1.164 0.88814-1.7522 1.7098-2.2929 2.3719-1.5612 0.38985 0.43078 0.4514 0.41828 0.79372-0.16122 0.22795-0.38588 0.25059-0.56241 0.10666-0.83134-0.1005-0.18779-0.13651-0.55187-0.08002-0.80907 0.08536-0.38865 0.33866-0.58561 1.4996-1.1661 1.6021-0.80103 1.7955-1.068 2.4773-3.42 0.45151-1.5574 1.0074-2.7544 1.4754-3.1773 0.5164-0.46657 2.0947-1.1145 3.3694-1.3831 2.0557-0.43325 2.8845-0.12717 3.559 1.3141 0.44858 0.95856 0.55858 2.087 0.37382 3.8349-0.15518 1.4679-0.53942 2.4726-1.282 3.3523-0.16809 0.19912-0.18155 0.37463-0.05436 0.70915 0.09295 0.2445 0.16901 0.73275 0.16901 1.085 0 1.4717 1.3581 3.7753 2.2257 3.7753 0.50482 0 1.3509-1.0324 1.5783-1.926 0.20662-0.8116 0.47025-1.0778 0.99377-1.0036 0.71933 0.10197 0.57436 0.72681-0.40742 1.756-0.86429 0.90612-1.2479 1.5771-1.0277 1.7973 0.25807 0.25807 1.9982-0.08008 2.9839-0.57984 0.58898-0.29862 1.0486-0.19049 1.0486 0.24672 0 0.48584-0.34416 0.69538-1.1422 0.6954-0.41126 1.1e-5 -1.3131 0.17448-2.0041 0.3877-1.3249 0.4088-1.856 0.42497-5.0689 0.15444-1.3418-0.11298-1.5678-0.17476-1.6189-0.44256-0.05323-0.2788 0.01247-0.29975 0.63037-0.20096 0.86037 0.13758 1.8059-0.02915 1.9249-0.33945 0.18678-0.48676-1.3836-2.8461-1.8943-2.8461-0.07117 0-0.30128 0.53616-0.51134 1.1915-0.60641 1.8917-1.6028 3.2799-3.1219 4.3501-0.14559 0.10255 0.59609 0.5443 1.4671 0.87378 1.7269 0.65325 2.7916 1.6419 2.7932 2.5934 6.93e-4 0.43515 0.21803 0.4094 1.4557-0.17252 0.59623-0.28032 0.73974-0.29834 0.86011-0.10804 0.07947 0.12562 0.12366 0.29448 0.09821 0.37524-0.10964 0.34793-1.6876 0.96492-3.2606 1.2749-0.93508 0.18428-1.7526 0.38411-1.8166 0.44406-0.22927 0.21467 0.1608 0.53845 1.1168 0.92697 0.53445 0.21721 0.97172 0.49119 0.97172 0.60881 0 0.37269-0.93911 0.26628-2.1365-0.24207z" fill="#fff" stroke-width=".16434"/></svg>
