<?xml version="1.0" encoding="UTF-8"?>
<!-- Created with Inkscape (http://www.inkscape.org/) -->
<svg id="SVGRoot" width="48px" height="48px" version="1.1" viewBox="0 0 48 48" xmlns="http://www.w3.org/2000/svg" xmlns:cc="http://creativecommons.org/ns#" xmlns:dc="http://purl.org/dc/elements/1.1/" xmlns:rdf="http://www.w3.org/1999/02/22-rdf-syntax-ns#" xmlns:xlink="http://www.w3.org/1999/xlink">
 <defs id="defs815">
  <style id="style819">.cls-1{fill:none;stroke:#fff;stroke-linecap:round;stroke-linejoin:round;}</style>
 </defs>
 <metadata id="metadata818">
  <rdf:RDF>
   <cc:Work rdf:about="">
    <dc:format>image/svg+xml</dc:format>
    <dc:type rdf:resource="http://purl.org/dc/dcmitype/StillImage"/>
    <dc:title/>
   </cc:Work>
  </rdf:RDF>
 </metadata>
 <g id="layer1">
  <rect id="rect1373" x="4" y="4" width="40" height="40" ry="8" fill="#7e66b3" fill-rule="evenodd" style="paint-order:stroke fill markers"/>
  <path id="rect817" d="m12 4c-4.432 0-8 3.568-8 8v24c0 4.432 3.568 8 8 8h24c4.432 0 8-3.568 8-8v-24c0-4.432-3.568-8-8-8h-24zm0 1h24c3.878 0 7 3.122 7 7v24c0 3.878-3.122 7-7 7h-24c-3.878 0-7-3.122-7-7v-24c0-3.878 3.122-7 7-7z" fill-rule="evenodd" opacity=".3" style="paint-order:stroke fill markers"/>
  <path id="path857" d="m20 12.986a1.0001 1.0001 0 0 0-0.92773 1.3848l3.8164 9.5391-5.7461 9.5762a1.0001 1.0001 0 1 0 1.7148 1.0273l5.3418-8.9004 8.0938 8.0938a1.0001 1.0001 0 1 0 1.4141-1.4141l-8.8555-8.8555-3.9238-9.8086a1.0001 1.0001 0 0 0-0.92773-0.64258z" color="#000000" color-rendering="auto" dominant-baseline="auto" fill="#fff" image-rendering="auto" opacity=".4" shape-rendering="auto" solid-color="#000000" style="font-feature-settings:normal;font-variant-alternates:normal;font-variant-caps:normal;font-variant-ligatures:normal;font-variant-numeric:normal;font-variant-position:normal;isolation:auto;mix-blend-mode:normal;shape-padding:0;text-decoration-color:#000000;text-decoration-line:none;text-decoration-style:solid;text-indent:0;text-orientation:mixed;text-transform:none;white-space:normal"/>
  <path id="path853" d="m13 23 11 1 9-9" fill="none" stroke="#fff" stroke-linecap="round" stroke-linejoin="round" stroke-width="2"/>
  <rect id="rect823" x="18" y="18" width="12" height="12" ry="6" fill="#fff" fill-rule="evenodd" style="paint-order:normal"/>
  <rect id="rect820" x="21" y="21" width="6" height="6" ry="3" fill="#7e66b3" fill-rule="evenodd" style="paint-order:normal"/>
  <rect id="rect825" x="10" y="20" width="6" height="6" ry="3" fill="#fff" fill-rule="evenodd" style="paint-order:normal"/>
  <rect id="rect827" x="12" y="22" width="2" height="2" ry="1" fill="#7e66b3" fill-rule="evenodd" style="paint-order:normal"/>
  <rect id="rect825-6" x="30" y="12" width="6" height="6" ry="3" fill="#fff" fill-rule="evenodd" style="paint-order:normal"/>
  <rect id="rect827-0" x="32" y="14" width="2" height="2" ry="1" fill="#7e66b3" fill-rule="evenodd" style="paint-order:normal"/>
  <rect id="rect847" x="30" y="30" width="6" height="6" ry="3" fill="#fff" fill-rule="evenodd" style="paint-order:normal"/>
  <rect id="rect849" x="18" y="12" width="4" height="4" ry="2" fill="#fff" fill-rule="evenodd" style="paint-order:normal"/>
  <rect id="rect851" x="16" y="32" width="4" height="4" ry="2" fill="#fff" fill-rule="evenodd" style="paint-order:normal"/>
 </g>
</svg>
