<?xml version="1.0" encoding="UTF-8"?>
<!-- Created with Inkscape (http://www.inkscape.org/) -->
<svg id="SVGRoot" width="48px" height="48px" version="1.1" viewBox="0 0 48 48" xmlns="http://www.w3.org/2000/svg" xmlns:cc="http://creativecommons.org/ns#" xmlns:dc="http://purl.org/dc/elements/1.1/" xmlns:rdf="http://www.w3.org/1999/02/22-rdf-syntax-ns#">
 <defs id="defs815">
  <style id="style819">.cls-1{fill:none;stroke:#fff;stroke-linecap:round;stroke-linejoin:round;}</style>
 </defs>
 <metadata id="metadata818">
  <rdf:RDF>
   <cc:Work rdf:about="">
    <dc:format>image/svg+xml</dc:format>
    <dc:type rdf:resource="http://purl.org/dc/dcmitype/StillImage"/>
    <dc:title/>
   </cc:Work>
  </rdf:RDF>
 </metadata>
 <g id="layer1">
  <rect id="rect1373-5" x="4" y="4" width="40" height="40" ry="8" fill="#52735b" fill-rule="evenodd" style="paint-order:stroke fill markers"/>
  <rect id="rect829" x="6" y="6" width="36" height="36" ry="18" fill="#bfea83" fill-rule="evenodd" style="paint-order:stroke fill markers"/>
  <path id="rect817" d="m12 4c-4.432 0-8 3.568-8 8v24c0 4.432 3.568 8 8 8h24c4.432 0 8-3.568 8-8v-24c0-4.432-3.568-8-8-8h-24zm0 1h24c3.878 0 7 3.122 7 7v24c0 3.878-3.122 7-7 7h-24c-3.878 0-7-3.122-7-7v-24c0-3.878 3.122-7 7-7z" fill-rule="evenodd" opacity=".3" style="paint-order:stroke fill markers"/>
  <path id="rect826" d="m6 24v12c0 3.324 2.676 6 6 6h24c3.324 0 6-2.676 6-6v-12h-36z" fill="#f6a559" fill-rule="evenodd" style="paint-order:stroke fill markers"/>
  <path id="path831" d="m10 10 3 3" fill="none" stroke="#bfea83" stroke-linecap="round" stroke-linejoin="round" stroke-width="4"/>
  <path id="path831-6" d="m38 10-3 3" fill="none" stroke="#bfea83" stroke-linecap="round" stroke-linejoin="round" stroke-width="4"/>
  <path id="path852" d="m6.002 24a1.0001 1.0001 0 0 0 0.14062 0.51367l9 15a1.0001 1.0001 0 0 0 1.457 0.28711l7.4004-5.5508 7.4004 5.5508a1.0001 1.0001 0 0 0 1.457-0.28711l9-15a1.0001 1.0001 0 0 0 0.14062-0.51367h-6.1367l-5.1465 9.4375-6.0645-5.1973a1.0001 1.0001 0 0 0-1.3008 0l-6.0645 5.1973-5.1465-9.4375z" color="#000000" color-rendering="auto" dominant-baseline="auto" fill="#fff" image-rendering="auto" shape-rendering="auto" solid-color="#000000" style="font-feature-settings:normal;font-variant-alternates:normal;font-variant-caps:normal;font-variant-ligatures:normal;font-variant-numeric:normal;font-variant-position:normal;isolation:auto;mix-blend-mode:normal;shape-padding:0;text-decoration-color:#000000;text-decoration-line:none;text-decoration-style:solid;text-indent:0;text-orientation:mixed;text-transform:none;white-space:normal"/>
 </g>
</svg>
