<?xml version="1.0" encoding="UTF-8"?>
<!-- Created with Inkscape (http://www.inkscape.org/) -->
<svg id="SVGRoot" width="48px" height="48px" version="1.1" viewBox="0 0 48 48" xml:space="preserve" xmlns="http://www.w3.org/2000/svg" xmlns:cc="http://creativecommons.org/ns#" xmlns:dc="http://purl.org/dc/elements/1.1/" xmlns:rdf="http://www.w3.org/1999/02/22-rdf-syntax-ns#" xmlns:xlink="http://www.w3.org/1999/xlink"><defs id="defs815"><style id="style819">.cls-1{fill:none;stroke:#fff;stroke-linecap:round;stroke-linejoin:round;}</style></defs><metadata id="metadata818"><rdf:RDF><cc:Work rdf:about=""><dc:format>image/svg+xml</dc:format><dc:type rdf:resource="http://purl.org/dc/dcmitype/StillImage"/></cc:Work></rdf:RDF></metadata><g id="layer1"><rect id="rect1373-5" x="4" y="4" width="40" height="40" ry="8" fill="#f6a559" fill-rule="evenodd" style="paint-order:stroke fill markers"/><path id="rect817" d="m12 4c-4.432 0-8 3.568-8 8v24c0 4.432 3.568 8 8 8h24c4.432 0 8-3.568 8-8v-24c0-4.432-3.568-8-8-8h-24zm0 1h24c3.878 0 7 3.122 7 7v24c0 3.878-3.122 7-7 7h-24c-3.878 0-7-3.122-7-7v-24c0-3.878 3.122-7 7-7z" fill-rule="evenodd" opacity=".3" style="paint-order:stroke fill markers"/><path id="path26" d="m35.355 9.9757c1.0057 0.053978 1.0422 1.2851 0.88062 2.046l-0.39666 3.3605c0.49185-0.1573 0.95858-0.5506 0.27065 0.20124-1.048 1.5192-1.1952 3.3858-1.5728 5.1337-0.5061 1.7561-1.111 3.5197-1.1164 5.3662l-0.71457 2.086c0.37535 0.39525 1.3198 0.73723 0.38209 1.1846 0.63054 0.53076-0.98503 0.27555-0.58588 0.96623-0.67919 0.37028 1.3755 1.0515 0.13886 0.97766-0.82505-0.13995 0.6671 0.75988-0.35048 0.83332-0.7533 0.06876-0.40414 0.56751-0.93464 0.75985 1.1217 0.18003-0.8126 1.1361-0.79125 1.8827-0.6674 1.1622-1.114 2.812-2.5202 3.2366-1.0143-0.47019-0.9577-2.0447-1.2225-3.0509-0.6003-1.9869-1.7093-3.888-1.7212-6.0155-0.14147-1.6659-1.2416-3.059-1.2991-4.7382 0.09411-1.3737-1.0024-0.55099-1.1119 0.32021-0.57189 1.1883-1.1275 2.4317-1.2172 3.765-0.23862 0.91833-1.433 2.5654 0.01909 2.8171 0.88482 1.1417-1.3946-0.69271-1.0778 0.56949-0.50246 1.6447-0.45107 3.4306-1.126 5.0187-0.95014 1.6054-2.8139-0.60907-3.6705-1.3967-0.79254-0.86297-1.0175-2.0515-1.317-3.1228-0.05956-1.2362-0.83182-2.3437-1.0174-3.5686-0.39109-1.5538-0.18065-3.1478-0.12081-4.745-0.07016-0.37105 0.13929-1.0217-0.10189-1.2217-1.0248 0.21456 0.21243-0.1471-0.02496-0.65894-0.14303-1.3019 0.0427-2.6228-0.2558-3.9067-0.2125-1.5959-0.90634-3.173-0.8083-4.7939-0.09121-1.0424 0.51767-2.3715 1.6812-2.4252 0.61556 0.44954-0.37872 0.02997 0.33526 0.66154 0.79344 1.1121 1.5611 2.2987 1.8554 3.6515 0.34593-0.10176 1.3436 0.1041 0.56807 0.21262-0.83518-0.13923-0.07531 1.6517 0.39989 1.6402 0.30342-0.10078 0.97137-0.19568 0.642 0.18651-0.71378 0.64919-0.63921 1.0294-0.41669 1.744 0.21027 2.3817 0.473 4.7942 1.2776 7.06 0.74752 0.91135 1.2281-0.66832 1.4494-1.2267 0.53632-1.6544 1.3662-3.1895 1.8875-4.8479-0.22115-0.88267 1.11-1.7228 1.955-1.4769 0.92466 0.84302 1.2969 2.189 1.6069 3.3867 0.40077 1.1662 1.0008 2.266 1.4817 3.4055 0.50785 1.0431 0.81649 2.5069 1.8557 3.1285 0.98572-0.436 0.89526-1.9981 1.2613-2.9275 0.17912-1.3817 0.89521-2.5873 1.1624-3.9506-0.44155-0.16836-0.4604-0.10037-0.98364-0.02359-0.3245 0.04762-1.252-0.20693-0.68044-0.37149 0.86993-0.25046 1.144-0.06461 2.0462-0.07716 0.58199-2.0521 1.1886-4.1043 2.0123-6.0747 0.16988-1.4543 0.09508-3.0125 0.71044-4.3652 0.41998-0.21611 0.85166-0.40937 1.2764-0.61602" fill="#fff"/></g></svg>
