<?xml version="1.0" encoding="UTF-8"?>
<!-- Created with Inkscape (http://www.inkscape.org/) -->
<svg id="SVGRoot" width="48px" height="48px" version="1.1" viewBox="0 0 48 48" xmlns="http://www.w3.org/2000/svg" xmlns:cc="http://creativecommons.org/ns#" xmlns:dc="http://purl.org/dc/elements/1.1/" xmlns:rdf="http://www.w3.org/1999/02/22-rdf-syntax-ns#">
 <defs id="defs815">
  <style id="style819">.cls-1{fill:none;stroke:#fff;stroke-linecap:round;stroke-linejoin:round;}</style>
 </defs>
 <metadata id="metadata818">
  <rdf:RDF>
   <cc:Work rdf:about="">
    <dc:format>image/svg+xml</dc:format>
    <dc:type rdf:resource="http://purl.org/dc/dcmitype/StillImage"/>
    <dc:title/>
   </cc:Work>
  </rdf:RDF>
 </metadata>
 <g id="layer1">
  <rect id="rect1373-5" x="4" y="4" width="40" height="40" ry="8" fill="#627ad4" fill-rule="evenodd" style="paint-order:stroke fill markers"/>
  <path id="rect817" d="m12 4c-4.432 0-8 3.568-8 8v24c0 4.432 3.568 8 8 8h24c4.432 0 8-3.568 8-8v-24c0-4.432-3.568-8-8-8h-24zm0 1h24c3.878 0 7 3.122 7 7v24c0 3.878-3.122 7-7 7h-24c-3.878 0-7-3.122-7-7v-24c0-3.878 3.122-7 7-7z" fill-rule="evenodd" opacity=".3" style="paint-order:stroke fill markers"/>
  <rect id="rect863" x="10" y="10" width="28" height="28" ry="14" fill="#fff" fill-rule="evenodd" style="paint-order:normal"/>
  <path id="path828" d="m24 18s-2 0-2 3c0 4 1.6191 7.6348 1.6191 7.6348s0.12544 0.36523 0.38086 0.36523 0.38086-0.36523 0.38086-0.36523 1.6191-3.6348 1.6191-7.6348c0-3-2-3-2-3z" fill="#627ad4"/>
  <path id="path846" d="m20 19s-1.4874-1-3-1c-1.3404 0-2.1319 1.0665-2 2 1.4119 9.99 7.3968 11.942 7.3968 11.942s0.3589 0.13624 0.49513 0c0.20426-0.20426 0.01834-0.60516 0.01834-0.60516s-2.9418-5.5884-2.9103-12.337z" fill="#627ad4"/>
  <path id="path846-3" d="m28 19s1.4874-1 3-1c1.3404 0 2.1319 1.0665 2 2-1.4119 9.99-7.3968 11.942-7.3968 11.942s-0.3589 0.13624-0.49513 0c-0.20426-0.20426-0.01834-0.60516-0.01834-0.60516s2.9418-5.5884 2.9103-12.337z" fill="#627ad4"/>
 </g>
</svg>
