<?xml version="1.0" encoding="UTF-8"?>
<!-- Created with Inkscape (http://www.inkscape.org/) -->
<svg id="SVGRoot" width="48px" height="48px" version="1.1" viewBox="0 0 48 48" xml:space="preserve" xmlns="http://www.w3.org/2000/svg" xmlns:cc="http://creativecommons.org/ns#" xmlns:dc="http://purl.org/dc/elements/1.1/" xmlns:rdf="http://www.w3.org/1999/02/22-rdf-syntax-ns#"><defs><style>.cls-1{fill:none;stroke:#fff;stroke-linecap:round;stroke-linejoin:round;}</style><style>.cls-1{fill:none;stroke:#fff;stroke-linecap:round;stroke-linejoin:round;}</style><style>.cls-1{fill:none;stroke:#fff;stroke-linecap:round;stroke-linejoin:round;}</style></defs><metadata><rdf:RDF><cc:Work rdf:about=""><dc:format>image/svg+xml</dc:format><dc:type rdf:resource="http://purl.org/dc/dcmitype/StillImage"/></cc:Work></rdf:RDF></metadata><rect x="4" y="4" width="40" height="40" ry="8" fill="#ffc375" fill-rule="evenodd" style="paint-order:stroke fill markers"/><path d="m12 6c-3.324 0-6 2.676-6 6v9l10 10v5c0 5 6 5 6 5v1h14c3.324 0 6-2.676 6-6v-0.64844c-0.88464-0.78406-2.1576-1.3516-4-1.3516h-6v-6s0-4-4-4h-13v-3h3c4 0 4-4 4-4v-7h7c3 0 3-3 3-3v-1h-20z" opacity=".25"/><g fill-rule="evenodd"><path d="m12 4c-4.432 0-8 3.568-8 8v24c0 4.432 3.568 8 8 8h24c4.432 0 8-3.568 8-8v-24c0-4.432-3.568-8-8-8zm0 1h24c3.878 0 7 3.122 7 7v24c0 3.878-3.122 7-7 7h-24c-3.878 0-7-3.122-7-7v-24c0-3.878 3.122-7 7-7z" opacity=".3" style="paint-order:stroke fill markers"/><rect x="16" y="16" width="16" height="16" ry="8" fill="#fff" style="paint-order:stroke fill markers"/><rect x="18" y="18" width="12" height="12" ry="6" fill="#ffc375" style="paint-order:stroke fill markers"/></g><g fill="#fff"><path d="m24 9-3 8h6z"/><path d="m9 24 8 3v-6z"/><path d="m24 39 3-8h-6z"/><path d="m39 24-8-3v6z"/><path d="m16 16 2 5 3-3z"/><path d="m32 32-2-5-3 3z"/><path d="m11 37 11-15 4 4z"/></g><path d="m37 11-11 15-4-4z" fill="#d35244"/></svg>
