<?xml version="1.0" encoding="UTF-8"?>
<!-- Created with Inkscape (http://www.inkscape.org/) -->
<svg id="SVGRoot" width="48px" height="48px" version="1.1" viewBox="0 0 48 48" xml:space="preserve" xmlns="http://www.w3.org/2000/svg" xmlns:cc="http://creativecommons.org/ns#" xmlns:dc="http://purl.org/dc/elements/1.1/" xmlns:rdf="http://www.w3.org/1999/02/22-rdf-syntax-ns#"><defs><style>.cls-1{fill:none;stroke:#fff;stroke-linecap:round;stroke-linejoin:round;}</style><style>.a{fill:none;stroke:#b1b5bd;stroke-linecap:round;stroke-linejoin:round;isolation:isolate;opacity:0.63;}</style><style>.cls-1{fill:none;stroke:#fff;stroke-linecap:round;stroke-linejoin:round;}</style><style id="current-color-scheme" type="text/css">.ColorScheme-Text {
        color:#31363b;
      }
      .ColorScheme-Accent {
        color:#3daee9;
      }</style></defs><metadata><rdf:RDF><cc:Work rdf:about=""><dc:format>image/svg+xml</dc:format><dc:type rdf:resource="http://purl.org/dc/dcmitype/StillImage"/></cc:Work></rdf:RDF></metadata><rect x="4" y="4" width="40" height="40" ry="8" fill="#729dec" fill-rule="evenodd" style="paint-order:stroke fill markers"/><rect x="8" y="8" width="32" height="32" ry="4" opacity=".3" stroke-linecap="round" stroke-linejoin="round" stroke-width="2"/><path d="m12 4c-4.432 0-8 3.568-8 8v24c0 4.432 3.568 8 8 8h24c4.432 0 8-3.568 8-8v-24c0-4.432-3.568-8-8-8zm0 1h24c3.878 0 7 3.122 7 7v24c0 3.878-3.122 7-7 7h-24c-3.878 0-7-3.122-7-7v-24c0-3.878 3.122-7 7-7z" fill-rule="evenodd" opacity=".3" style="paint-order:stroke fill markers"/><path d="m27.826 17.248c-0.37986 0-0.70315 0.08986-0.97129 0.26862-0.26813 0.16758-0.40293 0.49088-0.40293 0.97129 0 0.45806 0.1348 0.77615 0.40293 0.95491 0.26813 0.17876 0.59143 0.26862 0.97129 0.26862 0.36868 0 0.68678-0.08986 0.95491-0.26862 0.2793-0.17876 0.41931-0.49685 0.41931-0.95491 0-0.4804-0.14-0.8037-0.41931-0.97129-0.26813-0.17876-0.58622-0.26862-0.95491-0.26862zm-13.826 0.78784v11.965h2.5306v-5.1611h4.7418v5.1611h2.5306v-11.965h-2.5306v4.6926h-4.7418v-4.6926zm17.26 0 0.41931 8.0766h2.0114l0.41931-8.0766zm-4.709 2.8156v9.1494h2.5306v-9.1494zm6.134 6.5681c-0.4022 0-0.74796 0.10712-1.0384 0.3194-0.2793 0.21227-0.41931 0.5753-0.41931 1.0892 0 0.49158 0.14 0.8494 0.41931 1.0728 0.29048 0.21227 0.63624 0.31776 1.0384 0.31776 0.39103 0 0.72638-0.10548 1.0057-0.31776 0.29048-0.22344 0.43569-0.58126 0.43569-1.0728 0-0.51392-0.14521-0.87695-0.43569-1.0892-0.2793-0.21227-0.61466-0.3194-1.0057-0.3194z" fill="#fff" stroke-linecap="round" stroke-linejoin="round" stroke-width="2.793"/></svg>
