<?xml version="1.0" encoding="UTF-8"?>
<!-- Created with Inkscape (http://www.inkscape.org/) -->
<svg id="SVGRoot" width="48px" height="48px" version="1.1" viewBox="0 0 48 48" xmlns="http://www.w3.org/2000/svg" xmlns:cc="http://creativecommons.org/ns#" xmlns:dc="http://purl.org/dc/elements/1.1/" xmlns:rdf="http://www.w3.org/1999/02/22-rdf-syntax-ns#">
 <defs id="defs815">
  <style id="style819">.cls-1{fill:none;stroke:#fff;stroke-linecap:round;stroke-linejoin:round;}</style>
 </defs>
 <metadata id="metadata818">
  <rdf:RDF>
   <cc:Work rdf:about="">
    <dc:format>image/svg+xml</dc:format>
    <dc:type rdf:resource="http://purl.org/dc/dcmitype/StillImage"/>
    <dc:title/>
   </cc:Work>
  </rdf:RDF>
 </metadata>
 <g id="layer1">
  <rect id="rect1373-5" x="4" y="4" width="40" height="40" ry="8" fill="#4e4e4e" fill-rule="evenodd" style="paint-order:stroke fill markers"/>
  <path id="rect817" d="m12 4c-4.432 0-8 3.568-8 8v24c0 4.432 3.568 8 8 8h24c4.432 0 8-3.568 8-8v-24c0-4.432-3.568-8-8-8h-24zm0 1h24c3.878 0 7 3.122 7 7v24c0 3.878-3.122 7-7 7h-24c-3.878 0-7-3.122-7-7v-24c0-3.878 3.122-7 7-7z" fill-rule="evenodd" opacity=".4" style="paint-order:stroke fill markers"/>
  <path id="path820" d="m6 11v19h12v12h19l-6-6h-7v-8l-4-4h-8v-7z" fill="#f97263"/>
  <path id="path842" d="m26 28v6h6l4-4h-6v-6z" fill="#b7bfc2"/>
  <path id="path842-3" d="m14 16v6h6l4-4h-6v-6z" fill="#b7bfc2"/>
  <path id="path941" d="m12.068 6.0684c-2.0591 0.27246-3.8302 1.4281-4.918 3.082l4.8496 4.8496 4-4-3.9316-3.9316z" fill="#dee1e3"/>
  <path id="path941-7-2" d="m25 26 4-4-3-3-4 4z" fill="#dee1e3"/>
  <path id="path941-2" d="m38 32-4 4 4.8496 4.8496c1.6539-1.0878 2.8096-2.8589 3.082-4.918l-3.9316-3.9316z" fill="#dee1e3"/>
 </g>
</svg>
