<?xml version="1.0" encoding="UTF-8"?>
<!-- Created with Inkscape (http://www.inkscape.org/) -->
<svg id="SVGRoot" width="48px" height="48px" version="1.1" viewBox="0 0 48 48" xmlns="http://www.w3.org/2000/svg" xmlns:cc="http://creativecommons.org/ns#" xmlns:dc="http://purl.org/dc/elements/1.1/" xmlns:rdf="http://www.w3.org/1999/02/22-rdf-syntax-ns#">
 <defs>
  <style>.cls-1{fill:none;stroke:#fff;stroke-linecap:round;stroke-linejoin:round;}</style>
 </defs>
 <metadata>
  <rdf:RDF>
   <cc:Work rdf:about="">
    <dc:format>image/svg+xml</dc:format>
    <dc:type rdf:resource="http://purl.org/dc/dcmitype/StillImage"/>
   </cc:Work>
  </rdf:RDF>
 </metadata>
 <rect x="4" y="4" width="40" height="40" ry="8" fill="#d3a45d" fill-rule="evenodd" style="paint-order:stroke fill markers"/>
 <g>
  <rect x="8" y="8" width="32" height="32" ry="4" fill="#efefef" stroke-linecap="round" stroke-linejoin="round" stroke-width="6"/>
  <path d="m23 10c-1.1046 0-2 0.89543-2 2 0.0011 0.65245 0.32041 1.2633 0.85547 1.6367-1.4665 4.4233-4.1455 11.653-6.8555 14.363 0 0 4 4 5 8h8c1.0718-4 5-8 5-8-2.71-2.71-5.387-9.93-6.85-14.361 0.53364-0.37504 0.85088-0.98675 0.85-1.639 0-1.1046-0.89543-2-2-2v18.27c0.618 0.357 0.999 1.017 1 1.73 0 1.105-0.895 2-2 2s-2-0.895-2-2c1e-3 -0.713 0.382-1.372 1-1.729v-14.271z" fill="#7d949e" stroke-linejoin="bevel" stroke-width="2"/>
  <rect x="20" y="39" width="8.494" height="5" rx="0" fill="#323f43" stroke-linecap="round" stroke-linejoin="bevel" stroke-width="6.2"/>
  <rect x="18" y="36" width="12" height="4" ry="1.9368" fill="#f5ab35" stroke-linecap="round" stroke-linejoin="round" stroke-width="6"/>
 </g>
 <path d="m12 4c-4.432 0-8 3.568-8 8v24c0 4.432 3.568 8 8 8h24c4.432 0 8-3.568 8-8v-24c0-4.432-3.568-8-8-8zm0 1h24c3.878 0 7 3.122 7 7v24c0 3.878-3.122 7-7 7h-24c-3.878 0-7-3.122-7-7v-24c0-3.878 3.122-7 7-7z" fill-rule="evenodd" opacity=".3" style="paint-order:stroke fill markers"/>
</svg>
