<?xml version="1.0" encoding="UTF-8"?>
<!-- Created with Inkscape (http://www.inkscape.org/) -->
<svg id="SVGRoot" width="48px" height="48px" version="1.1" viewBox="0 0 48 48" xmlns="http://www.w3.org/2000/svg" xmlns:cc="http://creativecommons.org/ns#" xmlns:dc="http://purl.org/dc/elements/1.1/" xmlns:rdf="http://www.w3.org/1999/02/22-rdf-syntax-ns#">
 <defs id="defs815">
  <style id="style819">.cls-1{fill:none;stroke:#fff;stroke-linecap:round;stroke-linejoin:round;}</style>
 </defs>
 <metadata id="metadata818">
  <rdf:RDF>
   <cc:Work rdf:about="">
    <dc:format>image/svg+xml</dc:format>
    <dc:type rdf:resource="http://purl.org/dc/dcmitype/StillImage"/>
    <dc:title/>
   </cc:Work>
  </rdf:RDF>
 </metadata>
 <g id="layer1">
  <rect id="rect1373-5" x="4" y="4" width="40" height="40" ry="8" fill="#627ad4" fill-rule="evenodd" style="paint-order:stroke fill markers"/>
  <path id="rect817" d="m12 4c-4.432 0-8 3.568-8 8v24c0 4.432 3.568 8 8 8h24c4.432 0 8-3.568 8-8v-24c0-4.432-3.568-8-8-8h-24zm0 1h24c3.878 0 7 3.122 7 7v24c0 3.878-3.122 7-7 7h-24c-3.878 0-7-3.122-7-7v-24c0-3.878 3.122-7 7-7z" fill-rule="evenodd" opacity=".3" style="paint-order:stroke fill markers"/>
  <path id="path22" d="m8 29c0.035526 0.07578 0.075393 0.14882 0.11328 0.22461h2.498c13.518-0.02369 24.118 0.74639 31.389 1.7754v-1.9902c-9.6454 0.12813-21.518 0.013094-34-0.009766z" fill="#d9822b" fill-rule="evenodd"/>
  <path id="path46" d="m17.262 18.086-0.26363 1.8167h-1.5907c-0.96664 0-1.8615 0.34254-2.6847 1.0258-0.217 0.17934-0.41068 0.36585-0.58285 0.56492-0.09683-0.19906-0.217-0.38558-0.36406-0.56492-0.56312-0.68328-1.3325-1.0258-2.2991-1.0258h-2.0552c-0.073533 0.38378 0 0.71018 0.217 0.98098 0.21879 0.2708 0.51829 0.40889 0.90387 0.40889h0.67252c0.57568 0 1.0258 0.20624 1.3504 0.6223 0.3246 0.41606 0.434 0.91463 0.3246 1.4903-0.10939 0.57747-0.40351 1.0689-0.88593 1.4795-0.48242 0.40889-1.0168 0.61692-1.5907 0.61692h-0.67252c-0.38558 0-0.73708 0.13271-1.0599 0.40351-0.32281 0.2708-0.52188 0.5954-0.59361 0.98098h2.0624c0.96663 0 1.8562-0.33716 2.6793-1.0151 0.21521-0.17755 0.41068-0.36764 0.58106-0.56671 0.09684 0.19906 0.22238 0.38916 0.37123 0.56671 0.56312 0.6779 1.3253 1.0151 2.2919 1.0151h2.0624c0.07353-0.38558 0-0.71018-0.21879-0.98098-0.21879-0.2708-0.52367-0.40351-0.90745-0.40351h-0.66714c-0.57747 0-1.0294-0.20803-1.3558-0.61692-0.32819-0.41069-0.43759-0.90207-0.3264-1.4795 0.10939-0.57568 0.4071-1.0742 0.89131-1.4903 0.48421-0.41607 1.0168-0.6223 1.5925-0.6223h0.67252c0.37482 0 0.71915-0.1345 1.0366-0.39275l-0.36406 2.4892c-0.14526 0.98278 0.08429 1.8149 0.69404 2.5036 0.5954 0.69942 1.397 1.0438 2.3655 1.0438 0.98636 0 1.8831-0.34433 2.6901-1.0438 0.80702-0.68866 1.2912-1.5208 1.4347-2.5036 0.14347-0.98457-0.08968-1.8167-0.68149-2.5054-0.60975-0.68328-1.4168-1.0312-2.4031-1.0312h-2.0983l0.03587-0.27439c0.07173-0.40531-0.01794-0.7604-0.28694-1.0545-0.23314-0.29412-0.5685-0.43759-0.97739-0.43759zm1.0133 3.1779h2.1162c0.57388 0 1.0402 0.20086 1.3988 0.61693 0.32281 0.41427 0.44835 0.92539 0.37661 1.5082-0.08967 0.58285-0.35868 1.0814-0.82496 1.5011-0.46628 0.42324-0.98636 0.63845-1.5782 0.63845-0.59182 0-1.0581-0.21521-1.3988-0.63845-0.34074-0.41965-0.46628-0.91821-0.39454-1.5011z" fill="#96d56b"/>
  <path id="path48" d="m27.637 19.853c-0.98636 0-1.8831 0.34612-2.6721 1.0366-0.80702 0.70121-1.2912 1.5316-1.4347 2.5161l-0.52008 3.5312c0.41248 0 0.78909-0.13809 1.1119-0.43221 0.34074-0.28874 0.53802-0.63845 0.59182-1.0527l0.30488-2.0463c0.08966-0.58823 0.35868-1.0922 0.82496-1.519 0.46628-0.41606 1.0043-0.62231 1.5782-0.62231 0.59182 0 1.0581 0.20624 1.3988 0.62231 0.34074 0.42683 0.46628 0.93077 0.37661 1.519l-0.28694 2.0463c-0.07173 0.4071 0.03586 0.74784 0.28694 1.042 0.25108 0.29232 0.57388 0.44297 0.98636 0.44297l0.52008-3.5312c0.07173-0.58823 0.35868-1.0922 0.82496-1.519 0.46628-0.41606 0.98636-0.62231 1.5782-0.62231 0.57388 0 1.0402 0.20624 1.3809 0.62231 0.34074 0.42683 0.48422 0.93077 0.39454 1.519l-0.30488 2.0463c-0.0538 0.4071 0.03586 0.74784 0.28694 1.042 0.25107 0.29232 0.57388 0.44297 0.98636 0.44297l0.25108-1.6535c0.1076 0.217 0.23314 0.42324 0.41248 0.61692 0.60975 0.69045 1.3988 1.0366 2.3673 1.0366h2.0983c0.0538-0.38916-0.03586-0.72273-0.26901-0.99892-0.23314-0.27259-0.55595-0.40889-0.93256-0.40889h-0.68149c-0.59182 0-1.0581-0.21162-1.3988-0.62769-0.35868-0.41427-0.48421-0.91283-0.41248-1.4957 0.08966-0.58823 0.37661-1.0922 0.84289-1.519 0.46628-0.41606 1.0043-0.62231 1.5782-0.62231h0.68148c0.39455 0 0.75322-0.14526 1.076-0.41965 0.30487-0.27439 0.48421-0.59899 0.53802-0.99174h-2.0803c-0.98636 0-1.8651 0.34612-2.6721 1.0366-0.39454 0.34433-0.71735 0.72094-0.9505 1.1316-0.1076-0.41248-0.32281-0.79088-0.60975-1.1316-0.60975-0.69046-1.3988-1.0366-2.3852-1.0366-0.53802 0-1.076 0.12733-1.614 0.37482-0.53802 0.24749-1.0222 0.57926-1.4168 1.0151-0.28694-0.43579-0.66355-0.77833-1.1119-1.0258-0.46628-0.24032-0.96843-0.36406-1.5244-0.36406z" fill="#e6eff8"/>
 </g>
</svg>
