<?xml version="1.0" encoding="UTF-8"?>
<!-- Created with Inkscape (http://www.inkscape.org/) -->
<svg id="SVGRoot" width="48px" height="48px" version="1.1" viewBox="0 0 48 48" xmlns="http://www.w3.org/2000/svg" xmlns:cc="http://creativecommons.org/ns#" xmlns:dc="http://purl.org/dc/elements/1.1/" xmlns:rdf="http://www.w3.org/1999/02/22-rdf-syntax-ns#" xmlns:xlink="http://www.w3.org/1999/xlink">
 <defs id="defs815">
  <style id="style819">.cls-1{fill:none;stroke:#fff;stroke-linecap:round;stroke-linejoin:round;}</style>
  <style id="style2">.a{fill:none;stroke:#b1b5bd;stroke-linecap:round;stroke-linejoin:round;isolation:isolate;opacity:0.63;}</style>
  <style id="style819-1">.cls-1{fill:none;stroke:#fff;stroke-linecap:round;stroke-linejoin:round;}</style>
 </defs>
 <metadata id="metadata818">
  <rdf:RDF>
   <cc:Work rdf:about="">
    <dc:format>image/svg+xml</dc:format>
    <dc:type rdf:resource="http://purl.org/dc/dcmitype/StillImage"/>
    <dc:title/>
   </cc:Work>
  </rdf:RDF>
 </metadata>
 <g id="layer1" fill-rule="evenodd">
  <rect id="rect1373-5" x="4" y="4" width="40" height="40" ry="8" fill="#4577aa" style="paint-order:stroke fill markers"/>
  <path id="rect850" d="m24 6c-7.756 0-14 6.244-14 14s6.244 14 14 14 14-6.244 14-14-6.244-14-14-14zm0 2c1.4061 0 2.7483 0.25097 4 0.69141v1.3086s0 2-2 2h-4v4s0 2-2 2h-2v2h8c2 0 2 2 2 2v4h2c1.7446 0 2.7285 0.76109 3.2832 1.6191-2.1973 2.678-5.5331 4.3809-9.2832 4.3809-0.33768 0-0.66954-0.0237-1-0.05078v-1.9492c-4 0-4-4-4-4v-2l-6.6895-6.6895c1.2164-5.3424 5.9683-9.3105 11.689-9.3105z" opacity=".25" style="paint-order:stroke fill markers"/>
  <path id="rect866" d="m24 22c-17 0-18 11-18 11v3c0 3.324 2.676 6 6 6h24c3.324 0 6-2.676 6-6v-2s-1-12-18-12z" fill="#70d9e9" style="paint-order:normal"/>
  <path id="rect818-7" d="m22 12v14h-4l6 10 6-10h-4v-14z" fill="#fff" style="paint-order:normal"/>
  <path id="rect910" d="m33 24c-1.662 0-3 1.338-3 3s1.338 3 3 3 3-1.338 3-3-1.338-3-3-3zm0 1c1.108 0 2 0.892 2 2s-0.892 2-2 2-2-0.892-2-2 0.892-2 2-2z" fill="#fff" opacity=".5" style="paint-order:normal"/>
  <path id="rect912" d="m36 32c-2.216 0-4 1.784-4 4s1.784 4 4 4 4-1.784 4-4-1.784-4-4-4zm0 1c1.662 0 3 1.338 3 3s-1.338 3-3 3-3-1.338-3-3 1.338-3 3-3z" fill="#fff" opacity=".5" style="paint-order:normal"/>
  <path id="rect914" d="m28 32c-1.108 0-2 0.892-2 2s0.892 2 2 2 2-0.892 2-2-0.892-2-2-2zm0 1c0.554 0 1 0.446 1 1s-0.446 1-1 1-1-0.446-1-1 0.446-1 1-1z" fill="#fff" opacity=".5" style="paint-order:normal"/>
  <rect id="rect922" x="38" y="28" width="2" height="2" ry="1" fill="#fff" opacity=".5" style="paint-order:normal"/>
  <path id="rect817" d="m12 4c-4.432 0-8 3.568-8 8v24c0 4.432 3.568 8 8 8h24c4.432 0 8-3.568 8-8v-24c0-4.432-3.568-8-8-8h-24zm0 1h24c3.878 0 7 3.122 7 7v24c0 3.878-3.122 7-7 7h-24c-3.878 0-7-3.122-7-7v-24c0-3.878 3.122-7 7-7z" opacity=".3" style="paint-order:stroke fill markers"/>
 </g>
</svg>
