<?xml version="1.0" encoding="UTF-8"?>
<!-- Created with Inkscape (http://www.inkscape.org/) -->
<svg id="SVGRoot" width="48px" height="48px" version="1.1" viewBox="0 0 48 48" xmlns="http://www.w3.org/2000/svg" xmlns:cc="http://creativecommons.org/ns#" xmlns:dc="http://purl.org/dc/elements/1.1/" xmlns:rdf="http://www.w3.org/1999/02/22-rdf-syntax-ns#">
 <defs id="defs815">
  <style id="style819">.cls-1{fill:none;stroke:#fff;stroke-linecap:round;stroke-linejoin:round;}</style>
 </defs>
 <metadata id="metadata818">
  <rdf:RDF>
   <cc:Work rdf:about="">
    <dc:format>image/svg+xml</dc:format>
    <dc:type rdf:resource="http://purl.org/dc/dcmitype/StillImage"/>
    <dc:title/>
   </cc:Work>
  </rdf:RDF>
 </metadata>
 <g id="layer1" fill-rule="evenodd">
  <rect id="rect1373-5" x="4" y="4" width="40" height="40" ry="8" fill="#729dec" style="paint-order:stroke fill markers"/>
  <path id="rect817" d="m12 4c-4.432 0-8 3.568-8 8v24c0 4.432 3.568 8 8 8h24c4.432 0 8-3.568 8-8v-24c0-4.432-3.568-8-8-8h-24zm0 1h24c3.878 0 7 3.122 7 7v24c0 3.878-3.122 7-7 7h-24c-3.878 0-7-3.122-7-7v-24c0-3.878 3.122-7 7-7z" opacity=".3" style="paint-order:stroke fill markers"/>
  <rect id="rect818" x="2" y="12" width="24" height="24" ry="12" fill="#efefef" style="paint-order:normal"/>
  <rect id="rect818-7" x="22" y="12" width="24" height="24" ry="12" fill="#efefef" style="paint-order:normal"/>
  <rect id="rect835" x="12" y="18" width="12" height="12" ry="6" fill="#729dec" style="paint-order:normal"/>
  <rect id="rect852" x="14" y="20" width="8" height="8" ry="4" fill="#4e4e4e" style="paint-order:normal"/>
  <rect id="rect856" x="16" y="21" width="4" height="4" ry="2" fill="#fff" opacity=".75" style="paint-order:normal"/>
  <rect id="rect835-0" x="32" y="18" width="12" height="12" ry="6" fill="#729dec" style="paint-order:normal"/>
  <rect id="rect852-7" x="34" y="20" width="8" height="8" ry="4" fill="#4e4e4e" style="paint-order:normal"/>
  <rect id="rect856-1" x="36" y="21" width="4" height="4" ry="2" fill="#fff" opacity=".75" style="paint-order:normal"/>
  <path id="rect921" d="m14 12c-6.648 0-12 5.352-12 12s5.352 12 12 12c4.1861 0 7.8543-2.124 10-5.3555 2.1457 3.2315 5.8139 5.3555 10 5.3555 6.648 0 12-5.352 12-12s-5.352-12-12-12c-4.1861 0-7.8543 2.124-10 5.3555-2.1457-3.2315-5.8139-5.3555-10-5.3555zm0 1c4.4562 0 8.2681 2.629 10 6.4219 1.7319-3.7929 5.5438-6.4219 10-6.4219 6.094 0 11 4.906 11 11s-4.906 11-11 11c-4.4562 0-8.2681-2.629-10-6.4219-1.7319 3.7929-5.5438 6.4219-10 6.4219-6.094 0-11-4.906-11-11s4.906-11 11-11z" opacity=".25" style="paint-order:normal"/>
 </g>
</svg>
