<?xml version="1.0" encoding="UTF-8"?>
<!-- Created with Inkscape (http://www.inkscape.org/) -->
<svg id="SVGRoot" width="48px" height="48px" version="1.1" viewBox="0 0 48 48" xmlns="http://www.w3.org/2000/svg" xmlns:cc="http://creativecommons.org/ns#" xmlns:dc="http://purl.org/dc/elements/1.1/" xmlns:rdf="http://www.w3.org/1999/02/22-rdf-syntax-ns#">
 <defs id="defs815">
  <style id="style819">.cls-1{fill:none;stroke:#fff;stroke-linecap:round;stroke-linejoin:round;}</style>
 </defs>
 <metadata id="metadata818">
  <rdf:RDF>
   <cc:Work rdf:about="">
    <dc:format>image/svg+xml</dc:format>
    <dc:type rdf:resource="http://purl.org/dc/dcmitype/StillImage"/>
    <dc:title/>
   </cc:Work>
  </rdf:RDF>
 </metadata>
 <g id="layer1">
  <rect id="rect1373-5" x="4" y="4" width="40" height="40" ry="8" fill="#71b9e3" fill-rule="evenodd" style="paint-order:stroke fill markers"/>
  <path id="rect817" d="m12 4c-4.432 0-8 3.568-8 8v24c0 4.432 3.568 8 8 8h24c4.432 0 8-3.568 8-8v-24c0-4.432-3.568-8-8-8h-24zm0 1h24c3.878 0 7 3.122 7 7v24c0 3.878-3.122 7-7 7h-24c-3.878 0-7-3.122-7-7v-24c0-3.878 3.122-7 7-7z" fill-rule="evenodd" opacity=".3" style="paint-order:stroke fill markers"/>
  <path id="path828-7" d="m11.942 19.833s-1.6428 2.7819-1.767 4.816c-0.18196 2.9813 0.63376 6.9418 3.01 8.7513 2.6761 2.0379 5.976 2.6506 9.3255 2.3411 1.8913-0.17472 14.122-4.726 13.579-10.223-0.54608-5.5241-14.664-7.6254-14.664-7.6254s1.2431-6.0311-2.4749-5.8863c-2.8446 0.11077-1.7391 5.9532-1.7391 5.9532l-1.7301 0.3818s-1.6875-5.8024-4.5424-4.5289c-2.7071 1.2075 1.0033 6.0201 1.0033 6.0201z" fill="#fff"/>
  <path id="path917" d="m29 11v6l3-3 1 4 3-5" fill="none" stroke="#fff" stroke-linecap="round" stroke-linejoin="round" stroke-width="2"/>
  <path id="path917-4" d="m31 29v-6l-3 3-1-4-3 5" fill="none" stroke="#71b9e3" stroke-linecap="round" stroke-linejoin="round" stroke-width="2"/>
 </g>
</svg>
