<?xml version="1.0" encoding="UTF-8"?>
<!-- Created with Inkscape (http://www.inkscape.org/) -->
<svg id="SVGRoot" width="48px" height="48px" version="1.1" viewBox="0 0 48 48" xmlns="http://www.w3.org/2000/svg" xmlns:cc="http://creativecommons.org/ns#" xmlns:dc="http://purl.org/dc/elements/1.1/" xmlns:rdf="http://www.w3.org/1999/02/22-rdf-syntax-ns#">
 <defs id="defs815">
  <style id="style819">.cls-1{fill:none;stroke:#fff;stroke-linecap:round;stroke-linejoin:round;}</style>
  <style id="style819-4">.cls-1{fill:none;stroke:#fff;stroke-linecap:round;stroke-linejoin:round;}</style>
  <style id="style819-5">.cls-1{fill:none;stroke:#fff;stroke-linecap:round;stroke-linejoin:round;}</style>
 </defs>
 <metadata id="metadata818">
  <rdf:RDF>
   <cc:Work rdf:about="">
    <dc:format>image/svg+xml</dc:format>
    <dc:type rdf:resource="http://purl.org/dc/dcmitype/StillImage"/>
    <dc:title/>
   </cc:Work>
  </rdf:RDF>
 </metadata>
 <g id="layer1">
  <rect id="rect1373-5" x="4" y="4" width="40" height="40" ry="8" fill="#fae0cb" fill-rule="evenodd" style="paint-order:stroke fill markers"/>
  <path id="rect817" d="m12 4c-4.432 0-8 3.568-8 8v24c0 4.432 3.568 8 8 8h24c4.432 0 8-3.568 8-8v-24c0-4.432-3.568-8-8-8h-24zm0 1h24c3.878 0 7 3.122 7 7v24c0 3.878-3.122 7-7 7h-24c-3.878 0-7-3.122-7-7v-24c0-3.878 3.122-7 7-7z" fill-rule="evenodd" opacity=".3" style="paint-order:stroke fill markers"/>
  <path id="path845" d="m36 32-4 1 1-6 2 2c1 1 1 3 1 3z" fill="#faadad"/>
  <path id="path907" d="m12 26 3-1s5 6 9 9c-8 0-12-8-12-8z" fill="#faadad"/>
  <path id="path843" d="m32 33 2-1c2-1 1-4 1-4l-6-4-14-2v3s5 9 10 9c2.357 0 7-1 7-1z" fill="#fff"/>
  <rect id="rect830" x="22" y="24" width="8" height="8" ry="4" fill="#729dec" fill-rule="evenodd" style="paint-order:normal"/>
  <rect id="rect828" x="24" y="26" width="4" height="4" ry="2" fill="#4e4e4e" fill-rule="evenodd" style="paint-order:normal"/>
  <path id="path832" d="m9 12s1-2 4-2c4 0 10.529 3.8304 21.34 11.118 2.6253 1.7697 4.8973 3.9527 4.6598 5.8818-0.0576 0.46787-0.66667 1.3333-1 1-2-2-2.475-2.8909-4-4-11-8-17-13-21-13-3 0-4 1-4 1z" fill="#5d4b4b"/>
  <path id="path836" d="m16 20s2-2 8 0c9.3434 3.1145 10 7 10 7z" fill="#faadad"/>
  <path id="path834" d="m11 18c0 3 3 5 3 5s1 9 10 11c-8-4-8.8706-10.459-8.9766-10.912 2.2251 0.19522 8.5393 0.81807 11.977 1.9121 2.841 0.90425 6.0466 1.7477 8 4 0.69064 0.79632 1 3 1 3s-0.16351-2.9095-1-4c-2.0888-2.723-5.8586-3.6181-9-5-4.8243-2.1222-8-5-15-5z" fill="#4e4e4e"/>
  <rect id="rect847" x="23" y="26" width="2" height="2" ry="1" fill="#fff" fill-rule="evenodd" style="paint-order:normal"/>
 </g>
</svg>
