<?xml version="1.0" encoding="UTF-8"?>
<!-- Created with Inkscape (http://www.inkscape.org/) -->
<svg id="SVGRoot" width="48px" height="48px" version="1.1" viewBox="0 0 48 48" xml:space="preserve" xmlns="http://www.w3.org/2000/svg" xmlns:cc="http://creativecommons.org/ns#" xmlns:dc="http://purl.org/dc/elements/1.1/" xmlns:rdf="http://www.w3.org/1999/02/22-rdf-syntax-ns#"><defs><style>.cls-1{fill:none;stroke:#fff;stroke-linecap:round;stroke-linejoin:round;}</style><style>.cls-1{fill:none;stroke:#fff;stroke-linecap:round;stroke-linejoin:round;}</style><style>.cls-1{fill:none;stroke:#fff;stroke-linecap:round;stroke-linejoin:round;}</style><style>.cls-1{fill:none;stroke:#fff;stroke-linecap:round;stroke-linejoin:round;}</style></defs><metadata><rdf:RDF><cc:Work rdf:about=""><dc:format>image/svg+xml</dc:format><dc:type rdf:resource="http://purl.org/dc/dcmitype/StillImage"/></cc:Work></rdf:RDF></metadata><rect x="4" y="4" width="40" height="40" ry="8" fill="#F8A23D" fill-rule="evenodd" style="paint-order:stroke fill markers"/><path d="m12 4c-4.432 0-8 3.568-8 8v24c0 4.432 3.568 8 8 8h24c4.432 0 8-3.568 8-8v-24c0-4.432-3.568-8-8-8zm0 1h24c3.878 0 7 3.122 7 7v24c0 3.878-3.122 7-7 7h-24c-3.878 0-7-3.122-7-7v-24c0-3.878 3.122-7 7-7z" fill-rule="evenodd" opacity=".3" style="paint-order:stroke fill markers"/><g stroke-linecap="round" stroke-linejoin="round" stroke-width="2"><path d="m18 23s1 0 1-1v-1h5s-1 0.5286-1 1c0 1 1 1 1 1l-5 4z" fill="#f7ec78" style="paint-order:stroke fill markers"/><rect x="15" y="10" width="12" height="12" ry="6" fill="#f7ec78" style="paint-order:stroke fill markers"/><path d="m15 16s1.4821 0 3 2c1.2091 1.5931-1.0572 2-2 2-2 0-5-2-5-3s4-1 4-1z" fill="#d75300" style="paint-order:stroke fill markers"/><rect x="19" y="14" width="3" height="3" ry="1.5" fill="#414242" style="paint-order:stroke fill markers"/></g><g fill="#d75300" stroke-linecap="round" stroke-linejoin="round" stroke-width="2"><rect x="21" y="17" width="3" height="2" rx="1.5" ry="1" opacity=".4" style="paint-order:stroke fill markers"/><path d="m17 34s0 4 2 4c4 0 5-2 5-2z" style="paint-order:stroke fill markers"/><path d="m31 34s0 4-2 4c-4 0-5-2-5-2z" style="paint-order:stroke fill markers"/></g><path d="m18 23s1 1 3 1 3-1 3-1 2 2 4 2c5.7776 0 6.4634-1 6.4634-1s0.53665-1 1.5366-1 1 1 1 1 0 12-13 12c-4.3461 0-11-1-11-7 0-4 5-6 5-6z" fill="#d9fefa" stroke-linecap="round" stroke-linejoin="round" stroke-width="2" style="paint-order:stroke fill markers"/><path d="m23 28c0-3 1.5858-3 3-3 4.4638 0 5-3 5-3s0-1 1-1 1.1687 1 1.1687 1 0.83135 2.6256 0.83135 4c0 3-3.1759 5.8436-6 6-2.1311 0.11803-5-2-5-4z" fill="#f7ec78" stroke-linecap="round" stroke-linejoin="round" stroke-width="2" style="paint-order:stroke fill markers"/></svg>
