<?xml version="1.0" encoding="UTF-8"?>
<!-- Created with Inkscape (http://www.inkscape.org/) -->
<svg id="SVGRoot" width="48px" height="48px" version="1.1" viewBox="0 0 48 48" xmlns="http://www.w3.org/2000/svg" xmlns:cc="http://creativecommons.org/ns#" xmlns:dc="http://purl.org/dc/elements/1.1/" xmlns:rdf="http://www.w3.org/1999/02/22-rdf-syntax-ns#">
 <defs>
  <style>.cls-1{fill:none;stroke:#fff;stroke-linecap:round;stroke-linejoin:round;}</style>
  <style>.a{fill:none;stroke:#b1b5bd;stroke-linecap:round;stroke-linejoin:round;isolation:isolate;opacity:0.63;}</style>
 </defs>
 <metadata>
  <rdf:RDF>
   <cc:Work rdf:about="">
    <dc:format>image/svg+xml</dc:format>
    <dc:type rdf:resource="http://purl.org/dc/dcmitype/StillImage"/>
   </cc:Work>
  </rdf:RDF>
 </metadata>
 <rect x="4" y="4" width="40" height="40" ry="8" fill="#efefef" fill-rule="evenodd" style="paint-order:stroke fill markers"/>
 <path d="m12 4c-4.432 0-8 3.568-8 8v24c0 4.432 3.568 8 8 8h24c4.432 0 8-3.568 8-8v-24c0-4.432-3.568-8-8-8h-24zm0 1h24c3.878 0 7 3.122 7 7v24c0 3.878-3.122 7-7 7h-24c-3.878 0-7-3.122-7-7v-24c0-3.878 3.122-7 7-7z" fill-rule="evenodd" opacity=".3" style="paint-order:stroke fill markers"/>
 <path d="m27.126 11.513c-1.3345 0.01918-2.4666 1.2048-2.5241 2.3656-0.0507 1.0225 1.0191 2.096 2.0079 2.3006 0.67616 0.13987 3.0302-0.1619 3.1724-0.98568 0.20676-1.1971-1.1584-3.702-2.6562-3.6805zm-5.7779 5.1539c-3.1995 0.0641-7.6546 3.9711-8.178 5.7799-0.18285 0.63189 0.61384 0.50634 0.98568 0.52434 1.113 0.05377 2.4073-0.78432 2.955-1.2153 0.60552-0.4765-0.47832-1.3004 2.2355-2.4957 3.3742-1.4861 4.4022 0.70169 6.733 1.5771-2.4214 2.0636-3.1319 2.781-4.2049 4.1825-7.6679 1.6963-12.633 8.527-11.791 9.877 1.5978 2.5643 10.261-4.2405 11.395-6.8062 4.5607-0.20694 11.092 0.93703 11.794 3.3228 0.12056 0.41023-0.43793 0.84498-0.29469 1.2478 0.6984 1.9644 4.9755 4.4144 5.0584 3.6134 0.38218-3.6931-6.5263-11.23-14.092-11.271 1.027-1.3056 1.5042-1.9473 3.1867-3.3777 0.78486 0.41994 1.4547 0.71521 2.2335 0.68895 1.8434-0.0621 3.9356-1.9292 4.5564-3.9 0.24918-0.79099-0.63882-1.7112-1.4673-1.7478-1.628-0.07188-3.4163 1.7397-3.4163 1.7397s-3.8937-1.8157-7.6882-1.7397zm11.105 1.0487c0.53202-0.01206 0.63482 0.11238 0.67268 0.42679 0.07496 0.62229-0.85708 0.71079-1.4836 0.7296-0.47804 0.01435-1.4368-0.23169-1.4368-0.23169s1.0274-0.80716 1.5588-0.86779c0.28604-0.03258 0.51162-0.05284 0.68897-0.05685zm-13.056 10.414s-1.9287 2.6601-4.3878 4.2374c-1.0291 0.66009-2.3038 1.3495-2.7253 0.72147-0.42875-0.63878-0.08086-1.3915 0.62392-1.9043 3.2835-2.3886 6.4892-3.0546 6.4892-3.0546z" fill="#4e4e4e" stroke-width="1.0331"/>
</svg>
