<?xml version="1.0" encoding="UTF-8"?>
<!-- Created with Inkscape (http://www.inkscape.org/) -->
<svg id="SVGRoot" width="48px" height="48px" version="1.1" viewBox="0 0 48 48" xml:space="preserve" xmlns="http://www.w3.org/2000/svg" xmlns:cc="http://creativecommons.org/ns#" xmlns:dc="http://purl.org/dc/elements/1.1/" xmlns:rdf="http://www.w3.org/1999/02/22-rdf-syntax-ns#" xmlns:xlink="http://www.w3.org/1999/xlink"><defs><style>.cls-1{fill:none;stroke:#fff;stroke-linecap:round;stroke-linejoin:round;}</style><style>.cls-1{fill:none;stroke:#fff;stroke-linecap:round;stroke-linejoin:round;}</style><linearGradient id="linearGradient8" x1="28" x2="33" y1="29" y2="18" gradientUnits="userSpaceOnUse"><stop stop-color="#fff" offset="0"/><stop stop-color="#4e4e4e" offset="1"/></linearGradient></defs><metadata><rdf:RDF><cc:Work rdf:about=""><dc:format>image/svg+xml</dc:format><dc:type rdf:resource="http://purl.org/dc/dcmitype/StillImage"/></cc:Work></rdf:RDF></metadata><rect x="4" y="4" width="40" height="40" ry="8" fill="#4e4e4e" fill-rule="evenodd" style="paint-order:stroke fill markers"/><path d="m12 4c-4.432 0-8 3.568-8 8v24c0 4.432 3.568 8 8 8h24c4.432 0 8-3.568 8-8v-24c0-4.432-3.568-8-8-8zm0 1h24c3.878 0 7 3.122 7 7v24c0 3.878-3.122 7-7 7h-24c-3.878 0-7-3.122-7-7v-24c0-3.878 3.122-7 7-7z" fill-rule="evenodd" opacity=".3" style="paint-order:stroke fill markers"/><path d="m16 18s0-2 2-2h13v2h-13v8h-2z" fill="#fff" style="paint-order:stroke fill markers"/><path d="m20 24h2v-2h5v-2h-5c-2 0-2 2-2 2z" fill="#fff" style="paint-order:stroke fill markers"/><path d="m34 18v14c0 2-2 2-2 2h-19v2h19s4 0 4-4v-14h-2zm-4 4v8h-13v2h13c2 0 2-2 2-2v-8h-2zm-4 2v2h-5v2h5c2 0 2-2 2-2v-2h-2z" fill="url(#linearGradient8)" style="paint-order:stroke fill markers"/><path d="m35 14v-2h-19s-4 0-4 4v14h2v-14c0-2 2-2 2-2z" fill="#fff" style="paint-order:stroke fill markers"/><path d="m35 12a1 1 0 0 0-0.70703 0.29297l-22 22a1 1 0 0 0 0 1.4141 1 1 0 0 0 1.4141 0l22-22a1 1 0 0 0 0-1.4141 1 1 0 0 0-0.70703-0.29297z" fill="#fff" stop-color="#000000" stroke-linecap="round" stroke-linejoin="round" style="paint-order:stroke fill markers"/></svg>
