<?xml version="1.0" encoding="UTF-8"?>
<!-- Created with Inkscape (http://www.inkscape.org/) -->
<svg id="SVGRoot" width="48px" height="48px" version="1.1" viewBox="0 0 48 48" xmlns="http://www.w3.org/2000/svg" xmlns:cc="http://creativecommons.org/ns#" xmlns:dc="http://purl.org/dc/elements/1.1/" xmlns:rdf="http://www.w3.org/1999/02/22-rdf-syntax-ns#" xmlns:xlink="http://www.w3.org/1999/xlink">
 <defs id="defs815">
  <style id="style819">.cls-1{fill:none;stroke:#fff;stroke-linecap:round;stroke-linejoin:round;}</style>
  <style id="style2">.a{fill:none;stroke:#b1b5bd;stroke-linecap:round;stroke-linejoin:round;isolation:isolate;opacity:0.63;}</style>
  <style id="style819-1">.cls-1{fill:none;stroke:#fff;stroke-linecap:round;stroke-linejoin:round;}</style>
 </defs>
 <metadata id="metadata818">
  <rdf:RDF>
   <cc:Work rdf:about="">
    <dc:format>image/svg+xml</dc:format>
    <dc:type rdf:resource="http://purl.org/dc/dcmitype/StillImage"/>
    <dc:title/>
   </cc:Work>
  </rdf:RDF>
 </metadata>
 <g id="layer1">
  <rect id="rect1373-5" x="4" y="4" width="40" height="40" ry="8" fill="#71b9e3" fill-rule="evenodd" style="paint-order:stroke fill markers"/>
  <path id="rect817" d="m12 4c-4.432 0-8 3.568-8 8v24c0 4.432 3.568 8 8 8h24c4.432 0 8-3.568 8-8v-24c0-4.432-3.568-8-8-8h-24zm0 1h24c3.878 0 7 3.122 7 7v24c0 3.878-3.122 7-7 7h-24c-3.878 0-7-3.122-7-7v-24c0-3.878 3.122-7 7-7z" fill-rule="evenodd" opacity=".3" style="paint-order:stroke fill markers"/>
  <path id="path832" d="m13 23c0-8 4.5969-13 11-13 8 0 11.882 5.575 12 11 0.17409 8.012-6 17-17 17-5 0-7-2-7-2s2-3.2049 2-5c0-3-1-5.3126-1-8z" fill="#fff"/>
  <rect id="rect834-5" x="32" y="16" width="6" height="6" ry="3" fill="#fff" fill-rule="evenodd" style="paint-order:normal"/>
  <rect id="rect828" x="18" y="12" width="16" height="16" ry="8" fill="#71b9e3" fill-rule="evenodd" style="paint-order:normal"/>
  <rect id="rect834" x="10" y="22" width="6" height="6" ry="3" fill="#fff" fill-rule="evenodd" style="paint-order:normal"/>
  <rect id="rect851" x="24" y="18" width="4" height="4" ry="2" fill="#fff" fill-rule="evenodd" style="paint-order:normal"/>
  <path id="path853" d="m28.009 17.968-0.44088-2.36-1.8154 1.6857s0.64904-0.21151 1.2448-0.05187c0.5958 0.15965 1.0114 0.72616 1.0114 0.72616z" fill="#fff"/>
  <path id="path853-0" d="m28.009 22.247 0.72616 4.7719-2.9824-4.0976s0.64904 0.21151 1.2448 0.05187c0.5958-0.15965 1.0114-0.72616 1.0114-0.72616z" fill="#fff"/>
 </g>
</svg>
