<?xml version="1.0" encoding="UTF-8"?>
<!-- Created with Inkscape (http://www.inkscape.org/) -->
<svg id="SVGRoot" width="48px" height="48px" version="1.1" viewBox="0 0 48 48" xmlns="http://www.w3.org/2000/svg" xmlns:cc="http://creativecommons.org/ns#" xmlns:dc="http://purl.org/dc/elements/1.1/" xmlns:rdf="http://www.w3.org/1999/02/22-rdf-syntax-ns#">
 <defs id="defs815">
  <style id="style819">.cls-1{fill:none;stroke:#fff;stroke-linecap:round;stroke-linejoin:round;}</style>
 </defs>
 <metadata id="metadata818">
  <rdf:RDF>
   <cc:Work rdf:about="">
    <dc:format>image/svg+xml</dc:format>
    <dc:type rdf:resource="http://purl.org/dc/dcmitype/StillImage"/>
    <dc:title/>
   </cc:Work>
  </rdf:RDF>
 </metadata>
 <g id="layer1">
  <rect id="rect1373-5" x="4" y="4" width="40" height="40" ry="8" fill="#6ac5d7" fill-rule="evenodd" style="paint-order:stroke fill markers"/>
  <path id="path874" d="m12 6c-3.324 0-6 2.676-6 6v9l10 10v5c0 5 6 5 6 5v1h14c3.324 0 6-2.676 6-6v-0.64844c-0.88464-0.78406-2.1576-1.3516-4-1.3516h-6v-6s0-4-4-4h-13v-3h3c4 0 4-4 4-4v-7h7c3 0 3-3 3-3v-1h-20z" opacity=".25"/>
  <path id="rect817" d="m12 4c-4.432 0-8 3.568-8 8v24c0 4.432 3.568 8 8 8h24c4.432 0 8-3.568 8-8v-24c0-4.432-3.568-8-8-8h-24zm0 1h24c3.878 0 7 3.122 7 7v24c0 3.878-3.122 7-7 7h-24c-3.878 0-7-3.122-7-7v-24c0-3.878 3.122-7 7-7z" fill-rule="evenodd" opacity=".3" style="paint-order:stroke fill markers"/>
  <path id="path910" d="m23 16.043c-7.0946 0.43201-10.188 5.3253-10.68 6.1797l-1.7676 0.88281a1.0001 1.0001 0 0 0 0 1.7891l1.7676 0.88281c0.49121 0.85434 3.585 5.7477 10.68 6.1797v-3.0566c-1.9643-0.39588-3.5045-1.9361-3.9004-3.9004h-3.0996c-0.554 0-1-0.446-1-1s0.446-1 1-1h3.0996c0.39588-1.9643 1.9361-3.5045 3.9004-3.9004v-3.0566zm2 0v3.0566c1.9643 0.39588 3.5045 1.9361 3.9004 3.9004h3.0996c0.554 0 1 0.446 1 1s-0.446 1-1 1h-3.0996c-0.39588 1.9643-1.9361 3.5045-3.9004 3.9004v3.0566c7.0946-0.43201 10.188-5.3253 10.68-6.1797l1.7676-0.88281a1.0001 1.0001 0 0 0 0-1.7891l-1.7676-0.88281c-0.49121-0.85434-3.585-5.7477-10.68-6.1797z" color="#000000" color-rendering="auto" dominant-baseline="auto" fill="#fff" image-rendering="auto" shape-rendering="auto" solid-color="#000000" style="font-feature-settings:normal;font-variant-alternates:normal;font-variant-caps:normal;font-variant-ligatures:normal;font-variant-numeric:normal;font-variant-position:normal;isolation:auto;mix-blend-mode:normal;shape-padding:0;text-decoration-color:#000000;text-decoration-line:none;text-decoration-style:solid;text-indent:0;text-orientation:mixed;text-transform:none;white-space:normal"/>
  <rect id="rect836" x="22" y="22" width="4" height="4" ry="2" fill="#fff" fill-rule="evenodd" style="paint-order:stroke fill markers"/>
 </g>
</svg>
