<?xml version="1.0" encoding="UTF-8"?>
<!-- Created with Inkscape (http://www.inkscape.org/) -->
<svg id="SVGRoot" width="48px" height="48px" version="1.1" viewBox="0 0 48 48" xmlns="http://www.w3.org/2000/svg" xmlns:cc="http://creativecommons.org/ns#" xmlns:dc="http://purl.org/dc/elements/1.1/" xmlns:rdf="http://www.w3.org/1999/02/22-rdf-syntax-ns#">
 <defs id="defs815">
  <style id="style819">.cls-1{fill:none;stroke:#fff;stroke-linecap:round;stroke-linejoin:round;}</style>
  <style id="style819-4">.cls-1{fill:none;stroke:#fff;stroke-linecap:round;stroke-linejoin:round;}</style>
  <style id="style819-5">.cls-1{fill:none;stroke:#fff;stroke-linecap:round;stroke-linejoin:round;}</style>
 </defs>
 <metadata id="metadata818">
  <rdf:RDF>
   <cc:Work rdf:about="">
    <dc:format>image/svg+xml</dc:format>
    <dc:type rdf:resource="http://purl.org/dc/dcmitype/StillImage"/>
    <dc:title/>
   </cc:Work>
  </rdf:RDF>
 </metadata>
 <g id="layer1">
  <rect id="rect1373-5" x="4" y="4" width="40" height="40" ry="8" fill="#d35244" fill-rule="evenodd" style="paint-order:stroke fill markers"/>
  <path id="path1037" d="m15 13 8 12h14" fill="none" stroke="#efc0bc" stroke-linecap="round" stroke-linejoin="round" stroke-width="2"/>
  <path id="path975" d="m35.957 10.951c-0.19254-0.0055-0.32573 0.02274-0.45312 0.05469-0.2548 0.0639-0.48343 0.15898-0.74805 0.28125-0.52922 0.24454-1.177 0.6049-1.9395 1.0625-1.525 0.9152-3.4856 2.2094-5.5039 3.6055-4.0366 2.7921-8.1959 5.8775-9.6621 7.3438-0.58926 0.58926-0.80411 1.3503-0.88477 2.0762-0.05186 0.46676-0.03709 0.93024-2e-3 1.3848-0.38976-0.26714-0.91496-0.2452-1.2617 0.10156-0.2836 0.2836-0.35554 0.69021-0.22852 1.043-0.16814 0.09968-0.16185 0.09036-0.35156 0.20703-0.77383 0.47589-1.6346 1.0174-2.2227 1.6055-0.7579 0.75789-0.89532 1.7205-1.0059 2.6445s-0.20734 1.9638-0.67773 3.375a1.0001 1.0001 0 0 0 1.2657 1.2637c1.4066-0.46886 2.4498-0.55536 3.3809-0.65625s1.9093-0.22378 2.6758-0.99023c0.59812-0.59812 1.1266-1.4675 1.5938-2.252 0.11283-0.18947 0.10288-0.18305 0.19922-0.35156 0.34883 0.11852 0.74828 0.04664 1.0273-0.23242 0.34676-0.34676 0.3687-0.87196 0.10156-1.2617 0.45395 0.03514 0.91605 0.04991 1.3828-2e-3 0.72591-0.08066 1.4889-0.29551 2.0781-0.88476 1.591-1.591 4.6964-5.7717 7.4531-9.7734 1.3784-2.0009 2.6441-3.9341 3.5371-5.4375 0.44649-0.75169 0.7998-1.3907 1.0371-1.9141 0.11865-0.26167 0.21043-0.48786 0.27148-0.74219 0.03053-0.12717 0.05657-0.26134 0.04883-0.45312-0.0077-0.19179-0.05364-0.49895-0.32617-0.77148-0.27857-0.27857-0.59262-0.32065-0.78516-0.32617z" color="#000000" color-rendering="auto" dominant-baseline="auto" image-rendering="auto" opacity=".25" shape-rendering="auto" solid-color="#000000" stroke="#000" stroke-linecap="round" stroke-linejoin="round" stroke-width="2" style="font-feature-settings:normal;font-variant-alternates:normal;font-variant-caps:normal;font-variant-ligatures:normal;font-variant-numeric:normal;font-variant-position:normal;isolation:auto;mix-blend-mode:normal;shape-padding:0;text-decoration-color:#000000;text-decoration-line:none;text-decoration-style:solid;text-indent:0;text-orientation:mixed;text-transform:none;white-space:normal"/>
  <path id="rect817" d="m12 4c-4.432 0-8 3.568-8 8v24c0 4.432 3.568 8 8 8h24c4.432 0 8-3.568 8-8v-24c0-4.432-3.568-8-8-8h-24zm0 1h24c3.878 0 7 3.122 7 7v24c0 3.878-3.122 7-7 7h-24c-3.878 0-7-3.122-7-7v-24c0-3.878 3.122-7 7-7z" fill-rule="evenodd" opacity=".3" style="paint-order:stroke fill markers"/>
  <path id="path1037-0" d="m33 35-8-12h-14" fill="none" stroke="#efc0bc" stroke-linecap="round" stroke-linejoin="round" stroke-width="2"/>
  <path id="path853" d="m11.964 36.052c3.0305-1.0102 4.6557-0.39505 5.6659-1.4052 0.85846-0.85846 2.2404-3.4706 2.2404-3.4706l-3.0305-3.0305s-2.5754 1.4186-3.4339 2.277c-1.0102 1.0102-0.43172 2.5987-1.4419 5.6292z" fill="#ffdd75" stroke="#ffdd75" stroke-linecap="round" stroke-linejoin="round" stroke-width="2"/>
  <path id="rect876" d="m16.915 31.104c-0.39174-0.39174-1.0225-0.39174-1.4142 0-0.25996 0.25996-0.33089 0.62217-0.24583 0.95294l-4.2565 4.2565c0.0466 0.1698 0.13618 0.324 0.25826 0.44608 0.1231 0.1231 0.27873 0.2134 0.45023 0.25964l4.2551-4.2551c0.33077 0.08506 0.69298 0.01413 0.95294-0.24583 0.39174-0.39174 0.39174-1.0225 0-1.4142z" fill-rule="evenodd" opacity=".25" style="paint-order:normal"/>
  <path id="path857" d="m18.357 29.662s-1.4142-4.2426 0-5.6569c2.5386-2.5386 16.971-12.728 17.678-12.021 0.70711 0.70711-9.1924 14.849-12.021 17.678-1.4142 1.4142-5.6569 0-5.6569 0z" fill="#96d56b" stroke="#96d56b" stroke-linecap="round" stroke-linejoin="round" stroke-width="2"/>
  <rect id="rect855" transform="rotate(45)" x="29.955" y="7.0326" width="8" height="2" ry="1" fill="#ffdd75" fill-rule="evenodd" style="paint-order:normal"/>
  <rect id="rect1008" x="12" y="10" width="10" height="6" ry="2" fill="#efc0bc" fill-rule="evenodd" style="paint-order:stroke fill markers"/>
  <rect id="rect1008-2" x="26" y="32" width="10" height="6" ry="2" fill="#efc0bc" fill-rule="evenodd" style="paint-order:stroke fill markers"/>
  <rect id="rect1008-7" x="32" y="22" width="10" height="6" ry="2" fill="#efc0bc" fill-rule="evenodd" style="paint-order:stroke fill markers"/>
  <rect id="rect1008-5" x="6" y="20" width="10" height="6" ry="2" fill="#efc0bc" fill-rule="evenodd" style="paint-order:stroke fill markers"/>
 </g>
</svg>
