<?xml version="1.0" encoding="UTF-8"?>
<!-- Created with Inkscape (http://www.inkscape.org/) -->
<svg id="SVGRoot" width="48px" height="48px" version="1.1" viewBox="0 0 48 48" xmlns="http://www.w3.org/2000/svg" xmlns:cc="http://creativecommons.org/ns#" xmlns:dc="http://purl.org/dc/elements/1.1/" xmlns:rdf="http://www.w3.org/1999/02/22-rdf-syntax-ns#" xmlns:xlink="http://www.w3.org/1999/xlink">
 <defs id="defs815">
  <style id="style819">.cls-1{fill:none;stroke:#fff;stroke-linecap:round;stroke-linejoin:round;}</style>
 </defs>
 <metadata id="metadata818">
  <rdf:RDF>
   <cc:Work rdf:about="">
    <dc:format>image/svg+xml</dc:format>
    <dc:type rdf:resource="http://purl.org/dc/dcmitype/StillImage"/>
    <dc:title/>
   </cc:Work>
  </rdf:RDF>
 </metadata>
 <g id="layer1">
  <rect id="rect1373" x="4" y="4" width="40" height="40" ry="8" fill="#4e4e4e" fill-rule="evenodd" style="paint-order:stroke fill markers"/>
  <path id="rect882" d="m5 23.18v12.82c0 2.3875 1.1855 4.4857 3 5.748v-2.748c0-6.0912-1.8156-11.251-3-15.82zm38 0c-1.1844 4.569-3 9.7291-3 15.82v2.748c1.8145-1.2623 3-3.3606 3-5.748v-12.82z" fill-rule="evenodd" opacity=".4" style="paint-order:stroke fill markers"/>
  <path id="rect817" d="m12 4c-4.432 0-8 3.568-8 8v24c0 4.432 3.568 8 8 8h24c4.432 0 8-3.568 8-8v-24c0-4.432-3.568-8-8-8h-24zm0 1h24c3.878 0 7 3.122 7 7v24c0 3.878-3.122 7-7 7h-24c-3.878 0-7-3.122-7-7v-24c0-3.878 3.122-7 7-7z" fill-rule="evenodd" opacity=".4" style="paint-order:stroke fill markers"/>
  <path id="path850" d="m13 6c-3 0-3 3-3 3v8c0 4 4 12 4 17v6s0 2 2 2h16c2 0 2-2 2-2v-6c0-5 4-13 4-17v-8s-3.95e-4 -3.0487-3-3h-11z" fill="#efefef"/>
  <rect id="rect852" x="23" y="5" width="2" height="22" ry="1" fill="#4e4e4e" fill-rule="evenodd" style="paint-order:stroke fill markers"/>
  <rect id="rect856" x="20" y="7" width="8" height="14" ry="4" fill="#4e4e4e" fill-rule="evenodd" style="paint-order:stroke fill markers"/>
  <rect id="rect858" x="22" y="9" width="4" height="10" ry="2" fill="#b7bfc2" fill-rule="evenodd" style="paint-order:stroke fill markers"/>
  <rect id="rect860" x="21" y="29" width="6" height="6" ry="3" fill-rule="evenodd" opacity=".25" style="paint-order:stroke fill markers"/>
  <rect id="rect862" x="20" y="36" width="8" height="2" ry="1" fill-rule="evenodd" opacity=".25" style="paint-order:stroke fill markers"/>
  <rect id="rect971" x="22" y="10.5" width="4" height="1" fill-rule="evenodd" opacity=".25" style="paint-order:stroke fill markers"/>
  <rect id="rect973" x="22" y="13.5" width="4" height="1" fill-rule="evenodd" opacity=".25" style="paint-order:stroke fill markers"/>
  <rect id="rect975" x="22" y="16.5" width="4" height="1" fill-rule="evenodd" opacity=".25" style="paint-order:stroke fill markers"/>
 </g>
</svg>
