<?xml version="1.0" encoding="UTF-8"?>
<!-- Created with Inkscape (http://www.inkscape.org/) -->
<svg id="SVGRoot" width="48px" height="48px" version="1.1" viewBox="0 0 48 48" xmlns="http://www.w3.org/2000/svg" xmlns:cc="http://creativecommons.org/ns#" xmlns:dc="http://purl.org/dc/elements/1.1/" xmlns:rdf="http://www.w3.org/1999/02/22-rdf-syntax-ns#">
 <defs id="defs815">
  <style id="style819">.cls-1{fill:none;stroke:#fff;stroke-linecap:round;stroke-linejoin:round;}</style>
  <style id="style819-5">.cls-1{fill:none;stroke:#fff;stroke-linecap:round;stroke-linejoin:round;}</style>
 </defs>
 <metadata id="metadata818">
  <rdf:RDF>
   <cc:Work rdf:about="">
    <dc:format>image/svg+xml</dc:format>
    <dc:type rdf:resource="http://purl.org/dc/dcmitype/StillImage"/>
    <dc:title/>
   </cc:Work>
  </rdf:RDF>
 </metadata>
 <g id="layer1">
  <rect id="rect1373-5" x="4" y="4" width="40" height="40" ry="8" fill="#b7bfc2" fill-rule="evenodd" style="paint-order:stroke fill markers"/>
  <path id="rect1010" d="m28 6c-1.108 0-2 0.892-2 2v4 4 4c0 1.108 0.892 2 2 2h4 4 4c1.108 0 2-0.892 2-2v-4-4c0-3.324-2.676-6-6-6h-4-4z" fill="#efefef" fill-rule="evenodd" style="paint-order:stroke fill markers"/>
  <path id="rect1006" d="m8 26c-1.108 0-2 0.892-2 2v4 4c0 3.324 2.676 6 6 6h24c3.324 0 6-2.676 6-6v-4-4c0-1.108-0.892-2-2-2h-4-24-4z" fill="#efefef" fill-rule="evenodd" style="paint-order:stroke fill markers"/>
  <path id="rect940-1" d="m12 6c-3.324 0-6 2.676-6 6v4 4c0 1.108 0.892 2 2 2h8 4c1.108 0 2-0.892 2-2v-4-4-4c0-1.108-0.892-2-2-2h-4-4z" fill="#efefef" fill-rule="evenodd" style="paint-order:stroke fill markers"/>
  <path id="rect817" d="m12 4c-4.432 0-8 3.568-8 8v24c0 4.432 3.568 8 8 8h24c4.432 0 8-3.568 8-8v-24c0-4.432-3.568-8-8-8h-24zm0 1h24c3.878 0 7 3.122 7 7v24c0 3.878-3.122 7-7 7h-24c-3.878 0-7-3.122-7-7v-24c0-3.878 3.122-7 7-7z" fill-rule="evenodd" opacity=".3" style="paint-order:stroke fill markers"/>
  <path id="path844" d="m18.651 19.101h-1.4385l-0.99533-2.8292h-4.3903l-0.99533 2.8292h-1.3703l3.695-10.151h1.7998zm-2.8496-3.9881-1.7793-4.9835-1.7861 4.9835z" opacity=".4"/>
  <path id="path846" d="m37.838 19.052h-7.8458v-1.2424l6.1645-7.6229h-5.935v-1.1883h7.4676v1.2086l-6.2253 7.6567h6.3738z" opacity=".4"/>
  <path id="path848" d="m25.188 29.959v7.4688h0.90234v-7.4688zm-11.799 0.19141c-0.52486 0-1.0035 0.08288-1.4355 0.24609-0.42885 0.16322-0.79558 0.39855-1.0996 0.70898-0.31364 0.32003-0.55428 0.71368-0.7207 1.1777-0.16642 0.46405-0.25 0.98926-0.25 1.5781 0 0.62087 0.086946 1.1663 0.25977 1.6367 0.17282 0.46725 0.41347 0.85417 0.7207 1.1582 0.31364 0.31044 0.68107 0.53833 1.1035 0.68555 0.42565 0.14402 0.89756 0.2168 1.416 0.2168 0.27523 0 0.52668-0.02355 0.75391-0.06836 0.23043-0.0416 0.44345-0.09154 0.63867-0.15234 0.23042-0.07361 0.41582-0.14373 0.55664-0.21094 0.14402-0.06721 0.30445-0.13999 0.48047-0.2168v-1.1133h-0.06836c-0.34884 0.31364-0.723 0.54826-1.123 0.70508-0.40004 0.15682-0.82946 0.23438-1.2871 0.23438-0.33284 0-0.64839-0.05595-0.94922-0.16797-0.29763-0.11521-0.55918-0.29052-0.7832-0.52734-0.21442-0.22722-0.38973-0.52117-0.52734-0.88281-0.13442-0.36164-0.20117-0.79442-0.20117-1.2969 0-0.48005 0.06003-0.90274 0.18164-1.2676 0.12481-0.36804 0.29675-0.67208 0.51758-0.91211 0.22722-0.24643 0.48541-0.4258 0.77344-0.54102 0.29123-0.11841 0.61883-0.17773 0.98047-0.17773 0.44165 0 0.85494 0.07419 1.2422 0.22461 0.38724 0.15042 0.77823 0.39107 1.1719 0.7207h0.07227v-1.1289c-0.46725-0.23363-0.8933-0.39547-1.2773-0.48828-0.38084-0.09281-0.76244-0.14062-1.1465-0.14062zm3.7246 0.375v1.541h-0.60938v0.75781h0.60938v2.8516c0 0.64967 0.1429 1.1216 0.42774 1.416 0.28483 0.29443 0.70078 0.44141 1.248 0.44141 0.15682 0 0.33283-0.01416 0.53125-0.04297 0.20162-0.0288 0.38898-0.06457 0.55859-0.10938v-0.8125h-0.04883c-0.07041 0.0288-0.18569 0.06652-0.3457 0.11133-0.16002 0.04161-0.31372 0.0625-0.46094 0.0625-0.25283 0-0.44159-0.02833-0.56641-0.08594-0.12161-0.06081-0.2167-0.15519-0.28711-0.2832-0.07682-0.13762-0.12197-0.28459-0.13477-0.44141-0.01279-0.16002-0.01953-0.38243-0.01953-0.66406v-2.4434h1.8633v-0.75781h-1.8633v-1.541zm3.8594 1.541v5.3613h0.90234v-3.8066c0.24003-0.19522 0.48882-0.353 0.74805-0.47461 0.25923-0.12481 0.52821-0.1875 0.80664-0.1875 0.17282 0 0.32245 0.0074 0.44726 0.02344 0.12801 0.01281 0.25816 0.03636 0.39258 0.06836h0.04883v-0.92773c-0.14082-0.02241-0.246-0.03657-0.31641-0.04297-0.07041-0.0096-0.18498-0.01367-0.3418-0.01367-0.28483 0-0.56462 0.06003-0.83984 0.18164-0.27203 0.11841-0.58687 0.32134-0.94531 0.60938v-0.79102z" opacity=".4"/>
  <path id="rect1010-6" d="m28 6c-1.108 0-2 0.892-2 2v12c0 1.108 0.892 2 2 2h12c1.108 0 2-0.892 2-2v-8c0-3.324-2.676-6-6-6h-8zm0 2h8c2.216 0 4 1.784 4 4v8h-12v-12z" fill="#f97263" fill-rule="evenodd" style="paint-order:stroke fill markers"/>
  <path id="rect1010-6-8" d="m8 26c-1.108 0-2 0.892-2 2v8c0 3.324 2.676 6 6 6h24c3.324 0 6-2.676 6-6v-8c0-1.108-0.892-2-2-2h-32zm0 2h32v8c0 2.216-1.784 4-4 4h-24c-2.216 0-4-1.784-4-4v-8z" fill="#f97263" fill-rule="evenodd" style="paint-order:stroke fill markers"/>
 </g>
</svg>
