<?xml version="1.0" encoding="UTF-8"?>
<!-- Created with Inkscape (http://www.inkscape.org/) -->
<svg id="SVGRoot" width="48px" height="48px" version="1.1" viewBox="0 0 48 48" xmlns="http://www.w3.org/2000/svg" xmlns:cc="http://creativecommons.org/ns#" xmlns:dc="http://purl.org/dc/elements/1.1/" xmlns:rdf="http://www.w3.org/1999/02/22-rdf-syntax-ns#" xmlns:xlink="http://www.w3.org/1999/xlink">
 <defs id="defs815">
  <style id="style819">.cls-1{fill:none;stroke:#fff;stroke-linecap:round;stroke-linejoin:round;}</style>
 </defs>
 <metadata id="metadata818">
  <rdf:RDF>
   <cc:Work rdf:about="">
    <dc:format>image/svg+xml</dc:format>
    <dc:type rdf:resource="http://purl.org/dc/dcmitype/StillImage"/>
    <dc:title/>
   </cc:Work>
  </rdf:RDF>
 </metadata>
 <g id="layer1">
  <rect id="rect1373" x="4" y="4" width="40" height="40" ry="8" fill="#4e4e4e" fill-rule="evenodd" style="paint-order:stroke fill markers"/>
  <path id="rect817" d="m12 4c-4.432 0-8 3.568-8 8v24c0 4.432 3.568 8 8 8h24c4.432 0 8-3.568 8-8v-24c0-4.432-3.568-8-8-8h-24zm0 1h24c3.878 0 7 3.122 7 7v24c0 3.878-3.122 7-7 7h-24c-3.878 0-7-3.122-7-7v-24c0-3.878 3.122-7 7-7z" fill-rule="evenodd" opacity=".4" style="paint-order:stroke fill markers"/>
  <path id="path828" d="m13 6-4 4 2 3-3 3 16 17 16-17-3-3 2-3-4-4h-11z" fill="#7c8487"/>
  <path id="path830" d="m16 6 5 15h6l5-15h-8z" fill="#fff"/>
  <path id="path859" d="m18 6s0.85426 2.5294 4.873 2.9395l-4.6113 3.8437 0.48828 1.4668 5.25-5.25 5.25 5.25 0.48828-1.4668-4.6113-3.8437c4.0188-0.41001 4.873-2.9395 4.873-2.9395h-0.9043c-0.9485 0.87281-2.6418 2-5.0957 2s-4.1472-1.1272-5.0957-2z" opacity=".25"/>
  <path id="path833" d="m24 9-3 3 2 2-2 7 3 9 3-9-2-7 2-2z" fill="#d35244"/>
  <path id="path909" d="M 23,14 22.625,15.3125 24,17 25.375,15.3125 25,14 24,15 Z" opacity=".25"/>
 </g>
</svg>
