<?xml version="1.0" encoding="UTF-8"?>
<!-- Created with Inkscape (http://www.inkscape.org/) -->
<svg id="SVGRoot" width="48px" height="48px" version="1.1" viewBox="0 0 48 48" xmlns="http://www.w3.org/2000/svg" xmlns:cc="http://creativecommons.org/ns#" xmlns:dc="http://purl.org/dc/elements/1.1/" xmlns:rdf="http://www.w3.org/1999/02/22-rdf-syntax-ns#">
 <defs id="defs815">
  <style id="style819">.cls-1{fill:none;stroke:#fff;stroke-linecap:round;stroke-linejoin:round;}</style>
  <style id="style819-8">.cls-1{fill:none;stroke:#fff;stroke-linecap:round;stroke-linejoin:round;}</style>
 </defs>
 <metadata id="metadata818">
  <rdf:RDF>
   <cc:Work rdf:about="">
    <dc:format>image/svg+xml</dc:format>
    <dc:type rdf:resource="http://purl.org/dc/dcmitype/StillImage"/>
    <dc:title/>
   </cc:Work>
  </rdf:RDF>
 </metadata>
 <g id="layer1">
  <rect id="rect1373-5" x="4" y="4" width="40" height="40" ry="8" fill="#7568b3" fill-rule="evenodd" style="paint-order:stroke fill markers"/>
  <path id="rect817" d="m12 4c-4.432 0-8 3.568-8 8v24c0 4.432 3.568 8 8 8h24c4.432 0 8-3.568 8-8v-24c0-4.432-3.568-8-8-8h-24zm0 1h24c3.878 0 7 3.122 7 7v24c0 3.878-3.122 7-7 7h-24c-3.878 0-7-3.122-7-7v-24c0-3.878 3.122-7 7-7z" fill-rule="evenodd" opacity=".3" style="paint-order:stroke fill markers"/>
  <path id="rect828" d="m20 12c-0.36319 0-0.71826 0.03169-1.0684 0.07813 2.8775 0.44588 5.0684 2.9156 5.0684 5.9219 0 3.324-2.676 6-6 6-3.0063 0-5.476-2.1908-5.9219-5.0684-0.046433 0.3501-0.078125 0.70517-0.078125 1.0684 0 4.432 3.568 8 8 8s8-3.568 8-8-3.568-8-8-8z" fill="#ffdd75" fill-rule="evenodd" style="paint-order:normal"/>
  <path id="path830" d="m20.026 26.092c0.19356-0.86161 1.7599-0.15976 2.5348-0.55036 1.0265-0.51742 1.4873-2.0629 2.6116-2.2801 0.69225-0.13368 1.3043 0.83834 1.9971 0.7076 1.0188-0.19226 1.3603-2.2242 2.3812-2.0442 1.493 0.26324 1.095 1.9176 2.458 2.5945 0.51147 0.25404 1.0223 0.93053 1.5362 1.1793 1.0599 0.51314 0.75472 2.6209 1.8435 3.0663 0.83622 0.34205 2.6116-0.7076 2.6116-0.7076s-0.25073 1.3344-3.3797 2.1228c-1.4444 0.36395-2.6155 1.9341-4.071 1.9656-0.87372 0.01889-1.3739-0.75213-2.2275-0.94347-1.0082-0.22598-2.0909 0.24808-3.0725-0.07862-0.53401-0.17775-0.73883-0.89889-1.229-1.1793-0.50965-0.29159-1.3049-0.02245-1.6899-0.47174-0.37488-0.43746 0.05334-1.2255-0.23044-1.7297-0.43717-0.77676-2.2702-0.77744-2.0739-1.6511z" fill="#fff"/>
  <path id="path832" d="m14.005 33.654c-0.05817-0.73148 1.1796-0.91264 1.5941-1.5182 0.26274-0.38389 0.10837-1.0969 0.53136-1.2905 0.58206-0.26639 1.201 0.76323 1.8218 0.60728 0.6076-0.15263 0.67429-1.2532 1.2905-1.3664 0.85706-0.15742 1.5805 0.7358 2.3532 1.1386 0.64289 0.33516 1.2188 1.0296 1.8977 1.4423 0.90473 0.54991 1.9736-0.15182 1.9736-0.15182s-0.29254 1.0319-2.3532 1.7459c-0.90883 0.31492-1.5566 1.3184-2.5809 1.2905-0.68806-0.01875-0.98676-1.1312-1.67-1.2145-0.86753-0.10588-1.5602 1.0812-2.4291 0.98682-0.97685-0.10612-2.3512-0.6905-2.4291-1.67z" fill="#b9aceb"/>
 </g>
</svg>
