<?xml version="1.0" encoding="UTF-8"?>
<!-- Created with Inkscape (http://www.inkscape.org/) -->
<svg id="SVGRoot" width="48px" height="48px" version="1.1" viewBox="0 0 48 48" xmlns="http://www.w3.org/2000/svg" xmlns:cc="http://creativecommons.org/ns#" xmlns:dc="http://purl.org/dc/elements/1.1/" xmlns:rdf="http://www.w3.org/1999/02/22-rdf-syntax-ns#">
 <defs id="defs815">
  <style id="style819">.cls-1{fill:none;stroke:#fff;stroke-linecap:round;stroke-linejoin:round;}</style>
  <style id="style819-8">.cls-1{fill:none;stroke:#fff;stroke-linecap:round;stroke-linejoin:round;}</style>
 </defs>
 <metadata id="metadata818">
  <rdf:RDF>
   <cc:Work rdf:about="">
    <dc:format>image/svg+xml</dc:format>
    <dc:type rdf:resource="http://purl.org/dc/dcmitype/StillImage"/>
    <dc:title/>
   </cc:Work>
  </rdf:RDF>
 </metadata>
 <g id="layer1">
  <rect id="rect1373-5" x="4" y="4" width="33" height="40" ry="8" fill="#729dec" fill-rule="evenodd" style="paint-order:stroke fill markers"/>
  <rect id="rect871" x="24" y="4" width="9" height="40" fill="#efefef" fill-rule="evenodd" style="paint-order:stroke fill markers"/>
  <rect id="rect869" x="24" y="4" width="20" height="40" ry="8" fill="#efefef" fill-rule="evenodd" style="paint-order:stroke fill markers"/>
  <path id="rect817" d="m12 4c-4.432 0-8 3.568-8 8v24c0 4.432 3.568 8 8 8h24c4.432 0 8-3.568 8-8v-24c0-4.432-3.568-8-8-8h-24zm0 1h24c3.878 0 7 3.122 7 7v24c0 3.878-3.122 7-7 7h-24c-3.878 0-7-3.122-7-7v-24c0-3.878 3.122-7 7-7z" fill-rule="evenodd" opacity=".3" style="paint-order:stroke fill markers"/>
  <rect id="rect1006" x="28" y="30" width="12" height="2" fill="#7c8487" fill-rule="evenodd" style="paint-order:normal"/>
  <rect id="rect1008" x="33" y="28" width="2" height="3" fill="#7c8487" fill-rule="evenodd" style="paint-order:normal"/>
  <path id="path1012" d="m30 39s3-1 5-3c2.5495-2.5495 2-5 2-5" fill="none" stroke="#7c8487" stroke-width="2"/>
  <path id="path1012-1" d="m38 39s-3-1-5-3c-2.5495-2.5495-2-5-2-5" fill="none" stroke="#7c8487" stroke-width="2"/>
  <rect id="rect1029" x="29" y="32" width="5" height="2" fill="#efefef" fill-rule="evenodd" style="paint-order:normal"/>
  <path id="path995" d="m8 20 5-12h2l5 12h-2l-4-9-4 9z" fill="#fff"/>
  <rect id="rect997" x="11" y="15" width="6" height="2" fill="#fff" fill-rule="evenodd" style="paint-order:normal"/>
 </g>
</svg>
