<?xml version="1.0" encoding="UTF-8"?>
<!-- Created with Inkscape (http://www.inkscape.org/) -->
<svg id="SVGRoot" width="48px" height="48px" version="1.1" viewBox="0 0 48 48" xmlns="http://www.w3.org/2000/svg" xmlns:cc="http://creativecommons.org/ns#" xmlns:dc="http://purl.org/dc/elements/1.1/" xmlns:rdf="http://www.w3.org/1999/02/22-rdf-syntax-ns#">
 <defs>
  <style>.cls-1{fill:none;stroke:#fff;stroke-linecap:round;stroke-linejoin:round;}</style>
 </defs>
 <metadata>
  <rdf:RDF>
   <cc:Work rdf:about="">
    <dc:format>image/svg+xml</dc:format>
    <dc:type rdf:resource="http://purl.org/dc/dcmitype/StillImage"/>
   </cc:Work>
  </rdf:RDF>
 </metadata>
 <g fill-rule="evenodd">
  <rect x="4" y="4" width="40" height="40" ry="8" fill="#b7bfc2" style="paint-order:stroke fill markers"/>
  <path d="m12 4c-4.432 0-8 3.568-8 8v24c0 4.432 3.568 8 8 8h24c4.432 0 8-3.568 8-8v-24c0-4.432-3.568-8-8-8zm0 1h24c3.878 0 7 3.122 7 7v24c0 3.878-3.122 7-7 7h-24c-3.878 0-7-3.122-7-7v-24c0-3.878 3.122-7 7-7z" opacity=".3" style="paint-order:stroke fill markers"/>
  <rect x="23" y="10" width="2" height="28" ry="1" opacity=".4" style="paint-order:normal"/>
  <rect x="12" y="10" width="2" height="28" ry="1" opacity=".4" style="paint-order:normal"/>
 </g>
 <g stroke-linecap="round" stroke-linejoin="round" stroke-width="2">
  <path d="m12 13c-1.662 0-3 1.338-3 3v4c0 1.662 1.338 3 3 3v-10zm2 0v10c1.662 0 3-1.338 3-3v-4c0-1.662-1.338-3-3-3z" opacity=".4"/>
  <path d="m23 21c-1.662 0-3 1.338-3 3v4c0 1.662 1.338 3 3 3zm2 0v10c1.662 0 3-1.338 3-3v-4c0-1.662-1.338-3-3-3z" opacity=".4"/>
  <path d="m34 15c-1.662 0-3 1.338-3 3v4c0 1.662 1.338 3 3 3zm2 0v10c1.662 0 3-1.338 3-3v-4c0-1.662-1.338-3-3-3z" opacity=".4"/>
 </g>
 <g fill-rule="evenodd">
  <rect x="10" y="14" width="6" height="8" ry="2" fill="#efefef" style="paint-order:normal"/>
  <rect x="34" y="10" width="2" height="28" ry="1" opacity=".4" style="paint-order:normal"/>
  <rect x="21" y="22" width="6" height="8" ry="2" fill="#efefef" style="paint-order:normal"/>
  <rect x="32" y="16" width="6" height="8" ry="2" fill="#efefef" style="paint-order:normal"/>
 </g>
</svg>
