<?xml version="1.0" encoding="UTF-8"?>
<!-- Created with Inkscape (http://www.inkscape.org/) -->
<svg id="SVGRoot" width="48px" height="48px" version="1.1" viewBox="0 0 48 48" xmlns="http://www.w3.org/2000/svg" xmlns:cc="http://creativecommons.org/ns#" xmlns:dc="http://purl.org/dc/elements/1.1/" xmlns:rdf="http://www.w3.org/1999/02/22-rdf-syntax-ns#">
 <defs id="defs815">
  <style id="style819">.cls-1{fill:none;stroke:#fff;stroke-linecap:round;stroke-linejoin:round;}</style>
  <style id="style819-4">.cls-1{fill:none;stroke:#fff;stroke-linecap:round;stroke-linejoin:round;}</style>
  <style id="style819-7">.cls-1{fill:none;stroke:#fff;stroke-linecap:round;stroke-linejoin:round;}</style>
 </defs>
 <metadata id="metadata818">
  <rdf:RDF>
   <cc:Work rdf:about="">
    <dc:format>image/svg+xml</dc:format>
    <dc:type rdf:resource="http://purl.org/dc/dcmitype/StillImage"/>
    <dc:title/>
   </cc:Work>
  </rdf:RDF>
 </metadata>
 <g id="layer1">
  <rect id="rect833" x="6" y="6" width="36" height="36" fill="#fff" fill-rule="evenodd" opacity=".5" style="paint-order:stroke fill markers"/>
  <path id="rect820" d="m10 2c-2.216 0-4 1.784-4 4v2h36v-2c0-2.216-1.784-4-4-4h-28zm-4 38v2c0 2.216 1.784 4 4 4h28c2.216 0 4-1.784 4-4v-2h-36z" fill="#efefef" fill-rule="evenodd" style="paint-order:stroke fill markers"/>
  <rect id="rect837" x="6" y="18" width="36" height="22" fill="#96d56b" fill-rule="evenodd" style="paint-order:stroke fill markers"/>
  <path id="rect926" d="m10 2c-2.216 0-4 1.784-4 4v36c0 2.216 1.784 4 4 4h28c2.216 0 4-1.784 4-4v-36c0-2.216-1.784-4-4-4h-28zm0 1h28c1.662 0 3 1.338 3 3v36c0 1.662-1.338 3-3 3h-28c-1.662 0-3-1.338-3-3v-36c0-1.662 1.338-3 3-3z" fill-rule="evenodd" opacity=".3" style="paint-order:stroke fill markers"/>
  <rect id="rect826" x="7" y="7" width="34" height="1" fill-rule="evenodd" opacity=".3" style="paint-order:stroke fill markers"/>
  <rect id="rect828" x="7" y="40" width="34" height="1" fill-rule="evenodd" opacity=".3" style="paint-order:stroke fill markers"/>
  <path id="path850" d="m28 38v-8h-4l6-9v7h4z" fill="#fff" opacity=".8"/>
  <rect id="rect852" x="36" y="36" width="2" height="2" fill="#fff" fill-rule="evenodd" opacity=".8" style="paint-order:stroke fill markers"/>
  <rect id="rect854-4" x="36" y="12" width="2" height="2" fill="#fff" fill-rule="evenodd" opacity=".8" style="paint-order:stroke fill markers"/>
  <rect id="rect852-5" x="36" y="28" width="2" height="2" fill="#fff" fill-rule="evenodd" opacity=".8" style="paint-order:stroke fill markers"/>
  <rect id="rect852-0" x="36" y="20" width="2" height="2" fill="#fff" fill-rule="evenodd" opacity=".8" style="paint-order:stroke fill markers"/>
  <rect id="rect979" x="7" y="18" width="34" height="1" fill-rule="evenodd" opacity=".3" style="paint-order:stroke fill markers"/>
 </g>
</svg>
