<?xml version="1.0" encoding="UTF-8"?>
<!-- Created with Inkscape (http://www.inkscape.org/) -->
<svg id="SVGRoot" width="48px" height="48px" version="1.1" viewBox="0 0 48 48" xmlns="http://www.w3.org/2000/svg" xmlns:cc="http://creativecommons.org/ns#" xmlns:dc="http://purl.org/dc/elements/1.1/" xmlns:rdf="http://www.w3.org/1999/02/22-rdf-syntax-ns#">
 <defs id="defs815">
  <style id="style819">.cls-1{fill:none;stroke:#fff;stroke-linecap:round;stroke-linejoin:round;}</style>
  <style id="style819-72">.cls-1{fill:none;stroke:#fff;stroke-linecap:round;stroke-linejoin:round;}</style>
  <style id="style819-1">.cls-1{fill:none;stroke:#fff;stroke-linecap:round;stroke-linejoin:round;}</style>
  <style id="style819-7">.cls-1{fill:none;stroke:#fff;stroke-linecap:round;stroke-linejoin:round;}</style>
  <style id="style2">.a{fill:none;stroke:#b1b5bd;stroke-linecap:round;stroke-linejoin:round;isolation:isolate;opacity:0.63;}</style>
 </defs>
 <metadata id="metadata818">
  <rdf:RDF>
   <cc:Work rdf:about="">
    <dc:format>image/svg+xml</dc:format>
    <dc:type rdf:resource="http://purl.org/dc/dcmitype/StillImage"/>
    <dc:title/>
   </cc:Work>
  </rdf:RDF>
 </metadata>
 <g id="layer1" fill-rule="evenodd">
  <rect id="rect1373-5" x="4" y="4" width="40" height="40" ry="20" fill="#efefef" style="paint-order:stroke fill markers"/>
  <path id="rect845" d="m24 4c-11.08 0-20 8.92-20 20s8.92 20 20 20 20-8.92 20-20-8.92-20-20-20zm0 1c10.526 0 19 8.474 19 19s-8.474 19-19 19-19-8.474-19-19 8.474-19 19-19z" opacity=".3" style="paint-order:stroke fill markers"/>
  <rect id="rect828" x="10" y="10" width="28" height="28" ry="14" fill="#808080" style="paint-order:stroke fill markers"/>
  <rect id="rect885" x="20" y="6" width="8" height="15" ry="4" fill="#808080" style="paint-order:stroke fill markers"/>
  <rect id="rect830" x="14" y="14" width="20" height="20" ry="10" fill="#4e4e4e" style="paint-order:stroke fill markers"/>
  <rect id="rect843" x="17" y="17" width="14" height="14" ry="7" opacity=".25" style="paint-order:stroke fill markers"/>
  <rect id="rect832" x="18" y="18" width="12" height="12" ry="6" fill="#71b9e3" style="paint-order:stroke fill markers"/>
  <path id="rect946" d="m24 19c-2.77 0-5 2.23-5 5s2.23 5 5 5 5-2.23 5-5-2.23-5-5-5zm0 1c2.216 0 4 1.784 4 4s-1.784 4-4 4-4-1.784-4-4 1.784-4 4-4z" opacity=".25" style="paint-order:stroke fill markers"/>
  <rect id="rect845-1" x="20" y="20" width="4" height="4" ry="2" fill="#fff" opacity=".5" style="paint-order:stroke fill markers"/>
  <rect id="rect847" x="26" y="26" width="2" height="2" ry="1" fill="#fff" opacity=".5" style="paint-order:stroke fill markers"/>
  <rect id="rect849" x="22" y="22" width="4" height="4" ry="2" opacity=".25" style="paint-order:stroke fill markers"/>
  <rect id="rect830-6" x="22" y="8" width="4" height="4" ry="2" fill="#4e4e4e" style="paint-order:stroke fill markers"/>
 </g>
</svg>
