<?xml version="1.0" encoding="UTF-8"?>
<!-- Created with Inkscape (http://www.inkscape.org/) -->
<svg id="SVGRoot" width="48px" height="48px" version="1.1" viewBox="0 0 48 48" xmlns="http://www.w3.org/2000/svg" xmlns:cc="http://creativecommons.org/ns#" xmlns:dc="http://purl.org/dc/elements/1.1/" xmlns:rdf="http://www.w3.org/1999/02/22-rdf-syntax-ns#">
 <defs id="defs815">
  <style id="style819">.cls-1{fill:none;stroke:#fff;stroke-linecap:round;stroke-linejoin:round;}</style>
 </defs>
 <metadata id="metadata818">
  <rdf:RDF>
   <cc:Work rdf:about="">
    <dc:format>image/svg+xml</dc:format>
    <dc:type rdf:resource="http://purl.org/dc/dcmitype/StillImage"/>
    <dc:title/>
   </cc:Work>
  </rdf:RDF>
 </metadata>
 <g id="layer1" fill-rule="evenodd">
  <rect id="rect820" x="6" y="2" width="36" height="44" ry="4" fill="#efefef" style="paint-order:stroke fill markers"/>
  <path id="rect926" d="m10 2c-2.216 0-4 1.784-4 4v36c0 2.216 1.784 4 4 4h28c2.216 0 4-1.784 4-4v-36c0-2.216-1.784-4-4-4h-28zm0 1h28c1.662 0 3 1.338 3 3v36c0 1.662-1.338 3-3 3h-28c-1.662 0-3-1.338-3-3v-36c0-1.662 1.338-3 3-3z" opacity=".3" style="paint-order:stroke fill markers"/>
  <rect id="rect849" x="12" y="30" width="6" height="6" ry="3" opacity=".3" style="paint-order:normal"/>
  <rect id="rect847" x="8" y="40" width="32" height="4" ry="2" opacity=".25" style="paint-order:stroke fill markers"/>
  <path id="rect823-9" d="m22 6c-0.554 0-1 0.446-1 1v1.4551c-0.56634 0.17674-1.1074 0.40631-1.625 0.67578l-1.0312-1.0312c-0.39174-0.39174-1.0223-0.39174-1.4141 0l-2.8301 2.8301c-0.39174 0.39173-0.39174 1.0223 0 1.4141l1.0312 1.0312c-0.26947 0.51758-0.49904 1.0587-0.67578 1.625h-1.4551c-0.554 0-1 0.446-1 1v4c0 0.554 0.446 1 1 1h1.4551c0.17674 0.56634 0.40631 1.1074 0.67578 1.625l-1.0312 1.0312c-0.39174 0.39174-0.39174 1.0223 0 1.4141l2.8301 2.8301c0.39174 0.39174 1.0223 0.39174 1.4141 0l1.0312-1.0312c0.51758 0.26947 1.0587 0.49904 1.625 0.67578v1.4551c0 0.554 0.446 1 1 1h4c0.554 0 1-0.446 1-1v-1.4551c0.56634-0.17674 1.1074-0.40631 1.625-0.67578l1.0312 1.0312c0.39174 0.39174 1.0223 0.39174 1.4141 0l2.8301-2.8301c0.39174-0.39174 0.39174-1.0223 0-1.4141l-1.0312-1.0312c0.26947-0.51758 0.49904-1.0587 0.67578-1.625h1.4551c0.554 0 1-0.446 1-1v-4c0-0.554-0.446-1-1-1h-1.4551c-0.17674-0.56634-0.40631-1.1074-0.67578-1.625l1.0312-1.0312c0.39174-0.39174 0.39174-1.0223 0-1.4141l-2.8301-2.8301c-0.39174-0.39174-1.0223-0.39174-1.4141 0l-1.0312 1.0312c-0.51758-0.26947-1.0587-0.49905-1.625-0.67578v-1.4551c0-0.554-0.446-1-1-1zm2 8c2.216 0 4 1.784 4 4s-1.784 4-4 4-4-1.784-4-4 1.784-4 4-4z" opacity=".3" style="paint-order:stroke fill markers"/>
 </g>
</svg>
