<?xml version="1.0" encoding="UTF-8"?>
<!-- Created with Inkscape (http://www.inkscape.org/) -->
<svg id="SVGRoot" width="48px" height="48px" version="1.1" viewBox="0 0 48 48" xml:space="preserve" xmlns="http://www.w3.org/2000/svg" xmlns:cc="http://creativecommons.org/ns#" xmlns:dc="http://purl.org/dc/elements/1.1/" xmlns:rdf="http://www.w3.org/1999/02/22-rdf-syntax-ns#"><defs><style>.cls-1{fill:none;stroke:#fff;stroke-linecap:round;stroke-linejoin:round;}</style><style>.cls-1{fill:none;stroke:#fff;stroke-linecap:round;stroke-linejoin:round;}</style><style>.a{fill:none;stroke:#b1b5bd;stroke-linecap:round;stroke-linejoin:round;isolation:isolate;opacity:0.63;}</style><style>.a{fill:none;stroke:#b1b5bd;stroke-linecap:round;stroke-linejoin:round;isolation:isolate;opacity:0.63;}</style></defs><metadata><rdf:RDF><cc:Work rdf:about=""><dc:format>image/svg+xml</dc:format><dc:type rdf:resource="http://purl.org/dc/dcmitype/StillImage"/></cc:Work></rdf:RDF></metadata><g fill-rule="evenodd"><rect transform="rotate(90)" x="6" y="-46" width="36" height="44" ry="4" fill="#efefef" style="paint-order:stroke fill markers"/><path d="m46 10c0-2.216-1.784-4-4-4h-36c-2.216 0-4 1.784-4 4v28c0 2.216 1.784 4 4 4h36c2.216 0 4-1.784 4-4zm-1 0v28c0 1.662-1.338 3-3 3h-36c-1.662 0-3-1.338-3-3v-28c0-1.662 1.338-3 3-3h36c1.662 0 3 1.338 3 3z" opacity=".3" style="paint-order:stroke fill markers"/><rect x="30" y="22" width="6" height="6" ry="3" fill="#d35244" style="paint-order:stroke fill markers"/><rect x="26" y="28" width="6" height="6" ry="3" fill="#729dec" style="paint-order:stroke fill markers"/><rect x="32" y="32" width="6" height="6" ry="3" fill="#96d56b" style="paint-order:stroke fill markers"/><rect x="36" y="26" width="6" height="6" ry="3" fill="#ffcd4b" style="paint-order:stroke fill markers"/><rect x="6" y="10" width="20" height="20" ry="10" fill="#b7bfc2" style="paint-order:stroke fill markers"/><rect x="13" y="12" width="6" height="16" ry="1" fill="#4e4e4e" style="paint-order:stroke fill markers"/><rect x="8" y="17" width="16" height="6" ry="1" fill="#4e4e4e" style="paint-order:stroke fill markers"/></g><g fill="#b7bfc2" fill-rule="evenodd"><rect x="15" y="14" width="2" height="2" ry="1" style="paint-order:stroke fill markers"/><rect x="20" y="19" width="2" height="2" ry="1" style="paint-order:stroke fill markers"/><rect x="10" y="19" width="2" height="2" ry="1" style="paint-order:stroke fill markers"/><rect x="15" y="24" width="2" height="2" ry="1" style="paint-order:stroke fill markers"/></g></svg>
