<?xml version="1.0" encoding="UTF-8"?>
<!-- Created with Inkscape (http://www.inkscape.org/) -->
<svg id="SVGRoot" width="48px" height="48px" version="1.1" viewBox="0 0 48 48" xmlns="http://www.w3.org/2000/svg" xmlns:cc="http://creativecommons.org/ns#" xmlns:dc="http://purl.org/dc/elements/1.1/" xmlns:rdf="http://www.w3.org/1999/02/22-rdf-syntax-ns#">
 <defs id="defs815">
  <style id="style819">.cls-1{fill:none;stroke:#fff;stroke-linecap:round;stroke-linejoin:round;}</style>
 </defs>
 <metadata id="metadata818">
  <rdf:RDF>
   <cc:Work rdf:about="">
    <dc:format>image/svg+xml</dc:format>
    <dc:type rdf:resource="http://purl.org/dc/dcmitype/StillImage"/>
    <dc:title/>
   </cc:Work>
  </rdf:RDF>
 </metadata>
 <g id="layer1" fill-rule="evenodd">
  <rect id="rect1373-5" x="4" y="4" width="40" height="40" ry="20" fill="#efefef" style="paint-order:stroke fill markers"/>
  <path id="rect845" d="m24 4c-11.08 0-20 8.92-20 20s8.92 20 20 20 20-8.92 20-20-8.92-20-20-20zm0 1c10.526 0 19 8.474 19 19s-8.474 19-19 19-19-8.474-19-19 8.474-19 19-19z" opacity=".3" style="paint-order:stroke fill markers"/>
  <path id="rect850" d="m24 16c-4.432 0-8 3.568-8 8s3.568 8 8 8 8-3.568 8-8-3.568-8-8-8zm0 4c2.216 0 4 1.784 4 4s-1.784 4-4 4-4-1.784-4-4 1.784-4 4-4z" opacity=".3" style="paint-order:stroke fill markers"/>
  <path id="rect855" d="m19.341 6.6133 2.3294 8.6933c4.8161-1.2905 9.7322 1.5479 11.023 6.364 0.64524 2.4081 0.25753 4.8407-0.89276 6.833l7.8532 4.534c2.2824-3.9533 3.0501-8.7806 1.7698-13.559l-0.0738-0.27544c-2.5606-9.5562-12.315-15.188-21.871-12.627zm-10.995 8.349c-2.2824 3.9533-3.0501 8.7806-1.7698 13.559l0.073804 0.27544c2.5606 9.5562 12.315 15.188 21.871 12.627l0.13772-0.0369-2.3294-8.6933c-4.8161 1.2905-9.7322-1.5479-11.023-6.364-0.64524-2.4081-0.25753-4.8407 0.89276-6.833z" opacity=".1" style="paint-order:stroke fill markers"/>
  <path id="rect826" d="m19 34v2 1.0918c-0.15722-0.055658-0.32324-0.091797-0.5-0.091797-0.831 0-1.5 0.669-1.5 1.5s0.669 1.5 1.5 1.5 1.5-0.669 1.5-1.5v-2.5h2v-2h-3zm6 0v0.5 1.5 1.0918c-0.15722-0.055658-0.32324-0.091797-0.5-0.091797-0.831 0-1.5 0.669-1.5 1.5s0.669 1.5 1.5 1.5 1.5-0.669 1.5-1.5v-2.5h4v1.0918c-0.15722-0.055658-0.32324-0.091797-0.5-0.091797-0.831 0-1.5 0.669-1.5 1.5s0.669 1.5 1.5 1.5 1.5-0.669 1.5-1.5v-2.5-1.5-0.5h-0.5-5-0.5z" opacity=".3" style="paint-order:stroke fill markers"/>
 </g>
</svg>
