<?xml version="1.0" encoding="UTF-8"?>
<!-- Created with Inkscape (http://www.inkscape.org/) -->
<svg id="SVGRoot" width="48px" height="48px" version="1.1" viewBox="0 0 48 48" xmlns="http://www.w3.org/2000/svg" xmlns:cc="http://creativecommons.org/ns#" xmlns:dc="http://purl.org/dc/elements/1.1/" xmlns:rdf="http://www.w3.org/1999/02/22-rdf-syntax-ns#" xmlns:xlink="http://www.w3.org/1999/xlink">
 <defs id="defs815">
  <style id="style819">.cls-1{fill:none;stroke:#fff;stroke-linecap:round;stroke-linejoin:round;}</style>
  <style id="style819-7">.cls-1{fill:none;stroke:#fff;stroke-linecap:round;stroke-linejoin:round;}</style>
  <style id="style819-2">.cls-1{fill:none;stroke:#fff;stroke-linecap:round;stroke-linejoin:round;}</style>
  <style id="style819-3">.cls-1{fill:none;stroke:#fff;stroke-linecap:round;stroke-linejoin:round;}</style>
  <style id="style819-36">.cls-1{fill:none;stroke:#fff;stroke-linecap:round;stroke-linejoin:round;}</style>
  <style id="style2">.a{fill:none;stroke:#b1b5bd;stroke-linecap:round;stroke-linejoin:round;isolation:isolate;opacity:0.63;}</style>
  <style id="style819-5">.cls-1{fill:none;stroke:#fff;stroke-linecap:round;stroke-linejoin:round;}</style>
  <style id="style819-9">.cls-1{fill:none;stroke:#fff;stroke-linecap:round;stroke-linejoin:round;}</style>
  <style id="style819-26">.cls-1{fill:none;stroke:#fff;stroke-linecap:round;stroke-linejoin:round;}</style>
  <style id="style2-8">.a{fill:none;stroke:#b1b5bd;stroke-linecap:round;stroke-linejoin:round;isolation:isolate;opacity:0.63;}</style>
  <style id="style819-5-0">.cls-1{fill:none;stroke:#fff;stroke-linecap:round;stroke-linejoin:round;}</style>
  <style id="style819-2-8">.cls-1{fill:none;stroke:#fff;stroke-linecap:round;stroke-linejoin:round;}</style>
  <style id="style819-3-3">.cls-1{fill:none;stroke:#fff;stroke-linecap:round;stroke-linejoin:round;}</style>
  <style id="style819-36-3">.cls-1{fill:none;stroke:#fff;stroke-linecap:round;stroke-linejoin:round;}</style>
  <style id="style819-27">.cls-1{fill:none;stroke:#fff;stroke-linecap:round;stroke-linejoin:round;}</style>
  <style id="style819-4">.cls-1{fill:none;stroke:#fff;stroke-linecap:round;stroke-linejoin:round;}</style>
  <style id="style819-98">.cls-1{fill:none;stroke:#fff;stroke-linecap:round;stroke-linejoin:round;}</style>
  <style id="style2-3">.a{fill:none;stroke:#b1b5bd;stroke-linecap:round;stroke-linejoin:round;isolation:isolate;opacity:0.63;}</style>
 </defs>
 <metadata id="metadata818">
  <rdf:RDF>
   <cc:Work rdf:about="">
    <dc:format>image/svg+xml</dc:format>
    <dc:type rdf:resource="http://purl.org/dc/dcmitype/StillImage"/>
    <dc:title/>
   </cc:Work>
  </rdf:RDF>
 </metadata>
 <g id="layer1" fill-rule="evenodd">
  <rect id="rect820" x="6" y="2" width="36" height="44" ry="4" fill="#efefef" style="paint-order:stroke fill markers"/>
  <path id="rect926" d="m10 2c-2.216 0-4 1.784-4 4v36c0 2.216 1.784 4 4 4h28c2.216 0 4-1.784 4-4v-36c0-2.216-1.784-4-4-4h-28zm0 1h28c1.662 0 3 1.338 3 3v36c0 1.662-1.338 3-3 3h-28c-1.662 0-3-1.338-3-3v-36c0-1.662 1.338-3 3-3z" opacity=".3" style="paint-order:stroke fill markers"/>
  <rect id="rect839" x="10" y="6" width="28" height="32" ry="2" fill="#4e4e4e" style="paint-order:stroke fill markers"/>
  <rect id="rect864" x="11" y="32" width="26" height="5" ry="1" fill="#fff" opacity=".4" style="paint-order:stroke fill markers"/>
  <rect id="rect974" x="21" y="30" width="6" height="6" ry="2" opacity=".4" style="paint-order:stroke fill markers"/>
  <rect id="rect879-4-82" x="22" y="31" width="4" height="4" ry="1" fill="#729dec" style="paint-order:stroke fill markers"/>
  <rect id="rect935" x="22" y="40" width="4" height="4" ry="2" opacity=".3" style="paint-order:stroke fill markers"/>
  <rect id="rect974-5" x="29" y="30" width="6" height="6" ry="2" opacity=".4" style="paint-order:stroke fill markers"/>
  <rect id="rect879-4-82-1" x="30" y="31" width="4" height="4" ry="1" fill="#b072dd" style="paint-order:stroke fill markers"/>
  <rect id="rect974-5-7" x="13" y="30" width="6" height="6" ry="2" opacity=".4" style="paint-order:stroke fill markers"/>
  <rect id="rect879-4-82-1-0" x="14" y="31" width="4" height="4" ry="1" fill="#f68d59" style="paint-order:stroke fill markers"/>
  <rect id="rect974-6" x="21" y="9" width="6" height="6" ry="2" opacity=".4" style="paint-order:stroke fill markers"/>
  <rect id="rect879-4-82-8" x="22" y="10" width="4" height="4" ry="1" fill="#96d56b" style="paint-order:stroke fill markers"/>
  <rect id="rect974-5-9" x="29" y="9" width="6" height="6" ry="2" opacity=".4" style="paint-order:stroke fill markers"/>
  <rect id="rect879-4-82-1-4" x="30" y="10" width="4" height="4" ry="1" fill="#ffdd75" style="paint-order:stroke fill markers"/>
  <rect id="rect974-5-7-7" x="13" y="9" width="6" height="6" ry="2" opacity=".4" style="paint-order:stroke fill markers"/>
  <rect id="rect879-4-82-1-0-3" x="14" y="10" width="4" height="4" ry="1" fill="#d35244" style="paint-order:stroke fill markers"/>
  <rect id="rect974-3" x="21" y="17" width="6" height="6" ry="2" opacity=".4" style="paint-order:stroke fill markers"/>
  <rect id="rect879-4-82-7" x="22" y="18" width="4" height="4" ry="1" fill="#a4acba" style="paint-order:stroke fill markers"/>
  <rect id="rect974-5-7-1" x="13" y="17" width="6" height="6" ry="2" opacity=".4" style="paint-order:stroke fill markers"/>
  <rect id="rect879-4-82-1-0-6" x="14" y="18" width="4" height="4" ry="1" fill="#96dfd3" style="paint-order:stroke fill markers"/>
 </g>
</svg>
