<?xml version="1.0" encoding="UTF-8"?>
<!-- Created with Inkscape (http://www.inkscape.org/) -->
<svg id="SVGRoot" width="48px" height="48px" version="1.1" viewBox="0 0 48 48" xmlns="http://www.w3.org/2000/svg" xmlns:cc="http://creativecommons.org/ns#" xmlns:dc="http://purl.org/dc/elements/1.1/" xmlns:rdf="http://www.w3.org/1999/02/22-rdf-syntax-ns#">
 <defs id="defs815">
  <style id="style819">.cls-1{fill:none;stroke:#fff;stroke-linecap:round;stroke-linejoin:round;}</style>
  <style id="style819-8">.cls-1{fill:none;stroke:#fff;stroke-linecap:round;stroke-linejoin:round;}</style>
  <style id="style2">.a{fill:none;stroke:#b1b5bd;stroke-linecap:round;stroke-linejoin:round;isolation:isolate;opacity:0.63;}</style>
  <style id="style819-7">.cls-1{fill:none;stroke:#fff;stroke-linecap:round;stroke-linejoin:round;}</style>
  <style id="style819-8-0">.cls-1{fill:none;stroke:#fff;stroke-linecap:round;stroke-linejoin:round;}</style>
  <style id="style2-3">.a{fill:none;stroke:#b1b5bd;stroke-linecap:round;stroke-linejoin:round;isolation:isolate;opacity:0.63;}</style>
 </defs>
 <metadata id="metadata818">
  <rdf:RDF>
   <cc:Work rdf:about="">
    <dc:format>image/svg+xml</dc:format>
    <dc:type rdf:resource="http://purl.org/dc/dcmitype/StillImage"/>
    <dc:title/>
   </cc:Work>
  </rdf:RDF>
 </metadata>
 <g id="layer1" fill-rule="evenodd">
  <rect id="rect820" x="6" y="2" width="36" height="44" ry="4" fill="#86b1fc" style="paint-order:stroke fill markers"/>
  <path id="rect926" d="m10 2c-2.216 0-4 1.784-4 4v36c0 2.216 1.784 4 4 4h28c2.216 0 4-1.784 4-4v-36c0-2.216-1.784-4-4-4h-28zm0 1h28c1.662 0 3 1.338 3 3v36c0 1.662-1.338 3-3 3h-28c-1.662 0-3-1.338-3-3v-36c0-1.662 1.338-3 3-3z" opacity=".3" style="paint-order:stroke fill markers"/>
  <rect id="rect828" x="8" y="40" width="32" height="4" ry="2" opacity=".3" style="paint-order:stroke fill markers"/>
  <path id="rect874" d="m24 8c-1.7727 0-3.2516 1.1491-3.7793 2.7402-2.4891 1.0118-4.4687 2.9914-5.4805 5.4805-1.5911 0.52771-2.7402 2.0066-2.7402 3.7793s1.1491 3.2516 2.7402 3.7793c1.0118 2.4891 2.9914 4.4687 5.4805 5.4805 0.52771 1.5911 2.0066 2.7402 3.7793 2.7402s3.2516-1.1491 3.7793-2.7402c2.4891-1.0118 4.4687-2.9914 5.4805-5.4805 1.5911-0.52771 2.7402-2.0066 2.7402-3.7793s-1.1491-3.2516-2.7402-3.7793c-1.0118-2.4891-2.9914-4.4687-5.4805-5.4805-0.52771-1.5911-2.0066-2.7402-3.7793-2.7402zm-3.8633 4.9902c0.44034 1.7312 1.9912 3.0098 3.8633 3.0098s3.4229-1.2785 3.8633-3.0098c1.3253 0.72922 2.4173 1.8212 3.1465 3.1465-1.7312 0.44034-3.0098 1.9912-3.0098 3.8633s1.2785 3.4229 3.0098 3.8633c-0.72922 1.3253-1.8212 2.4173-3.1465 3.1465-0.44034-1.7312-1.9912-3.0098-3.8633-3.0098s-3.4229 1.2785-3.8633 3.0098c-1.3253-0.72922-2.4173-1.8212-3.1465-3.1465 1.7312-0.44034 3.0098-1.9912 3.0098-3.8633s-1.2785-3.4229-3.0098-3.8633c0.72922-1.3253 1.8212-2.4173 3.1465-3.1465z" opacity=".4" style="paint-order:stroke fill markers"/>
  <rect id="rect879" x="22" y="10" width="4" height="4" ry="2" fill="#86b1fc" style="paint-order:stroke fill markers"/>
  <rect id="rect881" x="14" y="18" width="4" height="4" ry="2" fill="#86b1fc" style="paint-order:stroke fill markers"/>
  <rect id="rect883" x="30" y="18" width="4" height="4" ry="2" fill="#86b1fc" style="paint-order:stroke fill markers"/>
  <rect id="rect885" x="22" y="26" width="4" height="4" ry="2" fill="#86b1fc" style="paint-order:stroke fill markers"/>
 </g>
</svg>
