<?xml version="1.0" encoding="UTF-8"?>
<!-- Created with Inkscape (http://www.inkscape.org/) -->
<svg id="SVGRoot" width="48px" height="48px" version="1.1" viewBox="0 0 48 48" xmlns="http://www.w3.org/2000/svg" xmlns:cc="http://creativecommons.org/ns#" xmlns:dc="http://purl.org/dc/elements/1.1/" xmlns:rdf="http://www.w3.org/1999/02/22-rdf-syntax-ns#">
 <defs id="defs815">
  <style id="style819">.cls-1{fill:none;stroke:#fff;stroke-linecap:round;stroke-linejoin:round;}</style>
  <style id="style819-8">.cls-1{fill:none;stroke:#fff;stroke-linecap:round;stroke-linejoin:round;}</style>
 </defs>
 <metadata id="metadata818">
  <rdf:RDF>
   <cc:Work rdf:about="">
    <dc:format>image/svg+xml</dc:format>
    <dc:type rdf:resource="http://purl.org/dc/dcmitype/StillImage"/>
    <dc:title/>
   </cc:Work>
  </rdf:RDF>
 </metadata>
 <g id="layer1">
  <rect id="rect1373-5" x="4" y="4" width="40" height="40" ry="8" fill="#4e4e4e" fill-rule="evenodd" style="paint-order:stroke fill markers"/>
  <path id="rect817" d="m12 4c-4.432 0-8 3.568-8 8v24c0 4.432 3.568 8 8 8h24c4.432 0 8-3.568 8-8v-24c0-4.432-3.568-8-8-8h-24zm0 1h24c3.878 0 7 3.122 7 7v24c0 3.878-3.122 7-7 7h-24c-3.878 0-7-3.122-7-7v-24c0-3.878 3.122-7 7-7z" fill-rule="evenodd" opacity=".4" style="paint-order:stroke fill markers"/>
  <path id="rect839" d="m19 12v2h-2v2h-2.1875c-1.5576 0-2.8125 1.2549-2.8125 2.8125v14.375c0 1.5576 1.2549 2.8125 2.8125 2.8125h18.375c1.5576 0 2.8125-1.2549 2.8125-2.8125v-14.375c0-1.5576-1.2549-2.8125-2.8125-2.8125h-2.1875v-2h-2v-2h-10zm-2.5 18h1v4h-1v-4zm2 0h1v4h-1v-4zm2 0h1v4h-1v-4zm2 0h1v4h-1v-4zm2 0h1v4h-1v-4zm2 0h1v4h-1v-4zm2 0h1v4h-1v-4zm2 0h1v4h-1v-4z" fill-rule="evenodd" opacity=".6" style="paint-order:stroke fill markers"/>
  <path id="path826" d="m38.961 6.9805a2.0002 2.0002 0 0 0-1.375 0.60547l-30 30a2.0002 2.0002 0 1 0 2.8281 2.8281l30-30a2.0002 2.0002 0 0 0-1.4531-3.4336z" color="#000000" color-rendering="auto" dominant-baseline="auto" fill="#4e4e4e" image-rendering="auto" shape-rendering="auto" solid-color="#000000" style="font-feature-settings:normal;font-variant-alternates:normal;font-variant-caps:normal;font-variant-ligatures:normal;font-variant-numeric:normal;font-variant-position:normal;isolation:auto;mix-blend-mode:normal;shape-padding:0;text-decoration-color:#000000;text-decoration-line:none;text-decoration-style:solid;text-indent:0;text-orientation:mixed;text-transform:none;white-space:normal"/>
 </g>
</svg>
