<?xml version="1.0" encoding="UTF-8"?>
<!-- Created with Inkscape (http://www.inkscape.org/) -->
<svg id="SVGRoot" width="48px" height="48px" version="1.1" viewBox="0 0 48 48" xmlns="http://www.w3.org/2000/svg" xmlns:cc="http://creativecommons.org/ns#" xmlns:dc="http://purl.org/dc/elements/1.1/" xmlns:rdf="http://www.w3.org/1999/02/22-rdf-syntax-ns#">
 <defs id="defs815">
  <style id="style819">.cls-1{fill:none;stroke:#fff;stroke-linecap:round;stroke-linejoin:round;}</style>
  <style id="style819-2">.cls-1{fill:none;stroke:#fff;stroke-linecap:round;stroke-linejoin:round;}</style>
  <style id="style819-1">.cls-1{fill:none;stroke:#fff;stroke-linecap:round;stroke-linejoin:round;}</style>
  <style id="style819-7">.cls-1{fill:none;stroke:#fff;stroke-linecap:round;stroke-linejoin:round;}</style>
  <style id="style2">.a{fill:none;stroke:#b1b5bd;stroke-linecap:round;stroke-linejoin:round;isolation:isolate;opacity:0.63;}</style>
 </defs>
 <metadata id="metadata818">
  <rdf:RDF>
   <cc:Work rdf:about="">
    <dc:format>image/svg+xml</dc:format>
    <dc:type rdf:resource="http://purl.org/dc/dcmitype/StillImage"/>
    <dc:title/>
   </cc:Work>
  </rdf:RDF>
 </metadata>
 <g id="layer1" fill-rule="evenodd">
  <rect id="rect820" transform="rotate(-90)" x="-42" y="2" width="36" height="44" ry="4" fill="#b7bfc2" style="paint-order:stroke fill markers"/>
  <path id="rect926" d="m2 38c0 2.216 1.784 4 4 4h36c2.216 0 4-1.784 4-4v-28c0-2.216-1.784-4-4-4h-36c-2.216 0-4 1.784-4 4zm1 0v-28c0-1.662 1.338-3 3-3h36c1.662 0 3 1.338 3 3v28c0 1.662-1.338 3-3 3h-36c-1.662 0-3-1.338-3-3z" opacity=".3" style="paint-order:stroke fill markers"/>
  <path id="rect827" d="m10 30c-1.108 0-2 0.892-2 2v7 2h2 28 2v-2-7c0-1.108-0.892-2-2-2h-28z" opacity=".3" style="paint-order:stroke fill markers"/>
  <rect id="rect983" x="22" y="16" width="16" height="10" ry="1" opacity=".3" style="paint-order:stroke fill markers"/>
  <rect id="rect831" x="10" y="22" width="4" height="4" ry="2" fill="#f97263" style="paint-order:stroke fill markers"/>
  <rect id="rect833" x="16" y="22" width="4" height="4" ry="2" fill="#efefef" style="paint-order:stroke fill markers"/>
  <rect id="rect835" x="23" y="17" width="14" height="8" ry=".5" opacity=".3" style="paint-order:stroke fill markers"/>
  <path id="rect837" d="m10 32v1 2 8c0 0.554 0.446 1 1 1h26c0.554 0 1-0.446 1-1v-8-2-1h-1-26-1z" fill="#efefef" style="paint-order:stroke fill markers"/>
  <path id="rect839" d="m10 32v1 1 9c0 0.554 0.446 1 1 1h26c0.554 0 1-0.446 1-1v-9-1-1h-1v1.5 0.5 4 4.5c0 0.277-0.223 0.5-0.5 0.5h-25c-0.277 0-0.5-0.223-0.5-0.5v-4.5-4-0.5-1.5h-1z" opacity=".25" style="paint-order:stroke fill markers"/>
  <rect id="rect876" x="13" y="37" width="22" height="1" ry=".46504" opacity=".25" style="paint-order:stroke fill markers"/>
  <rect id="rect878" x="13" y="40" width="22" height="1" ry=".46504" opacity=".25" style="paint-order:stroke fill markers"/>
  <rect id="rect876-3" x="13" y="34" width="22" height="1" ry=".5" opacity=".25" style="paint-order:stroke fill markers"/>
  <path id="rect928" d="m9 7v2 1c0 1.108 0.892 2 2 2h27c1.108 0 2-0.892 2-2v-1-2h-2-27-2z" opacity=".3" style="paint-order:stroke fill markers"/>
 </g>
</svg>
