<?xml version="1.0" encoding="UTF-8"?>
<!-- Created with Inkscape (http://www.inkscape.org/) -->
<svg id="SVGRoot" width="48px" height="48px" version="1.1" viewBox="0 0 48 48" xmlns="http://www.w3.org/2000/svg" xmlns:cc="http://creativecommons.org/ns#" xmlns:dc="http://purl.org/dc/elements/1.1/" xmlns:rdf="http://www.w3.org/1999/02/22-rdf-syntax-ns#">
 <defs id="defs815">
  <style id="style819">.cls-1{fill:none;stroke:#fff;stroke-linecap:round;stroke-linejoin:round;}</style>
 </defs>
 <metadata id="metadata818">
  <rdf:RDF>
   <cc:Work rdf:about="">
    <dc:format>image/svg+xml</dc:format>
    <dc:type rdf:resource="http://purl.org/dc/dcmitype/StillImage"/>
    <dc:title/>
   </cc:Work>
  </rdf:RDF>
 </metadata>
 <g id="layer1" fill-rule="evenodd">
  <rect id="rect820" x="6" y="2" width="36" height="44" ry="4" fill="#b7bfc2" style="paint-order:stroke fill markers"/>
  <path id="rect828" d="m10 2v38c0 1.108 0.892 2 2 2h24c1.108 0 1.9867-0.89208 2-2v-38z" fill="#efefef" style="paint-order:stroke fill markers"/>
  <path id="rect926" d="m10 2c-2.216 0-4 1.784-4 4v36c0 2.216 1.784 4 4 4h28c2.216 0 4-1.784 4-4v-36c0-2.216-1.784-4-4-4h-28zm0 1h28c1.662 0 3 1.338 3 3v36c0 1.662-1.338 3-3 3h-28c-1.662 0-3-1.338-3-3v-36c0-1.662 1.338-3 3-3z" opacity=".3" style="paint-order:stroke fill markers"/>
  <path id="rect914" d="m18.426 42c-2.3064 0-4.1669 1.7521-4.3828 4h19.914c-0.21589-2.2479-2.0764-4-4.3828-4z" opacity=".25" style="paint-order:stroke fill markers"/>
  <path id="rect996" d="m16 34c-1.108 0-2 0.892-2 2s0.892 2 2 2h16c1.108 0 2-0.892 2-2s-0.892-2-2-2h-12zm0 1h4v2h-4c-0.554 0-1-0.446-1-1s0.446-1 1-1zm5 0h6v2h-6zm7 0h4c0.554 0 1 0.446 1 1s-0.446 1-1 1h-4z" opacity=".25" style="paint-order:stroke fill markers"/>
 </g>
</svg>
