<?xml version="1.0" encoding="UTF-8"?>
<!-- Created with Inkscape (http://www.inkscape.org/) -->
<svg id="SVGRoot" width="48px" height="48px" version="1.1" viewBox="0 0 48 48" xml:space="preserve" xmlns="http://www.w3.org/2000/svg" xmlns:cc="http://creativecommons.org/ns#" xmlns:dc="http://purl.org/dc/elements/1.1/" xmlns:rdf="http://www.w3.org/1999/02/22-rdf-syntax-ns#"><defs><style>.cls-1{fill:none;stroke:#fff;stroke-linecap:round;stroke-linejoin:round;}</style><style>.cls-1{fill:none;stroke:#fff;stroke-linecap:round;stroke-linejoin:round;}</style><style>.cls-1{fill:none;stroke:#fff;stroke-linecap:round;stroke-linejoin:round;}</style><style>.cls-1{fill:none;stroke:#fff;stroke-linecap:round;stroke-linejoin:round;}</style></defs><metadata><rdf:RDF><cc:Work rdf:about=""><dc:format>image/svg+xml</dc:format><dc:type rdf:resource="http://purl.org/dc/dcmitype/StillImage"/></cc:Work></rdf:RDF></metadata><rect x="4" y="4" width="40" height="40" ry="8" fill="#efefef" fill-rule="evenodd" style="paint-order:stroke fill markers"/><path d="m12 6c-1.2323 0-2.3753 0.36778-3.3262 1h30.652c-0.95084-0.63222-2.0939-1-3.3262-1h-24zm-5.6602 4c-0.21956 0.62504-0.33984 1.2981-0.33984 2h36c0-0.70193-0.12028-1.375-0.33984-2h-35.32z" opacity=".3" stroke-linecap="round" stroke-linejoin="round" stroke-width="2"/><path d="m6 14v22c0 1.5395 0.57494 2.94 1.5215 4h32.957c0.94654-1.06 1.5215-2.4605 1.5215-4v-22h-36z" fill="#729dec" stroke-linecap="round" stroke-linejoin="round" stroke-width="2"/><g><rect x="16" y="16" width="16" height="11" ry="5.4106" opacity=".3"/><path d="m12 6c-3.324 0-6 2.676-6 6v24c0 3.324 2.676 6 6 6h4c-3.324 0-6-2.676-6-6v-24c0-3.324 2.676-6 6-6h-4zm20 0c3.324 0 6 2.676 6 6v24c0 3.324-2.676 6-6 6h4c3.324 0 6-2.676 6-6v-24c0-3.324-2.676-6-6-6h-4z" opacity=".3"/><g stroke-linecap="round" stroke-linejoin="round" stroke-width="2"><rect x="6" y="34" width="36" height="1" opacity=".3"/><rect x="6" y="31" width="36" height="1" opacity=".3"/><rect x="6" y="28" width="36" height="1" opacity=".3"/></g></g><path d="m5 14s1 15 19 15 19-15 19-15" fill="none" opacity=".3" stroke="#000" stroke-linecap="round" stroke-linejoin="round" stroke-width="2"/><path d="m5 13s1 14 19 14 19-14 19-14" fill="none" stroke="#efefef" stroke-linecap="round" stroke-linejoin="round" stroke-width="2"/><path d="m12 4c-4.432 0-8 3.568-8 8v24c0 4.432 3.568 8 8 8h24c4.432 0 8-3.568 8-8v-24c0-4.432-3.568-8-8-8zm0 1h24c3.878 0 7 3.122 7 7v24c0 3.878-3.122 7-7 7h-24c-3.878 0-7-3.122-7-7v-24c0-3.878 3.122-7 7-7z" fill-rule="evenodd" opacity=".3" style="paint-order:stroke fill markers"/><rect transform="rotate(15)" x="43.951" y="18.204" width="4" height="8" fill="#c6c7d1"/><path d="m36.966 31.857s-0.30822-6.5771 0.65634-10.177c1.2941-4.8296 4.5191-9.138 6.3855-8.6456 1.9338 0.51016 2.636 5.8866 1.3419 10.716-0.96456 3.5998-4.52 9.1416-4.52 9.1416z" fill="#cc8543"/><path d="m44.007 13.034c-1.8665-0.49238-5.0909 3.8163-6.385 8.646-0.96456 3.5998-0.65634 10.177-0.65634 10.177l-1.2941 4.8296 3.8637 1.0353 1.2941-4.8296s3.5555-5.5418 4.52-9.1416c1.2941-4.8296 0.59142-10.206-1.3424-10.717zm-0.25505 0.96694c0.079 0.02084 0.31664 0.17711 0.5632 0.6827 0.24656 0.50559 0.46338 1.2848 0.58149 2.2142 0.23624 1.8589 0.09817 4.3123-0.51315 6.5938-0.69617 2.5982-3.082 6.6952-4.016 8.2414l-2.4224-0.64907c-0.03576-1.8061-0.0534-6.5471 0.64277-9.1453 0.61255-2.2861 1.704-4.4821 2.8158-5.9809 0.55589-0.74941 1.1202-1.3225 1.574-1.6407s0.72412-0.32947 0.77425-0.31624zm-5.8204 18.115 1.9319 0.51764-1.0353 3.8637-1.9319-0.51764z" opacity=".3" stop-color="#000000" stroke-linecap="round" stroke-linejoin="round"/><path d="m38.38 34.307c-2.1405-0.57354-4.3254 0.68794-4.899 2.8284 0 0-0.01019 0.03962-0.02366 0.11094-0.11646 0.48865-0.14228 0.97775-0.08074 1.4484 0.04646 1.4216 0.41454 3.8185 1.8976 7.2034 2.9767-2.1899 4.494-4.0816 5.245-5.2895 0.2886-0.3768 0.5108-0.81329 0.65426-1.2947 0.01086-0.03646 0.02507-0.07092 0.03498-0.1079 0.57354-2.1405-0.68794-4.3254-2.8284-4.899z" fill="#50463f"/><path d="m38.38 34.307c-2.1405-0.57354-4.3254 0.68794-4.899 2.8284 0 0-0.01023 0.03961-0.02366 0.11094-0.11646 0.48865-0.14228 0.97775-0.08074 1.4484 0.04642 1.4216 0.41454 3.8185 1.8976 7.2034 2.9767-2.1899 4.494-4.0816 5.245-5.2895 0.2886-0.3768 0.5108-0.81329 0.65426-1.2947 0.01086-0.03646 0.02507-0.07092 0.03498-0.1079 0.57354-2.1405-0.68794-4.3254-2.8284-4.899zm-0.25882 0.96593c1.6157 0.43292 2.5467 2.0392 2.1245 3.6549-0.0027 0.0055-0.01248 0.03849-0.03107 0.10086-0.11001 0.36913-0.2761 0.69351-0.48868 0.97106a1.0001 1.0001 0 0 0-0.05583 0.08008c-0.57143 0.91911-1.8818 2.4033-3.9339 4.094-0.93186-2.4902-1.3245-4.4308-1.3598-5.5124a1.0001 1.0001 0 0 0-0.0083-0.09726c-0.04533-0.34664-0.02698-0.71062 0.06232-1.0853a1.0001 1.0001 0 0 0 0.01075-0.04767c0.0053-0.02799 0.0058-0.03503 0.0058-0.03686l5.06e-4 -0.0019c0.43538-1.6209 2.0523-2.5539 3.6737-2.1194z" opacity=".4" stop-color="#000000" stroke-linecap="round" stroke-linejoin="round"/></svg>
