<?xml version="1.0" encoding="UTF-8"?>
<!-- Created with Inkscape (http://www.inkscape.org/) -->
<svg id="SVGRoot" width="48px" height="48px" version="1.1" viewBox="0 0 48 48" xml:space="preserve" xmlns="http://www.w3.org/2000/svg" xmlns:cc="http://creativecommons.org/ns#" xmlns:dc="http://purl.org/dc/elements/1.1/" xmlns:rdf="http://www.w3.org/1999/02/22-rdf-syntax-ns#"><defs><style>.cls-1{fill:none;stroke:#fff;stroke-linecap:round;stroke-linejoin:round;}</style><style>.cls-1{fill:none;stroke:#fff;stroke-linecap:round;stroke-linejoin:round;}</style></defs><metadata><rdf:RDF><cc:Work rdf:about=""><dc:format>image/svg+xml</dc:format><dc:type rdf:resource="http://purl.org/dc/dcmitype/StillImage"/></cc:Work></rdf:RDF></metadata><rect x="4" y="4" width="40" height="40" ry="8" fill="#ffcd4b" fill-rule="evenodd" style="paint-order:stroke fill markers"/><path d="m24 6v36h12c3.324 0 6-2.676 6-6v-24c0-3.324-2.676-6-6-6z" opacity=".1" stroke-linecap="round" stroke-linejoin="round" stroke-width="2" style="paint-order:stroke fill markers"/><path d="m12 4c-4.432 0-8 3.568-8 8v24c0 4.432 3.568 8 8 8h24c4.432 0 8-3.568 8-8v-24c0-4.432-3.568-8-8-8zm0 1h24c3.878 0 7 3.122 7 7v24c0 3.878-3.122 7-7 7h-24c-3.878 0-7-3.122-7-7v-24c0-3.878 3.122-7 7-7z" fill-rule="evenodd" opacity=".3" style="paint-order:stroke fill markers"/><path d="m24 12c-5.54 0-10 4.46-10 10s4.46 10 10 10h7c1.662 0 3-1.338 3-3v-14c0-1.662-1.338-3-3-3h-7zm0 2h7c0.554 0 1 0.446 1 1v14c0 0.554-0.446 1-1 1h-7c-4.432 0-8-3.568-8-8s3.568-8 8-8zm-4 6c-1.108 0-2 0.892-2 2s0.892 2 2 2 2-0.892 2-2-0.892-2-2-2zm7 0c-0.554 0-1 0.446-1 1v2c0 0.554 0.446 1 1 1h2c0.554 0 1-0.446 1-1v-2c0-0.554-0.446-1-1-1h-2zm-13 14c-1.108 0-2 0.892-2 2s0.892 2 2 2h4c1.108 0 2-0.892 2-2s-0.892-2-2-2h-4zm15 0c-0.554 0-1 0.446-1 1v2c0 0.554 0.446 1 1 1h6c0.554 0 1-0.446 1-1v-2c0-0.554-0.446-1-1-1h-6z" fill="#4e4e4e" stroke-linecap="round" stroke-linejoin="round" stroke-width="2" style="paint-order:stroke fill markers"/></svg>
