<?xml version="1.0" encoding="UTF-8"?>
<!-- Created with Inkscape (http://www.inkscape.org/) -->
<svg id="SVGRoot" width="32" height="32" version="1.1" viewBox="0 0 32 32" xmlns="http://www.w3.org/2000/svg" xmlns:cc="http://creativecommons.org/ns#" xmlns:dc="http://purl.org/dc/elements/1.1/" xmlns:rdf="http://www.w3.org/1999/02/22-rdf-syntax-ns#">
 <defs id="defs815">
  <style id="style819">.cls-1{fill:none;stroke:#fff;stroke-linecap:round;stroke-linejoin:round;}</style>
  <style id="style819-0">.cls-1{fill:none;stroke:#fff;stroke-linecap:round;stroke-linejoin:round;}</style>
  <style id="style819-7">.cls-1{fill:none;stroke:#fff;stroke-linecap:round;stroke-linejoin:round;}</style>
  <style id="style819-00">.cls-1{fill:none;stroke:#fff;stroke-linecap:round;stroke-linejoin:round;}</style>
 </defs>
 <metadata id="metadata818">
  <rdf:RDF>
   <cc:Work rdf:about="">
    <dc:format>image/svg+xml</dc:format>
    <dc:type rdf:resource="http://purl.org/dc/dcmitype/StillImage"/>
    <dc:title/>
   </cc:Work>
  </rdf:RDF>
 </metadata>
 <g id="layer1" transform="translate(0,-16)" fill-rule="evenodd">
  <rect id="rect1373-5" x="2" y="18" width="28" height="28" ry="6" fill="#efefef" style="paint-order:stroke fill markers"/>
  <path id="rect919" transform="translate(0,16)" d="m8 2c-3.324 0-6 2.676-6 6v16c0 3.324 2.676 6 6 6h16c3.324 0 6-2.676 6-6v-16c0-3.324-2.676-6-6-6h-16zm0 1h16c2.77 0 5 2.23 5 5v16c0 2.77-2.23 5-5 5h-16c-2.77 0-5-2.23-5-5v-16c0-2.77 2.23-5 5-5z" opacity=".3" style="paint-order:stroke fill markers"/>
  <path id="rect926" transform="translate(0,16)" d="m16 6c-5.54 0-10 4.46-10 10s4.46 10 10 10 10-4.46 10-10-4.46-10-10-10zm0 1c4.986 0 9 4.014 9 9s-4.014 9-9 9-9-4.014-9-9 4.014-9 9-9z" opacity=".25" style="paint-order:stroke fill markers"/>
  <path id="rect931" transform="translate(0,16)" d="m8 8v16h16v-16h-16zm1 1h14v14h-14v-14z" opacity=".25" style="paint-order:stroke fill markers"/>
 </g>
</svg>
