<?xml version="1.0" encoding="UTF-8"?>
<!-- Created with Inkscape (http://www.inkscape.org/) -->
<svg id="SVGRoot" width="48px" height="48px" version="1.1" viewBox="0 0 48 48" xmlns="http://www.w3.org/2000/svg" xmlns:cc="http://creativecommons.org/ns#" xmlns:dc="http://purl.org/dc/elements/1.1/" xmlns:rdf="http://www.w3.org/1999/02/22-rdf-syntax-ns#">
 <defs id="defs815">
  <style id="style819">.cls-1{fill:none;stroke:#fff;stroke-linecap:round;stroke-linejoin:round;}</style>
  <style id="style819-4">.cls-1{fill:none;stroke:#fff;stroke-linecap:round;stroke-linejoin:round;}</style>
 </defs>
 <metadata id="metadata818">
  <rdf:RDF>
   <cc:Work rdf:about="">
    <dc:format>image/svg+xml</dc:format>
    <dc:type rdf:resource="http://purl.org/dc/dcmitype/StillImage"/>
    <dc:title/>
   </cc:Work>
  </rdf:RDF>
 </metadata>
 <g id="layer1">
  <rect id="rect1373-5" x="4" y="4" width="40" height="40" ry="8" fill="#e2c15c" fill-rule="evenodd" style="paint-order:stroke fill markers"/>
  <path id="rect817" d="m12 4c-4.432 0-8 3.568-8 8v24c0 4.432 3.568 8 8 8h24c4.432 0 8-3.568 8-8v-24c0-4.432-3.568-8-8-8h-24zm0 1h24c3.878 0 7 3.122 7 7v24c0 3.878-3.122 7-7 7h-24c-3.878 0-7-3.122-7-7v-24c0-3.878 3.122-7 7-7z" fill-rule="evenodd" opacity=".3" style="paint-order:stroke fill markers"/>
  <path id="path832" d="m35.07 20.035c-0.89409 0-1.6183 0.19202-2.1758 0.57617s-0.83789 0.87679-0.83789 1.4785c0 0.40795 0.10513 0.76681 0.3125 1.0762 0.20737 0.30936 0.53071 0.56556 0.97266 0.76953v0.03125c-0.54733 0.22097-0.93188 0.47767-1.1562 0.77344-0.22097 0.29236-0.33203 0.62901-0.33203 1.0098 0 0.30936 0.061209 0.59862 0.18359 0.86719 0.12578 0.26856 0.3178 0.5045 0.57617 0.70508 0.26177 0.20397 0.59299 0.36293 0.99414 0.47852 0.40115 0.11559 0.88243 0.17383 1.4434 0.17383 0.99948 0 1.7843-0.21423 2.3555-0.64258 0.57453-0.42835 0.86133-0.97923 0.86133-1.6523 0-0.46234-0.12589-0.86317-0.38086-1.2031-0.25497-0.33996-0.6474-0.60997-1.1777-0.81055v-0.03125c0.46234-0.19718 0.80492-0.43658 1.0293-0.71875s0.33594-0.60449 0.33594-0.96484c0-0.58133-0.26705-1.0439-0.80078-1.3906-0.53033-0.35016-1.2648-0.52539-2.2031-0.52539zm-14.859 0.019532c-0.55753-1e-6 -1.0364 0.08342-1.4375 0.25-0.40115 0.16658-0.72695 0.41684-0.97852 0.75-0.25157 0.33656-0.4352 0.74824-0.55078 1.2344-0.11559 0.48614-0.17383 1.0573-0.17383 1.7168 0 0.63912 0.055783 1.2087 0.16797 1.7051 0.11219 0.49294 0.29531 0.90512 0.54688 1.2383 0.24817 0.33316 0.57151 0.58393 0.97266 0.75391 0.40115 0.16998 0.8854 0.25586 1.4531 0.25586 0.57793 0 1.0646-0.083421 1.459-0.25 0.39435-0.16998 0.71718-0.42024 0.96875-0.75 0.24477-0.32296 0.42543-0.73514 0.54102-1.2383 0.11558-0.50654 0.17383-1.0796 0.17383-1.7188 0-0.63912-0.057736-1.2014-0.16992-1.6875-0.11219-0.48954-0.29089-0.90122-0.53906-1.2344-0.25157-0.33996-0.5744-0.59565-0.96875-0.76562-0.39435-0.17338-0.88352-0.25976-1.4648-0.25976zm-7.5098 0.005859c-0.47254 0-0.94543 0.052816-1.418 0.1582-0.46914 0.10539-0.82504 0.20907-1.0664 0.31445v1.6895h0.16406c0.29576-0.20058 0.61367-0.36691 0.95703-0.49609 0.34676-0.12918 0.67747-0.19336 0.99023-0.19336 0.41815 0 0.73801 0.09478 0.95898 0.28516 0.22437 0.18698 0.33594 0.45402 0.33594 0.80078 0 0.28896-0.086388 0.58119-0.25977 0.87695-0.17338 0.29576-0.4656 0.64326-0.87695 1.041-0.27537 0.26857-0.64262 0.58843-1.1016 0.95898-0.45554 0.37055-0.91164 0.72102-1.3672 1.0508v1.2539h5.9609v-1.4531h-3.4102c0.13258-0.095188 0.35521-0.26203 0.66797-0.5 0.31276-0.24137 0.62228-0.50545 0.93164-0.79102 0.49294-0.45894 0.85969-0.90419 1.0977-1.3359 0.24137-0.43175 0.36133-0.88589 0.36133-1.3652 0-0.73091-0.25026-1.2956-0.75-1.6934-0.49974-0.40115-1.2239-0.60156-2.1758-0.60156zm15.205 0.14648-3.5547 4.4062v1.4375h3.6777v1.7695h1.8711v-1.7695h1.0352v-1.3867h-1.0352v-4.457h-1.9941zm7.1641 1.1172c0.32976 0 0.59384 0.077488 0.79102 0.23047 0.20058 0.15298 0.30078 0.35882 0.30078 0.61719 0 0.21417-0.033571 0.39288-0.10156 0.53906-0.067991 0.14618-0.17956 0.31252-0.33594 0.49609-0.23457-0.07479-0.43498-0.14142-0.60156-0.19922-0.16318-0.061193-0.29348-0.1135-0.38867-0.1543-0.25837-0.11219-0.44496-0.22375-0.56055-0.33594-0.11219-0.11219-0.16797-0.26818-0.16797-0.46875 0-0.11898 0.03111-0.22462 0.095703-0.31641 0.064592-0.095187 0.14751-0.17072 0.24609-0.22852 0.10539-0.057796 0.21992-0.10222 0.3457-0.13281 0.12918-0.030594 0.25457-0.046875 0.37695-0.046875zm-14.859 0.13281c0.41815 0 0.71826 0.19499 0.89844 0.58594 0.18018 0.38755 0.26953 1.0411 0.26953 1.959 0 0.90769-0.091813 1.5593-0.27539 1.957-0.18358 0.39775-0.48123 0.59766-0.89258 0.59766-0.41135 0-0.709-0.19991-0.89258-0.59766s-0.27539-1.0464-0.27539-1.9473c0-0.92468 0.091307-1.5812 0.27148-1.9688 0.18018-0.39095 0.47834-0.58594 0.89648-0.58594zm7.8184 0.46484v2.7422h-2.209l2.209-2.7422zm6.3223 2.4727c0.14618 0.054394 0.32684 0.11857 0.54102 0.19336 0.21417 0.07479 0.37805 0.13846 0.49023 0.18945 0.38075 0.16318 0.63152 0.30781 0.75391 0.43359 0.12238 0.12578 0.18359 0.30992 0.18359 0.55469 1e-6 0.18018-0.036537 0.3243-0.11133 0.42969-0.07479 0.10539-0.17449 0.1972-0.29688 0.27539-0.10539 0.067994-0.23077 0.11835-0.37695 0.15234-0.14618 0.030593-0.27403 0.044922-0.38281 0.044922-0.40795 0-0.73917-0.10317-0.99414-0.31055-0.25157-0.21077-0.37695-0.49215-0.37695-0.8457 0-0.23457 0.058242-0.44584 0.17383-0.63281 0.11898-0.19038 0.2503-0.35179 0.39648-0.48438z" fill="#fff"/>
 </g>
</svg>
