<?xml version="1.0" encoding="UTF-8"?>
<!-- Created with Inkscape (http://www.inkscape.org/) -->
<svg id="SVGRoot" width="48px" height="48px" version="1.1" viewBox="0 0 48 48" xmlns="http://www.w3.org/2000/svg" xmlns:cc="http://creativecommons.org/ns#" xmlns:dc="http://purl.org/dc/elements/1.1/" xmlns:rdf="http://www.w3.org/1999/02/22-rdf-syntax-ns#">
 <defs id="defs815">
  <style id="style819">.cls-1{fill:none;stroke:#fff;stroke-linecap:round;stroke-linejoin:round;}</style>
 </defs>
 <metadata id="metadata818">
  <rdf:RDF>
   <cc:Work rdf:about="">
    <dc:format>image/svg+xml</dc:format>
    <dc:type rdf:resource="http://purl.org/dc/dcmitype/StillImage"/>
    <dc:title/>
   </cc:Work>
  </rdf:RDF>
 </metadata>
 <g id="layer1" fill-rule="evenodd">
  <rect id="rect1373" x="4" y="4" width="40" height="40" ry="8" fill="#ff9f41" style="paint-order:stroke fill markers"/>
  <path id="rect817" d="m12 4c-4.432 0-8 3.568-8 8v24c0 4.432 3.568 8 8 8h24c4.432 0 8-3.568 8-8v-24c0-4.432-3.568-8-8-8h-24zm0 1h24c3.878 0 7 3.122 7 7v24c0 3.878-3.122 7-7 7h-24c-3.878 0-7-3.122-7-7v-24c0-3.878 3.122-7 7-7z" opacity=".3" style="paint-order:stroke fill markers"/>
  <path id="rect828" d="m23.517 9.9999c-4.8018 0.049171-7.5128 9.9045-7.5128 15.49 0 7.0716 0.90885 12.521 0.90885 12.521l4.3929-1.4199s-1.5148-4.0966-1.5148-11.166c0-4.8757 1.6066-13.101 3.8773-13.102 2.2707-2.72e-4 3.8627 5.4881 4.2414 11.617 0.19927 3.2252-0.45447 9.6812-0.45447 9.6812l4.5443-2.0008s0.0075-4.9127-0.22724-7.4222c-0.60591-6.4754-3.4537-14.248-8.2555-14.199z" fill="#fff" style="paint-order:stroke fill markers"/>
  <rect id="rect831" x="21" y="24" width="6" height="6" ry="3" fill="#fff" style="paint-order:stroke fill markers"/>
 </g>
</svg>
