<?xml version="1.0" encoding="UTF-8"?>
<!-- Created with Inkscape (http://www.inkscape.org/) -->
<svg id="SVGRoot" width="48px" height="48px" version="1.1" viewBox="0 0 48 48" xmlns="http://www.w3.org/2000/svg" xmlns:cc="http://creativecommons.org/ns#" xmlns:dc="http://purl.org/dc/elements/1.1/" xmlns:rdf="http://www.w3.org/1999/02/22-rdf-syntax-ns#">
 <defs id="defs815">
  <style id="style819">.cls-1{fill:none;stroke:#fff;stroke-linecap:round;stroke-linejoin:round;}</style>
 </defs>
 <metadata id="metadata818">
  <rdf:RDF>
   <cc:Work rdf:about="">
    <dc:format>image/svg+xml</dc:format>
    <dc:type rdf:resource="http://purl.org/dc/dcmitype/StillImage"/>
    <dc:title/>
   </cc:Work>
  </rdf:RDF>
 </metadata>
 <g id="layer1">
  <rect id="rect1373" x="4" y="4" width="40" height="40" ry="8" fill="#4fb47b" fill-rule="evenodd" style="paint-order:stroke fill markers"/>
  <path id="rect817" d="m12 4c-4.432 0-8 3.568-8 8v24c0 4.432 3.568 8 8 8h24c4.432 0 8-3.568 8-8v-24c0-4.432-3.568-8-8-8h-24zm0 1h24c3.878 0 7 3.122 7 7v24c0 3.878-3.122 7-7 7h-24c-3.878 0-7-3.122-7-7v-24c0-3.878 3.122-7 7-7z" fill-rule="evenodd" opacity=".3" style="paint-order:stroke fill markers"/>
  <path id="path820" d="m24 10s-14 0-14 13c0 10 7 10 7 10s0 5 7 5 7-5 7-5 7 0 7-10c0-13-14-13-14-13zm-5 23s1 1 5 1 5-1 5-1 0 3-5 3-5-3-5-3z" fill="#4e4e4e"/>
  <path id="path838" d="m16 26s3.8196 0.64767 5 2c0.90379 1.0354 1 4 1 4s-3.8196-0.64767-5-2c-0.90379-1.0354-1-4-1-4z" fill="#f97263"/>
  <rect id="rect840" x="18" y="28" width="2" height="2" ry="1" fill="#fff" fill-rule="evenodd" style="paint-order:stroke fill markers"/>
  <path id="path838-1" d="m32 26s-3.8196 0.64767-5 2c-0.90379 1.0354-1 4-1 4s3.8196-0.64767 5-2c0.90379-1.0354 1-4 1-4z" fill="#f97263"/>
  <rect id="rect840-9" transform="scale(-1,1)" x="-30" y="28" width="2" height="2" ry="1" fill="#fff" fill-rule="evenodd" style="paint-order:stroke fill markers"/>
 </g>
</svg>
