<?xml version="1.0" encoding="UTF-8"?>
<!-- Created with Inkscape (http://www.inkscape.org/) -->
<svg id="SVGRoot" width="48px" height="48px" version="1.1" viewBox="0 0 48 48" xmlns="http://www.w3.org/2000/svg" xmlns:cc="http://creativecommons.org/ns#" xmlns:dc="http://purl.org/dc/elements/1.1/" xmlns:rdf="http://www.w3.org/1999/02/22-rdf-syntax-ns#">
 <defs id="defs815">
  <style id="style819">.cls-1{fill:none;stroke:#fff;stroke-linecap:round;stroke-linejoin:round;}</style>
 </defs>
 <metadata id="metadata818">
  <rdf:RDF>
   <cc:Work rdf:about="">
    <dc:format>image/svg+xml</dc:format>
    <dc:type rdf:resource="http://purl.org/dc/dcmitype/StillImage"/>
    <dc:title/>
   </cc:Work>
  </rdf:RDF>
 </metadata>
 <g id="layer1">
  <rect id="rect1373" x="4" y="4" width="40" height="40" ry="8" fill="#635547" fill-rule="evenodd" style="paint-order:stroke fill markers"/>
  <path id="rect817" d="m12 4c-4.432 0-8 3.568-8 8v24c0 4.432 3.568 8 8 8h24c4.432 0 8-3.568 8-8v-24c0-4.432-3.568-8-8-8h-24zm0 1h24c3.878 0 7 3.122 7 7v24c0 3.878-3.122 7-7 7h-24c-3.878 0-7-3.122-7-7v-24c0-3.878 3.122-7 7-7z" fill-rule="evenodd" opacity=".4" style="paint-order:stroke fill markers"/>
  <path id="path892" d="m40 11-11 1-3 1-5-1-1 4h4l6 4 2 4 10-2-2-11zm-34 6.25v18.75c0 0.096934 0.0091707 0.19133 0.013672 0.28711l4.9863 0.71289 5-2 3-5v-6l-7-6-6-0.75z" fill="#846546"/>
  <path id="path885" d="m8.9629 6.8262c-1.7739 1.0401-2.9629 2.9608-2.9629 5.1738v3l13-2 3-4-13.037-2.1738zm18.037 2.1738 4 11h1l1-1h2l4-4-12-6zm-21 10v16h2l8-5v-5l-2-3-3-3h-5z" fill="#a6815d"/>
  <path id="path873" d="m12 6c-2.8209 0-5.1684 1.9299-5.8164 4.5449l1.8164 0.45508 1 2h1l3 4h3l2-7 3 1 4-1 10 5h3l-1 3 1 3h-4l-2 2-1-1h-1l-2 2-2 4v4l3 3v2l-2 4 0.66602 1h8.334c3.324 0 6-2.676 6-6v-24c0-3.324-2.676-6-6-6h-24zm-4 8-1 2 1 2 3-1-1-2-2-1zm11 4-3 3 2 4h2l3-3 1-2-2-2h-3zm-13 4.2227v8.7773h6l3-2v-4l-2-2-7-0.77734zm16 2.7773-2 2 2 3 3-2-1-2-2-1z" fill="#caa683"/>
  <path id="rect828" d="m12 28c-2.216 0-4 1.784-4 4s1.784 4 4 4 4-1.784 4-4-1.784-4-4-4zm0 2c1.108 0 2 0.892 2 2s-0.892 2-2 2-2-0.892-2-2 0.892-2 2-2z" fill="#fff" fill-rule="evenodd" style="paint-order:stroke fill markers"/>
  <rect id="rect830" x="8" y="28" width="8" height="2" ry="1" fill="#fff" fill-rule="evenodd" style="paint-order:stroke fill markers"/>
  <rect id="rect834" x="21" y="28" width="2" height="5" ry="1" fill="#fff" fill-rule="evenodd" style="paint-order:stroke fill markers"/>
  <path id="path836" d="m19 35s0-3 3-3 3 3 3 3" fill="none" stroke="#fff" stroke-linecap="round" stroke-linejoin="round" stroke-width="2"/>
  <rect id="rect838" x="28" y="28" width="2" height="8" ry="1" fill="#fff" fill-rule="evenodd" style="paint-order:stroke fill markers"/>
  <path id="path840" d="m34 27h3s2 0 2 2.5-2 2.5-2 2.5h-3" fill="none" stroke="#fff" stroke-linecap="round" stroke-linejoin="round" stroke-width="2"/>
  <path id="path840-9" d="m37 32s2 0 2 2.5-2 2.5-2 2.5h-3" fill="none" stroke="#fff" stroke-linecap="round" stroke-linejoin="round" stroke-width="2"/>
 </g>
</svg>
