<?xml version="1.0" encoding="UTF-8"?>
<!-- Created with Inkscape (http://www.inkscape.org/) -->
<svg id="SVGRoot" width="48px" height="48px" version="1.1" viewBox="0 0 48 48" xmlns="http://www.w3.org/2000/svg" xmlns:cc="http://creativecommons.org/ns#" xmlns:dc="http://purl.org/dc/elements/1.1/" xmlns:rdf="http://www.w3.org/1999/02/22-rdf-syntax-ns#">
 <defs id="defs815">
  <style id="style819">.cls-1{fill:none;stroke:#fff;stroke-linecap:round;stroke-linejoin:round;}</style>
 </defs>
 <metadata id="metadata818">
  <rdf:RDF>
   <cc:Work rdf:about="">
    <dc:format>image/svg+xml</dc:format>
    <dc:type rdf:resource="http://purl.org/dc/dcmitype/StillImage"/>
    <dc:title/>
   </cc:Work>
  </rdf:RDF>
 </metadata>
 <g id="layer1">
  <rect id="rect1373" x="4" y="4" width="40" height="40" ry="8" fill="#3fa496" fill-rule="evenodd" style="paint-order:stroke fill markers"/>
  <path id="rect817" d="m12 4c-4.432 0-8 3.568-8 8v24c0 4.432 3.568 8 8 8h24c4.432 0 8-3.568 8-8v-24c0-4.432-3.568-8-8-8h-24zm0 1h24c3.878 0 7 3.122 7 7v24c0 3.878-3.122 7-7 7h-24c-3.878 0-7-3.122-7-7v-24c0-3.878 3.122-7 7-7z" fill-rule="evenodd" opacity=".3" style="paint-order:stroke fill markers"/>
  <rect id="rect819" x="7.9657" y="8" width="32.034" height="32.034" ry="5" opacity=".35" stroke-width=".23555" style="paint-order:stroke fill markers"/>
  <path id="path821" d="m17.388 9.8844s-3.0027 2.1662-4.7109 2.8266c-1.4937 0.57747-4.7109 0.94219-4.7109 0.94219l-0.96567 1.3469 0.96567 1.4797 6.5953 3.7687z" fill="#3fa496" stroke-width=".23555"/>
  <path id="path823" d="m30.578 9.8844s3.0027 2.1662 4.7109 2.8266c1.4937 0.57747 4.7109 0.94219 4.7109 0.94219l1 1.3469-1 1.4797-6.5953 3.7687z" fill="#3fa496" stroke-width=".23555"/>
  <path id="path825" d="m7.9657 16.48s0.94219 4.7109 0.94219 10.364c1.8844 0.94219 2.8266 2.8266 3.7687 4.7109 2.8266-0.94219 4.7109-0.94219 4.7109-0.94219l-1.8844-1.8844-1.8844-4.7109 1.8844-3.7687zm32.034 0-7.5375 3.7687 1.8844 3.7687-1.8844 4.7109-1.8844 1.8844s1.8844 0 4.7109 0.94219c0.94219-1.8844 1.8844-3.7687 3.7687-4.7109 0-5.6531 0.94219-10.364 0.94219-10.364z" fill="#3fa496" stroke-width=".23555"/>
  <path id="path827" d="m20.214 8s-6.5953 0.94219-6.5953 11.306c0 3.5113 10.364 2.8266 10.364 2.8266s10.364 0.68476 10.364-2.8266c0-10.364-6.5953-11.306-6.5953-11.306h-3.7687z" fill="#88e7da" stroke-width=".23555"/>
  <path id="path829" d="m13.651 18.149c-0.01901 0.3736-0.0322 0.7561-0.0322 1.1575 0 0.9545 0.76901 1.5969 1.8844 2.0293v-2.0293l-1.8522-1.1575zm20.664 0-1.8522 1.1575v2.0293c1.1154-0.43242 1.8844-1.0748 1.8844-2.0293 0-0.40137-0.01319-0.78388-0.0322-1.1575z" fill="#3fa496" stroke-width=".23555"/>
  <path id="path831" d="m7.9657 15.537v0.94219s3.7687 1.8844 5.6531 5.6531c-1.8844 0.94219-4.7109 4.7109-4.7109 4.7109s1.8844-1.8844 4.7109-1.8844c0.90097 0.41786 1.0126 1.8359 0.94219 2.8266 0 0.94219-1.8844 3.7687-1.8844 3.7687s2.8266-2.8266 3.7687-2.8266c0-1.8844-0.94219-3.7687-0.94219-3.7687v-4.7109zm32.034 0-7.5375 4.7109v4.7109s-0.94219 1.8844-0.94219 3.7687c0.94219 0 3.7687 2.8266 3.7687 2.8266s-1.8844-2.8266-1.8844-3.7687c-0.0704-0.99066 0.04122-2.4087 0.94219-2.8266 2.8266 0 4.7109 1.8844 4.7109 1.8844s-2.8266-3.7687-4.7109-4.7109c1.8844-3.7687 5.6531-5.6531 5.6531-5.6531z" fill="#88e7da" stroke-width=".23555"/>
  <path id="path833" d="m18.33 33.439v3.7687c0 1.8844-0.94219 2.8266-0.94219 2.8266h13.191s-0.94219-0.94219-0.94219-2.8266v-3.7687h-5.6531z" fill="#88e7da" stroke-width=".23555"/>
  <path id="path835" d="m18.33 34.381v1.8844s0.97224 1.5004 2.8266 2.3604c1.4747 0.684 2.8266 0.46603 2.8266 0.46603s1.3519 0.21798 2.8266-0.46603c1.8543-0.8601 2.8266-2.3604 2.8266-2.3604v-1.8844h-5.6531z" fill="#3fa496" stroke-width=".23555"/>
  <path id="path837" d="m23.983 12.711-5.6531 0.94219s-2.8266 8.0583-2.8266 12.248c0 7.5375 2.4699 8.5454 5.6531 11.306 0.75029 0.65072 1.8844 0.94219 2.8266 0.94219s2.0763-0.29146 2.8266-0.94219c3.1832-2.7608 5.6531-3.7687 5.6531-11.306 0-4.1901-2.8266-12.248-2.8266-12.248z" fill="#88e7da" stroke-width=".23555"/>
  <path id="path839" d="m20.214 8s-6.5953 6.5953-4.7109 17.902c2.8266-9.4219 4.7109-12.248 8.4797-12.248s5.6531 2.8266 8.4797 12.248c1.8844-11.306-4.7109-17.902-4.7109-17.902h-3.7687z" fill="#3fa496" stroke-width=".23555"/>
  <path id="path841" d="m16.445 17.422c1.8844-9.4219 3.7687-9.4219 3.7687-9.4219h7.5375s1.8844 0 3.7687 9.4219c0 0-3.7687-5.6531-7.5375-5.6531s-7.5375 5.6531-7.5375 5.6531z" fill="#88e7da" stroke-width=".23555"/>
  <path id="path843" d="m17.928 18.364s4.1704 1.4117 4.1704 4.7109c0 1.6784-0.94219 2.8266-3.7687 3.3393-0.94219 0.1709-2.8266-0.51271-2.8266-0.51271l0.57155-4.7109z" fill="#3fa496" stroke-width=".23555"/>
  <path id="path845" d="m17.038 23.075s0.66139-0.94219 1.2912-0.94219c1.2212 0 1.8844 0.94219 1.8844 0.94219s-0.61372 0.94219-1.8844 0.94219c-0.65451 0-1.2912-0.94219-1.2912-0.94219z" fill="#88e7da" stroke-width=".23555"/>
  <path id="path847" d="m22.098 27.786s-0.02656 2.4848 1.8844 2.5081c1.7855 0.02179 1.8844-2.5081 1.8844-2.5081s0 0.94219-1.8844 0.94219-1.8844-0.94219-1.8844-0.94219z" fill="#3fa496" stroke-width=".23555"/>
  <path id="path849" d="m22.098 31.924c-0.72923 0.03625-0.94219 1.5136-0.94219 1.5136s1.8785 0.31514 2.8266 0.31514 2.8266-0.31514 2.8266-0.31514-0.16353-1.5267-0.94219-1.5136c-0.65628 0.01112-1.228 0.57139-1.8844 0.57139s-1.2288-0.60396-1.8844-0.57139z" fill="#3fa496" stroke-width=".23555"/>
  <path id="path851" d="m23.983 34.381c-0.55059 0-1.6061 0.38599-1.6061 0.38599s1.0656 0.22266 1.6061 0.22266c0.54048 0 1.606-0.22266 1.606-0.22266s-1.0555-0.38599-1.606-0.38599z" fill="#3fa496" stroke-width=".23555"/>
  <path id="path853" d="m23.983 33.135c-0.94758 0-2.8266 0.30272-2.8266 0.30272s1.8785 0.31514 2.8266 0.31514 2.8266-0.31514 2.8266-0.31514-1.879-0.30272-2.8266-0.30272z" opacity=".25" stroke-width=".23555"/>
  <path id="path855" d="m30.036 18.364s-4.1704 1.4117-4.1704 4.7109c0 1.6784 0.94219 2.8266 3.7687 3.3393 0.94219 0.1709 2.8266-0.51271 2.8266-0.51271l-0.57155-4.7109z" fill="#3fa496" stroke-width=".23555"/>
  <path id="path857" d="m30.927 23.075s-0.66139-0.94219-1.2912-0.94219c-1.2212 0-1.8844 0.94219-1.8844 0.94219s0.61369 0.94219 1.8844 0.94219c0.65451 0 1.2912-0.94219 1.2912-0.94219z" fill="#88e7da" stroke-width=".23555"/>
 </g>
</svg>
