<?xml version="1.0" encoding="UTF-8"?>
<!-- Created with Inkscape (http://www.inkscape.org/) -->
<svg id="SVGRoot" width="48px" height="48px" version="1.1" viewBox="0 0 48 48" xmlns="http://www.w3.org/2000/svg" xmlns:cc="http://creativecommons.org/ns#" xmlns:dc="http://purl.org/dc/elements/1.1/" xmlns:rdf="http://www.w3.org/1999/02/22-rdf-syntax-ns#" xmlns:xlink="http://www.w3.org/1999/xlink">
 <defs id="defs815">
  <style id="style819">.cls-1{fill:none;stroke:#fff;stroke-linecap:round;stroke-linejoin:round;}</style>
  <style id="style819-0">.cls-1{fill:none;stroke:#fff;stroke-linecap:round;stroke-linejoin:round;}</style>
  <style id="style819-4">.cls-1{fill:none;stroke:#fff;stroke-linecap:round;stroke-linejoin:round;}</style>
 </defs>
 <metadata id="metadata818">
  <rdf:RDF>
   <cc:Work rdf:about="">
    <dc:format>image/svg+xml</dc:format>
    <dc:type rdf:resource="http://purl.org/dc/dcmitype/StillImage"/>
    <dc:title/>
   </cc:Work>
  </rdf:RDF>
 </metadata>
 <g id="layer1">
  <rect id="rect1373-5" x="4" y="4" width="40" height="40" ry="8" fill="#4e4e4e" fill-rule="evenodd" style="paint-order:stroke fill markers"/>
  <path id="rect817" d="m12 4c-4.432 0-8 3.568-8 8v24c0 4.432 3.568 8 8 8h24c4.432 0 8-3.568 8-8v-24c0-4.432-3.568-8-8-8h-24zm0 1h24c3.878 0 7 3.122 7 7v24c0 3.878-3.122 7-7 7h-24c-3.878 0-7-3.122-7-7v-24c0-3.878 3.122-7 7-7z" fill-rule="evenodd" opacity=".4" style="paint-order:stroke fill markers"/>
  <g id="layer1-8" transform="matrix(1.0382 0 0 1.0382 -1.8697 -.81805)" fill="#ffd34e" stroke-width=".2773">
   <path id="path832" d="m30.244 13.925 0.07247 0.58857s-3.1764-0.08521-5.8813 0.77085c-3.7015 1.1714-6.1383 3.4743-6.1383 3.4743l-0.35797-0.60175-1.5549-0.07687-3.6039 2.7188s-0.1621 0.17703 0.33162 0.18448c0.15977 0.0025 0.47657-0.02415 0.47657-0.02415s-2.1022 2.6313-2.1325 5.1346c-0.04151 3.4285 3.0236 7.7362 6.8388 7.6843 6.6992-0.09112 7.9062-4.8535 7.9062-4.8535l7.6097-2.2796s0.54067 0.68809 1.1771 0.73571c1.5648 0.1171 3.1354-2.4143 3.3272-4.4845 0.36797-3.9724-1.1222-5.2203-1.1222-5.2203s0.09882-0.54927-0.02415-0.83015c-0.13902-0.31752-0.49272-0.65058-0.82575-0.74669-0.26565-0.07666-0.73132 0.10542-0.73132 0.10542s-2.2303-1.9172-5.3674-2.2796zm-0.46119 2.1654c0.66701-0.01185 1.0871 0.02196 1.0871 0.02196s0.8036 0.85853 0.90042 2.06c0.06972 0.86499-0.23938 2.2049-0.23938 2.2049s-4.5747 0.68514-7.2056 0.5139c-0.87329-0.77564-1.6312-1.0923-2.6112-1.3968 1.8358-2.9304 6.0677-3.3685 8.0687-3.404zm7.8403 3.516s0.33003 0.97848 0.29868 2.1962c-0.04891 1.8996-1.0278 3.1185-1.0278 3.1185l-0.02415-0.80599-0.46998 0.02636-0.4019-0.51829 0.02636-0.50731s0.75748-0.14655 0.8565-0.96192c0.14946-1.2308-0.6874-1.3924-0.6874-1.3924 0 0 0.32822-0.51064 0.72693-0.77964 0.22016-0.14853 0.70277-0.37554 0.70277-0.37554zm-12.38 1.8558c0 1e-6 2.1619 1.2328 3.3096 1.9656 0.57032 0.36409 0.84327 0.43758 1.2672 0.33162 1.3062-0.32645 2.7979-0.58637 2.7979-0.58637l1.1025 2.9033-7.2451 1.9853s0.51988-1.488 0.36676-3.0329c-0.18447-1.8611-1.5988-3.5666-1.5988-3.5666zm-2.9077 0.38433c0.51701-0.05036 1.0357 0.02194 1.5241 0.23499 1.9536 0.85221 2.6882 3.6123 1.6471 6.1866-1.0411 2.5742-3.4534 3.9598-5.4069 3.1076-1.9536-0.85221-2.6882-3.6101-1.6471-6.1844 0.78083-1.9307 2.3318-3.1937 3.8828-3.3447z"/>
   <path id="path836" d="m19.821 26.499c0.07169-0.85798 0.83145-1.6812 1.6177-1.6728 0.53709 0.0058 1.4923 0.85998 1.5074 1.5993 0.02065 1.016-1.3666 1.8826-2.114 1.8015-0.66344-0.07201-1.0865-0.82554-1.011-1.728z"/>
  </g>
 </g>
</svg>
