<?xml version="1.0" encoding="UTF-8"?>
<!-- Created with Inkscape (http://www.inkscape.org/) -->
<svg id="SVGRoot" width="48px" height="48px" version="1.1" viewBox="0 0 48 48" xmlns="http://www.w3.org/2000/svg" xmlns:cc="http://creativecommons.org/ns#" xmlns:dc="http://purl.org/dc/elements/1.1/" xmlns:rdf="http://www.w3.org/1999/02/22-rdf-syntax-ns#">
 <defs id="defs815">
  <style id="style819">.cls-1{fill:none;stroke:#fff;stroke-linecap:round;stroke-linejoin:round;}</style>
  <style id="style2">.a{fill:none;stroke:#b1b5bd;stroke-linecap:round;stroke-linejoin:round;isolation:isolate;opacity:0.63;}</style>
  <style id="style2-0">.a{fill:none;stroke:#b1b5bd;stroke-linecap:round;stroke-linejoin:round;isolation:isolate;opacity:0.63;}</style>
 </defs>
 <metadata id="metadata818">
  <rdf:RDF>
   <cc:Work rdf:about="">
    <dc:format>image/svg+xml</dc:format>
    <dc:type rdf:resource="http://purl.org/dc/dcmitype/StillImage"/>
    <dc:title/>
   </cc:Work>
  </rdf:RDF>
 </metadata>
 <g id="layer1">
  <rect id="rect1373" x="4" y="4" width="40" height="40" ry="8" fill="#f280ed" fill-rule="evenodd" style="paint-order:stroke fill markers"/>
  <path id="path854" d="m22.479 10.73 8.3986 3.0608 1.4931-0.4106 1.6424-2.8368-3.658-4.2553-4.6659-0.26129-0.89585 1.2691-2.5756 0.11198z" fill="#4e4e4e"/>
  <path id="path860" d="m19.386 32.107 0.26394-5.0677 3.6424-3.2201 1.3197-0.52788 0.70439-0.1316 6.8308-2.4636 1.2276 0.85317 5.5659 1.3118 1.1571 0.9705 1.6703 2.7326 0.26394 2.5866-1.9004 3.8008-1.2141 8.7101-12.986-2.3755-2.6922-5.7539z" fill="#b7bfc2"/>
  <path id="path858" d="m42.834 7.8438-5.127 8.5957-0.66992-0.37109-1.7539 2.5371-0.70898-0.15039 2.4629-3.9941-1.1562-0.82031-3.584 5.9355 1.0078 0.70898 0.82226-0.74609 0.56836 0.32227-1.3223 1.6895-1.9512 6.0156v2.957l-6.4941 0.47461-0.84375-5.1719 0.52734-2.5352-1.3184 0.5293-0.74024 3.8516 0.68555 5.8613v8.9199l-0.83789 1.5469h13.6c0.92538 0 1.8093-0.16469 2.6348-0.45117l0.28125-1.8867-4.5918-1.8477-1.2129-12.512 1.6113-5.2266 4.2188 0.78516 1.1562 0.9707 1.0098-1.0078-2.6523-1.9414 1.1582-1.4551 4.3867 0.23047v-2.1289l-4.2012 0.03125 2.4258-3.8438 1.7754-0.82422v-0.89258c0-0.33992-0.029156-0.67174-0.070312-1-0.012998-0.1033-0.029965-0.20464-0.046876-0.30664-0.041003-0.24831-0.093047-0.4925-0.15625-0.73242-0.021566-0.081511-0.040404-0.16368-0.064453-0.24414-0.092879-0.31228-0.19796-0.61896-0.32617-0.91406l-0.001954 0.0078125c-0.14594-0.33461-0.31216-0.65767-0.5-0.9668z" fill="#4e4e4e"/>
  <path id="path852" d="m23.114 14.761 1.2691-4.4419 2.4263-1.2318 4.6659 2.3516 0.89585 1.941 1.1198 0.37327-0.59723 2.7249-1.1571-0.03733-0.85852 2.5382 1.2691 1.717-2.2396 2.9115-1.4931-0.07466-0.93317 2.053-0.67188-0.11198-1.4931-2.3143 0.63456-0.29862 0.29862-3.0235-2.2769-0.89585 0.18663-1.829z" fill="#fff"/>
  <path id="path856" d="m33.586 29.52 4.2758 3.8535-6.8097 9.2379-9.0796-6.493-0.8974-1.0558-4.0119 3.0617-6.8625-8.8684-0.26394-2.1115-1.5309-1.4253-2.4283-1.4253 0.52788-2.6394 0.58067 0.26394-0.21115 1.3197 1.003 0.68625-0.63346-0.8974 0.95019-2.481h0.8974l-0.58067 2.4283 1.1613 1.3197-0.26394-1.9004 1.1613-1.2669 0.79182 0.4751-1.1613 1.5836 0.68625 1.003 0.63346-1.7948 0.84461 0.47509-0.63346 1.5836 1.0558 1.1613-0.15836 2.0587 4.8037 5.1732 1.1613-0.84461-3.3784-1.9532-1.1086-5.226 0.8974-0.10558 0.36952 0.8974 0.84461 0.05279 0.95019 2.6394 3.484 0.79182-0.68625-2.0587 1.1086-0.4751 1.1613 2.3755-0.63346 2.006 7.8127 5.0677z" fill="#fff"/>
  <path id="rect817" d="m12 4c-4.432 0-8 3.568-8 8v24c0 4.432 3.568 8 8 8h24c4.432 0 8-3.568 8-8v-24c0-4.432-3.568-8-8-8h-24zm0 1h24c3.878 0 7 3.122 7 7v24c0 3.878-3.122 7-7 7h-24c-3.878 0-7-3.122-7-7v-24c0-3.878 3.122-7 7-7z" fill-rule="evenodd" opacity=".3" style="paint-order:stroke fill markers"/>
 </g>
</svg>
