<?xml version="1.0" encoding="UTF-8"?>
<!-- Created with Inkscape (http://www.inkscape.org/) -->
<svg id="SVGRoot" width="48px" height="48px" version="1.1" viewBox="0 0 48 48" xml:space="preserve" xmlns="http://www.w3.org/2000/svg" xmlns:cc="http://creativecommons.org/ns#" xmlns:dc="http://purl.org/dc/elements/1.1/" xmlns:rdf="http://www.w3.org/1999/02/22-rdf-syntax-ns#"><defs><style>.cls-1{fill:none;stroke:#fff;stroke-linecap:round;stroke-linejoin:round;}</style><style>.cls-1{fill:none;stroke:#fff;stroke-linecap:round;stroke-linejoin:round;}</style><style>.cls-1{fill:none;stroke:#fff;stroke-linecap:round;stroke-linejoin:round;}</style><style>.a{fill:none;stroke:#b1b5bd;stroke-linecap:round;stroke-linejoin:round;isolation:isolate;opacity:0.63;}</style><style>.cls-1{fill:none;stroke:#fff;stroke-linecap:round;stroke-linejoin:round;}</style></defs><metadata><rdf:RDF><cc:Work rdf:about=""><dc:format>image/svg+xml</dc:format><dc:type rdf:resource="http://purl.org/dc/dcmitype/StillImage"/></cc:Work></rdf:RDF></metadata><rect x="4" y="4" width="40" height="40" ry="8" fill="#4e4e4e" fill-rule="evenodd" style="paint-order:stroke fill markers"/><path d="m12 4c-4.432 0-8 3.568-8 8v24c0 4.432 3.568 8 8 8h24c4.432 0 8-3.568 8-8v-24c0-4.432-3.568-8-8-8zm0 1h24c3.878 0 7 3.122 7 7v24c0 3.878-3.122 7-7 7h-24c-3.878 0-7-3.122-7-7v-24c0-3.878 3.122-7 7-7z" fill-rule="evenodd" opacity=".4" style="paint-order:stroke fill markers"/><g stroke-linecap="round" stroke-linejoin="bevel" stroke-width="2"><path d="m34 26v7c0 0.554-0.446 1-1 1h-7v6h10c2.216 0 4-1.784 4-4v-10z" fill="#96d56b"/><path d="m8 26v10c0 2.216 1.784 4 4 4h10v-6h-7c-0.554 0-1-0.446-1-1v-7z" fill="#f37568"/><path d="m26 8v6h7c0.554 0 1 0.446 1 1v7h6v-10c0-2.216-1.784-4-4-4z" fill="#729dec"/><path d="m12 8c-2.216 0-4 1.784-4 4v10h6v-7c0-0.554 0.446-1 1-1h7v-6z" fill="#ffdd75"/><rect x="16" y="16" width="16" height="16" ry="2" fill="#b7bfc2"/></g><g stroke-linecap="round" stroke-linejoin="bevel" stroke-width="2"><rect x="18" y="26" width="12" height="4" ry="2" opacity=".4"/><rect x="19" y="27" width="2" height="2" ry="1" fill="#f37568"/><rect x="23" y="27" width="2" height="2" ry="1" fill="#ffdd75"/><rect x="27" y="27" width="2" height="2" ry="1" fill="#f37568"/></g></svg>
