<?xml version="1.0" encoding="UTF-8"?>
<!-- Created with Inkscape (http://www.inkscape.org/) -->
<svg id="SVGRoot" width="48px" height="48px" version="1.1" viewBox="0 0 48 48" xml:space="preserve" xmlns="http://www.w3.org/2000/svg" xmlns:cc="http://creativecommons.org/ns#" xmlns:dc="http://purl.org/dc/elements/1.1/" xmlns:rdf="http://www.w3.org/1999/02/22-rdf-syntax-ns#"><defs><style>.cls-1{fill:none;stroke:#fff;stroke-linecap:round;stroke-linejoin:round;}</style><style>.cls-1{fill:none;stroke:#fff;stroke-linecap:round;stroke-linejoin:round;}</style><style>.a{fill:none;stroke:#b1b5bd;stroke-linecap:round;stroke-linejoin:round;isolation:isolate;opacity:0.63;}</style></defs><metadata><rdf:RDF><cc:Work rdf:about=""><dc:format>image/svg+xml</dc:format><dc:type rdf:resource="http://purl.org/dc/dcmitype/StillImage"/></cc:Work></rdf:RDF></metadata><rect x="4" y="4" width="40" height="40" ry="8" fill="#efefef" fill-rule="evenodd" style="paint-order:stroke fill markers"/><path d="m12 4c-4.432 0-8 3.568-8 8v24c0 4.432 3.568 8 8 8h24c4.432 0 8-3.568 8-8v-24c0-4.432-3.568-8-8-8zm0 1h24c3.878 0 7 3.122 7 7v24c0 3.878-3.122 7-7 7h-24c-3.878 0-7-3.122-7-7v-24c0-3.878 3.122-7 7-7z" fill-rule="evenodd" opacity=".3" style="paint-order:stroke fill markers"/><g stroke-linecap="round" stroke-linejoin="round"><path d="m24 10c-0.554 0-1 0.446-1 1v12h-12c-0.554 0-1 0.446-1 1s0.446 1 1 1h12v12c0 0.554 0.446 1 1 1s1-0.446 1-1v-12h12c0.554 0 1-0.446 1-1s-0.446-1-1-1h-12v-12c0-0.554-0.446-1-1-1z" opacity=".3" stroke-width="4"/><path transform="scale(-1,1)" d="m-15 10c2.77 0 5 2.23 5 5s-2.23 5-5 5-5-2.23-5-5 2.23-5 5-5zm0 2c-1.662 0-3 1.338-3 3s1.338 3 3 3 3-1.338 3-3-1.338-3-3-3z" fill="#d35244" stroke-width="4"/><path d="m29 28a1 1 0 0 0-0.70703 0.29297 1 1 0 0 0 0 1.4141l3.293 3.293-3.293 3.293a1 1 0 0 0 0 1.4141 1 1 0 0 0 1.4141 0l3.293-3.293 3.293 3.293a1 1 0 0 0 1.4141 0 1 1 0 0 0 0-1.4141l-3.293-3.293 3.293-3.293a1 1 0 0 0 0-1.4141 1 1 0 0 0-1.4141 0l-3.293 3.293-3.293-3.293a1 1 0 0 0-0.70703-0.29297z" fill="#729dec" stop-color="#000000"/></g></svg>
