<?xml version="1.0" encoding="UTF-8"?>
<!-- Created with Inkscape (http://www.inkscape.org/) -->
<svg id="SVGRoot" width="48px" height="48px" version="1.1" viewBox="0 0 48 48" xmlns="http://www.w3.org/2000/svg" xmlns:cc="http://creativecommons.org/ns#" xmlns:dc="http://purl.org/dc/elements/1.1/" xmlns:rdf="http://www.w3.org/1999/02/22-rdf-syntax-ns#" xmlns:xlink="http://www.w3.org/1999/xlink">
 <defs id="defs815">
  <style id="style819">.cls-1{fill:none;stroke:#fff;stroke-linecap:round;stroke-linejoin:round;}</style>
  <style id="style2">.a{fill:none;stroke:#b1b5bd;stroke-linecap:round;stroke-linejoin:round;isolation:isolate;opacity:0.63;}</style>
  <style id="style819-5">.cls-1{fill:none;stroke:#fff;stroke-linecap:round;stroke-linejoin:round;}</style>
  <style id="style819-2">.cls-1{fill:none;stroke:#fff;stroke-linecap:round;stroke-linejoin:round;}</style>
  <style id="style819-3">.cls-1{fill:none;stroke:#fff;stroke-linecap:round;stroke-linejoin:round;}</style>
  <style id="style819-36">.cls-1{fill:none;stroke:#fff;stroke-linecap:round;stroke-linejoin:round;}</style>
 </defs>
 <metadata id="metadata818">
  <rdf:RDF>
   <cc:Work rdf:about="">
    <dc:format>image/svg+xml</dc:format>
    <dc:type rdf:resource="http://purl.org/dc/dcmitype/StillImage"/>
    <dc:title/>
   </cc:Work>
  </rdf:RDF>
 </metadata>
 <g id="layer1">
  <path id="path1016" d="m16.375 6c0.25718 1.519 0.5187 3.0691-0.375 4-1.4042 1.4627-4.229 0.01273-6 1-1.1304 0.63014-2.6324 1.4978-4 2.4688v4.5352c1.3506-1.2079 2.8176-2.6504 4-2.0039 1.779 0.97275 0.01966 4.2252 1 6 1.9407 3.5135 5.0063 8.402 9 8 1.6583-0.16693 3.1181-2.3375 3-4-0.26734-3.7617-6.2205-4.675-8-8-0.802-1.4986-1.8096-3.5055-1-5 0.85499-1.5784 3.6458-0.82167 5-2 1.4951-1.301 3.4776-3.1252 4.0332-5h-6.6582z" fill="#fff"/>
  <rect id="rect1373-5" x="4" y="4" width="40" height="40" ry="8" fill="#b2f4cf" fill-rule="evenodd" style="paint-order:stroke fill markers"/>
  <path id="path1014" d="m22.887 6c2.6687 2.5907 9.2156 4.674 8.1133 8-0.43239 1.3046-3.1542-0.08329-4 1-2.4616 3.1528 1.8564 8.4569 0 12-2.4461 4.6685-11.098 4.0847-13 9-0.67842 1.7532-0.90716 3.9099-0.66797 6h22.668c3.324 0 6-2.676 6-6v-24c0-3.324-2.676-6-6-6h-13.113z" fill="#8ce6b3"/>
  <path id="rect817" d="m12 4c-4.432 0-8 3.568-8 8v24c0 4.432 3.568 8 8 8h24c4.432 0 8-3.568 8-8v-24c0-4.432-3.568-8-8-8h-24zm0 1h24c3.878 0 7 3.122 7 7v24c0 3.878-3.122 7-7 7h-24c-3.878 0-7-3.122-7-7v-24c0-3.878 3.122-7 7-7z" fill-rule="evenodd" opacity=".3" style="paint-order:stroke fill markers"/>
  <path id="path1012" d="m36.455 19.973c-0.15384 8.57e-4 -0.3059 0.009555-0.45508 0.027344-5.8558 0.69829-11.45 7.1284-12 13-0.29332 3.131 5.7349 4.9424 5 8-0.087196 0.36277-0.27224 0.69115-0.49805 1h7.498c1.1728 0 2.2612-0.33888 3.1836-0.91602-0.57823-0.21261-1.0349-0.52425-1.1836-1.084-0.30848-1.1616 1.9253-1.8005 2-3 0.04631-0.74392-1.1526-1.2704-1-2 0.2399-1.1469 1.6201-1.7579 3-2.3203v-3.2051c-1.2886 0.21658-2.5877 0.41828-3-0.47461-0.74303-1.609 2.7073-2.8652 3-4.5117v-0.48828c-0.49438-2.1986-3.2373-4.0402-5.5449-4.0273zm-24.957 13.994c-0.16322 6.67e-4 -0.32858 0.011559-0.49805 0.033203-2.0476 0.26151-3.5664 1.8365-4.7285 3.793 0.75925 2.4423 3.0299 4.207 5.7285 4.207h8.2305c-2.9169-2.9328-5.0625-8.0482-8.7324-8.0332z" fill="#78c58d"/>
  <path id="path830" d="m14.706 29.208-0.17291 1.0128-1.3833-0.59283s-0.97663 2.3221-1.0869 3.557c-0.06193 0.69376-0.28578 1.6263 0.24701 2.0749 0.47933 0.40362 1.3871 0.29157 1.8773-0.0988 0.18756-0.14937 0.30981-0.74563 0.54343-0.69164 0.92302 0.21332 2.6123 0.33135 2.6123 0.33135l0.4531-0.28443s4.4712-0.07942 6.585-9e-3c0.80528 0.02683 1.0368 1.435 1.7121 1.8888 0.6332 0.42545 2.2231 0.54343 2.2231 0.54343l0.79044 1.0375s2.2763-0.97655 2.8654-1.9761c0.51248-0.86959 1.0854-2.384 0.29642-3.0136-0.56984-0.45475-2.0749 0.69164-2.0749 0.69164l-1.5315-1.4821 0.74104-0.86455v-1.0128s1.8035 0.385 2.7351 0.47305c1.0318 0.09752 1.8862 0.12895 2.6498-0.57185 0.38077-0.34947 0.59283-1.4327 0.59283-1.4327s1.3147-0.46611 1.5809-1.0375c0.41317-0.88688 0.11811-2.0533-0.34582-2.9148-0.32693-0.60704-0.91487-1.1555-1.5809-1.3339-0.63029-0.16877-1.381-0.01187-1.9267 0.34582-0.39727 0.26039-0.79044 1.1857-0.79044 1.1857l-0.83984 0.29642 0.05942-0.77546s1.0685-0.80791 2.0155-3.4732c0.39614-1.1149 0.14821-2.7665 0.14821-2.7665l2.6183-2.9148-0.83984-0.83984 0.29642-0.34582s-1.7666-3.1722-4.1992-4.051c-1.2884-0.46547-2.6289 0.35233-3.9522 0.39522-1.4163 0.04591-2.5216-0.82982-4.2486-0.14821-3.6836 1.4538-5.4343 6.2741-5.4343 6.2741l0.98805 1.3339-0.19761 2.3219s-2.1356 0.27276-3.1124 0.69164c-1.1669 0.50045-3.3594 1.8279-3.3594 1.8279l0.14821 0.34582s-0.87037 0.25464-1.161 0.61753c-0.34524 0.43114-0.68286 1.188-0.38923 1.9719 0.4311 1.1509 1.4035 2.5106 2.4864 3.0919 0.50803 0.27272 0.89173 0.24701 0.89173 0.24701z" fill="#4a4a4a"/>
  <path id="path832" d="m17.366 21.113c-2.1809 0.08837-4.2972 2.0965-4.2972 2.0965l1.2929 1.5366s0.06331-0.84392 0.27904-1.1887c0.21511-0.3438 0.5407-0.71832 0.94316-0.76829 0.38256-0.0475 1.0473 0.48925 1.0473 0.48925l0.83898-1.4324 2.2007 2.236h0.59343l0.83898-2.3049s-1.8145-0.74203-3.7373-0.66412zm4.9241 1.2575-1.0473 1.957 0.5246 1.6761-1.2929 0.2437 0.34973 2.0258s-1.9702 1.4327-4.4014 1.8863c-0.38051 0.07099-1.118-0.31439-1.118-0.31439v0.59529l1.9905 0.76829 2.4463-0.24556s-0.26313-0.86733-0.10604-1.2575c0.40611-1.0088 2.0258-1.7803 2.0258-1.7803l-0.13952-0.94316 1.5031-0.83898-0.42042-0.13952-0.52274-1.4324zm-5.5883 2.3756c-0.64938 0.10243-1.5031 0.6976-1.5031 0.6976l1.0492 1.4324 1.3264-0.94316 1.3971-0.90781s-1.6202-0.38147-2.2695-0.27904zm13.147 0.50971-0.86503 0.07442 0.07442 1.6538-1.4324 0.17301 1.038 1.9514-1.1124 1.7059 1.6556-1.2352s2.3699 0.57693 3.581 0.66598c1.6475 0.12112 2.1747-1.3096 2.1747-1.3096 0-1e-6 -0.41682 0.0068-0.59343 0.05022-0.50183 0.1236-0.90023 0.77518-1.384 0.59343-0.8859-0.3328-1.2205-1.5993-1.2594-2.5449-0.02112-0.5133 0.56924-1.4324 0.56924-1.4324l-1.7542 1.6296 0.7162 2.05-2.0258-0.31997-0.6418-1.0883 1.2352-0.86317zm-1.012 5.0878-1.0883 1.4082 0.51902 0.173zm-15.637 0.14882s-0.33614 0.71474-0.46879 1.0864c-0.42738 1.1974-0.22137 1.6556-0.22137 1.6556l0.86317-0.173s0.01819-0.7131 0.12464-1.1366c0.10052-0.39999 0.5432-1.1106 0.5432-1.1106zm14.304 0.49297-0.69202 0.22323 0.5432 0.32183zm4.2098 2.2305c-0.29937 0.0036-0.62811 0.20951-0.72737 0.63621-0.12263 0.52717-0.27203 1.0713-0.56366 1.5273-0.4109 0.64242-1.611 1.4603-1.611 1.4603s0.82141 0.22052 1.3115 0.02791c0.87246-0.34291 1.6846-1.0504 1.944-1.9961 0.23487-0.85614 0.35771-1.0959 0.09674-1.4492-0.10216-0.13828-0.27056-0.20868-0.45019-0.20649zm-18.214 0.82968c-0.3503-0.06236-0.82502 0.12502-1.0157 0.3981-0.08603 0.12319-0.04566 0.35428 0.07442 0.44461 0.28484 0.21427 0.78858 0.10563 1.0622-0.12278 0.15196-0.12685 0.30515-0.42 0.173-0.56738-0.07411-0.08266-0.17716-0.13176-0.29392-0.15254z" fill="#767676"/>
  <path id="path838" d="m23.758 23.488 2.0261 1.0829-1.2227 1.4322-0.83839-0.27946z" fill="#fff"/>
  <path id="path840" d="m23.653 26.213s0.69636 0.12366 1.3275 0.52399c-0.20148 1.0761-1.4672 1.1877-1.4672 1.1877z" fill="#fff"/>
  <path id="path842" d="m26.972 24.92 0.06986 1.8514 0.52399-0.0524 0.43666-1.6768z" fill="#fff"/>
  <path id="path844" d="m27.995 14.66c-5.2032 0.52967-3.6071 4.8404-3.6071 4.8404l-1.012 0.37019s-0.7595-2.8822-1.877-2.7904c-0.82992 0.06813-1.1883 1.4524-1.038 2.2714 0.18177 0.99071 1.1343 2.1771 2.1486 2.1244 0.32692 1.2535 4.1972 3.5837 6.6951 3.4099 2.4762-0.17227 3.133-2.1363 3.8787-3.7801 0.4462-0.98369 0.17115-3.235 0.17115-3.235s0.07362-0.45424-0.59157-0.69202c-0.35027-0.12522-1.5369 0.16814-1.6891-0.06325-0.26406-0.40148 0.58375-0.46998 0.62691-0.65296 0.05378-0.22794-0.69202-0.12464-0.69202-0.12464s-1.1066-1.8721-3.0136-1.678zm-15.117 9.0893-0.79062 0.24742s-0.53954 0.30503-0.66784 0.56738c-0.16293 0.33318-0.20929 0.77828-0.04837 1.1124 0.14577 0.3027 0.8148 0.59157 0.8148 0.59157s-0.42456 0.21538 0.05023 0.91525c0.31374 0.46248 0.7162 0.24556 0.7162 0.24556s-0.06701 0.28281 0 0.39624c0.2343 0.39662 0.77839 0.82915 1.2092 0.66598 0.45787-0.17343 0.0072-1.3377 0.49483-1.3822 0.36004-0.03281-0.21046 1.0095 0.5432 0.93758 0.4414-0.04211 0.34601-1.2836 0.34601-1.2836zm21.981 0.03162c-0.29669-0.03783-0.59123 0.01157-0.7869 0.18975-0.35309 0.32154-0.37158 1.1343 0 1.4343 0.33425 0.26984 1.2594-0.2716 1.2594-0.2716s-1.4416 1.08-1.038 1.5552c0.31007 0.36516 1.3096-0.59343 1.3096-0.59343s-0.58434 0.91575-1.0622 0.98966c-0.17107 0.02646-0.39028-0.06896-0.46879-0.22323-0.14062-0.27633 0.173-0.91339 0.173-0.91339s-0.46404-0.21572-0.59343-0.42042c-0.28135-0.44511-0.2716-1.557-0.2716-1.557-1e-6 0-0.73309 0.78537-0.84084 1.2854-0.13516 0.62726 0.14358 1.1676 0.14882 1.7542 0.0033 0.37133-0.07442 1.1106-0.07442 1.1106l1.1366 0.86503 0.59343-0.2716s-0.97432-0.58601-1.2352-1.0622c-0.08392-0.15318-0.16913-0.37227-0.07442-0.51902 0.14414-0.22326 0.76457-0.22137 0.76457-0.22137s-0.51782 0.31766-0.49297 0.56738c0.0494 0.49656 1.185 0.91339 1.185 0.91339l0.32183 0.07441s-0.26187-0.90009 0.12278-1.1608c0.61985-0.42015 1.0138-0.4446 1.0138-0.4446s-0.37588 0.17534-0.79062 0.8148c-0.12545 0.19343 0 0.69202 0 0.69202s1.2095-0.09972 1.5068-0.5432c0.4838-0.72158 0.15367-1.518-0.07442-1.8026-0.22808-0.28458-0.3702-0.10046-0.3702-0.10046s0.09743-0.55382 0-0.7162-0.37019-0.19719-0.37019-0.19719 0.02867-0.68835-0.19905-0.88921c-0.19846-0.17505-0.49579-0.30074-0.79248-0.33857z" fill="#edc5a9"/>
  <path id="path858" d="m22.784 30.369s1.532-0.36903 2.1063-0.46509c0.83175-0.13912 1.4754-2.178 1.4754-2.178l0.66694-0.56813 0.0741 1.4327-0.83984 2.5195-1.8773-0.12351z" fill="#fff" stroke-width=".95246"/>
  <path id="path860" d="m24.908 26.071 1.0622-1.2845 0.66694 0.0741 0.0988 1.8279-0.44462 0.37052-1.0622-0.24701z" fill="#ff837d"/>
  <path id="path862" d="m20.102 30.557c-0.37489-0.88496 0.76198-1.9804 1.6442-2.3616 0.7634-0.32984 1.6585 0.21786 2.425-0.1048 0.46688-0.19654 1.132-0.98206 1.132-0.98206l0.83984 0.19761s-0.64942 1.1951-1.0285 1.9364c-0.2167 0.4238-2.2748-0.09949-3.1461 0.3855-0.24344 0.13551-0.27462 0.61534-0.57412 0.63924-0.5746 0.04585-1.0676 0.82046-1.2924 0.2897z" fill="#ff837d"/>
  <path id="path864" d="m14.41 30.814-0.29578 2.2714 1.1608 0.7162 2.543-0.07441-0.09859 0.4446 2.1002 0.05022-0.173-0.4446 0.88921-0.05022-0.34601 0.42042h2.7923l-2.5207-1.3096-1.4324-1.2092-0.66598-0.19905-1.8286 0.07441zm6.9649 0.39438-0.5432 0.56738 0.69202 1.1124 1.8286 1.1106s0.59661 0.05579 1.4361 0.21393c0.40662 0.0766 0.60753 0.6374 0.76271 0.99711 0.24609 0.57044 0.80364 0.94316 0.80364 0.94316l0.81666 0.1358-0.83154-1.252 1.4789 1.3654s0.55822 0.03848 0.88735-0.10418c1.8914-0.81978 1.6408-1.9719 1.6408-1.9719s-1.6696-2.1919-3.7559-2.7532c-1.6627-0.44735-5.2162-0.36461-5.2162-0.36461z" fill="#afafaf"/>
  <path id="path872" d="m30.497 10.331c-0.85616 0.0082-2.1058 0.5246-2.1058 0.5246s-0.45534 0.27018-0.24742 0.93758c0.1155 0.37075 0.75016-0.42327 1.1608-0.0986-0.83499 0.22983-1.358 2.5207-1.358 2.5207 0.66689 0.09058 1.7446 0.17855 1.9998 0.2716 1.2905 0.47054 2.2472 1.7784 2.2472 1.7784s-0.94569-1.6985-1.7524-2.1505c-0.42797-0.2398-1.4585-0.19719-1.4585-0.19719s0.90272-0.59157 1.3524-0.5246c1.1829 0.17616 2.1802 2.5002 2.1802 2.5002l0.39438-0.76457s0.43731 0.47814 0.81666 0.60087c0.5096 0.16486 1.5366-0.05022 1.5366-0.05022l-2.1802 0.65854 1.0678 0.67714 1.7728-1.598s-0.34748-0.05711-0.48553-0.15626c-0.39734-0.28536-0.40368-0.67528-0.40368-0.67528s-0.80576 0.0128-1.1608-0.14882c-0.81189-0.3696-1.9998-1.7784-1.9998-1.7784s1.2183 1.1759 1.9998 1.4082c0.45024 0.13384 1.4082-0.05022 1.4082-0.05022s-1.6586-3.0344-4.4461-3.6554c-0.10143-0.0226-0.21626-0.03094-0.33857-0.02976zm-5.8413 0.11534c-1.6491 0.11343-2.7608 0.95463-4.1931 2.5467-0.82141 0.91308-0.81973 1.8158-1.6315 3.2964-0.11111 0.20267-0.59715 0.35159-0.59715 0.35159l1.0976 1.1869-0.13022 2.1672 1.8528 1.0864-1.3096-1.9272 0.34601-1.4324 0.51902-0.8148-1.2352-0.56924 3.4341 0.37206-1.5068-1.9272 1.8026 1.1106 2.1412-0.90409-1.3022-0.72551-0.66598-0.79062-1.038 0.5432 1.1124-1.2594 0.74039 1.4082 3.3094-0.02418s-0.26725-1.0801-0.31997-1.6315c-0.06585-0.68876 0.07442-1.3338 0.07442-1.3338s-1.1758-0.82032-2.5002-0.72923z" fill="#c56b5b"/>
  <path id="path879" d="m27.024 16.345c-0.72117 0.03028-2.0258 0.51838-1.7989 1.2036 0.14844 0.44823 1.1906-0.48492 1.4138-0.06883-0.58229 0.3528-1.0843 0.54136-1.0306 1.3971 0.03588 0.57149 0.68557 1.143 1.2575 1.1701 0.63045 0.02993 1.3916-0.53214 1.5031-1.1534 0.13724-0.76465-0.33004-1.1033-0.80364-1.5012 0.23892-0.39307 1.2623 0.46133 1.3803 0.01675 0.1879-0.7078-1.19-1.0948-1.9217-1.0641zm4.6116 1.3096c-1.1864-0.09082-1.4157 0.90781-1.4157 0.90781 0 1e-6 0.20484 1.28 0.48925 2.1133 0.08379 0.24549-0.1987 0.4711-0.55808 0.54134-0.3493 0.06824-1.0659 0.07069-1.0659 0.07069l-0.38508 0.29578s1.0374 0.10189 1.5552 0.07069c0.52706-0.03177 0.92652-0.25422 0.85572-0.7162-0.06108-0.39859-0.36647-1.1534-0.36647-1.1534s0.56421 0.44969 0.89107 0.42042c0.85945-0.07696 1.2161-0.78647 1.1869-1.3971-0.02642-0.55109-0.63674-1.1113-1.1869-1.1534zm-4.8218 4.4014s0.6737 1.0511 1.9738 1.1441c1.3663 0.09766 2.2714-0.66226 2.2714-0.66226s-1.4534 0.09365-2.1672 0.01302c-0.71908-0.08123-2.0779-0.49483-2.0779-0.49483z" fill="#4a4a4a"/>
  <path id="path883" d="m27.932 23.649 1.7292 0.0524s-0.57176 0.3959-0.89079 0.38426c-0.31902-0.01164-0.83839-0.43667-0.83839-0.43667z" fill="#966d51"/>
  <path id="path887" d="m27.039 17.592s-0.65052 0.66035-0.1334 1.2807c0.37476 0.44955 1.0406 0.29349 1.0406 0.29349s-0.19557 0.31665-0.51013 0.50166c-0.31457 0.18501-0.90555 0.09903-1.2241-0.28821-0.38941-0.47336-0.31692-1.0263 0.02078-1.3283s0.80633-0.45929 0.80632-0.45929z" fill="#fff"/>
  <path id="path887-9" d="m31.644 17.773s-0.65052 0.66035-0.1334 1.2807c0.37476 0.44955 1.0406 0.29349 1.0406 0.29349s-0.19557 0.31665-0.51013 0.50166c-0.31457 0.18501-0.90555 0.09903-1.2241-0.28821-0.38941-0.47336-0.31692-1.0263 0.02078-1.3283s0.80633-0.45929 0.80632-0.45929z" fill="#fff"/>
 </g>
</svg>
