<?xml version="1.0" encoding="UTF-8"?>
<!-- Created with Inkscape (http://www.inkscape.org/) -->
<svg id="SVGRoot" width="48px" height="48px" version="1.1" viewBox="0 0 48 48" xmlns="http://www.w3.org/2000/svg" xmlns:cc="http://creativecommons.org/ns#" xmlns:dc="http://purl.org/dc/elements/1.1/" xmlns:rdf="http://www.w3.org/1999/02/22-rdf-syntax-ns#" xmlns:xlink="http://www.w3.org/1999/xlink">
 <defs id="defs815">
  <style id="style819">.cls-1{fill:none;stroke:#fff;stroke-linecap:round;stroke-linejoin:round;}</style>
  <style id="style819-2">.cls-1{fill:none;stroke:#fff;stroke-linecap:round;stroke-linejoin:round;}</style>
  <style id="style819-3">.cls-1{fill:none;stroke:#fff;stroke-linecap:round;stroke-linejoin:round;}</style>
  <style id="style819-36">.cls-1{fill:none;stroke:#fff;stroke-linecap:round;stroke-linejoin:round;}</style>
  <style id="style2">.a{fill:none;stroke:#b1b5bd;stroke-linecap:round;stroke-linejoin:round;isolation:isolate;opacity:0.63;}</style>
  <style id="style819-5">.cls-1{fill:none;stroke:#fff;stroke-linecap:round;stroke-linejoin:round;}</style>
  <style id="style819-9">.cls-1{fill:none;stroke:#fff;stroke-linecap:round;stroke-linejoin:round;}</style>
 </defs>
 <metadata id="metadata818">
  <rdf:RDF>
   <cc:Work rdf:about="">
    <dc:format>image/svg+xml</dc:format>
    <dc:type rdf:resource="http://purl.org/dc/dcmitype/StillImage"/>
    <dc:title/>
   </cc:Work>
  </rdf:RDF>
 </metadata>
 <g id="layer1">
  <rect id="rect1373" x="4" y="4" width="40" height="40" ry="8" fill="#cfe0f6" fill-rule="evenodd" style="paint-order:stroke fill markers"/>
  <path id="path955" d="m12 6c-1.3873 0-2.6577 0.47099-3.6719 1.2559-0.3131 0.95072-0.32812 6.7441-0.32812 6.7441l32-2s0.9833-3e-3 1.9746-0.49023c-0.2485-3.0923-2.8162-5.5098-5.9746-5.5098zm-4 30s-0.9833 3e-3 -1.9746 0.49023c0.2485 3.0923 2.8162 5.5098 5.9746 5.5098h24c1.3873 0 2.6577-0.47099 3.6719-1.2559 0.3131-0.95072 0.32812-7.7441 0.32812-7.7441z" fill="#efefef"/>
  <path id="rect817" d="m12 4c-4.432 0-8 3.568-8 8v24c0 4.432 3.568 8 8 8h24c4.432 0 8-3.568 8-8v-24c0-4.432-3.568-8-8-8h-24zm0 1h24c3.878 0 7 3.122 7 7v24c0 3.878-3.122 7-7 7h-24c-3.878 0-7-3.122-7-7v-24c0-3.878 3.122-7 7-7z" fill-rule="evenodd" opacity=".3" style="paint-order:stroke fill markers"/>
  <rect id="rect861" x="8" y="8" width="32" height="32" ry="5" fill="#729dec" fill-rule="evenodd" style="paint-order:stroke fill markers"/>
  <path id="path891" d="m33.008 10a1.0001 1.0001 0 0 0-0.2168 0.021484l-14 3a1.0001 1.0001 0 0 0-0.75586 0.71875l-3.9961 14.877-7.6289 5.5762a1.0001 1.0001 0 0 0 0.34766 1.7773l8 2a1.0001 1.0001 0 0 0 0.29297 0.027344l16.871-0.86914a1.0001 1.0001 0 0 0 0.54688-0.19922l4.5234-3.3906a1.0001 1.0001 0 0 0 0.23633-0.25195l4.5215-6.9141a1.0001 1.0001 0 0 0-0.31641-1.4004l-6.7891-4.1406 3.5586-3.3184a1.0001 1.0001 0 0 0 0.10547-1.3477l-4.5215-5.7812a1.0001 1.0001 0 0 0-0.7793-0.38477zm-4.2715 6.2246-0.57812 2.8848-4.5879 0.65625 1.1484-2.8711 4.0176-0.66992zm0.003906 10.822 1.7773 1.293-1.0977 1.7129-7.4141 0.74219 0.82617-1.2402a1.0001 1.0001 0 0 0 0.16797-0.55469v-1.1328l5.7402-0.82031z" color="#000000" color-rendering="auto" dominant-baseline="auto" fill="#4e4e4e" image-rendering="auto" shape-rendering="auto" solid-color="#000000" style="font-feature-settings:normal;font-variant-alternates:normal;font-variant-caps:normal;font-variant-ligatures:normal;font-variant-numeric:normal;font-variant-position:normal;isolation:auto;mix-blend-mode:normal;shape-padding:0;text-decoration-color:#000000;text-decoration-line:none;text-decoration-style:solid;text-indent:0;text-orientation:mixed;text-transform:none;white-space:normal"/>
  <path id="path889" d="m32.6 12.109-12.793 2.7402-3.9277 14.627a1.0001 1.0001 0 0 1-0.375 0.54883l-6.1895 4.5215 5.7832 1.4473 16.416-0.84766 4.1367-3.1016 3.8613-5.9023-7.0332-4.2891a1.0001 1.0001 0 0 1-0.16016-1.584l3.8516-3.5938-3.5703-4.5664zm-2.6309 1.8906a1.0001 1.0001 0 0 1 1.0117 1.1953l-1 5a1.0001 1.0001 0 0 1-0.83984 0.79492l-7 1a1.0001 1.0001 0 0 1-1.0684-1.3613l2-5a1.0001 1.0001 0 0 1 0.76367-0.61523l6-1a1.0001 1.0001 0 0 1 0.13281-0.013672zm-0.93945 11a1.0001 1.0001 0 0 1 0.55859 0.19141l2.8691 2.0859a1.0001 1.0001 0 0 1 0.25391 1.3496l-1.8691 2.9141a1.0001 1.0001 0 0 1-0.74219 0.45312l-10 1a1.0001 1.0001 0 0 1-0.93164-1.5488l1.832-2.748v-1.6973a1.0001 1.0001 0 0 1 0.85938-0.99023l7-1a1.0001 1.0001 0 0 1 0.16992-0.009766z" color="#000000" color-rendering="auto" dominant-baseline="auto" fill="#ffdd75" image-rendering="auto" shape-rendering="auto" solid-color="#000000" style="font-feature-settings:normal;font-variant-alternates:normal;font-variant-caps:normal;font-variant-ligatures:normal;font-variant-numeric:normal;font-variant-position:normal;isolation:auto;mix-blend-mode:normal;shape-padding:0;text-decoration-color:#000000;text-decoration-line:none;text-decoration-style:solid;text-indent:0;text-orientation:mixed;text-transform:none;white-space:normal"/>
 </g>
</svg>
