<?xml version="1.0" encoding="UTF-8"?>
<!-- Created with Inkscape (http://www.inkscape.org/) -->
<svg id="SVGRoot" width="48px" height="48px" version="1.1" viewBox="0 0 48 48" xmlns="http://www.w3.org/2000/svg" xmlns:cc="http://creativecommons.org/ns#" xmlns:dc="http://purl.org/dc/elements/1.1/" xmlns:rdf="http://www.w3.org/1999/02/22-rdf-syntax-ns#">
 <defs id="defs815">
  <style id="style819">.cls-1{fill:none;stroke:#fff;stroke-linecap:round;stroke-linejoin:round;}</style>
 </defs>
 <metadata id="metadata818">
  <rdf:RDF>
   <cc:Work rdf:about="">
    <dc:format>image/svg+xml</dc:format>
    <dc:type rdf:resource="http://purl.org/dc/dcmitype/StillImage"/>
    <dc:title/>
   </cc:Work>
  </rdf:RDF>
 </metadata>
 <g id="layer1">
  <rect id="rect1373" x="4" y="4" width="40" height="40" ry="8" fill="#b7bfc2" fill-rule="evenodd" style="paint-order:stroke fill markers"/>
  <path id="rect817" d="m12 4c-4.432 0-8 3.568-8 8v24c0 4.432 3.568 8 8 8h24c4.432 0 8-3.568 8-8v-24c0-4.432-3.568-8-8-8h-24zm0 1h24c3.878 0 7 3.122 7 7v24c0 3.878-3.122 7-7 7h-24c-3.878 0-7-3.122-7-7v-24c0-3.878 3.122-7 7-7z" fill-rule="evenodd" opacity=".3" style="paint-order:stroke fill markers"/>
  <rect id="rect821" x="8" y="8" width="32" height="32" ry="5" fill="#636363" fill-rule="evenodd" style="paint-order:stroke fill markers"/>
  <path id="path828" d="m28 19v4h4l4-4z" fill="#bfea83"/>
  <path id="path828-5" d="m28 29v-4h4l4 4z" fill="#bfea83"/>
  <path id="path845" d="m26 12s-14 0-14 12 14 12 14 12v-7s-8 1-8-5 8-5 8-5z" fill="#bfea83"/>
  <path id="rect908" d="m27 31v5h1v-5zm2 0v1h2v1h-2v3h3v-1h-2v-1h2v-3zm4 0v5h3v-5zm1 1h1v1h-1zm0 2h1v1h-1z" fill="#bfea83" fill-rule="evenodd" style="paint-order:stroke fill markers"/>
 </g>
</svg>
