<?xml version="1.0" encoding="UTF-8"?>
<!-- Created with Inkscape (http://www.inkscape.org/) -->
<svg id="SVGRoot" width="48px" height="48px" version="1.1" viewBox="0 0 48 48" xmlns="http://www.w3.org/2000/svg" xmlns:cc="http://creativecommons.org/ns#" xmlns:dc="http://purl.org/dc/elements/1.1/" xmlns:rdf="http://www.w3.org/1999/02/22-rdf-syntax-ns#" xmlns:xlink="http://www.w3.org/1999/xlink">
 <defs id="defs815">
  <style id="style819">.cls-1{fill:none;stroke:#fff;stroke-linecap:round;stroke-linejoin:round;}</style>
  <style id="style2">.a{fill:none;stroke:#b1b5bd;stroke-linecap:round;stroke-linejoin:round;isolation:isolate;opacity:0.63;}</style>
  <style id="style819-5">.cls-1{fill:none;stroke:#fff;stroke-linecap:round;stroke-linejoin:round;}</style>
  <style id="style819-2">.cls-1{fill:none;stroke:#fff;stroke-linecap:round;stroke-linejoin:round;}</style>
  <style id="style819-3">.cls-1{fill:none;stroke:#fff;stroke-linecap:round;stroke-linejoin:round;}</style>
  <style id="style819-36">.cls-1{fill:none;stroke:#fff;stroke-linecap:round;stroke-linejoin:round;}</style>
 </defs>
 <metadata id="metadata818">
  <rdf:RDF>
   <cc:Work rdf:about="">
    <dc:format>image/svg+xml</dc:format>
    <dc:type rdf:resource="http://purl.org/dc/dcmitype/StillImage"/>
    <dc:title/>
   </cc:Work>
  </rdf:RDF>
 </metadata>
 <g id="layer1">
  <rect id="rect1373-5" x="4" y="4" width="40" height="40" ry="8" fill="#f6a559" fill-rule="evenodd" style="paint-order:stroke fill markers"/>
  <path id="rect817" d="m12 4c-4.432 0-8 3.568-8 8v24c0 4.432 3.568 8 8 8h24c4.432 0 8-3.568 8-8v-24c0-4.432-3.568-8-8-8h-24zm0 1h24c3.878 0 7 3.122 7 7v24c0 3.878-3.122 7-7 7h-24c-3.878 0-7-3.122-7-7v-24c0-3.878 3.122-7 7-7z" fill-rule="evenodd" opacity=".3" style="paint-order:stroke fill markers"/>
  <g id="layer1-5" transform="matrix(1.3097 0 0 1.3097 -6.7625 -6.2456)">
   <path id="path839" d="m28.86 13.188c-2.8742-0.09581-7.1094 1.5433-10.68 4.2928-2.5752 1.983-5.5119 6.021-5.2468 8.2187 0.67863 5.6257 10.271 8.8187 16.327 4.7331 5.7762-3.8963 6.1482-13.358 1.9446-16.548-0.58081-0.44068-1.3871-0.66519-2.3451-0.69712zm-2.0684 1.645c0.36546-0.01782 0.59346 0.04457 0.62374 0.1911 0.08375 0.4053-3.6418 4.4519-4.0987 4.4518-0.23288-7e-5 -0.24399-0.08915-0.17887-1.3652 0.0383-0.75063 0.15051-1.533 0.24919-1.7382 0.24256-0.50443 0.90884-0.92764 1.9568-1.246 0.58045-0.17631 1.0823-0.2757 1.4478-0.29352zm2.3543 0.07797c1.0247-0.0353 1.9068 1.0727 1.1619 1.7703-0.36037 0.3375-5.5966 2.9259-5.9194 2.9261-0.1266 6.1e-5 -0.23085-0.05432-0.23085-0.12077 0-0.17734 2.7669-3.1515 3.533-3.7975 0.36106-0.30444 0.81683-0.61373 1.0121-0.68795 0.1479-0.05624 0.29696-0.08516 0.44335-0.0902zm2.4032 0.90351c0.01418-0.0117 0.06803 0.06358 0.17581 0.21403 0.37542 0.52406 0.95404 2.3007 1.1206 3.4398 0.42257 2.89-0.61937 6.1718-2.6509 8.3471-1.4851 1.5902-3.2544 2.5571-5.5388 3.027-0.91932 0.18908-3.0638 0.26071-3.721 0.12383-2.0037-0.4173-3.3628-1.1106-5.0969-2.6005-0.72452-0.62245-0.80974-0.84222-0.19721-0.50755 0.3463 0.1892 0.72713 0.23071 2.0058 0.22167 1.3657-0.0097 1.7294-0.06047 2.6968-0.38372 2.2829-0.80887 3.2414-1.2696 4.8233-2.3329 4.4307-2.9556 7.0877-6.7655 6.4453-9.2415-0.05115-0.19716-0.07685-0.29559-0.06269-0.30728zm-9.3133 0.84236c0.08985-9.39e-4 0.14411 0.0411 0.21403 0.12536 0.22214 0.26767 0.12425 2.8437-0.11925 3.1371-0.22752 0.27414-1.4451 0.27032-2.6448-0.0077-0.93804-0.2173-1.2361-0.41066-1.1145-0.7277 0.16903-0.4405 2.2682-1.9939 3.238-2.3956 0.21043-0.08718 0.33668-0.13054 0.42653-0.13147zm8.0551 0.8179c0.20862-0.02291 0.3988 0.0483 0.48615 0.18345 0.32418 0.50161-0.69997 2.4898-1.6205 3.1462-0.42046 0.29983-1.2689 0.38637-2.4338 0.24613-1.851-0.22282-2.5818-0.40682-2.5393-0.6375 0.0657-0.3567 5.2321-2.8422 6.1075-2.9383zm-12.157 2.8221c0.66627-0.05483 2.9353 0.2569 3.105 0.42653 0.1844 0.1844-0.25645 0.54782-1.301 1.0747-1.7216 0.86848-3.869 1.755-4.2515 1.755-0.31057 0-0.3385-0.03677-0.26448-0.36079 0.12919-0.56553 0.84347-1.6881 1.4569-2.2901 0.484-0.47501 0.65139-0.55571 1.2551-0.6054zm6.0586 0.90045c1.3027 0.06548 3.4113 0.57625 3.5697 0.98912 0.16599 0.43257-1.8746 2.2113-3.4352 2.9949-0.8742 0.43896-1.1912 0.44115-1.356 0.0077-0.16031-0.42165-0.16231-2.579-0.0031-3.2655 0.06539-0.28187 0.19634-0.56309 0.292-0.62374 0.15314-0.0971 0.49832-0.12426 0.93256-0.10243zm-3.027 0.49685c0.08885 0.0059 0.1067 0.05805 0.07644 0.14829-0.10209 0.3045-2.6313 3.0118-3.6446 3.9014-1.2422 1.0905-1.5972 1.1913-2.1693 0.61916-0.27106-0.27106-0.3455-0.47374-0.3455-0.93256 0-0.8186 0.38138-1.1358 2.8053-2.3222 2.1113-1.0334 3.0112-1.4318 3.2777-1.4141zm0.9402 0.19263c0.22413 0.03983 0.22329 0.52006 0.16969 1.3897-0.1113 1.8057-0.30304 2.5733-0.75827 3.0285-0.6611 0.6611-3.0345 1.2504-3.7715 0.93561-0.16277-0.06953-0.29658-0.20882-0.29658-0.30881 0-0.28238 0.6219-1.0606 2.3192-2.9062 1.3909-1.5124 2.0493-2.19 2.3375-2.1388z" fill="#fff" stroke-width=".78273"/>
  </g>
 </g>
</svg>
