<?xml version="1.0" encoding="UTF-8"?>
<!-- Created with Inkscape (http://www.inkscape.org/) -->
<svg id="SVGRoot" width="48px" height="48px" version="1.1" viewBox="0 0 48 48" xmlns="http://www.w3.org/2000/svg" xmlns:cc="http://creativecommons.org/ns#" xmlns:dc="http://purl.org/dc/elements/1.1/" xmlns:rdf="http://www.w3.org/1999/02/22-rdf-syntax-ns#" xmlns:xlink="http://www.w3.org/1999/xlink">
 <defs id="defs815">
  <style id="style819">.cls-1{fill:none;stroke:#fff;stroke-linecap:round;stroke-linejoin:round;}</style>
  <style id="style819-2">.cls-1{fill:none;stroke:#fff;stroke-linecap:round;stroke-linejoin:round;}</style>
  <style id="style819-3">.cls-1{fill:none;stroke:#fff;stroke-linecap:round;stroke-linejoin:round;}</style>
  <style id="style819-36">.cls-1{fill:none;stroke:#fff;stroke-linecap:round;stroke-linejoin:round;}</style>
  <style id="style2">.a{fill:none;stroke:#b1b5bd;stroke-linecap:round;stroke-linejoin:round;isolation:isolate;opacity:0.63;}</style>
  <style id="style819-5">.cls-1{fill:none;stroke:#fff;stroke-linecap:round;stroke-linejoin:round;}</style>
  <style id="style819-9">.cls-1{fill:none;stroke:#fff;stroke-linecap:round;stroke-linejoin:round;}</style>
 </defs>
 <metadata id="metadata818">
  <rdf:RDF>
   <cc:Work rdf:about="">
    <dc:format>image/svg+xml</dc:format>
    <dc:type rdf:resource="http://purl.org/dc/dcmitype/StillImage"/>
    <dc:title/>
   </cc:Work>
  </rdf:RDF>
 </metadata>
 <g id="layer1">
  <rect id="rect1373" x="4" y="4" width="40" height="40" ry="8" fill="#ffdd75" fill-rule="evenodd" style="paint-order:stroke fill markers"/>
  <rect id="rect960" x="18" y="4" width="12" height="14" fill="#96d56b" fill-rule="evenodd" style="paint-order:stroke fill markers"/>
  <rect id="rect962" x="22" y="4" width="4" height="14" fill="#fff" fill-rule="evenodd" style="paint-order:stroke fill markers"/>
  <path id="path882-4" d="m17 16s-1.6675-0.02758-3.3945 0.83594c-1.727 0.86351-3.6055 2.9974-3.6055 6.1641v16c0 0.5-0.13758 0.79756-0.45508 1.168s-0.84846 0.74747-1.4395 1.043c-0.56654 0.28327-1.1427 0.47669-1.5957 0.60742 1.4312 1.3505 3.3581 2.1816 5.4902 2.1816h24c2.1322 0 4.0591-0.83115 5.4902-2.1816-0.45304-0.13073-1.0292-0.32416-1.5957-0.60742-0.59099-0.2955-1.122-0.67256-1.4395-1.043s-0.45508-0.66797-0.45508-1.168v-16c0-3.1667-1.8784-5.3005-3.6055-6.1641-1.727-0.86352-3.3945-0.83594-3.3945-0.83594h-7-7z" color="#000000" color-rendering="auto" dominant-baseline="auto" fill="#f68d59" image-rendering="auto" shape-rendering="auto" solid-color="#000000" style="font-feature-settings:normal;font-variant-alternates:normal;font-variant-caps:normal;font-variant-ligatures:normal;font-variant-numeric:normal;font-variant-position:normal;isolation:auto;mix-blend-mode:normal;shape-padding:0;text-decoration-color:#000000;text-decoration-line:none;text-decoration-style:solid;text-indent:0;text-orientation:mixed;text-transform:none;white-space:normal"/>
  <path id="path882" d="m17 18s-5 0-5 5v16c0 2.2146-1.8308 3.4883-3.4727 4.2031 1.0504 0.50526 2.2249 0.79688 3.4727 0.79688h12 12c1.2477 0 2.4222-0.29162 3.4727-0.79688-1.6418-0.71485-3.4727-1.9885-3.4727-4.2031v-16c0-5-5-5-5-5h-7-7z" fill="#4e4e4e"/>
  <rect id="rect884" x="6" y="30" width="2" height="8" rx="1" ry="4" fill="#4e4e4e" fill-rule="evenodd" style="paint-order:stroke fill markers"/>
  <path id="path966" d="m12 22v-1c0-2 2-3 3-3h18c1 0 3 1 3 3v1" fill="none" stroke="#ffefbf" stroke-linecap="round" stroke-linejoin="round" stroke-width="4"/>
  <rect id="rect884-0" x="40" y="30" width="2" height="8" rx="1" ry="4" fill="#4e4e4e" fill-rule="evenodd" style="paint-order:stroke fill markers"/>
  <path id="rect817" d="m12 4c-4.432 0-8 3.568-8 8v24c0 4.432 3.568 8 8 8h24c4.432 0 8-3.568 8-8v-24c0-4.432-3.568-8-8-8h-24zm0 1h24c3.878 0 7 3.122 7 7v24c0 3.878-3.122 7-7 7h-24c-3.878 0-7-3.122-7-7v-24c0-3.878 3.122-7 7-7z" fill-rule="evenodd" opacity=".3" style="paint-order:stroke fill markers"/>
  <path id="path1000" d="m14 29v12c0 0.37962-0.048897 0.71038-0.13281 1h20.223c-0.056063-0.28986-0.089844-0.61995-0.089844-1v-12s-2 4-10 4-10-4-10-4z" fill="#955d41"/>
 </g>
</svg>
