<?xml version="1.0" encoding="UTF-8"?>
<!-- Created with Inkscape (http://www.inkscape.org/) -->
<svg id="SVGRoot" width="48px" height="48px" version="1.1" viewBox="0 0 48 48" xmlns="http://www.w3.org/2000/svg" xmlns:cc="http://creativecommons.org/ns#" xmlns:dc="http://purl.org/dc/elements/1.1/" xmlns:rdf="http://www.w3.org/1999/02/22-rdf-syntax-ns#">
 <defs id="defs815">
  <style id="style819">.cls-1{fill:none;stroke:#fff;stroke-linecap:round;stroke-linejoin:round;}</style>
 </defs>
 <metadata id="metadata818">
  <rdf:RDF>
   <cc:Work rdf:about="">
    <dc:format>image/svg+xml</dc:format>
    <dc:type rdf:resource="http://purl.org/dc/dcmitype/StillImage"/>
    <dc:title/>
   </cc:Work>
  </rdf:RDF>
 </metadata>
 <g id="layer1">
  <rect id="rect1373" x="4" y="4" width="40" height="40" ry="8" fill="#927547" fill-rule="evenodd" style="paint-order:stroke fill markers"/>
  <path id="rect817" d="m12 4c-4.432 0-8 3.568-8 8v24c0 4.432 3.568 8 8 8h24c4.432 0 8-3.568 8-8v-24c0-4.432-3.568-8-8-8h-24zm0 1h24c3.878 0 7 3.122 7 7v24c0 3.878-3.122 7-7 7h-24c-3.878 0-7-3.122-7-7v-24c0-3.878 3.122-7 7-7z" fill-rule="evenodd" opacity=".4" style="paint-order:stroke fill markers"/>
  <path id="path974" d="m27.959 7.375a1.0001 1.0001 0 0 0-0.85352 0.52148l-1.752 3.2187c-0.44532-0.050666-0.88315-0.11523-1.3535-0.11523-0.48809 0-0.93707 0.06978-1.3945 0.125l-1.7656-3.2168a1.0001 1.0001 0 0 0-1.2461-0.44922l-3.7188 1.4746a1.0001 1.0001 0 0 0-0.59961 1.1797l0.93359 3.6133c-0.71887 0.54597-1.3749 1.1625-1.9668 1.8457l-3.5449-1.1621a1.0001 1.0001 0 0 0-1.2168 0.52344l-1.707 3.6172a1.0001 1.0001 0 0 0 0.36914 1.2715l3.1133 1.9746c-0.12644 0.7193-0.25586 1.4398-0.25586 2.2031 0 0.75191 0.12732 1.4617 0.25 2.1719l-3.1172 1.9668a1.0001 1.0001 0 0 0-0.37305 1.2695l1.6973 3.6211a1.0001 1.0001 0 0 0 1.2148 0.52734l3.5488-1.1543c0.60415 0.70534 1.279 1.3432 2.0234 1.9062l-0.91992 3.6055a1.0001 1.0001 0 0 0 0.60352 1.1797l3.7227 1.4629a1.0001 1.0001 0 0 0 1.2441-0.45312l1.752-3.2188c0.44532 0.050666 0.88315 0.11523 1.3535 0.11523 0.48809 0 0.93707-0.06978 1.3945-0.125l1.7656 3.2168a1.0001 1.0001 0 0 0 1.2461 0.44922l3.7188-1.4746a1.0001 1.0001 0 0 0 0.59961-1.1797l-0.93359-3.6133c0.71887-0.54597 1.3749-1.1625 1.9668-1.8457l3.5449 1.1621a1.0001 1.0001 0 0 0 1.2168-0.52344l1.707-3.6172a1.0001 1.0001 0 0 0-0.36914-1.2715l-3.1133-1.9746c0.12644-0.7193 0.25586-1.4398 0.25586-2.2031 0-0.75191-0.12732-1.4617-0.25-2.1719l3.1172-1.9668a1.0001 1.0001 0 0 0 0.37305-1.2695l-1.6973-3.6211a1.0001 1.0001 0 0 0-1.2148-0.52734l-3.5488 1.1543c-0.60415-0.70534-1.279-1.3432-2.0234-1.9062l0.91992-3.6055a1.0001 1.0001 0 0 0-0.60352-1.1797l-3.7227-1.4629a1.0001 1.0001 0 0 0-0.39062-0.068359z" color="#000000" color-rendering="auto" dominant-baseline="auto" fill-rule="evenodd" image-rendering="auto" opacity=".25" shape-rendering="auto" solid-color="#000000" style="font-feature-settings:normal;font-variant-alternates:normal;font-variant-caps:normal;font-variant-ligatures:normal;font-variant-numeric:normal;font-variant-position:normal;isolation:auto;mix-blend-mode:normal;paint-order:stroke fill markers;shape-padding:0;text-decoration-color:#000000;text-decoration-line:none;text-decoration-style:solid;text-indent:0;text-orientation:mixed;text-transform:none;white-space:normal"/>
  <rect id="rect830" x="12" y="12" width="24" height="24" ry="12" fill="#cfc6b2" fill-rule="evenodd" style="paint-order:stroke fill markers"/>
  <path id="path865" d="m16.245 9.8628 3.7185-1.4739 7.755 14.137 4.0364 15.611-3.7185 1.4739-7.755-14.137z" fill="#cfc6b2"/>
  <path id="path865-8" d="m31.708 9.837-3.7234-1.4615-7.7078 14.163-3.9843 15.625 3.7234 1.4615 7.7078-14.163z" fill="#cfc6b2"/>
  <path id="path865-85" d="m37.636 15.395 1.6987 3.6214-13.636 8.6054-15.335 4.9841-1.6987-3.6214 13.636-8.6054z" fill="#cfc6b2"/>
  <path id="path865-8-5" d="m37.616 32.638 1.7073-3.6173-13.616-8.638-15.323-5.0207-1.7073 3.6173 13.616 8.638z" fill="#cfc6b2"/>
  <rect id="rect904" x="16" y="16" width="16" height="16" ry="8" fill-rule="evenodd" opacity=".25" style="paint-order:stroke fill markers"/>
  <rect id="rect900" x="21" y="21" width="6" height="6" ry="3" fill="#927547" fill-rule="evenodd" style="paint-order:stroke fill markers"/>
  <path id="path927" d="m24.209 12.748c-3.9613 0.31297-6.4686 2.1917-7.7871 4.5762s-1.5484 5.1709-1.5039 7.5156c0.04386 2.311 0.86706 4.7973 2.4102 6.7773 1.5431 1.98 3.8817 3.4453 6.7793 3.4453 4.5364 0 6.907-2.0392 7.8594-4.1016 0.9524-2.0623 0.64258-4.082 0.64258-4.082a1.0001 1.0001 0 0 0-0.95312-0.85742l-1.9902-0.07227a1.0001 1.0001 0 0 0-1.0371 0.98047s-0.03181 1.0453-0.50391 2.0508c-0.47209 1.0055-1.1724 1.8828-3.0215 1.8828-1.4834 0-2.3886-0.80494-3.0645-2.0996-0.67584-1.2947-0.95792-3.05-0.87695-4.3965 0.08937-1.4862 0.65079-3.5049 1.6133-5.0059 0.96249-1.501 2.1785-2.439 3.8086-2.3457 0.26733 0.01531 0.5004 0.14982 0.79297 0.51367s0.57062 0.93042 0.7793 1.5176c0.41735 1.1743 0.57031 2.373 0.57031 2.373a1.0001 1.0001 0 0 0 1.0898 0.875l2.2617-0.2207a1.0001 1.0001 0 0 0 0.9043-0.99414v-6.9688a1.0001 1.0001 0 0 0-1.0293-1l-2.5352 0.07422a1.0001 1.0001 0 0 0-0.66016 0.27539c-0.96958-0.39241-2.4669-0.87737-4.5488-0.71289z" color="#000000" color-rendering="auto" dominant-baseline="auto" image-rendering="auto" opacity=".4" shape-rendering="auto" solid-color="#000000" style="font-feature-settings:normal;font-variant-alternates:normal;font-variant-caps:normal;font-variant-ligatures:normal;font-variant-numeric:normal;font-variant-position:normal;isolation:auto;mix-blend-mode:normal;shape-padding:0;text-decoration-color:#000000;text-decoration-line:none;text-decoration-style:solid;text-indent:0;text-orientation:mixed;text-transform:none;white-space:normal"/>
  <path id="path902" d="m29.719 21.299 2.263-0.22006v-6.9685l-2.5345 0.07335-0.09051 0.58682s-2.3417-1.2424-5.069-1.0269c-7.3965 0.58438-8.4555 6.5598-8.3698 11.076 0.07897 4.1612 3.0532 9.2425 8.1887 9.2425 8.522 0 7.513-7.0419 7.513-7.0419l-1.9914-0.07335s-0.08917 4.9147-4.5259 4.9147c-3.7649 0-5.1227-4.508-4.9395-7.5554 0.20082-3.3398 2.3624-8.5246 6.4783-8.2889 2.4511 0.14035 3.0776 5.2814 3.0776 5.2814z" fill="#efe3bb"/>
  <path id="rect978" d="m24 21c-1.662 0-3 1.338-3 3s1.338 3 3 3 3-1.338 3-3-1.338-3-3-3zm0 1c1.108 0 2 0.892 2 2s-0.892 2-2 2-2-0.892-2-2 0.892-2 2-2z" fill-rule="evenodd" opacity=".25" style="paint-order:stroke fill markers"/>
 </g>
</svg>
