<?xml version="1.0" encoding="UTF-8"?>
<!-- Created with Inkscape (http://www.inkscape.org/) -->
<svg id="SVGRoot" width="48px" height="48px" version="1.1" viewBox="0 0 48 48" xmlns="http://www.w3.org/2000/svg" xmlns:cc="http://creativecommons.org/ns#" xmlns:dc="http://purl.org/dc/elements/1.1/" xmlns:rdf="http://www.w3.org/1999/02/22-rdf-syntax-ns#">
 <defs>
  <style>.cls-1{fill:none;stroke:#fff;stroke-linecap:round;stroke-linejoin:round;}</style>
 </defs>
 <metadata>
  <rdf:RDF>
   <cc:Work rdf:about="">
    <dc:format>image/svg+xml</dc:format>
    <dc:type rdf:resource="http://purl.org/dc/dcmitype/StillImage"/>
   </cc:Work>
  </rdf:RDF>
 </metadata>
 <rect x="4" y="4" width="40" height="40" ry="8" fill="#efefef" fill-rule="evenodd" style="paint-order:stroke fill markers"/>
 <path d="m12 4c-4.432 0-8 3.568-8 8v24c0 4.432 3.568 8 8 8h24c4.432 0 8-3.568 8-8v-24c0-4.432-3.568-8-8-8zm0 1h24c3.878 0 7 3.122 7 7v24c0 3.878-3.122 7-7 7h-24c-3.878 0-7-3.122-7-7v-24c0-3.878 3.122-7 7-7z" fill-rule="evenodd" opacity=".3" style="paint-order:stroke fill markers"/>
 <g stroke-linecap="round" stroke-linejoin="round" stroke-width="5">
  <path d="m12 7c-2.77 0-5 2.23-5 5v5h10v-10h-5z" fill="#6abaeb"/>
  <rect x="7" y="19" width="10" height="10" fill="#ff6384"/>
  <rect x="19" y="19" width="10" height="10" fill="#e299c2"/>
  <path d="m7 31v5c0 2.77 2.23 5 5 5h5v-10h-10z" fill="#edcf66"/>
  <rect x="31" y="19" width="10" height="10" fill="#ef956a"/>
  <rect x="19" y="31" width="10" height="10" fill="#849ec8"/>
  <path d="m31 31v10h5c2.77 0 5-2.23 5-5v-5h-10z" fill="#77e697"/>
 </g>
</svg>
