<?xml version="1.0" encoding="UTF-8"?>
<!-- Created with Inkscape (http://www.inkscape.org/) -->
<svg id="SVGRoot" width="48px" height="48px" version="1.1" viewBox="0 0 48 48" xmlns="http://www.w3.org/2000/svg" xmlns:cc="http://creativecommons.org/ns#" xmlns:dc="http://purl.org/dc/elements/1.1/" xmlns:rdf="http://www.w3.org/1999/02/22-rdf-syntax-ns#" xmlns:xlink="http://www.w3.org/1999/xlink">
 <defs id="defs815">
  <style id="style819">.cls-1{fill:none;stroke:#fff;stroke-linecap:round;stroke-linejoin:round;}</style>
 </defs>
 <metadata id="metadata818">
  <rdf:RDF>
   <cc:Work rdf:about="">
    <dc:format>image/svg+xml</dc:format>
    <dc:type rdf:resource="http://purl.org/dc/dcmitype/StillImage"/>
    <dc:title/>
   </cc:Work>
  </rdf:RDF>
 </metadata>
 <g id="layer1">
  <rect id="rect1373-5" x="4" y="4" width="40" height="40" ry="8" fill="#f6a559" fill-rule="evenodd" style="paint-order:stroke fill markers"/>
  <path id="path853" d="m24 6v6l1 1-4 9 5 7-4 8v5h14c3.324 0 6-2.676 6-6v-24c0-3.324-2.676-6-6-6z" fill="#627ad4"/>
  <path id="rect817" d="m12 4c-4.432 0-8 3.568-8 8v24c0 4.432 3.568 8 8 8h24c4.432 0 8-3.568 8-8v-24c0-4.432-3.568-8-8-8h-24zm0 1h24c3.878 0 7 3.122 7 7v24c0 3.878-3.122 7-7 7h-24c-3.878 0-7-3.122-7-7v-24c0-3.878 3.122-7 7-7z" fill-rule="evenodd" opacity=".3" style="paint-order:stroke fill markers"/>
  <path id="path828" d="m11.992 37.815c-0.03335-0.17455 0.07448-0.41785 0.55134-1.2437 0.17793-0.30814 0.18975-0.37255 0.17578-0.95803l-0.01498-0.62767 0.43793-0.89196c0.24086-0.49057 0.56371-1.1595 0.71744-1.4866 1.188-2.5275 1.5224-3.0466 2.3409-3.6339 0.28026-0.20111 0.41884-0.85874 0.543-2.5768 0.1138-1.5746 0.14614-1.6848 0.49442-1.6848 0.14032 0 0.22646-0.06014 0.35315-0.24658 0.09217-0.13564 0.16756-0.28518 0.16756-0.33235 0-0.07875 0.22973-0.67642 0.41237-1.0728 0.04185-0.09085 0.20162-0.29897 0.35504-0.4625 0.20542-0.21895 0.32444-0.43426 0.45157-0.8169 0.09494-0.28577 0.15539-0.57391 0.13432-0.64031-0.02107-0.0664-0.18553-0.22648-0.36545-0.35575-0.17992-0.12925-0.32714-0.27941-0.32714-0.33366s0.08542-0.29959 0.18984-0.54519c0.10443-0.24561 0.28603-0.72901 0.40359-1.0742 0.11758-0.34522 0.25973-0.76146 0.31593-0.92499 0.14594-0.42467 0.18284-0.45402 0.59833-0.47588l0.37351-0.01966 0.28192-0.5616c0.15505-0.30888 0.35006-0.72513 0.43336-0.92499 0.26453-0.63471 0.69564-1.301 1.1208-1.7322 0.55594-0.56381 0.88125-0.73217 1.5001-0.77634 0.45628-0.03259 0.50096-0.04913 0.59464-0.22064 0.09436-0.17276 0.09225-0.19178-0.03087-0.27855-0.07268-0.0512-0.16481-0.12085-0.20474-0.15472-0.03992-0.03388-0.09308-0.33284-0.1181-0.66435-0.03989-0.52854-0.02854-0.64121 0.09221-0.91519 0.17055-0.38699 0.68401-0.92036 0.94016-0.97662 0.10523-0.02311 0.2074-0.08383 0.22701-0.1349 0.051-0.13292 1.3787-0.13486 1.4297-0.0022 0.01914 0.04991 0.1487 0.11183 0.28787 0.13758 0.50064 0.09263 1.2277 0.69816 1.4606 1.2164 0.05934 0.13204 0.19691 0.3368 0.30575 0.45502l0.19789 0.21498-0.08408 0.41272c-0.10408 0.51097-0.21815 0.69489-0.44778 0.72203-0.19403 0.02293-0.24989 0.10461-0.16414 0.23998 0.07346 0.11598 7.4123 0.11656 7.629 5.95e-4 0.07581-0.04058 0.18628-0.1336 0.24549-0.20672 0.13618-0.16818 0.2612-0.09565 0.2612 0.15153 0 0.16649 0.06221 0.29783 0.06221 0.29783l0.78105 0.04811 0.9072 0.03354-0.01567 0.36542-0.84281 0.04879-0.85893 0.03302-0.02049 0.33035c-0.01125 0.1817-0.04659 0.35676-0.07848 0.38903-0.03193 0.03231-1.0051 0.0528-2.165 0.04558-1.6713-0.01041-2.1206 0.0049-2.1731 0.07347-0.03636 0.0476-0.14899 0.34651-0.25029 0.66424-0.19858 0.62288-0.19826 0.97005 0.0015 1.6282 0.1707 0.56242 0.13472 0.60737-0.61978 0.7746-0.92567 0.20516-0.89828 0.20808-1.0228-0.10887-0.09282-0.23631-0.12579-0.26782-0.20842-0.19924-0.05401 0.04482-0.11712 0.14568-0.14028 0.22416-0.02317 0.07848-0.1139 0.29776-0.20163 0.48728-0.17621 0.38069-0.47415 0.59666-1.025 0.74303-0.29389 0.07809-0.32211 0.07247-0.73424-0.14624-0.23573-0.1251-0.49876-0.27659-0.5845-0.33664-0.22024-0.15426-0.32754-0.1369-0.57248 0.09266-0.2529 0.23703-0.26284 0.31379-0.07203 0.55635l0.14269 0.1814-0.28162 0.53777c-0.15489 0.29578-0.42652 0.81634-0.60362 1.1568-0.38538 0.74084-0.41644 0.78086-0.71761 0.92437l-0.23519 0.11208 0.01319 0.62025c0.01236 0.57576 0.02764 0.64038 0.21473 0.90091 0.11086 0.15436 0.20155 0.30319 0.20155 0.33073 0 0.02753 0.04123 0.09698 0.0916 0.15437 0.05039 0.05737 0.17828 0.26783 0.28422 0.4677 0.10596 0.19986 0.24053 0.43772 0.29908 0.52856 0.05854 0.09085 0.19081 0.31778 0.2939 0.50429 0.1031 0.18651 0.36972 0.66222 0.59252 1.0571 0.82991 1.4711 0.84673 1.5134 0.84859 2.1385 0.0012 0.41491-0.02953 0.62201-0.11777 0.79285-0.06569 0.12718-0.20871 0.45424-0.31783 0.72678-0.10911 0.27254-0.23648 0.55499-0.28305 0.62767-0.04657 0.07268-0.1059 0.21823-0.13182 0.32346-0.02592 0.10521-0.14624 0.40254-0.26734 0.6607-0.12109 0.25816-0.24235 0.54372-0.26945 0.63457-0.02709 0.09085-0.13179 0.34357-0.23267 0.5616-0.10089 0.21803-0.2807 0.63428-0.39962 0.92499-0.16285 0.39811-0.31108 0.6278-0.6006 0.9306-0.21142 0.22112-0.3844 0.44708-0.3844 0.50214 0 0.16792 0.37364 0.78305 0.60336 0.89765 0.11913 0.05944 0.40494 0.15174 0.63513 0.20512 0.51662 0.11981 0.8097 0.26624 0.8097 0.40454 0 0.05782-0.11149 0.21623-0.24776 0.35196-0.23447 0.23353-0.28221 0.25109-0.88928 0.32702-0.37747 0.04721-1.2179 0.07254-2.042 0.06151-1.6158-0.02158-1.7182-0.051-1.5917-0.4573 0.03879-0.12464 0.08934-0.39014 0.11236-0.59001 0.03908-0.33958 0.17813-1.0415 0.40362-1.7413 0.05268-0.16352 0.185-0.6987 0.29401-1.1893 0.10902-0.49057 0.22676-0.98115 0.26165-1.0902 0.03488-0.10902 0.10947-0.4658 0.16573-0.79285 0.09368-0.54462 0.15211-0.68215 0.69461-1.635 0.32578-0.5722 0.59233-1.0703 0.59233-1.1068 0-0.03652-0.14796-0.17273-0.32879-0.30265-0.35654-0.25613-0.8412-0.88288-1.736-2.2449-0.31169-0.47446-0.61243-0.90059-0.66832-0.94697-0.17906-0.14861-0.36904-0.01819-0.55076 0.37812-0.09442 0.2059-0.26915 0.58249-0.38829 0.83686-0.11914 0.25437-0.35472 0.77468-0.5235 1.1562-0.16878 0.38156-0.41973 0.9316-0.55766 1.2223-0.13794 0.29071-0.27272 0.59916-0.29952 0.68544-0.08514 0.27407-0.53219 0.86877-1.4963 1.9904-0.88685 1.0318-2.7271 3.206-2.9853 3.5269-0.07107 0.08835-0.12979 0.29348-0.14529 0.50755-0.0708 0.97765-0.11456 1.3688-0.17505 1.5651l-0.06617 0.21473h-2.419z" fill="#fff" stroke-width=".066071"/>
 </g>
</svg>
