<?xml version="1.0" encoding="UTF-8"?>
<!-- Created with Inkscape (http://www.inkscape.org/) -->
<svg id="SVGRoot" width="48px" height="48px" version="1.1" viewBox="0 0 48 48" xmlns="http://www.w3.org/2000/svg" xmlns:cc="http://creativecommons.org/ns#" xmlns:dc="http://purl.org/dc/elements/1.1/" xmlns:rdf="http://www.w3.org/1999/02/22-rdf-syntax-ns#" xmlns:xlink="http://www.w3.org/1999/xlink">
 <defs id="defs815">
  <style id="style819">.cls-1{fill:none;stroke:#fff;stroke-linecap:round;stroke-linejoin:round;}</style>
 </defs>
 <metadata id="metadata818">
  <rdf:RDF>
   <cc:Work rdf:about="">
    <dc:format>image/svg+xml</dc:format>
    <dc:type rdf:resource="http://purl.org/dc/dcmitype/StillImage"/>
    <dc:title/>
   </cc:Work>
  </rdf:RDF>
 </metadata>
 <g id="layer1">
  <rect id="rect1373-5" x="4" y="4" width="40" height="40" ry="8" fill="#f6a559" fill-rule="evenodd" style="paint-order:stroke fill markers"/>
  <path id="rect817" d="m12 4c-4.432 0-8 3.568-8 8v24c0 4.432 3.568 8 8 8h24c4.432 0 8-3.568 8-8v-24c0-4.432-3.568-8-8-8h-24zm0 1h24c3.878 0 7 3.122 7 7v24c0 3.878-3.122 7-7 7h-24c-3.878 0-7-3.122-7-7v-24c0-3.878 3.122-7 7-7z" fill-rule="evenodd" opacity=".3" style="paint-order:stroke fill markers"/>
  <path id="rect817-0" d="m24 30c-1.108 0-2 0.892-2 2v6c0 1.108 0.892 2 2 2h6v-6h-4v2h2v2h-4v-6h6v-2h-4z" fill-rule="evenodd" opacity=".4" style="paint-order:stroke fill markers"/>
  <path id="rect819" d="m34 30c-1.108 0-2 0.892-2 2v6c0 1.108 0.892 2 2 2h4c1.108 0 2-0.892 2-2v-6c0-1.108-0.892-2-2-2zm0 2h4v6h-4z" fill-rule="evenodd" opacity=".4" style="paint-order:stroke fill markers"/>
  <g id="layer1-1" transform="matrix(5.2515 0 0 5.2515 -617.13 -847.96)" fill="#fff">
   <path id="path826" d="m122.08 163.37c-0.0953-7.5e-4 -0.19092 0.0334-0.26111 0.0967-0.0967 0.0869-0.13848 0.21895-0.14493 0.34776-3e-3 0.058 0.0225 0.1159 0.0386 0.1707-0.01 0.0124-0.0225 0.0257-0.0355 0.0386-0.0257-0.0192-0.0451-0.0515-0.0773-0.0515-0.0967-3e-3 -0.19966 0.029-0.27051 0.0967-0.10628 0.0998-0.16421 0.23831-0.18998 0.38-0.0192 0.10944-0.0257 0.22537 0 0.33808 3e-3 0.0161 0 0.0355 0 0.0516-0.0419 0.0124-0.0837 0.0257-0.12566 0.0192-0.0355-7e-3 -0.0773 4e-5 -0.0934 0.0322-0.0161 0.1159-3e-3 0.23183-0.0323 0.34453-0.01 0.058-0.0192 0.1159-0.0161 0.17389 0.0676 0.0226 0.1385 0.029 0.20935 0.0451-0.0547 3e-3 -0.1159 0.0225-0.14815 0.0708-0.01 0.0902-7e-3 0.18353 0.0161 0.2737 0.01 0.0837 0.01 0.17069 0.0194 0.25442-7e-3 -3e-3 -0.0225-7e-3 -0.029-0.01-0.058 0.0225-0.0516 0.0934-0.0677 0.1417 0.0124 0.01 0.029 0.0225 0.0419 0.0322-0.0124 0.0192-0.0259 0.0418-0.0386 0.0612l0.029 0.0483c-3e-3 0.0161-7e-3 0.029-0.01 0.0451 7e-3 0.0225 0.0257 0.0386 0.0386 0.0547-0.0257 0.15136-0.0547 0.29947-0.0676 0.45081-7e-3 0.0516 0.0124 0.10312 7e-3 0.1546 0 0.0419-0.0322 0.0708-0.0516 0.10628-0.0192 0.029-0.0192 0.0643-0.0451 0.0869-0.0386 0.0419-0.0612 0.0934-0.0902 0.1417-0.029 0.058-0.0676 0.11274-0.0676 0.18034-3e-3 0.029-3e-5 0.058-0.01 0.0869-0.0257 0.0677-0.0773 0.12237-0.0965 0.19321-0.01 0.0419-0.0124 0.0869-0.01 0.12883 0 0.0257 0.0225 0.0386 0.0386 0.0547-0.0419 0.15136-0.0773 0.30273-0.11907 0.45408-0.0192 0.0547-0.0124 0.1159-3e-3 0.17389 3e-3 0.0124-1e-5 0.029 0.0124 0.0386 0.12236 0.0386 0.25118 0.0257 0.37678 0.01 7e-3 -0.0386 0.0161-0.0773 3e-3 -0.1159-0.0124-0.029-0.0322-0.0547-0.0322-0.0869-3e-3 -0.0708-3e-3 -0.14491 7e-3 -0.21575 0.0192-0.0741 0.0516-0.1417 0.0806-0.21255 0.0257-3e-3 0.058-0.01 0.0708-0.0355 0.0322-0.0612 0.0483-0.12882 0.0708-0.19321 0.0451-0.0869 0.0934-0.17714 0.1159-0.27373 0.0124-0.0386-0.0124-0.0804-7e-3 -0.11907 0.0161-0.0355 0.0355-0.0708 0.0483-0.10944 0.0124-0.029 0.0451-0.0355 0.0643-0.058 0.029-0.0355 0.0419-0.0773 0.0612-0.1192 0.0257-0.0124 0.0547-0.0225 0.0708-0.0483 0.0124-0.0322 0.0192-0.0645 0.0225-0.0998 7e-3 -0.0708 0.0386-0.13515 0.0612-0.19962 0.0192-0.0516 0.0386-0.10311 0.0612-0.1546 0.0226-0.029 0.0547-0.0516 0.0741-0.0837 0.0226-0.0322 0.029-0.0741 0.0386-0.11274 0.0226 0.0483 0.0451 0.0998 0.0806 0.13846 0.0322 0.0225 0.074 0.0192 0.10944 0.0225 0.0837 0.12552 0.17069 0.25442 0.25442 0.38 0.0355 0.0612 0.11921 0.0483 0.17711 0.0419 0.0124 0.0257 0.0353 0.0483 0.0451 0.0773-3e-3 0.0547-0.01 0.11274-0.0161 0.16747-0.0257 0.0225-0.0482 0.0483-0.0451 0.0837 3e-3 0.12553 0.0124 0.25118 0.0355 0.37355 0.0124 0.0451 0.029 0.0934 0.029 0.14169-3e-3 0.0194 0.0192 0.0257 0.0322 0.0322 7e-3 0.0998 0.0124 0.20287 0.0192 0.3027 3e-3 0.029-0.0257 0.0483-0.0322 0.0773-0.0161 0.0837-0.0483 0.16743-0.0418 0.25436 0.0677 0.0516 0.15457 0.0225 0.22863 0.0194 0.0547 7e-3 0.10628 0.029 0.16102 0.0419 0.13847 0.0194 0.27692 0.0194 0.41538 0 7e-3 -0.0386 0.0192-0.0806-3e-3 -0.1159-0.058-0.058-0.13845-0.0643-0.20607-0.0965-0.0612-0.0612-0.11906-0.12883-0.17066-0.19968-0.0386-0.10627-0.01-0.21577-0.0124-0.32525 0.0386-0.0355 0.0386-0.0869 0.0419-0.13529 3e-3 -0.0515-0.0194-0.10297-0.0225-0.15456 0.01-0.0676 0.0257-0.13529 0.0322-0.20289 0.01-0.0967 0.0161-0.19318 0.0225-0.28979 0-0.0418 7e-3 -0.0837-0.0161-0.11921-0.0257-0.0386-0.0124-0.0869-0.0259-0.12882-0.01 0-0.029 3e-3 -0.0386 3e-3 -0.0547-0.1449-0.10628-0.28982-0.17394-0.42829-0.0676-0.14491-0.16098-0.27372-0.27046-0.38965-0.0192-0.0386-0.0192-0.0837-0.0322-0.12566-0.0161-0.0355 0.0124-0.0645 0.0257-0.0934 0.0355 0.0161 0.0676 0.0322 0.10627 0.0355 0.058-0.0612 0.0998-0.1449 0.0967-0.22863 7e-3 -0.1159 0.0192-0.23183 0.0225-0.34776 0-0.0355-0.0124-0.0676-0.0257-0.0966-0.0194-0.0386-0.0676-0.0516-0.10311-0.0677 0.0161-0.0386 0.0386-0.0773 0.0322-0.12236 0.0741 0.0419 0.14488 0.0869 0.22218 0.12236 0.0708 0.0322 0.14494 0.0708 0.22544 0.0644 0.0161 0.0124 0.0322 0.029 0.0547 0.0225 0.0612-3e-3 0.11274-0.0482 0.15137-0.0934 0.0547-0.0225 0.0998-0.0708 0.11274-0.12882 0.0124-0.0645 0.029-0.13199 0.0451-0.19645 0.029-7e-3 0.0612-0.0161 0.0902-0.0225-0.0257-0.0934-0.0612-0.18678-0.0451-0.28661 0.0192-7e-3 0.0386-0.0194 0.0516-0.0386 0.0194-0.0355 0.0741-0.0483 0.0645-0.0967 0.0257-3e-3 0.0451-0.0124 0.0643-0.029h0.46049v-0.0612c0.0547 0.01 0.11274 0.0124 0.16747-3e-3h0.28016c0.0161 0.01 0.029 0.0161 0.0451 0.0259 7e-3 -3e-3 0.0161-0.0124 0.0194-0.0161h0.15455c3e-3 -0.0225 3e-3 -0.0482-3e-3 -0.0741h-0.15137c-3e-3 -3e-3 -0.0124-0.01-0.0194-0.0124-0.0161 7e-3 -0.0322 0.0124-0.0418 0.0257-0.10627 0-0.20935 3e-3 -0.31239 0-7e-3 -0.0192 2e-5 -0.0355 0.0124-0.0483-3e-3 -0.0124-7e-3 -0.0225-0.01-0.0322-0.0192-7e-3 -0.0355 3e-3 -0.0483 0.0161 0-7e-3 -3e-3 -0.0194-3e-3 -0.0259-7e-3 0-0.0124-3e-3 -0.0161-7e-3 -3e-3 -0.058 0-0.11274 0-0.1707h-0.0419v0.20931h-0.0355v-0.0547c-0.37354 0-0.75028-3e-3 -1.1238 0-3e-3 -0.0124-3e-3 -0.0257-3e-3 -0.0386-0.0192-3e-3 -0.0451 3e-3 -0.0612-0.01-0.01-0.0322-7e-3 -0.0643-0.01-0.0965-7e-3 3e-3 -0.0192 7e-3 -0.0257 7e-3 0 0.0451-0.0161 0.087-0.0192 0.13198-0.029 3e-3 -0.0644-0.01-0.0869 0.0124-0.0612 0.0124-0.12236 0.0257-0.18357 0.029 0.01-7e-3 0.0161-0.0124 0.0257-0.0192-7e-3 -0.0451-0.0226-0.087-0.0161-0.13199 0.0419-0.0161 0.0934-0.0258 0.12236-0.0612 0.0355-0.10628 0.0124-0.21574-0.029-0.31557 0-0.0161 0.0124-0.0386-3e-3 -0.0516-0.0322-0.0257-0.0741-0.0355-0.10944-0.058-0.0451-0.029-0.0869-0.0579-0.13529-0.074-0.0313-0.01-0.0641-0.0148-0.0968-0.016-3e-3 -9e-5 -5e-3 -1.9e-4 -0.01-1.9e-4zm0.84383 1.0011c0.019-1e-3 0.0366 3.8e-4 0.0478 0.0137 0 0.0257 0.0124 0.0709-0.0225 0.0806-0.0451 3e-3 -0.0902 0-0.13529 0 0.0161-0.01 0.0355-0.01 0.0516-0.0161 0.0124-0.0192 7e-3 -0.0419 3e-3 -0.0645 0.0161-5e-3 0.0363-0.011 0.0551-0.0137zm-0.14213 0.10985c0.058 7e-3 0.11603 0 0.17393 3e-3 -0.0483 0.0483-0.0804 0.10628-0.12236 0.16097-0.029-0.0355-0.0451-0.0902-0.0773-0.12552 0.01-0.0124 0.0161-0.0257 0.0257-0.0386z" fill="#4e4e4e" stroke-width=".032202"/>
  </g>
 </g>
</svg>
