<?xml version="1.0" encoding="UTF-8"?>
<!-- Created with Inkscape (http://www.inkscape.org/) -->
<svg id="SVGRoot" width="48px" height="48px" version="1.1" viewBox="0 0 48 48" xmlns="http://www.w3.org/2000/svg" xmlns:cc="http://creativecommons.org/ns#" xmlns:dc="http://purl.org/dc/elements/1.1/" xmlns:rdf="http://www.w3.org/1999/02/22-rdf-syntax-ns#" xmlns:xlink="http://www.w3.org/1999/xlink">
 <defs id="defs815">
  <style id="style819">.cls-1{fill:none;stroke:#fff;stroke-linecap:round;stroke-linejoin:round;}</style>
 </defs>
 <metadata id="metadata818">
  <rdf:RDF>
   <cc:Work rdf:about="">
    <dc:format>image/svg+xml</dc:format>
    <dc:type rdf:resource="http://purl.org/dc/dcmitype/StillImage"/>
    <dc:title/>
   </cc:Work>
  </rdf:RDF>
 </metadata>
 <g id="layer1">
  <rect id="rect1373-5" x="4" y="4" width="40" height="40" ry="8" fill="#89b2fd" fill-rule="evenodd" style="paint-order:stroke fill markers"/>
  <path id="rect817" d="m12 4c-4.432 0-8 3.568-8 8v24c0 4.432 3.568 8 8 8h24c4.432 0 8-3.568 8-8v-24c0-4.432-3.568-8-8-8h-24zm0 1h24c3.878 0 7 3.122 7 7v24c0 3.878-3.122 7-7 7h-24c-3.878 0-7-3.122-7-7v-24c0-3.878 3.122-7 7-7z" fill-rule="evenodd" opacity=".3" style="paint-order:stroke fill markers"/>
  <g id="layer1-6" transform="translate(6.3849 .97391)">
   <path id="path863" d="m22.561 36.911c-0.39353-0.17278-1.0216-0.72705-1.1428-1.0085-0.06305-0.14638-0.17384-0.25087-0.266-0.25087-0.1429 0-0.15425-0.0639-0.11911-0.67116 0.05498-0.94971-0.1025-1.6317-0.45307-1.9623-0.38103-0.35936-0.55323-0.9075-0.91681-2.9184l-0.16966-0.93841-1.7431-1.9615c-0.95871-1.0788-1.7696-1.9371-1.8021-1.9073-0.10077 0.09269-1.5072 3.5695-1.931 4.7738-0.48541 1.3792-0.8048 2.0091-1.2283 2.4227-0.4229 0.41295-1.5791 1.0067-1.9603 1.0067-0.34867 0-0.35533 0.03486-0.15735 0.82305 0.08001 0.31845 0.18661 0.55668 0.24915 0.55668 0.06012 0 0.19592 0.07013 0.30178 0.15587 0.18082 0.14642 0.18363 0.16468 0.04652 0.30181-0.20708 0.20708-1.5113 0.20788-1.8613 0.0011-0.25918-0.1531-0.68599-0.84596-0.68822-1.1172-0.00223-0.27833-0.13871-0.42442-0.28385-0.30396-0.10073 0.08359-0.13648 0.0768-0.17903-0.03414-0.18595-0.48459 0.057993-1.0695 0.76434-1.8324 0.37428-0.40427 0.47596-0.57404 0.47596-0.79469 0-0.24024 0.10262-0.3766 0.71359-0.94823 0.68794-0.64365 0.71758-0.68738 0.82464-1.217 0.17976-0.88911 0.66075-2.7589 1.1618-4.516l0.46716-1.6384-0.04219-1.1726c-0.03457-0.96093-0.0096-1.3424 0.13877-2.1127 0.21789-1.1319 0.33679-2.1657 0.43837-3.8116 0.0883-1.4307 0.21966-1.7898 0.96053-2.6258 0.3332-0.376 0.49648-0.49584 0.67558-0.49584 0.33916 0 1.0828-0.26702 0.95822-0.34405-0.07259-0.04488-0.09387-0.37507-0.07338-1.1386 0.02726-1.016 0.0418-1.0923 0.26364-1.3829 0.35879-0.46987 0.91603-0.69843 1.8066-0.74101 0.64372-0.030766 0.8063-0.00878 1.1436 0.15447 0.50259 0.2433 0.94751 0.7643 1.1747 1.3756 0.09837 0.26462 0.23589 0.56921 0.30563 0.67688 0.1223 0.18878 0.11286 0.20171-0.26438 0.36342l-0.39117 0.16767v1.1272h0.29009c0.24111 0 0.33045-0.05824 0.52913-0.34493l0.23904-0.34493h0.5919c0.33711 0 0.5919-0.03712 0.5919-0.08624 0-0.04743 0.15522-0.08624 0.34493-0.08624 0.31044 0 0.34493 0.02167 0.34493 0.21557 0 0.20943 0.01725 0.21559 0.60363 0.21559 0.34493 0 0.60363 0.03697 0.60363 0.08624 0 0.0503 0.28744 0.08624 0.68986 0.08624 0.40242 0 0.68986-0.03594 0.68986-0.08624 0-0.04743 0.0582-0.08624 0.12933-0.08624 0.07186 0 0.12936-0.07665 0.12936-0.17247 0-0.19705 0.03255-0.20728 0.26437-0.0832 0.11562 0.06189 0.16681 0.18091 0.16681 0.38805v0.29878h0.5174c0.49833 0 0.5174-0.0081 0.5174-0.22191 0-0.3159 0.29213-0.24879 0.32948 0.07569 0.02734 0.23728 0.03449 0.24003 0.56052 0.21484 0.50989-0.02443 0.53402-0.03573 0.56013-0.26266 0.02122-0.18482 0.07268-0.23714 0.23302-0.23714 0.19214 0 0.20744 0.03561 0.23141 0.53896l0.02567 0.53896 0.8192 0.05255v0.68041h-3.3274l-0.0825 0.26679c-0.08214 0.26565-0.29111 0.42969-0.76015 0.59679-0.22845 0.08139-0.24209 0.11116-0.18654 0.4072 0.09295 0.4955 0.29318 1.0389 0.65744 1.7843 0.18376 0.37602 0.32485 0.69123 0.31354 0.70045-0.01129 0.0092-0.15149 0.08341-0.31154 0.16486-0.24301 0.12366-0.3097 0.12903-0.40454 0.03252-0.19994-0.20346-0.62542-1.1438-0.82602-1.8257-0.10703-0.3637-0.21946-0.66128-0.24993-0.66128-0.03046 0-0.12666 0.13237-0.21378 0.29413-0.1686 0.31306-0.37926 0.39573-1.0084 0.39573-0.27856 0-0.42444 0.06993-0.78688 0.37731-0.2447 0.20752-0.71441 0.55699-1.0438 0.7766l-0.59888 0.3993-1.8539-0.11258-0.06213 0.24981c-0.03416 0.1374-0.12944 0.34682-0.21172 0.4654-0.08228 0.11858-0.17222 0.42901-0.19988 0.68986-0.03057 0.28843-0.10456 0.51398-0.18878 0.57559-0.17872 0.13074-0.29107 0.62398-0.29367 1.2892-0.0019 0.51693 0.0033 0.52927 0.25326 0.57924 0.14043 0.02809 0.41878 0.19786 0.61856 0.37727 0.54803 0.49215 1.5866 1.9339 1.8003 2.4992 0.1892 0.50048 0.18809 0.53202-0.03768 1.0691-0.04013 0.09543 0.20927 0.47142 0.81169 1.2237l0.86959 1.086 0.2959 1.2678c0.16274 0.69728 0.34324 1.6471 0.40111 2.1108l0.1052 0.84298-0.32882 0.40129c-0.30554 0.37287-0.32496 0.42946-0.2743 0.79908 0.07246 0.52868 0.21398 0.72394 0.82571 1.1394 0.9585 0.65091 1.488 1.7953 1.0386 2.2447-0.14682 0.14682-0.28469 0.17196-0.92701 0.16908-0.42811-0.0018-0.86646-0.0525-1.0132-0.11695zm-2.2067-21.548c0.15383-0.12943 0.3297-0.23534 0.39083-0.23534 0.17339 0 1.3416-0.6059 1.3416-0.69583 0-0.04492-0.44096-0.08026-1.0016-0.08026-0.921 0-1.0354 0.01835-1.4225 0.22912-0.41113 0.22377-0.59192 0.52264-0.59358 0.98132-8.65e-4 0.23459 0.94378 0.08834 1.2853-0.19899z" fill="#4e4e4e" stroke-width=".086233"/>
  </g>
 </g>
</svg>
