<?xml version="1.0" encoding="UTF-8"?>
<!-- Created with Inkscape (http://www.inkscape.org/) -->
<svg id="SVGRoot" width="48px" height="48px" version="1.1" viewBox="0 0 48 48" xmlns="http://www.w3.org/2000/svg" xmlns:cc="http://creativecommons.org/ns#" xmlns:dc="http://purl.org/dc/elements/1.1/" xmlns:rdf="http://www.w3.org/1999/02/22-rdf-syntax-ns#">
 <defs id="defs815">
  <style id="style819">.cls-1{fill:none;stroke:#fff;stroke-linecap:round;stroke-linejoin:round;}</style>
 </defs>
 <metadata id="metadata818">
  <rdf:RDF>
   <cc:Work rdf:about="">
    <dc:format>image/svg+xml</dc:format>
    <dc:type rdf:resource="http://purl.org/dc/dcmitype/StillImage"/>
    <dc:title/>
   </cc:Work>
  </rdf:RDF>
 </metadata>
 <g id="layer1">
  <rect id="rect1373" x="4" y="4" width="40" height="40" ry="8" fill="#4e4e4e" fill-rule="evenodd" style="paint-order:stroke fill markers"/>
  <path id="rect849" d="m24 6v36h12c3.324 0 6-2.676 6-6v-24c0-3.324-2.676-6-6-6h-12z" fill="#efefef" fill-rule="evenodd" style="paint-order:stroke fill markers"/>
  <g id="g872">
   <rect id="rect843-4" x="10" y="14" width="28" height="28" ry="14" fill="#46589d" fill-rule="evenodd" style="paint-order:stroke fill markers"/>
   <path id="rect933-8" d="m24 14c-7.756 0-14 6.244-14 14s6.244 14 14 14 14-6.244 14-14-6.244-14-14-14zm0 1c7.202 0 13 5.798 13 13s-5.798 13-13 13-13-5.798-13-13 5.798-13 13-13z" fill-rule="evenodd" opacity=".4" style="paint-order:stroke fill markers"/>
   <path id="path845-2" d="m16.945 38.063 4.4745-3.1542 0.21005-4.3823 1.4004-1.7117 4.7719 0.1556 0.93363-1.5042-0.31121-2.9565-2.5934-0.88176 1.1411-3.6308-3.2158-0.46682 0.41495-3.4752-2.6453-1.2967 3.4752 0.51868v2.4897l1.8154 0.41495 0.57055-2.4897 1.1411 4.2013-0.8299 3.4752 3.8901-0.20747-0.67429-2.386 4.3051-1.0374-2.9046 2.2303 0.36308 1.8673-2.3341 1.7635v3.0602l-1.971 1.1411v3.4752l1.8154-1.7635 6.1205 0.62242-6.0686 0.41495-1.7635 2.1266-0.9855 2.4378-2.8009 1.2967-1.9191 2.8528 1.7635-5.0312 2.1785-0.1556 0.05187-2.6972 0.57055-1.3486v-1.7635l-3.3714-0.41495-0.9855 1.1411-0.72616 2.1266 0.8299 1.4523 1.8673-0.05187-3.7345 2.1785z" fill="#fff"/>
   <rect id="rect847-2" x="17" y="21" width="4" height="4" ry="2" fill="#fff" fill-rule="evenodd" style="paint-order:stroke fill markers"/>
  </g>
  <path id="rect817" d="m12 4c-4.432 0-8 3.568-8 8v24c0 4.432 3.568 8 8 8h24c4.432 0 8-3.568 8-8v-24c0-4.432-3.568-8-8-8h-24zm0 1h24c3.878 0 7 3.122 7 7v24c0 3.878-3.122 7-7 7h-24c-3.878 0-7-3.122-7-7v-24c0-3.878 3.122-7 7-7z" fill-rule="evenodd" opacity=".4" style="paint-order:stroke fill markers"/>
  <path id="path982" d="m14 6v1h2s1 0 1 1v6c0 1-1 1-1 1h-2v1h20v-1h-2s-1 0-1-1v-6c0-1 1-1 1-1h2v-1h-10zm8 1h4s1 0 1 1v6c0 1-1 1-1 1h-4s-1 0-1-1v-6c0-1 1-1 1-1z" fill="#c09820"/>
 </g>
</svg>
