<?xml version="1.0" encoding="UTF-8"?>
<!-- Created with Inkscape (http://www.inkscape.org/) -->
<svg id="SVGRoot" width="48px" height="48px" version="1.1" viewBox="0 0 48 48" xmlns="http://www.w3.org/2000/svg" xmlns:cc="http://creativecommons.org/ns#" xmlns:dc="http://purl.org/dc/elements/1.1/" xmlns:rdf="http://www.w3.org/1999/02/22-rdf-syntax-ns#" xmlns:xlink="http://www.w3.org/1999/xlink">
 <defs id="defs815">
  <style id="style819">.cls-1{fill:none;stroke:#fff;stroke-linecap:round;stroke-linejoin:round;}</style>
  <linearGradient id="linearGradient928" x1="24" x2="24" y1="6" y2="42" gradientUnits="userSpaceOnUse">
   <stop id="stop862" stop-color="#c29656" offset="0"/>
   <stop id="stop872" stop-color="#dcbf89" offset=".36842"/>
   <stop id="stop870" stop-color="#fff" offset=".5"/>
   <stop id="stop874" stop-color="#92b4da" offset=".63158"/>
   <stop id="stop864" stop-color="#729dec" offset="1"/>
  </linearGradient>
 </defs>
 <metadata id="metadata818">
  <rdf:RDF>
   <cc:Work rdf:about="">
    <dc:format>image/svg+xml</dc:format>
    <dc:type rdf:resource="http://purl.org/dc/dcmitype/StillImage"/>
    <dc:title/>
   </cc:Work>
  </rdf:RDF>
 </metadata>
 <g id="layer1">
  <rect id="rect1373" x="4" y="4" width="40" height="40" ry="8" fill="url(#linearGradient928)" fill-rule="evenodd" style="paint-order:stroke fill markers"/>
  <path id="rect817" d="m12 4c-4.432 0-8 3.568-8 8v24c0 4.432 3.568 8 8 8h24c4.432 0 8-3.568 8-8v-24c0-4.432-3.568-8-8-8h-24zm0 1h24c3.878 0 7 3.122 7 7v24c0 3.878-3.122 7-7 7h-24c-3.878 0-7-3.122-7-7v-24c0-3.878 3.122-7 7-7z" fill-rule="evenodd" opacity=".3" style="paint-order:stroke fill markers"/>
  <rect id="rect843" x="10" y="10" width="28" height="28" ry="14" fill="#46589d" fill-rule="evenodd" style="paint-order:stroke fill markers"/>
  <path id="rect933" d="m24 10c-7.756 0-14 6.244-14 14s6.244 14 14 14 14-6.244 14-14-6.244-14-14-14zm0 1c7.202 0 13 5.798 13 13s-5.798 13-13 13-13-5.798-13-13 5.798-13 13-13z" fill-rule="evenodd" opacity=".4" style="paint-order:stroke fill markers"/>
  <path id="path845" d="m16.945 34.063 4.4745-3.1542 0.21005-4.3823 1.4004-1.7117 4.7719 0.1556 0.93363-1.5042-0.31121-2.9565-2.5934-0.88176 1.1411-3.6308-3.2158-0.46682 0.41495-3.4752-2.6453-1.2967 3.4752 0.51868v2.4897l1.8154 0.41495 0.57055-2.4897 1.1411 4.2013-0.8299 3.4752 3.8901-0.20747-0.67429-2.386 4.3051-1.0374-2.9046 2.2303 0.36308 1.8673-2.3341 1.7635v3.0602l-1.971 1.1411v3.4752l1.8154-1.7635 6.1205 0.62242-6.0686 0.41495-1.7635 2.1266-0.9855 2.4378-2.8009 1.2967-1.9191 2.8528 1.7635-5.0312 2.1785-0.1556 0.05187-2.6972 0.57055-1.3486v-1.7635l-3.3714-0.41495-0.9855 1.1411-0.72616 2.1266 0.8299 1.4523 1.8673-0.05187-3.7345 2.1785z" fill="#fff"/>
  <rect id="rect847" x="17" y="17" width="4" height="4" ry="2" fill="#fff" fill-rule="evenodd" style="paint-order:stroke fill markers"/>
  <rect id="rect843-8" x="10" y="10" width="28" height="28" ry="14" fill="#436382" fill-rule="evenodd" style="paint-order:stroke fill markers"/>
  <path id="path828" d="m20.434 12.342c-1.8296 0.04096-3.83 0.64966-4.9238 2.0312-0.50156 0.63349 0.02653 1.6561-0.26367 2.4102-0.84144 2.1866-3.6304 3.4016-4.1172 5.6934-0.23564 1.1095 0.54961 2.2077 0.69922 3.332 0.13506 1.015-0.35997 2.9575 0.6582 3.0664 0.97943 0.10474-0.47732-2.2513 0.30664-2.8477 0.32546-0.24758 0.84978 0.16345 1.2246 0 0.25576-0.11153 0.3322-0.4698 0.57031-0.61524 0.41431-0.25304 1.0825-0.02736 1.4023-0.39258 0.34018-0.38844-0.0726-1.1069 0.21875-1.5332 0.369-0.53989 1.227-0.52285 1.709-0.96484 0.49558-0.4545 0.65004-1.2041 1.1387-1.666 0.44537-0.42106 1.6105 0.75852 2.2793-1.8828 0.40119-1.5844-1.4083-1.6969-1.0508-2.541 0.32468-0.76666 1.6598-0.85462 2.3223-0.91992 0.54089-0.05331-0.67785 1.4129-0.17578 1.6211 1.1609 0.48132 2.6266-1.7063 2.3652-2.9355-0.27987-1.3161-2.2512-1.7503-3.5938-1.8398-0.25118-0.01676-0.50817-0.02147-0.76953-0.01563zm-0.11914 0.48047c0.21417 6e-3 0.4247 0.02639 0.62695 0.06055 0.94034 0.15884 2.4527 0.92268 2.1914 1.8398-0.33557 1.1779-2.6526-0.20371-3.6367 0.52539-0.85567 0.63394-1.0674 1.8685-1.3594 2.8926-0.31042 1.0888 0.33132 2.5025-0.39258 3.373-0.53755 0.64644-1.8322 0.13554-2.4102 0.74609-0.49676 0.52475-0.02504 1.5802-0.52539 2.1016-0.53759 0.56013-1.565 1.0516-2.2344 0.6582-0.80029-0.47034-0.82507-1.8126-0.61524-2.7168 0.30522-1.3153 2.1514-2.0946 2.5859-3.373 0.79235-2.3312 1.1722-1.1605 1.4902-2.1465 0.22044-0.68332-0.07638-1.5392 0.30664-2.1465 0.76596-1.2145 2.4734-1.8565 3.9727-1.8145zm11.068 0.48242c-0.07675 0.01016-0.14983 0.0313-0.21875 0.06836-0.99983 0.53762-1.9019 2.2365-2.3594 3.2754-0.93854 2.1312-2.2901 2.3596-4.0449 5.873-0.74294 1.4874-0.95274 3.8349-2.5527 4.2871-0.64007 0.18091-1.1103-1.0297-1.7676-0.92774-1.4989 0.2326-2.5999 1.8429-3.1992 3.2363-0.69543 1.6169 0.75268 3.7796-0.17188 5.2773-0.29279 0.47431-1.1119 0.45208-1.6172 0.68945 0.37765 0.29122 0.77067 0.56246 1.1777 0.81445 0.30418-0.04858 0.65712 0.01545 0.9082 0.1543 0.19614 0.10847 0.29932 0.31879 0.38086 0.55078 0.68732 0.33094 1.4016 0.61353 2.1465 0.83008 0.09734-0.08724 0.19402-0.17591 0.26562-0.27344 0.31478-0.42872 0.54576-1.2387 0.14453-1.5879-0.37301-0.3246-0.9551 0.40066-1.4453 0.33594-0.50547-0.06675-1.183-0.23815-1.3477-0.7207-0.16471-0.48279 0.48105-0.9071 0.625-1.3965 0.36194-1.2305 0.16686-2.5898 0.57812-3.8047 0.29945-0.88456 0.4562-2.1788 1.3477-2.457 0.68523-0.21387 1.2756 1.2648 1.9277 0.96484 0.36075-0.16592 0.06363-0.82802 0.28711-1.1562 0.23313-0.3424 0.73206-0.41708 1.0117-0.72266 1.2824-1.4012 1.8613-3.3157 2.8906-4.9121 0.84584-1.3118 2.122-2.4895 2.9102-3.9004 0.78818-1.4109 1.0878-3.0549 2.4824-3.7559 0.5595-0.28122 1.4504 0.50729 1.877 0.04883 0.04186-0.04499 0.07366-0.10872 0.10938-0.16602-0.2136-0.20634-0.43177-0.40714-0.6582-0.59961-0.01146 0.01277-0.01587 0.0319-0.0293 0.04297-0.42266 0.3484-1.121-0.13945-1.6582-0.06836zm1.4219 3.6816c-0.09946 0.0013-0.19839 0.02009-0.29688 0.06445-1.0205 0.45965-0.71216 2.1542-1.3496 3.0742-1.0005 1.4439-3.2841 1.9926-3.7734 3.6797-0.44898 1.5479 0.37001 4.5071 0.60547 6.1016 0.22722 1.5387 1.2696 1.7792 0.79297 3.2598-0.45994 1.4287-3.086 2.0132-2.8418 3.4941 0.05815 0.35269 0.28264 0.74174 0.58203 1.1035 0.46505-0.08413 0.92156-0.18978 1.3691-0.31836-0.45777-0.25404-0.85632-0.54248-0.88086-0.92578-0.09901-1.5464 2.3941-2.1962 2.8418-3.6797 0.44073-1.4603-0.58163-2.5739-0.65234-4.0977-0.13156-2.8353-1.37-3.2482-0.97852-4.6582 0.40601-1.4622 2.4907-1.8127 3.4004-3.0273 0.58701-0.78376 0.37368-2.2334 1.2578-2.6543 0.64938-0.30916 1.3838 0.61433 2.0957 0.51172 0.55085-0.0794 0.89441-0.91692 1.4453-0.83789 0.28548 0.04095 0.3975 0.44485 0.56836 0.70703-0.21449-0.53624-0.45602-1.0579-0.73242-1.5586-0.43774 0.16839-0.80959 0.5917-1.2812 0.61914-0.75485 0.04392-1.4757-0.86676-2.1719-0.85742zm5.0078 6.041c-0.50246-0.05395-0.33024 1.0341-0.74805 1.3184-0.78309 0.53285-1.8005 0.71782-2.5078 0.08789-0.31659-0.28194-0.34965-1.0687-1.4492-1.1875-0.71218-0.07694-1.5769 0.43564-1.8457 1.0996-0.54702 1.3511-0.26832 3.8546 1.1426 4.2207 1.5248 0.39565 1.728-2.8027 3.2969-2.9453 0.55481-0.05045 1.1076 0.03237 1.3633 0.52734 0.54669 1.0583-0.6932 3.0412-0.48828 3.9902 0.90293-1.8538 1.4238-3.9306 1.4238-6.1387 0-0.31788-0.02622-0.62893-0.04687-0.94141-0.0463-0.01123-0.09074-0.02589-0.14062-0.03125zm-4.9688 1.0117c0.50849 0.09961 0.77877 0.84409 0.74805 1.3613-0.03737 0.62925-0.48661 1.686-1.0996 1.5391-0.76391-0.18308-0.63514-1.5975-0.35156-2.3301 0.10907-0.28176 0.40663-0.62839 0.70312-0.57031z" fill="#fff"/>
  <path id="rect933-2" d="m24 10c-7.756 0-14 6.244-14 14s6.244 14 14 14 14-6.244 14-14-6.244-14-14-14zm0 1c7.202 0 13 5.798 13 13s-5.798 13-13 13-13-5.798-13-13 5.798-13 13-13z" fill-rule="evenodd" opacity=".4" style="paint-order:stroke fill markers"/>
  <path id="path845-2" d="m36.326 7.9872c-1.043 0-2.2906 0.38189-2.2906 0.38189v0.97887s0.72644-0.31077 1.8195-0.31077c1.0582 0 1.8164 0.092068 1.8112 0.62661 0 0.48181-2.7141 0.35903-2.7141 0.35903v0.95347s2.7141-0.12278 2.7141 0.35903c0.0052 0.53454-0.75301 0.62661-1.8112 0.62661-1.093 0-1.8195-0.31077-1.8195-0.31077v0.97887s1.2475 0.38189 2.2906 0.38189c2.091 0 3.6764-0.31136 3.6764-1.5589 0-0.75689-0.92757-0.95346-0.92757-0.95346s0.92757-0.19658 0.92757-0.95347c0-1.2475-1.5854-1.5589-3.6764-1.5589z" fill="#4e4e4e"/>
  <path id="path845-6" d="m11.674 34.988c1.043 0 2.2906 0.38189 2.2906 0.38189v0.97887s-0.72644-0.31077-1.8195-0.31077c-1.0582 0-1.8164 0.09207-1.8112 0.62661 0 0.48181 2.7141 0.35903 2.7141 0.35903v0.95347s-2.7141-0.12278-2.7141 0.35903c-0.0052 0.53454 0.75301 0.62661 1.8112 0.62661 1.093 0 1.8195-0.31077 1.8195-0.31077v0.97887s-1.2475 0.38189-2.2906 0.38189c-2.091 0-3.6764-0.31136-3.6764-1.5589 0-0.75689 0.92757-0.95346 0.92757-0.95346s-0.92757-0.19658-0.92757-0.95346c0-1.2475 1.5854-1.5589 3.6764-1.5589z" fill="#4e4e4e"/>
 </g>
</svg>
