<?xml version="1.0" encoding="UTF-8"?>
<!-- Created with Inkscape (http://www.inkscape.org/) -->
<svg id="SVGRoot" width="48px" height="48px" version="1.1" viewBox="0 0 48 48" xmlns="http://www.w3.org/2000/svg" xmlns:cc="http://creativecommons.org/ns#" xmlns:dc="http://purl.org/dc/elements/1.1/" xmlns:rdf="http://www.w3.org/1999/02/22-rdf-syntax-ns#">
 <defs id="defs815">
  <style id="style819">.cls-1{fill:none;stroke:#fff;stroke-linecap:round;stroke-linejoin:round;}</style>
 </defs>
 <metadata id="metadata818">
  <rdf:RDF>
   <cc:Work rdf:about="">
    <dc:format>image/svg+xml</dc:format>
    <dc:type rdf:resource="http://purl.org/dc/dcmitype/StillImage"/>
    <dc:title/>
   </cc:Work>
  </rdf:RDF>
 </metadata>
 <g id="layer1">
  <path id="path966" d="m17 5s3-3 7-3 7 3 7 3z" fill="#f97263"/>
  <path id="path966-2" d="m24 2c-4 0-7 3-7 3h1.2383c1.2395-0.87277 3.3081-2 5.7617-2s4.5222 1.1272 5.7617 2h1.2383s-3-3-7-3z" opacity=".25"/>
  <rect id="rect1373" x="4" y="4" width="40" height="40" ry="8" fill="#4e4e4e" fill-rule="evenodd" style="paint-order:stroke fill markers"/>
  <path id="path844" d="m12 6c-3.324 0-6 2.676-6 6v4.2227l7-6.2227 11-2 11 2 7 6.2227v-4.2227c0-3.324-2.676-6-6-6h-24z" fill="#f97263"/>
  <path id="rect817" d="m12 4c-4.432 0-8 3.568-8 8v24c0 4.432 3.568 8 8 8h24c4.432 0 8-3.568 8-8v-24c0-4.432-3.568-8-8-8h-24zm0 1h24c3.878 0 7 3.122 7 7v24c0 3.878-3.122 7-7 7h-24c-3.878 0-7-3.122-7-7v-24c0-3.878 3.122-7 7-7z" fill-rule="evenodd" opacity=".4" style="paint-order:stroke fill markers"/>
  <path id="path823-3" d="m17 35 4-4h6l4 4v6l-4 4h-6l-4-4z" fill="#4e4e4e" stroke="#b7bfc2" stroke-linecap="round" stroke-linejoin="round" stroke-width="2"/>
  <path id="path840" d="m14 15c-0.45405-3.39e-4 -0.89526 0.15408-1.25 0.4375l-5 4c-0.47379 0.37937-0.75035 0.95554-0.75 1.5625v5c1.022e-4 0.52999 0.21116 1.0393 0.58594 1.4141l4 4c0.23728 0.23724 0.52533 0.39951 0.83203 0.49219l-0.41797 2.0938 4.1836-3.7188 3.9258-2.6172c0.55537-0.37028 0.89057-0.99658 0.89062-1.6641v-6c-1.02e-4 -0.52999-0.21116-1.0393-0.58594-1.4141l2.5859-2.5859-6.502-0.92969c-0.16188-0.041825-0.32817-0.070279-0.49805-0.070312zm18 0c-0.16988 3.3e-5 -0.33616 0.02849-0.49805 0.07031l-6.502 0.92969 2.5859 2.5859c-0.37478 0.37473-0.58584 0.88408-0.58594 1.4141v6c5.4e-5 0.66748 0.33526 1.2938 0.89062 1.6641l3.9258 2.6172 4.1836 3.7188-0.41797-2.0938c0.3067-0.09267 0.59475-0.25495 0.83203-0.49219l4-4c0.37478-0.37473 0.58584-0.88408 0.58594-1.4141v-5c3.5e-4 -0.60696-0.27621-1.1831-0.75-1.5625l-5-4c-0.35474-0.28342-0.79595-0.43784-1.25-0.4375zm-18 2h1.5723l-2.5723 12-0.16602 0.83398-3.834-3.834v-5zm18.428 0h1.5723l5 4v5l-3.834 3.834-0.16602-0.83398z" opacity=".4"/>
  <path id="path1070" d="m14 16a1.0001 1.0001 0 0 0-0.625 0.21875l-5 4a1.0001 1.0001 0 0 0-0.375 0.78125v5a1.0001 1.0001 0 0 0 0.29297 0.70703l4 4a1.0001 1.0001 0 0 0 1.2617 0.125l6-4a1.0001 1.0001 0 0 0 0.44531-0.83203v-6a1.0001 1.0001 0 0 0-0.29297-0.70703l-3-3a1.0001 1.0001 0 0 0-0.70703-0.29297zm18 0a1.0001 1.0001 0 0 0-0.70703 0.29297l-3 3a1.0001 1.0001 0 0 0-0.29297 0.70703v6a1.0001 1.0001 0 0 0 0.44531 0.83203l6 4a1.0001 1.0001 0 0 0 1.2617-0.125l4-4a1.0001 1.0001 0 0 0 0.29297-0.70703v-5a1.0001 1.0001 0 0 0-0.375-0.78125l-5-4a1.0001 1.0001 0 0 0-0.625-0.21875z" color="#000000" color-rendering="auto" dominant-baseline="auto" fill="#b7bfc2" image-rendering="auto" shape-rendering="auto" solid-color="#000000" style="font-feature-settings:normal;font-variant-alternates:normal;font-variant-caps:normal;font-variant-ligatures:normal;font-variant-numeric:normal;font-variant-position:normal;isolation:auto;mix-blend-mode:normal;shape-padding:0;text-decoration-color:#000000;text-decoration-line:none;text-decoration-style:solid;text-indent:0;text-orientation:mixed;text-transform:none;white-space:normal"/>
  <path id="path842-4" d="m14.352 18-4.3516 3.4805v4.1055l3.127 3.127 4.873-3.248v-5.0508l-2.4141-2.4141zm18.062 0-2.4141 2.4141v5.0508l4.873 3.248 3.127-3.127v-4.1055l-4.3516-3.4805z" color="#000000" color-rendering="auto" dominant-baseline="auto" fill="#728dbe" image-rendering="auto" opacity=".4" shape-rendering="auto" solid-color="#000000" stroke="#000" stroke-linecap="round" stroke-linejoin="round" stroke-width="2" style="font-feature-settings:normal;font-variant-alternates:normal;font-variant-caps:normal;font-variant-ligatures:normal;font-variant-numeric:normal;font-variant-position:normal;isolation:auto;mix-blend-mode:normal;shape-padding:0;text-decoration-color:#000000;text-decoration-line:none;text-decoration-style:solid;text-indent:0;text-orientation:mixed;text-transform:none;white-space:normal"/>
  <path id="path842" d="m14.352 18-4.3516 3.4805v4.1055l3.127 3.127 4.873-3.248v-5.0508l-2.4141-2.4141zm18.062 0-2.4141 2.4141v5.0508l4.873 3.248 3.127-3.127v-4.1055l-4.3516-3.4805z" color="#000000" color-rendering="auto" dominant-baseline="auto" fill="#71b9e3" image-rendering="auto" shape-rendering="auto" solid-color="#000000" style="font-feature-settings:normal;font-variant-alternates:normal;font-variant-caps:normal;font-variant-ligatures:normal;font-variant-numeric:normal;font-variant-position:normal;isolation:auto;mix-blend-mode:normal;shape-padding:0;text-decoration-color:#000000;text-decoration-line:none;text-decoration-style:solid;text-indent:0;text-orientation:mixed;text-transform:none;white-space:normal"/>
  <path id="path879" d="m14.352 18-0.44922 0.35938-2.3848 8.7441 0.78516 0.78516 2.6973-9.8887zm1.5605 0.32617-2.8242 10.348 0.03906 0.03906 2.3848-1.5898 1.9707-7.2266z" fill="#fff"/>
  <path id="path879-3" d="m33.938 18.23-2.2754 8.3418 0.8457 0.56445 2.25-8.25zm1.6406 1.3145-2.2246 8.1562 1.5195 1.0117 0.2832-0.2832 2.0645-7.5723z" fill="#fff"/>
  <path id="path939" d="m21 30a1.0001 1.0001 0 0 0-0.70703 0.29297l-4 4a1.0001 1.0001 0 0 0-0.29297 0.70703v6a1.0001 1.0001 0 0 0 0.29297 0.70703l4 4a1.0001 1.0001 0 0 0 0.70703 0.29297h6a1.0001 1.0001 0 0 0 0.70703-0.29297l4-4a1.0001 1.0001 0 0 0 0.29297-0.70703v-6a1.0001 1.0001 0 0 0-0.29297-0.70703l-4-4a1.0001 1.0001 0 0 0-0.70703-0.29297zm0 1h6l4 4v6l-4 4h-6l-4-4v-6z" color="#000000" color-rendering="auto" dominant-baseline="auto" image-rendering="auto" opacity=".25" shape-rendering="auto" solid-color="#000000" style="font-feature-settings:normal;font-variant-alternates:normal;font-variant-caps:normal;font-variant-ligatures:normal;font-variant-numeric:normal;font-variant-position:normal;isolation:auto;mix-blend-mode:normal;shape-padding:0;text-decoration-color:#000000;text-decoration-line:none;text-decoration-style:solid;text-indent:0;text-orientation:mixed;text-transform:none;white-space:normal"/>
 </g>
</svg>
