<?xml version="1.0" encoding="UTF-8"?>
<!-- Created with Inkscape (http://www.inkscape.org/) -->
<svg id="SVGRoot" width="48px" height="48px" version="1.1" viewBox="0 0 48 48" xml:space="preserve" xmlns="http://www.w3.org/2000/svg" xmlns:cc="http://creativecommons.org/ns#" xmlns:dc="http://purl.org/dc/elements/1.1/" xmlns:rdf="http://www.w3.org/1999/02/22-rdf-syntax-ns#"><defs><style>.cls-1{fill:none;stroke:#fff;stroke-linecap:round;stroke-linejoin:round;}</style><style>.cls-1{fill:none;stroke:#fff;stroke-linecap:round;stroke-linejoin:round;}</style><style>.cls-1{fill:none;stroke:#fff;stroke-linecap:round;stroke-linejoin:round;}</style><style>.cls-1{fill:none;stroke:#fff;stroke-linecap:round;stroke-linejoin:round;}</style><style id="current-color-scheme" type="text/css">.ColorScheme-Text {
        color:#31363b;
      }
      .ColorScheme-Accent {
        color:#3daee9;
      }</style><style type="text/css">.ColorScheme-Text {
        color:#31363b;
      }
      .ColorScheme-Accent {
        color:#3daee9;
      }</style><style>.cls-1{fill:none;stroke:#fff;stroke-linecap:round;stroke-linejoin:round;}</style><style>.cls-1{fill:none;stroke:#fff;stroke-linecap:round;stroke-linejoin:round;}</style><style>.a{fill:none;stroke:#b1b5bd;stroke-linecap:round;stroke-linejoin:round;isolation:isolate;opacity:0.63;}</style><style>.cls-1{fill:none;stroke:#fff;stroke-linecap:round;stroke-linejoin:round;}</style><style>.cls-1{fill:none;stroke:#fff;stroke-linecap:round;stroke-linejoin:round;}</style><style>.cls-1{fill:none;stroke:#fff;stroke-linecap:round;stroke-linejoin:round;}</style><style>.cls-1{fill:none;stroke:#fff;stroke-linecap:round;stroke-linejoin:round;}</style></defs><metadata><rdf:RDF><cc:Work rdf:about=""><dc:format>image/svg+xml</dc:format><dc:type rdf:resource="http://purl.org/dc/dcmitype/StillImage"/></cc:Work></rdf:RDF></metadata><rect x="4" y="4" width="40" height="40" ry="8" fill="#4fb47b" fill-rule="evenodd" style="paint-order:stroke fill markers"/><path d="m24 6v36h12c3.324 0 6-2.676 6-6v-24c0-3.324-2.676-6-6-6z" fill="#d35244"/><path d="m12 4c-4.432 0-8 3.568-8 8v24c0 4.432 3.568 8 8 8h24c4.432 0 8-3.568 8-8v-24c0-4.432-3.568-8-8-8zm0 1h24c3.878 0 7 3.122 7 7v24c0 3.878-3.122 7-7 7h-24c-3.878 0-7-3.122-7-7v-24c0-3.878 3.122-7 7-7z" fill-rule="evenodd" opacity=".3" style="paint-order:stroke fill markers"/><g stroke-linecap="round" stroke-linejoin="round"><path d="m24 12v12 12h5a2.0002 2.0002 0 0 0 1.1094-3.6641c0-1e-6 -0.32612-0.16788-0.89453-1.1152-0.3698-0.61633-0.70306-1.6605-0.93945-2.9453 1.2849 0.2364 2.329 0.56966 2.9453 0.93945 0.94736 0.56841 1.1152 0.89453 1.1152 0.89453a2.0002 2.0002 0 0 0 3.6641-1.1094v-5-5a2.0002 2.0002 0 0 0-3.6641-1.1094s-0.16788 0.32612-1.1152 0.89453c-0.61633 0.3698-1.6605 0.70306-2.9453 0.93945 0.2364-1.2849 0.56966-2.329 0.93945-2.9453 0.56841-0.94736 0.89453-1.1152 0.89453-1.1152a2.0002 2.0002 0 0 0-1.1094-3.6641h-5z" fill="#fff" stop-color="#000000"/><path d="m24 12v17l-8 7 2-10-6-6h8z" fill="#fff" stroke-width="2"/><path d="m24 14v20h5s-3-2-3-8c6 0 8 3 8 3v-10s-2 3-8 3c0-6 3-8 3-8z" fill="#4e4e4e" stop-color="#000000"/></g></svg>
