<?xml version="1.0" encoding="UTF-8"?>
<!-- Created with Inkscape (http://www.inkscape.org/) -->
<svg id="SVGRoot" width="48px" height="48px" version="1.1" viewBox="0 0 48 48" xmlns="http://www.w3.org/2000/svg" xmlns:cc="http://creativecommons.org/ns#" xmlns:dc="http://purl.org/dc/elements/1.1/" xmlns:rdf="http://www.w3.org/1999/02/22-rdf-syntax-ns#">
 <defs id="defs815">
  <style id="style819">.cls-1{fill:none;stroke:#fff;stroke-linecap:round;stroke-linejoin:round;}</style>
 </defs>
 <metadata id="metadata818">
  <rdf:RDF>
   <cc:Work rdf:about="">
    <dc:format>image/svg+xml</dc:format>
    <dc:type rdf:resource="http://purl.org/dc/dcmitype/StillImage"/>
    <dc:title/>
   </cc:Work>
  </rdf:RDF>
 </metadata>
 <g id="layer1">
  <rect id="rect1373" x="4" y="4" width="40" height="40" ry="8" fill="#4e4e4e" fill-rule="evenodd" style="paint-order:stroke fill markers"/>
  <path id="rect817" d="m12 4c-4.432 0-8 3.568-8 8v24c0 4.432 3.568 8 8 8h24c4.432 0 8-3.568 8-8v-24c0-4.432-3.568-8-8-8h-24zm0 1h24c3.878 0 7 3.122 7 7v24c0 3.878-3.122 7-7 7h-24c-3.878 0-7-3.122-7-7v-24c0-3.878 3.122-7 7-7z" fill-rule="evenodd" opacity=".4" style="paint-order:stroke fill markers"/>
  <rect id="rect892" x="20" y="20" width="8" height="8" ry="4" fill="#c184ed" fill-rule="evenodd" style="paint-order:normal"/>
  <rect id="rect892-9" x="20" y="10" width="8" height="8" ry="4" fill="#f97263" fill-rule="evenodd" style="paint-order:normal"/>
  <rect id="rect935" x="20" y="10" width="4" height="8" fill="#f97263" fill-rule="evenodd" style="paint-order:normal"/>
  <rect id="rect937" x="22" y="12" width="4" height="4" ry="2" fill="#4e4e4e" fill-rule="evenodd" style="paint-order:normal"/>
  <rect id="rect939" x="22" y="12" width="2" height="4" fill="#4e4e4e" fill-rule="evenodd" style="paint-order:normal"/>
  <rect id="rect941" x="22" y="22" width="4" height="4" ry="2" fill="#4e4e4e" fill-rule="evenodd" style="paint-order:normal"/>
  <path id="path943" d="m31 21 6 6" fill="none" stroke="#96d56b" stroke-linecap="round" stroke-linejoin="round" stroke-width="2"/>
  <path id="path943-9" d="m37 21-6 6" fill="none" stroke="#96d56b" stroke-linecap="round" stroke-linejoin="round" stroke-width="2"/>
  <path id="path960" d="m26 31s-5 0-5 2c0 2.1082 6-0.10818 6 2 0 2-5 2-5 2" fill="none" stroke="#ffd34e" stroke-linecap="round" stroke-linejoin="round" stroke-width="2"/>
  <rect id="rect962" x="10" y="20" width="2" height="8" fill="#729dec" fill-rule="evenodd" style="paint-order:normal"/>
  <rect id="rect964" x="10" y="20" width="8" height="5" ry="2.5" fill="#729dec" fill-rule="evenodd" style="paint-order:normal"/>
  <rect id="rect966" x="10" y="23" width="8" height="5" ry="2.5" fill="#729dec" fill-rule="evenodd" style="paint-order:normal"/>
  <rect id="rect968" x="12" y="22" width="4" height="1" ry=".5" fill="#4e4e4e" fill-rule="evenodd" style="paint-order:normal"/>
  <rect id="rect970" x="12" y="25" width="4" height="1" ry=".5" fill="#4e4e4e" fill-rule="evenodd" style="paint-order:normal"/>
 </g>
</svg>
