<?xml version="1.0" encoding="UTF-8"?>
<!-- Created with Inkscape (http://www.inkscape.org/) -->
<svg id="SVGRoot" width="48px" height="48px" version="1.1" viewBox="0 0 48 48" xmlns="http://www.w3.org/2000/svg" xmlns:cc="http://creativecommons.org/ns#" xmlns:dc="http://purl.org/dc/elements/1.1/" xmlns:rdf="http://www.w3.org/1999/02/22-rdf-syntax-ns#" xmlns:xlink="http://www.w3.org/1999/xlink">
 <defs id="defs815">
  <style id="style819">.cls-1{fill:none;stroke:#fff;stroke-linecap:round;stroke-linejoin:round;}</style>
  <style id="style819-2">.cls-1{fill:none;stroke:#fff;stroke-linecap:round;stroke-linejoin:round;}</style>
  <style id="style819-3">.cls-1{fill:none;stroke:#fff;stroke-linecap:round;stroke-linejoin:round;}</style>
  <style id="style819-36">.cls-1{fill:none;stroke:#fff;stroke-linecap:round;stroke-linejoin:round;}</style>
  <style id="style2">.a{fill:none;stroke:#b1b5bd;stroke-linecap:round;stroke-linejoin:round;isolation:isolate;opacity:0.63;}</style>
  <style id="style819-5">.cls-1{fill:none;stroke:#fff;stroke-linecap:round;stroke-linejoin:round;}</style>
  <style id="style819-9">.cls-1{fill:none;stroke:#fff;stroke-linecap:round;stroke-linejoin:round;}</style>
 </defs>
 <metadata id="metadata818">
  <rdf:RDF>
   <cc:Work rdf:about="">
    <dc:format>image/svg+xml</dc:format>
    <dc:type rdf:resource="http://purl.org/dc/dcmitype/StillImage"/>
    <dc:title/>
   </cc:Work>
  </rdf:RDF>
 </metadata>
 <g id="layer1">
  <rect id="rect1373" x="4" y="4" width="40" height="40" ry="8" fill="#392121" fill-rule="evenodd" style="paint-order:stroke fill markers"/>
  <path id="rect1185" d="m6 32v4c0 3.324 2.676 6 6 6h24c3.324 0 6-2.676 6-6v-4h-36z" fill="#9f2b1c" fill-rule="evenodd" opacity=".4" style="paint-order:stroke fill markers"/>
  <path id="rect817" d="m12 4c-4.432 0-8 3.568-8 8v24c0 4.432 3.568 8 8 8h24c4.432 0 8-3.568 8-8v-24c0-4.432-3.568-8-8-8h-24zm0 1h24c3.878 0 7 3.122 7 7v24c0 3.878-3.122 7-7 7h-24c-3.878 0-7-3.122-7-7v-24c0-3.878 3.122-7 7-7z" fill-rule="evenodd" opacity=".4" style="paint-order:stroke fill markers"/>
  <rect id="rect850" x="15" y="30" width="4" height="7" fill="#663d3d" fill-rule="evenodd" style="paint-order:normal"/>
  <rect id="rect1137" x="8" y="36" width="32" height="4" rx="16" ry="2" fill-rule="evenodd" opacity=".25" style="paint-order:normal"/>
  <rect id="rect846" x="12" y="34" width="10" height="4" fill="#985959" fill-rule="evenodd" style="paint-order:normal"/>
  <rect id="rect852" x="29" y="30" width="4" height="7" fill="#663d3d" fill-rule="evenodd" style="paint-order:normal"/>
  <rect id="rect848" x="26" y="34" width="10" height="4" fill="#985959" fill-rule="evenodd" style="paint-order:normal"/>
  <rect id="rect856" x="28" y="9" width="4" height="6" fill="#e1b093" fill-rule="evenodd" style="paint-order:normal"/>
  <path id="path854-51" d="m15 29v2h4v-2zm14 0v2h4v-2z" opacity=".25"/>
  <path id="path854" d="m13 30h22l3-3v-10l-3-3h-22l-3 3v10z" fill="#895252"/>
  <rect id="rect858" x="28" y="9" width="4" height="2" fill="#fff" fill-rule="evenodd" style="paint-order:normal"/>
  <path id="path860" d="m13 19 2-2h18l2 2v6l-2 2h-18l-2-2z" fill="#201212"/>
  <rect id="rect864" x="15" y="20" width="8" height="5" ry="1" fill="#9e3636" fill-rule="evenodd" opacity=".5" style="paint-order:normal"/>
  <rect id="rect862-8" x="15.532" y="20.532" width="6.8682" height="3.8682" ry=".48978" fill="#ee6969" fill-rule="evenodd" style="paint-order:normal"/>
  <rect id="rect862" x="16" y="21" width="6" height="3" fill="#ffddd8" fill-rule="evenodd" style="paint-order:normal"/>
  <path id="path854-5" d="m13 14-3 3v1l3-3h22l3 3v-1l-3-3z" fill="#b68585" opacity=".4"/>
  <path id="path854-0" d="m10 26v1l3 3h22l3-3v-1l-3 3h-22z" fill="#b68585" opacity=".25"/>
 </g>
</svg>
