<?xml version="1.0" encoding="UTF-8"?>
<!-- Created with Inkscape (http://www.inkscape.org/) -->
<svg id="SVGRoot" width="48px" height="48px" version="1.1" viewBox="0 0 48 48" xmlns="http://www.w3.org/2000/svg" xmlns:cc="http://creativecommons.org/ns#" xmlns:dc="http://purl.org/dc/elements/1.1/" xmlns:rdf="http://www.w3.org/1999/02/22-rdf-syntax-ns#">
 <defs id="defs815">
  <style id="style819">.cls-1{fill:none;stroke:#fff;stroke-linecap:round;stroke-linejoin:round;}</style>
 </defs>
 <metadata id="metadata818">
  <rdf:RDF>
   <cc:Work rdf:about="">
    <dc:format>image/svg+xml</dc:format>
    <dc:type rdf:resource="http://purl.org/dc/dcmitype/StillImage"/>
    <dc:title/>
   </cc:Work>
  </rdf:RDF>
 </metadata>
 <g id="layer1">
  <rect id="rect1373" x="4" y="4" width="40" height="40" ry="8" fill="#96d56b" fill-rule="evenodd" style="paint-order:stroke fill markers"/>
  <path id="rect817" d="m12 4c-4.432 0-8 3.568-8 8v24c0 4.432 3.568 8 8 8h24c4.432 0 8-3.568 8-8v-24c0-4.432-3.568-8-8-8h-24zm0 1h24c3.878 0 7 3.122 7 7v24c0 3.878-3.122 7-7 7h-24c-3.878 0-7-3.122-7-7v-24c0-3.878 3.122-7 7-7z" fill-rule="evenodd" opacity=".3" style="paint-order:stroke fill markers"/>
  <rect id="rect954" x="14" y="6" width="20" height="36" fill="#c29656" fill-rule="evenodd" style="paint-order:stroke fill markers"/>
  <path id="path827-4" d="m16 34 8-9 8 9" fill="none" stroke="#fff" stroke-linecap="round" stroke-linejoin="round" stroke-width="12"/>
  <path id="path827" d="m16 34 8-9 8 9" fill="none" stroke="#dd5c89" stroke-linecap="round" stroke-linejoin="round" stroke-width="8"/>
  <rect id="rect844" x="10" y="10" width="28" height="28" ry="14" fill="#627ad4" fill-rule="evenodd" style="paint-order:stroke fill markers"/>
  <rect id="rect818" x="16" y="18" width="7" height="12" ry="3.5" fill="#fff" fill-rule="evenodd" style="paint-order:stroke fill markers"/>
  <rect id="rect823" x="19" y="21" width="3" height="5" ry="1.5" fill="#56595b" fill-rule="evenodd" style="paint-order:stroke fill markers"/>
  <rect id="rect818-4" transform="scale(-1,1)" x="-32" y="18" width="7" height="12" ry="3.5" fill="#fff" fill-rule="evenodd" style="paint-order:stroke fill markers"/>
  <rect id="rect823-4" transform="scale(-1,1)" x="-29" y="21" width="3" height="5" ry="1.5" fill="#56595b" fill-rule="evenodd" style="paint-order:stroke fill markers"/>
 </g>
</svg>
