<?xml version="1.0" encoding="UTF-8"?>
<!-- Created with Inkscape (http://www.inkscape.org/) -->
<svg id="SVGRoot" width="48px" height="48px" version="1.1" viewBox="0 0 48 48" xmlns="http://www.w3.org/2000/svg" xmlns:cc="http://creativecommons.org/ns#" xmlns:dc="http://purl.org/dc/elements/1.1/" xmlns:rdf="http://www.w3.org/1999/02/22-rdf-syntax-ns#">
 <defs id="defs815">
  <style id="style819">.cls-1{fill:none;stroke:#fff;stroke-linecap:round;stroke-linejoin:round;}</style>
 </defs>
 <metadata id="metadata818">
  <rdf:RDF>
   <cc:Work rdf:about="">
    <dc:format>image/svg+xml</dc:format>
    <dc:type rdf:resource="http://purl.org/dc/dcmitype/StillImage"/>
    <dc:title/>
   </cc:Work>
  </rdf:RDF>
 </metadata>
 <g id="layer1">
  <rect id="rect1373-5" x="4" y="4" width="40" height="40" ry="8" fill="#ffd34e" fill-rule="evenodd" style="paint-order:stroke fill markers"/>
  <rect id="rect953" x="6" y="30" width="36" height="12" ry="6" fill="#ce9734" fill-rule="evenodd" style="paint-order:normal"/>
  <path id="rect880" d="m10 8c-1.108 0-2 0.892-2 2v8h32v-8c0-1.108-0.892-2-2-2z" fill="#4e4e4e" fill-rule="evenodd" style="paint-order:normal"/>
  <rect id="rect862" x="10" y="18" width="1" height="15" fill-rule="evenodd" opacity=".3" style="paint-order:normal"/>
  <rect id="rect864" x="37" y="18" width="1" height="15" fill-rule="evenodd" opacity=".3" style="paint-order:normal"/>
  <path id="path876" d="m14 16v8s3 1 4 4h12c1-3 4-4 4-4v-8z" fill="#4e4e4e"/>
  <rect id="rect898" x="5" y="17" width="38" height="1" fill-rule="evenodd" opacity=".3" style="paint-order:normal"/>
  <rect id="rect946" x="14" y="21" width="6" height="3" fill-rule="evenodd" opacity=".4" style="paint-order:normal"/>
  <rect id="rect948" x="27" y="21" width="7" height="3" fill-rule="evenodd" opacity=".4" style="paint-order:normal"/>
  <rect id="rect843" x="8" y="32" width="32" height="8" ry="4" fill="#4e4e4e" fill-rule="evenodd" style="paint-order:normal"/>
  <rect id="rect845" x="10" y="34" width="4" height="4" ry="2" fill="#fff" fill-rule="evenodd" style="paint-order:normal"/>
  <rect id="rect845-7" x="34" y="34" width="4" height="4" ry="2" fill="#fff" fill-rule="evenodd" style="paint-order:normal"/>
  <path id="rect817" d="m12 4c-4.432 0-8 3.568-8 8v24c0 4.432 3.568 8 8 8h24c4.432 0 8-3.568 8-8v-24c0-4.432-3.568-8-8-8h-24zm0 1h24c3.878 0 7 3.122 7 7v24c0 3.878-3.122 7-7 7h-24c-3.878 0-7-3.122-7-7v-24c0-3.878 3.122-7 7-7z" fill-rule="evenodd" opacity=".3" style="paint-order:stroke fill markers"/>
 </g>
</svg>
