<?xml version="1.0" encoding="UTF-8"?>
<!-- Created with Inkscape (http://www.inkscape.org/) -->
<svg id="SVGRoot" width="48px" height="48px" version="1.1" viewBox="0 0 48 48" xmlns="http://www.w3.org/2000/svg" xmlns:cc="http://creativecommons.org/ns#" xmlns:dc="http://purl.org/dc/elements/1.1/" xmlns:rdf="http://www.w3.org/1999/02/22-rdf-syntax-ns#">
 <defs id="defs815">
  <style id="style819">.cls-1{fill:none;stroke:#fff;stroke-linecap:round;stroke-linejoin:round;}</style>
 </defs>
 <metadata id="metadata818">
  <rdf:RDF>
   <cc:Work rdf:about="">
    <dc:format>image/svg+xml</dc:format>
    <dc:type rdf:resource="http://purl.org/dc/dcmitype/StillImage"/>
    <dc:title/>
   </cc:Work>
  </rdf:RDF>
 </metadata>
 <g id="layer1">
  <rect id="rect1373" x="4" y="4" width="40" height="40" ry="8" fill="#634949" fill-rule="evenodd" style="paint-order:stroke fill markers"/>
  <path id="rect817" d="m12 4c-4.432 0-8 3.568-8 8v24c0 4.432 3.568 8 8 8h24c4.432 0 8-3.568 8-8v-24c0-4.432-3.568-8-8-8h-24zm0 1h24c3.878 0 7 3.122 7 7v24c0 3.878-3.122 7-7 7h-24c-3.878 0-7-3.122-7-7v-24c0-3.878 3.122-7 7-7z" fill-rule="evenodd" opacity=".4" style="paint-order:stroke fill markers"/>
  <path id="path894" d="m24.499 13.744c-3.5574 0.02779-10.139 2.9338-9.8424 9.5794 0.06108 1.3687 0.5392 3.0339 0.69549 3.6986 0.09245 0.39329-0.90465-0.16866-1.1459 0.15544-0.41398 0.55625 0.56545 2.2824 1.4229 3.0689 0.36631 0.33601 0.21684 0.983 0.44838 1.4229 0.23594 0.44823 0.45494 1.0409 0.93662 1.1977 0.60447 0.19673 1.1946 0.04596 1.8334-0.52411 0.5571-0.49716 0.87362-1.0947 1.9828-1.0721 0.5136 0.01046 0.90665 0.02424 0.95056 0.53606 0.05858 0.68285-0.19106 1.1583-0.01395 1.7337 0.12465 0.405 0.5439 1.0249 0.93462 0.86089 0.35674-0.14973 0.07545-0.82836 0.27501-1.1598 0.15562-0.25847 0.34862-0.43447 0.57592-0.37066 0.25448 0.07144-0.0993 0.5205 0.23515 0.66958 0.48338 0.21546 1.5457-0.52701 1.5703-0.22519 0.0151 0.18474-0.74243 0.3579-0.82303 0.71143-0.06954 0.30502 0.07245 0.77997 0.37465 0.86089 0.43242 0.11579 0.45748-0.06167 0.55599-0.18932 0.16167-0.20948 0.3802 0.41724 0.64168 0.37664 0.40244-0.06248 0.5271-0.6803 0.56197-1.0861 0.02128-0.24763-0.22519-0.71143-0.22519-0.71143s0.3718 0.35746 0.46432 0.68154c0.1148 0.40211 0.11202 0.78029 0.3587 0.85292 0.26244 0.07727 0.56112-0.28916 0.59983-0.55998 0.0451-0.31555-0.1948-0.50257-0.275-0.81107-0.12558-0.48305-0.01781-1.037-0.17537-1.5105-0.16542-0.49726-1.2646-0.50156-1.0921-0.9964 0.16036-0.45996 0.97945-0.45876 1.4229-0.25707 0.73137 0.33267 0.74557 1.818 1.4787 1.8294 0.40164 0.0063 0.22148-0.8391 0.51414-0.56396 0.57596 0.54146 0.79736 1.0177 1.4069 0.96651 0.61926-0.052 1.6299-0.88277 1.5006-1.4906-0.20802-0.97809-0.36667-1.5464-0.36667-1.5464s1.6721-0.53886 1.4986-2.1323c-0.04206-0.38621-0.56592-0.62206-0.6377-1.0841-0.20098-1.2937 0.94459-3.2814-0.24312-6.8871-1.1441-3.4733-6.2271-6.0412-8.3996-6.0242zm2.9095 11.742c0.16421 0.02817 0.32668 0.13672 0.49621 0.16341 0.4154 0.06539 0.78903-0.17505 1.1917-0.0538 0.93809 0.28247 2.0475 1.0356 2.1423 2.0107 0.05988 0.61641-0.57392 1.4164-1.0921 1.7557-0.49066 0.32124-1.6969 0.01328-1.7118 0.12355-0.03602 0.26686 0.68578 0.21922 0.68752 0.42248 0.0013 0.16084-0.53639 0.23261-0.82103 0.23914-0.26307 6e-3 -0.78684-0.07057-0.76723-0.18533 0.03998-0.23394 0.5484-0.25013 0.53009-0.47628-0.01085-0.13394-0.56743-0.34117-0.95854-0.40055-0.74281-0.11278-1.0909-1.0902-1.106-1.6899-0.01914-0.75815 0.50979-1.7132 1.2435-1.9051 0.05534-0.01447 0.11066-0.01338 0.1654-4e-3zm-7.0445 0.08369c0.65268 0.03351 1.3579 0.86413 1.666 1.0323 0.28055 0.15311 0.42191-0.59853 0.74132-0.6098 0.33508-0.01182 0.90231 0.25661 0.82103 0.5819-0.08406 0.33646-0.81306-0.13523-1.0323 0.13352-0.22363 0.27417 0.14125 0.72331-0.10562 1.3491-0.31396 0.79589-0.69532 1.4473-1.5345 1.6142-0.5843 0.11622-1.0184-0.76121-1.6142-0.76723-0.49344-5e-3 -0.86021 0.65796-1.3511 0.6078-0.43353-0.0443-0.94116-0.34745-1.0582-0.76723-0.18255-0.65488 0.32704-1.3862 0.79513-1.8792 0.68174-0.71809 1.6835-1.3461 2.6723-1.2953zm3.2801 1.4288c0.59458-0.0087 1.3707 0.37411 1.5086 0.95256 0.31608 1.3268 0.62076 2.0891 0.18533 2.778-0.2551 0.40358-0.93042-0.35943-1.4029-0.29095-0.40616 0.05886-0.76028 0.83406-1.0841 0.5819-0.25824-0.2011 0.3899-0.66308 0.23714-0.95256-0.11852-0.22461-0.80846-0.02954-0.71342-0.26504 0.42492-1.053 1.0272-2.8003 1.2694-2.8039zm2.9872 9.1988c-0.2571-0.0052-0.49379 0.15824-0.74929 0.18732-0.2098 0.02388-0.44244 0.03829-0.41052 0.50418 0.01781 0.26 0.02118 0.71084 0.28098 0.73136 0.77805 0.06144 0.52536-1.1537 0.72936-1.0861 0.51132 0.16954-0.18536 1.2146 0.33678 1.3471 0.58927 0.14952 0.8467-0.24183 1.0183-0.68552 0.09714-0.25114-0.08047-0.64396-0.31885-0.73335-0.35296-0.13236-0.50991-0.25749-0.8868-0.26504zm-2.2359 0.44639c-0.0332 0.0085-0.06083 0.0279-0.08369 0.05979-0.09095 0.1268-0.10491 0.5044 0 0.91669 0.06341 0.24921 0.6689-0.04697 0.70944-0.30091 0.0433-0.27123-0.39331-0.73452-0.62574-0.67556zm2.0665 1.7995c-0.42986-0.02909-0.81705 0.17278-1.1977 0.37464-0.36953 0.19598-0.59678-0.20218-0.7473 0.01794-0.13365 0.19543 0.22188 0.78611 1.0283 0.86089 0.3055 0.02833 0.57626-0.24383 0.88082-0.28099 0.62182-0.07587 1.1906 0.42774 1.5524 0.14946 0.30367-0.2336 0.01656-1.0182-1.5165-1.1219z" fill="#dbcfcf"/>
  <path id="path877" d="m6.8281 7.2852c-0.76909 0.84353-1.3298 1.8748-1.6133 3.0215l5.2852 5.6934-0.5 3-5-2.5v3.834l5 1.666v4l-5 0.83398v3l5-0.83398 0.5 5-5.373 3.3066c0.15865 0.84557 0.46849 1.6342 0.90039 2.3418l6.9727-4.6484s-1-6.65-1-10c0-7 1-10 1-10l-6.1719-7.7148zm34.344 0-6.1719 7.7148s1 3 1 10c0 3.35-1 10-1 10l6.9727 4.6484c0.4319-0.70755 0.74174-1.4962 0.90039-2.3418l-5.373-3.3066 0.5-5 5 0.83398v-3l-5-0.83398v-4l5-1.666v-3.834l-5 2.5-0.5-3 5.2852-5.6934c-0.28347-1.1467-0.84419-2.178-1.6133-3.0215z" opacity=".3"/>
 </g>
</svg>
