<?xml version="1.0" encoding="UTF-8"?>
<!-- Created with Inkscape (http://www.inkscape.org/) -->
<svg id="SVGRoot" width="48px" height="48px" version="1.1" viewBox="0 0 48 48" xml:space="preserve" xmlns="http://www.w3.org/2000/svg" xmlns:cc="http://creativecommons.org/ns#" xmlns:dc="http://purl.org/dc/elements/1.1/" xmlns:rdf="http://www.w3.org/1999/02/22-rdf-syntax-ns#"><defs><style>.cls-1{fill:none;stroke:#fff;stroke-linecap:round;stroke-linejoin:round;}</style><style>.cls-1{fill:none;stroke:#fff;stroke-linecap:round;stroke-linejoin:round;}</style><style>.a{fill:none;stroke:#b1b5bd;stroke-linecap:round;stroke-linejoin:round;isolation:isolate;opacity:0.63;}</style><style>.cls-1{fill:none;stroke:#fff;stroke-linecap:round;stroke-linejoin:round;}</style><style>.cls-1{fill:none;stroke:#fff;stroke-linecap:round;stroke-linejoin:round;}</style><style>.cls-1{fill:none;stroke:#fff;stroke-linecap:round;stroke-linejoin:round;}</style><style>.cls-1{fill:none;stroke:#fff;stroke-linecap:round;stroke-linejoin:round;}</style><style>.cls-1{fill:none;stroke:#fff;stroke-linecap:round;stroke-linejoin:round;}</style><style>.cls-1{fill:none;stroke:#fff;stroke-linecap:round;stroke-linejoin:round;}</style><style>.cls-1{fill:none;stroke:#fff;stroke-linecap:round;stroke-linejoin:round;}</style><style>.a{fill:none;stroke:#b1b5bd;stroke-linecap:round;stroke-linejoin:round;isolation:isolate;opacity:0.63;}</style><style>.cls-1{fill:none;stroke:#fff;stroke-linecap:round;stroke-linejoin:round;}</style><style>.cls-1{fill:none;stroke:#fff;stroke-linecap:round;stroke-linejoin:round;}</style><style>.a{fill:none;stroke:#b1b5bd;stroke-linecap:round;stroke-linejoin:round;isolation:isolate;opacity:0.63;}</style><style>.cls-1{fill:none;stroke:#fff;stroke-linecap:round;stroke-linejoin:round;}</style></defs><metadata><rdf:RDF><cc:Work rdf:about=""><dc:format>image/svg+xml</dc:format><dc:type rdf:resource="http://purl.org/dc/dcmitype/StillImage"/></cc:Work></rdf:RDF></metadata><rect x="4" y="4" width="40" height="40" ry="8" fill="#6e2219" fill-rule="evenodd" style="paint-order:stroke fill markers"/><path d="m13 21s-5 1-6 6c-0.41345 2.0672 3.6146 6.5894 2 6-0.9891-0.36104-2.082-1.3974-3-2.4336v5.4336c0 3.324 2.676 6 6 6h24c3.324 0 6-2.676 6-6v-3.5469c-0.74244 1.6642-1.3719 3.0206-2.3926 2.2793-2.2885-1.6622-1.2527-4.5424-1.9473-6.4473-1.4547-3.9895-5.6602-4.2852-5.6602-4.2852s2.2915 3.2288 2 5c-0.68028 4.1329-4.1517 7.1348-6.8008 5.5527-1.4593-0.87146-2.3158-4.2266-1.6797-5.8027 1.5559-3.8554-7.5195-3.75-7.5195-3.75s2.6296 2.4906 1.9277 4.3574c-0.66359 1.765-1.0435 3.5702-2.9277 3.6426-3.0709 0.11794-4.0312-2.7864-4.8516-5.748-0.56275-2.0317 0.85156-6.252 0.85156-6.252z" opacity=".4"/><path d="m12 4c-4.432 0-8 3.568-8 8v24c0 4.432 3.568 8 8 8h24c4.432 0 8-3.568 8-8v-24c0-4.432-3.568-8-8-8zm0 1h24c3.878 0 7 3.122 7 7v24c0 3.878-3.122 7-7 7h-24c-3.878 0-7-3.122-7-7v-24c0-3.878 3.122-7 7-7z" fill-rule="evenodd" opacity=".4" style="paint-order:stroke fill markers"/><path d="m12.557 10.104a1.0001 1.0001 0 0 0-0.52734 1.1387l1.5957 6.3828-2.3828-0.5957a1.0001 1.0001 0 0 0-1.0742 1.5254l2.5645 3.8477-1.4902-0.37305a1.0001 1.0001 0 0 0-1.1699 1.3418s0.54491 1.3769 1.6465 2.7539 2.8646 2.875 5.2812 2.875c1.6265 0 3 1.5915 3 3 0-0.08333-0.06139 0.26899-0.22656 0.64062-0.16517 0.37163-0.40276 0.81859-0.64258 1.2383-0.47964 0.83938-0.96289 1.5664-0.96289 1.5664a1.0001 1.0001 0 0 0 1.1484 1.5039l2.2754-0.75977 1.5762 2.3652a1.0001 1.0001 0 0 0 1.6641 0l1.5762-2.3652 2.2754 0.75977a1.0001 1.0001 0 0 0 1.1484-1.5039s-0.48324-0.72703-0.96289-1.5664c-0.23982-0.41969-0.47741-0.86665-0.64258-1.2383-0.16517-0.37163-0.22656-0.72396-0.22656-0.64062 0-1.4085 1.3735-3 3-3 2.4167 0 4.1797-1.498 5.2812-2.875s1.6465-2.7539 1.6465-2.7539a1.0001 1.0001 0 0 0-1.1699-1.3418l-1.4902 0.37305 2.5645-3.8477a1.0001 1.0001 0 0 0-1.0742-1.5254l-2.3828 0.5957 1.5957-6.3828a1.0001 1.0001 0 0 0-1.752-0.86719s-0.95759 1.1956-2.2656 2.3848c-1.1851 1.0774-2.6323 1.9416-3.6074 2.1133-0.9323-1.2026-1.8748-2.0057-2.6484-2.3926-0.90901-0.4545-1.6973-0.48047-1.6973-0.48047s-0.78826 0.02596-1.6973 0.48047c-0.77366 0.38683-1.7161 1.19-2.6484 2.3926-0.97515-0.17165-2.4223-1.0359-3.6074-2.1133-1.308-1.1891-2.2656-2.3848-2.2656-2.3848a1.0001 1.0001 0 0 0-1.2246-0.27148zm11.443 3.8965s0.21174-0.02596 0.80273 0.26953c0.59099 0.2955 1.4506 0.91316 2.3652 2.2852a1.0001 1.0001 0 0 0 0.83203 0.44531c1.9825 0 3.7098-1.3551 5.125-2.627l-1.0957 4.3848a1.0001 1.0001 0 0 0 1.2129 1.2129l1.4902-0.37305-2.5645 3.8477a1.0001 1.0001 0 0 0 1.0742 1.5254l1.6699-0.41797c-0.11047 0.15766-0.064603 0.16132-0.19336 0.32227-0.89842 1.123-2.1354 2.125-3.7188 2.125-2.8247 0-5 2.4085-5 5 0 0.58333 0.18861 0.98101 0.39844 1.4531 0.11186 0.25169 0.25701 0.50178 0.39062 0.75586l-0.47266-0.1582a1.0001 1.0001 0 0 0-1.1484 0.39453l-1.168 1.752-1.168-1.752a1.0001 1.0001 0 0 0-1.1484-0.39453l-0.47266 0.1582c0.13362-0.25408 0.27876-0.50416 0.39062-0.75586 0.20983-0.47212 0.39844-0.86979 0.39844-1.4531 0-2.5915-2.1753-5-5-5-1.5833 0-2.8203-1.002-3.7188-2.125-0.12876-0.16094-0.08289-0.1646-0.19336-0.32227l1.6699 0.41797a1.0001 1.0001 0 0 0 1.0742-1.5254l-2.5645-3.8477 1.4902 0.37305a1.0001 1.0001 0 0 0 1.2129-1.2129l-1.0957-4.3848c1.4152 1.2719 3.1425 2.627 5.125 2.627a1.0001 1.0001 0 0 0 0.83203-0.44531c0.91466-1.372 1.7742-1.9897 2.3652-2.2852 0.59099-0.2955 0.80273-0.26953 0.80273-0.26953z" fill="#f68d59" stop-color="#000000" stroke-linecap="round" stroke-linejoin="round"/><path d="m21.293 19.293a1 1 0 0 0 0 1.4141l2 2a1.0001 1.0001 0 0 0 1.4141 0l2-2a1 1 0 0 0 0-1.4141 1 1 0 0 0-1.4141 0l-1.293 1.293-1.293-1.293a1 1 0 0 0-1.4141 0z" fill="#f68d59" stop-color="#000000" stroke-linecap="round" stroke-linejoin="round"/></svg>
