<?xml version="1.0" encoding="UTF-8"?>
<!-- Created with Inkscape (http://www.inkscape.org/) -->
<svg id="SVGRoot" width="48px" height="48px" version="1.1" viewBox="0 0 48 48" xmlns="http://www.w3.org/2000/svg" xmlns:cc="http://creativecommons.org/ns#" xmlns:dc="http://purl.org/dc/elements/1.1/" xmlns:rdf="http://www.w3.org/1999/02/22-rdf-syntax-ns#" xmlns:xlink="http://www.w3.org/1999/xlink">
 <defs id="defs815">
  <style id="style819">.cls-1{fill:none;stroke:#fff;stroke-linecap:round;stroke-linejoin:round;}</style>
  <style id="style2">.a{fill:none;stroke:#b1b5bd;stroke-linecap:round;stroke-linejoin:round;isolation:isolate;opacity:0.63;}</style>
  <style id="style2-5">.a{fill:none;stroke:#b1b5bd;stroke-linecap:round;stroke-linejoin:round;isolation:isolate;opacity:0.63;}</style>
 </defs>
 <metadata id="metadata818">
  <rdf:RDF>
   <cc:Work rdf:about="">
    <dc:format>image/svg+xml</dc:format>
    <dc:type rdf:resource="http://purl.org/dc/dcmitype/StillImage"/>
    <dc:title/>
   </cc:Work>
  </rdf:RDF>
 </metadata>
 <g id="layer1">
  <rect id="rect1373-5" x="4" y="4" width="40" height="40" ry="8" fill="#b072dd" fill-rule="evenodd" style="paint-order:stroke fill markers"/>
  <g id="layer1-0" transform="matrix(1.2226 0 0 1.2226 -5.3299 -4.0611)">
   <path id="path830" d="m33.205 22.037s0.09992 1.7132 1.095 1.6923c1.2095-0.02544 0.57238-1.8416 0.57238-1.8416s-1.718-8.5581-10.552-8.5608c-5.3911-0.0017-10.971 3.3337-11.348 10.004-0.26952 4.7664 3.6856 9.3774 9.407 9.5065 3.8004 0.08577 8.7191-2.4847 8.8097-7.2419 0.09281-4.8749-2.6909-8.7993-7.4658-8.735-4.518 0.06083-6.9929 3.5436-6.9183 6.769 0.07864 3.4012 2.1525 5.1867 4.8528 5.5496 1.6412 0.22055 5.3281-1.0695 5.7985-3.1854 0.75378-3.3909-1.3136-5.1942-3.4841-5.5496-2.5674-0.42043-3.8184 1.0588-3.9569 2.6379-0.1556 1.7739 1.4265 2.5163 1.8416 2.6628 0.46994 0.16583 1.4932 0.07466 1.4932 0.07466s0.91818-0.03738 0.79636-0.74658c-0.1349-0.78538-0.99544-0.49772-0.99544-0.49772s-1.8846 0.08348-1.6923-1.3936c0.10409-0.79957 0.64508-1.6065 1.9411-1.4434 1.3745 0.17293 2.6518 1.2078 2.5384 3.3099-0.09196 1.7042-1.3717 2.8395-4.6039 2.7126-1.754-0.06885-3.1832-2.476-3.1357-4.2306 0.07147-2.6405 2.11-5.3083 5.3505-5.251 3.2358 0.05726 6.2413 2.6826 6.0224 7.6152-0.1587 3.5763-4.1085 5.4381-7.0677 5.3754-5.437-0.11517-7.9644-4.4405-7.8391-7.7645 0.22728-6.0317 5.047-8.7777 9.3074-8.7599 7.2776 0.0304 9.2328 7.2916 9.2328 7.2916z" fill="#fff" stroke-width=".5309"/>
  </g>
  <path id="rect817" d="m12 4c-4.432 0-8 3.568-8 8v24c0 4.432 3.568 8 8 8h24c4.432 0 8-3.568 8-8v-24c0-4.432-3.568-8-8-8h-24zm0 1h24c3.878 0 7 3.122 7 7v24c0 3.878-3.122 7-7 7h-24c-3.878 0-7-3.122-7-7v-24c0-3.878 3.122-7 7-7z" fill-rule="evenodd" opacity=".3" style="paint-order:stroke fill markers"/>
 </g>
</svg>
