<?xml version="1.0" encoding="UTF-8"?>
<!-- Created with Inkscape (http://www.inkscape.org/) -->
<svg id="SVGRoot" width="48px" height="48px" version="1.1" viewBox="0 0 48 48" xmlns="http://www.w3.org/2000/svg" xmlns:cc="http://creativecommons.org/ns#" xmlns:dc="http://purl.org/dc/elements/1.1/" xmlns:rdf="http://www.w3.org/1999/02/22-rdf-syntax-ns#" xmlns:xlink="http://www.w3.org/1999/xlink">
 <defs id="defs815">
  <style id="style819">.cls-1{fill:none;stroke:#fff;stroke-linecap:round;stroke-linejoin:round;}</style>
  <style id="style2">.a{fill:none;stroke:#b1b5bd;stroke-linecap:round;stroke-linejoin:round;isolation:isolate;opacity:0.63;}</style>
  <style id="style2-5">.a{fill:none;stroke:#b1b5bd;stroke-linecap:round;stroke-linejoin:round;isolation:isolate;opacity:0.63;}</style>
 </defs>
 <metadata id="metadata818">
  <rdf:RDF>
   <cc:Work rdf:about="">
    <dc:format>image/svg+xml</dc:format>
    <dc:type rdf:resource="http://purl.org/dc/dcmitype/StillImage"/>
    <dc:title/>
   </cc:Work>
  </rdf:RDF>
 </metadata>
 <g id="layer1">
  <rect id="rect1373-5" x="4" y="4" width="40" height="40" ry="8" fill="#96d56b" fill-rule="evenodd" style="paint-order:stroke fill markers"/>
  <path id="path861" d="m9 36c-0.94281 0-1.7082-0.5261-2.2363-1.1113s-0.91046-1.2636-1.2676-1.8965c-0.35712-0.63286-0.69025-1.2225-0.98047-1.582-0.29022-0.35956-0.43229-0.41016-0.51562-0.41016v-2c0.91667 0 1.6058 0.5744 2.0723 1.1523 0.46649 0.57794 0.81581 1.2383 1.1641 1.8555 0.34825 0.61714 0.69384 1.1887 1.0117 1.541 0.31788 0.35227 0.51625 0.45117 0.75195 0.45117 0.2357 0 0.38985-0.08191 0.67969-0.42578 0.28984-0.34387 0.60517-0.91602 0.93555-1.541 0.33037-0.625 0.67543-1.3029 1.1758-1.8965 0.50035-0.59363 1.2662-1.1367 2.209-1.1367s1.7086 0.54309 2.209 1.1367c0.50035 0.59363 0.84541 1.2715 1.1758 1.8965 0.33037 0.625 0.64571 1.1971 0.93555 1.541 0.28984 0.34387 0.44399 0.42578 0.67969 0.42578s0.38985-0.08191 0.67969-0.42578c0.28984-0.34387 0.60517-0.91602 0.93555-1.541 0.33037-0.625 0.67543-1.3029 1.1758-1.8965 0.50035-0.59363 1.2662-1.1367 2.209-1.1367s1.7086 0.54309 2.209 1.1367c0.50035 0.59363 0.84541 1.2715 1.1758 1.8965 0.33037 0.625 0.64571 1.1971 0.93555 1.541 0.28984 0.34387 0.44399 0.42578 0.67969 0.42578s0.38985-0.08191 0.67969-0.42578c0.28984-0.34387 0.60517-0.91602 0.93555-1.541 0.33037-0.625 0.67543-1.3029 1.1758-1.8965 0.50035-0.59363 1.2662-1.1367 2.209-1.1367s1.7086 0.54309 2.209 1.1367c0.50035 0.59363 0.84541 1.2715 1.1758 1.8965s0.64571 1.1971 0.93555 1.541c0.28984 0.34387 0.44399 0.42578 0.67969 0.42578s0.43407-0.0989 0.75195-0.45117c0.31788-0.35227 0.66347-0.92388 1.0117-1.541 0.34825-0.61714 0.69757-1.2775 1.1641-1.8555 0.46649-0.57794 1.1556-1.1523 2.0723-1.1523v2c-0.08333 0-0.2254 0.0506-0.51562 0.41016-0.29022 0.35956-0.62335 0.94917-0.98047 1.582-0.35712 0.63286-0.73949 1.3113-1.2676 1.8965-0.52809 0.58523-1.2935 1.1113-2.2363 1.1113s-1.7086-0.54309-2.209-1.1367c-0.50035-0.59363-0.84541-1.2715-1.1758-1.8965s-0.64571-1.1971-0.93555-1.541c-0.28984-0.34387-0.44399-0.42578-0.67969-0.42578s-0.38985 0.08191-0.67969 0.42578c-0.28983 0.34387-0.60517 0.91602-0.93555 1.541s-0.67543 1.3029-1.1758 1.8965c-0.50035 0.59363-1.2662 1.1367-2.209 1.1367s-1.7086-0.54309-2.209-1.1367c-0.50035-0.59363-0.84541-1.2715-1.1758-1.8965-0.33037-0.625-0.64571-1.1971-0.93555-1.541-0.28984-0.34387-0.44399-0.42578-0.67969-0.42578s-0.38985 0.08191-0.67969 0.42578c-0.28984 0.34387-0.60517 0.91602-0.93555 1.541-0.33037 0.625-0.67543 1.3029-1.1758 1.8965-0.50035 0.59363-1.2662 1.1367-2.209 1.1367s-1.7086-0.54309-2.209-1.1367c-0.50035-0.59363-0.84541-1.2715-1.1758-1.8965-0.33037-0.625-0.64571-1.1971-0.93555-1.541-0.28984-0.34387-0.44399-0.42578-0.67969-0.42578s-0.38985 0.08191-0.67969 0.42578c-0.28984 0.34387-0.60517 0.91602-0.93555 1.541-0.33037 0.625-0.67543 1.3029-1.1758 1.8965-0.50035 0.59363-1.2662 1.1367-2.209 1.1367z" color="#000000" color-rendering="auto" dominant-baseline="auto" fill="#26493f" image-rendering="auto" shape-rendering="auto" solid-color="#000000" style="font-feature-settings:normal;font-variant-alternates:normal;font-variant-caps:normal;font-variant-ligatures:normal;font-variant-numeric:normal;font-variant-position:normal;isolation:auto;mix-blend-mode:normal;shape-padding:0;text-decoration-color:#000000;text-decoration-line:none;text-decoration-style:solid;text-indent:0;text-orientation:mixed;text-transform:none;white-space:normal"/>
  <path id="rect817" d="m12 4c-4.432 0-8 3.568-8 8v24c0 4.432 3.568 8 8 8h24c4.432 0 8-3.568 8-8v-24c0-4.432-3.568-8-8-8h-24zm0 1h24c3.878 0 7 3.122 7 7v24c0 3.878-3.122 7-7 7h-24c-3.878 0-7-3.122-7-7v-24c0-3.878 3.122-7 7-7z" fill-rule="evenodd" opacity=".3" style="paint-order:stroke fill markers"/>
  <rect id="rect923" x="8" y="14" width="32" height="12" ry="6" fill="#5ca287" fill-rule="evenodd" style="paint-order:normal"/>
  <rect id="rect818" x="10" y="2" width="15" height="24" ry="7.5" fill="#fff" fill-rule="evenodd" style="paint-order:normal"/>
  <rect id="rect818-7" x="23" y="2" width="15" height="24" ry="7.5" fill="#fff" fill-rule="evenodd" style="paint-order:normal"/>
  <path id="rect818-3" d="m17.5 2c-4.155 0-7.5 3.345-7.5 7.5v9c0 4.155 3.345 7.5 7.5 7.5 2.7887 0 5.2075-1.5107 6.5-3.7578 1.2925 2.2471 3.7113 3.7578 6.5 3.7578 4.155 0 7.5-3.345 7.5-7.5v-9c0-4.155-3.345-7.5-7.5-7.5-2.7887 0-5.2075 1.5107-6.5 3.7578-1.2925-2.2471-3.7113-3.7578-6.5-3.7578zm0 1c2.4275 0 4.5125 1.3082 5.6328 3.2559a1.0001 1.0001 0 0 0 1.7344 0c1.1203-1.9477 3.2053-3.2559 5.6328-3.2559 3.6183 0 6.5 2.8817 6.5 6.5v9c0 3.6183-2.8817 6.5-6.5 6.5-2.4275 0-4.5125-1.3082-5.6328-3.2559a1.0001 1.0001 0 0 0-1.7344 0c-1.1203 1.9476-3.2053 3.2559-5.6328 3.2559-3.6183 0-6.5-2.8817-6.5-6.5v-9c0-3.6183 2.8817-6.5 6.5-6.5z" color="#000000" color-rendering="auto" dominant-baseline="auto" fill-rule="evenodd" image-rendering="auto" opacity=".25" shape-rendering="auto" solid-color="#000000" style="font-feature-settings:normal;font-variant-alternates:normal;font-variant-caps:normal;font-variant-ligatures:normal;font-variant-numeric:normal;font-variant-position:normal;isolation:auto;mix-blend-mode:normal;paint-order:normal;shape-padding:0;text-decoration-color:#000000;text-decoration-line:none;text-decoration-style:solid;text-indent:0;text-orientation:mixed;text-transform:none;white-space:normal"/>
  <rect id="rect966" x="15" y="13" width="6" height="6" ry="3" fill="#362b62" fill-rule="evenodd" style="paint-order:normal"/>
  <rect id="rect968" x="27" y="13" width="6" height="6" ry="3" fill="#362b62" fill-rule="evenodd" style="paint-order:normal"/>
  <rect id="rect970" x="27" y="13" width="3" height="3" ry="1.5" fill="#fff" fill-rule="evenodd" style="paint-order:normal"/>
  <rect id="rect972" x="15" y="13" width="3" height="3" ry="1.5" fill="#fff" fill-rule="evenodd" style="paint-order:normal"/>
  <rect id="rect974" x="19" y="17" width="2" height="2" ry="1" fill="#fff" fill-rule="evenodd" style="paint-order:normal"/>
  <rect id="rect976" x="31" y="17" width="2" height="2" ry="1" fill="#fff" fill-rule="evenodd" style="paint-order:normal"/>
 </g>
</svg>
