<?xml version="1.0" encoding="UTF-8"?>
<!-- Created with Inkscape (http://www.inkscape.org/) -->
<svg id="SVGRoot" width="48px" height="48px" version="1.1" viewBox="0 0 48 48" xmlns="http://www.w3.org/2000/svg" xmlns:cc="http://creativecommons.org/ns#" xmlns:dc="http://purl.org/dc/elements/1.1/" xmlns:rdf="http://www.w3.org/1999/02/22-rdf-syntax-ns#" xmlns:xlink="http://www.w3.org/1999/xlink">
 <defs id="defs815">
  <style id="style819">.cls-1{fill:none;stroke:#fff;stroke-linecap:round;stroke-linejoin:round;}</style>
  <style id="style819-3">.cls-1{fill:none;stroke:#fff;stroke-linecap:round;stroke-linejoin:round;}</style>
 </defs>
 <metadata id="metadata818">
  <rdf:RDF>
   <cc:Work rdf:about="">
    <dc:format>image/svg+xml</dc:format>
    <dc:type rdf:resource="http://purl.org/dc/dcmitype/StillImage"/>
    <dc:title/>
   </cc:Work>
  </rdf:RDF>
 </metadata>
 <g id="layer1">
  <rect id="rect1373" x="4" y="4" width="40" height="40" ry="8" fill="#384181" fill-rule="evenodd" style="paint-order:stroke fill markers"/>
  <path id="rect817" d="m12 4c-4.432 0-8 3.568-8 8v24c0 4.432 3.568 8 8 8h24c4.432 0 8-3.568 8-8v-24c0-4.432-3.568-8-8-8h-24zm0 1h24c3.878 0 7 3.122 7 7v24c0 3.878-3.122 7-7 7h-24c-3.878 0-7-3.122-7-7v-24c0-3.878 3.122-7 7-7z" fill-rule="evenodd" opacity=".4" style="paint-order:stroke fill markers"/>
  <path id="path851" d="m8 18v7l7 4 7-4v-7z" fill="#4c59b4"/>
  <path id="path897" d="m39.4 24.354-0.40039 1.2246 3 1.6816v-1.1172l-2-1.1426-0.59961-0.64648zm-28.885 1.2109-0.51562 0.43555-4 3v1.6367l5-3.9375-0.48438-1.1348zm2.0176 1.2461-0.5332 0.45703-6 4.8848v1.6094l1 0.65234v4.9102c0.28216 0.42461 0.62158 0.8058 1 1.1445v-6.4688l-1.6699-1 6.6699-5.1543-0.4668-1.0352zm21.439 0.2207 0.027344 1.4336 8 4.3555v-1.123l-7-3.8105-1.0273-0.85547zm-19.973 0.39062v1l-5.7949 4.3672 3.6816 2.125v7.0801c0.038079 7.05e-4 0.075027 0.005859 0.11328 0.005859h0.79102v-7.7441l-2.7539-1.5898 4.9629-3.666-1-1.5781zm17 2.5781-2.0625 0.001953-0.9375 1.7305 7.4355 5.3047-1.4355 0.87891v4.084h1v-3.8926l4.0098-2.5547-8.0098-5.5527zm-8.2969 1.6152-1.7031 0.65234-6.1836 3.748 5.1836 3.3848v2.5996h1v-3.0859l-4.3867-2.627 2.123-1.2246 4.2637 2.502v4.4355h1v-4.5898l-3.459-2.1797 1.5469-0.89258 7.6973 4.4434-2.7852 2.1875v1.0312h1v-0.70117l3.2109-2.6426-7.2109-4.6562-1.2969-2.3848z" fill="#76c4f2" opacity=".25"/>
  <path id="path851-7" d="m26 18v7l7 4 7-4v-7z" fill="#4c59b4"/>
  <path id="path851-9" d="m17 23v7l7 4 7-4v-7z" fill="#4c59b4"/>
  <path id="path828-24" d="m17 23 7-4 7 4-7 4z" fill="#76c4f2"/>
  <path id="path885" d="m40 17.846-2 1.1543v2.1543l-4 2.3105v5l1-0.57812v-4l4-2.3086v4l1-0.57812zm-30 0.1543v8.0996l1 0.59961v-7.6992zm7 4.959v2l4 2.3086v5l3 1.7324v-7l-3-1.7324v1l-3-1.7324v-1zm14 0.041016-2 1.1543v3l-2-0.8457v-1l-1 0.57812v2l2 0.8457v3l3-1.7324zm-19 2.2676v2l1 0.57812v-1l1 0.57617v1l1 0.57812v-2z" fill="#4e85be"/>
  <path id="path883" d="m20 23 3-1 1-2 1 2 3 1-3 1-1 2-1-2z" fill="#fff"/>
  <path id="path828" d="m8 18 7-4 7 4-7 4z" fill="#76c4f2"/>
  <path id="path828-2" d="m26 18 7-4 7 4-7 4z" fill="#76c4f2"/>
 </g>
</svg>
