<?xml version="1.0" encoding="UTF-8"?>
<!-- Created with Inkscape (http://www.inkscape.org/) -->
<svg id="SVGRoot" width="48px" height="48px" version="1.1" viewBox="0 0 48 48" xmlns="http://www.w3.org/2000/svg" xmlns:cc="http://creativecommons.org/ns#" xmlns:dc="http://purl.org/dc/elements/1.1/" xmlns:rdf="http://www.w3.org/1999/02/22-rdf-syntax-ns#" xmlns:xlink="http://www.w3.org/1999/xlink">
 <defs id="defs815">
  <style id="style819">.cls-1{fill:none;stroke:#fff;stroke-linecap:round;stroke-linejoin:round;}</style>
  <style id="style819-2">.cls-1{fill:none;stroke:#fff;stroke-linecap:round;stroke-linejoin:round;}</style>
  <style id="style819-3">.cls-1{fill:none;stroke:#fff;stroke-linecap:round;stroke-linejoin:round;}</style>
  <style id="style819-36">.cls-1{fill:none;stroke:#fff;stroke-linecap:round;stroke-linejoin:round;}</style>
  <style id="style2">.a{fill:none;stroke:#b1b5bd;stroke-linecap:round;stroke-linejoin:round;isolation:isolate;opacity:0.63;}</style>
  <style id="style819-5">.cls-1{fill:none;stroke:#fff;stroke-linecap:round;stroke-linejoin:round;}</style>
  <style id="style819-9">.cls-1{fill:none;stroke:#fff;stroke-linecap:round;stroke-linejoin:round;}</style>
  <style id="style2-18">.a{fill:none;stroke:#b1b5bd;stroke-linecap:round;stroke-linejoin:round;isolation:isolate;opacity:0.63;}</style>
  <style id="style2-1">.a{fill:none;stroke:#b1b5bd;stroke-linecap:round;stroke-linejoin:round;isolation:isolate;opacity:0.63;}</style>
 </defs>
 <metadata id="metadata818">
  <rdf:RDF>
   <cc:Work rdf:about="">
    <dc:format>image/svg+xml</dc:format>
    <dc:type rdf:resource="http://purl.org/dc/dcmitype/StillImage"/>
    <dc:title/>
   </cc:Work>
  </rdf:RDF>
 </metadata>
 <g id="layer1">
  <rect id="rect1373" x="4" y="4" width="40" height="40" ry="8" fill="#f97263" fill-rule="evenodd" style="paint-order:stroke fill markers"/>
  <path id="rect817" d="m12 4c-4.432 0-8 3.568-8 8v24c0 4.432 3.568 8 8 8h24c4.432 0 8-3.568 8-8v-24c0-4.432-3.568-8-8-8h-24zm0 1h24c3.878 0 7 3.122 7 7v24c0 3.878-3.122 7-7 7h-24c-3.878 0-7-3.122-7-7v-24c0-3.878 3.122-7 7-7z" fill-rule="evenodd" opacity=".3" style="paint-order:stroke fill markers"/>
  <path id="path823" d="m11.207 32.806 0.97011 1.9941s-0.7656-0.46246-1.1318-0.71861c-0.231-0.16159-0.50178-0.09663-0.62877 0.07185-0.13155 0.17453-0.05984 0.5065 0.10779 0.64676 0.65253 0.54585 1.4373 1.0558 2.4792 1.7246 0.22877 0.14686 0.62934 0.09673 0.80842-0.1078 0.09468-0.10813 0.07655-0.30951 0-0.43115-0.57068-0.90683-0.88027-1.5989-0.88027-1.5989l1.8324 1.4192s-1.2392 1.5709-0.81914 2.4825c1.0244 2.223 7.5196 1.7554 10.442 1.2449 4.328-0.7561 9.5769-2.7291 11.839-5.7925 0.44544 0.38836 0.69118 0.84614 1.2195 1.4736 0.15506 0.18413 0.32125 0.49546 0.55894 0.45731 0.21805-0.03498 0.31566-0.34177 0.35568-0.55894 0.18177-0.98627 0.30487-1.6768 0.30487-1.6768s1.0747 0.7937 2.7439 1.9817c0.21109 0.15024 0.56181 0.31671 0.76218 0.15244 0.23577-0.19329 0.07729-0.6197 0-0.91462-0.71271-2.7196-1.2195-5.2337-1.2195-5.2337s2.8568-2.4661 4.9993-8.4547c0.08913-0.24911 0.14636-0.64086-0.07186-0.79046-0.28768-0.1972-0.75088 0.04967-1.006 0.28745-1.5894 1.4813-3.8086 2.551-3.8086 2.551s1.4798-5.3746 1.9507-7.6697c0.03239-0.15784 0.33195-0.29814 0.38471-0.45039 0.05771-0.16651 0.04238-0.40447-0.08983-0.52099-2.0564-1.8123-11.561-5.8208-18.123-7.0047-0.25433-0.045868-0.51962-0.065755-0.77489-0.025383-6.0381 0.95434-14.42 4.0195-17.251 6.2245-0.16798 0.13087-0.22265 0.39925-0.19055 0.60976 0.28858 1.8924 0.95275 3.8871 0.95275 3.8871s-2.4834 2.7399-5.8427 8.0667c-0.10227 0.16217-0.15058 0.43642-0.017965 0.57488 0.17606 0.1838 0.55522 0.15527 0.7635 9e-3 4.6488-3.2648 7.0332-3.1438 7.0332-3.1438s0.16985 0.7242 0.29053 1.0753c0.09953 0.28963 0.3562 0.84692 0.3562 0.84692s-3.8294 5.1692-4.3835 11.228c-0.00927 0.10138 0.049449 0.23105 0.14372 0.26946 0.1575 0.06416 0.23507-0.04107 0.30542-0.12575 1.8534-2.232 4.6351-4.0602 4.6351-4.0602z" fill="#4e4e4e" stroke-width=".99931"/>
  <path id="path825" d="m25.022 8.2479c0.20864 6.5872 1.9762 15.181 1.9762 15.181s0.09463-0.30399 0.32303-0.39523c-0.10401-1.283-0.31543-3.2772-0.55674-5.2816-0.03107-0.25812 0.12007-0.64401 0.37719-0.68263 0.23872-0.03588 0.47095 0.26694 0.52112 0.50308 0.56084 2.6409 2.7846 8.9466 2.7846 8.9466s1.3493-0.20627 2.0299-0.23373c1.3512-0.05456 3.1249-0.0631 5.0425-0.10784 0.27778-7e-3 0.84734-0.01554 0.86805 0.50308 0.01906 0.4774-0.62994 0.43108-0.90415 0.43135-2.6117 3e-3 -3.7609-7e-3 -5.5632 0-0.43615 2e-3 -1.3443-0.15956-1.3443-0.15956s0.25163 0.55362 0.42793 1.0037c0.08804 0.22478 0.1828 0.5783-0.07173 0.71876-0.37699 0.20804-0.68653-0.23552-0.89831-0.37719-1.5697-1.05-3.5753-1.0959-3.5753-1.0959s0.953 6.6422-1.0418 7.1498c-1.1085 0.28208-2.1377-2.2636-2.1377-2.2636l-0.39523-0.01806s-1.4544 2.0576-1.8327 2.1201c-0.18776 0.03108-0.52112-0.23373-0.52112-0.23373l-0.34107 0.19762s0.22761 2.1952-0.44939 2.2455c-1.3399 0.09953-3.21-3.9216-3.5028-4.8327-0.31036-0.3997-0.97003-1.1676-0.97003-1.1676l-1.4551 0.80852s1.1494 2.3921 2.1738 4.2936c0.06477 0.12022-0.01473 0.29535-0.10784 0.39523-0.70689 0.75843-1.1975 1.416-1.0242 2.1382 0.2986 1.2444 5.6519 1.1761 8.426 0.68263 4.4687-0.79495 9.1427-1.897 12.404-5.6774-0.2124-0.35521-0.29675-0.508-0.42206-0.79048-0.07301-0.16458-0.1328-0.47502 0.03562-0.53868 0.12364-0.04677 0.40959 0.24511 0.57481 0.41329 0.61585 0.62694 1.7249 1.9938 1.7249 1.9938s0.14015-1.5864 0.34107-1.8322c0.11152-0.13646 0.52112-0.08978 0.52112-0.08978s-0.80357-2.0152-1.1676-3.0359c-0.0781-0.21895-0.06062-0.37909 0.05367-0.50308 0.87015-0.94405 1.7363-2.0043 2.1548-2.5847 0.1764-0.24462 0.35556-0.39083 0.48844-0.38596 0.19539 7e-3 0.36 0.1981 0.39818 0.38988 0.17796 0.89439 0.53381 2.1675 0.53381 2.1675s2.2003-2.23 3.7724-6.4673c-1.0736 0.96314-3.8753 2.4902-4.5092 2.8383-0.06904 0.03787-0.17304 0.01476-0.23324-0.03611-0.13026-0.1099-0.12019-0.21301-0.162-0.48502 0.96466-3.0057 2.6232-9.1802 2.6232-9.1802s-6.6949-4.4592-17.39-6.6649zm-0.91587 0.089294c-3.269 0.47892-12.798 3.2148-16.335 5.764 0.13059 1.476 0.53333 3.4301 0.53333 3.4301s1.8354-2.0218 3.5488-2.4031c4.7005-1.0463 14.966 8.678 14.966 8.678l0.07612-0.12052s-2.4241-7.3492-2.7896-15.349zm-11.534 7.7374c-0.15407-6.49e-4 -0.30372 0.0072-0.44842 0.02489-2.8098 0.34329-8.0482 8.7133-8.0482 8.7133s2.5487-1.7919 5.6052-2.1738c1.3765-0.172 3.8741-0.0159 5.7398 0.43135 0.24816 0.05946 0.37369 0.28993 0.34156 0.48502-0.03134 0.19028-0.27501 0.32885-0.46745 0.34106-2.401 0.15219-4.0147 2.1109-4.0147 2.1109l2.0118 4.3208 1.2574-0.61091s-0.90568-0.82601-1.2638-1.2599c-0.12785-0.15491-0.2554-0.6161-0.09173-0.49966 0.86553 0.61593 1.9079 1.4272 1.9079 1.4272s5.3021-2.906 10.379-3.0614c0.44427-0.92072 0.92709-1.6771 0.92709-1.6771s-9.0588-8.5514-13.835-8.5719zm15.593 6.6712s0.23848 1.7436 0.2513 2.8383c0.0027 0.23532-0.3575 0.4007-0.68263 0.17956-0.24601-0.16734-0.5792-0.49234-0.5792-0.49234l-0.6109 1.0418s1.7906 0.17978 3.0584 0.67239c-0.6179-2.0262-1.4367-4.2391-1.437-4.2398zm-16.905 0.72705c-0.34249 3e-3 -0.7237 0.02694-1.2023 0.08002 0.34494 0.44105 0.51752 1.0358 0.80023 1.537 0.56246-0.68053 1.324-1.1058 2.0704-1.499-0.63312-0.07006-1.0973-0.123-1.6683-0.11808zm-0.38938 3.1786s-2.1388 2.4448-4.0904 8.9431c2.9003-3.0224 5.8945-4.8272 5.8945-4.8272l-1.8039-4.1159zm28.913 0.30496s-1.0713 1.3045-1.8801 2.0201c0 0 0.54215 1.4173 1.2194 3.6967 0.65575 0.45466 2.0196 1.4609 2.0196 1.4609s-0.8387-4.3912-1.4097-6.3516c-0.0496-0.17032 0.15224-0.39378 0.15224-0.39378l-0.10149-0.43233zm-14.838 0.30644c-2.2045 0.05496-7.0517 1.4961-9.0445 2.8203 1.3393 1.099 2.4149 1.928 4.7467 3.3165 2.1359-2.1595 2.8968-3.9408 4.2978-6.1368zm6.1121 2.8833c1.0796-4e-3 3.5613 0.55957 3.5571 1.9044-0.0055 1.7439-5.5332 3.4132-5.5332 3.4132s-1.3146 1.3522-2.1377 1.7786c-0.7597 0.3935-1.3711 0.81814-2.4792 0.66459-0.10561-0.01459-0.23885-0.15295-0.19762-0.2513 0.04194-0.10001 0.20378-0.03451 0.3235-0.03611 1.7791-0.02258 3.9116-2.3825 4.2398-2.874 1.1813-1.77 1.6358-2.7541 1.8683-4.1499 0.03151-0.18911 0.06724-0.44829 0.35913-0.44939zm-18.054 1.5107-1.0242 0.66459 2.7306 2.5695-1.7064-3.234z" fill="#79b7ea" stroke-width=".99931"/>
  <path id="path827" d="m25.53 28.102-2.0577 3.1756s0.91257 2.3658 1.7781 2.2611c0.61835-0.0747 0.27958-5.4368 0.27958-5.4368zm-8.6636 3.7327s1.4243 3.0786 2.4641 3.7095c0.20293 0.12312 0.02537-2.0074 0.02537-2.0074l-2.4895-1.702z" fill="#fff" stroke-width=".99931"/>
  <path id="path829" d="m29.697 34.655c1.7245-2.4261 1.7149-3.8743 1.7149-3.8743s0.96594 0.19707 1.6641 0.52082c-0.46843 0.08444-1.0245 0.37617-0.95274 0.54622 0.07589 0.17988 1.7911 0.01269 1.7911 0.01269s0.05755 0.23893-0.05082 0.45731c-0.17039 0.34341-0.3938 0.4319-0.3938 0.4319s-0.59656-0.08674-0.88921-0.03807c-0.47085 0.07825-1.375 0.4341-1.3338 0.52084 0.06751 0.14212 1.283 0.11433 1.283 0.11433s-0.60518 0.4374-2.8328 1.3084z" fill="#fff" stroke-width=".99931"/>
 </g>
 <style id="style817" type="text/css">.st0{fill:#FFFFFF;}</style>
 <style id="style819-0" type="text/css">.st0{fill:#FFFFFF;}</style>
</svg>
