<?xml version="1.0" encoding="UTF-8"?>
<!-- Created with Inkscape (http://www.inkscape.org/) -->
<svg id="SVGRoot" width="48px" height="48px" version="1.1" viewBox="0 0 48 48" xmlns="http://www.w3.org/2000/svg" xmlns:cc="http://creativecommons.org/ns#" xmlns:dc="http://purl.org/dc/elements/1.1/" xmlns:rdf="http://www.w3.org/1999/02/22-rdf-syntax-ns#" xmlns:xlink="http://www.w3.org/1999/xlink">
 <defs id="defs815">
  <style id="style819">.cls-1{fill:none;stroke:#fff;stroke-linecap:round;stroke-linejoin:round;}</style>
  <style id="style819-2">.cls-1{fill:none;stroke:#fff;stroke-linecap:round;stroke-linejoin:round;}</style>
  <style id="style819-3">.cls-1{fill:none;stroke:#fff;stroke-linecap:round;stroke-linejoin:round;}</style>
  <style id="style819-36">.cls-1{fill:none;stroke:#fff;stroke-linecap:round;stroke-linejoin:round;}</style>
  <style id="style2">.a{fill:none;stroke:#b1b5bd;stroke-linecap:round;stroke-linejoin:round;isolation:isolate;opacity:0.63;}</style>
  <style id="style819-5">.cls-1{fill:none;stroke:#fff;stroke-linecap:round;stroke-linejoin:round;}</style>
  <style id="style819-9">.cls-1{fill:none;stroke:#fff;stroke-linecap:round;stroke-linejoin:round;}</style>
 </defs>
 <metadata id="metadata818">
  <rdf:RDF>
   <cc:Work rdf:about="">
    <dc:format>image/svg+xml</dc:format>
    <dc:type rdf:resource="http://purl.org/dc/dcmitype/StillImage"/>
    <dc:title/>
   </cc:Work>
  </rdf:RDF>
 </metadata>
 <g id="layer1">
  <rect id="rect1373" x="4" y="4" width="40" height="40" ry="8" fill="#71b9e3" fill-rule="evenodd" style="paint-order:stroke fill markers"/>
  <path id="rect817" d="m12 4c-4.432 0-8 3.568-8 8v24c0 4.432 3.568 8 8 8h24c4.432 0 8-3.568 8-8v-24c0-4.432-3.568-8-8-8h-24zm0 1h24c3.878 0 7 3.122 7 7v24c0 3.878-3.122 7-7 7h-24c-3.878 0-7-3.122-7-7v-24c0-3.878 3.122-7 7-7z" fill-rule="evenodd" opacity=".3" style="paint-order:stroke fill markers"/>
  <path id="path828" d="m14.025 26.061c-0.98244 0-5.0024-0.86418-5.0122-4.9243-0.01222-5.0476 5.8848-9.5308 10.904-10.068 1.5246-0.16328 3.8465 0.56913 4.0889 2.2863 0.33864 2.3988-3.6536 3.3906-3.8691 5.8036-0.06947 0.7782 0.35173 1.8906 0.35173 1.8906l-1.1871 0.30777-0.43967 1.4069s-1.2554 0.53498-1.8466 1.0992c-0.96906 0.92484-1.7587 2.1104-1.7587 2.1104s0.0257 0.08793-1.2311 0.08793z" fill="#fff"/>
  <path id="path830" d="m22.159 21.444s-1.1779-1.3422-1.1431-2.1544c0.11214-2.6195 4.0728-2.5024 3.957-6.0234-0.06928-2.1072-3.8251-3.2535-3.8251-3.2535s5.3338 0.01017 9.8485 1.9345c2.5179 1.0732 5.7082 3.8274 5.9795 5.6277 0.08299 0.55089-0.42514 1.2347-0.96727 1.363-0.75922 0.17967-2.0664-1.0992-2.0664-1.0992l-1.9345 1.0992-2.0225-1.0992-1.4949 1.1431-0.96727-0.57157-0.7914 1.4949-2.638 0.2638z" fill="#fff"/>
  <path id="path832" d="m16.136 27.028c-0.35498-1.6864 3.4294-3.8691 3.4294-3.8691l0.30777-1.0992 2.5501 0.04397 1.9345-1.2311 2.7259-0.57157 0.70347-0.9233 1.1871 0.74743s2.8271 0.7962 3.0777 3.7811c0.23237 2.7683-0.7386 4.5415-6.0234 5.7596-3.3255 0.76652-8.9085 2.0367-9.8925-2.638z" fill="#fff"/>
  <path id="path834" d="m29.062 19.51 0.87933-0.70347 2.1104 1.1871 1.9785-1.0552s1.1936 1.1329 1.9345 1.0992c1.3489-0.06149 2.0225-1.4069 2.0225-1.4069 1.2551 4.2638 0.9233 7.3864 0.9233 7.3864l-5.8915-0.08793s0.2908-2.4793-0.3957-3.8691c-1.0475-2.1207-3.5613-2.5501-3.5613-2.5501z" fill="#fff"/>
  <path id="path836" d="m27.127 30.15s3.9748-0.50341 5.9355-3.2096c0.11329 0.011 4.7044 0 4.7044 0l-0.5276 1.0112s0.25503 0.80343-0.1319 2.0225c-0.59462 1.8734-1.9873 3.0337-5.0562 3.0337-4.6238 0-4.9243-2.8578-4.9243-2.8578z" fill="#fff"/>
  <path id="path838" d="m24.05 31.029 1.0552 2.9018 1.6268 1.1431 1.1871 2.8578 2.7699-1.0552-2.0225-3.3854s-1.016-0.56377-1.4509-1.0552c-0.48339-0.54622-1.0992-1.9345-1.0992-1.9345z" fill="#fff"/>
 </g>
</svg>
