<?xml version="1.0" encoding="UTF-8"?>
<!-- Created with Inkscape (http://www.inkscape.org/) -->
<svg id="SVGRoot" width="48px" height="48px" version="1.1" viewBox="0 0 48 48" xml:space="preserve" xmlns="http://www.w3.org/2000/svg" xmlns:cc="http://creativecommons.org/ns#" xmlns:dc="http://purl.org/dc/elements/1.1/" xmlns:rdf="http://www.w3.org/1999/02/22-rdf-syntax-ns#" xmlns:xlink="http://www.w3.org/1999/xlink"><defs><style>.cls-1{fill:none;stroke:#fff;stroke-linecap:round;stroke-linejoin:round;}</style><style>.cls-1{fill:none;stroke:#fff;stroke-linecap:round;stroke-linejoin:round;}</style><style>.cls-1{fill:none;stroke:#fff;stroke-linecap:round;stroke-linejoin:round;}</style><style>.cls-1{fill:none;stroke:#fff;stroke-linecap:round;stroke-linejoin:round;}</style><linearGradient id="linearGradient2" x1="24" x2="24" y1="8" y2="40" gradientUnits="userSpaceOnUse"><stop stop-color="#ffdd75" offset="0"/><stop stop-color="#db75ff" offset="1"/></linearGradient></defs><metadata><rdf:RDF><cc:Work rdf:about=""><dc:format>image/svg+xml</dc:format><dc:type rdf:resource="http://purl.org/dc/dcmitype/StillImage"/></cc:Work></rdf:RDF></metadata><rect x="4" y="4" width="40" height="40" ry="8" fill="url(#linearGradient2)" fill-rule="evenodd" style="paint-order:stroke fill markers"/><rect x="8" y="8" width="32" height="32" ry="4" opacity=".3"/><path d="m12 4c-4.432 0-8 3.568-8 8v24c0 4.432 3.568 8 8 8h24c4.432 0 8-3.568 8-8v-24c0-4.432-3.568-8-8-8zm0 1h24c3.878 0 7 3.122 7 7v24c0 3.878-3.122 7-7 7h-24c-3.878 0-7-3.122-7-7v-24c0-3.878 3.122-7 7-7z" fill-rule="evenodd" opacity=".3" style="paint-order:stroke fill markers"/><path d="m23.367 12.227-11 9a1.0001 1.0001 0 0 0-0.30078 1.1328l5 13a1.0001 1.0001 0 0 0 0.93359 0.64062h12a1.0001 1.0001 0 0 0 0.93359-0.64062l5-13a1 1 0 0 0-0.57422-1.293 1 1 0 0 0-1.293 0.57422l-4.7539 12.359h-10.625l-4.4941-11.684 10.439-8.543a1 1 0 0 0 0.14062-1.4062 1 1 0 0 0-1.4062-0.14062z" fill="#fff" stop-color="#000000" stroke-linecap="round" stroke-linejoin="round"/><path d="m23.359 17.232-6 5a1 1 0 0 0-0.12695 1.4082 1 1 0 0 0 1.4082 0.12695l5.3594-4.4668 4.8145 4.0137-2.5078 6.6855h-5.3066a1 1 0 0 0-1 1 1 1 0 0 0 1 1h6a1.0001 1.0001 0 0 0 0.93555-0.64844l3-8a1.0001 1.0001 0 0 0-0.29492-1.1191l-6-5a1.0001 1.0001 0 0 0-1.2812 0z" fill="#fff" stop-color="#000000" stroke-linecap="round" stroke-linejoin="round"/></svg>
