<?xml version="1.0" encoding="UTF-8"?>
<!-- Created with Inkscape (http://www.inkscape.org/) -->
<svg id="SVGRoot" width="48px" height="48px" version="1.1" viewBox="0 0 48 48" xmlns="http://www.w3.org/2000/svg" xmlns:cc="http://creativecommons.org/ns#" xmlns:dc="http://purl.org/dc/elements/1.1/" xmlns:rdf="http://www.w3.org/1999/02/22-rdf-syntax-ns#">
 <defs id="defs815">
  <style id="style819">.cls-1{fill:none;stroke:#fff;stroke-linecap:round;stroke-linejoin:round;}</style>
 </defs>
 <metadata id="metadata818">
  <rdf:RDF>
   <cc:Work rdf:about="">
    <dc:format>image/svg+xml</dc:format>
    <dc:type rdf:resource="http://purl.org/dc/dcmitype/StillImage"/>
    <dc:title/>
   </cc:Work>
  </rdf:RDF>
 </metadata>
 <g id="layer1">
  <rect id="rect1373" x="4" y="4" width="40" height="40" ry="8" fill="#4e4e4e" fill-rule="evenodd" style="paint-order:stroke fill markers"/>
  <path id="rect817" d="m12 4c-4.432 0-8 3.568-8 8v24c0 4.432 3.568 8 8 8h24c4.432 0 8-3.568 8-8v-24c0-4.432-3.568-8-8-8h-24zm0 1h24c3.878 0 7 3.122 7 7v24c0 3.878-3.122 7-7 7h-24c-3.878 0-7-3.122-7-7v-24c0-3.878 3.122-7 7-7z" fill-rule="evenodd" opacity=".4" style="paint-order:stroke fill markers"/>
  <path id="path841" d="m9 23c0.19095-1.8025 1.9907-2.109 3-3s0.36482-1.9701 3-2c2.6352-0.02994 3.4404 6.8808 6.4404 8.8808s-5.2194 1.057-7.4404 0.11921c-2.221-0.93784-5.191-2.1975-5-4z" fill="#ffdd75"/>
  <rect id="rect843-0" x="17" y="30" width="5" height="1" rx="2.5" ry=".5" fill="#ffdd75" fill-rule="evenodd" style="paint-order:stroke fill markers"/>
  <path id="path841-3" d="m39 23c-0.19095-1.8025-1.9907-2.109-3-3s-0.36482-1.9701-3-2c-2.6352-0.02994-3.4404 6.8808-6.4404 8.8808s5.2194 1.057 7.4404 0.11921c2.221-0.93784 5.191-2.1975 5-4z" fill="#ffdd75"/>
  <rect id="rect843-0-2" transform="scale(-1,1)" x="-31" y="30" width="5" height="1" rx="2.5" ry=".5" fill="#ffdd75" fill-rule="evenodd" style="paint-order:stroke fill markers"/>
  <path id="path885" d="m21.396 22.824c-1-1-1.6605-3.2373-2-5-0.18911-0.98196-0.97325-2.7702 0-3 1.4508-0.3425 1.6575 2.5492 2 4 0.30634 1.2977 0.94281 4.9428 0 4z" fill="#ffdd75"/>
  <path id="path885-7" d="m26.404 22.824c1-1 1.6605-3.2373 2-5 0.18911-0.98196 0.97325-2.7702 0-3-1.4508-0.3425-1.6575 2.5492-2 4-0.30634 1.2977-0.94281 4.9428 0 4z" fill="#ffdd75"/>
 </g>
</svg>
