<?xml version="1.0" encoding="UTF-8"?>
<!-- Created with Inkscape (http://www.inkscape.org/) -->
<svg id="SVGRoot" width="48px" height="48px" version="1.1" viewBox="0 0 48 48" xmlns="http://www.w3.org/2000/svg" xmlns:cc="http://creativecommons.org/ns#" xmlns:dc="http://purl.org/dc/elements/1.1/" xmlns:rdf="http://www.w3.org/1999/02/22-rdf-syntax-ns#">
 <defs id="defs815">
  <style id="style819">.cls-1{fill:none;stroke:#fff;stroke-linecap:round;stroke-linejoin:round;}</style>
 </defs>
 <metadata id="metadata818">
  <rdf:RDF>
   <cc:Work rdf:about="">
    <dc:format>image/svg+xml</dc:format>
    <dc:type rdf:resource="http://purl.org/dc/dcmitype/StillImage"/>
    <dc:title/>
   </cc:Work>
  </rdf:RDF>
 </metadata>
 <g id="layer1" fill-rule="evenodd">
  <rect id="rect1373" x="4" y="4" width="40" height="40" ry="8" fill="#4e4e4e" style="paint-order:stroke fill markers"/>
  <path id="rect817" d="m12 4c-4.432 0-8 3.568-8 8v24c0 4.432 3.568 8 8 8h24c4.432 0 8-3.568 8-8v-24c0-4.432-3.568-8-8-8h-24zm0 1h24c3.878 0 7 3.122 7 7v24c0 3.878-3.122 7-7 7h-24c-3.878 0-7-3.122-7-7v-24c0-3.878 3.122-7 7-7z" opacity=".4" style="paint-order:stroke fill markers"/>
  <rect id="rect828" x="9" y="9" width="6" height="6" ry="3" fill="#96d56b" style="paint-order:normal"/>
  <rect id="rect830" x="17" y="9" width="6" height="6" ry="3" fill="#f97263" style="paint-order:normal"/>
  <rect id="rect830-6" x="33" y="9" width="6" height="6" ry="3" fill="#729dec" style="paint-order:normal"/>
  <rect id="rect830-8" x="17" y="17" width="6" height="6" ry="3" fill="#96d56b" style="paint-order:normal"/>
  <rect id="rect828-2-7" x="25" y="17" width="6" height="6" ry="3" fill="#729dec" style="paint-order:normal"/>
  <rect id="rect830-0" x="17" y="25" width="6" height="6" ry="3" fill="#729dec" style="paint-order:normal"/>
  <rect id="rect830-6-1" x="33" y="25" width="6" height="6" ry="3" fill="#f97263" style="paint-order:normal"/>
  <rect id="rect828-9" x="9" y="33" width="6" height="6" ry="3" fill="#729dec" style="paint-order:normal"/>
  <rect id="rect828-2-4" x="25" y="33" width="6" height="6" ry="3" fill="#729dec" style="paint-order:normal"/>
  <rect id="rect830-6-9" x="33" y="33" width="6" height="6" ry="3" fill="#96d56b" style="paint-order:normal"/>
 </g>
</svg>
