<?xml version="1.0" encoding="UTF-8"?>
<!-- Created with Inkscape (http://www.inkscape.org/) -->
<svg id="SVGRoot" width="48px" height="48px" version="1.1" viewBox="0 0 48 48" xmlns="http://www.w3.org/2000/svg" xmlns:cc="http://creativecommons.org/ns#" xmlns:dc="http://purl.org/dc/elements/1.1/" xmlns:rdf="http://www.w3.org/1999/02/22-rdf-syntax-ns#" xmlns:xlink="http://www.w3.org/1999/xlink">
 <defs id="defs815">
  <style id="style819">.cls-1{fill:none;stroke:#fff;stroke-linecap:round;stroke-linejoin:round;}</style>
  <style id="style2">.a{fill:none;stroke:#b1b5bd;stroke-linecap:round;stroke-linejoin:round;isolation:isolate;opacity:0.63;}</style>
  <style id="style2-5">.a{fill:none;stroke:#b1b5bd;stroke-linecap:round;stroke-linejoin:round;isolation:isolate;opacity:0.63;}</style>
 </defs>
 <metadata id="metadata818">
  <rdf:RDF>
   <cc:Work rdf:about="">
    <dc:format>image/svg+xml</dc:format>
    <dc:type rdf:resource="http://purl.org/dc/dcmitype/StillImage"/>
    <dc:title/>
   </cc:Work>
  </rdf:RDF>
 </metadata>
 <g id="layer1" fill-rule="evenodd">
  <rect id="rect1373-5" x="4" y="4" width="40" height="40" ry="8" fill="#efefef" style="paint-order:stroke fill markers"/>
  <path id="rect817" d="m12 4c-4.432 0-8 3.568-8 8v24c0 4.432 3.568 8 8 8h24c4.432 0 8-3.568 8-8v-24c0-4.432-3.568-8-8-8h-24zm0 1h24c3.878 0 7 3.122 7 7v24c0 3.878-3.122 7-7 7h-24c-3.878 0-7-3.122-7-7v-24c0-3.878 3.122-7 7-7z" opacity=".3" style="paint-order:stroke fill markers"/>
  <rect id="rect818-2" x="10" y="18" width="28" height="12" ry="6" fill="#b7bfc2" style="paint-order:normal"/>
  <rect id="rect844" x="11" y="19" width="10" height="10" ry="5" opacity=".25" style="paint-order:normal"/>
  <rect id="rect820" x="12" y="20" width="8" height="8" ry="4" fill="#943657" style="paint-order:normal"/>
  <rect id="rect820-8" x="13" y="21" width="6" height="6" ry="3" fill="#d35244" style="paint-order:normal"/>
  <rect id="rect842" x="27" y="19" width="10" height="10" ry="5" opacity=".25" style="paint-order:normal"/>
  <rect id="rect823" x="28" y="20" width="8" height="8" ry="4" fill="#943657" style="paint-order:normal"/>
  <rect id="rect825" x="14" y="22" width="4" height="4" ry="2" fill="#4e4e4e" style="paint-order:normal"/>
  <rect id="rect823-9" x="29" y="21" width="6" height="6" ry="3" fill="#d35244" style="paint-order:normal"/>
  <rect id="rect827" x="30" y="22" width="4" height="4" ry="2" fill="#4e4e4e" style="paint-order:normal"/>
  <rect id="rect829" x="15" y="23" width="2" height="2" ry="1" fill="#f97263" style="paint-order:normal"/>
  <rect id="rect831" x="15" y="21" width="2" height="2" ry="1" fill="#fff" style="paint-order:normal"/>
  <rect id="rect833" x="31" y="23" width="2" height="2" ry="1" fill="#f97263" style="paint-order:normal"/>
  <rect id="rect835" x="31" y="21" width="2" height="2" ry="1" fill="#fff" style="paint-order:normal"/>
 </g>
</svg>
