<?xml version="1.0" encoding="UTF-8"?>
<!-- Created with Inkscape (http://www.inkscape.org/) -->
<svg id="SVGRoot" width="48px" height="48px" version="1.1" viewBox="0 0 48 48" xmlns="http://www.w3.org/2000/svg" xmlns:cc="http://creativecommons.org/ns#" xmlns:dc="http://purl.org/dc/elements/1.1/" xmlns:rdf="http://www.w3.org/1999/02/22-rdf-syntax-ns#">
 <defs id="defs815">
  <style id="style819">.cls-1{fill:none;stroke:#fff;stroke-linecap:round;stroke-linejoin:round;}</style>
 </defs>
 <metadata id="metadata818">
  <rdf:RDF>
   <cc:Work rdf:about="">
    <dc:format>image/svg+xml</dc:format>
    <dc:type rdf:resource="http://purl.org/dc/dcmitype/StillImage"/>
    <dc:title/>
   </cc:Work>
  </rdf:RDF>
 </metadata>
 <g id="layer1" fill-rule="evenodd">
  <rect id="rect1373" x="4" y="4" width="40" height="40" ry="8" fill="#4e4e4e" style="paint-order:stroke fill markers"/>
  <path id="rect817" d="m12 4c-4.432 0-8 3.568-8 8v24c0 4.432 3.568 8 8 8h24c4.432 0 8-3.568 8-8v-24c0-4.432-3.568-8-8-8h-24zm0 1h24c3.878 0 7 3.122 7 7v24c0 3.878-3.122 7-7 7h-24c-3.878 0-7-3.122-7-7v-24c0-3.878 3.122-7 7-7z" opacity=".4" style="paint-order:stroke fill markers"/>
  <path id="rect851" d="m22 10c-1.108 0-2 0.892-2 2v2c0 1.108 0.892 2 2 2h10v4c0 1.108 0.892 2 2 2h2c1.108 0 2-0.892 2-2v-8c0-1.108-0.892-2-2-2h-2z" fill="#f97263" style="paint-order:stroke fill markers"/>
  <path id="rect855" d="m26 18c-1.108 0-2 0.892-2 2v8c0 1.108 0.892 2 2 2h4v4c0 1.108 0.892 2 2 2h2c1.108 0 2-0.892 2-2v-8c0-1.108-0.892-2-2-2h-4v-4c0-1.108-0.892-2-2-2z" fill="#71b9e3" style="paint-order:stroke fill markers"/>
  <path id="rect861" d="m18 26c-1.108 0-2 0.892-2 2v4h-4c-1.108 0-2 0.892-2 2v2c0 1.108 0.892 2 2 2h14c1.108 0 2-0.892 2-2v-2c0-1.108-0.892-2-2-2h-4v-4c0-1.108-0.892-2-2-2z" fill="#f6a559" style="paint-order:stroke fill markers"/>
 </g>
</svg>
