<?xml version="1.0" encoding="UTF-8"?>
<!-- Created with Inkscape (http://www.inkscape.org/) -->
<svg id="SVGRoot" width="48px" height="48px" version="1.1" viewBox="0 0 48 48" xmlns="http://www.w3.org/2000/svg" xmlns:cc="http://creativecommons.org/ns#" xmlns:dc="http://purl.org/dc/elements/1.1/" xmlns:rdf="http://www.w3.org/1999/02/22-rdf-syntax-ns#">
 <defs id="defs815">
  <style id="style819">.cls-1{fill:none;stroke:#fff;stroke-linecap:round;stroke-linejoin:round;}</style>
 </defs>
 <metadata id="metadata818">
  <rdf:RDF>
   <cc:Work rdf:about="">
    <dc:format>image/svg+xml</dc:format>
    <dc:type rdf:resource="http://purl.org/dc/dcmitype/StillImage"/>
    <dc:title/>
   </cc:Work>
  </rdf:RDF>
 </metadata>
 <g id="layer1">
  <path id="path861" d="m24 22-10 9-7.7676 10.545c1.4537 1.5121 3.4947 2.4551 5.7676 2.4551h24c2.2729 0 4.3139-0.94299 5.7676-2.4551l-7.7676-10.545z" fill="#b072dd"/>
  <path id="path859-3-7" d="m41.662 6.3379-6.6621 12.662-11 5-11-5-6.6621-12.662c1.446-1.446 3.4461-2.3379 5.6621-2.3379h24c2.216 0 4.2161 0.89189 5.6621 2.3379z" fill="#729dec"/>
  <path id="path859" d="m41.662 6.3379-17.662 17.662 17.662 17.662c1.446-1.446 2.3379-3.4461 2.3379-5.6621v-24c0-2.216-0.89189-4.2161-2.3379-5.6621z" fill="#96d56b"/>
  <path id="path859-3" d="m6.3379 6.3379 17.662 17.662-17.662 17.662c-1.446-1.446-2.3379-3.4461-2.3379-5.6621v-24c0-2.216 0.89189-4.2161 2.3379-5.6621z" fill="#d35244"/>
  <path id="path964" d="m14.027 28h-6.0269v-1.2683q0.69085-0.50009 1.3817-1.0621 0.69601-0.56196 1.1136-0.96925 0.62383-0.6032 0.88676-1.0517t0.26294-0.88676q0-0.52587-0.34027-0.80943-0.33511-0.28871-0.96925-0.28871-0.47432 0-1.0002 0.19591-0.52072 0.19591-0.96925 0.50009h-0.16498v-1.7065q0.36605-0.15982 1.0775-0.31965 0.71663-0.15982 1.4333-0.15982 1.4436 0 2.2014 0.60836 0.75787 0.6032 0.75787 1.7117 0 0.72694-0.36605 1.3817-0.36089 0.65476-1.1085 1.3508-0.46916 0.43307-0.94348 0.79912-0.47432 0.36089-0.67538 0.50525h3.4491z" fill="#fff"/>
  <path id="path966" d="m27.65 13.078q0 0.59289-0.21654 1.1136-0.21654 0.52072-0.60836 0.87645-0.4176 0.38151-0.96925 0.58258-0.54649 0.20107-1.2837 0.20107-0.69085 0-1.2631-0.1856-0.56712-0.19076-0.97441-0.57743-0.46916-0.44338-0.71663-1.1445t-0.24747-1.6756q0-1.0105 0.232-1.7941 0.232-0.78365 0.75787-1.3869 0.50525-0.57743 1.3095-0.89707 0.80943-0.31965 1.923-0.31965 0.37636 0 0.8249 0.05156 0.44854 0.05156 0.58258 0.07733v1.5106h-0.19591q-0.1392-0.06702-0.47432-0.14951-0.32996-0.08764-0.75272-0.08764-0.98988 0-1.5415 0.48463-0.55165 0.48463-0.66507 1.3508 0.39698-0.23716 0.83521-0.38151 0.44338-0.14951 0.95379-0.14951 0.44854 0 0.83005 0.10311 0.38667 0.10311 0.71663 0.32996 0.42792 0.29902 0.68569 0.80427 0.25778 0.50525 0.25778 1.2631zm-2.3458 1.16q0.15982-0.17529 0.25262-0.41245 0.09796-0.24231 0.09796-0.65476 0-0.37636-0.10827-0.61352-0.10827-0.24231-0.29902-0.38667-0.1856-0.14436-0.43823-0.19591-0.25262-0.05671-0.52072-0.05671-0.22685 0-0.47432 0.05156-0.24747 0.05156-0.45369 0.12889 0 0.05156-0.0052 0.17014-0.0052 0.11858-0.0052 0.29902 0 0.63414 0.12373 1.0466 0.12889 0.40729 0.34027 0.62383 0.14436 0.15982 0.34027 0.23716 0.19591 0.07218 0.42276 0.07218 0.17014 0 0.37636-0.07733 0.20622-0.07733 0.35058-0.232z" fill="#fff"/>
  <path id="path968" d="m39.681 25.078q0 0.59805-0.22685 1.1136-0.22169 0.5104-0.6496 0.87645-0.47432 0.39182-1.093 0.58258-0.61352 0.1856-1.4023 0.1856-0.92285-0.0052-1.5621-0.14951-0.63414-0.1392-1.0363-0.31449v-1.6962h0.21654q0.46916 0.2784 1.0105 0.464 0.54134 0.1856 1.0775 0.1856 0.3248 0 0.70116-0.07218 0.38151-0.07733 0.6032-0.27325 0.17529-0.15982 0.26294-0.3248 0.0928-0.16498 0.0928-0.5104 0-0.26809-0.12373-0.45885-0.11858-0.19591-0.30934-0.31449-0.2784-0.17013-0.67023-0.22169-0.39182-0.05671-0.71147-0.05671-0.464 0-0.89192 0.08249-0.42276 0.07733-0.74241 0.15467h-0.22685v-4.3307h5.4598v1.4693h-3.5986v1.2528q0.15982-0.01031 0.40214-0.01547 0.24747-0.01031 0.43307-0.01031 0.63414 0 1.1291 0.12373 0.50009 0.11858 0.86098 0.33511 0.46916 0.28356 0.7321 0.75272 0.26294 0.464 0.26294 1.1703z" fill="#fff"/>
  <path id="path970" d="m27.017 33.526-3.4749 6.1506h-2.2066l3.6089-6.2073h-3.944v-1.4693h6.0166z" fill="#fff"/>
  <path id="rect817" d="m12 4c-4.432 0-8 3.568-8 8v24c0 4.432 3.568 8 8 8h24c4.432 0 8-3.568 8-8v-24c0-4.432-3.568-8-8-8h-24zm0 1h24c3.878 0 7 3.122 7 7v24c0 3.878-3.122 7-7 7h-24c-3.878 0-7-3.122-7-7v-24c0-3.878 3.122-7 7-7z" fill-rule="evenodd" opacity=".3" style="paint-order:stroke fill markers"/>
 </g>
</svg>
