<?xml version="1.0" encoding="UTF-8"?>
<!-- Created with Inkscape (http://www.inkscape.org/) -->
<svg id="SVGRoot" width="48px" height="48px" version="1.1" viewBox="0 0 48 48" xmlns="http://www.w3.org/2000/svg" xmlns:cc="http://creativecommons.org/ns#" xmlns:dc="http://purl.org/dc/elements/1.1/" xmlns:rdf="http://www.w3.org/1999/02/22-rdf-syntax-ns#">
 <defs>
  <style>.cls-1{fill:none;stroke:#fff;stroke-linecap:round;stroke-linejoin:round;}</style>
 </defs>
 <metadata>
  <rdf:RDF>
   <cc:Work rdf:about="">
    <dc:format>image/svg+xml</dc:format>
    <dc:type rdf:resource="http://purl.org/dc/dcmitype/StillImage"/>
   </cc:Work>
  </rdf:RDF>
 </metadata>
 <rect x="4" y="4" width="40" height="40" ry="8" fill="#e5b871" fill-rule="evenodd" style="paint-order:stroke fill markers"/>
 <path d="m12 4c-4.432 0-8 3.568-8 8v24c0 4.432 3.568 8 8 8h24c4.432 0 8-3.568 8-8v-24c0-4.432-3.568-8-8-8zm0 1h24c3.878 0 7 3.122 7 7v24c0 3.878-3.122 7-7 7h-24c-3.878 0-7-3.122-7-7v-24c0-3.878 3.122-7 7-7z" fill-rule="evenodd" opacity=".3" style="paint-order:stroke fill markers"/>
 <path d="m12 6c-3.324 0-6 2.676-6 6v12h10v6.1699c-0.89707 0.31512-1.5972 1.0419-1.873 1.957-1.234 0.37189-2.127 1.5147-2.127 2.873v2c0 1.662 1.338 3 3 3h9v2h12c3.324 0 6-2.676 6-6v-12h-6v-13c0-1.662-1.338-3-3-3h-9v-2h-12z" fill="#8b5628"/>
 <path d="m15 10c-0.554 0-1 0.446-1 1v10c0 0.554 0.446 1 1 1h3v10h-1c-0.554 0-1 0.446-1 1v1h-1c-0.554 0-1 0.446-1 1v2c0 0.554 0.446 1 1 1h18c0.554 0 1-0.446 1-1v-2c0-0.554-0.446-1-1-1h-1v-1c0-0.554-0.446-1-1-1h-1v-10h3c0.554 0 1-0.446 1-1v-10c0-0.554-0.446-1-1-1h-2c-0.554 0-1 0.446-1 1v3h-2v-3c0-0.554-0.446-1-1-1h-6c-0.554 0-1 0.446-1 1v3h-2v-3c0-0.554-0.446-1-1-1z" fill="#e5b871" fill-rule="evenodd" style="paint-order:stroke fill markers"/>
</svg>
