<?xml version="1.0" encoding="UTF-8"?>
<!-- Created with Inkscape (http://www.inkscape.org/) -->
<svg id="SVGRoot" width="48px" height="48px" version="1.1" viewBox="0 0 48 48" xmlns="http://www.w3.org/2000/svg" xmlns:cc="http://creativecommons.org/ns#" xmlns:dc="http://purl.org/dc/elements/1.1/" xmlns:rdf="http://www.w3.org/1999/02/22-rdf-syntax-ns#">
 <defs id="defs815">
  <style id="style819">.cls-1{fill:none;stroke:#fff;stroke-linecap:round;stroke-linejoin:round;}</style>
 </defs>
 <metadata id="metadata818">
  <rdf:RDF>
   <cc:Work rdf:about="">
    <dc:format>image/svg+xml</dc:format>
    <dc:type rdf:resource="http://purl.org/dc/dcmitype/StillImage"/>
    <dc:title/>
   </cc:Work>
  </rdf:RDF>
 </metadata>
 <g id="layer1">
  <rect id="rect1373" x="4" y="4" width="40" height="40" ry="8" fill="#81d56b" fill-rule="evenodd" style="paint-order:stroke fill markers"/>
  <path id="rect817" d="m12 4c-4.432 0-8 3.568-8 8v24c0 4.432 3.568 8 8 8h24c4.432 0 8-3.568 8-8v-24c0-4.432-3.568-8-8-8h-24zm0 1h24c3.878 0 7 3.122 7 7v24c0 3.878-3.122 7-7 7h-24c-3.878 0-7-3.122-7-7v-24c0-3.878 3.122-7 7-7z" fill-rule="evenodd" opacity=".3" style="paint-order:stroke fill markers"/>
  <rect id="rect828-9-3" x="20" y="20" width="8" height="8" ry="1" fill="#fff" fill-rule="evenodd" style="paint-order:normal"/>
  <rect id="rect890" x="30" y="20" width="8" height="8" ry="1" fill="#fff" fill-rule="evenodd" style="paint-order:normal"/>
  <rect id="rect828-9-3-2" x="20" y="10" width="8" height="8" ry="1" fill="#d7f9d1" fill-rule="evenodd" style="paint-order:normal"/>
  <rect id="rect890-5" x="30" y="10" width="8" height="8" ry="1" fill="#fff" fill-rule="evenodd" style="paint-order:normal"/>
  <rect id="rect828-9-3-1" x="20" y="30" width="8" height="8" ry="1" fill="#d7f9d1" fill-rule="evenodd" style="paint-order:normal"/>
  <rect id="rect890-3" x="30" y="30" width="8" height="8" ry="1" fill="#d7f9d1" fill-rule="evenodd" style="paint-order:normal"/>
  <rect id="rect828-9-3-5" x="10" y="10" width="8" height="8" ry="1" fill="#d7f9d1" fill-rule="evenodd" style="paint-order:normal"/>
  <rect id="rect890-9" x="10" y="20" width="8" height="8" ry="1" fill="#d7f9d1" fill-rule="evenodd" style="paint-order:normal"/>
  <rect id="rect828-9-3-2-6" x="10" y="30" width="8" height="8" ry="1" fill="#fff" fill-rule="evenodd" style="paint-order:normal"/>
  <path id="path974" d="m16.227 14.901q0 0.4392-0.16659 0.81782-0.16281 0.37483-0.47706 0.64366-0.34833 0.28775-0.80268 0.42784-0.45056 0.1363-1.0298 0.1363-0.67773-0.0039-1.1472-0.1098-0.4657-0.10223-0.76103-0.23096v-1.2457h0.15902q0.34454 0.20446 0.7421 0.34076 0.39755 0.1363 0.79132 0.1363 0.23853 0 0.51492-0.053 0.28018-0.05679 0.44299-0.20067 0.12873-0.11737 0.1931-0.23853 0.06815-0.12116 0.06815-0.37484 0-0.19688-0.09087-0.33697-0.08709-0.14388-0.22717-0.23096-0.20446-0.12494-0.49221-0.16281-0.28775-0.04164-0.5225-0.04164-0.34076 0-0.65501 0.06058-0.31047 0.05679-0.54521 0.11359h-0.16659v-3.1804h4.0096v1.0791h-2.6428v0.92005q0.11737-0.0075 0.29532-0.01137 0.18174-0.0075 0.31804-0.0075 0.4657 0 0.82918 0.09087 0.36726 0.08709 0.6323 0.2461 0.34454 0.20824 0.53764 0.55279 0.1931 0.34076 0.1931 0.85947z" fill="#336f2f"/>
  <path id="path976" d="m25.856 14.167q0.18552 0.15902 0.29532 0.37105 0.1098 0.21203 0.1098 0.56414 0 0.39755-0.15902 0.7421-0.15524 0.34455-0.48085 0.59065-0.31804 0.23853-0.74967 0.36726-0.42784 0.12495-1.0412 0.12495-0.70045 0-1.204-0.1098-0.49978-0.10979-0.81403-0.2461v-1.2381h0.14766q0.32561 0.19688 0.77617 0.34076 0.45434 0.14388 0.82918 0.14388 0.2196 0 0.47706-0.03407 0.25746-0.03786 0.43541-0.15902 0.14009-0.09466 0.22339-0.22717 0.0833-0.1363 0.0833-0.38998 0-0.2461-0.11358-0.37862-0.11358-0.1363-0.29911-0.1931-0.18552-0.06058-0.44677-0.06436-0.26125-0.0075-0.48463-0.0075h-0.31047v-1.0071h0.32183q0.29532 0 0.5225-0.01892 0.22717-0.01892 0.38619-0.08709 0.16659-0.07194 0.24989-0.18931 0.0833-0.12116 0.0833-0.35212 0-0.17038-0.08709-0.27261-0.08708-0.10601-0.2196-0.16659-0.14766-0.06815-0.34833-0.09087-0.20067-0.02271-0.34454-0.02271-0.3559 0-0.77239 0.12494-0.41648 0.12116-0.80646 0.35212h-0.14009v-1.2229q0.31047-0.12494 0.84432-0.23853 0.53385-0.11737 1.0829-0.11737 0.53386 0 0.93519 0.09466 0.40134 0.09087 0.66259 0.2461 0.31047 0.18552 0.46192 0.45056 0.15145 0.26504 0.15145 0.62094 0 0.46949-0.29154 0.84054-0.29154 0.36726-0.7686 0.46949v0.053q0.1931 0.0265 0.40891 0.10602 0.21581 0.07951 0.39377 0.23096z" fill="#336f2f"/>
  <path id="path978" d="m16.363 24.939q0 0.43542-0.15902 0.81782-0.15902 0.38241-0.44677 0.64366-0.30668 0.28018-0.71181 0.42784-0.40134 0.14766-0.94276 0.14766-0.50735 0-0.92762-0.1363-0.41648-0.14009-0.71559-0.42405-0.34454-0.32561-0.52628-0.84054-0.18174-0.51492-0.18174-1.2305 0-0.7421 0.17038-1.3176t0.55657-1.0185q0.37105-0.42405 0.9617-0.6588 0.59443-0.23474 1.4123-0.23474 0.27639 0 0.60579 0.03787 0.3294 0.03786 0.42784 0.05679v1.1094h-0.14388q-0.10222-0.04922-0.34833-0.1098-0.24232-0.06436-0.55279-0.06436-0.72695 0-1.1321 0.3559-0.40512 0.3559-0.48842 0.99199 0.29154-0.17417 0.61336-0.28018 0.32561-0.10979 0.70045-0.10979 0.3294 0 0.60958 0.07572 0.28396 0.07572 0.52628 0.24232 0.31426 0.2196 0.50357 0.59065 0.18931 0.37105 0.18931 0.92762zm-1.7227 0.8519q0.11737-0.12873 0.18552-0.3029 0.07194-0.17795 0.07194-0.48085 0-0.27639-0.07951-0.45056-0.07951-0.17795-0.2196-0.28396-0.1363-0.10602-0.32183-0.14388-0.18552-0.04164-0.38241-0.04164-0.16659 0-0.34833 0.03787-0.18174 0.03786-0.33319 0.09466 0 0.03786-0.0039 0.12494-0.0039 0.08709-0.0039 0.2196 0 0.4657 0.09087 0.7686 0.09466 0.29911 0.24989 0.45813 0.10602 0.11737 0.24989 0.17417 0.14388 0.053 0.31047 0.053 0.12494 0 0.27639-0.05679t0.25746-0.17038z" fill="#336f2f"/>
  <path id="path980" d="m26.31 33.627q0 0.70802-0.18174 1.3176-0.18174 0.60958-0.55279 1.0261-0.40134 0.45056-0.99577 0.67773-0.59443 0.22339-1.3858 0.22339-0.28018 0-0.6058-0.03408-0.32561-0.03407-0.42784-0.06058v-1.1094h0.15145q0.11358 0.053 0.32183 0.11358 0.21203 0.06058 0.5755 0.06058 0.29532 0 0.57929-0.07194 0.28397-0.07572 0.48842-0.23474 0.22339-0.17038 0.36726-0.42406 0.14388-0.25746 0.1931-0.61715-0.3294 0.18931-0.61336 0.29154-0.28018 0.09845-0.70045 0.09845-0.31804 0-0.60958-0.07573-0.28775-0.07951-0.52628-0.24232-0.31426-0.22339-0.50356-0.58686-0.18552-0.36726-0.18552-0.92383 0-0.9049 0.62851-1.4728 0.6323-0.57172 1.6546-0.57172 0.52628 0 0.93141 0.14009 0.40891 0.1363 0.70423 0.42027 0.34455 0.32561 0.51871 0.82918 0.17416 0.50356 0.17416 1.2267zm-1.4501-0.21203q0-0.46192-0.09087-0.75724-0.08709-0.29911-0.24232-0.46192-0.1098-0.12116-0.25368-0.17417-0.14388-0.053-0.3029-0.053-0.14766 0-0.28396 0.053-0.13252 0.04922-0.25746 0.17417-0.11737 0.12116-0.1931 0.31804-0.07194 0.19688-0.07194 0.46949 0 0.26503 0.07951 0.44677 0.07951 0.17795 0.2196 0.28396 0.13252 0.10223 0.31047 0.14388 0.18174 0.04164 0.39376 0.04164 0.17038 0 0.37105-0.04164 0.20067-0.04544 0.31047-0.09087 0-0.04164 0.0039-0.11737 0.0075-0.07951 0.0075-0.23474z" fill="#336f2f"/>
  <path id="path982" d="m36.301 32.245-2.5519 4.5169h-1.6205l2.6503-4.5586h-2.8964v-1.0791h4.4185z" fill="#336f2f"/>
 </g>
</svg>
