<?xml version="1.0" encoding="UTF-8"?>
<!-- Created with Inkscape (http://www.inkscape.org/) -->
<svg id="SVGRoot" width="48px" height="48px" version="1.1" viewBox="0 0 48 48" xmlns="http://www.w3.org/2000/svg" xmlns:cc="http://creativecommons.org/ns#" xmlns:dc="http://purl.org/dc/elements/1.1/" xmlns:rdf="http://www.w3.org/1999/02/22-rdf-syntax-ns#">
 <defs id="defs815">
  <style id="style819">.cls-1{fill:none;stroke:#fff;stroke-linecap:round;stroke-linejoin:round;}</style>
 </defs>
 <metadata id="metadata818">
  <rdf:RDF>
   <cc:Work rdf:about="">
    <dc:format>image/svg+xml</dc:format>
    <dc:type rdf:resource="http://purl.org/dc/dcmitype/StillImage"/>
    <dc:title/>
   </cc:Work>
  </rdf:RDF>
 </metadata>
 <g id="layer1">
  <rect id="rect1373-5" x="4" y="4" width="40" height="40" ry="8" fill="#717171" fill-rule="evenodd" style="paint-order:stroke fill markers"/>
  <path id="rect817" d="m12 4c-4.432 0-8 3.568-8 8v24c0 4.432 3.568 8 8 8h24c4.432 0 8-3.568 8-8v-24c0-4.432-3.568-8-8-8h-24zm0 1h24c3.878 0 7 3.122 7 7v24c0 3.878-3.122 7-7 7h-24c-3.878 0-7-3.122-7-7v-24c0-3.878 3.122-7 7-7z" fill-rule="evenodd" opacity=".3" style="paint-order:stroke fill markers"/>
  <path id="path828" d="m16.225 12.607s-1.5967 0.10912-2.5312 1.1738c-0.48825 0.55624-0.66016 2.127-0.66016 2.127s0.70551-0.52227 1.541-1.3574c0.98821-0.98779 1.6504-1.9434 1.6504-1.9434zm15.551 0s0.66218 0.95557 1.6504 1.9434c0.83551 0.83515 1.541 1.3574 1.541 1.3574s-0.17191-1.5707-0.66016-2.127c-0.93457-1.0647-2.5312-1.1738-2.5312-1.1738zm-18.818 1.291s-2.2143 0.69087-1.5762 5.0137c1.5688-1.5864 3.3027-3.3027 3.3027-3.3027s-1.222 0.51047-2.332 1.3418c0.04147-2.1003 0.60547-3.0527 0.60547-3.0527zm22.086 0s0.564 0.95239 0.60547 3.0527c-1.11-0.83132-2.332-1.3418-2.332-1.3418s1.7339 1.7163 3.3027 3.3027c0.63817-4.3228-1.5762-5.0137-1.5762-5.0137zm-24.225 2.4902s-2.0191 2.1679 0.10547 5.9863c0.90701-2.0384 2.4512-4.418 2.4512-4.418s-1.4917 1.0703-2.2363 2.2402c-0.7034-1.9795-0.32031-3.8086-0.32031-3.8086zm26.363 0s0.38309 1.8291-0.32031 3.8086c-0.74464-1.1699-2.2363-2.2402-2.2363-2.2402s1.5442 2.3795 2.4512 4.418c2.1245-3.8184 0.10547-5.9863 0.10547-5.9863zm-27.775 3.2559s-1.1173 3.5432 2.1973 6.3906c0.14564-2.2264 0.76953-4.9922 0.76953-4.9922s-0.93313 1.2516-1.3223 2.873c-1.3449-1.6138-1.6445-4.2715-1.6445-4.2715zm29.188 0s-0.29964 2.6577-1.6445 4.2715c-0.38913-1.6215-1.3223-2.873-1.3223-2.873s0.62389 2.7658 0.76953 4.9922c3.3145-2.8474 2.1973-6.3906 2.1973-6.3906zm-29.623 4.2207s0.49832 3.7688 4.5566 5.3887c-0.58358-2.1534-0.70508-5.1133-0.70508-5.1133s-0.66115 1.629-0.50391 3.2891c-1.7952-1.091-3.3477-3.5645-3.3477-3.5645zm30.059 0s-1.5524 2.4734-3.3477 3.5645c0.15724-1.6601-0.50391-3.2891-0.50391-3.2891s-0.1215 2.9598-0.70508 5.1133c4.0583-1.6199 4.5566-5.3887 4.5566-5.3887zm-25.104 3.5605s-0.09686 1.7558 0.58984 3.2754c-2.0519-0.4504-4.3223-2.2871-4.3223-2.2871s1.6924 3.4037 6.0566 3.6211c-1.2499-1.8481-2.3242-4.6094-2.3242-4.6094zm20.148 0s-1.0743 2.7612-2.3242 4.6094c4.3642-0.21738 6.0566-3.6211 6.0566-3.6211s-2.2704 1.8367-4.3223 2.2871c0.6867-1.5196 0.58984-3.2754 0.58984-3.2754zm-18.143 2.4199s0.62351 1.6414 1.8691 2.75c-2.0576 0.42355-4.877-0.33008-4.877-0.33008s2.9308 2.4211 7.0059 0.84375c-1.8938-1.1796-3.998-3.2637-3.998-3.2637zm16.137 0s-2.1043 2.0841-3.998 3.2637c4.075 1.5774 7.0059-0.84375 7.0059-0.84375s-2.8193 0.75363-4.877 0.33008c1.2456-1.1086 1.8691-2.75 1.8691-2.75zm-10.525 2.8984s-1.295 1.4469-3.2285 1.7598c-1.3774 0.22288-3.0801-0.10938-3.0801-0.10938s1.6089 1.4538 3.4102 1.209c1.6316-0.22177 3.2656-1.834 3.2656-1.834s-0.72163 0.92549-1.834 2.1641c-0.1907 0.21234 0.41425 0.85299 0.58594 0.625 1.9716-2.6182 2.5684-2.5312 2.5684-2.5312h1.5391s0.59671-0.08694 2.5684 2.5312c0.17169 0.22799 0.77664-0.41266 0.58594-0.625-1.1124-1.2386-1.834-2.1641-1.834-2.1641s1.634 1.6122 3.2656 1.834c1.8012 0.24482 3.4102-1.209 3.4102-1.209s-1.7027 0.33225-3.0801 0.10938c-1.9335-0.31287-3.2285-1.7598-3.2285-1.7598s-0.45703 0.25586-2.457 0.25586-2.457-0.25586-2.457-0.25586z" fill="#fff" opacity=".25"/>
  <path id="path961" d="m15.66 19.319v0.95312l-0.58594 0.36783h-1.5781l-1.3594-0.5651-0.68359 0.68359h-2.7969l-0.38477-0.66406-0.44531 0.11914v1.6224l0.44531 0.11914 0.38477-0.66602h2.7969l0.68359 0.68555 1.3594-0.5651h1.5781l0.58594 0.36588v0.95508h0.66016v-0.66016l21.641-0.03711s-1.6236-2.0169-3.5576-2.0169c-6.0277 0-18.083-0.03711-18.083-0.03711v-0.66016z" fill="#ffdd75"/>
  <path id="path979" d="m17.311 17.082 0.73353 0.73353v10.196s1.9805-1.7144 1.9805-3.1909v-7.1519l0.64184-0.64184z" fill="#ffdd75"/>
  <path id="path981-6" d="m26.701 9.0137c-3.5462 2.8384-2.8613 8.5449-2.8613 8.5449h-1.0996l0.02344 0.49805 1.043 0.30859-0.0039 6.2715-1.0039 0.23047v0.50391h1.041s-0.18654 5.3547-3.2637 6.125l1.6133 2.4199c3.5462-2.8384 2.8242-8.5449 2.8242-8.5449h1.1367l-0.02344-0.49805-1.043-0.30859 2e-3 -6.2715 1.0059-0.23047v-0.50391h-1.041s0.18654-5.3547 3.2637-6.125z" fill="#ffdd75"/>
  <path id="path1013" d="m26.93 17.595 1.0178 0.36676v10.196h-0.99027v0.51347l1.0749 0.28802s-0.31254 4.3175-3.458 7.0589l1.7117 2.4897c3.9234-2.7636 3.164-9.5438 3.164-9.5438l1.0141-0.27174v-0.55816h-1.0141v-10.723s0.23708-1.9852 2.4119-1.9852c0.72287 0 0.8299 0.9855 0.8299 0.9855v0.93363s-0.01188 0.32325 0.18663 0.32325c0.1985 0 0.18883-0.32706 0.18883-0.32706v-0.92982s-0.07472-1.5561-1.2313-1.5561c-2.5463 0-3.6049 2.2241-3.6049 2.2241l-1.2967 0.02751z" fill="#ffdd75"/>
 </g>
</svg>
