<?xml version="1.0" encoding="UTF-8"?>
<!-- Created with Inkscape (http://www.inkscape.org/) -->
<svg id="SVGRoot" width="48px" height="48px" version="1.1" viewBox="0 0 48 48" xmlns="http://www.w3.org/2000/svg" xmlns:cc="http://creativecommons.org/ns#" xmlns:dc="http://purl.org/dc/elements/1.1/" xmlns:rdf="http://www.w3.org/1999/02/22-rdf-syntax-ns#" xmlns:xlink="http://www.w3.org/1999/xlink">
 <defs id="defs815">
  <style id="style819">.cls-1{fill:none;stroke:#fff;stroke-linecap:round;stroke-linejoin:round;}</style>
  <style id="style819-5">.cls-1{fill:none;stroke:#fff;stroke-linecap:round;stroke-linejoin:round;}</style>
  <style id="style819-3">.cls-1{fill:none;stroke:#fff;stroke-linecap:round;stroke-linejoin:round;}</style>
  <style id="style2">.a{fill:none;stroke:#b1b5bd;stroke-linecap:round;stroke-linejoin:round;isolation:isolate;opacity:0.63;}</style>
 </defs>
 <metadata id="metadata818">
  <rdf:RDF>
   <cc:Work rdf:about="">
    <dc:format>image/svg+xml</dc:format>
    <dc:type rdf:resource="http://purl.org/dc/dcmitype/StillImage"/>
    <dc:title/>
   </cc:Work>
  </rdf:RDF>
 </metadata>
 <g id="layer1" fill-rule="evenodd">
  <path id="rect828" d="m12 4c-4.432 0-8 3.568-8 8v2h10v-10h-2zm12 0v10h10v-10h-10zm-10 30v10h10v-10h-10z" fill="#d35244" style="paint-order:stroke fill markers"/>
  <rect id="rect854" x="24" y="14" width="20" height="20" fill="#729dec" style="paint-order:stroke fill markers"/>
  <path id="rect834" d="m14 4v10h10v-10h-10zm10 10v10h10v-10h-10zm-20 20v2c0 4.432 3.568 8 8 8h2v-10h-10z" fill="#b072dd" style="paint-order:stroke fill markers"/>
  <rect id="rect852" x="4" y="14" width="20" height="20" fill="#f68d59" style="paint-order:stroke fill markers"/>
  <path id="rect840" d="m14 14v10h10v-10h-10zm0 10h-10v10h10v-10zm10 10v10h10v-10h-10z" fill="#ffdd75" style="paint-order:stroke fill markers"/>
  <path id="rect846" d="m34 4v10h10v-2c0-4.432-3.568-8-8-8h-2zm-10 20v10h10v-10h-10zm10 10v10h2c4.432 0 8-3.568 8-8v-2h-10z" fill="#96d56b" style="paint-order:stroke fill markers"/>
  <path id="rect817" d="m12 4c-4.432 0-8 3.568-8 8v24c0 4.432 3.568 8 8 8h24c4.432 0 8-3.568 8-8v-24c0-4.432-3.568-8-8-8h-24zm0 1h24c3.878 0 7 3.122 7 7v24c0 3.878-3.122 7-7 7h-24c-3.878 0-7-3.122-7-7v-24c0-3.878 3.122-7 7-7z" opacity=".3" style="paint-order:stroke fill markers"/>
 </g>
</svg>
