<?xml version="1.0" encoding="UTF-8"?>
<!-- Created with Inkscape (http://www.inkscape.org/) -->
<svg id="SVGRoot" width="48px" height="48px" version="1.1" viewBox="0 0 48 48" xml:space="preserve" xmlns="http://www.w3.org/2000/svg" xmlns:cc="http://creativecommons.org/ns#" xmlns:dc="http://purl.org/dc/elements/1.1/" xmlns:rdf="http://www.w3.org/1999/02/22-rdf-syntax-ns#"><defs><style>.cls-1{fill:none;stroke:#fff;stroke-linecap:round;stroke-linejoin:round;}</style><style>.cls-1{fill:none;stroke:#fff;stroke-linecap:round;stroke-linejoin:round;}</style><style>.cls-1{fill:none;stroke:#fff;stroke-linecap:round;stroke-linejoin:round;}</style><style>.cls-1{fill:none;stroke:#fff;stroke-linecap:round;stroke-linejoin:round;}</style><style>.cls-1{fill:none;stroke:#fff;stroke-linecap:round;stroke-linejoin:round;}</style><style>.cls-1{fill:none;stroke:#fff;stroke-linecap:round;stroke-linejoin:round;}</style><style>.a{fill:none;stroke:#b1b5bd;stroke-linecap:round;stroke-linejoin:round;isolation:isolate;opacity:0.63;}</style><style>.cls-1{fill:none;stroke:#fff;stroke-linecap:round;stroke-linejoin:round;}</style><style>.cls-1{fill:none;stroke:#fff;stroke-linecap:round;stroke-linejoin:round;}</style><style>.cls-1{fill:none;stroke:#fff;stroke-linecap:round;stroke-linejoin:round;}</style><style>.cls-1{fill:none;stroke:#fff;stroke-linecap:round;stroke-linejoin:round;}</style><style>.a{fill:none;stroke:#b1b5bd;stroke-linecap:round;stroke-linejoin:round;isolation:isolate;opacity:0.63;}</style><style>.cls-1{fill:none;stroke:#fff;stroke-linecap:round;stroke-linejoin:round;}</style><style>.cls-1{fill:none;stroke:#fff;stroke-linecap:round;stroke-linejoin:round;}</style><style>.cls-1{fill:none;stroke:#fff;stroke-linecap:round;stroke-linejoin:round;}</style></defs><metadata><rdf:RDF><cc:Work rdf:about=""><dc:format>image/svg+xml</dc:format><dc:type rdf:resource="http://purl.org/dc/dcmitype/StillImage"/></cc:Work></rdf:RDF></metadata><rect x="4" y="4" width="40" height="40" ry="8" fill="#efefef" fill-rule="evenodd" style="paint-order:stroke fill markers"/><path d="m12 4c-4.432 0-8 3.568-8 8v24c0 4.432 3.568 8 8 8h24c4.432 0 8-3.568 8-8v-24c0-4.432-3.568-8-8-8zm0 1h24c3.878 0 7 3.122 7 7v24c0 3.878-3.122 7-7 7h-24c-3.878 0-7-3.122-7-7v-24c0-3.878 3.122-7 7-7z" fill-rule="evenodd" opacity=".3" style="paint-order:stroke fill markers"/><g stroke-linecap="round" stroke-linejoin="round"><path d="m13.82 25.877c-1.8715-0.13368-3.0625 0.15234-3.0625 0.15234a1 1 0 0 0-0.72852 1.2129 1 1 0 0 0 1.2129 0.72852s0.80902-0.21398 2.4375-0.09766c1.6285 0.11632 3.9923 0.58111 6.873 2.0215 1.3682 0.68409 2.6808 2.1021 4.123 3.4434 1.4423 1.3413 3.1158 2.6621 5.3242 2.6621 4.6667 0 7.8008-4.4004 7.8008-4.4004a1 1 0 0 0-0.20117-1.4004 1 1 0 0 0-1.4004 0.20117s-2.8659 3.5996-6.1992 3.5996c-1.3971 0-2.6108-0.87137-3.9609-2.127-1.3501-1.2556-2.7351-2.8392-4.5918-3.7676-3.1193-1.5596-5.7554-2.0948-7.627-2.2285z" fill="#46589d" stop-color="#000000"/><path d="m27.791 17.021a1.0001 1.0001 0 0 0-0.77734 0.81445l-0.86133 5.1641h-5.1523a1.0001 1.0001 0 0 0-0.51367 1.8574l4.2695 2.5625-1.6836 4.209a1.0001 1.0001 0 0 0 1.5273 1.1719l3.4336-2.5762 5.4121 3.6074a1.0001 1.0001 0 0 0 1.4824-1.2031l-1.7539-4.3887 4.5332-4.5332a1.0001 1.0001 0 0 0-0.90234-1.6875l-4.3438 0.86914-3.6289-5.4434a1.0001 1.0001 0 0 0-1.041-0.42383zm0.7793 3.6367 2.5977 3.8965a1.0001 1.0001 0 0 0 1.0273 0.42578l1.7617-0.35156-2.6641 2.6641a1.0001 1.0001 0 0 0-0.2207 1.0781l0.80469 2.0117-3.3223-2.2148a1.0001 1.0001 0 0 0-1.1543 0.03125l-1.1484 0.86133 0.67578-1.6895a1.0001 1.0001 0 0 0-0.41406-1.2285l-1.9043-1.1426h2.3906a1.0001 1.0001 0 0 0 0.98633-0.83594z" fill="#f6a559" stop-color="#000000"/><path d="m19 12c-3.878 0-7 3.122-7 7s3.122 7 7 7 7-3.122 7-7-3.122-7-7-7zm0 2c2.77 0 5 2.23 5 5s-2.23 5-5 5-5-2.23-5-5 2.23-5 5-5z" fill="#d35244" stroke-width="2"/></g></svg>
