<?xml version="1.0" encoding="UTF-8"?>
<!-- Created with Inkscape (http://www.inkscape.org/) -->
<svg id="SVGRoot" width="48px" height="48px" version="1.1" viewBox="0 0 48 48" xmlns="http://www.w3.org/2000/svg" xmlns:cc="http://creativecommons.org/ns#" xmlns:dc="http://purl.org/dc/elements/1.1/" xmlns:rdf="http://www.w3.org/1999/02/22-rdf-syntax-ns#">
 <defs id="defs815">
  <style id="style819">.cls-1{fill:none;stroke:#fff;stroke-linecap:round;stroke-linejoin:round;}</style>
 </defs>
 <metadata id="metadata818">
  <rdf:RDF>
   <cc:Work rdf:about="">
    <dc:format>image/svg+xml</dc:format>
    <dc:type rdf:resource="http://purl.org/dc/dcmitype/StillImage"/>
    <dc:title/>
   </cc:Work>
  </rdf:RDF>
 </metadata>
 <g id="layer1" fill-rule="evenodd">
  <rect id="rect1373-5" x="4" y="4" width="40" height="40" ry="8" fill="#96d56b" style="paint-order:stroke fill markers"/>
  <path id="rect817" d="m12 4c-4.432 0-8 3.568-8 8v24c0 4.432 3.568 8 8 8h24c4.432 0 8-3.568 8-8v-24c0-4.432-3.568-8-8-8h-24zm0 1h24c3.878 0 7 3.122 7 7v24c0 3.878-3.122 7-7 7h-24c-3.878 0-7-3.122-7-7v-24c0-3.878 3.122-7 7-7z" opacity=".3" style="paint-order:stroke fill markers"/>
  <path id="rect851-73" d="m30 28c-1.108 0-2 0.892-2 2v12h8c3.324 0 6-2.676 6-6v-8h-12z" fill="#b072dd" style="paint-order:stroke fill markers"/>
  <path id="rect851" d="m12 6c-3.324 0-6 2.676-6 6v8h12c1.108 0 2-0.892 2-2v-12h-8z" fill="#b072dd" style="paint-order:stroke fill markers"/>
  <rect id="rect851-5" x="8" y="26" width="14" height="14" ry="3" fill="#b072dd" style="paint-order:stroke fill markers"/>
  <rect id="rect851-5-5" x="26" y="8" width="14" height="14" ry="3" fill="#fff" style="paint-order:stroke fill markers"/>
 </g>
</svg>
