<?xml version="1.0" encoding="UTF-8"?>
<!-- Created with Inkscape (http://www.inkscape.org/) -->
<svg id="SVGRoot" width="48px" height="48px" version="1.1" viewBox="0 0 48 48" xmlns="http://www.w3.org/2000/svg" xmlns:cc="http://creativecommons.org/ns#" xmlns:dc="http://purl.org/dc/elements/1.1/" xmlns:rdf="http://www.w3.org/1999/02/22-rdf-syntax-ns#">
 <defs id="defs815">
  <style id="style819">.cls-1{fill:none;stroke:#fff;stroke-linecap:round;stroke-linejoin:round;}</style>
 </defs>
 <metadata id="metadata818">
  <rdf:RDF>
   <cc:Work rdf:about="">
    <dc:format>image/svg+xml</dc:format>
    <dc:type rdf:resource="http://purl.org/dc/dcmitype/StillImage"/>
    <dc:title/>
   </cc:Work>
  </rdf:RDF>
 </metadata>
 <g id="layer1">
  <rect id="rect1373-5" x="4" y="4" width="40" height="40" ry="8" fill="#ffdd75" fill-rule="evenodd" style="paint-order:stroke fill markers"/>
  <path id="rect817" d="m12 4c-4.432 0-8 3.568-8 8v24c0 4.432 3.568 8 8 8h24c4.432 0 8-3.568 8-8v-24c0-4.432-3.568-8-8-8h-24zm0 1h24c3.878 0 7 3.122 7 7v24c0 3.878-3.122 7-7 7h-24c-3.878 0-7-3.122-7-7v-24c0-3.878 3.122-7 7-7z" fill-rule="evenodd" opacity=".3" style="paint-order:stroke fill markers"/>
  <path id="rect1090" d="m6 36c0 3.324 2.676 6 6 6h24c3.324 0 6-2.676 6-6h-36z" fill="#f6a559" fill-rule="evenodd" style="paint-order:normal"/>
  <path id="path954" d="m12 6c-0.60699 0-1.1908 0.091696-1.7422 0.25781l1.2422 1.2422-3.5 3.5 4 4 4-4-3.5-3.5 1.5-1.5h-2zm4 5 4 4 4-4-3.5-3.5 1.5-1.5h-4l1.5 1.5-3.5 3.5zm8 0 4 4 4-4-3.5-3.5 1.5-1.5h-4l1.5 1.5-3.5 3.5zm8 0 4 4 4-4-3.5-3.5 1.2422-1.2422c-0.55142-0.16612-1.1352-0.25781-1.7422-0.25781h-2l1.5 1.5-3.5 3.5zm8 0 2 2v-1c0-0.88178-0.19248-1.716-0.53125-2.4688l-1.4688 1.4688zm-4 4-4 4 4 4 4-4-4-4zm4 4 2 2v-4l-2 2zm-4 4-4 4 4 4 4-4-4-4zm4 4 2 2v-4l-2 2zm-4 4-4 4 4 4 4-4-4-4zm4 4 1.9219 1.9219c0.046159-0.30107 0.078125-0.6075 0.078125-0.92188v-3l-2 2zm-4 4-3 3h3c0.88178 0 1.716-0.19248 2.4688-0.53125l-2.4688-2.4688zm-4-4-4-4-4 4 4 4 4-4zm-4 4-3 3h6l-3-3zm-4-4-4-4-4 4 4 4 4-4zm-4 4-3 3h6l-3-3zm-4-4-4-4-4 4 4 4 4-4zm-4 4-2.4688 2.4688c0.75272 0.33877 1.587 0.53125 2.4688 0.53125h3l-3-3zm-4-4-2-2v3c0 0.31438 0.031966 0.6208 0.078125 0.92188l1.9219-1.9219zm4-4 4-4-4-4-4 4 4 4zm-4-4-2-2v4l2-2zm4-4 4-4-4-4-4 4 4 4zm-4-4-2-2v4l2-2zm8 0 4 4 4-4-4-4-4 4zm8 0 4 4 4-4-4-4-4 4zm4 4-4 4 4 4 4-4-4-4zm-4 4-4-4-4 4 4 4 4-4zm-16-16-1.4688-1.4688c-0.33877 0.75272-0.53125 1.587-0.53125 2.4688v1l2-2z" opacity=".1"/>
  <rect id="rect828" x="23" y="11" width="6" height="6" ry="3" fill="#4e4e4e" fill-rule="evenodd" style="paint-order:stroke fill markers"/>
  <path id="rect834" d="m34.91 15.977c-0.73016 0.03747-1.3817 0.47033-1.6992 1.1289l-1.2891 2.5781c-5.2891-1.3792-10.919-2.8284-15.574-3.6523-0.13144-0.023692-0.26491-0.034161-0.39844-0.03125-0.73922 0.01884-1.4077 0.44399-1.7383 1.1055l-2 4c-1.1927 2.3854 2.3854 4.1745 3.5781 1.7891l1.332-2.666 3.4551 0.60938-2.7598 7.8867-3.4238-0.68555c-2.654-0.58327-3.4592 3.4385-0.78516 3.9219l5 1c0.9204 0.1838 1.8448-0.29709 2.2227-1.1562l1.7695-4.0215 6.1289 2.373-0.68945 3.4512c-0.58327 2.654 3.4385 3.4592 3.9219 0.78516l1-5c0.18149-0.90796-0.28392-1.8218-1.125-2.209l-4.1641-1.916 0.62695-2.3398 4.2344 1.0176c0.90483 0.2171 1.8399-0.21844 2.2559-1.0508l2-4c0.71106-1.3719-0.33575-2.9976-1.8789-2.918z" fill="#4e4e4e" fill-rule="evenodd" style="paint-order:stroke fill markers"/>
 </g>
</svg>
