<?xml version="1.0" encoding="UTF-8"?>
<!-- Created with Inkscape (http://www.inkscape.org/) -->
<svg id="SVGRoot" width="48px" height="48px" version="1.1" viewBox="0 0 48 48" xml:space="preserve" xmlns="http://www.w3.org/2000/svg" xmlns:cc="http://creativecommons.org/ns#" xmlns:dc="http://purl.org/dc/elements/1.1/" xmlns:rdf="http://www.w3.org/1999/02/22-rdf-syntax-ns#"><defs><style>.cls-1{fill:none;stroke:#fff;stroke-linecap:round;stroke-linejoin:round;}</style><style>.cls-1{fill:none;stroke:#fff;stroke-linecap:round;stroke-linejoin:round;}</style><style>.a{fill:none;stroke:#b1b5bd;stroke-linecap:round;stroke-linejoin:round;isolation:isolate;opacity:0.63;}</style><style>.cls-1{fill:none;stroke:#fff;stroke-linecap:round;stroke-linejoin:round;}</style></defs><metadata><rdf:RDF><cc:Work rdf:about=""><dc:format>image/svg+xml</dc:format><dc:type rdf:resource="http://purl.org/dc/dcmitype/StillImage"/></cc:Work></rdf:RDF></metadata><rect x="4" y="4" width="40" height="40" ry="8" fill="#ffcf75" fill-rule="evenodd" style="paint-order:stroke fill markers"/><path d="m12 4c-4.432 0-8 3.568-8 8v24c0 4.432 3.568 8 8 8h24c4.432 0 8-3.568 8-8v-24c0-4.432-3.568-8-8-8zm0 1h24c3.878 0 7 3.122 7 7v24c0 3.878-3.122 7-7 7h-24c-3.878 0-7-3.122-7-7v-24c0-3.878 3.122-7 7-7z" fill-rule="evenodd" opacity=".3" style="paint-order:stroke fill markers"/><g stroke-linecap="round" stroke-linejoin="round"><g stroke-width="2"><rect x="13" y="25" width="22" height="12" ry="3" fill="#4e4e4e" opacity=".3"/><rect x="14" y="26" width="20" height="10" ry="2" fill="#fff"/><path d="m5 13 8 3h21l9-3v3l-7 8h-24l-7-8z" fill="#4e4e4e"/></g><g stroke-width="2"><path d="m6 21 4 5v7l-4 2z" opacity=".3"/><path d="m16 42 3-4h10l3 4z" opacity=".3"/><path d="m11.049 6.0742c-2.5507 0.40269-4.5567 2.4004-4.9707 4.9473l6.9219 1.9785 2-1-3.9512-5.9258z" opacity=".3"/><path d="m15 6 2 2h14l2-2z" opacity=".3"/><path d="m42 21-4 5v7l4 2z" opacity=".3"/><path d="m36.951 6.0742c2.5507 0.40269 4.5567 2.4004 4.9707 4.9473l-6.9219 1.9785-2-1z" opacity=".3"/></g><g stroke-width="2.2361"><rect x="17" y="26" width="2" height="10" opacity=".3"/><rect x="21" y="26" width="2" height="10" opacity=".3"/><rect x="25" y="26" width="2" height="10" opacity=".3"/><rect x="29" y="26" width="2" height="10" opacity=".3"/></g><g fill="#f97263" stroke-width="2"><rect x="14" y="18" width="4" height="4" ry="2"/><rect x="22" y="18" width="4" height="4" ry="2"/><rect x="30" y="18" width="4" height="4" ry="2"/></g></g></svg>
