<?xml version="1.0" encoding="UTF-8"?>
<!-- Created with Inkscape (http://www.inkscape.org/) -->
<svg id="SVGRoot" width="48px" height="48px" version="1.1" viewBox="0 0 48 48" xml:space="preserve" xmlns="http://www.w3.org/2000/svg" xmlns:cc="http://creativecommons.org/ns#" xmlns:dc="http://purl.org/dc/elements/1.1/" xmlns:rdf="http://www.w3.org/1999/02/22-rdf-syntax-ns#"><defs><style>.cls-1{fill:none;stroke:#fff;stroke-linecap:round;stroke-linejoin:round;}</style><style>.cls-1{fill:none;stroke:#fff;stroke-linecap:round;stroke-linejoin:round;}</style></defs><metadata><rdf:RDF><cc:Work rdf:about=""><dc:format>image/svg+xml</dc:format><dc:type rdf:resource="http://purl.org/dc/dcmitype/StillImage"/></cc:Work></rdf:RDF></metadata><rect x="4" y="4" width="40" height="40" ry="8" fill="#96d56b" fill-rule="evenodd" style="paint-order:stroke fill markers"/><g stroke-linecap="round" stroke-linejoin="round" stroke-width="2"><path d="m24 20-16 4 1 4-2 2 6 6h11 11l6-6-2-2 1-4-16-4z" opacity=".3"/><rect x="10" y="10" width="28" height="28" ry="14" fill="#efefef"/><path d="m22.766 11.057c-1.324 0.12358-2.5889 0.4456-3.7656 0.93359-1.8e-5 0.003545 0 0.006217 0 0.009766 0 1.108 0.892 2 2 2s2-0.892 2-2c0-0.34132-0.084841-0.66279-0.23438-0.94336zm2.4688 0c-0.14953 0.28056-0.23438 0.60204-0.23438 0.94336 0 1.108 0.892 2 2 2s2-0.892 2-2c0-0.003549 1.8e-5 -0.006221 0-0.009766-1.1768-0.488-2.4417-0.81002-3.7656-0.93359zm-8.8672 2.4062c-0.11702 0.084731-0.23169 0.17127-0.3457 0.25976 0.125-0.074025 0.24029-0.16118 0.3457-0.25976zm15.266 0c0.10542 0.098587 0.2207 0.18574 0.3457 0.25976-0.11402-0.088499-0.22869-0.17503-0.3457-0.25976zm-13.633 0.53711c-1.108 0-2 0.892-2 2s0.892 2 2 2 2-0.892 2-2-0.892-2-2-2zm6 0c-1.108 0-2 0.892-2 2s0.892 2 2 2 2-0.892 2-2-0.892-2-2-2zm6 0c-1.108 0-2 0.892-2 2s0.892 2 2 2 2-0.892 2-2-0.892-2-2-2zm-16.021 1.7012c-0.57111 0.68976-1.0721 1.4404-1.4922 2.2402 0.87171-0.21598 1.5137-1.0011 1.5137-1.9414 0-0.10154-0.007022-0.20144-0.021484-0.29883zm20.043 0c-0.014462 0.097391-0.021484 0.19729-0.021484 0.29883 0 0.94033 0.64196 1.7254 1.5137 1.9414-0.42013-0.79981-0.92108-1.5505-1.4922-2.2402zm-19.021 2.2988c-1.108 0-2 0.892-2 2s0.892 2 2 2 2-0.892 2-2-0.892-2-2-2zm6 0c-1.108 0-2 0.892-2 2s0.892 2 2 2 2-0.892 2-2-0.892-2-2-2zm6 0c-1.108 0-2 0.892-2 2s0.892 2 2 2 2-0.892 2-2-0.892-2-2-2zm6 0c-1.108 0-2 0.892-2 2s0.892 2 2 2 2-0.892 2-2-0.892-2-2-2zm-21 4c-0.31521 0-0.61227 0.072351-0.87695 0.20117-0.080687 0.58778-0.12305 1.1882-0.12305 1.7988s0.04236 1.211 0.12305 1.7988c0.26468 0.12882 0.56174 0.20117 0.87695 0.20117 1.108 0 2-0.892 2-2s-0.892-2-2-2zm6 0c-1.108 0-2 0.892-2 2s0.892 2 2 2 2-0.892 2-2-0.892-2-2-2zm6 0c-1.108 0-2 0.892-2 2s0.892 2 2 2 2-0.892 2-2-0.892-2-2-2zm6 0c-1.108 0-2 0.892-2 2s0.892 2 2 2 2-0.892 2-2-0.892-2-2-2zm6 0c-1.108 0-2 0.892-2 2s0.892 2 2 2c0.31521 0 0.61227-0.072351 0.87695-0.20117 0.080687-0.58778 0.12305-1.1882 0.12305-1.7988s-0.04236-1.211-0.12305-1.7988c-0.26468-0.12882-0.56174-0.20117-0.87695-0.20117zm-21 4c-1.108 0-2 0.892-2 2s0.892 2 2 2 2-0.892 2-2-0.892-2-2-2zm6 0c-1.108 0-2 0.892-2 2s0.892 2 2 2 2-0.892 2-2-0.892-2-2-2zm6 0c-1.108 0-2 0.892-2 2s0.892 2 2 2 2-0.892 2-2-0.892-2-2-2zm6 0c-1.108 0-2 0.892-2 2s0.892 2 2 2 2-0.892 2-2-0.892-2-2-2zm-15 4c-1.108 0-2 0.892-2 2s0.892 2 2 2 2-0.892 2-2-0.892-2-2-2zm6 0c-1.108 0-2 0.892-2 2s0.892 2 2 2 2-0.892 2-2-0.892-2-2-2zm6 0c-1.108 0-2 0.892-2 2s0.892 2 2 2 2-0.892 2-2-0.892-2-2-2zm-17.514 0.058594c0.42013 0.79981 0.92108 1.5505 1.4922 2.2402 0.014462-0.097391 0.021484-0.19729 0.021484-0.29883 0-0.94033-0.64196-1.7254-1.5137-1.9414zm23.027 0c-0.87171 0.21598-1.5137 1.0011-1.5137 1.9414 0 0.10154 0.007022 0.20144 0.021484 0.29883 0.57111-0.68976 1.0721-1.4404 1.4922-2.2402z" opacity=".15"/></g><path d="m12 4c-4.432 0-8 3.568-8 8v24c0 4.432 3.568 8 8 8h24c4.432 0 8-3.568 8-8v-24c0-4.432-3.568-8-8-8zm0 1h24c3.878 0 7 3.122 7 7v24c0 3.878-3.122 7-7 7h-24c-3.878 0-7-3.122-7-7v-24c0-3.878 3.122-7 7-7z" fill-rule="evenodd" opacity=".3" style="paint-order:stroke fill markers"/><path d="m11 29 0.048828 0.3457c2.23e-4 5.42e-4 -2.23e-4 0.001411 0 0.001953 2.0927 5.0881 7.091 8.6523 12.951 8.6523s10.858-3.5642 12.951-8.6523v-0.001953l0.048828-0.3457-7 3-2-3-4 3-4-3-2 3-7-3z" opacity=".25" stroke-linecap="round" stroke-linejoin="round" stroke-width="2"/><path d="m12 36 3-4 3 4 3-4 3 4 3-4 3 4 3-4 3 4-12 6z" fill="#96d56b" stroke-linecap="round" stroke-linejoin="round" stroke-width="1.7321"/></svg>
