<?xml version="1.0" encoding="UTF-8"?>
<!-- Created with Inkscape (http://www.inkscape.org/) -->
<svg id="SVGRoot" width="48px" height="48px" version="1.1" viewBox="0 0 48 48" xmlns="http://www.w3.org/2000/svg" xmlns:cc="http://creativecommons.org/ns#" xmlns:dc="http://purl.org/dc/elements/1.1/" xmlns:rdf="http://www.w3.org/1999/02/22-rdf-syntax-ns#" xmlns:xlink="http://www.w3.org/1999/xlink">
 <defs id="defs815">
  <style id="style819">.cls-1{fill:none;stroke:#fff;stroke-linecap:round;stroke-linejoin:round;}</style>
  <style id="style819-3">.cls-1{fill:none;stroke:#fff;stroke-linecap:round;stroke-linejoin:round;}</style>
  <style id="style819-16">.cls-1{fill:none;stroke:#fff;stroke-linecap:round;stroke-linejoin:round;}</style>
  <style id="style819-3-41">.cls-1{fill:none;stroke:#fff;stroke-linecap:round;stroke-linejoin:round;}</style>
  <style id="style819-1">.cls-1{fill:none;stroke:#fff;stroke-linecap:round;stroke-linejoin:round;}</style>
  <style id="style2">.a{fill:none;stroke:#b1b5bd;stroke-linecap:round;stroke-linejoin:round;isolation:isolate;opacity:0.63;}</style>
  <style id="style819-12">.cls-1{fill:none;stroke:#fff;stroke-linecap:round;stroke-linejoin:round;}</style>
  <style id="style819-0">.cls-1{fill:none;stroke:#fff;stroke-linecap:round;stroke-linejoin:round;}</style>
  <style id="style819-3-4">.cls-1{fill:none;stroke:#fff;stroke-linecap:round;stroke-linejoin:round;}</style>
  <style id="style819-1-7">.cls-1{fill:none;stroke:#fff;stroke-linecap:round;stroke-linejoin:round;}</style>
  <style id="style2-3">.a{fill:none;stroke:#b1b5bd;stroke-linecap:round;stroke-linejoin:round;isolation:isolate;opacity:0.63;}</style>
  <style id="style819-12-9">.cls-1{fill:none;stroke:#fff;stroke-linecap:round;stroke-linejoin:round;}</style>
  <style id="style819-09">.cls-1{fill:none;stroke:#fff;stroke-linecap:round;stroke-linejoin:round;}</style>
  <style id="style819-5">.cls-1{fill:none;stroke:#fff;stroke-linecap:round;stroke-linejoin:round;}</style>
 </defs>
 <metadata id="metadata818">
  <rdf:RDF>
   <cc:Work rdf:about="">
    <dc:format>image/svg+xml</dc:format>
    <dc:type rdf:resource="http://purl.org/dc/dcmitype/StillImage"/>
    <dc:title/>
   </cc:Work>
  </rdf:RDF>
 </metadata>
 <g id="layer1" fill-rule="evenodd">
  <rect id="rect1373-5" x="4" y="4" width="40" height="40" ry="8" fill="#4e4e4e" style="paint-order:stroke fill markers"/>
  <path id="rect817" d="m12 4c-4.432 0-8 3.568-8 8v24c0 4.432 3.568 8 8 8h24c4.432 0 8-3.568 8-8v-24c0-4.432-3.568-8-8-8h-24zm0 1h24c3.878 0 7 3.122 7 7v24c0 3.878-3.122 7-7 7h-24c-3.878 0-7-3.122-7-7v-24c0-3.878 3.122-7 7-7z" opacity=".4" style="paint-order:stroke fill markers"/>
  <path id="rect894" d="m14 10c-2.216 0-4 1.784-4 4v8h4l8-8v-4h-3z" fill="#729dec" style="paint-order:stroke fill markers"/>
  <path id="rect901" d="m15 14c-0.554 0-1 0.446-1 1v7h8v-8h-7z" fill="#46589d" style="paint-order:stroke fill markers"/>
  <path id="rect894-2" d="m14 38c-2.216 0-4-1.784-4-4v-8h4l8 8v4h-3z" fill="#96d56b" style="paint-order:stroke fill markers"/>
  <path id="rect901-7" d="m15 34c-0.554 0-1-0.446-1-1v-7h8v8h-7z" fill="#4fb47b" style="paint-order:stroke fill markers"/>
  <path id="rect894-5" d="m34 10c2.216 0 4 1.784 4 4v8h-4l-8-8v-4h3z" fill="#d35244" style="paint-order:stroke fill markers"/>
  <path id="rect901-2" d="m33 14c0.554 0 1 0.446 1 1v7h-8v-8h7z" fill="#943657" style="paint-order:stroke fill markers"/>
  <path id="rect894-2-7" d="m34 38c2.216 0 4-1.784 4-4v-8h-4l-8 8v4h3z" fill="#ffdd75" style="paint-order:stroke fill markers"/>
  <path id="rect901-7-5" d="m33 34c0.554 0 1-0.446 1-1v-7h-8v8h7z" fill="#f6a559" style="paint-order:stroke fill markers"/>
  <rect id="rect978" x="19" y="16" width="10" height="16" fill="#fff" style="paint-order:stroke fill markers"/>
  <rect id="rect978-9" transform="rotate(90)" x="19" y="-32" width="10" height="16" fill="#fff" style="paint-order:stroke fill markers"/>
 </g>
</svg>
