<?xml version="1.0" encoding="UTF-8"?>
<!-- Created with Inkscape (http://www.inkscape.org/) -->
<svg id="SVGRoot" width="48px" height="48px" version="1.1" viewBox="0 0 48 48" xmlns="http://www.w3.org/2000/svg" xmlns:cc="http://creativecommons.org/ns#" xmlns:dc="http://purl.org/dc/elements/1.1/" xmlns:rdf="http://www.w3.org/1999/02/22-rdf-syntax-ns#">
 <defs id="defs815">
  <style id="style819">.cls-1{fill:none;stroke:#fff;stroke-linecap:round;stroke-linejoin:round;}</style>
  <style id="style2">.a{fill:none;stroke:#b1b5bd;stroke-linecap:round;stroke-linejoin:round;isolation:isolate;opacity:0.63;}</style>
 </defs>
 <metadata id="metadata818">
  <rdf:RDF>
   <cc:Work rdf:about="">
    <dc:format>image/svg+xml</dc:format>
    <dc:type rdf:resource="http://purl.org/dc/dcmitype/StillImage"/>
    <dc:title/>
   </cc:Work>
  </rdf:RDF>
 </metadata>
 <g id="layer1">
  <rect id="rect1373-5" x="4" y="4" width="40" height="40" ry="8" fill="#659b40" fill-rule="evenodd" style="paint-order:stroke fill markers"/>
  <path id="rect817" d="m12 4c-4.432 0-8 3.568-8 8v24c0 4.432 3.568 8 8 8h24c4.432 0 8-3.568 8-8v-24c0-4.432-3.568-8-8-8h-24zm0 1h24c3.878 0 7 3.122 7 7v24c0 3.878-3.122 7-7 7h-24c-3.878 0-7-3.122-7-7v-24c0-3.878 3.122-7 7-7z" fill-rule="evenodd" opacity=".3" style="paint-order:stroke fill markers"/>
  <rect id="rect1040" x="8" y="8" width="32" height="32" ry="4" fill="#e5f9c5" fill-rule="evenodd" style="paint-order:normal"/>
  <path id="rect1081" d="m12 10c-1.108 0-2 0.892-2 2v5l13 6-6-13h-5zm7 0 5 12 5-12h-10zm12 0-6 13 13-6v-5c0-1.108-0.892-2-2-2h-5zm-21 9v10l12-5-12-5zm28 0-12 5 12 5v-10zm-15 6-13 6v5c0 1.108 0.892 2 2 2h5l6-13zm2 0 6 13h5c1.108 0 2-0.892 2-2v-5l-13-6zm-1 1-5 12h10l-5-12z" fill="#b7e275" fill-rule="evenodd" style="paint-order:normal"/>
  <rect id="rect856" x="12" y="20" width="8" height="8" ry="4" fill="#435835" fill-rule="evenodd" style="paint-order:normal"/>
  <rect id="rect856-0" x="28" y="20" width="8" height="8" ry="4" fill="#435835" fill-rule="evenodd" style="paint-order:normal"/>
  <path id="path873" d="m21 28s1 1 3 1 3-1 3-1" fill="none" stroke="#435835" stroke-linecap="round" stroke-linejoin="round" stroke-width="2"/>
  <rect id="rect875" x="14" y="22" width="2" height="2" ry="1" fill="#fff" fill-rule="evenodd" style="paint-order:normal"/>
  <rect id="rect877" x="30" y="22" width="2" height="2" ry="1" fill="#fff" fill-rule="evenodd" style="paint-order:normal"/>
 </g>
</svg>
