<?xml version="1.0" encoding="UTF-8"?>
<!-- Created with Inkscape (http://www.inkscape.org/) -->
<svg id="SVGRoot" width="48px" height="48px" version="1.1" viewBox="0 0 48 48" xmlns="http://www.w3.org/2000/svg" xmlns:cc="http://creativecommons.org/ns#" xmlns:dc="http://purl.org/dc/elements/1.1/" xmlns:rdf="http://www.w3.org/1999/02/22-rdf-syntax-ns#">
 <defs id="defs815">
  <style id="style819">.cls-1{fill:none;stroke:#fff;stroke-linecap:round;stroke-linejoin:round;}</style>
 </defs>
 <metadata id="metadata818">
  <rdf:RDF>
   <cc:Work rdf:about="">
    <dc:format>image/svg+xml</dc:format>
    <dc:type rdf:resource="http://purl.org/dc/dcmitype/StillImage"/>
    <dc:title/>
   </cc:Work>
  </rdf:RDF>
 </metadata>
 <g id="layer1">
  <rect id="rect1373-5" x="4" y="4" width="40" height="40" ry="8" fill="#96d56b" fill-rule="evenodd" style="paint-order:stroke fill markers"/>
  <path id="rect817" d="m12 4c-4.432 0-8 3.568-8 8v24c0 4.432 3.568 8 8 8h24c4.432 0 8-3.568 8-8v-24c0-4.432-3.568-8-8-8h-24zm0 1h24c3.878 0 7 3.122 7 7v24c0 3.878-3.122 7-7 7h-24c-3.878 0-7-3.122-7-7v-24c0-3.878 3.122-7 7-7z" fill-rule="evenodd" opacity=".3" style="paint-order:stroke fill markers"/>
  <path id="path837" d="m16.564 6c-0.3293 2.1963 0.21811 4.8201 0.43555 7 0.44999 4.5114-0.48641 12.346 4 13 5.9464 0.86682 4.0885-16.079 10-15 4.3749 0.79882 3.5254 8.5839 3 13-0.08806 0.74014-0.5158 1.4333-1 2-1.8628 2.18-6.7635 2.1423-7 5-0.38608 4.6649 4.314 8.9286 9.0664 11h0.93359c3.324 0 6-2.676 6-6v-24c0-3.324-2.676-6-6-6h-19.436z" fill="#729dec"/>
  <path id="path833" d="m6 13.641v22.359c0 3.324 2.676 6 6 6h24c3.324 0 6-2.676 6-6v-15.557c-3.4782 2.949 1.0348 18.179-5 19.557-5.0555 1.1537-6.0806-9.3602-11-11-4.4721-1.4907-11.047 5.6745-14 2-1.7841-2.22 3.7408-5.25 3-8-1.0466-3.8848-5.1609-9.1102-9-9.3594z" fill="#d35244"/>
  <rect id="rect862" x="8" y="8" width="4" height="4" ry="2" fill="#d35244" fill-rule="evenodd" style="paint-order:normal"/>
  <rect id="rect864" x="13" y="14" width="2" height="2" ry="1" fill="#d35244" fill-rule="evenodd" style="paint-order:normal"/>
  <rect id="rect866" x="20" y="14" width="4" height="4" ry="2" fill="#96d56b" fill-rule="evenodd" style="paint-order:normal"/>
  <rect id="rect868" x="35" y="30" width="6" height="6" ry="3" fill="#d35244" fill-rule="evenodd" style="paint-order:normal"/>
  <rect id="rect870" x="31" y="30" width="2" height="2" ry="1" fill="#d35244" fill-rule="evenodd" style="paint-order:normal"/>
  <rect id="rect872" x="20" y="36" width="4" height="4" ry="2" fill="#729dec" fill-rule="evenodd" style="paint-order:normal"/>
  <rect id="rect874" x="10" y="20" width="2" height="2" ry="1" fill="#729dec" fill-rule="evenodd" style="paint-order:normal"/>
  <rect id="rect876" x="8" y="24" width="2" height="2" ry="1" fill="#729dec" fill-rule="evenodd" style="paint-order:normal"/>
 </g>
</svg>
