<?xml version="1.0" encoding="UTF-8"?>
<!-- Created with Inkscape (http://www.inkscape.org/) -->
<svg id="SVGRoot" width="48px" height="48px" version="1.1" viewBox="0 0 48 48" xmlns="http://www.w3.org/2000/svg" xmlns:cc="http://creativecommons.org/ns#" xmlns:dc="http://purl.org/dc/elements/1.1/" xmlns:rdf="http://www.w3.org/1999/02/22-rdf-syntax-ns#">
 <defs id="defs815">
  <style id="style819">.cls-1{fill:none;stroke:#fff;stroke-linecap:round;stroke-linejoin:round;}</style>
 </defs>
 <metadata id="metadata818">
  <rdf:RDF>
   <cc:Work rdf:about="">
    <dc:format>image/svg+xml</dc:format>
    <dc:type rdf:resource="http://purl.org/dc/dcmitype/StillImage"/>
    <dc:title/>
   </cc:Work>
  </rdf:RDF>
 </metadata>
 <g id="layer1">
  <rect id="rect1373" x="4" y="4" width="40" height="40" ry="8" fill="#bcc9f3" fill-rule="evenodd" style="paint-order:stroke fill markers"/>
  <path id="rect817" d="m12 4c-4.432 0-8 3.568-8 8v24c0 4.432 3.568 8 8 8h24c4.432 0 8-3.568 8-8v-24c0-4.432-3.568-8-8-8h-24zm0 1h24c3.878 0 7 3.122 7 7v24c0 3.878-3.122 7-7 7h-24c-3.878 0-7-3.122-7-7v-24c0-3.878 3.122-7 7-7z" fill-rule="evenodd" opacity=".3" style="paint-order:stroke fill markers"/>
  <path id="path841" d="m29.566 31.585 2.798 1.0259s0.75126 0.18812 0.68396 0.80832c-0.19193 1.7687-0.59069 4.8499-0.59069 4.8499l-5.223 1.9586z" fill="#a28469"/>
  <path id="path841-3" d="m29.566 31.584-0.24023 0.88867 1.9941 0.73047s0.75089 0.1884 0.68359 0.80859c-0.18358 1.6918-0.53237 4.3903-0.56445 4.6387l1.0176-0.38086s0.39792-3.0809 0.58984-4.8496c0.0673-0.6202-0.68359-0.80859-0.68359-0.80859z" opacity=".25"/>
  <path id="path866" d="m29.254 35.627-10.818 3.4512-0.74609 0.96289-0.095703 3.959h13.82z" fill="#363636"/>
  <path id="path839-9" d="m19.834 38.455s-1.9518 0.29523-2.4238 1.5859c-0.42744 1.1688-0.47118 3.0315-0.47852 3.959h2.6758l0.16602-1.1289s-1.9781-1.6368-1.7422-2.6738c0.26988-1.1861 2.6113-1.4609 2.6113-1.4609z" fill="#896d55"/>
  <path id="path870" d="m18.18 24.184s-0.23657-5.6422-0.7044-8.4193c-0.33742-2.0029-0.60476-3.4279-1.3082-5.3333-0.51778-1.4026-1.3969-2.4936-2.1803-4.5954-0.17128-0.45956-0.95337-0.5858-1.0063-1.0734-0.058972-0.54331 0.34471-1.1748 0.83857-1.4088 0.81737-0.3873 1.9307-0.099024 2.6834 0.40252 1.7074 1.1377 2.4823 3.3391 3.1866 5.2662 0.95971 2.626 0.91453 5.7072 1.4423 8.4528 0.40043 2.083 1.2746 6.0377 1.2746 6.0377z" fill="#ac894c"/>
  <path id="path870-7" d="m14.479 3.1836c-0.23108 0.019602-0.45386 0.073097-0.6582 0.16992-0.49386 0.23401-0.89881 0.86685-0.83984 1.4102 0.05292 0.48757 0.83653 0.61271 1.0078 1.0723 0.78335 2.1018 1.6619 3.1931 2.1797 4.5957 0.70342 1.9055 0.97117 3.331 1.3086 5.334 0.46784 2.7771 0.70313 8.418 0.70313 8.418l4.2266-0.66992s-0.87301-3.9541-1.2734-6.0371c-0.52782-2.7456-0.48365-5.8271-1.4434-8.4531-0.70428-1.9271-1.4781-4.1299-3.1855-5.2676-0.56452-0.37615-1.3321-0.63107-2.0254-0.57227zm0.09961 1.0117c0.40219-0.00975 0.98022 0.13408 1.3711 0.39453 1.3283 0.88505 2.0934 2.8417 2.8008 4.7773 0.86968 2.3797 0.84439 5.4046 1.4004 8.2969 0.33746 1.7554 0.84544 4.0482 1.0605 5.0273l-2.125 0.33789c-0.05106-1.1478-0.1921-4.8716-0.62305-7.4297-0.33889-2.0116-0.62642-3.5335-1.3574-5.5137-0.5868-1.5896-1.4443-2.6211-2.1816-4.5996-0.23403-0.62793-0.65283-0.80959-0.87109-0.94531 0.06678-0.10779 0.1558-0.26448 0.19531-0.2832 0.08158-0.038654 0.19601-0.05925 0.33008-0.0625z" color="#000000" color-rendering="auto" dominant-baseline="auto" image-rendering="auto" opacity=".4" shape-rendering="auto" solid-color="#000000" style="font-feature-settings:normal;font-variant-alternates:normal;font-variant-caps:normal;font-variant-ligatures:normal;font-variant-numeric:normal;font-variant-position:normal;isolation:auto;mix-blend-mode:normal;shape-padding:0;text-decoration-color:#000000;text-decoration-line:none;text-decoration-style:solid;text-indent:0;text-orientation:mixed;text-transform:none;white-space:normal"/>
  <path id="path839-9-3" d="m19.834 38.455s-1.9518 0.29523-2.4238 1.5859c-0.42744 1.1688-0.47118 3.0315-0.47852 3.959h2.6758l0.16602-1.1289s-1.9781-1.6368-1.7422-2.6738c0.26988-1.1861 2.6113-1.4609 2.6113-1.4609z" fill="#896d55"/>
  <path id="path843" d="m12.622 33.45c0.1126 1.6473 1.1901 3.3375 2.5804 4.2281 1.8498 1.1849 3.8861 1.0881 3.8861 1.0881l-0.03109 1.6788s0.48138 1.1192 2.6426 1.057c6.4438-0.18539 8.2803-2.5182 8.2803-2.5182s0.06047-6.5454 0.09491-9.8242c0.0447-4.2551-1.6086-4.7675-3.4942-6.1246-1.7936-1.2908-4.3578-1.5627-6.5287-1.1503-1.4617 0.27769-4.4457 4.7255-4.4457 4.7255s-3.1542 4.3579-2.9846 6.8396z" fill="#c1a473"/>
  <path id="path868" d="m23.614 22.507s2.2162-4.409 2.8512-6.7757c0.69211-2.5798 0.09868-5.4376 1.0063-7.9497 1.3225-3.6604 2.9156-5.4149 5.5681-5.8029 0.76296-0.1116 1.755 0.41369 2.0126 1.1405 0.31702 0.89435-0.592 1.6846-0.77149 2.6164-0.31725 1.6469 0.08414 3.4328-0.30188 5.065-2.1139 8.938-5.065 14.927-5.065 14.927z" fill="#c1a473"/>
  <path id="path902" d="m32.049 3.6875c-0.05723 0.011478-0.11593 0.044244-0.17188 0.10156-1.1506 1.1789-0.59142 4.2105-1.9434 5.6914-0.62824 0.68816-1.955 1.2172-3.0117 1.5645-0.0828 1.5742-0.05224 3.1787-0.45703 4.6875-0.58984 2.1986-2.4089 5.8683-2.6836 6.4199 0.53885-0.53327 1.5498-1.4866 2.4043-1.7598 0.44933-0.14362 1.1855 0.43846 1.0898 0.90039-0.17455 0.84314-0.59738 1.6581-0.90039 2.4941-0.29031 0.63387-0.62321 1.3651-0.94922 2.041-0.52715 1.0929 0.86746 3.6907 0.13477 5.2988-0.6915 1.5177-1.8844 2.2275-3.8574 3.1875-0.66971 0.32585-1.7265-0.86505-2.2148-0.30273-0.4572 0.52645 0.77966 1.3486 0.57031 2.0137-0.26005 0.82619-1.146 1.6169-2.0117 1.6426-1.671 0.0495-3.0859-1.877-3.0859-1.877 0 0 0.21048-0.72582 0.43555-1.2754 0.10466-0.25555-0.17398-1.0158-0.30273-0.77148-0.37674 0.71482-0.53516 1.543-0.53516 1.543s-0.8392-0.93308-1.041-1.5098c-0.21104-0.60302-0.25826-1.2853-0.13477-1.9121 0.42431-2.1538 2.9199-5.9023 2.9199-5.9023l-0.36328 0.17383c-0.15 0.21428-0.33203 0.47461-0.33203 0.47461s-3.154 4.3582-2.9844 6.8398c0.1126 1.6473 1.1898 3.336 2.5801 4.2266 1.8498 1.1849 3.8848 1.0879 3.8848 1.0879l-0.03125 1.6797s0.48139 1.1188 2.6426 1.0566c1.1973-0.03445 2.189-0.15657 3.0859-0.31055 1.4172-1.2627 1.4496-3.5563 1.9492-5.4004 0.38312-1.4141 0.25607-4.7432 0.77148-4.3281 0.99828 0.80391 2.3809 3.0195 2.3809 3.0195l0.14648-1.0117c0.01783-1.8676 0.02786-2.8719 0.04297-4.3105 0.03059-2.9123-0.74421-4.0688-1.8359-4.9473 0.69994-0.35241 1.3538-0.64622 1.5625-0.52148 0.65727-1.5498 1.5633-3.8287 2.5488-6.9746-0.82104 0.95496-1.6405 1.8335-1.6133 1.4922 0.19884-2.4899 1.7194-4.6755 2.041-7.209 0.091795-0.72311-1.463-0.72208-1.6602-1.4238-0.37322-1.3287 0.76585-2.6572 1.2812-3.9375 0.42617-1.0586 0.049029-2.0315-0.35156-1.9512zm-17.062 1.752c-0.07649 0.00874-0.15485 0.02724-0.23438 0.056641-0.12281 0.045402-0.23028 0.59135-0.33203 1.3574 0.65799 1.4583 1.3238 2.4289 1.748 3.5781 0.70342 1.9055 0.97118 3.331 1.3086 5.334 0.46784 2.7771 0.66797 7.6348 0.66797 7.6348s0.30426-0.4688 0.60547-0.66784c0.38505-2.1635 0.50305-5.2763 0.17773-7.2736-0.21392-1.3134-1.1144-2.4435-1.377-3.748-0.20613-1.0242 0.24521-2.16-0.14062-3.1309-0.46973-1.1819-1.2765-3.2717-2.4238-3.1406z" opacity=".25"/>
  <path id="path960" d="m18 32c-0.0041-0.29367 1.0893-2.2274 2.0658-2.9036 1.0153-0.70312 3.3105-1.271 3.5815-0.94874 0.37918 0.4509-1.2486 2.043-2.2058 2.7039-0.99518 0.68713-3.432 1.8232-3.4415 1.1485z" fill="#4e4e4e"/>
  <rect id="rect958" x="19" y="28" width="4" height="4" ry="2" fill="#4e4e4e" fill-rule="evenodd" style="paint-order:stroke fill markers"/>
  <path id="rect964" d="m21 28.502c-0.82994 0-1.498 0.66811-1.498 1.498s0.66811 1.498 1.498 1.498 1.498-0.66811 1.498-1.498-0.66811-1.498-1.498-1.498zm0 0.49805c0.554 0 1 0.446 1 1s-0.446 1-1 1-1-0.446-1-1 0.446-1 1-1z" fill="#8b5628" fill-rule="evenodd" style="paint-order:stroke fill markers"/>
  <rect id="rect962" x="21" y="29" width="1" height="1" ry=".5" fill="#fff" fill-rule="evenodd" style="paint-order:stroke fill markers"/>
  <path id="path969" d="m18 30c0.70515 0.24151 0.73386-1.2358 1.2609-1.7628s1.9788-0.53141 1.7391-1.2372c-0.27288-0.80358-1.637 0.1222-2.2387 0.72071-0.60632 0.60317-1.5704 2.0022-0.76131 2.2793z" opacity=".25"/>
  <path id="path843-7-5" d="m33.334 1.9668c-0.10065-0.0051-0.19955-0.00223-0.29492 0.011719-2.6525 0.38801-4.2439 2.1423-5.5664 5.8027-0.90761 2.5121-0.3157 5.3714-1.0078 7.9512-0.55927 2.0847-2.1506 5.3348-2.5684 6.1797-1.2679-0.26438-2.617-0.2604-3.8438-0.02734-1.4617 0.27769-4.4453 4.7266-4.4453 4.7266s-3.154 4.3582-2.9844 6.8398c0.1126 1.6473 1.1898 3.336 2.5801 4.2266 1.8498 1.1849 3.8848 1.0879 3.8848 1.0879l-0.03125 1.6797s0.48139 1.1188 2.6426 1.0566c6.4438-0.18539 8.2812-2.5176 8.2812-2.5176s0.06126-6.5455 0.0957-9.8242c0.02094-1.9937-0.34023-3.1504-0.91406-3.9727 0.59544-1.2723 2.9677-6.5701 4.8164-14.387 0.38603-1.6322-0.014515-3.4175 0.30274-5.0645 0.17949-0.93174 1.0885-1.7228 0.77148-2.6172-0.22542-0.63593-1.0142-1.1166-1.7188-1.1523zm-0.05078 0.99805c0.28909 0.014655 0.79318 0.3952 0.82617 0.48828 0.02693 0.07597 0.02445 0.15901-0.15234 0.51758-0.1768 0.35857-0.51909 0.85401-0.6582 1.5762-0.37222 1.9322 0.0198 3.701-0.29297 5.0234-1.8279 7.7286-4.1741 12.963-4.75 14.193l-0.24414 0.52344 0.33008 0.47266c0.43466 0.62282 0.754 1.5217 0.73438 3.3906-0.03299 3.1407-0.08696 8.89-0.0918 9.4062-0.01652 0.01374-0.0018 0.0035-0.02148 0.01953-0.21287 0.17278-0.57638 0.42581-1.1387 0.69531-1.1246 0.539-3.0502 1.1412-6.1543 1.2305-0.90611 0.02607-1.3256-0.18295-1.5312-0.32617-0.09583-0.06673-0.05856-0.0435-0.07617-0.05859l0.04492-2.4004-1.0664 0.05078s-1.7504 0.06025-3.2988-0.93164c-1.1044-0.70745-2.0349-2.1924-2.1211-3.4531-0.05335-0.78042 0.57301-2.4624 1.3066-3.8008 0.73363-1.3383 1.4902-2.3848 1.4902-2.3848l0.0098-0.01367 0.0098-0.01563s0.72664-1.0828 1.6211-2.1875c0.44723-0.55237 0.93654-1.1069 1.3672-1.5117s0.86874-0.61188 0.81445-0.60156c1.0968-0.20836 2.324-0.2116 3.4512 0.02344l0.75781 0.1582 0.34375-0.69336c0.42214-0.85377 2.0238-4.0713 2.6387-6.3633 0.777-2.8962 0.20442-5.7177 0.98242-7.8711 0.63503-1.7577 1.3153-2.9862 2.0684-3.7812 0.75308-0.79509 1.5601-1.2042 2.7012-1.3711 0.01685-0.00246 0.05097-0.00637 0.09961-0.00391z" color="#000000" color-rendering="auto" dominant-baseline="auto" image-rendering="auto" opacity=".4" shape-rendering="auto" solid-color="#000000" style="font-feature-settings:normal;font-variant-alternates:normal;font-variant-caps:normal;font-variant-ligatures:normal;font-variant-numeric:normal;font-variant-position:normal;isolation:auto;mix-blend-mode:normal;shape-padding:0;text-decoration-color:#000000;text-decoration-line:none;text-decoration-style:solid;text-indent:0;text-orientation:mixed;text-transform:none;white-space:normal"/>
  <path id="path839" d="m32.873 36.561c-0.16988-0.03426-0.32227 0.0293-0.32227 0.0293s-2.1188 0.65303-3.8867 1.6797c-1.0015 0.5816-1.5392 1.7728-2.5176 2.3926-1.577 0.9989-5.2227 2.0215-5.2227 2.0215l-0.40625 1.3164h13.482c-0.09743-0.70207-0.33905-4.7411-0.70312-6.8809-0.06661-0.39148-0.25395-0.52433-0.42383-0.55859z" fill="#896d55"/>
  <path id="path839-7-9" d="m32.873 36.561c-0.16988-0.03426-0.32227 0.0293-0.32227 0.0293s-2.1188 0.65303-3.8867 1.6797c-1.0015 0.5816-1.5392 1.7728-2.5176 2.3926-1.577 0.9989-5.2227 2.0215-5.2227 2.0215l-0.40625 1.3164h13.482c-0.09743-0.70207-0.33905-4.7411-0.70312-6.8809-0.06661-0.39148-0.25395-0.52433-0.42383-0.55859zm-0.50977 1.1934c0.14632 0.98694 0.28537 2.2377 0.38867 3.4316 0.07215 0.83393 0.1108 1.2552 0.1582 1.8145h-9.6621c0.01063-0.0036 0.0089-0.0022 0.01953-0.0059 1.1376-0.3905 2.4616-0.88302 3.4141-1.4863 0.66394-0.42055 1.0985-0.96479 1.4766-1.4082 0.37801-0.44342 0.69624-0.78391 1.0078-0.96484 1.4138-0.82097 2.7666-1.2392 3.1973-1.3809z" color="#000000" color-rendering="auto" dominant-baseline="auto" image-rendering="auto" opacity=".4" shape-rendering="auto" solid-color="#000000" style="font-feature-settings:normal;font-variant-alternates:normal;font-variant-caps:normal;font-variant-ligatures:normal;font-variant-numeric:normal;font-variant-position:normal;isolation:auto;mix-blend-mode:normal;shape-padding:0;text-decoration-color:#000000;text-decoration-line:none;text-decoration-style:solid;text-indent:0;text-orientation:mixed;text-transform:none;white-space:normal"/>
  <path id="rect1273" d="m16.959 43c-0.01631 0.38172-0.02524 0.73383-0.02734 1h2.6758l0.14648-1z" fill-rule="evenodd" opacity=".4" style="paint-order:stroke fill markers"/>
 </g>
</svg>
