<?xml version="1.0" encoding="UTF-8"?>
<!-- Created with Inkscape (http://www.inkscape.org/) -->
<svg id="SVGRoot" width="48px" height="48px" version="1.1" viewBox="0 0 48 48" xmlns="http://www.w3.org/2000/svg" xmlns:cc="http://creativecommons.org/ns#" xmlns:dc="http://purl.org/dc/elements/1.1/" xmlns:rdf="http://www.w3.org/1999/02/22-rdf-syntax-ns#" xmlns:xlink="http://www.w3.org/1999/xlink">
 <defs id="defs815">
  <style id="style819">.cls-1{fill:none;stroke:#fff;stroke-linecap:round;stroke-linejoin:round;}</style>
  <style id="style2">.a{fill:none;stroke:#b1b5bd;stroke-linecap:round;stroke-linejoin:round;isolation:isolate;opacity:0.63;}</style>
  <style id="style819-5">.cls-1{fill:none;stroke:#fff;stroke-linecap:round;stroke-linejoin:round;}</style>
  <style id="style819-2">.cls-1{fill:none;stroke:#fff;stroke-linecap:round;stroke-linejoin:round;}</style>
  <style id="style819-3">.cls-1{fill:none;stroke:#fff;stroke-linecap:round;stroke-linejoin:round;}</style>
  <style id="style819-36">.cls-1{fill:none;stroke:#fff;stroke-linecap:round;stroke-linejoin:round;}</style>
  <style id="style2-0">.a{fill:none;stroke:#b1b5bd;stroke-linecap:round;stroke-linejoin:round;isolation:isolate;opacity:0.63;}</style>
  <linearGradient id="linearGradient980">
   <stop id="stop976" stop-color="#e0ca87" offset="0"/>
   <stop id="stop978" stop-color="#545549" offset="1"/>
  </linearGradient>
  <style id="style2-2">.a{fill:none;stroke:#b1b5bd;stroke-linecap:round;stroke-linejoin:round;isolation:isolate;opacity:0.63;}</style>
  <linearGradient id="linearGradient958" x1="29" x2="27" y1="32" y2="25" gradientUnits="userSpaceOnUse">
   <stop id="stop952" stop-color="#777260" offset="0"/>
   <stop id="stop954" stop-color="#ead7b1" offset="1"/>
  </linearGradient>
  <linearGradient id="linearGradient966" x1="23" x2="39" y1="20" y2="23" gradientUnits="userSpaceOnUse" xlink:href="#linearGradient980"/>
  <linearGradient id="linearGradient974" x1="10.884" x2="40.155" y1="35.267" y2="35.267" gradientUnits="userSpaceOnUse" xlink:href="#linearGradient980"/>
  <linearGradient id="linearGradient1001" x1="24.082" x2="28.48" y1="4.8101" y2="4.8101" gradientUnits="userSpaceOnUse" xlink:href="#linearGradient980"/>
  <linearGradient id="linearGradient1036" x1="25" x2="25" y1="7" y2="41" gradientUnits="userSpaceOnUse">
   <stop id="stop1334" stop-color="#507dad" offset="0"/>
   <stop id="stop1336" stop-color="#f0ce7f" offset="1"/>
  </linearGradient>
 </defs>
 <metadata id="metadata818">
  <rdf:RDF>
   <cc:Work rdf:about="">
    <dc:format>image/svg+xml</dc:format>
    <dc:type rdf:resource="http://purl.org/dc/dcmitype/StillImage"/>
    <dc:title/>
   </cc:Work>
  </rdf:RDF>
 </metadata>
 <g id="layer1">
  <rect id="rect1373-5" x="4" y="4" width="40" height="40" ry="8" fill="url(#linearGradient1036)" fill-rule="evenodd" style="paint-order:stroke fill markers"/>
  <path id="path882" d="m20 39c-3 0-3 5-3 5h5s-0.20494-5-2-5z" fill="#6c5d3e"/>
  <path id="path880" d="m20 37 2 7h14l1-8z" fill="#a38c5d"/>
  <path id="path1242" d="m37 36-17 1 0.61523 2.1543 7.3848 1.8457v3h8z" opacity=".25"/>
  <path id="path884" d="m37.549 37.904c-0.19398 0.01559-0.37847 0.048515-0.54883 0.095703-1 0.27698-1 2.6256-1 4v2c2.4715 0 4.6734-1.1111 6.1387-2.8613-0.010273-0.011248-0.13745-0.13622-0.13867-0.13867-1.2374-2.4749-3.0933-3.2048-4.4512-3.0957z" fill="#a38c5d"/>
  <path id="rect817" d="m12 4c-4.432 0-8 3.568-8 8v24c0 4.432 3.568 8 8 8h24c4.432 0 8-3.568 8-8v-24c0-4.432-3.568-8-8-8h-24zm0 1h24c3.878 0 7 3.122 7 7v24c0 3.878-3.122 7-7 7h-24c-3.878 0-7-3.122-7-7v-24c0-3.878 3.122-7 7-7z" fill-rule="evenodd" opacity=".3" style="paint-order:stroke fill markers"/>
  <path id="path831" d="m10.94 32.743s0.1122-0.37426 0.24984-0.49969c0.47554-0.43335 1.1556-0.70929 1.7989-0.69956 12.016 0.18166 16.93-0.29202 25.334 0.54966 1.1872 0.11889 1.4491 1.1993 1.4491 1.1993s-4.736 3.4195-13.936 3.6971c-4.5181 0.13635-13.328-2.499-13.328-2.499z" fill="#4e4e4e"/>
  <path id="path829" d="m10.94 32.743s-0.17806 1.5049 0.09994 2.2986c0.21314 0.6085 1.5405 2.352 9.8938 2.6484 15.264 0.54159 18.451-1.2318 19.088-2.1986 0.40572-0.61598-0.24984-2.1986-0.24984-2.1986s-5.9664 2.3762-15.74 1.9488c-9.24-0.40411-13.092-2.4984-13.092-2.4984z" fill="url(#linearGradient974)"/>
  <path id="path831-1" d="m12.988 31.543c-0.6433-0.0097-1.3233 0.26586-1.7988 0.69922-0.13764 0.12544-0.24805 0.5-0.24805 0.5s-0.17839 1.5052 0.09961 2.2988c0.21314 0.6085 1.5392 2.352 9.8926 2.6484 15.264 0.54159 18.451-1.2324 19.088-2.1992 0.40572-0.61598-0.24805-2.1973-0.24805-2.1973-1e-6 0-0.26202-1.0803-1.4492-1.1992-8.4047-0.84167-13.32-0.36912-25.336-0.55078zm-0.01563 1c12.046 0.18212 16.923-0.2892 25.252 0.54492 0.60407 0.06049 0.57617 0.44141 0.57617 0.44141a1.0001 1.0001 0 0 0 0.04883 0.14648s0.13526 0.33422 0.22656 0.7168c0.06727 0.28185 0.01614 0.56479 0.04297 0.60547-0.16343 0.16586-0.91339 0.74241-3.332 1.1738-2.6668 0.47568-7.2274 0.78691-14.818 0.51758-4.1091-0.1458-6.4355-0.6554-7.6699-1.1387-1.2344-0.48327-1.3233-0.86501-1.3145-0.83984-0.05174-0.1477-0.10643-0.67177-0.09766-1.0957 0.0077-0.37026 0.03338-0.59031 0.04101-0.66016 0.28542-0.23315 0.71794-0.41705 1.0449-0.41211z" color="#000000" color-rendering="auto" dominant-baseline="auto" image-rendering="auto" opacity=".4" shape-rendering="auto" solid-color="#000000" style="font-feature-settings:normal;font-variant-alternates:normal;font-variant-caps:normal;font-variant-ligatures:normal;font-variant-numeric:normal;font-variant-position:normal;isolation:auto;mix-blend-mode:normal;shape-padding:0;text-decoration-color:#000000;text-decoration-line:none;text-decoration-style:solid;text-indent:0;text-orientation:mixed;text-transform:none;white-space:normal"/>
  <path id="path833" d="m10.99 31.593c0.54135 0.46065 2.4596 1.7439 13.292 2.1986 5.2727 0.22134 15.237-1.0691 15.59-1.4491 0.76031-0.81843 0.1499-3.3479 0.1499-3.3479l-0.34978-1.2992 0.34978-2.7483s0.05829-15.205-13.542-15.29c-16.163-0.10118-15.64 20.587-15.64 20.587s-0.1947 1.0559 0.14991 1.3492z" fill="url(#linearGradient966)"/>
  <path id="path833-2" d="m26.48 9.6562c-16.163-0.10118-15.641 20.588-15.641 20.588s-0.19422 1.0564 0.15039 1.3496c0.54135 0.46065 2.4589 1.7445 13.291 2.1992 5.2727 0.22134 15.239-1.0692 15.592-1.4492 0.76031-0.81843 0.14844-3.3496 0.14844-3.3496l-0.34961-1.2988 0.34961-2.748s0.05884-15.206-13.541-15.291zm-0.0059 1c6.4273 0.04023 9.3778 3.4969 10.963 7.082 1.5755 3.5635 1.582 7.1344 1.582 7.1777l-0.33984 2.6543a1.0001 1.0001 0 0 0 0.02734 0.38477l0.3457 1.2832c0.0018 0.0074 0.13362 0.56336 0.18359 1.2012 0.045 0.57434-0.0948 1.025-0.08594 1.0938-0.02311 0.0055-0.02723 0.0079-0.05273 0.01367-0.28133 0.0633-0.70593 0.14308-1.2266 0.22656-1.0413 0.16696-2.472 0.35572-4.0547 0.52539-3.1654 0.33934-6.9636 0.60029-9.4922 0.49414-5.3791-0.2258-8.5188-0.65898-10.324-1.0723-1.6904-0.38696-2.0173-0.67136-2.2109-0.83203-9.27e-4 -0.02567-0.0044-0.03261-0.0039-0.06055 0.0038-0.20365 0.03906-0.40234 0.03906-0.40234a1.0001 1.0001 0 0 0 0.01563-0.20703s-0.11114-5.0201 1.6992-9.9629c0.90518-2.4714 2.2812-4.8908 4.334-6.668 2.0527-1.7771 4.7741-2.9556 8.6016-2.9316z" color="#000000" color-rendering="auto" dominant-baseline="auto" image-rendering="auto" opacity=".4" shape-rendering="auto" solid-color="#000000" style="font-feature-settings:normal;font-variant-alternates:normal;font-variant-caps:normal;font-variant-ligatures:normal;font-variant-numeric:normal;font-variant-position:normal;isolation:auto;mix-blend-mode:normal;shape-padding:0;text-decoration-color:#000000;text-decoration-line:none;text-decoration-style:solid;text-indent:0;text-orientation:mixed;text-transform:none;white-space:normal"/>
  <path id="path835" d="m26.703 9.1582s-2.7277 1.7769-4.7734 5.0762c-1.8379 2.964-2.1347 6.2834-2.3613 9.7871-0.0958 1.4817-0.09828 3.8199-0.09766 4.5703-4.9996-0.47092-8.0254-1.6816-8.0254-1.6816a0.41655 0.41655 0 0 0-0.16211-0.0332 0.41655 0.41655 0 0 0-0.26758 0.09961c-0.02135 0.20121-0.03814 0.39134-0.05469 0.57813a0.41655 0.41655 0 0 0 0.17383 0.12695s3.2906 1.3239 8.6152 1.7773c10.428 0.88799 19.971-0.55516 20.236-0.5957l-0.2168-0.80859c-0.71887 0.10709-9.6256 1.3772-19.467 0.60547 3.2e-5 -0.68194 4e-3 -3.1374 0.09766-4.5859 0.22571-3.4898 0.52459-6.6398 2.2363-9.4004 1.9419-3.1318 4.5215-4.8184 4.5215-4.8184z" color="#000000" color-rendering="auto" dominant-baseline="auto" image-rendering="auto" opacity=".4" shape-rendering="auto" solid-color="#000000" style="font-feature-settings:normal;font-variant-alternates:normal;font-variant-caps:normal;font-variant-ligatures:normal;font-variant-numeric:normal;font-variant-position:normal;isolation:auto;mix-blend-mode:normal;shape-padding:0;text-decoration-color:#000000;text-decoration-line:none;text-decoration-style:solid;text-indent:0;text-orientation:mixed;text-transform:none;white-space:normal"/>
  <rect id="rect839" x="25.032" y="6.4091" width="2.4984" height="4.3973" rx="1.2492" ry=".74953" fill="#81754e" fill-rule="evenodd" style="paint-order:stroke fill markers"/>
  <rect id="rect839-6" x="24.082" y="2.0118" width="4.3973" height="5.5965" rx="2.1986" ry="1.0493" fill="url(#linearGradient1001)" fill-rule="evenodd" style="paint-order:stroke fill markers"/>
  <rect id="rect839-6-1" x="24.682" y="2.4252" width="3.198" height="1.122" rx="1.599" ry=".56101" fill="#4e4e4e" fill-rule="evenodd" style="paint-order:stroke fill markers"/>
  <path id="path871" d="m12.78 30.194s2.1297-0.19147 3.0481-3.7477c0.9184-3.5562-1.2992-5.1968-1.2992-5.1968l-4.847-0.74953-2.4485 3.2979 0.049969 4.1974z" fill="#777260"/>
  <path id="path873" d="m7.2834 27.996c-1.4246-0.38043-1.4734-2.8851-1.0493-4.2973 0.45085-1.5013 1.9682-3.7156 3.4479-3.198 1.3675 0.47831 1.0856 2.9158 0.6496 4.2973-0.44319 1.4044-1.6253 3.578-3.0481 3.198z" fill="#fbeda9"/>
  <path id="path875" d="m27.93 22.899c-1.9689 0.46857-3.4967 2.5258-3.5978 4.5472-0.17013 3.4033 2.1432 5.8216 4.6471 5.8464 3.4422 0.03406 5.5199-2.9084 5.3467-5.4466-0.18358-2.689-3.0184-5.7507-6.396-4.9469z" fill="url(#linearGradient958)"/>
  <path id="path877" d="m25.481 27.446c-0.19722-2.1962 1.6429-5.0331 4.4472-4.897 1.7468 0.08478 3.5872 2.259 3.3979 3.9975-0.28415 2.6093-1.7842 4.1342-4.1474 4.0974-1.5323-0.02381-3.5606-1.6717-3.6977-3.198z" fill="#afa792"/>
  <path id="path879" d="m27.43 26.746c-0.0085-0.98958 1.1595-2.0784 2.1487-2.0487 0.97775 0.02931 2.0909 1.1748 1.9988 2.1487-0.0876 0.92534-0.92783 2.0946-2.2486 1.9488-1.2096-0.1335-1.8914-1.1883-1.8988-2.0487z" fill="#4e4e4e"/>
  <path id="path881" d="m7.2334 23.798c0.24421-0.64187 0.94667-1.5139 1.599-1.2992 0.50653 0.16672 0.52198 1.03 0.39975 1.549-0.19215 0.81597-0.8426 2.128-1.649 1.8988-0.69802-0.19834-0.60782-1.4704-0.34978-2.1487z" fill="#4e4e4e" stroke-width=".20825"/>
  <rect id="rect883" x="38.623" y="24.848" width="1.2492" height="1.3492" rx="1.2492" ry=".74953" fill-rule="evenodd" opacity=".4" style="paint-order:stroke fill markers"/>
  <rect id="rect887" x="37.524" y="23.149" width="1.4991" height="1.4991" rx="1.2492" ry=".74953" fill-rule="evenodd" opacity=".4" style="paint-order:stroke fill markers"/>
  <rect id="rect889" x="36.375" y="24.998" width="1.4991" height="1.4991" rx="1.2492" ry=".74953" fill-rule="evenodd" opacity=".4" style="paint-order:stroke fill markers"/>
  <rect id="rect891" transform="rotate(12.191)" x="25.375" y="10.243" width="1.4491" height="1.7989" rx=".72455" ry=".89944" fill-rule="evenodd" opacity=".4" style="paint-order:stroke fill markers"/>
  <rect id="rect891-8" transform="rotate(5.1734)" x="22.672" y="17.868" width="1.4491" height="1.7989" rx=".72455" ry=".89944" fill-rule="evenodd" opacity=".4" style="paint-order:stroke fill markers"/>
  <rect id="rect891-4" transform="rotate(2.5833)" x="21.732" y="24.061" width="1.4491" height="1.7989" rx=".72455" ry=".89944" fill-rule="evenodd" opacity=".4" style="paint-order:stroke fill markers"/>
  <path id="rect839-0-3" d="m26.281 2.0117c-1.218 0-2.1992 0.46749-2.1992 1.0488v3.498c0 0.35435 0.38885 0.65003 0.94922 0.83984v2.6582c0 0.41524 0.55793 0.75 1.25 0.75s1.248-0.33476 1.248-0.75v-2.6563c0.56168-0.18974 0.95117-0.48696 0.95117-0.8418v-3.498c0-0.58134-0.98118-1.0488-2.1992-1.0488zm0 1c0.48108 0 0.90856 0.10486 1.127 0.20898 0.06725 0.032064 0.05923 0.028689 0.07227 0.037109v-0.19727c0 0.18819 0.02929 0.21619 0 0.19727v3.0645c-0.05802 0.036283-0.12258 0.080559-0.27148 0.13086a1.0001 1.0001 0 0 0-0.67969 0.94727v2.3555c-0.06794 0.022732-0.12391 0.050781-0.24805 0.050781-0.12508 0-0.18163-0.027773-0.25-0.050781v-2.3574a1.0001 1.0001 0 0 0-0.67969-0.94727c-0.14875-0.050384-0.21157-0.094689-0.26953-0.13086v-3.0625c-0.02929 0.018924 0-0.00907 0-0.19727v0.19727c0.01303-0.00842 5e-3 -0.00505 0.07227-0.037109 0.2184-0.10412 0.64587-0.20898 1.127-0.20898z" color="#000000" color-rendering="auto" dominant-baseline="auto" fill-rule="evenodd" image-rendering="auto" opacity=".4" shape-rendering="auto" solid-color="#000000" style="font-feature-settings:normal;font-variant-alternates:normal;font-variant-caps:normal;font-variant-ligatures:normal;font-variant-numeric:normal;font-variant-position:normal;isolation:auto;mix-blend-mode:normal;paint-order:stroke fill markers;shape-padding:0;text-decoration-color:#000000;text-decoration-line:none;text-decoration-style:solid;text-indent:0;text-orientation:mixed;text-transform:none;white-space:normal"/>
  <path id="path871-8-2" d="m9.127 20.428c-1.2878 0.09763-2.4981 1.9578-2.8926 3.2715-0.4241 1.4122-0.37578 3.9164 1.0488 4.2969l5.4961 2.1973s2.1304-0.18989 3.0488-3.7461c0.9184-3.5562-1.2988-5.1973-1.2988-5.1973l-4.8477-0.75c-0.18496-0.06469-0.37071-0.08621-0.55469-0.07227zm0.076172 0.99805c0.056114-0.0043 0.095209-1e-3 0.14844 0.01758a1.0001 1.0001 0 0 0 0.17773 0.04492l4.5039 0.69727c0.08073 0.06444 0.30579 0.21566 0.59961 0.78711 0.34266 0.66643 0.62773 1.6712 0.22656 3.2246-0.41347 1.601-1.0441 2.3093-1.5059 2.6602-0.37339 0.28376-0.47094 0.26783-0.53516 0.27539l-5.1641-2.0645a1.0001 1.0001 0 0 0-0.11328-0.039062c-0.093301-0.024915-0.14432-0.054932-0.24023-0.20508-0.095912-0.15015-0.19481-0.41801-0.24805-0.74805-0.10648-0.66007-0.023539-1.5497 0.13867-2.0898 0.15363-0.51157 0.51502-1.2279 0.93555-1.7539s0.88606-0.79223 1.0762-0.80664zm20.725 1.123c-0.60006-0.02913-1.1511 0.0833-1.6523 0.29102-0.11505 0.0187-0.22928 0.03089-0.3457 0.05859-1.9689 0.46857-3.4966 2.5255-3.5977 4.5469-0.17013 3.4033 2.1426 5.8229 4.6465 5.8477 3.4422 0.03406 5.5209-2.9091 5.3477-5.4473-0.08065-1.1813-0.67436-2.4346-1.5996-3.4004-0.65494-1.023-1.7411-1.8451-2.7988-1.8965zm-0.04883 0.99805c0.5745 0.02788 1.4904 0.63243 2.0059 1.4375a1.0001 1.0001 0 0 0 0.11914 0.15234c0.77415 0.80812 1.263 1.8808 1.3242 2.7773 0.13268 1.9436-1.4716 4.4073-4.3398 4.3789-1.8658-0.01846-3.8046-1.8686-3.6582-4.7969 0.07765-1.5532 1.391-3.2821 2.832-3.625 0.03741-0.0089 0.12286-0.02045 0.27344-0.04492a1.0001 1.0001 0 0 0 0.22266-0.0625c0.37971-0.15735 0.77472-0.23845 1.2207-0.2168z" color="#000000" color-rendering="auto" dominant-baseline="auto" image-rendering="auto" opacity=".4" shape-rendering="auto" solid-color="#000000" style="font-feature-settings:normal;font-variant-alternates:normal;font-variant-caps:normal;font-variant-ligatures:normal;font-variant-numeric:normal;font-variant-position:normal;isolation:auto;mix-blend-mode:normal;shape-padding:0;text-decoration-color:#000000;text-decoration-line:none;text-decoration-style:solid;text-indent:0;text-orientation:mixed;text-transform:none;white-space:normal"/>
 </g>
</svg>
