<?xml version="1.0" encoding="UTF-8"?>
<!-- Created with Inkscape (http://www.inkscape.org/) -->
<svg id="SVGRoot" width="48px" height="48px" version="1.1" viewBox="0 0 48 48" xmlns="http://www.w3.org/2000/svg" xmlns:cc="http://creativecommons.org/ns#" xmlns:dc="http://purl.org/dc/elements/1.1/" xmlns:rdf="http://www.w3.org/1999/02/22-rdf-syntax-ns#" xmlns:xlink="http://www.w3.org/1999/xlink">
 <defs id="defs815">
  <style id="style819">.cls-1{fill:none;stroke:#fff;stroke-linecap:round;stroke-linejoin:round;}</style>
  <style id="style819-93">.cls-1{fill:none;stroke:#fff;stroke-linecap:round;stroke-linejoin:round;}</style>
  <style id="style819-1">.cls-1{fill:none;stroke:#fff;stroke-linecap:round;stroke-linejoin:round;}</style>
  <style id="style2">.a{fill:none;stroke:#b1b5bd;stroke-linecap:round;stroke-linejoin:round;isolation:isolate;opacity:0.63;}</style>
  <style id="style819-9">.cls-1{fill:none;stroke:#fff;stroke-linecap:round;stroke-linejoin:round;}</style>
  <style id="style819-92">.cls-1{fill:none;stroke:#fff;stroke-linecap:round;stroke-linejoin:round;}</style>
  <style id="style819-5">.cls-1{fill:none;stroke:#fff;stroke-linecap:round;stroke-linejoin:round;}</style>
  <style id="current-color-scheme" type="text/css">.ColorScheme-Text {
        color:#31363b;
      }
      .ColorScheme-Accent {
        color:#3daee9;
      }</style>
  <style id="current-color-scheme-6" type="text/css">.ColorScheme-Text {
        color:#31363b;
      }
      .ColorScheme-Accent {
        color:#3daee9;
      }</style>
 </defs>
 <metadata id="metadata818">
  <rdf:RDF>
   <cc:Work rdf:about="">
    <dc:format>image/svg+xml</dc:format>
    <dc:type rdf:resource="http://purl.org/dc/dcmitype/StillImage"/>
    <dc:title/>
   </cc:Work>
  </rdf:RDF>
 </metadata>
 <g id="layer1" fill-rule="evenodd">
  <rect id="rect1373-5" x="4" y="4" width="40" height="40" ry="8" fill="#729dec" style="paint-order:stroke fill markers"/>
  <path id="rect817" d="m12 4c-4.432 0-8 3.568-8 8v24c0 4.432 3.568 8 8 8h24c4.432 0 8-3.568 8-8v-24c0-4.432-3.568-8-8-8h-24zm0 1h24c3.878 0 7 3.122 7 7v24c0 3.878-3.122 7-7 7h-24c-3.878 0-7-3.122-7-7v-24c0-3.878 3.122-7 7-7z" opacity=".3" style="paint-order:stroke fill markers"/>
  <path id="rect841" d="m8 10v2h4v-4h-2c-2 0-2 2-2 2zm14-2v4h4v-4zm14 0v4h4v-2s0-2-2-2zm-22 1v2h2v-2zm4 0v2h2v-2zm10 0v2h2v-2zm4 0v2h2v-2zm-23 5v2h2v-2zm5 0v2h2v-2zm4 0v2h2v-2zm5 0v2h2v-2zm5 0v2h2v-2zm4 0v2h2v-2zm5 0v2h2v-2zm-28 4v2h2v-2zm5 0v2h2v-2zm18 0v2h2v-2zm5 0v2h2v-2zm-17 2v8l7-2 1-6zm16.018 1.9395 0.31641 3.3066 3.8594 0.56836-0.19336-3.8145c-1.3275-0.02018-2.6549-0.04037-3.9824-0.06055zm-28.018 0.060547v4h4v-4zm23.973 0.74609c-0.02018 0.51693-0.04036 1.0339-0.06055 1.5508 0.72656 6.51e-4 1.4531 0.0013 2.1797 2e-3 -0.02148-0.51758-0.04297-1.0352-0.06445-1.5527zm-17.973 0.25391v2h2v-2zm17.689 3.4746-0.37109 1.5742c1.1302 0.0039 2.2604 0.0078 3.3906 0.01172l-0.38672-1.5801c-0.8776-2e-3 -1.7552-0.0039-2.6328-0.0059zm6.0547 0.63867 0.53125 2.002 1.6738 0.44336-0.36133-2.0254zm-28.744 0.88672v2h2v-2zm5 0v2h2v-2zm16.15 2.4688 0.36914 5.3555c1.6712-0.01563 3.3424-0.03126 5.0137-0.04687l0.36524-5.2461c-1.916-0.02083-3.832-0.04167-5.748-0.0625zm-2.1152 1.002c-0.50781 0.09831-1.0156 0.19662-1.5234 0.29492 0.01628 0.86133 0.03255 1.7227 0.04883 2.584l1.5879 0.40234c-0.03776-1.0938-0.07552-2.1875-0.11328-3.2812zm10.707 0.18555c-0.02344 0.94857-0.04687 1.8971-0.07031 2.8457 0.4974-0.08854 0.99479-0.17708 1.4922-0.26562l0.03711-2.3945zm-14.402 0.2793c-0.52083 0.01497-1.0417 0.02995-1.5625 0.04492l0.0078 2.0469c0.52474 0.02344 1.0495 0.04687 1.5742 0.07031-0.0065-0.7207-0.01302-1.4414-0.01953-2.1621zm-15.34 0.064453v2h2v-2zm5 0v2h2v-2zm4 0v2h2v-2zm-10 4v2s0 2 2 2h2v-4zm13.963 0.011719 0.037109 3.9883c1.2826 0.05273 2.5651 0.10547 3.8477 0.1582l-0.52734-3.8457zm18.713 0.29688-3.5176 0.91797-0.88281 3.4316 1.9365-0.25293s1.8319-0.26872 2.0856-1.9176c0.1121-0.72865 0.37827-2.1791 0.37827-2.1791zm-26.676 0.69141v2h2v-2zm4 0v2h2v-2zm9.1797 0.69531 0.39648 1.832 2.0059 0.34766-0.43164-1.6758zm7.2207 0.96094c-0.92839 2e-3 -1.8568 0.0039-2.7852 0.0059l0.20703 1.4648c0.78776-6.51e-4 1.5755-0.0013 2.3633-2e-3 0.07161-0.48958 0.14323-0.97917 0.21484-1.4688z" opacity=".25" style="paint-order:normal"/>
  <rect id="rect982" x="20" y="20" width="26" height="26" ry="13" fill="#fff" opacity=".5" style="paint-order:normal"/>
  <path id="rect986" d="m33 20c-7.202 0-13 5.798-13 13s5.798 13 13 13 13-5.798 13-13-5.798-13-13-13zm0 1c6.648 0 12 5.352 12 12s-5.352 12-12 12-12-5.352-12-12 5.352-12 12-12z" opacity=".25" style="paint-order:normal"/>
  <rect id="rect991" x="28" y="22" width="10" height="6" rx="5" ry="3" fill="#fff" style="paint-order:normal"/>
 </g>
</svg>
