<?xml version="1.0" encoding="UTF-8"?>
<!-- Created with Inkscape (http://www.inkscape.org/) -->
<svg id="SVGRoot" width="48px" height="48px" version="1.1" viewBox="0 0 48 48" xmlns="http://www.w3.org/2000/svg" xmlns:cc="http://creativecommons.org/ns#" xmlns:dc="http://purl.org/dc/elements/1.1/" xmlns:rdf="http://www.w3.org/1999/02/22-rdf-syntax-ns#">
 <defs>
  <style>.cls-1{fill:none;stroke:#fff;stroke-linecap:round;stroke-linejoin:round;}</style>
 </defs>
 <metadata>
  <rdf:RDF>
   <cc:Work rdf:about="">
    <dc:format>image/svg+xml</dc:format>
    <dc:type rdf:resource="http://purl.org/dc/dcmitype/StillImage"/>
   </cc:Work>
  </rdf:RDF>
 </metadata>
 <rect x="4" y="4" width="40" height="40" ry="8" fill="#FFEAA6" fill-rule="evenodd" style="paint-order:stroke fill markers"/>
 <rect x="10" y="10" width="28" height="28" ry="14" fill="#e0903b" stroke-linecap="round" stroke-linejoin="round" stroke-width="6"/>
 <path d="m17.648 29.064-8 3a1.0001 1.0001 0 0 0-0.095703 1.8301l1.4473 0.72266v1.3828a1.0001 1.0001 0 0 0 1 1h1.3828l0.72266 1.4473a1.0001 1.0001 0 0 0 1.8301-0.0957l3-8a1.0001 1.0001 0 0 0-1.2871-1.2871z" fill="#e0903b" stop-color="#000000" stroke-linecap="round" stroke-linejoin="round"/>
 <path d="m12 4c-4.432 0-8 3.568-8 8v24c0 4.432 3.568 8 8 8h24c4.432 0 8-3.568 8-8v-24c0-4.432-3.568-8-8-8zm0 1h24c3.878 0 7 3.122 7 7v24c0 3.878-3.122 7-7 7h-24c-3.878 0-7-3.122-7-7v-24c0-3.878 3.122-7 7-7z" fill-rule="evenodd" opacity=".3" style="paint-order:stroke fill markers"/>
 <path d="m32.947 9.002a1.0001 1.0001 0 0 0-0.88281 0.64648l-3 8a1.0001 1.0001 0 0 0 1.2871 1.2871l8-3a1.0001 1.0001 0 0 0 0.0957-1.8301l-1.4473-0.72266v-1.3828a1.0001 1.0001 0 0 0-1-1h-1.3828l-0.72266-1.4473a1.0001 1.0001 0 0 0-0.94726-0.55078z" fill="#e0903b" stop-color="#000000" stroke-linecap="round" stroke-linejoin="round"/>
 <rect x="12" y="12" width="24" height="24" ry="12" fill="#ffeaa6" stroke-linecap="round" stroke-linejoin="round" stroke-width="6"/>
 <path d="m25.895 13.16c-1.1839 1.5146-2.8945 4.6087-2.8945 9.8398-1.566 0-5.5852-3.0663-6.7754-6.7969-1.5723 1.568-2.6701 3.6121-3.0645 5.9023 1.5146 1.1839 4.6087 2.8945 9.8398 2.8945 0 1.566-3.0663 5.5852-6.7969 6.7754 1.568 1.5723 3.6121 2.6701 5.9023 3.0645 1.1839-1.5146 2.8945-4.6087 2.8945-9.8398 1.566 0 5.5852 3.0663 6.7754 6.7969 1.5723-1.568 2.6701-3.6121 3.0645-5.9023-1.5146-1.1839-4.6087-2.8945-9.8398-2.8945 0-1.566 3.0663-5.5852 6.7969-6.7754-1.568-1.5723-3.6121-2.6701-5.9023-3.0645z" fill="#e0903b"/>
</svg>
