<?xml version="1.0" encoding="UTF-8"?>
<!-- Created with Inkscape (http://www.inkscape.org/) -->
<svg id="SVGRoot" width="48px" height="48px" version="1.1" viewBox="0 0 48 48" xml:space="preserve" xmlns="http://www.w3.org/2000/svg" xmlns:cc="http://creativecommons.org/ns#" xmlns:dc="http://purl.org/dc/elements/1.1/" xmlns:rdf="http://www.w3.org/1999/02/22-rdf-syntax-ns#"><defs><style>.cls-1{fill:none;stroke:#fff;stroke-linecap:round;stroke-linejoin:round;}</style><style>.cls-1{fill:none;stroke:#fff;stroke-linecap:round;stroke-linejoin:round;}</style><style>.a{fill:none;stroke:#b1b5bd;stroke-linecap:round;stroke-linejoin:round;isolation:isolate;opacity:0.63;}</style><style>.cls-1{fill:none;stroke:#fff;stroke-linecap:round;stroke-linejoin:round;}</style><style>.cls-1{fill:none;stroke:#fff;stroke-linecap:round;stroke-linejoin:round;}</style><style>.cls-1{fill:none;stroke:#fff;stroke-linecap:round;stroke-linejoin:round;}</style><style>.cls-1{fill:none;stroke:#fff;stroke-linecap:round;stroke-linejoin:round;}</style></defs><metadata><rdf:RDF><cc:Work rdf:about=""><dc:format>image/svg+xml</dc:format><dc:type rdf:resource="http://purl.org/dc/dcmitype/StillImage"/></cc:Work></rdf:RDF></metadata><rect x="4" y="4" width="40" height="40" ry="8" fill="#695475" fill-rule="evenodd" style="paint-order:stroke fill markers"/><path d="m12 4c-4.432 0-8 3.568-8 8v24c0 4.432 3.568 8 8 8h24c4.432 0 8-3.568 8-8v-24c0-4.432-3.568-8-8-8zm0 1h24c3.878 0 7 3.122 7 7v24c0 3.878-3.122 7-7 7h-24c-3.878 0-7-3.122-7-7v-24c0-3.878 3.122-7 7-7z" fill-rule="evenodd" opacity=".4" style="paint-order:stroke fill markers"/><path d="m23 10-4 17-3.666 4.666-1.334-1.666-2.666 3-1.334-1.334-1.334 1.334-2.5996 3.9004c0.43186 2.8939 2.9157 5.0996 5.9336 5.0996h24c3.0323 0 5.5252-2.2264 5.9395-5.1406l-3.9395-9.1934-1.334 1.334-5.332-8.084-1.334 1.5176-2.666-7.4336-2.334-5z" fill="#fff" stroke-linecap="round" stroke-linejoin="round" stroke-width="2.6667"/><path d="m23.143 27c-0.23743 0-0.42773 0.19031-0.42773 0.42773v1.4824c-0.24279 0.07576-0.47734 0.17159-0.69922 0.28711l-1.0449-1.0469c-0.16789-0.16789-0.43953-0.16789-0.60742 0l-1.2129 1.2129c-0.16789 0.16789-0.16789 0.43954 0 0.60742l1.0469 1.0449c-0.11552 0.22188-0.21135 0.45643-0.28711 0.69922h-1.4824c-0.23743 0-0.42773 0.19031-0.42773 0.42773v1.7148c0 0.23743 0.19031 0.42773 0.42773 0.42773h1.4824c0.07575 0.24277 0.1716 0.47736 0.28711 0.69922l-1.0469 1.0449c-0.16789 0.16789-0.16789 0.43953 0 0.60742l1.2129 1.2129c0.16789 0.16789 0.43954 0.16789 0.60742 0l1.0449-1.0469c0.22189 0.11553 0.45642 0.21135 0.69922 0.28711v1.4824c0 0.23743 0.19031 0.42773 0.42773 0.42773h1.7148c0.23743 0 0.42773-0.19031 0.42773-0.42773v-1.4824c0.24279-0.07576 0.47734-0.17159 0.69922-0.28711l1.0449 1.0469c0.16789 0.16789 0.43953 0.16789 0.60742 0l1.2129-1.2129c0.16789-0.16789 0.16789-0.43953 0-0.60742l-1.0469-1.0449c0.11552-0.22188 0.21135-0.45643 0.28711-0.69922h1.4824c0.23743 0 0.42773-0.19031 0.42773-0.42773v-1.7148c0-0.23743-0.19031-0.42773-0.42773-0.42773h-1.4824c-0.07576-0.2428-0.17158-0.47733-0.28711-0.69922l1.0469-1.0449c0.16789-0.16789 0.16789-0.43953 0-0.60742l-1.2129-1.2129c-0.16789-0.16789-0.43953-0.16789-0.60742 0l-1.0449 1.0469c-0.22186-0.11551-0.45645-0.21136-0.69922-0.28711v-1.4824c0-0.23743-0.19031-0.42773-0.42773-0.42773h-1.7148zm0.85742 4c1.108 0 2 0.892 2 2s-0.892 2-2 2-2-0.892-2-2 0.892-2 2-2z" fill="#695475" fill-rule="evenodd" stroke-width=".42857" style="paint-order:stroke fill markers"/></svg>
