<?xml version="1.0" encoding="UTF-8"?>
<!-- Created with Inkscape (http://www.inkscape.org/) -->
<svg id="SVGRoot" width="48px" height="48px" version="1.1" viewBox="0 0 48 48" xmlns="http://www.w3.org/2000/svg" xmlns:cc="http://creativecommons.org/ns#" xmlns:dc="http://purl.org/dc/elements/1.1/" xmlns:rdf="http://www.w3.org/1999/02/22-rdf-syntax-ns#">
 <defs id="defs815">
  <style id="style819">.cls-1{fill:none;stroke:#fff;stroke-linecap:round;stroke-linejoin:round;}</style>
 </defs>
 <metadata id="metadata818">
  <rdf:RDF>
   <cc:Work rdf:about="">
    <dc:format>image/svg+xml</dc:format>
    <dc:type rdf:resource="http://purl.org/dc/dcmitype/StillImage"/>
    <dc:title/>
   </cc:Work>
  </rdf:RDF>
 </metadata>
 <g id="layer1">
  <rect id="rect1373" x="4" y="4" width="40" height="40" ry="8" fill="#4e4e4e" fill-rule="evenodd" style="paint-order:stroke fill markers"/>
  <path id="rect817" d="m12 4c-4.432 0-8 3.568-8 8v24c0 4.432 3.568 8 8 8h24c4.432 0 8-3.568 8-8v-24c0-4.432-3.568-8-8-8h-24zm0 1h24c3.878 0 7 3.122 7 7v24c0 3.878-3.122 7-7 7h-24c-3.878 0-7-3.122-7-7v-24c0-3.878 3.122-7 7-7z" fill-rule="evenodd" opacity=".4" style="paint-order:stroke fill markers"/>
  <rect id="rect818" x="12" y="10" width="24" height="24" ry="12" fill="#ffcd4b" fill-rule="evenodd" style="paint-order:normal"/>
  <path id="path820" d="m18 32s1.925 1.4625 3 2c2 1 3 4 3 4s1-3 3-4c1.075-0.53748 3-2 3-2h-6z" fill="#ffcd4b"/>
  <rect id="rect838" x="22" y="24" width="4" height="5" rx="2" ry="2.5" fill="#4e4e4e" fill-rule="evenodd" style="paint-order:normal"/>
  <rect id="rect840-9" x="25" y="12" width="11" height="12" rx="5.5" ry="6" fill="#4e4e4e" fill-rule="evenodd" style="paint-order:normal"/>
  <rect id="rect840-9-2" x="12" y="12" width="11" height="12" rx="5.5" ry="6" fill="#4e4e4e" fill-rule="evenodd" style="paint-order:normal"/>
 </g>
</svg>
