<?xml version="1.0" encoding="UTF-8"?>
<!-- Created with Inkscape (http://www.inkscape.org/) -->
<svg id="SVGRoot" width="48px" height="48px" version="1.1" viewBox="0 0 48 48" xmlns="http://www.w3.org/2000/svg" xmlns:cc="http://creativecommons.org/ns#" xmlns:dc="http://purl.org/dc/elements/1.1/" xmlns:rdf="http://www.w3.org/1999/02/22-rdf-syntax-ns#">
 <defs id="defs815">
  <style id="style819">.cls-1{fill:none;stroke:#fff;stroke-linecap:round;stroke-linejoin:round;}</style>
 </defs>
 <metadata id="metadata818">
  <rdf:RDF>
   <cc:Work rdf:about="">
    <dc:format>image/svg+xml</dc:format>
    <dc:type rdf:resource="http://purl.org/dc/dcmitype/StillImage"/>
    <dc:title/>
   </cc:Work>
  </rdf:RDF>
 </metadata>
 <g id="layer1">
  <rect id="rect1373" x="4" y="4" width="40" height="40" ry="8" fill="#548f4a" fill-rule="evenodd" style="paint-order:stroke fill markers"/>
  <path id="rect817" d="m12 4c-4.432 0-8 3.568-8 8v24c0 4.432 3.568 8 8 8h24c4.432 0 8-3.568 8-8v-24c0-4.432-3.568-8-8-8h-24zm0 1h24c3.878 0 7 3.122 7 7v24c0 3.878-3.122 7-7 7h-24c-3.878 0-7-3.122-7-7v-24c0-3.878 3.122-7 7-7z" fill-rule="evenodd" opacity=".3" style="paint-order:stroke fill markers"/>
  <path id="path843-6" d="m37 26 4 4-11 11-4-4z" fill="#96d56b" stroke="#4e4e4e" stroke-linecap="round" stroke-linejoin="round" stroke-width="2"/>
  <path id="path843" d="m11 26-4 4 11 11 4-4z" fill="#96d56b" stroke="#4e4e4e" stroke-linecap="round" stroke-linejoin="round" stroke-width="2"/>
  <path id="path828" d="m23.971 8a2.0002 2.0002 0 0 0-1.3848 0.58594l-14 14a2.0002 2.0002 0 0 0 0 2.8281l14 14a2.0002 2.0002 0 0 0 2.8281 0l14-14a2.0002 2.0002 0 0 0 0-2.8281l-14-14a2.0002 2.0002 0 0 0-1.4434-0.58594z" color="#000000" color-rendering="auto" dominant-baseline="auto" fill="#4e4e4e" image-rendering="auto" shape-rendering="auto" solid-color="#000000" style="font-feature-settings:normal;font-variant-alternates:normal;font-variant-caps:normal;font-variant-ligatures:normal;font-variant-numeric:normal;font-variant-position:normal;isolation:auto;mix-blend-mode:normal;shape-padding:0;text-decoration-color:#000000;text-decoration-line:none;text-decoration-style:solid;text-indent:0;text-orientation:mixed;text-transform:none;white-space:normal"/>
  <path id="path874" d="m23.984 10a1.0001 1.0001 0 0 0-0.69141 0.29297l-13 13a1.0001 1.0001 0 0 0 0 1.4141l13 13a1.0001 1.0001 0 0 0 1.4141 0l13-13a1.0001 1.0001 0 0 0 0-1.4141l-13-13a1.0001 1.0001 0 0 0-0.72266-0.29297z" color="#000000" color-rendering="auto" dominant-baseline="auto" fill="#f4a156" image-rendering="auto" shape-rendering="auto" solid-color="#000000" style="font-feature-settings:normal;font-variant-alternates:normal;font-variant-caps:normal;font-variant-ligatures:normal;font-variant-numeric:normal;font-variant-position:normal;isolation:auto;mix-blend-mode:normal;shape-padding:0;text-decoration-color:#000000;text-decoration-line:none;text-decoration-style:solid;text-indent:0;text-orientation:mixed;text-transform:none;white-space:normal"/>
  <path id="path862" d="m28.775 15.776 1.2238 5.6295-2.0193 0.36714s-2.0622-3.8718-3.9774-3.8718c-2.0764 0-3.1027 1.2893-3.1207 2.4476-0.02593 1.6663 3.1207 1.6521 3.1207 1.6521v4.0386s-6.2655-1.2766-5.9967-5.7519c0.16554-2.7561 3.2356-4.4669 5.9967-4.4669 1.8645 0 2.9983 1.1795 2.9983 1.1795l0.55071-0.97905z" fill="#fff"/>
  <rect id="rect860" x="23" y="13" width="2" height="22" fill="#fff" fill-rule="evenodd" style="paint-order:normal"/>
  <path id="path862-8" d="m19.227 32.225-1.2238-5.6295 2.0193-0.36714s2.0622 3.8718 3.9774 3.8718c2.0764 0 3.1027-1.2893 3.1207-2.4476 0.02593-1.6663-3.1207-1.6521-3.1207-1.6521v-4.0386s6.2655 1.2766 5.9967 5.7519c-0.16554 2.7561-3.2356 4.4669-5.9967 4.4669-1.8645 0-2.9983-1.1795-2.9983-1.1795l-0.55071 0.97905z" fill="#fff"/>
 </g>
</svg>
