<?xml version="1.0" encoding="UTF-8"?>
<!-- Created with Inkscape (http://www.inkscape.org/) -->
<svg id="SVGRoot" width="48px" height="48px" version="1.1" viewBox="0 0 48 48" xmlns="http://www.w3.org/2000/svg" xmlns:cc="http://creativecommons.org/ns#" xmlns:dc="http://purl.org/dc/elements/1.1/" xmlns:rdf="http://www.w3.org/1999/02/22-rdf-syntax-ns#">
 <defs id="defs815">
  <style id="style819">.cls-1{fill:none;stroke:#fff;stroke-linecap:round;stroke-linejoin:round;}</style>
 </defs>
 <metadata id="metadata818">
  <rdf:RDF>
   <cc:Work rdf:about="">
    <dc:format>image/svg+xml</dc:format>
    <dc:type rdf:resource="http://purl.org/dc/dcmitype/StillImage"/>
    <dc:title/>
   </cc:Work>
  </rdf:RDF>
 </metadata>
 <g id="layer1">
  <rect id="rect1373" x="4" y="4" width="40" height="40" ry="8" fill="#4db3a6" fill-rule="evenodd" style="paint-order:stroke fill markers"/>
  <path id="rect817" d="m12 4c-4.432 0-8 3.568-8 8v24c0 4.432 3.568 8 8 8h24c4.432 0 8-3.568 8-8v-24c0-4.432-3.568-8-8-8h-24zm0 1h24c3.878 0 7 3.122 7 7v24c0 3.878-3.122 7-7 7h-24c-3.878 0-7-3.122-7-7v-24c0-3.878 3.122-7 7-7z" fill-rule="evenodd" opacity=".3" style="paint-order:stroke fill markers"/>
  <path id="rect818" d="m14 10v25l-2 3h20l2-3v-25z" fill="#fff" fill-rule="evenodd" style="paint-order:normal"/>
  <rect id="rect823" x="23" y="12" width="5" height="5" ry="2.5" fill="#4db3a6" fill-rule="evenodd" style="paint-order:normal"/>
  <path id="path825" d="m17.528 23.528 2.3405-4h7.1319l3 4h4" fill="none" stroke="#4db3a6" stroke-linecap="round" stroke-linejoin="round" stroke-width="3"/>
  <path id="path852" d="m17 27c-5 0-5 5-5 5v2h6s0-7-1-7z" fill="#fff"/>
  <path id="path827" d="m22 20-2 5v4h-3c-3 0-3 3-3 3h8c1 0 1-1 1-1v-4l4 7h3l-4-8 2-6z" fill="#4db3a6"/>
  <path id="path829" d="m25 38 2-3h3l-2 3z" fill="#4db3a6"/>
 </g>
</svg>
