<?xml version="1.0" encoding="UTF-8"?>
<!-- Created with Inkscape (http://www.inkscape.org/) -->
<svg id="SVGRoot" width="48px" height="48px" version="1.1" viewBox="0 0 48 48" xmlns="http://www.w3.org/2000/svg" xmlns:cc="http://creativecommons.org/ns#" xmlns:dc="http://purl.org/dc/elements/1.1/" xmlns:rdf="http://www.w3.org/1999/02/22-rdf-syntax-ns#" xmlns:xlink="http://www.w3.org/1999/xlink">
 <defs>
  <style>.cls-1{fill:none;stroke:#fff;stroke-linecap:round;stroke-linejoin:round;}</style>
  <style>.a{fill:none;stroke:#b1b5bd;stroke-linecap:round;stroke-linejoin:round;isolation:isolate;opacity:0.63;}</style>
  <linearGradient id="linearGradient2" x1="26" x2="26" y1="10" y2="38" gradientUnits="userSpaceOnUse">
   <stop stop-color="#f5c2e7" offset="0"/>
   <stop stop-color="#fff" offset="1"/>
  </linearGradient>
 </defs>
 <metadata>
  <rdf:RDF>
   <cc:Work rdf:about="">
    <dc:format>image/svg+xml</dc:format>
    <dc:type rdf:resource="http://purl.org/dc/dcmitype/StillImage"/>
   </cc:Work>
  </rdf:RDF>
 </metadata>
 <rect x="16" y="4" width="28" height="40" ry="8" fill="url(#linearGradient2)" stroke-linecap="round" stroke-linejoin="round" stroke-width="2" style="paint-order:stroke fill markers"/>
 <path d="m4 12 20 11v15l-20-2z" fill="#7A573B"/>
 <path d="m24 23-20-10v-1c0-4.432 3.568-8 8-8h12z" fill="#CBA6F7" fill-rule="evenodd" style="paint-order:stroke fill markers"/>
 <path d="m24 25-20 10v1c0 4.432 3.568 8 8 8h12z" fill="#4D3F33" fill-rule="evenodd" style="paint-order:stroke fill markers"/>
 <path d="m14 18 10 7s10 9.5499 10-7l-10-6z" fill="#fff" stroke="#fff" stroke-linecap="round" stroke-linejoin="round" stroke-width="4"/>
 <path d="m12.221 17.111c-0.1365 0.27319-0.22069 0.57314-0.2207 0.88867v12c2.5e-5 0.7024 0.36848 1.3533 0.9707 1.7148l10 6c0.31676 0.19011 0.67303 0.28516 1.0293 0.28516v-15z" fill="#dbdfe1"/>
 <path d="m35.779 17.111c0.1365 0.27319 0.22069 0.57314 0.2207 0.88867v12c-2.5e-5 0.7024-0.36848 1.3533-0.9707 1.7148l-10 6c-0.31676 0.19011-0.67303 0.28516-1.0293 0.28516v-15z" fill="#b7bfc2"/>
 <path d="m12 4c-4.432 0-8 3.568-8 8v24c0 4.432 3.568 8 8 8h24c4.432 0 8-3.568 8-8v-24c0-4.432-3.568-8-8-8zm0 1h24c3.878 0 7 3.122 7 7v24c0 3.878-3.122 7-7 7h-24c-3.878 0-7-3.122-7-7v-24c0-3.878 3.122-7 7-7z" fill-rule="evenodd" opacity=".3" style="paint-order:stroke fill markers"/>
</svg>
