<?xml version="1.0" encoding="UTF-8"?>
<!-- Created with Inkscape (http://www.inkscape.org/) -->
<svg id="SVGRoot" width="48px" height="48px" version="1.1" viewBox="0 0 48 48" xmlns="http://www.w3.org/2000/svg" xmlns:cc="http://creativecommons.org/ns#" xmlns:dc="http://purl.org/dc/elements/1.1/" xmlns:rdf="http://www.w3.org/1999/02/22-rdf-syntax-ns#">
 <defs id="defs815">
  <style id="style819">.cls-1{fill:none;stroke:#fff;stroke-linecap:round;stroke-linejoin:round;}</style>
 </defs>
 <metadata id="metadata818">
  <rdf:RDF>
   <cc:Work rdf:about="">
    <dc:format>image/svg+xml</dc:format>
    <dc:type rdf:resource="http://purl.org/dc/dcmitype/StillImage"/>
    <dc:title/>
   </cc:Work>
  </rdf:RDF>
 </metadata>
 <g id="layer1" fill-rule="evenodd">
  <rect id="rect1373" x="4" y="4" width="40" height="40" ry="8" fill="#463d6f" style="paint-order:stroke fill markers"/>
  <path id="rect817" d="m12 4c-4.432 0-8 3.568-8 8v24c0 4.432 3.568 8 8 8h24c4.432 0 8-3.568 8-8v-24c0-4.432-3.568-8-8-8h-24zm0 1h24c3.878 0 7 3.122 7 7v24c0 3.878-3.122 7-7 7h-24c-3.878 0-7-3.122-7-7v-24c0-3.878 3.122-7 7-7z" opacity=".5" style="paint-order:stroke fill markers"/>
  <rect id="rect828" x="13" y="13" width="28" height="28" ry="14" fill="#77a5e0" style="paint-order:stroke fill markers"/>
  <rect id="rect830" x="14" y="14" width="26" height="26" ry="13" fill="#d6e4fc" style="paint-order:stroke fill markers"/>
  <rect id="rect832" x="15" y="15" width="24" height="24" ry="12" fill="#52679f" style="paint-order:stroke fill markers"/>
  <rect id="rect834" x="17" y="17" width="20" height="20" ry="10" fill="#60a3e0" style="paint-order:stroke fill markers"/>
  <rect id="rect834-7" x="19" y="19" width="16" height="16" ry="8" fill="#3c76b1" style="paint-order:stroke fill markers"/>
  <rect id="rect862" x="27" y="27" width="8" height="8" ry="4" fill="#d6e4fc" style="paint-order:stroke fill markers"/>
  <rect id="rect864" x="28" y="28" width="6" height="6" ry="3" fill="#a9ccf8" style="paint-order:stroke fill markers"/>
  <rect id="rect866" x="29" y="29" width="4" height="4" ry="2" fill="#60a3e0" style="paint-order:stroke fill markers"/>
  <rect id="rect862-3" x="20" y="26" width="8" height="8" ry="4" fill="#d6e4fc" style="paint-order:stroke fill markers"/>
  <rect id="rect864-5" x="21" y="27" width="6" height="6" ry="3" fill="#a9ccf8" style="paint-order:stroke fill markers"/>
  <rect id="rect866-7" x="22" y="28" width="4" height="4" ry="2" fill="#60a3e0" style="paint-order:stroke fill markers"/>
  <rect id="rect862-0" x="26" y="20" width="8" height="8" ry="4" fill="#d6e4fc" style="paint-order:stroke fill markers"/>
  <rect id="rect864-0" x="27" y="21" width="6" height="6" ry="3" fill="#a9ccf8" style="paint-order:stroke fill markers"/>
  <rect id="rect866-2" x="28" y="22" width="4" height="4" ry="2" fill="#60a3e0" style="paint-order:stroke fill markers"/>
  <rect id="rect862-9" x="19" y="19" width="8" height="8" ry="4" fill="#d6e4fc" style="paint-order:stroke fill markers"/>
  <rect id="rect864-8" x="20" y="20" width="6" height="6" ry="3" fill="#a9ccf8" style="paint-order:stroke fill markers"/>
  <rect id="rect866-4" x="21" y="21" width="4" height="4" ry="2" fill="#60a3e0" style="paint-order:stroke fill markers"/>
  <path id="rect909" d="m12 6c-3.0212 0-5.4999 2.2127-5.9277 5.1113v4.1777c1.4638 1.6604 3.6023 2.7109 6 2.7109 4.432 0 8-3.568 8-8 0-1.4606-0.39399-2.8238-1.0723-4h-7z" fill="#77a5e0" style="paint-order:stroke fill markers"/>
  <rect id="rect909-8" x="8" y="32" width="8" height="8" ry="4" fill="#77a5e0" style="paint-order:stroke fill markers"/>
  <path id="rect926" d="m12 6c-3.0212 0-5.4999 2.2127-5.9277 5.1113v2.4922c1.2216 2.0356 3.4436 3.3965 6 3.3965 3.878 0 7-3.122 7-7 0-1.4905-0.4639-2.8672-1.252-4h-5.8203z" fill="#d6e4fc" style="paint-order:stroke fill markers"/>
  <path id="rect928" d="m12 6c-2.9014 0-5.3077 2.0387-5.873 4.7676 0.37538 2.9581 2.882 5.2324 5.9453 5.2324 3.324 0 6-2.676 6-6 0-1.5421-0.5818-2.9393-1.5312-4h-4.541z" fill="#52679f" style="paint-order:stroke fill markers"/>
  <rect id="rect930" x="8.0723" y="6" width="8" height="8" ry="4" fill="#60a3e0" style="paint-order:stroke fill markers"/>
  <rect id="rect932" x="10.072" y="8" width="4" height="4" ry="2" fill="#3c76b1" style="paint-order:stroke fill markers"/>
  <rect id="rect934" x="9" y="33" width="6" height="6" ry="3" fill="#d6e4fc" style="paint-order:stroke fill markers"/>
  <rect id="rect936" x="10" y="34" width="4" height="4" ry="2" fill="#52679f" style="paint-order:stroke fill markers"/>
  <rect id="rect938" x="11" y="35" width="2" height="2" ry="1" fill="#60a3e0" style="paint-order:stroke fill markers"/>
 </g>
</svg>
