<?xml version="1.0" encoding="UTF-8"?>
<!-- Created with Inkscape (http://www.inkscape.org/) -->
<svg id="SVGRoot" width="48px" height="48px" version="1.1" viewBox="0 0 48 48" xmlns="http://www.w3.org/2000/svg" xmlns:cc="http://creativecommons.org/ns#" xmlns:dc="http://purl.org/dc/elements/1.1/" xmlns:rdf="http://www.w3.org/1999/02/22-rdf-syntax-ns#">
 <defs id="defs815">
  <style id="style819">.cls-1{fill:none;stroke:#fff;stroke-linecap:round;stroke-linejoin:round;}</style>
 </defs>
 <metadata id="metadata818">
  <rdf:RDF>
   <cc:Work rdf:about="">
    <dc:format>image/svg+xml</dc:format>
    <dc:type rdf:resource="http://purl.org/dc/dcmitype/StillImage"/>
    <dc:title/>
   </cc:Work>
  </rdf:RDF>
 </metadata>
 <g id="layer1" fill-rule="evenodd">
  <rect id="rect1373-5" x="4" y="4" width="40" height="40" ry="8" fill="#d978a4" style="paint-order:stroke fill markers"/>
  <path id="rect817" d="m12 4c-4.432 0-8 3.568-8 8v24c0 4.432 3.568 8 8 8h24c4.432 0 8-3.568 8-8v-24c0-4.432-3.568-8-8-8h-24zm0 1h24c3.878 0 7 3.122 7 7v24c0 3.878-3.122 7-7 7h-24c-3.878 0-7-3.122-7-7v-24c0-3.878 3.122-7 7-7z" opacity=".3" style="paint-order:stroke fill markers"/>
  <path id="rect836" d="m36.884 16.898c-0.29945 0.0015-0.59995 0.01747-0.86593 0.04804-0.16861 0.01935-0.31008 0.03826-0.31435 0.042-0.01517 0.01327 0.15976 7.6384 0.1756 7.654 0.01404 0.01383 0.32521 0.06161 0.56794 0.08723 0.18563 0.0196 0.97325-0.0052 1.2263-0.03846 0.14613-0.01925 0.27257-0.04135 0.28098-0.049 0.01166-0.01064 0.13775-5.781 0.16095-7.3695l0.0044-0.28614-0.16174-0.02366c-0.30567-0.04473-0.6889-0.0664-1.0739-0.06437zm-23.041 3.0547c-0.9797 0-1.6627 0.20786-2.3571 0.71735-1.0186 0.74734-1.5588 2.0915-1.5091 3.7553 0.024377 0.81669 0.16746 1.4255 0.48504 2.0642 0.18814 0.37841 0.36273 0.62013 0.67272 0.93127 0.4782 0.47998 1.0221 0.76602 1.727 0.90824 0.38518 0.07773 0.537 0.0893 1.0836 0.08268 0.41144-0.0052 0.5587-0.01468 0.7562-0.04985 0.86598-0.15424 1.5912-0.55751 2.1062-1.1711 0.36945-0.44021 0.59604-0.88831 0.75396-1.491 0.33644-1.2839 0.21644-2.7574-0.31004-3.807-0.34602-0.68985-0.86943-1.2058-1.5794-1.5568-0.54108-0.26752-1.0935-0.38329-1.8291-0.38329zm8.5326 0.0073c-0.5208 0.0011-1.0103 0.07047-1.4301 0.20925-0.23476 0.07759-0.59538 0.25715-0.77703 0.38684-0.27248 0.19453-0.55287 0.5149-0.6944 0.7934-0.17125 0.33698-0.24577 0.68992-0.24565 1.1634 2.06e-4 0.76804 0.18703 1.2421 0.63002 1.5984 0.42348 0.34067 0.7564 0.48438 1.6794 0.72494 0.79069 0.20608 1.0685 0.31732 1.2439 0.49805 0.1923 0.19815 0.21482 0.62074 0.04614 0.86525-0.36619 0.53081-1.5515 0.65187-2.7531 0.28118-0.14516-0.04478-0.32302-0.10474-0.39522-0.13324-0.0722-0.02853-0.13312-0.04967-0.13536-0.04691-0.01914 0.02336-0.08596 0.17352-0.14346 0.32245-0.15528 0.40207-0.31543 1.0554-0.31543 1.2867v0.07747l0.34233 0.11383c0.55463 0.18448 1.0404 0.28697 1.5073 0.31802 0.37145 0.0247 0.89634 0.02482 1.1461 2.77e-4 0.8031-0.07896 1.5135-0.3402 2.0472-0.75292 0.70672-0.54647 1.0486-1.3833 0.94692-2.3177-0.07747-0.71204-0.36546-1.2173-0.88652-1.5556-0.33577-0.21798-0.52972-0.29479-1.4156-0.56048-0.33792-0.10136-0.68588-0.21266-0.77324-0.24737-0.16647-0.06614-0.34567-0.17176-0.405-0.23875-0.12797-0.14448-0.16573-0.47261-0.07784-0.67652 0.08073-0.18725 0.25939-0.31029 0.56248-0.38736 0.22654-0.05759 0.9007-0.05106 1.2196 0.0118 0.18906 0.03729 0.85514 0.24422 1.0201 0.3169 0.02552 0.01116 0.04824-0.02017 0.10586-0.14622 0.16674-0.36477 0.32357-0.94662 0.35483-1.3164l0.0127-0.15093-0.33475-0.10705c-0.69134-0.22107-1.4127-0.3323-2.0822-0.33083zm10.186 0.10203c-0.31605 7.53e-4 -0.63596 0.02352-0.95015 0.06821l-0.17176 0.02444v6.3319l-0.06132 0.01704c-0.28099 0.07799-0.89622 0.11741-1.2426 0.07962-0.38642-0.04213-0.64203-0.14566-0.85647-0.34688-0.15479-0.14526-0.24638-0.2917-0.3248-0.51921-0.15694-0.45531-0.1615-0.54668-0.1615-3.2259 0-1.844-0.0053-2.3304-0.02553-2.338-0.09324-0.03494-0.52517-0.07437-0.9248-0.08446-0.4022-0.0101-0.5259-0.0056-0.85655 0.0323-0.21255 0.0243-0.39419 0.04894-0.40365 0.05481-0.02476 0.01531-0.02106 4.4432 0.0042 4.8622 0.05594 0.93248 0.24749 1.5943 0.6261 2.163 0.39589 0.59468 1.0621 0.99398 1.898 1.1376 0.2019 0.03469 0.66312 0.0888 0.93934 0.1102 0.23262 0.01804 1.2403-0.0069 1.5022-0.0374 0.56423-0.06537 1.2178-0.19659 1.8036-0.36209l0.30145-0.08519v-7.794l-0.16863-0.02444c-0.2987-0.04327-0.61091-0.06454-0.92696-0.06378zm-18.752 1.6376c0.03914-7e-6 0.08014 8e-4 0.12344 0.0024 0.41513 0.0151 0.67392 0.11029 0.92592 0.34062 0.4459 0.40753 0.67073 1.3395 0.60762 2.5185-0.06388 1.1935-0.40843 1.8744-1.0577 2.0906-0.25549 0.08504-0.52866 0.10891-0.81751 0.0714-0.73866-0.09592-1.1591-0.62917-1.3258-1.6817-0.05207-0.32877-0.05248-1.296-7.04e-4 -1.623 0.07024-0.44335 0.19115-0.82246 0.34628-1.0857 0.11368-0.19289 0.33162-0.39467 0.52867-0.48946 0.21449-0.10318 0.39584-0.14361 0.66977-0.14366zm23.198 4.1572c-0.446-0.0012-0.93107 0.02823-1.2066 0.08275-0.05223 0.01038-0.05474 0.01792-0.09197 0.28034-0.05356 0.37736-0.05062 1.3478 0.0052 1.7515l0.03819 0.27591 0.12262 0.01594c0.584 0.07587 1.1802 0.09225 1.6452 0.04522 0.54552-0.05518 0.52714-0.05174 0.53924-0.09994 0.08499-0.33864 0.1099-1.3495 0.04609-1.8721-0.04415-0.36165-0.04937-0.38419-0.09177-0.39726-0.01857-0.0059-0.15329-0.02604-0.29942-0.04519-0.18574-0.02435-0.4393-0.03628-0.7069-0.03705z" fill="#f4ecec" style="paint-order:stroke fill markers"/>
 </g>
</svg>
