<?xml version="1.0" encoding="UTF-8"?>
<!-- Created with Inkscape (http://www.inkscape.org/) -->
<svg id="SVGRoot" width="48px" height="48px" version="1.1" viewBox="0 0 48 48" xml:space="preserve" xmlns="http://www.w3.org/2000/svg" xmlns:cc="http://creativecommons.org/ns#" xmlns:dc="http://purl.org/dc/elements/1.1/" xmlns:rdf="http://www.w3.org/1999/02/22-rdf-syntax-ns#"><defs><style>.cls-1{fill:none;stroke:#fff;stroke-linecap:round;stroke-linejoin:round;}</style><style>.cls-1{fill:none;stroke:#fff;stroke-linecap:round;stroke-linejoin:round;}</style><style>.cls-1{fill:none;stroke:#fff;stroke-linecap:round;stroke-linejoin:round;}</style></defs><metadata><rdf:RDF><cc:Work rdf:about=""><dc:format>image/svg+xml</dc:format><dc:type rdf:resource="http://purl.org/dc/dcmitype/StillImage"/></cc:Work></rdf:RDF></metadata><rect x="4" y="4" width="40" height="40" ry="8" fill="#4e4e4e" fill-rule="evenodd" style="paint-order:stroke fill markers"/><path d="m12 4c-4.432 0-8 3.568-8 8v24c0 4.432 3.568 8 8 8h24c4.432 0 8-3.568 8-8v-24c0-4.432-3.568-8-8-8zm0 1h24c3.878 0 7 3.122 7 7v24c0 3.878-3.122 7-7 7h-24c-3.878 0-7-3.122-7-7v-24c0-3.878 3.122-7 7-7z" fill-rule="evenodd" opacity=".4" style="paint-order:stroke fill markers"/><path d="m13.41 14.824c-2.1261 2.4539-3.4102 5.6592-3.4102 9.1758 0 7.756 6.244 14 14 14s14-6.244 14-14c0-3.5166-1.284-6.7219-3.4102-9.1758l-2.8398 2.8398c1.408 1.7225 2.25 3.9276 2.25 6.3359 0 5.54-4.46 10-10 10s-10-4.46-10-10c0-2.4083 0.84197-4.6135 2.25-6.3359z" fill="#efefef"/><path d="m24 10c-3.5166 0-6.7219 1.284-9.1758 3.4102l2.8398 2.8398c1.7225-1.408 3.9276-2.25 6.3359-2.25s4.6135 0.84197 6.3359 2.25l2.8398-2.8398c-2.4539-2.1261-5.6592-3.4102-9.1758-3.4102z" fill="#f6a559"/><path d="m23 20v9l-4 5-3-3 5-6z" fill="#efefef"/><path d="m25 20v9l4 5 3-3-5-6z" fill="#efefef"/></svg>
