<?xml version="1.0" encoding="UTF-8"?>
<!-- Created with Inkscape (http://www.inkscape.org/) -->
<svg id="SVGRoot" width="48px" height="48px" version="1.1" viewBox="0 0 48 48" xml:space="preserve" xmlns="http://www.w3.org/2000/svg" xmlns:cc="http://creativecommons.org/ns#" xmlns:dc="http://purl.org/dc/elements/1.1/" xmlns:rdf="http://www.w3.org/1999/02/22-rdf-syntax-ns#"><defs><style>.cls-1{fill:none;stroke:#fff;stroke-linecap:round;stroke-linejoin:round;}</style><style>.cls-1{fill:none;stroke:#fff;stroke-linecap:round;stroke-linejoin:round;}</style><style>.cls-1{fill:none;stroke:#fff;stroke-linecap:round;stroke-linejoin:round;}</style><style>.cls-1{fill:none;stroke:#fff;stroke-linecap:round;stroke-linejoin:round;}</style><style>.a{fill:none;stroke:#b1b5bd;stroke-linecap:round;stroke-linejoin:round;isolation:isolate;opacity:0.63;}</style></defs><metadata><rdf:RDF><cc:Work rdf:about=""><dc:format>image/svg+xml</dc:format><dc:type rdf:resource="http://purl.org/dc/dcmitype/StillImage"/></cc:Work></rdf:RDF></metadata><path d="m4 24 20 20h12c4.432 0 8-3.568 8-8v-2l-10-10z" fill="#729dec" fill-rule="evenodd" style="paint-order:stroke fill markers"/><path d="m12 4c-4.432 0-8 3.568-8 8v2l10 10h30l-20-20z" fill="#d35244" fill-rule="evenodd" style="paint-order:stroke fill markers"/><path d="m24 4v10h10v20h10v-22c0-4.432-3.568-8-8-8h-12z" fill="#96d56b" stroke-linecap="round" stroke-linejoin="round" stroke-width="10"/><path d="m4 14v20 2c0 4.432 3.568 8 8 8h12v-10h-10v-20h-10z" fill="#ffdd75" fill-rule="evenodd" style="paint-order:stroke fill markers"/><path d="m12 4c-4.432 0-8 3.568-8 8v24c0 4.432 3.568 8 8 8h24c4.432 0 8-3.568 8-8v-24c0-4.432-3.568-8-8-8zm0 1h24c3.878 0 7 3.122 7 7v24c0 3.878-3.122 7-7 7h-24c-3.878 0-7-3.122-7-7v-24c0-3.878 3.122-7 7-7z" fill-rule="evenodd" opacity=".3" style="paint-order:stroke fill markers"/><path d="m13 5-1 1v6h-6l-1 1v1h9v-9h-1zm1 9h10v-9h-1l-1 1v6h-6l-2 2zm0 0-2 2v6h-6l-1 1v1h9v-10zm0 10h10v-10l-2 2v6h-6l-2 2zm0 0-2 2v6h-6l-1 1v1h9v-10zm0 10h10v-10l-2 2v6h-6l-2 2zm0 0-2 2v6h-3.6172c1.0545 0.63516 2.2915 1 3.6172 1h2v-9zm10-10h10v-10l-2 2v6h-6l-2 2zm10-10v-9h-1l-1 1v6h-6l-2 2h10zm0 0h9v-2c0-1.3257-0.36484-2.5627-1-3.6172v3.6172h-6l-2 2zm0 10h9v-9l-1 1v6h-6l-2 2zm0 0-2 2v6h-6l-2 2h10v-10zm0 10h9v-9l-1 1v6h-6l-2 2zm0 0-2 2v6h-6l-1 1h9v-9zm-10 0-2 2v6h-6l-1 1h9v-9zm19 1-1 1v3.6172c0.63516-1.0545 1-2.2915 1-3.6172v-1zm-7 7-1 1h1c1.3257 0 2.5627-0.36484 3.6172-1h-3.6172z" opacity=".15" stroke-linecap="round" stroke-linejoin="round" stroke-width="2"/></svg>
