<?xml version="1.0" encoding="UTF-8"?>
<!-- Created with Inkscape (http://www.inkscape.org/) -->
<svg id="SVGRoot" width="48px" height="48px" version="1.1" viewBox="0 0 48 48" xmlns="http://www.w3.org/2000/svg" xmlns:cc="http://creativecommons.org/ns#" xmlns:dc="http://purl.org/dc/elements/1.1/" xmlns:rdf="http://www.w3.org/1999/02/22-rdf-syntax-ns#" xmlns:xlink="http://www.w3.org/1999/xlink">
 <defs id="defs815">
  <style id="style819">.cls-1{fill:none;stroke:#fff;stroke-linecap:round;stroke-linejoin:round;}</style>
 </defs>
 <metadata id="metadata818">
  <rdf:RDF>
   <cc:Work rdf:about="">
    <dc:format>image/svg+xml</dc:format>
    <dc:type rdf:resource="http://purl.org/dc/dcmitype/StillImage"/>
    <dc:title/>
   </cc:Work>
  </rdf:RDF>
 </metadata>
 <g id="layer1">
  <rect id="rect1373" x="4" y="4" width="40" height="40" ry="8" fill="#efefef" fill-rule="evenodd" style="paint-order:stroke fill markers"/>
  <path id="rect817" d="m12 4c-4.432 0-8 3.568-8 8v24c0 4.432 3.568 8 8 8h24c4.432 0 8-3.568 8-8v-24c0-4.432-3.568-8-8-8h-24zm0 1h24c3.878 0 7 3.122 7 7v24c0 3.878-3.122 7-7 7h-24c-3.878 0-7-3.122-7-7v-24c0-3.878 3.122-7 7-7z" fill-rule="evenodd" opacity=".3" style="paint-order:stroke fill markers"/>
  <rect id="rect826" x="19" y="30" width="10" height="10" ry="5" fill="#ffcd4b" fill-rule="evenodd" style="paint-order:stroke fill markers"/>
  <path id="path828" d="m20 13 4-4 4 4-4 4z" fill="#d35244" stroke="#d35244" stroke-linecap="round" stroke-linejoin="round" stroke-width="2"/>
  <rect id="rect830" x="19" y="20" width="10" height="8" rx="5" ry="2" fill="#485fa9" fill-rule="evenodd" style="paint-order:stroke fill markers"/>
  <path id="rect836" d="m24 30c-2.77 0-5 2.23-5 5s2.23 5 5 5 5-2.23 5-5c0-0.20502-0.01532-0.4051-0.03906-0.60352-0.20051 2.0257-1.8808 3.6035-3.9609 3.6035-2.216 0-4-1.784-4-4 0-2.0802 1.5778-3.7604 3.6035-3.9609-0.19841-0.023746-0.3985-0.039062-0.60352-0.039062z" fill-rule="evenodd" opacity=".25" style="paint-order:stroke fill markers"/>
 </g>
</svg>
