<?xml version="1.0" encoding="UTF-8"?>
<!-- Created with Inkscape (http://www.inkscape.org/) -->
<svg id="SVGRoot" width="48px" height="48px" version="1.1" viewBox="0 0 48 48" xmlns="http://www.w3.org/2000/svg" xmlns:cc="http://creativecommons.org/ns#" xmlns:dc="http://purl.org/dc/elements/1.1/" xmlns:rdf="http://www.w3.org/1999/02/22-rdf-syntax-ns#">
 <defs id="defs815">
  <style id="style819">.cls-1{fill:none;stroke:#fff;stroke-linecap:round;stroke-linejoin:round;}</style>
 </defs>
 <metadata id="metadata818">
  <rdf:RDF>
   <cc:Work rdf:about="">
    <dc:format>image/svg+xml</dc:format>
    <dc:type rdf:resource="http://purl.org/dc/dcmitype/StillImage"/>
    <dc:title/>
   </cc:Work>
  </rdf:RDF>
 </metadata>
 <g id="layer1" fill-rule="evenodd">
  <rect id="rect1373" x="4" y="4" width="40" height="40" ry="8" fill="#4e4e4e" style="paint-order:stroke fill markers"/>
  <path id="rect817" d="m12 4c-4.432 0-8 3.568-8 8v24c0 4.432 3.568 8 8 8h24c4.432 0 8-3.568 8-8v-24c0-4.432-3.568-8-8-8h-24zm0 1h24c3.878 0 7 3.122 7 7v24c0 3.878-3.122 7-7 7h-24c-3.878 0-7-3.122-7-7v-24c0-3.878 3.122-7 7-7z" opacity=".4" style="paint-order:stroke fill markers"/>
  <path id="rect829" d="m18 14v4h-4v4h8v-8z" fill="#f49d51" style="paint-order:stroke fill markers"/>
  <path id="rect829-5" d="m14 26v4h4v4h4v-8h-4z" fill="#90e065" style="paint-order:stroke fill markers"/>
  <rect id="rect831" x="10" y="22" width="10" height="4" fill="#f2d673" style="paint-order:stroke fill markers"/>
  <path id="rect829-7-1" d="m26 14v8h8v-4h-4v-4z" fill="#fad5a8" style="paint-order:stroke fill markers"/>
  <path id="rect829-7" d="m26 26v8h4v-4h4v-4h-4z" fill="#997ad2" style="paint-order:stroke fill markers"/>
  <rect id="rect831-0" transform="scale(-1)" x="-38" y="-26" width="10" height="4" fill="#f477b5" style="paint-order:stroke fill markers"/>
  <rect id="rect826-8" x="22" y="10" width="4" height="14" fill="#e75a5a" style="paint-order:stroke fill markers"/>
  <rect id="rect826-6" transform="scale(-1)" x="-26" y="-38" width="4" height="14" fill="#99c9e4" style="paint-order:stroke fill markers"/>
  <rect id="rect822-1" x="22" y="14" width="4" height="20" fill="#fff" style="paint-order:stroke fill markers"/>
  <rect id="rect824" x="14" y="22" width="20" height="4" fill="#fff" style="paint-order:stroke fill markers"/>
  <rect id="rect857" x="18" y="18" width="12" height="12" fill="#fff" style="paint-order:normal"/>
 </g>
</svg>
