<?xml version="1.0" encoding="UTF-8"?>
<!-- Created with Inkscape (http://www.inkscape.org/) -->
<svg id="SVGRoot" width="48px" height="48px" version="1.1" viewBox="0 0 48 48" xmlns="http://www.w3.org/2000/svg" xmlns:cc="http://creativecommons.org/ns#" xmlns:dc="http://purl.org/dc/elements/1.1/" xmlns:rdf="http://www.w3.org/1999/02/22-rdf-syntax-ns#">
 <defs id="defs815">
  <style id="style819">.cls-1{fill:none;stroke:#fff;stroke-linecap:round;stroke-linejoin:round;}</style>
 </defs>
 <metadata id="metadata818">
  <rdf:RDF>
   <cc:Work rdf:about="">
    <dc:format>image/svg+xml</dc:format>
    <dc:type rdf:resource="http://purl.org/dc/dcmitype/StillImage"/>
    <dc:title/>
   </cc:Work>
  </rdf:RDF>
 </metadata>
 <g id="layer1">
  <path id="rect1373" d="m8 24c-2.216 0-4 1.784-4 4v8c0 4.432 3.568 8 8 8h24c4.432 0 8-3.568 8-8v-8c0-2.216-1.784-4-4-4h-32z" fill="#cf953e" fill-rule="evenodd" style="paint-order:stroke fill markers"/>
  <path id="path936-4" d="m4.8711 8.3711c-0.55312 1.0888-0.87109 2.3195-0.87109 3.6289v24c0 2.216 0.89189 4.2161 2.3379 5.6621l17.662-17.662-12-10c-0.57233 0.57233-5.2035-4.1581-7.1289-5.6289z" fill="#e9bf73"/>
  <path id="path825" d="m41.795 9.0684-5.7949 6.9316-12 8-12-8-6.4199-5.9551c2.0632-3.6138 5.9443-6.0449 10.42-6.0449h16c4.059 0 7.6253 2.0013 9.7949 5.0684z" fill="#90e065"/>
  <path id="path895" d="m7.5078 7.5078c-0.73915 0.73915-1.3743 1.5801-1.9004 2.4922h0.39258v4h4v4h4v4h4v4h6v-2z" fill="#b3f095"/>
  <path id="path895-2" d="m40.492 7.5078-16.492 16.492v2h6v-4h4v-4h4v-4h4v-4h0.39258c-0.52608-0.91209-1.1612-1.753-1.9004-2.4922z" fill="#74ba68"/>
  <path id="path893" d="m22 26 2 2 2-2-2-2-1 1z" fill="#90e065"/>
  <path id="path863" d="m12 4c-2.216 0-4.2161 0.89189-5.6621 2.3379l17.662 17.662 17.662-17.662c-1.446-1.446-3.4461-2.3379-5.6621-2.3379h-24z" fill="#96d56b"/>
  <path id="path919" d="m24 28-4-4 4-4 4 4z" fill="#96d56b"/>
  <path id="path936" d="m43.115 8.3438c-1.746 1.3349-5.5596 5.2119-6.1152 4.6562l-13 11 17.662 17.662c1.446-1.446 2.3379-3.4461 2.3379-5.6621v-24c0-1.3203-0.323-2.5608-0.88477-3.6562z" fill="#9d632b"/>
  <path id="path874" d="m6.3379 6.3379c-0.9944 0.9944-1.7176 2.2536-2.0781 3.6621h1.7402v4h4v4h4v4h4v4h4l2-2-17.662-17.662z" fill="#bfea83"/>
  <path id="path874-0" d="m41.662 6.3379-17.662 17.662 2 2h4v-4h4v-4h4v-4h4v-4h1.7402c-0.36048-1.4085-1.0837-2.6677-2.0781-3.6621z" fill="#4fb47b"/>
  <path id="rect817" d="m12 4c-4.432 0-8 3.568-8 8v24c0 4.432 3.568 8 8 8h24c4.432 0 8-3.568 8-8v-24c0-4.432-3.568-8-8-8zm0 1h24c3.878 0 7 3.122 7 7v24c0 3.878-3.122 7-7 7h-24c-3.878 0-7-3.122-7-7v-24c0-3.878 3.122-7 7-7z" fill-rule="evenodd" opacity=".3" style="paint-order:stroke fill markers"/>
 </g>
</svg>
