<?xml version="1.0" encoding="UTF-8"?>
<!-- Created with Inkscape (http://www.inkscape.org/) -->
<svg id="SVGRoot" width="48px" height="48px" version="1.1" viewBox="0 0 48 48" xml:space="preserve" xmlns="http://www.w3.org/2000/svg" xmlns:cc="http://creativecommons.org/ns#" xmlns:dc="http://purl.org/dc/elements/1.1/" xmlns:rdf="http://www.w3.org/1999/02/22-rdf-syntax-ns#"><defs><style>.cls-1{fill:none;stroke:#fff;stroke-linecap:round;stroke-linejoin:round;}</style><style>.cls-1{fill:none;stroke:#fff;stroke-linecap:round;stroke-linejoin:round;}</style></defs><metadata><rdf:RDF><cc:Work rdf:about=""><dc:format>image/svg+xml</dc:format><dc:type rdf:resource="http://purl.org/dc/dcmitype/StillImage"/></cc:Work></rdf:RDF></metadata><rect x="4" y="4" width="40" height="40" ry="8" fill="#4e4e4e" fill-rule="evenodd" style="paint-order:stroke fill markers"/><path d="m12 4c-4.432 0-8 3.568-8 8v24c0 4.432 3.568 8 8 8h24c4.432 0 8-3.568 8-8v-24c0-4.432-3.568-8-8-8zm0 1h24c3.878 0 7 3.122 7 7v24c0 3.878-3.122 7-7 7h-24c-3.878 0-7-3.122-7-7v-24c0-3.878 3.122-7 7-7z" fill-rule="evenodd" opacity=".4" style="paint-order:stroke fill markers"/><style type="text/css">.st0{fill:#FFFFFF;}</style><path d="m25.919 10.005c-3.3156 0.06293-7.0025 5.0835-7.9462 7.6708 0.8446-2.8359 2.5671-4.9452 2.055-4.9771-0.76459-0.04756-4.7823 7.6395-4.8852 15.753-0.07131 5.6209 3.3358 9.378 6.9863 9.4977 4.7122 0.15443 10.773-6.249 10.776-17.58 0.0016-5.1705-2.4771-10.45-6.9863-10.365zm-0.04589 2.4655c2.3573 0.06699 3.3336 2.7645 3.5123 5.4607 0.17878 2.6962-0.44078 5.391-0.17983 5.4521 0.58682 0.13749 0.86817-8.0367 0.86817-8.0367s1.3043 6.2386-0.2741 11.096c-1.0584 3.2574-3.2682 8.1823-6.7121 7.9003-4.0651-0.33284-3.9372-5.6639-4.3842-5.2511-0.34547 0.31901 0.60203 5.5372 3.562 6.484 0.94244 0.30143 2.6032 0.09053 2.6032 0.09053s-1.5442 0.98816-2.9232 0.59407c-2.8132-0.80389-4.1308-3.9486-4.1548-8.2648-0.03228-5.8342 3.2763-15.662 8.0826-15.525z" fill="#71b9e3" stroke-width=".635"/></svg>
