<?xml version="1.0" encoding="UTF-8"?>
<!-- Created with Inkscape (http://www.inkscape.org/) -->
<svg id="SVGRoot" width="48px" height="48px" version="1.1" viewBox="0 0 48 48" xmlns="http://www.w3.org/2000/svg" xmlns:cc="http://creativecommons.org/ns#" xmlns:dc="http://purl.org/dc/elements/1.1/" xmlns:rdf="http://www.w3.org/1999/02/22-rdf-syntax-ns#">
 <defs id="defs815">
  <style id="style819">.cls-1{fill:none;stroke:#fff;stroke-linecap:round;stroke-linejoin:round;}</style>
 </defs>
 <metadata id="metadata818">
  <rdf:RDF>
   <cc:Work rdf:about="">
    <dc:format>image/svg+xml</dc:format>
    <dc:type rdf:resource="http://purl.org/dc/dcmitype/StillImage"/>
    <dc:title/>
   </cc:Work>
  </rdf:RDF>
 </metadata>
 <g id="layer1">
  <rect id="rect1373" x="4" y="4" width="40" height="40" ry="8" fill="#ffdd75" fill-rule="evenodd" style="paint-order:stroke fill markers"/>
  <path id="rect817" d="m12 4c-4.432 0-8 3.568-8 8v24c0 4.432 3.568 8 8 8h24c4.432 0 8-3.568 8-8v-24c0-4.432-3.568-8-8-8h-24zm0 1h24c3.878 0 7 3.122 7 7v24c0 3.878-3.122 7-7 7h-24c-3.878 0-7-3.122-7-7v-24c0-3.878 3.122-7 7-7z" fill-rule="evenodd" opacity=".3" style="paint-order:stroke fill markers"/>
  <rect id="rect818" x="8" y="8" width="32" height="32" ry="5" fill="#4e4e4e" fill-rule="evenodd" style="paint-order:stroke fill markers"/>
  <path id="path839" d="m12 6-6 6v4l10-10h-4zm8 0-14 14v4l18-18h-4zm8 0-22 22v4l26-26h-4zm8 0-30 30c0 1.1466 0.32532 2.2119 0.87891 3.1211l32.242-32.242c-0.90916-0.55359-1.9745-0.87891-3.1211-0.87891zm5.1211 2.8789-32.242 32.242c0.90916 0.55359 1.9745 0.87891 3.1211 0.87891l30-30c0-1.1466-0.32532-2.2119-0.87891-3.1211zm0.87891 7.1211-26 26h4l22-22v-4zm0 8-18 18h4l14-14v-4zm0 8-10 10h4l6-6v-4z" opacity=".3"/>
  <rect id="rect818-6" x="8" y="8" width="32" height="32" ry="5" fill="#4e4e4e" fill-rule="evenodd" style="paint-order:normal"/>
  <rect id="rect820" x="20" y="12" width="8" height="8" ry="1" fill="#fff" fill-rule="evenodd" style="paint-order:normal"/>
  <rect id="rect823" x="19" y="14" width="10" height="4" fill="#fff" fill-rule="evenodd" style="paint-order:normal"/>
  <rect id="rect825" x="22" y="19" width="4" height="3" fill="#fff" fill-rule="evenodd" style="paint-order:normal"/>
  <rect id="rect827" x="18" y="21" width="12" height="11" ry="1" fill="#fff" fill-rule="evenodd" style="paint-order:normal"/>
  <rect id="rect829" x="19" y="34" width="10" height="2" fill="#fff" fill-rule="evenodd" style="paint-order:normal"/>
  <rect id="rect831" x="21" y="31" width="2" height="4" fill="#fff" fill-rule="evenodd" style="paint-order:normal"/>
  <rect id="rect833" x="25" y="31" width="2" height="4" fill="#fff" fill-rule="evenodd" style="paint-order:normal"/>
  <rect id="rect835" x="16" y="23" width="16" height="7" ry="1" fill="#fff" fill-rule="evenodd" style="paint-order:normal"/>
 </g>
</svg>
