<?xml version="1.0" encoding="UTF-8"?>
<!-- Created with Inkscape (http://www.inkscape.org/) -->
<svg id="SVGRoot" width="48px" height="48px" version="1.1" viewBox="0 0 48 48" xmlns="http://www.w3.org/2000/svg" xmlns:cc="http://creativecommons.org/ns#" xmlns:dc="http://purl.org/dc/elements/1.1/" xmlns:rdf="http://www.w3.org/1999/02/22-rdf-syntax-ns#">
 <defs id="defs815">
  <style id="style819">.cls-1{fill:none;stroke:#fff;stroke-linecap:round;stroke-linejoin:round;}</style>
 </defs>
 <metadata id="metadata818">
  <rdf:RDF>
   <cc:Work rdf:about="">
    <dc:format>image/svg+xml</dc:format>
    <dc:type rdf:resource="http://purl.org/dc/dcmitype/StillImage"/>
    <dc:title/>
   </cc:Work>
  </rdf:RDF>
 </metadata>
 <g id="layer1">
  <rect id="rect1373" x="4" y="4" width="40" height="40" ry="8" fill="#ddd" fill-rule="evenodd" style="paint-order:stroke fill markers"/>
  <path id="rect817" d="m12 4c-4.432 0-8 3.568-8 8v24c0 4.432 3.568 8 8 8h24c4.432 0 8-3.568 8-8v-24c0-4.432-3.568-8-8-8h-24zm0 1h24c3.878 0 7 3.122 7 7v24c0 3.878-3.122 7-7 7h-24c-3.878 0-7-3.122-7-7v-24c0-3.878 3.122-7 7-7z" fill-rule="evenodd" opacity=".3" style="paint-order:stroke fill markers"/>
  <path id="path828" d="m16.5 6-1.5 16 2 20 2-20-1.5-16zm16.5 3s5 2 4 5c-0.94868 2.846-16 3-16 3l1 23 2-19s15-1 15-7c0-4-6-5-6-5zm-27 7.6191v3.8672c2.2507 0.378 4 0.51367 4 0.51367l2 19 1-23s-3.3633-0.04625-7-0.38086z" fill="#d35244"/>
  <path id="rect882" d="m23 5v2h-1v3h1v6h1v-6h1v-3h-1v-2h-1zm17 1.252v17.748h-2v1h-4-1v1 1h-8v1h8v2h-1v3h1v10h1v-10h1v-3h-1v-4h4v1h4v-1h1v-1h-1v-1h-1v-16.906c-0.30534-0.31117-0.64095-0.59202-1-0.8418z" fill-rule="evenodd" opacity=".25" style="paint-order:stroke fill markers"/>
 </g>
</svg>
