<?xml version="1.0" encoding="UTF-8"?>
<!-- Created with Inkscape (http://www.inkscape.org/) -->
<svg id="SVGRoot" width="48px" height="48px" version="1.1" viewBox="0 0 48 48" xmlns="http://www.w3.org/2000/svg" xmlns:cc="http://creativecommons.org/ns#" xmlns:dc="http://purl.org/dc/elements/1.1/" xmlns:rdf="http://www.w3.org/1999/02/22-rdf-syntax-ns#">
 <defs id="defs815">
  <style id="style819">.cls-1{fill:none;stroke:#fff;stroke-linecap:round;stroke-linejoin:round;}</style>
 </defs>
 <metadata id="metadata818">
  <rdf:RDF>
   <cc:Work rdf:about="">
    <dc:format>image/svg+xml</dc:format>
    <dc:type rdf:resource="http://purl.org/dc/dcmitype/StillImage"/>
    <dc:title/>
   </cc:Work>
  </rdf:RDF>
 </metadata>
 <g id="layer1">
  <rect id="rect1373-5" x="4" y="4" width="40" height="40" ry="8" fill="#88d5f9" fill-rule="evenodd" style="paint-order:stroke fill markers"/>
  <path id="path856" d="m23.164 6.6562c-1.0549 0.039824-2.1024 0.23779-3.0723 0.61133-1.6149 0.62194-3.3866 2.1371-4.0664 3.4785-0.38656 0.76283-0.83818 2.3289-0.82422 2.8594 0.0065 0.24566 0.07284 0.09569 0.18555-0.42383 0.24514-1.13 0.54475-2.0031 0.89648-2.6113 0.43804-0.75752 2.1164-2.3032 3.0195-2.7812 1.7934-0.94935 4.4822-1.2262 6.5566-0.67578 1.0046 0.26654 2.6621 0.93644 2.6621 1.0762 0 0.036743-0.08825 0.033271-0.19531-0.00781-0.24374-0.093533-0.51546 0.26175-0.61914 0.80859-0.04298 0.2267-0.13167 0.37917-0.19531 0.33984-0.10344-0.063929-0.15387 0.079089-0.30664 0.85156-0.02392 0.12096 0.0076 0.25033 0.07031 0.28906 0.06267 0.03873 0.11835-0.0032 0.12305-0.09375 0.0047-0.09053 0.06716-0.04418 0.13867 0.10352 0.07151 0.14769 0.26261 0.34041 0.42578 0.42773 0.21539 0.11527 0.32376 0.31815 0.39453 0.73828 0.05361 0.31828 0.08387 0.67779 0.06836 0.79883-0.01551 0.12103 0.02735 0.21875 0.0957 0.21875s0.125-0.09091 0.125-0.20312c0-0.16582 0.03438-0.17624 0.18555-0.05078 0.14117 0.11716 0.28409 0.12152 0.58789 0.01563 0.22014-0.07675 0.432-0.10296 0.47266-0.05859 0.04065 0.04436 0.0044 0.10585-0.08203 0.13672-0.08646 0.03088-0.1582 0.13379-0.1582 0.22852s-0.19471 0.26555-0.43359 0.37891c-0.70428 0.3342-0.71935 0.40423-0.32422 1.5332 0.19776 0.56505 0.40192 1.0949 0.45312 1.1777 0.05903 0.09552 0.0397 0.11767-0.05273 0.06055-0.08018-0.04956-0.36652-0.4113-0.63477-0.80469-0.56508-0.82871-1.1303-1.4635-1.2227-1.3711-0.03529 0.03529 0.11554 0.38291 0.33594 0.77344 0.2204 0.39053 0.37792 0.73341 0.34961 0.76172-0.16074 0.16074-1.8337-2.8292-2.1641-3.8672-0.08944-0.28099-0.33008-0.28662-0.33008-0.0078 0 0.35607 0.4053 1.7254 0.57031 1.9258 0.1426 0.17314 0.46056 1.3828 0.36328 1.3828-0.21332 0-1.0806-2.0666-1.582-3.7715-0.4529-1.5399-0.44058 0.31136 0.01367 2.0625 0.26188 1.0095 0.37255 2.7493 0.11914 1.873-0.14585-0.50434-0.36523-0.65535-0.36523-0.25195 0 0.2344-0.09268 0.33043-0.4082 0.42188-0.36368 0.10541-0.4082 0.16847-0.4082 0.57227 0 0.53119-0.1337 0.5141-0.25391-0.0332-0.05908-0.26901-0.14643-0.37015-0.29297-0.33789-0.21977 0.04838-0.22591 0.09427-0.08789 0.59766 0.04741 0.1729-0.08552 0.02346-0.29492-0.33203-0.41759-0.70894-0.83322-2.1377-0.9668-3.3184-0.04714-0.41667-0.14279-0.79186-0.21094-0.83398-0.07998-0.04945-0.10588 0.55609-0.07422 1.709 0.03154 1.1484 0.0091 1.6594-0.0625 1.4316-0.06124-0.19478-0.11941-1.2447-0.12891-2.334-0.0095-1.0892-0.05199-1.8528-0.0957-1.6973-0.04371 0.15556-0.22359 0.79161-0.40039 1.4141-0.1768 0.62246-0.35549 1.5276-0.39648 2.0117-0.11949 1.4112-0.20505 1.8223-0.375 1.8223-0.08766 0-0.21695-0.18343-0.28906-0.4082l-0.13281-0.4082-0.01172 0.38672c-0.01084 0.32726-0.08011 0.40805-0.44336 0.51953-0.50872 0.15613-0.51008 0.1517-0.6543-1.4102-0.08081-0.87521-0.10687-0.94736-0.18945-0.56445-0.0522 0.24207-0.13877 0.89202-0.19336 1.4453l-0.09961 1.0059-0.06641-0.80274c-0.06756-0.81533 0.02191-2.6088 0.16992-3.4102 0.07218-0.39078 0.06683-0.40413-0.05273-0.125-0.12976 0.30294-0.31061 1.7342-0.45312 3.5938-0.05879 0.76713-0.12443 0.95557-0.47656 1.375l-0.4082 0.48633-0.20508-0.74805-0.20508-0.74609 0.06445 0.66211c0.03586 0.36394 0.09616 0.76067 0.13477 0.88086 0.0593 0.18459 0.04935 0.18862-0.06445 0.0293-0.29955-0.41937-0.55326-2.0403-0.48047-3.0703 0.03952-0.55922 0.11393-1.1293 0.16406-1.2676 0.05013-0.13832 0.04456-0.21118-0.01172-0.16016-0.1893 0.17163-0.43192 1.7839-0.44922 2.9883-0.02189 1.5243-0.20662 1.0518-0.24609-0.62891l-0.02734-1.1934-0.11523 0.79883c-0.08722 0.60951-0.0643 1.0592 0.09375 1.8867 0.1141 0.5974 0.25043 1.6521 0.30273 2.3438 0.0523 0.69162 0.13765 1.3714 0.19141 1.5098 0.05375 0.13832 0.37351 0.57263 0.70898 0.96484 0.33548 0.39222 0.60842 0.787 0.60742 0.87891-0.0015 0.12943-0.02675 0.12615-0.11523-0.01367-0.09127-0.14425-0.15219-0.14871-0.30078-0.02539-0.14333 0.11897-0.19765 0.11994-0.23633 0.0039-0.0276-0.08281-0.12218 0.46645-0.20898 1.2207s-0.18642 1.5126-0.22266 1.6855c-0.05309 0.2533-0.03947 0.27698 0.07422 0.125 0.10767-0.14394 0.1225-0.03839 0.0625 0.44141-0.04325 0.34581-0.10318 0.72268-0.13476 0.83789s-0.0074 0.24092 0.05469 0.2793c0.06211 0.03838 0.29228-0.3664 0.51172-0.90039l0.40039-0.97266-0.06055 0.62891c-0.03281 0.34581-0.34718 1.4782-0.69922 2.5156-0.35204 1.0374-0.68845 2.0562-0.74609 2.2637s-0.28532 0.75403-0.50781 1.2148c-0.31128 0.6447-0.48234 0.85753-0.74024 0.92188-0.18434 0.046-0.43365 0.17218-0.55469 0.28125-0.27001 0.24332-0.27265 0.19545-0.02344-0.42188l0.19531-0.48633-0.31445 0.37695c-0.50325 0.60382-1.3256 2.3391-1.4141 2.9844-0.05264 0.38404-0.1297 0.56557-0.2207 0.51367-0.07727-0.04408-0.1001-0.03512-0.04883 0.02148 0.05128 0.0566 0.02335 0.19078-0.0625 0.29688-0.12746 0.15751-0.12428 0.17335 0.01758 0.08789 0.14412-0.08683 0.15939 0.04289 0.08984 0.76172-0.12387 1.2805-0.72892 4.7012-0.83203 4.7012-0.24793 0-0.40668-1.2116-0.33398-2.5527 0.12587-2.3222 1.0329-5.5117 3.2246-11.342 1.061-2.8222 1.6387-4.7848 1.6387-5.5566 0-0.61457-0.20017-0.41022-0.29687 0.30273-0.20358 1.5009-0.90761 3.1753-4.1152 9.7812-1.7619 3.6286-2.4967 6.9616-1.9414 8.8066 0.041986 0.13951 0.029649 0.15064 0.052734 0.24414 0.091646 0.03895 0.18731 0.071 0.28125 0.10547-0.023734-0.07115-0.061932-0.1478-0.080078-0.21484-0.44512-1.6444 0.054766-4.4752 1.3027-7.3848 1.0255-2.3909 2.7079-5.9426 2.752-5.8105 0.02279 0.06838-0.20926 0.7708-0.51367 1.5605-1.4637 3.7973-2.4248 7.3475-2.5508 9.4219-0.07125 1.173-0.04601 1.4496 0.20898 2.3086 0.0533 0.17956 0.08704 0.30198 0.12109 0.42774 0.1652 0.02284 0.33266 0.03768 0.50195 0.04687 0.29363-1.2999 0.6204-2.981 0.83398-4.4688 0.35496-2.4725 0.38948-2.6361 0.68359-3.2207 0.33487-0.66563 0.71396-0.95367 1.8828-1.4297 0.58653-0.23886 1.2778-0.52397 1.5371-0.63476 0.56725-0.24233 0.56587-0.25065 0.2832 1.2266-0.10373 0.54209-0.1875 1.3495-0.1875 1.793 0 0.44347-0.05606 0.80664-0.12305 0.80664-0.06696 0-0.09891 0.0698-0.07227 0.15625 0.1189 0.38581 0.1883 1.2254 0.10156 1.2246-0.05269-4.37e-4 -0.19712-0.17616-0.32031-0.39258-0.39844-0.69995-0.35518-0.29875 0.05273 0.49219 0.45365 0.87961 0.46362 0.79286-0.35352 3.0449-0.24131 0.66507-0.35842 1.0144-0.41796 1.4199h0.2207c0.12272-0.56804 0.29694-1.1588 0.53906-1.7715 0.41399-1.0476 0.61706-1.2031 0.63281-0.48828 0.0049 0.22069 0.05489 0.51402 0.11133 0.65234 0.05902 0.14466 0.10673-0.68718 0.11133-1.957 0.0086-2.3852 0.10571-3.2113 0.58594-4.959l0.31055-1.1328-0.05664 0.88086c-0.03114 0.48413-0.14145 1.7581-0.24609 2.8301-0.36913 3.7814-0.38695 4.2012-0.16797 4.1172 0.28258-0.10844 0.64925 0.34432 1.041 1.2891 0.09998 0.24109 0.1704 0.35047 0.26367 0.53906h0.77344c0.03705-1.5599 0.27404-4.6977 0.36914-4.8516 0.08449-0.13671 1.2969 1.5394 1.2969 1.793 0 0.14629 0.43389 1.6545 0.85742 3.0586h0.19922c-0.13041-0.4401-0.21065-0.76152-0.36719-1.2305-0.85199-2.5524-0.85447-3.0105-0.04102-7.041 0.32793-1.6248 0.37011-2.0613 0.30859-3.1445-0.06341-1.1166-0.05156-1.2231 0.10352-0.94531 0.09605 0.17204 0.14632 0.3594 0.11133 0.41602-0.03499 0.05661 0.03706 0.60199 0.16016 1.2109 0.18469 0.91371 0.20121 1.2577 0.0918 1.9727-0.14884 0.97257-0.12033 1.1352 0.10742 0.60156 0.22602-0.5296 0.18406-2.3859-0.06836-3.0547-0.40192-1.0649-0.09793-0.64295 0.77734 1.082 1.0356 2.041 1.4062 2.9672 1.4062 3.5156 3.4e-5 0.21918-0.37033 1.6912-0.82227 3.2695-0.36329 1.2687-0.67734 2.524-0.85742 3.3477h0.21875l0.11719-0.53906 0.41211 0.31445c0.16196 0.12353 0.24856 0.1734 0.33398 0.22461h0.22266c0.52911-0.47418 4.2734-5.6824 4.2734-5.9688 0-0.05683 0.04839-0.10352 0.10742-0.10352 0.12044 0 0.47154 2.0049 0.64453 3.6816 0.06015 0.58296 0.04677 1.5272-0.0059 2.3906h0.55859c0.08545-0.24793 0.1739-0.50186 0.24023-0.72852 0.73669-2.5172 1.1555-4.9521 1.3105-7.6074l0.09961-1.6973 0.07422 1.5098c0.04117 0.82994 0.04623 2.1167 0.01172 2.8613-0.06056 1.3065-0.07086 1.3473-0.29492 1.1445-0.30206-0.27336-0.29623-0.12603 0.01172 0.30469 0.22817 0.31914 0.23359 0.39818 0.07227 1.2227-0.09473 0.48413-0.29351 1.3208-0.44141 1.8594-0.46055 1.6772-0.18863 1.3702 0.39453-0.44531l0.55469-1.7285 0.71875 1.4141c0.35822 0.70382 0.61837 1.3166 0.80277 1.8906h0.30274c-0.25019-0.83297-0.69167-1.74-1.3418-2.8203l-0.42773-0.71094 0.2168-0.86133c0.16764-0.66423 0.21744-1.3882 0.21484-3.1602-0.0024-1.64 0.03672-2.2845 0.13672-2.2461 0.0771 0.02959 0.61654 0.15069 1.1992 0.26953 1.4189 0.2894 1.571 0.35793 2.1504 0.96094 0.89708 0.93368 1.3725 2.1636 1.6758 4.3398 0.09491 0.68098 0.29272 2.1079 0.43945 3.1719 0.0216 0.1566 0.06804 0.3786 0.09375 0.54883 0.06706-0.02943 0.13153-0.06392 0.19726-0.0957-0.06936-0.45418-0.14153-0.92273-0.2168-1.5078-0.40576-3.1541-0.46475-3.5412-0.66016-4.2754-0.11045-0.41497-0.48698-1.348-0.83594-2.0742-0.79362-1.6515-0.79367-1.651-0.40234-1.1953 0.67621 0.78744 2.22 3.0805 2.7598 4.0977 0.83694 1.5771 1.0191 2.9604 0.5625 4.1895 0.16544-0.13655 0.32095-0.28419 0.4707-0.4375 0.18792-0.52127 0.23223-0.91434 0.23438-2.0645 0.0026-1.3764-0.02846-1.5858-0.35742-2.3887-0.35332-0.86232-1.3894-2.516-3.0977-4.9453-1.7859-2.5397-2.9305-5.1931-3.3711-7.8184-0.1451-0.86452-0.34861-2.2222-0.45312-3.0176-0.10451-0.79536-0.25315-1.9278-0.33008-2.5156-0.3836-2.9314-1.254-6.0863-2.0391-7.3945-1.3281-2.2131-4.55-3.5121-7.7148-3.3926zm-1.9766 6.1211c0.01749-0.0068 0.03512 6.61e-4 0.05078 0.02539 0.06112 0.09651 0.11314 0.37512 0.11524 0.61719 0.0036 0.41729 0.2676 1.7072 0.44141 2.1582 0.05399 0.14008 0.0032 0.22785-0.15039 0.26758-0.21686 0.05608-0.21555 0.06042-2e-3 0.07422 0.14298 0.0092 0.33862 0.25588 0.5332 0.67383 0.37071 0.79627 0.36986 0.80144 0.06836-0.74414-0.13253-0.67941-0.27387-1.5753-0.31445-1.9902l-0.07422-0.75391 0.35547 1.0684c0.54097 1.6239 1.0734 2.5932 1.4805 2.6953 0.38445 0.09649 1.5353-0.14613 1.7949-0.37891 0.20638-0.18504 0.21791-1.537 0.02148-2.5547-0.20304-1.052-0.16848-1.0352 0.43555 0.19922 0.31099 0.63556 0.56641 1.1826 0.56641 1.2168 0 0.03417-0.15551 0.08643-0.3457 0.11524-0.28524 0.04321-0.26647 0.05477 0.11328 0.07031 0.34642 0.01418 0.54214 0.11513 0.78711 0.40625 0.32285 0.38368 0.44961 0.83656 0.18945 0.67578-0.35851-0.22157-1.5911 0.5409-1.791 1.1074-0.10703 0.30325 0.1918 0.28359 0.38476-0.02539 0.0844-0.13514 0.2563-0.30143 0.38281-0.36914 0.21295-0.11397 0.22635-0.07064 0.17773 0.60156-0.05037 0.69637-0.04033 0.72583 0.24414 0.71484 0.22491-0.0087 0.30686 0.06435 0.33984 0.30273 0.08978 0.64904 0.68663 0.87835 0.89062 0.3418 0.06024-0.15846 0.1885-0.35336 0.28516-0.43359 0.1458-0.121 0.16604-0.07418 0.125 0.27734-0.05786 0.4956-0.47084 0.99521-0.73828 0.89258-0.10234-0.03927-0.26798-0.07031-0.36719-0.07031-0.0992 0-0.27324-0.19934-0.38867-0.44141-0.19281-0.40433-0.51938-0.64456-0.38477-0.2832 0.03221 0.08645 0.13569 0.36955 0.22852 0.62891 0.15916 0.44467 0.19814 0.47266 0.70312 0.47266 0.42228-2e-6 0.60332-0.07377 0.85547-0.3457 0.43934-0.47381 0.61405-1.0696 0.51172-1.752-0.09641-0.64292 0.05701-0.65152 0.38281-0.02148 0.15439 0.29855 0.16816 0.46058 0.0625 0.76367-0.16135 0.46286-0.16201 0.47461-0.03125 0.47461 0.0567 0 0.24955-0.2831 0.42774-0.62891 0.17818-0.34581 0.27292-0.62891 0.21094-0.62891s-0.1129-0.0698-0.11328-0.15625c-3.19e-4 -0.08645-0.16223-0.33072-0.35938-0.54102-0.24335-0.25959-0.38835-0.5791-0.45117-0.99805-0.08077-0.53857-0.06791-0.59868 0.0957-0.46289 0.1031 0.08557 0.31156 0.46608 0.46484 0.84375 0.17725 0.43671 0.35371 0.68697 0.48438 0.6875 0.113 4.58e-4 0.3765 0.11259 0.58398 0.25 0.26972 0.17863 0.31358 0.24941 0.15625 0.25-0.12103 4.62e-4 -0.2207 0.04021-0.2207 0.08789 0 0.46764-0.58399 3.5952-0.81836 4.3789-0.23839 0.79717-0.44172 1.1751-0.97656 1.8223-0.82012 0.99232-1.5642 1.6126-2.8945 2.4121-0.55516 0.33366-1.099 0.60226-1.209 0.59766-1.0283-0.04325-3.9632-1.7411-4.8145-2.7852-0.61035-0.7486-0.62161-0.7769-1.5488-3.541l-0.82812-2.4688 0.32812-0.42774c0.18011-0.23613 0.41221-0.46227 0.51562-0.50195 0.14069-0.05399 0.16919-0.19087 0.11328-0.54492l-0.07617-0.47461 0.19922 0.3457c0.10917 0.1902 0.21831 0.3457 0.24219 0.3457s0.01498-0.26718-0.01953-0.5957c-0.04324-0.4116-0.02174-0.55931 0.06836-0.47266 0.07191 0.06916 0.14696 0.3369 0.16797 0.59375 0.02965 0.36239-0.03461 0.54453-0.28906 0.81641-0.18035 0.1927-0.41644 0.52396-0.52344 0.73633-0.18121 0.35966-0.17636 0.42254 0.07227 0.91211 0.3226 0.63529 0.49832 0.68844 0.31641 0.0957-0.11246-0.36643-0.08838-0.51902 0.16797-1.0312 0.33256-0.66452 0.7115-0.94721 0.49024-0.36524-0.15136 0.39809-0.16703 1.0723-0.02539 1.0723 0.05533 0 0.16732-0.06575 0.24805-0.14648 0.11187-0.11187 0.15733-0.10458 0.19531 0.03125 0.2414 0.86323 0.28697 0.93164 0.5918 0.93164 0.22805 0 0.36184-0.1089 0.5-0.40625 0.25138-0.54102 0.42682-0.51904 0.33594 0.04102-0.10424 0.64238-0.29766 0.82572-0.82812 0.78125-0.36841-0.03088-0.4865-0.11165-0.64062-0.44336-0.10374-0.22328-0.23133-0.40866-0.2832-0.41016-0.17694-0.0051-0.09377 0.33982 0.1582 0.66016 0.30723 0.39057 0.30979 0.43502 0.03125 0.50781-0.12103 0.03163 0.1481 0.06401 0.59766 0.07031l0.81641 0.01172 0.22852-0.45898c0.29725-0.59657 0.3993-1.4937 0.23633-2.084-0.1038-0.37592-0.09618-0.46875 0.04102-0.46875 0.09425 0 0.25916 0.12395 0.36523 0.27539 0.10607 0.15144 0.2315 0.2353 0.2793 0.1875 0.15921-0.15921-0.26207-0.74514-0.67773-0.94336-0.36942-0.17616-0.41016-0.24956-0.41016-0.73828 0-0.3481 0.05736-0.54428 0.1582-0.54687 0.09347-0.0024 0.06507-0.07314-0.07031-0.17578-0.19425-0.14727-0.21614-0.2899-0.14844-0.9707 0.11595-1.1661 0.27598-1.9585 0.39844-2.0059zm5.4805 0.87109c0.04667-0.0041 0.21992 0.24658 0.5332 0.75 0.31123 0.50011 0.56445 0.9366 0.56445 0.9707 0 0.13762-0.51436 0.05036-0.56445-0.0957-0.02964-0.08645-0.16949-0.46727-0.31055-0.84766-0.19069-0.51424-0.26933-0.77322-0.22266-0.77734zm-8.0332 1.5469c0.02887-0.01219 0.06757 0.10899 0.10547 0.36719 0.0309 0.21053 0.0088 0.41165-0.04883 0.44727s-0.10547-0.13666-0.10547-0.38281c0-0.2742 0.01995-0.41945 0.04883-0.43164zm-3.6309 0.29883-0.06445 3.207-0.0625 3.2051-0.73633 2.1387c-0.9124 2.6535-1.5155 4.1213-2.9453 7.168-1.9671 4.1914-2.4202 5.5905-2.4551 7.5703-0.020493 1.1633 0.052117 1.8561 0.3418 2.4629 0.089391 0.04964 0.18324 0.09159 0.27539 0.13672-0.31739-0.66211-0.48147-1.6866-0.41016-2.7832 0.1237-1.9023 0.59622-3.3107 2.4141-7.1992 1.2548-2.6842 2.2232-5.0118 2.6855-6.4551 0.20295-0.63356 0.48269-1.4399 0.62109-1.791 0.4671-1.185 0.53477-1.9612 0.43164-4.8945zm12.307 0.09961c0.0267-0.02669 0.19873-0.01104 0.38281 0.03516 0.23602 0.05924 0.42718 0.26448 0.64648 0.69727 0.17105 0.33755 0.26788 0.60791 0.21484 0.59961-0.58817-0.09151-0.9756-0.36947-1.127-0.80664-0.09102-0.26292-0.14388-0.49869-0.11719-0.52539zm-7.7773 0.5c0.10045 0.0054 0.12305 0.0961 0.12305 0.33789 0 0.4017-0.10827 0.49065-0.27148 0.22656-0.06522-0.10553-0.12092-0.05372-0.17383 0.1582-0.06922 0.27728-0.08435 0.25745-0.13672-0.16016-0.03255-0.25936-0.02824-0.47171 0.0098-0.47266 0.03798-9.5e-4 0.18199-0.03118 0.32031-0.06836 0.05283-0.0142 0.09542-0.02327 0.12891-0.02148zm-1.6387 0.5957 0.08789 0.33203c0.06584 0.24619 0.01768 0.42513-0.1875 0.68555-0.33332 0.42305-0.42378 0.44154-0.52734 0.11524-0.0532-0.16762 0.03559-0.39136 0.27344-0.68945zm-1.6484 0.125c0.02652 0 0.07437 0.14155 0.10742 0.31445 0.03305 0.1729 0.0127 0.31445-0.04687 0.31445s-0.10938-0.14155-0.10938-0.31445 0.02231-0.31445 0.04883-0.31445zm15.195 0.01172c0.03351 0.01008 0.07188 0.03673 0.11524 0.08008 0.19527 0.19527 0.34712 1.0835 0.35352 2.0586 0.0047 0.7169-0.04186 0.89668-0.34961 1.3203-0.45893 0.63172-0.64815 0.76464-1.0039 0.70703-0.2426-0.03929-0.2843-0.11367-0.25195-0.44727 0.02942-0.30342 0.1071-0.40694 0.32226-0.4375 0.15561-0.0221 0.2832-0.09701 0.2832-0.16602 0-0.06901-0.11363-0.09079-0.25195-0.04687-0.37414 0.11875-0.33463-0.49288 0.0625-0.96484 0.1729-0.20549 0.31445-0.30474 0.31445-0.21875s0.03466 0.12354 0.07617 0.08203c0.0415-0.04151 0.03665-0.14048-0.01172-0.21875-0.06153-0.09955-0.16092-0.0771-0.32812 0.07422-0.38655 0.34983-0.29624-0.06313 0.10547-0.48242l0.34375-0.35938 0.14844 0.60352 0.14844 0.60547-0.02148-0.69141c-0.01641-0.55642-0.06032-0.68998-0.22656-0.67774-0.17108 0.01261-0.18743-0.05023-0.09766-0.36328 0.10272-0.35817 0.16901-0.48728 0.26953-0.45703zm-4.0527 0.17773c0.35136 0 0.51265 0.40249 0.23242 0.58008-0.09326 0.0591-0.19784 0.10742-0.23242 0.10742-0.19988 0-0.39465-0.24771-0.35547-0.45117 0.02992-0.15538 0.15112-0.23633 0.35547-0.23633zm-1.918 0.10742c-0.0069-0.01634-0.05238-0.0058-0.13867 0.02734-0.11353 0.04356-0.20703 0.12965-0.20703 0.19141 0 0.1617 0.07281 0.14008 0.25391-0.07813 0.06644-0.08006 0.0987-0.12429 0.0918-0.14062zm5.4277 0.08008c0.06269 0 0.085 0.11363 0.04883 0.25195-0.03618 0.13832-0.08873 0.25195-0.11524 0.25195-0.02652 0-0.04687-0.11363-0.04687-0.25195 0-0.13832 0.05059-0.25195 0.11328-0.25195zm-10.914 0.18945c0.23688 0 0.30078 0.06678 0.30078 0.31445 0 0.34461-0.354 0.47568-0.69141 0.25586-0.2695-0.17558 7.31e-4 -0.57031 0.39062-0.57031zm-3.5566 0.32812c0.08569-0.02076 0.23732 0.13213 0.45898 0.45703 0.31139 0.45641 0.3145 0.47283 0.06836 0.51172-0.21247 0.03357-0.25008 0.12723-0.23242 0.56641l0.01953 0.52539 0.05078-0.4707c0.05517-0.52742 0.1487-0.57858 0.45312-0.24219 0.23234 0.25674 0.27602 0.52344 0.08398 0.52344-0.06916 0-0.12695 0.05779-0.12695 0.12695 0 0.06916 0.08075 0.125 0.17773 0.125 0.15438 0 0.45117 0.59448 0.45117 0.90234 0 0.21399-0.73667-0.27412-0.79297-0.52539-0.04806-0.21441-0.0551-0.2104-0.04102 0.0293 0.01124 0.19143 0.1704 0.3681 0.48633 0.53711 0.26505 0.1418 0.5222 0.39766 0.58789 0.58594 0.10007 0.28681 0.07758 0.34353-0.15625 0.40625-0.14974 0.04017-0.30237 0.07322-0.33984 0.07422-0.1489 0.0038-1.1202-1.0859-1.2305-1.3809-0.19146-0.51227-0.31677-1.8867-0.17188-1.8867 0.07019 0 0.16084 0.07175 0.19922 0.1582 0.03838 0.08645 0.03655-0.11289-0.0039-0.44141-0.04528-0.36762-0.02709-0.56128 0.05859-0.58203zm14.734 1.2422c-0.06916 0-0.12695 0.17142-0.12695 0.37891s0.05779 0.37695 0.12695 0.37695c0.06916 0 0.125-0.16947 0.125-0.37695s-0.05584-0.37891-0.125-0.37891zm-0.74609 2.291c0.17888-0.02016 0.38945 0.10099 0.33789 0.25586-0.06999 0.21021-0.426 0.26962-0.53711 0.08984-0.04883-0.07902-0.02935-0.20112 0.04297-0.27344 0.04225-0.04225 0.09662-0.06555 0.15625-0.07227zm-12.438 0.74219c0.17104-0.01322 0.35742 0.14365 0.35742 0.35938 0 0.1668-0.08284 0.25586-0.23828 0.25586-0.27323 0-0.4579-0.36045-0.27734-0.54102 0.04629-0.04629 0.10119-0.06981 0.1582-0.07422zm5.791 0.39258c-0.06036-0.0098-0.10782 0.02567-0.10938 0.10742-0.0021 0.10951 0.25858 0.45975 0.30469 0.50586 0.15345 0.15342 0.12958-0.22223-0.0059-0.45508-0.0548-0.09423-0.1291-0.14838-0.18945-0.1582zm2.3926 1.4785c-0.03458 0-0.24332 0.18719-0.43359 0.26953-0.19027 0.08233-0.36125 0.06141-0.4043 0.11328-0.08733 0.10522-0.1014 0.1875-0.03125 0.1875 0.06916 0 0.75179-0.27712 0.83789-0.38086 0.08732-0.10522 0.1014-0.18945 0.03125-0.18945zm-3.6777 0.26562c-0.05116-0.0029-0.09691 0.0097-0.09961 0.04883-8e-3 0.11592 0.3183 0.31462 0.52539 0.35352 0.14372 0.027 0.43214 0.05047 0.42774-0.0957-4e-3 -0.13363-0.27092-0.01853-0.39648-0.06445-0.1172-0.04286-0.26425-0.13865-0.32031-0.19336-0.02808-0.0274-0.08556-0.04589-0.13672-0.04883zm-4.0234 1.4961c0.0662-7.86e-4 0.14208 0.21971 0.18945 0.66211 0.04874 0.45469 0.05195 0.88825 0.0059 0.96289-0.04632 0.07496 0.0031 0.13476 0.11133 0.13476 0.28943 0 0.25718 1.1554-0.0625 2.2188-0.33709 1.1212-0.89746 2.4327-1.0098 2.3633-0.04851-0.02998-0.17318 0.38424-0.27539 0.91992-0.10221 0.53568-0.19247 0.9034-0.20117 0.81641-0.01936-0.19443 0.48696-3.8249 0.54688-3.9219 0.09644-0.15604 0.57047-3.0469 0.57227-3.4902 0.0018-0.44296 0.05685-0.66523 0.12305-0.66602zm-0.8457 0.53711c0.01221-0.01013 0.02717 0.0027 0.04297 0.04102 0.0316 0.07661-0.16451 0.9259-0.43555 1.8867-0.27104 0.96082-0.52471 1.982-0.56445 2.2695-0.10893 0.7881-0.22312 1.1758-0.34766 1.1758-0.06167 0-0.11328 0.10207-0.11328 0.22656s-0.0674 0.29396-0.15039 0.37695c-0.25016 0.25016-0.36251 0.17129-0.27148-0.19141 0.04728-0.18838 0.47256-1.502 0.94531-2.918 0.47275-1.416 0.86364-2.6622 0.86914-2.7695 0.0027-0.05368 0.01318-0.08752 0.02539-0.09766zm9.1758 0.2168c0.05902 0 0.0909 0.34926 0.07031 0.77539l-0.03711 0.77344-0.88086 0.30273c-0.48413 0.16567-1.4471 0.43438-2.1387 0.59766-0.69162 0.16328-1.0864 0.30019-0.87891 0.30469 0.52763 0.01144 1.8399-0.28917 2.9551-0.67773 1.3518-0.47103 1.4985-0.49934 1.0234-0.19531-0.44413 0.28425-0.47442 0.50162-0.03711 0.26758 0.35982-0.19257 0.35665-0.19509 0.42773 0.43555 0.0354 0.31403 0.15994 0.67516 0.27539 0.80273 0.1986 0.21945 0.18395 0.25247-0.26562 0.62305-0.43162 0.35578-0.55192 0.39055-1.2969 0.375-0.45108-0.0094-0.95991-0.03836-1.1328-0.06445-0.1729-0.02608-0.55633-0.0791-0.85156-0.11719-0.31512-0.04066-0.67923-0.19654-0.88086-0.37695l-0.34375-0.30664 0.36719 0.13086c0.57155 0.20509 2.7148 0.31603 2.7148 0.14062 0-0.08475-0.20647-0.14453-0.49805-0.14453-0.66412 0-2.4099-0.25604-2.6465-0.38867-0.11339-0.06356 0.26301-0.10783 0.94336-0.11133 0.62245-0.0032 1.2166-0.06187 1.3203-0.12891 0.1289-0.08331-0.22854-0.12617-1.1309-0.13477l-1.3203-0.01172-0.42188-0.49024c-0.38656-0.44974-0.41036-0.52392-0.2832-0.88867 0.07628-0.21881 0.13867-0.5245 0.13867-0.67969 0-0.43117 0.25174-0.44219 1.1738-0.04883 0.46475 0.19826 1.0273 0.37294 1.25 0.38672 0.42666 0.0264 1.1211-0.28536 1.8438-0.82617 0.23821-0.17826 0.48199-0.32422 0.54102-0.32422zm-7.0332 0.50195c0.05866 0.02372 0.12588 0.22559 0.20898 0.61719 0.08946 0.42156 0.21004 0.76758 0.26758 0.76758s0.07301 0.08376 0.0332 0.1875c-0.03981 0.10374-0.01538 0.18945 0.05469 0.18945s0.17012-0.29706 0.22266-0.66016c0.08041-0.55567 0.10977-0.61031 0.1875-0.3457 0.0508 0.1729 0.09857 0.80903 0.10547 1.4141 0.0155 1.3599-0.74356 5.2648-1.1914 6.1309-0.161 0.31134-0.35759 0.94883-0.4375 1.416-0.25641 1.4992-0.40329 1.1517-0.32422-0.76562 0.04083-0.99002 0.02358-1.8011-0.03906-1.8398-0.10908-0.06742-0.44313 0.80998-0.54883 1.4414-0.02895 0.1729-0.05966 0.03135-0.06836-0.31445-0.02752-1.0956 1.1422-7.6126 1.4727-8.2031 0.01756-0.03138 0.03709-0.04306 0.05664-0.03516zm8.7637 0.94336c0.07451-0.04605 0.125 0.09961 0.125 0.35547 0 0.58966 0.13509 1.2168 0.26172 1.2168 0.05738 0 0.14452-0.21135 0.19336-0.4707l0.08789-0.47266 0.2168 0.62891c0.11905 0.34581 0.19541 0.79837 0.16992 1.0059-0.04371 0.35572-0.03875 0.3609 0.06641 0.06445 0.06134-0.1729 0.12105-0.65534 0.13281-1.0703s0.06451-0.86343 0.11719-0.99805c0.08871-0.22669 0.10152-0.22242 0.17773 0.0625 0.04525 0.1692 0.08298 0.77139 0.08398 1.3379 9.44e-4 0.5665 0.05862 1.0659 0.12891 1.1094 0.07029 0.04344 0.09355 0.13392 0.05078 0.20312-0.12964 0.20977-0.1937 2.1458-0.06836 2.0684 0.13604-0.08408 0.38677-1.7616 0.51562-3.4531l0.0918-1.209 0.01367 1.3828c0.01237 1.3822-0.38215 6.7982-0.50391 6.9199-0.03543 0.03543-0.09886-0.30285-0.14062-0.75-0.04176-0.44715-0.13321-0.91424-0.20313-1.0391-0.06992-0.12483-0.2382-0.79974-0.375-1.5-0.13679-0.70026-0.33384-1.4638-0.4375-1.6973l-0.18945-0.42578 0.07227 0.56641c0.0389 0.31123 0.14355 0.93326 0.23438 1.3828 0.09082 0.44955 0.23144 1.5261 0.3125 2.3906 0.17691 1.8869 0.1288 2.5584-0.09961 1.3828-0.08734-0.44955-0.3844-1.9687-0.66016-3.375-0.41274-2.1048-0.50195-2.8194-0.50195-4.0469 0-0.85843 0.05456-1.5256 0.12695-1.5703zm-6.5391 1.209c0.05227 0.02397 0.04141 0.15743-0.05664 0.39062-0.17504 0.41629-0.33503 0.54582-0.48633 0.39453-0.12565-0.12565-0.10618-0.64599 0.02734-0.72852 0.06271-0.03876 0.08485 0.05718 0.04883 0.21289l-0.06445 0.2832 0.20898-0.2832c0.15408-0.2075 0.27-0.2935 0.32227-0.26953zm6.0527 1.0918c0.04511 0.04912 0.2056 0.88135 0.35742 1.8496 0.15182 0.96826 0.35846 2.1188 0.45898 2.5566l0.18164 0.79687-0.43359 0.77539c-0.23918 0.42665-0.6106 1.0166-0.82422 1.3105-0.36577 0.50331-0.42588 0.5353-1.0469 0.55664l-0.66016 0.02344 0.59766 0.04687c0.32852 0.0259 0.59766 0.07164 0.59766 0.10352 0 0.03188-0.26236 0.41258-0.58203 0.84375-0.33478 0.45155-0.55197 0.66307-0.51367 0.5 0.03898-0.16596 0.0149-0.25125-0.05664-0.20703-0.07507 0.0464-0.09545-0.11248-0.05273-0.41016l0.07031-0.48242-0.13476 0.43359c-0.07387 0.23829-0.10513 0.57722-0.07031 0.75391 0.0492 0.24968-0.0914 0.52458-0.63281 1.2344-0.38312 0.50227-0.742 0.94069-0.79688 0.97461-0.09854 0.0609-0.7515-0.6329-0.75-0.79688 0.0018-0.19925 0.76911-2.7282 0.85156-2.8066 0.04989-0.04749 0.23139-0.11156 0.4043-0.14258 0.29747-0.05336 0.29503-0.05802-0.04492-0.07422-0.28751-0.0137-0.34303-0.06022-0.27539-0.23633 0.22712-0.59133 0.57226-2.0212 0.57226-2.373 0-0.54065-0.51208-1.8645-1.3242-3.4238-0.3942-0.75687-0.59968-1.2698-0.49219-1.2285 0.27735 0.10643 1.65 0.30813 2.5371 0.37305 0.7806 0.05712 0.78787 0.05406 1.3828-0.49219 0.32874-0.30184 0.63458-0.5081 0.67969-0.45898zm-6.6406 0.04883c0.06358-0.0085 0.14558-0.0074 0.24219 2e-3 0.22478 0.02167 0.396 0.0949 0.38086 0.16406-0.03316 0.15147-0.57487 0.23763-0.70117 0.11133-0.14933-0.14933-0.11263-0.2517 0.07813-0.27734zm-0.15625 0.46094c0.03941-0.01466 0.08629 4e-3 0.14453 0.03516 0.1353 0.07241 0.38237 0.09842 0.54883 0.05664 0.27964-0.07018 0.30273-0.04164 0.30273 0.39648 0 0.26081-0.22726 1.5774-0.50391 2.9258-0.27665 1.3484-0.50195 2.75-0.50195 3.1133s-0.05651 0.66016-0.125 0.66016-0.32534-0.26914-0.57031-0.59766c-0.41013-0.54999-0.43965-0.64762-0.37109-1.2266 0.04095-0.34581 0.15362-0.96784 0.25-1.3828s0.2982-1.5023 0.44922-2.416c0.19501-1.1799 0.25872-1.5205 0.37695-1.5645zm2.2734 4.2188c-0.07284 0.04501-0.1712 0.47644-0.21875 0.95898-0.04755 0.48254-0.12985 0.87891-0.18359 0.87891s-0.13768-0.29901-0.1875-0.66211c-0.04982-0.3631-0.13734-0.77183-0.19336-0.91016-0.09562-0.23608-0.10188-0.23343-0.10938 0.03906-8e-3 0.29297 0.19774 1.8417 0.31836 2.3984 0.09543 0.44051 0.2491 0.18085 0.40234-0.67773 0.25392-1.4226 0.31224-2.1121 0.17188-2.0254z" opacity=".5" stroke-width=".12575"/>
  <path id="rect817" d="m12 4c-4.432 0-8 3.568-8 8v24c0 4.432 3.568 8 8 8h24c4.432 0 8-3.568 8-8v-24c0-4.432-3.568-8-8-8h-24zm0 1h24c3.878 0 7 3.122 7 7v24c0 3.878-3.122 7-7 7h-24c-3.878 0-7-3.122-7-7v-24c0-3.878 3.122-7 7-7z" fill-rule="evenodd" opacity=".3" style="paint-order:stroke fill markers"/>
 </g>
</svg>
