<?xml version="1.0" encoding="UTF-8"?>
<!-- Created with Inkscape (http://www.inkscape.org/) -->
<svg id="SVGRoot" width="48px" height="48px" version="1.1" viewBox="0 0 48 48" xmlns="http://www.w3.org/2000/svg" xmlns:cc="http://creativecommons.org/ns#" xmlns:dc="http://purl.org/dc/elements/1.1/" xmlns:rdf="http://www.w3.org/1999/02/22-rdf-syntax-ns#" xmlns:xlink="http://www.w3.org/1999/xlink">
 <defs id="defs815">
  <style id="style819">.cls-1{fill:none;stroke:#fff;stroke-linecap:round;stroke-linejoin:round;}</style>
  <style id="style819-2">.cls-1{fill:none;stroke:#fff;stroke-linecap:round;stroke-linejoin:round;}</style>
  <style id="style819-3">.cls-1{fill:none;stroke:#fff;stroke-linecap:round;stroke-linejoin:round;}</style>
  <style id="style819-36">.cls-1{fill:none;stroke:#fff;stroke-linecap:round;stroke-linejoin:round;}</style>
  <style id="style2">.a{fill:none;stroke:#b1b5bd;stroke-linecap:round;stroke-linejoin:round;isolation:isolate;opacity:0.63;}</style>
  <style id="style819-5">.cls-1{fill:none;stroke:#fff;stroke-linecap:round;stroke-linejoin:round;}</style>
  <style id="style819-9">.cls-1{fill:none;stroke:#fff;stroke-linecap:round;stroke-linejoin:round;}</style>
 </defs>
 <metadata id="metadata818">
  <rdf:RDF>
   <cc:Work rdf:about="">
    <dc:format>image/svg+xml</dc:format>
    <dc:type rdf:resource="http://purl.org/dc/dcmitype/StillImage"/>
    <dc:title/>
   </cc:Work>
  </rdf:RDF>
 </metadata>
 <g id="layer1">
  <rect id="rect1373" x="4" y="4" width="40" height="40" ry="8" fill="#2e413a" fill-rule="evenodd" style="paint-order:stroke fill markers"/>
  <path id="rect1185" d="m6 32v4c0 3.324 2.676 6 6 6h24c3.324 0 6-2.676 6-6v-4h-36z" fill="#1c9f86" fill-rule="evenodd" opacity=".3" style="paint-order:stroke fill markers"/>
  <path id="rect817" d="m12 4c-4.432 0-8 3.568-8 8v24c0 4.432 3.568 8 8 8h24c4.432 0 8-3.568 8-8v-24c0-4.432-3.568-8-8-8h-24zm0 1h24c3.878 0 7 3.122 7 7v24c0 3.878-3.122 7-7 7h-24c-3.878 0-7-3.122-7-7v-24c0-3.878 3.122-7 7-7z" fill-rule="evenodd" opacity=".4" style="paint-order:stroke fill markers"/>
  <rect id="rect1137-2" x="11" y="38" width="26" height="3" rx="13" ry="1.5" fill-rule="evenodd" opacity=".25" style="paint-order:normal"/>
  <path id="path1055" d="m14 13 5-5h10l5 5v26l-5 1v-3h-2v3h-6v-3h-2v3l-5-1z" fill="#725644"/>
  <rect id="rect1057" x="14" y="24" width="20" height="8" fill="#261e17" fill-rule="evenodd" style="paint-order:normal"/>
  <path id="path1059" d="m14 24 4 4 4-4zm12 0 4 4 4-4z" fill="#a68f73"/>
  <path id="path1061-2" d="m16.984 14c-0.54615 0.0086-0.98439 0.45378-0.98438 1v3c5.1e-5 0.2652 0.10543 0.51952 0.29297 0.70703l2 2c0.18751 0.18754 0.44183 0.29292 0.70703 0.29297h3c0.89064-3.5e-4 1.3366-1.077 0.70703-1.707l-5-5c-0.19132-0.19141-0.45205-0.29711-0.72266-0.29297zm14.031 0c-0.2706-0.0041-0.53133 0.10156-0.72266 0.29297l-5 5c-0.62956 0.63-0.18361 1.7067 0.70703 1.707h3c0.2652-5.1e-5 0.51952-0.10543 0.70703-0.29297l2-2c0.18754-0.18751 0.29292-0.44183 0.29297-0.70703v-3c1.3e-5 -0.54622-0.43822-0.9914-0.98438-1z" color="#000000" color-rendering="auto" dominant-baseline="auto" fill="#43ac8f" image-rendering="auto" opacity=".4" shape-rendering="auto" solid-color="#000000" style="font-feature-settings:normal;font-variant-alternates:normal;font-variant-caps:normal;font-variant-ligatures:normal;font-variant-numeric:normal;font-variant-position:normal;isolation:auto;mix-blend-mode:normal;shape-padding:0;text-decoration-color:#000000;text-decoration-line:none;text-decoration-style:solid;text-indent:0;text-orientation:mixed;text-transform:none;white-space:normal"/>
  <path id="path1061-7" d="m16.992 14.5c-0.27308 0.0043-0.49219 0.22689-0.49219 0.5v3c2.5e-5 0.1326 0.05272 0.25976 0.14648 0.35352l2 2c0.093756 0.093768 0.22092 0.14646 0.35352 0.14648h3c0.44532-1.74e-4 0.6683-0.53852 0.35352-0.85352l-5-5c-0.09566-0.09571-0.22603-0.14856-0.36133-0.14648zm13.992 0c-0.12716 0.0041-0.248 0.05645-0.33789 0.14648l-5 5c-0.31478 0.315-0.091803 0.85334 0.35352 0.85352h3c0.1326-2.5e-5 0.25976-0.05272 0.35352-0.14648l2-2c0.093768-0.093756 0.14646-0.22092 0.14648-0.35352v-3c1.09e-4 -0.28235-0.23341-0.50879-0.51562-0.5z" color="#000000" color-rendering="auto" dominant-baseline="auto" fill="#9ae6d1" image-rendering="auto" shape-rendering="auto" solid-color="#000000" style="font-feature-settings:normal;font-variant-alternates:normal;font-variant-caps:normal;font-variant-ligatures:normal;font-variant-numeric:normal;font-variant-position:normal;isolation:auto;mix-blend-mode:normal;shape-padding:0;text-decoration-color:#000000;text-decoration-line:none;text-decoration-style:solid;text-indent:0;text-orientation:mixed;text-transform:none;white-space:normal"/>
  <path id="path1061" d="m17 15 5 5h-3l-2-2z" fill="#fff"/>
  <path id="path1061-1" d="m31 15-5 5h3l2-2z" fill="#fff"/>
  <rect id="rect1135" x="14" y="24" width="20" height="1" fill-rule="evenodd" opacity=".25" style="paint-order:normal"/>
  <path id="path1055-4" d="m19 8-5 5v1l5-5h10l5 5v-1l-5-5z" fill="#eabc8a" opacity=".35"/>
 </g>
</svg>
