<?xml version="1.0" encoding="UTF-8"?>
<!-- Created with Inkscape (http://www.inkscape.org/) -->
<svg id="SVGRoot" width="48px" height="48px" version="1.1" viewBox="0 0 48 48" xml:space="preserve" xmlns="http://www.w3.org/2000/svg" xmlns:cc="http://creativecommons.org/ns#" xmlns:dc="http://purl.org/dc/elements/1.1/" xmlns:rdf="http://www.w3.org/1999/02/22-rdf-syntax-ns#"><defs><style>.cls-1{fill:none;stroke:#fff;stroke-linecap:round;stroke-linejoin:round;}</style><style>.cls-1{fill:none;stroke:#fff;stroke-linecap:round;stroke-linejoin:round;}</style><style>.cls-1{fill:none;stroke:#fff;stroke-linecap:round;stroke-linejoin:round;}</style><style>.cls-1{fill:none;stroke:#fff;stroke-linecap:round;stroke-linejoin:round;}</style></defs><metadata><rdf:RDF><cc:Work rdf:about=""><dc:format>image/svg+xml</dc:format><dc:type rdf:resource="http://purl.org/dc/dcmitype/StillImage"/></cc:Work></rdf:RDF></metadata><rect x="4" y="4" width="40" height="40" ry="8" fill="#4e4e4e" fill-rule="evenodd" style="paint-order:stroke fill markers"/><path d="m12 4c-4.432 0-8 3.568-8 8v24c0 4.432 3.568 8 8 8h24c4.432 0 8-3.568 8-8v-24c0-4.432-3.568-8-8-8zm0 1h24c3.878 0 7 3.122 7 7v24c0 3.878-3.122 7-7 7h-24c-3.878 0-7-3.122-7-7v-24c0-3.878 3.122-7 7-7z" fill-rule="evenodd" opacity=".4" style="paint-order:stroke fill markers"/><g stroke-linecap="round" stroke-linejoin="round" stroke-width="4.1764"><path d="m29.316 33.366-0.3962 2.1181 1.981 0.52325 5.3267-5.3267 1.6288-6.9555-1.8929-6.6473-1.2326-0.48424-0.08805 1.2766 1.8049 5.899-1.6728 6.1631-1.2766-0.66033z" fill="#f97263"/><path d="m10.167 23.77 2.6853-0.04402 1.5408 5.7669 4.1821 3.8739 5.4587 1.4967 5.2826-1.4967 1.5848 2.6413-7.2636 1.981 0.17609-1.5848-6.1631-1.6288-4.4462-4.5343-1.2766 0.44022z" fill="#729dec"/><path d="m24.034 16.418 3.8739 0.96848 0.92446-1.5408-4.7984-1.1886z" fill="#f97263"/><path d="m24.122 10.035-6.9995 1.8929-4.9745 5.1066 1.1886 0.66033 4.3142-4.4022 0.83642 1.3647 5.7229-1.3647 0.88044-1.8221z" fill="#729dec"/><path d="m30.725 12.06-6.6033-2.025 0.08805 3.2576 5.1946 1.4087z" fill="#f97263"/><path d="m27.6 30.857-0.22011 0.70435 1.0565 0.57229 3.4777-3.2576 1.4527-5.0625-1.2766-4.4902-1.5408 0.70435-2.5093-2.5093 1.5408-2.5973 3.7419 3.7419 2.6413-1.5848-5.2386-5.0185-3.6538 6.5153 2.2891 2.2891 0.83642 3.3457-0.88044 3.1256 1.3647 0.66033z" fill="#729dec"/><path d="m16.066 28.7 3.2136 3.4337 4.5783 1.1886 4.5783-1.1886-1.6728-2.6853-2.8614 0.74838v1.4527l-3.6979-0.70435 0.83642-1.4967-2.4652-2.4652-0.74838-3.1696 0.83642-2.8614 2.069-2.1571-1.5848-2.5093-3.2136 3.2136 1.3207 0.70435-1.0125 3.8739 1.0125 3.7859z" fill="#f97263"/></g></svg>
