<?xml version="1.0" encoding="UTF-8"?>
<!-- Created with Inkscape (http://www.inkscape.org/) -->
<svg id="SVGRoot" width="48px" height="48px" version="1.1" viewBox="0 0 48 48" xmlns="http://www.w3.org/2000/svg" xmlns:cc="http://creativecommons.org/ns#" xmlns:dc="http://purl.org/dc/elements/1.1/" xmlns:rdf="http://www.w3.org/1999/02/22-rdf-syntax-ns#">
 <defs id="defs815">
  <style id="style819">.cls-1{fill:none;stroke:#fff;stroke-linecap:round;stroke-linejoin:round;}</style>
 </defs>
 <metadata id="metadata818">
  <rdf:RDF>
   <cc:Work rdf:about="">
    <dc:format>image/svg+xml</dc:format>
    <dc:type rdf:resource="http://purl.org/dc/dcmitype/StillImage"/>
    <dc:title/>
   </cc:Work>
  </rdf:RDF>
 </metadata>
 <g id="layer1" fill-rule="evenodd">
  <rect id="rect1373-5" x="4" y="4" width="40" height="40" ry="8" fill="#4e4e4e" style="paint-order:stroke fill markers"/>
  <path id="rect817" d="m12 4c-4.432 0-8 3.568-8 8v24c0 4.432 3.568 8 8 8h24c4.432 0 8-3.568 8-8v-24c0-4.432-3.568-8-8-8h-24zm0 1h24c3.878 0 7 3.122 7 7v24c0 3.878-3.122 7-7 7h-24c-3.878 0-7-3.122-7-7v-24c0-3.878 3.122-7 7-7z" opacity=".3" style="paint-order:stroke fill markers"/>
  <path id="rect818" d="m16.574 9.9961c-0.93139-0.025621-1.7786 0.60254-1.998 1.5469l-2.7168 11.689 7.791 1.8105 1.1328-4.8711c0.09406-0.40471 0.41863-0.69359 0.80274-0.75977 0.12804-0.02206 0.26158-0.01963 0.39648 0.01172l5.8457 1.3594 8.7656 2.0371 1.3594-5.8438c0.25082-1.0792-0.41686-2.1496-1.4961-2.4004l-19.48-4.5293c-0.1349-0.03135-0.26929-0.047121-0.40234-0.050781zm11.775 12.961-1.1328 4.8711c-0.12541 0.53962-0.6596 0.87346-1.1992 0.74805l-2.9238-0.67969-2.9219-0.67969-8.7656-2.0371-1.3594 5.8438c-0.25082 1.0792 0.41686 2.1496 1.4961 2.4004l19.48 4.5293c1.0792 0.25082 2.1496-0.41686 2.4004-1.4961l2.7168-11.689z" fill="#fff" style="paint-order:normal"/>
 </g>
</svg>
