<?xml version="1.0" encoding="UTF-8"?>
<!-- Created with Inkscape (http://www.inkscape.org/) -->
<svg id="SVGRoot" width="48px" height="48px" version="1.1" viewBox="0 0 48 48" xmlns="http://www.w3.org/2000/svg" xmlns:cc="http://creativecommons.org/ns#" xmlns:dc="http://purl.org/dc/elements/1.1/" xmlns:rdf="http://www.w3.org/1999/02/22-rdf-syntax-ns#" xmlns:xlink="http://www.w3.org/1999/xlink">
 <defs id="defs815">
  <style id="style819">.cls-1{fill:none;stroke:#fff;stroke-linecap:round;stroke-linejoin:round;}</style>
  <style id="style819-2">.cls-1{fill:none;stroke:#fff;stroke-linecap:round;stroke-linejoin:round;}</style>
  <style id="style819-3">.cls-1{fill:none;stroke:#fff;stroke-linecap:round;stroke-linejoin:round;}</style>
  <style id="style819-36">.cls-1{fill:none;stroke:#fff;stroke-linecap:round;stroke-linejoin:round;}</style>
 </defs>
 <metadata id="metadata818">
  <rdf:RDF>
   <cc:Work rdf:about="">
    <dc:format>image/svg+xml</dc:format>
    <dc:type rdf:resource="http://purl.org/dc/dcmitype/StillImage"/>
    <dc:title/>
   </cc:Work>
  </rdf:RDF>
 </metadata>
 <g id="layer1">
  <rect id="rect1373" x="4" y="4" width="40" height="40" ry="8" fill="#46589d" fill-rule="evenodd" style="paint-order:stroke fill markers"/>
  <path id="path817" d="m23.93 4c-1.3124 0.023315-2.5299 0.68898-3.2578 1.7812l-16 24c-1.7714 2.6582 0.13378 6.2181 3.3281 6.2188h32c3.1943-6.85e-4 5.0995-3.5605 3.3281-6.2188l-16-24c-0.75558-1.1337-2.0362-1.8049-3.3984-1.7812z" color="#000000" color-rendering="auto" dominant-baseline="auto" fill="#729dec" image-rendering="auto" shape-rendering="auto" solid-color="#000000" style="font-feature-settings:normal;font-variant-alternates:normal;font-variant-caps:normal;font-variant-ligatures:normal;font-variant-numeric:normal;font-variant-position:normal;isolation:auto;mix-blend-mode:normal;shape-padding:0;text-decoration-color:#000000;text-decoration-line:none;text-decoration-style:solid;text-indent:0;text-orientation:mixed;text-transform:none;white-space:normal"/>
  <path id="path827" d="m34.722 7.4575c-0.31484 0.50452-0.49211 1.08-0.53182 1.7266-0.04278 0.64235 0.03472 1.3196 0.23252 2.0318 0.20774 0.75092 0.51031 1.5047 0.90772 2.2614 0.39911 0.75393 0.90316 1.5446 1.5121 2.3721 0.59361 0.80655 1.1402 1.4334 1.6399 1.8804 0.50136 0.44435 0.95286 0.72269 1.3545 0.83501 0.3235 0.09182 0.61412 0.08606 0.87186-0.0173 0.25773-0.10336 0.48021-0.30502 0.66741-0.605 0.36929-0.59178 0.46081-1.3896 0.27456-2.3936-0.18763-1.0108-0.63054-1.9906-1.3287-2.9392-0.40907-0.55581-0.79492-0.96668-1.1575-1.2326-0.36092-0.26866-0.71007-0.41045-1.0474-0.42538-0.29235-0.01422-0.52679 0.04268-0.70331 0.17072-0.17789 0.12113-0.34768 0.31123-0.50935 0.57031-0.1821 0.2918-0.30139 0.60593-0.3579 0.94239-0.05788 0.32955-0.07986 0.71543-0.06596 1.1576-0.66859-1.0143-1.1001-1.9759-1.2944-2.885-0.19739-0.91324-0.11314-1.663 0.25275-2.2494 0.10041-0.1609 0.21979-0.28846 0.35815-0.38267 0.13699-0.10112 0.25238-0.15852 0.34616-0.17219l0.02553-0.04091-0.88119-1.1973c-0.10976 0.057484-0.20636 0.13032-0.28982 0.21851-0.08345 0.088189-0.17538 0.21273-0.27579 0.37363zm2.8191 5.4555c0.10381-0.16636 0.21875-0.30499 0.34481-0.41592 0.12606-0.11093 0.27744-0.16225 0.45415-0.15397 0.24562 0.01625 0.48522 0.11501 0.71878 0.2963 0.23527 0.17856 0.49592 0.46216 0.78197 0.85081 0.51057 0.69372 0.8321 1.3397 0.96458 1.938 0.12941 0.5941 0.07074 1.0889-0.17603 1.4843-0.10721 0.17181-0.23753 0.28956-0.39094 0.35324-0.15478 0.05678-0.33898 0.05596-0.5526-0.0025-0.26002-0.06604-0.55805-0.24421-0.8941-0.53451-0.33742-0.2972-0.74912-0.77594-1.2351-1.4362-0.09535-0.12955-0.17293-0.23748-0.23274-0.32379-0.06289-0.09049-0.12646-0.18444-0.19072-0.28182 0.0019-0.38552 0.03415-0.71959 0.09687-1.0022 0.06272-0.28266 0.1664-0.53989 0.31106-0.7717zm2.694 7.7831 0.74278 1.0092 2.8754-4.6077-0.74278-1.0092z" fill="#fff"/>
  <path id="path823" d="m30 30h-10v-2h4v-12h-4v-2c2 0 3 0 4-2h2l0.09942 16h3.9006z" fill="#fff"/>
  <path id="path829" d="m20.064 39.594q0-0.34669 0.34931-0.66337 0.34931-0.31668 0.956-0.53336 0.66185-0.23335 1.5811-0.36002 0.91004-0.12334 2.1142-0.12334 1.1215 0 2.1602 0.08667 1.0387 0.08334 1.7557 0.20334v0.70337h-0.12869q-0.75377-0.17334-1.7649-0.29668-1.0112-0.12001-1.9855-0.12001-0.65266 0-1.2594 0.06667-0.61589 0.06667-1.0939 0.23335-0.40446 0.14334-0.60669 0.34335-0.21142 0.20001-0.21142 0.46336 0 0.25668 0.24819 0.43336 0.239 0.17668 0.67104 0.28335 0.478 0.12668 1.1674 0.17668 0.68023 0.05334 1.5259 0.05334 0.80893 0 1.5627-0.04 0.74458-0.04 1.2869-0.08v2.5568h-8.2363v-0.58337h6.4622v-1.3201q-0.39527 0.01333-0.80893 0.02-0.41365 0.0067-0.717 0.0067-1.1123 0-1.9488-0.07-0.8365-0.06667-1.5351-0.24001-0.73539-0.18334-1.1398-0.47336-0.40446-0.29002-0.40446-0.72671z" fill="#fff"/>
  <path id="path825" d="m10.665 16.634-1.0661-0.2495-2.5328 3.1739-0.92622-0.21676 2.5328-3.1739-3.4395-0.80495 1.3903-1.7422 8.5557-5.549 0.88762 0.20773-5.5008 6.8932 1.0661 0.2495zm-1.0252-1.6783 4.0621-5.0904-6.8456 4.439z" fill="#fff"/>
  <path id="rect817" d="m12 4c-4.432 0-8 3.568-8 8v24c0 4.432 3.568 8 8 8h24c4.432 0 8-3.568 8-8v-24c0-4.432-3.568-8-8-8h-24zm0 1h24c3.878 0 7 3.122 7 7v24c0 3.878-3.122 7-7 7h-24c-3.878 0-7-3.122-7-7v-24c0-3.878 3.122-7 7-7z" fill-rule="evenodd" opacity=".3" style="paint-order:stroke fill markers"/>
 </g>
</svg>
