<?xml version="1.0" encoding="UTF-8"?>
<!-- Created with Inkscape (http://www.inkscape.org/) -->
<svg id="SVGRoot" width="48px" height="48px" version="1.1" viewBox="0 0 48 48" xmlns="http://www.w3.org/2000/svg" xmlns:cc="http://creativecommons.org/ns#" xmlns:dc="http://purl.org/dc/elements/1.1/" xmlns:rdf="http://www.w3.org/1999/02/22-rdf-syntax-ns#">
 <defs id="defs815">
  <style id="style819">.cls-1{fill:none;stroke:#fff;stroke-linecap:round;stroke-linejoin:round;}</style>
  <style id="style2">.a{fill:none;stroke:#b1b5bd;stroke-linecap:round;stroke-linejoin:round;isolation:isolate;opacity:0.63;}</style>
 </defs>
 <metadata id="metadata818">
  <rdf:RDF>
   <cc:Work rdf:about="">
    <dc:format>image/svg+xml</dc:format>
    <dc:type rdf:resource="http://purl.org/dc/dcmitype/StillImage"/>
    <dc:title/>
   </cc:Work>
  </rdf:RDF>
 </metadata>
 <g id="layer1">
  <rect id="rect1373-5" x="4" y="4" width="40" height="40" ry="8" fill="#979797" fill-rule="evenodd" style="paint-order:stroke fill markers"/>
  <path id="path857" d="m22.148 6.0625c-5.2943 0.13744-7.5934 4.9996-9.9941 5.0566-2.2111 0.052574-4.2958-2.8684-6.0215-2.7871-0.86159 0.040601-1.52 0.6642-2.1328 1.4102v4.0625c0.54785-0.67764 1.1017-1.3154 1.8535-1.2363 2.5114 0.26408 3.5902 3.5754 5.1309 5.5762 1.7897 2.3241 4.7383 7.4141 4.7383 7.4141l-0.89258 1.0605s-4.2158-1.8283-6.3555-1.4492c-1.4182 0.25122-3.0491 0.9401-4.4746 1.7949v5.6055c0.14121 0.24814 0.30705 0.46201 0.51562 0.45898 0.43341-0.0063 0.63113-0.68352 0.66992-1.1152 0.08-0.89038-0.89258-2.2852-0.89258-2.2852-1e-7 0 3.3274-2.7916 5.2969-2.7324 1.6708 0.05024 4.4043 2.3984 4.4043 2.3984s-2.301 2.6409-3.959 7.4141c-0.54896 1.5804-0.11133 5.0176-0.11133 5.0176s0.58079 0.17398 0.076172 1.2734h2.8945c5e-4 -0.0014 0.01758-0.04297 0.01758-0.04297s0.01367-0.95703 0.08789 0.04297l7.0918 1c1.5757-0.76975 2.8374-1.5838 4.1602-1.3242 0.59945 0.11766 1.1924 0.67607 1.6992 1.3242h3.0898c-0.68122-1.0406-2.1402-3.0727-3.4512-3.5547-1.1423-0.41995-3.623 0.44531-3.623 0.44531s1.4105-2.6311 1.7285-4.0703c0.36104-1.6341 0.16602-5.0176 0.16602-5.0176s3.2369 2.2729 5.0742 2.1758c2.6587-0.14051 5.2105-2.9632 6.4668-3.791 0.84683-0.55802 2.3317-0.27081 3.4023-1.3945 0.90836-0.9534 1.1998-2.4187 0.16602-3.2344-1.2179-0.96091-2.7871 1.0605-2.7871 1.0605s0.11079-1.5597-0.44531-1.6172c-1.4137-0.14626-1.9531 3.791-1.9531 3.791s-3.7826 3.5066-5.4062 2.5078c-2.9344-1.8052-4.6751-2.3931-4.7402-3.6797-0.05424-1.0714 5.9781-3.8359 5.9102-10.201-0.046116-4.3174 0.011864-10.727-6.3008-11.318-0.38049-0.035652-0.74666-0.048225-1.0996-0.039062z" fill="#fff"/>
  <path id="path863" d="m17.717 17.438c0.32209-4.1507 3.2637-10.41 7.4115-10.053 3.3054 0.28491 4.1788 6.899 4.1788 6.899s1.1579 0.86313 2.7815 1.5755c0.88536 0.38844 2.0522 1.2648 1.7589 2.5489-0.22558 0.98779-1.1443 1.9453-2.6316 1.6329-1.0912-0.22923-2.855-0.27742-2.855-0.27742s-3.3968 6.5359-6.2682 6.0711c-3.1157-0.50436-4.6201-5.2502-4.3759-8.3971z" fill="#f6a559"/>
  <path id="path865" d="m22.053 21.144c0.36351-0.28904 0.81716 0.45638 1.2615 0.59134 0.75044 0.22791 1.2665 0.19213 2.05 0.15769 0.55404-0.02435 1.7144-0.72239 1.8923-0.19711 0.18541 0.54753-1.1767 1.4427-2.1683 1.5375-0.94204 0.09003-2.2125-0.2429-2.799-0.98557-0.23322-0.29532-0.53107-0.86964-0.23654-1.1038z" fill="#8b5628"/>
  <rect id="rect867" x="20.555" y="11.643" width="2.6019" height="2.799" rx="1.301" ry="1.301" fill="#4e4e4e" fill-rule="evenodd" style="paint-order:stroke fill markers"/>
  <rect id="rect869" x="27.651" y="11.683" width="1.9711" height="2.2471" rx=".98557" ry="1.1235" fill="#4e4e4e" fill-rule="evenodd" style="paint-order:stroke fill markers"/>
  <rect id="rect871" x="21.072" y="12.104" width=".94567" height=".94567" rx=".98557" ry=".94567" fill="#fff" fill-rule="evenodd" style="paint-order:stroke fill markers"/>
  <rect id="rect873" x="27.985" y="12.202" width=".78262" height=".78262" rx=".98557" ry=".78262" fill="#fff" fill-rule="evenodd" style="paint-order:stroke fill markers"/>
  <path id="path829" d="m17.451 30.168c-0.36083-0.0012-0.69696 0.12124-0.99023 0.4082-0.83714 0.81912-0.09629 2.2943 1.7363 3.0547 1.2618 0.52356 3.002 2.791 3.002 2.791l1.0527 2-1.5273 0.10547s-2.5564-2.8793-4.2109-3.791c-1.6449-0.90638-4.4538-3.1355-5.4238-1.5273-0.75021 1.2438 0.823 2.635 3 3.1602 0.91724 0.22126 1.9641 0.02025 2.791 0.47461 0.84952 0.46677 1.9492 2.1582 1.9492 2.1582s-3.5256 1.5135-5.3184 1.2109c-3.5627-0.60126-4.9508-4.4366-8.0566-5.1602-0.40215-0.093692-0.91539-0.097531-1.4551-0.058593v1.0059c0 4.432 3.568 8 8 8h13.252c-0.12468-0.33297-0.10352-0.57617-0.10352-0.57617s2.8065 0.61048 4.2129 0.47461c3.5528-0.34322 7.9342-0.46524 10.215-3.2109 2.9207-3.5163 1.4727-8.6367 1.4727-8.6367l-3.1582 0.21094s-1.0914 3.8041-6.2656 5.9492c-2.2264 0.92299-4.7359 2.2302-7.0566 1.5801-0.6335-0.17747-1.4219-1.3691-1.4219-1.3691s-0.14804-3.2375-1.0527-4.4746c-1.0495-1.4352-3.079-3.7739-4.6426-3.7793z" fill="#e5b871"/>
  <rect id="rect831" x="37.627" y="30.84" width="3.6332" height="3.6332" ry="1.8166" fill="#4e4e4e" fill-rule="evenodd" style="paint-order:stroke fill markers"/>
  <rect id="rect833" x="38.259" y="31.314" width=".84247" height=".84247" ry=".42124" fill="#fff" fill-rule="evenodd" opacity=".25" style="paint-order:stroke fill markers"/>
  <rect id="rect835" x="22.951" y="39.055" width="1.8255" height="1.8255" ry=".91274" fill="#4e4e4e" fill-rule="evenodd" style="paint-order:stroke fill markers"/>
  <rect id="rect837" x="23.187" y="39.467" width=".64775" height=".64775" ry=".32388" fill="#fff" fill-rule="evenodd" style="paint-order:stroke fill markers"/>
  <rect id="rect835-5" x="18.535" y="40.056" width="2.1788" height="2.1788" ry="1.0894" fill="#4e4e4e" fill-rule="evenodd" style="paint-order:stroke fill markers"/>
  <rect id="rect837-7" x="18.904" y="40.518" width=".77312" height=".77312" ry=".38656" fill="#fff" fill-rule="evenodd" style="paint-order:stroke fill markers"/>
  <path id="rect817" d="m12 4c-4.432 0-8 3.568-8 8v24c0 4.432 3.568 8 8 8h24c4.432 0 8-3.568 8-8v-24c0-4.432-3.568-8-8-8h-24zm0 1h24c3.878 0 7 3.122 7 7v24c0 3.878-3.122 7-7 7h-24c-3.878 0-7-3.122-7-7v-24c0-3.878 3.122-7 7-7z" fill-rule="evenodd" opacity=".3" style="paint-order:stroke fill markers"/>
 </g>
</svg>
