<?xml version="1.0" encoding="UTF-8"?>
<!-- Created with Inkscape (http://www.inkscape.org/) -->
<svg id="SVGRoot" width="48px" height="48px" version="1.1" viewBox="0 0 48 48" xmlns="http://www.w3.org/2000/svg" xmlns:cc="http://creativecommons.org/ns#" xmlns:dc="http://purl.org/dc/elements/1.1/" xmlns:rdf="http://www.w3.org/1999/02/22-rdf-syntax-ns#">
 <defs id="defs815">
  <style id="style819">.cls-1{fill:none;stroke:#fff;stroke-linecap:round;stroke-linejoin:round;}</style>
 </defs>
 <metadata id="metadata818">
  <rdf:RDF>
   <cc:Work rdf:about="">
    <dc:format>image/svg+xml</dc:format>
    <dc:type rdf:resource="http://purl.org/dc/dcmitype/StillImage"/>
    <dc:title/>
   </cc:Work>
  </rdf:RDF>
 </metadata>
 <g id="layer1">
  <rect id="rect1373-9" x="4" y="4" width="40" height="40" ry="8" fill="#cdaa7a" fill-rule="evenodd" style="paint-order:stroke fill markers"/>
  <path id="path847" d="m19 6 7 13-20-7v12l19-3-18.795 16.539c0.67725 2.5721 3.0044 4.4609 5.7949 4.4609h7.8184l7.1816-19 1.8574 19h7.1426c3.324 0 6-2.676 6-6l-13-14 13 1v-11l-13 7 3-13z" fill="#e7c788"/>
  <path id="path894" d="m6 21v15c0 3.324 2.676 6 6 6h16l-22-21z" fill="#6767c6"/>
  <path id="rect817" d="m12 4c-4.432 0-8 3.568-8 8v24c0 4.432 3.568 8 8 8h24c4.432 0 8-3.568 8-8v-24c0-4.432-3.568-8-8-8h-24zm0 1h24c3.878 0 7 3.122 7 7v24c0 3.878-3.122 7-7 7h-24c-3.878 0-7-3.122-7-7v-24c0-3.878 3.122-7 7-7z" fill-rule="evenodd" opacity=".3" style="paint-order:stroke fill markers"/>
  <path id="path828" d="m40 8-6 4-14 14s-2.2449-1.8042-3-3c-0.22241-0.35223-0.0852-0.92715-0.41797-1.1777-0.22145-0.16675-0.60857-0.21745-0.83008-0.05078-0.38217 0.28757-0.41311 0.93281-0.3125 1.4004 0.3819 1.7749 3.2676 4.3574 3.2676 4.3574l-4.5117 4.8223s-0.52127-0.7353-0.98633-0.4668c-0.46506 0.2685 0.10352 1.0898 0.10352 1.0898l-2.4659 2.6726s-1.0684-0.47852-2.0684 0.52148-1 2 0 3 2 1 3 0 0.52148-2.0684 0.52148-2.0684l2.7256-2.4129s0.7525 0.5844 1.0898 0.10352-0.4668-0.98633-0.4668-0.98633l4.8223-4.5117s2.5825 2.8857 4.3574 3.2676c0.46758 0.10061 1.1128 0.06967 1.4004-0.3125 0.16667-0.22151 0.11597-0.60863-0.05078-0.83008-0.25058-0.33277-0.82551-0.19556-1.1777-0.41797-1.1958-0.75506-3-3-3-3l14-14z" fill="#fff"/>
 </g>
</svg>
