<?xml version="1.0" encoding="UTF-8"?>
<!-- Created with Inkscape (http://www.inkscape.org/) -->
<svg id="SVGRoot" width="48px" height="48px" version="1.1" viewBox="0 0 48 48" xmlns="http://www.w3.org/2000/svg" xmlns:cc="http://creativecommons.org/ns#" xmlns:dc="http://purl.org/dc/elements/1.1/" xmlns:rdf="http://www.w3.org/1999/02/22-rdf-syntax-ns#">
 <defs id="defs815">
  <style id="style819">.cls-1{fill:none;stroke:#fff;stroke-linecap:round;stroke-linejoin:round;}</style>
  <style id="style2">.a{fill:none;stroke:#b1b5bd;stroke-linecap:round;stroke-linejoin:round;isolation:isolate;opacity:0.63;}</style>
  <style id="style819-1">.cls-1{fill:none;stroke:#fff;stroke-linecap:round;stroke-linejoin:round;}</style>
 </defs>
 <metadata id="metadata818">
  <rdf:RDF>
   <cc:Work rdf:about="">
    <dc:format>image/svg+xml</dc:format>
    <dc:type rdf:resource="http://purl.org/dc/dcmitype/StillImage"/>
    <dc:title/>
   </cc:Work>
  </rdf:RDF>
 </metadata>
 <g id="layer1">
  <rect id="rect1373-5" x="4" y="4" width="40" height="40" ry="8" fill="#4da6b3" fill-rule="evenodd" style="paint-order:stroke fill markers"/>
  <path id="rect817" d="m12 4c-4.432 0-8 3.568-8 8v24c0 4.432 3.568 8 8 8h24c4.432 0 8-3.568 8-8v-24c0-4.432-3.568-8-8-8h-24zm0 1h24c3.878 0 7 3.122 7 7v24c0 3.878-3.122 7-7 7h-24c-3.878 0-7-3.122-7-7v-24c0-3.878 3.122-7 7-7z" fill-rule="evenodd" opacity=".3" style="paint-order:stroke fill markers"/>
  <g id="g845" transform="matrix(.15884 0 0 .15884 8.9101 8.7375)" fill="#fff">
   <path id="path829" d="m32.29 83.968s-0.52362 32.864 0.38297 50.435c1.6923 32.799 32.219 50.51 65.462 49.594 23.931-0.65924 53.207-10.823 54.01-45.952 0.56828-24.854-27.895-36.5-48.406-36.425-21.564 0.0793-45.149 14.217-48.473 22.976-1.0976 2.8922 4.4378 7.4664 8.1256 4.4831 4.7465-3.8398 11.717-7.7951 16.989-8.9662 4.7299-1.0507 2.135 3.5681 2.135 3.5681s-2.2347 7.5824-2.3775 11.491c-0.47882 13.104 11.721 21.173 22.559 21.398 14.766 0.3062 25.236-12.465 24.963-23.577-0.12331-5.0128-2.8317-9.605-6.5382-9.1138-1.1187 0.14826-3.0478 1.8461-2.0371 3.17 0.36947 0.48396 0.62925 1.2206 0.39626 1.7831-0.91624 2.212-3.8196 3.3536-6.3992 3.0081-3.118-0.41762-5.1269-2.6655-4.697-5.7818 0.64101-4.6468 2.6242-8.1865 9.9643-8.1232 9.9492 0.0858 21.505 5.4724 21.596 20.605 0.14257 23.844-23.101 29.494-39.823 29.663-23.274 0.23582-50.299-8.0208-51.315-38.182-0.3165-9.402-0.67958-19.818-1.1888-29.719-0.90433-17.585-15.328-16.334-15.328-16.334z" stroke-width="1.1677"/>
   <path id="path831" d="m48.267 31.835c4.5287 20.685 8.8987 39.369 14.436 60.26 1.0334 3.8988 5.4481 8.8842 9.3119 7.7269 3.9025-1.1689 4.6849-5.8971 3.5663-11.689-3.7672-19.507-5.6728-37.657-10.275-56.892-1.6194-6.7679-5.7685-11.851-10.897-11.095-4.3546 0.64168-7.4024 5.9321-6.1419 11.689z"/>
   <path id="path833" d="m88.489 89.35c-4.1536-29.658-7.6735-46.715-8.4625-70.959-0.21784-6.6934 3.6457-10.004 7.925-10.104 4.4472-0.10395 8.2663 3.5919 8.7175 10.104 1.5811 22.817 3.7346 41.596 3.3112 67.194-0.10416 6.2969-1.0981 9.409-4.755 10.104-3.0292 0.57607-6.0084-1.1427-6.7363-6.34z"/>
   <path id="path835" d="m112.07 86.945c1.0496-17.795 2.2631-38.814 4.9542-59.809 0.69483-5.4206 4.7-7.6152 8.3213-7.1325 3.9582 0.52754 7.2744 4.2212 6.7363 9.9063-1.9633 20.742-5.6441 40.406-9.313 58.224-1.1633 5.6496-3.6359 8.561-7.1325 7.925-3.2096-0.58375-3.7584-5.8572-3.5663-9.1138z"/>
   <path id="path837" d="m136.38 95.944c3.7611-20.412 7.4064-33.162 11.859-49.531 1.277-4.6947 4.2126-6.805 7.3307-6.1419 3.0912 0.65742 5.2723 3.9842 4.1606 8.5194-4.0407 16.485-8.4657 30.62-14.237 48.937-1.348 4.2787-4.0203 6.8249-6.9344 5.9438-2.5616-0.77456-2.9179-3.719-2.1794-7.7269z"/>
  </g>
 </g>
</svg>
