<?xml version="1.0" encoding="UTF-8"?>
<!-- Created with Inkscape (http://www.inkscape.org/) -->
<svg id="SVGRoot" width="48px" height="48px" version="1.1" viewBox="0 0 48 48" xmlns="http://www.w3.org/2000/svg" xmlns:cc="http://creativecommons.org/ns#" xmlns:dc="http://purl.org/dc/elements/1.1/" xmlns:rdf="http://www.w3.org/1999/02/22-rdf-syntax-ns#">
 <defs id="defs815">
  <style id="style819">.cls-1{fill:none;stroke:#fff;stroke-linecap:round;stroke-linejoin:round;}</style>
 </defs>
 <metadata id="metadata818">
  <rdf:RDF>
   <cc:Work rdf:about="">
    <dc:format>image/svg+xml</dc:format>
    <dc:type rdf:resource="http://purl.org/dc/dcmitype/StillImage"/>
    <dc:title/>
   </cc:Work>
  </rdf:RDF>
 </metadata>
 <g id="layer1">
  <rect id="rect1373-5" x="4" y="4" width="40" height="40" ry="8" fill="#4e4e4e" fill-rule="evenodd" style="paint-order:stroke fill markers"/>
  <path id="rect817" d="m12 4c-4.432 0-8 3.568-8 8v24c0 4.432 3.568 8 8 8h24c4.432 0 8-3.568 8-8v-24c0-4.432-3.568-8-8-8h-24zm0 1h24c3.878 0 7 3.122 7 7v24c0 3.878-3.122 7-7 7h-24c-3.878 0-7-3.122-7-7v-24c0-3.878 3.122-7 7-7z" fill-rule="evenodd" opacity=".4" style="paint-order:stroke fill markers"/>
  <path id="path828" d="m24 10c-4.0139 0-8.1 2-8.1 8 0 4 0.28336 5.5917 5.1 8 4 2 4 3 4 4v2s0 1-1 1-1-1-1-1v-4h-7v4s0 6 8 6c4.0139 0 9-2 9-7 0-4.0689-1-6-7-10-1.8605-1.2403-3-2-3-3v-2s0-1 1-1 1 1 1 1v3h7v-3s1-6-8-6z" fill="#fff"/>
  <path id="path846" d="m15 13 4 1-4 1z" fill="#4e4e4e"/>
  <path id="path848" d="m21 16 12-3-6-1 6-1 1 4z" fill="#4e4e4e"/>
  <path id="path850" d="m15 31 15-1-15 3z" fill="#4e4e4e"/>
  <path id="path852" d="m28 32 6-1v1z" fill="#4e4e4e"/>
 </g>
</svg>
