<?xml version="1.0" encoding="UTF-8"?>
<!-- Created with Inkscape (http://www.inkscape.org/) -->
<svg id="SVGRoot" width="48px" height="48px" version="1.1" viewBox="0 0 48 48" xmlns="http://www.w3.org/2000/svg" xmlns:cc="http://creativecommons.org/ns#" xmlns:dc="http://purl.org/dc/elements/1.1/" xmlns:rdf="http://www.w3.org/1999/02/22-rdf-syntax-ns#" xmlns:xlink="http://www.w3.org/1999/xlink">
 <defs id="defs815">
  <style id="style819">.cls-1{fill:none;stroke:#fff;stroke-linecap:round;stroke-linejoin:round;}</style>
  <linearGradient id="linearGradient932" x1="67" x2="96" y1="10" y2="39" gradientTransform="translate(-58,-1)" gradientUnits="userSpaceOnUse">
   <stop id="stop1075" stop-color="#4e4e4e" offset="0"/>
   <stop id="stop1077" stop-color="#3c9188" offset="1"/>
  </linearGradient>
 </defs>
 <metadata id="metadata818">
  <rdf:RDF>
   <cc:Work rdf:about="">
    <dc:format>image/svg+xml</dc:format>
    <dc:type rdf:resource="http://purl.org/dc/dcmitype/StillImage"/>
    <dc:title/>
   </cc:Work>
  </rdf:RDF>
 </metadata>
 <g id="layer1">
  <rect id="rect1373" x="4" y="4" width="40" height="40" ry="8" fill="url(#linearGradient932)" fill-rule="evenodd" style="font-variant-east_asian:normal;paint-order:stroke fill markers"/>
  <path id="rect818" d="m11 18c-2.5013 0-4.8653 0.54776-7 1.5098v16.49c0 4.432 3.568 8 8 8h13.418c1.6275-2.6092 2.582-5.6857 2.582-9 0-9.418-7.582-17-17-17z" fill="#5e9380" fill-rule="evenodd" style="paint-order:stroke fill markers"/>
  <path id="path820" d="m18 20s17.7-14.4 20.7-10.4-16.581 26.332-16.581 26.332" fill="none" stroke="#df618d" stroke-linecap="round" stroke-linejoin="round" stroke-width="4"/>
  <path id="path929" d="m11 18c-2.4997 0-4.8668 0.53905-7 1.5v11.803c0.34117-0.10058 0.69174-0.19998 1-0.30273 3.1623-1.0541 4.7097-5.4661 8-6 3.1214-0.50654 5.8383 3.0585 9 3 1.2912-0.0239 2.8652-0.1 4.291-0.41406-2.747-5.6776-8.5384-9.5859-15.291-9.5859z" fill="#9ac27e"/>
  <path id="path927" d="m11 18c-2.5013 0-4.8653 0.54776-7 1.5098v4.623c3.1485-1.9571 8.9219-2.6442 8.9941-6.0078-0.6552-0.076057-1.3179-0.125-1.9941-0.125zm-7 11.975v6.0254c0 4.0518 2.9847 7.3726 6.8828 7.9141-2.0406-0.78963-3.7249-2.0342-3.8828-3.9141-0.1787-2.1269 4.938-1.8665 5-4 0.0927-3.1917-5.057-4.1325-8-6.0254zm22.689 9.5645c-2.3524-0.16552-4.8809 2.8384-7.5332 4.4609h6.252c0.83026-1.3326 1.4927-2.782 1.9316-4.3301-0.21494-0.07351-0.43239-0.11552-0.65039-0.13086z" fill="#dbe2c1"/>
  <path id="path843" d="m20.059 24.158-1.8027 5.8047-6.002-0.96289 2.8301 5.3789-4.9258 3.5625 5.8047 1.8027-0.68359 4.2559h3.0391l2.0605-1.084 0.7832 1.084h3.9727l0.60938-1.9629 6.002 0.96289-2.8301-5.3789 4.9258-3.5625-5.8047-1.8027 0.96289-6.002-5.3789 2.8301z" fill="#d35244"/>
  <path id="path841" d="m22 28-1.8125 3.625-3.8438-1.2812 1.2812 3.8438-3.625 1.8125 3.625 1.8125-1.2812 3.8438 3.8438-1.2812 1.8125 3.625 1.8125-3.625 3.8438 1.2812-1.2812-3.8438 3.625-1.8125-3.625-1.8125 1.2812-3.8438-3.8438 1.2812z" fill="#f97263"/>
  <rect id="rect839" x="18" y="32" width="8" height="8" ry="4" fill="#fcb6ae" fill-rule="evenodd" style="paint-order:stroke fill markers"/>
  <rect id="rect837" x="20" y="34" width="4" height="4" ry="2" fill="#fff" fill-rule="evenodd" style="paint-order:stroke fill markers"/>
  <path id="rect817" d="m12 4c-4.432 0-8 3.568-8 8v24c0 4.432 3.568 8 8 8h24c4.432 0 8-3.568 8-8v-24c0-4.432-3.568-8-8-8h-24zm0 1h24c3.878 0 7 3.122 7 7v24c0 3.878-3.122 7-7 7h-24c-3.878 0-7-3.122-7-7v-24c0-3.878 3.122-7 7-7z" fill-rule="evenodd" opacity=".3" style="paint-order:stroke fill markers"/>
 </g>
</svg>
