<?xml version="1.0" encoding="UTF-8"?>
<!-- Created with Inkscape (http://www.inkscape.org/) -->
<svg id="SVGRoot" width="48px" height="48px" version="1.1" viewBox="0 0 48 48" xmlns="http://www.w3.org/2000/svg" xmlns:cc="http://creativecommons.org/ns#" xmlns:dc="http://purl.org/dc/elements/1.1/" xmlns:rdf="http://www.w3.org/1999/02/22-rdf-syntax-ns#">
 <defs id="defs815">
  <style id="style819">.cls-1{fill:none;stroke:#fff;stroke-linecap:round;stroke-linejoin:round;}</style>
 </defs>
 <metadata id="metadata818">
  <rdf:RDF>
   <cc:Work rdf:about="">
    <dc:format>image/svg+xml</dc:format>
    <dc:type rdf:resource="http://purl.org/dc/dcmitype/StillImage"/>
    <dc:title/>
   </cc:Work>
  </rdf:RDF>
 </metadata>
 <g id="layer1">
  <rect id="rect1373" x="4" y="4" width="40" height="40" ry="8" fill="#d35244" fill-rule="evenodd" style="paint-order:stroke fill markers"/>
  <path id="rect817" d="m12 4c-4.432 0-8 3.568-8 8v24c0 4.432 3.568 8 8 8h24c4.432 0 8-3.568 8-8v-24c0-4.432-3.568-8-8-8h-24zm0 1h24c3.878 0 7 3.122 7 7v24c0 3.878-3.122 7-7 7h-24c-3.878 0-7-3.122-7-7v-24c0-3.878 3.122-7 7-7z" fill-rule="evenodd" opacity=".3" style="paint-order:stroke fill markers"/>
  <rect id="rect827" x="8" y="8" width="32" height="32" ry="5" fill="#ffcd4b" fill-rule="evenodd" style="paint-order:normal"/>
  <path id="rect817-6" d="m12 12v24h24v-24zm1 1h22v22h-22z" fill-rule="evenodd" opacity=".25" style="paint-order:stroke fill markers"/>
  <path id="rect822" d="m24 10c-7.756 0-14 6.244-14 14s6.244 14 14 14 14-6.244 14-14-6.244-14-14-14zm0 1c7.202 0 13 5.798 13 13s-5.798 13-13 13-13-5.798-13-13 5.798-13 13-13z" fill-rule="evenodd" opacity=".25" style="paint-order:stroke fill markers"/>
  <rect id="rect864" x="10" y="10" width="28" height="28" ry="3.1504" fill="#4e4e4e" fill-rule="evenodd" style="paint-order:stroke fill markers"/>
  <path id="path967" d="m13.15 10c-1.6228 0-2.9348 1.2194-3.1133 2.793l2.8359 2.5273 1.4668-3.1172 0.95508 0.29492 0.25586-0.80859 1.834 0.11133-1.0996-1.0645 0.023438-0.73633h-3.1582zm4.3047 0 0.77344 0.77344-1.3574-0.33008 1.3945 1.4297 1.3926-1.0273 0.47656 0.36719-1.1367 1.3203 1.7246-0.95312 0.023438-1.5801h-3.291zm14.15 0-2.4844 2.4238 1.5781 2.3477 4.8398 0.18359-2.6875-4.9551h-1.2461zm1.9922 0 2.5645 4.7344 1.8379-1.584c0-1.7453-1.4051-3.1504-3.1504-3.1504h-1.252zm-13.021 2.3145-1.9805 1.2461 1.209 0.80664-2.7129 1.4316-0.4043-0.80859-4.5117 2.5684 0.44141-1.4668-2.6172-2.4746v7.1074l2.0293-0.48828-0.84375-1.834 0.58789-0.18359 2.9336 1.1367 0.2207-0.88086h0.73242l6.0527 2.8984 1.7227-1.0645 1.0645-3.9609-1.5781-3.4844-2.3457-0.54883zm8.0684 1.2461-0.33008 5.209 5.8672 4.8047 1.6875-0.074219-4.0332-4.6582-2.5312 0.14648-0.29297-1.0273 2.6777-0.21875-3.0449-4.1816zm7.8477 2.6035 0.33203 6.6016 1.1758 0.054687v-5.0977l-1.5078-1.5586zm-5.207 6.3086-2.5684 0.074219 5.0254 3.8867 4.2578 1.084v-3.4902l-3.9277 0.68359-2.7871-2.2383z" fill="#a58858" opacity=".25"/>
  <path id="path870" d="m15.697 18.402s0.04918 0.99266 0.18359 1.4668c0.21298 0.7513 1.0273 1.2461 1.0273 1.2461l-0.88086-0.10938-1.4668-1.3203-3.2266-0.10938-1.334 0.67773v14.229c0.39618-0.26371 0.82949-0.55371 1.2305-0.82422 0 0-0.8935-5.9395 4.6934-7.9355-5.1229 2.4633-3.9414 8.1426-3.9414 8.1426 1.1833 1.8461 3.0761 2.8635 5.1465 3.3887 0 0-2.5292-2.3146-2.3848-5.7949 0.14488-3.4903 3.8867-5.3184 3.8867-5.3184s-2.9336 1.7676-2.9336 5.0977c0.15838 0.26168 0.6516 0.11326 0.91797-0.03711 0.65958-3.5975 3.3359-5.0605 3.3359-5.0605s-2.867 2.3612-2.5293 5.9785c0.33946 3.6361 2.0494 5.77 6.2715 5.8672 1.6138 0.037191 3.5566-0.99023 3.5566-0.99023l-1.002 1.0039h3.6309l-0.39473-3.0466s0.76862-1.5603 0.67697-4.509c-0.05447-1.7526-1.5166-3.3506-1.5166-3.3506l-0.47656-3.7773-5.4277-2.6777h-2.9355l-0.87891-2.0156zm9.7246 7.2441c0.38074 0 0.6875 0.30676 0.6875 0.6875v0.07813c0 0.38074-0.30676 0.6875-0.6875 0.6875s-0.6875-0.30676-0.6875-0.6875v-0.07813c0-0.38074 0.30676-0.6875 0.6875-0.6875zm-1.1797 0.41602s-0.21378 0.50434 0.10352 1.0879c0.25494 0.46887 0.93359 0.64844 0.93359 0.64844s-0.71395 0.3167-1.2188-0.36328c-0.46409-0.62514 0.18164-1.373 0.18164-1.373zm-8.8105 0.46484c-2.2104 2.5742-1.5566 6.0684-1.5566 6.0684l-1.3223 0.05078s-0.69487-3.848 2.8789-6.1191zm6.4961 0.33594c0.38074 0 0.6875 0.30676 0.6875 0.6875v0.07813c0 0.38074-0.30676 0.6875-0.6875 0.6875-0.38074 0-0.6875-0.30676-0.6875-0.6875v-0.07813c0-0.38074 0.30676-0.6875 0.6875-0.6875zm-1.1797 0.41602s-0.21378 0.50434 0.10352 1.0879c0.25494 0.46887 0.93359 0.64844 0.93359 0.64844s-0.71395 0.3167-1.2188-0.36328c-0.46409-0.62514 0.18164-1.373 0.18164-1.373zm7.3184 0.3125c0.38074 0 0.6875 0.30676 0.6875 0.6875v0.07813c0 0.38074-0.30676 0.6875-0.6875 0.6875-0.38074 0-0.6875-0.30676-0.6875-0.6875v-0.07813c0-0.38074 0.30676-0.6875 0.6875-0.6875zm-1.1797 0.41406s-0.21378 0.50629 0.10352 1.0898c0.25494 0.46887 0.93359 0.64844 0.93359 0.64844s-0.71395 0.3167-1.2188-0.36328c-0.46409-0.62514 0.18164-1.375 0.18164-1.375zm-2.4219 1.5273c0.67983 0.1105 1.2959 0.97694 1.4434 1.6621 0.1746 0.81137-0.13912 2.0666-0.93359 2.3066-0.79188 0.23925-1.8363-0.60093-2.0488-1.4004-0.2444-0.91918 0.30812-2.3976 1.2441-2.5664 0.09853-0.01777 0.1978-0.01769 0.29492-2e-3zm-1.9023 0.23438s-0.55455 1.3333-0.12891 2.6191c0.54406 1.6436 1.7637 1.791 1.7637 1.791s-1.4732 0.15384-2.1523-1.4785c-0.67189-1.615 0.51758-2.9316 0.51758-2.9316zm-2.6133 0.31445c0.38074 0 0.6875 0.30676 0.6875 0.6875v0.07617c0 0.38074-0.30676 0.6875-0.6875 0.6875-0.38074 0-0.6875-0.30676-0.6875-0.6875v-0.07617c0-0.38074 0.30676-0.6875 0.6875-0.6875zm-1.1797 0.41406s-0.21378 0.50629 0.10352 1.0898c0.25494 0.46887 0.93359 0.64844 0.93359 0.64844s-0.71395 0.3167-1.2188-0.36328c-0.46409-0.62514 0.18164-1.375 0.18164-1.375zm10.205 0.20703c0.38074 0 0.6875 0.30676 0.6875 0.6875v0.07813c0 0.38074-0.30676 0.6875-0.6875 0.6875-0.38074 0-0.6875-0.30676-0.6875-0.6875v-0.07813c0-0.38074 0.30676-0.6875 0.6875-0.6875zm-1.1797 0.41602s-0.21378 0.50629 0.10352 1.0898c0.25494 0.46887 0.93359 0.64648 0.93359 0.64648s-0.71395 0.31866-1.2188-0.36133c-0.46409-0.62514 0.18164-1.375 0.18164-1.375zm-6.834 2.5156c0.38074 0 0.6875 0.30676 0.6875 0.6875v0.07813c0 0.38074-0.30676 0.68555-0.6875 0.68555-0.38074 0-0.6875-0.30481-0.6875-0.68555v-0.07813c0-0.38074 0.30676-0.6875 0.6875-0.6875zm-1.1797 0.41406s-0.21378 0.50629 0.10352 1.0898c0.25494 0.46887 0.93359 0.64844 0.93359 0.64844s-0.71395 0.3167-1.2188-0.36328c-0.46409-0.62514 0.18164-1.375 0.18164-1.375zm7.4551 0.02734c0.38074 0 0.6875 0.30481 0.6875 0.68555v0.07813c0 0.38074-0.30676 0.6875-0.6875 0.6875-0.38074 0-0.6875-0.30676-0.6875-0.6875v-0.07813c0-0.38074 0.30676-0.68555 0.6875-0.68555zm-15.977 0.24414-0.4043 0.95313s1.2031 1.8957 4.4023 2.3477c-2.6328-1.2159-3.998-3.3008-3.998-3.3008zm14.797 0.16992s-0.21378 0.50629 0.10352 1.0898c0.25494 0.46887 0.93359 0.64844 0.93359 0.64844s-0.71395 0.3167-1.2188-0.36328c-0.46409-0.62514 0.18164-1.375 0.18164-1.375zm-1.8535 0.75195c0.38074 0 0.6875 0.30676 0.6875 0.6875v0.07812c0 0.38074-0.30676 0.6875-0.6875 0.6875s-0.6875-0.30676-0.6875-0.6875v-0.07812c0-0.38074 0.30676-0.6875 0.6875-0.6875zm-1.1797 0.41602s-0.21378 0.50434 0.10352 1.0879c0.25494 0.46887 0.93359 0.64844 0.93359 0.64844s-0.71395 0.3167-1.2188-0.36328c-0.46409-0.62514 0.18164-1.373 0.18164-1.373z" fill="#a58858"/>
  <path id="path866" d="m28 38 10-10 1 9-2 2z" fill="#ffcd4b"/>
  <path id="path868" d="m34.014 33.026v0.86987h2.8673v1.0563h-1.9984c-0.88145 0-0.82545 0.88541-0.82545 0.88541v2.1592h3.9245v-1.0563h-2.7805v-0.90094h1.8826s0.88337-0.03449 0.88337-0.94754v-1.1339c0-0.94075-0.87613-0.93977-0.87613-0.93977z" fill="#4e4e4e"/>
  <path id="path830" d="m22 12c-2 0-2 2-2 2v0.5h2v-0.5h5l2-2zm-2 3.5v0.5s0 2 2 2h6v0.5h2v-0.5h5l2-2h-15v-0.5zm8 4v0.5h-6l-2 2h15v0.5h2v-0.5s0-2-2-2h-5v-0.5zm7 4v0.5h-5l-2 2h7c2 0 2-2 2-2v-0.5z" fill="#ffcd4b"/>
 </g>
</svg>
