<?xml version="1.0" encoding="UTF-8"?>
<!-- Created with Inkscape (http://www.inkscape.org/) -->
<svg id="SVGRoot" width="48px" height="48px" version="1.1" viewBox="0 0 48 48" xmlns="http://www.w3.org/2000/svg" xmlns:cc="http://creativecommons.org/ns#" xmlns:dc="http://purl.org/dc/elements/1.1/" xmlns:rdf="http://www.w3.org/1999/02/22-rdf-syntax-ns#" xmlns:xlink="http://www.w3.org/1999/xlink">
 <defs id="defs815">
  <style id="style819">.cls-1{fill:none;stroke:#fff;stroke-linecap:round;stroke-linejoin:round;}</style>
  <style id="style2">.a{fill:none;stroke:#b1b5bd;stroke-linecap:round;stroke-linejoin:round;isolation:isolate;opacity:0.63;}</style>
  <style id="style819-5">.cls-1{fill:none;stroke:#fff;stroke-linecap:round;stroke-linejoin:round;}</style>
  <style id="style2-2">.a{fill:none;stroke:#b1b5bd;stroke-linecap:round;stroke-linejoin:round;isolation:isolate;opacity:0.63;}</style>
  <style id="style819-2">.cls-1{fill:none;stroke:#fff;stroke-linecap:round;stroke-linejoin:round;}</style>
  <style id="style819-9">.cls-1{fill:none;stroke:#fff;stroke-linecap:round;stroke-linejoin:round;}</style>
  <style id="style819-31">.cls-1{fill:none;stroke:#fff;stroke-linecap:round;stroke-linejoin:round;}</style>
  <style id="style819-3">.cls-1{fill:none;stroke:#fff;stroke-linecap:round;stroke-linejoin:round;}</style>
  <style id="style819-4">.cls-1{fill:none;stroke:#fff;stroke-linecap:round;stroke-linejoin:round;}</style>
  <style id="style819-3-47">.cls-1{fill:none;stroke:#fff;stroke-linecap:round;stroke-linejoin:round;}</style>
  <style id="style819-1">.cls-1{fill:none;stroke:#fff;stroke-linecap:round;stroke-linejoin:round;}</style>
  <style id="style2-1">.a{fill:none;stroke:#b1b5bd;stroke-linecap:round;stroke-linejoin:round;isolation:isolate;opacity:0.63;}</style>
  <style id="style819-12">.cls-1{fill:none;stroke:#fff;stroke-linecap:round;stroke-linejoin:round;}</style>
  <style id="style819-0">.cls-1{fill:none;stroke:#fff;stroke-linecap:round;stroke-linejoin:round;}</style>
  <style id="style819-3-4">.cls-1{fill:none;stroke:#fff;stroke-linecap:round;stroke-linejoin:round;}</style>
  <style id="style819-1-7">.cls-1{fill:none;stroke:#fff;stroke-linecap:round;stroke-linejoin:round;}</style>
  <style id="style2-3">.a{fill:none;stroke:#b1b5bd;stroke-linecap:round;stroke-linejoin:round;isolation:isolate;opacity:0.63;}</style>
  <style id="style819-12-9">.cls-1{fill:none;stroke:#fff;stroke-linecap:round;stroke-linejoin:round;}</style>
  <style id="style819-09">.cls-1{fill:none;stroke:#fff;stroke-linecap:round;stroke-linejoin:round;}</style>
  <style id="style819-5-9">.cls-1{fill:none;stroke:#fff;stroke-linecap:round;stroke-linejoin:round;}</style>
 </defs>
 <metadata id="metadata818">
  <rdf:RDF>
   <cc:Work rdf:about="">
    <dc:format>image/svg+xml</dc:format>
    <dc:type rdf:resource="http://purl.org/dc/dcmitype/StillImage"/>
    <dc:title/>
   </cc:Work>
  </rdf:RDF>
 </metadata>
 <g id="layer1">
  <rect id="rect1373-5" x="4" y="4" width="40" height="40" ry="8" fill="#4e4e4e" fill-rule="evenodd" style="paint-order:stroke fill markers"/>
  <path id="path856" d="m12.541 27.828s0.56793 6.9098 10.952 7.1196c10.384 0.20978 11.99-7.0541 11.99-7.0541" fill="none" stroke="#d95a4c" stroke-linecap="round" stroke-linejoin="round" stroke-width="3.2758"/>
  <path id="path856-0" d="m12.541 27.828s0.56793 6.9098 10.952 7.1196c10.384 0.20978 11.99-7.0541 11.99-7.0541" fill="none" stroke="#ffada4" stroke-linecap="round" stroke-linejoin="round" stroke-width="1.0919"/>
  <path id="path873" d="m27.264 36.97s-0.26456-1.5185-0.26201-2.1288c0.0029-0.70012 0.39301-2.7838 0.39301-2.7838s4.6917-4.0141 7.2051-3.9628c0.40912 0.0084 0.72396 0.49545 0.85152 0.88427 0.20598 0.62789 0.39301 3.0131 0.39301 3.0131l1.2445-0.98252s-0.9879-2.4205-1.0446-3.1441c-0.06522-0.83293 0.09479-2.489 0.09479-2.489l-9.5304 6.2226-5.3383 0.03275-6.5829-5.0436-0.88427-0.26201s0.65125 1.9087-0.16375 3.6681c-0.37315 0.80553-0.78601 2.8493-0.78601 2.8493l0.98252 1.5065s0.33041-2.9331 0.49126-3.6026c0.14392-0.59906 0.91702-1.6048 0.91702-1.6048l2.227 2.6855s0.04714 1.6445-0.03275 2.0633c-0.10345 0.54225-0.81876 2.4235-0.81876 2.4235l1.4738 0.16375s-0.28722-2.0053-0.1965-2.5545c0.03906-0.23647 0.21929-1.423 0.45851-1.4083 0.47358 0.02914 0.08323 1.2801 0.55676 1.31 0.30272 0.01914 0.37587-0.49417 0.45851-0.78602 0.15932-0.56266 3.5698 0.45851 3.5698 0.45851s0.26251 1.4527 0.262 1.834c-6.28e-4 0.47133-0.39301 1.703-0.39301 1.703l1.441-0.32751s-0.50838-1.1361-0.52401-1.6048c-0.01831-0.54913 0.58951-2.2598 0.58951-2.2598l1.4738-0.09825s0.52821 1.5783 0.58951 2.0633c0.0763 0.60361-0.36026 2.1288-0.36026 2.1288z" fill="#4e4e4e"/>
  <rect id="rect829" x="13.109" y="12.016" width="8.7355" height="12.011" rx="4.3678" ry="6.0057" fill="#d95a4c" fill-rule="evenodd" style="paint-order:stroke fill markers"/>
  <path id="path831" d="m13.607 20.497s0.87589 2.8247 2.0633 6.1899c0.32 0.90688 0.31638-1.6316 0.88427-2.2925 1.0756-1.252-0.56976 3.6197 0.62226 4.9126 1.0566 1.1461-0.28134-3.9373 0.49126-4.6506 0.58306-0.53831 0.60748 1.7296 1.179 1.179 1.8115-1.745 2.8166-6.2554 2.8166-6.2554z" fill="#d95a4c"/>
  <rect id="rect833" x="14.201" y="13.108" width="6.5517" height="9.8275" rx="4.3678" ry="6.0057" fill="#ffada4" fill-rule="evenodd" style="paint-order:stroke fill markers"/>
  <rect id="rect829-4" transform="scale(-1,1)" x="-34.948" y="12.016" width="8.7355" height="12.011" rx="4.3678" ry="6.0057" fill="#d95a4c" fill-rule="evenodd" style="paint-order:stroke fill markers"/>
  <path id="path831-4" d="m34.449 20.497s-0.87589 2.8247-2.0633 6.1899c-0.31999 0.90688-0.31638-1.6316-0.88427-2.2925-1.0756-1.252 0.56976 3.6197-0.62226 4.9126-1.0566 1.1461 0.28134-3.9373-0.49126-4.6506-0.58306-0.53831-0.60748 1.7296-1.179 1.179-1.8115-1.745-2.8166-6.2554-2.8166-6.2554z" fill="#d95a4c"/>
  <rect id="rect833-3" transform="scale(-1,1)" x="-33.856" y="13.108" width="6.5517" height="9.8275" rx="4.3678" ry="6.0057" fill="#ffada4" fill-rule="evenodd" style="paint-order:stroke fill markers"/>
  <path id="rect817" d="m12 4c-4.432 0-8 3.568-8 8v24c0 4.432 3.568 8 8 8h24c4.432 0 8-3.568 8-8v-24c0-4.432-3.568-8-8-8h-24zm0 1h24c3.878 0 7 3.122 7 7v24c0 3.878-3.122 7-7 7h-24c-3.878 0-7-3.122-7-7v-24c0-3.878 3.122-7 7-7z" fill-rule="evenodd" opacity=".4" style="paint-order:stroke fill markers"/>
 </g>
</svg>
