<?xml version="1.0" encoding="UTF-8"?>
<!-- Created with Inkscape (http://www.inkscape.org/) -->
<svg id="SVGRoot" width="48px" height="48px" version="1.1" viewBox="0 0 48 48" xml:space="preserve" xmlns="http://www.w3.org/2000/svg" xmlns:cc="http://creativecommons.org/ns#" xmlns:dc="http://purl.org/dc/elements/1.1/" xmlns:rdf="http://www.w3.org/1999/02/22-rdf-syntax-ns#"><defs><style>.cls-1{fill:none;stroke:#fff;stroke-linecap:round;stroke-linejoin:round;}</style><style>.cls-1{fill:none;stroke:#fff;stroke-linecap:round;stroke-linejoin:round;}</style><style>.cls-1{fill:none;stroke:#fff;stroke-linecap:round;stroke-linejoin:round;}</style><style>.cls-1{fill:none;stroke:#fff;stroke-linecap:round;stroke-linejoin:round;}</style><style>.cls-1{fill:none;stroke:#fff;stroke-linecap:round;stroke-linejoin:round;}</style><style>.a{fill:none;stroke:#b1b5bd;stroke-linecap:round;stroke-linejoin:round;isolation:isolate;opacity:0.63;}</style><style>.a{fill:none;stroke:#b1b5bd;stroke-linecap:round;stroke-linejoin:round;isolation:isolate;opacity:0.63;}</style><style>.cls-1{fill:none;stroke:#fff;stroke-linecap:round;stroke-linejoin:round;}</style></defs><metadata><rdf:RDF><cc:Work rdf:about=""><dc:format>image/svg+xml</dc:format><dc:type rdf:resource="http://purl.org/dc/dcmitype/StillImage"/></cc:Work></rdf:RDF></metadata><rect x="4" y="4" width="40" height="40" ry="8" fill="#efefef" fill-rule="evenodd" style="paint-order:stroke fill markers"/><path d="m12 42c-3.324 0-6-2.676-6-6v-13h36v13c0 3.324-2.676 6-6 6z" fill="#c9f0fc" style="paint-order:stroke fill markers"/><path d="m10 12c-0.65302 5.2242 2.2533 7.5955 3.6543 10l-7.6543 1c5 5 12 3 12 3l-2-4 1-2zm5 15-9 5c8 3 13-3 13-3z" fill="#c03e9a" style="paint-order:stroke fill markers"/><path d="m38 12c0.65302 5.2242-2.2533 7.5955-3.6543 10l7.6543 1c-5 5-12 3-12 3l2-4-1-2zm-5 15 9 4c-8 3-13-2-13-2z" fill="#c03e9a" style="paint-order:stroke fill markers"/><rect x="26" y="33" width="4" height="11" fill="#4e4e4e" style="paint-order:stroke fill markers"/><rect x="18" y="33" width="4" height="11" fill="#4e4e4e" style="paint-order:stroke fill markers"/><rect x="10" y="12" width="28" height="25" rx="13.979" ry="11.917" fill="#f694d5" stroke-linecap="round" stroke-linejoin="round" stroke-width="2.3333" style="paint-order:stroke fill markers"/><path d="m12 4c-4.432 0-8 3.568-8 8v24c0 4.432 3.568 8 8 8h24c4.432 0 8-3.568 8-8v-24c0-4.432-3.568-8-8-8zm0 1h24c3.878 0 7 3.122 7 7v24c0 3.878-3.122 7-7 7h-24c-3.878 0-7-3.122-7-7v-24c0-3.878 3.122-7 7-7z" fill-rule="evenodd" opacity=".3" style="paint-order:stroke fill markers"/><style type="text/css">.st0{fill:#FFFFFF;}</style><style type="text/css">.st0{fill:#FFFFFF;}</style><style type="text/css">.st0{fill:#FFFFFF;}</style><style type="text/css">.st0{fill:#FFFFFF;}</style><rect x="14" y="20" width="8" height="8" ry="4" fill="#fff" style="paint-order:stroke fill markers"/><rect x="26" y="20" width="8" height="8" ry="4" fill="#fff" style="paint-order:stroke fill markers"/><path d="m18 20c-2.216 0-4 1.784-4 4 0 0.10355 0.004065 0.20706 0.011719 0.30859 0.15613-1.2945 1.8758-2.3086 3.9883-2.3086s3.8322 1.0141 3.9883 2.3086c0.007654-0.10153 0.011719-0.20504 0.011719-0.30859 0-2.216-1.784-4-4-4zm-3.7734 5.334c0.54679 1.5566 2.0254 2.666 3.7734 2.666s3.2266-1.1094 3.7734-2.666c-0.54679 0.97286-2.0254 1.666-3.7734 1.666s-3.2266-0.69316-3.7734-1.666z" fill="#c03e9a" style="paint-order:stroke fill markers"/><path d="m30 20c-2.216 0-4 1.784-4 4 0 0.10355 0.0041 0.20706 0.01172 0.30859 0.15612-1.2945 1.8758-2.3086 3.9883-2.3086s3.8322 1.0141 3.9883 2.3086c0.007654-0.10153 0.011719-0.20504 0.011719-0.30859 0-2.216-1.784-4-4-4zm-3.7734 5.334c0.54679 1.5566 2.0254 2.666 3.7734 2.666s3.2266-1.1094 3.7734-2.666c-0.54679 0.97286-2.0254 1.666-3.7734 1.666s-3.2266-0.69316-3.7734-1.666z" fill="#c03e9a" style="paint-order:stroke fill markers"/><rect x="17" y="23" width="2" height="2" ry="1" fill="#4e4e4e" style="paint-order:stroke fill markers"/><rect x="29" y="23" width="2" height="2" ry="1" fill="#4e4e4e" style="paint-order:stroke fill markers"/></svg>
