<?xml version="1.0" encoding="UTF-8"?>
<!-- Created with Inkscape (http://www.inkscape.org/) -->
<svg id="SVGRoot" width="48px" height="48px" version="1.1" viewBox="0 0 48 48" xmlns="http://www.w3.org/2000/svg" xmlns:cc="http://creativecommons.org/ns#" xmlns:dc="http://purl.org/dc/elements/1.1/" xmlns:rdf="http://www.w3.org/1999/02/22-rdf-syntax-ns#" xmlns:xlink="http://www.w3.org/1999/xlink">
 <defs id="defs815">
  <style id="style819">.cls-1{fill:none;stroke:#fff;stroke-linecap:round;stroke-linejoin:round;}</style>
  <style id="style2">.a{fill:none;stroke:#b1b5bd;stroke-linecap:round;stroke-linejoin:round;isolation:isolate;opacity:0.63;}</style>
  <style id="style819-5">.cls-1{fill:none;stroke:#fff;stroke-linecap:round;stroke-linejoin:round;}</style>
  <style id="style819-2">.cls-1{fill:none;stroke:#fff;stroke-linecap:round;stroke-linejoin:round;}</style>
  <style id="style819-3">.cls-1{fill:none;stroke:#fff;stroke-linecap:round;stroke-linejoin:round;}</style>
  <style id="style819-36">.cls-1{fill:none;stroke:#fff;stroke-linecap:round;stroke-linejoin:round;}</style>
 </defs>
 <metadata id="metadata818">
  <rdf:RDF>
   <cc:Work rdf:about="">
    <dc:format>image/svg+xml</dc:format>
    <dc:type rdf:resource="http://purl.org/dc/dcmitype/StillImage"/>
    <dc:title/>
   </cc:Work>
  </rdf:RDF>
 </metadata>
 <g id="layer1">
  <rect id="rect1373-5" x="4" y="4" width="40" height="40" ry="8" fill="#bfea83" fill-rule="evenodd" style="paint-order:stroke fill markers"/>
  <path id="path846" d="m29 15 7 3-7 3z" fill="#f9b400" stroke="#f9b400" stroke-linecap="round" stroke-linejoin="round" stroke-width="2"/>
  <path id="path890" d="m28 26s2.1144 4 4 4h4v4h-5c-1.4142 0-3-3-3-3z" fill="#5a5a74"/>
  <rect id="rect896" x="18" y="39" width="4" height="5" fill="#5a5a74" fill-rule="evenodd" style="paint-order:stroke fill markers"/>
  <rect id="rect898" x="24" y="39" width="4" height="5" fill="#5a5a74" fill-rule="evenodd" style="paint-order:stroke fill markers"/>
  <path id="path886" d="m16 26-2 14h17l-3-15z" fill="#d35244"/>
  <rect id="rect819" x="12" y="8" width="20" height="20" ry="10" fill="#5a5a74" fill-rule="evenodd" style="paint-order:stroke fill markers"/>
  <rect id="rect821" x="20" y="12" width="10" height="10" ry="5" fill="#fff" fill-rule="evenodd" style="paint-order:stroke fill markers"/>
  <rect id="rect844" x="24" y="13" width="6" height="6" ry="3" fill="#5a5a74" fill-rule="evenodd" style="paint-order:stroke fill markers"/>
  <path id="path888" d="m17 25s-4 3-3 7c0.51766 2.0706 5 4 5 4s1 0 2-1 1-2 1-2-2.3675-1.7351-3-3c-1-2 2-4 2-4z" fill="#5a5a74"/>
  <rect id="rect892" x="34" y="25" width="2" height="19" fill="#8b5628" fill-rule="evenodd" style="paint-order:stroke fill markers"/>
  <rect id="rect894" x="33" y="29" width="4" height="6" ry="2" fill="#5a5a74" fill-rule="evenodd" style="paint-order:stroke fill markers"/>
  <rect id="rect972" x="34" y="24" width="2" height="3" ry="1" fill="#8b5628" fill-rule="evenodd" style="paint-order:stroke fill markers"/>
  <path id="rect817" d="m12 4c-4.432 0-8 3.568-8 8v24c0 4.432 3.568 8 8 8h24c4.432 0 8-3.568 8-8v-24c0-4.432-3.568-8-8-8h-24zm0 1h24c3.878 0 7 3.122 7 7v24c0 3.878-3.122 7-7 7h-24c-3.878 0-7-3.122-7-7v-24c0-3.878 3.122-7 7-7z" fill-rule="evenodd" opacity=".3" style="paint-order:stroke fill markers"/>
 </g>
</svg>
