<?xml version="1.0" encoding="UTF-8"?>
<!-- Created with Inkscape (http://www.inkscape.org/) -->
<svg id="SVGRoot" width="48px" height="48px" version="1.1" viewBox="0 0 48 48" xml:space="preserve" xmlns="http://www.w3.org/2000/svg" xmlns:cc="http://creativecommons.org/ns#" xmlns:dc="http://purl.org/dc/elements/1.1/" xmlns:rdf="http://www.w3.org/1999/02/22-rdf-syntax-ns#"><defs><style>.cls-1{fill:none;stroke:#fff;stroke-linecap:round;stroke-linejoin:round;}</style><style>.cls-1{fill:none;stroke:#fff;stroke-linecap:round;stroke-linejoin:round;}</style><style>.cls-1{fill:none;stroke:#fff;stroke-linecap:round;stroke-linejoin:round;}</style><style>.cls-1{fill:none;stroke:#fff;stroke-linecap:round;stroke-linejoin:round;}</style><style>.a{fill:none;stroke:#b1b5bd;stroke-linecap:round;stroke-linejoin:round;isolation:isolate;opacity:0.63;}</style><style>.cls-1{fill:none;stroke:#fff;stroke-linecap:round;stroke-linejoin:round;}</style><style>.cls-1{fill:none;stroke:#fff;stroke-linecap:round;stroke-linejoin:round;}</style><style>.cls-1{fill:none;stroke:#fff;stroke-linecap:round;stroke-linejoin:round;}</style></defs><metadata><rdf:RDF><cc:Work rdf:about=""><dc:format>image/svg+xml</dc:format><dc:type rdf:resource="http://purl.org/dc/dcmitype/StillImage"/></cc:Work></rdf:RDF></metadata><rect x="4" y="4" width="40" height="40" ry="8" fill="#4e98d1" fill-rule="evenodd" style="paint-order:stroke fill markers"/><path d="m12 4c-4.432 0-8 3.568-8 8v24c0 4.432 3.568 8 8 8h24c4.432 0 8-3.568 8-8v-24c0-4.432-3.568-8-8-8zm0 1h24c3.878 0 7 3.122 7 7v24c0 3.878-3.122 7-7 7h-24c-3.878 0-7-3.122-7-7v-24c0-3.878 3.122-7 7-7z" fill-rule="evenodd" opacity=".3" style="paint-order:stroke fill markers"/><g stroke-linecap="round" stroke-linejoin="round"><path d="m39 18c-1.666 0.046243-3.0462 1.334-3 3 0.033346 1.2014 1.9666 1.7986 2 3 0.046243 1.666-4 1.3333-4 3 0 2 1.3416 4.5528 0 5-9 3-10.109 8.0189-17 6-2.7518-0.80626 0-5-5-7-1.8826-0.75303-6 1-6 1v4c0 3.324 2.676 6 6 6h24c3.324 0 6-2.676 6-6v-16s-1.7986-2.0334-3-2z" fill="#fff" opacity=".4" stroke-width="2"/><path d="m11.962 16.378c0.15644-1.8949 0.39485-4.3292 2.0307-5.3305 0.95399-0.58396 1.6245-1.1767 3.1983-1.0153 1.7278 0.17716 2.0871 0.97008 2.8429 1.1676 0.97099 0.2538 2.7188-0.38973 4.0613-0.20307 2.3534 0.3272 4.3923 2.0065 6.752 2.2845 1.4683 0.17299 2.6709-0.50258 4.4167-0.40613 0.43011 0.02376 1.4304 0.55403 0.96456 2.1322-1.1846 4.0131-2.459 7.1836-3.6044 12.082-0.54436 2.3281-0.84051 4.7982-0.4569 7.1581 0.18914 1.1635-0.41484 2.8443-2.183 3.3506-2.833 0.81124-5.7615 0.75904-8.8334 0.35537-1.3656-0.17946-3.016-0.74533-3.046-2.7922-0.04343-2.9593 1.3291-5.8965 2.9445-8.3765 0.83635-1.284 2.4571-2.2453 3.3506-3.1475 0.55978-0.56525 1.1676-2.0814 1.1676-2.0814-3.3315-0.21908-5.8382-1.4722-5.8382-1.4722s-1.7284 2.4934-4.1121 2.6399c-0.93157 0.05725-1.9952-0.3461-2.5891-1.0661-1.1425-1.385-1.2138-3.4904-1.0661-5.2797z" fill="#4e4e4e" stroke-width="1.7028"/><path d="m23.472 35.856s-0.7841-4.6365 1.4718-8.8667c1.7108-3.2079 7-8.3641 7-8.3641s-2.5073 0.2497-3.7333 0.03589c-4.0477-0.70588-5.622-2.1343-6.3897-2.1179-1.448 0.03092-2.2615 3.1949-2.2615 3.1949l-2.1538 0.03589s0.39166-6.3421-0.64615-9.2256c1.3548-0.39472 2.4769 0.28718 2.4769 0.28718l0.50256 1.3282s2.5222-1.066 4.6667-0.75384c2.6774 0.38972 5.0242 2.2956 7.7179 2.5487 1.5043 0.14133 2.7282-1.1128 2.7282-1.1128s0.89008 0.54083 1.3641 1.2923c-0.31897 3.8829-2.3408 6.6871-3.7333 11.056-1.1195 3.5127-1.143 8.5569-1.2923 10.985-4.5082 0.66531-7.7179-0.32307-7.7179-0.32307z" fill="#f97263" stroke-width="1.7028"/><path d="m17.718 10.427c-0.29572-0.0084-0.61901 0.02387-0.95771 0.12255 1.0378 2.8835 0.64453 9.2253 0.64453 9.2253l2.156-0.03631s0.81239-3.1645 2.2604-3.1954c0.76774-0.0164 2.3431 1.4115 6.3908 2.1174 1.226 0.21381 3.7333-0.03404 3.7333-0.03404s-5.2905 5.155-7.0013 8.363c-2.2559 4.2301-1.4706 8.8668-1.4706 8.8668s3.2079 0.98757 7.7162 0.32226c0.14928-2.4277 0.17404-7.4715 1.2936-10.984 1.3926-4.3693 3.4143-7.1739 3.7333-11.057-0.47402-0.75148-1.3639-1.2913-1.3639-1.2913s-1.2236 1.2534-2.7279 1.112c-2.6937-0.25308-5.0411-2.1589-7.7184-2.5486-2.1445-0.31216-4.666 0.75346-4.666 0.75346l-0.50382-1.3276s-0.63112-0.38324-1.5183-0.4085zm0.42439 0.91686c0.045 5.67e-4 0.08627 0.0042 0.12255 0.01362 0.18765 0.04887 0.21286 0.07524 0.30411 0.11801l0.37446 0.98948a0.85148 0.85148 0 0 0 1.1279 0.48339s2.4352-0.95537 4.2121-0.69672c2.356 0.34294 4.7174 2.2694 7.7615 2.5554 1.3311 0.12506 2.2-0.40931 2.7687-0.85558 0.17261 0.13313 0.27301 0.22754 0.46524 0.43574-0.38689 3.4606-2.22 6.1922-3.6084 10.548-1.0989 3.4479-1.1666 7.8674-1.2868 10.412-3.3073 0.35568-5.4495-0.02918-6.0912-0.19744-0.099-0.77632-0.47377-4.241 1.4025-7.7593 0.77308-1.4496 2.504-3.5434 4.0215-5.2129 1.5175-1.6695 2.8209-2.9435 2.8209-2.9435a0.85148 0.85148 0 0 0-0.67857-1.457s-0.6038 0.06074-1.3594 0.09532-1.6814 0.03047-2.1424-0.04993c-1.9465-0.33945-3.2703-0.84319-4.2257-1.2686-0.4777-0.21272-0.86072-0.40672-1.2096-0.56282-0.3489-0.15611-0.65686-0.30943-1.1188-0.29957-0.67014 0.01431-1.1989 0.38346-1.5705 0.78296-0.37153 0.3995-0.63629 0.86312-0.85105 1.3072-0.27456 0.56776-0.31352 0.78794-0.41304 1.1143l-0.69445 0.01135c0.02675-0.55383 0.07405-1.2043 0.04993-2.6802-0.02642-1.6164-0.26424-3.3392-0.62183-4.8657 0.13982 0.0075 0.30526-0.01986 0.44028-0.01816z" fill="#fff" stop-color="#000000" stroke-width="1.162"/></g></svg>
