<?xml version="1.0" encoding="UTF-8"?>
<!-- Created with Inkscape (http://www.inkscape.org/) -->
<svg id="SVGRoot" width="48px" height="48px" version="1.1" viewBox="0 0 48 48" xml:space="preserve" xmlns="http://www.w3.org/2000/svg" xmlns:cc="http://creativecommons.org/ns#" xmlns:dc="http://purl.org/dc/elements/1.1/" xmlns:rdf="http://www.w3.org/1999/02/22-rdf-syntax-ns#"><defs><style>.cls-1{fill:none;stroke:#fff;stroke-linecap:round;stroke-linejoin:round;}</style><style>.cls-1{fill:none;stroke:#fff;stroke-linecap:round;stroke-linejoin:round;}</style><style>.cls-1{fill:none;stroke:#fff;stroke-linecap:round;stroke-linejoin:round;}</style><style>.cls-1{fill:none;stroke:#fff;stroke-linecap:round;stroke-linejoin:round;}</style><style>.cls-1{fill:none;stroke:#fff;stroke-linecap:round;stroke-linejoin:round;}</style></defs><metadata><rdf:RDF><cc:Work rdf:about=""><dc:format>image/svg+xml</dc:format><dc:type rdf:resource="http://purl.org/dc/dcmitype/StillImage"/></cc:Work></rdf:RDF></metadata><rect x="4" y="4" width="40" height="40" ry="8" fill="#4e4e4e" fill-rule="evenodd" style="paint-order:stroke fill markers"/><g stroke-linecap="round" stroke-linejoin="round"><path d="m25.141 9.8691-0.74023 3.8184-0.19727-3.0391-1.2461 3.6035s1.1044-0.28226 1.6367-0.25195c1.1644 0.06629 1.0527 1.5566 1.0527 1.5566s-0.19657-1.0968-1.3262-1.0898c-0.5298 0.0032-1.625 0.34961-1.625 0.34961l-0.63281 1.7324-0.070312-1.3047s-0.99228 0.48792-2.3867 2.2598c1.4857-2.3241 2.418-2.8047 2.418-2.8047s0.26039-1.456 0.42969-3.5059c-3.9723 5.0983-5.3789 9.2734-5.3789 9.2734l0.81836 0.85547s2.6908-4.3131 5.6875-4.2852c2.7519 0.02568 4.3511 4.6747 3.9336 8.9414-0.43767 4.4726-2.0625 5.9434-2.0625 5.9434s-4.7145-0.85765-7.0898-1.1699c-1.5672-0.20603-1.793-4.8711-1.793-4.8711l-0.81836-0.11328s-0.16685 2.8187-0.039062 5.4531c0.072129 1.4871 0.4668 4.4434 0.4668 4.4434l-0.70117-1.5215s-0.21152 1.934 0.1543 3.623c1.8897 1.7225 5.3418 2.9238 5.3418 2.9238s-0.26127 1.4925-0.54688 3.3105h3.7383c-0.61915-1.5636-1.127-2.6094-1.127-2.6094s2.684 1.2527 9.1152 0.34961c0.49878-2.3956 0.35156-5.1426 0.35156-5.1426l-1.5977 4.248s0.30464-3.6648 0.62305-6.3906c-0.74323-0.19158-0.93359-0.66211-0.93359-0.66211s1.2779 0.22223 1.7539-0.11914c0.46846-0.33596 0.71145-1.0235 0.66016-1.5977-0.13461-1.5069-2.8047-0.58398-2.8047-0.58398l1.207-0.69922s-1.1694-5.5048-1.4023-8.3008c-0.72603-8.7137-4.8691-12.623-4.8691-12.623zm-8.3086 11.305-0.51172 1.6953 0.73047 0.30469 0.48242-1.3105-0.70117-0.68945zm-0.68945 2.2871-0.35742 1.8203 0.74219 0.16406 0.38672-1.8457-0.77148-0.13867z" fill="#fff" stroke-width="1.3069" style="paint-order:stroke fill markers"/><path d="m21.37 25.365c0.08706-1.4002 0.65061-3.9327 1.5497-3.9131 1.0023 0.0219 1.0517 2.5257 0.92984 3.8356-0.11936 1.2835-0.61799 3.6351-1.5885 3.5256-0.87318-0.09849-0.96477-2.2633-0.8911-3.4482z" fill="#fff" stroke-width="1.2995" style="paint-order:stroke fill markers"/><path d="m23.192 34.26s0.13025-0.45535 1.13-0.29223c0.46455 0.0758 0.72084 0.74033 0.72084 0.74033l-0.58447-0.27275s0.82104 1.3591 2.8639 1.7144c1.2399 0.21569 2.708 0.01949 2.708 0.01949s-1.0847 0.75537-2.8639 0.48706c-2.3423-0.35324-3.2146-2.3379-3.2146-2.3379z" fill="#4e4e4e" stroke-width="1.3069" style="paint-order:stroke fill markers"/></g><path d="m12 4c-4.432 0-8 3.568-8 8v24c0 4.432 3.568 8 8 8h24c4.432 0 8-3.568 8-8v-24c0-4.432-3.568-8-8-8zm0 1h24c3.878 0 7 3.122 7 7v24c0 3.878-3.122 7-7 7h-24c-3.878 0-7-3.122-7-7v-24c0-3.878 3.122-7 7-7z" fill-rule="evenodd" opacity=".3" style="paint-order:stroke fill markers"/></svg>
