<?xml version="1.0" encoding="UTF-8"?>
<!-- Created with Inkscape (http://www.inkscape.org/) -->
<svg id="SVGRoot" width="48px" height="48px" version="1.1" viewBox="0 0 48 48" xml:space="preserve" xmlns="http://www.w3.org/2000/svg" xmlns:cc="http://creativecommons.org/ns#" xmlns:dc="http://purl.org/dc/elements/1.1/" xmlns:rdf="http://www.w3.org/1999/02/22-rdf-syntax-ns#"><defs><style>.cls-1{fill:none;stroke:#fff;stroke-linecap:round;stroke-linejoin:round;}</style><style>.cls-1{fill:none;stroke:#fff;stroke-linecap:round;stroke-linejoin:round;}</style><style>.cls-1{fill:none;stroke:#fff;stroke-linecap:round;stroke-linejoin:round;}</style><style>.cls-1{fill:none;stroke:#fff;stroke-linecap:round;stroke-linejoin:round;}</style><style>.a{fill:none;stroke:#b1b5bd;stroke-linecap:round;stroke-linejoin:round;isolation:isolate;opacity:0.63;}</style></defs><metadata><rdf:RDF><cc:Work rdf:about=""><dc:format>image/svg+xml</dc:format><dc:type rdf:resource="http://purl.org/dc/dcmitype/StillImage"/></cc:Work></rdf:RDF></metadata><rect x="4" y="4" width="40" height="40" ry="8" fill="#f0ecaf" fill-rule="evenodd" style="paint-order:stroke fill markers"/><path d="m12 4c-4.432 0-8 3.568-8 8v24c0 4.432 3.568 8 8 8h24c4.432 0 8-3.568 8-8v-24c0-4.432-3.568-8-8-8zm0 1h24c3.878 0 7 3.122 7 7v24c0 3.878-3.122 7-7 7h-24c-3.878 0-7-3.122-7-7v-24c0-3.878 3.122-7 7-7z" fill-rule="evenodd" opacity=".3" style="paint-order:stroke fill markers"/><path d="m23.391 11.207-13 10a1.0001 1.0001 0 0 0-0.31055 1.1875l6 14a1.0001 1.0001 0 0 0 0.91992 0.60547h14a1.0001 1.0001 0 0 0 0.91992-0.60547l6-14a1.0001 1.0001 0 0 0-0.31055-1.1875l-13-10a1.0001 1.0001 0 0 0-1.2188 0zm0.60938 2.0547 11.775 9.0586-5.4355 12.68h-12.68l-5.4336-12.682z" fill="#5993de" stop-color="#000000" stroke-linecap="round" stroke-linejoin="round" style="paint-order:stroke fill markers"/><path d="m24 16 9 7-4 10h-10l-4-10z" fill="#5993de" style="paint-order:stroke fill markers"/><path d="m23.711 16.225-3.1836 2.4746 0.64453 0.64453 2.8281-2.8281-0.28906-0.29102zm0.28906 0.29102 2.8281 2.8281 0.64453-0.64453-3.1836-2.4746-0.28906 0.29102zm2.8281 2.8281-2.8281 2.8281 2.8281 2.8281 2.8281-2.8281-2.8281-2.8281zm2.8281 2.8281 2.625 2.625 0.71875-1.7969-2.3477-1.8242-0.99609 0.99609zm-2.8281 2.8281-2.8281 2.8281 2.8281 2.8281 2.8281-2.8281-2.8281-2.8281zm2.8281 2.8281 1.0098 1.0098 1.3438-3.3633-2.3535 2.3535zm-2.8281 2.8281-2.3438 2.3438h4.5156l0.048828-0.12305-2.2207-2.2207zm-2.8281-2.8281-2.8281-2.8281-2.8281 2.8281 2.8281 2.8281 2.8281-2.8281zm-2.8281 2.8281-2.2207 2.2207 0.048828 0.12305h4.5156l-2.3438-2.3438zm-2.8281-2.8281-2.3535-2.3535 1.3438 3.3633 1.0098-1.0098zm2.8281-2.8281 2.8281-2.8281-2.8281-2.8281-2.8281 2.8281 2.8281 2.8281zm-2.8281-2.8281-0.99609-0.99609-2.3477 1.8242 0.71875 1.7969 2.625-2.625z" opacity=".3" style="paint-order:stroke fill markers"/></svg>
