<?xml version="1.0" encoding="UTF-8"?>
<!-- Created with Inkscape (http://www.inkscape.org/) -->
<svg id="SVGRoot" width="48px" height="48px" version="1.1" viewBox="0 0 48 48" xmlns="http://www.w3.org/2000/svg" xmlns:cc="http://creativecommons.org/ns#" xmlns:dc="http://purl.org/dc/elements/1.1/" xmlns:rdf="http://www.w3.org/1999/02/22-rdf-syntax-ns#" xmlns:xlink="http://www.w3.org/1999/xlink">
 <defs id="defs815">
  <style id="style819">.cls-1{fill:none;stroke:#fff;stroke-linecap:round;stroke-linejoin:round;}</style>
  <style id="style2">.a{fill:none;stroke:#b1b5bd;stroke-linecap:round;stroke-linejoin:round;isolation:isolate;opacity:0.63;}</style>
  <style id="style819-5">.cls-1{fill:none;stroke:#fff;stroke-linecap:round;stroke-linejoin:round;}</style>
  <style id="style819-2">.cls-1{fill:none;stroke:#fff;stroke-linecap:round;stroke-linejoin:round;}</style>
  <style id="style819-3">.cls-1{fill:none;stroke:#fff;stroke-linecap:round;stroke-linejoin:round;}</style>
  <style id="style819-36">.cls-1{fill:none;stroke:#fff;stroke-linecap:round;stroke-linejoin:round;}</style>
  <style id="style819-27">.cls-1{fill:none;stroke:#fff;stroke-linecap:round;stroke-linejoin:round;}</style>
 </defs>
 <metadata id="metadata818">
  <rdf:RDF>
   <cc:Work rdf:about="">
    <dc:format>image/svg+xml</dc:format>
    <dc:type rdf:resource="http://purl.org/dc/dcmitype/StillImage"/>
    <dc:title/>
   </cc:Work>
  </rdf:RDF>
 </metadata>
 <g id="layer1">
  <rect id="rect1373-5" x="4" y="4" width="40" height="40" ry="8" fill="#f68d59" fill-rule="evenodd" style="paint-order:stroke fill markers"/>
  <path id="rect817" d="m12 4c-4.432 0-8 3.568-8 8v24c0 4.432 3.568 8 8 8h24c4.432 0 8-3.568 8-8v-24c0-4.432-3.568-8-8-8h-24zm0 1h24c3.878 0 7 3.122 7 7v24c0 3.878-3.122 7-7 7h-24c-3.878 0-7-3.122-7-7v-24c0-3.878 3.122-7 7-7z" fill-rule="evenodd" opacity=".3" style="paint-order:stroke fill markers"/>
  <path id="path883" d="m12 6c-3.324 0-6 2.676-6 6v5.957c3.0596-1.4626 9.489-3.957 18-3.957s14.94 2.4945 18 3.957v-5.957c0-3.324-2.676-6-6-6h-24z" fill="#4e4e4e"/>
  <rect id="rect828" x="10" y="20" width="8" height="8" ry="4" fill="#fff" fill-rule="evenodd" style="paint-order:normal"/>
  <rect id="rect828-3" x="30" y="20" width="8" height="8" ry="4" fill="#fff" fill-rule="evenodd" style="paint-order:normal"/>
  <rect id="rect845" x="13" y="23" width="2" height="2" ry="1" fill="#4e4e4e" fill-rule="evenodd" style="paint-order:normal"/>
  <rect id="rect847" x="33" y="23" width="2" height="2" ry="1" fill="#4e4e4e" fill-rule="evenodd" style="paint-order:normal"/>
  <rect id="rect851" x="8" y="26" width="10" height="3" rx="5" ry="1.5" fill="#f68d59" fill-rule="evenodd" style="paint-order:normal"/>
  <rect id="rect851-8" x="30" y="26" width="10" height="3" rx="5" ry="1.5" fill="#f68d59" fill-rule="evenodd" style="paint-order:normal"/>
  <path id="path849" d="m12 32s4 3 12 3 12-3 12-3" fill="none" stroke="#ffdd75" stroke-linecap="round" stroke-linejoin="round" stroke-width="6"/>
  <path id="path849-2" d="m12 32s4 3 12 3 12-3 12-3" fill="none" stroke="#4e4e4e" stroke-linecap="round" stroke-linejoin="round" stroke-width="2"/>
 </g>
</svg>
