<?xml version="1.0" encoding="UTF-8"?>
<!-- Created with Inkscape (http://www.inkscape.org/) -->
<svg id="SVGRoot" width="48px" height="48px" version="1.1" viewBox="0 0 48 48" xml:space="preserve" xmlns="http://www.w3.org/2000/svg" xmlns:cc="http://creativecommons.org/ns#" xmlns:dc="http://purl.org/dc/elements/1.1/" xmlns:rdf="http://www.w3.org/1999/02/22-rdf-syntax-ns#"><defs><style>.cls-1{fill:none;stroke:#fff;stroke-linecap:round;stroke-linejoin:round;}</style><style>.cls-1{fill:none;stroke:#fff;stroke-linecap:round;stroke-linejoin:round;}</style><style>.cls-1{fill:none;stroke:#fff;stroke-linecap:round;stroke-linejoin:round;}</style><style>.cls-1{fill:none;stroke:#fff;stroke-linecap:round;stroke-linejoin:round;}</style><style>.a{fill:none;stroke:#b1b5bd;stroke-linecap:round;stroke-linejoin:round;isolation:isolate;opacity:0.63;}</style><style>.cls-1{fill:none;stroke:#fff;stroke-linecap:round;stroke-linejoin:round;}</style></defs><metadata><rdf:RDF><cc:Work rdf:about=""><dc:format>image/svg+xml</dc:format><dc:type rdf:resource="http://purl.org/dc/dcmitype/StillImage"/></cc:Work></rdf:RDF></metadata><rect x="4" y="4" width="40" height="40" ry="8" fill="#4e4e4e" fill-rule="evenodd" style="paint-order:stroke fill markers"/><path d="m24 10c-2.6833 0-4.7034 0.76049-6.1152 1.9551-1.4118 1.1946-2.1875 2.7702-2.5996 4.2812-0.38251 1.4025-0.4304 2.7337-0.41211 3.8105l-1.3184-0.87891a1.0001 1.0001 0 0 0-1.5547 0.83203v3a1 1 0 0 0 1 1 1 1 0 0 0 1-1v-1.1309l1.4453 0.96289a1.0001 1.0001 0 0 0 1.5391-1.0117s-0.44532-2.5788 0.23047-5.0566c0.33789-1.2389 0.93718-2.4133 1.9629-3.2812 1.0257-0.86791 2.5056-1.4824 4.8223-1.4824s3.7966 0.61451 4.8223 1.4824c1.0257 0.86791 1.625 2.0423 1.9629 3.2812 0.67579 2.4779 0.23047 5.0566 0.23047 5.0566a1.0001 1.0001 0 0 0 1.625 0.94727l1.3594-1.1367v1.3691a1 1 0 0 0 1 1 1 1 0 0 0 1-1v-3.5098a1.0001 1.0001 0 0 0-1.6406-0.76562l-1.2617 1.0547c0.0026-1.0396-0.02717-2.2389-0.38281-3.543-0.41211-1.5111-1.1878-3.0867-2.5996-4.2812-1.4118-1.1946-3.4319-1.9551-6.1152-1.9551zm-3 6a1.0001 1.0001 0 0 0-0.44727 0.10547l-2 1a1 1 0 0 0-0.44726 1.3418 1 1 0 0 0 1.3418 0.44726l1.7891-0.89453h1.7637a1 1 0 0 0 1-1 1 1 0 0 0-1-1h-2zm7.9297 1.502a1 1 0 0 0-0.37695 0.10352l-2.9648 1.4824a1 1 0 0 0-0.58789-0.58789 1 1 0 0 0-1 1v1a1.0001 1.0001 0 0 0 1.4473 0.89453l4-2a1 1 0 0 0 0.44726-1.3418 1 1 0 0 0-0.57812-0.50195 1 1 0 0 0-0.38672-0.048828zm-7.9297 1.998a1 1 0 0 0-1 1v3a1 1 0 0 0 1 1 1 1 0 0 0 1-1v-3a1 1 0 0 0-1-1zm6.9395 2.002a1 1 0 0 0-0.25586 0.048828l-3 1a1 1 0 0 0-0.63281 1.2656 1 1 0 0 0 1.2656 0.63281l3-1a1 1 0 0 0 0.63281-1.2656 1 1 0 0 0-1.0098-0.68164zm-17.951 2.498a1.0001 1.0001 0 0 0-0.63867 0.24023l-5.3496 4.5859v3.791l6 3v8.1328c0.63882 0.16326 1.3089 0.25 2 0.25v-9a1.0001 1.0001 0 0 0-0.55273-0.89453l-6.6523-3.3262 5.3828-4.6152 12.822 5.4961v9.3398a1 1 0 0 0 1 1 1 1 0 0 0 1-1v-10a1.0001 1.0001 0 0 0-0.60547-0.91992l-14-6a1.0001 1.0001 0 0 0-0.40625-0.080078zm28.031 0a1.0001 1.0001 0 0 0-0.4043 0.076172l-12 5a1 1 0 0 0-0.53906 1.3086 1 1 0 0 0 1.3086 0.53906l11.432-4.7637 5.3887 4.6191-6.6523 3.3262a1.0001 1.0001 0 0 0-0.55273 0.89453v9c0.69109 0 1.3612-0.086741 2-0.25v-8.1328l6-3v-3.791l-5.3496-4.5859a1.0001 1.0001 0 0 0-0.63086-0.24023z" fill="#0ABBFB" stop-color="#000000" stroke-linecap="round" stroke-linejoin="round"/><path d="m24 10.5c-2.5917 0-4.4757 0.72497-5.791 1.8379-1.3153 1.1129-2.0479 2.5882-2.4414 4.0312-0.54691 2.0053-0.46585 3.6127-0.36133 4.6348l-2.1289-1.4199a0.50005 0.50005 0 0 0-0.77734 0.41602v3a0.5 0.5 0 0 0 0.5 0.5 0.5 0.5 0 0 0 0.5-0.5v-2.0664l2.2227 1.4824a0.50005 0.50005 0 0 0 0.76953-0.50586s-0.47266-2.6654 0.24023-5.2793c0.35645-1.307 0.99886-2.5817 2.1211-3.5312 1.1222-0.94958 2.7382-1.5996 5.1465-1.5996s4.0243 0.65003 5.1465 1.5996c1.1222 0.94958 1.7646 2.2243 2.1211 3.5312 0.71289 2.6139 0.24023 5.2793 0.24023 5.2793a0.50005 0.50005 0 0 0 0.8125 0.47266l2.1797-1.8223v2.4395a0.5 0.5 0 0 0 0.5 0.5 0.5 0.5 0 0 0 0.5-0.5v-3.5098a0.50005 0.50005 0 0 0-0.82031-0.38281l-2.0703 1.7324c0.09297-1.0692 0.13366-2.5985-0.37695-4.4707-0.39355-1.443-1.1261-2.9183-2.4414-4.0312-1.3153-1.1129-3.1993-1.8379-5.791-1.8379zm-3 6a0.50005 0.50005 0 0 0-0.22266 0.052734l-2 1a0.5 0.5 0 0 0-0.22461 0.66992 0.5 0.5 0 0 0 0.66992 0.22461l1.8945-0.94727h1.8828a0.5 0.5 0 0 0 0.5-0.5 0.5 0.5 0 0 0-0.5-0.5h-2zm7.9648 1.502a0.5 0.5 0 0 0-0.1875 0.050781l-3.2773 1.6387v-0.19141a0.5 0.5 0 0 0-0.5-0.5 0.5 0.5 0 0 0-0.5 0.5v1a0.50005 0.50005 0 0 0 0.72266 0.44727l4-2a0.5 0.5 0 0 0 0.22461-0.66992 0.5 0.5 0 0 0-0.48242-0.27539zm-7.9648 1.998a0.5 0.5 0 0 0-0.5 0.5v3a0.5 0.5 0 0 0 0.5 0.5 0.5 0.5 0 0 0 0.5-0.5v-3a0.5 0.5 0 0 0-0.5-0.5zm6.9707 2a0.5 0.5 0 0 0-0.12891 0.025391l-3 1a0.5 0.5 0 0 0-0.31641 0.63281 0.5 0.5 0 0 0 0.63281 0.31641l3-1a0.5 0.5 0 0 0 0.31641-0.63281 0.5 0.5 0 0 0-0.50391-0.3418zm-17.977 2.5a0.50005 0.50005 0 0 0-0.32031 0.12109l-5.6738 4.8633v1.3184l6.0898-5.2207 13.41 5.748v9.6699a0.5 0.5 0 0 0 0.5 0.5 0.5 0.5 0 0 0 0.5-0.5v-10a0.50005 0.50005 0 0 0-0.30273-0.45898l-14-6a0.50005 0.50005 0 0 0-0.20313-0.041016zm28.016 0a0.50005 0.50005 0 0 0-0.20117 0.039062l-12 5a0.5 0.5 0 0 0-0.26953 0.65234 0.5 0.5 0 0 0 0.65234 0.26953l11.717-4.8809 6.0918 5.2227v-1.3184l-5.6738-4.8633a0.50005 0.50005 0 0 0-0.31641-0.12109zm-34.01 6.4414v1.1172l6.5 3.25v8.5527c0.32663 0.061477 0.66038 0.1023 1 0.12305v-8.9844a0.50005 0.50005 0 0 0-0.27734-0.44727l-7.2227-3.6113zm40 0-7.2227 3.6113a0.50005 0.50005 0 0 0-0.27734 0.44727v8.9844c0.33962-0.02075 0.67337-0.06157 1-0.12305v-8.5527l6.5-3.25v-1.1172z" fill="#fff" stop-color="#000000" stroke-linecap="round" stroke-linejoin="round"/><path d="m12 4c-4.432 0-8 3.568-8 8v24c0 4.432 3.568 8 8 8h24c4.432 0 8-3.568 8-8v-24c0-4.432-3.568-8-8-8zm0 1h24c3.878 0 7 3.122 7 7v24c0 3.878-3.122 7-7 7h-24c-3.878 0-7-3.122-7-7v-24c0-3.878 3.122-7 7-7z" fill-rule="evenodd" opacity=".4" style="paint-order:stroke fill markers"/></svg>
