<?xml version="1.0" encoding="UTF-8"?>
<!-- Created with Inkscape (http://www.inkscape.org/) -->
<svg id="SVGRoot" width="48px" height="48px" version="1.1" viewBox="0 0 48 48" xmlns="http://www.w3.org/2000/svg" xmlns:cc="http://creativecommons.org/ns#" xmlns:dc="http://purl.org/dc/elements/1.1/" xmlns:rdf="http://www.w3.org/1999/02/22-rdf-syntax-ns#">
 <defs id="defs815">
  <style id="style819">.cls-1{fill:none;stroke:#fff;stroke-linecap:round;stroke-linejoin:round;}</style>
 </defs>
 <metadata id="metadata818">
  <rdf:RDF>
   <cc:Work rdf:about="">
    <dc:format>image/svg+xml</dc:format>
    <dc:type rdf:resource="http://purl.org/dc/dcmitype/StillImage"/>
    <dc:title/>
   </cc:Work>
  </rdf:RDF>
 </metadata>
 <g id="layer1">
  <rect id="rect1373" x="4" y="4" width="40" height="40" ry="8" fill="#8e58b5" fill-rule="evenodd" style="paint-order:stroke fill markers"/>
  <path id="rect817" d="m12 4c-4.432 0-8 3.568-8 8v24c0 4.432 3.568 8 8 8h24c4.432 0 8-3.568 8-8v-24c0-4.432-3.568-8-8-8h-24zm0 1h24c3.878 0 7 3.122 7 7v24c0 3.878-3.122 7-7 7h-24c-3.878 0-7-3.122-7-7v-24c0-3.878 3.122-7 7-7z" fill-rule="evenodd" opacity=".3" style="paint-order:stroke fill markers"/>
  <path id="path905" d="m25.023 24.986a1.0001 1.0001 0 0 0-0.93164 0.59375l-2.9062 6.2969-5.3145 0.61914 3.0234-6.0488a1.0001 1.0001 0 0 0-0.93945-1.459 1.0001 1.0001 0 0 0-0.84961 0.56445l-3.6094 7.2188-7.4961 0.87305v2.0137l6.4258-0.74609-3.2031 6.4062c0.59148 0.30824 1.2416 0.5185 1.9297 0.61524l3.6484-7.2969 5.4023-0.62891-3.6895 7.9922h2.2051l3.8125-8.2637 19.469-2.2637v-2.0156l-18.486 2.1504 2.3945-5.1875a1.0001 1.0001 0 0 0-0.88476-1.4336z" color="#000000" color-rendering="auto" dominant-baseline="auto" fill="#f280a3" image-rendering="auto" shape-rendering="auto" solid-color="#000000" style="font-feature-settings:normal;font-variant-alternates:normal;font-variant-caps:normal;font-variant-ligatures:normal;font-variant-numeric:normal;font-variant-position:normal;isolation:auto;mix-blend-mode:normal;shape-padding:0;text-decoration-color:#000000;text-decoration-line:none;text-decoration-style:solid;text-indent:0;text-orientation:mixed;text-transform:none;white-space:normal"/>
  <path id="path819-9" d="m12 33 8.9777-18.996h11.678c3.8331 0 1.829 4.3274 1.829 4.3274l-1.7737 3.2456-6.2012 3.2456 2.4984-4.7407s0.44794-1.0819-0.45725-1.0819h-5.2868l-4.2639 10z" fill="#fff"/>
  <path id="path821-0" d="m19 32 18.392-10.819-6.4911 6.4911-1.0819 4.3274z" fill="#fff"/>
 </g>
</svg>
