<?xml version="1.0" encoding="UTF-8"?>
<!-- Created with Inkscape (http://www.inkscape.org/) -->
<svg id="SVGRoot" width="48px" height="48px" version="1.1" viewBox="0 0 48 48" xmlns="http://www.w3.org/2000/svg" xmlns:cc="http://creativecommons.org/ns#" xmlns:dc="http://purl.org/dc/elements/1.1/" xmlns:rdf="http://www.w3.org/1999/02/22-rdf-syntax-ns#" xmlns:xlink="http://www.w3.org/1999/xlink">
 <defs id="defs815">
  <style id="style819">.cls-1{fill:none;stroke:#fff;stroke-linecap:round;stroke-linejoin:round;}</style>
  <style id="style819-5">.cls-1{fill:none;stroke:#fff;stroke-linecap:round;stroke-linejoin:round;}</style>
  <style id="style819-25">.cls-1{fill:none;stroke:#fff;stroke-linecap:round;stroke-linejoin:round;}</style>
  <style id="style819-2">.cls-1{fill:none;stroke:#fff;stroke-linecap:round;stroke-linejoin:round;}</style>
  <style id="style819-3">.cls-1{fill:none;stroke:#fff;stroke-linecap:round;stroke-linejoin:round;}</style>
  <style id="style819-36">.cls-1{fill:none;stroke:#fff;stroke-linecap:round;stroke-linejoin:round;}</style>
  <style id="style2">.a{fill:none;stroke:#b1b5bd;stroke-linecap:round;stroke-linejoin:round;isolation:isolate;opacity:0.63;}</style>
  <style id="style819-5-0">.cls-1{fill:none;stroke:#fff;stroke-linecap:round;stroke-linejoin:round;}</style>
  <style id="style819-9">.cls-1{fill:none;stroke:#fff;stroke-linecap:round;stroke-linejoin:round;}</style>
 </defs>
 <metadata id="metadata818">
  <rdf:RDF>
   <cc:Work rdf:about="">
    <dc:format>image/svg+xml</dc:format>
    <dc:type rdf:resource="http://purl.org/dc/dcmitype/StillImage"/>
    <dc:title/>
   </cc:Work>
  </rdf:RDF>
 </metadata>
 <g id="layer1">
  <rect id="rect1373-5" x="4" y="4" width="40" height="40" ry="8" fill="#599463" fill-rule="evenodd" style="paint-order:stroke fill markers"/>
  <path id="rect817" d="m12 4c-4.432 0-8 3.568-8 8v24c0 4.432 3.568 8 8 8h24c4.432 0 8-3.568 8-8v-24c0-4.432-3.568-8-8-8h-24zm0 1h24c3.878 0 7 3.122 7 7v24c0 3.878-3.122 7-7 7h-24c-3.878 0-7-3.122-7-7v-24c0-3.878 3.122-7 7-7z" fill-rule="evenodd" opacity=".3" style="paint-order:stroke fill markers"/>
  <path id="rect841" d="m24 12c-2.216 0-4 1.784-4 4 0 1.2109 0.54394 2.2794 1.3887 3.0117-0.77756 0.057666-1.3887 0.69549-1.3887 1.4883 0 0.831 0.669 1.5 1.5 1.5h0.5s-0.15016 3.528-1 5c-1.111 1.9244-1.5793 3.1985-1.7988 4h-1.2012v1h-1c-0.554 0-1 0.446-1 1v2c0 0.554 0.446 1 1 1h1 12 1c0.554 0 1-0.446 1-1v-2c0-0.554-0.446-1-1-1h-1v-1h-1.2012c-0.2195-0.80154-0.6878-2.0756-1.7988-4-0.84984-1.472-1-5-1-5h0.5c0.831 0 1.5-0.669 1.5-1.5 0-0.79279-0.61111-1.4306-1.3887-1.4883 0.84473-0.73232 1.3887-1.8009 1.3887-3.0117 0-2.216-1.784-4-4-4z" fill="#ffd34e" fill-rule="evenodd" style="paint-order:stroke fill markers"/>
  <path id="path958" d="m7.7539 7.7539c-1.0845 1.0845-1.7539 2.5841-1.7539 4.2461v24c0 1.662 0.66941 3.1616 1.7539 4.2461l6.2461-6.2461v-20l-6.2461-6.2461zm32.492 0-6.2461 6.2461v20l6.2461 6.2461c1.0845-1.0845 1.7539-2.5841 1.7539-4.2461v-24c0-1.662-0.66941-3.1616-1.7539-4.2461z" opacity=".3"/>
  <path id="path983" d="m12 7h24l-4 4h-16z" opacity="0" stroke-width="1px"/>
 </g>
</svg>
