<?xml version="1.0" encoding="UTF-8"?>
<!-- Created with Inkscape (http://www.inkscape.org/) -->
<svg id="SVGRoot" width="48px" height="48px" version="1.1" viewBox="0 0 48 48" xmlns="http://www.w3.org/2000/svg" xmlns:cc="http://creativecommons.org/ns#" xmlns:dc="http://purl.org/dc/elements/1.1/" xmlns:rdf="http://www.w3.org/1999/02/22-rdf-syntax-ns#">
 <defs>
  <style>.cls-1{fill:none;stroke:#fff;stroke-linecap:round;stroke-linejoin:round;}</style>
 </defs>
 <metadata>
  <rdf:RDF>
   <cc:Work rdf:about="">
    <dc:format>image/svg+xml</dc:format>
    <dc:type rdf:resource="http://purl.org/dc/dcmitype/StillImage"/>
   </cc:Work>
  </rdf:RDF>
 </metadata>
 <rect x="4" y="4" width="40" height="40" ry="8" fill="#575D99" fill-rule="evenodd" style="paint-order:stroke fill markers"/>
 <path d="m12 4c-4.432 0-8 3.568-8 8v24c0 4.432 3.568 8 8 8h24c4.432 0 8-3.568 8-8v-24c0-4.432-3.568-8-8-8zm0 1h24c3.878 0 7 3.122 7 7v24c0 3.878-3.122 7-7 7h-24c-3.878 0-7-3.122-7-7v-24c0-3.878 3.122-7 7-7z" fill-rule="evenodd" opacity=".3" style="paint-order:stroke fill markers"/>
 <g stroke-linecap="round" stroke-linejoin="round" stroke-width="2">
  <rect x="12" y="10" width="24" height="28" ry="12" fill="#fff"/>
  <path d="m12 32c-4 0-6 3-6 3v1c0 3.324 2.676 6 6 6h24c3.324 0 6-2.676 6-6v-1s-2-3-6-3h-24z" fill="#36425d"/>
  <rect x="12" y="19" width="24" height="19" rx="11.97" ry="6" fill="#fff"/>
  <path d="m16.67 18c-1.4791 0-2.6699 1.1908-2.6699 2.6699v9.3301c0 3.324 4.46 6 10 6s10-2.676 10-6v-9.3301c0-1.4791-1.1908-2.6699-2.6699-2.6699h-7.3301z" fill="#242537"/>
  <path d="m17 19c-1.108 0-2 0.892-2 2v3 1 5c0 2.77 4.014 5 9 5s9-2.23 9-5v-5-1-3c0-1.108-0.892-2-2-2h-7-7zm0 1h7 7c0.554 0 1 0.446 1 1v3 2 4c0 2.216-3.568 4-8 4s-8-1.784-8-4v-4-2-3c0-0.554 0.446-1 1-1z" fill="#3d4b69"/>
  <rect x="27" y="19" width="2" height="15" ry="1" fill="#fff"/>
  <rect x="30" y="19" width="1" height="14" ry=".5" fill="#fff"/>
  <rect x="17" y="19" width="2" height="12" ry="1" fill="#3d4b69"/>
 </g>
</svg>
