<?xml version="1.0" encoding="UTF-8"?>
<!-- Created with Inkscape (http://www.inkscape.org/) -->
<svg id="SVGRoot" width="48px" height="48px" version="1.1" viewBox="0 0 48 48" xmlns="http://www.w3.org/2000/svg" xmlns:cc="http://creativecommons.org/ns#" xmlns:dc="http://purl.org/dc/elements/1.1/" xmlns:rdf="http://www.w3.org/1999/02/22-rdf-syntax-ns#">
 <defs id="defs815">
  <style id="style819">.cls-1{fill:none;stroke:#fff;stroke-linecap:round;stroke-linejoin:round;}</style>
  <style id="style819-6">.cls-1{fill:none;stroke:#fff;stroke-linecap:round;stroke-linejoin:round;}</style>
 </defs>
 <metadata id="metadata818">
  <rdf:RDF>
   <cc:Work rdf:about="">
    <dc:format>image/svg+xml</dc:format>
    <dc:type rdf:resource="http://purl.org/dc/dcmitype/StillImage"/>
    <dc:title/>
   </cc:Work>
  </rdf:RDF>
 </metadata>
 <g id="layer1">
  <rect id="rect1373-5" x="4" y="4" width="40" height="40" ry="8" fill="#455054" fill-rule="evenodd" style="paint-order:stroke fill markers"/>
  <path id="rect817" d="m12 4c-4.432 0-8 3.568-8 8v24c0 4.432 3.568 8 8 8h24c4.432 0 8-3.568 8-8v-24c0-4.432-3.568-8-8-8h-24zm0 1h24c3.878 0 7 3.122 7 7v24c0 3.878-3.122 7-7 7h-24c-3.878 0-7-3.122-7-7v-24c0-3.878 3.122-7 7-7z" fill-rule="evenodd" opacity=".4" style="paint-order:stroke fill markers"/>
  <path id="path4338" d="m20 30-1 6-9 2-1.9863 2.4824c1.0589 0.94179 2.4512 1.5176 3.9863 1.5176h24c1.5352 0 2.9274-0.57579 3.9863-1.5176l-1.9863-2.4824-9-2-1-6h-4-4z" fill="#a23c45"/>
  <g id="g4446">
   <path id="path4360" d="m30.846 21.385 1.1543 0.61523-1 4-1 1z" fill="#f55"/>
   <path id="path4360-0" d="m17 21-2 1 1 4 1 1z" fill="#f55"/>
   <path id="path4393" d="m28 21-3 2h-3l-5.4375 1.8125 0.4375 2.1875 0.43555 0.86914 10.408-1.1035 3.002-5.3809z" fill="#fff5eb"/>
   <path id="path4358" d="m30.846 21.385-1.8457 0.61523-2 3-9.5645 2.8691 0.56445 1.1309 3 3 3 1 3-1 3-3 1-7z" fill="#ffb855"/>
   <path id="path4429" d="m28 13-1.9807 0.32967-0.59662 2.4528-0.99437 1.4584 2.3202 2.7511 0.36476 1.9885 1.9886-2.7177z" fill="#fff4e6"/>
   <path id="path4411" d="m28 13-0.6543 2.9141-1.3594 1.5918 1.4258 2.2207-0.29883 2.2539 1.7227-1.0938 1.8301-0.22461-0.66602-2.6621 1-3z" fill="#f95"/>
   <path id="path4433" d="m20.882 16.677 1.1932 0.99437 1.0907-0.04464 0.83427 0.37289 1.4558-1.0243-1.7236-1.7899z" fill="#fff"/>
   <path id="path4431" d="m24 12-3.1183 1.0645v3.6129l2.8505-0.53033 1.7236 0.82864 1.0938-1.2264 0.7955-2.9168z" fill="#f55"/>
   <path id="path4435" d="m18 14 1.0919 1.451 0.90812 2.549 1 3 1 4-5 2-1-5v-3l1-3z" fill="#ff7c55"/>
  </g>
 </g>
</svg>
