<?xml version="1.0" encoding="UTF-8"?>
<!-- Created with Inkscape (http://www.inkscape.org/) -->
<svg id="SVGRoot" width="48px" height="48px" version="1.1" viewBox="0 0 48 48" xml:space="preserve" xmlns="http://www.w3.org/2000/svg" xmlns:cc="http://creativecommons.org/ns#" xmlns:dc="http://purl.org/dc/elements/1.1/" xmlns:rdf="http://www.w3.org/1999/02/22-rdf-syntax-ns#"><defs><style>.cls-1{fill:none;stroke:#fff;stroke-linecap:round;stroke-linejoin:round;}</style><style>.cls-1{fill:none;stroke:#fff;stroke-linecap:round;stroke-linejoin:round;}</style><style>.cls-1{fill:none;stroke:#fff;stroke-linecap:round;stroke-linejoin:round;}</style><style>.cls-1{fill:none;stroke:#fff;stroke-linecap:round;stroke-linejoin:round;}</style><style>.cls-1{fill:none;stroke:#fff;stroke-linecap:round;stroke-linejoin:round;}</style><style>.cls-1{fill:none;stroke:#fff;stroke-linecap:round;stroke-linejoin:round;}</style><style>.cls-1{fill:none;stroke:#fff;stroke-linecap:round;stroke-linejoin:round;}</style><style id="current-color-scheme" type="text/css">.ColorScheme-Text {
        color:#31363b;
      }
      .ColorScheme-Accent {
        color:#3daee9;
      }</style><style type="text/css">.ColorScheme-Text {
        color:#31363b;
      }
      .ColorScheme-Accent {
        color:#3daee9;
      }</style></defs><metadata><rdf:RDF><cc:Work rdf:about=""><dc:format>image/svg+xml</dc:format><dc:type rdf:resource="http://purl.org/dc/dcmitype/StillImage"/></cc:Work></rdf:RDF></metadata><rect x="4" y="4" width="40" height="40" ry="8" fill="#c4493c" fill-rule="evenodd" style="paint-order:stroke fill markers"/><path d="m24 10.006c-1.6536 0-3.2387 0.28292-4.709 0.80469l8.709 8.7109v-8.9395c-1.2665-0.37441-2.6089-0.57617-4-0.57617zm6 1.332v12.318l6.3242-6.3242c-1.4113-2.6126-3.6292-4.7204-6.3242-5.9941zm-12.668 0.34375c-2.6125 1.4113-4.7205 3.6293-5.9941 6.3242h12.318l-6.3242-6.3242zm19.863 7.6094-8.7109 8.709h8.9395c0.37441-1.2665 0.57617-2.6089 0.57617-4 0-1.6536-0.28292-3.2387-0.80469-4.709zm-26.619 0.71484c-0.37441 1.2665-0.57617 2.6089-0.57617 4 0 1.6536 0.28292 3.2387 0.80469 4.709l8.7109-8.709h-8.9395zm7.4238 4.3438-6.3242 6.3242c1.4113 2.6126 3.6292 4.7204 6.3242 5.9941v-12.318zm2 4.1348v8.9395c1.2665 0.37441 2.6089 0.57617 4 0.57617 1.6536 0 3.2387-0.28292 4.709-0.80469l-8.709-8.7109zm4.3438 1.5156 6.3242 6.3242c2.6125-1.4113 4.7205-3.6293 5.9941-6.3242h-12.318z" fill="#fff" style="paint-order:stroke fill markers"/><path d="m12 4c-4.432 0-8 3.568-8 8v24c0 4.432 3.568 8 8 8h24c4.432 0 8-3.568 8-8v-24c0-4.432-3.568-8-8-8zm0 1h24c3.878 0 7 3.122 7 7v24c0 3.878-3.122 7-7 7h-24c-3.878 0-7-3.122-7-7v-24c0-3.878 3.122-7 7-7z" fill-rule="evenodd" opacity=".4" style="paint-order:stroke fill markers"/><style type="text/css">.st0{fill:#FFFFFF;}</style></svg>
