<?xml version="1.0" encoding="UTF-8"?>
<!-- Created with Inkscape (http://www.inkscape.org/) -->
<svg id="SVGRoot" width="48px" height="48px" version="1.1" viewBox="0 0 48 48" xml:space="preserve" xmlns="http://www.w3.org/2000/svg" xmlns:cc="http://creativecommons.org/ns#" xmlns:dc="http://purl.org/dc/elements/1.1/" xmlns:rdf="http://www.w3.org/1999/02/22-rdf-syntax-ns#"><defs><style>.cls-1{fill:none;stroke:#fff;stroke-linecap:round;stroke-linejoin:round;}</style><style>.cls-1{fill:none;stroke:#fff;stroke-linecap:round;stroke-linejoin:round;}</style><style>.cls-1{fill:none;stroke:#fff;stroke-linecap:round;stroke-linejoin:round;}</style><style>.cls-1{fill:none;stroke:#fff;stroke-linecap:round;stroke-linejoin:round;}</style></defs><metadata><rdf:RDF><cc:Work rdf:about=""><dc:format>image/svg+xml</dc:format><dc:type rdf:resource="http://purl.org/dc/dcmitype/StillImage"/></cc:Work></rdf:RDF></metadata><rect x="4" y="4" width="40" height="40" ry="8" fill="#824a68" fill-rule="evenodd" style="paint-order:stroke fill markers"/><path d="m12 4c-4.432 0-8 3.568-8 8v24c0 4.432 3.568 8 8 8h24c4.432 0 8-3.568 8-8v-24c0-4.432-3.568-8-8-8zm0 1h24c3.878 0 7 3.122 7 7v24c0 3.878-3.122 7-7 7h-24c-3.878 0-7-3.122-7-7v-24c0-3.878 3.122-7 7-7z" fill-rule="evenodd" opacity=".4" style="paint-order:stroke fill markers"/><g><path d="m15 14h8l12 20h-9z" fill="#ffe1f3" stroke-linecap="round" stroke-linejoin="round" stroke-width="2"/><path d="m37 14h-8l-19 20h9z" fill="#ffe1f3" stroke-linecap="round" stroke-linejoin="round" stroke-width="2"/><path d="m18.381 16 4.209 7.6523-7.9316 8.3477h3.4512l5.6328-6.2578 3.4414 6.2578h4.2832l-5.3438-8.9043 6.3867-7.0957h-2.6504l-4.8984 5.1562-3.0938-5.1562h-3.4863z" fill="#824a68"/><rect x="28" y="28" width="12" height="12" ry="6" fill="#ffe1f3"/><rect x="30" y="30" width="8" height="8" ry="4" fill="#824a68"/><path d="m36.15 37h-4.1744v-0.87839l1.4974-1.5142q0.45174-0.46847 0.72781-0.778 0.27606-0.31789 0.40155-0.56886 0.12548-0.25933 0.12548-0.55213 0-0.35972-0.20078-0.5354-0.19241-0.17568-0.52703-0.17568-0.34299 0-0.66925 0.15895-0.32626 0.15895-0.68598 0.45174l-0.68598-0.81146q0.25934-0.22587 0.54376-0.41828 0.2928-0.19241 0.66925-0.30953 0.38482-0.12548 0.92022-0.12548 0.58559 0 1.0039 0.2175 0.42665 0.20914 0.65252 0.57723 0.23424 0.35972 0.23424 0.81983 0 0.49357-0.20077 0.90348-0.19241 0.40992-0.56886 0.81146-0.36809 0.40155-0.89512 0.88675l-0.76964 0.71944v0.05855h2.6017z" fill="#ffe1f3" stroke-linecap="round" stroke-width="2.7885" aria-label="2"/></g></svg>
