<?xml version="1.0" encoding="UTF-8"?>
<!-- Created with Inkscape (http://www.inkscape.org/) -->
<svg id="SVGRoot" width="48px" height="48px" version="1.1" viewBox="0 0 48 48" xmlns="http://www.w3.org/2000/svg" xmlns:cc="http://creativecommons.org/ns#" xmlns:dc="http://purl.org/dc/elements/1.1/" xmlns:rdf="http://www.w3.org/1999/02/22-rdf-syntax-ns#">
 <defs id="defs815">
  <style id="style819">.cls-1{fill:none;stroke:#fff;stroke-linecap:round;stroke-linejoin:round;}</style>
  <style id="style2">.a{fill:none;stroke:#b1b5bd;stroke-linecap:round;stroke-linejoin:round;isolation:isolate;opacity:0.63;}</style>
 </defs>
 <metadata id="metadata818">
  <rdf:RDF>
   <cc:Work rdf:about="">
    <dc:format>image/svg+xml</dc:format>
    <dc:type rdf:resource="http://purl.org/dc/dcmitype/StillImage"/>
    <dc:title/>
   </cc:Work>
  </rdf:RDF>
 </metadata>
 <g id="layer1">
  <rect id="rect1373" x="4" y="4" width="40" height="40" ry="8" fill="#4e4e4e" fill-rule="evenodd" style="paint-order:stroke fill markers"/>
  <path id="rect817" d="m12 4c-4.432 0-8 3.568-8 8v24c0 4.432 3.568 8 8 8h24c4.432 0 8-3.568 8-8v-24c0-4.432-3.568-8-8-8h-24zm0 1h24c3.878 0 7 3.122 7 7v24c0 3.878-3.122 7-7 7h-24c-3.878 0-7-3.122-7-7v-24c0-3.878 3.122-7 7-7z" fill-rule="evenodd" opacity=".4" style="paint-order:stroke fill markers"/>
  <path id="path859" d="m16.446 8.9881s-2.5377 0.98364-3.4218 3.1025c-0.84157 2.0168-1.0037 6.4792-1.0037 6.4792s-1.8401 2.7825-2.0074 4.3798c-0.14451 1.3798 0.74142 2.3099 0.68437 3.696-0.08586 2.0859-1.5677 4.4906-1.6429 6.3416-0.017028 0.4192 0.86714 0.91284 0.86714 0.91284s0.00818 0.95038 0.36503 1.0494c0.68675 0.19055 1.6424-1.3687 1.6424-1.3687l0.31934 0.95801s-0.62844 0.86948-0.13656 1.1408c0.35158 0.19392 1.0946-0.50212 1.0946-0.50212s0.22909 1.1509 0.22847 1.7338c-0.0011 1.0854 0.12249 2.5632 1.0037 2.4638 0.84225-0.09501 0.42054-1.662 0.41072-2.5095-0.01146-0.99024-0.54781-2.9197-0.54781-2.9197s2.4392-1.6253 3.4675-3.6503c0.26582-0.52343 0.83471-0.95686 1.4144-1.0494 0.80737-0.12887 1.6369 0.33774 2.3273 0.77575 0.812 0.51519 1.8712 1.7627 2.4339 2.4633l1.3903-10.565c-0.72813-0.1145-2.1525-0.35541-2.9575-0.61294-1.2384-0.39614-3.5589-1.5972-3.5589-1.5972l0.18278-0.36503s0.76237 0.0043 1.0951-0.18225c0.90221-0.50574 1.4722-0.97336 1.7795-2.2359 0.25655-1.0543-2.1514-0.25516-3.1939 0.04569-0.91487 0.26403-2.5552 1.2779-2.5552 1.2779s0.38219-3.0896 0.95801-4.5169c0.9234-2.289 2.1902-3.1939 2.1902-3.1939s-2.1951 0.47486-3.4218 2.5095c-0.65624 1.0885-1.3687 3.5584-1.3687 3.5584l-0.36503 0.04569s-0.07858-2.3399 0.18225-3.4675c0.47268-2.0436 2.1445-4.1976 2.1445-4.1976z" fill="#fff"/>
  <path id="rect834" d="m24 6v36h12c3.324 0 6-2.676 6-6v-24c0-3.324-2.676-6-6-6h-12z" fill="#96d56b" fill-rule="evenodd" style="paint-order:normal"/>
  <path id="path857" d="m31.48 20.821h1.994l0.6158-3.7241s0.32179-0.87972 0.99701-0.87972c0.95415 0 0.79174 1.1143 0.79174 1.1143l-0.67445 4.6038s-0.2019 0.93836-0.96769 0.93836c-0.33248 0-0.99701 0.02932-0.99701 0.02932l-0.32256 1.8767h1.1143c0.77865 0 0.67445 0.90904 0.67445 0.90904l-0.64513 5.0437s-0.23195 1.1987-1.2023 1.0557c-0.77929-0.11487-0.67445-1.2316-0.67445-1.2316l0.41053-3.5775h-1.994l-0.52783 3.5482s-0.53562 3.303 2.3752 3.4602c3.3792 0.18249 3.6655-3.1963 3.6655-3.1963s0.54587-3.4907 0.70377-5.249c0.11668-1.2993-0.93836-1.7594-0.93836-1.7594s1.07-0.35033 1.3489-1.7301c0.35499-1.7564 0.64512-5.3369 0.64512-5.3369s0.46658-2.6978-2.3752-2.6978c-2.7489 0-3.3722 2.4632-3.3722 2.4632z" fill="#4e4e4e"/>
 </g>
</svg>
