<?xml version="1.0" encoding="UTF-8"?>
<!-- Created with Inkscape (http://www.inkscape.org/) -->
<svg id="SVGRoot" width="48px" height="48px" version="1.1" viewBox="0 0 48 48" xml:space="preserve" xmlns="http://www.w3.org/2000/svg" xmlns:cc="http://creativecommons.org/ns#" xmlns:dc="http://purl.org/dc/elements/1.1/" xmlns:rdf="http://www.w3.org/1999/02/22-rdf-syntax-ns#"><defs><style>.cls-1{fill:none;stroke:#fff;stroke-linecap:round;stroke-linejoin:round;}</style><style>.cls-1{fill:none;stroke:#fff;stroke-linecap:round;stroke-linejoin:round;}</style><style>.cls-1{fill:none;stroke:#fff;stroke-linecap:round;stroke-linejoin:round;}</style><style>.cls-1{fill:none;stroke:#fff;stroke-linecap:round;stroke-linejoin:round;}</style><style>.cls-1{fill:none;stroke:#fff;stroke-linecap:round;stroke-linejoin:round;}</style><style>.cls-1{fill:none;stroke:#fff;stroke-linecap:round;stroke-linejoin:round;}</style><style>.a{fill:none;stroke:#b1b5bd;stroke-linecap:round;stroke-linejoin:round;isolation:isolate;opacity:0.63;}</style><style>.cls-1{fill:none;stroke:#fff;stroke-linecap:round;stroke-linejoin:round;}</style><style>.cls-1{fill:none;stroke:#fff;stroke-linecap:round;stroke-linejoin:round;}</style></defs><metadata><rdf:RDF><cc:Work rdf:about=""><dc:format>image/svg+xml</dc:format><dc:type rdf:resource="http://purl.org/dc/dcmitype/StillImage"/></cc:Work></rdf:RDF></metadata><rect x="4" y="4" width="40" height="40" ry="8" fill="#0fb8c0" fill-rule="evenodd" style="paint-order:stroke fill markers"/><rect x="8" y="8" width="32" height="32" ry="4" fill="#4e4e4e" stroke-linecap="round" stroke-linejoin="round" stroke-width="2" style="paint-order:stroke fill markers"/><path d="m12 4c-4.432 0-8 3.568-8 8v24c0 4.432 3.568 8 8 8h24c4.432 0 8-3.568 8-8v-24c0-4.432-3.568-8-8-8zm0 1h24c3.878 0 7 3.122 7 7v24c0 3.878-3.122 7-7 7h-24c-3.878 0-7-3.122-7-7v-24c0-3.878 3.122-7 7-7z" fill-rule="evenodd" opacity=".3" style="paint-order:stroke fill markers"/><g stroke-linecap="round" stroke-linejoin="round"><path d="m14 20.4c0-2.4 1.5-2.4 1.5-2.4h3s1.5 0 1.5 2.4v3.2c0 2.4-1.5 2.4-1.5 2.4h-3s-1.5 0-1.5-2.4z" fill="#f9f9f9" stroke-width="1.4771" style="paint-order:stroke fill markers"/><path d="m28 20.4c0-2.4 1.5-2.4 1.5-2.4h3s1.5 0 1.5 2.4v3.2c0 2.4-1.5 2.4-1.5 2.4h-3s-1.5 0-1.5-2.4z" fill="#f9f9f9" stroke-width="1.4771" style="paint-order:stroke fill markers"/><g transform="translate(0,-2)" fill="#0fb8c0" stroke-width="2"><rect x="12" y="34" width="2" height="2" ry="1" style="paint-order:stroke fill markers"/><rect x="12" y="30" width="2" height="2" ry="1" style="paint-order:stroke fill markers"/><rect x="16" y="32" width="2" height="2" ry="1" style="paint-order:stroke fill markers"/><rect transform="scale(-1,1)" x="-36" y="34" width="2" height="2" ry="1" style="paint-order:stroke fill markers"/><rect transform="scale(-1,1)" x="-36" y="30" width="2" height="2" ry="1" style="paint-order:stroke fill markers"/><rect transform="scale(-1,1)" x="-32" y="32" width="2" height="2" ry="1" style="paint-order:stroke fill markers"/></g></g></svg>
