<?xml version="1.0" encoding="UTF-8"?>
<!-- Created with Inkscape (http://www.inkscape.org/) -->
<svg id="SVGRoot" width="48px" height="48px" version="1.1" viewBox="0 0 48 48" xml:space="preserve" xmlns="http://www.w3.org/2000/svg" xmlns:cc="http://creativecommons.org/ns#" xmlns:dc="http://purl.org/dc/elements/1.1/" xmlns:rdf="http://www.w3.org/1999/02/22-rdf-syntax-ns#"><defs><style>.cls-1{fill:none;stroke:#fff;stroke-linecap:round;stroke-linejoin:round;}</style><style>.cls-1{fill:none;stroke:#fff;stroke-linecap:round;stroke-linejoin:round;}</style><style>.cls-1{fill:none;stroke:#fff;stroke-linecap:round;stroke-linejoin:round;}</style><style>.a{fill:none;stroke:#b1b5bd;stroke-linecap:round;stroke-linejoin:round;isolation:isolate;opacity:0.63;}</style><style>.cls-1{fill:none;stroke:#fff;stroke-linecap:round;stroke-linejoin:round;}</style><style>.cls-1{fill:none;stroke:#fff;stroke-linecap:round;stroke-linejoin:round;}</style><style>.cls-1{fill:none;stroke:#fff;stroke-linecap:round;stroke-linejoin:round;}</style></defs><metadata><rdf:RDF><cc:Work rdf:about=""><dc:format>image/svg+xml</dc:format><dc:type rdf:resource="http://purl.org/dc/dcmitype/StillImage"/></cc:Work></rdf:RDF></metadata><rect x="4" y="4" width="40" height="40" ry="8" fill="#d35244" fill-rule="evenodd" style="paint-order:stroke fill markers"/><path d="m12 4c-4.432 0-8 3.568-8 8v24c0 4.432 3.568 8 8 8h24c4.432 0 8-3.568 8-8v-24c0-4.432-3.568-8-8-8zm0 1h24c3.878 0 7 3.122 7 7v24c0 3.878-3.122 7-7 7h-24c-3.878 0-7-3.122-7-7v-24c0-3.878 3.122-7 7-7z" fill-rule="evenodd" opacity=".4" style="paint-order:stroke fill markers"/><path d="m13.057 12.002a1.0001 1.0001 0 0 0-0.26953 0.021485 1.0001 1.0001 0 0 0-0.78711 0.97656v5h2v-0.41992l2.8047 6.1191-2.8047 4.0801v-1.7793h-2v5a1.0001 1.0001 0 0 0 1.8242 0.56641l3.9512-5.748 5.3164 11.598a1.0001 1.0001 0 0 0 1.8164 0l5.3164-11.598 3.9512 5.748a1.0001 1.0001 0 0 0 1.8242-0.56641v-5h-2v1.7793l-2.8047-4.0801 2.8047-6.1191v0.41992h2v-5a1.0001 1.0001 0 0 0-1.9082-0.41602l-4.2148 9.1973-5.0527-7.3477a1.0001 1.0001 0 0 0-1.6484 0l-5.0527 7.3477-4.2148-9.1973a1.0001 1.0001 0 0 0-0.85156-0.58203zm22.943 5.998v4h2v-4h-2zm0 4h-2v2h2v-2zm0 2v2h2v-2h-2zm-24 2v-4h-2v4h2zm0-4h2v-2h-2v2zm0-2v-2h-2v2h2zm12-3.2344 4.9043 7.1348-4.9043 10.701-4.9043-10.701 4.9043-7.1348z" fill="#fff" stroke-linecap="round" stroke-linejoin="round"/></svg>
