<?xml version="1.0" encoding="UTF-8"?>
<!-- Created with Inkscape (http://www.inkscape.org/) -->
<svg id="SVGRoot" width="48px" height="48px" version="1.1" viewBox="0 0 48 48" xml:space="preserve" xmlns="http://www.w3.org/2000/svg" xmlns:cc="http://creativecommons.org/ns#" xmlns:dc="http://purl.org/dc/elements/1.1/" xmlns:rdf="http://www.w3.org/1999/02/22-rdf-syntax-ns#"><defs><style>.cls-1{fill:none;stroke:#fff;stroke-linecap:round;stroke-linejoin:round;}</style><style>.cls-1{fill:none;stroke:#fff;stroke-linecap:round;stroke-linejoin:round;}</style><style>.cls-1{fill:none;stroke:#fff;stroke-linecap:round;stroke-linejoin:round;}</style><style>.cls-1{fill:none;stroke:#fff;stroke-linecap:round;stroke-linejoin:round;}</style><style>.cls-1{fill:none;stroke:#fff;stroke-linecap:round;stroke-linejoin:round;}</style></defs><metadata><rdf:RDF><cc:Work rdf:about=""><dc:format>image/svg+xml</dc:format><dc:type rdf:resource="http://purl.org/dc/dcmitype/StillImage"/></cc:Work></rdf:RDF></metadata><g fill-rule="evenodd"><rect x="4" y="4" width="40" height="40" ry="8" fill="#59b7de" style="paint-order:stroke fill markers"/><path d="m12 4c-4.432 0-8 3.568-8 8v24c0 4.432 3.568 8 8 8h24c4.432 0 8-3.568 8-8v-24c0-4.432-3.568-8-8-8zm0 1h24c3.878 0 7 3.122 7 7v24c0 3.878-3.122 7-7 7h-24c-3.878 0-7-3.122-7-7v-24c0-3.878 3.122-7 7-7z" opacity=".3" style="paint-order:stroke fill markers"/><g fill="#4e4e4e"><rect x="10" y="12" width="24" height="24" ry="12" style="paint-order:stroke fill markers"/><rect x="22" y="12" width="11" height="3" style="paint-order:normal"/><rect x="28" y="12" width="10" height="10" ry="5" style="paint-order:normal"/></g><rect x="12" y="14" width="20" height="20" ry="10" fill="#59b7de" style="paint-order:stroke fill markers"/></g><path d="m18.494 30 3.5062-5.7892 2.4994 6.2892 3.5-1.2554-0.63996-1.7446-1.6529 0.60106-3.7071-10.101-4-1.15e-4v2.0001h2.2726l0.55097 1.3057-4.8235 8.6943z" fill="#4e4e4e"/><path d="m33.337 28 4.196-8.9108-6.5332-1.0892z" fill="#4e4e4e"/></svg>
