<?xml version="1.0" encoding="UTF-8"?>
<!-- Created with Inkscape (http://www.inkscape.org/) -->
<svg id="SVGRoot" width="48px" height="48px" version="1.1" viewBox="0 0 48 48" xml:space="preserve" xmlns="http://www.w3.org/2000/svg" xmlns:cc="http://creativecommons.org/ns#" xmlns:dc="http://purl.org/dc/elements/1.1/" xmlns:rdf="http://www.w3.org/1999/02/22-rdf-syntax-ns#"><defs><style>.cls-1{fill:none;stroke:#fff;stroke-linecap:round;stroke-linejoin:round;}</style><style>.cls-1{fill:none;stroke:#fff;stroke-linecap:round;stroke-linejoin:round;}</style><style>.cls-1{fill:none;stroke:#fff;stroke-linecap:round;stroke-linejoin:round;}</style></defs><metadata><rdf:RDF><cc:Work rdf:about=""><dc:format>image/svg+xml</dc:format><dc:type rdf:resource="http://purl.org/dc/dcmitype/StillImage"/></cc:Work></rdf:RDF></metadata><rect x="4" y="4" width="40" height="40" ry="8" fill="#2c3b67" fill-rule="evenodd" style="paint-order:stroke fill markers"/><path d="m12 4c-4.432 0-8 3.568-8 8v24c0 4.432 3.568 8 8 8h24c4.432 0 8-3.568 8-8v-24c0-4.432-3.568-8-8-8zm0 1h24c3.878 0 7 3.122 7 7v24c0 3.878-3.122 7-7 7h-24c-3.878 0-7-3.122-7-7v-24c0-3.878 3.122-7 7-7z" fill-rule="evenodd" opacity=".4" style="paint-order:stroke fill markers"/><g fill="#f6a559"><g stroke-linecap="round" stroke-linejoin="round"><rect x="14" y="14" width="20" height="20" ry="10" stroke-width="2"/><path d="m11 23a1.0001 1.0001 0 0 0-1 1c0 5.8333 2.9995 9.448 5.9375 11.451 2.938 2.0032 5.8828 2.5332 5.8828 2.5332a1 1 0 0 0 1.1641-0.80469 1 1 0 0 0-0.80469-1.1641s-2.5552-0.46998-5.1172-2.2168c-2.3771-1.6208-4.6144-4.3049-4.9375-8.7988h6.875a1 1 0 0 0 1-1 1 1 0 0 0-1-1z" stop-color="#000000"/><path d="m24 10a1.0001 1.0001 0 0 0-1 1v8a1 1 0 0 0 1 1 1 1 0 0 0 1-1v-6.875c4.4939 0.32314 7.1781 2.5604 8.7988 4.9375 1.7468 2.562 2.2168 5.1172 2.2168 5.1172a1 1 0 0 0 1.1641 0.80469 1 1 0 0 0 0.80469-1.1641s-0.53002-2.9448-2.5332-5.8828c-2.0032-2.938-5.6178-5.9375-11.451-5.9375z" stop-color="#000000"/><path d="m37 27a1 1 0 0 0-1 1s0.0086 0.56008-0.32422 1.5586c-0.33284 0.99851-1.0007 2.3522-2.3828 3.7344s-2.7359 2.05-3.7344 2.3828c-0.99851 0.33284-1.5586 0.32422-1.5586 0.32422a1 1 0 0 0-1 1 1 1 0 0 0 1 1s0.93992-0.0086 2.1914-0.42578c1.2515-0.41716 2.8978-1.2493 4.5156-2.8672s2.45-3.2641 2.8672-4.5156c0.41716-1.2515 0.42578-2.1914 0.42578-2.1914a1 1 0 0 0-1-1z" stop-color="#000000"/></g><rect x="36" y="24" width="2" height="2" ry="1"/></g><rect x="18" y="18" width="12" height="12" ry="6" fill="#2c3b67"/><rect x="20" y="20" width="8" height="8" ry="4" fill="#f6a559"/><rect x="22" y="22" width="4" height="4" ry="2" fill="#2c3b67"/></svg>
