<?xml version="1.0" encoding="UTF-8"?>
<!-- Created with Inkscape (http://www.inkscape.org/) -->
<svg id="SVGRoot" width="48px" height="48px" version="1.1" viewBox="0 0 48 48" xml:space="preserve" xmlns="http://www.w3.org/2000/svg" xmlns:cc="http://creativecommons.org/ns#" xmlns:dc="http://purl.org/dc/elements/1.1/" xmlns:rdf="http://www.w3.org/1999/02/22-rdf-syntax-ns#"><defs><style>.cls-1{fill:none;stroke:#fff;stroke-linecap:round;stroke-linejoin:round;}</style><style>.cls-1{fill:none;stroke:#fff;stroke-linecap:round;stroke-linejoin:round;}</style></defs><metadata><rdf:RDF><cc:Work rdf:about=""><dc:format>image/svg+xml</dc:format><dc:type rdf:resource="http://purl.org/dc/dcmitype/StillImage"/></cc:Work></rdf:RDF></metadata><rect x="4" y="4" width="40" height="40" ry="8" fill="#4e4e4e" fill-rule="evenodd" style="paint-order:stroke fill markers"/><path d="m8 19v5h-4v1h4v5h1v-5-1-5h-1zm9.5 0c-3.047 0-5.5 2.453-5.5 5.5s2.453 5.5 5.5 5.5 5.5-2.453 5.5-5.5-2.453-5.5-5.5-5.5zm13 0c-3.047 0-5.5 2.453-5.5 5.5s2.453 5.5 5.5 5.5 5.5-2.453 5.5-5.5-2.453-5.5-5.5-5.5zm8.5 0v11h1v-5.3223l0.003906-0.05664h0.99609l3 4.0352v-1.8398l-2-2.8164 2-2.3457v-1.541l-3 3.3418h-0.99609-0.003906v-4.4551h-1zm-21.5 1c2.493 0 4.5 2.007 4.5 4.5s-2.007 4.5-4.5 4.5-4.5-2.007-4.5-4.5 2.007-4.5 4.5-4.5zm13 0c2.493 0 4.5 2.007 4.5 4.5s-2.007 4.5-4.5 4.5-4.5-2.007-4.5-4.5 2.007-4.5 4.5-4.5z" fill="#fff" stroke-linecap="round" stroke-linejoin="round" stroke-width="2" style="paint-order:stroke fill markers"/><path d="m12 4c-4.432 0-8 3.568-8 8v24c0 4.432 3.568 8 8 8h24c4.432 0 8-3.568 8-8v-24c0-4.432-3.568-8-8-8zm0 1h24c3.878 0 7 3.122 7 7v24c0 3.878-3.122 7-7 7h-24c-3.878 0-7-3.122-7-7v-24c0-3.878 3.122-7 7-7z" fill-rule="evenodd" opacity=".4" style="paint-order:stroke fill markers"/><circle cx="24" cy="24" r="20" fill="none" opacity=".63" stroke-width=".22727"/></svg>
