<?xml version="1.0" encoding="UTF-8"?>
<!-- Created with Inkscape (http://www.inkscape.org/) -->
<svg id="SVGRoot" width="48px" height="48px" version="1.1" viewBox="0 0 48 48" xml:space="preserve" xmlns="http://www.w3.org/2000/svg" xmlns:cc="http://creativecommons.org/ns#" xmlns:dc="http://purl.org/dc/elements/1.1/" xmlns:rdf="http://www.w3.org/1999/02/22-rdf-syntax-ns#"><defs><style>.cls-1{fill:none;stroke:#fff;stroke-linecap:round;stroke-linejoin:round;}</style><style>.cls-1{fill:none;stroke:#fff;stroke-linecap:round;stroke-linejoin:round;}</style><style>.cls-1{fill:none;stroke:#fff;stroke-linecap:round;stroke-linejoin:round;}</style><style>.cls-1{fill:none;stroke:#fff;stroke-linecap:round;stroke-linejoin:round;}</style><style>.cls-1{fill:none;stroke:#fff;stroke-linecap:round;stroke-linejoin:round;}</style><style>.cls-1{fill:none;stroke:#fff;stroke-linecap:round;stroke-linejoin:round;}</style><style>.cls-1{fill:none;stroke:#fff;stroke-linecap:round;stroke-linejoin:round;}</style><style>.cls-1{fill:none;stroke:#fff;stroke-linecap:round;stroke-linejoin:round;}</style></defs><metadata><rdf:RDF><cc:Work rdf:about=""><dc:format>image/svg+xml</dc:format><dc:type rdf:resource="http://purl.org/dc/dcmitype/StillImage"/></cc:Work></rdf:RDF></metadata><rect x="4" y="4" width="40" height="40" ry="8" fill="#4e4e4e" fill-rule="evenodd" style="paint-order:stroke fill markers"/><path d="m12 4c-4.432 0-8 3.568-8 8v24c0 4.432 3.568 8 8 8h24c4.432 0 8-3.568 8-8v-24c0-4.432-3.568-8-8-8zm0 1h24c3.878 0 7 3.122 7 7v24c0 3.878-3.122 7-7 7h-24c-3.878 0-7-3.122-7-7v-24c0-3.878 3.122-7 7-7z" fill-rule="evenodd" opacity=".4" style="paint-order:stroke fill markers"/><g fill="#71b9e3" stroke-width=".63861"><path d="m27.732 15.815s3.8458 2.729 5.5285 4.2246c0.30319 0.26949 0.38966 0.68191 0.38966 0.68191l0.77929 3.4419s1.6288 1.4277 2.8207 2.298c0.44812 0.32722 1.1794 0.7268 0.58448 1.5586-0.65707 0.91864-1.3092 0.22931-1.7859-0.12989-1.1164-0.84117-1.7787-1.4707-2.8207-2.2656-0.47057-0.35893-0.48707-0.8118-0.48707-0.8118l-0.55201-2.6627-3.6693 4.2214s2.0745 2.9839 3.1498 4.4486c0.39034 0.53172 0.62492 1.2363 0.03249 1.8834-1.1784 1.287-3.9402 3.9104-3.9402 3.9104l0.03247-3.2875 1.4724-1.5645-1.5049-1.976z"/><rect x="26" y="10" width="2" height="28" ry="1" style="paint-order:stroke fill markers"/><circle cx="33.156" cy="14.841" r="2.8413" style="paint-order:stroke fill markers"/></g><style type="text/css">.st0{fill:#FFFFFF;}</style><style type="text/css">.st0{fill:#FFFFFF;}</style><g fill="#f6a559" stroke-linecap="round" stroke-linejoin="round" stroke-width="4"><rect x="20" y="10" width="2" height="28" ry="1" style="paint-order:stroke fill markers"/><path d="m21 12h-10v4h2l3 8-3 8h-2v4h10v-4h-6l3-8-3-8h6z" style="paint-order:stroke fill markers"/><path d="m16.5 31h4.5v-3h-3.5z" style="paint-order:stroke fill markers"/><path d="m17.5 20h3.5v4h-2z" style="paint-order:stroke fill markers"/></g></svg>
