<?xml version="1.0" encoding="UTF-8"?>
<!-- Created with Inkscape (http://www.inkscape.org/) -->
<svg id="SVGRoot" width="48px" height="48px" version="1.1" viewBox="0 0 48 48" xml:space="preserve" xmlns="http://www.w3.org/2000/svg" xmlns:cc="http://creativecommons.org/ns#" xmlns:dc="http://purl.org/dc/elements/1.1/" xmlns:rdf="http://www.w3.org/1999/02/22-rdf-syntax-ns#"><defs><style>.cls-1{fill:none;stroke:#fff;stroke-linecap:round;stroke-linejoin:round;}</style><style>.cls-1{fill:none;stroke:#fff;stroke-linecap:round;stroke-linejoin:round;}</style><style>.cls-1{fill:none;stroke:#fff;stroke-linecap:round;stroke-linejoin:round;}</style><style>.cls-1{fill:none;stroke:#fff;stroke-linecap:round;stroke-linejoin:round;}</style><style>.cls-1{fill:none;stroke:#fff;stroke-linecap:round;stroke-linejoin:round;}</style></defs><metadata><rdf:RDF><cc:Work rdf:about=""><dc:format>image/svg+xml</dc:format><dc:type rdf:resource="http://purl.org/dc/dcmitype/StillImage"/></cc:Work></rdf:RDF></metadata><rect x="4" y="4" width="40" height="40" ry="8" fill="#4e4e4e" fill-rule="evenodd" style="paint-order:stroke fill markers"/><path d="m24 10c-4.7769 0-8.9796 2.3685-11.504 6h15.504v-5.4238c-1.2665-0.37441-2.6089-0.57617-4-0.57617zm-12.662 8c-0.58729 1.2426-0.99678 2.5867-1.1973 4h8.1992c0.82018-2.3349 3.0381-4 5.6602-4h-12.662zm12.662 0c1.5395 0 2.94 0.57494 4 1.5215v-1.5215h-4zm-14 6c0 1.391 0.20177 2.7335 0.57617 4h7.4238v-4h-8zm1.3379 6c0.33124 0.70088 0.71996 1.3695 1.1582 2h5.5039v-2h-6.6621zm2.8457 4c1.1073 1.0871 2.3955 1.9905 3.8164 2.6621v-2.6621h-3.8164z" fill="#f6a559" stroke-linecap="round" stroke-linejoin="round" stroke-width="4" style="paint-order:stroke fill markers"/><path d="m24 38c-1.3911 0-2.7335-0.20176-4-0.57617v-8.9395l8.709 8.7109c-1.4703 0.52177-3.0554 0.80469-4.709 0.80469zm6.668-1.6758-6.3242-6.3242h12.318c-1.2737 2.695-3.3815 4.9129-5.9941 6.3242zm-2.1836-8.3242 8.7109-8.709c0.52177 1.4703 0.80469 3.0554 0.80469 4.709 0 1.3911-0.20176 2.7335-0.57617 4zm1.5156-4.3438v-12.318c2.695 1.2737 4.9129 3.3815 6.3242 5.9941z" fill="#71b9e3" stroke-linecap="round" stroke-linejoin="round" stroke-width="4" style="paint-order:stroke fill markers"/><path d="m12 4c-4.432 0-8 3.568-8 8v24c0 4.432 3.568 8 8 8h24c4.432 0 8-3.568 8-8v-24c0-4.432-3.568-8-8-8zm0 1h24c3.878 0 7 3.122 7 7v24c0 3.878-3.122 7-7 7h-24c-3.878 0-7-3.122-7-7v-24c0-3.878 3.122-7 7-7z" fill-rule="evenodd" opacity=".4" style="paint-order:stroke fill markers"/><style type="text/css">.st0{fill:#FFFFFF;}</style></svg>
