<?xml version="1.0" encoding="UTF-8"?>
<!-- Created with Inkscape (http://www.inkscape.org/) -->
<svg id="SVGRoot" width="48px" height="48px" version="1.1" viewBox="0 0 48 48" xmlns="http://www.w3.org/2000/svg" xmlns:cc="http://creativecommons.org/ns#" xmlns:dc="http://purl.org/dc/elements/1.1/" xmlns:rdf="http://www.w3.org/1999/02/22-rdf-syntax-ns#">
 <defs id="defs815">
  <style id="style819">.cls-1{fill:none;stroke:#fff;stroke-linecap:round;stroke-linejoin:round;}</style>
 </defs>
 <metadata id="metadata818">
  <rdf:RDF>
   <cc:Work rdf:about="">
    <dc:format>image/svg+xml</dc:format>
    <dc:type rdf:resource="http://purl.org/dc/dcmitype/StillImage"/>
    <dc:title/>
   </cc:Work>
  </rdf:RDF>
 </metadata>
 <g id="layer1">
  <rect id="rect1373" x="4" y="4" width="40" height="40" ry="8" fill="#627ad4" fill-rule="evenodd" style="paint-order:stroke fill markers"/>
  <path id="rect817" d="m12 4c-4.432 0-8 3.568-8 8v24c0 4.432 3.568 8 8 8h24c4.432 0 8-3.568 8-8v-24c0-4.432-3.568-8-8-8h-24zm0 1h24c3.878 0 7 3.122 7 7v24c0 3.878-3.122 7-7 7h-24c-3.878 0-7-3.122-7-7v-24c0-3.878 3.122-7 7-7z" fill-rule="evenodd" opacity=".3" style="paint-order:stroke fill markers"/>
  <g id="layer1-4" transform="matrix(1.4384 0 0 1.4304 -10.878 -9.1372)">
   <path id="rect847" d="m25.656 13.416c-1.6184 0.04689-3.2998 0.60412-4.497 1.658-2.5482 2.243-3.2337 6.1766-1.5065 8.6399 0.53169 0.75828 0.54098 0.89858 0.05732 0.89858-0.6157 0-2.1182-1.6859-2.3969-2.6896-0.51726-1.8632-0.09091-3.9743 1.1463-5.6821 1.1193-1.5452 0.32224-1.9956-1.2445-0.70413-1.882 1.5513-2.6982 4.6495-1.9261 7.3053 0.4711 1.6205 2.0935 3.3941 3.7908 4.1449 1.1584 0.51242 3.1815 0.67117 4.4479 0.34797 0.98089-0.25034 1.0479 0.30607 0.11667 0.96818-1.1347 0.80678-2.4026 1.0605-3.797 0.76144-1.6153-0.34643-2.5252-0.92694-3.9484-2.5238-0.95638-1.073-1.1901-1.2343-1.3182-0.90063-0.29125 0.75898 0.37772 2.2649 1.5126 3.3999 2.1627 2.1627 5.2752 2.7081 7.9173 1.3878 2.219-1.1089 3.4717-2.8512 3.887-5.4079 0.17744-1.0922 0.74151-1.1837 0.94975-0.0655 0.47725 2.5626-0.61679 5.0633-3.4961 6.9164-0.48179 0.31009-1.1325 0.43112-1.3571 0.43394-0.47104 0.0058-0.54678 0.37136-0.11667 0.56289 0.55394 0.24668 2.2751-0.08301 3.3958-0.65091 2.2979-1.1644 3.7658-3.4595 3.7745-5.9053 0.0094-2.6733-1.4229-5.1003-3.6783-6.2348-1.5936-0.80163 0.23057-1.1706 1.9425-0.393 0.51825 0.23541 1.3653 0.91006 1.8831 1.4983 0.9884 1.1229 1.4236 2.2135 1.6518 4.1408 0.17452 1.4736 0.62992 1.2099 1.0009-0.57722 0.31037-1.495 0.03232-2.975-0.87402-4.6403-1.2565-2.3086-3.299-3.3235-6.3249-3.144-1.9716 0.11698-2.8408 0.47344-4.2493 1.746-0.50901 0.45986-0.99905 0.76332-1.0889 0.67342-0.31165-0.31166 0.99749-2.3425 1.9261-2.9885 1.453-1.0106 3.1994-1.2827 5.1459-0.80238 1.947 0.48048 2.3695 0.2485 1.398-0.76553-0.95006-0.99165-2.5061-1.4551-4.1245-1.4083z" fill="#fff" fill-rule="evenodd" stroke-width="1.048" style="paint-order:normal"/>
  </g>
 </g>
</svg>
