<?xml version="1.0" encoding="UTF-8"?>
<!-- Created with Inkscape (http://www.inkscape.org/) -->
<svg id="SVGRoot" width="48px" height="48px" version="1.1" viewBox="0 0 48 48" xmlns="http://www.w3.org/2000/svg" xmlns:cc="http://creativecommons.org/ns#" xmlns:dc="http://purl.org/dc/elements/1.1/" xmlns:rdf="http://www.w3.org/1999/02/22-rdf-syntax-ns#">
 <defs>
  <style>.cls-1{fill:none;stroke:#fff;stroke-linecap:round;stroke-linejoin:round;}</style>
 </defs>
 <metadata>
  <rdf:RDF>
   <cc:Work rdf:about="">
    <dc:format>image/svg+xml</dc:format>
    <dc:type rdf:resource="http://purl.org/dc/dcmitype/StillImage"/>
   </cc:Work>
  </rdf:RDF>
 </metadata>
 <rect x="4" y="4" width="40" height="40" ry="8" fill="#AE8A57" fill-rule="evenodd" style="paint-order:stroke fill markers"/>
 <path d="m12 4c-4.432 0-8 3.568-8 8v24c0 4.432 3.568 8 8 8h24c4.432 0 8-3.568 8-8v-24c0-4.432-3.568-8-8-8zm0 1h24c3.878 0 7 3.122 7 7v24c0 3.878-3.122 7-7 7h-24c-3.878 0-7-3.122-7-7v-24c0-3.878 3.122-7 7-7z" fill-rule="evenodd" opacity=".3" style="paint-order:stroke fill markers"/>
 <g>
  <path d="m12 6c-3.324 0-6 2.676-6 6v12h36v-12c0-3.324-2.676-6-6-6z" fill-rule="evenodd" opacity=".4" style="paint-order:stroke fill markers"/>
  <g stroke-linecap="round" stroke-linejoin="round" stroke-width="2">
   <path d="m9 30c-0.554 0-1 0.446-1 1v6c0 0.554 0.446 1 1 1h6c0.554 0 1-0.446 1-1v-6c0-0.554-0.446-1-1-1h-6zm0 1h6v6h-6v-6z" opacity=".4" style="paint-order:stroke fill markers"/>
   <path d="m19 30c-0.554 0-1 0.446-1 1v6c0 0.554 0.446 1 1 1h6c0.554 0 1-0.446 1-1v-6c0-0.554-0.446-1-1-1h-6zm0 1h6v6h-6v-6z" opacity=".4" style="paint-order:stroke fill markers"/>
   <path d="m12 32c-1.108 0-2 0.892-2 2s0.892 2 2 2 2-0.892 2-2-0.892-2-2-2zm0 1c0.554 0 1 0.446 1 1s-0.446 1-1 1-1-0.446-1-1 0.446-1 1-1z" opacity=".4" style="paint-order:stroke fill markers"/>
   <path d="m21 32c-0.277 0-0.5 0.223-0.5 0.5v2.5c-0.277 0-0.5 0.223-0.5 0.5s0.223 0.5 0.5 0.5h0.5 2 0.5c0.277 0 0.5-0.223 0.5-0.5s-0.223-0.5-0.5-0.5v-2.5c0-0.277-0.223-0.5-0.5-0.5s-0.5 0.223-0.5 0.5v2.5h-1v-2.5c0-0.277-0.223-0.5-0.5-0.5z" opacity=".4" style="paint-order:stroke fill markers"/>
  </g>
 </g>
 <path d="m7 23v-8l5-5 3 4 4-1 5 3 5-5 4 4 5-2 3 5v5z" fill="#d8bea4" stroke-linecap="round" stroke-linejoin="round" stroke-width="2" style="paint-order:stroke fill markers"/>
 <path d="m41 23v-2l-5-5-3 5-4-3-5 3-5-5-4 4-5-2-3 5z" fill="#ac826d" opacity=".5" stroke-linecap="round" stroke-linejoin="round" stroke-width="2" style="paint-order:stroke fill markers"/>
</svg>
