<?xml version="1.0" encoding="UTF-8"?>
<!-- Created with Inkscape (http://www.inkscape.org/) -->
<svg id="SVGRoot" width="48px" height="48px" version="1.1" viewBox="0 0 48 48" xmlns="http://www.w3.org/2000/svg" xmlns:cc="http://creativecommons.org/ns#" xmlns:dc="http://purl.org/dc/elements/1.1/" xmlns:rdf="http://www.w3.org/1999/02/22-rdf-syntax-ns#">
 <defs id="defs815">
  <style id="style819">.cls-1{fill:none;stroke:#fff;stroke-linecap:round;stroke-linejoin:round;}</style>
  <style id="style819-3">.cls-1{fill:none;stroke:#fff;stroke-linecap:round;stroke-linejoin:round;}</style>
  <style id="style819-1">.cls-1{fill:none;stroke:#fff;stroke-linecap:round;stroke-linejoin:round;}</style>
 </defs>
 <metadata id="metadata818">
  <rdf:RDF>
   <cc:Work rdf:about="">
    <dc:format>image/svg+xml</dc:format>
    <dc:type rdf:resource="http://purl.org/dc/dcmitype/StillImage"/>
    <dc:title/>
   </cc:Work>
  </rdf:RDF>
 </metadata>
 <g id="layer1">
  <rect id="rect1373-5" x="4" y="4" width="40" height="40" ry="8" fill="#256b71" fill-rule="evenodd" style="paint-order:stroke fill markers"/>
  <path id="rect817" d="m12 4c-4.432 0-8 3.568-8 8v24c0 4.432 3.568 8 8 8h24c4.432 0 8-3.568 8-8v-24c0-4.432-3.568-8-8-8h-24zm0 1h24c3.878 0 7 3.122 7 7v24c0 3.878-3.122 7-7 7h-24c-3.878 0-7-3.122-7-7v-24c0-3.878 3.122-7 7-7z" fill-rule="evenodd" opacity=".3" style="paint-order:stroke fill markers"/>
  <path id="path906" d="m23.77 6.7754c-1.8571 0.067797-3.4566 0.57231-5.3574 0.80859-0.26272 0.032657-0.92305-0.051667-1.168 0.048828-3.241 1.3298-4.3807 5.7563-5.1152 9.1816-0.49254 2.2967 0.10474 5.7489 0.38086 6.9746 0.26148 1.1608-0.27076 2.432-0.0625 3.6035 0.36738 2.0666 0.7835 4.2224 2.6367 5.7188 0.96917 0.78252 2.3954 0.69684 3.1133 1.7148 0.57687 0.81809 0.23439 1.9496 0.57031 2.8926 0.63834 1.7919 2.3535 2.0957 2.3535 2.0957s0.62984 0.22618 1.6191 0.12695c-0.43348 0.32188-1.1816 0.41406-1.1816 0.41406s0.81927 1.4452 2.541 1.6445h0.68945c1.2939-0.196 2.0391-1.4863 2.0391-1.4863 0 0-0.73451-0.02344-1.0371-0.38086 0.9751 0.035131 1.4609-0.064453 1.4609-0.064453s2.251-0.93345 2.4766-2.0957c0.25221-1.2997-0.655-1.6921-0.25391-2.3828 0.85812-1.4777 3.1282-1.5825 4.9883-3.8125 2.3654-2.8358 1.3672-5.2109 1.3672-5.2109s0.10566-2.1911 0.2832-3.2715c0.13078-0.7958 0.62401-1.5448 0.57227-2.3496-0.28968-4.506 0.4289-9.0103-4.8594-12.645-0.35878-0.24656-0.89814 0.064975-1.3027-0.095703-2.1473-0.85275-3.906-1.355-5.9414-1.4297-0.27749-0.010182-0.5472-0.0096852-0.8125 0zm-7.3203 3.082c0-1.3e-6 -1.4962 3.4855-1.6504 6.543-0.31353 6.2175-0.79297 8.1641-0.79297 8.1641s0.022067-2.0682-0.095703-2.4141c-0.06628-0.19464-0.60547-0.12695-0.60547-0.12695 0 0 0.55264-0.89644 0.63476-1.3965 0.27238-1.6586 0.32138-4.0127 0.66797-6.0059 0.43148-2.4814 1.8418-4.7637 1.8418-4.7637zm16.33 0.79492s1.425 2.3666 1.4609 4.3516c0.03773 2.086-0.34343 4.2162 0.095704 6.2559 0.14575 0.67694 0.82617 1.9082 0.82617 1.9082l-0.79492-0.95312 0.34961 2.1914s-0.67996-1.8572-0.82617-2.8281c-0.32171-2.1364 0.029157-4.3747-0.095703-6.4785-0.12746-2.1476-1.0156-4.4473-1.0156-4.4473zm-16.107 7.5293c0.69402 3.1872 1.3706 3.6866 2.7012 4.9551-1.7687-0.64923-2.542-0.79292-2.9883-0.73047 0.72314-2.0923 0.27423-3.0648 0.28711-4.2246zm7.4863 2.1914s4.5192 0.31927 6.0664 0.53711c0.6122 0.0862 1.7734-0.53711 1.7734-0.53711s-1.28 0.68234-1.3242 1.5254c-0.0016-0.0052-0.40746-0.64151-0.74219-0.69531-1.7519-0.28158-5.7734-0.83008-5.7734-0.83008zm-0.28711 1.4062c0.43717-0.0016 0.85517 0.0064 1.1875 0.03125 1.3098 0.09791 3.8848 0.65039 3.8848 0.65039s-2.5926 0.027993-3.8848-0.066407c-1.3404-0.09791-3.998-0.51758-3.998-0.51758 0 0 1.499-0.092676 2.8105-0.097656zm-3.7109 0.41211s0.5974 0.52962 1.5293 0.65234c0.88093 0.116 2.6055 0.56055 2.6055 0.56055s-1.8585 0.12793-2.7637-0.042969c-1.1231-0.21205-1.3711-1.1699-1.3711-1.1699zm2.3379 2.7637c2.2618 2.4518 2.4965 1.7614 5.0078 0-2.9564 2.7497-2.9434 4.9629-2.9434 4.9629s-0.16561 1.0982 1.5293 2.5625c-1.1932-0.4923-1.5808-0.31162-3.3477 0.22656 1.5426-1.7061 1.5508-2.7891 1.5508-2.7891s0.3598-1.9497-1.7969-4.9629zm10.344 9.0781s-0.44167 4.7334-2.7383 7.9668h3.1152c2.0334-4.0654 1.3086-7.0781 1.3086-7.0781s-0.23363-0.5033-0.92188-0.79492c-0.23583-0.09993-0.76367-0.09375-0.76367-0.09375zm-17.154 0.03125s-0.90355 0.03013-1.2695 0.22266c-0.66399 0.3493-0.79492 1.1113-0.79492 1.1113 0 0 0.75856 4.5078 2.0039 6.6016h2.916c-0.13603-0.21015-0.27646-0.42232-0.4082-0.62891-2.5942-4.0679-2.4473-7.3066-2.4473-7.3066zm4.9902 2.8867 0.30469 0.57422 0.41992-0.25391s1.4366 0.85854 2.8926 0.87109c1.1335 0.0098 2.1622-0.71984 3.2812-0.90039 0.53322-0.08602 1.1875 0.90039 1.1875 0.90039s-0.48548-0.18536-0.98828-0.091797c-0.38258 0.0712-0.57745 0.48769-1.0117 0.58398-0.37993 0.08424-0.82502-0.053085-1.2129-0.021485-0.34241 0.0279-0.61936 0.36286-0.96289 0.35938-0.34621-0.0035-0.62078-0.36864-0.9668-0.38086-0.2982-0.01054-0.85547 0.26758-0.85547 0.26758l-0.44922-0.56055-0.49219 0.38086-0.22461-0.74024-0.51758 0.51562-0.26953-0.83008-0.76367 0.38086s-0.26951-0.20053-0.67578-0.44726c0.68789-0.29795 1.3047-0.60742 1.3047-0.60742z" fill="#efefef"/>
  <path id="path908" d="m17.467 34.699s-0.36213 1.4286 0.81445 4.0254c0.46307 1.022 1.1782 2.2006 1.9941 3.2754h1.4219c-0.60385-0.91907-0.95898-1.8359-0.95898-1.8359 0 1e-6 -1.207 0.01342-2.2871-2.0977-0.43627-0.85267-0.23132-1.9891-0.34961-2.8594-0.036529-0.26875-0.63476-0.50781-0.63476-0.50781zm13.375 0.064453s-0.70698 0.43009-0.82617 0.79297c-0.17072 0.51979 0.43692 1.5556-0.12695 2.8594-0.50503 1.1677-1.875 1.6211-1.875 1.6211s-0.44445 0.99085-1.1621 1.9629h1.4297c0.82673-1.1104 1.5467-2.333 1.9648-3.3828 0.69321-1.7402 0.5957-3.8535 0.5957-3.8535z" fill="#fff"/>
  <path id="path910" d="m31.953 34.127-0.73047 0.50977s0.51202 2.0298-1.0781 5.0703c-0.3942 0.75375-0.8606 1.5437-1.375 2.293h0.92578c0.56591-0.84296 1.0573-1.7178 1.4082-2.5508 1.461-3.4678 0.84961-5.3223 0.84961-5.3223zm-15.273 0.015625c-2e-6 0-1.054 1.1614 0.88086 5.4414 0.35671 0.78906 0.81348 1.6172 1.3301 2.416h0.88086c-0.73698-1.0218-1.3785-2.1103-1.7871-3.0801-1.165-2.7652-0.89844-4.5059-0.89844-4.5059l-0.40625-0.27148z" fill="#71e3de"/>
  <path id="path930" d="m14.792 26.685s-0.39387-0.27962-0.11232-0.80869c0.30862-0.57994 3.2344 0.14014 4.6724 1.6623 1.0839 1.1473 2.9557 3.4161 2.5384 4.0435-0.36519 0.5491-0.85362 0.2471-0.85362 0.2471s-2.1753 1.2671-4.2906-0.26956c-2.9616-2.1515-1.9543-4.8746-1.9543-4.8746z" fill="#256b71"/>
  <path id="rect1015" d="m18.771 27.023c-0.9982 0.11401-1.7715 0.94685-1.7715 1.9766 0 1.108 0.892 2 2 2 0.95358 0 1.7426-0.66227 1.9453-1.5527-0.51648-0.69627-1.1221-1.409-1.5938-1.9082-0.17387-0.18404-0.36997-0.35592-0.58008-0.51562z" fill="#71e3de" fill-rule="evenodd" opacity=".3" style="paint-order:stroke fill markers"/>
  <path id="path932" d="m27.439 31.694c-0.45176-0.38104-0.21554-1.0266 0.4942-1.4377 0.68134-0.39462 1.4005-0.74665 1.9993-1.258 0.96847-0.82705 1.5833-1.8291 2.2239-2.6507 0.29899-0.38347 1.5642-0.91665 1.3927-0.15725-0.07104 0.31468-0.31449 0.33696-0.31449 0.33696s1.0923 2.5094-0.76376 4.4253c-1.6941 1.7488-3.8656 1.725-5.0318 0.7413z" fill="#256b71"/>
  <rect id="rect995" x="18" y="28" width="2" height="2" ry="1" fill="#71e3de" fill-rule="evenodd" style="paint-order:stroke fill markers"/>
  <path id="rect997" d="m30.67 28.268c-0.22464 0.25206-0.46428 0.49815-0.73633 0.73047-0.23546 0.20107-0.49278 0.37498-0.75586 0.53906 0.17825 0.27256 0.47092 0.46289 0.82227 0.46289 0.554 0 1-0.446 1-1 0-0.29328-0.13024-0.54982-0.33008-0.73242z" fill="#71e3de" fill-rule="evenodd" style="paint-order:stroke fill markers"/>
  <path id="rect1015-1" d="m31.303 27.49c-0.39166 0.51793-0.81862 1.0377-1.3691 1.5078-0.49202 0.42018-1.066 0.73176-1.6328 1.0488 0.35154 0.57041 0.97726 0.95312 1.6992 0.95312 1.108 0 2-0.892 2-2 0-0.60698-0.27301-1.1436-0.69727-1.5098z" fill="#71e3de" fill-rule="evenodd" opacity=".3" style="paint-order:stroke fill markers"/>
 </g>
</svg>
