<?xml version="1.0" encoding="UTF-8"?>
<!-- Created with Inkscape (http://www.inkscape.org/) -->
<svg id="SVGRoot" width="48px" height="48px" version="1.1" viewBox="0 0 48 48" xml:space="preserve" xmlns="http://www.w3.org/2000/svg" xmlns:cc="http://creativecommons.org/ns#" xmlns:dc="http://purl.org/dc/elements/1.1/" xmlns:rdf="http://www.w3.org/1999/02/22-rdf-syntax-ns#"><defs><style>.cls-1{fill:none;stroke:#fff;stroke-linecap:round;stroke-linejoin:round;}</style></defs><metadata><rdf:RDF><cc:Work rdf:about=""><dc:format>image/svg+xml</dc:format><dc:type rdf:resource="http://purl.org/dc/dcmitype/StillImage"/></cc:Work></rdf:RDF></metadata><rect x="4" y="4" width="40" height="40" ry="8" fill="#832833" fill-rule="evenodd" style="paint-order:stroke fill markers"/><g stroke-linecap="round" stroke-linejoin="round" stroke-width="2"><path d="m31 4-4.8828 11.385 4.6777 4.5312 13.205-3.916v-4c0-4.432-3.568-8-8-8h-5zm-23.004 1.0645c-2.3923 1.3799-3.9961 3.9644-3.9961 6.9355v15l12.789-3.3789 2.709-6.2695-11.5-12.287h-0.0019531zm20.088 21.641-7.3438 1.9961-6.7402 15.299h22c2.2656 0 4.305-0.93199 5.7578-2.4355l-13.674-14.859z" opacity=".3" style="paint-order:stroke fill markers"/><path d="m31 4-1.7444 4.0673 11.706 8.8338-5.6384 17.67-18.988 4.1291-8.3841-12.745 6.7635-13.715-2.1686-2.3167-8.5458 15.376v3.2441l10 15.455 25.185-5.2323 4.8153-14.143v-10.875z" fill="#de4659" style="paint-order:stroke fill markers"/><path d="m44 16-3.0391 0.90039-5.6387 17.67v0.001954l3.8613 4.1953h0.001953l4.8145-14.143v-8.625zm-36.049 9.9551-3.9512 1.0449v1.5449l10 15.455 2.3359-5.3008-8.3848-12.744z" opacity=".15" style="paint-order:stroke fill markers"/></g><path d="m12 4c-4.432 0-8 3.568-8 8v24c0 4.432 3.568 8 8 8h24c4.432 0 8-3.568 8-8v-24c0-4.432-3.568-8-8-8zm0 1h24c3.878 0 7 3.122 7 7v24c0 3.878-3.122 7-7 7h-24c-3.878 0-7-3.122-7-7v-24c0-3.878 3.122-7 7-7z" fill-rule="evenodd" opacity=".3" style="paint-order:stroke fill markers"/><path d="m17.379 23.691 2.7029-5.9241 6.1104-1.7009 3.9766 3.732-2.3903 6.1667-6.9997 1.7884z" opacity=".3" stroke-linecap="round" stroke-linejoin="round" stroke-width="2.1185" style="paint-order:stroke fill markers"/><path d="m26.117 15.385-6.6191 1.9668-2.7089 6.269 3.9517 5.0812 7.3431-1.9962 2.7111-6.7895zm-0.06055 1.0081 3.7541 3.5232-2.2565 5.8217-6.6081 1.6883-3.2097-3.8348 2.5517-5.5927z" fill="#de4659" stroke-linecap="round" stroke-linejoin="round" stroke-width="2" style="paint-order:stroke fill markers"/></svg>
