<?xml version="1.0" encoding="UTF-8"?>
<!-- Created with Inkscape (http://www.inkscape.org/) -->
<svg id="SVGRoot" width="48px" height="48px" version="1.1" viewBox="0 0 48 48" xml:space="preserve" xmlns="http://www.w3.org/2000/svg" xmlns:cc="http://creativecommons.org/ns#" xmlns:dc="http://purl.org/dc/elements/1.1/" xmlns:rdf="http://www.w3.org/1999/02/22-rdf-syntax-ns#"><defs><style>.cls-1{fill:none;stroke:#fff;stroke-linecap:round;stroke-linejoin:round;}</style><style>.cls-1{fill:none;stroke:#fff;stroke-linecap:round;stroke-linejoin:round;}</style></defs><metadata><rdf:RDF><cc:Work rdf:about=""><dc:format>image/svg+xml</dc:format><dc:type rdf:resource="http://purl.org/dc/dcmitype/StillImage"/></cc:Work></rdf:RDF></metadata><rect x="4" y="4" width="40" height="40" ry="8" fill="#f6a559" fill-rule="evenodd" style="paint-order:stroke fill markers"/><path d="m21 10s-1.1675-0.027577-2.3945 0.58594c-1.227 0.61351-2.6055 2.2474-2.6055 4.4141v6c0 1.7722 0.77538 3.0257 1.6914 4h-1.6914v13h16v-13c0-1.7722-0.77538-3.0257-1.6914-4h1.6914v-6c0-2.1667-1.3784-3.8006-2.6055-4.4141-1.227-0.61351-2.3945-0.58594-2.3945-0.58594z" fill="#363340" stop-color="#000000" stroke-linecap="round" style="paint-order:stroke fill markers"/><path d="m12 4c-4.432 0-8 3.568-8 8v24c0 4.432 3.568 8 8 8h24c4.432 0 8-3.568 8-8v-24c0-4.432-3.568-8-8-8zm0 1h24c3.878 0 7 3.122 7 7v24c0 3.878-3.122 7-7 7h-24c-3.878 0-7-3.122-7-7v-24c0-3.878 3.122-7 7-7z" fill-rule="evenodd" opacity=".3" style="paint-order:stroke fill markers"/><path d="m18 27h5v2h2v-4h-3s-4 0-4-4v-6c0-3 3-3 3-3h6s3 0 3 3v4h-5v-2h-2v4h3s4 0 4 4v9h-12z" fill="#e4f2fa" stop-color="#000000" stroke-linecap="round" style="paint-order:stroke fill markers"/></svg>
