<?xml version="1.0" encoding="UTF-8"?>
<!-- Created with Inkscape (http://www.inkscape.org/) -->
<svg id="SVGRoot" width="48px" height="48px" version="1.1" viewBox="0 0 48 48" xml:space="preserve" xmlns="http://www.w3.org/2000/svg" xmlns:cc="http://creativecommons.org/ns#" xmlns:dc="http://purl.org/dc/elements/1.1/" xmlns:rdf="http://www.w3.org/1999/02/22-rdf-syntax-ns#"><defs><style>.cls-1{fill:none;stroke:#fff;stroke-linecap:round;stroke-linejoin:round;}</style><style>.cls-1{fill:none;stroke:#fff;stroke-linecap:round;stroke-linejoin:round;}</style><style>.cls-1{fill:none;stroke:#fff;stroke-linecap:round;stroke-linejoin:round;}</style></defs><metadata><rdf:RDF><cc:Work rdf:about=""><dc:format>image/svg+xml</dc:format><dc:type rdf:resource="http://purl.org/dc/dcmitype/StillImage"/></cc:Work></rdf:RDF></metadata><rect x="4" y="4" width="40" height="40" ry="8" fill="#7d314b" fill-rule="evenodd" style="paint-order:stroke fill markers"/><rect x="10" y="10" width="28" height="28" ry="14" fill="#f95b94" stroke-linecap="round" stroke-linejoin="round" stroke-width="2"/><path d="m12 4c-4.432 0-8 3.568-8 8v24c0 4.432 3.568 8 8 8h24c4.432 0 8-3.568 8-8v-24c0-4.432-3.568-8-8-8zm0 1h24c3.878 0 7 3.122 7 7v24c0 3.878-3.122 7-7 7h-24c-3.878 0-7-3.122-7-7v-24c0-3.878 3.122-7 7-7z" fill-rule="evenodd" opacity=".3" style="paint-order:stroke fill markers"/><rect x="12" y="12" width="24" height="24" ry="12" fill="#903957" stroke-linecap="round" stroke-linejoin="round" stroke-width="2"/><g fill="#f95b94" stroke-linecap="round" stroke-linejoin="round"><path d="m14.826 28c0.51752 1.191 1.2599 2.26 2.1738 3.1543v-3.1543h-2.1738zm4.1738 0v4.6699c0.62656 0.36089 1.2963 0.65543 2 0.875v-5.5449h-2zm4 0v5.9512c0.32881 0.032359 0.6624 0.048828 1 0.048828s0.67119-0.016469 1-0.048828v-5.9512h-2zm4 0v5.5449c0.70366-0.21957 1.3734-0.51411 2-0.875v-4.6699h-2zm4 0v3.1543c0.91395-0.89426 1.6563-1.9633 2.1738-3.1543h-2.1738z" stroke-width="2"/><rect x="14" y="16" width="10" height="10" ry="5" stroke-width="1.6"/><rect x="26" y="18" width="8" height="8" ry="4" stroke-width="2.6667"/></g><rect x="16" y="18" width="6" height="6" ry="3" fill="#fff" stroke-linecap="round" stroke-linejoin="round" stroke-width="2"/><rect x="28" y="20" width="4" height="4" ry="2" fill="#fff" stroke-linecap="round" stroke-linejoin="round" stroke-width="2"/><g fill="#f95b94" stroke-linecap="round" stroke-linejoin="round" stroke-width="2"><path d="m6 23 3-2v6l-3-2z"/><path d="m7.951 14.549 4.0981-1.0981-3 5.1962z"/><path d="m40.049 14.549-4.0981-1.0981 3 5.1962z"/><path d="m24 6 3 3-6-3e-7z"/></g></svg>
