<?xml version="1.0" encoding="UTF-8"?>
<!-- Created with Inkscape (http://www.inkscape.org/) -->
<svg id="SVGRoot" width="48px" height="48px" version="1.1" viewBox="0 0 48 48" xml:space="preserve" xmlns="http://www.w3.org/2000/svg" xmlns:cc="http://creativecommons.org/ns#" xmlns:dc="http://purl.org/dc/elements/1.1/" xmlns:rdf="http://www.w3.org/1999/02/22-rdf-syntax-ns#"><defs><style>.cls-1{fill:none;stroke:#fff;stroke-linecap:round;stroke-linejoin:round;}</style><style>.cls-1{fill:none;stroke:#fff;stroke-linecap:round;stroke-linejoin:round;}</style><style>.cls-1{fill:none;stroke:#fff;stroke-linecap:round;stroke-linejoin:round;}</style><style>.cls-1{fill:none;stroke:#fff;stroke-linecap:round;stroke-linejoin:round;}</style><style>.cls-1{fill:none;stroke:#fff;stroke-linecap:round;stroke-linejoin:round;}</style><style>.a{fill:none;stroke:#b1b5bd;stroke-linecap:round;stroke-linejoin:round;isolation:isolate;opacity:0.63;}</style><style>.cls-1{fill:none;stroke:#fff;stroke-linecap:round;stroke-linejoin:round;}</style><style>.cls-1{fill:none;stroke:#fff;stroke-linecap:round;stroke-linejoin:round;}</style><style>.cls-1{fill:none;stroke:#fff;stroke-linecap:round;stroke-linejoin:round;}</style><style>.cls-1{fill:none;stroke:#fff;stroke-linecap:round;stroke-linejoin:round;}</style><style>.cls-1{fill:none;stroke:#fff;stroke-linecap:round;stroke-linejoin:round;}</style><style>.cls-1{fill:none;stroke:#fff;stroke-linecap:round;stroke-linejoin:round;}</style><style>.cls-1{fill:none;stroke:#fff;stroke-linecap:round;stroke-linejoin:round;}</style><style>.a{fill:none;stroke:#b1b5bd;stroke-linecap:round;stroke-linejoin:round;isolation:isolate;opacity:0.63;}</style><style>.cls-1{fill:none;stroke:#fff;stroke-linecap:round;stroke-linejoin:round;}</style><style>.cls-1{fill:none;stroke:#fff;stroke-linecap:round;stroke-linejoin:round;}</style></defs><metadata><rdf:RDF><cc:Work rdf:about=""><dc:format>image/svg+xml</dc:format><dc:type rdf:resource="http://purl.org/dc/dcmitype/StillImage"/></cc:Work></rdf:RDF></metadata><rect x="4" y="4" width="40" height="40" ry="8" fill="#5780d7" fill-rule="evenodd" style="paint-order:stroke fill markers"/><path d="m12 36-6.916 4.0352c1.3842 2.3756 3.9575 3.9648 6.916 3.9648h24c2.9586 0 5.5318-1.5893 6.916-3.9648l-6.916-4.0352h-24z" fill="#d8e6fa" stroke-linecap="round" stroke-linejoin="round"/><path d="m12 4c-4.432 0-8 3.568-8 8v24c0 4.432 3.568 8 8 8h24c4.432 0 8-3.568 8-8v-24c0-4.432-3.568-8-8-8zm0 1h24c3.878 0 7 3.122 7 7v24c0 3.878-3.122 7-7 7h-24c-3.878 0-7-3.122-7-7v-24c0-3.878 3.122-7 7-7z" fill-rule="evenodd" opacity=".3" style="paint-order:stroke fill markers"/><g stroke-linecap="round" stroke-linejoin="round"><rect x="27" y="22" width="4" height="9" fill="#4e4e4e" stroke-width=".93954"/><path d="m24 29-4 2h-5v3l-3 2 3 2v3h5l4 2 4-2h5v-3l3-2-3-2v-3h-5z" fill="#76a6f8"/><path d="m24 30.75-3 1.25h-4v2.5l-2 1.5 2 1.5v1.5h4.0605l3 1.5 3-1.5h3.9395l-0.060547-1.5 2.0605-1.5-2-1.5v-2.5h-4l-3-1.25zm0 1.25 2 1h4v5h-4l-2 1-2-1h-4v-5h4l2-1z" fill="#d8e6fa" opacity=".5" stroke-width=".75"/><path d="m28 29.224v6s-0.2971 1-2 1c0-1 1-1.4472 1-1.4472v-5.5528z" fill="#4e4e4e"/><rect x="14" y="17.132" width="7" height="7" ry="3.5" fill="#e16435"/><g fill="#4e4e4e"><rect x="24" y="9" width="8" height="8" ry="4"/><rect x="30" y="7" width="5" height="5" ry="2.5" stroke-width=".83333"/><path d="m31 29v8s-0.2971 1-2 1c0-1 1-1.4472 1-1.4472v-7.5528z"/></g><path d="m19 29v6s0.2971 1 2 1c0-1-1-1.4472-1-1.4472v-5.5528z" fill="#fff"/><path d="m17 28.776v8s0.2971 1 2 1c0-1-1-1.4472-1-1.4472v-7.5528z" fill="#fff"/><path d="m28.529 18.152a1 1 0 0 0-1.377 0.31836l-5 8a1 1 0 0 0 0.31836 1.377 1 1 0 0 0 1.377-0.31836l5-8a1 1 0 0 0-0.31836-1.377z" fill="#e69a57" stop-color="#000000"/><path d="m27 18-3 12c0 1 3 1 3 1l0.8-8.2224s0.98897 7.6771 2.9205 9.3876c0.84449 0.74785 2.3975 1.0075 3.2795 0.83478 0.11801-1.8273-0.41739-4.7702-0.41739-4.7702s1.5354 0.94286 3.5354 0.94286c0-2-2.164-3.6857-2.164-3.6857s2.0954 1.3589 2.4447 0.59627c-5.2807-3.9106-8.3988-8.0832-8.3988-8.0832z" fill="#e69a57"/><rect x="27" y="15" width="2" height="4" ry="1" fill="#4e4e4e"/><path d="m17.623 24.074a1 1 0 0 0-0.54883 1.3027s0.6678 1.6122 2.4785 2.5176c1.1789 0.58944 2.2112 0.63324 2.9395 0.45117 0.72827-0.18207 1.2148-0.63867 1.2148-0.63867a1 1 0 0 0 0-1.4141 1 1 0 0 0-1.4141 0s-0.01342 0.0434-0.28516 0.11133c-0.27173 0.06793-0.73943 0.11173-1.5605-0.29883-1.1707-0.58536-1.5215-1.4824-1.5215-1.4824a1 1 0 0 0-1.3027-0.54883z" fill="#e16435" stop-color="#000000"/><rect x="22" y="26" width="2" height="2" ry="1" fill="#fff"/><path d="m17 17.132s-4 0-5 4c-0.41223 1.6489 1 5 1 5s1-3 3-3z" fill="#E16435"/><path d="m17.264 23.254s-2.0305 4.6918-3.2637 6.916c-0.45884 0.82757-0.36224 1.4398 0.029297 1.8887l4.9707-3.0586 2.3184 1.5273c-1.0021-3.341-2.5625-7.2148-2.5625-7.2148l-1.4922-0.058594z" fill="#E16435"/></g><g fill="#fff"><path d="m18.756 26.115c-1.1537 2.7424-3.4618 4.9041-4.7266 5.9434 0.7743 0.88748 2.7017 1.1369 3.7715 1.1523 1.4747 0.021335 3.9413-1.2709 3.5176-2.6836-0.25159-0.8388-0.53759-1.7106-0.82617-2.5469-0.54763-0.69115-1.156-1.3795-1.7363-1.8652z" stroke-linecap="round" stroke-linejoin="round"/><path d="m17.781 17.143c-0.49008 0.36775-1.5705 1.4897-0.78125 3.8574 0.60946 1.8284 1.9624 2.1714 2.9258 2.1602 0.66317-0.63617 1.0742-1.5335 1.0742-2.5293 0-1.8446-1.4118-3.3464-3.2188-3.4883z"/><path d="m25.32 10.025c-0.81174 0.7311-1.3203 1.7911-1.3203 2.9746 0 1.9133 1.3295 3.5053 3.1191 3.9043 0.37366-0.3367 1.7448-1.5984 0.89586-4.4492-0.4529-1.5209-1.7398-2.1736-2.6947-2.4297z"/></g></svg>
