<?xml version="1.0" encoding="UTF-8"?>
<!-- Created with Inkscape (http://www.inkscape.org/) -->
<svg id="SVGRoot" width="48px" height="48px" version="1.1" viewBox="0 0 48 48" xmlns="http://www.w3.org/2000/svg" xmlns:cc="http://creativecommons.org/ns#" xmlns:dc="http://purl.org/dc/elements/1.1/" xmlns:rdf="http://www.w3.org/1999/02/22-rdf-syntax-ns#">
 <defs id="defs815">
  <style id="style819">.cls-1{fill:none;stroke:#fff;stroke-linecap:round;stroke-linejoin:round;}</style>
 </defs>
 <metadata id="metadata818">
  <rdf:RDF>
   <cc:Work rdf:about="">
    <dc:format>image/svg+xml</dc:format>
    <dc:type rdf:resource="http://purl.org/dc/dcmitype/StillImage"/>
    <dc:title/>
   </cc:Work>
  </rdf:RDF>
 </metadata>
 <g id="layer1">
  <rect id="rect1373-5" x="4" y="4" width="40" height="40" ry="8" fill="#475aa3" fill-rule="evenodd" style="paint-order:stroke fill markers"/>
  <path id="rect4622" d="m5 30v6c0 3.878 3.122 7 7 7h4v-13h-11zm27 0v13h4c3.878 0 7-3.122 7-7v-6h-11z" fill-rule="evenodd" opacity=".5" style="paint-order:stroke fill markers"/>
  <path id="path49565" d="m6 26s4-12 8-12h20c4 0 8 12 8 12z" opacity=".5" stroke-width="2"/>
  <path id="path49567-8-4-6" d="m14.75 14-5.5508 7.3984a1.0001 1.0001 0 0 0 0.35547 1.4961l3.4453 1.7227v1.3828h4v-2a1.0001 1.0001 0 0 0-0.55469-0.89453l-2.9258-1.4609 5.2812-7.043a1.0001 1.0001 0 0 0 0.19922-0.60156zm14.25 0a1.0001 1.0001 0 0 0 0.19922 0.60156l5.2812 7.043-2.9258 1.4609a1.0001 1.0001 0 0 0-0.55469 0.89453v2h4v-1.3828l3.4453-1.7227a1.0001 1.0001 0 0 0 0.35547-1.4961l-5.5508-7.3984z" color="#000000" color-rendering="auto" dominant-baseline="auto" fill="#4ff4f4" image-rendering="auto" opacity=".3" shape-rendering="auto" solid-color="#000000" style="font-feature-settings:normal;font-variant-alternates:normal;font-variant-caps:normal;font-variant-ligatures:normal;font-variant-numeric:normal;font-variant-position:normal;isolation:auto;mix-blend-mode:normal;shape-padding:0;text-decoration-color:#000000;text-decoration-line:none;text-decoration-style:solid;text-indent:0;text-orientation:mixed;text-transform:none;white-space:normal"/>
  <path id="path49567-8" d="m16 14-6 8 4 2v2h2v-2l-4-2 6-8zm14 0 6 8-4 2v2h2v-2l4-2-6-8z" fill="#77f6f6" stroke-width="2"/>
  <path id="path49584" d="m6 40 6-2h24l6 2v-6h-36z" fill="#678d8d" stroke-width="2"/>
  <path id="path4643" d="m10 36 2 5 4 2h16l4-2 2-5z" fill="#678d8d"/>
  <path id="path49547" d="m4 22v14c0 1.3495 0.33463 2.6175 0.91992 3.7305l1.0801 0.26953 2-4h2l2 4 4 2h16l4-2 2-4h2l2 4 1.0801-0.26953c0.58529-1.113 0.91992-2.381 0.91992-3.7305v-14l-12 4-8-1-8 1-12-4z" fill="#e7fbfe" stroke-width="2"/>
  <path id="path49631" d="m14 34 2 4h2l2 2h8l2-2h2l2-4z" fill="#557677"/>
  <path id="path49547-7" d="m8 35-2 3-1.8496-0.46289c0.15031 0.77814 0.41245 1.5143 0.76953 2.1934l1.0801 0.26953 2-4h2l2 4 4 2h16l4-2 2-4h2l2 4 1.0801-0.26953c0.35708-0.67901 0.61922-1.4152 0.76953-2.1934l-1.8496 0.46289-2-3h-2l-2 3-4 2h-16l-4-2-2-3h-2z" fill="#008080" opacity=".1" stroke-width="2"/>
  <path id="path49586-6" d="m43.992 27.002c-0.077038 7.61e-4 -0.15557 0.009636-0.23438 0.029297l-7.8828 1.9688h-23.75l-7.8828-1.9688c-0.078996-0.020565-0.1607-0.024549-0.24219-0.025391v6.0234l7.7578 1.9395c0.079151 0.02027 0.16049 0.030766 0.24219 0.03125h24c0.0817-4.88e-4 0.16304-0.01099 0.24219-0.03125l7.7578-1.9395v-6.0273c-0.002647 5e-6 -0.005162-2.6e-5 -0.007812 0z" color="#000000" color-rendering="auto" dominant-baseline="auto" image-rendering="auto" opacity=".6" shape-rendering="auto" solid-color="#000000" style="font-feature-settings:normal;font-variant-alternates:normal;font-variant-caps:normal;font-variant-ligatures:normal;font-variant-numeric:normal;font-variant-position:normal;isolation:auto;mix-blend-mode:normal;paint-order:stroke fill markers;shape-padding:0;text-decoration-color:#000000;text-decoration-line:none;text-decoration-style:solid;text-indent:0;text-orientation:mixed;text-transform:none;white-space:normal"/>
  <path id="path49586" d="m4 28v4l8 2v-4z" fill="#fff" stroke-width="2"/>
  <path id="path49586-2" d="m44 28v4l-8 2v-4z" fill="#fff" stroke-width="2"/>
  <rect id="rect49603" x="12" y="30" width="24" height="4" fill="#79f6f6" fill-rule="evenodd" stroke-width="2" style="paint-order:normal"/>
  <path id="rect49725" d="m14 31v2h2.25l0.5-2zm4.75 0-0.5 2h11.5l-0.5-2zm12.5 0 0.5 2h2.25v-2z" fill="#008080" fill-rule="evenodd" opacity=".3" style="paint-order:stroke fill markers"/>
  <path id="path49605" d="m20 34 2-4h4l2 4z" fill="#00a3a3" opacity=".7" stroke-width="2"/>
  <path id="rect817" d="m12 4c-4.432 0-8 3.568-8 8v24c0 4.432 3.568 8 8 8h24c4.432 0 8-3.568 8-8v-24c0-4.432-3.568-8-8-8h-24zm0 1h24c3.878 0 7 3.122 7 7v24c0 3.878-3.122 7-7 7h-24c-3.878 0-7-3.122-7-7v-24c0-3.878 3.122-7 7-7z" fill-rule="evenodd" opacity=".4" style="paint-order:stroke fill markers"/>
 </g>
</svg>
