<?xml version="1.0" encoding="UTF-8"?>
<!-- Created with Inkscape (http://www.inkscape.org/) -->
<svg id="SVGRoot" width="48px" height="48px" version="1.1" viewBox="0 0 48 48" xml:space="preserve" xmlns="http://www.w3.org/2000/svg" xmlns:cc="http://creativecommons.org/ns#" xmlns:dc="http://purl.org/dc/elements/1.1/" xmlns:rdf="http://www.w3.org/1999/02/22-rdf-syntax-ns#"><defs><style>.cls-1{fill:none;stroke:#fff;stroke-linecap:round;stroke-linejoin:round;}</style><style>.cls-1{fill:none;stroke:#fff;stroke-linecap:round;stroke-linejoin:round;}</style><style>.cls-1{fill:none;stroke:#fff;stroke-linecap:round;stroke-linejoin:round;}</style></defs><metadata><rdf:RDF><cc:Work rdf:about=""><dc:format>image/svg+xml</dc:format><dc:type rdf:resource="http://purl.org/dc/dcmitype/StillImage"/></cc:Work></rdf:RDF></metadata><rect x="4" y="4" width="40" height="40" ry="8" fill="#4e4e4e" fill-rule="evenodd" style="paint-order:stroke fill markers"/><path d="m9 8c-0.554 0-1 0.446-1 1v5c0 0.554 0.446 1 1 1h2v1h-3v2h4s1 0 1-1v-9zm1 2h1v3h-1z" opacity=".3" stroke-linecap="round" stroke-linejoin="round" stroke-width="2" style="paint-order:stroke fill markers"/><path d="m12 4c-4.432 0-8 3.568-8 8v24c0 4.432 3.568 8 8 8h24c4.432 0 8-3.568 8-8v-24c0-4.432-3.568-8-8-8zm0 1h24c3.878 0 7 3.122 7 7v24c0 3.878-3.122 7-7 7h-24c-3.878 0-7-3.122-7-7v-24c0-3.878 3.122-7 7-7z" fill-rule="evenodd" opacity=".4" style="paint-order:stroke fill markers"/><path d="m15 8v1h-1v2h1v4s0 1 1 1h3c1 0 1-1 1-1v-3h-2v2h-1v-3h3v-2h-3v-1z" opacity=".3" stroke-linecap="round" stroke-linejoin="round" stroke-width="2" style="paint-order:stroke fill markers"/><style type="text/css">.st0{fill:#FFFFFF;}</style><style type="text/css">.st0{fill:#FFFFFF;}</style><style type="text/css">.st0{fill:#FFFFFF;}</style><style type="text/css">.st0{fill:#FFFFFF;}</style><path d="m22 8h-1v2h3v1h-2s-1 0-1 1v3c0 1 1 1 1 1h4v-7s0-1-1-1zm1 5h1v1h-1z" opacity=".3" stroke-linecap="round" stroke-linejoin="round" stroke-width="2" style="paint-order:stroke fill markers"/><path d="m12 16v6h1v6h-1v6h10v-6h-1v-6h1v-6zm2 2h6v2h-1v10h1v2h-6v-2h1v-10h-1z" fill="#fff" stop-color="#000000" stroke-linecap="round" style="paint-order:stroke fill markers"/><path d="m21 16v6h1.3828l3 12h7.2344l3-12h1.3828v-6h-9zm2 2h5v2h-1l2 8 2-8h-1v-2h5v2h-1l-3 12h-4l-3-12h-1z" fill="#fff" stop-color="#000000" stroke-linecap="round" style="paint-order:stroke fill markers"/></svg>
