<?xml version="1.0" encoding="UTF-8"?>
<!-- Created with Inkscape (http://www.inkscape.org/) -->
<svg id="SVGRoot" width="48px" height="48px" version="1.1" viewBox="0 0 48 48" xml:space="preserve" xmlns="http://www.w3.org/2000/svg" xmlns:cc="http://creativecommons.org/ns#" xmlns:dc="http://purl.org/dc/elements/1.1/" xmlns:rdf="http://www.w3.org/1999/02/22-rdf-syntax-ns#"><defs><style>.cls-1{fill:none;stroke:#fff;stroke-linecap:round;stroke-linejoin:round;}</style><style>.cls-1{fill:none;stroke:#fff;stroke-linecap:round;stroke-linejoin:round;}</style></defs><metadata><rdf:RDF><cc:Work rdf:about=""><dc:format>image/svg+xml</dc:format><dc:type rdf:resource="http://purl.org/dc/dcmitype/StillImage"/></cc:Work></rdf:RDF></metadata><rect x="4" y="4" width="40" height="40" ry="8" fill="#34447a" fill-rule="evenodd" style="paint-order:stroke fill markers"/><path d="m12 4c-4.432 0-8 3.568-8 8v24c0 4.432 3.568 8 8 8h24c4.432 0 8-3.568 8-8v-24c0-4.432-3.568-8-8-8zm0 1h24c3.878 0 7 3.122 7 7v24c0 3.878-3.122 7-7 7h-24c-3.878 0-7-3.122-7-7v-24c0-3.878 3.122-7 7-7z" fill-rule="evenodd" opacity=".4" style="paint-order:stroke fill markers"/><path d="m23.076 20.746v16.678s-0.12153 0.50092-0.90854 0.52455c-0.78701 0.02363-0.97136-0.56081-0.97136-0.56081v-10.801s-9.21e-4 -0.66537-0.66537-0.66537c-0.56518 0-0.63196 0.63196-0.63196 0.63196v10.808s-0.2005 0.56956-0.98651 0.56956c-0.78601 0-0.8882-0.5128-0.8882-0.5128v-16.644s0.03669-0.54584-0.31514-0.54584c-0.42683 0-0.35676 0.61793-0.35676 0.61793v5.1396h-1.3455v-7.9093s0.31793-2.07 2.07-2.07h1.2904s0.60692-0.52561 0.45519-0.78841c-0.2966-0.51372-1.0222-1.6352-1.0222-2.5513 0-1.3824 0.64659-2.5743 1.6773-2.5986 1.0158-0.02391 1.7718 1.0361 1.7718 2.4805 0 1.3451-0.70372 2.0753-0.99218 2.575-0.15386 0.2665 0.46159 0.79949 0.46159 0.79949h0.95582c2.5883 0 2.4705 2.2579 2.4705 2.2579v6.392l0.67067-1.1616c0.45077-0.78075 1.1057-0.63838 1.1057-0.63838h0.85579s0.50168-0.12721 0.36594-0.63382c-0.1684-0.62849-0.76754-0.64486-0.76754-1.7948 0-0.83469 0.48836-2.1413 1.3229-2.1261 0.87108 0.01585 1.2993 1.2129 1.2993 2.0841 0 1.3242-0.72353 1.4046-0.82682 1.7901-0.1269 0.4736 0.37068 0.64204 0.37068 0.64204h0.66875c1.614 0 1.557 1.557 1.557 1.557v5.2187h-0.89558v-3.8034h-0.44884v11.528s-0.0076 0.41477-0.7184 0.41476c-0.44916 0-0.55937-0.32296-0.55937-0.32296v-7.3206s0.05352-0.43598-0.43598-0.43598c-0.47836 0-0.44779 0.44779-0.44779 0.44779v7.3351s-0.10695 0.41397-0.71702 0.41397c-0.57503 0-0.55127-0.55127-0.55127-0.55127v-12.289c0-0.86091-0.56206-0.14524-0.56206-0.14524l-1.1148 1.8674s-0.12993 0.34547-0.42436 0.42436c-0.24997 0.06699-0.51758 0-0.77637 0-0.39569 0-0.36456-0.36456-0.36456-0.36456v-6.0105s0.05787-0.47918-0.33744-0.47918c-0.31274 0-0.33744 0.52642-0.33744 0.52642z" fill="#9cd7d5" stroke-linecap="round" stroke-linejoin="bevel" stroke-width="1.5847"/></svg>
