<?xml version="1.0" encoding="UTF-8"?>
<!-- Created with Inkscape (http://www.inkscape.org/) -->
<svg id="SVGRoot" width="48px" height="48px" version="1.1" viewBox="0 0 48 48" xml:space="preserve" xmlns="http://www.w3.org/2000/svg" xmlns:cc="http://creativecommons.org/ns#" xmlns:dc="http://purl.org/dc/elements/1.1/" xmlns:rdf="http://www.w3.org/1999/02/22-rdf-syntax-ns#"><defs><style>.cls-1{fill:none;stroke:#fff;stroke-linecap:round;stroke-linejoin:round;}</style><style>.cls-1{fill:none;stroke:#fff;stroke-linecap:round;stroke-linejoin:round;}</style><style>.cls-1{fill:none;stroke:#fff;stroke-linecap:round;stroke-linejoin:round;}</style><style>.cls-1{fill:none;stroke:#fff;stroke-linecap:round;stroke-linejoin:round;}</style><style id="current-color-scheme" type="text/css">.ColorScheme-Text {
        color:#31363b;
      }
      .ColorScheme-Accent {
        color:#3daee9;
      }</style><style type="text/css">.ColorScheme-Text {
        color:#31363b;
      }
      .ColorScheme-Accent {
        color:#3daee9;
      }</style><style>.cls-1{fill:none;stroke:#fff;stroke-linecap:round;stroke-linejoin:round;}</style></defs><metadata><rdf:RDF><cc:Work rdf:about=""><dc:format>image/svg+xml</dc:format><dc:type rdf:resource="http://purl.org/dc/dcmitype/StillImage"/></cc:Work></rdf:RDF></metadata><rect x="4" y="4" width="40" height="40" ry="8" fill="#F7941D" fill-rule="evenodd" style="paint-order:stroke fill markers"/><path d="m12 4c-4.432 0-8 3.568-8 8v24c0 4.432 3.568 8 8 8h24c4.432 0 8-3.568 8-8v-24c0-4.432-3.568-8-8-8zm0 1h24c3.878 0 7 3.122 7 7v24c0 3.878-3.122 7-7 7h-24c-3.878 0-7-3.122-7-7v-24c0-3.878 3.122-7 7-7z" fill-rule="evenodd" opacity=".3" style="paint-order:stroke fill markers"/><rect x="22" y="20" width="4" height="23" fill="#fff" opacity=".5" stroke-linecap="round" stroke-linejoin="round" stroke-width="2.8284"/><path d="m14 2c-1.108 0-2 0.892-2 2-0.0025 3.5 3e-3 7.0001 0 10.5 0 6.925 5.352 12.5 12 12.5s12-5.575 12-12.5v-10.5c0-1.108-0.892-2-2-2z" fill="#DE8579" stroke-linecap="round" stroke-linejoin="round" stroke-width="2.4495"/><path d="m14 2c-1.108 0-2 0.892-2 2-0.0025 3.5 3e-3 7.0001 0 10.5 0 0.48158 0.025771 0.95673 0.076172 1.4238l3.9238-3.9238v-4h16v4l3.9238 3.9238c0.050401-0.4671 0.076172-0.94225 0.076172-1.4238v-10.5c0-1.108-0.892-2-2-2h-20z" fill="#4E3832"/><path d="m14 2c-1.108 0-2 0.892-2 2-0.0025 3.5 3e-3 7.0001 0 10.5 0 6.925 5.352 12.5 12 12.5s12-5.575 12-12.5v-10.5c0-1.108-0.892-2-2-2h-20zm0 1h20c0.5713 0 1 0.4287 1 1v10.5c0 6.4098-4.9111 11.5-11 11.5s-11-5.0902-11-11.5c3e-3 -3.5015-0.0025-7.0015 0-10.5 0-0.5713 0.4287-1 1-1z" opacity=".3" stop-color="#000000" stroke-linecap="round" stroke-linejoin="round"/><rect x="18" y="13" width="3" height="3" ry="1.5" fill="#4e4e4e"/><rect x="27" y="13" width="3" height="3" ry="1.5" fill="#4e4e4e"/></svg>
