<?xml version="1.0" encoding="UTF-8"?>
<!-- Created with Inkscape (http://www.inkscape.org/) -->
<svg id="SVGRoot" width="48px" height="48px" version="1.1" viewBox="0 0 48 48" xml:space="preserve" xmlns="http://www.w3.org/2000/svg" xmlns:cc="http://creativecommons.org/ns#" xmlns:dc="http://purl.org/dc/elements/1.1/" xmlns:rdf="http://www.w3.org/1999/02/22-rdf-syntax-ns#"><defs><style>.cls-1{fill:none;stroke:#fff;stroke-linecap:round;stroke-linejoin:round;}</style></defs><metadata><rdf:RDF><cc:Work rdf:about=""><dc:format>image/svg+xml</dc:format><dc:type rdf:resource="http://purl.org/dc/dcmitype/StillImage"/></cc:Work></rdf:RDF></metadata><rect x="4" y="4" width="40" height="40" ry="8" fill="#4b3c4b" fill-rule="evenodd" style="paint-order:stroke fill markers"/><path d="m12 4c-4.432 0-8 3.568-8 8v24c0 4.432 3.568 8 8 8h24c4.432 0 8-3.568 8-8v-24c0-4.432-3.568-8-8-8zm0 1h24c3.878 0 7 3.122 7 7v24c0 3.878-3.122 7-7 7h-24c-3.878 0-7-3.122-7-7v-24c0-3.878 3.122-7 7-7z" fill-rule="evenodd" opacity=".4" style="paint-order:stroke fill markers"/><path d="m7 37h15l2-3 3 5 4-8 4 10 2-4h4" fill="none" stroke="#FED539" stroke-linecap="round" stroke-linejoin="round" stroke-width="2"/><path d="m24 11.984v20.016h5.0645c5.1447 0 5.1543-3.3457 5.1543-3.3457v-3.7285c0-2.6495-1.8086-3.0703-1.8086-3.0703s1.5898-0.439 1.5898-2.9609v-2.7422s0.038227-4.1523-3.9473-4.1523c-2.1024 0-6.0527-0.015625-6.0527-0.015625zm5.002 2.9883c2.1058 0 2.0566 2.0566 2.0566 2.0566v1.9199s0.23905 2.084-2.248 2.084h-1.8105v-6.0332s1.3347-0.02734 2.002-0.02734zm-2.002 9.0273h2.7207c1.7112 0 1.5938 1.6621 1.5938 1.6621v1.4746s-0.05495 1.9023-1.9023 1.9023h-2.4121z" fill="#fff" stroke-linecap="round" stroke-linejoin="round" stroke-width="7.3572"/><path d="m14 28v4h2.8704c5.1296 0 5.1296-4.702 5.1296-4.702v-15.298h-4v13.883s0 2.1173-2.3374 2.1173z" fill="#fff"/></svg>
