<?xml version="1.0" encoding="UTF-8"?>
<!-- Created with Inkscape (http://www.inkscape.org/) -->
<svg id="SVGRoot" width="48px" height="48px" version="1.1" viewBox="0 0 48 48" xml:space="preserve" xmlns="http://www.w3.org/2000/svg" xmlns:cc="http://creativecommons.org/ns#" xmlns:dc="http://purl.org/dc/elements/1.1/" xmlns:rdf="http://www.w3.org/1999/02/22-rdf-syntax-ns#"><defs><style>.cls-1{fill:none;stroke:#fff;stroke-linecap:round;stroke-linejoin:round;}</style></defs><metadata><rdf:RDF><cc:Work rdf:about=""><dc:format>image/svg+xml</dc:format><dc:type rdf:resource="http://purl.org/dc/dcmitype/StillImage"/></cc:Work></rdf:RDF></metadata><rect x="4" y="4" width="40" height="40" ry="8" fill="#65717f" fill-rule="evenodd" style="paint-order:stroke fill markers"/><path d="m17.625 39.506-4.6562 4.4941h2.7637l3.957-3.7344-2.0645-0.75977z" fill="#efd2aa" stroke-linecap="round" stroke-linejoin="round" stroke-width="2"/><path d="m23.822 31.496-2.4883 1.2637s-0.99149 2.1881-1.7285 3.1211c-0.67218 0.8509-2.4023 2.1914-2.4023 2.1914s0.29404 2.1898 0.92773 3.0371c0.47391 0.63368 1.9805 1.3066 1.9805 1.3066l-0.070312 1.584h8.8008l-0.38281-3.9883 4.1328-1.5586-0.46289-3.0371-4.8926-3.498-3.4141-0.42188z" fill="#CF8799" stroke-linecap="round" stroke-linejoin="round" stroke-width="2"/><path d="m29.43 37.271-4.9746 1.0977-3.7109 3.2871-0.16797-4.3008-1.2461 4.6621c0.4223 0.23763 0.78125 0.39844 0.78125 0.39844l-0.02539 0.58398h8.6602l-0.28711-2.9883 1.8125-0.68359-0.8418-2.0566z" opacity=".3"/><path d="m29.545 36.79 0.02981 2.4149 2.9516-0.4472z" opacity=".4" stroke-linecap="round" stroke-linejoin="round" stroke-width="2"/><path d="m12 4c-4.432 0-8 3.568-8 8v24c0 4.432 3.568 8 8 8h24c4.432 0 8-3.568 8-8v-24c0-4.432-3.568-8-8-8zm0 1h24c3.878 0 7 3.122 7 7v24c0 3.878-3.122 7-7 7h-24c-3.878 0-7-3.122-7-7v-24c0-3.878 3.122-7 7-7z" fill-rule="evenodd" opacity=".3" style="paint-order:stroke fill markers"/><g stroke-linecap="round" stroke-linejoin="round"><path d="m12.269 30.273-5.0174 5.6498s2.2785-14.932 5.0595-21.883c0.83089-2.0767 3.4152-5.7763 3.4152-5.7763s-1.2483-0.69912-3.1201-0.3373c2.1474-2.3082 3.879-1.9395 3.879-1.9395s-0.18655-1.1238-1.6865-3.0357c2.4314 1.1696 3.2887 2.319 3.2887 2.319s3.2281-3.7642 6.9121-3.2704c6.4365 0.86273 11.049 6.5245 11.049 16.046 0 12.15-5.7342 16.106-5.7342 16.106l0.16865-1.2649s-0.77294 1.5385-2.4033 2.3611c0.6766-1.5471 1.4757-3.0779 1.4757-3.0779s-1.9641 1.5882-4.0055 4.2163c0.7146-4.3111 1.7287-5.186 1.7287-5.186s-10.306 1.0558-15.263 3.0357c0.3532-2.8115 0.25298-3.9633 0.25298-3.9633zm0 0-5.0174 5.6498s2.2785-14.932 5.0595-21.883c0.83089-2.0767 3.4152-5.7763 3.4152-5.7763s-1.2483-0.69912-3.1201-0.3373c2.1474-2.3082 3.879-1.9395 3.879-1.9395s-0.18655-1.1238-1.6865-3.0357c2.4314 1.1696 3.2887 2.319 3.2887 2.319s3.2281-3.7642 6.9121-3.2704c6.4365 0.86273 11.049 6.5245 11.049 16.046 0 12.15-5.7342 16.106-5.7342 16.106l0.16865-1.2649s-0.77294 1.5385-2.4033 2.3611c0.6766-1.5471 1.4757-3.0779 1.4757-3.0779s-1.9641 1.5882-4.0055 4.2163c0.7146-4.3111 1.7287-5.186 1.7287-5.186s-10.306 1.0558-15.263 3.0357c0.3532-2.8115 0.25298-3.9633 0.25298-3.9633z" fill="#704731" stroke-width="2"/><path d="m24.314 1.9551c-3.3902 0.00666-6.2266 3.3145-6.2266 3.3145s-0.85765-1.1488-3.2891-2.3184c1.5 1.912 1.6875 3.0352 1.6875 3.0352s-1.7316-0.36874-3.8789 1.9395c1.8717-0.36182 3.1191 0.33789 3.1191 0.33789s-2.5832 3.7006-3.4141 5.7773c-2.781 6.9509-5.0605 21.881-5.0605 21.881l4.0508-4.5605 0.9668-1.0879s0.09929 1.1514-0.25391 3.9629h2e-3c0.61958-0.24741 1.322-0.48097 2.0781-0.69922 2.2684-0.65475 5.0136-1.177 7.4102-1.5605 3.1958-0.51122 5.7734-0.77539 5.7734-0.77539s-0.19671 0.1929-0.42969 0.63477l0.01172-0.0039c-0.36054 0.66949-0.88411 1.9821-1.3105 4.5547 2.0414-2.6281 4.0059-4.2168 4.0059-4.2168s-0.79996 1.531-1.4766 3.0781c1.6303-0.82258 2.4043-2.3613 2.4043-2.3613l-0.16992 1.2656s5.7344-3.9577 5.7344-16.107c-4.8e-5 -9.5212-4.6124-15.182-11.049-16.045-0.23025-0.030863-0.45953-0.045366-0.68555-0.044922zm0 0.50195c0.20515-0.00155 0.412 0.011297 0.61914 0.039063 3.0911 0.41432 5.7168 1.9627 7.5996 4.5723s3.0156 6.2967 3.0156 10.977c0 5.9962-1.4104 9.929-2.8008 12.361-0.66932 1.1709-1.3097 1.9528-1.8086 2.4844-0.05726-0.45077-0.63744-0.5977-0.90234-0.22852 0 0-0.18185 0.3492-0.53906 0.78711 0.15006-0.29764 0.50195-1.0469 0.50195-1.0469 0.25361-0.48146-0.33553-0.96431-0.75781-0.62109 0 0-1.2312 1.1354-2.6699 2.7168 0.19668-0.7043 0.40096-1.7496 0.56641-2.1152 0.15979-0.3531 0.2937-0.56769 0.37891-0.6875 0.0639-0.08986 0.08314-0.1109 0.08789-0.11523 0.11957-0.10236 0.18397-0.25504 0.17383-0.41211l3.9688-9.4121-12.438-0.84375-7.4141 9.0293-3.8398 4.3223c0.41158-2.5661 2.278-13.937 4.7188-20.037 0.77415-1.9349 3.3613-5.6758 3.3613-5.6758 0.1693-0.24257 0.09218-0.57829-0.16602-0.72266 0 0-0.8842-0.28124-2.0469-0.36523 0.60453-0.45862 1.1577-0.77729 1.5625-0.89062 0.61077-0.17099 0.89453-0.095703 0.89453-0.095703 0.34543 0.073883 0.65648-0.22396 0.59766-0.57227 0 0-0.06674-0.36507-0.31836-0.92383-0.0496-0.11015-0.22349-0.33284-0.28906-0.46094 0.17747 0.12935 0.5323 0.30384 0.66406 0.41406 0.48689 0.40731 0.65234 0.63477 0.65234 0.63477 0.19131 0.25612 0.57051 0.26943 0.7793 0.027344 0 0 2.7704-3.1154 5.8477-3.1387z" opacity=".3" stop-color="#000000"/><g stroke-width="2"><path d="m24.033 30.357c-1.1932 0.16483-2.6984 2.4033-2.6984 2.4033l1.0119 0.63244 1.4335-1.4757 0.96975 1.5179 2.1081-1.5179s-1.6481-1.7226-2.8249-1.56z" fill="#fff"/><path d="m19.349 35.389c0.57391-1.1599 2.7727-0.08944 2.7727-0.08944s0.46029-0.24743 1.1925-0.14907c0.60101 0.08073 0.98385 0.62609 0.98385 0.62609s0.89197-0.33064 1.282-0.14907c1.1444 0.53278 2.087 3.1602 2.087 3.1602l3.6075-0.32795s-1.5645-0.48976-1.6994-1.1627c-0.1257-0.62704 0.4429-1.3902 1.0435-1.6099 0.64363-0.23549 1.3938 0.22171 1.9677 0.59627 1.2277 0.80118 2.9138 2.3196 2.8621 3.3391-0.04387 0.86554-2.3255 1.1627-2.3255 1.1627l-4.8596 0.2087s-0.1 1.1136-1.6398 1.0435c-0.95491-0.0435-1.4311-0.53665-1.4311-0.53665s-0.57567 0.36074-1.3714 0.29814c-0.39654-0.0312-1.1627-0.26832-1.1627-0.26832s-0.84678 0.62003-1.3118 0.53665c-0.49153-0.08814-1.1125-0.51438-1.1031-1.0137 0.01988-1.0573 2.4149-2.0571 2.4149-2.0571l-0.29814-1.4907s-0.63374 0.40617-1.1925 0.17888c-0.23934-0.09735-0.29814-0.71553-0.29814-0.71553s-2.1123-0.38407-1.5205-1.5801z" fill="#efd2aa"/><path d="m29.605 37.118-0.08944 2.2658" fill="#fff" opacity=".4"/><path d="m32.212 19.268s0.6805-1.1018 1.3492-3.626c0.38384 3.4436-1.5179 4.5958-1.5179 4.5958z" fill="#CF8799"/><path d="m23.696 28.586-0.12649 2.1081s-0.12205 0.4079 0.59028 0.46379c0.68987 0.05413 0.59028-0.54812 0.59028-0.54812l0.08433-2.0238c3.6268-0.79018 5.3547-3.4574 5.3547-3.4574s1.5879 0.14236 2.1081-1.3492c0.33587-0.96297-0.54812-2.0238-0.54812-2.0238l0.46379-2.4876s-8.9192 0.40332-13.155-10.203c-0.84976 2.77-2.2599 2.1542-2.6984 3.5838-1.8427 6.0079 0.94426 9.7827 0.92758 9.6131-0.50481 0.40778-1.2603-0.84954-1.8552-0.59028-0.755 0.32904-1.2578 1.4367-1.0541 2.2346 0.20656 0.80894 1.189 1.4877 2.0238 1.4757 0.55094-0.0079 1.307-1.0119 1.307-1.0119s1.977 3.2397 5.9871 4.2163z" fill="#EFD2AA"/></g><path d="m18.932 14.132s0.35286-0.45278 0.95404-0.68571c0.60118-0.23294 1.1925-0.32795 1.1925-0.32795" fill="#808080" opacity=".5" stroke="#000" stroke-width=".5"/></g><g fill="none" stroke="#000" stroke-linecap="round" stroke-linejoin="round" stroke-width=".5"><path d="m20.214 17.322c-0.05689-0.56219 0.12225-1.5079 0.68571-1.5503 0.51683-0.03891 0.77724 0.79671 0.83478 1.3118 0.06212 0.55607-0.01217 1.5037-0.56646 1.5801-0.54361 0.07492-0.89879-0.79566-0.95404-1.3416z" opacity=".5"/><path d="m23.94 21.287s1.2606 0.43258 1.9081 0.38758c1.3354-0.09283 0.89441-1.2224 0.89441-1.2224" opacity=".5"/><path d="m26.534 24.537s-0.11152-0.03118-0.08944-0.34286c0.02092-0.2952 0.2236-0.4323 0.2236-0.4323s-3.4396-0.10198-3.518 0.59627c-0.01935 0.17226 0.28987 0.25801 0.46211 0.23851 1.8731-0.21209 2.9217-0.05963 2.9217-0.05963z" opacity=".5"/></g></svg>
