<?xml version="1.0" encoding="UTF-8"?>
<!-- Created with Inkscape (http://www.inkscape.org/) -->
<svg id="SVGRoot" width="48px" height="48px" version="1.1" viewBox="0 0 48 48" xmlns="http://www.w3.org/2000/svg" xmlns:cc="http://creativecommons.org/ns#" xmlns:dc="http://purl.org/dc/elements/1.1/" xmlns:rdf="http://www.w3.org/1999/02/22-rdf-syntax-ns#">
 <defs id="defs815">
  <style id="style819">.cls-1{fill:none;stroke:#fff;stroke-linecap:round;stroke-linejoin:round;}</style>
 </defs>
 <metadata id="metadata818">
  <rdf:RDF>
   <cc:Work rdf:about="">
    <dc:format>image/svg+xml</dc:format>
    <dc:type rdf:resource="http://purl.org/dc/dcmitype/StillImage"/>
    <dc:title/>
   </cc:Work>
  </rdf:RDF>
 </metadata>
 <g id="layer1">
  <rect id="rect1373" x="4" y="4" width="40" height="40" ry="8" fill="#d35244" fill-rule="evenodd" style="paint-order:stroke fill markers"/>
  <path id="rect817" d="m12 4c-4.432 0-8 3.568-8 8v24c0 4.432 3.568 8 8 8h24c4.432 0 8-3.568 8-8v-24c0-4.432-3.568-8-8-8h-24zm0 1h24c3.878 0 7 3.122 7 7v24c0 3.878-3.122 7-7 7h-24c-3.878 0-7-3.122-7-7v-24c0-3.878 3.122-7 7-7z" fill-rule="evenodd" opacity=".3" style="paint-order:stroke fill markers"/>
  <rect id="rect828" x="6" y="24" width="36" height="12" fill="#fff" fill-rule="evenodd" style="paint-order:stroke fill markers"/>
  <path id="path830" d="m12 12v30h24v-30l-12 7z" fill="#fff"/>
  <rect id="rect832" x="10" y="26" width="8" height="8" ry="4" fill="#4e4e4e" fill-rule="evenodd" style="paint-order:stroke fill markers"/>
  <rect id="rect832-0" x="30" y="26" width="8" height="8" ry="4" fill="#4e4e4e" fill-rule="evenodd" style="paint-order:stroke fill markers"/>
  <path id="path849" d="m10 26 8 4 1-6z" fill="#fff"/>
  <path id="path851" d="m18 30-9-5 3 4z" fill="#4e4e4e"/>
  <path id="path853" d="m14 34v-2l-4 2z" fill="#4e4e4e"/>
  <path id="path849-7" d="m38 26-8 4-1-6z" fill="#fff"/>
  <path id="path851-8" d="m30 30 9-5-3 4z" fill="#4e4e4e"/>
  <path id="path853-9" d="m34 34v-2l4 2z" fill="#4e4e4e"/>
 </g>
</svg>
