<?xml version="1.0" encoding="UTF-8"?>
<!-- Created with Inkscape (http://www.inkscape.org/) -->
<svg id="SVGRoot" width="48px" height="48px" version="1.1" viewBox="0 0 48 48" xml:space="preserve" xmlns="http://www.w3.org/2000/svg" xmlns:cc="http://creativecommons.org/ns#" xmlns:dc="http://purl.org/dc/elements/1.1/" xmlns:rdf="http://www.w3.org/1999/02/22-rdf-syntax-ns#"><defs><style>.cls-1{fill:none;stroke:#fff;stroke-linecap:round;stroke-linejoin:round;}</style><style>.cls-1{fill:none;stroke:#fff;stroke-linecap:round;stroke-linejoin:round;}</style><style>.cls-1{fill:none;stroke:#fff;stroke-linecap:round;stroke-linejoin:round;}</style><style>.cls-1{fill:none;stroke:#fff;stroke-linecap:round;stroke-linejoin:round;}</style><style>.cls-1{fill:none;stroke:#fff;stroke-linecap:round;stroke-linejoin:round;}</style><style>.a{fill:none;stroke:#b1b5bd;stroke-linecap:round;stroke-linejoin:round;isolation:isolate;opacity:0.63;}</style><style>.cls-1{fill:none;stroke:#fff;stroke-linecap:round;stroke-linejoin:round;}</style></defs><metadata><rdf:RDF><cc:Work rdf:about=""><dc:format>image/svg+xml</dc:format><dc:type rdf:resource="http://purl.org/dc/dcmitype/StillImage"/></cc:Work></rdf:RDF></metadata><g fill-rule="evenodd"><rect x="4" y="4" width="40" height="40" ry="8" fill="#979797" style="paint-order:stroke fill markers"/><rect x="8" y="8" width="32" height="32" ry="5" fill="#4e4e4e" style="paint-order:stroke fill markers"/><path d="m12 4c-4.432 0-8 3.568-8 8v24c0 4.432 3.568 8 8 8h24c4.432 0 8-3.568 8-8v-24c0-4.432-3.568-8-8-8zm0 1h24c3.878 0 7 3.122 7 7v24c0 3.878-3.122 7-7 7h-24c-3.878 0-7-3.122-7-7v-24c0-3.878 3.122-7 7-7z" opacity=".3" style="paint-order:stroke fill markers"/></g><path d="m12.758 24.029a1 1 0 0 0-0.72852 1.2129s0.55287 2.2134 2.3203 4.3887c1.7674 2.1753 4.8541 4.3691 9.6504 4.3691s7.883-2.1938 9.6504-4.3691c1.7674-2.1753 2.3203-4.3887 2.3203-4.3887a1 1 0 0 0-0.72852-1.2129 1 1 0 0 0-1.2129 0.72852s-0.44713 1.7866-1.9297 3.6113c-1.4826 1.8247-3.8959 3.6309-8.0996 3.6309s-6.617-1.8062-8.0996-3.6309c-1.4826-1.8247-1.9297-3.6113-1.9297-3.6113a1 1 0 0 0-1.2129-0.72852z" fill="#fff" stop-color="#000000" stroke-linecap="round" stroke-linejoin="round" style="paint-order:stroke fill markers"/><path d="m18.141 15.01a1 1 0 0 0-0.74023 0.18945 1 1 0 0 0-0.20117 1.4004l6 8a1.0001 1.0001 0 0 0 1.6016 0l6-8a1 1 0 0 0-0.20117-1.4004 1 1 0 0 0-1.4004 0.20117l-5.1992 6.9316-5.1992-6.9316a1 1 0 0 0-0.66016-0.39062z" fill="#fff" stop-color="#000000" stroke-linecap="round" stroke-linejoin="round" style="paint-order:stroke fill markers"/></svg>
