<?xml version="1.0" encoding="UTF-8"?>
<!-- Created with Inkscape (http://www.inkscape.org/) -->
<svg id="SVGRoot" width="48px" height="48px" version="1.1" viewBox="0 0 48 48" xml:space="preserve" xmlns="http://www.w3.org/2000/svg" xmlns:cc="http://creativecommons.org/ns#" xmlns:dc="http://purl.org/dc/elements/1.1/" xmlns:rdf="http://www.w3.org/1999/02/22-rdf-syntax-ns#"><defs><style>.cls-1{fill:none;stroke:#fff;stroke-linecap:round;stroke-linejoin:round;}</style><style>.cls-1{fill:none;stroke:#fff;stroke-linecap:round;stroke-linejoin:round;}</style><style>.cls-1{fill:none;stroke:#fff;stroke-linecap:round;stroke-linejoin:round;}</style><style>.cls-1{fill:none;stroke:#fff;stroke-linecap:round;stroke-linejoin:round;}</style><style>.cls-1{fill:none;stroke:#fff;stroke-linecap:round;stroke-linejoin:round;}</style><style>.cls-1{fill:none;stroke:#fff;stroke-linecap:round;stroke-linejoin:round;}</style><style>.cls-1{fill:none;stroke:#fff;stroke-linecap:round;stroke-linejoin:round;}</style><style>.a{fill:none;stroke:#b1b5bd;stroke-linecap:round;stroke-linejoin:round;isolation:isolate;opacity:0.63;}</style><style>.cls-1{fill:none;stroke:#fff;stroke-linecap:round;stroke-linejoin:round;}</style><style>.cls-1{fill:none;stroke:#fff;stroke-linecap:round;stroke-linejoin:round;}</style></defs><metadata><rdf:RDF><cc:Work rdf:about=""><dc:format>image/svg+xml</dc:format><dc:type rdf:resource="http://purl.org/dc/dcmitype/StillImage"/></cc:Work></rdf:RDF></metadata><rect x="4" y="4" width="40" height="40" ry="8" fill="#5a4242" fill-rule="evenodd" style="paint-order:stroke fill markers"/><path d="m12 4c-4.432 0-8 3.568-8 8v24c0 4.432 3.568 8 8 8h24c4.432 0 8-3.568 8-8v-24c0-4.432-3.568-8-8-8zm0 1h24c3.878 0 7 3.122 7 7v24c0 3.878-3.122 7-7 7h-24c-3.878 0-7-3.122-7-7v-24c0-3.878 3.122-7 7-7z" fill-rule="evenodd" opacity=".4" style="paint-order:stroke fill markers"/><path d="m11.648 6.0645a1.0001 1.0001 0 0 0-0.61328 0.67188l-3 11a1.0001 1.0001 0 0 0 1.207 1.2344l3.4512-0.86328 1.8926 1.8926-1.8926 1.8926-3.4512-0.86328a1.0001 1.0001 0 0 0-1.2324 1.1113l1 7a1.0001 1.0001 0 0 0 0.14258 0.38867l5 8a1.0001 1.0001 0 0 0 0.44141 0.38476l9 4a1.0001 1.0001 0 0 0 0.8125 0l9-4a1.0001 1.0001 0 0 0 0.44141-0.38476l5-8a1.0001 1.0001 0 0 0 0.14258-0.38867l1-7a1.0001 1.0001 0 0 0-1.2324-1.1113l-3.4512 0.86328-1.8926-1.8926 1.8926-1.8926 3.4512 0.86328a1.0001 1.0001 0 0 0 1.207-1.2344l-3-11a1.0001 1.0001 0 0 0-1.5195-0.56836l-2.748 1.832h-3.6973a1.0001 1.0001 0 0 0-1 1v3h-8v-3a1.0001 1.0001 0 0 0-1-1h-3.6973l-2.748-1.832a1.0001 1.0001 0 0 0-0.90625-0.10352zm0.95117 2.5371 1.8457 1.2305a1.0001 1.0001 0 0 0 0.55469 0.16797h3v3a1.0001 1.0001 0 0 0 1 1h10a1.0001 1.0001 0 0 0 1-1v-3h3a1.0001 1.0001 0 0 0 0.55469-0.16797l1.8457-1.2305 2.1855 8.0137-2.3438-0.58594a1.0001 1.0001 0 0 0-0.94922 0.26367l-3 3a1.0001 1.0001 0 0 0 0 1.4141l3 3a1.0001 1.0001 0 0 0 0.94922 0.26367l2.5566-0.63867-0.75977 5.3164-4.7246 7.5625-8.3145 3.6953-8.3145-3.6953-4.7246-7.5625-0.75977-5.3164 2.5566 0.63867a1.0001 1.0001 0 0 0 0.94922-0.26367l3-3a1.0001 1.0001 0 0 0 0-1.4141l-3-3a1.0001 1.0001 0 0 0-0.94922-0.26367l-2.3438 0.58594z" opacity=".4" stop-color="#000000" stroke-linecap="round" stroke-linejoin="round"/><path d="m17 12-1-1v7s1.526-3 6-3v18l-3 3h10l-3-3v-12c0-9 8-9 8-9z" fill="#f1b164" stroke-linecap="round" stroke-linejoin="round" stroke-width="2"/></svg>
