<?xml version="1.0" encoding="UTF-8"?>
<!-- Created with Inkscape (http://www.inkscape.org/) -->
<svg id="SVGRoot" width="48px" height="48px" version="1.1" viewBox="0 0 48 48" xml:space="preserve" xmlns="http://www.w3.org/2000/svg" xmlns:cc="http://creativecommons.org/ns#" xmlns:dc="http://purl.org/dc/elements/1.1/" xmlns:rdf="http://www.w3.org/1999/02/22-rdf-syntax-ns#"><defs><style>.cls-1{fill:none;stroke:#fff;stroke-linecap:round;stroke-linejoin:round;}</style><style>.cls-1{fill:none;stroke:#fff;stroke-linecap:round;stroke-linejoin:round;}</style><style>.cls-1{fill:none;stroke:#fff;stroke-linecap:round;stroke-linejoin:round;}</style><style>.cls-1{fill:none;stroke:#fff;stroke-linecap:round;stroke-linejoin:round;}</style><style>.cls-1{fill:none;stroke:#fff;stroke-linecap:round;stroke-linejoin:round;}</style><style>.a{fill:none;stroke:#b1b5bd;stroke-linecap:round;stroke-linejoin:round;isolation:isolate;opacity:0.63;}</style><style>.cls-1{fill:none;stroke:#fff;stroke-linecap:round;stroke-linejoin:round;}</style><style>.cls-1{fill:none;stroke:#fff;stroke-linecap:round;stroke-linejoin:round;}</style><style>.cls-1{fill:none;stroke:#fff;stroke-linecap:round;stroke-linejoin:round;}</style><style>.cls-1{fill:none;stroke:#fff;stroke-linecap:round;stroke-linejoin:round;}</style><style>.cls-1{fill:none;stroke:#fff;stroke-linecap:round;stroke-linejoin:round;}</style><style>.cls-1{fill:none;stroke:#fff;stroke-linecap:round;stroke-linejoin:round;}</style><style>.a{fill:none;stroke:#b1b5bd;stroke-linecap:round;stroke-linejoin:round;isolation:isolate;opacity:0.63;}</style><style>.cls-1{fill:none;stroke:#fff;stroke-linecap:round;stroke-linejoin:round;}</style><style>.cls-1{fill:none;stroke:#fff;stroke-linecap:round;stroke-linejoin:round;}</style><style>.cls-1{fill:none;stroke:#fff;stroke-linecap:round;stroke-linejoin:round;}</style><style>.a{fill:none;stroke:#b1b5bd;stroke-linecap:round;stroke-linejoin:round;isolation:isolate;opacity:0.63;}</style><style>.cls-1{fill:none;stroke:#fff;stroke-linecap:round;stroke-linejoin:round;}</style><style>.cls-1{fill:none;stroke:#fff;stroke-linecap:round;stroke-linejoin:round;}</style><style>.cls-1{fill:none;stroke:#fff;stroke-linecap:round;stroke-linejoin:round;}</style><style>.cls-1{fill:none;stroke:#fff;stroke-linecap:round;stroke-linejoin:round;}</style><style>.cls-1{fill:none;stroke:#fff;stroke-linecap:round;stroke-linejoin:round;}</style><style>.cls-1{fill:none;stroke:#fff;stroke-linecap:round;stroke-linejoin:round;}</style><style>.cls-1{fill:none;stroke:#fff;stroke-linecap:round;stroke-linejoin:round;}</style><style>.cls-1{fill:none;stroke:#fff;stroke-linecap:round;stroke-linejoin:round;}</style><style>.cls-1{fill:none;stroke:#fff;stroke-linecap:round;stroke-linejoin:round;}</style><style>.a{fill:none;stroke:#b1b5bd;stroke-linecap:round;stroke-linejoin:round;isolation:isolate;opacity:0.63;}</style><style>.cls-1{fill:none;stroke:#fff;stroke-linecap:round;stroke-linejoin:round;}</style><style>.cls-1{fill:none;stroke:#fff;stroke-linecap:round;stroke-linejoin:round;}</style><style>.a{fill:none;stroke:#b1b5bd;stroke-linecap:round;stroke-linejoin:round;isolation:isolate;opacity:0.63;}</style><style>.cls-1{fill:none;stroke:#fff;stroke-linecap:round;stroke-linejoin:round;}</style><style>.cls-1{fill:none;stroke:#fff;stroke-linecap:round;stroke-linejoin:round;}</style></defs><metadata><rdf:RDF><cc:Work rdf:about=""><dc:format>image/svg+xml</dc:format><dc:type rdf:resource="http://purl.org/dc/dcmitype/StillImage"/></cc:Work></rdf:RDF></metadata><g stroke-linecap="round" stroke-linejoin="round" stroke-width="16"><path d="m12 4c-4.432 0-8 3.568-8 8v24h8v-32z" fill="#729dec"/><rect x="12" y="4" width="8" height="32" fill="#d35244"/><rect x="20" y="4" width="8" height="32" fill="#f280a3"/><rect x="28" y="4" width="8" height="32" fill="#96d56b"/><path d="m36 4v32h8v-24c0-4.432-3.568-8-8-8z" fill="#96dfd3"/></g><path d="m4 36c0 0.001871-1.3e-6 0.003989 0 0.005859 0.0030107 4.4294 3.5699 7.9941 8 7.9941v-8h-8z" fill="#fff" fill-rule="evenodd" style="paint-order:stroke fill markers"/><g stroke-linecap="round" stroke-linejoin="round"><g stroke-width="8"><path transform="scale(-1,1)" d="m-36 36v8c-4.432 0-8-3.568-8-8h8z" fill="#f280a3"/><rect transform="scale(-1,1)" x="-36" y="36" width="8" height="8" fill="#565d60"/><rect transform="scale(-1,1)" x="-28" y="36" width="8" height="8" fill="#ffdd75"/><rect transform="scale(-1,1)" x="-20" y="36" width="8" height="8" fill="#565d60"/></g><path d="m24.008 7.0527a0.948 0.948 0 0 0-0.375 0.074219l-5.9941 2.5176a0.948 0.948 0 0 0-0.50781 0.50977l-1.9199 4.6367a0.948 0.948 0 0 0 0 0.72656l1.1582 2.7969a0.948 0.948 0 0 0 0.92188 0.49414 0.948 0.948 0 0 0 0.16211 0.36914l0.77734 0.69531-0.052735 0.90039a0.948 0.948 0 0 0 1.4961 0.82812l0.33398-0.23828 0.095704 0.056641-2.6367 9.6406-0.75977 0.49219a0.948 0.948 0 0 0-0.91797-0.33398l-4.7559 1.1172a0.948 0.948 0 0 0-0.73047 0.92187v1.0527l-2.877 0.70703a0.948 0.948 0 0 0-0.48242 0.29102l-1.2383 1.3984a0.948 0.948 0 0 0-0.20312 0.89062l0.32031 1.1191a0.948 0.948 0 0 0 1.1348 0.66016l6.4746-1.5586a0.948 0.948 0 0 0 0.33594-0.2832 0.948 0.948 0 0 0 0.61133 0.26758l2.8379-0.1582a0.948 0.948 0 0 0 0.69726-0.48828l1.2031 0.80664a0.948 0.948 0 0 0 0.76758 0.12891l3.9551-1.0391a0.948 0.948 0 0 0 0.70117-0.80859l0.08789-0.77148 2.3359-0.39258 1.5156 2.2754-5.3789 4.9473a0.948 0.948 0 0 0-0.30469 0.69727h13.203c3.878 0 7-3.122 7-7v-3.5801l-0.30273-1.207 0.29297 0.003906a0.948 0.948 0 0 0 0.009766 0v-10.275l-7.2949-5.2754a0.948 0.948 0 0 0-0.67188-0.17383l-2.7012 0.33789a0.948 0.948 0 0 0 0.23242-0.51562l-1.7969-5.0352a0.948 0.948 0 0 0-0.50977-0.54883l-5.875-2.5977a0.948 0.948 0 0 0-0.375-0.080078z" fill="#565d60" stop-color="#000000"/><path d="m24 8-5.9941 2.5176-1.9199 4.6367 1.1582 2.7969 3.7168-2.8359 2.6387 3.7559 8.0723-3.2383-1.7969-5.0352-5.875-2.5977zm-3.1973 8.1543-2.7188 2.3164 1.1191 1-0.080078 1.3594 0.83984-0.59961 0.99805 0.59961 1.4805-1.3203-1.6387-3.3555zm14.348 0.2793-5.4355 0.67969-8.5117 3.877-2.918 10.67-1.4805 0.95898-0.79883 2.1191 3.6387 2.4375 3.9551-1.0391 0.75977-6.6738 4.9551 7.4336 0.91992-1.1211 8.1934-3.1152-0.95898-5.6758 5.5312-1.8789v-2.9961l-7.8496-5.6758zm7.8496 9.3906-4.7715 1.7598 1.2383 6.4355 2.7969-0.64062-1.1992-4.7559 1.9355-0.77148v-2.0273zm0 2.6523-1.0957 0.4668 0.31836 1.3184 0.77734 0.007812v-1.793zm-26.994 3.6641-4.7559 1.1172v1.1602l0.91992-0.16016 2.1562 2.5977 2.8379-0.1582-2.2383-2.6777 1.0801-1.8789zm9.6719 0-1.2773 0.24023-0.40039 2.2363 2.8359-0.47852-1.1582-1.998zm17.322 1.3027-4.4121 1.5352-4.7578 7.4336 0.21094 0.58789h1.959c3.878 0 7-3.122 7-7v-2.5566zm-4.4922 0.29492-7.9531 2.998-6.8105 6.2637h8.6758l0.13086-1.1094 5.5156-6.9531 0.44141-1.1992zm-26.459 1.1191-4.3965 1.0801-1.2383 1.3984 0.32031 1.1191 6.4746-1.5586-1.1602-2.0391z" fill="#fff" stroke-width="1.8958"/></g><path d="m12 4c-4.432 0-8 3.568-8 8v24c0 4.432 3.568 8 8 8h24c4.432 0 8-3.568 8-8v-24c0-4.432-3.568-8-8-8zm0 1h24c3.878 0 7 3.122 7 7v24c0 3.878-3.122 7-7 7h-24c-3.878 0-7-3.122-7-7v-24c0-3.878 3.122-7 7-7z" fill-rule="evenodd" opacity=".3" style="paint-order:stroke fill markers"/></svg>
