<?xml version="1.0" encoding="UTF-8"?>
<!-- Created with Inkscape (http://www.inkscape.org/) -->
<svg id="SVGRoot" width="48px" height="48px" version="1.1" viewBox="0 0 48 48" xmlns="http://www.w3.org/2000/svg" xmlns:cc="http://creativecommons.org/ns#" xmlns:dc="http://purl.org/dc/elements/1.1/" xmlns:rdf="http://www.w3.org/1999/02/22-rdf-syntax-ns#" xmlns:xlink="http://www.w3.org/1999/xlink">
 <defs id="defs815">
  <style id="style819">.cls-1{fill:none;stroke:#fff;stroke-linecap:round;stroke-linejoin:round;}</style>
  <style id="style819-9">.cls-1{fill:none;stroke:#fff;stroke-linecap:round;stroke-linejoin:round;}</style>
  <style id="style2">.a{fill:none;stroke:#b1b5bd;stroke-linecap:round;stroke-linejoin:round;isolation:isolate;opacity:0.63;}</style>
  <style id="style819-5">.cls-1{fill:none;stroke:#fff;stroke-linecap:round;stroke-linejoin:round;}</style>
  <style id="style819-2">.cls-1{fill:none;stroke:#fff;stroke-linecap:round;stroke-linejoin:round;}</style>
  <style id="style819-3">.cls-1{fill:none;stroke:#fff;stroke-linecap:round;stroke-linejoin:round;}</style>
  <style id="style819-36">.cls-1{fill:none;stroke:#fff;stroke-linecap:round;stroke-linejoin:round;}</style>
  <style id="style819-27">.cls-1{fill:none;stroke:#fff;stroke-linecap:round;stroke-linejoin:round;}</style>
  <style id="style819-57">.cls-1{fill:none;stroke:#fff;stroke-linecap:round;stroke-linejoin:round;}</style>
 </defs>
 <metadata id="metadata818">
  <rdf:RDF>
   <cc:Work rdf:about="">
    <dc:format>image/svg+xml</dc:format>
    <dc:type rdf:resource="http://purl.org/dc/dcmitype/StillImage"/>
    <dc:title/>
   </cc:Work>
  </rdf:RDF>
 </metadata>
 <g id="layer1">
  <rect id="rect1373-5" x="4" y="4" width="40" height="40" ry="8" fill="#efefef" fill-rule="evenodd" style="paint-order:stroke fill markers"/>
  <path id="path1527" d="m23.971 9c-0.9832 0.017471-1.898 0.51765-2.4434 1.3359l-8 12c-0.67008 1.0053-0.67008 2.3228 0 3.3281l8 12c1.168 1.7513 3.8242 1.7513 4.9922 0l8-12c0.67008-1.0053 0.67008-2.3228 0-3.3281l-8-12c-0.56596-0.8492-1.5285-1.3537-2.5488-1.3359z" color="#000000" color-rendering="auto" dominant-baseline="auto" image-rendering="auto" opacity=".15" shape-rendering="auto" solid-color="#000000" style="font-feature-settings:normal;font-variant-alternates:normal;font-variant-caps:normal;font-variant-ligatures:normal;font-variant-numeric:normal;font-variant-position:normal;isolation:auto;mix-blend-mode:normal;shape-padding:0;text-decoration-color:#000000;text-decoration-line:none;text-decoration-style:solid;text-indent:0;text-orientation:mixed;text-transform:none;white-space:normal"/>
  <path id="path1000-9-0" d="m24.012 10c-0.00402-2e-5 -0.007719 0.001999-0.011719 0.001953v13.998h9.9766c0-0.38674-0.11204-0.77347-0.33594-1.1094l-8-12c-0.36397-0.54614-0.9727-0.87896-1.6289-0.89062z" color="#000000" color-rendering="auto" dominant-baseline="auto" fill="#50c25c" image-rendering="auto" shape-rendering="auto" solid-color="#000000" style="font-feature-settings:normal;font-variant-alternates:normal;font-variant-caps:normal;font-variant-ligatures:normal;font-variant-numeric:normal;font-variant-position:normal;isolation:auto;mix-blend-mode:normal;shape-padding:0;text-decoration-color:#000000;text-decoration-line:none;text-decoration-style:solid;text-indent:0;text-orientation:mixed;text-transform:none;white-space:normal"/>
  <path id="path1442" d="m29.852 17.207-4.8516 6.793h8.9766c0-0.38674-0.11204-0.77347-0.33594-1.1094l-3.7891-5.6836z" fill="#6f8647"/>
  <path id="path1000-9" d="m23.988 10c-0.6562 0.01166-1.2649 0.34449-1.6289 0.89062l-8 12c-0.44779 0.6718-0.44779 1.5469 0 2.2188l8 12c0.391 0.58626 1.0144 0.88144 1.6406 0.88867v-27.996c-0.004013 4.6e-5 -0.007703-0.0020229-0.011719-0.001953z" color="#000000" color-rendering="auto" dominant-baseline="auto" fill="#53af2d" image-rendering="auto" shape-rendering="auto" solid-color="#000000" style="font-feature-settings:normal;font-variant-alternates:normal;font-variant-caps:normal;font-variant-ligatures:normal;font-variant-numeric:normal;font-variant-position:normal;isolation:auto;mix-blend-mode:normal;shape-padding:0;text-decoration-color:#000000;text-decoration-line:none;text-decoration-style:solid;text-indent:0;text-orientation:mixed;text-transform:none;white-space:normal"/>
  <path id="rect1484-9-1" d="m33.977 24c0 0.38674-0.11204 0.77347-0.33594 1.1094l-8 12c-0.391 0.58626-1.0144 0.88143-1.6406 0.88867v-13.998z" fill="#97e266" fill-rule="evenodd" style="paint-order:stroke fill markers"/>
  <path id="path1496" d="m29 24h5l-4 4-5 1z" fill="#50c25c"/>
  <path id="rect817" d="m12 4c-4.432 0-8 3.568-8 8v24c0 4.432 3.568 8 8 8h24c4.432 0 8-3.568 8-8v-24c0-4.432-3.568-8-8-8h-24zm0 1h24c3.878 0 7 3.122 7 7v24c0 3.878-3.122 7-7 7h-24c-3.878 0-7-3.122-7-7v-24c0-3.878 3.122-7 7-7z" fill-rule="evenodd" opacity=".3" style="paint-order:stroke fill markers"/>
  <path id="rect1484-9" d="m14.023 24c0 0.38674 0.11204 0.77347 0.33594 1.1094l8 12c0.391 0.58626 1.0144 0.88143 1.6406 0.88867v-13.998h-9.9766z" fill="#97e266" fill-rule="evenodd" style="paint-order:stroke fill markers"/>
  <path id="path1408" d="m28.895 15.701-4.8945 1.6309v4.7578l6.4277-4.0898z" fill="#97e266"/>
  <path id="path1157" d="m34 24-10 3.5293v5.041l7.6133-4.3496 2.0742-3.1113c0.2239-0.3359 0.33594-0.72264 0.33594-1.1094z" fill="#d0ffd4"/>
  <path id="path1412" d="m24 17.332-7.6309 2.5449-2.0098 3.0137c-0.2239 0.3359-0.33594 0.72264-0.33594 1.1094h6.9766l3-1.9102z" fill="#36663b"/>
  <path id="path1478" d="m14.023 24c0 0.38674 0.11204 0.77347 0.33594 1.1094l4.4434 6.666 0.19727 0.22461 5-2v-6h-9.9766z" fill="#6f8647"/>
  <path id="path1157-1" d="m24 27.529-6.498 2.293 3.1191 4.6797 3.3789-1.9316z" fill="#53af2d"/>
  <path id="path1002" d="m24.027 10c-0.41518-0.00176-0.78827 0.25319-0.9375 0.64062l-5 13c-0.046272 0.12021-0.060621 0.24051-0.060547 0.35938h11.988c7.4e-5 -0.11886-0.01427-0.23917-0.06055-0.35938l-5-13c-0.1482-0.38477-0.51736-0.63915-0.92968-0.64062z" color="#000000" color-rendering="auto" dominant-baseline="auto" fill="#d0ffd4" image-rendering="auto" shape-rendering="auto" solid-color="#000000" style="font-feature-settings:normal;font-variant-alternates:normal;font-variant-caps:normal;font-variant-ligatures:normal;font-variant-numeric:normal;font-variant-position:normal;isolation:auto;mix-blend-mode:normal;shape-padding:0;text-decoration-color:#000000;text-decoration-line:none;text-decoration-style:solid;text-indent:0;text-orientation:mixed;text-transform:none;white-space:normal"/>
  <path id="path1002-8" d="m18.029 24c-7.4e-5 0.11886 0.01427 0.23917 0.06055 0.35938l5 13c0.32854 0.85532 1.5386 0.85532 1.8672 0l5-13c0.046269-0.12021 0.060618-0.24051 0.060544-0.35938z" color="#000000" color-rendering="auto" dominant-baseline="auto" fill="#97e266" image-rendering="auto" shape-rendering="auto" solid-color="#000000" style="font-feature-settings:normal;font-variant-alternates:normal;font-variant-caps:normal;font-variant-ligatures:normal;font-variant-numeric:normal;font-variant-position:normal;isolation:auto;mix-blend-mode:normal;shape-padding:0;text-decoration-color:#000000;text-decoration-line:none;text-decoration-style:solid;text-indent:0;text-orientation:mixed;text-transform:none;white-space:normal"/>
  <path id="path1460" d="m28.748 27.5-8.1895 3.2773 2.5312 6.582c0.32854 0.85532 1.5386 0.85532 1.8672 0l3.791-9.8594z" fill="#36663b"/>
  <path id="path1002-8-5" d="m29.482 25.594-9.6133 3.3926 1.875 4.873 5.8438-3.3379 1.8945-4.9277z" color="#000000" color-rendering="auto" dominant-baseline="auto" fill="#47884f" image-rendering="auto" shape-rendering="auto" solid-color="#000000" style="font-feature-settings:normal;font-variant-alternates:normal;font-variant-caps:normal;font-variant-ligatures:normal;font-variant-numeric:normal;font-variant-position:normal;isolation:auto;mix-blend-mode:normal;shape-padding:0;text-decoration-color:#000000;text-decoration-line:none;text-decoration-style:solid;text-indent:0;text-orientation:mixed;text-transform:none;white-space:normal"/>
  <path id="path1437" d="m20 24 7.9158-5.7161 2.1842 5.7161z" fill="#53af2d"/>
  <path id="path1002-2" d="m27.129 16.289-7.125 2.377-1.9141 4.9746c-0.046272 0.12021-0.060621 0.24051-0.060547 0.35938h2.9707l7.3066-4.6504-1.1777-3.0605z" color="#000000" color-rendering="auto" dominant-baseline="auto" fill="#fff" image-rendering="auto" shape-rendering="auto" solid-color="#000000" style="font-feature-settings:normal;font-variant-alternates:normal;font-variant-caps:normal;font-variant-ligatures:normal;font-variant-numeric:normal;font-variant-position:normal;isolation:auto;mix-blend-mode:normal;shape-padding:0;text-decoration-color:#000000;text-decoration-line:none;text-decoration-style:solid;text-indent:0;text-orientation:mixed;text-transform:none;white-space:normal"/>
 </g>
</svg>
