<?xml version="1.0" encoding="UTF-8"?>
<!-- Created with Inkscape (http://www.inkscape.org/) -->
<svg id="SVGRoot" width="48px" height="48px" version="1.1" viewBox="0 0 48 48" xmlns="http://www.w3.org/2000/svg" xmlns:cc="http://creativecommons.org/ns#" xmlns:dc="http://purl.org/dc/elements/1.1/" xmlns:rdf="http://www.w3.org/1999/02/22-rdf-syntax-ns#">
 <defs id="defs815">
  <style id="style819">.cls-1{fill:none;stroke:#fff;stroke-linecap:round;stroke-linejoin:round;}</style>
  <style id="style2">.a{fill:none;stroke:#b1b5bd;stroke-linecap:round;stroke-linejoin:round;isolation:isolate;opacity:0.63;}</style>
  <style id="style819-1">.cls-1{fill:none;stroke:#fff;stroke-linecap:round;stroke-linejoin:round;}</style>
  <style id="style819-9">.cls-1{fill:none;stroke:#fff;stroke-linecap:round;stroke-linejoin:round;}</style>
 </defs>
 <metadata id="metadata818">
  <rdf:RDF>
   <cc:Work rdf:about="">
    <dc:format>image/svg+xml</dc:format>
    <dc:type rdf:resource="http://purl.org/dc/dcmitype/StillImage"/>
    <dc:title/>
   </cc:Work>
  </rdf:RDF>
 </metadata>
 <g id="layer1">
  <rect id="rect1373-5" x="4" y="4" width="40" height="40" ry="8" fill="#a6815d" fill-rule="evenodd" style="paint-order:stroke fill markers"/>
  <path id="rect817" d="m12 4c-4.432 0-8 3.568-8 8v24c0 4.432 3.568 8 8 8h24c4.432 0 8-3.568 8-8v-24c0-4.432-3.568-8-8-8h-24zm0 1h24c3.878 0 7 3.122 7 7v24c0 3.878-3.122 7-7 7h-24c-3.878 0-7-3.122-7-7v-24c0-3.878 3.122-7 7-7z" fill-rule="evenodd" opacity=".3" style="paint-order:stroke fill markers"/>
  <rect id="rect829" x="22" y="22" width="4" height="4" ry="2" fill="#efefef" fill-rule="evenodd" style="paint-order:stroke fill markers"/>
  <path id="path831" d="m27.574 19.072s10.658 9.0437 8.0281 15.044c-1.7714 4.0411-9.1531 0.60378-9.1531 0.60378s5.1544 0.23825 6.3407-1.5598c3.2909-4.9878-5.2157-14.088-5.2157-14.088z" fill="#efefef"/>
  <path id="path831-5" d="m18.996 20.35s9.0437-10.658 15.044-8.0281c4.0411 1.7714 0.60378 9.1531 0.60378 9.1531s0.23825-5.1544-1.5598-6.3407c-4.9878-3.2909-14.088 5.2157-14.088 5.2157z" fill="#efefef"/>
  <path id="path831-50" d="m20.372 28.929s-10.658-9.0437-8.0281-15.044c1.7714-4.0411 9.1531-0.60378 9.1531-0.60378s-5.1544-0.23825-6.3407 1.5598c-3.2909 4.9878 5.2157 14.088 5.2157 14.088z" fill="#efefef"/>
  <path id="path831-5-0" d="m28.899 27.701s-9.0437 10.658-15.044 8.0281c-4.0411-1.7714-0.60378-9.1531-0.60378-9.1531s-0.23824 5.1544 1.5598 6.3407c4.9878 3.2909 14.088-5.2157 14.088-5.2157z" fill="#efefef"/>
 </g>
</svg>
