<?xml version="1.0" encoding="UTF-8"?>
<!-- Created with Inkscape (http://www.inkscape.org/) -->
<svg id="SVGRoot" width="48px" height="48px" version="1.1" viewBox="0 0 48 48" xmlns="http://www.w3.org/2000/svg" xmlns:cc="http://creativecommons.org/ns#" xmlns:dc="http://purl.org/dc/elements/1.1/" xmlns:rdf="http://www.w3.org/1999/02/22-rdf-syntax-ns#" xmlns:xlink="http://www.w3.org/1999/xlink">
 <defs id="defs815">
  <style id="style819">.cls-1{fill:none;stroke:#fff;stroke-linecap:round;stroke-linejoin:round;}</style>
  <style id="style819-26">.cls-1{fill:none;stroke:#fff;stroke-linecap:round;stroke-linejoin:round;}</style>
  <style id="style2">.a{fill:none;stroke:#b1b5bd;stroke-linecap:round;stroke-linejoin:round;isolation:isolate;opacity:0.63;}</style>
  <style id="style819-5">.cls-1{fill:none;stroke:#fff;stroke-linecap:round;stroke-linejoin:round;}</style>
  <style id="style819-2">.cls-1{fill:none;stroke:#fff;stroke-linecap:round;stroke-linejoin:round;}</style>
  <style id="style819-3">.cls-1{fill:none;stroke:#fff;stroke-linecap:round;stroke-linejoin:round;}</style>
  <style id="style819-36">.cls-1{fill:none;stroke:#fff;stroke-linecap:round;stroke-linejoin:round;}</style>
  <style id="style819-1">.cls-1{fill:none;stroke:#fff;stroke-linecap:round;stroke-linejoin:round;}</style>
 </defs>
 <metadata id="metadata818">
  <rdf:RDF>
   <cc:Work rdf:about="">
    <dc:format>image/svg+xml</dc:format>
    <dc:type rdf:resource="http://purl.org/dc/dcmitype/StillImage"/>
    <dc:title/>
   </cc:Work>
  </rdf:RDF>
 </metadata>
 <g id="layer1" fill-rule="evenodd">
  <rect id="rect1373-5" x="4" y="4" width="40" height="40" ry="8" fill="#4e4e4e" style="paint-order:stroke fill markers"/>
  <path id="rect817" d="m12 4c-4.432 0-8 3.568-8 8v24c0 4.432 3.568 8 8 8h24c4.432 0 8-3.568 8-8v-24c0-4.432-3.568-8-8-8h-24zm0 1h24c3.878 0 7 3.122 7 7v24c0 3.878-3.122 7-7 7h-24c-3.878 0-7-3.122-7-7v-24c0-3.878 3.122-7 7-7z" opacity=".4" style="paint-order:stroke fill markers"/>
  <path id="rect818" d="m15 12v3h3v-3zm3 3v3h-3v3h-3v-3h-3v6h3v3h3v3h3v3h3v-3h6v3h3v-3h3v-3h3v-3h3v-6h-3v3h-3v-3h-3v-3h-3v3h-6v-3zm12 0h3v-3h-3zm0 18v3h3v-3zm-12 0h-3v3h3z" fill="#bfea83" style="paint-order:normal"/>
  <path id="rect825" d="m18 21v3h3v-3zm9 0v3h3v-3z" fill="#4e4e4e" style="paint-order:normal"/>
  <path id="rect818-1" d="m21 33v3h3v-3h-3zm3 3v3h-3v3h15c1.0955 0 2.1179-0.29595 3-0.80469v-2.1953h-3v-3h-3v3h-6v-3h-3zm12 0h3v-3h-3v3zm-21 3v3h3v-3h-3z" fill="#b072dd" style="paint-order:normal"/>
  <path id="rect818-1-6" d="m12 6c-1.0955 0-2.1179 0.29595-3 0.80469v2.1953h3v3h3v-3h6v3h3v-3h3v-3h-15zm12 6v3h3v-3h-3zm-12 0h-3v3h3v-3z" fill="#f97263" style="paint-order:normal"/>
  <path id="rect818-1-6-7" d="m36 9v6h3v3h3v-6h-3v-3h-3z" fill="#ffdd75" style="paint-order:normal"/>
  <path id="rect818-1-6-7-5" d="m9 27v3h-3v6h3v-3h3v-6h-3z" fill="#729dec" style="paint-order:normal"/>
 </g>
</svg>
