<?xml version="1.0" encoding="UTF-8"?>
<!-- Created with Inkscape (http://www.inkscape.org/) -->
<svg id="SVGRoot" width="48px" height="48px" version="1.1" viewBox="0 0 48 48" xml:space="preserve" xmlns="http://www.w3.org/2000/svg" xmlns:cc="http://creativecommons.org/ns#" xmlns:dc="http://purl.org/dc/elements/1.1/" xmlns:rdf="http://www.w3.org/1999/02/22-rdf-syntax-ns#"><defs><style>.cls-1{fill:none;stroke:#fff;stroke-linecap:round;stroke-linejoin:round;}</style><style>.cls-1{fill:none;stroke:#fff;stroke-linecap:round;stroke-linejoin:round;}</style></defs><metadata><rdf:RDF><cc:Work rdf:about=""><dc:format>image/svg+xml</dc:format><dc:type rdf:resource="http://purl.org/dc/dcmitype/StillImage"/></cc:Work></rdf:RDF></metadata><rect x="4" y="4" width="40" height="40" ry="8" fill="#474475" fill-rule="evenodd" style="paint-order:stroke fill markers"/><rect x="10" y="8" width="28" height="28" ry="14" fill="#fff" stroke-linecap="round" stroke-linejoin="round" stroke-width="2"/><g stroke-linecap="round" stroke-linejoin="round"><rect x="12" y="10" width="24" height="24" ry="12" fill="#c0d0e4" stroke-width="2"/><rect x="14" y="12" width="20" height="29" ry="10.203" fill="#42435d" stroke-width="1.7006"/><rect x="26" y="22" width="10" height="4" ry="2" fill="#fccc6f" stroke-width="1.9069"/></g><g stroke-linecap="round" stroke-linejoin="round"><rect x="16" y="18" width="8" height="8" ry="4" fill="#fff" stroke-width="2"/><rect x="16" y="24" width="8" height="8" ry="4" fill="#42435d" stroke-width="1.6"/><path d="m4 31v5c0 4.432 3.568 8 8 8h22v-13h-30z" fill="#87899b" stroke-width="2.1742"/><rect x="11" y="30" width="27" height="6" ry="3" fill="#fccc6f" stroke-width="2"/></g><path d="m12 4c-4.432 0-8 3.568-8 8v24c0 4.432 3.568 8 8 8h24c4.432 0 8-3.568 8-8v-24c0-4.432-3.568-8-8-8zm0 1h24c3.878 0 7 3.122 7 7v24c0 3.878-3.122 7-7 7h-24c-3.878 0-7-3.122-7-7v-24c0-3.878 3.122-7 7-7z" fill-rule="evenodd" opacity=".4" style="paint-order:stroke fill markers"/><rect x="27" y="37" width="6" height="6" ry="3" fill="#fccc6f" stroke-linecap="round" stroke-linejoin="round" stroke-width="1.7143"/><rect x="28" y="38" width="4" height="4" ry="2" fill="#7f9cef" stroke-linecap="round" stroke-linejoin="round" stroke-width="1.6"/></svg>
