<?xml version="1.0" encoding="UTF-8"?>
<!-- Created with Inkscape (http://www.inkscape.org/) -->
<svg id="SVGRoot" width="48px" height="48px" version="1.1" viewBox="0 0 48 48" xml:space="preserve" xmlns="http://www.w3.org/2000/svg" xmlns:cc="http://creativecommons.org/ns#" xmlns:dc="http://purl.org/dc/elements/1.1/" xmlns:rdf="http://www.w3.org/1999/02/22-rdf-syntax-ns#"><defs><style>.cls-1{fill:none;stroke:#fff;stroke-linecap:round;stroke-linejoin:round;}</style><style>.cls-1{fill:none;stroke:#fff;stroke-linecap:round;stroke-linejoin:round;}</style><style>.cls-1{fill:none;stroke:#fff;stroke-linecap:round;stroke-linejoin:round;}</style><style>.cls-1{fill:none;stroke:#fff;stroke-linecap:round;stroke-linejoin:round;}</style><style id="current-color-scheme" type="text/css">.ColorScheme-Text {
        color:#31363b;
      }
      .ColorScheme-Accent {
        color:#3daee9;
      }</style><style type="text/css">.ColorScheme-Text {
        color:#31363b;
      }
      .ColorScheme-Accent {
        color:#3daee9;
      }</style></defs><metadata><rdf:RDF><cc:Work rdf:about=""><dc:format>image/svg+xml</dc:format><dc:type rdf:resource="http://purl.org/dc/dcmitype/StillImage"/></cc:Work></rdf:RDF></metadata><rect x="4" y="4" width="40" height="40" ry="8" fill="#d35244" fill-rule="evenodd" style="paint-order:stroke fill markers"/><path d="m8 28c0-12 15-18 15-18s-3 3.0563-3 5c0 2 1 2 1 2h1v14s0 1 3 1 3-2 3-2v-11c0-1-1-3-1-3s1 0 2 1c3-4 8-5 8-5s-3 3-3 5v13s0 1 1 1c1.9437 0 5-3 5-3s-4 7-8 9c-2-1-3-2-3-2s-1 2-3 3c-8-1-13-5-13-5h2c1 0 1-1 1-1v-11s0-1-1-1c-3 0-7 8-7 8z" fill="#fff6c7"/><path d="m12 4c-4.432 0-8 3.568-8 8v24c0 4.432 3.568 8 8 8h24c4.432 0 8-3.568 8-8v-24c0-4.432-3.568-8-8-8zm0 1h24c3.878 0 7 3.122 7 7v24c0 3.878-3.122 7-7 7h-24c-3.878 0-7-3.122-7-7v-24c0-3.878 3.122-7 7-7z" fill-rule="evenodd" opacity=".3" style="paint-order:stroke fill markers"/><path d="m12 6c-3.324 0-6 2.676-6 6v5s1-5 4-7 5-1 5-1l-3-2 5-1h-5z" fill="#fff" stroke-linecap="round" stroke-linejoin="bevel"/><path d="m36 42c3.324 0 6-2.676 6-6v-5s-1 5-4 7-5 1-5 1l3 2-5 1z" fill="#fff" stroke-linecap="round" stroke-linejoin="bevel"/></svg>
