<?xml version="1.0" encoding="UTF-8"?>
<!-- Created with Inkscape (http://www.inkscape.org/) -->
<svg id="SVGRoot" width="48px" height="48px" version="1.1" viewBox="0 0 48 48" xmlns="http://www.w3.org/2000/svg" xmlns:cc="http://creativecommons.org/ns#" xmlns:dc="http://purl.org/dc/elements/1.1/" xmlns:rdf="http://www.w3.org/1999/02/22-rdf-syntax-ns#" xmlns:xlink="http://www.w3.org/1999/xlink">
 <defs id="defs815">
  <style id="style819">.cls-1{fill:none;stroke:#fff;stroke-linecap:round;stroke-linejoin:round;}</style>
  <style id="style819-6">.cls-1{fill:none;stroke:#fff;stroke-linecap:round;stroke-linejoin:round;}</style>
  <style id="style2">.a{fill:none;stroke:#b1b5bd;stroke-linecap:round;stroke-linejoin:round;isolation:isolate;opacity:0.63;}</style>
  <style id="style819-5">.cls-1{fill:none;stroke:#fff;stroke-linecap:round;stroke-linejoin:round;}</style>
  <style id="style819-2">.cls-1{fill:none;stroke:#fff;stroke-linecap:round;stroke-linejoin:round;}</style>
  <style id="style819-3">.cls-1{fill:none;stroke:#fff;stroke-linecap:round;stroke-linejoin:round;}</style>
  <style id="style819-36">.cls-1{fill:none;stroke:#fff;stroke-linecap:round;stroke-linejoin:round;}</style>
  <style id="style819-27">.cls-1{fill:none;stroke:#fff;stroke-linecap:round;stroke-linejoin:round;}</style>
  <style id="style2-9">.a{fill:none;stroke:#b1b5bd;stroke-linecap:round;stroke-linejoin:round;isolation:isolate;opacity:0.63;}</style>
  <style id="style819-63">.cls-1{fill:none;stroke:#fff;stroke-linecap:round;stroke-linejoin:round;}</style>
  <style id="style819-2-7">.cls-1{fill:none;stroke:#fff;stroke-linecap:round;stroke-linejoin:round;}</style>
  <style id="style819-3-4">.cls-1{fill:none;stroke:#fff;stroke-linecap:round;stroke-linejoin:round;}</style>
  <style id="style819-36-2">.cls-1{fill:none;stroke:#fff;stroke-linecap:round;stroke-linejoin:round;}</style>
  <style id="style2-3">.a{fill:none;stroke:#b1b5bd;stroke-linecap:round;stroke-linejoin:round;isolation:isolate;opacity:0.63;}</style>
  <style id="style819-5-3">.cls-1{fill:none;stroke:#fff;stroke-linecap:round;stroke-linejoin:round;}</style>
  <style id="style819-9">.cls-1{fill:none;stroke:#fff;stroke-linecap:round;stroke-linejoin:round;}</style>
 </defs>
 <metadata id="metadata818">
  <rdf:RDF>
   <cc:Work rdf:about="">
    <dc:format>image/svg+xml</dc:format>
    <dc:type rdf:resource="http://purl.org/dc/dcmitype/StillImage"/>
    <dc:title/>
   </cc:Work>
  </rdf:RDF>
 </metadata>
 <g id="layer1" fill-rule="evenodd">
  <rect id="rect1373-5" x="4" y="4" width="40" height="40" ry="8" fill="#3d52a1" style="paint-order:stroke fill markers"/>
  <path id="rect817" d="m12 4c-4.432 0-8 3.568-8 8v24c0 4.432 3.568 8 8 8h24c4.432 0 8-3.568 8-8v-24c0-4.432-3.568-8-8-8h-24zm0 1h24c3.878 0 7 3.122 7 7v24c0 3.878-3.122 7-7 7h-24c-3.878 0-7-3.122-7-7v-24c0-3.878 3.122-7 7-7z" opacity=".4" style="paint-order:stroke fill markers"/>
  <path id="rect840" d="m21.513 10.056c-0.6162 1.0024-0.67749 2.631-0.86854 3.9152 0.94249 0.51612 2.4348 1.4645 4.2736 2.508 0.76606 0.56897 0.8262 0.57359 1.4932 0.11476 0.96198-0.66173 1.9961-1.0179 3.6847-1.2691 1.2943-0.19254 1.4415-0.11481 2.0374 1.076 0.44753 0.89432 0.76763 1.7489 1.1334 3.0259 0.66634 0.52795 1.7866 0.61108 2.7912 0.6924 0.62511-1.7952 1.1392-3.2042 1.7564-5.116-1.2981 0.41946-2.3847 0.82471-3.7882 1.2077-0.38652 0.02203-0.44181-0.0105-0.46943-0.27611-0.13764-1.3236-0.5802-3.6125-0.69851-3.6125-1.1882 0.67781-2.4672 1.4266-3.716 2.0471-0.84198-1.1302-0.83256-1.7331-1.4989-3.4504-1.295 0.63974-2.119 1.3929-3.4495 2.2463-1.0084-0.92947-1.924-2.0644-2.6809-3.1092zm-1.8363 4.9777c-0.18133-0.0071-0.35816 0.04171-0.59408 0.13076-1.185 0.4473-2.7901 1.8167-2.9702 2.5341-0.05174 0.20614-0.0072 0.548 0.11642 0.8963 0.10999 0.30968 0.19991 0.64114 0.19991 0.73661 0 0.3326-0.56014 0.69485-2.1066 1.3617-0.85617 0.36921-1.9652 0.88218-2.4645 1.14-0.49928 0.25777-1.0847 0.53301-1.3008 0.61172-0.2537 0.09241-0.41923 0.24821-0.46732 0.4398-0.091442 0.36435 0.12332 1.1195 0.42404 1.4909l0.22343 0.27587c0.43888-0.46486 1.0074-0.81202 1.5212-1.1305 0.29793 0.43972 0.04459 1.3434 0.01621 2.1073-0.35168-0.02275-0.70337-0.04546-1.0551-0.0682 0.02908 0.82334 0.34658 1.6314 0.57644 2.3152 0.50467 1.2725 0.54585 1.3053 1.6414 1.3053 0.34381 0 0.48731 0.05671 0.53317 0.21073 0.29682 0.99691 0.94114 1.6645 1.3105 1.358 0.1016-0.08432 0.18462-0.22792 0.18462-0.31915 0-0.25145 0.25447-0.20306 1.1583 0.2199 1.4406 0.67415 2.5812 0.58733 3.8775-0.2954 0.28613-0.19483 0.55136-0.3233 0.58938-0.28528 0.12136 0.12136-0.31181 1.0852-0.69874 1.5546-0.20563 0.24946-0.57394 0.55554-0.81822 0.68016-0.42672 0.2177-0.45035 0.26358-0.60537 1.1705-0.16723 0.9783-0.48699 1.8755-0.71968 2.0193-0.07373 0.04557-0.13406 0.16798-0.13406 0.27188 0 0.15272 0.09228 0.17424 0.48167 0.11313 0.26491-0.04159 0.68987-0.10803 0.94428-0.14793l0.46262-0.07267 0.15687 0.58444c0.2347 0.8741 0.56654 1.3669 0.92052 1.3669 0.67033 0 1.8439-0.86732 2.6435-1.9535l0.52094-0.70744 0.25142 0.49296c0.31656 0.6205 0.98518 1.3673 1.6861 1.8834 0.64261 0.47313 0.78937 0.49527 0.89089 0.13406 0.15435-0.54918 0.21398-2.5712 0.09124-3.0974-0.06908-0.29623-0.1084-0.55601-0.08724-0.57715 0.02114-0.02114 0.54637 0.20596 1.1672 0.50471 0.78307 0.3768 1.4055 0.58408 2.032 0.67663 0.49672 0.07339 1.1605 0.20778 1.4751 0.29846 0.49971 0.14404 0.57198 0.14221 0.57198-0.01413 0-0.27356-0.4445-1.0857-1.1788-2.1536-0.64381-0.93642-1.3049-2.1951-1.2053-2.2947 0.02691-0.02691 0.23554 0.07921 0.46379 0.23566 0.22825 0.15644 1.1195 0.74456 1.9805 1.3069 0.86098 0.56238 1.898 1.3565 2.3046 1.7648l0.7392 0.74249 0.13311-0.76436c0.26272-1.5087 0.28164-2.1754 0.08749-3.0913-0.23024-1.0861-0.67584-1.85-1.7404-2.9838l-0.80152-0.85373 1.445 0.01765c1.5397 0.01865 2.4531-0.17452 3.0708-0.64935l0.30081-0.23119-0.3295-0.60185c-0.22762-0.4157-0.39077-0.99536-0.52776-1.8749-0.22461-1.4421-0.45823-1.8963-1.1853-2.3041-0.69229-0.38833-1.8534-0.643-2.9307-0.643-0.90567 0-0.98509 0.02285-1.7037 0.48731-0.41459 0.26796-0.9019 0.51674-1.0828 0.55292-0.41585 0.08316-0.72955-0.20939-0.72955-0.68039 0-0.47078-0.1217-0.51291-0.77965-0.26905-0.54762 0.20296-0.57028 0.20219-0.73567-0.024-0.77156-1.0552 1.445-3.4658 3.0231-3.2879 0.63149 0.07118 0.66895-0.02635 0.29305-0.76318-0.33535-0.65734-0.5748-0.7176-1.7846-0.44803-1.3149 0.29299-2.6651 0.85842-3.283 1.3747-0.26893 0.22468-0.52472 0.40852-0.56845 0.40852-1.8624-1.0012-3.9847-2.2677-5.9218-3.1889zm1.4871 5.1612c0.02803-0.0022 0.04545-0.0016 0.04963 0.0027 0.09805 0.09805-0.60269 1.2701-0.86032 1.4389-0.16986 0.1113-0.41532 0.41132-0.54563 0.66676-0.21248 0.41649-0.50215 0.60891-0.92405 0.61408-0.07386 0.0011-0.28083-0.11375-0.46002-0.25471-0.27712-0.21799-0.37178-0.23511-0.63383-0.11571-0.42281 0.19264-0.49574 0.06632-0.2239-0.3883 0.12615-0.21097 0.26074-0.62743 0.29892-0.92546l0.06938-0.54188 1.144-0.14746c0.62918-0.08116 1.3601-0.19909 1.6244-0.262 0.19825-0.04719 0.37733-0.08024 0.46144-0.08678zm-7.7403 10.06c-0.20786 0.01003-0.43679 0.17196-0.74178 0.47695-0.35014 0.35014-0.46755 0.56515-0.46755 0.85656 0 0.35796 0.02647 0.38462 0.33114 0.33232 0.18213-0.03126 0.42251-0.09626 0.53411-0.14417 0.18355-0.0788 0.18068-0.0286-0.03011 0.52612-0.12816 0.33729-0.23307 0.80232-0.23307 1.0334 0 0.49915 0.16477 0.53155 0.93322 0.18274l0.51176-0.23237v0.35913c0 0.41814 0.29854 1.1945 0.45932 1.1945 0.06069 0 0.24647-0.10726 0.41299-0.23824 0.16652-0.13098 0.41802-0.4832 0.5588-0.78271 0.14078-0.29951 0.28502-0.54446 0.32056-0.54446 0.03555 0 0.1799 0.10745 0.3208 0.23871 0.32947 0.30695 0.4979 0.17173 0.70415-0.56492 0.13086-0.46739 0.13016-0.57131-0.0037-0.61596-0.08863-0.02954-0.443-0.20195-0.78741-0.38311-0.46059-0.24228-0.68073-0.29889-0.8328-0.21379-0.37893 0.21206-0.7212-0.0049-1.1776-0.74625-0.31334-0.50906-0.54556-0.74734-0.81281-0.73449z" fill="#ffd34e" style="paint-order:stroke fill markers"/>
 </g>
</svg>
