<?xml version="1.0" encoding="UTF-8"?>
<!-- Created with Inkscape (http://www.inkscape.org/) -->
<svg id="SVGRoot" width="48px" height="48px" version="1.1" viewBox="0 0 48 48" xml:space="preserve" xmlns="http://www.w3.org/2000/svg" xmlns:cc="http://creativecommons.org/ns#" xmlns:dc="http://purl.org/dc/elements/1.1/" xmlns:rdf="http://www.w3.org/1999/02/22-rdf-syntax-ns#"><defs><style>.cls-1{fill:none;stroke:#fff;stroke-linecap:round;stroke-linejoin:round;}</style><style>.cls-1{fill:none;stroke:#fff;stroke-linecap:round;stroke-linejoin:round;}</style><style>.cls-1{fill:none;stroke:#fff;stroke-linecap:round;stroke-linejoin:round;}</style><style>.cls-1{fill:none;stroke:#fff;stroke-linecap:round;stroke-linejoin:round;}</style><style>.cls-1{fill:none;stroke:#fff;stroke-linecap:round;stroke-linejoin:round;}</style><style>.cls-1{fill:none;stroke:#fff;stroke-linecap:round;stroke-linejoin:round;}</style><style>.cls-1{fill:none;stroke:#fff;stroke-linecap:round;stroke-linejoin:round;}</style><style>.cls-1{fill:none;stroke:#fff;stroke-linecap:round;stroke-linejoin:round;}</style><style>.cls-1{fill:none;stroke:#fff;stroke-linecap:round;stroke-linejoin:round;}</style><style>.cls-1{fill:none;stroke:#fff;stroke-linecap:round;stroke-linejoin:round;}</style><style>.cls-1{fill:none;stroke:#fff;stroke-linecap:round;stroke-linejoin:round;}</style><style>.cls-1{fill:none;stroke:#fff;stroke-linecap:round;stroke-linejoin:round;}</style><style>.a{fill:none;stroke:#b1b5bd;stroke-linecap:round;stroke-linejoin:round;isolation:isolate;opacity:0.63;}</style><style>.cls-1{fill:none;stroke:#fff;stroke-linecap:round;stroke-linejoin:round;}</style><style>.cls-1{fill:none;stroke:#fff;stroke-linecap:round;stroke-linejoin:round;}</style><style>.cls-1{fill:none;stroke:#fff;stroke-linecap:round;stroke-linejoin:round;}</style><style>.cls-1{fill:none;stroke:#fff;stroke-linecap:round;stroke-linejoin:round;}</style><style>.a{fill:none;stroke:#b1b5bd;stroke-linecap:round;stroke-linejoin:round;isolation:isolate;opacity:0.63;}</style><style>.cls-1{fill:none;stroke:#fff;stroke-linecap:round;stroke-linejoin:round;}</style><style>.cls-1{fill:none;stroke:#fff;stroke-linecap:round;stroke-linejoin:round;}</style><style>.cls-1{fill:none;stroke:#fff;stroke-linecap:round;stroke-linejoin:round;}</style><style>.cls-1{fill:none;stroke:#fff;stroke-linecap:round;stroke-linejoin:round;}</style><style>.cls-1{fill:none;stroke:#fff;stroke-linecap:round;stroke-linejoin:round;}</style><style>.cls-1{fill:none;stroke:#fff;stroke-linecap:round;stroke-linejoin:round;}</style><style>.cls-1{fill:none;stroke:#fff;stroke-linecap:round;stroke-linejoin:round;}</style><style>.cls-1{fill:none;stroke:#fff;stroke-linecap:round;stroke-linejoin:round;}</style><style>.cls-1{fill:none;stroke:#fff;stroke-linecap:round;stroke-linejoin:round;}</style><style>.cls-1{fill:none;stroke:#fff;stroke-linecap:round;stroke-linejoin:round;}</style><style>.cls-1{fill:none;stroke:#fff;stroke-linecap:round;stroke-linejoin:round;}</style></defs><metadata><rdf:RDF><cc:Work rdf:about=""><dc:format>image/svg+xml</dc:format><dc:type rdf:resource="http://purl.org/dc/dcmitype/StillImage"/></cc:Work></rdf:RDF></metadata><rect x="4" y="4" width="40" height="40" ry="8" fill="#344968" fill-rule="evenodd" style="paint-order:stroke fill markers"/><path d="m12 4c-4.432 0-8 3.568-8 8v24c0 4.432 3.568 8 8 8h24c4.432 0 8-3.568 8-8v-24c0-4.432-3.568-8-8-8zm0 1h24c3.878 0 7 3.122 7 7v24c0 3.878-3.122 7-7 7h-24c-3.878 0-7-3.122-7-7v-24c0-3.878 3.122-7 7-7z" fill-rule="evenodd" opacity=".4" style="paint-order:stroke fill markers"/><path d="m25.141 12.151c-11.107 2.4616-4.8912 18.658-7.5957 19.627-0.51934 0.18604-1.001 0.16681-1.4531-0.0039 0.01774 0.22855 0.01727 0.44931 2e-3 0.66602-0.01455 0.20586-0.04509 0.39635-0.09766 0.57031 2.3885-1.4509 7.4198-0.61594 9.8066-2.0723-0.29064-0.07181-0.55929-0.23681-0.78906-0.44727-0.35138-0.32183-0.65266-0.76341-0.92773-1.3008-0.55015-1.0747-0.98327-2.541-1.207-4.1973-0.22376-1.6563-0.19627-3.1878 0.04883-4.3711 0.12255-0.59163 0.29751-1.0976 0.55078-1.502 0.25328-0.40434 0.62037-0.73423 1.0938-0.79883 0.47338-0.0646 0.91425 0.15474 1.2656 0.47656 0.35138 0.32183 0.65266 0.76341 0.92773 1.3008 0.55015 1.0747 0.98327 2.5429 1.207 4.1992 0.13303 0.98466 0.17659 1.9245 0.13867 2.7734 0.1821-0.92465 0.5798-1.854 0.79905-2.6086 1.5509-5.3378 1.3039-8.4634-0.3298-10.84-0.50874-0.74-2.6135-1.6545-3.44-1.4713zm-14.363 12.874c-0.16066 0.01211-0.37437 0.23448-0.44727 0.39062-0.96243 2.0608 0.15475 4.6377 1.0117 6.7422 0.36729 0.90192 1.3414 1.3411 3.0977 1.5625-0.20805-0.11226-0.40225-0.27522-0.58984-0.48047-0.42079-0.46038-0.9582-1.0954-1.2344-1.8926-0.27616-0.79719-0.33139-1.6236-0.28711-2.25 0.02214-0.31321 0.17671-0.57266 0.29297-0.81055 0.05223-0.10687 0.11774-0.20937 0.20117-0.29883-0.65644-1.1132-1.2814-2.213-1.9277-2.918-0.03257-0.03554-0.0722-0.04831-0.11719-0.04492zm4.3164 8.8438c-0.01349 0.0013-0.02757 0.0031-0.04102 0.0039 0.0039 0.0036 0.01012 0.0076 0.01367 0.0098 8.65e-4 4.31e-4 5e-3 0.0016 0.0059 2e-3h0.01l2e-3 -2e-3h2e-3l0.0039-0.0039v-4e-3c0.0013-2e-3 0.0026-0.0039 0.0039-0.0059z" fill="#fff" stroke-width="2.3576"/><g stroke-linecap="round" stroke-linejoin="round"><path d="m13.129 28.439c-0.47344 0.43346-0.51872 1.5911-0.06836 2.791 0.51358 1.3659 1.4763 2.2704 2.1504 2.0234 0.46887-0.17441 0.6836-0.8718 0.57617-1.7734-7.2e-5 -6.07e-4 7.3e-5 -0.0013 0-2e-3 0 0-0.91793-0.65593-1.2969-1.0684-0.54018-0.58791-1.3613-1.9707-1.3613-1.9707z" fill="#97e266" stroke-width=".42362" style="paint-order:stroke fill markers"/><path d="m27.478 24.363a5.8801 2.0713 82.317 0 1-1.265 6.1072 5.8801 2.0713 82.317 0 1-2.8395-5.5471 5.8801 2.0713 82.317 0 1 1.265-6.1072 5.8801 2.0713 82.317 0 1 2.8395 5.5471z" fill="#97e266" stop-color="#000000" style="paint-order:stroke fill markers"/><ellipse transform="matrix(.4341 .90086 -.8675 .49744 0 0)" cx="34.113" cy=".50963" rx="1.7471" ry=".65038" fill="#344968" stroke-width=".40612" style="paint-order:stroke fill markers"/></g><path d="m34.152 24.746c-1.866-0.06631-3.4668 0.86133-3.4668 0.86133s1.9193 0.51083 2.0391 1.3105c0.49208 3.2858-5.4238 7.8867-5.4238 7.8867 0.0012-5.18e-4 2.8558-1.024 5.5723-2.3398 0.20298-0.49499 0.38489-1.1053 0.19531-1.8887 0.4844 0.39612 0.41507 1.0012 0.43555 1.5879 0.43792-0.22314 1.2539-0.67188 1.2539-0.67187 0 0-0.06415-1.1202-0.8457-2.0254 1.455 0.92488 1.2833 1.7711 1.2832 1.7715 0 0 0.9777-0.63275 1.3594-0.95312-0.15316-0.57287-0.59145-1.656-1.8223-2.6484 1.7685 0.46836 2.1707 1.8631 2.25 2.2578 1.2081-1.2923 1.1822-2.903 0.27539-3.8086-0.16982-0.16958-0.34398-0.32044-0.52148-0.45313-0.83204-0.62192-1.7358-0.85658-2.584-0.88672z" fill="#fff" stroke-width="2.3576"/><g stroke-linecap="round" stroke-linejoin="round"><ellipse transform="matrix(.99403 -.10913 .10779 .99417 0 0)" cx="22.738" cy="27.88" rx=".9616" ry="2.8847" fill="#344968" stroke-width=".47155" style="paint-order:stroke fill markers"/><ellipse transform="matrix(.99491 -.10076 .09941 .99505 0 0)" cx="22.885" cy="26.533" rx=".51778" ry="1.3314" fill="#fff" stroke-width=".47155" style="paint-order:stroke fill markers"/><ellipse transform="matrix(.47196 .88162 -.92419 .38192 0 0)" cx="33.957" cy="1.8822" rx=".72836" ry=".33008" fill="#fff" stroke-width=".37836" style="paint-order:stroke fill markers"/></g></svg>
