<?xml version="1.0" encoding="UTF-8"?>
<!-- Created with Inkscape (http://www.inkscape.org/) -->
<svg id="SVGRoot" width="48px" height="48px" version="1.1" viewBox="0 0 48 48" xml:space="preserve" xmlns="http://www.w3.org/2000/svg" xmlns:cc="http://creativecommons.org/ns#" xmlns:dc="http://purl.org/dc/elements/1.1/" xmlns:rdf="http://www.w3.org/1999/02/22-rdf-syntax-ns#"><defs><style>.cls-1{fill:none;stroke:#fff;stroke-linecap:round;stroke-linejoin:round;}</style></defs><metadata><rdf:RDF><cc:Work rdf:about=""><dc:format>image/svg+xml</dc:format><dc:type rdf:resource="http://purl.org/dc/dcmitype/StillImage"/></cc:Work></rdf:RDF></metadata><rect x="4" y="4" width="40" height="40" ry="8" fill="#D7AA4C" fill-rule="evenodd" style="paint-order:stroke fill markers"/><path d="m28 13 9 21-1 1h-24l-1-2 8-18 4 4z" fill="#4195D8" style="paint-order:stroke fill markers"/><path d="m12 4c-4.432 0-8 3.568-8 8v24c0 4.432 3.568 8 8 8h24c4.432 0 8-3.568 8-8v-24c0-4.432-3.568-8-8-8zm0 1h24c3.878 0 7 3.122 7 7v24c0 3.878-3.122 7-7 7h-24c-3.878 0-7-3.122-7-7v-24c0-3.878 3.122-7 7-7z" fill-rule="evenodd" opacity=".3" style="paint-order:stroke fill markers"/><path d="m15 21 3.0901 5.8385c0.90984 1.4557 3.0067 1.5204 4.0045 0.12348l2.0834-3.8112c0.43029-0.60241 1.2985-0.67427 1.822-0.15079l1 1.2981c1.0159 1.0159 2.716 0.8066 3.4552-0.42536l1.5448-2.8728-4-8-5 6-4-4z" fill="#FFF4E6" style="paint-order:stroke fill markers"/><path d="m28 12c-1 0-1.691 0.5894-2.332 1.2305-0.64107 0.64107-1.2287 1.4328-1.75 2.2148-0.54546 0.81819-0.62428 1.0361-0.94922 1.625-0.19095-0.30266-0.16466-0.33217-0.41797-0.66992-0.407-0.54267-0.8867-1.1004-1.457-1.5566s-1.2604-0.84375-2.0938-0.84375c-0.5 0-0.82122 0.22986-1.0703 0.44336-0.24909 0.2135-0.45197 0.45858-0.6582 0.74414-0.41247 0.57112-0.82464 1.3075-1.2598 2.1777-0.87025 1.7405-1.8125 4.0065-2.6934 6.2715-1.7617 4.53-3.2676 9.0469-3.2676 9.0469l0.05469-0.13086s-0.44031 0.73292-0.20117 1.6895c0.11957 0.47827 0.47964 1.0048 1.0215 1.3145 0.54184 0.30963 1.2131 0.44336 2.0742 0.44336h22c0.86111 0 1.5324-0.13373 2.0742-0.44336 0.54185-0.30963 0.90192-0.83618 1.0215-1.3145 0.23914-0.95654-0.20117-1.6895-0.20117-1.6895l0.0332 0.07617s-2.0023-5.0065-4.1328-10.02c-1.0653-2.5065-2.1622-5.0145-3.0645-6.9141-0.45115-0.94978-0.85003-1.7437-1.1895-2.334-0.16971-0.29515-0.31982-0.53767-0.48438-0.75-0.08228-0.10616-0.16515-0.20596-0.29492-0.31641-0.12977-0.11044-0.3138-0.29492-0.76172-0.29492zm-0.29102 2.2051c0.0379 0.06183 0.05518 0.07847 0.09766 0.15234 0.28948 0.50344 0.67966 1.272 1.1191 2.1973 0.87896 1.8504 1.9696 4.3424 3.0293 6.8359 2.1195 4.987 4.1172 9.9805 4.1172 9.9805a1.0001 1.0001 0 0 0 0.0332 0.07617s0.05969 0.26708 0.04883 0.31055c-0.0054 0.02173 0.04214-0.0048-0.07227 0.06055-0.1144 0.065373-0.44314 0.18164-1.082 0.18164h-22c-0.63889 0-0.96763-0.11627-1.082-0.18164-0.1144-0.06537-0.06683-0.03881-0.07227-0.06055-0.01087-0.04346 0.04883-0.31055 0.04883-0.31055a1.0001 1.0001 0 0 0 0.05469-0.13086s1.4941-4.4831 3.2324-8.9531c0.86917-2.235 1.8019-4.469 2.6191-6.1035 0.40862-0.81725 0.79333-1.4871 1.0918-1.9004 0.10923-0.15124 0.17965-0.22006 0.24805-0.29102 0.17676 0.03281 0.39726 0.0932 0.70312 0.33789 0.36717 0.29374 0.76247 0.73603 1.1055 1.1934 0.686 0.91467 1.1562 1.8477 1.1562 1.8477a1.0001 1.0001 0 0 0 1.7891 0s0.73017-1.4566 1.6875-2.8926c0.47867-0.718 1.0161-1.4262 1.5-1.9102 0.33033-0.33033 0.46532-0.35865 0.62695-0.43945z" fill="#174163" stop-color="#000000" stroke-linecap="round" stroke-linejoin="round" style="paint-order:stroke fill markers"/></svg>
