<?xml version="1.0" encoding="UTF-8"?>
<!-- Created with Inkscape (http://www.inkscape.org/) -->
<svg id="SVGRoot" width="48px" height="48px" version="1.1" viewBox="0 0 48 48" xml:space="preserve" xmlns="http://www.w3.org/2000/svg" xmlns:cc="http://creativecommons.org/ns#" xmlns:dc="http://purl.org/dc/elements/1.1/" xmlns:rdf="http://www.w3.org/1999/02/22-rdf-syntax-ns#"><defs><style>.cls-1{fill:none;stroke:#fff;stroke-linecap:round;stroke-linejoin:round;}</style><style>.cls-1{fill:none;stroke:#fff;stroke-linecap:round;stroke-linejoin:round;}</style><style>.cls-1{fill:none;stroke:#fff;stroke-linecap:round;stroke-linejoin:round;}</style><style>.cls-1{fill:none;stroke:#fff;stroke-linecap:round;stroke-linejoin:round;}</style></defs><metadata><rdf:RDF><cc:Work rdf:about=""><dc:format>image/svg+xml</dc:format><dc:type rdf:resource="http://purl.org/dc/dcmitype/StillImage"/></cc:Work></rdf:RDF></metadata><g fill-rule="evenodd"><rect x="4" y="4" width="40" height="40" ry="8" fill="#4e4e4e" style="paint-order:stroke fill markers"/><path d="m7.5312 8c-0.51642 0.57691-0.92074 1.2533-1.1836 2h35.305c-0.26286-0.74668-0.66718-1.4231-1.1836-2h-32.938zm-1.5312 6v2h36v-2zm0 6v2h36v-2zm0 6v2h36v-2zm0 6v2h36v-2zm0.34766 6c0.26286 0.74668 0.66717 1.4231 1.1836 2h32.938c0.51642-0.57692 0.92074-1.2533 1.1836-2h-35.305z" opacity=".2" style="paint-order:stroke fill markers"/><path d="m12 4c-4.432 0-8 3.568-8 8v24c0 4.432 3.568 8 8 8h24c4.432 0 8-3.568 8-8v-24c0-4.432-3.568-8-8-8zm0 1h24c3.878 0 7 3.122 7 7v24c0 3.878-3.122 7-7 7h-24c-3.878 0-7-3.122-7-7v-24c0-3.878 3.122-7 7-7z" opacity=".4" style="paint-order:stroke fill markers"/></g><path d="m24.149 18.207c-0.48912 1.6893-2.4554 7.3663-2.4554 7.3663l-0.83001 3.147-0.31126 0.415 0.24208 0.20751s-0.16953 0.58302-0.31126 1.2104c-0.08052 0.35652-0.76578 1.6777-1.0375 1.6081-0.15652-0.04011-0.02991-0.17934-0.13834-0.22479-0.23223-0.09735-0.57311 0.80615-0.98564 0.66574-0.16942-0.05771-0.01739-0.41298-0.12105-0.45824-0.2517-0.1099-0.48051 0.55549-0.69169 0.38908-0.33218-0.2618 0.62727-1.087 0.415-1.1845-0.28277-0.12988-0.62361 1.254-1.0116 1.0548-0.35404-0.18174 0.73332-1.9522 0.5274-2.0145-0.34103-0.10326-0.39447 0.38822-0.62251 0.26803-0.4598-0.24235-0.17539-0.77525-0.06916-1.1413 0.46007-1.5853 1.4061-4.6192 1.7984-6.4672 0.10811-0.50936 0.64186-1.2192 0.69169-1.4006 0.05005-0.18232-0.44958 0.29397-0.44958 0.29397s0.15977-0.91756 0.39772-1.9108c0.04373-0.18251 0.31745-0.31499 0.34585-0.53606 0.02036-0.15854-0.17082-0.26454-0.12104-0.40637 0.24208-0.68986 0.32786-1.1012 0.58793-1.8848 0.14401-0.43395 0.54058-0.47902 0.76085-1.1413 0.05878-0.17673-0.25793-0.33947-0.20751-0.51877 0.60784-2.1617 1.245-3.9079 1.245-3.9079s0.36258-1.5968 1.2104-1.6254c1.6586-0.056077 2.0304 0.85033 3.1817 2.3863 0.35289 0.47079-0.2202 1.5178 0.06916 1.7638 0.24749 0.21039 0.55539-0.80678 0.89919-0.415 0.64879 0.73935 1.5909 2.2134 1.5909 2.2134s0.51848 0.9071 0.5652 1.4931c0.05829 0.73086-0.42174 1.8566-0.58583 2.2564-0.27755 0.67608 1.0578-0.74219 1.2311-0.40488 0.92678 1.8041 1.4547 3.8526 1.5217 6.7541 0.0341 1.4767-0.22611 2.96-0.58793 4.3922-0.99851 3.9521-3.9637 7.4546-4.15 7.3663-0.14492-0.06849 0.44218-2.1934 0.89919-3.078 0.07369-0.14265-0.20049-0.2914-0.17292-0.44958 0.05755-0.33012 0.65711-0.76085 0.65711-0.76085s-0.39168-0.45615-1.0008-1.5619c-0.11468-0.20816 0.56989-0.70049 0.65499-0.47861 0.20622 0.53767 0.33546 0.71475 0.48419 1.0721 0.0884 0.2124 0.23751-0.91819-0.01047-1.1497-0.39572-0.36936-1.333-1.6046-1.5112-1.9975-0.08107-0.1788 0.25788-0.42265 0.44958-0.38042 0.79288 0.17463 1.6805 1.3288 1.7292 1.1067 0.05211-0.23754-0.43282-0.38504-0.38042-0.62251 0.02686-0.12176 0.32096-0.0832 0.31126-0.20751-0.02565-0.32911-0.31456-0.42275-0.78913-0.47613-0.2638-0.02972-0.98542-0.38726-0.97465-0.66514 0.01069-0.27479 0.2375-0.56058 0.58163-0.54741 0.35186 0.01347 1.1245-0.6398 1.113-0.93971-0.0083-0.21436-0.34125-0.19665-0.59387-0.24802-0.3622-0.07368-1.0144 0.28832-1.2045-0.02867-0.28958-0.48277 0.60334-0.74769 0.81185-1.04 0.16778-0.23518 0.27423-0.23274 0.32942-0.51629 0.05765-0.29616-0.1123-1.0931-0.18934-0.80137-0.08623 0.32646-0.48186 0.53057-0.779 0.38636-0.19949-0.09682-0.23015-0.4749-0.10375-0.65711 0.4346-0.62647 0.94529-1.3774 0.72382-1.3876-0.16106-0.0077-0.92853 0.39579-1.4745 0.58829-0.4435 0.15636-0.19323-0.3584-0.32139-0.44576-0.14911-0.10163-0.4637-0.06281-0.48419-0.24208-0.03289-0.2878 1.2152-0.44511 1.1067-0.69169-0.1176-0.26711-1.2479 0.53752-1.5095 0.09746-0.22413-0.37708 1.4424-1.1732 1.3792-2.0342-0.01373-0.18716-0.37946-0.43181-0.49046-0.28051-0.56287 0.76713-1.025 1.4991-1.2813 1.4218-0.39759-0.11988 0.25588-2.1353 0.21344-2.5495-0.03417-0.33337-0.01731-0.64605-0.35178-0.66687-0.24891-0.01549-0.34565 0.38297-0.415 0.62253z" fill="#71b9e3" stroke-width=".96188"/><style type="text/css">.st0{fill:#FFFFFF;}</style></svg>
