<?xml version="1.0" encoding="UTF-8"?>
<!-- Created with Inkscape (http://www.inkscape.org/) -->
<svg id="SVGRoot" width="48px" height="48px" version="1.1" viewBox="0 0 48 48" xml:space="preserve" xmlns="http://www.w3.org/2000/svg" xmlns:cc="http://creativecommons.org/ns#" xmlns:dc="http://purl.org/dc/elements/1.1/" xmlns:rdf="http://www.w3.org/1999/02/22-rdf-syntax-ns#"><defs><style>.cls-1{fill:none;stroke:#fff;stroke-linecap:round;stroke-linejoin:round;}</style><style>.cls-1{fill:none;stroke:#fff;stroke-linecap:round;stroke-linejoin:round;}</style><style>.cls-1{fill:none;stroke:#fff;stroke-linecap:round;stroke-linejoin:round;}</style></defs><metadata><rdf:RDF><cc:Work rdf:about=""><dc:format>image/svg+xml</dc:format><dc:type rdf:resource="http://purl.org/dc/dcmitype/StillImage"/></cc:Work></rdf:RDF></metadata><rect x="4" y="4" width="40" height="40" ry="8" fill="#ffa300" fill-rule="evenodd" style="paint-order:stroke fill markers"/><path d="m12 4c-4.432 0-8 3.568-8 8v24c0 4.432 3.568 8 8 8h24c4.432 0 8-3.568 8-8v-24c0-4.432-3.568-8-8-8zm0 1h24c3.878 0 7 3.122 7 7v24c0 3.878-3.122 7-7 7h-24c-3.878 0-7-3.122-7-7v-24c0-3.878 3.122-7 7-7z" fill-rule="evenodd" opacity=".3" style="paint-order:stroke fill markers"/><path d="m24 10c-6 5-12 6-12 6s-2 15 12 22c0.015391-0.008795 0.031523-0.018535 0.046875-0.027344 0.017527 0.008814 0.035157 0.018555 0.052734 0.027344 14-8 12-22 12-22s-6-1-12-6c-0.016462 0.013719-0.034319 0.027357-0.050781 0.041016-0.016461-0.013658-0.032366-0.027298-0.048828-0.041016zm0.009766 3c0.012933 0.010778 0.026129 0.022473 0.039062 0.033203 0.012934-0.010731 0.026129-0.022425 0.039063-0.033203 4.7143 3.9286 9.4297 4.7148 9.4297 4.7148s1.5703 10.999-9.4297 17.285c-0.013811-0.006905-0.027245-0.014559-0.041016-0.021484-0.012062 0.006921-0.025017 0.014574-0.037109 0.021484-11-5.5-9.4277-17.285-9.4277-17.285s4.7134-0.78627 9.4277-4.7148z" fill="#4e4e4e" stroke-linecap="round" stroke-linejoin="round" stroke-width="2" style="paint-order:stroke fill markers"/><path d="m24 17-5 7h3l-3 4h4v3h2v-3h4l-3-4h3z" fill="#4e4e4e" stroke-linecap="round" stroke-linejoin="round" stroke-width="2.5" style="paint-order:stroke fill markers"/></svg>
