<?xml version="1.0" encoding="UTF-8"?>
<!-- Created with Inkscape (http://www.inkscape.org/) -->
<svg id="SVGRoot" width="48px" height="48px" version="1.1" viewBox="0 0 48 48" xml:space="preserve" xmlns="http://www.w3.org/2000/svg" xmlns:cc="http://creativecommons.org/ns#" xmlns:dc="http://purl.org/dc/elements/1.1/" xmlns:rdf="http://www.w3.org/1999/02/22-rdf-syntax-ns#"><defs><style>.cls-1{fill:none;stroke:#fff;stroke-linecap:round;stroke-linejoin:round;}</style><style>.cls-1{fill:none;stroke:#fff;stroke-linecap:round;stroke-linejoin:round;}</style><style>.cls-1{fill:none;stroke:#fff;stroke-linecap:round;stroke-linejoin:round;}</style><style>.cls-1{fill:none;stroke:#fff;stroke-linecap:round;stroke-linejoin:round;}</style></defs><metadata><rdf:RDF><cc:Work rdf:about=""><dc:format>image/svg+xml</dc:format><dc:type rdf:resource="http://purl.org/dc/dcmitype/StillImage"/></cc:Work></rdf:RDF></metadata><rect x="4" y="4" width="40" height="40" ry="8" fill="#EEEADD" fill-rule="evenodd" style="paint-order:stroke fill markers"/><path d="m12 4c-4.432 0-8 3.568-8 8v24c0 4.432 3.568 8 8 8h24c4.432 0 8-3.568 8-8v-24c0-4.432-3.568-8-8-8zm0 1h24c3.878 0 7 3.122 7 7v24c0 3.878-3.122 7-7 7h-24c-3.878 0-7-3.122-7-7v-24c0-3.878 3.122-7 7-7z" fill-rule="evenodd" opacity=".3" style="paint-order:stroke fill markers"/><path transform="matrix(.97987 -.19962 .20805 .97812 0 0)" d="m13.052 14.442h12.291c0.55451 0 1.0009 0.44641 1.0009 1.0009v26.024c0 0.55451-0.44641 1.0009-1.0009 1.0009h-12.291c-0.55451 0-1.0009-0.44641-1.0009-1.0009v-26.024c0-0.55451 0.44641-1.0009 1.0009-1.0009z" fill="#4e4e4e" stroke-linecap="round" stroke-linejoin="round" stroke-width="2.0217"/><path d="m18.272 18.166 2.0007-0.40758-0.20824-0.97902s-0.41647-1.958 1.5842-2.3656c0.66691-0.13586 1.3338-0.27172 2.0007-0.40759 2.0007-0.40759 2.4172 1.5504 2.4172 1.5504l1.0412 4.8951s0.41647 1.958-1.5842 2.3656c-1.0004 0.20379-3.0011 0.61138-3.0011 0.61138l0.41647 1.958 3.0011-0.61138c2.0007-0.40759 2.4172 1.5504 2.4172 1.5504l1.0412 4.8951s0.41647 1.958-1.5842 2.3656c-0.66691 0.13586-1.3338 0.27172-2.0007 0.40759-2.0007 0.40759-2.4172-1.5504-2.4172-1.5504l-0.20824-0.97901-2.0007 0.40759 0.41647 1.958s0.62471 2.937 3.6258 2.3257c1.3338-0.27172 2.6676-0.54345 4.0014-0.81517 3.0011-0.61138 2.3764-3.5484 2.3764-3.5484s-0.97177-4.5687-1.4577-6.8531c-0.41647-1.958-2.4172-1.5504-2.4172-1.5504s2.0007-0.40759 1.5842-2.3656c-0.48588-2.2844-1.4577-6.8531-1.4577-6.8531s-0.62471-2.937-3.6258-2.3257c-1.3338 0.27172-2.6676 0.54345-4.0014 0.81517-3.0011 0.61138-2.3764 3.5484-2.3764 3.5484z" fill="#fff" stroke-linecap="round" stroke-linejoin="round" stroke-width="2.0217"/></svg>
