<?xml version="1.0" encoding="UTF-8"?>
<!-- Created with Inkscape (http://www.inkscape.org/) -->
<svg id="SVGRoot" width="48px" height="48px" version="1.1" viewBox="0 0 48 48" xml:space="preserve" xmlns="http://www.w3.org/2000/svg" xmlns:cc="http://creativecommons.org/ns#" xmlns:dc="http://purl.org/dc/elements/1.1/" xmlns:rdf="http://www.w3.org/1999/02/22-rdf-syntax-ns#"><defs><style>.cls-1{fill:none;stroke:#fff;stroke-linecap:round;stroke-linejoin:round;}</style><style>.cls-1{fill:none;stroke:#fff;stroke-linecap:round;stroke-linejoin:round;}</style><style>.cls-1{fill:none;stroke:#fff;stroke-linecap:round;stroke-linejoin:round;}</style><style>.cls-1{fill:none;stroke:#fff;stroke-linecap:round;stroke-linejoin:round;}</style><style>.cls-1{fill:none;stroke:#fff;stroke-linecap:round;stroke-linejoin:round;}</style></defs><metadata><rdf:RDF><cc:Work rdf:about=""><dc:format>image/svg+xml</dc:format><dc:type rdf:resource="http://purl.org/dc/dcmitype/StillImage"/></cc:Work></rdf:RDF></metadata><rect x="4" y="4" width="40" height="40" ry="8" fill="#4e4e4e" fill-rule="evenodd" style="paint-order:stroke fill markers"/><path d="m12 4c-4.432 0-8 3.568-8 8v24c0 4.432 3.568 8 8 8h24c4.432 0 8-3.568 8-8v-24c0-4.432-3.568-8-8-8zm0 1h24c3.878 0 7 3.122 7 7v24c0 3.878-3.122 7-7 7h-24c-3.878 0-7-3.122-7-7v-24c0-3.878 3.122-7 7-7z" fill-rule="evenodd" opacity=".4" style="paint-order:stroke fill markers"/><style type="text/css">.st0{fill:#FFFFFF;}</style><style type="text/css">.st0{fill:#FFFFFF;}</style><style type="text/css">.st0{fill:#FFFFFF;}</style><style type="text/css">.st0{fill:#FFFFFF;}</style><g stroke-linecap="round"><g stroke-linejoin="round" stroke-width="2"><path d="m9 8c-0.554 0-1 0.446-1 1v5c0 0.554 0.446 1 1 1h2v1h-3v2h4s1 0 1-1v-9zm1 2h1v3h-1z" opacity=".3" style="paint-order:stroke fill markers"/><path d="m15 8v1h-1v2h1v4s0 1 1 1h3c1 0 1-1 1-1v-3h-2v2h-1v-3h3v-2h-3v-1z" opacity=".3" style="paint-order:stroke fill markers"/><path d="m22 8h-1v2h3v1h-2s-1 0-1 1v3c0 1 1 1 1 1h4v-7s0-1-1-1zm1 5h1v1h-1z" opacity=".3" style="paint-order:stroke fill markers"/></g><path d="m10 14v5h2s0.68796-0.15141 1.2109 0.89453c2.5813 5.1625 8.0371 15.07 8.0371 15.07l0.57031 1.0352h4.3633l0.57031-1.0352s5.4558-9.9078 8.0371-15.07c0.52297-1.0459 1.2109-0.89453 1.2109-0.89453h2v-5z" fill="#efefef" stop-color="#000000" style="paint-order:stroke fill markers"/><path d="m12 16v1s2 0 3 2c2.5342 5.0684 8 15 8 15h2s5.4658-9.9316 8-15c1-2 3-2 3-2v-1h-9v1.0293s4.5187-0.32378 2.9648 2.5547l-4.4473 8.2363-4.4453-8.2363c-1.4961-2.7714 2.9629-2.5547 2.9629-2.5547v-1.0293z" fill="#6b8661" stop-color="#000000" style="paint-order:stroke fill markers"/></g></svg>
