<?xml version="1.0" encoding="UTF-8"?>
<!-- Created with Inkscape (http://www.inkscape.org/) -->
<svg id="SVGRoot" width="48px" height="48px" version="1.1" viewBox="0 0 48 48" xml:space="preserve" xmlns="http://www.w3.org/2000/svg" xmlns:cc="http://creativecommons.org/ns#" xmlns:dc="http://purl.org/dc/elements/1.1/" xmlns:rdf="http://www.w3.org/1999/02/22-rdf-syntax-ns#"><defs><style>.cls-1{fill:none;stroke:#fff;stroke-linecap:round;stroke-linejoin:round;}</style><style>.cls-1{fill:none;stroke:#fff;stroke-linecap:round;stroke-linejoin:round;}</style></defs><metadata><rdf:RDF><cc:Work rdf:about=""><dc:format>image/svg+xml</dc:format><dc:type rdf:resource="http://purl.org/dc/dcmitype/StillImage"/></cc:Work></rdf:RDF></metadata><rect x="4" y="4" width="40" height="33" ry="8" fill="#ffc975" fill-rule="evenodd" style="paint-order:stroke fill markers"/><g stroke-linecap="round" stroke-linejoin="round"><g stroke-width="2"><path d="m12 18 2 5h11l2-5-7-2z" fill="#4e4e4e"/><path d="m36 12v7l-10 25h-6z" fill="#4e4e4e"/><path d="m14 12-2 6h13l-11 26h9l13-32z" fill="#fff"/></g><path d="m40 27.936c-4.432 0-8 3.568-8 8 0 3.7409 2.542 6.8663 6 7.75 3.458-0.88373 6-4.0091 6-7.75v-6.9355c-1.1754-0.677-2.5408-1.0645-4-1.0645zm-32 0.064453c-1.4591 0-2.8246 0.38746-4 1.0645v6.9355c0 3.7409 2.542 6.8663 6 7.75 3.458-0.88373 6-4.0091 6-7.75 0-4.432-3.568-8-8-8zm8 8c0 4.432 3.568 8 8 8s8-3.568 8-8-3.568-8-8-8-8 3.568-8 8z" fill="#9f845d" stroke-width="3.1388"/></g><g fill-rule="evenodd"><path d="m20.5 32.936c-1.385 0-2.5 1.115-2.5 2.5 0 0.010758-1.34e-4 0.022477 0 0.033203-1.34e-4 0.010726 0 0.020491 0 0.03125 0 1.385 1.115 2.5 2.5 2.5s2.5-1.115 2.5-2.5c0-0.010759 1.34e-4 -0.020524 0-0.03125 1.34e-4 -0.010726 0-0.022445 0-0.033203 0-1.385-1.115-2.5-2.5-2.5zm7 0c-1.385 0-2.5 1.115-2.5 2.5 0 0.010758-1.34e-4 0.022477 0 0.033203-1.34e-4 0.010726 0 0.020491 0 0.03125 0 1.385 1.115 2.5 2.5 2.5s2.5-1.115 2.5-2.5c0-0.010759 1.34e-4 -0.020524 0-0.03125 1.34e-4 -0.010726 0-0.022445 0-0.033203 0-1.385-1.115-2.5-2.5-2.5zm9 0c-1.385 0-2.5 1.115-2.5 2.5s1.115 2.5 2.5 2.5 2.5-1.115 2.5-2.5-1.115-2.5-2.5-2.5zm7 0c-1.385 1e-6 -2.5 1.115-2.5 2.5s1.115 2.5 2.5 2.5c0.085488 0 0.17068-0.003419 0.25391-0.011719 0.16119-0.63505 0.24609-1.3017 0.24609-1.9883v-2.9512c-0.16147-0.03253-0.32867-0.048828-0.5-0.048828zm-39 0.064453c-0.17133 0-0.33853 0.016298-0.5 0.048828v2.9512c0 0.68657 0.084898 1.3532 0.24609 1.9883 0.083232 0.008298 0.16842 0.011719 0.25391 0.011719 1.385 0 2.5-1.115 2.5-2.5s-1.115-2.5-2.5-2.5zm7 0c-1.385 0-2.5 1.115-2.5 2.5s1.115 2.5 2.5 2.5 2.5-1.115 2.5-2.5-1.115-2.5-2.5-2.5z" fill="#fff" style="paint-order:stroke fill markers"/><path d="m16 36c-4.0839 0-7.4345 3.0291-7.9355 6.9727 1.1606 0.65415 2.5031 1.0273 3.9355 1.0273h12c0-4.432-3.568-8-8-8zm8 8h12c1.4325 0 2.7749-0.37319 3.9355-1.0273-0.50103-3.9435-3.8516-6.9727-7.9355-6.9727-4.432 0-8 3.568-8 8z" fill="#5f4e37" style="paint-order:stroke fill markers"/><path d="m12.5 41c-1.385 0-2.5 1.115-2.5 2.5 0 0.085489 0.003421 0.17067 0.011719 0.25391 0.63505 0.1612 1.3017 0.24609 1.9883 0.24609h2.9512c0.032526-0.16147 0.048828-0.32867 0.048828-0.5 0-1.385-1.115-2.5-2.5-2.5zm7 0c-1.385 0-2.5 1.115-2.5 2.5 0 0.17133 0.016302 0.33853 0.048828 0.5h4.9023c0.032526-0.16147 0.048828-0.32867 0.048828-0.5 0-1.385-1.115-2.5-2.5-2.5zm9 0c-1.385 0-2.5 1.115-2.5 2.5 0 0.17133 0.016302 0.33853 0.048828 0.5h4.9023c0.032526-0.16147 0.048828-0.32867 0.048828-0.5 0-1.385-1.115-2.5-2.5-2.5zm7 0c-1.385 0-2.5 1.115-2.5 2.5 0 0.17133 0.016302 0.33853 0.048828 0.5h2.9512c0.68657 0 1.3532-0.084898 1.9883-0.24609 0.008298-0.083232 0.011719-0.16842 0.011719-0.25391 0-1.385-1.115-2.5-2.5-2.5z" fill="#fff" style="paint-order:stroke fill markers"/></g><path d="m36.5 33.936c-0.831 0-1.5 0.669-1.5 1.5s0.669 1.5 1.5 1.5 1.5-0.669 1.5-1.5-0.669-1.5-1.5-1.5zm7 0c-0.831 0-1.5 0.669-1.5 1.5s0.669 1.5 1.5 1.5c0.15569 0 0.30628-0.022776 0.44727-0.066406 0.03522-0.30593 0.052734-0.61792 0.052734-0.93359v-1.916c-0.15626-0.05489-0.32452-0.083984-0.5-0.083984zm-39 0.064453c-0.17548 0-0.34374 0.029094-0.5 0.083984v1.916c0 0.31567 0.01751 0.62767 0.052734 0.93359 0.14098 0.04363 0.29158 0.066406 0.44727 0.066406 0.831 0 1.5-0.669 1.5-1.5s-0.669-1.5-1.5-1.5zm7 0c-0.831 0-1.5 0.669-1.5 1.5s0.669 1.5 1.5 1.5 1.5-0.669 1.5-1.5-0.669-1.5-1.5-1.5zm9 0c-0.831 0-1.5 0.669-1.5 1.5s0.669 1.5 1.5 1.5 1.5-0.669 1.5-1.5-0.669-1.5-1.5-1.5zm7 0c-0.831 0-1.5 0.669-1.5 1.5s0.669 1.5 1.5 1.5 1.5-0.669 1.5-1.5-0.669-1.5-1.5-1.5zm-15 7.9355c-0.831 0-1.5 0.669-1.5 1.5 0 0.010847-2.2e-4 0.022407 0 0.033203-2.2e-4 0.010635 0 0.02056 0 0.03125 0 0.15569 0.022776 0.30628 0.066406 0.44727 0.30592 0.035224 0.61792 0.052734 0.93359 0.052734h1.916c0.05489-0.15626 0.083984-0.32452 0.083984-0.5 0-0.010704 2.21e-4 -0.0206 0-0.03125 2.21e-4 -0.010779 0-0.022368 0-0.033203 0-0.831-0.669-1.5-1.5-1.5zm23 0c-0.831 0-1.5 0.669-1.5 1.5 0 0.010835-2.21e-4 0.022424 0 0.033203-2.21e-4 0.01065 0 0.020545 0 0.03125 0 0.17548 0.029094 0.34374 0.083984 0.5h1.916c0.31567 0 0.62767-0.017514 0.93359-0.052734 0.04363-0.14099 0.066406-0.29158 0.066406-0.44727 0-0.01069 2.2e-4 -0.020615 0-0.03125 2.2e-4 -0.010796 0-0.022356 0-0.033203 0-0.831-0.669-1.5-1.5-1.5zm-16 0.027344c-0.75 0-1.5 0.49104-1.5 1.4727 0 0.010835-2.21e-4 0.022424 0 0.033203-2.21e-4 0.01065 0 0.020546 0 0.03125 0 0.17548 0.029094 0.34374 0.083984 0.5h2.832c0.054894-0.15626 0.083984-0.32452 0.083984-0.5 0-0.010704 2.21e-4 -0.0206 0-0.03125 2.21e-4 -0.010779 0-0.022368 0-0.033203 0-0.98162-0.75-1.4727-1.5-1.4727zm9 0c-0.75 0-1.5 0.49104-1.5 1.4727 0 0.010835-2.21e-4 0.022424 0 0.033203-2.21e-4 0.01065 0 0.020546 0 0.03125 0 0.17548 0.029094 0.34374 0.083984 0.5h2.832c0.054894-0.15626 0.083984-0.32452 0.083984-0.5 0-0.010704 2.21e-4 -0.0206 0-0.03125 2.21e-4 -0.010779 0-0.022368 0-0.033203 0-0.98162-0.75-1.4727-1.5-1.4727z" fill="#4e4e4e" stroke-linecap="round" stroke-linejoin="round" stroke-width="3"/><path d="m12 4c-4.432 0-8 3.568-8 8v24c0 4.432 3.568 8 8 8h24c4.432 0 8-3.568 8-8v-24c0-4.432-3.568-8-8-8zm0 1h24c3.878 0 7 3.122 7 7v24c0 3.878-3.122 7-7 7h-24c-3.878 0-7-3.122-7-7v-24c0-3.878 3.122-7 7-7z" fill-rule="evenodd" opacity=".3" style="paint-order:stroke fill markers"/></svg>
