<?xml version="1.0" encoding="UTF-8"?>
<!-- Created with Inkscape (http://www.inkscape.org/) -->
<svg id="SVGRoot" width="48px" height="48px" version="1.1" viewBox="0 0 48 48" xmlns="http://www.w3.org/2000/svg" xmlns:cc="http://creativecommons.org/ns#" xmlns:dc="http://purl.org/dc/elements/1.1/" xmlns:rdf="http://www.w3.org/1999/02/22-rdf-syntax-ns#" xmlns:xlink="http://www.w3.org/1999/xlink">
 <defs id="defs815">
  <style id="style819">.cls-1{fill:none;stroke:#fff;stroke-linecap:round;stroke-linejoin:round;}</style>
  <style id="style2">.a{fill:none;stroke:#b1b5bd;stroke-linecap:round;stroke-linejoin:round;isolation:isolate;opacity:0.63;}</style>
  <style id="style819-7">.cls-1{fill:none;stroke:#fff;stroke-linecap:round;stroke-linejoin:round;}</style>
  <style id="style819-3">.cls-1{fill:none;stroke:#fff;stroke-linecap:round;stroke-linejoin:round;}</style>
 </defs>
 <metadata id="metadata818">
  <rdf:RDF>
   <cc:Work rdf:about="">
    <dc:format>image/svg+xml</dc:format>
    <dc:type rdf:resource="http://purl.org/dc/dcmitype/StillImage"/>
    <dc:title/>
   </cc:Work>
  </rdf:RDF>
 </metadata>
 <g id="layer1">
  <rect id="rect1373-5" x="4" y="4" width="40" height="40" ry="8" fill="#4e4e4e" fill-rule="evenodd" style="paint-order:stroke fill markers"/>
  <path id="rect817" d="m12 4c-4.432 0-8 3.568-8 8v24c0 4.432 3.568 8 8 8h24c4.432 0 8-3.568 8-8v-24c0-4.432-3.568-8-8-8h-24zm0 1h24c3.878 0 7 3.122 7 7v24c0 3.878-3.122 7-7 7h-24c-3.878 0-7-3.122-7-7v-24c0-3.878 3.122-7 7-7z" fill-rule="evenodd" opacity=".4" style="paint-order:stroke fill markers"/>
  <path id="path829" d="m31.651 16.942c-2.9913 0-5.3272 2.3357-5.3272 2.3357l-5.8393 5.8393s-1.9613 2.3357-3.5036 2.3357c-2.9157 0-3.5036-2.2158-3.5036-3.3843h-3.5036s-1.497e-4 6.8879 6.3514 6.8879c2.9913 0 5.3272-2.3357 5.3272-2.3357l5.8393-5.8393s1.9613-2.3357 3.5036-2.3357c2.9157 0 3.5036 2.4579 3.5036 3.6264h3.5036s1.48e-4 -7.13-6.3514-7.13z" fill="#f6a559"/>
  <path id="path829-4-8" d="m34.499 26.042h3.5036s0 6.0404-6.3515 6.0404c-2.9913 0-5.3271-2.3357-5.3271-2.3357l-1.4382-1.6482 2.278-2.3094 0.32806 0.45403s1.9613 2.3357 3.5036 2.3357c2.9157 0 3.5036-1.3683 3.5036-2.5368z" fill="#f6a559"/>
  <path id="path829-4-8-2" d="m13.478 22.037h-3.5036s0-6.0404 6.3515-6.0404c2.9913 0 5.3271 2.3357 5.3271 2.3357l1.4382 1.6482-2.278 2.3094-0.32806-0.45403s-1.9613-2.3357-3.5036-2.3357c-2.9157 0-3.5036 1.3683-3.5036 2.5368z" fill="#f6a559"/>
 </g>
</svg>
