<?xml version="1.0" encoding="UTF-8"?>
<!-- Created with Inkscape (http://www.inkscape.org/) -->
<svg id="SVGRoot" width="48px" height="48px" version="1.1" viewBox="0 0 48 48" xml:space="preserve" xmlns="http://www.w3.org/2000/svg" xmlns:cc="http://creativecommons.org/ns#" xmlns:dc="http://purl.org/dc/elements/1.1/" xmlns:rdf="http://www.w3.org/1999/02/22-rdf-syntax-ns#"><defs><style>.cls-1{fill:none;stroke:#fff;stroke-linecap:round;stroke-linejoin:round;}</style><style>.cls-1{fill:none;stroke:#fff;stroke-linecap:round;stroke-linejoin:round;}</style><style>.cls-1{fill:none;stroke:#fff;stroke-linecap:round;stroke-linejoin:round;}</style><style>.cls-1{fill:none;stroke:#fff;stroke-linecap:round;stroke-linejoin:round;}</style><style>.cls-1{fill:none;stroke:#fff;stroke-linecap:round;stroke-linejoin:round;}</style><style>.cls-1{fill:none;stroke:#fff;stroke-linecap:round;stroke-linejoin:round;}</style></defs><metadata><rdf:RDF><cc:Work rdf:about=""><dc:format>image/svg+xml</dc:format><dc:type rdf:resource="http://purl.org/dc/dcmitype/StillImage"/></cc:Work></rdf:RDF></metadata><rect x="4" y="4" width="40" height="40" ry="8" fill="#8a6ec0" fill-rule="evenodd" style="paint-order:stroke fill markers"/><g stroke-linecap="round" stroke-linejoin="round"><path d="m24 9c-1.6954 1.36e-5 -3.2127 0.17892-4.5684 0.50586-2.0334 0.49039-3.7034 1.3159-5.0469 2.3418-0.44818 0.34219-0.85894 0.70646-1.2363 1.0859-0.37685 0.37894-0.72182 0.77426-1.0352 1.1816-1.5627 2.0319-2.3421 4.3123-2.7344 6.2324-0.31389 1.5363-0.37891 2.8468-0.37891 3.6523 0 1.0833 0.13656 2.0674 0.33594 2.9746 0.49853 2.2683 1.3406 4.0401 1.5879 5.8926h-0.001953c0.049467 0.37028 0.078125 0.74571 0.078125 1.1328v10h24a1.0001 1.0001 0 0 0-0.11133-0.45898s-2.2282-4.3121-4.459-9.7188c-0.07173-0.17387 0.01474-0.40709 0.21875-0.51758 2.0192-1.0936 3.3558-2.353 4.1719-3.3145 0.63349-0.43902 1.1797-1.1187 1.1797-1.9902 0-0.4518-0.26476-0.77435-0.47656-1.123 0.58519-0.13246 1.1199-0.4035 1.5078-0.80469 0.5047-0.52194 0.86222-1.1663 1.1445-1.8555 0.56463-1.3783 0.82422-2.9497 0.82422-4.2168 0-1.7141-0.74332-4.1573-2.7344-6.3711-1.9879-2.2103-5.2445-4.1037-10.109-4.5312a1.0001 1.0001 0 0 0-0.005859-0.0058593c-0.10403-0.00908-0.12071-0.0082531-0.046875-0.0019531-0.66772-0.056973-1.3685-0.089844-2.1035-0.089844z" opacity=".4" stop-color="#000000" style="paint-order:stroke fill markers"/><g stroke-width="4"><path d="m35 28s-1.2238 2.4729-4.8284 4.4251c-0.63378 0.34326-0.94088 1.1121-0.66581 1.7788 2.2488 5.4503 4.4942 9.7961 4.4942 9.7961h-11l-4-12 2-8z" fill="#fff6ce" style="paint-order:stroke fill markers"/><path d="m30 25s5 1 5 3c0 1.2018-2 2-4 2-5 0-8-5-8-5z" fill="#f29b87" style="paint-order:stroke fill markers"/><path d="m23 25s2.0197 3.3663 5.5078 4.5742c-0.0032-0.0017-4.1633-2.1805-0.7207-3.3379 1.0605-0.35653 3.0648-0.6469 3.9512-0.76367-0.95054-0.3153-1.7383-0.47266-1.7383-0.47266h-7z" fill="#b3776e" style="paint-order:stroke fill markers"/><path d="m10.775 24c0-3 0.22484-14 13.225-14 11 0 14 7 14 10 0 2.2361-1 6-3 6-1.0541 0-1-1-3-1-1.3744 0-2.6256 1-4 1-3 0-5-1-5-1s-3.4552 3.1791-2 9c1 4 2 10 2 10h-11l0.77516-10c0.26896-3.4697-2-6-2-10z" fill="#7ad8ee" style="paint-order:stroke fill markers"/><path d="m25.865 10.07c9.3031 2.3177 11.479 7.8148 11.479 10.705 0 1.5707-0.16861 3.5126-0.96289 4.5293 1.08-1.1934 1.6191-3.6615 1.6191-5.3047 0-2.8229-2.6563-9.1882-12.135-9.9297zm-14.416 7.0898c-1.2617 2.7514-1.4492 5.5432-1.4492 6.8398 0-1.1703 0.31305-3.9923 1.4492-6.8398z" fill="#a7ebff" style="paint-order:stroke fill markers"/><path d="m24 10c-1.625 0-3.0625 0.17188-4.334 0.47852-1.9072 0.45996-3.4412 1.2229-4.6738 2.1641-0.41089 0.31372-0.78809 0.64746-1.1348 0.99609s-0.66333 0.71167-0.95117 1.0859c-1.4392 1.8713-2.1758 4.0059-2.5469 5.8223-0.29688 1.4531-0.35938 2.7031-0.35938 3.4531 0 1 0.125 1.9066 0.3125 2.7598 0.46875 2.1328 1.3281 3.9257 1.6016 5.9746 0.05469 0.40977 0.08594 0.83061 0.08594 1.2656v10h4v-10c0-2.6101-1.125-4.6809-1.6875-7.2402-0.1875-0.85312-0.3125-1.7598-0.3125-2.7598 0-0.35543 0.01418-0.82267 0.06055-1.3711 0.11592-1.3711 0.43434-3.2468 1.2402-5.1328 0.48354-1.1316 1.1425-2.2681 2.0391-3.3008 0.29886-0.34422 0.62462-0.67672 0.97852-0.99414 1.0617-0.95226 2.3802-1.7651 4.0195-2.334 0.54646-0.18963 1.1283-0.35314 1.748-0.48438 0.61979-0.13123 1.2789-0.22998 1.9766-0.29492-0.65374-0.05706-1.3414-0.087891-2.0625-0.087891z" fill="#7d9ccc" style="paint-order:stroke fill markers"/><rect x="18" y="20" width="2" height="2" ry="1" fill="#4e4e4e" style="paint-order:stroke fill markers"/></g><rect x="26" y="11" width="7" height="5" rx="3.5" ry="2.5" fill="#a7ebff" stroke-width="3.3508" style="paint-order:stroke fill markers"/><rect x="26.875" y="11.714" width="5.25" height="3.5714" rx="2.625" ry="1.6954" fill="#c5f0fd" stroke-width="3.1623" style="paint-order:stroke fill markers"/><path d="m10.029 23.059c-0.02192 0.36546-0.029297 0.68272-0.029297 0.94141 0 4 2 6.5199 2 10v10h2s2-1 2-3-2-3.8918-2-6c0-3 2-2.8918 2-5 0-3-2.8215-2.8215-4-4-0.89938-0.89938-1.7988-2.6067-1.9707-2.9414z" fill="#37457c" stroke-width="4" style="paint-order:stroke fill markers"/></g><path d="m12 4c-4.432 0-8 3.568-8 8v24c0 4.432 3.568 8 8 8h24c4.432 0 8-3.568 8-8v-24c0-4.432-3.568-8-8-8zm0 1h24c3.878 0 7 3.122 7 7v24c0 3.878-3.122 7-7 7h-24c-3.878 0-7-3.122-7-7v-24c0-3.878 3.122-7 7-7z" fill-rule="evenodd" opacity=".3" style="paint-order:stroke fill markers"/><path d="m31.752 31.441c-1.9165 1.091-3.5288 0.63069-4.7931 0.53382-0.77461-0.05935-1.1801 0.57054-0.74805 1.2188 0.67207 1.0083 2.5083 3.458 4.7345 4.3666-0.39083-1.045-0.95179-2.1754-1.4395-3.3574-0.27507-0.66668 0.03223-1.4341 0.66602-1.7773 0.58835-0.31865 1.1136-0.651 1.5801-0.98438z" fill="#ebcdc5" stroke-linecap="round" stroke-linejoin="round" stroke-width="4" style="paint-order:stroke fill markers"/></svg>
