<?xml version="1.0" encoding="UTF-8"?>
<!-- Created with Inkscape (http://www.inkscape.org/) -->
<svg id="SVGRoot" width="48px" height="48px" version="1.1" viewBox="0 0 48 48" xml:space="preserve" xmlns="http://www.w3.org/2000/svg" xmlns:cc="http://creativecommons.org/ns#" xmlns:dc="http://purl.org/dc/elements/1.1/" xmlns:rdf="http://www.w3.org/1999/02/22-rdf-syntax-ns#"><defs><style>.cls-1{fill:none;stroke:#fff;stroke-linecap:round;stroke-linejoin:round;}</style></defs><metadata><rdf:RDF><cc:Work rdf:about=""><dc:format>image/svg+xml</dc:format><dc:type rdf:resource="http://purl.org/dc/dcmitype/StillImage"/></cc:Work></rdf:RDF></metadata><rect x="4" y="4" width="40" height="40" ry="8" fill="#6A5D71" fill-rule="evenodd" style="paint-order:stroke fill markers"/><g stroke-linecap="round" stroke-linejoin="round"><g stroke-width="1.2"><path d="m15 29-11 7c0 4.432 3.568 8 8 8h24c4.432 0 8-3.568 8-8v-6l-29-1z" fill="#F9F0D1" style="paint-order:stroke fill markers"/><path d="m4 22.658c4.0959-2.2738 8.3195-8.9049 8.3195-8.9049l-2.6358 9.7923-5.6837 0.45419v-1.3416z" fill="#d94a4e" style="paint-order:stroke fill markers"/><path d="m27 44 1.8-5.6596 4.2 5.6596z" fill="#252D08" style="paint-order:stroke fill markers"/><path d="m19.437 34.574 7.758 2.1503-0.67461 0.71677-5.3968 0.59028 0.63244 3.4574 4.6801-1.56-1.6865 2.4033 2.9092 0.63244 1.813-3.626s1.0518-0.55383 1.4757-2.0238c1.6213-0.52461 5.1017-2.6141 5.1017-2.6141l-0.92758-3.5838z" fill="#d94a4e" style="paint-order:stroke fill markers"/><path d="m17.113 9.123s-6.0002 4.7842-8.1689 9.6c-2.3714 5.2657-4.9441 5.277-4.9441 5.277v8.0795s3.6 3.5453 8.0083 3.6067c6.4762 0.09019 11.306-2.8912 11.306-2.8912l-3.9354-23.911z" fill="#B5BD94" style="paint-order:stroke fill markers"/><path d="m11.627 24.805c-2.0658 1.3051-3.1006 4.5913-3.1006 4.5913s3.2176-2.7571 6.082-3.9354c-0.68949 1.6659-2.9305 3.372-4.8894 7.9304-0.77025 1.7924-0.89441 5.7839-0.89441 5.7839l0.95404 0.47702s0.76859-3.7424 1.5997-5.461c0.35825-0.74079 1.322-2.052 1.322-2.052s-1.8554 4.8767 0.41739 8.9441c0.69007 1.235 3.8758 1.7292 3.8758 1.7292l-1.6696-1.9081 1.3714 0.77516 1.8484-2.5043-1.8484-1.7292s2.6961-0.94322 2.7164-2.1755c0.02639-1.6048-1.499-2.7288-1.7943-4.3064-0.45849-2.4499-1.5184-7.2324-1.5184-7.2324s-3.176 0.25449-4.472 1.0733z" fill="#461e24" style="paint-order:stroke fill markers"/><path d="m15.263 23.822s0.94757 2.25 0.96975 3.5838c0.01666 1.0021-0.70956 2.1671-0.59028 3.1622 0.42208 3.5212 5.1323 4.5636 8.3483 5.0595 3.288 0.50709 7.4649-0.48694 9.9504-2.6984 3.2591-2.8998 4.3006-11.932 4.3006-11.932l-8.6434-2.8249z" fill="#F4D885" style="paint-order:stroke fill markers"/><path d="m33.182 33.267s1.3815 7.1463 4.0898 9.5288c-0.23367-1.0058-0.29514-2.1503-0.29514-2.1503l0.67461 1.1806s1.0051-3.8453 3.1622-5.6498c-0.95796-0.44905-1.6872-0.84097-1.6444-1.5179 0.22577-3.5628 0.16865-5.6498 0.16865-5.6498l-4.4271 0.08432z" fill="#461e24" style="paint-order:stroke fill markers"/><path d="m37.125 29.051-3.9434 4.2148s1.8066 1.3042 2.8672 1.4336c2.3571 0.28764 5.7993-0.11494 6.9512-2.1914 0.25857-0.46613 0.61772-0.86999 1-1.209v-1.5254l-6.875-0.72266z" opacity=".3" style="paint-order:stroke fill markers"/><path d="m24.686 11.389s-5.5593-0.7635-8.0497 0.23851c-1.5666 0.63031-3.7565 3.3988-3.7565 3.3988l5.128-1.1329s-5.0428 2.4944-6.7975 4.5913c-2.0858 2.4925-1.4311 6.9168-1.4311 6.9168s4.7863 0.80019 15.503-2.8025c-0.19689 0.96815-2.4447 2.087-2.4447 2.087s6.3093-0.8555 8.3478-4.4124c0.3142 1.6196-1.0733 5.8435-1.0733 5.8435l5.1876-1.0137-6.4994 13.237s2.1054-2.59 3.5776-3.5776c0.57959-0.3888 1.5036-0.55205 1.9677-1.0733 3.4833-3.9121 5.7242-11.448 5.7242-11.448z" fill="#702627" style="paint-order:stroke fill markers"/><path d="m19.379 8.8848-2.2656 0.23828s3.7558 5.7316 6.4395 7.752c3.8584 2.9048 7.752 2.5645 7.752 2.5645l3.0996 3.6367-0.74414 1.2812 1.1035 1.3418-0.20898 2.0566 1.4609 2.416 1.8477 0.17773-0.11914 0.7168 3.9941 0.65625 2.2617-0.89844v-5.3672l-11.99-12.955-12.631-3.6172z" fill="#d94a4e" style="paint-order:stroke fill markers"/><path d="m30.469 8.1094c-3.7059-0.015706-11.09 0.77539-11.09 0.77539s4.0516 7.0464 10.256 8.0488c1.5239 0.24622 4.5312 0.95508 4.5312 0.95508l2.8027 3.3984-0.77539 1.7285 1.7305 2.5645-0.35938 1.6699 2.0879 0.65625-0.23828 0.5957c1e-6 0 1.1876 0.24718 1.7891 0.23828 0.98869-0.014629 1.9688-0.1535 2.7969-0.31836v-9.748c-2.5655-4.0823-7.5648-10.539-13.531-10.564z" fill="#F9F0D1" style="paint-order:stroke fill markers"/><path d="m31.304 19.439 4.7219-2.5967s-1.8598 1.0464-8.3078 2.0713c0.96026 0.29352 2.397 0.74009 3.5858 0.52542z" opacity=".3" style="paint-order:stroke fill markers"/><path d="m36.015 30.171 5.0087-11.687-2.7429 12.701-0.53665-0.11925 0.11926-0.71553z" opacity=".3" style="paint-order:stroke fill markers"/><path d="m21.973 26.594s1.6876 2.6992 0.35776 3.9354c-0.86103 0.80044-3.3689-1.0435-3.3689-1.0435l-1.3267-1.9528-0.50683-2.1466 2.8472-0.23851z" fill="#f6f5d8" style="paint-order:stroke fill markers"/><path d="m20.611 25.609c-0.045637 0.12392-0.34123 0.94677-0.31055 1.4375 0.07304 1.1681 0.6669 2.5954 1.623 2.5508 0.40723-0.019008 0.71207-0.40171 0.87695-0.86133-0.17102-1.0907-0.82812-2.1426-0.82812-2.1426l-1.3613-0.98438z" fill="#702627" style="paint-order:stroke fill markers"/><path d="m18.157 22.42 3.8161 4.1739-1.8186-1.1329s-1.6671-0.18161-2.8621 0.11925c0.19886 1.6746 1.6696 3.9056 1.6696 3.9056s-2.1151-1.7638-2.0273-4.3528c1.2332-0.40201 2.9814-0.11925 2.9814-0.11925z" fill="#452d2d" style="paint-order:stroke fill markers"/><path d="m24.716 28.651 3.1304-2.5342 2.7876-1.4758-2.8025 2.1466z" fill="#452d2d" style="paint-order:stroke fill markers"/><path d="m26.176 30.231s0.37715 0.95616 3.1479 1.0538c1.4618 0.05152 2.9639-0.75567 2.9639-0.75567l0.80967-1.226 0.88542-3.1201-3.7736 0.40055-1.8341 0.69569-1.2649 1.5179z" fill="#F6F5D8" style="paint-order:stroke fill markers"/><path d="m29.788 26.71s0.43811 3.1579-1.2649 3.4152c-0.99245 0.14991-1.307-1.4125-1.307-1.4125l1.3492-1.56z" fill="#702627" style="paint-order:stroke fill markers"/><path d="m26.176 30.231s1.3493-2.702 2.8919-3.5776c1.0475-0.59461 3.5776-0.50683 3.5776-0.50683l1.4907-0.41739s0.3668 2.2042-1.8484 4.8c1.3951-2.2379 1.2224-3.9056 1.2224-3.9056s-3.017-0.16581-4.3528 0.41739c-1.3356 0.58312-2.9814 3.1901-2.9814 3.1901z" fill="#452d2d" style="paint-order:stroke fill markers"/><path d="m29.754 33.868s0.31021-0.86398 0.68572-1.0435c0.66273-0.3168 1.1627-0.08944 1.1627-0.08944s-0.72574 0.38015-1.0733 0.59627c-0.26687 0.16595-0.77516 0.53664-0.77516 0.53664z" fill="#452d2d" style="paint-order:stroke fill markers"/></g><path d="m27.445 8.209c-0.14361 0.0081119-0.28828 0.016543-0.43359 0.025391 0.031574 0.43083-0.060758 1.3729-1.4316 1.5156-1.3922 0.1449-1.7855-0.98213-1.8633-1.2734-0.19013 0.015941-0.37684 0.030946-0.56055 0.046875 0.12407 0.31372 0.80198 1.8144 2.3633 1.6426 1.8623-0.20498 1.9757-1.4043 1.9258-1.957zm-1.2891 0.080078c-0.47545 0.032474-0.95166 0.066949-1.4199 0.10352-0.069536 0.078954-0.10938 0.17053-0.10938 0.26758 0 0.30556 0.39166 0.55273 0.87891 0.55273 0.48724 0 0.87891-0.24717 0.87891-0.55273 0-0.14341-0.086574-0.27338-0.22852-0.37109zm2.5684 0.29688c-0.37163 0-0.66992 0.20688-0.66992 0.46289s0.29829 0.46094 0.66992 0.46094 0.67188-0.20493 0.67188-0.46094-0.30025-0.46289-0.67188-0.46289zm-6.5586 0.17969c-0.40466 0-0.73047 0.21966-0.73047 0.49219s0.32581 0.49219 0.73047 0.49219 0.73047-0.21966 0.73047-0.49219-0.32581-0.49219-0.73047-0.49219zm5.1582 1.4902c-0.37163 0-0.66992 0.22703-0.66992 0.50781v0.17773c0 0.28079 0.29829 0.50781 0.66992 0.50781s0.66992-0.22703 0.66992-0.50781v-0.17773c0-0.28079-0.2983-0.50781-0.66992-0.50781zm-3.2051 0.14844c-0.36337 0-0.65625 0.22703-0.65625 0.50781v0.14844c0 0.28078 0.29288 0.50781 0.65625 0.50781s0.65625-0.22703 0.65625-0.50781v-0.14844c0-0.28078-0.29288-0.50781-0.65625-0.50781z" fill="#EE7F82" stroke-width="1.2518" style="paint-order:stroke fill markers"/></g><path d="m12 4c-4.432 0-8 3.568-8 8v24c0 4.432 3.568 8 8 8h24c4.432 0 8-3.568 8-8v-24c0-4.432-3.568-8-8-8zm0 1h24c3.878 0 7 3.122 7 7v24c0 3.878-3.122 7-7 7h-24c-3.878 0-7-3.122-7-7v-24c0-3.878 3.122-7 7-7z" fill-rule="evenodd" opacity=".3" style="paint-order:stroke fill markers"/></svg>
