<?xml version="1.0" encoding="UTF-8"?>
<!-- Created with Inkscape (http://www.inkscape.org/) -->
<svg id="SVGRoot" width="48px" height="48px" version="1.1" viewBox="0 0 48 48" xmlns="http://www.w3.org/2000/svg" xmlns:cc="http://creativecommons.org/ns#" xmlns:dc="http://purl.org/dc/elements/1.1/" xmlns:rdf="http://www.w3.org/1999/02/22-rdf-syntax-ns#">
 <defs id="defs815">
  <style id="style819">.cls-1{fill:none;stroke:#fff;stroke-linecap:round;stroke-linejoin:round;}</style>
 </defs>
 <metadata id="metadata818">
  <rdf:RDF>
   <cc:Work rdf:about="">
    <dc:format>image/svg+xml</dc:format>
    <dc:type rdf:resource="http://purl.org/dc/dcmitype/StillImage"/>
    <dc:title/>
   </cc:Work>
  </rdf:RDF>
 </metadata>
 <g id="layer1">
  <rect id="rect1373" x="4" y="4" width="40" height="40" ry="8" fill="#4957b0" fill-rule="evenodd" style="paint-order:stroke fill markers"/>
  <path id="rect1" d="m4.25 10c-0.16326 0.63882-0.25 1.3089-0.25 2v24c0 0.69109 0.086741 1.3612 0.25 2h39.5c0.16326-0.63882 0.25-1.3089 0.25-2v-24c0-0.69109-0.086741-1.3612-0.25-2h-39.5z" fill="#e9eef5" stroke-linecap="round" stroke-linejoin="bevel"/>
  <rect id="rect830" x="10" y="14" width="28" height="20" ry="1" fill="#4e4e4e" fill-rule="evenodd" style="paint-order:stroke fill markers"/>
  <rect id="rect832" x="4" y="20" width="4" height="4" fill="#a6aeb7" fill-rule="evenodd" style="paint-order:stroke fill markers"/>
  <rect id="rect834" x="4" y="26" width="4" height="2" fill="#a6aeb7" fill-rule="evenodd" style="paint-order:stroke fill markers"/>
  <rect id="rect832-5" x="40" y="20" width="4" height="4" fill="#a6aeb7" fill-rule="evenodd" style="paint-order:stroke fill markers"/>
  <rect id="rect834-2" x="40" y="26" width="4" height="2" fill="#a6aeb7" fill-rule="evenodd" style="paint-order:stroke fill markers"/>
  <rect id="rect898" x="12" y="16" width="8" height="16" fill="#fff" fill-rule="evenodd" style="paint-order:stroke fill markers"/>
  <rect id="rect900" x="28" y="22" width="8" height="10" fill="#fff" fill-rule="evenodd" style="paint-order:stroke fill markers"/>
  <path id="path902" d="m18 20s2-4 8-4c10 0 10 6 10 6l-8 1s0-3-4-3-4 3-4 3z" fill="#fff"/>
  <path id="rect817" d="m12 4c-4.432 0-8 3.568-8 8v24c0 4.432 3.568 8 8 8h24c4.432 0 8-3.568 8-8v-24c0-4.432-3.568-8-8-8h-24zm0 1h24c3.878 0 7 3.122 7 7v24c0 3.878-3.122 7-7 7h-24c-3.878 0-7-3.122-7-7v-24c0-3.878 3.122-7 7-7z" fill-rule="evenodd" opacity=".4" style="paint-order:stroke fill markers"/>
 </g>
</svg>
