<?xml version="1.0" encoding="UTF-8"?>
<!-- Created with Inkscape (http://www.inkscape.org/) -->
<svg id="SVGRoot" width="48px" height="48px" version="1.1" viewBox="0 0 48 48" xmlns="http://www.w3.org/2000/svg" xmlns:cc="http://creativecommons.org/ns#" xmlns:dc="http://purl.org/dc/elements/1.1/" xmlns:rdf="http://www.w3.org/1999/02/22-rdf-syntax-ns#">
 <defs id="defs815">
  <style id="style819">.cls-1{fill:none;stroke:#fff;stroke-linecap:round;stroke-linejoin:round;}</style>
  <style id="style819-3">.cls-1{fill:none;stroke:#fff;stroke-linecap:round;stroke-linejoin:round;}</style>
 </defs>
 <metadata id="metadata818">
  <rdf:RDF>
   <cc:Work rdf:about="">
    <dc:format>image/svg+xml</dc:format>
    <dc:type rdf:resource="http://purl.org/dc/dcmitype/StillImage"/>
    <dc:title/>
   </cc:Work>
  </rdf:RDF>
 </metadata>
 <g id="layer1">
  <rect id="rect1373-5" x="4" y="4" width="40" height="40" ry="8" fill="#4e4e4e" fill-rule="evenodd" style="paint-order:stroke fill markers"/>
  <path id="rect817" d="m12 4c-4.432 0-8 3.568-8 8v24c0 4.432 3.568 8 8 8h24c4.432 0 8-3.568 8-8v-24c0-4.432-3.568-8-8-8h-24zm0 1h24c3.878 0 7 3.122 7 7v24c0 3.878-3.122 7-7 7h-24c-3.878 0-7-3.122-7-7v-24c0-3.878 3.122-7 7-7z" fill-rule="evenodd" opacity=".4" style="paint-order:stroke fill markers"/>
  <path id="path840" d="m25.064 12.872c-0.03635 3.45e-4 -0.07193 0.0019-0.10653 0.0046-1.0989 0.08796-3.3164 3.2428-3.3164 3.2428-1.2879 0.03295-2.3216 0.14744-2.3216 0.14744s0.04355-0.9387-0.03683-1.5477c-0.12032-0.9115-0.83329-1.0749-1.4003-0.99494-1.9907 0.28075-2.6038 2.5567-3.6482 4.2745-0.90833 1.4941-2.3397 3.0428-2.2478 5.2326 0.20257 4.8269 2.948 5.4538 2.948 5.4538s-0.99939 2.0995-1.953 3.4687c-0.35108 0.50407-0.16752 1.5055 0.36849 1.8056 0.50181 0.28092 1.3314-0.09293 1.6215-0.58953 1.0274-1.7593 2.1372-3.8373 2.1372-3.8373l1.8793 0.58961s-0.52578 3.0166-0.95809 4.2604c-0.28139 0.80958 0.18425 1.3519 0.70013 1.5477 0.70117 0.26615 1.504-0.16678 1.6951-1.1423 0.40449-2.0642 0.95809-4.5921 0.95809-4.5921s2.6319 0.17864 4.7168 0.07376c3.0429-0.15308 4.8273-1.0687 4.8273-1.0687s0.71516 1.6771 1.2529 3.6113c0.16345 0.58792 1.011 1.3875 1.5845 1.1791 0.99654-0.36202 0.98921-1.3979 0.70013-2.1004-0.73134-1.7773-1.4372-3.5007-1.4372-3.5007s3.1245-2.1893 2.9849-6.3013c-0.0897-2.6422-1.9701-5.8098-5.0484-6.117-1.5771-0.15741-4.7536-0.1106-4.7536-0.1106s0.111-0.68104 0.11052-2.0267c-2.57e-4 -0.69349-0.71172-0.96772-1.2569-0.96276zm-9.9823 6.9324c0.75535 0 1.3634 0.60808 1.3634 1.3634 0 0.75535-0.60807 1.3634-1.3634 1.3634-0.75535 0-1.3634-0.60807-1.3634-1.3634 0-0.75535 0.60807-1.3634 1.3634-1.3634zm5.8925 1.8674c0.75535 0 1.3634 0.60807 1.3634 1.3634-1e-6 0.75535-0.60807 1.3634-1.3634 1.3634s-1.3634-0.60807-1.3634-1.3634c0-0.75535 0.60807-1.3634 1.3634-1.3634zm8.958 9.3244s-0.91634 0.52395-2.211 0.70013c0 0 0.11412 1.0132 0.22105 1.5109 0.22164 1.0314 0.94122 1.0862 1.5477 0.99493 0.50856-0.07651 1.1052-0.52962 0.99494-1.1792-0.11714-0.69039-0.55269-2.0267-0.55269-2.0267z" fill="#fff"/>
 </g>
</svg>
