<?xml version="1.0" encoding="UTF-8"?>
<!-- Created with Inkscape (http://www.inkscape.org/) -->
<svg id="SVGRoot" width="48px" height="48px" version="1.1" viewBox="0 0 48 48" xmlns="http://www.w3.org/2000/svg" xmlns:cc="http://creativecommons.org/ns#" xmlns:dc="http://purl.org/dc/elements/1.1/" xmlns:rdf="http://www.w3.org/1999/02/22-rdf-syntax-ns#" xmlns:xlink="http://www.w3.org/1999/xlink">
 <defs id="defs815">
  <style id="style819">.cls-1{fill:none;stroke:#fff;stroke-linecap:round;stroke-linejoin:round;}</style>
 </defs>
 <metadata id="metadata818">
  <rdf:RDF>
   <cc:Work rdf:about="">
    <dc:format>image/svg+xml</dc:format>
    <dc:type rdf:resource="http://purl.org/dc/dcmitype/StillImage"/>
    <dc:title/>
   </cc:Work>
  </rdf:RDF>
 </metadata>
 <g id="layer1">
  <rect id="rect1373" x="4" y="4" width="40" height="40" ry="8" fill="#4e4e4e" fill-rule="evenodd" style="paint-order:stroke fill markers"/>
  <path id="rect817" d="m12 4c-4.432 0-8 3.568-8 8v24c0 4.432 3.568 8 8 8h24c4.432 0 8-3.568 8-8v-24c0-4.432-3.568-8-8-8h-24zm0 1h24c3.878 0 7 3.122 7 7v24c0 3.878-3.122 7-7 7h-24c-3.878 0-7-3.122-7-7v-24c0-3.878 3.122-7 7-7z" fill-rule="evenodd" opacity=".4" style="paint-order:stroke fill markers"/>
  <g id="layer1-2" transform="matrix(1.4 0 0 1.4 -9.8 -9.6)">
   <path id="path6827" d="m21.764 33.552c-0.92952-0.06374 0.22815-1.1336 0.23699-1.6298 0.35902-0.77665 0.55687-1.6257 0.92912-2.3854-0.65896-0.40154-0.52681 1.1798-1.26 1.2125 0.53053 0.148-1.0239 1.2768-0.42392 0.5081-0.29046-0.2375 0.1043-0.20275-0.15852-0.41954 0.19754-0.83783 0.71111-1.3987 0.60183-2.3397 0.10879-0.91085 0.23288-1.9141 0.73794-2.6797 0.45096-0.70702 0.71824-1.4867 1.1079-2.1843 0.50708-0.54107-0.11509-1.454 0.251-1.9543 0.70588 0.31014 0.60732-1.0679 0.89257-1.5324 0.32499-0.72572 0.11156-1.5732 0.4894-2.2677 0.14674-0.21392 0.40332-1.0225 0.40332-1.0225h-6.4286l-1.4286-2.8571h13.571c-0.48969 1.2581-1.3357 2.3483-1.7276 3.6453-0.47334 0.9598-1.0078 1.9897-1.544 2.8356-0.52444 0.73568-1.0356 1.4877-0.91488 2.4259-0.06873 0.68166-1.5391 1.4896-0.69964 1.9955 0.76318-0.75673 0.38769 0.67972-0.04928 0.94106-0.31844 0.34865-0.41462 0.86785-0.835 0.61517-0.54637 0.40482-0.89563 1.054-0.87926 1.6696-0.32233 0.49949-0.27306 1.1395-0.73995 1.5403-0.25925 0.51646-0.75829 0.62153-0.83116 1.2879-0.27173 0.70932-0.77458 1.2804-1.1946 1.8962-0.23015 0.22935 0.13962 0.66099-0.10652 0.69936zm3.1687-12.622c-0.11693-0.40665 0.4912 0.13948 0.36099-0.4481-0.2449-1.1051-0.45984 0.55472-0.64583 0.51097-0.41543-0.09773 0.47835 0.61012 0.28484-0.06287zm-3.8711 8.5716c0.25915 0.50045 0.09834 0.12774-0.13547 0.52291-0.31675 0.53536-0.48518-1.7215 0.13547-0.52291zm4.1205-1.7228c-0.04277-0.41763 0.8322-0.90529 0.38266-0.22102-0.05942 0.10504-0.31698 0.62678-0.38266 0.22102z" fill="#f97263" stroke-width=".097857"/>
  </g>
 </g>
</svg>
