<?xml version="1.0" encoding="UTF-8"?>
<!-- Created with Inkscape (http://www.inkscape.org/) -->
<svg id="SVGRoot" width="48px" height="48px" version="1.1" viewBox="0 0 48 48" xmlns="http://www.w3.org/2000/svg" xmlns:cc="http://creativecommons.org/ns#" xmlns:dc="http://purl.org/dc/elements/1.1/" xmlns:rdf="http://www.w3.org/1999/02/22-rdf-syntax-ns#">
 <defs id="defs815">
  <style id="style819">.cls-1{fill:none;stroke:#fff;stroke-linecap:round;stroke-linejoin:round;}</style>
  <style id="style2">.a{fill:none;stroke:#b1b5bd;stroke-linecap:round;stroke-linejoin:round;isolation:isolate;opacity:0.63;}</style>
  <style id="style2-5">.a{fill:none;stroke:#b1b5bd;stroke-linecap:round;stroke-linejoin:round;isolation:isolate;opacity:0.63;}</style>
  <style id="style819-0">.cls-1{fill:none;stroke:#fff;stroke-linecap:round;stroke-linejoin:round;}</style>
  <style id="style2-44">.a{fill:none;stroke:#b1b5bd;stroke-linecap:round;stroke-linejoin:round;isolation:isolate;opacity:0.63;}</style>
  <style id="style2-4">.a{fill:none;stroke:#b1b5bd;stroke-linecap:round;stroke-linejoin:round;isolation:isolate;opacity:0.63;}</style>
  <style id="style819-2">.cls-1{fill:none;stroke:#fff;stroke-linecap:round;stroke-linejoin:round;}</style>
  <style id="style2-50">.a{fill:none;stroke:#b1b5bd;stroke-linecap:round;stroke-linejoin:round;isolation:isolate;opacity:0.63;}</style>
 </defs>
 <metadata id="metadata818">
  <rdf:RDF>
   <cc:Work rdf:about="">
    <dc:format>image/svg+xml</dc:format>
    <dc:type rdf:resource="http://purl.org/dc/dcmitype/StillImage"/>
    <dc:title/>
   </cc:Work>
  </rdf:RDF>
 </metadata>
 <g id="layer1">
  <rect id="rect1373-5" x="4" y="4" width="40" height="40" ry="8" fill="#607d5e" fill-rule="evenodd" style="paint-order:stroke fill markers"/>
  <path id="path829" d="m22.65 8.1074c-3.7055 0.13019-6.4033 3.5793-6.4316 7.8398-0.02044 3.074 0.30662 6.8063 2.1445 9.3633 0.92408 1.2856 3.332 2.2648 2.877 3.7812-0.36653 1.2215-6.1124 2.9043-6.4297 4.8496-0.34171 2.0951 3.6094 5.2461 3.6094 5.2461s-0.95003 0.40802-0.9043 1.0723c0.04135 0.60057 0.81113 1.094 1.4121 1.1289 0.35418 0.02058 0.90234-0.56641 0.90234-0.56641 0 2e-6 0.24263 1.5255 1.5781 3.1055-6.02e-4 0.015385 0.002452 0.056051 0.001953 0.072266h8.0332c0.20783-0.23102 1.2526-1.4918 1.3867-3.8535 0.12797-2.2534-1.2422-6.6562-1.2422-6.6562s1.185 1.6242 1.5801 2.5391c0.78661 1.8214 1.5234 5.752 1.5234 5.752s-0.2488 0.89565-0.28125 1.3555c-0.016772 0.23754-0.092215 0.56205-0.14258 0.86328h3.7012c-0.18932-0.94001-1.2548-1.6401-1.6562-2.5566-0.85918-1.9615-1.0112-4.2282-1.959-6.1484-1.0555-2.1384-2.7098-4.7802-3.7246-5.8086-1.7698-1.7934-0.033189-4.3844 1.582-4.4004 4.4819-0.044251 5.6953 10.098 5.6953 10.098 0 0-1.3205 1.1607-1.2402 1.918 0.10085 0.95197 1.0722 2.0494 2.0293 2.0312 1.0509-0.01993 2.152-0.69731 2.1445-2.3125-0.0063-1.372-1.8047-1.8633-1.8047-1.8633s-0.68807-9.2702-1.5801-13.82c-1.0996-5.6088-6.7188-13.243-12.805-13.029zm-2.4824 23.916c0.03757-0.008601 0.075942-0.0075 0.11328 0 0.26131 0.05324 0.5001 0.46865 0.45312 0.73437-0.42036 2.378-0.61212 3.306-0.98828 4.793-0.1901 0.75145-0.95045 0.26112-1.918-0.70312-0.79431-0.79162-1.2306-0.99806-1.3281-2.1152-0.04685-0.5364 0.007218-1.0231 0.67969-1.4668 0.75818-0.50033 1.7483-0.95635 2.9883-1.2422z" fill="#fff" stroke-width=".33247"/>
  <path id="path863" d="m27.617 19.699c0.43258-3.8576-1.6492-10.296-5.5662-10.459-4.7037-0.19534-5.0804 5.5905-5.0804 5.5905s-1.2232 0.58876-2.8507 0.95826c-0.88748 0.20149-2.1212 0.80077-2.076 2.0279 0.03484 0.94399 0.71629 1.981 2.1473 1.954 1.0499-0.01981 2.6902 0.24338 2.6902 0.24338s1.8327 6.3785 5.289 6.4132c2.9723 0.02986 5.1187-3.8041 5.4467-6.7287z" fill="#f6a559"/>
  <path id="path865" d="m22.753 22.258c-0.28543-0.32806-0.83634 0.27561-1.2712 0.32178-0.7344 0.07798-1.4847 0.07496-2.2036-0.09311-0.50829-0.11884-1.459-0.96034-1.716-0.51025-0.26791 0.46916 0.83468 1.5264 1.7354 1.7859 0.8557 0.2466 2.3689 0.04338 3.0423-0.53461 0.26774-0.22984 0.6444-0.70394 0.41312-0.96976z" fill="#8b5628"/>
  <rect id="rect867" transform="matrix(-.98272 -.18508 -.18872 .98203 0 0)" x="-27.753" y="8.5955" width="2.4495" height="2.6105" rx="1.2248" ry="1.2133" fill="#4e4e4e" fill-rule="evenodd" style="paint-order:stroke fill markers"/>
  <rect id="rect869" transform="matrix(-.98272 -.18508 -.18872 .98203 0 0)" x="-20.976" y="8.9754" width="1.8557" height="2.0957" rx=".92785" ry="1.0479" fill="#4e4e4e" fill-rule="evenodd" style="paint-order:stroke fill markers"/>
  <rect id="rect871" transform="matrix(-.98272 -.18508 -.18872 .98203 0 0)" x="-27.195" y="9.1109" width=".81057" height=".80299" rx=".84477" ry=".80299" fill="#fff" fill-rule="evenodd" style="paint-order:stroke fill markers"/>
  <rect id="rect873" transform="matrix(-.98272 -.18508 -.18872 .98203 0 0)" x="-20.662" y="9.4596" width=".73679" height=".7299" rx=".92785" ry=".7299" fill="#fff" fill-rule="evenodd" style="paint-order:stroke fill markers"/>
  <path id="rect817" d="m12 4c-4.432 0-8 3.568-8 8v24c0 4.432 3.568 8 8 8h24c4.432 0 8-3.568 8-8v-24c0-4.432-3.568-8-8-8h-24zm0 1h24c3.878 0 7 3.122 7 7v24c0 3.878-3.122 7-7 7h-24c-3.878 0-7-3.122-7-7v-24c0-3.878 3.122-7 7-7z" fill-rule="evenodd" opacity=".3" style="paint-order:stroke fill markers"/>
 </g>
</svg>
