<?xml version="1.0" encoding="UTF-8"?>
<!-- Created with Inkscape (http://www.inkscape.org/) -->
<svg id="SVGRoot" width="48px" height="48px" version="1.1" viewBox="0 0 48 48" xml:space="preserve" xmlns="http://www.w3.org/2000/svg" xmlns:cc="http://creativecommons.org/ns#" xmlns:dc="http://purl.org/dc/elements/1.1/" xmlns:rdf="http://www.w3.org/1999/02/22-rdf-syntax-ns#"><defs><style>.cls-1{fill:none;stroke:#fff;stroke-linecap:round;stroke-linejoin:round;}</style></defs><metadata><rdf:RDF><cc:Work rdf:about=""><dc:format>image/svg+xml</dc:format><dc:type rdf:resource="http://purl.org/dc/dcmitype/StillImage"/></cc:Work></rdf:RDF></metadata><rect x="4" y="4" width="40" height="34" ry="8" fill="#569eb2" fill-rule="evenodd" style="paint-order:stroke fill markers"/><path d="m44 19-7 7 5-1-1 2-16 8v-6l-15 8-1-2 1-7-6 2.666v5.334c0 4.432 3.568 8 8 8h24c4.432 0 8-3.568 8-8z" fill="#a7e0b9" stroke-linecap="round" stroke-linejoin="round" stroke-width="2" style="paint-order:stroke fill markers"/><path d="m29.795 5.936c-0.51042-0.004213-1.0635 0.060225-1.7949 0.19141-1.2761 0.22886-2.0532 0.38819-3.0352 1.1245-0.66077 0.49549-1.2376 0.9707-1.3496 0.9707s-0.44134-0.25278-0.73047-0.56055c-0.72744-0.77433-2.3771-1.2268-4.9961-1.373-2.0569-0.11485-2.3383-0.07989-3.7773 0.48438-1.9629 0.76966-2.9961 1.446-2.998 1.9629-8.36e-4 0.22192-0.10064 0.58815-0.2207 0.8125-0.33074 0.618 0.11441 1.5991 0.97852 2.1602 0.64491 0.41873 0.76254 0.63505 0.84766 1.5547 0.06713 0.72527 0.0028 1.149-0.19922 1.3164-0.16374 0.1357-0.29688 0.51328-0.29688 0.83984 0 0.70033 0.56016 2.1348 0.83398 2.1348 0.10493-1e-6 0.51225 0.45552 0.9043 1.0117s1.2111 1.3224 1.8203 1.7012c0.83892 0.5215 1.1074 0.8191 1.1074 1.2305 0 0.52406-0.03936 0.53806-1.1113 0.39062l-1.1113-0.15234v1.3418c0 1.1245 0.07845 1.3948 0.48242 1.6777 0.47142 0.33019 0.47364 0.35652 0.10156 1.1816-0.276 0.61207-0.35467 1.2404-0.28711 2.2871 0.05121 0.79341-9e-3 2.6672-0.13281 4.1641-0.19672 2.3784-0.17772 2.8459 0.15039 3.7051 0.40554 1.0619 1.085 1.8696 0.86523 1.0293-0.06794-0.25982-0.01213-0.45703 0.12891-0.45703 0.16492 0 0.24805 0.69287 0.24805 2.0664 0 1.2691 0.09789 2.1662 0.25586 2.3242 0.38726 0.38726-0.1129 0.86673-1.0977 1.0508-1.3065 0.2442-4.9836 0.13412-7.0469-0.21094-0.21923-0.03666-0.87525-0.03262-1.7539-2e-3 1.4233 1.3088 3.3251 2.1055 5.4199 2.1055h24c1.958 0 3.7472-0.69587 5.1348-1.8555-0.92776-0.16698-1.743-0.27302-2.168-0.24609-4.3576 0.27612-5.9679 0.26477-6.5781-0.04492-0.90962-0.46162-0.74428-0.84712 0.5-1.166 0.61111-0.15662 1.1113-0.37673 1.1113-0.49024 0-0.1135-0.19318-0.92897-0.42969-1.8125-0.98634-3.6849-1.0036-3.8686-0.4082-4.5762 1.0943-1.3005 1.1544-1.7182 0.86524-6.0801-0.25758-3.8855-0.25349-4.0173 0.16797-4.3125 0.23915-0.16751 0.59517-0.78732 0.79102-1.377 0.31889-0.96008 0.32136-1.1561 0.02344-1.8691-0.18297-0.4379-0.59768-1.0048-0.92188-1.2598-0.46949-0.3693-0.53528-0.52774-0.32812-0.77734 0.14423-0.1738 0.19651-0.56087 0.11914-0.86914-0.08927-0.35567 0.0016-0.7694 0.25-1.1484 0.40327-0.61547 0.9149-2.8899 1.127-5.0059 0.28911-2.8848-1.0179-4.2193-3.9219-4.9546-0.56019-0.14184-1.0286-0.21454-1.5391-0.21875zm-5.666 9.2867 0.50391 1.4824c0.54763 1.6123 1.8126 3.1793 3.0898 3.8281 0.39722 0.20179 0.72266 0.44523 0.72266 0.54102s-0.46063 1.4189-1.0234 2.9395c-0.56281 1.5205-1.2712 3.4526-1.5742 4.2949s-0.90696 2.0677-1.3418 2.7227c-0.42804 0.64468-0.84728 1.175-0.94141 1.1914h-4e-3c-0.17059 0-0.67825-1.5516-1.2363-3.7773-0.19919-0.79444-0.64488-2.0197-0.99024-2.7207l-0.62891-1.2734 0.42383-1.3926c0.23285-0.7657 0.42485-1.4802 0.42578-1.5879 0.0017-0.20016-1.1327-0.07539-1.832 0.20117-0.87703 0.34684-0.33189-0.58913 0.85352-1.4648 0.68356-0.50498 1.4443-1.2583 1.6895-1.6738 0.24518-0.41554 0.57222-0.75586 0.72852-0.75586 0.46475 0 0.86102-0.645 1.002-1.6309zm8.1309 14.828c0.13758-0.01238 0.40625 0.41248 0.40625 0.71484 0 0.31277-0.09848 0.56836-0.2207 0.56836s-0.22266-0.19441-0.22266-0.43164-0.1105-0.76821 0.01172-0.84375c0.0079-0.0049 0.01622-7e-3 0.02539-0.0078zm-5.5605 1.0801c0.03457-5e-3 0.06581 0.0033 0.08984 0.02734 0.1472 0.14719-0.20569 6.7011-0.49805 9.2559l-0.13672 1.1914 0.92383-0.15625c1.0283-0.17373 1.1677 0.03731 0.45508 0.68359-0.37202 0.3374-0.91975 0.44464-2.6992 0.5332-2.193 0.10914-2.2494 0.1-3.1094-0.5332-0.74096-0.54557-0.85246-0.73388-0.73438-1.2227 0.07675-0.31765 0.13989-0.72682 0.14062-0.91016 7.4e-4 -0.18333-0.0084-1.423-0.01953-2.7559-0.01178-1.4161 0.07726-2.5206 0.21289-2.6562 0.12766-0.12766 0.23047-0.7057 0.23047-1.2852-1e-6 -0.57945 0.09271-1.1102 0.20508-1.1797 0.29989-0.18534 0.72684 1.2945 0.5625 1.9492-0.28044 1.1174 0.01256 1.4277 1.3496 1.4277 1.2063 0 1.217-0.0064 1.252-0.69531 0.01935-0.38195 0.01834-0.88017-2e-3 -1.1074-0.02029-0.22725 0.25587-0.74528 0.61328-1.1523 0.35741-0.40707 0.75176-0.92041 0.875-1.1406 0.08858-0.15828 0.20071-0.2606 0.28906-0.27344zm-8.4434 2.9102c0.16234-0.0058 0.40159 0.01848 0.64648 0.07227l0.71289 0.1582-0.14258 1.3633c-0.07883 0.75057-0.23729 2.1355-0.35156 3.0762-0.12993 1.0693-0.1294 1.9854 2e-3 2.4434 0.11555 0.40292 0.21094 0.9064 0.21094 1.1211 0 0.6103-0.58769 0.45772-0.84961-0.2207-0.12976-0.33611-0.30373-1.453-0.38672-2.4824-0.08299-1.0295-0.23218-2.1557-0.33203-2.5039-0.175-0.61018 0.03492-2.7205 0.29688-2.9824 0.02633-0.02634 0.09595-0.04145 0.19336-0.04492zm11.633 7.0703c0.61518 0 0.83597 0.25894 0.64453 0.75781-0.16973 0.44232-1.1711 0.46583-1.3379 0.03125-0.18237-0.47525 0.09305-0.78906 0.69336-0.78906z" fill="#233b45"/><path d="m12 4c-4.432 0-8 3.568-8 8v24c0 4.432 3.568 8 8 8h24c4.432 0 8-3.568 8-8v-24c0-4.432-3.568-8-8-8zm0 1h24c3.878 0 7 3.122 7 7v24c0 3.878-3.122 7-7 7h-24c-3.878 0-7-3.122-7-7v-24c0-3.878 3.122-7 7-7z" fill-rule="evenodd" opacity=".3" style="paint-order:stroke fill markers"/><g fill="#2DB9CA" stroke-linecap="round" stroke-linejoin="round" stroke-width="2"><rect x="14" y="14" width="3" height="3" ry="1.5" style="paint-order:stroke fill markers"/><rect x="19" y="14" width="3" height="3" ry="1.5" style="paint-order:stroke fill markers"/><rect x="25" y="13" width="3" height="3" ry="1.5" style="paint-order:stroke fill markers"/><rect x="30" y="13" width="3" height="3" ry="1.5" style="paint-order:stroke fill markers"/></g></svg>
