<?xml version="1.0" encoding="UTF-8"?>
<!-- Created with Inkscape (http://www.inkscape.org/) -->
<svg id="SVGRoot" width="48px" height="48px" version="1.1" viewBox="0 0 48 48" xml:space="preserve" xmlns="http://www.w3.org/2000/svg" xmlns:cc="http://creativecommons.org/ns#" xmlns:dc="http://purl.org/dc/elements/1.1/" xmlns:rdf="http://www.w3.org/1999/02/22-rdf-syntax-ns#"><defs><style>.cls-1{fill:none;stroke:#fff;stroke-linecap:round;stroke-linejoin:round;}</style></defs><metadata><rdf:RDF><cc:Work rdf:about=""><dc:format>image/svg+xml</dc:format><dc:type rdf:resource="http://purl.org/dc/dcmitype/StillImage"/></cc:Work></rdf:RDF></metadata><rect x="4" y="4" width="40" height="40" ry="8" fill="#FF88D1" fill-rule="evenodd" style="paint-order:stroke fill markers"/><path d="m12 4c-4.432 0-8 3.568-8 8v24c0 4.432 3.568 8 8 8h24c4.432 0 8-3.568 8-8v-24c0-4.432-3.568-8-8-8zm0 1h24c3.878 0 7 3.122 7 7v24c0 3.878-3.122 7-7 7h-24c-3.878 0-7-3.122-7-7v-24c0-3.878 3.122-7 7-7z" fill-rule="evenodd" opacity=".3" style="paint-order:stroke fill markers"/><path d="m33.605 23.941-0.21013-4.3434-6.424-8.6048s-0.70588-1.2635-3.212-0.95609c-1.749 0.21452-3.5125 0.49741-5.1633 1.0654-3.1316 1.0775-3.212 3.3053-3.212 3.3053s-1.3208 10.73-1.3208 16.117c0 1.326 0.30537 2.1948 2.0413 3.1414 2.5921 1.4136 5.1328 2.5883 7.985 3.9063 1.069 0.49398 2.3733 0.38319 3.5722 0.38243 0.84646-5.32e-4 1.6874-0.14221 2.5216-0.27317 3.8368-0.60234 3.7524-3.7151 3.7524-3.7151v-5.9551s-0.0029-1.6417-1.1107-2.6497c-0.44531-0.40522-1.3208-1.2293-1.3208-1.2293z" fill="#fff" stroke-linecap="round" stroke-linejoin="round" stroke-width="1.3584"/><g fill="#52c4b6" stroke-linecap="round" stroke-linejoin="round"><path d="m14.809 29.933s-0.32903 2.8615 2.4153 2.6302c1.4879-0.12538 2.9868-0.122 4.4742-0.25221 3.8316-0.33545 4.3014-2.1868 4.5533-3.1707 0.33213-1.2967 0.31676-2.8464 0.31676-2.8464l-0.19797-5.8729s-0.09984-2.1114-1.9401-1.7655c-1.5801 0.29702-4.7117 1.0088-4.7117 1.0088l0.15838-3.4589s0.01283-0.46924 0.55432-0.61252c0.34124-0.09029 0.68626-0.16827 1.0295-0.25221 0.74409-0.182 0.67311 0.46839 0.67311 0.46839v1.5493l4.4346-0.79267-0.07919-3.567s-0.31483-2.1547-2.2569-1.9817c-1.8893 0.16832-3.5604 0.51468-5.5432 1.189-2.4099 0.81956-2.6132 2.8464-2.6132 2.8464z" stroke-width="1.2669"/><path d="m27.12 20.438s4.1139 4.0895 5.5189 5.9493c0.30379 0.40212 0.42453 1.0044 0.42453 1.0044s0.0849 4.7129 0.0849 7.0696c0 1.3838-1.5708 1.9316-1.5708 1.9316s-2.7327-2.1429-5.0944-3.5541c-0.78202-0.4673-1.5708-0.38632-1.5708-0.38632s1.3596-0.87333 1.6132-1.5453c1.4306-3.7902 0.59434-10.469 0.59434-10.469z" stroke-width="1.3584"/><path d="m27.332 13.214v3.3996l5.5614 6.5674-0.21226-3.4382z" stroke-width="1.3584"/></g><path d="m19.733 23.837s0.0608-0.59658 0.6368-0.734c0.39197-0.09352 0.78696-0.18347 1.1887-0.23179 0.64577-0.07767 0.59434 0.61811 0.59434 0.61811l0.04245 3.9018s0.09146 1.0233-0.89152 1.1203c-0.30075 0.0297-0.58927 0.14296-0.89152 0.15453-0.97353 0.03725-0.89152-0.88853-0.89152-0.88853z" fill="#fff" stroke-linecap="round" stroke-linejoin="round" stroke-width="1.3584"/></svg>
