<?xml version="1.0" encoding="UTF-8"?>
<!-- Created with Inkscape (http://www.inkscape.org/) -->
<svg id="SVGRoot" width="48px" height="48px" version="1.1" viewBox="0 0 48 48" xml:space="preserve" xmlns="http://www.w3.org/2000/svg" xmlns:cc="http://creativecommons.org/ns#" xmlns:dc="http://purl.org/dc/elements/1.1/" xmlns:rdf="http://www.w3.org/1999/02/22-rdf-syntax-ns#"><defs><style>.cls-1{fill:none;stroke:#fff;stroke-linecap:round;stroke-linejoin:round;}</style><style>.cls-1{fill:none;stroke:#fff;stroke-linecap:round;stroke-linejoin:round;}</style><style>.cls-1{fill:none;stroke:#fff;stroke-linecap:round;stroke-linejoin:round;}</style><style>.cls-1{fill:none;stroke:#fff;stroke-linecap:round;stroke-linejoin:round;}</style><style>.cls-1{fill:none;stroke:#fff;stroke-linecap:round;stroke-linejoin:round;}</style></defs><metadata><rdf:RDF><cc:Work rdf:about=""><dc:format>image/svg+xml</dc:format><dc:type rdf:resource="http://purl.org/dc/dcmitype/StillImage"/></cc:Work></rdf:RDF></metadata><rect x="4" y="4" width="40" height="40" ry="8" fill="#304f70" fill-rule="evenodd" style="paint-order:stroke fill markers"/><path d="m22 22v3h-1v3h1v3h-2v-1h-2v2h2v1h1v1h1v7h-1v1h-1v2h8v-1h-1v-2h-1v-2h1v-1h1v-1h2v-1h-3v1h-1v-16z" fill="#c67b3a" stroke-linecap="round" stroke-linejoin="round" stroke-width="2"/><g fill="#6bd58c" stroke-linecap="round" stroke-linejoin="round" stroke-width="2"><path d="m23 6v1h2v-1h1v1h1v1h1v-1h1v1h1v2h1v1h1v1h1v1h1v1h-1v5h-1v1h-1v1h-1v1h-2v-1h-2v1h-1v1h-1v-1h-1v2h-1v-1h-2v-1h-1v1h-1v-2h-1v-1h-1v-1h-1v-3h1v-1h-1v-2h1v-1h1v-2h-1v-1h1v-1h1v-1h2v1h2v-2z"/><path d="m19 29v3h-1v1h-1v1h-1v-1h-1v-1h-1v-2h1v-1h-1v-1h1v-1h1v-1h2v1h2v2z"/><path d="m29 35v2h1v1h2v1h1v-2h1v-1h1v-1h-1v-1h1v-2h-2v-1h-1v1h-1v-1h-1v1h-2v2h1z"/></g><path d="m12 4c-4.432 0-8 3.568-8 8v24c0 4.432 3.568 8 8 8h24c4.432 0 8-3.568 8-8v-24c0-4.432-3.568-8-8-8zm0 1h24c3.878 0 7 3.122 7 7v24c0 3.878-3.122 7-7 7h-24c-3.878 0-7-3.122-7-7v-24c0-3.878 3.122-7 7-7z" fill-rule="evenodd" opacity=".4" style="paint-order:stroke fill markers"/></svg>
