<?xml version="1.0" encoding="UTF-8"?>
<!-- Created with Inkscape (http://www.inkscape.org/) -->
<svg id="SVGRoot" width="48px" height="48px" version="1.1" viewBox="0 0 48 48" xmlns="http://www.w3.org/2000/svg" xmlns:cc="http://creativecommons.org/ns#" xmlns:dc="http://purl.org/dc/elements/1.1/" xmlns:rdf="http://www.w3.org/1999/02/22-rdf-syntax-ns#" xmlns:xlink="http://www.w3.org/1999/xlink">
 <defs id="defs815">
  <style id="style819">.cls-1{fill:none;stroke:#fff;stroke-linecap:round;stroke-linejoin:round;}</style>
  <style id="style819-2">.cls-1{fill:none;stroke:#fff;stroke-linecap:round;stroke-linejoin:round;}</style>
  <style id="style819-3">.cls-1{fill:none;stroke:#fff;stroke-linecap:round;stroke-linejoin:round;}</style>
  <style id="style819-36">.cls-1{fill:none;stroke:#fff;stroke-linecap:round;stroke-linejoin:round;}</style>
  <style id="style2">.a{fill:none;stroke:#b1b5bd;stroke-linecap:round;stroke-linejoin:round;isolation:isolate;opacity:0.63;}</style>
  <style id="style819-5">.cls-1{fill:none;stroke:#fff;stroke-linecap:round;stroke-linejoin:round;}</style>
  <style id="style819-9">.cls-1{fill:none;stroke:#fff;stroke-linecap:round;stroke-linejoin:round;}</style>
 </defs>
 <metadata id="metadata818">
  <rdf:RDF>
   <cc:Work rdf:about="">
    <dc:format>image/svg+xml</dc:format>
    <dc:type rdf:resource="http://purl.org/dc/dcmitype/StillImage"/>
    <dc:title/>
   </cc:Work>
  </rdf:RDF>
 </metadata>
 <g id="layer1">
  <rect id="rect1373" x="4" y="4" width="40" height="40" ry="8" fill="#ffd34e" fill-rule="evenodd" style="paint-order:stroke fill markers"/>
  <path id="rect817" d="m12 4c-4.432 0-8 3.568-8 8v24c0 4.432 3.568 8 8 8h24c4.432 0 8-3.568 8-8v-24c0-4.432-3.568-8-8-8h-24zm0 1h24c3.878 0 7 3.122 7 7v24c0 3.878-3.122 7-7 7h-24c-3.878 0-7-3.122-7-7v-24c0-3.878 3.122-7 7-7z" fill-rule="evenodd" opacity=".3" style="paint-order:stroke fill markers"/>
  <path id="path828" d="m24 41c-2.8021-2.2314-4.8436-2.4575-6.9871-4.0999-4.013-3.0746-4.0976-8.2471-4.0976-8.2471s0.80827 0.62582 1.2448 0.51868c0.65572-0.16091 1.3208-0.88131 1.2967-1.5561-0.05921-1.6594-3.6073-3.06-3.5271-5.135 0.07124-1.8429 3.4752-4.3051 3.4752-4.3051s0.49596 1.0988 0.9855 1.0892c1.2394-0.02412 2.386-2.8528 2.386-2.8528s-1.458-1.8004-1.0892-2.6972c0.46535-1.1317 2.2846-0.89008 3.3714-1.4523 1.4374-0.74358 2.4378-1.7117 2.4378-1.7117s0.52457 0.85172 1.5042 0.62242c1.2166-0.28476 1.2448-2.0747 1.2448-2.0747s1.5905-0.36086 2.749 0.57055c0.922 0.74128 1.6079 3.164 1.6079 3.164s-1.1717-1.5974-1.8673-1.2967c-0.75414 0.32596-0.70292 1.6898-0.36308 2.4378 0.3313 0.7292 1.2641 1.5532 2.0229 1.2967 0.38342-0.12962 0.41495-1.1411 0.41495-1.1411s5.1938 1.4114 5.2906 5.1868c0.09053 3.5315-2.6899 4.8558-2.6453 6.691 0.01279 0.52568 0.25704 1.1293 1.0892 1.1411 0.60024 0.0085 0.88176-0.51868 0.88176-0.51868s0.62242 1.6693 0.62242 2.5416c0 3.309-0.74231 5.416-3.8383 7.8321-2.3995 1.8726-4.9095 1.9877-8.2103 3.9961z" fill="#6ad9ca"/>
  <path id="path832" d="m17 33 2.6063-8.1333-3.5271-1.0892 2.1785-3.8901 3.0084-0.67429 0.31121-1.4523-2.0229-0.72616 1.4004-2.749 3.2677-0.51868 2.9565 0.51868 1.6079 2.4897-2.1785 1.1411 0.25934 1.1411 3.0602 0.72616 2.3341 4.2532-3.4752 0.93363 2.5934 8.0915s0.27543 1.1593-0.25934 1.6079c-0.68468-1.2296-1.2967-1.0892-1.2967-1.0892s0.03941 1.2845-0.8299 1.9191c-0.84825 0.61928-1.9892 0.68014-2.9565 1.0892-1.0902 0.46108-2.0747 2.1266-2.0747 2.1266s-1.5444-0.96456-1.6598-1.7635c-0.44188-3.06-2.1266-3.7864-2.1266-3.7864s-0.54157 1.2743-1.1152 1.1411c-1.9294-0.44799-2.0617-1.3067-2.0617-1.3067z" fill="#fff"/>
  <path id="path830" d="m23.445 9.4617s-0.25118-1.909 0.41495-2.3341c0.51259-0.32714 1.7635 0.46682 1.7635 0.46682s-0.92157 0.4026-1.2967 0.72616c-0.36401 0.31395-0.88176 1.1411-0.88176 1.1411z" fill="#6ad9ca"/>
  <path id="path834" d="m17.506 23.207 1.4264-2.8009 3.0862-0.57055 0.72616-2.7231-1.8932-0.8299 0.67429-1.4783 2.7231-0.44088 2.4638 0.54462 0.75209 1.2967-1.7895 0.85583 0.41495 2.749 3.2677 0.62242 1.4523 2.9046-3.4493 0.95957-3.3196 3.3974-3.1121-3.2936z" fill="#4e4e4e"/>
  <path id="path836" d="m20.955 21.78 3.1121-1.2189 3.1899 1.2189-3.138 1.9451z" fill="#fff"/>
 </g>
</svg>
