<?xml version="1.0" encoding="UTF-8"?>
<!-- Created with Inkscape (http://www.inkscape.org/) -->
<svg id="SVGRoot" width="48px" height="48px" version="1.1" viewBox="0 0 48 48" xmlns="http://www.w3.org/2000/svg" xmlns:cc="http://creativecommons.org/ns#" xmlns:dc="http://purl.org/dc/elements/1.1/" xmlns:rdf="http://www.w3.org/1999/02/22-rdf-syntax-ns#" xmlns:xlink="http://www.w3.org/1999/xlink">
 <defs id="defs815">
  <style id="style819">.cls-1{fill:none;stroke:#fff;stroke-linecap:round;stroke-linejoin:round;}</style>
 </defs>
 <metadata id="metadata818">
  <rdf:RDF>
   <cc:Work rdf:about="">
    <dc:format>image/svg+xml</dc:format>
    <dc:type rdf:resource="http://purl.org/dc/dcmitype/StillImage"/>
    <dc:title/>
   </cc:Work>
  </rdf:RDF>
 </metadata>
 <g id="layer1">
  <rect id="rect1373" x="4" y="4" width="40" height="40" ry="8" fill="#7eb8f4" fill-rule="evenodd" style="paint-order:stroke fill markers"/>
  <path id="path890" d="m9 19-2.7129 22.607c1.4499 1.4772 3.47 2.3926 5.7129 2.3926h24c2.232 0 4.243-0.90663 5.6914-2.3711l-2.6914-20.629-30-2z" fill="#4575c5"/>
  <path id="path839" d="m20 40s-4 0-7 2c-1.1767 0.78446-1 2-1 2h24s0.1767-1.2155-1-2c-3-2-7-2-7-2h-4z" fill="#85dce0"/>
  <rect id="rect834" x="20" y="34" width="8" height="8" rx="4" ry="2" fill="#e1f8f5" fill-rule="evenodd" style="paint-order:normal"/>
  <path id="rect832-8" d="m24 34c-2.216 0-4 0.892-4 2v3.418c1.2674 0.37498 2.6078 0.58203 4 0.58203s2.7326-0.20705 4-0.58203v-3.418c0-1.108-1.784-2-4-2z" fill="#0046c3" fill-rule="evenodd" opacity=".25" style="paint-order:normal"/>
  <rect id="rect832" x="10" y="10" width="28" height="28" ry="14" fill="#e1f8f5" fill-rule="evenodd" style="paint-order:normal"/>
  <path id="path817" d="m20 30s0 4 4 4 4-4 4-4z" fill="#4e4e4e"/>
  <rect id="rect820" x="15" y="20" width="5" height="8" rx="2.5" ry="4" fill="#4e4e4e" fill-rule="evenodd" style="paint-order:normal"/>
  <rect id="rect827" x="28" y="20" width="5" height="8" rx="2.5" ry="4" fill="#4e4e4e" fill-rule="evenodd" style="paint-order:normal"/>
  <path id="path888" d="m9 18s0 4 1 7c3-6 8-8 8-8s2 7 7 8c0-5 4-8 4-8s6 4 8 15c2-2 2-9 2-9s2-15-16-15c-14 0-14 10-14 10z" fill="#7eb8f4"/>
  <path id="rect817" d="m12 4c-4.432 0-8 3.568-8 8v24c0 4.432 3.568 8 8 8h24c4.432 0 8-3.568 8-8v-24c0-4.432-3.568-8-8-8h-24zm0 1h24c3.878 0 7 3.122 7 7v24c0 3.878-3.122 7-7 7h-24c-3.878 0-7-3.122-7-7v-24c0-3.878 3.122-7 7-7z" fill-rule="evenodd" opacity=".3" style="paint-order:stroke fill markers"/>
 </g>
</svg>
