<?xml version="1.0" encoding="UTF-8"?>
<!-- Created with Inkscape (http://www.inkscape.org/) -->
<svg id="SVGRoot" width="48px" height="48px" version="1.1" viewBox="0 0 48 48" xmlns="http://www.w3.org/2000/svg" xmlns:cc="http://creativecommons.org/ns#" xmlns:dc="http://purl.org/dc/elements/1.1/" xmlns:rdf="http://www.w3.org/1999/02/22-rdf-syntax-ns#" xmlns:xlink="http://www.w3.org/1999/xlink">
 <defs id="defs815">
  <style id="style819">.cls-1{fill:none;stroke:#fff;stroke-linecap:round;stroke-linejoin:round;}</style>
 </defs>
 <metadata id="metadata818">
  <rdf:RDF>
   <cc:Work rdf:about="">
    <dc:format>image/svg+xml</dc:format>
    <dc:type rdf:resource="http://purl.org/dc/dcmitype/StillImage"/>
    <dc:title/>
   </cc:Work>
  </rdf:RDF>
 </metadata>
 <g id="layer1">
  <rect id="rect1373-5" x="4" y="4" width="40" height="40" ry="8" fill="#efefef" fill-rule="evenodd" style="paint-order:stroke fill markers"/>
  <path id="rect817" d="m12 4c-4.432 0-8 3.568-8 8v24c0 4.432 3.568 8 8 8h24c4.432 0 8-3.568 8-8v-24c0-4.432-3.568-8-8-8h-24zm0 1h24c3.878 0 7 3.122 7 7v24c0 3.878-3.122 7-7 7h-24c-3.878 0-7-3.122-7-7v-24c0-3.878 3.122-7 7-7z" fill-rule="evenodd" opacity=".3" style="paint-order:stroke fill markers"/>
  <path id="path828" d="m23.911 9.9968c-2.958 0-7.5584 0.802-9.5277 2.0207h13.11c1.3109 0 6.4907 1.8154 6.4907 6.8932 0 3.5757-6.4907 7.1515-6.4907 7.1515l2.3883 2.9533h2.4233c2.062-3.8594 3.5475-7.7365 3.5475-11.297 0-5.9596-7.2996-7.722-11.942-7.722zm-11.942 6.0104c0 2.8817 0.97444 8.0933 2.4373 11.37l3.5335-9.3485h5.9708l-2.2857 6.3594c2.0604-0.81183 5.6032-2.5642 5.8682-4.2858 0.62242-4.0436-2.3883-4.0955-2.3883-4.0955zm8.9563 10.055s-3.1726 7.2018-3.1907 7.1515c2.0407 2.8216 4.2923 4.7677 6.1761 4.7677 1.8838 0 4.1353-3.139 6.1761-5.9606h-3.7878c-1.7456 0-2.3883-1.1919-2.3883-1.1919z" fill="#4e4e4e"/>
 </g>
</svg>
