<?xml version="1.0" encoding="UTF-8"?>
<!-- Created with Inkscape (http://www.inkscape.org/) -->
<svg id="SVGRoot" width="48px" height="48px" version="1.1" viewBox="0 0 48 48" xml:space="preserve" xmlns="http://www.w3.org/2000/svg" xmlns:cc="http://creativecommons.org/ns#" xmlns:dc="http://purl.org/dc/elements/1.1/" xmlns:rdf="http://www.w3.org/1999/02/22-rdf-syntax-ns#"><defs><style>.cls-1{fill:none;stroke:#fff;stroke-linecap:round;stroke-linejoin:round;}</style><style>.cls-1{fill:none;stroke:#fff;stroke-linecap:round;stroke-linejoin:round;}</style><style>.cls-1{fill:none;stroke:#fff;stroke-linecap:round;stroke-linejoin:round;}</style><style>.cls-1{fill:none;stroke:#fff;stroke-linecap:round;stroke-linejoin:round;}</style><style>.cls-1{fill:none;stroke:#fff;stroke-linecap:round;stroke-linejoin:round;}</style><style>.a{fill:none;stroke:#b1b5bd;stroke-linecap:round;stroke-linejoin:round;isolation:isolate;opacity:0.63;}</style><style>.cls-1{fill:none;stroke:#fff;stroke-linecap:round;stroke-linejoin:round;}</style><style>.cls-1{fill:none;stroke:#fff;stroke-linecap:round;stroke-linejoin:round;}</style><style>.cls-1{fill:none;stroke:#fff;stroke-linecap:round;stroke-linejoin:round;}</style><style>.cls-1{fill:none;stroke:#fff;stroke-linecap:round;stroke-linejoin:round;}</style><style>.cls-1{fill:none;stroke:#fff;stroke-linecap:round;stroke-linejoin:round;}</style><style>.a{fill:none;stroke:#b1b5bd;stroke-linecap:round;stroke-linejoin:round;isolation:isolate;opacity:0.63;}</style><style>.cls-1{fill:none;stroke:#fff;stroke-linecap:round;stroke-linejoin:round;}</style><style>.cls-1{fill:none;stroke:#fff;stroke-linecap:round;stroke-linejoin:round;}</style><style>.cls-1{fill:none;stroke:#fff;stroke-linecap:round;stroke-linejoin:round;}</style><style>.cls-1{fill:none;stroke:#fff;stroke-linecap:round;stroke-linejoin:round;}</style><style>.cls-1{fill:none;stroke:#fff;stroke-linecap:round;stroke-linejoin:round;}</style><style>.a{fill:none;stroke:#b1b5bd;stroke-linecap:round;stroke-linejoin:round;isolation:isolate;opacity:0.63;}</style><style>.cls-1{fill:none;stroke:#fff;stroke-linecap:round;stroke-linejoin:round;}</style><style>.cls-1{fill:none;stroke:#fff;stroke-linecap:round;stroke-linejoin:round;}</style><style>.cls-1{fill:none;stroke:#fff;stroke-linecap:round;stroke-linejoin:round;}</style><style>.a{fill:none;stroke:#b1b5bd;stroke-linecap:round;stroke-linejoin:round;isolation:isolate;opacity:0.63;}</style><style>.cls-1{fill:none;stroke:#fff;stroke-linecap:round;stroke-linejoin:round;}</style><style>.cls-1{fill:none;stroke:#fff;stroke-linecap:round;stroke-linejoin:round;}</style><style>.a{fill:none;stroke:#b1b5bd;stroke-linecap:round;stroke-linejoin:round;isolation:isolate;opacity:0.63;}</style><style>.cls-1{fill:none;stroke:#fff;stroke-linecap:round;stroke-linejoin:round;}</style><style>.cls-1{fill:none;stroke:#fff;stroke-linecap:round;stroke-linejoin:round;}</style></defs><metadata><rdf:RDF><cc:Work rdf:about=""><dc:format>image/svg+xml</dc:format><dc:type rdf:resource="http://purl.org/dc/dcmitype/StillImage"/></cc:Work></rdf:RDF></metadata><rect x="4" y="4" width="40" height="40" ry="8" fill="#ffcd4b" fill-rule="evenodd" style="paint-order:stroke fill markers"/><g stroke-width=".2353"><path d="m39.332 37.102c-0.04071-4.8024-1.1803-10.973-2.5638-11.624-1.3838-0.6513-3.5408 0.08894-4.0699-1.8236-0.52895-1.913-2.2384-7.7288-4.6398-8.7058-2.401-0.97672-8.058-1.7478-11.355 0.81601-3.2965 2.5638-5.7382 5.0476-6.7556 7.0824-1.0174 2.0348-0.20353 5.2504 0.56965 6.5528 0.77319 1.3021 0.12212 4.5271 0.08141 6.3182-0.03929 1.7313-0.34494 5.6829 0.55507 8.2712h26.574c0.46612-0.70589 1.6351-3.0393 1.6024-6.8874z" fill="#ff7d70"/><path d="m22.717 14.029c-2.1265 0.005618-4.3653 0.45443-6.0137 1.7363-1.6488 1.2823-3.0826 2.5441-4.2324 3.7402 1.1497-1.1955 2.5842-2.4565 4.2324-3.7383 1.6485-1.282 3.8872-1.7312 6.0137-1.7363v0.001953c2.1264-0.005059 4.1413 0.43156 5.3418 0.91992 0.15694 0.063763 0.31011 0.14936 0.46094 0.25195 0.45036 0.72095 1.1315 1.9999 1.3691 3.4512 0.36636 2.2382 0.57031 3.2159 0.57031 4.3555s0.44736 2.3614 0.20312 4.8438c-0.244 2.4829-0.56785 3.7029-1.0156 5.6973-0.44754 1.9939-0.97763 3.0521-1.3438 3.7031-0.36612 0.65107-0.40711 2.2374-2.3203 3.377 0 0-0.32474 0.081005-0.65039 0.20313-0.32565 0.12234-0.69152 0.082095-1.2207 0.28516-0.52918 0.20354-1.3038 0.24609-1.6699 0.24609-0.36612 0-0.89383 0.12147-1.8301 0.20312-0.93601 0.081177-3.0538 0.12061-4.9258-0.65234 0 0-0.32412-0.16194-0.56836-0.36524-0.24424-0.20377-0.61065-0.12337-1.2617-0.9375-0.6513-0.8138-0.97825-1.0569-1.4258-2.6035-0.44801-1.5464-0.97678-3.9492-1.2617-5.1699-0.066509-0.28461-0.16464-0.53175-0.2793-0.74219 0.053055 1.4934-0.26118 3.3926-0.28906 4.6191-0.03929 1.7313-0.34532 5.6832 0.55469 8.2715h26.574c0.46612-0.70589 1.6343-3.0406 1.6016-6.8887h0.001953c-0.017142-2.0222-0.26054-4.2334-0.60352-6.2266-0.4292-0.36204-1.2393-0.99913-2.082-1.3926-1.2207-0.5699-2.8914-0.2454-3.2168-0.12305-0.32542 0.12188-1.4243-1.0977-0.97656-3.0918 0.14283-0.63648 0.49477-1.1618 0.97266-1.5625 0.28303 0.18146 0.62394 0.27001 0.98242 0.33398-0.77673-0.13571-1.4468-0.43009-1.7109-1.3848-0.52895-1.913-2.2372-7.7281-4.6387-8.7051-1.2005-0.48836-3.2153-0.92554-5.3418-0.91992zm11.703 11.01c0.77812 0.13715 1.656 0.12961 2.3477 0.45508 0.20159 0.094942 0.39922 0.30648 0.58789 0.61523-0.18945-0.31039-0.3853-0.53556-0.58789-0.63086-0.68969-0.32462-1.5711-0.30546-2.3477-0.43945zm2.9355 1.0703c0.16297 0.26669 0.31719 0.61725 0.4668 1.0137-0.14942-0.39593-0.30398-0.74691-0.4668-1.0137zm0.61328 1.4492c0.12196 0.36683 0.23835 0.76459 0.34766 1.1992-0.1097-0.4365-0.22518-0.83096-0.34766-1.1992zm0.44922 1.6172c0.072969 0.31502 0.13746 0.65765 0.20312 0.99609-0.066376-0.34291-0.12925-0.67713-0.20312-0.99609z" opacity=".3"/><path d="m17.827 20.084s-5.1278 0.30518-6.5928 1.7092c-1.465 1.404-2.6247 3.8459-1.465 5.7991 1.1598 1.9532 4.2121 3.3575 7.6914 3.4796 3.4796 0.12212 6.9594-1.8313 7.6305-4.4563 0.67177-2.6247 0.73272-7.0201-7.2641-6.5316z" fill="#7eb8f4"/><path d="m25.092 26.616c0.54518-2.1313 0.68801-5.43-3.5589-6.3335-0.69083 0.05977-1.3577 0.21788-1.9351 0.51412 0.31789-0.16306 1.5219 0.22283 1.8151 0.34353 1.8163 0.74872 1.6033 3.0344 0.60589 3.9702-0.43554 0.40848-0.50848 0.75695-1.1054 1.0158-0.71483 0.30942-2.0217 0.48989-3.452 0.48989 0 0-3.5405-0.12236-5.0057-0.30542-1.3974-0.17459-3.1283-0.6826-2.2777-3.22-0.85789 1.3591-1.2626 3.0629-0.408 4.5022 1.1598 1.9534 4.2121 3.3575 7.6914 3.4796 3.4796 0.12212 6.9591-1.8313 7.6305-4.4563z" opacity=".3"/><path d="m15.483 21.546s-1.872 0.20353-2.9709 1.0174c0 0-0.6513 0.40683-0.44754 1.0988 0.2033 0.69177 0.81389 0.56966 2.8894 0.48848 2.0758-0.08141 4.1513-0.12212 4.3139-1.0174 0.16259-0.89554-0.04071-2.2793-3.785-1.5873z" fill="#fff"/><path d="m20.711 12.289c-0.31083 0.011324-0.76833 0.061007-1.3535 0.21289-0.88213 0.22918-2.0585 0.67436-3.4668 1.6758-3.6629 2.6047-4.3146 3.9892-4.5586 5.6172 0 0-3.0275 1.9378-3.4551 5.4785-0.18259 1.5153 0.11806 2.497 0.45312 3.1914 0.44777 0.92731 1.0207 1.3077 1.1953 1.4473 0 0-9.276e-4 3.205-0.12305 6.0742-0.11135 2.6113 0.33446 6.5299 0.69141 7.7871 0.47962 0.11642 0.97662 0.18869 1.4863 0.21484h0.81445c-0.31177-0.94119-0.78778-2.9972-0.91602-4.748-0.18286-2.4999 0.34437-7.3951 0.40625-8.3789 0.053739 0.18277 2.1061 0.74624 2.2754 0.78516 3.2645 0.74989 6.7893 0.40939 9.75-1.1895 0.74119-0.40024 1.2796-1.0431 1.7559-1.8262 0.57789-0.9506 1.0238-2.1026 1.1309-3.2676 0.11741-1.2746-0.019019-2.6143-0.66797-3.5703 0 0-1.4655-2.9306-5.25-3.0527-3.7848-0.12212-5.0668-0.30494-6.2266 0 0 0 0.18251-0.42612 1.0371-1.0977 0.85436-0.67154 1.3436-1.1603 2.8086-1.832 1.4652-0.67154 1.8313-1.0379 4.5781-0.91602 0.6866 0.03059 1.6676-0.048092 2.2227 0.023438 1.6654 0.21459 2.8782 0.81648 3.8398 2.0527 1.2817 1.6483 1.5888 3.4796 1.7109 4.0293 0.12235 0.54942 0.4671 2.5021 0.65039 3.1738 0.1833 0.67154 0.42657 1.4943 0.30469 3.4473-0.11906 1.9139 0.28948 13.073-0.095704 16.367h2.1289s0.41016-5.7234 0.41016-9.2637c-2.36e-4 -3.541-0.28754-7.8071-0.35742-8.416 0 0 0.66649 0.12305 1.582 0.12305 0.91578 0 0.95535-0.06114 1.4434 0.48828 0.48848 0.54965 0.56733 1.587 0.68945 2.8691 0.12235 1.2819 0.48907 6.2277 0.36719 8.4863-0.12236 2.2589-0.24458 4.5059-0.67188 4.9941-0.4273 0.48848-0.61127 0.71875-1.3438 0.71875h0.46289c1.0644-0.054608 2.0734-0.31418 2.9863-0.74219 0.40558-1.0987 0.9635-3.0695 0.88477-5.5508-0.12212-3.8459-0.42847-8.469-1.0391-10.789-0.61036-2.3196-1.3426-2.312-2.9297-2.6172-1.5873-0.30518-2.3602-0.36289-2.7266-0.42383 0 0-0.38611-4.4538-2.1562-7.5059-0.65977-1.1377-1.2756-1.9773-2.0938-2.5879-1.3774-1.0271-3.0285-1.4013-4.2539-1.4395-1.9534-0.06094-3.9043-0.027343-3.9043-0.027343s-0.16574-0.026949-0.47656-0.015626zm-2.3125 8.582c0.92331-0.007647 2.0832 0.038303 3.0293 0.25195 1.3904 0.31389 3.2963 0.30495 3.1133 3.8457-0.18306 3.54-3.2971 4.8823-5.4336 5.1875-2.1365 0.30542-6.5171-0.95917-7.6094-1.7891-1.5259-1.16-1.6074-1.9344-1.6074-3.0332 0 0-0.30453-1.7706 2.5645-3.541 2.35e-4 0 1.5871-0.91469 4.334-0.85352 0 0 0.68607-0.060712 1.6094-0.068359z" fill="#4e4e4e"/></g><path d="m12 4c-4.432 0-8 3.568-8 8v24c0 4.432 3.568 8 8 8h24c4.432 0 8-3.568 8-8v-24c0-4.432-3.568-8-8-8zm0 1h24c3.878 0 7 3.122 7 7v24c0 3.878-3.122 7-7 7h-24c-3.878 0-7-3.122-7-7v-24c0-3.878 3.122-7 7-7z" fill-rule="evenodd" opacity=".3" style="paint-order:stroke fill markers"/></svg>
