<?xml version="1.0" encoding="UTF-8"?>
<!-- Created with Inkscape (http://www.inkscape.org/) -->
<svg id="SVGRoot" width="48px" height="48px" version="1.1" viewBox="0 0 48 48" xml:space="preserve" xmlns="http://www.w3.org/2000/svg" xmlns:cc="http://creativecommons.org/ns#" xmlns:dc="http://purl.org/dc/elements/1.1/" xmlns:rdf="http://www.w3.org/1999/02/22-rdf-syntax-ns#" xmlns:xlink="http://www.w3.org/1999/xlink"><defs><style>.cls-1{fill:none;stroke:#fff;stroke-linecap:round;stroke-linejoin:round;}</style><style>.cls-1{fill:none;stroke:#fff;stroke-linecap:round;stroke-linejoin:round;}</style><style>.cls-1{fill:none;stroke:#fff;stroke-linecap:round;stroke-linejoin:round;}</style><style>.cls-1{fill:none;stroke:#fff;stroke-linecap:round;stroke-linejoin:round;}</style><style>.cls-1{fill:none;stroke:#fff;stroke-linecap:round;stroke-linejoin:round;}</style><style>.cls-1{fill:none;stroke:#fff;stroke-linecap:round;stroke-linejoin:round;}</style><style>.cls-1{fill:none;stroke:#fff;stroke-linecap:round;stroke-linejoin:round;}</style><style id="current-color-scheme" type="text/css">.ColorScheme-Text {
        color:#31363b;
      }
      .ColorScheme-Accent {
        color:#3daee9;
      }</style><style type="text/css">.ColorScheme-Text {
        color:#31363b;
      }
      .ColorScheme-Accent {
        color:#3daee9;
      }</style><style>.cls-1{fill:none;stroke:#fff;stroke-linecap:round;stroke-linejoin:round;}</style><style>.cls-1{fill:none;stroke:#fff;stroke-linecap:round;stroke-linejoin:round;}</style><style>.cls-1{fill:none;stroke:#fff;stroke-linecap:round;stroke-linejoin:round;}</style><style>.cls-1{fill:none;stroke:#fff;stroke-linecap:round;stroke-linejoin:round;}</style><style>.cls-1{fill:none;stroke:#fff;stroke-linecap:round;stroke-linejoin:round;}</style><linearGradient id="linearGradient17" x1="7" x2="41" y1="24" y2="24" gradientUnits="userSpaceOnUse"><stop stop-color="#71b9e3" offset="0"/><stop stop-color="#f6a559" offset="1"/></linearGradient></defs><metadata><rdf:RDF><cc:Work rdf:about=""><dc:format>image/svg+xml</dc:format><dc:type rdf:resource="http://purl.org/dc/dcmitype/StillImage"/></cc:Work></rdf:RDF></metadata><rect x="4" y="4" width="40" height="40" ry="8" fill="url(#linearGradient17)" fill-rule="evenodd" style="paint-order:stroke fill markers"/><path d="m24 10.006c-1.6536 0-3.2387 0.28292-4.709 0.80469l6.6636 6.6653a3.5701 3.5701 67.504 0 1 1.0453 2.5241v4.5c0 0.277 0.223 0.5 0.5 0.5s0.5-0.223 0.5-0.5v-13.918c-1.2665-0.37441-2.6089-0.57617-4-0.57617zm6 1.332v12.318l6.3242-6.3242c-1.4113-2.6126-3.6292-4.7204-6.3242-5.9941zm-12.668 0.34375c-2.6124 1.4113-4.7206 3.6294-5.9941 6.3242h7.668a0.99414 0.99414 45 0 1 0.99414 0.99414v3.2773c0 0.554 0.446 1 1 1s1-0.446 1-1v-1.3752c0-0.2221-0.0029-0.19182 0.15269-0.04183 0.089816 0.086577 0.21213 0.13968 0.34731 0.13968 0.277 0 0.5-0.223 0.5-0.5v-1.9598a0.53438 0.53438 135 0 1 0.53438-0.53438h0.12188zm19.863 7.6094-8.7109 8.709h8.9395c0.37441-1.2665 0.57617-2.6089 0.57617-4 0-1.6536-0.28292-3.2387-0.80469-4.709zm-26.619 0.71484c-0.37441 1.2665-0.57617 2.6089-0.57617 4 0 1.6536 0.28292 3.2387 0.80469 4.709l8.7109-8.709zm7.4238 4.3438-6.3242 6.3242c0.17476 0.32352 0.36171 0.63986 0.56055 0.94727 0.39354 0.60843 0.76367 1.654 0.76367 2.3789v4.5c0 0.277 0.223 0.5 0.5 0.5s0.5-0.223 0.5-0.5v-3.4043c0-0.70363 0.3956-0.86168 0.93164-0.40625 0.56708 0.4818 1.0684 1.4886 1.0684 2.3105v7h2v-7.332zm2 4.1348v11.016c0 0.277 0.223 0.5 0.5 0.5s0.5-0.223 0.5-0.5v-0.78516c0-0.57207 0.45317-0.93325 1.0195-0.85352 0.39356 0.05541 0.79174 0.09501 1.1953 0.11719 0.43276 0.02378 0.78516 0.37317 0.78516 0.80664v2.2148c0 0.554 0.446 1 1 1s1-0.446 1-1v-2.125c0-0.56119 0.4516-1.0748 1-1.1934 0.5843-0.12631 1.1549-0.28969 1.709-0.48633zm4.3438 1.5156 6.3242 6.3242c0.13385-0.07231 0.2673-0.14628 0.39844-0.22266 0.52881-0.30799 0.93359-0.1004 0.93359 0.51172v2.3867c0 0.554 0.446 1 1 1s1-0.446 1-1c9.81e-4 -1.4078 0.0034-2.8187-0.0059-4.2266-0.0034-0.52145 0.29083-1.2435 0.6309-1.6387 0.21194-0.24629 0.375-0.068694 0.375 0.40625v1.959c0 0.277 0.223 0.5 0.5 0.5s0.5-0.223 0.5-0.5v-3.3555c0-0.5021 0.21299-1.2551 0.44336-1.7012 0.075483-0.14615 0.14834-0.29438 0.21875-0.44336h-1.1758z" fill="#fff" style="paint-order:stroke fill markers"/><path d="m12 4c-4.432 0-8 3.568-8 8v24c0 4.432 3.568 8 8 8h24c4.432 0 8-3.568 8-8v-24c0-4.432-3.568-8-8-8zm0 1h24c3.878 0 7 3.122 7 7v24c0 3.878-3.122 7-7 7h-24c-3.878 0-7-3.122-7-7v-24c0-3.878 3.122-7 7-7z" fill-rule="evenodd" opacity=".4" style="paint-order:stroke fill markers"/><style type="text/css">.st0{fill:#FFFFFF;}</style><style type="text/css">.st0{fill:#FFFFFF;}</style></svg>
