<?xml version="1.0" encoding="UTF-8"?>
<!-- Created with Inkscape (http://www.inkscape.org/) -->
<svg id="SVGRoot" width="48px" height="48px" version="1.1" viewBox="0 0 48 48" xml:space="preserve" xmlns="http://www.w3.org/2000/svg" xmlns:cc="http://creativecommons.org/ns#" xmlns:dc="http://purl.org/dc/elements/1.1/" xmlns:rdf="http://www.w3.org/1999/02/22-rdf-syntax-ns#"><defs><style>.cls-1{fill:none;stroke:#fff;stroke-linecap:round;stroke-linejoin:round;}</style></defs><metadata><rdf:RDF><cc:Work rdf:about=""><dc:format>image/svg+xml</dc:format><dc:type rdf:resource="http://purl.org/dc/dcmitype/StillImage"/></cc:Work></rdf:RDF></metadata><rect x="4" y="4" width="40" height="40" ry="8" fill="#b13b3e" fill-rule="evenodd" style="paint-order:stroke fill markers"/><path d="m12 4c-4.432 0-8 3.568-8 8v24c0 4.432 3.568 8 8 8h24c4.432 0 8-3.568 8-8v-24c0-4.432-3.568-8-8-8zm0 1h24c3.878 0 7 3.122 7 7v24c0 3.878-3.122 7-7 7h-24c-3.878 0-7-3.122-7-7v-24c0-3.878 3.122-7 7-7z" fill-rule="evenodd" opacity=".3" style="paint-order:stroke fill markers"/><path d="m5 36c0 3.878 3.122 7 7 7h24c3.878 0 7-3.122 7-7h-38z" opacity=".3" stroke-linecap="round" stroke-linejoin="round" stroke-width="2" style="paint-order:stroke fill markers"/><g fill="#fff" stroke-linecap="round" stroke-linejoin="round"><path d="m36 11v8s-12 4-20 17h-2c6-14 22-25 22-25z" stroke-width="2" style="paint-order:stroke fill markers"/><path d="m17 36c7-11 19-16 19-16v16z" stroke-width="2" style="paint-order:stroke fill markers"/><path d="m14 24h9l-7 12h-2z" stroke-width="2.0889" style="paint-order:stroke fill markers"/><rect x="12" y="26" width="4" height="4" stroke-width="2" style="paint-order:stroke fill markers"/><path d="m16 25v-3s1-4 5-4h1v-2s1-4 4-4c2 0 3 2 3 2v4h-1v-3s0-1-2-1-3 3-3 3v7h-1v-4h-1c-4 0-4 3-4 3v2z" stroke-width="2" style="paint-order:stroke fill markers"/></g><g fill="#b13b3e" stroke-linecap="round" stroke-linejoin="round" stroke-width="2"><rect x="32" y="16" width="2" height="2" ry="1" style="paint-order:stroke fill markers"/><rect x="29" y="18" width="2" height="2" ry="1" style="paint-order:stroke fill markers"/><rect x="26" y="20" width="2" height="2" ry="1" style="paint-order:stroke fill markers"/></g></svg>
