<?xml version="1.0" encoding="UTF-8"?>
<!-- Created with Inkscape (http://www.inkscape.org/) -->
<svg id="SVGRoot" width="48px" height="48px" version="1.1" viewBox="0 0 48 48" xml:space="preserve" xmlns="http://www.w3.org/2000/svg" xmlns:cc="http://creativecommons.org/ns#" xmlns:dc="http://purl.org/dc/elements/1.1/" xmlns:rdf="http://www.w3.org/1999/02/22-rdf-syntax-ns#"><defs><style>.cls-1{fill:none;stroke:#fff;stroke-linecap:round;stroke-linejoin:round;}</style><style>.cls-1{fill:none;stroke:#fff;stroke-linecap:round;stroke-linejoin:round;}</style></defs><metadata><rdf:RDF><cc:Work rdf:about=""><dc:format>image/svg+xml</dc:format><dc:type rdf:resource="http://purl.org/dc/dcmitype/StillImage"/></cc:Work></rdf:RDF></metadata><rect x="4" y="4" width="40" height="40" ry="8" fill="#f6a559" fill-rule="evenodd" style="paint-order:stroke fill markers"/><rect x="4" y="4" width="40" height="40" ry="8" fill="#f6a559" fill-rule="evenodd" style="paint-order:stroke fill markers"/><style type="text/css">.st0{fill:#FFFFFF;}</style><path d="m12 4c-3.491 0-6.4456 2.2143-7.543 5.3203l3.1504 21.039 1.5684 3.9883 2.0937 2.2891 17.912 2.8105 7.7324-1.9336c1.7405-1.4744 4.376-0.75008 7.0859-2.5137l-29.5-31h-2.5z" fill="#fff" opacity=".25" stroke-width=".90909"/><path d="m20.486 34.75-5.0371 0.13867-2.082 2.127 10.863 1.5723 5.7695 1.4121h12.936c0.677-1.1754 1.0645-2.5408 1.0645-4v-1.0918l-8.6289-0.11133s-3.4475 0.3752-6.0098 0.41602c-3.5173 0.056-8.875-0.46289-8.875-0.46289z" fill="#fff" fill-rule="evenodd" opacity=".6" style="paint-order:stroke fill markers"/><g stroke-width=".90909"><path d="m34.909 28.003 1.3867 3.4216s0.39709-0.01027 0.55398 0.09233c0.70827 0.46304 1.0615 1.3442 1.3867 2.1254 0.25436 0.611 0.41725 1.9425 0.41725 1.9425s-0.58908 0.74151-1.6637 1.1559c-0.95611 0.3687-2.9598 0.83095-2.9598 0.83095l-6.8414 0.97123-12.065-1.8945 6.5182-0.55575-0.23082-2.0792-0.92507-1.9425s-2.6123-0.455-3.8814-0.83098c-1.4075-0.41696-2.6934-1.2033-4.1141-1.5731-0.82875-0.21575-2.5427-0.36932-2.5427-0.36932l-0.97123 1.2944s2.6316 0.47036 3.9293 0.78659c2.6486 0.64536 7.8586 2.2638 7.8586 2.2638l0.04616 1.3867-7.2586 1.0636-0.9233 1.3405 13.682 2.0348 7.303-0.83275 2.5693-0.52025c2.1718-0.43975 4.4114-1.3355 5.1063-2.351 0.30634-0.44764-0.90135-3.85-1.1574-4.2471-0.78626-1.2196-1.4768-2.4617-2.9118-3.2368-0.6827-0.36878-2.3118-0.27698-2.3118-0.27698z" fill="#4e4e4e"/><path d="m12.536 36.832-3.4668-2.8198-0.23111-3.3282 2.6348-2.0339 4.53 1.1094 4.3452-0.13867 6.5639-1.849 7.9968 1.6641-0.13868 5.8705-4.4375 3.698-6.0093-0.97073-3.883-5.0848-0.87827-2.5886-3.4668 0.27736-0.27734 4.4839z" fill="#fff" opacity=".25"/><path d="m26.959 26.569c-4.0332-0.14589-5.5205 1.4502-6.2855 1.8963-1.4868 0.39448-3.5905 0.35809-4.5775 0.36932-0.5388 0.0064-1.4963-1.1175-4.4834-1.0636-1.8851 0.03409-3.4677 1.3405-3.4677 1.3405s-0.99077 0.13588-1.0618 1.1097c-0.066814 0.91607 0.73864 1.1559 0.73864 1.1559s0.45952 5.9702 4.9468 6.0548c4.7634 0.08955 4.3909-6.1932 4.3909-6.1932s0.34202-0.25118 0.87891-0.27877c0.67275-0.03454 1.0156 0.23259 1.0156 0.23259s0.27646 2.3673 1.4329 4.437c1.0673 1.9103 4.4025 4.465 8.4143 4.2525 2.9157-0.15449 4.5714 0.0027 6.4702-3.6523 1.1922-2.295 1.0636-4.8527 1.0636-4.8527s0.5438-0.81407 0.69425-1.3405c0.15044-0.5265 0.48055-0.93664 0-1.479-0.48054-0.54241-2.5427-0.64809-2.5427-0.64809s-0.98005-1.1001-7.6277-1.3405zm2.0082 2.4752c4.3039 0.08145 4.6164 1.0922 5.0177 3.3486 0.46757 2.6282-1.539 5.9952-5.6391 5.687-3.2582-0.24486-7.3727-3.113-7.4414-6.3795-0.05305-2.5198 3.7905-2.565 5.9623-2.635 0.78966-0.02545 1.4857-0.03291 2.1005-0.02127zm-16.522 0.52911c1.6753 0.05136 2.7314 0.66834 3.0043 1.804 0.40766 1.696-0.56716 4.4039-2.7734 4.437-2.5434 0.03846-3.543-2.592-3.3755-4.5295 0.14383-1.663 1.9116-1.7494 3.1445-1.7117z" fill="#4e4e4e"/><path d="m31.443 31.284c-0.34643-0.32448-1.1223-0.78007-0.83204-1.1556 0.31325-0.40525 1.0699 0.19343 1.433 0.5547 0.32859 0.32695 0.865 0.99807 0.50848 1.2943-0.33541 0.27868-0.79111-0.39527-1.1094-0.69339z" fill="#fff"/></g><path d="m12 4c-4.432 0-8 3.568-8 8v24c0 4.432 3.568 8 8 8h24c4.432 0 8-3.568 8-8v-24c0-4.432-3.568-8-8-8zm0 1h24c3.878 0 7 3.122 7 7v24c0 3.878-3.122 7-7 7h-24c-3.878 0-7-3.122-7-7v-24c0-3.878 3.122-7 7-7z" fill-rule="evenodd" opacity=".3" style="paint-order:stroke fill markers"/></svg>
