<?xml version="1.0" encoding="UTF-8"?>
<!-- Created with Inkscape (http://www.inkscape.org/) -->
<svg id="SVGRoot" width="48px" height="48px" version="1.1" viewBox="0 0 48 48" xml:space="preserve" xmlns="http://www.w3.org/2000/svg" xmlns:cc="http://creativecommons.org/ns#" xmlns:dc="http://purl.org/dc/elements/1.1/" xmlns:rdf="http://www.w3.org/1999/02/22-rdf-syntax-ns#"><defs><style>.cls-1{fill:none;stroke:#fff;stroke-linecap:round;stroke-linejoin:round;}</style><style>.cls-1{fill:none;stroke:#fff;stroke-linecap:round;stroke-linejoin:round;}</style><style>.cls-1{fill:none;stroke:#fff;stroke-linecap:round;stroke-linejoin:round;}</style><style>.a{fill:none;stroke:#b1b5bd;stroke-linecap:round;stroke-linejoin:round;isolation:isolate;opacity:0.63;}</style><style>.cls-1{fill:none;stroke:#fff;stroke-linecap:round;stroke-linejoin:round;}</style><style>.cls-1{fill:none;stroke:#fff;stroke-linecap:round;stroke-linejoin:round;}</style></defs><metadata><rdf:RDF><cc:Work rdf:about=""><dc:format>image/svg+xml</dc:format><dc:type rdf:resource="http://purl.org/dc/dcmitype/StillImage"/></cc:Work></rdf:RDF></metadata><rect x="4" y="4" width="40" height="40" ry="8" fill="#435259" fill-rule="evenodd" style="paint-order:stroke fill markers"/><path d="m12 4c-4.432 0-8 3.568-8 8v24c0 4.432 3.568 8 8 8h24c4.432 0 8-3.568 8-8v-24c0-4.432-3.568-8-8-8zm0 1h24c3.878 0 7 3.122 7 7v24c0 3.878-3.122 7-7 7h-24c-3.878 0-7-3.122-7-7v-24c0-3.878 3.122-7 7-7z" fill-rule="evenodd" opacity=".4" style="paint-order:stroke fill markers"/><g stroke-linecap="round" stroke-linejoin="round"><path d="m16 24-0.68945 0.3457 8.6895 9.6543 8.6895-9.6543-0.68945-0.3457h-16zm-2.0566 1.0293-3.9434 1.9707 5.5156 15h16.969l5.5156-15-3.9434-1.9707-10.057 10.971-10.057-10.971zm-4.9434 2.9707-2 2v3l6 8v-3l-4-10zm30 0-4 10v3l6-8v-3l-2-2zm-32 7.502v3.8242c1.0732 1.614 2.9083 2.6738 5 2.6738l-5-6.498zm34 0-5 6.498c2.0917 0 3.9268-1.0598 5-2.6738v-3.8242z" fill="#d7d0c4" stroke-width="2"/><path d="m13.943 25.029-3.9434 1.9707 9 15h9l10-15-3.9434-1.9707-10.057 10.971-10.057-10.971z" fill="#fff" stroke-width="2"/><path d="m24 10c-4.432 0-8 1.784-8 4v10c0 1.5385 5.6923 6 8 6s8-4.4615 8-6v-10c0-2.216-3.568-4-8-4z" fill="#d7d0c4" stroke-width="1.5385"/><g stroke-width="2"><path d="m18 16.859v9.7852c1.8686 1.661 4.5774 3.3555 6 3.3555s4.1314-1.6945 6-3.3555v-9.7852c-1.59 0.7099-3.6908 1.1406-6 1.1406s-4.41-0.43072-6-1.1406z" fill="#fff"/><path d="m12 6c-3.324 0-6 2.676-6 6l3 2s-1.3333-2-1-3c1-3 7-4 23-4 4 0-1 4-1 4s12 4 12 1c0-3.324-2.676-6-6-6h-24zm29.881 6.6973c-0.43056 0.046225-1.8809 3.3027-1.8809 3.3027l2 3v-6c0-0.22128-0.044088-0.31079-0.11914-0.30273zm-32.881 4.3027-3 1v8c0 5 3-9 3-9zm-3 18v1c0 3.324 2.676 6 6 6h24c3.324 0 6-2.676 6-6v-1s-3 6-10 6c-11 0-19-5-19-5s2.1117 3.1919 1 4c-2.5436 1.8491-8-5-8-5z" fill="#ff8600"/><path d="m18 18 5 2-2 2z" fill="#435259"/><path d="m30 18-5 2 2 2z" fill="#435259"/><rect x="16" y="10" width="16" height="7" rx="8" ry="3.5" fill="#fff"/></g></g></svg>
