<?xml version="1.0" encoding="UTF-8"?>
<!-- Created with Inkscape (http://www.inkscape.org/) -->
<svg id="SVGRoot" width="48px" height="48px" version="1.1" viewBox="0 0 48 48" xml:space="preserve" xmlns="http://www.w3.org/2000/svg" xmlns:cc="http://creativecommons.org/ns#" xmlns:dc="http://purl.org/dc/elements/1.1/" xmlns:rdf="http://www.w3.org/1999/02/22-rdf-syntax-ns#"><defs><style>.cls-1{fill:none;stroke:#fff;stroke-linecap:round;stroke-linejoin:round;}</style></defs><metadata><rdf:RDF><cc:Work rdf:about=""><dc:format>image/svg+xml</dc:format><dc:type rdf:resource="http://purl.org/dc/dcmitype/StillImage"/></cc:Work></rdf:RDF></metadata><rect x="4" y="4" width="40" height="40" ry="8" fill="#815A9D" fill-rule="evenodd" style="paint-order:stroke fill markers"/><path d="m12 4c-4.432 0-8 3.568-8 8v24c0 4.432 3.568 8 8 8h24c4.432 0 8-3.568 8-8v-24c0-4.432-3.568-8-8-8zm0 1h24c3.878 0 7 3.122 7 7v24c0 3.878-3.122 7-7 7h-24c-3.878 0-7-3.122-7-7v-24c0-3.878 3.122-7 7-7z" fill-rule="evenodd" opacity=".3" style="paint-order:stroke fill markers"/><path d="m22 15v16h4v-8l4 8 4-8v8h4v-16h-4l-4 9-4-9z" fill="#fff"/><path d="m21 6c-5.8874 0-11.194 2.3982-15 6.2754v23.725c0 3.324 2.676 6 6 6h23.725c3.5314-3.4665 5.836-8.1779 6.2188-13.439-2.2001 5.5418-7.5996 9.4395-13.943 9.4395-8.31 0-15-6.69-15-15s6.69-15 15-15c0.80449 0 1.5938 0.062796 2.3633 0.18359-2.8161-1.3982-5.9946-2.1836-9.3633-2.1836z" fill="#E4C4CB"/></svg>
