<?xml version="1.0" encoding="UTF-8"?>
<!-- Created with Inkscape (http://www.inkscape.org/) -->
<svg id="SVGRoot" width="48px" height="48px" version="1.1" viewBox="0 0 48 48" xml:space="preserve" xmlns="http://www.w3.org/2000/svg" xmlns:cc="http://creativecommons.org/ns#" xmlns:dc="http://purl.org/dc/elements/1.1/" xmlns:rdf="http://www.w3.org/1999/02/22-rdf-syntax-ns#"><defs><style>.cls-1{fill:none;stroke:#fff;stroke-linecap:round;stroke-linejoin:round;}</style></defs><metadata><rdf:RDF><cc:Work rdf:about=""><dc:format>image/svg+xml</dc:format><dc:type rdf:resource="http://purl.org/dc/dcmitype/StillImage"/></cc:Work></rdf:RDF></metadata><g><rect x="4" y="4" width="40" height="40" ry="8" fill="#224788" fill-rule="evenodd" style="paint-order:stroke fill markers"/><g stroke-linecap="round" stroke-linejoin="round" stroke-width="2"><path d="m6 20.516v15.484c0 3.324 2.676 6 6 6h22.359l-28.359-21.484z" fill="#2f74bd"/><path d="m38 33c-14.731 0-26.071 9.3238-27.777 10.803 0.57136 0.12868 1.166 0.19727 1.7773 0.19727h24c0.72304 0 1.4226-0.095252 2.0879-0.27344 0.47722-1.5143 2.6263-8.8767-0.087891-10.727z" fill="#ecdaea"/><path d="m38 33c-10 0-24 11-24 11h22c4.432 0 8-3.568 8-8v-3h-6z" fill="#c048a8"/></g></g><path d="m36 12-3 14s4 1 8 11l3-2v-2l-2 1c0-15-6-22-6-22zm-5 16-2 2s6 1 11 6c-5-8-9-8-9-8z" fill="#fff" opacity=".3" stroke-linecap="round" stroke-linejoin="round" stroke-width="2"/><path d="m12.396 5c-3.3126 2.9273-5.3965 7.2115-5.3965 12 0 8.864 7.136 16 16 16s16-7.136 16-16c0-4.7885-2.0839-9.0727-5.3965-12h-21.207z" opacity=".4" stroke-linecap="round" stroke-linejoin="round" stroke-width="2"/><path d="m12 4c-4.432 0-8 3.568-8 8v24c0 4.432 3.568 8 8 8h24c4.432 0 8-3.568 8-8v-24c0-4.432-3.568-8-8-8zm0 1h24c3.878 0 7 3.122 7 7v24c0 3.878-3.122 7-7 7h-24c-3.878 0-7-3.122-7-7v-24c0-3.878 3.122-7 7-7z" fill-rule="evenodd" opacity=".4" style="paint-order:stroke fill markers"/><g stroke-linecap="round" stroke-linejoin="round" stroke-width="2"><rect x="8" y="2" width="30" height="30" ry="15" fill="#6F7AF9"/><path d="m37.043 11.699c-2.9884 3.0814-7.6692 7.1139-14.043 10.301-4.576 2.288-9.0414 2.9977-12.67 3.0547 2.6564 4.1818 7.3283 6.9453 12.67 6.9453 8.31 0 15-6.69 15-15 0-1.8683-0.33836-3.6539-0.95703-5.3008z" fill="#78A8FF"/><path d="m23.025 2c-1.5051 1.3852-3.7074 3.1308-6.0254 4-2.1235 0.79633-4.1062 1.3809-5.873 1.8105-1.9618 2.5352-3.127 5.7215-3.127 9.1895 0 1.8892 0.34658 3.6953 0.97852 5.3574 2.3833 0.17726 6.9687-0.15161 14.021-3.3574 4.2471-1.9305 9.9109-8.3164 12.092-10.9-2.7214-3.6979-7.1048-6.0912-12.066-6.0996z" fill="#965AE1"/><path d="m25.58 2.2188c-1.3975 1.8458-3.8664 4.3886-7.5801 5.7812-3.072 1.152-5.9963 1.8617-8.4336 2.2988-1.0028 2.0147-1.5664 4.2897-1.5664 6.7012 0 1.3192 0.16943 2.5972 0.48633 3.8145 3.8319-0.36385 9.041-1.3296 13.514-3.8145 5.6527-3.1404 9.3334-7.8583 11.289-10.934-2.0904-1.967-4.7486-3.3386-7.709-3.8477z" fill="#EC6050"/><path d="m27.725 2.7539c-1.9667 2.0936-5.2087 4.9882-9.7246 7.2461-3.6786 1.8393-6.8845 1.9829-9.0547 1.7266-0.6118 1.6389-0.94531 3.4161-0.94531 5.2734 0 0.46999 0.020619 0.93387 0.0625 1.3926 2.6235 0.036046 6.7903-0.533 11.938-3.3926 5.4657-3.0365 9.509-7.0551 12.012-10.008-1.2839-0.9634-2.7277-1.7245-4.2871-2.2383z" fill="#E6C849"/></g><g stroke-linecap="round" stroke-linejoin="round" stroke-width="2"><rect transform="rotate(-30)" x="1.7535" y="13.508" width="19" height="16" rx="9.5" ry="8" fill="#fff" opacity=".3"/><path d="m23 4c-0.17082 0-0.34059 0.003301-0.50977 0.0097656 6.419 0.25534 11.51 5.5064 11.51 11.99 0 6.648-5.352 12-12 12-6.4839 0-11.735-5.0907-11.99-11.51-0.006465 0.16918-0.009766 0.33895-0.009766 0.50977 0 7.202 5.798 13 13 13s13-5.798 13-13-5.798-13-13-13z" opacity=".3"/><path d="m26.5 36c-1.1472 0-2.2549 0.036148-3.2988 0.10352-2.6986 1.081-5.072 2.3233-7.0352 3.498 1.8672 0.82957 5.7841 1.3984 10.334 1.3984 6.371 0 11.5-1.115 11.5-2.5s-5.129-2.5-11.5-2.5z" fill="#64245f" opacity=".5"/></g></svg>
