<?xml version="1.0" encoding="UTF-8"?>
<!-- Created with Inkscape (http://www.inkscape.org/) -->
<svg id="SVGRoot" width="48px" height="48px" version="1.1" viewBox="0 0 48 48" xml:space="preserve" xmlns="http://www.w3.org/2000/svg" xmlns:cc="http://creativecommons.org/ns#" xmlns:dc="http://purl.org/dc/elements/1.1/" xmlns:rdf="http://www.w3.org/1999/02/22-rdf-syntax-ns#"><defs><style>.cls-1{fill:none;stroke:#fff;stroke-linecap:round;stroke-linejoin:round;}</style><style>.cls-1{fill:none;stroke:#fff;stroke-linecap:round;stroke-linejoin:round;}</style><style>.cls-1{fill:none;stroke:#fff;stroke-linecap:round;stroke-linejoin:round;}</style><style>.cls-1{fill:none;stroke:#fff;stroke-linecap:round;stroke-linejoin:round;}</style><style>.cls-1{fill:none;stroke:#fff;stroke-linecap:round;stroke-linejoin:round;}</style><style>.cls-1{fill:none;stroke:#fff;stroke-linecap:round;stroke-linejoin:round;}</style><style>.cls-1{fill:none;stroke:#fff;stroke-linecap:round;stroke-linejoin:round;}</style><style id="current-color-scheme" type="text/css">.ColorScheme-Text {
        color:#31363b;
      }
      .ColorScheme-Accent {
        color:#3daee9;
      }</style><style type="text/css">.ColorScheme-Text {
        color:#31363b;
      }
      .ColorScheme-Accent {
        color:#3daee9;
      }</style></defs><metadata><rdf:RDF><cc:Work rdf:about=""><dc:format>image/svg+xml</dc:format><dc:type rdf:resource="http://purl.org/dc/dcmitype/StillImage"/></cc:Work></rdf:RDF></metadata><rect x="4" y="4" width="40" height="40" ry="8" fill="#A7796D" fill-rule="evenodd" style="paint-order:stroke fill markers"/><path d="m21 5c1.108 0 2 0.892 2 2v7c0 1.108-0.892 2-2 2h-16v2h5.0293c1.108 0 2 0.892 2 2v8c0 1.108-0.892 2-2 2h-5.0293v2h16c1.108 0 2 0.892 2 2v7c0 1.108-0.892 2-2 2h6c-1.108 0-2-0.892-2-2v-7c0-1.108 0.892-2 2-2h16v-2h-4.9766c-1.108 0-2-0.892-2-2v-8c0-1.108 0.892-2 2-2h4.9766v-2h-16c-1.108 0-2-0.892-2-2v-7c0-1.108 0.892-2 2-2zm-4.9707 13h15.994c1.108 0 2 0.892 2 2v8c0 1.108-0.892 2-2 2h-15.994c-1.108 0-2-0.892-2-2v-8c0-1.108 0.892-2 2-2z" fill-rule="evenodd" opacity=".3" style="paint-order:stroke fill markers"/><path d="m24 10c-7 0-14 4-14 13 0 8 7 12 7 15 0 3.1447-5 6-5 6h24s-5-2.8553-5-6c0-3 7-8 7-16s-7-12-14-12z" fill="#efefef" stroke-linecap="round" stroke-linejoin="round" stroke-width="2" style="paint-order:stroke fill markers"/><path d="m10.422 19.391c-0.27408 1.0996-0.42188 2.3017-0.42188 3.6094 0 2.4416 0.65254 4.5113 1.5586 6.293 0.29423-0.34808 0.4707-0.79942 0.4707-1.293v-7.1211l-1.6074-1.4883zm3.6074 3.3398v5.2695c0 1.108 0.892 2 2 2h5.8516l-7.8516-7.2695zm-0.80078 9.2695c1.8359 2.5676 3.7715 4.4221 3.7715 6 0 3.1447-5 6-5 6h24s-4.5028-2.5719-4.9629-5.5215l-5.8203-5.3887c-0.13896 0.27273-0.2168 0.58195-0.2168 0.91016v7c0 1.108 0.892 2 2 2h-6c1.108 0 2-0.892 2-2v-7c0-1.108-0.892-2-2-2h-7.7715z" fill="#a7796d" opacity=".5" style="paint-order:stroke fill markers"/><path d="m12 4c-4.432 0-8 3.568-8 8v24c0 4.432 3.568 8 8 8h24c4.432 0 8-3.568 8-8v-24c0-4.432-3.568-8-8-8zm0 1h24c3.878 0 7 3.122 7 7v24c0 3.878-3.122 7-7 7h-24c-3.878 0-7-3.122-7-7v-24c0-3.878 3.122-7 7-7z" fill-rule="evenodd" opacity=".3" style="paint-order:stroke fill markers"/><g fill="#4e4e4e" stroke-linecap="round" stroke-linejoin="round"><rect x="18" y="18" width="2" height="6" ry="1" stroke-width="2" style="paint-order:stroke fill markers"/><rect x="28" y="18" width="2" height="6" ry="1" stroke-width="2" style="paint-order:stroke fill markers"/><path d="m16 24s-0.70875-0.01379-1.4473 0.35547c-0.73851 0.36926-1.5527 1.3112-1.5527 2.6445 0 1.5 0.95204 3.1479 2.7656 4.543 1.8136 1.3951 4.5439 2.457 8.2344 2.457s6.4208-1.062 8.2344-2.457c1.8136-1.3951 2.7656-3.043 2.7656-4.543 0-1.3333-0.81422-2.2753-1.5527-2.6445s-1.4473-0.35547-1.4473-0.35547a1 1 0 0 0-1 1 1 1 0 0 0 1 1s0.29125 0.01379 0.55273 0.14453c0.26149 0.13074 0.44727 0.1888 0.44727 0.85547 0 0.5-0.54796 1.8521-1.9844 2.957-1.4364 1.1049-3.7061 2.043-7.0156 2.043s-5.5792-0.93803-7.0156-2.043c-1.4364-1.1049-1.9844-2.457-1.9844-2.957 0-0.66667 0.18578-0.72473 0.44727-0.85547s0.55273-0.14453 0.55273-0.14453a1 1 0 0 0 1-1 1 1 0 0 0-1-1z" stop-color="#000000" style="paint-order:stroke fill markers"/></g></svg>
