<?xml version="1.0" encoding="UTF-8"?>
<!-- Created with Inkscape (http://www.inkscape.org/) -->
<svg id="SVGRoot" width="48px" height="48px" version="1.1" viewBox="0 0 48 48" xmlns="http://www.w3.org/2000/svg" xmlns:cc="http://creativecommons.org/ns#" xmlns:dc="http://purl.org/dc/elements/1.1/" xmlns:rdf="http://www.w3.org/1999/02/22-rdf-syntax-ns#">
 <defs>
  <style>.cls-1{fill:none;stroke:#fff;stroke-linecap:round;stroke-linejoin:round;}</style>
  <style>.a{fill:none;stroke:#b1b5bd;stroke-linecap:round;stroke-linejoin:round;isolation:isolate;opacity:0.63;}</style>
 </defs>
 <metadata>
  <rdf:RDF>
   <cc:Work rdf:about="">
    <dc:format>image/svg+xml</dc:format>
    <dc:type rdf:resource="http://purl.org/dc/dcmitype/StillImage"/>
   </cc:Work>
  </rdf:RDF>
 </metadata>
 <g fill-rule="evenodd">
  <rect x="4" y="4" width="40" height="40" ry="8" fill="#57391C" style="paint-order:stroke fill markers"/>
  <path d="m12 4c-4.432 0-8 3.568-8 8v24c0 4.432 3.568 8 8 8h24c4.432 0 8-3.568 8-8v-24c0-4.432-3.568-8-8-8zm0 1h24c3.878 0 7 3.122 7 7v24c0 3.878-3.122 7-7 7h-24c-3.878 0-7-3.122-7-7v-24c0-3.878 3.122-7 7-7z" opacity=".4" style="paint-order:stroke fill markers"/>
  <rect x="29" y="29" width="5" height="5" ry="2.5" opacity=".25" style="paint-order:normal"/>
  <path d="m22 11c-0.554 0-1 0.446-1 1v3.4551c-0.56671 0.17683-1.111 0.40219-1.6289 0.67188l-2.4414-2.4414c-0.39174-0.39174-1.0243-0.39174-1.416 0l-2.8281 2.8281c-0.39174 0.39174-0.39174 1.0243 0 1.416l2.4414 2.4414c-0.26968 0.51788-0.49504 1.0622-0.67188 1.6289h-3.4551c-0.554 0-1 0.446-1 1v4c0 0.554 0.446 1 1 1h3.4551c0.17683 0.56671 0.40219 1.111 0.67188 1.6289l-2.4414 2.4414c-0.39174 0.39174-0.39174 1.0223 0 1.4141l2.8281 2.8301c0.39174 0.39174 1.0243 0.39174 1.416 0l2.4414-2.4414c0.51788 0.26968 1.0622 0.49504 1.6289 0.67188v3.4551c0 0.554 0.446 1 1 1h4c0.554 0 1-0.446 1-1v-3.4551c0.56671-0.17683 1.111-0.40219 1.6289-0.67188l2.4414 2.4414c0.39174 0.39174 1.0223 0.39174 1.4141 0l2.8301-2.8301c0.39174-0.39174 0.39174-1.0223 0-1.4141l-2.4414-2.4414c0.26968-0.51788 0.49504-1.0622 0.67188-1.6289h3.4551c0.554 0 1-0.446 1-1v-4c0-0.554-0.446-1-1-1h-3.4551c-0.17683-0.56671-0.40219-1.111-0.67188-1.6289l2.4414-2.4414c0.39174-0.39174 0.39174-1.0243 0-1.416l-2.8301-2.8281c-0.39174-0.39174-1.0223-0.39174-1.4141 0l-2.4414 2.4414c-0.51788-0.26968-1.0622-0.49504-1.6289-0.67188v-3.4551c0-0.554-0.446-1-1-1h-4z" opacity=".3" style="paint-order:stroke fill markers"/>
 </g>
 <g fill="#a17237" fill-rule="evenodd">
  <rect x="10" y="21" width="28" height="6" ry="1" style="paint-order:stroke fill markers"/>
  <rect transform="rotate(90)" x="10" y="-27" width="28" height="6" ry="1" style="paint-order:stroke fill markers"/>
  <rect transform="rotate(-45)" x="-14" y="30.941" width="28" height="6" ry="1" style="paint-order:stroke fill markers"/>
  <rect transform="rotate(45)" x="19.941" y="-3" width="28" height="6" ry="1" style="paint-order:stroke fill markers"/>
 </g>
 <rect x="14" y="14" width="20" height="20" ry="10" fill="#c28d4a" fill-rule="evenodd" style="paint-order:stroke fill markers"/>
 <rect x="18" y="18" width="12" height="12" ry="6" fill="#57391c" opacity=".4" stroke-linecap="round" stroke-linejoin="round" stroke-width="4" style="paint-order:stroke fill markers"/>
 <path d="m24 20c-2.9831 0-5.4445 2.1553-5.918 5 0.47342 2.8447 2.9348 5 5.918 5s5.4445-2.1553 5.918-5c-0.47342-2.8447-2.9348-5-5.918-5z" fill="#57391c" fill-rule="evenodd" style="paint-order:stroke fill markers"/>
</svg>
