<?xml version="1.0" encoding="UTF-8" standalone="no"?>
<!-- Created with Inkscape (http://www.inkscape.org/) -->

<svg
   id="SVGRoot"
   width="48px"
   height="48px"
   version="1.1"
   viewBox="0 0 48 48"
   sodipodi:docname="steam_icon_2212670.svg"
   xml:space="preserve"
   inkscape:version="1.4.3 (0d15f75042, 2025-12-25)"
   xmlns:inkscape="http://www.inkscape.org/namespaces/inkscape"
   xmlns:sodipodi="http://sodipodi.sourceforge.net/DTD/sodipodi-0.dtd"
   xmlns="http://www.w3.org/2000/svg"
   xmlns:svg="http://www.w3.org/2000/svg"
   xmlns:rdf="http://www.w3.org/1999/02/22-rdf-syntax-ns#"
   xmlns:cc="http://creativecommons.org/ns#"
   xmlns:dc="http://purl.org/dc/elements/1.1/"><sodipodi:namedview
     id="namedview1"
     pagecolor="#505050"
     bordercolor="#eeeeee"
     borderopacity="1"
     inkscape:showpageshadow="0"
     inkscape:pageopacity="0"
     inkscape:pagecheckerboard="0"
     inkscape:deskcolor="#505050"
     showgrid="true"
     inkscape:zoom="16.770833"
     inkscape:cx="18.216149"
     inkscape:cy="24"
     inkscape:window-width="1920"
     inkscape:window-height="1014"
     inkscape:window-x="0"
     inkscape:window-y="0"
     inkscape:window-maximized="1"
     inkscape:current-layer="SVGRoot"><inkscape:grid
       id="grid1"
       units="px"
       originx="0"
       originy="0"
       spacingx="1"
       spacingy="1"
       empcolor="#0099e5"
       empopacity="0.30196078"
       color="#0099e5"
       opacity="0.14902"
       empspacing="5"
       enabled="true"
       visible="true" /></sodipodi:namedview><defs
     id="defs815"><style
       id="style819">.cls-1{fill:none;stroke:#fff;stroke-linecap:round;stroke-linejoin:round;}</style><style
       id="style819-1">.cls-1{fill:none;stroke:#fff;stroke-linecap:round;stroke-linejoin:round;}</style><style
       id="style2">.a{fill:none;stroke:#b1b5bd;stroke-linecap:round;stroke-linejoin:round;isolation:isolate;opacity:0.63;}</style><style
       id="style819-5">.cls-1{fill:none;stroke:#fff;stroke-linecap:round;stroke-linejoin:round;}</style><style
       id="style819-2">.cls-1{fill:none;stroke:#fff;stroke-linecap:round;stroke-linejoin:round;}</style><style
       id="style819-3">.cls-1{fill:none;stroke:#fff;stroke-linecap:round;stroke-linejoin:round;}</style><style
       id="style819-36">.cls-1{fill:none;stroke:#fff;stroke-linecap:round;stroke-linejoin:round;}</style><style
       id="style819-0">.cls-1{fill:none;stroke:#fff;stroke-linecap:round;stroke-linejoin:round;}</style><style
       id="style819-7">.cls-1{fill:none;stroke:#fff;stroke-linecap:round;stroke-linejoin:round;}</style><style
       id="style819-2-9">.cls-1{fill:none;stroke:#fff;stroke-linecap:round;stroke-linejoin:round;}</style><style
       id="style819-3-2">.cls-1{fill:none;stroke:#fff;stroke-linecap:round;stroke-linejoin:round;}</style><style
       id="style819-36-0">.cls-1{fill:none;stroke:#fff;stroke-linecap:round;stroke-linejoin:round;}</style><style
       id="style2-2">.a{fill:none;stroke:#b1b5bd;stroke-linecap:round;stroke-linejoin:round;isolation:isolate;opacity:0.63;}</style><style
       id="style819-5-3">.cls-1{fill:none;stroke:#fff;stroke-linecap:round;stroke-linejoin:round;}</style><style
       id="style819-9">.cls-1{fill:none;stroke:#fff;stroke-linecap:round;stroke-linejoin:round;}</style><style
       id="style1">.cls-1{fill:none;stroke:#fff;stroke-linecap:round;stroke-linejoin:round;}</style></defs><metadata
     id="metadata818"><rdf:RDF><cc:Work
         rdf:about=""><dc:format>image/svg+xml</dc:format><dc:type
           rdf:resource="http://purl.org/dc/dcmitype/StillImage" /></cc:Work></rdf:RDF></metadata><rect
     id="rect1373-5"
     x="4"
     y="10"
     width="40"
     height="34"
     ry="8"
     fill="#efefef"
     style="fill-rule:evenodd;paint-order:stroke fill markers;fill:#e5b871" /><path
     id="rect1373-5-5"
     style="fill-rule:evenodd;paint-order:stroke fill markers;fill:#386a56;fill-opacity:1"
     d="M 12 4 C 7.568 4 4 7.568 4 12 L 4 24 L 24 6 L 44 25 L 44 12 C 44 7.568 40.432 4 36 4 L 12 4 z " /><path
     style="opacity:1;fill:#4fb47b;stroke:none;stroke-width:2;stroke-linecap:round;stroke-linejoin:round;stroke-opacity:1"
     d="M 4,29 24,10 44,29 V 22 C 44,22 31.629241,11.036551 26,4 H 22 L 4,22 Z"
     id="path2"
     sodipodi:nodetypes="cccccccc" /><path
     id="rect817"
     d="M 12,4 C 7.568,4 4,7.568 4,12 v 24 c 0,4.432 3.568,8 8,8 h 24 c 4.432,0 8,-3.568 8,-8 V 12 C 44,7.568 40.432,4 36,4 Z m 0,1 h 24 c 3.878,0 7,3.122 7,7 v 24 c 0,3.878 -3.122,7 -7,7 H 12 C 8.122,43 5,39.878 5,36 V 12 C 5,8.122 8.122,5 12,5 Z"
     opacity="0.3"
     style="fill-rule:evenodd;paint-order:stroke fill markers" /><rect
     style="opacity:1;fill:#503125;stroke-width:2;stroke-linecap:round;stroke-linejoin:round;fill-opacity:1"
     id="rect1"
     width="8"
     height="10"
     x="12"
     y="22"
     ry="4" /><rect
     style="opacity:1;fill:#503125;stroke-width:2;stroke-linecap:round;stroke-linejoin:round;fill-opacity:1"
     id="rect1-7"
     width="8"
     height="10"
     x="28"
     y="22"
     ry="4" /><path
     style="opacity:1;fill:none;stroke:#503125;stroke-width:2;stroke-linecap:round;stroke-linejoin:round;stroke-opacity:1"
     d="m 19,35 c 0,0 2,2 5,2 3,0 5,-2 5,-2"
     id="path1"
     sodipodi:nodetypes="czc" /><path
     style="opacity:0.3;fill:#000000;stroke:none;stroke-width:2;stroke-linecap:round;stroke-linejoin:round;stroke-opacity:1"
     d="M 5,30 24,12 43,30 V 28 L 24,10 5,28 Z"
     id="path3"
     sodipodi:nodetypes="ccccccc" /><rect
     style="opacity:1;fill:#8b5628;fill-opacity:1;stroke:none;stroke-width:2;stroke-linecap:round;stroke-linejoin:round;stroke-opacity:1"
     id="rect3"
     width="3"
     height="4"
     x="15"
     y="24"
     ry="1.5" /><rect
     style="fill:#8b5628;fill-opacity:1;stroke:none;stroke-width:2;stroke-linecap:round;stroke-linejoin:round;stroke-opacity:1"
     id="rect3-6"
     width="3"
     height="4"
     x="31"
     y="24"
     ry="1.5" /></svg>
