<?xml version="1.0" encoding="UTF-8"?>
<!-- Created with Inkscape (http://www.inkscape.org/) -->
<svg id="SVGRoot" width="48px" height="48px" version="1.1" viewBox="0 0 48 48" xml:space="preserve" xmlns="http://www.w3.org/2000/svg" xmlns:cc="http://creativecommons.org/ns#" xmlns:dc="http://purl.org/dc/elements/1.1/" xmlns:rdf="http://www.w3.org/1999/02/22-rdf-syntax-ns#"><defs><style>.cls-1{fill:none;stroke:#fff;stroke-linecap:round;stroke-linejoin:round;}</style><style>.cls-1{fill:none;stroke:#fff;stroke-linecap:round;stroke-linejoin:round;}</style></defs><metadata><rdf:RDF><cc:Work rdf:about=""><dc:format>image/svg+xml</dc:format><dc:type rdf:resource="http://purl.org/dc/dcmitype/StillImage"/></cc:Work></rdf:RDF></metadata><rect x="4" y="4" width="40" height="40" ry="8" fill="#f69659" fill-rule="evenodd" style="paint-order:stroke fill markers"/><path d="m12 4c-4.432 0-8 3.568-8 8v24c0 4.432 3.568 8 8 8h24c4.432 0 8-3.568 8-8v-24c0-4.432-3.568-8-8-8zm0 1h24c3.878 0 7 3.122 7 7v24c0 3.878-3.122 7-7 7h-24c-3.878 0-7-3.122-7-7v-24c0-3.878 3.122-7 7-7z" fill-rule="evenodd" opacity=".3" style="paint-order:stroke fill markers"/><path d="m21.904 10.154c-6.7544 1.006-11.904 6.8026-11.904 13.846 0 1.8302 0.34731 3.5762 0.98047 5.1758l1.3574-2.3262c-0.22074-0.91287-0.33789-1.867-0.33789-2.8496 0-5.3969 3.5278-9.9403 8.4121-11.459l1.4922-2.3867zm4.1914 0 1.4922 2.3867c4.8843 1.5187 8.4121 6.0621 8.4121 11.459 0 1.1952-0.17367 2.3477-0.49609 3.4355l1.3066 2.2402c0.76517-1.7329 1.1895-3.6534 1.1895-5.6758 0-7.0431-5.1499-12.84-11.904-13.846zm-9.3301 25.846c2.109 1.2703 4.583 2 7.2344 2s5.1254-0.72968 7.2344-2h-7.2344-0.5-6.7344z" fill="#fff" stroke-linecap="round" stroke-linejoin="round" stroke-width="4" style="paint-order:stroke fill markers"/><path d="m24 10-14 24h8l-2-2 8-15 8 15-2 2h8z" fill="#fff" stroke-linecap="round" stroke-linejoin="round" stroke-width="4" style="paint-order:stroke fill markers"/></svg>
