<?xml version="1.0" encoding="UTF-8"?>
<!-- Created with Inkscape (http://www.inkscape.org/) -->
<svg id="SVGRoot" width="48px" height="48px" version="1.1" viewBox="0 0 48 48" xmlns="http://www.w3.org/2000/svg" xmlns:cc="http://creativecommons.org/ns#" xmlns:dc="http://purl.org/dc/elements/1.1/" xmlns:rdf="http://www.w3.org/1999/02/22-rdf-syntax-ns#">
 <defs id="defs815">
  <style id="style819">.cls-1{fill:none;stroke:#fff;stroke-linecap:round;stroke-linejoin:round;}</style>
 </defs>
 <metadata id="metadata818">
  <rdf:RDF>
   <cc:Work rdf:about="">
    <dc:format>image/svg+xml</dc:format>
    <dc:type rdf:resource="http://purl.org/dc/dcmitype/StillImage"/>
    <dc:title/>
   </cc:Work>
  </rdf:RDF>
 </metadata>
 <g id="layer1">
  <rect id="rect1373-5" x="4" y="4" width="40" height="40" ry="8" fill="#627ad4" fill-rule="evenodd" style="paint-order:stroke fill markers"/>
  <path id="path832" d="m24 10c-3.0823 0-6.1651 1.0256-8.7497 3.0757-1.8781 1.4897-3.5015 3.7056-4.3232 5.9033-1.5387 4.1154-1.149 8.5208 1.0801 12.228 2.4724 4.1114 6.9085 6.6564 11.842 6.7928 0.17018 0.0048 0.67991-0.02136 1.1331-0.05576 6.4141-0.4869 11.672-5.2026 12.797-11.48 0.45074-2.5163 0.21273-5.0194-0.70891-7.4844-0.8217-2.1977-2.4423-4.4135-4.3204-5.9033-2.5846-2.0501-5.6675-3.0757-8.7497-3.0757zm-3.6059 2.7411c0.32046-1e-3 0.5454 0.11907 0.87916 0.42385 0.44466 0.40604 0.7981 0.90863 1.189 1.6898 0.57697 1.1532 1.1862 3.2631 1.4569 5.0472l0.10885 0.71944 0.29305 0.0112c0.16063 6e-3 0.34976 0.01428 0.42144 0.01673 0.14978 5e-3 0.34858-0.44064 0.82613-1.8544 0.57855-1.7127 0.87452-3.1381 0.91265-4.3863 0.02601-0.85127 0.06369-0.98058 0.35725-1.2381 0.38611-0.33871 0.69391-0.33332 1.8783 0.0251 0.60375 0.1827 1.778 0.6963 2.1742 0.95088 0.61292 0.39388 1.2975 1.0504 1.6467 1.5783 0.27938 0.42231 0.2947 0.74526 0.0614 1.3357-0.53412 1.3518-2.2093 3.0137-4.8089 4.7684l-0.83729 0.56607 0.10048 0.27606c0.06775 0.18825 0.13514 0.27885 0.20932 0.27885 0.1725 0 1.9728-0.3604 2.6486-0.52982 1.4481-0.36302 3.03-0.98704 3.7985-1.5002 0.25942-0.17322 0.35769-0.20536 0.65588-0.20356 0.60528 0.0038 0.8466 0.27652 1.1415 1.2939 0.3164 1.0915 0.39399 1.6948 0.36004 2.7746-0.03378 1.0743-0.11365 1.4513-0.45772 2.1416-0.19772 0.39666-0.26696 0.4798-0.50517 0.59674-1.2352 0.60639-4.0375 0.01568-7.3375-1.5448-0.41318-0.19539-0.75812-0.34269-0.76752-0.32904-0.0094 0.01372-0.09047 0.12466-0.18141 0.24818l-0.16746 0.22587 0.49959 0.56886c1.5614 1.7911 3.0933 3.1215 4.4628 3.8732 0.57132 0.3136 0.70391 0.44274 0.79822 0.78078 0.10682 0.38289-0.0031 0.66716-0.46888 1.2186-1.2683 1.5016-3.0498 2.5615-4.4795 2.6658-0.45562 0.03325-0.48663 0.02521-0.75078-0.15337-0.67064-0.45342-1.2895-1.5911-1.7444-3.2124-0.33054-1.1782-0.58518-2.6405-0.74519-4.2804l-0.03907-0.4127-0.23723-0.0084c-0.13013-5e-3 -0.26943-0.01344-0.3098-0.01673-0.15504-0.01302-0.84271 2.4041-1.1303 3.9708-0.12932 0.70442-0.16176 1.0777-0.17304 2.0551-0.01522 1.3186-0.04885 1.4618-0.40469 1.7149-0.27274 0.19404-0.60989 0.21071-1.3425 0.06135-2.0464-0.41722-3.7382-1.3704-4.4851-2.5292-0.17556-0.27236-0.18646-0.32448-0.1563-0.69992 0.02617-0.32566 0.09345-0.52324 0.34329-1.0206 0.40173-0.79972 0.77954-1.2978 1.722-2.2643 0.79564-0.81584 1.7764-1.6725 2.7798-2.426l0.58331-0.43501-0.11444-0.25654c-0.06287-0.1403-0.14277-0.26226-0.17583-0.27328-0.08967-0.02986-1.8994 0.43232-2.7045 0.69155-1.4552 0.46859-2.5766 0.97802-3.4804 1.5811-0.28102 0.18752-0.60648 0.36021-0.72286 0.38203-0.27685 0.05188-0.70934-0.11152-0.90428-0.34299-0.34012-0.40386-0.84708-2.1114-0.94614-3.1845-0.1295-1.4027 0.21166-2.9071 0.73124-3.2263 0.72235-0.44373 2.3619-0.43734 4.2535 0.01673 0.73022 0.17529 2.157 0.63303 2.9389 0.9453 0.26958 0.10766 0.6215 0.24891 0.78147 0.31231l0.29026 0.11432 0.1535-0.2426 0.1563-0.24539-0.12559-0.16731c-0.28523-0.38299-1.8622-1.8436-2.6989-2.4985-0.77733-0.60845-1.4167-1.0157-2.2607-1.4444-0.6644-0.33755-0.77658-0.41834-0.88195-0.62463-0.13562-0.26548-0.15229-0.68416-0.03629-0.90348 0.1418-0.26804 0.63455-0.87723 1.1276-1.3915 1.0749-1.1212 2.2513-1.8093 3.4804-2.0356 0.13552-0.02495 0.25322-0.0387 0.36004-0.03903z" fill="#fff" stroke-width=".061241"/>
  <path id="rect817" d="m12 4c-4.432 0-8 3.568-8 8v24c0 4.432 3.568 8 8 8h24c4.432 0 8-3.568 8-8v-24c0-4.432-3.568-8-8-8h-24zm0 1h24c3.878 0 7 3.122 7 7v24c0 3.878-3.122 7-7 7h-24c-3.878 0-7-3.122-7-7v-24c0-3.878 3.122-7 7-7z" fill-rule="evenodd" opacity=".3" style="paint-order:stroke fill markers"/>
  <rect id="rect837" x="22" y="22" width="4" height="4" ry="2" fill="#fff" fill-rule="evenodd" style="paint-order:stroke fill markers"/>
 </g>
</svg>
