<?xml version="1.0" encoding="UTF-8"?>
<!-- Created with Inkscape (http://www.inkscape.org/) -->
<svg id="SVGRoot" width="48px" height="48px" version="1.1" viewBox="0 0 48 48" xml:space="preserve" xmlns="http://www.w3.org/2000/svg" xmlns:cc="http://creativecommons.org/ns#" xmlns:dc="http://purl.org/dc/elements/1.1/" xmlns:rdf="http://www.w3.org/1999/02/22-rdf-syntax-ns#"><defs><style>.cls-1{fill:none;stroke:#fff;stroke-linecap:round;stroke-linejoin:round;}</style><style>.cls-1{fill:none;stroke:#fff;stroke-linecap:round;stroke-linejoin:round;}</style><style>.cls-1{fill:none;stroke:#fff;stroke-linecap:round;stroke-linejoin:round;}</style><style>.a{fill:none;stroke:#b1b5bd;stroke-linecap:round;stroke-linejoin:round;isolation:isolate;opacity:0.63;}</style><style>.cls-1{fill:none;stroke:#fff;stroke-linecap:round;stroke-linejoin:round;}</style><style>.cls-1{fill:none;stroke:#fff;stroke-linecap:round;stroke-linejoin:round;}</style><style>.cls-1{fill:none;stroke:#fff;stroke-linecap:round;stroke-linejoin:round;}</style></defs><metadata><rdf:RDF><cc:Work rdf:about=""><dc:format>image/svg+xml</dc:format><dc:type rdf:resource="http://purl.org/dc/dcmitype/StillImage"/></cc:Work></rdf:RDF></metadata><g><rect x="4" y="4" width="40" height="40" ry="8" fill="#4a5359" fill-rule="evenodd" style="paint-order:stroke fill markers"/><g stroke-linecap="round" stroke-linejoin="round"><rect x="4" y="22" width="40" height="14" fill="#505044" stroke-width="2"/><rect x="5" y="20" width="38" height="2" opacity=".3" stroke-width="1.9494"/><path d="m4 36c0 4.432 3.568 8 8 8h24c4.432 0 8-3.568 8-8h-40z" fill="#a9a99a" stroke-width="2"/><path d="m11 39c-3 0-3-2-3-2s0.29289-5.8787 1-8c4-12 5-17 5-17h20s1 5 5 17c1 3 1 8 1 8s0 2-3 2z" opacity=".3" stroke-width="2"/></g></g><path d="m12 4c-4.432 0-8 3.568-8 8v24c0 4.432 3.568 8 8 8h24c4.432 0 8-3.568 8-8v-24c0-4.432-3.568-8-8-8zm0 1h24c3.878 0 7 3.122 7 7v24c0 3.878-3.122 7-7 7h-24c-3.878 0-7-3.122-7-7v-24c0-3.878 3.122-7 7-7z" fill-rule="evenodd" opacity=".3" style="paint-order:stroke fill markers"/><g stroke-linecap="round" stroke-linejoin="round" stroke-width="2"><path d="m10 31v-1c0-1 4-4 4-4h20s4 3 4 4v1z" fill="#fcf7eb"/><rect x="14" y="10" width="20" height="18" ry="1" fill="#c7bead"/><rect x="10" y="30" width="28" height="8" ry="1" fill="#c7bead"/></g><g stroke-linecap="round" stroke-linejoin="round"><g stroke-width="2"><rect x="16" y="12" width="16" height="14" ry="1" fill="#4e4e4e"/><rect x="10" y="31" width="28" height="1" opacity=".3"/><rect x="10" y="33" width="28" height="1" opacity=".3"/></g><path d="m17 13v1l1.5481 1-1.5481 1v1l3-2z" fill="#56dc56" stroke-width="2.6667"/><rect x="21" y="13" width="3" height="4" fill="#56dc56" stroke-width="2.3094"/></g></svg>
