<?xml version="1.0" encoding="UTF-8"?>
<!-- Created with Inkscape (http://www.inkscape.org/) -->
<svg id="SVGRoot" width="48px" height="48px" version="1.1" viewBox="0 0 48 48" xml:space="preserve" xmlns="http://www.w3.org/2000/svg" xmlns:cc="http://creativecommons.org/ns#" xmlns:dc="http://purl.org/dc/elements/1.1/" xmlns:rdf="http://www.w3.org/1999/02/22-rdf-syntax-ns#"><defs><style>.cls-1{fill:none;stroke:#fff;stroke-linecap:round;stroke-linejoin:round;}</style></defs><metadata><rdf:RDF><cc:Work rdf:about=""><dc:format>image/svg+xml</dc:format><dc:type rdf:resource="http://purl.org/dc/dcmitype/StillImage"/></cc:Work></rdf:RDF></metadata><rect x="4" y="4" width="40" height="40" ry="8" fill="#6D8A76" fill-rule="evenodd" style="paint-order:stroke fill markers"/><path d="m12 4c-4.432 0-8 3.568-8 8v24c0 4.432 3.568 8 8 8h24c4.432 0 8-3.568 8-8v-24c0-4.432-3.568-8-8-8zm0 1h24c3.878 0 7 3.122 7 7v24c0 3.878-3.122 7-7 7h-24c-3.878 0-7-3.122-7-7v-24c0-3.878 3.122-7 7-7z" fill-rule="evenodd" opacity=".3" style="paint-order:stroke fill markers"/><path d="m30.547 5.4727-1.0547 0.48438-0.82227-0.29492-1.0527 0.46289 0.10547 0.75977-0.54883 0.10547 0.29492 0.88477 1.3496-1.2852 0.21094 0.88477 1.791-0.86328-0.75781-0.16992-0.10547-0.31641zm-7.5469 0.083984 0.69531 3.1191-2.1504-0.50586 1.5176 2.2773-1.2441 0.23242 1.4766 0.67383-0.08398 0.54883 1.0117-0.38086 0.35742-2.5918 0.52734-0.7168 0.46484 0.7168-0.44336-3.0156-0.63281 1.9609-0.33594-1.0332zm-5.291 3.6895-6.7461 1.6016-1.0117 5.2285 1.2227 4.6797 5.3125-1.3496 6.7031 3.627 5.1445-3.7949-0.50586-1.1797-5.1445 2.8652-1.0957-5.0586zm16.443 1.4336-1.6035 0.86328-0.04102-0.48438-1.4336 1.2227 0.04297-0.80078-1.582 1.8125-0.75976 0.10547 0.31641-1.2012-0.96875 1.3066-1.498 1.3066 1.4551-0.23047 0.88672 0.96875 1.8965 0.80078-1.3281-1.8555 1.3906 0.33789 1.3926-0.63281 0.69531-0.96875-1.4336-0.02149zm-10.773 1.3691-1.6445 1.3496 1.7715 0.69531 1.1797 1.877 1.8145-1.3711-0.21094-1.1797-0.94922-1.1172zm-13.133 0.90625-2.9102 0.84375-1.3066 1.3066 3.8789-0.75781zm10.855 1.0332 0.5918 1.3711 2.5918 1.623 0.9707 1.4336 0.12695-0.82227-2.5098-3.0566-0.75781-0.40039zm-11.404 0.90625-4.3535 1.3086-0.42188 1.1387 4.5645-1.5195zm8.2637 6.7891-12.961 4.3164v1l12.75-4.2617 6.8301 4.2148 5.4824 10.416 0.08398 2.4453 0.80078-0.9707 0.12695-1.7285-5.3965-10.836zm9.0234 0.16797-2.1504 1.7715 1.9824 1.4336 3.668 6.5352 0.67383-0.04297-1.3496-4.0469zm-9.9844 7.1484c-3.324 0-6 2.676-6 6 0 0.34088 0.02793 0.67494 0.08203 1 0.47342-2.8447 2.9348-5 5.918-5s5.4445 2.1553 5.918 5c0.0541-0.32506 0.08203-0.65912 0.08203-1 0-3.324-2.676-6-6-6zm22.734 3.4297-8.2812 0.42774 1.3066 3.2871 8.2402-1.1445zm-22.734 0.57031c-2.77 0-5 2.23-5 5 0 2.77 2.23 5 5 5-2.216-4e-6 -4-1.784-4-4 0-2.216 1.784-4 4-4s4 1.784 4 4c0 2.216-1.784 4-4 4 2.77-1.1e-5 5-2.23 5-5 0-2.77-2.23-5-5-5z" fill="#fefcec" stroke-linecap="round" stroke-linejoin="round" stroke-width="2"/></svg>
