<?xml version="1.0" encoding="UTF-8"?>
<!-- Created with Inkscape (http://www.inkscape.org/) -->
<svg id="SVGRoot" width="48px" height="48px" version="1.1" viewBox="0 0 48 48" xml:space="preserve" xmlns="http://www.w3.org/2000/svg" xmlns:cc="http://creativecommons.org/ns#" xmlns:dc="http://purl.org/dc/elements/1.1/" xmlns:rdf="http://www.w3.org/1999/02/22-rdf-syntax-ns#" xmlns:xlink="http://www.w3.org/1999/xlink"><defs><style>.cls-1{fill:none;stroke:#fff;stroke-linecap:round;stroke-linejoin:round;}</style><style>.cls-1{fill:none;stroke:#fff;stroke-linecap:round;stroke-linejoin:round;}</style><linearGradient id="linearGradient77" x1="26" x2="26" y1="42" y2="7" gradientUnits="userSpaceOnUse"><stop stop-color="#4686d2" offset="0"/><stop stop-color="#1f3170" offset="1"/></linearGradient></defs><metadata><rdf:RDF><cc:Work rdf:about=""><dc:format>image/svg+xml</dc:format><dc:type rdf:resource="http://purl.org/dc/dcmitype/StillImage"/></cc:Work></rdf:RDF></metadata><g><path d="m12 4c-4.432 0-8 3.568-8 8v24c0 4.0936 3.0448 7.4507 7.002 7.9395l32.998-20.939v-11c0-4.432-3.568-8-8-8h-24z" fill="url(#linearGradient77)" fill-rule="evenodd" style="paint-order:stroke fill markers"/><g stroke-linecap="round" stroke-linejoin="round" stroke-width="12"><path d="m29 8v3h-3v3h-3v3h-3v3h-3v6h-3v3h3v3h-3v3h-3v8.9395c0.32748 0.040489 0.66122 0.060547 1 0.060547h2 22c4.432 0 8-3.568 8-8v-13h-3v-3h-3v-6h3v-6h-12z" fill="#513223" style="paint-order:stroke fill markers"/><path d="m29 11v3h-3v3h6v-3h6v-3z" fill="#b73e44" style="paint-order:stroke fill markers"/><path d="m29 11v6h3v-3h3v-3z" fill="#f26b4f" style="paint-order:stroke fill markers"/></g></g><g stroke-linecap="round" stroke-linejoin="round" stroke-width="12"><path d="m23 17v3h-3v12h-3v3h-3v9h3 19c4.432 0 8-3.568 8-8v-10h-3v3h-3v-9h-3v-3h-12z" fill="#ffe1ab" style="paint-order:stroke fill markers"/><path d="m23 17v3h-3v12h-3v3h-3v9h3 3v-3h3v-3h-3v-3h3v-3h3v-3h3v-3h-3v-9h-3zm0 24v3h3v-3h-3zm3 0h3v-3h-3v3zm3 0v3h3v-3h-3zm0-24v3h3v3h3v3h3v-6h-3v-3h-6zm12 9v3h3v-3h-3zm0 3h-3v3h3v-3zm-3 3h-6v3h3v3h3v-6zm0 6v3h4.2539c0.69463-0.86898 1.2117-1.887 1.4961-3h-5.75z" fill="#dc9d5a" style="paint-order:stroke fill markers"/><rect x="17" y="26" width="9" height="3" fill="#f9d912" style="paint-order:stroke fill markers"/><path d="m23 20v6h3v-6h-3zm9 0v9h3v-9h-3zm6 15v3h3v-3h-3zm3 3v3h1.2539c0.69463-0.86898 1.2117-1.887 1.4961-3h-2.75z" fill="#513223" style="paint-order:stroke fill markers"/><path d="m20 29v3h3v-3z" fill="#975316" style="paint-order:stroke fill markers"/></g><path d="m12 4c-4.432 0-8 3.568-8 8v24c0 4.432 3.568 8 8 8h24c4.432 0 8-3.568 8-8v-24c0-4.432-3.568-8-8-8zm0 1h24c3.878 0 7 3.122 7 7v24c0 3.878-3.122 7-7 7h-24c-3.878 0-7-3.122-7-7v-24c0-3.878 3.122-7 7-7z" fill-rule="evenodd" opacity=".4" style="paint-order:stroke fill markers"/><g fill="#fff" stroke-linecap="round" stroke-linejoin="round"><path d="m9 12c2-1 2-1 3-3 1 2 1 2 3 3-2 1-2 1-3 3-1-2-1-2-3-3z" opacity=".4" stroke-width="4" style="paint-order:stroke fill markers"/><path d="m8 20c1.3333-0.66667 1.3333-0.66667 2-2 0.66667 1.3333 0.66667 1.3333 2 2-1.3333 0.66667-1.3333 0.66667-2 2-0.66667-1.3333-0.66667-1.3333-2-2z" opacity=".4" stroke-width="2.6667" style="paint-order:stroke fill markers"/><path d="m18 10c1.3333-0.66667 1.3333-0.66667 2-2 0.66667 1.3333 0.66667 1.3333 2 2-1.3333 0.66667-1.3333 0.66667-2 2-0.66667-1.3333-0.66667-1.3333-2-2z" opacity=".4" stroke-width="2.6667" style="paint-order:stroke fill markers"/></g></svg>
