<?xml version="1.0" encoding="UTF-8"?>
<!-- Created with Inkscape (http://www.inkscape.org/) -->
<svg id="SVGRoot" width="48px" height="48px" version="1.1" viewBox="0 0 48 48" xmlns="http://www.w3.org/2000/svg" xmlns:cc="http://creativecommons.org/ns#" xmlns:dc="http://purl.org/dc/elements/1.1/" xmlns:rdf="http://www.w3.org/1999/02/22-rdf-syntax-ns#" xmlns:xlink="http://www.w3.org/1999/xlink">
 <defs id="defs815">
  <style id="style819">.cls-1{fill:none;stroke:#fff;stroke-linecap:round;stroke-linejoin:round;}</style>
  <style id="style819-5">.cls-1{fill:none;stroke:#fff;stroke-linecap:round;stroke-linejoin:round;}</style>
  <style id="current-color-scheme" type="text/css">.ColorScheme-Text {
        color:#31363b;
      }
      .ColorScheme-Accent {
        color:#3daee9;
      }</style>
  <style id="current-color-scheme-6" type="text/css">.ColorScheme-Text {
        color:#31363b;
      }
      .ColorScheme-Accent {
        color:#3daee9;
      }</style>
 </defs>
 <metadata id="metadata818">
  <rdf:RDF>
   <cc:Work rdf:about="">
    <dc:format>image/svg+xml</dc:format>
    <dc:type rdf:resource="http://purl.org/dc/dcmitype/StillImage"/>
    <dc:title/>
   </cc:Work>
  </rdf:RDF>
 </metadata>
 <g id="layer1">
  <rect id="rect1373" x="4" y="4" width="40" height="40" ry="8" fill="#c4493c" fill-rule="evenodd" style="paint-order:stroke fill markers"/>
  <path id="rect817" d="m12 4c-4.432 0-8 3.568-8 8v24c0 4.432 3.568 8 8 8h24c4.432 0 8-3.568 8-8v-24c0-4.432-3.568-8-8-8h-24zm0 1h24c3.878 0 7 3.122 7 7v24c0 3.878-3.122 7-7 7h-24c-3.878 0-7-3.122-7-7v-24c0-3.878 3.122-7 7-7z" fill-rule="evenodd" opacity=".3" style="paint-order:stroke fill markers"/>
  <g id="layer1-3" transform="matrix(1.2101 0 0 1.2101 -4.4883 -4.9978)" fill="#fff" stroke-width=".096859">
   <path id="path835" d="m22.386 24.482v6.7805s-1.8886-3.536-4.4946-3.5187c-0.67257 0.0046-2.1531 0.11894-2.1317 0.87325 0.02747 0.97243 5.034 2.8252 5.034 2.8252s-6.4987-0.69011-8.5784-3.981c-0.72177-1.1421 0.10273-2.4913 0.10273-2.4913s2.3578 1.5022 3.6985 1.6181c1.2557 0.1085 3.4212-0.12559 3.6728-0.89893 0.38263-1.1762-1.5223-2.6071-3.4416-3.3646-0.84166-0.33215-2.5427-0.9503-2.5427-0.9503s1.5605-1.0116 3.6471-1.6438c1.9723-0.59756 4.6488-0.69346 4.6488-0.69346s-4.2782 0.99142-4.3662 2.1831c-0.14356 1.9442 4.7515 3.2618 4.7515 3.2618z"/>
   <path id="path837" d="m23.362 29.464v-5.4193s4.5391-2.7743 4.5974-4.1094c0.09897-2.2654-4.3149-2.6197-4.3149-2.6197s3.183-0.07282 4.7001 0.33389c2.2142 0.5936 3.7755 1.9776 3.7755 1.9776s-6.0062 2.9075-6.01 4.1351c-0.0038 1.095 3.5581 1.7463 5.4449 1.7979 3.0307 0.08278 4.1351-2.2345 4.1351-2.2345s0.50509 1.2825 0 2.1061c-2.0901 3.408-10.684 4.3662-10.684 4.3662s5.1839-1.8219 5.1111-2.9279c-0.04756-0.72179-1.6148-0.88187-2.4913-0.84756-2.9027 0.11361-4.2635 3.4416-4.2635 3.4416z"/>
   <path id="path839" d="m22.394 22.453 1.3869-0.53936s0.15162-0.83746 0.12842-1.2585c-0.11812-2.143-1.0886-3.2203-1.1044-4.1351-0.02003-1.1626 0.77051-3.5957 0.77051-3.5957s-1.3752 2.1147-1.3612 3.6214c0.01312 1.4144 0.69046 2.5416 0.64209 3.9553-0.0229 0.66826-0.46231 1.952-0.46231 1.952z"/>
  </g>
 </g>
</svg>
