<?xml version="1.0" encoding="UTF-8"?>
<!-- Created with Inkscape (http://www.inkscape.org/) -->
<svg id="SVGRoot" width="48px" height="48px" version="1.1" viewBox="0 0 48 48" xmlns="http://www.w3.org/2000/svg" xmlns:cc="http://creativecommons.org/ns#" xmlns:dc="http://purl.org/dc/elements/1.1/" xmlns:rdf="http://www.w3.org/1999/02/22-rdf-syntax-ns#">
 <defs>
  <style>.cls-1{fill:none;stroke:#fff;stroke-linecap:round;stroke-linejoin:round;}</style>
 </defs>
 <metadata>
  <rdf:RDF>
   <cc:Work rdf:about="">
    <dc:format>image/svg+xml</dc:format>
    <dc:type rdf:resource="http://purl.org/dc/dcmitype/StillImage"/>
   </cc:Work>
  </rdf:RDF>
 </metadata>
 <rect x="4" y="4" width="40" height="40" ry="8" fill="#4e4e4e" fill-rule="evenodd" style="paint-order:stroke fill markers"/>
 <path d="m12 4c-4.432 0-8 3.568-8 8v24c0 4.432 3.568 8 8 8h24c4.432 0 8-3.568 8-8v-24c0-4.432-3.568-8-8-8h-24zm0 1h24c3.878 0 7 3.122 7 7v24c0 3.878-3.122 7-7 7h-24c-3.878 0-7-3.122-7-7v-24c0-3.878 3.122-7 7-7z" fill-rule="evenodd" opacity=".4" style="paint-order:stroke fill markers"/>
 <path d="m21.482 6c-1.2229 2.6565-1.4202 3.0812-3.125 6.7871-3.8335 8.3333-6.9864 15.19-7.0078 15.236-0.030907 0.066732 1.2826 2.9641 6.332 13.977h3.8828l0.023438-0.14844c0.39553-2.5679 0.45631-3.2307 0.42969-4.6211-0.01069-0.56174-0.014936-1.0215-0.009766-1.0215 0.029741 0 0.82163 0.34043 0.99024 0.42578 0.5592 0.2831 1.1361 0.76586 1.5137 1.2676 0.47916 0.63666 0.79078 1.3954 1 2.4316l0.11523 0.57617 0.048828-0.17969c0.19816-0.72978 0.25426-1.1634 0.25586-1.9824 8.5e-4 -0.44721-0.022272-0.99887-0.050782-1.2246-0.02858-0.22576-0.041647-0.41929-0.029297-0.43164 0.036291-0.03629 1.0467 0.48315 1.4121 0.72656 0.94355 0.62849 1.6533 1.41 2.2285 2.4473 0.20813 0.37532 0.25218 0.50025 0.56055 1.6348 0.010987 0.040421 0.01273 0.059915 0.023438 0.099609h3.041c-0.12641-1.276-0.10057-1.4439 0.095703-2.2051 0.1961-0.76051 0.48708-1.2854 1.0293-1.8535 0.27455-0.28768 1.0936-0.89268 1.1426-0.84375 0.01092 0.01097-0.005197 0.23101-0.035157 0.48828-0.02991 0.25726-0.054144 0.7976-0.052734 1.2012 0.0023 0.6634 0.014389 0.79075 0.12695 1.3301 0.17297 0.8288 0.18349 0.84725 0.24609 0.49023 0.02824-0.16085 0.10991-0.52764 0.18164-0.81445 0.43335-1.7336 1.4528-2.8644 3.1523-3.4941l0.2207-0.082031-0.001953 1.2754c-9.71e-4 1.102 0.087931 1.9748 0.28906 3.3711 1.4776-1.0668 2.4455-2.7875 2.4824-4.748v-8.125c-0.1811 0.53006-0.50232 0.81025-1.1934 1.0098-0.45043 0.13005-1.4991 0.12888-2.1484-0.001953-0.97799-0.19694-1.2444-0.41147-1.248-1.002-4e-3 -0.64448 0.78163-1.5653 1.752-2.0566 0.09487-0.04802 0.16219-0.09757 0.15039-0.10938-0.03998-0.04001-0.97421 0.07037-1.2559 0.14844-0.29459 0.08164-0.79187 0.31586-1.1289 0.53125-0.36389 0.23253-1.0749 0.95256-1.3574 1.377-0.30671 0.46072-0.59287 1.0833-0.76367 1.6582-0.0672 0.2264-0.12736 0.41838-0.13476 0.42578-0.02094 0.02093 0.01276-0.56567 0.05664-0.98047 0.06505-0.61516 0.08676-0.6794 0.73633-2.1738l0.056641-0.13086-0.18945 0.10938c-1.2411 0.71496-1.832 1.4126-2.2344 2.6387-0.06688 0.20371-0.1305 0.39698-0.14258 0.42969-0.01205 0.03272-0.056826-0.10273-0.097657-0.30078-0.17959-0.87079-0.65959-1.9751-1.2324-2.834-0.18198-0.27288-0.62688-0.88745-0.98828-1.3672-1.2956-1.7198-1.4227-1.9569-1.4238-2.6387-0.0012-0.74635 0.30805-1.2957 0.98438-1.748 0.16252-0.1087 0.81407-0.45736 1.4492-0.77539 1.4277-0.71487 2.0274-1.0997 2.5859-1.6582 0.86018-0.86013 1.2461-1.7871 1.2461-2.9922 0-0.61848-0.080169-0.97942-0.33398-1.4922-0.48691-0.98362-1.4685-1.7734-2.6992-2.1719-0.17452-0.05648-0.47409-0.14995-0.66602-0.20703-0.50496-0.15016-0.59667-0.28054-0.42774-0.60742 0.15072-0.29163 0.53496-0.59015 1.3105-1.0176 0.51318-0.28281 0.68242-0.39847 0.96875-0.66016 0.34374-0.31421 0.43355-0.49315 0.44727-0.9043 0.01109-0.33391 0.009901-0.33838-0.042969-0.17969-0.17605 0.52812-0.50121 0.76714-1.3555 0.99609-0.37638 0.10115-0.4453 0.1074-1.6016 0.12305-1.2979 0.017755-1.4138 0.00514-1.6289-0.17578-0.27669-0.23282-0.89324-1.7879-1.0879-2.7422-0.035826-0.17558-0.043771-0.32383-0.029297-0.50977h-0.64844c-0.15812 0.45751-0.18755 0.99314-0.097656 1.8691 0.06294 0.61432 0.063293 1.1703 0.001953 1.4629-0.02877 0.13719-0.1709 0.46984-0.34766 0.8125-0.16473 0.31935-0.39244 0.79079-0.50586 1.0469l-0.20703 0.46484 0.052735 0.26758c0.14529 0.75069-0.001101 1.2849-0.50586 1.8535l-0.23438 0.26367v0.40625c0 0.6376 0.16006 1.107 0.49024 1.4473 0.1595 0.1643 0.41393 0.34838 0.43945 0.31836 0.0068-0.0079 0.048497-0.22846 0.091797-0.49024 0.08867-0.53562 0.19804-0.84268 0.42773-1.1895 0.45498-0.68686 1.6401-1.5246 2.4785-1.752 0.38151-0.10343 1.218-0.095765 1.666 0.015625 0.87868 0.21847 1.7389 0.73658 2.2539 1.3555 0.5631 0.67666 0.68024 1.6356 0.29688 2.4219-0.10506 0.21549-0.23515 0.38982-0.48438 0.64844-0.68838 0.71418-1.2646 1.051-2.5625 1.4961-1.728 0.59266-2.5683 1.0375-3.252 1.7246-0.89791 0.90243-1.3451 2.1405-1.2129 3.3555 0.09176 0.8434 0.2306 1.3288 1.0293 3.6055 0.18107 0.51612 0.4139 1.3086 0.38476 1.3086-0.0062 0-0.095429-0.14198-0.19726-0.31445-0.2266-0.38375-0.62554-0.82177-0.99609-1.0938-0.36748-0.26971-0.88913-0.59134-0.91602-0.56445-0.0118 0.01183 0.08681 0.26764 0.2207 0.56641 0.4343 0.96923 0.51736 1.3037 0.57226 2.3184l0.019531 0.37695-0.16797-0.51562c-0.27481-0.83874-0.64166-1.5437-1.0547-2.0234-0.61842-0.71838-1.4609-1.2888-2.1953-1.4863-0.26737-0.071919-0.91921-0.1597-1.168-0.1582h-0.10938l0.11914 0.072266c0.06544 0.03968 0.25241 0.15175 0.41602 0.24805 0.59298 0.34901 1.1688 1.0065 1.3496 1.543 0.12757 0.3784 0.050789 0.73994-0.20703 0.98047-0.31502 0.29389-1.9557 0.53694-2.7676 0.41016-0.64582-0.10086-1.1784-0.37216-1.3926-0.70898-0.20863-0.32822-0.29346-0.67849-0.28906-1.1973 0.006099-0.697 0.11948-1.4726 0.53125-3.6289 0.49033-2.5677 0.67025-3.4091 0.74023-3.4609 0.14166-0.10488 0.5193-0.21849 0.78516-0.23633 0.4625-0.03162 1.0471 0.16523 1.541 0.51953 0.23582 0.16914 0.72546 0.65116 1.0293 1.0137 0.13384 0.15961 0.14728 0.16569 0.14648 0.078125-0.0014-0.15158-0.1417-0.74757-0.23438-0.99414-0.15276-0.40641-0.38898-0.70633-1.1328-1.4414-0.49899-0.49312-0.77037-0.79467-0.87695-0.97266l-0.1543-0.25781 0.003906-0.55469c0.0039-0.45148 0.031869-0.71146 0.15234-1.3887 0.37925-2.1321 1.4785-6.6352 2.3516-9.8418h-2.5176zm15.799 0.13867c0.9644 3.6011 1.9582 7.7632 2.2988 9.6523 0.12067 0.6693 0.14569 0.90388 0.15039 1.3984 0.0051 0.51693-0.0027 0.61377-0.06836 0.73438-0.18972 0.34871-0.49153 0.68561-1.2754 1.4277-0.4371 0.41383-0.62452 0.67375-0.78711 1.084-0.11279 0.28456-0.27366 0.94875-0.25391 1.0508 0.0071 0.03683 0.10103-0.04964 0.24414-0.22461 0.53383-0.65259 1.1045-1.092 1.6992-1.3086 0.242-0.08796 0.35432-0.10396 0.68555-0.10352 0.35206 4.94e-4 0.42546 0.01263 0.6543 0.11524 0.14182 0.06356 0.26373 0.11975 0.26953 0.12305 0.0148 0.0088 0.36732 1.773 0.66211 3.3105 0.21468 1.1198 0.34282 1.8646 0.43359 2.4766v-13.99c-0.009651-0.51192-0.08376-1.0063-0.21289-1.4785-0.17992-0.39173-0.56936-1.2357-0.82812-1.7988-0.84875-1.2396-2.1508-2.1402-3.6719-2.4688z" fill="#fff" stroke-width=".039664"/>
 <rect x="20" y="20" width="26" height="26" ry="13" fill="#46589d" fill-rule="evenodd" style="paint-order:normal"/>
 <path d="m33 20c-7.202 0-13 5.798-13 13s5.798 13 13 13 13-5.798 13-13-5.798-13-13-13zm0 1c6.648 0 12 5.352 12 12s-5.352 12-12 12-12-5.352-12-12 5.352-12 12-12z" fill-rule="evenodd" opacity=".25" style="paint-order:normal"/>
 <g stroke-linecap="round" stroke-linejoin="round" stroke-width="2">
  <path d="m26 28c-1.108 0-2 0.892-2 2v6c0 1.108 0.892 2 2 2h4c1.4142 0 1.7982-3 3-3s1.5858 3 3 3h4c1.108 0 2-0.892 2-2v-6c0-1.108-0.892-2-2-2z" fill="#fff"/>
  <rect x="27" y="31" width="4" height="4" ry="2" fill="#46589d"/>
  <rect x="35" y="31" width="4" height="4" ry="2" fill="#46589d"/>
 </g>
</svg>
