<?xml version="1.0" encoding="UTF-8"?>
<!-- Created with Inkscape (http://www.inkscape.org/) -->
<svg id="SVGRoot" width="48px" height="48px" version="1.1" viewBox="0 0 48 48" xml:space="preserve" xmlns="http://www.w3.org/2000/svg" xmlns:cc="http://creativecommons.org/ns#" xmlns:dc="http://purl.org/dc/elements/1.1/" xmlns:rdf="http://www.w3.org/1999/02/22-rdf-syntax-ns#"><defs><style>.cls-1{fill:none;stroke:#fff;stroke-linecap:round;stroke-linejoin:round;}</style></defs><metadata><rdf:RDF><cc:Work rdf:about=""><dc:format>image/svg+xml</dc:format><dc:type rdf:resource="http://purl.org/dc/dcmitype/StillImage"/></cc:Work></rdf:RDF></metadata><rect x="4" y="4" width="40" height="40" ry="8" fill="#e8f2c7" fill-rule="evenodd" style="paint-order:stroke fill markers"/><path d="m20 6 16 9-30-3v10l30 1-30 7v6c0 0.33376 0.028172 0.66183 0.080078 0.98047l29.92-6.9805-18 12h18c3.324 0 6-2.676 6-6v-24c0-3.324-2.676-6-6-6h-16z" fill="#F1DA77" stroke-linecap="round" stroke-linejoin="round" stroke-width="2" style="paint-order:stroke fill markers"/><path d="m22.686 9.9863-0.16211 0.10742 0.16211 0.9707-0.19922 0.089844 0.34375 0.8457s-0.11236 0.39819 0 1.1152c0.0798 0.50923 0.5625 0.75586 0.5625 0.75586l-0.74219 0.070312-0.86914 0.23438-0.41602-1.2051-0.41797-0.035156-1.0137-2.6621-0.84961-0.089844-0.072265 1.1328 0.52344 1.8711-0.43359 0.28711 0.39844 1.6719-0.30859 0.12695 0.39844 0.79102-0.25195 0.14453-0.47266 0.66406 0.054688 0.43164s-0.53835 0.57758-0.69531 0.93164c-0.1813 0.40896-0.22656 1.2812-0.22656 1.2812s-0.38507 0.45158-0.51953 0.71289c-0.1166 0.22659-0.24219 0.72461-0.24219 0.72461s-0.29826 0.048758-0.4043 0.14453c-0.14292 0.12908-0.24609 0.52148-0.24609 0.52148l-0.61719 0.66602s-0.4933 0.23784-0.65039 0.44922c-0.16549 0.22268-0.25391 0.79102-0.25391 0.79102l-0.59766 1.2949-0.57031 1.3008 0.13672 2.6016s-0.26914 0.2077-0.23633 0.3418c0.02105 0.08601 0.23633 0.125 0.23633 0.125v0.39648l-0.16406 0.19726 0.091797 1.1152s-0.083898 0.81518 0.10742 1.1504c0.16608 0.29099 0.47891 0.56548 0.81445 0.59375 0.30924 0.02603 0.8728-0.10819 0.83398-0.41406-0.02856-0.22514-0.40024-0.19902-0.66992-0.14258-0.12637 0.02645-0.23633-0.30664-0.23633-0.30664s0.19568 0.064299 0.28906 0.037109c0.13568-0.03951 0.24306-0.15589 0.32617-0.26953 0.1528-0.20893 0.55018-0.70022 0.29102-0.7207-0.2154-0.01704-0.7793 0.39648-0.7793 0.39648s0.23857-1.0306 0.7793-1.1152c0.17783-0.02783 0.492 0.048328 0.51172 0.20312 0.02655 0.20823-0.03669 0.34509-0.00586 0.55273 0.03066 0.20628-0.099166 0.54473 0.19922 0.5918 0.28315 0.04466 0.31546-0.37695 0.3457-0.66016 0.05404-0.50603 0.10525-0.883 0.06836-1.3672-0.04149-0.54451-0.79492-1.2441-0.79492-1.2441s0.71676-1.2293 0.69336-1.5547c-0.0068-0.09459-0.11328-0.26172-0.11328-0.26172l0.92383-0.95312 0.57812-0.19922-0.089844-0.44922 0.77148-0.61328 0.080078-0.57227 0.93555-0.46094 0.875-1.4824 0.75977 0.30664-0.28711 0.44141 0.27148 0.44922 0.27148 0.037109 0.23242-0.29883 0.017579 0.35938 0.3457 0.12695s-0.25504 0.30206-0.25391 0.48438c0.0011 0.15431 0.32617 0.61133 0.32617 0.61133s-0.43502 0.64119-0.45312 0.83203c-0.014 0.14746 0.52539 0.78711 0.52539 0.78711l-0.39844 0.62891-0.091796 0.017578-0.19727 0.59375 0.052734 0.43164-0.5625 0.58398 0.19922 0.25195 0.47266-0.044922s-0.25295 0.4217-0.34375 0.64844c-0.22456 0.56085-0.32061 1.1973-0.48828 1.7441-0.13023 0.42468-0.76172 1.0977-0.76172 1.0977l0.14453 0.80859-0.28906 0.35938-1.3223-0.3418 0.074219-0.37695-0.18164-0.017578 0.27148-1.457s0.1971-0.19258 0.27148-0.30664c0.07928-0.12158 0.21601-0.25376 0.18164-0.39453-0.03443-0.14102-0.2099-0.21604-0.3457-0.26953-0.25903-0.10203-0.55564-0.10736-0.83203-0.072266-0.3938 0.05-1.123 0.39453-1.123 0.39453l-0.072266 1.3125-0.23438 1.1523-0.63477 0.48438-0.10742 0.27148-0.54297-0.30664-0.34375 0.16211-0.5625 1.8691-0.14453 0.61133 0.16211 0.28906v0.32422l-0.30664 0.32227 0.03711 0.32422-0.86914 1.0801 0.10742 0.60938-0.63281 1.9258-0.41602 0.32422 0.66992 1.4199-0.49805 1.7695h3.6582l0.58594-2.1836 1.3574-0.035156 0.091797-0.37891 0.48828-0.26953-0.017578-0.37695 1.4473 0.43164 0.68945-0.017578 0.43359-1.4941 0.12695 0.32422 0.63281 0.26953 0.68945-1.1328-0.21875-0.61133-0.45117-0.16211 0.017578-0.48438s0.68809-0.40379 0.90039-0.92383c0.04362-0.10686-0.085937-0.31836-0.085937-0.31836h0.48828l1.0684-1.4199 0.017579-0.30664 0.19922-0.017578 0.94141-0.82617 0.072265 0.53906-0.70508 0.26953-0.12695 0.28711 0.18164 0.66602-1.1055 0.59375-0.23438 0.66406 0.83203 2.8613 0.92383-0.23438 2.3535 2.2305 0.83398 2.0566h3.5977l-1.4082-3.4238 0.81445-0.90039 0.50781-0.28711 0.10742-0.25195 0.52539-0.072266 1.666-0.88086 0.32617-0.61133-0.19922-0.48438-0.38086-0.79297 0.45312-0.53906-0.19922-0.30469 0.017578-0.3418 0.38086-0.59375-0.27148-0.32422v-0.53906l0.2168-0.88086-1.1406-0.44922-0.19922-0.19922-0.037109-0.37695-0.25195-0.2168 0.17969-0.26953-0.2168-0.66406-0.61524-1.1152 0.18164-0.017578 0.072265-0.3418-0.90625-0.95312-0.16211 0.070312-0.28906-0.41211-0.27344 0.017578-0.52344-0.75586 0.12695-0.25195-0.66992-0.75391-0.50977-1.2227 0.30859-0.51953-0.13867-0.37305 0.20703 0.025391 0.14453 0.32812 0.81445 0.10742 0.16406-0.17969c0 4e-6 0.38107 0.1724 0.58008 0.15039 0.1364-0.015091 0.36524-0.1875 0.36524-0.1875l0.29102-0.14453s0.3308 0.6226 1.2168 0.46289c0.38709-0.06978 0.79297-0.80469 0.79297-0.80469s0.24995-0.070464 0.37695-0.12891c0.1628-0.0749 0.4375-0.34766 0.4375-0.34766s0.46294-0.13531 0.61719-0.30469c0.10176-0.11174 0.16016-0.42383 0.16016-0.42383s0.27792 0.025988 0.34375-0.070312c0.07602-0.11124 0.17417-0.29754 0.22266-0.50195 0.04505-0.18996-0.15371-0.70838-0.4082-0.54883-0.09711 0.06087-0.10719 0.25431 0.005859 0.45703 0.001395 0.002501 0.003127 0.007297 0.003907 0.009765 0.001214 0.006126-0.001793 0.015607-0.003907 0.021485-0.029812 0.064052-0.23633 0.11133-0.23633 0.11133s-0.043721-0.22583-0.18164-0.19727c-0.22331 0.04624-0.16211 0.23438-0.16211 0.23438l-0.25391 0.035156s0.60789-0.54026 0.58008-0.91211c-0.01518-0.2029-0.15162-0.48849-0.34375-0.41797-0.21185 0.07775 0.001379 0.32567-0.082031 0.44336-0.17629 0.24836-0.48212 0.35366-0.78711 0.33008-0.52342-0.04045-0.60058-0.21744-0.58398-0.46289 0.01147-0.17001 0.49446-0.13134 0.46289-0.29883-0.05724-0.30371-0.58833-0.4506-0.88672-0.36328-0.11934 0.03492-0.14781 0.16299-0.22266 0.26172-0.14603 0.19261-0.41797 0.59375-0.41797 0.59375l-0.61524-0.30664-0.14453 0.16211-0.19922-0.035156-0.017578-0.16211-0.25391-0.35938-0.48828 0.052734-0.61524-0.25195 0.017579-0.19727-0.14453-0.19726-0.27148 0.10742-0.037109 0.10742-0.48828-0.21484s-0.064416-0.60757-0.14062-0.90234c-0.08438-0.3264-0.34766-0.95117-0.34766-0.95117s0.070776-0.41776 0.072266-0.62891c0.0013-0.18073-0.001658-0.36614-0.054688-0.53906-0.08561-0.27965-0.21758-0.55758-0.41602-0.77344-0.18509-0.20135-0.43733-0.33701-0.6875-0.44922-0.37626-0.16874-1.1953-0.32422-1.1953-0.32422s-0.28412-0.21459-0.30859-0.39453c-0.0073-0.0538-0.017578-0.16211-0.017578-0.16211s0.32975-0.10943 0.38086-0.25195c0.02754-0.07681-0.072266-0.23438-0.072266-0.23438l0.089844-0.19727-0.054688-0.10938 0.14453-0.16016-0.10742-0.28906s0.33419-0.16151 0.30664-0.32226c-0.02669-0.15579-0.39844-0.63086-0.39844-0.63086l0.10938-0.48438-0.36133-0.73828s0.29153-0.29371 0.30664-0.48438c0.01445-0.18205-0.097168-0.36525-0.2168-0.50391-0.14818-0.17176-0.35474-0.32675-0.58008-0.35938-0.17964-0.02601-0.38126 0.069568-0.5625 0.080078-0.31695 0.01836-0.58488-0.083148-0.90234-0.080078-0.28174 0.0027-0.56919 0.046951-0.83398 0.14258-0.31216 0.11273-0.39844 0.3418-0.39844 0.3418l-0.16211-0.41406-0.83398-0.14258zm10.096 13.187s0.22692 0.36171 0.57617 0.41797c0.48997 0.0789 0.78125 0.064453 0.78125 0.064453s-0.17324 0.51378-0.74219 0.50781c-0.32691-0.003399-0.57617-0.26562-0.57617-0.26562l-0.013671-0.16602-0.10156-0.2793 0.076172-0.2793zm-5.2871 7.7441 0.25586 0.29102 0.39648 0.12695 0.052735 0.38281 0.62695 0.62305-0.064453 0.64844 0.43555 0.44531s-0.14101-0.027721-0.19141 0.011719c-0.05619 0.04397-0.064453 0.20312-0.064453 0.20312l-1.5996 0.39453-0.5-1.0801s0.03413-0.1818 0-0.2793c-0.03655-0.1044-0.17969-0.19141-0.17969-0.19141s0.15394-0.24119 0.11524-0.38086c-0.029-0.10466-0.2168-0.23047-0.2168-0.23047l0.51172-0.78711s0.12294 0.01852 0.17969 0c0.095168-0.031066 0.24065-0.17621 0.24219-0.17773z" fill="#514440" stroke-width=".12546"/><path d="m12 4c-4.432 0-8 3.568-8 8v24c0 4.432 3.568 8 8 8h24c4.432 0 8-3.568 8-8v-24c0-4.432-3.568-8-8-8zm0 1h24c3.878 0 7 3.122 7 7v24c0 3.878-3.122 7-7 7h-24c-3.878 0-7-3.122-7-7v-24c0-3.878 3.122-7 7-7z" fill-rule="evenodd" opacity=".3" style="paint-order:stroke fill markers"/></svg>
