<?xml version="1.0" encoding="UTF-8"?>
<!-- Created with Inkscape (http://www.inkscape.org/) -->
<svg id="SVGRoot" width="48px" height="48px" version="1.1" viewBox="0 0 48 48" xmlns="http://www.w3.org/2000/svg" xmlns:cc="http://creativecommons.org/ns#" xmlns:dc="http://purl.org/dc/elements/1.1/" xmlns:rdf="http://www.w3.org/1999/02/22-rdf-syntax-ns#">
 <defs id="defs815">
  <style id="style819">.cls-1{fill:none;stroke:#fff;stroke-linecap:round;stroke-linejoin:round;}</style>
  <style id="style2">.a{fill:none;stroke:#b1b5bd;stroke-linecap:round;stroke-linejoin:round;isolation:isolate;opacity:0.63;}</style>
 </defs>
 <metadata id="metadata818">
  <rdf:RDF>
   <cc:Work rdf:about="">
    <dc:format>image/svg+xml</dc:format>
    <dc:type rdf:resource="http://purl.org/dc/dcmitype/StillImage"/>
    <dc:title/>
   </cc:Work>
  </rdf:RDF>
 </metadata>
 <g id="layer1" fill-rule="evenodd">
  <rect id="rect1373-5" x="4" y="4" width="40" height="40" ry="8" fill="#efefef" style="paint-order:stroke fill markers"/>
  <path id="rect817" d="m12 4c-4.432 0-8 3.568-8 8v24c0 4.432 3.568 8 8 8h24c4.432 0 8-3.568 8-8v-24c0-4.432-3.568-8-8-8h-24zm0 1h24c3.878 0 7 3.122 7 7v24c0 3.878-3.122 7-7 7h-24c-3.878 0-7-3.122-7-7v-24c0-3.878 3.122-7 7-7z" opacity=".3" style="paint-order:stroke fill markers"/>
  <path id="rect832" d="m14 10c-2.8118 0-5.4976 0.49904-8 1.3809v4.6191h23.898c-4.2282-3.7343-9.7878-6-15.898-6z" fill="#96d56b" style="paint-order:stroke fill markers"/>
  <path id="rect834" d="m6 16v6h28.801c-1.3025-2.2604-2.9604-4.2849-4.9023-6z" fill="#5c966a" style="paint-order:stroke fill markers"/>
  <path id="rect836" d="m6 22v6h31.248c-0.54467-2.1312-1.3773-4.1431-2.4473-6z" fill="#71b9e3" style="paint-order:stroke fill markers"/>
  <path id="rect838" d="m6 28v6h32c0-2.0734-0.26213-4.0835-0.75195-6z" fill="#ffdd75" style="paint-order:stroke fill markers"/>
  <path id="rect840" d="m6 34v2c0 1.5421 0.5818 2.9393 1.5312 4h29.717c0.48982-1.9165 0.75195-3.9266 0.75195-6h-32z" fill="#f280a3" style="paint-order:stroke fill markers"/>
  <path id="rect842" d="m7.5312 40c1.097 1.2256 2.6869 2 4.4688 2h24c0.21724 0 0.43144-0.012862 0.64258-0.035156 0.22624-0.64375 0.43463-1.2964 0.60547-1.9648h-29.717z" fill="#dd5c89" style="paint-order:stroke fill markers"/>
 </g>
</svg>
