<?xml version="1.0" encoding="UTF-8"?>
<!-- Created with Inkscape (http://www.inkscape.org/) -->
<svg id="SVGRoot" width="48px" height="48px" version="1.1" viewBox="0 0 48 48" xml:space="preserve" xmlns="http://www.w3.org/2000/svg" xmlns:cc="http://creativecommons.org/ns#" xmlns:dc="http://purl.org/dc/elements/1.1/" xmlns:rdf="http://www.w3.org/1999/02/22-rdf-syntax-ns#"><defs><style>.cls-1{fill:none;stroke:#fff;stroke-linecap:round;stroke-linejoin:round;}</style></defs><metadata><rdf:RDF><cc:Work rdf:about=""><dc:format>image/svg+xml</dc:format><dc:type rdf:resource="http://purl.org/dc/dcmitype/StillImage"/></cc:Work></rdf:RDF></metadata><rect x="4" y="4" width="40" height="40" ry="8" fill="#FCE2BE" fill-rule="evenodd" style="paint-order:stroke fill markers"/><g stroke-linecap="round" stroke-linejoin="round" stroke-width="4"><path d="m6 17.436v18.564c0 3.324 2.676 6 6 6h24c1.118 0 2.1624-0.30182 3.0566-0.83008l-33.057-23.734z" fill="#FFC2C0" style="paint-order:stroke fill markers"/><path d="m14.43 39.176c-0.90611 2.1835-2.4297 4.8242-2.4297 4.8242l17.695 0.125s-2.572-2.4978-3.1016-3.3965c0.12105 0.21251-10.889-9.9043-10.889-9.9043s-0.04503 5.3867-1.2754 8.3516z" fill="#4f6dad" style="paint-order:stroke fill markers"/><path d="m7.2745 13.893c0.24233-2.4411 2.6613-3.9882 3.6969-6.1416 1.3747-2.8586 3.041-3.8758 3.041-3.8758l3.995 28.74-2.2658-0.29814c-1.4873-1.9232-2.2655-3.5241-3.4584-5.2472l-2.564-2.3851-0.71553 0.89441-1.0733-0.29814-0.53665-1.5503 1.7292-1.4907 0.23851-2.3255s-2.301-3.8664-2.087-6.0224z" fill="#f2f4ed" style="paint-order:stroke fill markers"/><path d="m10 41-2.3203 1.7402c1.2448 0.79741 2.7262 1.2598 4.3203 1.2598h1l-3-3z" fill="#fce2be" style="paint-order:stroke fill markers"/><path d="m16.219 33.212c-0.21863-0.21242 3.7814 1.7876-0.21863 10.788l-4-3s2.4298-1.8248 4.2186-7.7876z" fill="#ff9cb9" style="paint-order:stroke fill markers"/><path d="m16 34c-2.543 5.7238-6 7-6 7l3 3h3l-2.55-2.5117s2.1028-2.4617 2.55-7.4883z" fill="#f2f4ed" style="paint-order:stroke fill markers"/></g><path d="m12 4c-4.432 0-8 3.568-8 8v24c0 4.432 3.568 8 8 8h24c4.432 0 8-3.568 8-8v-24c0-4.432-3.568-8-8-8zm0 1h24c3.878 0 7 3.122 7 7v24c0 3.878-3.122 7-7 7h-24c-3.878 0-7-3.122-7-7v-24c0-3.878 3.122-7 7-7z" fill-rule="evenodd" opacity=".3" style="paint-order:stroke fill markers"/><g stroke-linecap="round" stroke-linejoin="round" stroke-width="4"><path d="m7.9688 14.04c0.23067-2.0357 2.2073-3.4578 3.1622-5.2704 0.59799-1.1351 0.85195-2.4588 1.6022-3.4995 0.67453-0.9357 2.5298-2.3611 2.5298-2.3611s1.1802-0.95765 8.6012-0.95765 8.6012 0.83117 8.6012 0.83117 3.1543 2.6576 4.2163 4.3849c0.62389 1.0148 1.0214 2.1925 1.1806 3.373 0.30124 2.2342-1.0271 4.3194-0.46379 6.7473 0.70563 3.0413 4.4754 3.2883 4.6379 8.853 0.13434 4.6004-1.8375 6.8368-4.132 9.3602-5.5444 6.0974-11.031 5.7172-11.031 5.7172l-5.8126-5.3378-5.7131-5.439-2.0238-3.373-3.5838-7.5893s-1.9855-3.5445-1.7708-5.439z" fill="#172120" style="paint-order:stroke fill markers"/><path d="m24.881 11.484c-3.1359 0.11614-5.3828 0.85938-5.3828 0.85938l-3.875 7.5117 0.11914 9.7793s-0.0061 0.45942-0.03711 1.1895l4.8088 7.2842 6.3591 3.1103c-0.23138-0.36344-0.4326-0.74845-0.57812-1.1484-0.29908-0.82204 0.06055-2.625 0.06055-2.625 0 1e-6 1.5783-0.11094 2.2051-0.53516 2.3249-1.5735 3.9167-4.2245 4.8906-6.8574 0.85156-2.302 0.23033-4.9167 0.65625-7.334 0.22839-1.2962 1.0286-2.5003 1.0137-3.8164-0.02341-2.0693-0.24404-4.523-1.7305-5.9629-1.2673-1.2276-3.3766-1.0904-5.127-1.3125-1.1924-0.15129-2.3375-0.18129-3.3828-0.14258z" fill="#4f6dad" style="paint-order:stroke fill markers"/><path d="m19.418 12.5-3.7949 7.3555 0.07031 5.8398 0.88281 4.7734s2.2896 2.2635 6.6777 5.1875c-1.2815-3.231-2.623-6.2598-2.623-6.2598s2.5843-2.1286 2.9393-3.8559c-0.86991-1.6096-2.9367-3.726-2.9367-3.726s0.59873-1.1628 1.9661-0.94543c-1.234-1.533-2.6836-2.2656-2.6836-2.2656s0.6211-0.7739 1.252-0.83398c-0.14437-2.7231-1.1617-4.4733-1.75-5.2695zm6.9766 11.279-1.2656 2.8262 0.46416 1.0738 2.0353 0.20077 0.53567-1.2336z" fill="#ff9cb9" style="paint-order:stroke fill markers"/><path d="m17.034 13.323 1.307-0.86434-0.52704 1.2438-0.78001 0.35838z" fill="#4f6dad" style="paint-order:stroke fill markers"/><path d="m15.389 14.546 1.6444-1.2227 0.78001 0.37947-0.94866 2.066z" fill="#f2f4ed" style="paint-order:stroke fill markers"/><path d="m7.8001 24.117 7.5893-9.571 1.1384 0.12649 0.3373 1.0962-7.8845 9.5288-0.88542-0.37947z" fill="#fce2be" style="paint-order:stroke fill markers"/><path d="m7.9477 24.518 8.0109-9.9083 0.5692 0.06324 0.16865 0.54812-8.1585 9.8872-0.44271-0.18973z" fill="#ff9cb9" style="paint-order:stroke fill markers"/><path d="m9.7396 19.479 0.81802 1.7323 5.1691 0.71316c-2.7268-4.1987-5.9871-2.4454-5.9871-2.4454z" fill="#ff9cb9" style="paint-order:stroke fill markers"/><path d="m10.035 23.527c-0.21186-1.3828 0.27699-3.4308 1.6022-3.879 1.7684-0.59812 4.0898 2.2768 4.0898 2.2768s1.7625 3.8711 1.8552 5.945c0.21735 4.8635-1.7287 9.9083-1.7287 9.9083l1.4335 1.813-2.8249-1.0962-0.25298-4.3006s1.3291-2.3675 1.3914-6.2823c0.02105-1.3238-0.63244-3.9211-0.63244-3.9211s-0.68921 3.2762-1.5179 3.626c-0.5558 0.23464-3.1462-2.3342-3.4152-4.0898z" fill="#4f6dad" style="paint-order:stroke fill markers"/><path d="m12.492 26.862-1.9677 4.323s-0.20425 1.292 0.53665 1.0435l4.0777-0.35027 0.2019-1.3938s-1.022-1.6708-2.0137-3.3541c-0.49506-0.84034-0.83478-0.26832-0.83478-0.26832z" fill="#f2f4ed" style="paint-order:stroke fill markers"/><path d="m11.994 20.459c-0.32194-0.005707-0.68362 0.037426-1.0742 0.1582-0.87994 0.27206-0.44976 2.733-0.26562 2.8379 7.58e-4 3.55e-4 0.00511 0.001681 0.005859 0.001953h0.001953l0.001953 0.001953h0.001954 0.001953l0.001953-0.001953h0.001953 0.001953l0.003906-0.003906c0.002593-0.002366 0.007361-0.005944 0.009766-0.009766 0.15745-0.2501 0.033538-1.3269 0.54883-1.6875 0.8118-0.56808 2.0098-0.18263 2.2344-0.63086 0.091725-0.18316-0.51074-0.64889-1.4766-0.66602zm1.6836 1.9727c-0.016579-5.23e-4 -0.03542 0.005641-0.058593 0.019531-0.77892 0.46697-1.4191 0.92826-1.5176 1.3086-0.13669 0.52823 0.62842 0.87331 1.7695 1.0117 0.1541 0.01869 0.062414-0.34908-0.041016-0.46484-0.16253-0.1819-0.62078 0.077755-0.7168-0.14648-0.13048-0.30471 0.43985-0.52403 0.52734-0.84375 0.068938-0.25192 0.19737-0.87972 0.037109-0.88476zm3.8125 8.2969s-0.56681 1.7925-2.7676 2.2656c0.01131 1.91 1.1309 4.7832 1.1309 4.7832 2.71e-4 -7.04e-4 1.2546-3.2505 1.6367-7.0488z" fill="#172120" style="paint-order:stroke fill markers"/><path d="m22.094 1.9707c-5.8436 0.13702-6.8301 0.93945-6.8301 0.93945 0 1e-7 -1.8568 1.4237-2.5312 2.3594-0.38556 0.53484-0.63948 1.1453-0.87695 1.7656l4.5039-1.1328-0.37891-0.90234h1.8965l0.16797-1 1.8984 0.2168 2.1504-2.2461zm-10.963 6.8027c-0.95539 1.8115-2.9315 3.2327-3.1621 5.2676-0.12259 1.0819 0.4729 2.7019 1.0059 3.8926l0.93359-0.056641-0.80078-1.9395h0.92773l-0.12695-3.1191 0.67383-0.16992-0.125-1.1387 0.67383-2.7363zm25.719 18.168s-0.26056 2.913-0.54688 4.3438c-0.30042 1.5012-1.2227 4.4258-1.2227 4.4258 0 0 1.6392-2.8151 1.9395-4.3848 0.27481-1.4367-0.16992-4.3848-0.16992-4.3848z" fill="#4f6dad" style="paint-order:stroke fill markers"/><path d="m37.736 9.9082s-1.4413 5.076-1.3926 7.7988v0.001953c0.0746 4.1673 2.1074 5.6914 2.1074 5.6914l-1.3477-3.668 1.9395 2.0234s-1.8446-3.304-1.4336-4.8906c1.0738-4.1454 0.12695-6.957 0.12695-6.957zm-1.9824 10.498s-0.022016 1.9722 0.58984 3.2891c0.4655 1.0019 1.9824 2.6562 1.9824 2.6562s-0.66129-1.9673-1.0957-2.9082c-0.61344-1.3286-1.4766-3.0371-1.4766-3.0371z" fill="#ff9cb9" style="paint-order:stroke fill markers"/><path d="m22.473 20.51c-1.1866 0.07842-1.7798 1.3699-1.7812 1.373 0 0 0.67092 1.008 1.9375 0.98438 1.6826-0.03145 1.9824-0.73047 1.9824-0.73047s-0.30428-1.5066-1.8926-1.625c-0.084377-0.006292-0.16698-0.007181-0.24609-0.001953zm8.7129 0.53906c-0.95263 0.0307-1.5664 1.1777-1.5664 1.1777 0 1e-6 0.512 0.86588 1.5957 0.82031 1.2208-0.05134 1.8496-0.89453 1.8496-0.89453s-0.70571-1.1413-1.8789-1.1035z" fill="#f2f4ed" style="paint-order:stroke fill markers"/><g fill="#172120"><path d="m19.796 21.436 0.8646 0.47702 0.77516-0.83478s-0.16376 1.1432 0.77516 1.3118c0.6539 0.11743 0.89213-0.34394 1.0137-0.74534 0.06742-0.22266-0.06986-0.59266-0.06986-0.59266 0.69531 0.05562 1.4115 1.0697 1.4115 1.0697l0.77516 0.05963s-1.0438-1.9206-2.5043-2.0273c-1.4717-0.10756-2.2957 1.1329-2.2957 1.1329z" style="paint-order:stroke fill markers"/><path d="m18.741 18.299c-0.18013 0.21578 0.14845 0.81922 0.50596 0.67461 0.49238-0.19918 0.9024-0.6966 1.4335-0.69569 1.7416 3e-3 3.0732 0.29678 4.7644 0.8011 0.43901 0.13091 0.4502-0.82917 0.48487-1.286 0.01795-0.23638 0.05164-0.5672-0.14757-0.69569-0.49577-0.31976-0.80205 0.52107-1.7287 0.37947-1.0641-0.16261-2.1453-0.31201-3.2044-0.40055-0.78271-0.06544-1.849 0.91235-2.1081 1.2227z" style="paint-order:stroke fill markers"/><path d="m29.451 17.434c-0.24006 0.07368-0.47855 0.86679-0.65352 1.3281-0.06636 0.17497 1.6595-0.04808 3.0357-0.02108 1.0917 0.02142 1.6693 1.2332 1.8762 1.3492 0.13445 0.07534 0.29104-0.18526 0.31622-0.3373 0.06814-0.41141-0.48034-1.9279-0.65352-2.0027-0.60803-0.26277-1.3214-0.09428-1.9817-0.14757-0.64683-0.05221-1.3191-0.35904-1.9395-0.16865z" style="paint-order:stroke fill markers"/><path d="m29.577 22.262 0.54812-0.48487s0.08887 0.78603 0.73785 0.86434c0.59837 0.0722 0.8596-0.37107 0.88542-0.75893 0.02214-0.33258-0.27406-0.5692-0.27406-0.5692 0.88166 6.73e-4 1.6022 1.0541 1.6022 1.0541l0.59028-0.54812-0.48487-0.12649s-0.75005-0.93768-1.286-0.96975c-1.876-0.11225-2.319 1.5389-2.319 1.5389z" style="paint-order:stroke fill markers"/><path d="m25.572 27.701 1.033-0.54812s0.70159 0.62814 1.1384 0.65352c0.8167 0.04747 1.9395-0.2319 1.9395-0.2319l-1.1173 0.59028s-0.37795 0.35376-0.63244 1.0119c-1.5152-0.59874-2.3611-1.4757-2.3611-1.4757z" style="paint-order:stroke fill markers"/><path d="m23.105 30.926 1.0119 0.31622 2.319-1.2016 1.3914 0.69569 1.307-0.82218 0.27406 0.88542 0.35838-0.37947-0.06324 0.88542-0.52704 0.08433 0.14757 0.8011s-0.32132 1.5353-1.8552 1.6022c-2.5904 0.11295-3.3098-1.7708-3.3098-1.7708z" style="paint-order:stroke fill markers"/></g><path d="m24.855 31.706 1.033-0.73785 1.9184 0.86434 0.75893-0.54812 0.2319 0.65352s-0.41255 0.44743-1.5811 0.44271c-1.6074-0.0065-2.3611-0.67461-2.3611-0.67461z" fill="#f2f4ed" style="paint-order:stroke fill markers"/><rect x="21.334" y="24.581" width=".84326" height=".84326" ry=".42163" fill="#172120" style="paint-order:stroke fill markers"/></g></svg>
