<?xml version="1.0" encoding="UTF-8"?>
<!-- Created with Inkscape (http://www.inkscape.org/) -->
<svg id="SVGRoot" width="48px" height="48px" version="1.1" viewBox="0 0 48 48" xmlns="http://www.w3.org/2000/svg" xmlns:cc="http://creativecommons.org/ns#" xmlns:dc="http://purl.org/dc/elements/1.1/" xmlns:rdf="http://www.w3.org/1999/02/22-rdf-syntax-ns#">
 <defs id="defs815">
  <style id="style819">.cls-1{fill:none;stroke:#fff;stroke-linecap:round;stroke-linejoin:round;}</style>
 </defs>
 <metadata id="metadata818">
  <rdf:RDF>
   <cc:Work rdf:about="">
    <dc:format>image/svg+xml</dc:format>
    <dc:type rdf:resource="http://purl.org/dc/dcmitype/StillImage"/>
    <dc:title/>
   </cc:Work>
  </rdf:RDF>
 </metadata>
 <g id="layer1" fill-rule="evenodd">
  <rect id="rect1373-5" x="4" y="4" width="40" height="40" ry="8" fill="#efefef" style="paint-order:stroke fill markers"/>
  <path id="rect817" d="m12 4c-4.432 0-8 3.568-8 8v24c0 4.432 3.568 8 8 8h24c4.432 0 8-3.568 8-8v-24c0-4.432-3.568-8-8-8h-24zm0 1h24c3.878 0 7 3.122 7 7v24c0 3.878-3.122 7-7 7h-24c-3.878 0-7-3.122-7-7v-24c0-3.878 3.122-7 7-7z" opacity=".3" style="paint-order:stroke fill markers"/>
  <path id="rect825" d="m34 31v11h2c1.5421 0 2.9393-0.5818 4-1.5312v-9.4688h-6z" fill="#71b9e3" style="paint-order:normal"/>
  <path id="rect827" d="m8 31v9.4688c1.0607 0.94945 2.4579 1.5312 4 1.5312h2v-11h-6z" fill="#71b9e3" style="paint-order:normal"/>
  <path id="rect818" d="m6 36c0 0.70334 0.12725 1.3739 0.34766 2h35.305c0.22041-0.62611 0.34766-1.2967 0.34766-2h-36z" fill="#4e4e4e" style="paint-order:normal"/>
  <rect id="rect820" x="8" y="28" width="6" height="6" ry="3" fill="#4e4e4e" style="paint-order:normal"/>
  <rect id="rect823" x="34" y="28" width="6" height="6" ry="3" fill="#4e4e4e" style="paint-order:normal"/>
 </g>
</svg>
