<?xml version="1.0" encoding="UTF-8"?>
<!-- Created with Inkscape (http://www.inkscape.org/) -->
<svg id="SVGRoot" width="48px" height="48px" version="1.1" viewBox="0 0 48 48" xmlns="http://www.w3.org/2000/svg" xmlns:cc="http://creativecommons.org/ns#" xmlns:dc="http://purl.org/dc/elements/1.1/" xmlns:rdf="http://www.w3.org/1999/02/22-rdf-syntax-ns#" xmlns:xlink="http://www.w3.org/1999/xlink">
 <defs id="defs815">
  <style id="style819">.cls-1{fill:none;stroke:#fff;stroke-linecap:round;stroke-linejoin:round;}</style>
  <style id="style819-34">.cls-1{fill:none;stroke:#fff;stroke-linecap:round;stroke-linejoin:round;}</style>
  <style id="style819-36">.cls-1{fill:none;stroke:#fff;stroke-linecap:round;stroke-linejoin:round;}</style>
  <style id="style819-3">.cls-1{fill:none;stroke:#fff;stroke-linecap:round;stroke-linejoin:round;}</style>
  <style id="style819-16">.cls-1{fill:none;stroke:#fff;stroke-linecap:round;stroke-linejoin:round;}</style>
  <style id="style819-3-41">.cls-1{fill:none;stroke:#fff;stroke-linecap:round;stroke-linejoin:round;}</style>
  <style id="style819-1">.cls-1{fill:none;stroke:#fff;stroke-linecap:round;stroke-linejoin:round;}</style>
  <style id="style2">.a{fill:none;stroke:#b1b5bd;stroke-linecap:round;stroke-linejoin:round;isolation:isolate;opacity:0.63;}</style>
  <style id="style819-12">.cls-1{fill:none;stroke:#fff;stroke-linecap:round;stroke-linejoin:round;}</style>
  <style id="style819-0">.cls-1{fill:none;stroke:#fff;stroke-linecap:round;stroke-linejoin:round;}</style>
  <style id="style819-3-4">.cls-1{fill:none;stroke:#fff;stroke-linecap:round;stroke-linejoin:round;}</style>
  <style id="style819-1-7">.cls-1{fill:none;stroke:#fff;stroke-linecap:round;stroke-linejoin:round;}</style>
  <style id="style2-3">.a{fill:none;stroke:#b1b5bd;stroke-linecap:round;stroke-linejoin:round;isolation:isolate;opacity:0.63;}</style>
  <style id="style819-12-9">.cls-1{fill:none;stroke:#fff;stroke-linecap:round;stroke-linejoin:round;}</style>
  <style id="style819-09">.cls-1{fill:none;stroke:#fff;stroke-linecap:round;stroke-linejoin:round;}</style>
  <style id="style819-5">.cls-1{fill:none;stroke:#fff;stroke-linecap:round;stroke-linejoin:round;}</style>
  <style id="style819-32">.cls-1{fill:none;stroke:#fff;stroke-linecap:round;stroke-linejoin:round;}</style>
  <style id="style819-7">.cls-1{fill:none;stroke:#fff;stroke-linecap:round;stroke-linejoin:round;}</style>
  <style id="style819-5-4">.cls-1{fill:none;stroke:#fff;stroke-linecap:round;stroke-linejoin:round;}</style>
  <style id="style819-51">.cls-1{fill:none;stroke:#fff;stroke-linecap:round;stroke-linejoin:round;}</style>
 </defs>
 <metadata id="metadata818">
  <rdf:RDF>
   <cc:Work rdf:about="">
    <dc:format>image/svg+xml</dc:format>
    <dc:type rdf:resource="http://purl.org/dc/dcmitype/StillImage"/>
    <dc:title/>
   </cc:Work>
  </rdf:RDF>
 </metadata>
 <g id="layer1">
  <rect id="rect1373-5" x="4" y="4" width="40" height="40" ry="8" fill="#425e71" fill-rule="evenodd" style="paint-order:stroke fill markers"/>
  <path id="rect817" d="m12 4c-4.432 0-8 3.568-8 8v24c0 4.432 3.568 8 8 8h24c4.432 0 8-3.568 8-8v-24c0-4.432-3.568-8-8-8h-24zm0 1h24c3.878 0 7 3.122 7 7v24c0 3.878-3.122 7-7 7h-24c-3.878 0-7-3.122-7-7v-24c0-3.878 3.122-7 7-7z" fill-rule="evenodd" opacity=".3" style="paint-order:stroke fill markers"/>
  <path id="rect945" d="m14 10c-2.216 0-4 1.784-4 4v16c0 2.216 1.784 4 4 4h6l4 4 4-4h6c2.216 0 4-1.784 4-4v-16c0-2.216-1.784-4-4-4z" fill="#fff" fill-rule="evenodd" style="paint-order:stroke fill markers"/>
  <rect id="rect953" x="12" y="12" width="24" height="20" ry="2" fill="#425e71" fill-rule="evenodd" style="paint-order:stroke fill markers"/>
  <path id="path955" d="m21 32 3 3 3-3-3-3z" fill="#425e71"/>
  <path id="path838" d="m18.914 27.875c-0.32498-0.12342-0.55144-0.32226-0.65067-0.57136-0.03989-0.10015-0.78775-2.5041-1.6619-5.3421-1.2617-4.0962-1.5764-5.1935-1.5264-5.3224 0.15543-0.40103 0.68966-0.67869 1.2994-0.67535 0.41289 0.0023 0.56888 0.07202 0.68617 0.30686 0.03773 0.07555 0.62465 2.1053 1.3043 4.5106 0.67962 2.4053 1.2555 4.3368 1.2798 4.2923 0.02426-0.0445 0.5304-1.8116 1.1248-3.9268 1.4097-5.0169 1.3896-4.9521 1.5717-5.0791 0.0929-0.0648 0.30151-0.10601 0.53684-0.10601 0.73238 0 1.3818 0.48206 1.2851 0.95382-0.08036 0.39172-3.1555 10.355-3.2455 10.515-0.053 0.09443-0.22928 0.24666-0.39173 0.3383-0.37376 0.21084-1.1938 0.26481-1.6117 0.10608z" fill="#fff" stroke-width=".068818"/>
  <path id="path836" d="m26.355 15.967-0.19125 0.19868-0.18965 0.20035v11.016l0.16734 0.17698c0.38113 0.39928 1.3617 0.38178 1.6925-0.03006l0.16575-0.20703v-4.3761l0.66298 0.02003 0.66299 0.01837 1.1188 2.2707c1.1168 2.2676 1.2636 2.5243 1.5092 2.6297 0.0719 0.03084 0.20496 0.05805 0.29484 0.06011 0.26271 0.0058 0.81809-0.30392 1.004-0.55932 0.33714-0.46307 0.34105-0.44485-0.78092-2.6196-0.56345-1.0922-1.0374-2.0222-1.0534-2.0653-0.01602-0.04323 0.1341-0.15591 0.33468-0.25211 0.20023-0.09603 0.52228-0.33099 0.71398-0.52092 0.65809-0.65204 0.91855-1.4096 0.91001-2.6397-0.01046-1.4937-0.5162-2.4246-1.6017-2.9452-0.6854-0.32874-1.0847-0.3743-3.3388-0.37566zm1.6447 1.8483h1.0614c0.58418 2.15e-4 1.1688 0.03228 1.2989 0.07012 0.66615 0.19385 0.99539 0.71953 1.0009 1.5978 0.0057 0.92156-0.31431 1.5055-0.92436 1.683-0.13579 0.03951-0.73976 0.07159-1.3419 0.0718l-1.0949 0.0018v-1.713z" fill="#fff" stroke-width=".0669"/>
 </g>
</svg>
