<?xml version="1.0" encoding="UTF-8"?>
<!-- Created with Inkscape (http://www.inkscape.org/) -->
<svg id="SVGRoot" width="48px" height="48px" version="1.1" viewBox="0 0 48 48" xml:space="preserve" xmlns="http://www.w3.org/2000/svg" xmlns:cc="http://creativecommons.org/ns#" xmlns:dc="http://purl.org/dc/elements/1.1/" xmlns:rdf="http://www.w3.org/1999/02/22-rdf-syntax-ns#"><defs><style>.cls-1{fill:none;stroke:#fff;stroke-linecap:round;stroke-linejoin:round;}</style><style>.cls-1{fill:none;stroke:#fff;stroke-linecap:round;stroke-linejoin:round;}</style></defs><metadata><rdf:RDF><cc:Work rdf:about=""><dc:format>image/svg+xml</dc:format><dc:type rdf:resource="http://purl.org/dc/dcmitype/StillImage"/></cc:Work></rdf:RDF></metadata><rect x="4" y="4" width="40" height="40" ry="8" fill="#729dec" fill-rule="evenodd" style="paint-order:stroke fill markers"/><path d="m12 4c-4.432 0-8 3.568-8 8v24c0 4.432 3.568 8 8 8h24c4.432 0 8-3.568 8-8v-24c0-4.432-3.568-8-8-8zm0 1h24c3.878 0 7 3.122 7 7v24c0 3.878-3.122 7-7 7h-24c-3.878 0-7-3.122-7-7v-24c0-3.878 3.122-7 7-7z" fill-rule="evenodd" opacity=".3" style="paint-order:stroke fill markers"/><path d="m24 10a1.0001 1.0001 0 0 0-0.03125 0.001953 1.0001 1.0001 0 0 0-0.0625 0.003906 1.0001 1.0001 0 0 0-0.072266 0.009766 1.0001 1.0001 0 0 0-0.060546 0.011719 1.0001 1.0001 0 0 0-0.0625 0.017578 1.0001 1.0001 0 0 0-0.060547 0.019531 1.0001 1.0001 0 0 0-0.054688 0.023438 1.0001 1.0001 0 0 0-0.042969 0.017578l-12 6a1.0001 1.0001 0 0 0-0.029296 0.017578 1 1 0 0 0-0.033204 0.019531 1.0001 1.0001 0 0 0-0.035156 0.021484 1.0001 1.0001 0 0 0-0.044922 0.029297 1 1 0 0 0-0.042968 0.035157 1.0001 1.0001 0 0 0-0.021485 0.017578 1.0001 1.0001 0 0 0-0.03125 0.029297 1 1 0 0 0-0.046875 0.046875 1.0001 1.0001 0 0 0-0.017578 0.019531 1.0001 1.0001 0 0 0-0.033203 0.037109 1 1 0 0 0-0.025391 0.035156 1.0001 1.0001 0 0 0-0.019531 0.027344 1.0001 1.0001 0 0 0-0.005859 0.007813 1.0001 1.0001 0 0 0-0.027344 0.044922 1 1 0 0 0-0.001953 0.001953 1 1 0 0 0-0.00586 0.009765 1.0001 1.0001 0 0 0-0.11133 0.31055 1 1 0 0 0 0 0.001953 1.0001 1.0001 0 0 0-0.005859 0.027344 1 1 0 0 0 0 0.001953 1.0001 1.0001 0 0 0-0.003906 0.013672 1 1 0 0 0 0 0.003906 1.0001 1.0001 0 0 0-0.003907 0.052735 1 1 0 0 0 0 0.001953 1.0001 1.0001 0 0 0-0.005859 0.070312 1 1 0 0 0 0 0.00586 1.0001 1.0001 0 0 0 0 0.003906v14a1 1 0 0 0 0 0.003906 1.0001 1.0001 0 0 0 0 0.00586 1.0001 1.0001 0 0 0 0.005859 0.072265 1 1 0 0 0 0.003907 0.052735 1.0001 1.0001 0 0 0 0.003906 0.019531 1.0001 1.0001 0 0 0 0.005859 0.029297 1 1 0 0 0 0.015625 0.080078 1.0001 1.0001 0 0 0 0.011719 0.035156 1 1 0 0 0 0.03125 0.087891 1.0001 1.0001 0 0 0 0.052734 0.10742 1 1 0 0 0 0.00586 0.009765 1 1 0 0 0 0.001953 0.001953 1.0001 1.0001 0 0 0 0.027344 0.044922 1.0001 1.0001 0 0 0 0.001953 0.001953 1.0001 1.0001 0 0 0 0.003906 0.00586 1.0001 1.0001 0 0 0 0.019531 0.027344 1 1 0 0 0 0.025391 0.035156 1.0001 1.0001 0 0 0 0.033203 0.037109 1.0001 1.0001 0 0 0 0.019531 0.021485 1 1 0 0 0 0.044922 0.044921 1.0001 1.0001 0 0 0 0.03125 0.029297 1.0001 1.0001 0 0 0 0.021485 0.017578 1 1 0 0 0 0.042968 0.035157 1.0001 1.0001 0 0 0 0.044922 0.029297 1.0001 1.0001 0 0 0 0.035156 0.021484 1 1 0 0 0 0.033204 0.019531 1.0001 1.0001 0 0 0 0.029296 0.017578l12 6a1.0001 1.0001 0 0 0 0.083985 0.035157 1.0001 1.0001 0 0 0 0.035156 0.013671 1.0001 1.0001 0 0 0 0.091797 0.025391 1.0001 1.0001 0 0 0 0.03125 0.009766 1.0001 1.0001 0 0 0 0.001953 0 1.0001 1.0001 0 0 0 0.40039 0.001953 1.0001 1.0001 0 0 0 0.007812-0.001953 1.0001 1.0001 0 0 0 0.03125-0.009766 1.0001 1.0001 0 0 0 0.091797-0.025391 1.0001 1.0001 0 0 0 0.11914-0.048828l12-6a1.0001 1.0001 0 0 0 0.029296-0.017578 1 1 0 0 0 0.033204-0.019531 1.0001 1.0001 0 0 0 0.035156-0.021484 1.0001 1.0001 0 0 0 0.044922-0.029297 1 1 0 0 0 0.042968-0.035157 1.0001 1.0001 0 0 0 0.013672-0.009765 1.0001 1.0001 0 0 0 0.007813-0.007813 1.0001 1.0001 0 0 0 0.03125-0.029297 1 1 0 0 0 0.044922-0.044921 1.0001 1.0001 0 0 0 0.001953-0.001954 1 1 0 0 0 0.013672-0.013672 1.0001 1.0001 0 0 0 0.003906-0.005859 1.0001 1.0001 0 0 0 0.041016-0.046875 1 1 0 0 0 0.037109-0.052734 1.0001 1.0001 0 0 0 0.003906-0.00586 1.0001 1.0001 0 0 0 0.001953-0.001953 1.0001 1.0001 0 0 0 0.029297-0.046875 1 1 0 0 0 0.00586-0.009765 1.0001 1.0001 0 0 0 0.052734-0.10742 1 1 0 0 0 0.03125-0.087891 1.0001 1.0001 0 0 0 0.011719-0.035156 1 1 0 0 0 0.015625-0.080078 1.0001 1.0001 0 0 0 0-0.001953 1.0001 1.0001 0 0 0 0.005859-0.019532 1.0001 1.0001 0 0 0 0-0.007812 1.0001 1.0001 0 0 0 0-0.001953 1 1 0 0 0 0.003906-0.013672 1.0001 1.0001 0 0 0 0-0.003906 1 1 0 0 0 0.003907-0.046875 1.0001 1.0001 0 0 0 0-0.00586 1.0001 1.0001 0 0 0 0-0.001953 1.0001 1.0001 0 0 0 0.005859-0.070312 1.0001 1.0001 0 0 0 0-0.00586 1 1 0 0 0 0-0.003906v-14a1.0001 1.0001 0 0 0 0-0.003906 1 1 0 0 0 0-0.00586 1.0001 1.0001 0 0 0-0.005859-0.072265 1.0001 1.0001 0 0 0 0-0.00586 1 1 0 0 0-0.003907-0.050781 1.0001 1.0001 0 0 0-0.003906-0.015625 1.0001 1.0001 0 0 0 0-0.007812 1.0001 1.0001 0 0 0-0.005859-0.021485 1.0001 1.0001 0 0 0-0.11719-0.32031 1 1 0 0 0-0.001953-0.001953 1.0001 1.0001 0 0 0-0.029297-0.046875 1.0001 1.0001 0 0 0-0.003906-0.00586 1.0001 1.0001 0 0 0-0.037109-0.052734 1 1 0 0 0-0.007813-0.009766 1.0001 1.0001 0 0 0-0.037109-0.042968 1.0001 1.0001 0 0 0-0.015625-0.015626 1 1 0 0 0-0.044922-0.044921 1.0001 1.0001 0 0 0-0.039063-0.03711 1.0001 1.0001 0 0 0-0.013672-0.009765 1 1 0 0 0-0.042968-0.035157 1.0001 1.0001 0 0 0-0.044922-0.029297 1.0001 1.0001 0 0 0-0.035156-0.021484 1 1 0 0 0-0.033204-0.019531 1.0001 1.0001 0 0 0-0.029296-0.017578l-12-6a1.0001 1.0001 0 0 0-0.042969-0.017578 1.0001 1.0001 0 0 0-0.054688-0.023438 1.0001 1.0001 0 0 0-0.060547-0.019531 1.0001 1.0001 0 0 0-0.0625-0.017578 1.0001 1.0001 0 0 0-0.060546-0.011719 1.0001 1.0001 0 0 0-0.072266-0.009766 1.0001 1.0001 0 0 0-0.0625-0.003906 1.0001 1.0001 0 0 0-0.03125-0.001953zm-2.623 3.4277-1.543 2.5723h-3.5996l5.1426-2.5723zm5.2461 0 5.1426 2.5723h-3.5996l-1.543-2.5723zm-3.623 1.1816v1.3906h-0.83398l0.83398-1.3906zm2 0 0.83398 1.3906h-0.83398v-1.3906zm-9.3008 3.3906h2.9355l-0.76172 1.2676-2.1738-1.2676zm5.2676 0h2.0332v4.2578l-3.3984-1.9824 1.3652-2.2754zm4.0332 0h2.0332l1.3652 2.2754-3.3984 1.9824v-4.2578zm4.3652 0h2.9355l-2.1738 1.2676-0.76172-1.2676zm-14.504 1.8262 1.9824 1.1562-0.64453 1.0742-1.3379-2.2305zm18.277 0-1.3379 2.2305-0.64453-1.0742 1.9824-1.1562zm-20.139 0.7832 2.0352 3.3906-2.0352 3.3906v-6.7812zm22 0v6.7812l-2.0352-3.3906 2.0352-3.3906zm-16.428 1.3809 3.4434 2.0098-3.4434 2.0098-1.207-2.0098 1.207-2.0098zm10.855 0 1.207 2.0098-1.207 2.0098-3.4434-2.0098 3.4434-2.0098zm-6.4277 3.752v4.2578h-2.0332l-1.3652-2.2754 3.3984-1.9824zm2 0 3.3984 1.9824-1.3652 2.2754h-2.0332v-4.2578zm-8.8008 0.20117 0.64453 1.0742-1.9824 1.1562 1.3379-2.2305zm15.602 0 1.3379 2.2305-1.9824-1.1562 0.64453-1.0742zm-13.928 2.7891 0.76172 1.2676h-2.9355l2.1738-1.2676zm12.254 0 2.1738 1.2676h-2.9355l0.76172-1.2676zm-13.893 3.2676h3.5996l1.543 2.5723-5.1426-2.5723zm5.9316 0h0.83398v1.3906l-0.83398-1.3906zm2.834 0h0.83398l-0.83398 1.3906v-1.3906zm3.166 0h3.5996l-5.1426 2.5723 1.543-2.5723z" fill="#fff" stop-color="#000000" stroke-linecap="round" stroke-linejoin="round"/></svg>
