<?xml version="1.0" encoding="UTF-8"?>
<!-- Created with Inkscape (http://www.inkscape.org/) -->
<svg id="SVGRoot" width="48px" height="48px" version="1.1" viewBox="0 0 48 48" xml:space="preserve" xmlns="http://www.w3.org/2000/svg" xmlns:cc="http://creativecommons.org/ns#" xmlns:dc="http://purl.org/dc/elements/1.1/" xmlns:rdf="http://www.w3.org/1999/02/22-rdf-syntax-ns#"><defs><style>.cls-1{fill:none;stroke:#fff;stroke-linecap:round;stroke-linejoin:round;}</style></defs><metadata><rdf:RDF><cc:Work rdf:about=""><dc:format>image/svg+xml</dc:format><dc:type rdf:resource="http://purl.org/dc/dcmitype/StillImage"/></cc:Work></rdf:RDF></metadata><rect x="4" y="4" width="40" height="40" ry="8" fill="#EC753F" fill-rule="evenodd" style="paint-order:stroke fill markers"/><path d="m8 15-4 3v10h8v-10l-4-3zm32 0-4 3v10h8v-10l-4-3z" fill="#a6558a" style="paint-order:stroke fill markers"/><path d="m14 11-3 2s-2 1.5298-2 3c0 3 3 3 3 3l12 1 12-1s3 0 3-3c0-1.4702-2-3-2-3l-3-2 2 3s0 1-1 1c0 0-5-4-9 0-0.33333 0.33333-0.8196-0.56448-1-1-0.12756-0.30796 0-1 0-1l2-2-3 2-3-2 2 2s0.12756 0.69204 0 1c-0.1804 0.43552-0.66667 1.3333-1 1-4-4-9 0-9 0-1 0-1-1-1-1l2-3z" fill="#57265C" stroke-linecap="round" stroke-linejoin="round" stroke-width="4" style="paint-order:stroke fill markers"/><path d="m18 14c-6 0-8 5-8 9 0 1.6997 1 5 1 5l13-1 13 1s1-3.3003 1-5c0-4-2-9-8-9-4.9995 0-5.9998 3.9991-6 4-1.96e-4 -7.85e-4 -1.0005-4-6-4z" fill="#C6A8E4" stroke-linecap="round" stroke-linejoin="round" stroke-width="4" style="paint-order:stroke fill markers"/><rect x="12" y="19" width="12" height="10" rx="6" ry="5" fill="#fff" style="paint-order:stroke fill markers"/><rect transform="scale(-1,1)" x="-36" y="19" width="12" height="10" rx="6" ry="5" fill="#fff" style="paint-order:stroke fill markers"/><path d="m4 27v9c0 4.432 3.568 8 8 8h12 12c4.432 0 8-3.568 8-8v-9c-4 0-7 1-7 1s-5-1-13-1-13 1-13 1-3-1-7-1z" fill="#FFCC70" stroke-linecap="round" stroke-linejoin="round" stroke-width="4" style="paint-order:stroke fill markers"/><path d="m12 4c-4.432 0-8 3.568-8 8v24c0 4.432 3.568 8 8 8h24c4.432 0 8-3.568 8-8v-24c0-4.432-3.568-8-8-8zm0 1h24c3.878 0 7 3.122 7 7v24c0 3.878-3.122 7-7 7h-24c-3.878 0-7-3.122-7-7v-24c0-3.878 3.122-7 7-7z" fill-rule="evenodd" opacity=".3" style="paint-order:stroke fill markers"/><g stroke-linecap="round" stroke-linejoin="round" stroke-width="4"><rect x="17" y="19" width="3" height="6" rx="1.5" ry="3" fill="#3E3076" style="paint-order:stroke fill markers"/><path d="m12 36 1 3 2-2zm24 0-3 1 2 2z" fill="#fff" style="paint-order:stroke fill markers"/><path d="m24 28c-4.57e-4 0-3-2.35e-4 -3 1.5137 0 1.116 3 1.4863 3 1.4863s3-0.37038 3-1.4863c0-1.5139-2.9995-1.5137-3-1.5137zm0 3-0.47266 3s-5.6079 2-8.5273 2c-3 0-6-3-6-3s2 4 6 4c3.9997 0 8.9992-1.9997 9-2 0.001145 4.58e-4 5.0005 2 9 2 4 0 6-4 6-4s-3 3-6 3c-2.9194 0-8.5273-2-8.5273-2l-0.47266-3z" fill="#3E3076" style="paint-order:stroke fill markers"/><path d="m17.59 23.314 1.8783-0.92422s0.04403 2.087-0.92422 2.087c-0.70432 0-0.95404-1.1627-0.95404-1.1627z" fill="#82FDF5" style="paint-order:stroke fill markers"/><rect x="17.65" y="19.975" width=".74534" height="1.206" rx=".37267" ry=".60299" fill="#fff" style="paint-order:stroke fill markers"/><path d="m10 6.3398c-2.3349 0.82018-4 3.0381-4 5.6602v3l2-3 2 1v-6.6602z" fill="#ffcc70" style="paint-order:stroke fill markers"/><rect x="28" y="19" width="3" height="6" rx="1.5" ry="3" fill="#3e3076" style="paint-order:stroke fill markers"/><path d="m28.59 23.314 1.8783-0.92422s0.04403 2.087-0.92422 2.087c-0.70432 0-0.95404-1.1627-0.95404-1.1627z" fill="#82fdf5" style="paint-order:stroke fill markers"/><rect x="28.65" y="19.975" width=".74534" height="1.206" rx=".37267" ry=".60299" fill="#fff" style="paint-order:stroke fill markers"/><path d="m38 6.3398c2.3349 0.82018 4 3.0381 4 5.6602v3l-2-3-2 1z" fill="#ffcc70" style="paint-order:stroke fill markers"/><path d="m25 8s0 6 3 6c6 0 8-8 8-8l-5 1s3-2 3-5c-2 0-6 2-6 2z" fill="#EC753F" style="paint-order:stroke fill markers"/></g><path d="m34 2c-1.0753 0-2.7283 0.57869-4.0273 1.1133-0.082123 0.35279-0.29912 1.4385 0.027344 1.8867 0.80925 1.1111 2 1 2 1l0.3418-0.19531c0.79907-0.87942 1.6582-2.1985 1.6582-3.8047zm2 4-4.3301 0.86523c-6.72e-4 5.094e-4 -0.001281 0.0014433-0.001953 0.0019531-1.1416 0.86567-2.6114 2.3257-2.668 4.1328-0.039908 1.2745 0.3182 2.1464 0.79883 2.7422 4.6088-1.3695 6.2012-7.7422 6.2012-7.7422z" fill="#6F2623" style="paint-order:stroke fill markers"/><path d="m34 2c-2 0-6 2-6 2l-0.75 1h1.3965c0.35352 0 0.8778-0.63354 1.9746-1.0723 0.73141-0.29256 1.3496-0.38812 2.0469-0.5625-0.66778 1.6354-2.2227 2.8027-2.2227 2.8027-0.90926 0.60783-0.32289 2.0249 0.75 1.8125l3.1348-0.62695c-0.25386 0.71583-0.26928 1.0637-0.92773 2.1172-1.1547 1.8476-2.8468 3.5293-5.4023 3.5293-0.41667 0-0.63972-0.14528-0.93359-0.53711-0.29388-0.39183-0.55222-1.0312-0.7207-1.7051-0.089837-0.35935-0.15427-0.70165-0.19922-1.0117-0.004218-0.02921-0.41055-0.64371-1.1465-1.7461 0 0 0 6 3 6 6 0 8-8 8-8l-5 1s3-2 3-5z" opacity=".3" stop-color="#000000" stroke-linecap="round" stroke-linejoin="round" style="paint-order:stroke fill markers"/></svg>
