<?xml version="1.0" encoding="UTF-8"?>
<!-- Created with Inkscape (http://www.inkscape.org/) -->
<svg id="SVGRoot" width="48px" height="48px" version="1.1" viewBox="0 0 48 48" xml:space="preserve" xmlns="http://www.w3.org/2000/svg" xmlns:cc="http://creativecommons.org/ns#" xmlns:dc="http://purl.org/dc/elements/1.1/" xmlns:rdf="http://www.w3.org/1999/02/22-rdf-syntax-ns#"><defs><style>.cls-1{fill:none;stroke:#fff;stroke-linecap:round;stroke-linejoin:round;}</style><style>.cls-1{fill:none;stroke:#fff;stroke-linecap:round;stroke-linejoin:round;}</style><style>.cls-1{fill:none;stroke:#fff;stroke-linecap:round;stroke-linejoin:round;}</style></defs><metadata><rdf:RDF><cc:Work rdf:about=""><dc:format>image/svg+xml</dc:format><dc:type rdf:resource="http://purl.org/dc/dcmitype/StillImage"/></cc:Work></rdf:RDF></metadata><rect x="4" y="4" width="40" height="40" ry="8" fill="#4e4e4e" fill-rule="evenodd" style="paint-order:stroke fill markers"/><path d="m9 8c-0.554 0-1 0.446-1 1v5c0 0.554 0.446 1 1 1h2v1h-3v2h4s1 0 1-1v-9zm1 2h1v3h-1z" opacity=".3" stroke-linecap="round" stroke-linejoin="round" stroke-width="2" style="paint-order:stroke fill markers"/><path d="m12 4c-4.432 0-8 3.568-8 8v24c0 4.432 3.568 8 8 8h24c4.432 0 8-3.568 8-8v-24c0-4.432-3.568-8-8-8zm0 1h24c3.878 0 7 3.122 7 7v24c0 3.878-3.122 7-7 7h-24c-3.878 0-7-3.122-7-7v-24c0-3.878 3.122-7 7-7z" fill-rule="evenodd" opacity=".4" style="paint-order:stroke fill markers"/><path d="m15 8v1h-1v2h1v4s0 1 1 1h3c1 0 1-1 1-1v-3h-2v2h-1v-3h3v-2h-3v-1z" opacity=".3" stroke-linecap="round" stroke-linejoin="round" stroke-width="2" style="paint-order:stroke fill markers"/><style type="text/css">.st0{fill:#FFFFFF;}</style><style type="text/css">.st0{fill:#FFFFFF;}</style><style type="text/css">.st0{fill:#FFFFFF;}</style><style type="text/css">.st0{fill:#FFFFFF;}</style><path d="m22 8h-1v2h3v1h-2s-1 0-1 1v3c0 1 1 1 1 1h4v-7s0-1-1-1zm1 5h1v1h-1z" opacity=".3" stroke-linecap="round" stroke-linejoin="round" stroke-width="2" style="paint-order:stroke fill markers"/><path d="m21.103 10.98c-0.15752 0.48018-0.31509 0.96085-0.4726 1.4415-1.1811-0.40011-2.3621-0.88029-3.5433-1.2813-0.47262 0.80067-1.0239 1.6822-1.4966 2.6427-0.55139 1.041-0.86511 1.8412-1.1014 2.4024-0.23587 0.72055-0.39384 1.5216-0.39384 2.3223-0.39385 0.4019-0.78812 0.96199-1.024 1.683-0.23631 0.64001-0.39384 1.2806-0.39384 1.9219-0.01336 1.1743 0.1956 2.1632 1.1815 2.7228 0.9167 0.52026 1.9364-0.05478 2.9131-0.32032-0.15755 0.47978-0.2363 0.95991-0.39384 1.5202-0.39385 0-0.63012 6.71e-4 -0.86645 0.08139-0.23631 0-0.62881 0.16013-1.1014 0.32032-0.55139 0.15978-1.1032 0.72036-1.5754 1.6016-0.47218 0.80067-0.70891 1.6823-0.70891 2.4825 0 0.72196 0.2363 1.201 0.63014 1.6817 0.47218 0.48026 1.1032 0.56026 1.8117 0.24024 0.47217-0.1593 1.1018-0.64076 1.8104-1.3614 0.55094-0.56078 1.1018-1.2023 1.7316-1.9233 0.39385 0.081 0.70894 0.16233 1.1028 0.32163 0.07832 0 0.23675 0.08089 0.55138 0.24025 0.31508 0.16064 0.55052 0.24027 0.78637 0.32032 0.866-1.041 1.5754-1.9212 2.2055-2.8028 0.70845-1.0406 1.2589-2.083 1.6528-3.0444 0.3934-1.2013 0.63014-2.2418 0.63014-3.3634 0-1.8417-0.55093-3.1237-1.574-3.8439-1.1873-0.80373-2.5244-0.60284-3.7796-0.24024 0.31464-0.96091 0.63017-1.8415 0.94522-2.8028 0.31508-0.88039 0.63011-1.8429 0.86645-2.7241-0.07829-0.07964-0.23635-0.15929-0.39384-0.23893zm-3.8754 2.854c0.30275-6.8e-5 0.62786 0.09018 1.0411 0.27044 0.47218 0.15978 1.0227 0.47901 1.4953 0.95966-0.23586 0.64046-0.39297 1.2013-0.62883 1.8432-0.62513 0.46488-1.3105 0.67238-2.0467 0.88089-0.63016 0.15933-1.1027 6.04e-4 -1.4178-0.4004-0.23631-0.3209-0.31507-0.72143-0.31507-1.2012 0-0.6409 0.15798-1.2019 0.55138-1.6817 0.31508-0.3209 0.62926-0.56098 1.0227-0.64065 0.09847-0.02017 0.19709-0.03019 0.29801-0.03019zm5.6857 5.7146c0.55139 0.56034 0.86645 1.4414 0.86645 2.5626 0 1.4715-0.839 3.7176-1.7316 4.8062-0.47262-0.1597-1.0239-0.3194-1.4966-0.47917 2.044-2.0811 2.2042-3.0878 2.2042-4.0054 0-0.88166-0.39296-1.4418-1.0227-1.6817-1.2399-0.32159-2.3172 0.12283-3.4658 0.55926 0.15754-0.56035 0.31376-1.12 0.55006-1.6817 0.74989-0.38132 2.9509-1.2464 4.0959-0.08008zm-8.6606-0.55925c0.47261 0.6409 0.78772 1.121 1.1028 1.3614 0.39385 0.32001 0.8664 0.39957 1.3391 0.24024 0.15754-0.081 0.39299-0.16096 0.7076-0.32164 0.31464-0.16067 0.55135-0.24063 0.78768-0.4004-0.15754 0.56034-0.31462 1.2019-0.55138 1.7631-0.51128 0.42253-2.4602 1.3418-3.3069 0.48049-0.31464-0.32-0.47261-0.88147-0.47261-1.6016-0.03971-0.55509 0.19871-1.0214 0.39384-1.5215zm6.434 4.1918c0.38612 0.18235 0.36271 0.4375 0.41485 0.85331 0 0.24034-0.15708 0.63954-0.47261 1.2012-0.31464 0.56124-0.55136 0.88128-0.78768 1.0411-0.94478-0.07965-1.9683-0.24066-2.9131-0.32032 0.07877-0.56035 0.23629-1.1205 0.47261-1.6003 1.3639-0.66455 2.4571-1.5664 3.2859-1.175zm-5.0175 5.5768c0.62972 0 1.2594 0.08127 1.8104 0.32163-0.55139 0.72015-0.94389 1.2008-1.1014 1.3601-0.55094 0.6409-1.182 1.1214-1.8904 1.4415-0.3934 0.16112-0.70757 0.08152-1.0227-0.15885-0.31464-0.32001-0.47261-0.64133-0.47261-1.1211 0-0.40101 0.07922-0.7206 0.31507-0.96097 0.23631-0.31995 0.55135-0.48212 0.78768-0.64196 0.3934-0.07965 0.86553-0.24024 1.5741-0.24024z" fill="#fff" stroke-width=".44756"/><path d="m36.506 16.287c-1.2188 0.1891-1.909 0.99535-2.424 2.0714-0.7762-0.6902-1.3583-1.0839-1.6494-1.1837-0.77565-0.4934-1.6477-0.7886-2.715-0.69048-1.4548 0.09978-2.8121 0.88937-3.8793 2.466-1.1637 1.4813-1.6494 3.0599-1.6494 4.7363 0 1.8754 0.37647 3.2984 1.0672 4.4404 0.10158 0.16792 0.48567 0.7881 1.3583 1.9712-0.97025 1.9725-1.5523 3.2544-1.7464 3.7483-0.67917 1.4797-0.97023 2.4664-0.97023 2.8606-0.09336 0.77065 0.18191 1.1815 0.67916 1.1837 0.45594 2e-3 0.48511-0.35693 0.48511-0.88776 0-0.19625 3e-6 -0.39397-0.09702-0.59022-0.09702-0.19736-0.19404-0.39558-0.19404-0.59184 0-0.39471 0.09702-0.68983 0.29107-0.88776 0.09758-0.19682 0.29106-0.29592 0.58214-0.29592 0.19405 0 0.67969 0.29511 1.5524 0.9864 1.1637 0.88754 1.9389 1.4795 2.424 1.7755 0.48512-0.59207 0.97026-1.2821 1.4553-1.8742 0.48512-0.59208 1.0672-1.2826 1.6494-1.8742 0.27032 1.3911 0.7825 2.5441 1.6478 3.6497 0.67972-1.4046 1.74-2.5512 2.7166-3.7483-0.09647-0.09868-0.194-0.19714-0.29269-0.39779-0.81061 0.70427-1.2857 1.229-1.5507-0.1989-0.09702-0.39471-0.19405-0.98506-0.19405-1.5766v-12.429c0-0.59098 0.19403-1.0849 0.48511-1.5782 0.19405-0.29602 0.58108-0.69146 0.96861-0.9864zm-7.3689 2.4676c0.48512 0 0.97027 0.09911 1.3583 0.29592 0.48458 0.1979 0.87156 0.49469 1.0656 0.79074-0.19405 0.39416-0.38754 0.79006-0.58214 1.085-0.68748-0.06324-1.0666-0.21836-1.6478-0.19728-0.58177 0.0211-1.0678 0.39432-1.5524 0.9864-0.38755 0.59096-0.58214 1.2826-0.58214 1.9728v0.39294c0.48512-1.0843 1.0672-1.6753 1.7464-1.6753 0.54045-2e-3 0.72066 0.32264 1.0672 0.68886-0.58215 0.98623-1.0672 2.0721-1.5524 3.0594-0.48458 1.0843-0.96863 2.1702-1.5507 3.1565-0.67918-0.59318-1.2613-1.3806-1.5524-2.1701-0.29107-0.88812-0.38809-1.8732-0.38809-2.9592 0-1.2823 0.48567-2.5653 1.3583-3.7483 0.97025-0.98739 1.8423-1.5792 2.812-1.6785zm2.9091 1.6785c0.19405 0.29604 0.38809 0.59169 0.58214 0.88776v6.8061c-1.4548 0-2.909 0.09805-4.3644 0.19728 0.58215-1.2823 1.2602-2.6634 1.8418-3.9456 0.67917-1.3804 1.3583-2.6633 1.9405-3.9456zm0.58214 9.7653c0 0.88704 0.09702 1.7768 0.09702 2.6633-0.58215 0.59208-1.1642 1.1839-1.7464 1.8742-1.4548-0.88812-3.0066-1.7752-4.5584-2.5646 0.29108-0.59208 0.48511-1.0843 0.77618-1.6753 1.843-0.09923 3.6858-0.19885 5.4317-0.29754z" fill="#fff" stroke-width=".55128"/></svg>
