<?xml version="1.0" encoding="UTF-8"?>
<!-- Created with Inkscape (http://www.inkscape.org/) -->
<svg id="SVGRoot" width="48px" height="48px" version="1.1" viewBox="0 0 48 48" xml:space="preserve" xmlns="http://www.w3.org/2000/svg" xmlns:cc="http://creativecommons.org/ns#" xmlns:dc="http://purl.org/dc/elements/1.1/" xmlns:rdf="http://www.w3.org/1999/02/22-rdf-syntax-ns#"><defs><style>.cls-1{fill:none;stroke:#fff;stroke-linecap:round;stroke-linejoin:round;}</style><style>.cls-1{fill:none;stroke:#fff;stroke-linecap:round;stroke-linejoin:round;}</style><style>.a{fill:none;stroke:#b1b5bd;stroke-linecap:round;stroke-linejoin:round;isolation:isolate;opacity:0.63;}</style><style>.cls-1{fill:none;stroke:#fff;stroke-linecap:round;stroke-linejoin:round;}</style><style>.a{fill:none;stroke:#b1b5bd;stroke-linecap:round;stroke-linejoin:round;isolation:isolate;opacity:0.63;}</style><style>.cls-1{fill:none;stroke:#fff;stroke-linecap:round;stroke-linejoin:round;}</style><style>.cls-1{fill:none;stroke:#fff;stroke-linecap:round;stroke-linejoin:round;}</style><style>.cls-1{fill:none;stroke:#fff;stroke-linecap:round;stroke-linejoin:round;}</style><style>.cls-1{fill:none;stroke:#fff;stroke-linecap:round;stroke-linejoin:round;}</style><style>.cls-1{fill:none;stroke:#fff;stroke-linecap:round;stroke-linejoin:round;}</style><style>.cls-1{fill:none;stroke:#fff;stroke-linecap:round;stroke-linejoin:round;}</style><style>.cls-1{fill:none;stroke:#fff;stroke-linecap:round;stroke-linejoin:round;}</style><style>.a{fill:none;stroke:#b1b5bd;stroke-linecap:round;stroke-linejoin:round;isolation:isolate;opacity:0.63;}</style><style>.cls-1{fill:none;stroke:#fff;stroke-linecap:round;stroke-linejoin:round;}</style><style>.cls-1{fill:none;stroke:#fff;stroke-linecap:round;stroke-linejoin:round;}</style><style>.cls-1{fill:none;stroke:#fff;stroke-linecap:round;stroke-linejoin:round;}</style><style>.cls-1{fill:none;stroke:#fff;stroke-linecap:round;stroke-linejoin:round;}</style><style>.a{fill:none;stroke:#b1b5bd;stroke-linecap:round;stroke-linejoin:round;isolation:isolate;opacity:0.63;}</style><style>.cls-1{fill:none;stroke:#fff;stroke-linecap:round;stroke-linejoin:round;}</style><style>.cls-1{fill:none;stroke:#fff;stroke-linecap:round;stroke-linejoin:round;}</style><style>.cls-1{fill:none;stroke:#fff;stroke-linecap:round;stroke-linejoin:round;}</style></defs><metadata><rdf:RDF><cc:Work rdf:about=""><dc:format>image/svg+xml</dc:format><dc:type rdf:resource="http://purl.org/dc/dcmitype/StillImage"/></cc:Work></rdf:RDF></metadata><rect x="4" y="4" width="40" height="40" ry="8" fill="#5b3b61" fill-rule="evenodd" style="paint-order:stroke fill markers"/><rect x="8" y="8" width="32" height="32" ry="4" opacity=".3" stroke-linecap="round" stroke-linejoin="round" stroke-width="4" style="paint-order:stroke fill markers"/><g stroke-linecap="round" stroke-linejoin="round"><rect x="12" y="12" width="24" height="24" ry="1" fill="#6d3e67" stroke-width="4.3636" style="paint-order:stroke fill markers"/><path d="m12 14s5 10 15 10c5 0 9-4 9-4v13s-4-3-10-3c-9 0-14 3-14 3z" opacity=".2" stroke-width="4" style="paint-order:stroke fill markers"/><path d="m18 11c0 1.662 1.338 3 3 3h6c1.662 0 3-1.338 3-3h-12zm-7 7v12c1.662 0 3-1.338 3-3v-6c0-1.662-1.338-3-3-3zm26 0c-1.662 0-3 1.338-3 3v6c0 1.662 1.338 3 3 3v-12zm-16 16c-1.662 0-3 1.338-3 3h12c0-1.662-1.338-3-3-3h-6z" fill="#f66262" opacity=".4" stroke-width="4" style="paint-order:stroke fill markers"/></g><path d="m12 4c-4.432 0-8 3.568-8 8v24c0 4.432 3.568 8 8 8h24c4.432 0 8-3.568 8-8v-24c0-4.432-3.568-8-8-8zm0 1h24c3.878 0 7 3.122 7 7v24c0 3.878-3.122 7-7 7h-24c-3.878 0-7-3.122-7-7v-24c0-3.878 3.122-7 7-7z" fill-rule="evenodd" opacity=".4" style="paint-order:stroke fill markers"/><g stroke-linecap="round" stroke-linejoin="round"><path d="m14.997 22.795c0.43322-2.844 3.0004-4.7945 6.751-4.7945 1.6773 0 2.8382 2.1601 4.5007 2.3973 1.2637 0.18028 2.5303-1.1927 3.7506-0.79909 1.3537 0.43664 3.0004 1.6896 3.0004 3.1964 0 1.8835-0.75011 4.7945-3.7506 4.7945-1.0309 0-1.9822-0.9706-3.0004-0.79909-2.3299 0.39243-2.2503 3.1964-6.0009 3.1964-2.8509 0-5.7074-4.194-5.2508-7.1918z" fill="#e84868" stroke-width="3.0968" style="paint-order:stroke fill markers"/><path d="m23 21c-1.7451 0-3.15 0.892-3.15 2s1.4049 2 3.15 2c0.55371 0 1.0727-0.09015 1.5237-0.24836 0.26418-0.09268 0.66051-0.06687 0.92105 0.03683 0.33741 0.1343 0.73254 0.21153 1.1552 0.21153 1.2465 0 2.25-0.669 2.25-1.5s-1.0035-1.5-2.25-1.5c-0.10901 0-0.21624 0.0051-0.32112 0.0149-0.26057 0.02444-0.60928-0.10134-0.82212-0.26946-0.5763-0.4552-1.461-0.74544-2.4568-0.74544z" fill="#fff" stroke-width="3.7947" style="paint-order:stroke fill markers"/><path d="m12 8c-2.216 0-4 1.784-4 4v24c0 2.216 1.784 4 4 4h24c2.216 0 4-1.784 4-4v-24c0-2.216-1.784-4-4-4h-24zm0 2h24c1.108 0 2 0.892 2 2v24c0 1.108-0.892 2-2 2h-24c-1.108 0-2-0.892-2-2v-24c0-1.108 0.892-2 2-2z" fill="#f882a3" stroke-width="4" style="paint-order:stroke fill markers"/></g><g fill="#e3f04c" stroke-linecap="round" stroke-linejoin="round" stroke-width="4"><path d="m18 6c-0.54914 0-1.0989 0.60265-1.4824 1.1465-0.31771 0.45048-0.96529 0.85352-1.5176 0.85352h-1c-0.554 0-1 0.446-1 1s0.446 1 1 1h6l0.58789 0.58789c0.22812 0.22812 0.22812 0.5961 0 0.82422l-0.070313 0.070313c-0.28575 0.28575-0.28575 0.74941 0 1.0352 0.41065 0.35111 0.94377 0.52453 1.4824 0.48242h4c0.64029 0 1.2543-0.25428 1.707-0.70703 0.16176-0.22812 0.10898-0.54332-0.11914-0.70508l-0.21875-0.21875c-0.20342-0.20342-0.20342-0.53486 0-0.73828l0.63086-0.63086h6c0.554 0 1-0.446 1-1s-0.446-1-1-1h-1c-0.55228 0-1.1999-0.40303-1.5176-0.85352-0.38354-0.54383-0.93329-1.1465-1.4824-1.1465-0.77416 0-1 2-2 2h-4-4c-1 0-1.2258-2-2-2z" style="paint-order:stroke fill markers"/><path d="m9 13c-0.554 0-1 0.446-1 1v1c0 0.55228-0.40303 1.1999-0.85352 1.5176-0.54383 0.38354-1.1465 0.93329-1.1465 1.4824 0 0.77416 2 1 2 2v4 4c0 1-2 1.2258-2 2 0 0.54914 0.60265 1.0989 1.1465 1.4824 0.45048 0.31771 0.85352 0.96529 0.85352 1.5176v1c0 0.554 0.446 1 1 1s1-0.446 1-1v-6l0.58789-0.58789c0.22812-0.22812 0.5961-0.22812 0.82422 0l0.070313 0.070313c0.28575 0.28575 0.74941 0.28575 1.0352 0 0.35111-0.41065 0.52453-0.94377 0.48242-1.4824v-4c0-0.64029-0.25428-1.2543-0.70703-1.707-0.22812-0.16176-0.54332-0.10898-0.70508 0.11914l-0.21875 0.21875c-0.20342 0.20342-0.53486 0.20342-0.73828 0l-0.63086-0.63086v-6c0-0.554-0.446-1-1-1z" style="paint-order:stroke fill markers"/><path d="m30 42c0.54914 0 1.0989-0.60265 1.4824-1.1465 0.31771-0.45048 0.96529-0.85352 1.5176-0.85352h1c0.554 0 1-0.446 1-1s-0.446-1-1-1h-6l-0.58789-0.58789c-0.22812-0.22812-0.22812-0.5961 0-0.82422l0.07031-0.07031c0.28575-0.28575 0.28575-0.74941 0-1.0352-0.41065-0.35111-0.94377-0.52453-1.4824-0.48242h-4c-0.64029 0-1.2543 0.25428-1.707 0.70703-0.16176 0.22812-0.10898 0.54332 0.11914 0.70508l0.21875 0.21875c0.20342 0.20342 0.20342 0.53486 0 0.73828l-0.63086 0.63086h-6c-0.554 0-1 0.446-1 1s0.446 1 1 1h1c0.55228 0 1.1999 0.40303 1.5176 0.85352 0.38354 0.54383 0.93329 1.1465 1.4824 1.1465 0.77416 0 1-2 2-2h8c1 0 1.2258 2 2 2z" style="paint-order:stroke fill markers"/><path d="m39 35c0.554 0 1-0.446 1-1v-1c0-0.55228 0.40303-1.1999 0.85352-1.5176 0.54383-0.38354 1.1465-0.93329 1.1465-1.4824 0-0.77416-2-1-2-2v-8c0-1 2-1.2258 2-2 0-0.54914-0.60265-1.0989-1.1465-1.4824-0.45048-0.31771-0.85352-0.96529-0.85352-1.5176v-1c0-0.554-0.446-1-1-1s-1 0.446-1 1v6l-0.58789 0.58789c-0.22812 0.22812-0.5961 0.22812-0.82422 0l-0.07031-0.07031c-0.28575-0.28575-0.74941-0.28575-1.0352 0-0.35111 0.41065-0.52453 0.94377-0.48242 1.4824v4c0 0.64029 0.25428 1.2543 0.70703 1.707 0.22812 0.16176 0.54332 0.10898 0.70508-0.11914l0.21875-0.21875c0.20342-0.20342 0.53486-0.20342 0.73828 0l0.63086 0.63086v6c0 0.554 0.446 1 1 1z" style="paint-order:stroke fill markers"/></g></svg>
