<?xml version="1.0" encoding="UTF-8"?>
<!-- Created with Inkscape (http://www.inkscape.org/) -->
<svg id="SVGRoot" width="48px" height="48px" version="1.1" viewBox="0 0 48 48" xml:space="preserve" xmlns="http://www.w3.org/2000/svg" xmlns:cc="http://creativecommons.org/ns#" xmlns:dc="http://purl.org/dc/elements/1.1/" xmlns:rdf="http://www.w3.org/1999/02/22-rdf-syntax-ns#"><defs><style>.cls-1{fill:none;stroke:#fff;stroke-linecap:round;stroke-linejoin:round;}</style><style>.cls-1{fill:none;stroke:#fff;stroke-linecap:round;stroke-linejoin:round;}</style></defs><metadata><rdf:RDF><cc:Work rdf:about=""><dc:format>image/svg+xml</dc:format><dc:type rdf:resource="http://purl.org/dc/dcmitype/StillImage"/></cc:Work></rdf:RDF></metadata><rect x="4" y="4" width="40" height="40" ry="8" fill="#7F90AD" fill-rule="evenodd" style="paint-order:stroke fill markers"/><g stroke-linecap="round" stroke-linejoin="round"><path d="m12 6c-3.324 0-6 2.676-6 6v3s3 9 18 9c-7-8-6-18-6-18h-6zm12 18c8-7 18-6 18-6v-6c0-3.324-2.676-6-6-6h-3s-9 3-9 18zm0 0c7 8 6 18 6 18h6c3.324 0 6-2.676 6-6v-3s-3-9-18-9zm0 0c-8 7-18 6-18 6v6c0 3.324 2.676 6 6 6h3s9-3 9-18z" opacity=".2" stroke-width="2"/><rect x="10" y="10" width="28" height="28" ry="14" fill="#7F90AD" stroke-width="2.5454"/><path d="m24 10c-2.5489 0-4.9339 0.67467-6.9883 1.8555 0.55961 3.2918 2.3598 7.516 6.9883 12.145 0.38023-5.7035 2.8042-10.18 4.9648-13.1-1.542-0.58165-3.2145-0.90039-4.9648-0.90039zm0 14c5.7035 0.38023 10.18 2.8042 13.1 4.9648 0.58165-1.542 0.90039-3.2145 0.90039-4.9648 0-2.5489-0.67467-4.9339-1.8555-6.9883-3.2918 0.55961-7.516 2.3598-12.145 6.9883zm0 0c-0.38023 5.7035-2.8042 10.18-4.9648 13.1 1.542 0.58165 3.2145 0.90039 4.9648 0.90039 2.5489 0 4.9339-0.67467 6.9883-1.8555-0.55961-3.2918-2.3598-7.516-6.9883-12.145zm0 0c-5.7035-0.38023-10.18-2.8042-13.1-4.9648-0.58165 1.542-0.90039 3.2145-0.90039 4.9648 0 2.5489 0.67467 4.9339 1.8555 6.9883 3.2918-0.55961 7.516-2.3598 12.145-6.9883z" opacity=".2" stroke-width="2.5454"/><path d="m11 26 13-13 13 13h-7v18h-12v-18z" fill="#e8caff" stroke-width="2"/></g><path d="m12 4c-4.432 0-8 3.568-8 8v24c0 4.432 3.568 8 8 8h24c4.432 0 8-3.568 8-8v-24c0-4.432-3.568-8-8-8zm0 1h24c3.878 0 7 3.122 7 7v24c0 3.878-3.122 7-7 7h-24c-3.878 0-7-3.122-7-7v-24c0-3.878 3.122-7 7-7z" fill-rule="evenodd" opacity=".3" style="paint-order:stroke fill markers"/><path d="m20 43v-19h-4l8-8 8 8h-4v19z" opacity=".3" stroke-linecap="round" stroke-linejoin="round" stroke-width="2"/></svg>
