<?xml version="1.0" encoding="UTF-8"?>
<!-- Created with Inkscape (http://www.inkscape.org/) -->
<svg id="SVGRoot" width="48px" height="48px" version="1.1" viewBox="0 0 48 48" xmlns="http://www.w3.org/2000/svg" xmlns:cc="http://creativecommons.org/ns#" xmlns:dc="http://purl.org/dc/elements/1.1/" xmlns:rdf="http://www.w3.org/1999/02/22-rdf-syntax-ns#">
 <defs id="defs815">
  <style id="style819">.cls-1{fill:none;stroke:#fff;stroke-linecap:round;stroke-linejoin:round;}</style>
 </defs>
 <metadata id="metadata818">
  <rdf:RDF>
   <cc:Work rdf:about="">
    <dc:format>image/svg+xml</dc:format>
    <dc:type rdf:resource="http://purl.org/dc/dcmitype/StillImage"/>
    <dc:title/>
   </cc:Work>
  </rdf:RDF>
 </metadata>
 <g id="layer1">
  <rect id="rect1373" x="4" y="4" width="40" height="40" ry="8" fill="#729dec" fill-rule="evenodd" style="paint-order:stroke fill markers"/>
  <path id="rect817" d="m12 4c-4.432 0-8 3.568-8 8v24c0 4.432 3.568 8 8 8h24c4.432 0 8-3.568 8-8v-24c0-4.432-3.568-8-8-8h-24zm0 1h24c3.878 0 7 3.122 7 7v24c0 3.878-3.122 7-7 7h-24c-3.878 0-7-3.122-7-7v-24c0-3.878 3.122-7 7-7z" fill-rule="evenodd" opacity=".4" style="paint-order:stroke fill markers"/>
  <path id="path900" d="m36 7c-6 0-8 21-15 21-3 0-7-12-11-12-1.4482 0-2.8893 1.8682-4 3.7969v16.203c0 3.324 2.676 6 6 6h24c3.324 0 6-2.676 6-6v-22.535c-1.4056-3.1495-3.4695-6.4648-6-6.4648z" opacity=".25"/>
  <rect id="rect818" x="12" y="22" width="12" height="12" ry="6" fill="#f6a559" fill-rule="evenodd" style="paint-order:stroke fill markers"/>
  <rect id="rect818-3" x="10" y="16" width="12" height="12" ry="6" fill="#f6a559" fill-rule="evenodd" style="paint-order:stroke fill markers"/>
  <path id="path933-9" d="m24 34s0-4 4-4 4 4 4 4 0 2-1 2h-6c-1 0-1-2-1-2z" fill="#ba8c3a"/>
  <rect id="rect818-0" x="24" y="22" width="12" height="12" ry="6" fill="#f6a559" fill-rule="evenodd" style="paint-order:stroke fill markers"/>
  <rect id="rect818-37" x="26" y="16" width="12" height="12" ry="6" fill="#f6a559" fill-rule="evenodd" style="paint-order:stroke fill markers"/>
  <rect id="rect818-4" x="17" y="10" width="14" height="14" ry="7" fill="#f6a559" fill-rule="evenodd" style="paint-order:stroke fill markers"/>
  <rect id="rect864" x="19" y="22" width="10" height="10" ry="5" fill="#f6a559" fill-rule="evenodd" style="paint-order:stroke fill markers"/>
  <rect id="rect866" x="18" y="19" width="9" height="9" rx="4.5" ry="4.5" fill="#fff" fill-rule="evenodd" style="paint-order:stroke fill markers"/>
  <rect id="rect866-4" x="25" y="19" width="9" height="9" rx="4.5" ry="4.5" fill="#fff" fill-rule="evenodd" style="paint-order:stroke fill markers"/>
  <rect id="rect883" x="22" y="22" width="4" height="4" ry="1.9121" fill="#4e4e4e" fill-rule="evenodd" style="paint-order:stroke fill markers"/>
  <rect id="rect883-5" x="28" y="22" width="4" height="4" ry="2" fill="#4e4e4e" fill-rule="evenodd" style="paint-order:stroke fill markers"/>
  <path id="path933" d="m16 34s0-4 4.9892-4 4.9892 4 4.9892 4 0 2-1.2473 2h-7.4839c-1.2473 0-1.2473-2-1.2473-2z" fill="#ffdd75"/>
  <path id="rect1034" d="m6 36c0 3.324 2.676 6 6 6h24c3.324 0 6-2.676 6-6h-36z" fill="#67de6e" fill-rule="evenodd" style="paint-order:stroke fill markers"/>
 </g>
</svg>
