<?xml version="1.0" encoding="UTF-8"?>
<!-- Created with Inkscape (http://www.inkscape.org/) -->
<svg id="SVGRoot" width="48px" height="48px" version="1.1" viewBox="0 0 48 48" xmlns="http://www.w3.org/2000/svg" xmlns:cc="http://creativecommons.org/ns#" xmlns:dc="http://purl.org/dc/elements/1.1/" xmlns:rdf="http://www.w3.org/1999/02/22-rdf-syntax-ns#" xmlns:xlink="http://www.w3.org/1999/xlink">
 <defs id="defs815">
  <style id="style819">.cls-1{fill:none;stroke:#fff;stroke-linecap:round;stroke-linejoin:round;}</style>
  <style id="style2">.a{fill:none;stroke:#b1b5bd;stroke-linecap:round;stroke-linejoin:round;isolation:isolate;opacity:0.63;}</style>
  <style id="style819-5">.cls-1{fill:none;stroke:#fff;stroke-linecap:round;stroke-linejoin:round;}</style>
  <style id="style819-2">.cls-1{fill:none;stroke:#fff;stroke-linecap:round;stroke-linejoin:round;}</style>
  <style id="style819-3">.cls-1{fill:none;stroke:#fff;stroke-linecap:round;stroke-linejoin:round;}</style>
  <style id="style819-36">.cls-1{fill:none;stroke:#fff;stroke-linecap:round;stroke-linejoin:round;}</style>
 </defs>
 <metadata id="metadata818">
  <rdf:RDF>
   <cc:Work rdf:about="">
    <dc:format>image/svg+xml</dc:format>
    <dc:type rdf:resource="http://purl.org/dc/dcmitype/StillImage"/>
    <dc:title/>
   </cc:Work>
  </rdf:RDF>
 </metadata>
 <g id="layer1">
  <rect id="rect1373-5" x="4" y="4" width="40" height="40" ry="8" fill="#5a94df" fill-rule="evenodd" style="paint-order:stroke fill markers"/>
  <path id="rect817" d="m12 4c-4.432 0-8 3.568-8 8v24c0 4.432 3.568 8 8 8h24c4.432 0 8-3.568 8-8v-24c0-4.432-3.568-8-8-8h-24zm0 1h24c3.878 0 7 3.122 7 7v24c0 3.878-3.122 7-7 7h-24c-3.878 0-7-3.122-7-7v-24c0-3.878 3.122-7 7-7z" fill-rule="evenodd" opacity=".3" style="paint-order:stroke fill markers"/>
  <path id="path843" d="m36 8-6 3v3l-2 1v13h-2v-14l-9-4-5 4v13h-2v-9l-4 1v17c0 3.324 2.676 6 6 6h24c3.324 0 6-2.676 6-6v-8l-2-3v-7h-2v-9z" opacity=".15"/>
  <path id="path888" d="m28 6-10 3v13l-5-2-7 3v13c0 3.324 2.676 6 6 6h24c3.324 0 6-2.676 6-6v-5l-4 2v-4l-6-3v-16l-4-4z" opacity=".3"/>
  <path id="path886" d="m25 34h5v2h2v-4h-5c-2 0-2-2-2-2v-6s0-2 2-2h8c2 0 2 2 2 2v4h-5v-2h-2v4h5c2 0 2 2 2 2v6s0 2-2 2h-8c-2 0-2-2-2-2z" fill="#fff"/>
  <path id="path884" d="m21 22c2 0 2 2 2 2v6h-5v-4h-2v10h2v-4h5v6s0 2-2 2h-8c-2 0-2-2-2-2v-14s0-2 2-2z" fill="#fff"/>
 </g>
</svg>
