<?xml version="1.0" encoding="UTF-8"?>
<!-- Created with Inkscape (http://www.inkscape.org/) -->
<svg id="SVGRoot" width="48px" height="48px" version="1.1" viewBox="0 0 48 48" xml:space="preserve" xmlns="http://www.w3.org/2000/svg" xmlns:cc="http://creativecommons.org/ns#" xmlns:dc="http://purl.org/dc/elements/1.1/" xmlns:rdf="http://www.w3.org/1999/02/22-rdf-syntax-ns#"><defs><style>.cls-1{fill:none;stroke:#fff;stroke-linecap:round;stroke-linejoin:round;}</style><style>.cls-1{fill:none;stroke:#fff;stroke-linecap:round;stroke-linejoin:round;}</style><style>.cls-1{fill:none;stroke:#fff;stroke-linecap:round;stroke-linejoin:round;}</style><style id="current-color-scheme" type="text/css">.ColorScheme-Text {
        color:#31363b;
      }
      .ColorScheme-Accent {
        color:#3daee9;
      }</style><style type="text/css">.ColorScheme-Text {
        color:#31363b;
      }
      .ColorScheme-Accent {
        color:#3daee9;
      }</style></defs><metadata><rdf:RDF><cc:Work rdf:about=""><dc:format>image/svg+xml</dc:format><dc:type rdf:resource="http://purl.org/dc/dcmitype/StillImage"/></cc:Work></rdf:RDF></metadata><rect x="4" y="4" width="40" height="40" ry="8" fill="#dd3f65" fill-rule="evenodd" style="paint-order:stroke fill markers"/><path d="m12 4c-4.432 0-8 3.568-8 8v24c0 4.432 3.568 8 8 8h24c4.432 0 8-3.568 8-8v-24c0-4.432-3.568-8-8-8zm0 1h24c3.878 0 7 3.122 7 7v24c0 3.878-3.122 7-7 7h-24c-3.878 0-7-3.122-7-7v-24c0-3.878 3.122-7 7-7z" fill-rule="evenodd" opacity=".3" style="paint-order:stroke fill markers"/><path d="m19.333 10c-1.662 0-3.223 1.338-3.5 3l-3.6667 22c-0.277 1.662 0.838 3 2.5 3h14c1.662 0 3.223-1.338 3.5-3l3.6667-22c0.277-1.662-0.838-3-2.5-3zm-0.33333 2h14c0.554 0 0.92567 0.446 0.83333 1l-3.6667 22c-0.092331 0.554-0.61267 1-1.1667 1h-14c-0.554 0-0.92567-0.446-0.83333-1l3.6667-22c0.09233-0.554 0.61267-1 1.1667-1z" fill="#fff"/><path d="m28.333 34 0.66667-4h-8s8.9552-5.7313 9.6667-10c0.66667-4-2.1716-6-5-6-6 0-7 6-7 6l-0.33333 2h4l0.33333-2s0.33333-2 2.3333-2 1.6667 2 1.6667 2c-0.66769 4.0061-9.1667 7-9.6667 10l-0.66667 4z" fill="#fff"/></svg>
