<?xml version="1.0" encoding="UTF-8"?>
<!-- Created with Inkscape (http://www.inkscape.org/) -->
<svg id="SVGRoot" width="48px" height="48px" version="1.1" viewBox="0 0 48 48" xmlns="http://www.w3.org/2000/svg" xmlns:cc="http://creativecommons.org/ns#" xmlns:dc="http://purl.org/dc/elements/1.1/" xmlns:rdf="http://www.w3.org/1999/02/22-rdf-syntax-ns#" xmlns:xlink="http://www.w3.org/1999/xlink">
 <defs id="defs815">
  <style id="style819">.cls-1{fill:none;stroke:#fff;stroke-linecap:round;stroke-linejoin:round;}</style>
  <style id="style2">.a{fill:none;stroke:#b1b5bd;stroke-linecap:round;stroke-linejoin:round;isolation:isolate;opacity:0.63;}</style>
  <style id="style2-5">.a{fill:none;stroke:#b1b5bd;stroke-linecap:round;stroke-linejoin:round;isolation:isolate;opacity:0.63;}</style>
 </defs>
 <metadata id="metadata818">
  <rdf:RDF>
   <cc:Work rdf:about="">
    <dc:format>image/svg+xml</dc:format>
    <dc:type rdf:resource="http://purl.org/dc/dcmitype/StillImage"/>
    <dc:title/>
   </cc:Work>
  </rdf:RDF>
 </metadata>
 <g id="layer1">
  <rect id="rect1373-5" x="4" y="4" width="40" height="40" ry="8" fill="#efefef" fill-rule="evenodd" style="paint-order:stroke fill markers"/>
  <path id="rect817" d="m12 4c-4.432 0-8 3.568-8 8v24c0 4.432 3.568 8 8 8h24c4.432 0 8-3.568 8-8v-24c0-4.432-3.568-8-8-8h-24zm0 1h24c3.878 0 7 3.122 7 7v24c0 3.878-3.122 7-7 7h-24c-3.878 0-7-3.122-7-7v-24c0-3.878 3.122-7 7-7z" fill-rule="evenodd" opacity=".3" style="paint-order:stroke fill markers"/>
  <path id="path879" d="m41.955 11.299c-0.12458 0.90501-3.0194 21.766-5.9551 24.701-2.8605 2.8605-23.811 5.8294-24.705 5.9551 0.23154 0.026913 0.46609 0.044922 0.70508 0.044922h24c3.324 0 6-2.676 6-6v-24c0-0.23766-0.018303-0.47088-0.044922-0.70117z" fill="#b072dd"/>
  <rect id="rect897" x="10" y="14" width="6" height="12" ry="3" fill="#4e4e4e" fill-rule="evenodd" style="paint-order:normal"/>
  <rect id="rect899" x="24" y="12" width="6" height="12" ry="3" fill="#4e4e4e" fill-rule="evenodd" style="paint-order:normal"/>
  <path id="path901" d="m26 27-3 4-4-3" fill="none" stroke="#4e4e4e" stroke-linecap="round" stroke-linejoin="round" stroke-width="2"/>
  <rect id="rect903" x="12" y="16" width="2" height="4" ry="1" fill="#fff" fill-rule="evenodd" style="paint-order:normal"/>
  <rect id="rect905" x="26" y="14" width="2" height="4" ry="1" fill="#fff" fill-rule="evenodd" style="paint-order:normal"/>
 </g>
</svg>
