<?xml version="1.0" encoding="UTF-8"?>
<!-- Created with Inkscape (http://www.inkscape.org/) -->
<svg id="SVGRoot" width="48px" height="48px" version="1.1" viewBox="0 0 48 48" xml:space="preserve" xmlns="http://www.w3.org/2000/svg" xmlns:cc="http://creativecommons.org/ns#" xmlns:dc="http://purl.org/dc/elements/1.1/" xmlns:rdf="http://www.w3.org/1999/02/22-rdf-syntax-ns#"><defs><style>.cls-1{fill:none;stroke:#fff;stroke-linecap:round;stroke-linejoin:round;}</style></defs><metadata><rdf:RDF><cc:Work rdf:about=""><dc:format>image/svg+xml</dc:format><dc:type rdf:resource="http://purl.org/dc/dcmitype/StillImage"/></cc:Work></rdf:RDF></metadata><rect x="4" y="4" width="40" height="40" ry="8" fill="#5c4881" fill-rule="evenodd" style="paint-order:stroke fill markers"/><path d="m12 4c-4.432 0-8 3.568-8 8v24c0 4.432 3.568 8 8 8h24c4.432 0 8-3.568 8-8v-24c0-4.432-3.568-8-8-8zm0 1h24c3.878 0 7 3.122 7 7v24c0 3.878-3.122 7-7 7h-24c-3.878 0-7-3.122-7-7v-24c0-3.878 3.122-7 7-7z" fill-rule="evenodd" opacity=".3" style="paint-order:stroke fill markers"/><g stroke-linecap="round" stroke-linejoin="round" stroke-width="2"><rect x="8" y="12" width="28" height="28" ry="14" fill="#fff"/><path d="m22 25s6-10 6-12l3 1c-2 5-9 11-9 11z" fill="#5c4881"/><path d="m22 25v7s20-24 13-26c-3.0406-0.86874-11 6-11 6s5-4 7-3-9 16-9 16z" fill="#fff"/><path d="m37.273 5.1152c0.20584 2.2197-0.64538 8.0348-10.273 19.885-8.5765 10.556-15.848 14.583-19.803 16.102 1.2516 1.1781 2.9403 1.8984 4.8027 1.8984h2.8516l22.148-26 2.5488-11.041c-0.69048-0.40518-1.4581-0.69464-2.2754-0.84375z" fill="#5c4881"/><path d="m30 32-14.666 11h5.8477c3.8993-3.6225 8.8184-11 8.8184-11z" fill="#5c4881"/><path d="m38.824 5.5898c0.039755 0.49018 0.023628 1.0342-0.12305 1.543-5.8003 20.121-22.609 31.643-29.1 35.447 0.74776 0.27118 1.5547 0.41992 2.3984 0.41992h5.4922c4.8928-3.4065 20.422-15.268 25.469-31.744-0.26662-2.5478-1.8887-4.6789-4.1367-5.666z" fill="#fff"/></g></svg>
