<?xml version="1.0" encoding="UTF-8"?>
<!-- Created with Inkscape (http://www.inkscape.org/) -->
<svg id="SVGRoot" width="48px" height="48px" version="1.1" viewBox="0 0 48 48" xmlns="http://www.w3.org/2000/svg" xmlns:cc="http://creativecommons.org/ns#" xmlns:dc="http://purl.org/dc/elements/1.1/" xmlns:rdf="http://www.w3.org/1999/02/22-rdf-syntax-ns#">
 <defs id="defs815">
  <style id="style819">.cls-1{fill:none;stroke:#fff;stroke-linecap:round;stroke-linejoin:round;}</style>
  <style id="style2">.a{fill:none;stroke:#b1b5bd;stroke-linecap:round;stroke-linejoin:round;isolation:isolate;opacity:0.63;}</style>
  <style id="style2-4">.a{fill:none;stroke:#b1b5bd;stroke-linecap:round;stroke-linejoin:round;isolation:isolate;opacity:0.63;}</style>
 </defs>
 <metadata id="metadata818">
  <rdf:RDF>
   <cc:Work rdf:about="">
    <dc:format>image/svg+xml</dc:format>
    <dc:type rdf:resource="http://purl.org/dc/dcmitype/StillImage"/>
    <dc:title/>
   </cc:Work>
  </rdf:RDF>
 </metadata>
 <g id="layer1">
  <rect id="rect1373-5" x="4" y="4" width="40" height="40" ry="8" fill="#4e4e4e" fill-rule="evenodd" style="paint-order:stroke fill markers"/>
  <path id="path835" d="m19.101 19.532s3.9621 3.4483 6.4462 4.6738c6.0573 2.9884 11.527 1.4154 11.527 1.4154l-0.05463-2.6768s-4.5434 2.1553-10.871-0.21358c-1.871-0.70044-4.4249-3.472-4.4249-3.472z" fill="#ccd2da"/>
  <path id="path881" d="m21.842 31.842c-4.2709 0.0928-8.4567 5.6671-11.098 10.025 0.40488 0.085598 0.82476 0.13281 1.2559 0.13281h21.922c-3.0007-4.4483-7.7412-10.252-12.08-10.158z" fill="#607d5e"/>
  <path id="path875" d="m41.969 36.615c-3.8908 1.1008-8.4836 2.8095-13 5.3848h7.0312c3.1162 0 5.6626-2.3519 5.9688-5.3848z" fill="#acd393"/>
  <path id="path833" d="m36.363 6.0391c-4.0368-0.067923-6.3906 2.9492-6.3906 2.9492l3.168 11.908 3.7148 3.7695 0.10938 2.2402 0.27344 1.9668s0.26678 2.7489 0.71094 4.043c0.66905 1.9493 2.8945 5.4629 2.8945 5.4629 0 0-0.24666 2.5466-0.27344 3.8242-0.01208 0.57675-8.68e-4 1.1589 0.0039 1.7402 0.36697-0.05276 0.71964-0.14432 1.0469-0.28906 0.05873-1.7305 0.9707-4.7832 0.9707-4.7832l1.4082-0.044922v-11.311c-1.5526-2.0012-2.9817-3.279-3.1016-4.0508-0.39029-2.5133 1.6959-6.8245 3.1016-7.3691v-6.0215c-2.2347-2.0378-4.7541-3.9867-7.6367-4.0352z" fill="#fff"/>
  <path id="rect817" d="m12 4c-4.432 0-8 3.568-8 8v24c0 4.432 3.568 8 8 8h24c4.432 0 8-3.568 8-8v-24c0-4.432-3.568-8-8-8h-24zm0 1h24c3.878 0 7 3.122 7 7v24c0 3.878-3.122 7-7 7h-24c-3.878 0-7-3.122-7-7v-24c0-3.878 3.122-7 7-7z" fill-rule="evenodd" opacity=".4" style="paint-order:stroke fill markers"/>
  <path id="path839" d="m25.367 16.909c1.7438-1.151 3.0212-1.9666 3.0212-1.9666s0.45563-4.2385 1.5842-5.9546c0.42038-0.63917 1.038-1.0251 1.8028-1.0054 3.0961 0.07978 6.9072 2.6202 7.2 5.7035 0.28822 3.0352-0.74184 7.0288-5.8343 7.3148-1.6597 0.0932-4.5342-2.1796-4.5342-2.1796s-0.89175-0.01437-2.4202 0c-0.43435 0.0041-0.92926-0.30768-1.0926-0.71018-0.15447-0.38068-0.06972-0.97552 0.27314-1.2018z" fill="#f6a559"/>
  <rect id="rect841" x="30" y="12" width="2" height="2" ry="1" fill="#4e4e4e" fill-rule="evenodd" stroke-width=".40648" style="paint-order:stroke fill markers"/>
  <rect id="rect841-2" x="33.979" y="12.979" width="2.0213" height="2.0213" ry="1.0106" fill="#4e4e4e" fill-rule="evenodd" stroke-width=".4108" style="paint-order:stroke fill markers"/>
  <path id="path879" d="m6 30.381v5.6191c0 3.324 2.676 6 6 6h3.332c-1.4122-3.1097-4.1967-7.785-9.332-11.619z" fill="#86ae6b"/>
  <path id="path829" d="m2.7127 26.254c-0.77872-2.4929-1.1582-6.8087 0.60092-7.8119 1.3971-0.79677 3.0525 1.0754 4.6435 1.3111 3.8014 0.56315 7.6999 0.57067 11.527 0.21852 2.7952-0.25722 5.2536-0.96957 8.7158-1.7972 0.91068-0.21771 2.501-0.252 2.7314 0.65555 0.24115 0.94981-1.2506 1.6718-2.1852 1.9666-2.5537 0.80554-6.5483 1.5421-9.426 2.7259-3.0442 1.2523-6.2209 2.5166-8.686 4.6981-1.2714 1.1251-1.2531 4.097-2.95 4.1518-2.6264 0.08481-4.1877-3.6102-4.9712-6.1184z" fill="#efdc9b"/>
  <path id="path831" d="m3.696 26.363c-0.69389-2.0913-1.2229-6.2065 0.054629-6.6101 1.2526-0.39578 3.1358 2.8326 3.7694 4.7527 0.69084 2.0935 1.1146 6.042-0.21852 6.6101-0.98691 0.42059-2.9793-2.8654-3.6055-4.7527z" fill="#ad946a" stroke-width=".32198"/>
  <path id="path829-1" d="m28.979 18.057c-0.28076 0.01965-0.55163 0.06276-0.7793 0.11719-3.4622 0.82766-5.9197 1.5397-8.7148 1.7969-3.8268 0.35215-7.7259 0.34636-11.527-0.2168-1.591-0.23569-3.2455-2.1093-4.6426-1.3125-1.7591 1.0032-1.3803 5.3196-0.60156 7.8125 0.78353 2.5083 2.3443 6.204 4.9707 6.1191 1.6968-0.0548 1.6798-3.0273 2.9512-4.1523 2.4651-2.1814 5.6413-3.4469 8.6855-4.6992 2.8777-1.1838 6.8721-1.9191 9.4258-2.7246 0.93455-0.2948 2.4267-1.017 2.1855-1.9668-0.17281-0.68066-1.1108-0.83238-1.9531-0.77344zm0.06836 1.002c0.22451-0.01534 0.45223-0.01396 0.63086 0.01172 0.08293 0.01192 0.09899 0.02593 0.1543 0.04297-0.04604 0.04793-0.05915 0.07767-0.14258 0.13867-0.31516 0.23046-0.85466 0.46699-1.2441 0.58984-2.4351 0.76814-6.462 1.5037-9.5059 2.7559-3.0368 1.2493-6.328 2.5361-8.9687 4.873-0.96471 0.8537-1.2361 2.0193-1.5762 2.8457-0.17005 0.41319-0.34485 0.7406-0.47656 0.89648-0.13171 0.15588-0.13293 0.15587-0.26562 0.16016-0.83862 0.02708-1.589-0.55576-2.3125-1.6426-0.72346-1.0868-1.2948-2.5683-1.6719-3.7754-0.35417-1.1338-0.63253-2.7734-0.60742-4.1484 0.012553-0.68752 0.1037-1.3082 0.25391-1.748 0.1502-0.43989 0.33582-0.65776 0.49414-0.74805 0.12906-0.0736 0.20821-0.08659 0.41992-0.04883 0.21171 0.03776 0.52429 0.16061 0.88281 0.3418 0.71704 0.36237 1.5738 0.97195 2.6992 1.1387 3.8982 0.57749 7.8759 0.58256 11.766 0.22461 2.9097-0.26776 5.4154-0.99793 8.8555-1.8203 0.16943-0.0405 0.39073-0.07255 0.61523-0.08789z" color="#000000" color-rendering="auto" dominant-baseline="auto" image-rendering="auto" opacity=".25" shape-rendering="auto" solid-color="#000000" style="font-feature-settings:normal;font-variant-alternates:normal;font-variant-caps:normal;font-variant-ligatures:normal;font-variant-numeric:normal;font-variant-position:normal;isolation:auto;mix-blend-mode:normal;shape-padding:0;text-decoration-color:#000000;text-decoration-line:none;text-decoration-style:solid;text-indent:0;text-orientation:mixed;text-transform:none;white-space:normal"/>
  <path id="path837" d="m19.101 19.532c-0.0929-0.71691 0.9889-1.3133 1.6935-1.475 0.95578-0.21931 2.3942 0.17179 2.7314 1.0926 0.2971 0.81106-0.52978 1.5853-1.3657 1.8028-1.0798 0.28084-2.9158-0.3139-3.0592-1.4204z" fill="#fff"/>
  <path id="path833-8" d="m37.73 27.734s-2.9547 0.56423-3.9824 0.3824c-0.93826-0.166-1.6238-0.59575-2.2563-1.3083-1.319-1.4859-1.448-6.4567-1.448-6.4567s-0.05933-1.6294-0.60092-2.1305c-0.61335-0.56756-1.7025-0.8482-2.4583-0.49166-0.52313 0.24679-0.88897 0.95538-0.81943 1.5296 0.1178 0.97284 1.9666 2.1852 1.9666 2.1852s0.42115 3.9508 1.2841 5.3095c0.75984 1.1964 1.2759 2.6204 2.5841 3.1657 1.5808 0.65889 6.0037-0.21852 6.0037-0.21852z" fill="#fff"/>
 </g>
</svg>
