<?xml version="1.0" encoding="UTF-8"?>
<!-- Created with Inkscape (http://www.inkscape.org/) -->
<svg id="SVGRoot" width="48px" height="48px" version="1.1" viewBox="0 0 48 48" xml:space="preserve" xmlns="http://www.w3.org/2000/svg" xmlns:cc="http://creativecommons.org/ns#" xmlns:dc="http://purl.org/dc/elements/1.1/" xmlns:rdf="http://www.w3.org/1999/02/22-rdf-syntax-ns#"><defs><style>.cls-1{fill:none;stroke:#fff;stroke-linecap:round;stroke-linejoin:round;}</style></defs><metadata><rdf:RDF><cc:Work rdf:about=""><dc:format>image/svg+xml</dc:format><dc:type rdf:resource="http://purl.org/dc/dcmitype/StillImage"/></cc:Work></rdf:RDF></metadata><path d="m12 4c-4.432 0-8 3.568-8 8v3l26 29h6c4.432 0 8-3.568 8-8v-24c0-4.432-3.568-8-8-8h-24z" fill="#70c8db" fill-rule="evenodd" style="paint-order:stroke fill markers"/><g stroke-linecap="round" stroke-linejoin="round"><g stroke-width="1.9439"><path d="m28.801 6.3926-2.5508 2.2598c0-1e-7 -0.86636-0.61378-2.6074-0.63672-3.1185-0.04109-5.5059 1.7949-5.5059 1.7949s-3.4462-0.80171-5.2754 0c-2.6114 1.1445-4.0021 1.1434-6.918 5.0313-0.97195-0.97195-1.9434-0.97266-1.9434-0.97266v22.131c0 4.432 3.568 8 8 8h16.299l4.8594-27.215c-0.62543-5.3041-3.6621-6.5098-3.6621-6.5098l1.4473-0.75391-1.9121-1.1582-0.23047-1.9707z" fill="#533948" style="paint-order:stroke fill markers"/><path d="m12.748 27.477s-2.9159 0.97195-2.9159 3.8878c0 5.8317 4.8598 11.663 4.8598 11.663l1.9439-1.9439 1.9439 2.9159h12.635l0.97195-7.7756-2.9159-17.495c-5.3236 3.2624-10.946 5.9588-16.523 8.7476z" fill="#ff8d1b" style="paint-order:stroke fill markers"/><path d="m23.439 8.0377s3.0463 1.5316 3.8878 2.9159c1.0237 1.684 0.97195 5.8317 0.97195 5.8317l12.288 1.9439-1.5962 8.7476-0.97195 0.97195s1.1416 1.2396 0.97195 1.9439c-0.7977 3.3119-4.7573 6.8037-9.7195 6.8037s-7.7756-2.9159-7.7756-2.9159l8.7476-4.8598s-2.2337-2.7395-1.9439-5.8317c0.27205-2.9031 0-3.8878 0-3.8878l-5.8317 2.9159s2.4036-2.351 2.9159-3.8878c0.97195-2.9159-1.2232-5.0085-2.9159-6.8037-1.491-1.5813-4.3309-2.1141-4.3309-2.1141 1.3394-2.0917 5.3029-1.7737 5.3029-1.7737z" fill="#F6E9D9" style="paint-order:stroke fill markers"/><path d="m31.215 22.617c-0.35358-1.95 2.0529-4.3576 5.8317-4.8598 2.336-0.31045 4.5903 0.31222 4.8598 0.97195 0.22021 0.53915-0.0664 1.7459-0.0664 1.7459s-0.35342-0.1825-1.2171 0.57955c-0.75117 0.6628-0.57955 1.7386-0.57955 1.7386s-1.1306 1.5758-3.7671 1.7386c-0.10117-0.10074-0.24966-1.1002-1.2171-1.2171-0.68025-0.08215-1.9125 0.75342-1.9125 0.75342s-1.7881-0.6588-1.9318-1.4513z" fill="#533948" style="paint-order:stroke fill markers"/><path d="m20.523 28.449c-1.7627 0.88133 0.97195 5.8317 0.97195 5.8317s2.9159 1.9439 9.7195 0c5.6847-1.6242 6.8037-5.8317 6.8037-5.8317l-0.97195-1.9439s-2.9159 2.9159-6.8037 3.8878c-3.2054 0.80134-7.7756-2.9159-9.7195-1.9439z" fill="#533948" style="paint-order:stroke fill markers"/><path d="m32.146 31.171c2.0486 0.04452 3.8732 0.31141 4.9302 2.0668 1.0165 1.6883 1.6776 4.4522-0.23431 4.9302-3.8878 0.97195-3.5281-2.8614-5.6268-3.8878-1.8407-0.90026-5.8727 0.94255-5.8727-1.0014 0-2.3586 4.4456-2.1591 6.8037-2.1078z" fill="#ffaca7" style="paint-order:stroke fill markers"/><path d="m30.603 34.012-0.93371-2.8731-0.98524 2.4921-1.4489-0.81137-1.1011 0.69546-0.57955-1.0432-1.1591 0.6375-0.81137-1.6807-1.1591 1.6227-0.57955-2.3762-1.0432 0.86932s0.24683 1.2139 1.1591 1.8546c0.95119 0.66799 2.2029 0.83268 3.3614 0.92728 3.2507 0.26544 5.2803-0.31438 5.2803-0.31438z" fill="#F6E9D9" style="paint-order:stroke fill markers"/><path d="m17.151 13.26s0.74586 0.56688 1.2171 1.0432c-0.97528 0.32755-1.5648 1.4199-1.5648 1.4199s4.9053 0.01312 5.4478-0.86932c0.30559-0.49715-0.37671-1.7097-0.37671-1.7097s-0.40639 0.44937-0.37671 0.49262c-0.62854-1.2254-2.0864-1.1301-2.0864-1.1301s-0.04498 0.35918-0.2608 0.6375c-0.97794-0.5103-1.9994 0.11591-1.9994 0.11591z" fill="#ff8d1b" style="paint-order:stroke fill markers"/></g><path d="m27.938 14.013c-0.16894-1.427 0.43087-3.3608 0.43087-3.3608l0.54576 0.86173s0.68051-0.32663 1.0915-0.31597c1.3723 0.0356 2.0682 1.8384 2.0682 1.8384s-0.8653-0.18519-1.3788-4e-6c-0.28836 0.104-0.69938 0.47245-0.97663 0.60321-0.54859 0.25874-0.96196 0.46904-1.7809 0.37342z" fill="#ff8d1b" stroke-width="1.9269" style="paint-order:stroke fill markers"/></g><path d="m12 4c-4.432 0-8 3.568-8 8v24c0 4.432 3.568 8 8 8h24c4.432 0 8-3.568 8-8v-24c0-4.432-3.568-8-8-8zm0 1h24c3.878 0 7 3.122 7 7v24c0 3.878-3.122 7-7 7h-24c-3.878 0-7-3.122-7-7v-24c0-3.878 3.122-7 7-7z" fill-rule="evenodd" opacity=".3" style="paint-order:stroke fill markers"/></svg>
