<?xml version="1.0" encoding="UTF-8"?>
<!-- Created with Inkscape (http://www.inkscape.org/) -->
<svg id="SVGRoot" width="48px" height="48px" version="1.1" viewBox="0 0 48 48" xml:space="preserve" xmlns="http://www.w3.org/2000/svg" xmlns:cc="http://creativecommons.org/ns#" xmlns:dc="http://purl.org/dc/elements/1.1/" xmlns:rdf="http://www.w3.org/1999/02/22-rdf-syntax-ns#"><defs><style>.cls-1{fill:none;stroke:#fff;stroke-linecap:round;stroke-linejoin:round;}</style></defs><metadata><rdf:RDF><cc:Work rdf:about=""><dc:format>image/svg+xml</dc:format><dc:type rdf:resource="http://purl.org/dc/dcmitype/StillImage"/></cc:Work></rdf:RDF></metadata><rect x="4" y="4" width="40" height="40" ry="8" fill="#da88ea" fill-rule="evenodd" style="paint-order:stroke fill markers"/><path d="m13.743 38.08c-0.16021-0.03326-0.44042-0.09198-0.62269-0.13048-0.4523-0.09555-0.90656-0.57194-0.90656-0.9507 0-0.17179 0.91462-2.7461 2.0325-5.7207 1.9571-5.2077 2.0293-5.4388 1.9463-6.2306-0.08341-0.79621-0.06985-0.83842 0.42733-1.3297l0.51347-0.50739-1.8952-1.5766c-1.831-1.5232-1.9266-1.6309-2.8201-3.1782-0.50869-0.88087-1.1218-1.8473-1.3625-2.1475-0.47527-0.59296-1.0265-1.7513-1.0265-2.1571 0-0.33288 0.51493-0.7864 0.77914-0.68622 0.11408 0.04325 1.4109 0.09671 2.8819 0.11879l2.6745 0.04015 1.7925-3.4408 1.871-0.09153c2.498-0.12221 7.3975-0.12295 8.9346-0.0014l1.238 0.09794 1.1216 1.0539c1.1559 1.0862 6.4129 7.3459 6.5017 7.7419 0.02742 0.1223-0.10834 0.39405-0.3017 0.6039-0.31948 0.34672-1.2774 2.5484-1.2774 2.936 0 0.08879 0.12872 0.29681 0.28605 0.46229 0.44556 0.46866 2.501 4.97 2.4054 5.2677-0.12866 0.40056-0.77012 0.447-1.9536 0.14144-1.006-0.25973-1.1556-0.2645-2.1118-0.06731-0.64914 0.13386-1.2533 0.37037-1.6361 0.64053l-0.60701 0.4283-3.3164-0.57611c-1.824-0.31686-3.3673-0.57611-3.4295-0.57611-0.24837 0-0.44559 0.6091-0.29706 0.91746 0.29296 0.60822 0.31903 0.84919 0.15161 1.4013-0.36402 1.2006-1.7747 2.2865-2.9703 2.2865-0.54152 0-1.4161-0.27458-2.8008-0.8793-0.34258-0.14962-0.73582-0.27119-0.87386-0.27016-0.18203 0.0014-0.60589 0.74264-1.5429 2.6984-0.71056 1.4831-1.3986 2.8165-1.5289 2.9631-0.45628 0.51331-1.5704 0.86472-2.2767 0.71812z" fill="#2b2b2b" stroke-width=".14478"/><path d="m12 4c-4.432 0-8 3.568-8 8v24c0 4.432 3.568 8 8 8h24c4.432 0 8-3.568 8-8v-24c0-4.432-3.568-8-8-8zm0 1h24c3.878 0 7 3.122 7 7v24c0 3.878-3.122 7-7 7h-24c-3.878 0-7-3.122-7-7v-24c0-3.878 3.122-7 7-7z" fill-rule="evenodd" opacity=".3" style="paint-order:stroke fill markers"/><g stroke-width=".14478"><path d="m29.332 11.807c0.37062-0.76419 0.45557-1.063 0.32201-1.1325-0.09977-0.05198-0.96789-0.13476-1.9291-0.18399l-1.7477-0.0895 1.2924 1.222c0.7108 0.67211 1.3524 1.222 1.4257 1.222 0.07334 0 0.35989-0.46711 0.63678-1.038z" fill="#D49E74"/><path d="m35.002 17.175c0.29396-0.64417 0.36378-0.49374-0.99407-2.1417-0.46962-0.56997-0.91032-1.0363-0.97935-1.0363-0.14183 0-0.56991 0.76183-0.56991 1.0142 0 0.17284 2.0476 2.705 2.1989 2.7193 0.04791 0.0045 0.20289-0.24546 0.34439-0.55553z" fill="#F9CD8B"/><path d="m26.389 17.163c1.1116-2.0523 1.7075-3.3123 1.7696-3.7418l0.09366-0.64762-2.5656-2.3158-7.06 0.11806-0.80288 1.5192c-0.44158 0.83554-0.80288 1.5729-0.80288 1.6386 0 0.06567 0.63901 0.12642 1.42 0.13501 0.78101 0.0086 1.8045 0.05716 2.2744 0.10794 0.8338 0.09009 0.85983 0.1062 1.0792 0.66798 0.12362 0.31662 0.40861 0.82818 0.63331 1.1368 0.2247 0.30864 0.7786 1.4963 1.2309 2.6392 0.4523 1.1429 0.87454 2.0238 0.93831 1.9574s0.87013-1.5131 1.7919-3.2149z" fill="#D49E74"/><path d="m23.254 18.854c-0.47711-1.2071-1.0241-2.3875-1.2156-2.6231l-0.34814-0.42833-3.8788 0.47383c-2.1334 0.2606-3.9117 0.44134-3.9519 0.40163-0.10069-0.09949 0.40781-0.17948 4.2371-0.66649 1.8336-0.23319 3.3577-0.4476 3.3869-0.47646 0.02921-0.02886-0.01916-0.25725-0.10746-0.50755-0.11099-0.31461-0.2573-0.45804-0.474-0.46466-0.1724-0.0052-2.509-0.09167-5.1925-0.19202-2.6835-0.10035-4.906-0.16112-4.939-0.13506-0.14928 0.11798 0.38658 1.298 0.86331 1.9011 0.28969 0.36646 0.90498 1.3139 1.3673 2.1055 0.46234 0.79154 0.88926 1.4897 0.94872 1.5514 0.10184 0.10578 8.7363 1.2077 9.7159 1.2399l0.45566 0.01499z" fill="#976F4F"/><path d="m36.079 21.252c0.35013-0.9041 0.38453-1.1282 0.15132-0.98573-0.27522 0.16808 0.09672-0.4067 0.51091-0.78952 0.20761-0.1919 0.37748-0.42067 0.37748-0.5084 0-0.19706-1.5788-2.093-1.743-2.093-0.06535 0-0.15585 0.14572-0.20111 0.32381-0.04525 0.1781-0.17939 0.45334-0.29807 0.61164-0.19942 0.266-0.23027 0.26964-0.40684 0.04791-0.10508-0.13196-0.66956-0.79141-1.2544-1.4654l-1.0633-1.2255 0.74297-1.4488-1.0035-1.1234c-0.90342-1.0114-1.6686-1.6278-1.8187-1.465-0.04674 0.05066-0.7937 1.4397-0.93523 1.7391-0.02492 0.05272 2.7478 0.61153 2.8924 0.65446 0.14461 0.04293-1.5739-0.10304-2.8796-0.44273-0.46747-0.12162-0.62457 0.1053-0.62457 0.64084 0 0.1525-0.75398 1.7663-1.6755 3.5861-0.92153 1.8199-1.6406 3.3089-1.598 3.3089 0.04265 0 1.6943-0.35619 3.6703-0.79154 1.976-0.43535 3.6946-0.79024 3.819-0.78866 0.12444 0.0016 0.81208 0.68159 1.5281 1.5111 0.71602 0.82953 1.3459 1.5082 1.3998 1.5082 0.05388 0 0.23813-0.36196 0.40945-0.80435z" fill="#BD8659"/><path d="m18.94 21.732c0.23924-0.29683 0.39397-0.53969 0.34385-0.53969-0.05011 0-0.94547-0.10293-1.9897-0.22872-1.0442-0.1258-1.9249-0.20273-1.957-0.17095-0.03216 0.03178 0.47165 0.49036 1.1196 1.0191l1.178 0.9613 0.43514-0.25066c0.23933-0.13786 0.63088-0.49352 0.87011-0.79034z" fill="#583E32"/><path d="m34.303 27.801 1.1891-0.17881 0.09354-1.5241c0.13158-2.1439 0.18618-2.2169 0.2057-0.27502l0.0169 1.6808 0.76463 0.21696c1.4759 0.41877 1.6206 0.43962 1.5321 0.22078-0.04481-0.11079-0.49797-1.1027-1.007-2.2043-0.89818-1.9436-0.98088-2.0641-2.7943-4.0716-1.319-1.4602-1.9402-2.0484-2.1118-1.9996-0.13371 0.03806-1.685 0.40102-3.4472 0.80656-3.9682 0.91318-3.6485 0.80911-3.4026 1.1073 0.10915 0.13238 1.7386 1.6573 3.6211 3.3886 2.921 2.6866 3.476 3.1379 3.7867 3.0796 0.20026-0.0376 0.89921-0.14882 1.5532-0.24717z" fill="#976F4F"/><path d="m31.585 28.478c0-0.02976-1.1507-1.1414-2.5571-2.4702l-2.5571-2.4161 0.09637 1.4269c0.07367 1.0905 0.04532 1.571-0.12029 2.0385-0.11917 0.3364-0.20796 0.61568-0.1973 0.62062 0.01068 0.0049 1.068 0.19224 2.3497 0.41624 2.2991 0.40183 2.9857 0.49017 2.9857 0.38418z" fill="#583E32"/></g><g fill="#fff" stroke-width=".14478"><path d="m20.141 28.882c0.38394-0.37938 0.42177-0.88898 0.16287-2.1938-0.25792-1.2998-0.48404-1.7975-1.0079-2.2184-0.17022-0.13676-0.23259-0.25009-0.13861-0.25185 0.32534-0.0061 1.0158 0.70101 1.2879 1.319 0.15033 0.34137 0.2876 0.6421 0.30505 0.6683 0.10426 0.15655 0.70722-0.37943 1.2148-1.0798 0.65881-0.90911 0.74816-1.4855 0.34865-2.2491-0.22735-0.43454-0.2268-0.44897 0.0096-0.25519 0.6881 0.56403 0.83624 1.495 0.37892 2.3814-0.24851 0.48166-0.26084 0.59266-0.08733 0.78599 0.11113 0.12382 0.30354 0.46798 0.42759 0.76481 0.13608 0.32562 0.32408 0.53969 0.47398 0.53969 0.13665 0 0.50205 0.26343 0.81201 0.58541l0.56357 0.58541 0.38903-0.83726c0.543-1.1686 0.54199-2.1204-3e-3 -2.827-0.22436-0.29086-0.34292-0.52884-0.26347-0.52884 0.07945 0 0.18929 0.07168 0.24408 0.15928 0.17069 0.27291 0.34986-0.17869 0.35227-0.88792 0.0022-0.65704-0.15977-0.89945-1.0333-1.5461-0.20066-0.14856-3.0501-0.60357-3.7798-0.60357-0.13533 0-0.46719 0.32061-0.73747 0.71247-0.31525 0.45705-0.94829 1.032-1.7658 1.6037-0.99846 0.69829-1.2744 0.96616-1.2744 1.2372 0 0.25427 0.82362 1.9815 1.2401 2.6006 0.01387 0.02063 0.3046-0.05987 0.64603-0.17892 0.68245-0.23793 0.7995-0.20916 1.0471 0.25736 0.16693 0.3145 0.16632 0.31466-0.14804 0.03878-0.29998-0.26324-0.34084-0.26515-0.82223-0.03831-0.27861 0.13129-0.50656 0.29479-0.50656 0.36335 0 0.06856 0.19703 0.39342 0.43784 0.72191 0.46484 0.63409 0.84426 0.74896 1.2264 0.37132z"/><path d="m20.399 30.767c0.29115-0.11901 1.2248-1.3053 1.7838-2.2666 0.40698-0.6998 0.39782-0.81246-0.1115-1.3715-0.3008-0.33017-0.15445-0.46536 0.16357-0.15111 0.28185 0.27851 0.22028-0.1723-0.06627-0.48518-0.5652-0.61714-1.3048-0.06065-1.1469 0.86294 0.12673 0.74122-0.14122 1.6993-0.54757 1.9578-0.17709 0.11266-0.56222 0.2482-0.85584 0.30118-0.42037 0.07586-0.55342 0.17755-0.6259 0.47837-0.05062 0.21012-0.12442 0.4901-0.164 0.62218-0.11569 0.38608 0.68805 0.41266 1.5706 0.05194z"/><path d="m22.568 31.041c0.83181-0.60337 1.5858-1.7729 1.5879-2.4628 9.61e-4 -0.3236-0.11082-0.54448-0.38238-0.75556-0.21106-0.16405-0.42507-0.29828-0.47556-0.29828-0.0505 0-0.20443 0.30762-0.34208 0.6836-0.33033 0.90231-1.4075 2.2947-2.1631 2.7962-0.59861 0.39726-0.60139 0.40312-0.25878 0.54525 0.55851 0.23169 1.2531 0.05808 2.034-0.5084z"/><path d="m23.75 31.841c1.0444-0.68356 1.6439-1.7397 1.2958-2.2826-0.18891-0.29468-0.39925-0.1637-1.0014 0.6236-0.50129 0.65539-1.4968 1.5249-1.9543 1.7069-0.14976 0.05959-0.14375 0.10815 0.02825 0.22835 0.3814 0.26653 0.94921 0.1704 1.6316-0.27626z"/><path d="m15.361 36.805c0.36377-0.35946 1.0766-1.7749 1.0766-2.1377 0-0.10401-0.2268-0.3098-0.504-0.45731-0.65087-0.34636-0.56013-0.4352 0.14651-0.14345 0.30132 0.1244 0.56005 0.20915 0.57496 0.18833 0.04964-0.06936 1.0933-2.7014 1.0933-2.7573 0-0.03023-0.22709-0.09705-0.50464-0.1485-0.27755-0.05145-0.54346-0.15561-0.59089-0.23146-0.05313-0.08493 0.06044-0.0828 0.29566 0.0055 0.95161 0.35751 1.3651-0.1297 0.43577-0.51342-0.52933-0.21855-0.70039-0.42098-0.25488-0.30163 1.0223 0.27388 1.0178 0.27529 1.2769-0.39528l0.24495-0.63378-0.77915-1.3054c-0.42853-0.71799-0.81246-1.307-0.85317-1.3089-0.0407-0.0019-0.95358 2.2719-2.0286 5.0528-1.861 4.8142-1.9415 5.0656-1.6823 5.2529 0.14977 0.10821 0.59046 0.19675 0.9793 0.19675 0.56123 0 0.78259-0.07468 1.0736-0.36226z"/></g></svg>
