<?xml version="1.0" encoding="UTF-8"?>
<!-- Created with Inkscape (http://www.inkscape.org/) -->
<svg id="SVGRoot" width="48px" height="48px" version="1.1" viewBox="0 0 48 48" xml:space="preserve" xmlns="http://www.w3.org/2000/svg" xmlns:cc="http://creativecommons.org/ns#" xmlns:dc="http://purl.org/dc/elements/1.1/" xmlns:rdf="http://www.w3.org/1999/02/22-rdf-syntax-ns#"><defs><style>.cls-1{fill:none;stroke:#fff;stroke-linecap:round;stroke-linejoin:round;}</style></defs><metadata><rdf:RDF><cc:Work rdf:about=""><dc:format>image/svg+xml</dc:format><dc:type rdf:resource="http://purl.org/dc/dcmitype/StillImage"/></cc:Work></rdf:RDF></metadata><rect x="4" y="4" width="40" height="40" ry="8" fill="#3f426d" fill-rule="evenodd" style="paint-order:stroke fill markers"/><path d="m10 10v8h2v16l4 4h8v-2l2 2h8l4-4v-16l-8-8h-8l-2 2v-2z" fill="#ED4187" stroke-linecap="round" stroke-linejoin="round" stroke-width="2"/><path d="m12 4c-4.432 0-8 3.568-8 8v24c0 4.432 3.568 8 8 8h24c4.432 0 8-3.568 8-8v-24c0-4.432-3.568-8-8-8zm0 1h24c3.878 0 7 3.122 7 7v24c0 3.878-3.122 7-7 7h-24c-3.878 0-7-3.122-7-7v-24c0-3.878 3.122-7 7-7z" fill-rule="evenodd" opacity=".3" style="paint-order:stroke fill markers"/><g fill="#F9EC6D" stroke-linecap="round" stroke-linejoin="round" stroke-width="2"><path d="m20 15 3-3h6l3 3v14l-3 3h-6l-3-3z"/><rect x="14" y="12" width="4" height="20"/><rect x="12" y="12" width="6" height="4"/></g><rect x="25" y="17" width="2" height="10" fill="#ED4187" stroke-linecap="round" stroke-linejoin="round" stroke-width="2"/></svg>
