<?xml version="1.0" encoding="UTF-8"?>
<!-- Created with Inkscape (http://www.inkscape.org/) -->
<svg id="SVGRoot" width="48px" height="48px" version="1.1" viewBox="0 0 48 48" xmlns="http://www.w3.org/2000/svg" xmlns:cc="http://creativecommons.org/ns#" xmlns:dc="http://purl.org/dc/elements/1.1/" xmlns:rdf="http://www.w3.org/1999/02/22-rdf-syntax-ns#">
 <defs id="defs815">
  <style id="style819">.cls-1{fill:none;stroke:#fff;stroke-linecap:round;stroke-linejoin:round;}</style>
 </defs>
 <metadata id="metadata818">
  <rdf:RDF>
   <cc:Work rdf:about="">
    <dc:format>image/svg+xml</dc:format>
    <dc:type rdf:resource="http://purl.org/dc/dcmitype/StillImage"/>
    <dc:title/>
   </cc:Work>
  </rdf:RDF>
 </metadata>
 <g id="layer1">
  <rect id="rect1373-5" x="4" y="4" width="40" height="40" ry="8" fill="#58d4d2" fill-rule="evenodd" style="paint-order:stroke fill markers"/>
  <path id="rect817" d="m12 4c-4.432 0-8 3.568-8 8v24c0 4.432 3.568 8 8 8h24c4.432 0 8-3.568 8-8v-24c0-4.432-3.568-8-8-8h-24zm0 1h24c3.878 0 7 3.122 7 7v24c0 3.878-3.122 7-7 7h-24c-3.878 0-7-3.122-7-7v-24c0-3.878 3.122-7 7-7z" fill-rule="evenodd" opacity=".3" style="paint-order:stroke fill markers"/>
  <path id="path828" d="m24 8 10 12-10 20-10-20z" fill="#4e4e4e"/>
  <rect id="rect927" x="19" y="13" width="10" height="10" ry="5" fill="#943657" fill-rule="evenodd" style="paint-order:stroke fill markers"/>
  <rect id="rect834" x="20" y="14" width="8" height="8" ry="4" fill="#f97263" fill-rule="evenodd" style="paint-order:stroke fill markers"/>
  <rect id="rect836" x="22" y="16" width="4" height="4" ry="2" fill="#fff" fill-rule="evenodd" opacity=".75" style="paint-order:stroke fill markers"/>
  <path id="path832-2" d="m24 17v23l10-20z" opacity=".4"/>
  <path id="path830" d="m24 8v9l-10 3z" fill="#fff"/>
 </g>
</svg>
