<?xml version="1.0" encoding="UTF-8"?>
<!-- Created with Inkscape (http://www.inkscape.org/) -->
<svg id="SVGRoot" width="48px" height="48px" version="1.1" viewBox="0 0 48 48" xml:space="preserve" xmlns="http://www.w3.org/2000/svg" xmlns:cc="http://creativecommons.org/ns#" xmlns:dc="http://purl.org/dc/elements/1.1/" xmlns:rdf="http://www.w3.org/1999/02/22-rdf-syntax-ns#"><defs><style>.cls-1{fill:none;stroke:#fff;stroke-linecap:round;stroke-linejoin:round;}</style><style>.cls-1{fill:none;stroke:#fff;stroke-linecap:round;stroke-linejoin:round;}</style><style>.cls-1{fill:none;stroke:#fff;stroke-linecap:round;stroke-linejoin:round;}</style><style id="current-color-scheme" type="text/css">.ColorScheme-Text {
        color:#31363b;
      }
      .ColorScheme-Accent {
        color:#3daee9;
      }</style><style type="text/css">.ColorScheme-Text {
        color:#31363b;
      }
      .ColorScheme-Accent {
        color:#3daee9;
      }</style><style>.cls-1{fill:none;stroke:#fff;stroke-linecap:round;stroke-linejoin:round;}</style><style>.cls-1{fill:none;stroke:#fff;stroke-linecap:round;stroke-linejoin:round;}</style><style>.cls-1{fill:none;stroke:#fff;stroke-linecap:round;stroke-linejoin:round;}</style></defs><metadata><rdf:RDF><cc:Work rdf:about=""><dc:format>image/svg+xml</dc:format><dc:type rdf:resource="http://purl.org/dc/dcmitype/StillImage"/></cc:Work></rdf:RDF></metadata><rect x="4" y="4" width="40" height="40" ry="8" fill="#1bd1aa" fill-rule="evenodd" style="paint-order:stroke fill markers"/><path d="m12 4c-4.432 0-8 3.568-8 8v24c0 4.432 3.568 8 8 8h24c4.432 0 8-3.568 8-8v-24c0-4.432-3.568-8-8-8zm0 1h24c3.878 0 7 3.122 7 7v24c0 3.878-3.122 7-7 7h-24c-3.878 0-7-3.122-7-7v-24c0-3.878 3.122-7 7-7z" fill-rule="evenodd" opacity=".3" style="paint-order:stroke fill markers"/><path d="m12 38 19.285-10.594s5.1216-2.7583 5.3968-8.5169c0.14606-3.0562-1.4968-6.4509-1.4968-6.4509l-0.18973-2.319s-0.96937 2.5023-1.0962 6.4931l1.0541-2.1081s0.6966 2.6359 0.29514 4.132c-1.6091 5.9963-6.2401 6.7461-6.2401 6.7461s3.1194-3.3016 3.7947-7.5472c0.72512-4.5593 0.2956-4.2812 0.94866-6.3034 0.33573-1.0396 0.73785-1.5389 0.73785-1.5389s-2.5976-0.39354-3.626 1.9817c-0.69516 1.6055 0.05947 3.5587-0.46379 5.2282-1.5804 5.0424-3.5838 5.7131-3.5838 5.7131s2.4942-3.2332 2.9936-6.219c0.25089-1.5002-0.03437-2.9553 0.29514-4.5536 0.26566-1.2886 1.4757-1.9395 1.4757-1.9395s-3.3368 0.30602-3.9422 3.0357c-1.0873 4.9022-2.4244 6.1136-2.4244 6.1136s1.0846-2.5645 1.3492-3.9211c0.37462-1.9204-0.67461-3.0357-0.67461-3.0357s0.01619 1.554-0.75893 2.9725c-1.0605 1.9408-2.319 2.4665-2.319 2.4665s1.3591-1.5875 1.8973-2.846c0.81188-1.8983 0-2.9725 0-2.9725s-0.30579 1.2602-1.56 1.7287c-1.4878 0.55567-5.1729 0.95151-7.6736 4.0055-2.2745 2.7777-0.46379 8.0953-0.46379 8.0953s1.6193-2.5947 3.4152-3.2465c1.033-0.37491 2.6984 0.42163 2.6984 0.42163s-1.117 1.9585-0.59028 3.2044c0.86293 2.0411 4.1741 2.3611 4.1741 2.3611l-8.4326 5.3968-0.08433-3.2044z" fill="#4e4e4e" stroke-linecap="round" stroke-linejoin="round" stroke-width="2" style="paint-order:stroke fill markers"/></svg>
