<?xml version="1.0" encoding="UTF-8"?>
<!-- Created with Inkscape (http://www.inkscape.org/) -->
<svg id="SVGRoot" width="48px" height="48px" version="1.1" viewBox="0 0 48 48" xmlns="http://www.w3.org/2000/svg" xmlns:cc="http://creativecommons.org/ns#" xmlns:dc="http://purl.org/dc/elements/1.1/" xmlns:rdf="http://www.w3.org/1999/02/22-rdf-syntax-ns#">
 <defs id="defs815">
  <style id="style819">.cls-1{fill:none;stroke:#fff;stroke-linecap:round;stroke-linejoin:round;}</style>
  <style id="style2">.a{fill:none;stroke:#b1b5bd;stroke-linecap:round;stroke-linejoin:round;isolation:isolate;opacity:0.63;}</style>
  <style id="style2-1">.a{fill:none;stroke:#b1b5bd;stroke-linecap:round;stroke-linejoin:round;isolation:isolate;opacity:0.63;}</style>
 </defs>
 <metadata id="metadata818">
  <rdf:RDF>
   <cc:Work rdf:about="">
    <dc:format>image/svg+xml</dc:format>
    <dc:type rdf:resource="http://purl.org/dc/dcmitype/StillImage"/>
    <dc:title/>
   </cc:Work>
  </rdf:RDF>
 </metadata>
 <g id="layer1">
  <rect id="rect1373" x="4" y="4" width="40" height="40" ry="8" fill="#4e4e4e" fill-rule="evenodd" style="paint-order:stroke fill markers"/>
  <path id="rect817" d="m12 4c-4.432 0-8 3.568-8 8v24c0 4.432 3.568 8 8 8h24c4.432 0 8-3.568 8-8v-24c0-4.432-3.568-8-8-8h-24zm0 1h24c3.878 0 7 3.122 7 7v24c0 3.878-3.122 7-7 7h-24c-3.878 0-7-3.122-7-7v-24c0-3.878 3.122-7 7-7z" fill-rule="evenodd" opacity=".4" style="paint-order:stroke fill markers"/>
  <path id="path829" d="m14.631 35.404c-0.33791-0.12424-0.56315-0.41248-0.56315-0.72066 0-0.17332-0.0556-0.43717-0.12357-0.58633-0.09918-0.21769-0.05474-0.53918 0.22526-1.6293 0.2175-0.8468 0.34882-1.6378 0.34882-2.101 0-0.61323 0.05779-0.84585 0.33103-1.3325 0.38755-0.69026 0.62419-1.8904 0.5378-2.7275-0.03793-0.36752-0.23281-0.92964-0.52103-1.5029-0.25324-0.50367-0.46043-0.98322-0.46043-1.0657 0-0.08245-0.06336-0.23466-0.14079-0.33822-0.1315-0.17589-0.17563-0.17566-0.66934 0.0034-0.44232 0.16045-0.59062 0.16928-0.90903 0.05414-0.50957-0.18426-1.1677-0.17347-1.8389 0.03014-0.30409 0.09224-0.61624 0.16827-0.69368 0.16894-0.4512 0.0039 0.2515-0.94945 1.0407-1.412 0.49245-0.28859 1.6094-0.49148 2.7418-0.49804 0.59324-0.0035 0.60934-0.01269 1.2867-0.73984 0.82309-0.88357 2.035-1.5282 3.3732-1.7942 1.0901-0.21667 1.4899-0.21562 3.7353 0.0098 1.9269 0.19344 3.3462 0.16859 6.108-0.10697 2.1245-0.21196 2.5004-0.4609 3.76-2.4896 0.90028-1.45 1.4359-2.0508 2.2906-2.5693 0.38258-0.23211 0.73487-0.42217 0.78286-0.42236 0.04799-1.91e-4 0.13543 0.12637 0.19432 0.28123 0.15263 0.40144 0.64124 0.34778 2.0555-0.22574 0.40516-0.1643 0.19058 0.2674-0.3752 0.75484l-0.5723 0.49308 0.27552 0.61521c0.15153 0.33837 0.41388 0.74192 0.583 0.89679 0.42837 0.39227 0.62397 0.81296 0.62397 1.342 0 0.57177-0.24292 0.71966-1.0961 0.66726-0.66167-0.04063-0.65781-0.04327-0.92696 0.63166-0.10495 0.26318-0.15415 0.2982-0.23729 0.16894-0.09135-0.14201-0.11865-0.14168-0.2114 0.0026-0.13776 0.21431-0.25943 0.08529-0.40394-0.42832-0.06393-0.22723-0.1653-0.41314-0.22526-0.41314-0.19362 0-0.54365 0.87657-0.5944 1.4885-0.03451 0.41618-0.0975 0.59511-0.20947 0.59511-0.42764 0-1.0882 1.2719-2.004 3.8585-0.21034 0.5941-0.46228 1.0447-0.78713 1.4079-0.63346 0.70814-0.73319 0.91715-0.92032 1.9288-0.25995 1.4054-0.52209 4.2704-0.44051 4.8144 0.04179 0.27861 0.25102 0.84241 0.46499 1.2529 0.34423 0.66042 0.36974 0.76562 0.22159 0.91378-0.10182 0.10182-0.39391 0.17069-0.74542 0.17575-0.50065 0.0072-0.61105-0.03312-0.82509-0.30141-0.13591-0.17035-0.32828-0.30973-0.4275-0.30973-0.29642 0-0.61418-0.36406-0.75351-0.86328-0.10385-0.37215-0.09639-0.67472 0.03612-1.4642 0.09186-0.54731 0.17252-1.2992 0.17923-1.6709 0.01699-0.94056-0.15543-2.8347-0.2683-2.9475-0.1914-0.19131-1.2122-0.03536-2.1214 0.32408l-0.938 0.37084h-2.6324c-3.1319 0-2.9407-0.09683-2.9763 1.5077-0.01948 0.87929-0.04996 1.026-0.21319 1.0262-0.10475 1.6e-4 -0.22178-0.05044-0.26006-0.11238-0.14826-0.23988-0.3942-0.1105-0.3942 0.20736 0 0.61663 0.31673 1.3617 0.94403 2.2206 0.34803 0.47657 0.63279 0.95601 0.63279 1.0654 0 0.4677-1.1525 0.37935-1.4043-0.10766-0.08558-0.1655-0.28472-0.35973-0.44252-0.43163-0.1578-0.07189-0.31166-0.24649-0.3419-0.38797-0.03024-0.14149-0.10931-0.5393-0.17571-0.88403-0.13901-0.72175-0.66065-1.8868-0.95319-2.129-0.17974-0.14878-0.22605-0.13463-0.46375 0.14171-0.30808 0.35816-0.82899 1.9143-0.91278 2.7267-0.04849 0.47016-4.93e-4 0.68404 0.29062 1.2952 0.38102 0.79996 0.41825 1.0119 0.21372 1.2164-0.13667 0.13667-0.79298 0.16953-1.1038 0.05525z" fill="#fff" stroke-width=".11263"/>
 </g>
</svg>
