<?xml version="1.0" encoding="UTF-8"?>
<!-- Created with Inkscape (http://www.inkscape.org/) -->
<svg id="SVGRoot" width="48px" height="48px" version="1.1" viewBox="0 0 48 48" xml:space="preserve" xmlns="http://www.w3.org/2000/svg" xmlns:cc="http://creativecommons.org/ns#" xmlns:dc="http://purl.org/dc/elements/1.1/" xmlns:rdf="http://www.w3.org/1999/02/22-rdf-syntax-ns#"><defs><style>.cls-1{fill:none;stroke:#fff;stroke-linecap:round;stroke-linejoin:round;}</style><style>.cls-1{fill:none;stroke:#fff;stroke-linecap:round;stroke-linejoin:round;}</style></defs><metadata><rdf:RDF><cc:Work rdf:about=""><dc:format>image/svg+xml</dc:format><dc:type rdf:resource="http://purl.org/dc/dcmitype/StillImage"/></cc:Work></rdf:RDF></metadata><g><path d="m12 4c-4.432 0-8 3.568-8 8v24c0 2.0379 0.75415 3.8931 2 5.3027h36c1.2459-1.4097 2-3.2649 2-5.3027v-24c0-4.432-3.568-8-8-8h-24z" fill="#47b67c" fill-rule="evenodd" style="paint-order:stroke fill markers"/><g stroke-linecap="round" stroke-linejoin="round"><path d="m20 10v2h-4v2h-2v2h-2v4h2v4h-2v2h-2v2h-2v4h-2v9.3027c1.4637 1.6562 3.6058 2.6973 6 2.6973h24c2.3942 0 4.5363-1.041 6-2.6973v-9.3027h-2v-4h-2v-2h-2v-2h-2v-4h2v-4h-2v-2h-2v-2h-4v-2z" fill="#2a2a2a" stroke-width="4"/><path d="m10 28v4h-2v10.936c1.1754 0.677 2.5408 1.0645 4 1.0645h12v-13h-10v-3zm24 0v3h-8v13h10c1.4592 0 2.8246-0.38746 4-1.0645v-10.936h-2v-4z" fill="#fff" stroke-width="2"/><path d="m12 26v18h12v-16h-6v-2zm18 0v2h-4v16h8v-13h2v-5z" fill="#c3970b"/><path d="m20 28v4h2v-4zm2 4v4h2v-4z" fill="#7b2b0e" stroke-width="2"/></g></g><g stroke-linecap="round" stroke-linejoin="round"><g stroke-width="2"><rect x="22" y="28" width="2" height="4" fill="#fff"/><path d="m18 28v4h-2v6h-2v6h10v-8h-2v-4h-2v-4z" fill="#9d553e"/><path d="m18 18v2h2v-2zm10 0v2h2v-2z" fill="#fff"/><path d="m22 22h4v-4h-4v2z" fill="#e98b7d"/><path d="m20 12v2h-4v2h-2v4h2v-2h2v-2h2v2h2v-2h4v2h2v-2h2v2h2v2h2v-4h-2v-2h-4v-2zm12 8h-2v2h-4v2h-4v-2h-4v-2h-2v4h2v2h12v-2h2z" fill="#fce7b1"/></g><path d="m28 14v2h2v-2zm-14 2v4h2v-2h2v-2h-2zm2 4v4h2v-4zm10 2v4h4v-4zm4 4v2h-2v4h2v6h2v-4h2v-2h2v-4h-2v-2z" fill="#d35244" stroke-width="1.4142"/></g><path d="m12 4c-4.432 0-8 3.568-8 8v24c0 4.432 3.568 8 8 8h24c4.432 0 8-3.568 8-8v-24c0-4.432-3.568-8-8-8zm0 1h24c3.878 0 7 3.122 7 7v24c0 3.878-3.122 7-7 7h-24c-3.878 0-7-3.122-7-7v-24c0-3.878 3.122-7 7-7z" fill-rule="evenodd" opacity=".3" style="paint-order:stroke fill markers"/></svg>
