<?xml version="1.0" encoding="UTF-8"?>
<!-- Created with Inkscape (http://www.inkscape.org/) -->
<svg id="SVGRoot" width="48px" height="48px" version="1.1" viewBox="0 0 48 48" xml:space="preserve" xmlns="http://www.w3.org/2000/svg" xmlns:cc="http://creativecommons.org/ns#" xmlns:dc="http://purl.org/dc/elements/1.1/" xmlns:rdf="http://www.w3.org/1999/02/22-rdf-syntax-ns#"><defs><style>.cls-1{fill:none;stroke:#fff;stroke-linecap:round;stroke-linejoin:round;}</style><style>.cls-1{fill:none;stroke:#fff;stroke-linecap:round;stroke-linejoin:round;}</style></defs><metadata><rdf:RDF><cc:Work rdf:about=""><dc:format>image/svg+xml</dc:format><dc:type rdf:resource="http://purl.org/dc/dcmitype/StillImage"/></cc:Work></rdf:RDF></metadata><g fill-rule="evenodd"><rect x="4" y="4" width="40" height="40" ry="8" fill="#70a763" style="paint-order:stroke fill markers"/><rect x="8" y="8" width="32" height="32" ry="5" fill="#4e4e4e" style="paint-order:stroke fill markers"/><path d="m12 4c-4.432 0-8 3.568-8 8v24c0 4.432 3.568 8 8 8h24c4.432 0 8-3.568 8-8v-24c0-4.432-3.568-8-8-8h-24zm0 1h24c3.878 0 7 3.122 7 7v24c0 3.878-3.122 7-7 7h-24c-3.878 0-7-3.122-7-7v-24c0-3.878 3.122-7 7-7z" opacity=".3" style="paint-order:stroke fill markers"/></g><rect x="17" y="12" width="8" height="8" ry="4" fill="#fff" stroke-linecap="round" stroke-linejoin="round" stroke-width="2" style="paint-order:stroke fill markers"/><path d="m21.055 15.002a1 1 0 0 0-0.61914 0.17383 1 1 0 0 0-0.25977 1.3887s1.0273 1.518 1.9258 3.0332c0.019654 0.19003 0.02123 0.4589-0.0625 0.75195-0.16015 0.56054-0.52854 1.2415-2.2812 1.6797-0.46003 0.11501-1.7214 0.15123-2.7578 0.10742-1.0364-0.0438-1.8984-0.13086-1.8984-0.13086a1 1 0 0 0-1.0957 0.89258 1 1 0 0 0 0.89258 1.0957s0.9155 0.09404 2.0176 0.14062c1.1021 0.04658 2.34 0.08248 3.3262-0.16406 1.5213-0.38032 2.523-1.1087 3.1172-1.9082 0.44704 1.2191 0.64062 2.5904 0.64062 3.9375 0 0.71819-0.19063 0.94666-0.62305 1.2402s-1.1783 0.52262-2.0117 0.71289-1.7361 0.34231-2.5703 0.70508-1.6988 1.146-1.791 2.2598c-0.07035 0.85001 0.31896 1.5512 0.77148 2.1211 0.45252 0.5699 1.0149 1.051 1.5664 1.4648 1.1029 0.82775 2.2031 1.3867 2.2031 1.3867a1 1 0 0 0 1.3457-0.43555 1 1 0 0 0-0.43555-1.3457s-0.9781-0.50262-1.9141-1.2051c-0.46798-0.35123-0.91632-0.75114-1.1992-1.1074s-0.35312-0.62526-0.3457-0.71484c0.02608-0.3151 0.09524-0.37221 0.5957-0.58984 0.50046-0.21764 1.3317-0.38732 2.2188-0.58984 0.88706-0.20252 1.8483-0.4354 2.6914-1.0078l0.001953-0.001953 7.8379 6.8594a1 1 0 0 0 1.4102-0.09375 1 1 0 0 0-0.09375-1.4102l-7.9102-6.9199v-0.001953c0.15893-0.40013 0.25195-0.84656 0.25195-1.3262 0-1.2851-0.14948-2.6145-0.52148-3.8906l4.9219 3.6914a1 1 0 0 0 1.4004-0.20117 1 1 0 0 0-0.20117-1.4004l-7.9902-5.9922c-0.89323-1.4815-1.7852-2.7715-1.7852-2.7715a1 1 0 0 0-0.64062-0.41797 1 1 0 0 0-0.12891-0.015625z" fill="#fff" stop-color="#000000" stroke-linecap="round" stroke-linejoin="round" style="paint-order:stroke fill markers"/></svg>
