<?xml version="1.0" encoding="UTF-8"?>
<!-- Created with Inkscape (http://www.inkscape.org/) -->
<svg id="SVGRoot" width="48px" height="48px" version="1.1" viewBox="0 0 48 48" xml:space="preserve" xmlns="http://www.w3.org/2000/svg" xmlns:cc="http://creativecommons.org/ns#" xmlns:dc="http://purl.org/dc/elements/1.1/" xmlns:rdf="http://www.w3.org/1999/02/22-rdf-syntax-ns#"><defs><style>.cls-1{fill:none;stroke:#fff;stroke-linecap:round;stroke-linejoin:round;}</style></defs><metadata><rdf:RDF><cc:Work rdf:about=""><dc:format>image/svg+xml</dc:format><dc:type rdf:resource="http://purl.org/dc/dcmitype/StillImage"/></cc:Work></rdf:RDF></metadata><rect x="4" y="4" width="40" height="40" ry="8" fill="#e7599e" fill-rule="evenodd" style="paint-order:stroke fill markers"/><path d="m23.643 9.8574c-7.5018 0-13.643 6.1407-13.643 13.643 0 3.354 1.2185 6.4622 3.2441 8.8438 0.68964 0.81083 1.4414 1.8689 1.9785 2.8223 0.58799 0.91842 0.77734 1.7917 0.77734 2.834 8.3e-5 0.82621 0 2 0 2v4h16v-4s-8.3e-5 -1.1738 0-2c-0.12117-1.0523 0.32609-1.9044 0.77734-2.834 0.53713-0.95335 1.2889-2.0114 1.9785-2.8223 2.0256-2.3816 3.2441-5.4897 3.2441-8.8438 0-7.5018-6.1407-13.643-13.643-13.643z" fill="#fff" stop-color="#000000" stroke-linecap="round" stroke-linejoin="round" style="paint-order:stroke fill markers"/><path d="m12 4c-4.432 0-8 3.568-8 8v24c0 4.432 3.568 8 8 8h24c4.432 0 8-3.568 8-8v-24c0-4.432-3.568-8-8-8zm0 1h24c3.878 0 7 3.122 7 7v24c0 3.878-3.122 7-7 7h-24c-3.878 0-7-3.122-7-7v-24c0-3.878 3.122-7 7-7z" fill-rule="evenodd" opacity=".3" style="paint-order:stroke fill markers"/><g stroke-linecap="round" stroke-linejoin="round"><path d="m19 41h10c0.554 0 1 0.446 1 1s-0.446 1-1 1h-10c-0.554 0-1-0.446-1-1s0.446-1 1-1z" fill="#e7599e" stop-color="#000000" style="paint-order:stroke fill markers"/><path d="m23.643 11.857h0.71484c6.4155 0 11.643 5.2271 11.643 11.643 0 2.8704-1.0412 5.5191-2.7676 7.5488-1.5514 1.8241-3.2324 4.537-3.2324 6.0078v0.94336a2.0002 2.0002 0 0 1-2 2h-8a2.0002 2.0002 0 0 1-2-2v-0.94336c0-1.4708-1.681-4.1838-3.2324-6.0078-1.7264-2.0298-2.7676-4.6785-2.7676-7.5488 0-6.4155 5.2271-11.643 11.643-11.643z" fill="#e7599e" stop-color="#000000" style="paint-order:stroke fill markers"/><path d="m23.643 13.857h0.71484c5.3421 0 9.6426 4.3004 9.6426 9.6426 0 2.3901-0.86115 4.5708-2.291 6.252-1.638 1.9259-3.709 4.752-3.709 7.3047v0.94336h-8v-0.94336c0-2.5527-2.071-5.3788-3.709-7.3047-1.4299-1.6811-2.291-3.8618-2.291-6.252 0-5.3421 4.3004-9.6426 9.6426-9.6426z" fill="#fff" stop-color="#000000" style="paint-order:stroke fill markers"/><path d="m24 17c-0.14887 0-0.29685 0.0046-0.44336 0.01367l2.4434 4.4473-8.748 4.4121c0.30119 1.0945 0.86016 2.08 1.6082 2.8876 0.99593 1.0752 2.1398 2.7648 2.1398 4.2394v5h6v-5c0-1.4746 1.1439-3.1642 2.14-4.2393 1.1555-1.2472 1.86-2.9185 1.86-4.7607 0-3.878-3.122-7-7-7zm-4.1758 1.373c-1.7161 1.2734-2.8242 3.3164-2.8242 5.627 0 0.1653 0.0064 0.32982 0.01758 0.49219l4.9824-2.4922z" fill="#e7599e" stroke-width="4" style="paint-order:stroke fill markers"/></g></svg>
