<?xml version="1.0" encoding="UTF-8"?>
<!-- Created with Inkscape (http://www.inkscape.org/) -->
<svg id="SVGRoot" width="48px" height="48px" version="1.1" viewBox="0 0 48 48" xmlns="http://www.w3.org/2000/svg" xmlns:cc="http://creativecommons.org/ns#" xmlns:dc="http://purl.org/dc/elements/1.1/" xmlns:rdf="http://www.w3.org/1999/02/22-rdf-syntax-ns#" xmlns:xlink="http://www.w3.org/1999/xlink">
 <defs id="defs815">
  <style id="style819">.cls-1{fill:none;stroke:#fff;stroke-linecap:round;stroke-linejoin:round;}</style>
  <style id="style2">.a{fill:none;stroke:#b1b5bd;stroke-linecap:round;stroke-linejoin:round;isolation:isolate;opacity:0.63;}</style>
 </defs>
 <metadata id="metadata818">
  <rdf:RDF>
   <cc:Work rdf:about="">
    <dc:format>image/svg+xml</dc:format>
    <dc:type rdf:resource="http://purl.org/dc/dcmitype/StillImage"/>
    <dc:title/>
   </cc:Work>
  </rdf:RDF>
 </metadata>
 <g id="layer1">
  <rect id="rect1373-5" x="4" y="4" width="40" height="40" ry="8" fill="#faf5a5" fill-rule="evenodd" style="paint-order:stroke fill markers"/>
  <path id="rect817" d="m12 4c-4.432 0-8 3.568-8 8v24c0 4.432 3.568 8 8 8h24c4.432 0 8-3.568 8-8v-24c0-4.432-3.568-8-8-8h-24zm0 1h24c3.878 0 7 3.122 7 7v24c0 3.878-3.122 7-7 7h-24c-3.878 0-7-3.122-7-7v-24c0-3.878 3.122-7 7-7z" fill-rule="evenodd" opacity=".3" style="paint-order:stroke fill markers"/>
  <path id="path828" d="m6 29.334v6.666c0 3.324 2.676 6 6 6h7l-3-6-10-6.666z" fill="#627ad4"/>
  <path id="path830" d="m8 29 8 5h3c3 0 3-3 3-3v-12s0-3-3-3h-8c-3 0-3 3-3 3z" fill="#627ad4"/>
  <path id="path828-0" d="m42 29.334-10 6.666-3 6h7c3.324 0 6-2.676 6-6v-6.666z" fill="#f97263"/>
  <path id="path830-6" d="m40 29-8 5h-3c-3 0-3-3-3-3v-12s0-3 3-3h8c3 0 3 3 3 3z" fill="#f97263"/>
  <rect id="rect850" x="17" y="23" width="3" height="3" ry="1.5" fill="#faf5a5" fill-rule="evenodd" style="paint-order:stroke fill markers"/>
  <rect id="rect852" x="15" y="28" width="8" height="2" ry="1" fill="#faf5a5" fill-rule="evenodd" style="paint-order:stroke fill markers"/>
  <rect id="rect850-3" x="28" y="23" width="3" height="3" ry="1.5" fill="#faf5a5" fill-rule="evenodd" style="paint-order:stroke fill markers"/>
  <path id="path869" d="m26 27 1.5 1 1.5-1 1.5 1 1.5-1v5l-1.5-1-1.5 1-1.5-1-1.5 1-1-3z" fill="#faf5a5"/>
  <path id="path871" d="m37 16 5-6v12h-5z" fill="#f97263"/>
  <path id="path873" d="m32 15h4v-5z" fill="#f97263"/>
 </g>
</svg>
