<?xml version="1.0" encoding="UTF-8"?>
<!-- Created with Inkscape (http://www.inkscape.org/) -->
<svg id="SVGRoot" width="48px" height="48px" version="1.1" viewBox="0 0 48 48" xml:space="preserve" xmlns="http://www.w3.org/2000/svg" xmlns:cc="http://creativecommons.org/ns#" xmlns:dc="http://purl.org/dc/elements/1.1/" xmlns:rdf="http://www.w3.org/1999/02/22-rdf-syntax-ns#"><defs><style>.cls-1{fill:none;stroke:#fff;stroke-linecap:round;stroke-linejoin:round;}</style><style>.cls-1{fill:none;stroke:#fff;stroke-linecap:round;stroke-linejoin:round;}</style><style>.cls-1{fill:none;stroke:#fff;stroke-linecap:round;stroke-linejoin:round;}</style><style>.a{fill:none;stroke:#b1b5bd;stroke-linecap:round;stroke-linejoin:round;isolation:isolate;opacity:0.63;}</style><style>.a{fill:none;stroke:#b1b5bd;stroke-linecap:round;stroke-linejoin:round;isolation:isolate;opacity:0.63;}</style></defs><metadata><rdf:RDF><cc:Work rdf:about=""><dc:format>image/svg+xml</dc:format><dc:type rdf:resource="http://purl.org/dc/dcmitype/StillImage"/></cc:Work></rdf:RDF></metadata><rect x="4" y="4" width="40" height="40" ry="8" fill="#3b423f" fill-rule="evenodd" style="paint-order:stroke fill markers"/><rect x="8" y="8" width="32" height="32" ry="5" fill="#ffce82" stroke-linecap="round" stroke-linejoin="round" stroke-width="2"/><rect x="10" y="10" width="28" height="28" ry="3" fill="#3b423f"/><path d="m12 4c-4.432 0-8 3.568-8 8v24c0 4.432 3.568 8 8 8h24c4.432 0 8-3.568 8-8v-24c0-4.432-3.568-8-8-8zm0 1h24c3.878 0 7 3.122 7 7v24c0 3.878-3.122 7-7 7h-24c-3.878 0-7-3.122-7-7v-24c0-3.878 3.122-7 7-7z" fill-rule="evenodd" opacity=".4" style="paint-order:stroke fill markers"/><rect x="12" y="12" width="24" height="24" ry="2" fill="#ffce82"/><path d="m23 7v4 1 9.5859l-10.586-10.586h-1.4141v1.4141l10.586 10.586h-14.586a1 1 0 0 0-1 1 1 1 0 0 0 1 1h14.586l-10.586 10.586v1.4141h1.4141l10.586-10.586v9.5859 1 5h2v-5-1-9.5859l10.586 10.586h1.4141v-1.4141l-10.586-10.586h14.586a1 1 0 0 0 1-1 1 1 0 0 0-1-1h-14.586l10.586-10.586v-1.4141h-1.4141l-10.586 10.586v-9.5859-1-4h-2z" fill="#3b423f"/><path d="m9 9 30 30" fill="#8b5628" stop-color="#000000" stroke-linecap="round" stroke-linejoin="round"/><path d="m14 24s4-6 10-6 10 6 10 6-4 6-10 6-10-6-10-6z" fill="#3b423f"/><path d="m24 20c-2.216 0-4 1.784-4 4s1.784 4 4 4 4-1.784 4-4-1.784-4-4-4zm0 2c1.108 0 2 0.892 2 2s-0.892 2-2 2-2-0.892-2-2 0.892-2 2-2z" fill="#ffce82"/></svg>
