<?xml version="1.0" encoding="UTF-8"?>
<!-- Created with Inkscape (http://www.inkscape.org/) -->
<svg id="SVGRoot" width="48px" height="48px" version="1.1" viewBox="0 0 48 48" xml:space="preserve" xmlns="http://www.w3.org/2000/svg" xmlns:cc="http://creativecommons.org/ns#" xmlns:dc="http://purl.org/dc/elements/1.1/" xmlns:rdf="http://www.w3.org/1999/02/22-rdf-syntax-ns#"><defs><style>.cls-1{fill:none;stroke:#fff;stroke-linecap:round;stroke-linejoin:round;}</style><style>.cls-1{fill:none;stroke:#fff;stroke-linecap:round;stroke-linejoin:round;}</style><style>.cls-1{fill:none;stroke:#fff;stroke-linecap:round;stroke-linejoin:round;}</style><style>.a{fill:none;stroke:#b1b5bd;stroke-linecap:round;stroke-linejoin:round;isolation:isolate;opacity:0.63;}</style><style>.cls-1{fill:none;stroke:#fff;stroke-linecap:round;stroke-linejoin:round;}</style><style>.cls-1{fill:none;stroke:#fff;stroke-linecap:round;stroke-linejoin:round;}</style><style>.cls-1{fill:none;stroke:#fff;stroke-linecap:round;stroke-linejoin:round;}</style><style>.a{fill:none;stroke:#b1b5bd;stroke-linecap:round;stroke-linejoin:round;isolation:isolate;opacity:0.63;}</style><style>.cls-1{fill:none;stroke:#fff;stroke-linecap:round;stroke-linejoin:round;}</style><style>.cls-1{fill:none;stroke:#fff;stroke-linecap:round;stroke-linejoin:round;}</style><style>.cls-1{fill:none;stroke:#fff;stroke-linecap:round;stroke-linejoin:round;}</style><style>.cls-1{fill:none;stroke:#fff;stroke-linecap:round;stroke-linejoin:round;}</style><style>.cls-1{fill:none;stroke:#fff;stroke-linecap:round;stroke-linejoin:round;}</style></defs><metadata><rdf:RDF><cc:Work rdf:about=""><dc:format>image/svg+xml</dc:format><dc:type rdf:resource="http://purl.org/dc/dcmitype/StillImage"/></cc:Work></rdf:RDF></metadata><g><rect x="4" y="4" width="40" height="40" ry="8" fill="#594d43" fill-rule="evenodd" style="paint-order:stroke fill markers"/><g stroke-linecap="round" stroke-linejoin="round"><rect x="24.458" y="25.458" width="14.542" height="14.542" ry="7.2708" fill="#aa9f7c" stroke-width="2.1477"/><rect x="9" y="9" width="30" height="30" ry="15" opacity=".3" stroke-width="2"/><rect x="10" y="10" width="28" height="28" ry="14" fill="#21a175" stroke-width="2"/></g></g><path d="m12 4c-4.432 0-8 3.568-8 8v24c0 4.432 3.568 8 8 8h24c4.432 0 8-3.568 8-8v-24c0-4.432-3.568-8-8-8zm0 1h24c3.878 0 7 3.122 7 7v24c0 3.878-3.122 7-7 7h-24c-3.878 0-7-3.122-7-7v-24c0-3.878 3.122-7 7-7z" fill-rule="evenodd" opacity=".4" style="paint-order:stroke fill markers"/><g stroke-linecap="round" stroke-linejoin="round" stroke-width="2"><path d="m24 11c-7.202 0-13 5.798-13 13 3.1322-0.27965 7.6442-1.8755 8-5 0.16003-1.4051-3.5412-1.6934-3-3 1.5307-3.6955 8.4733 1.8874 12 0 1.1005-0.58897 2.4432-1.6129 3.3203-2.7578-2.0822-1.4161-4.6016-2.2422-7.3203-2.2422zm8.1602 2.8652c-1.0815 1.0902-2.1278 2.3002-3.1602 3.1348-1.4664 1.1854-4.5015 0.85544-6 2-3.8869 2.9688-9.3475 4.5554-11.473 8.6934 0.59551 2.027 1.6707 3.8462 3.0938 5.3262 3.6601-0.72548 6.0383-6.5485 9.3789-9.0195 1.9325-1.4294 2.6994 0.69655 5 0 2.0955-0.63446 5.3216-1.0101 7.8555-1.9492-0.49238-3.3024-2.2168-6.1904-4.6953-8.1855zm4.8398 10.27c-1.3139 0.34981-2.766 1.2048-4 1.8652-2.6286 1.4068-2.0571 5.5224-5 6-1.8613 0.30204-2.1154-3.9372-4-4-3.3312-0.11092-6.8684 3.1051-7.8457 6.3809 2.1777 1.6458 4.8935 2.6191 7.8457 2.6191 7.1573 0 12.929-5.7254 13-12.865z" opacity=".3"/><path d="m29 17-9 6h3l2 2v3l6-9v-2z" fill="#0fc7db"/><path d="m29 17-6 6-11 13 13-11 6-6z" fill="#54f3f3"/><path d="m29 17-5 7 7-5v-2z" fill="#fff"/><rect x="8" y="8" width="6" height="6" ry="3" fill="#efefef"/><path d="m30 16-1 1 2 2 1-1z" fill="#4e4e4e"/><path d="m38 10-3 1-4 4h-4l4 2 2 4v-4l4-4z" fill="#efefef"/></g></svg>
