<?xml version="1.0" encoding="UTF-8"?>
<!-- Created with Inkscape (http://www.inkscape.org/) -->
<svg id="SVGRoot" width="48px" height="48px" version="1.1" viewBox="0 0 48 48" xmlns="http://www.w3.org/2000/svg" xmlns:cc="http://creativecommons.org/ns#" xmlns:dc="http://purl.org/dc/elements/1.1/" xmlns:rdf="http://www.w3.org/1999/02/22-rdf-syntax-ns#">
 <defs id="defs815">
  <style id="style819">.cls-1{fill:none;stroke:#fff;stroke-linecap:round;stroke-linejoin:round;}</style>
 </defs>
 <metadata id="metadata818">
  <rdf:RDF>
   <cc:Work rdf:about="">
    <dc:format>image/svg+xml</dc:format>
    <dc:type rdf:resource="http://purl.org/dc/dcmitype/StillImage"/>
    <dc:title/>
   </cc:Work>
  </rdf:RDF>
 </metadata>
 <g id="layer1">
  <rect id="rect1373" x="4" y="4" width="40" height="40" ry="8" fill="#4e4e4e" fill-rule="evenodd" style="paint-order:stroke fill markers"/>
  <path id="rect817" d="m12 4c-4.432 0-8 3.568-8 8v24c0 4.432 3.568 8 8 8h24c4.432 0 8-3.568 8-8v-24c0-4.432-3.568-8-8-8h-24zm0 1h24c3.878 0 7 3.122 7 7v24c0 3.878-3.122 7-7 7h-24c-3.878 0-7-3.122-7-7v-24c0-3.878 3.122-7 7-7z" fill-rule="evenodd" opacity=".4" style="paint-order:stroke fill markers"/>
  <g id="layer1-2" transform="matrix(1.4,0,0,1.4,-9.6,-8.2)">
   <path id="rect822-9" d="m24 13c-5.54 0-10 4.46-10 10s4.46 10 10 10 10-4.46 10-10-4.46-10-10-10zm-4.2559 7.3203 0.0625 0.31641s-1.4344 0.0549-1.8105 1.8516c0.27582-0.24617 0.52454-0.43611 1.041-0.44141 0.77724-0.0079 1.2901 0.69605 1.2949 1.3262 0.0076 0.99599-0.72128 1.5789-1.4629 1.5996-1.1291 0.03153-1.5718-1.1216-1.5566-1.957 0.04291-2.3597 2.4316-2.6953 2.4316-2.6953zm5.5547 0.0332c0.89322-0.0031 1.3285 0.52715 1.3262 1.168-0.0022 0.62074-0.7793 1.041-0.7793 1.041s0.95905 0.32716 0.96875 0.98828c0.01048 0.71225-0.61416 1.4595-1.5684 1.4531-1.1003-0.0074-1.5373-0.62674-1.5781-1.3262-0.036093-0.61835 0.89453-1.0527 0.89453-1.0527s-0.69571-0.43248-0.7168-1.0098c-0.02431-0.66542 0.54505-1.2586 1.4531-1.2617zm-0.09375 0.24023c-0.47546-0.01785-0.74128 0.46183-0.73828 0.83203 0.0027 0.33762 0.39397 0.68025 0.68359 0.74805 0.17259 0.04041 0.47461 0.24219 0.47461 0.24219s0.4564-0.35692 0.44141-0.94727c-0.01317-0.51886-0.36833-0.85649-0.86133-0.875zm3.9023 0.83203a1.6205 1.7783 0 0 1 1.6211 1.7793 1.6205 1.7783 0 0 1-1.6211 1.7773 1.6205 1.7783 0 0 1-1.6211-1.7773 1.6205 1.7783 0 0 1 1.6211-1.7793zm-6.9551 0.16406h0.28516l-0.02148 2.916s-0.07622 0.26202 0.67383 0.29492c0.0045 0.11507 0.0098 0.18945 0.0098 0.18945l-2.0625 0.00977s0.0011-0.10389 0-0.23242c0.83519 0.0068 0.71484-0.3457 0.71484-0.3457v-2.1582l-0.72461-0.0098s0.0042-0.15439 0.0098-0.33789c0.88951-0.03273 1.1152-0.32617 1.1152-0.32617zm6.9551 0.06836a0.94702 1.5468 0 0 0-0.94531 1.5469 0.94702 1.5468 0 0 0 0.94531 1.5469 0.94702 1.5468 0 0 0 0.94727-1.5469 0.94702 1.5468 0 0 0-0.94727-1.5469zm-10.322 0.73633c-0.46527 0.0033-0.79883 0.43164-0.79883 0.43164s-0.0049 0.31952 0 0.59961c0.0097 0.5539 0.2542 1.2872 0.87305 1.3047 0.6423 0.01819 0.80253-0.68306 0.79883-1.252-0.0039-0.60006-0.40909-1.0873-0.87305-1.084zm6.0918 0.30469s-0.60973 0.33954-0.63086 1.0215c-0.01459 0.47111 0.38086 1.0042 0.97852 1.0195 0.61402 0.01573 1.002-0.43874 0.99024-0.94726-0.01082-0.46802-0.61269-0.73691-0.88477-0.83008-0.25948-0.08886-0.45312-0.26367-0.45312-0.26367z" fill="#efefef" fill-rule="evenodd" style="paint-order:normal"/>
  </g>
 </g>
</svg>
