<?xml version="1.0" encoding="UTF-8"?>
<!-- Created with Inkscape (http://www.inkscape.org/) -->
<svg id="SVGRoot" width="48px" height="48px" version="1.1" viewBox="0 0 48 48" xmlns="http://www.w3.org/2000/svg" xmlns:cc="http://creativecommons.org/ns#" xmlns:dc="http://purl.org/dc/elements/1.1/" xmlns:rdf="http://www.w3.org/1999/02/22-rdf-syntax-ns#">
 <defs id="defs815">
  <style id="style819">.cls-1{fill:none;stroke:#fff;stroke-linecap:round;stroke-linejoin:round;}</style>
 </defs>
 <metadata id="metadata818">
  <rdf:RDF>
   <cc:Work rdf:about="">
    <dc:format>image/svg+xml</dc:format>
    <dc:type rdf:resource="http://purl.org/dc/dcmitype/StillImage"/>
    <dc:title/>
   </cc:Work>
  </rdf:RDF>
 </metadata>
 <g id="layer1">
  <rect id="rect1373" x="4" y="4" width="40" height="40" ry="8" fill="#4e4e4e" fill-rule="evenodd" style="paint-order:stroke fill markers"/>
  <path id="rect817" d="m12 4c-4.432 0-8 3.568-8 8v24c0 4.432 3.568 8 8 8h24c4.432 0 8-3.568 8-8v-24c0-4.432-3.568-8-8-8h-24zm0 1h24c3.878 0 7 3.122 7 7v24c0 3.878-3.122 7-7 7h-24c-3.878 0-7-3.122-7-7v-24c0-3.878 3.122-7 7-7z" fill-rule="evenodd" opacity=".4" style="paint-order:stroke fill markers"/>
  <path id="path882" d="m10 34 4-6 4 6z" fill="#f97263"/>
  <path id="path882-0" d="m30 34 4-6 4 6z" fill="#96d56b"/>
  <path id="path882-3" d="m20 14 4 6 4-6z" fill="#729dec"/>
  <path id="path905" d="m20 34-5-7 3.9481-5.8299 1.0519 0.84439 0.018685-2.2832 0.98132-1.7313 2 3-2 4h4v-2l3 5h-8l-1 2 2 3z" fill="#b7bfc2"/>
  <path id="path905-4" d="m28 34 5-7-2.1224-3.0799-0.9056 0.27545 0.028027-1.6956-3-4.5-2 3 5 8-3 4z" fill="#b7bfc2"/>
 </g>
</svg>
