<?xml version="1.0" encoding="UTF-8"?>
<!-- Created with Inkscape (http://www.inkscape.org/) -->
<svg id="SVGRoot" width="48px" height="48px" version="1.1" viewBox="0 0 48 48" xmlns="http://www.w3.org/2000/svg" xmlns:cc="http://creativecommons.org/ns#" xmlns:dc="http://purl.org/dc/elements/1.1/" xmlns:rdf="http://www.w3.org/1999/02/22-rdf-syntax-ns#">
 <defs id="defs815">
  <style id="style819">.cls-1{fill:none;stroke:#fff;stroke-linecap:round;stroke-linejoin:round;}</style>
 </defs>
 <metadata id="metadata818">
  <rdf:RDF>
   <cc:Work rdf:about="">
    <dc:format>image/svg+xml</dc:format>
    <dc:type rdf:resource="http://purl.org/dc/dcmitype/StillImage"/>
    <dc:title/>
   </cc:Work>
  </rdf:RDF>
 </metadata>
 <g id="layer1">
  <rect id="rect1373-5" x="4" y="4" width="40" height="40" ry="8" fill="#4e4e4e" fill-rule="evenodd" style="paint-order:stroke fill markers"/>
  <path id="rect817" d="m12 4c-4.432 0-8 3.568-8 8v24c0 4.432 3.568 8 8 8h24c4.432 0 8-3.568 8-8v-24c0-4.432-3.568-8-8-8h-24zm0 1h24c3.878 0 7 3.122 7 7v24c0 3.878-3.122 7-7 7h-24c-3.878 0-7-3.122-7-7v-24c0-3.878 3.122-7 7-7z" fill-rule="evenodd" opacity=".4" style="paint-order:stroke fill markers"/>
  <rect id="rect1373-6" x="10" y="12" width="24" height="24" ry="12" fill="#ffd34e" fill-rule="evenodd" style="paint-order:stroke fill markers"/>
  <rect id="rect842" x="22" y="12" width="11" height="3" fill="#ffd34e" fill-rule="evenodd" style="paint-order:normal"/>
  <rect id="rect840" x="28" y="12" width="10" height="10" ry="5" fill="#ffd34e" fill-rule="evenodd" style="paint-order:normal"/>
  <rect id="rect821" x="12" y="14" width="20" height="20" ry="10" fill="#4e4e4e" fill-rule="evenodd" style="paint-order:stroke fill markers"/>
  <path id="path844" d="m33.337 28 4.196-8.9108-6.5332-1.0892z" fill="#ffd34e"/>
  <rect id="rect823" x="32" y="14" width="4" height="4" ry="2" fill="#4e4e4e" fill-rule="evenodd" style="paint-order:normal"/>
  <rect id="rect864" x="20" y="22" width="4" height="4" ry="2" fill="#ffd34e" fill-rule="evenodd" style="paint-order:normal"/>
  <rect id="rect866" x="20" y="16" width="4" height="4" ry="2" fill="#ffd34e" fill-rule="evenodd" style="paint-order:normal"/>
  <rect id="rect866-7" x="14" y="20" width="4" height="4" ry="2" fill="#ffd34e" fill-rule="evenodd" style="paint-order:normal"/>
  <rect id="rect866-7-0" x="26" y="20" width="4" height="4" ry="2" fill="#ffd34e" fill-rule="evenodd" style="paint-order:normal"/>
  <rect id="rect866-7-1" x="16" y="27" width="4" height="4" ry="2" fill="#ffd34e" fill-rule="evenodd" style="paint-order:normal"/>
  <rect id="rect866-7-1-1" x="24" y="27" width="4" height="4" ry="2" fill="#ffd34e" fill-rule="evenodd" style="paint-order:normal"/>
 </g>
</svg>
