<?xml version="1.0" encoding="UTF-8"?>
<!-- Created with Inkscape (http://www.inkscape.org/) -->
<svg id="SVGRoot" width="48px" height="48px" version="1.1" viewBox="0 0 48 48" xml:space="preserve" xmlns="http://www.w3.org/2000/svg" xmlns:cc="http://creativecommons.org/ns#" xmlns:dc="http://purl.org/dc/elements/1.1/" xmlns:rdf="http://www.w3.org/1999/02/22-rdf-syntax-ns#"><defs><style>.cls-1{fill:none;stroke:#fff;stroke-linecap:round;stroke-linejoin:round;}</style><style>.cls-1{fill:none;stroke:#fff;stroke-linecap:round;stroke-linejoin:round;}</style><style>.cls-1{fill:none;stroke:#fff;stroke-linecap:round;stroke-linejoin:round;}</style><style>.cls-1{fill:none;stroke:#fff;stroke-linecap:round;stroke-linejoin:round;}</style><style>.cls-1{fill:none;stroke:#fff;stroke-linecap:round;stroke-linejoin:round;}</style><style>.cls-1{fill:none;stroke:#fff;stroke-linecap:round;stroke-linejoin:round;}</style><style>.cls-1{fill:none;stroke:#fff;stroke-linecap:round;stroke-linejoin:round;}</style><style>.a{fill:none;stroke:#b1b5bd;stroke-linecap:round;stroke-linejoin:round;isolation:isolate;opacity:0.63;}</style><style>.cls-1{fill:none;stroke:#fff;stroke-linecap:round;stroke-linejoin:round;}</style></defs><metadata><rdf:RDF><cc:Work rdf:about=""><dc:format>image/svg+xml</dc:format><dc:type rdf:resource="http://purl.org/dc/dcmitype/StillImage"/></cc:Work></rdf:RDF></metadata><rect x="4" y="4" width="40" height="40" ry="8" fill="#4e4e4e" fill-rule="evenodd" style="paint-order:stroke fill markers"/><path d="m12 4c-4.432 0-8 3.568-8 8v24c0 4.432 3.568 8 8 8h24c4.432 0 8-3.568 8-8v-24c0-4.432-3.568-8-8-8zm0 1h24c3.878 0 7 3.122 7 7v24c0 3.878-3.122 7-7 7h-24c-3.878 0-7-3.122-7-7v-24c0-3.878 3.122-7 7-7z" fill-rule="evenodd" opacity=".4" style="paint-order:stroke fill markers"/><g stroke-linecap="round" stroke-linejoin="round" stroke-width="2"><path d="m6 26.223v8.8887l2.6387 5.8633c7.575e-4 5.12e-4 0.0012 0.0014 0.00195 2e-3 0.95751 0.64606 2.1124 1.0234 3.3594 1.0234h1.0996z" fill="#72ece7"/><path d="m6 12.889v8.8887l9.0996 20.223h4z" fill="#6bd585"/><path d="m9.207 6.6836c-1.1964 0.62729-2.1518 1.6459-2.6992 2.8887l14.592 32.428h4z" fill="#ffc875"/></g><path d="m12 6c-0.36135 0-0.71516 0.031153-1.0586 0.091797l16.158 35.908h4l-16.199-36z" fill="#f37568" stroke-linecap="round" stroke-linejoin="round" stroke-width="2"/><path d="m21 12 1.834 4h7.166c2.216 0 4 1.784 4 4s-1.784 4-4 4h-3.5l5.5 12h4l-3.7852-8.2598c3.3383-0.88026 5.7852-3.9087 5.7852-7.5312v-0.41797c0-4.3164-3.4746-7.791-7.791-7.791h-5.418z" fill="#fff" stroke-linecap="round" stroke-linejoin="round" stroke-width="2"/></svg>
