<?xml version="1.0" encoding="UTF-8"?>
<!-- Created with Inkscape (http://www.inkscape.org/) -->
<svg id="SVGRoot" width="48px" height="48px" version="1.1" viewBox="0 0 48 48" xmlns="http://www.w3.org/2000/svg" xmlns:cc="http://creativecommons.org/ns#" xmlns:dc="http://purl.org/dc/elements/1.1/" xmlns:rdf="http://www.w3.org/1999/02/22-rdf-syntax-ns#" xmlns:xlink="http://www.w3.org/1999/xlink">
 <defs id="defs815">
  <style id="style819">.cls-1{fill:none;stroke:#fff;stroke-linecap:round;stroke-linejoin:round;}</style>
 </defs>
 <metadata id="metadata818">
  <rdf:RDF>
   <cc:Work rdf:about="">
    <dc:format>image/svg+xml</dc:format>
    <dc:type rdf:resource="http://purl.org/dc/dcmitype/StillImage"/>
    <dc:title/>
   </cc:Work>
  </rdf:RDF>
 </metadata>
 <g id="layer1">
  <rect id="rect1373" x="4" y="4" width="40" height="40" ry="8" fill="#efefef" fill-rule="evenodd" style="paint-order:stroke fill markers"/>
  <path id="rect817" d="m12 4c-4.432 0-8 3.568-8 8v24c0 4.432 3.568 8 8 8h24c4.432 0 8-3.568 8-8v-24c0-4.432-3.568-8-8-8h-24zm0 1h24c3.878 0 7 3.122 7 7v24c0 3.878-3.122 7-7 7h-24c-3.878 0-7-3.122-7-7v-24c0-3.878 3.122-7 7-7z" fill-rule="evenodd" opacity=".3" style="paint-order:stroke fill markers"/>
  <path id="path964" d="m6 15.85v20.15c0 3.324 2.676 6 6 6h24c3.324 0 6-2.676 6-6v-4.8496l-36-15.301z" fill="#b7bfc2"/>
  <path id="path819" d="m20.979 14.004-8.9785 18.996 7-4 4.2637-10h5.2871c0.90518 0 0.45703 1.082 0.45703 1.082l-2.498 4.7402 6.2012-3.2461 1.7734-3.2441s2.005-4.3281-1.8281-4.3281zm16.412 7.1777-18.391 10.818h10.818l1.082-4.3281z" fill="#4e4e4e"/>
  <path id="path966" d="m27.648 22.66-1.1387 2.1621 2.8359-1.4844zm-11.42 1.3945-4.2285 8.9453 7-4 1.2891-3.0215zm15.723 0.32617-3.0352 1.7852 2.4922 0.99805 2.1426-2.1426zm-6.707 3.9453-6.2441 3.6738h10.818l0.33594-1.3477z" fill="#d35244"/>
 </g>
</svg>
