<?xml version="1.0" encoding="UTF-8"?>
<!-- Created with Inkscape (http://www.inkscape.org/) -->
<svg id="SVGRoot" width="48px" height="48px" version="1.1" viewBox="0 0 48 48" xml:space="preserve" xmlns="http://www.w3.org/2000/svg" xmlns:cc="http://creativecommons.org/ns#" xmlns:dc="http://purl.org/dc/elements/1.1/" xmlns:rdf="http://www.w3.org/1999/02/22-rdf-syntax-ns#"><defs><style>.cls-1{fill:none;stroke:#fff;stroke-linecap:round;stroke-linejoin:round;}</style></defs><metadata><rdf:RDF><cc:Work rdf:about=""><dc:format>image/svg+xml</dc:format><dc:type rdf:resource="http://purl.org/dc/dcmitype/StillImage"/></cc:Work></rdf:RDF></metadata><rect x="4" y="4" width="40" height="40" ry="8" fill="#efefef" fill-rule="evenodd" style="paint-order:stroke fill markers"/><path d="m12 4c-4.432 0-8 3.568-8 8v24c0 4.432 3.568 8 8 8h24c4.432 0 8-3.568 8-8v-24c0-4.432-3.568-8-8-8zm0 1h24c3.878 0 7 3.122 7 7v24c0 3.878-3.122 7-7 7h-24c-3.878 0-7-3.122-7-7v-24c0-3.878 3.122-7 7-7z" fill-rule="evenodd" opacity=".3" style="paint-order:stroke fill markers"/><path d="m25.104 19.945c-1.1343 0-1.252 0.95312-1.252 0.95312l-1.9889 13.686s-0.0271 1.3711 1.0742 1.3711c5.2971 0 11.262-0.0035 12.919-8.2285 1.5755-7.8176-3.7522-7.4825-3.7522-7.4825s-4.6926-0.29883-7.0003-0.29883zm1.7891 2.8027 3.5414 0.0293s2.6015-0.29784 1.7249 5.545c-0.74601 4.9721-4.0143 4.5918-4.0143 4.5918l-2.2877 0.06055z" fill="#4984fb" stroke-linecap="round" stroke-linejoin="round" stroke-width="2" style="paint-order:stroke fill markers"/><path d="m23.791 19.631s-0.8545-0.07918-1.0435 0.62609c-0.61909 2.3105-1.2522 7.0658-1.2522 7.0658s-1.8382 1.3714-4.3826 1.3714c-4.7334 0-5.0087-2.087-5.0087-2.087s-0.17852-0.8973 0.89441-1.7292c1.0246-0.79444 1.8186-0.41739 1.8186-0.41739s1.966 1.0733 3.041 1.0733c1.5915 0 2.564-0.84273 2.564-1.9081 0-2.7638-7.1671-2.5781-6.6783-6.3801 0.5598-4.3543 4.2807-5.1738 7.2745-5.277 2.8462-0.09815 4.4124 1.327 4.4124 2.4745 0 0.87459-1.2422 1.5503-2.1168 1.5503-0.69954 0-1.1413-1.2224-2.9516-1.2224-1.3591 0-2.6753 0.31178-2.564 1.5801 0.19066 2.1725 3.8516 2.6973 5.9925 3.2795z" fill="#4984fb" stroke-linecap="round" stroke-linejoin="round" stroke-width="2" style="paint-order:stroke fill markers"/></svg>
