<?xml version="1.0" encoding="UTF-8"?>
<!-- Created with Inkscape (http://www.inkscape.org/) -->
<svg id="SVGRoot" width="48px" height="48px" version="1.1" viewBox="0 0 48 48" xmlns="http://www.w3.org/2000/svg" xmlns:cc="http://creativecommons.org/ns#" xmlns:dc="http://purl.org/dc/elements/1.1/" xmlns:rdf="http://www.w3.org/1999/02/22-rdf-syntax-ns#" xmlns:xlink="http://www.w3.org/1999/xlink">
 <defs id="defs815">
  <style id="style819">.cls-1{fill:none;stroke:#fff;stroke-linecap:round;stroke-linejoin:round;}</style>
  <style id="style819-4">.cls-1{fill:none;stroke:#fff;stroke-linecap:round;stroke-linejoin:round;}</style>
 </defs>
 <metadata id="metadata818">
  <rdf:RDF>
   <cc:Work rdf:about="">
    <dc:format>image/svg+xml</dc:format>
    <dc:type rdf:resource="http://purl.org/dc/dcmitype/StillImage"/>
    <dc:title/>
   </cc:Work>
  </rdf:RDF>
 </metadata>
 <g id="layer1">
  <rect id="rect1373-5" x="4" y="4" width="40" height="40" ry="8" fill="#4e4e4e" fill-rule="evenodd" style="paint-order:stroke fill markers"/>
  <path id="rect817" d="m12 4c-4.432 0-8 3.568-8 8v24c0 4.432 3.568 8 8 8h24c4.432 0 8-3.568 8-8v-24c0-4.432-3.568-8-8-8h-24zm0 1h24c3.878 0 7 3.122 7 7v24c0 3.878-3.122 7-7 7h-24c-3.878 0-7-3.122-7-7v-24c0-3.878 3.122-7 7-7z" fill-rule="evenodd" opacity=".4" style="paint-order:stroke fill markers"/>
  <path id="path870" d="m22.607 8.8672s-9.5053 16.603-9.5332 16.555c0.69419 4.0842 4.6602 7.3848 4.6602 7.3848h18.977l1.3926-2.3906-12.65-21.549h-2.8457zm3.9961 1.2715 1.8457 3.1465c2.4896 1.0916 4.2969 3.0879 4.2969 3.0879l1.8164-1.1504 0.72656 0.33398s-2.6385-4.2568-8.6855-5.418zm-5.207 0.089844c-3.4576 0.54692-11.295 4.1123-11.295 13.803 3e-6 6.7714 5.1271 13.91 13.91 13.91 7.0174 0 10.572-4.793 10.572-4.793h-3.3398s-2.8246 2.3535-7.4043 2.3535c-5.3485 0-11.34-6.0031-11.34-11.352 0-7.044 5.6651-10.258 7.2031-10.895l1.6934-3.0273zm4.207 3.4805-0.9375 3.541 7.8379 13.195-2.6016-2.4512-15.375-0.044922 3.2676-1.1348 7.8086-13.105zm10.734 5.4004-1.4551 0.85547s0.91928 2.3426 0.55664 5.3086l1.9258 3.0801c1.4966-4.931 0-8.9453 0-8.9453l-1.0273-0.29883zm-12.301 1.9414-2.6699 1.5273v2.7227l2.7441 1.584 2.623-1.5137v-2.7637l-2.6973-1.5566zm2.375 1.8047v2.1738l-2.416 1.3945-2.2402-1.2949-0.05664-2.248 2.334 1.3477 2.3789-1.373zm-15.689 6.3984c-0.02656 0.07407-0.70703 1.0898-0.70703 1.0898l1.3262 2.5469 1.4551-0.021484s-1.5407-1.9732-2.0742-3.6152z" fill="#fff"/>
 </g>
</svg>
