<?xml version="1.0" encoding="UTF-8"?>
<!-- Created with Inkscape (http://www.inkscape.org/) -->
<svg id="SVGRoot" width="48px" height="48px" version="1.1" viewBox="0 0 48 48" xmlns="http://www.w3.org/2000/svg" xmlns:cc="http://creativecommons.org/ns#" xmlns:dc="http://purl.org/dc/elements/1.1/" xmlns:rdf="http://www.w3.org/1999/02/22-rdf-syntax-ns#" xmlns:xlink="http://www.w3.org/1999/xlink">
 <defs id="defs815">
  <style id="style819">.cls-1{fill:none;stroke:#fff;stroke-linecap:round;stroke-linejoin:round;}</style>
 </defs>
 <metadata id="metadata818">
  <rdf:RDF>
   <cc:Work rdf:about="">
    <dc:format>image/svg+xml</dc:format>
    <dc:type rdf:resource="http://purl.org/dc/dcmitype/StillImage"/>
    <dc:title/>
   </cc:Work>
  </rdf:RDF>
 </metadata>
 <g id="layer1">
  <rect id="rect1373-5" x="4" y="4" width="40" height="40" ry="8" fill="#d35244" fill-rule="evenodd" style="paint-order:stroke fill markers"/>
  <path id="rect817" d="m12 4c-4.432 0-8 3.568-8 8v24c0 4.432 3.568 8 8 8h24c4.432 0 8-3.568 8-8v-24c0-4.432-3.568-8-8-8h-24zm0 1h24c3.878 0 7 3.122 7 7v24c0 3.878-3.122 7-7 7h-24c-3.878 0-7-3.122-7-7v-24c0-3.878 3.122-7 7-7z" fill-rule="evenodd" opacity=".3" style="paint-order:stroke fill markers"/>
  <g id="layer1-8" transform="matrix(1.3426 0 0 1.3426 -7.6394 -6.9723)">
   <path id="rect835" d="m30.062 14.104c-0.52307-0.03573-1.1737 0.08865-1.7787 0.35331-0.32848 0.1437-0.75786 0.29906-0.95494 0.34322-0.66268 0.14847-7.0829 2.7648-6.9652 2.8386-0.20872 0.28733-0.18457 0.50957-0.20592 0.79545 0.07309 0.50022 0.16947 0.64431 0.83381 1.2477 1.4368 1.3049 2.098 2.7382 2.0956 4.5486-8.36e-4 0.6047-0.07571 1.3694-0.16555 1.6979-0.08984 0.32848-0.1836 0.67515-0.20795 0.77122-0.05347 0.21099 3.4156 2.6176 3.7774 2.6205 0.17653 0.0014 1.1744-1.2517 3.8178-4.801 1.9675-2.6418 3.5967-4.939 3.6219-5.1058 0.02523-0.1668-0.17331-0.98061-0.44214-1.8069l-0.48858-1.5021-1.0095-0.87822c-0.55497-0.48315-1.2089-0.94696-1.4536-1.0317-0.13951-0.0483-0.30009-0.07894-0.47444-0.09085zm-5.1482 0.2988c-0.36204-0.0018-10.796 3.9439-11.11 4.2014-0.07964 0.06528-0.25991 0.42368-0.40176 0.79545-0.32981 0.86434-0.40461 2.4316-0.16555 3.4564 0.36235 1.5533 1.5815 3.6736 2.7679 4.8131 1.1693 1.123 1.6198 1.3097 1.8291 0.75911 0.06407-0.16852 0.1171-0.32484 0.1171-0.34725 0-0.02241-0.25926-0.22512-0.57539-0.45224-1.3604-0.97736-2.5297-3.7159-2.5297-5.9215 0-1.2477 0.59818-2.9537 1.2073-3.4402 0.09106-0.07272 0.62264-0.29633 1.1811-0.49665 0.55842-0.20032 2.6282-0.94245 4.5991-1.6494 1.9709-0.707 3.6375-1.3326 3.7027-1.389 0.17244-0.14939-0.16344-0.3269-0.62182-0.32908zm4.8918 0.03634c0.15414 0.01615 0.29905 0.04981 0.4159 0.09892 0.36641 0.15409 2.2836 1.6413 2.2955 1.7807 0.0031 0.03663-0.22148 0.16762-0.50069 0.29072-0.27921 0.1231-2.1163 0.96773-4.0822 1.8756-1.966 0.90784-3.5814 1.6494-3.5896 1.6494-0.0083 0-0.13213-0.23981-0.27457-0.53299-0.32864-0.67644-0.9682-1.3854-1.6656-1.8473l-0.54511-0.36138 0.58548-0.25034c2.7362-1.1746 6.4819-2.6413 6.8905-2.6973 0.15267-0.02092 0.31627-0.02219 0.4704-0.0061zm-10.095 3.307c-0.09442 0-2.4 0.95644-2.4671 1.0236-0.06942 0.06942 1.0762-0.03292 1.9604-0.17564 0.43186-0.06972 0.48301-0.11383 0.51684-0.46233 0.02059-0.21206 0.01607-0.38561-0.01013-0.38561zm12.275 1.4657c0.59472 0.06526 0.30899 0.56143-2.1138 3.6643-1.3104 1.6782-2.4582 3.0941-2.5499 3.1455-0.10474 0.05869-0.25731 0.0031-0.40984-0.1494-0.13349-0.13348-0.24054-0.30955-0.23823-0.39167 0.0023-0.08212 0.39212-0.61278 0.86611-1.179 0.47399-0.56626 1.614-1.9494 2.5337-3.0728 1.2462-1.5222 1.7339-2.0364 1.9119-2.0169zm-12.901 0.56933c-1.8564 0-3.0188 1.8179-2.566 4.0116 0.34667 1.6796 1.5424 3.1506 2.9072 3.5775 0.6231 0.19491 1.082 0.20533 1.6898 0.03836 0.6709-0.18431 1.4302-1.0043 1.6656-1.7968 0.77394-2.6062-1.27-5.8306-3.6966-5.8306zm0.19583 0.47444c0.18414 0.01036 0.36038 0.04509 0.51886 0.107 0.17981 0.07024 0.10183 0.10913-0.32706 0.15748-1.2159 0.13704-1.838 1.0767-1.7363 2.6286 0.14709 2.2434 2.1014 3.9104 3.7673 3.2121 0.52808-0.22135 0.48898-0.33004-0.14738-0.40176-0.85151-0.09598-1.7997-0.96221-2.1602-1.9725-0.24486-0.68614-0.21212-1.778 0.07066-2.3621 0.27446-0.56697 0.90695-0.98475 1.2659-0.83583 0.19717 0.08182 0.1825 0.10391-0.1171 0.18978-0.9662 0.27694-1.4376 1.6173-0.9933 2.8224 0.42132 1.1428 1.5327 2.027 2.4146 1.924 0.22773-0.02659 0.41388-0.01734 0.41388 0.02019s-0.17096 0.27589-0.37955 0.52896c-0.68855 0.83534-1.6115 1.0001-2.6852 0.4805-0.78086-0.3779-1.3976-1.0564-1.8735-2.0653-0.32296-0.68462-0.37314-0.91944-0.36946-1.7464 0.0045-1.0297 0.2314-1.6552 0.78738-2.1723 0.38032-0.35376 0.9981-0.54589 1.5505-0.51482zm1.8271 7.6355-1.3688 0.03432c-1.5187 0.03775-1.5335 0.04538-1.3769 0.88024l0.07672 0.40782 2.4388 0.0042 0.89438 0.70864c0.49272 0.3901 0.94981 0.6949 1.0155 0.67634 0.0657-0.01858 0.2409-0.24503 0.38763-0.50271s0.26744-0.50533 0.26852-0.54914c1e-3 -0.04382-0.52423-0.43538-1.1669-0.87015zm-0.51078 2.033-2.2652 0.15748-0.20593 1.064c-0.1135 0.58436-0.17024 1.0997-0.12517 1.1447 0.07433 0.07433 2.5491 0.2493 3.1111 0.22006 0.13353-0.0069 0.47828-0.31699 0.80151-0.71873 0.31211-0.38793 0.54077-0.7477 0.50877-0.79949-0.032-0.05179-0.45492-0.31323-0.94081-0.58145z" fill="#fff" fill-rule="evenodd" style="paint-order:stroke fill markers"/>
  </g>
 </g>
</svg>
