<?xml version="1.0" encoding="UTF-8"?>
<!-- Created with Inkscape (http://www.inkscape.org/) -->
<svg id="SVGRoot" width="48px" height="48px" version="1.1" viewBox="0 0 48 48" xml:space="preserve" xmlns="http://www.w3.org/2000/svg" xmlns:cc="http://creativecommons.org/ns#" xmlns:dc="http://purl.org/dc/elements/1.1/" xmlns:rdf="http://www.w3.org/1999/02/22-rdf-syntax-ns#"><defs><style>.cls-1{fill:none;stroke:#fff;stroke-linecap:round;stroke-linejoin:round;}</style><style>.cls-1{fill:none;stroke:#fff;stroke-linecap:round;stroke-linejoin:round;}</style><style>.cls-1{fill:none;stroke:#fff;stroke-linecap:round;stroke-linejoin:round;}</style><style>.cls-1{fill:none;stroke:#fff;stroke-linecap:round;stroke-linejoin:round;}</style><style>.a{fill:none;stroke:#b1b5bd;stroke-linecap:round;stroke-linejoin:round;isolation:isolate;opacity:0.63;}</style><style>.cls-1{fill:none;stroke:#fff;stroke-linecap:round;stroke-linejoin:round;}</style><style>.cls-1{fill:none;stroke:#fff;stroke-linecap:round;stroke-linejoin:round;}</style><style>.cls-1{fill:none;stroke:#fff;stroke-linecap:round;stroke-linejoin:round;}</style><style id="current-color-scheme" type="text/css">.ColorScheme-Text {
        color:#31363b;
      }
      .ColorScheme-Accent {
        color:#3daee9;
      }</style><style type="text/css">.ColorScheme-Text {
        color:#31363b;
      }
      .ColorScheme-Accent {
        color:#3daee9;
      }</style><style>.cls-1{fill:none;stroke:#fff;stroke-linecap:round;stroke-linejoin:round;}</style><style>.cls-1{fill:none;stroke:#fff;stroke-linecap:round;stroke-linejoin:round;}</style></defs><metadata><rdf:RDF><cc:Work rdf:about=""><dc:format>image/svg+xml</dc:format><dc:type rdf:resource="http://purl.org/dc/dcmitype/StillImage"/></cc:Work></rdf:RDF></metadata><rect x="4" y="4" width="40" height="40" ry="8" fill="#d35244" fill-rule="evenodd" style="paint-order:stroke fill markers"/><rect x="8" y="8" width="32" height="32" ry="4" fill="#3b2f2f" stroke-linecap="round" stroke-linejoin="round" stroke-width="2"/><path d="m12 4c-4.432 0-8 3.568-8 8v24c0 4.432 3.568 8 8 8h24c4.432 0 8-3.568 8-8v-24c0-4.432-3.568-8-8-8zm0 1h24c3.878 0 7 3.122 7 7v24c0 3.878-3.122 7-7 7h-24c-3.878 0-7-3.122-7-7v-24c0-3.878 3.122-7 7-7z" fill-rule="evenodd" opacity=".3" style="paint-order:stroke fill markers"/><g stroke-linecap="round" stroke-linejoin="round" stroke-width="2"><path d="m18.977 11c-0.22339 0.014648-2.0391 0.25-2.9766 4-0.6518 2.6072-1.4537 5.3512-1 8 0.12584 0.73466 1 2 1 2h2s-0.9345-1.9479-1-3c-0.10561-1.6964 0-3 1-5 0.21082-0.42164 0.5286-1 1-1h10c0.4714 0 0.78918 0.57836 1 1 1 2 1.1056 3.3036 1 5-0.0655 1.0521-1 3-1 3h2s0.87416-1.2653 1-2c0.45373-2.6488-0.3482-5.3928-1-8-1-4-3-4-3-4h-10s-0.0085-9.77e-4 -0.02344 0zm-5.9766 3s-2 0-2 7c0 5.8125 0.93939 5.9943 0.99805 6h2.002l0.57812-2s-0.57812-1-0.57812-2c0-4 1-8 1-8zm22 0-2 1s1 4 1 8c0 1-0.57812 2-0.57812 2l0.57812 2h2.002c0.058608-0.005676 0.998-0.1875 0.998-6 0-7-2-7-2-7zm-16 11s4 3 4 6c0 1.3744-1 4-1 4h4s-1-2.6256-1-4c0-3 4-6 4-6s-3 1-5 1-5-1-5-1zm-3 1s-3 1-3 5 3 5 3 5h2s4-1 4-5-4-5-4-5zm14 0s-4 1-4 5 4 5 4 5h2s3-1 3-5-3-5-3-5zm-9 10-1 1h8l-1-1z" fill="#d35244"/><path d="m19 23 1-4.5748h8l1 4.5748z" fill="#fbb47b"/><rect x="14" y="28" width="5" height="7" rx="2.5" ry="3.5" opacity=".4"/><rect transform="scale(-1,1)" x="-34" y="28" width="5" height="7" rx="2.5" ry="3.5" opacity=".4"/></g></svg>
