<?xml version="1.0" encoding="UTF-8"?>
<!-- Created with Inkscape (http://www.inkscape.org/) -->
<svg id="SVGRoot" width="48px" height="48px" version="1.1" viewBox="0 0 48 48" xmlns="http://www.w3.org/2000/svg" xmlns:cc="http://creativecommons.org/ns#" xmlns:dc="http://purl.org/dc/elements/1.1/" xmlns:rdf="http://www.w3.org/1999/02/22-rdf-syntax-ns#" xmlns:xlink="http://www.w3.org/1999/xlink">
 <defs id="defs815">
  <style id="style819">.cls-1{fill:none;stroke:#fff;stroke-linecap:round;stroke-linejoin:round;}</style>
  <linearGradient id="linearGradient3718" x1="26" x2="26" y1="14" y2="32" gradientTransform="matrix(-1.2002 0 0 1.2002 52.805 -4.8072)" gradientUnits="userSpaceOnUse">
   <stop id="stop3712" stop-color="#ffcd4b" offset="0"/>
   <stop id="stop3714" stop-color="#ee63f9" offset="1"/>
  </linearGradient>
  <style id="style819-5">.cls-1{fill:none;stroke:#fff;stroke-linecap:round;stroke-linejoin:round;}</style>
  <style id="style2">.a{fill:none;stroke:#b1b5bd;stroke-linecap:round;stroke-linejoin:round;isolation:isolate;opacity:0.63;}</style>
  <style id="style819-6">.cls-1{fill:none;stroke:#fff;stroke-linecap:round;stroke-linejoin:round;}</style>
  <style id="style819-1">.cls-1{fill:none;stroke:#fff;stroke-linecap:round;stroke-linejoin:round;}</style>
  <style id="style819-4">.cls-1{fill:none;stroke:#fff;stroke-linecap:round;stroke-linejoin:round;}</style>
 </defs>
 <metadata id="metadata818">
  <rdf:RDF>
   <cc:Work rdf:about="">
    <dc:format>image/svg+xml</dc:format>
    <dc:type rdf:resource="http://purl.org/dc/dcmitype/StillImage"/>
    <dc:title/>
   </cc:Work>
  </rdf:RDF>
 </metadata>
 <g id="layer1">
  <rect id="rect1373-5" x="4" y="4" width="40" height="40" ry="8" fill="#9a72da" fill-rule="evenodd" style="paint-order:stroke fill markers"/>
  <path id="rect817" d="m12 4c-4.432 0-8 3.568-8 8v24c0 4.432 3.568 8 8 8h24c4.432 0 8-3.568 8-8v-24c0-4.432-3.568-8-8-8h-24zm0 1h24c3.878 0 7 3.122 7 7v24c0 3.878-3.122 7-7 7h-24c-3.878 0-7-3.122-7-7v-24c0-3.878 3.122-7 7-7z" fill-rule="evenodd" opacity=".3" style="paint-order:stroke fill markers"/>
  <path id="path3708" d="m24.049 11.996c0.41568 0.0175 0.79266 0.24901 0.99627 0.61183l10.802 19.503c0.50886 0.90452-0.29242 1.9849-1.3057 1.7605l-10.542-2.8711-10.542 2.8711c-1.0133 0.22441-1.8146-0.85594-1.3057-1.7605l10.802-19.503c0.22089-0.39351 0.64382-0.62988 1.0947-0.61183z" color="#000000" color-rendering="auto" dominant-baseline="auto" fill="url(#linearGradient3718)" image-rendering="auto" shape-rendering="auto" solid-color="#000000" style="font-feature-settings:normal;font-variant-alternates:normal;font-variant-caps:normal;font-variant-ligatures:normal;font-variant-numeric:normal;font-variant-position:normal;isolation:auto;mix-blend-mode:normal;shape-padding:0;text-decoration-color:#000000;text-decoration-line:none;text-decoration-style:solid;text-indent:0;text-orientation:mixed;text-transform:none;white-space:normal"/>
  <path id="path3710" d="M 13.198102,33.899405 24,36 34.801898,33.899405 24,31 Z" opacity=".3" stroke-width="1.2002"/>
  <path id="path3745" d="m24 12v19l-10.542 2.8711c-1.0133 0.22441-1.8146-0.85594-1.3057-1.7605l10.802-19.503c0.21267-0.37886 0.61361-0.60642 1.0455-0.60714z" opacity=".1" stroke-width="1.2002"/>
  <path id="path3722" d="m11.998 30.001 12.002-3.0005 12.002 3.0005" fill="none" stroke="#9a72da" stroke-linecap="round" stroke-linejoin="round" stroke-width="2"/>
  <path id="path3722-0" d="m11.998 25.001 12.002-3.0005 12.002 3.0005" fill="none" stroke="#9a72da" stroke-linecap="round" stroke-linejoin="round" stroke-width="2"/>
  <path id="path3722-2" d="m11.998 20.001 12.002-3.0005 12.002 3.0005" fill="none" stroke="#9a72da" stroke-linecap="round" stroke-linejoin="round" stroke-width="2"/>
 </g>
</svg>
