<?xml version="1.0" encoding="UTF-8"?>
<!-- Created with Inkscape (http://www.inkscape.org/) -->
<svg id="SVGRoot" width="48px" height="48px" version="1.1" viewBox="0 0 48 48" xml:space="preserve" xmlns="http://www.w3.org/2000/svg" xmlns:cc="http://creativecommons.org/ns#" xmlns:dc="http://purl.org/dc/elements/1.1/" xmlns:rdf="http://www.w3.org/1999/02/22-rdf-syntax-ns#"><defs><style>.cls-1{fill:none;stroke:#fff;stroke-linecap:round;stroke-linejoin:round;}</style><style>.cls-1{fill:none;stroke:#fff;stroke-linecap:round;stroke-linejoin:round;}</style><style>.cls-1{fill:none;stroke:#fff;stroke-linecap:round;stroke-linejoin:round;}</style><style>.a{fill:none;stroke:#b1b5bd;stroke-linecap:round;stroke-linejoin:round;isolation:isolate;opacity:0.63;}</style><style>.cls-1{fill:none;stroke:#fff;stroke-linecap:round;stroke-linejoin:round;}</style><style>.cls-1{fill:none;stroke:#fff;stroke-linecap:round;stroke-linejoin:round;}</style><style>.cls-1{fill:none;stroke:#fff;stroke-linecap:round;stroke-linejoin:round;}</style><style>.cls-1{fill:none;stroke:#fff;stroke-linecap:round;stroke-linejoin:round;}</style></defs><metadata><rdf:RDF><cc:Work rdf:about=""><dc:format>image/svg+xml</dc:format><dc:type rdf:resource="http://purl.org/dc/dcmitype/StillImage"/></cc:Work></rdf:RDF></metadata><rect x="4" y="4" width="40" height="40" ry="8" fill="#efefef" fill-rule="evenodd" style="paint-order:stroke fill markers"/><path d="m12 4c-4.432 0-8 3.568-8 8v24c0 4.432 3.568 8 8 8h24c4.432 0 8-3.568 8-8v-24c0-4.432-3.568-8-8-8zm0 1h24c3.878 0 7 3.122 7 7v24c0 3.878-3.122 7-7 7h-24c-3.878 0-7-3.122-7-7v-24c0-3.878 3.122-7 7-7z" fill-rule="evenodd" opacity=".3" style="paint-order:stroke fill markers"/><path d="m13.057 12.002a1.0001 1.0001 0 0 0-0.26953 0.021485 1.0001 1.0001 0 0 0-0.78711 0.97656v18a1.0001 1.0001 0 0 0 1.8242 0.56641l3.9512-5.748 5.3164 11.598a1.0001 1.0001 0 0 0 1.8164 0l5.3164-11.598 3.0137 4.3848c0.53098-0.1298 1.1287-0.20312 1.7617-0.20312 0.34555 0 0.68059 0.021685 1 0.0625v-17.062a1.0001 1.0001 0 0 0-1.9082-0.41602l-4.2148 9.1973-5.0527-7.3477a1.0001 1.0001 0 0 0-1.6484 0l-5.0527 7.3477-4.2148-9.1973a1.0001 1.0001 0 0 0-0.85156-0.58203zm10.943 4.7637 4.9043 7.1348-4.9043 10.701-4.9043-10.701 4.9043-7.1348zm-10 0.81445 2.8047 6.1191-2.8047 4.0801v-10.199zm20 0v10.199l-2.8047-4.0801 2.8047-6.1191z" fill="#4e4e4e" stop-color="#000000" stroke-linecap="round" stroke-linejoin="round"/><g transform="matrix(1.607 0 0 1.607 -19.656 8.5321)" fill="#c4e962" aria-label="2"><path d="m35.877 18.959h-3.8336v-0.80672q0.43944-0.3181 0.87887-0.67555 0.44272-0.35745 0.70834-0.61652 0.3968-0.38369 0.56405-0.66899t0.16725-0.56405q0-0.3345-0.21644-0.51486-0.21316-0.18364-0.61652-0.18364-0.3017 0-0.6362 0.12462-0.33122 0.12462-0.61652 0.3181h-0.10494v-1.0855q0.23284-0.10166 0.68539-0.20332 0.45583-0.10166 0.91166-0.10166 0.91822 0 1.4003 0.38697 0.48207 0.38369 0.48207 1.0888 0 0.46239-0.23284 0.87887-0.22956 0.41648-0.70506 0.85919-0.29842 0.27547-0.60012 0.5083-0.3017 0.22956-0.4296 0.32138h2.1939z" fill="#4e4e4e" stroke-width=".1679"/></g></svg>
