<?xml version="1.0" encoding="UTF-8"?>
<!-- Created with Inkscape (http://www.inkscape.org/) -->
<svg id="SVGRoot" width="48px" height="48px" version="1.1" viewBox="0 0 48 48" xmlns="http://www.w3.org/2000/svg" xmlns:cc="http://creativecommons.org/ns#" xmlns:dc="http://purl.org/dc/elements/1.1/" xmlns:rdf="http://www.w3.org/1999/02/22-rdf-syntax-ns#">
 <defs>
  <style>.cls-1{fill:none;stroke:#fff;stroke-linecap:round;stroke-linejoin:round;}</style>
 </defs>
 <metadata>
  <rdf:RDF>
   <cc:Work rdf:about="">
    <dc:format>image/svg+xml</dc:format>
    <dc:type rdf:resource="http://purl.org/dc/dcmitype/StillImage"/>
   </cc:Work>
  </rdf:RDF>
 </metadata>
 <rect x="4" y="4" width="40" height="40" ry="8" fill="#352b41" fill-rule="evenodd" style="paint-order:stroke fill markers"/>
 <path d="m12 4c-4.432 0-8 3.568-8 8v24c0 4.432 3.568 8 8 8h24c4.432 0 8-3.568 8-8v-24c0-4.432-3.568-8-8-8zm0 1h24c3.878 0 7 3.122 7 7v24c0 3.878-3.122 7-7 7h-24c-3.878 0-7-3.122-7-7v-24c0-3.878 3.122-7 7-7z" fill-rule="evenodd" opacity=".4" style="paint-order:stroke fill markers"/>
 <g stroke-linecap="round" stroke-linejoin="round">
  <g stroke-width="4">
   <rect x="24" y="12" width="14" height="24" ry="5" fill="#d94959"/>
   <rect x="28" y="14" width="6" height="20" ry="1.6749" fill="#352b41"/>
   <path d="m10 20h4v-4s0-2 2-2h2c2 0 2 2 2 2v4c0 5-10 4-10 9v7h14v-5h-4v2s0 1-1 1h-4c-1 0-1-1-1-1v-4c0-3 10-1 10-9v-4s-1-4-5-4h-4c-4 0-5 4-5 4z" fill="#d94959"/>
  </g>
  <rect x="8" y="20" width="32" height="2" fill="#352b41" stroke-width="4.2762"/>
 </g>
</svg>
