<?xml version="1.0" encoding="UTF-8"?>
<!-- Created with Inkscape (http://www.inkscape.org/) -->
<svg id="SVGRoot" width="48px" height="48px" version="1.1" viewBox="0 0 48 48" xml:space="preserve" xmlns="http://www.w3.org/2000/svg" xmlns:cc="http://creativecommons.org/ns#" xmlns:dc="http://purl.org/dc/elements/1.1/" xmlns:rdf="http://www.w3.org/1999/02/22-rdf-syntax-ns#"><defs><style>.cls-1{fill:none;stroke:#fff;stroke-linecap:round;stroke-linejoin:round;}</style><style>.cls-1{fill:none;stroke:#fff;stroke-linecap:round;stroke-linejoin:round;}</style><style>.cls-1{fill:none;stroke:#fff;stroke-linecap:round;stroke-linejoin:round;}</style><style>.cls-1{fill:none;stroke:#fff;stroke-linecap:round;stroke-linejoin:round;}</style></defs><metadata><rdf:RDF><cc:Work rdf:about=""><dc:format>image/svg+xml</dc:format><dc:type rdf:resource="http://purl.org/dc/dcmitype/StillImage"/></cc:Work></rdf:RDF></metadata><rect x="4" y="4" width="40" height="40" ry="8" fill="#214667" fill-rule="evenodd" style="paint-order:stroke fill markers"/><path d="m12 4c-4.432 0-8 3.568-8 8v24c0 4.432 3.568 8 8 8h24c4.432 0 8-3.568 8-8v-24c0-4.432-3.568-8-8-8zm0 1h24c3.878 0 7 3.122 7 7v24c0 3.878-3.122 7-7 7h-24c-3.878 0-7-3.122-7-7v-24c0-3.878 3.122-7 7-7z" fill-rule="evenodd" opacity=".4" style="paint-order:stroke fill markers"/><path d="m15 14h8l12 20h-9z" fill="#a4f8fc" stroke-linecap="round" stroke-linejoin="round" stroke-width="2"/><path d="m37 14h-8l-19 20h9z" fill="#a4f8fc" stroke-linecap="round" stroke-linejoin="round" stroke-width="2"/><path d="m18.381 16 4.209 7.6523-7.9316 8.3477h3.4512l5.6328-6.2578 3.4414 6.2578h4.2832l-5.3438-8.9043 6.3867-7.0957h-2.6504l-4.8984 5.1562-3.0938-5.1562h-3.4863z" fill="#214667"/><g fill="#a4f8fc" stroke-linecap="round"><rect x="28" y="22" width="14" height="2" stroke-width="4.4376"/><rect x="34" y="20" width="4" height="10" stroke-width="8.9443"/><rect x="34" y="32" width="4" height="2" stroke-width="4"/></g></svg>
