<?xml version="1.0" encoding="UTF-8"?>
<!-- Created with Inkscape (http://www.inkscape.org/) -->
<svg id="SVGRoot" width="48px" height="48px" version="1.1" viewBox="0 0 48 48" xml:space="preserve" xmlns="http://www.w3.org/2000/svg" xmlns:cc="http://creativecommons.org/ns#" xmlns:dc="http://purl.org/dc/elements/1.1/" xmlns:rdf="http://www.w3.org/1999/02/22-rdf-syntax-ns#"><defs><style>.cls-1{fill:none;stroke:#fff;stroke-linecap:round;stroke-linejoin:round;}</style><style>.cls-1{fill:none;stroke:#fff;stroke-linecap:round;stroke-linejoin:round;}</style><style>.cls-1{fill:none;stroke:#fff;stroke-linecap:round;stroke-linejoin:round;}</style><style id="current-color-scheme" type="text/css">.ColorScheme-Text {
        color:#31363b;
      }
      .ColorScheme-Accent {
        color:#3daee9;
      }</style><style type="text/css">.ColorScheme-Text {
        color:#31363b;
      }
      .ColorScheme-Accent {
        color:#3daee9;
      }</style><style>.cls-1{fill:none;stroke:#fff;stroke-linecap:round;stroke-linejoin:round;}</style></defs><metadata><rdf:RDF><cc:Work rdf:about=""><dc:format>image/svg+xml</dc:format><dc:type rdf:resource="http://purl.org/dc/dcmitype/StillImage"/></cc:Work></rdf:RDF></metadata><rect x="4" y="4" width="40" height="40" ry="8" fill="#d35244" fill-rule="evenodd" style="paint-order:stroke fill markers"/><rect x="8" y="8" width="32" height="32" ry="4" fill="#efefef" stroke-linecap="round" stroke-linejoin="round" stroke-width="2"/><path d="m12 4c-4.432 0-8 3.568-8 8v24c0 4.432 3.568 8 8 8h24c4.432 0 8-3.568 8-8v-24c0-4.432-3.568-8-8-8zm0 1h24c3.878 0 7 3.122 7 7v24c0 3.878-3.122 7-7 7h-24c-3.878 0-7-3.122-7-7v-24c0-3.878 3.122-7 7-7z" fill-rule="evenodd" opacity=".3" style="paint-order:stroke fill markers"/><path d="m22.199 35.729c-0.34101-0.36796-0.6295-0.73773-0.64109-0.82172-0.01159-0.08398-0.05048-0.38026-0.08643-0.65838-0.25214-1.9507-0.47623-2.6455-0.89624-2.7788-0.25145-0.07981-0.80204-0.85255-1.2235-1.7172-0.42149-0.86466-1.5719-2.5316-2.5564-3.7044-2.0515-2.4436-2.304-3.3046-0.96837-3.3023 0.45195 7.73e-4 1.2573 0.12236 1.7896 0.27018 0.83079 0.2307 1.3322 0.16027 3.5397-0.49714 1.4145-0.42125 3.0269-0.83494 3.5832-0.91931 2.0287-0.30772 2.4019-0.41795 2.3977-0.7083-0.0023-0.16278-0.51432-1.1441-1.1378-2.1807-1.267-2.1065-1.4586-3.422-0.7241-4.9698 0.53532-1.1281 1.7322-2.1179 2.5808-2.1342 0.37175-0.0071 1.5552 0.41951 2.63 0.94814 2.5002 1.2298 2.5157 1.6657 0.06601 1.8595-1.7936 0.14195-2.9736 0.65865-3.2703 1.4321-0.18973 0.49442 0.6468 1.7933 2.4732 3.8402 0.92717 1.0391 1.4623 1.9002 1.654 2.6618 0.40104 1.5927 0.36817 1.8649-0.41126 3.4054-0.64307 1.271-1.2779 1.9127-4.8045 4.8562-0.66138 0.55203-0.7628 1.7723-0.18701 2.2502 0.21003 0.17431 0.90901 0.41541 1.5533 0.53577 0.64428 0.12036 1.3358 0.35524 1.5366 0.52195 0.686 0.56933-0.56799 0.72365-2.4418 0.3005l-1.7473-0.3946 0.14061-1.3624c0.16994-1.6465-0.0831-1.8255-1.87-1.323-1.1491 0.32319-1.224 0.39676-1.2974 1.2734-0.12443 1.4874 0.2314 1.8633 2.0965 2.2153 1.5168 0.2862 2.4738 0.75927 1.536 0.75927-0.2168 0-0.39418 0.11378-0.39418 0.25284s-0.39822 0.25284-0.88493 0.25284c-0.48671 0-0.88493 0.11378-0.88493 0.25284 0 0.45379-0.51701 0.26666-1.1498-0.41618z" fill="#4e4e4e" stroke-width=".25284"/></svg>
