<?xml version="1.0" encoding="UTF-8"?>
<!-- Created with Inkscape (http://www.inkscape.org/) -->
<svg id="SVGRoot" width="48px" height="48px" version="1.1" viewBox="0 0 48 48" xml:space="preserve" xmlns="http://www.w3.org/2000/svg" xmlns:cc="http://creativecommons.org/ns#" xmlns:dc="http://purl.org/dc/elements/1.1/" xmlns:rdf="http://www.w3.org/1999/02/22-rdf-syntax-ns#"><defs><style>.cls-1{fill:none;stroke:#fff;stroke-linecap:round;stroke-linejoin:round;}</style><style>.cls-1{fill:none;stroke:#fff;stroke-linecap:round;stroke-linejoin:round;}</style></defs><metadata><rdf:RDF><cc:Work rdf:about=""><dc:format>image/svg+xml</dc:format><dc:type rdf:resource="http://purl.org/dc/dcmitype/StillImage"/></cc:Work></rdf:RDF></metadata><rect x="4" y="4" width="40" height="40" ry="8" fill="#4fb47b" fill-rule="evenodd" style="paint-order:stroke fill markers"/><path d="m12 4c-4.432 0-8 3.568-8 8v24c0 4.432 3.568 8 8 8h24c4.432 0 8-3.568 8-8v-24c0-4.432-3.568-8-8-8zm0 1h24c3.878 0 7 3.122 7 7v24c0 3.878-3.122 7-7 7h-24c-3.878 0-7-3.122-7-7v-24c0-3.878 3.122-7 7-7z" fill-rule="evenodd" opacity=".3" style="paint-order:stroke fill markers"/><path d="m23 10-7 3 2 6zm1 0-5 9h10zm1 0 5 9 2-6zm-10 3-4 6h6zm18 0-2 6h6zm-22 7-1 6h4zm1 0 3 6 2-6zm6 0-2 6 7 1zm1 0 5 7 5-7zm11 0-5 7 7-1zm1 0 2 6 3-6zm6 0-3 6h4zm-27 7 3 6h5l-3-6zm6 0 3 6h6l-2-5zm16 0-8 1 2 5zm1 0-6 6h7zm1 0 1 6 3-6zm-20 7 8 4-4-4zm5 0 5 4 1-4zm7 0-1 4 9-4z" fill="#f4fff1" stroke-linecap="round" stroke-linejoin="round" stroke-width="2"/></svg>
