<?xml version="1.0" encoding="UTF-8"?>
<!-- Created with Inkscape (http://www.inkscape.org/) -->
<svg id="SVGRoot" width="48px" height="48px" version="1.1" viewBox="0 0 48 48" xml:space="preserve" xmlns="http://www.w3.org/2000/svg" xmlns:cc="http://creativecommons.org/ns#" xmlns:dc="http://purl.org/dc/elements/1.1/" xmlns:rdf="http://www.w3.org/1999/02/22-rdf-syntax-ns#"><defs><style>.cls-1{fill:none;stroke:#fff;stroke-linecap:round;stroke-linejoin:round;}</style><style>.cls-1{fill:none;stroke:#fff;stroke-linecap:round;stroke-linejoin:round;}</style><style>.cls-1{fill:none;stroke:#fff;stroke-linecap:round;stroke-linejoin:round;}</style><style>.cls-1{fill:none;stroke:#fff;stroke-linecap:round;stroke-linejoin:round;}</style></defs><metadata><rdf:RDF><cc:Work rdf:about=""><dc:format>image/svg+xml</dc:format><dc:type rdf:resource="http://purl.org/dc/dcmitype/StillImage"/></cc:Work></rdf:RDF></metadata><rect x="4" y="4" width="40" height="40" ry="8" fill="#efefef" fill-rule="evenodd" style="paint-order:stroke fill markers"/><g fill="#5488e8" stroke-linecap="round" stroke-linejoin="round"><path d="m22 12 2-2h4v28h-6z" stroke-width="2"/><path d="m20 14v8h-4v-4z" stroke-width="4"/><g stroke-width="2"><path d="m40 8v27s4.057-7.784 4-12c-0.06755-5-4-15-4-15z"/><path d="m40 8h-30s3-4 9-4c1.2018 0 1.8497 1.6517 3 2 3.1903 0.96595 6 0 10 0 1.7951 0 8 2 8 2z"/><path d="m8 40v-27s-4.057 7.784-4 12c0.06755 5 4 15 4 15z"/><path d="m8 40h30s-3 4-9 4c-1.2018 0-1.8497-1.6517-3-2-3.1903-0.96595-6 0-10 0-1.7951 0-8-2-8-2z"/></g></g><path d="m12 4c-4.432 0-8 3.568-8 8v24c0 4.432 3.568 8 8 8h24c4.432 0 8-3.568 8-8v-24c0-4.432-3.568-8-8-8zm0 1h24c3.878 0 7 3.122 7 7v24c0 3.878-3.122 7-7 7h-24c-3.878 0-7-3.122-7-7v-24c0-3.878 3.122-7 7-7z" fill-rule="evenodd" opacity=".3" style="paint-order:stroke fill markers"/></svg>
