<?xml version="1.0" encoding="UTF-8"?>
<!-- Created with Inkscape (http://www.inkscape.org/) -->
<svg id="SVGRoot" width="48px" height="48px" version="1.1" viewBox="0 0 48 48" xmlns="http://www.w3.org/2000/svg" xmlns:cc="http://creativecommons.org/ns#" xmlns:dc="http://purl.org/dc/elements/1.1/" xmlns:rdf="http://www.w3.org/1999/02/22-rdf-syntax-ns#">
 <defs id="defs815">
  <style id="style819">.cls-1{fill:none;stroke:#fff;stroke-linecap:round;stroke-linejoin:round;}</style>
  <style id="style819-5">.cls-1{fill:none;stroke:#fff;stroke-linecap:round;stroke-linejoin:round;}</style>
  <style id="current-color-scheme" type="text/css">.ColorScheme-Text {
        color:#31363b;
      }
      .ColorScheme-Accent {
        color:#3daee9;
      }</style>
  <style id="current-color-scheme-6" type="text/css">.ColorScheme-Text {
        color:#31363b;
      }
      .ColorScheme-Accent {
        color:#3daee9;
      }</style>
 </defs>
 <metadata id="metadata818">
  <rdf:RDF>
   <cc:Work rdf:about="">
    <dc:format>image/svg+xml</dc:format>
    <dc:type rdf:resource="http://purl.org/dc/dcmitype/StillImage"/>
    <dc:title/>
   </cc:Work>
  </rdf:RDF>
 </metadata>
 <g id="layer1">
  <rect id="rect1373" x="4" y="4" width="40" height="40" ry="8" fill="#c4493c" fill-rule="evenodd" style="paint-order:stroke fill markers"/>
  <path id="rect817" d="m12 4c-4.432 0-8 3.568-8 8v24c0 4.432 3.568 8 8 8h24c4.432 0 8-3.568 8-8v-24c0-4.432-3.568-8-8-8h-24zm0 1h24c3.878 0 7 3.122 7 7v24c0 3.878-3.122 7-7 7h-24c-3.878 0-7-3.122-7-7v-24c0-3.878 3.122-7 7-7z" fill-rule="evenodd" opacity=".3" style="paint-order:stroke fill markers"/>
  <path id="path904" d="m9.077 23.933s1.86 0.5445 4.5644 0.15561c1.7554-0.25242 2.6453-1.4004 2.6453-1.4004l0.72616-1.8154-2.2303-2.0747-4.4088 1.4523-2.1785 2.386z" opacity=".4"/>
  <path id="path902" d="m23.279 35.919c0-0.24701 0.94872-0.34951 3.1849-0.34408 1.933 0.0047 2.1243 0.03035 1.8384 0.24657-0.24604 0.1861-0.85756 0.24135-2.6712 0.24135-1.2937 0-2.3521-0.06472-2.3521-0.14384z" fill="#2c2c2c" stroke-width=".16438"/>
  <path id="path900" d="m21.245 34.498c-4.4242-0.71431-8.4769-2.4122-10.521-4.4077-1.1436-1.1165-1.5751-1.9708-1.6086-3.1851-0.016024-0.57941-0.052233-0.74275-0.092604-0.41751-0.11373 0.91645-0.53862 0.54604-0.53862-0.46957 0-0.63808 0.33344-0.75557 2.849-1.0039 3.1112-0.30715 17.537-0.24649 22.137 0.0931 3.96 0.2923 6.4337 0.54618 7.126 0.73133 0.676 0.18079 0.49279 0.44736-0.27968 0.40693l-0.70026-0.03667-0.1944 0.9412c-0.44858 2.1718-2.7735 4.831-5.3252 6.0907-2.3005 1.1357-3.5915 1.3744-7.7772 1.4378-2.5859 0.03918-4.032-0.0123-5.0749-0.18068z" fill="#2c2c2c" stroke-width=".16438"/>
  <path id="path961" d="m12.426 25.543c-0.35447 0.01641-0.65969 0.10587-0.71875 0.25976-0.38251 0.99681 0.29487 2.4512 1.1406 2.4512 0.47175 0 0.48538-0.02114 0.45508-0.73828l-0.03125-0.74023 0.12695 0.60742c0.07 0.3343 0.22229 0.72205 0.33789 0.86133 0.17357 0.20914 0.16423 0.27146-0.05469 0.35547-0.1458 0.05595-0.27224 0.25937-0.28125 0.45312-0.0146 0.31392-0.02961 0.30762-0.13086-0.05859-0.19528-0.70617-1.5266-0.55682-1.8105 0.20312-0.11996 0.32107-0.03559 0.44546 0.60938 0.90625 0.41128 0.29384 0.83901 0.53516 0.95117 0.53516 0.11217 0 0.22963 0.0637 0.25977 0.14258 0.09262 0.24242 1.7446 1.0078 2.1758 1.0078 0.2237 0 0.45795 0.08201 0.51953 0.18164 0.06158 0.09964 0.36176 0.28612 0.66797 0.41406 0.49013 0.20479 0.60465 0.20031 0.95508-0.0293 0.37202-0.24376 0.42141-0.23874 0.74414 0.08398 0.18993 0.18993 0.56314 0.38997 0.83008 0.44336 0.16593 0.03319 0.27548 0.14063 0.35938 0.13477 0 0 0.42756 0.06323 0.56793-0.19298 0.16006-0.29217 0.40278-0.65077 0.40278-0.65077 0.44904-0.4503 0.47652-0.13093 0.66602 0.27539 0.23844 0.39208 0.41092 0.49023 0.86719 0.49023 0.31351 0 0.74905-0.08047 0.9668-0.17969 0.30786-0.14027 0.50604-0.12467 0.89062 0.07422 0.45724 0.23645 0.54144 0.232 1.1152-0.06055l0.62109-0.31641 0.48047 0.40625c0.61498 0.51747 1.1251 0.51376 1.752-0.01367 0.47861-0.40272 0.51484-0.40935 0.91602-0.14648 0.28793 0.18866 0.5848 0.24087 0.95312 0.16797 0.294-0.05818 0.73708-0.10168 0.98438-0.09766 0.57209 0.0093 1.1106-0.52346 1.1191-1.1074l0.0059-0.45312 0.23438 0.42969c0.29881 0.54979 1.0812 0.88144 1.6816 0.71289 0.25038-0.07029 0.51109-0.11483 0.58008-0.09961 0.23626 0.05214 1.4213-0.79133 1.6113-1.1465 0.28669-0.53568 0.07845-1.6071-0.40625-2.0918-0.35848-0.35848-0.48475-0.39519-0.875-0.25586-0.48289 0.17241-0.54457 0.45972-0.3125 1.4648 0.06262 0.27123-0.04019 0.10552-0.23047-0.36914-0.19028-0.47466-0.44903-0.86328-0.57422-0.86328-0.14613 0-0.08325-0.1433 0.17578-0.40234 0.2843-0.2843 0.4043-0.58513 0.4043-1.0176 0-0.71748-0.58028-1.664-1.0684-1.7441-0.34115-0.05599-1.1616 0.39562-1.5215 0.83789-0.15946 0.19594-0.20508 0.20308-0.20508 0.0293 7e-6 -0.31482-0.49385-0.82617-0.79883-0.82617-0.14039 0-0.52974 0.2681-0.86523 0.5957l-0.61136 0.59571-0.66406-0.67773c-0.80996-0.82632-1.2947-0.86751-2.1582-0.18359-0.71408 0.56556-1.0406 0.5212-1.4102-0.19336-0.22801-0.44093-0.31282-0.47911-1.0039-0.43359-0.6505 0.04284-0.82637 0.13723-1.2656 0.68164-0.43191 0.53531-0.50915 0.76804-0.50195 1.5117 0.01065 1.1018-0.34488 1.3864-1.3262 1.0625-0.33671-0.11113-0.93777-0.16597-1.3359-0.12109-0.52626 0.05931-0.68182 0.0315-0.57031-0.10352 0.33607-0.40687 0.38156-1.3779 0.09375-1.9844-0.59034-1.2441-1.4373-1.4006-2.3965-0.44141-0.351 0.35101-0.63867 0.54272-0.63867 0.42578 0-0.32109-0.96132-1.0625-1.377-1.0625-0.20101 0-0.44614 0.08092-0.54492 0.17969-0.12989 0.12989-0.27096 0.12989-0.51367 0-0.25996-0.13913-0.66506-0.1961-1.0195-0.17969zm3.4648 3.123c0.1846 0 0.30285 0.4194 0.17578 0.625-0.07568 0.12242-0.17817 0.0815-0.30469-0.12109-0.18164-0.29086-0.12717-0.50391 0.12891-0.50391z" fill="#fff" stroke-width=".16438"/>
  <path id="path898" d="m32.176 32.391c-0.16037 0.01882-0.33745 0.11534-0.63086 0.31445-0.39628 0.26892-0.74044 0.38348-0.97656 0.32422-0.20073-0.05038-0.41072-0.01653-0.4668 0.07422-0.13437 0.2174-1.5136 0.21421-1.6484-0.0039-0.06646-0.10754-0.30205-0.04759-0.64453 0.16406-0.69641 0.4304-1.4106 0.42303-1.9707-0.01758-0.38322-0.30144-0.49952-0.32144-0.83008-0.14453-0.23296 0.12468-0.63248 0.16719-1.0156 0.10547-0.80257-0.12927-0.80175-0.13048-1.7812-0.0078-0.70072 0.08771-0.86825 0.05385-1.1309-0.23633-0.24572-0.27152-0.37303-0.30595-0.63086-0.16797-0.04281 0.02291-0.06565 0.03068-0.0957 0.04492 0 0-0.0449 0.1186-0.08985 0.16014-0.22499 0.20792-0.45898 0.26367-0.45898 0.26367 0.54422 0.22378 1.9929 0.55322 3.0625 0.66211 2.1117 0.21498 5.2106 0.17252 6.7402-0.0918 1.5044-0.25996 3.3691-0.8441 3.3691-1.0547 0-0.06379-0.18287-0.20006-0.4082-0.30274-0.08722-0.03974-0.16294-0.06644-0.23438-0.08008-0.05358-0.01023-0.10475-0.01213-0.1582-0.0059z" fill="#f97263" stroke-width=".16438"/>
  <path id="path896" d="m31.48 29.476c-0.04944-0.23224-0.04721-0.53096 5e-3 -0.66382 0.07998-0.20384 0.13972-0.19566 0.38246 0.05238 0.22553 0.23046 0.23688 0.29395 0.05254 0.29395-0.12932 0-0.26099 0.16644-0.29259 0.36986-0.05474 0.35236-0.0617 0.34988-0.14732-0.05239z" fill="#fff" stroke-width=".16438"/>
  <path id="path892" d="m18.316 32.674c-0.14656-0.14656-0.35481-0.21115-0.46373-0.14384-0.23016 0.14224 0.08301 0.4031 0.48905 0.40734 0.2007 0.0021 0.19649-0.04168-0.02531-0.26351z" fill="#f97263" stroke-width=".16438"/>
  <path id="path890" d="m35.802 27.852c0.53598-0.53598 0.64013-0.74387 0.5971-1.1918-0.04598-0.4786-0.12718-0.56108-0.68893-0.6998-0.58547-0.14458-0.66828-0.12066-1.0274 0.29684-0.29333 0.34102-0.39059 0.64964-0.39059 1.2394 0 0.43194 0.04932 0.83467 0.10958 0.89494 0.26642 0.26642 0.79969 0.0609 1.4002-0.53964z" fill="#fff" stroke-width=".16438"/>
  <path id="path888" d="m29.686 25.83c0.0021-0.06781-0.29223-0.1233-0.65388-0.1233-0.74988 0-0.80222 0.11148-0.30358 0.64669l0.35395 0.37992 0.29993-0.39002c0.16496-0.21451 0.30157-0.4455 0.30358-0.51331z" fill="#f97263" stroke-width=".16438"/>
  <path id="path886" d="m19.704 26.073c-0.05978-0.29325 0.86951-0.25292 1.5437 0.06698 0.53554 0.25413 0.57858 0.25192 0.80044-0.0411 0.12895-0.17032 0.23681-0.36515 0.23969-0.43296 0.0029-0.06783-0.84545-0.1233-1.8852-0.1233-1.0397 0-1.8904 0.04966-1.8904 0.11034 0 0.06068 0.12537 0.24888 0.2786 0.41819 0.30025 0.33177 0.98072 0.33311 0.91318 0.0018z" fill="#f97263" stroke-width=".16438"/>
  <path id="path884" d="m25.978 26.05c0.2705-0.2989 0.26779-0.31904-0.05671-0.42204-0.18742-0.05948-0.49412-0.05948-0.68154 0-0.3245 0.103-0.32721 0.12313-0.05671 0.42204 0.15623 0.17263 0.3351 0.31388 0.39748 0.31388 0.0624 0 0.24126-0.14125 0.39748-0.31388z" fill="#f97263" stroke-width=".16438"/>
  <path id="path882" d="m16.457 25.871c0.29242-0.32312 0.28712-0.32876-0.30907-0.32876-0.55566 0-0.59182 0.0276-0.43065 0.32876 0.09678 0.18082 0.23585 0.32877 0.30907 0.32877 0.07322 0 0.26701-0.14794 0.43065-0.32877z" fill="#f97263" stroke-width=".16438"/>
  <path id="path880" d="m31.974 25.939c0-0.17522-0.18691-0.31541-0.42055-0.31541-0.41892 0-0.54695 0.22406-0.28036 0.49064 0.2561 0.2561 0.70091 0.1449 0.70091-0.17522z" fill="#f97263" stroke-width=".21027"/>
  <path id="path876" d="m8.4718 23.582c-0.5665-0.5665-0.61144-1.085-0.13773-1.5892 0.33554-0.35717 0.33641-0.37457 0.041103-0.82528-0.47932-0.73153-0.408-2.2275 0.16158-3.3893 0.85973-1.7536 2.2566-2.4916 4.255-2.2481 2.2889 0.27894 3.5831 1.4917 3.5831 3.3576 0 0.55048 0.09743 0.81898 0.41096 1.1325 0.57088 0.57088 0.56455 1.5332-0.01463 2.2215-0.58972 0.70085-0.78594 0.6326-0.3862-0.13434 0.50925-0.97702 0.25166-1.6712-0.70969-1.9124-0.34367-0.08624-0.45113-0.05373-0.45113 0.13656 0 0.30958-0.78228 0.98314-1.4165 1.2197-0.26064 0.09721-1.2136 0.41067-2.1177 0.6966-0.90411 0.28593-1.7548 0.56157-1.8904 0.61253-0.17184 0.06457-0.19619 0.03853-0.08034-0.08591 0.091428-0.0982 0.9791-0.48346 1.9726-0.85612 2.9424-1.1037 3.8387-1.7825 2.2024-1.668-1.6115 0.11282-4.6487 1.4469-5.0809 2.2318-0.23689 0.43016-0.22559 0.46667 0.28767 0.92961 0.62616 0.56477 0.65167 0.65088 0.19283 0.65088-0.18777 0-0.55764-0.21622-0.82191-0.4805z" fill="#2c2c2c" stroke-width=".16438"/>
  <path id="path874" d="m11.454 18.217c0.84418-0.80878 0.69571-1.4635-0.2722-1.2004-0.72165 0.19617-1.3824 0.86001-1.3824 1.3888 0 0.415 0.034578 0.43471 0.601 0.34279 0.33055-0.05364 0.80469-0.29267 1.0536-0.53118z" fill="#fff" stroke-width=".16438"/>
  <path id="path872" d="m12.101 23.087c-0.32643-0.09599-0.19856-0.14677 0.62166-0.24694 0.56794-0.06936 1.3631-0.29344 1.7671-0.49796 0.76228-0.38592 0.94836-0.3323 0.44082 0.12702-0.70956 0.64215-1.8787 0.89744-2.8296 0.61787z" fill="#2c2c2c" stroke-width=".16438"/>
  <path id="path870" d="m31.048 22.875c0.20254-0.15621 0.45143-0.28566 0.5531-0.28767 0.11258-0.0022 0.05068-0.27481-0.15837-0.69737-0.45121-0.91198-0.58808-3.3954-0.23374-4.2412 0.34398-0.82105 1.0336-1.581 1.8903-2.0831 0.58358-0.342 1.0237-0.45236 2.0382-0.51109 1.7507-0.10133 2.604 0.15932 3.6111 1.1031 0.68646 0.64327 0.84469 0.91246 1.0715 1.8229 0.34448 1.3826 0.21901 2.8243-0.34216 3.9317-0.4871 0.96124-0.49412 1-0.18104 1 0.13028 0 0.27154 0.0561 0.31392 0.12466 0.04236 0.06856-1.9498 0.12403-4.427 0.1233-4.3002-0.0013-4.4874-0.01425-4.1358-0.28539z" fill="#2c2c2c" stroke-width=".16438"/>
  <path id="path868" d="m38.236 21.353c0.24124-0.29067 0.10773-0.74182-0.21955-0.74182-0.32907 0-0.65488 0.44342-0.54198 0.73763 0.1218 0.31742 0.49985 0.3195 0.76153 0.0041z" fill="#fff" stroke-width=".16438"/>
  <path id="path848" d="m34.398 18.37c0.67646-0.321 1.0902-1.0064 0.85804-1.4213-0.20408-0.36466-0.71035-0.35309-1.5669 0.03581-0.71381 0.32409-1.0407 0.73699-1.0407 1.3146 0 0.28027 0.10332 0.33957 0.59159 0.33957 0.32538 0 0.84644-0.12095 1.1579-0.26874z" fill="#fff" stroke-width=".16438"/>
 </g>
</svg>
