<?xml version="1.0" encoding="UTF-8"?>
<!-- Created with Inkscape (http://www.inkscape.org/) -->
<svg id="SVGRoot" width="48px" height="48px" version="1.1" viewBox="0 0 48 48" xml:space="preserve" xmlns="http://www.w3.org/2000/svg" xmlns:cc="http://creativecommons.org/ns#" xmlns:dc="http://purl.org/dc/elements/1.1/" xmlns:rdf="http://www.w3.org/1999/02/22-rdf-syntax-ns#"><defs><style>.cls-1{fill:none;stroke:#fff;stroke-linecap:round;stroke-linejoin:round;}</style><style>.cls-1{fill:none;stroke:#fff;stroke-linecap:round;stroke-linejoin:round;}</style><style>.cls-1{fill:none;stroke:#fff;stroke-linecap:round;stroke-linejoin:round;}</style><style>.cls-1{fill:none;stroke:#fff;stroke-linecap:round;stroke-linejoin:round;}</style><style id="current-color-scheme" type="text/css">.ColorScheme-Text {
        color:#31363b;
      }
      .ColorScheme-Accent {
        color:#3daee9;
      }</style><style type="text/css">.ColorScheme-Text {
        color:#31363b;
      }
      .ColorScheme-Accent {
        color:#3daee9;
      }</style></defs><metadata><rdf:RDF><cc:Work rdf:about=""><dc:format>image/svg+xml</dc:format><dc:type rdf:resource="http://purl.org/dc/dcmitype/StillImage"/></cc:Work></rdf:RDF></metadata><rect x="4" y="4" width="40" height="40" ry="8" fill="#4e4e4e" fill-rule="evenodd" style="paint-order:stroke fill markers"/><path d="m29.229 8.6934c-1.3054-0.018451-2.6151 0.16525-3.8281 0.54883-2.2251 0.70362-4.1968 2.3005-5.6641 4.1152-1.2028 1.4877-1.4249 3.2574-2.3242 5.2461-1.1365-0.03334-2.7339 1.2817-3.2207 2.5645-0.45103 1.1884-0.0192 2.6791 0.65625 3.7559 0.41621 0.66353 1.5569 0.671 1.9082 1.3711 0.50813 1.0128 0.26138 2.314-0.060547 3.4004-0.69253 2.3372-3.875 6.2012-3.875 6.2012l-8.6309 1.8496c0.79223 3.5872 3.9784 6.2539 7.8105 6.2539h4s2.2026-5.9883 2-9c-0.09223-1.3713 0-4 0-4s1.8807 4.8658 4 6c1.7633 0.94372 6 0 6 0s-3.468 1.8039-5 3c-1.4863 1.1604-4 4-4 4h15l-5.498-3.8105s4.2584-5.9256 6.2617-9.4805c1.1885-2.1089 2.9878-4.2453 3.2793-6.6484 0.11844-0.9764-0.52105-1.9247-0.50781-2.9082 0.01823-1.3534 0.40348-2.6276 0.44727-3.9805 0.09619-2.9715 0.42286-5.8862-4.9492-7.8105-1.1977-0.42903-2.4993-0.64952-3.8047-0.66797zm-3.4805 4.7891c0.43604-0.009487 1.0395 0.014187 1.7051 0.14648 1.4155 0.77055 2.0595-0.21025 2.0625 0.74219 0.0025 0.77914-0.15845 1.7292-0.77539 2.2051-0.77376 0.59683-2.9219 0.23828-2.9219 0.23828s0.49174-1.5498 0.23828-2.2656c-0.15949-0.45045-1.0137-1.0137-1.0137-1.0137s0.26904-0.043247 0.70508-0.052734zm5.3125 3.2695c0.054817-7.08e-4 0.11522 0.008732 0.18164 0.029297 0.39112 0.12108 0.66693 0.64473 0.63281 1.0527-0.04321 0.51673-0.5256 1.0012-1.0117 1.1816-0.1735 0.06441-0.42481 0.053386-0.54883-0.083984-0.3774-0.41805-0.081512-1.2492 0.21094-1.7305 0.15647-0.25752 0.29761-0.44615 0.53516-0.44922zm-3.291 5.4199c0.14187 8e-5 0.3346 0.019049 0.67578 0.011719 0.76089-0.01634 1.3596 0.26069 1.8477 0.39453 0.92505 0.25367 1.136 0.73402 1.4961 1.623 0.53145 1.312 0.13066 2.025-0.29492 3.375-0.54633 1.7331-0.68368 2.4572-2.1055 4.2148-0.42519 0.52563-0.70813-0.87098-1.3086-1.1816-0.98328-0.50872-2.2754 0.55341-3.0781-0.20898-0.69551-0.66055-0.16486-1.8704-0.083984-2.8262 0.1646-1.9456 0.58909-3.7924 2.1094-5.0176 0.41047-0.3308 0.50573-0.3849 0.74219-0.38477z" fill="#f06152" stroke-linecap="round" stroke-linejoin="round" stroke-width="1.2" style="paint-order:stroke fill markers"/><path d="m29.229 8.6934c-1.3054-0.018451-2.6151 0.16525-3.8281 0.54883-0.3655 0.11558-0.7235 0.25523-1.0742 0.41602 0.30572 0.30911 0.56504 0.62597 0.71875 0.92383 0.33097 0.64135-0.29228 1.6764 0.25195 2.1504 1.0282 0.89555 2.7167 0.2489 3.9219 0.88672 1.8226 0.9646 2.2389 4.2456 4.3008 4.2148 0.75676-0.0113 0.21145-1.6091 0.92774-1.8535 1.04-0.3549 2.5723 1.0957 2.5723 1.0957s0.59627-2.4989 0.44336-4.4102c-0.61715-1.2575-1.8836-2.3927-4.4297-3.3047-1.1977-0.42903-2.4993-0.64952-3.8047-0.66797zm-7.7012 8.3984c-0.17349-0.002584-0.3495 0.00385-0.5293 0.025391-1.2609 0.15105-2.2943 0.95109-3.5 1.3496-0.009676 0.003198-0.0195 0.006586-0.029297 0.009765-0.018611 0.042284-0.037428 0.084469-0.056641 0.12695-1.1365-0.03334-2.7339 1.2817-3.2207 2.5645-0.45103 1.1884-0.0192 2.6791 0.65625 3.7559 0.009414 0.015008 0.019159 0.03057 0.029297 0.044922 0.5492-0.3121 1.5526-0.93109 1.9453-1.4844 0.79003-1.1131 0.35172-2.8362 1.1816-3.9199 0.37227-0.48612 0.94989-0.92603 1.5605-0.9707 0.87885-0.06429 1.9925 1.1475 3.0625 1.4844 1.07 0.33688 2.0951-0.20185 1.7852 0.62305-1.0081 2.6829-2.5723 8.6445-2.5723 8.6445s2.1253-6.416 4.6797-8.3066c1.7787-1.3165 3.2891-2.0664 3.2891-2.0664l-0.29492-1.6016s-2.9494 0.49688-4.4258 0.37891c-1.2636-0.10097-2.3461-0.64012-3.5605-0.6582zm10.686 2.4121c-0.18629 0.001302-0.37117 0.021188-0.54883 0.060547-0.50248 0.11132-1.105 0.39517-1.2637 0.88477-0.11922 0.36785 0.081174 0.84896 0.37891 1.0957 0.66724 0.55297 1.8454-0.092896 2.5723 0.37891 1.0335 0.67077 0.95739 2.4346 1.9805 3.1211 0.53568 0.35945 1.4684 0.53931 2.2988 0.62891 0.1997-0.52562 0.3453-1.0625 0.41211-1.6133 0.1177-0.97027-0.51287-1.9138-0.50781-2.8906-0.63836 0.3294-1.6966 0.7877-2.3301 0.58594-0.72586-0.23119-0.73938-1.4173-1.3906-1.8125-0.46667-0.28317-1.0427-0.44336-1.6016-0.43945zm-19.393 16.393-8.6309 1.8496c0.17765 0.8044 0.47629 1.5617 0.875 2.2539h3.9355a3.6591 3.6591 0 0 0 3.5879-2.9414l0.23242-1.1621z" fill="#ffbaba" stroke-linecap="round" stroke-linejoin="round" stroke-width="1.2" style="paint-order:stroke fill markers"/><path d="m12 4c-4.432 0-8 3.568-8 8v24c0 4.432 3.568 8 8 8h24c4.432 0 8-3.568 8-8v-24c0-4.432-3.568-8-8-8zm0 1h24c3.878 0 7 3.122 7 7v24c0 3.878-3.122 7-7 7h-24c-3.878 0-7-3.122-7-7v-24c0-3.878 3.122-7 7-7z" fill-rule="evenodd" opacity=".4" style="paint-order:stroke fill markers"/><path d="m26.773 23.105c0.62808-0.68777 1.8823-0.49114 2.7828-0.25298 0.76136 0.20137 1.8551 0.5662 1.9395 1.3492 0.05752 0.53392-0.78822 1.6205-1.0962 1.1806-0.38154-0.54491-1.0875-0.86301-1.7287-1.0962-0.59961-0.21809-1.1819-0.40537-1.8973-0.25298-0.30241 0.06442-0.2085-0.69927 0-0.92758z" fill="#f06152" stroke-linecap="round" stroke-linejoin="round" stroke-width="1.2" style="paint-order:stroke fill markers"/></svg>
