<?xml version="1.0" encoding="UTF-8"?>
<!-- Created with Inkscape (http://www.inkscape.org/) -->
<svg id="SVGRoot" width="48px" height="48px" version="1.1" viewBox="0 0 48 48" xmlns="http://www.w3.org/2000/svg" xmlns:cc="http://creativecommons.org/ns#" xmlns:dc="http://purl.org/dc/elements/1.1/" xmlns:rdf="http://www.w3.org/1999/02/22-rdf-syntax-ns#">
 <defs id="defs815">
  <style id="style819">.cls-1{fill:none;stroke:#fff;stroke-linecap:round;stroke-linejoin:round;}</style>
 </defs>
 <metadata id="metadata818">
  <rdf:RDF>
   <cc:Work rdf:about="">
    <dc:format>image/svg+xml</dc:format>
    <dc:type rdf:resource="http://purl.org/dc/dcmitype/StillImage"/>
    <dc:title/>
   </cc:Work>
  </rdf:RDF>
 </metadata>
 <g id="layer1">
  <rect id="rect1373-5" x="4" y="4" width="40" height="40" ry="8" fill="#6956b4" fill-rule="evenodd" style="paint-order:stroke fill markers"/>
  <path id="rect817" d="m12 4c-4.432 0-8 3.568-8 8v24c0 4.432 3.568 8 8 8h24c4.432 0 8-3.568 8-8v-24c0-4.432-3.568-8-8-8h-24zm0 1h24c3.878 0 7 3.122 7 7v24c0 3.878-3.122 7-7 7h-24c-3.878 0-7-3.122-7-7v-24c0-3.878 3.122-7 7-7z" fill-rule="evenodd" opacity=".3" style="paint-order:stroke fill markers"/>
  <g id="layer1-4" transform="matrix(1.2595 0 0 1.2595 -6.4889 -4.468)">
   <path id="path839" d="m15.28 32.786c-0.06535-0.07876-0.17086-0.1432-0.23444-0.1432s-0.28322-0.14489-0.48808-0.32198l-0.37247-0.32198-0.40505 0.19679c-0.22278 0.10823-0.43557 0.16627-0.47287 0.12896-0.0373-0.03731-0.07045-0.27094-0.07369-0.51919-0.0049-0.37953 0.02832-0.46637 0.20893-0.5456 0.11814-0.05184 0.21629-0.13774 0.21812-0.19093 0.0019-0.05317 0.06264-0.42935 0.13513-0.83593 0.14491-0.81278 0.9029-2.3633 1.1553-2.3633 0.18593 0 0.17086-0.25298-0.04313-0.72417-0.15124-0.33302-0.24167-0.40811-0.61844-0.5136-0.24272-0.06795-0.6346-0.10177-0.87087-0.07514-0.23626 0.02663-0.42957 0.01456-0.42957-0.02683 0-0.14312 0.5693-0.55361 0.85475-0.6163 0.56362-0.12379 1.0545 0.18341 1.0545 0.65991 0 0.23337 0.22711 0.69903 0.53075 1.0882 0.077 0.0987 0.94145-0.62736 2.2377-1.8795l1.4797-1.4293-0.23981-0.24536c-0.1319-0.13495-0.59957-0.39482-1.0393-0.5775-0.4397-0.18268-0.87555-0.401-0.96856-0.48518-0.09301-0.08417-0.30149-0.43018-0.46329-0.76891-0.24907-0.52143-0.33979-0.62498-0.59163-0.67535l-0.29744-0.05951 0.3074-0.12925c0.16907-0.0711 0.38839-0.12925 0.48737-0.12925 0.20408 0 0.22661-0.11632 0.07677-0.39631-0.05675-0.10606-0.0833-0.21272-0.05899-0.23703 0.08994-0.08995 0.54346 0.08679 1.0345 0.40314 0.37208 0.23972 0.61216 0.32566 0.90972 0.32566 0.40899 0 1.3683-0.17304 1.3683-0.24682 0-0.02202-0.16682-0.19078-0.3707-0.37498-0.34996-0.31617-0.66606-0.85533-0.5623-0.95909 0.02603-0.02603 0.1635-0.0032 0.30546 0.0508 0.31846 0.12108 0.78891 0.12774 0.86032 0.01218 0.02921-0.04728-0.12934-0.18-0.35236-0.29495-0.51604-0.26598-0.90104-0.62667-1.1219-1.0511-0.09562-0.18377-0.2717-0.43776-0.39127-0.56442l-0.2174-0.23029 0.59094 0.06177c0.32502 0.03398 0.59094 0.03956 0.59094 0.01243s-0.05988-0.19265-0.13307-0.36781c-0.17443-0.41744-0.61534-0.73789-1.4692-1.0678-0.49196-0.19007-0.76561-0.36079-0.93563-0.5837l-0.2403-0.31506h0.62537c0.3714 0 0.62538-0.04054 0.62538-0.0998 0-0.16518-0.4453-0.55773-0.6839-0.60289-0.12266-0.02321-0.56282-0.11616-0.97814-0.20656l-0.75514-0.16435 0.32131-0.1351c0.17672-0.07431 0.47357-0.2516 0.65966-0.39398 0.48953-0.37455 1.1531-0.3563 1.8062 0.04966 0.45224 0.28113 0.48398 0.28787 0.53903 0.11442 0.03216-0.10136 0.03123-0.27021-0.0021-0.37522-0.03333-0.10501-0.03409-0.19093-0.0017-0.19093 0.11007 0 0.66874 0.31377 0.9802 0.55053l0.31026 0.23584v-0.25306c0-0.40176-0.22927-0.84524-0.60962-1.1792-0.19342-0.16982-0.29353-0.30877-0.22248-0.30877 0.28069 0 1.1921 0.31657 1.6567 0.57544 0.50979 0.28405 0.60734 0.28003 0.60734-0.025 0-0.14416 0.04415-0.16784 0.2148-0.11519 0.34581 0.10667 0.75558 0.3293 1.2413 0.67438 0.51508 0.36596 0.5487 0.37694 0.5487 0.17914 0-0.07875 0.03221-0.14211 0.07161-0.14078 0.19013 0.0064 1.1546 0.77452 1.4081 1.1215 0.3376 0.46196 0.40416 0.48286 0.52505 0.1649 0.0499-0.13126 0.13094-0.23866 0.18008-0.23866 0.14508 0 0.58612 0.57512 0.7444 0.97071 0.15009 0.37511 0.61483 0.84311 0.83724 0.84311 0.29549 0 0.33296-0.24167 0.11172-0.72066-0.2486-0.53824-0.36464-1.029-0.28956-1.2247 0.03569-0.09299 0.18722 0.01214 0.49859 0.34596 0.24603 0.26376 0.63564 0.56062 0.86579 0.65968 0.23016 0.09906 0.65144 0.39304 0.93618 0.65327 0.75681 0.69168 1.5858 0.91383 2.2986 0.61598 1.3549-0.56613 1.5949-2.4653 0.41226-3.2623-0.55408-0.37339-1.4052-0.23846-1.7686 0.2804-0.17796 0.25408-0.19507 1.1047-0.02663 1.3241 0.32397 0.42196 0.98564 0.45258 1.2617 0.05839 0.07883-0.11253 0.14331-0.36827 0.14331-0.5683 0-0.28946-0.04383-0.38026-0.21479-0.44487-0.11814-0.04466-0.25775-0.05501-0.31026-0.02303-0.05251 0.03198-0.0096 0.07488 0.09547 0.0953 0.3961 0.07707 0.44516 0.48549 0.0998 0.83085-0.29551 0.29551-0.47688 0.29551-0.77239 0-0.56305-0.56304-0.04806-1.484 0.82982-1.484 0.65542 0 1.2467 1.0315 1.0372 1.8095-0.37406 1.3892-2.184 1.537-2.9399 0.24018-0.18758-0.32184-0.21529-0.47987-0.18361-1.0473 0.04459-0.79851 0.28911-1.3333 0.80458-1.7596 0.91241-0.75461 2.3227-0.7507 3.3135 0.0093 0.96935 0.74347 1.4181 1.7771 1.2043 2.774-0.16127 0.75198-0.55773 1.5621-0.82377 1.6834-0.59545 0.27131-0.79517 1.214-0.36541 1.7248 0.29297 0.34817 0.66016 0.38579 1.018 0.1043 0.43219-0.33996 0.41694-1.0548-0.02551-1.1952-0.22302-0.07078-0.60834 0.19757-0.51065 0.35564 0.03454 0.05588 0.09633 0.05094 0.16004-0.01275 0.1987-0.1987 0.44746-0.12022 0.44746 0.14116 0 0.42164-0.16464 0.61424-0.52505 0.61424-0.38281 0-0.52506-0.19345-0.52506-0.71404 0-0.49957 0.34134-0.81338 0.88471-0.81338 1.3726 0 1.4311 2.4019 0.06752 2.7691l-0.37038 0.09968 0.23159 0.34127c0.50206 0.73983 0.38765 1.5387-0.31935 2.2297-1.0117 0.98883-1.1368 1.3009-0.82283 2.0524 0.28396 0.67963-0.01434 1.2389-0.86459 1.6212-0.63537 0.28563-0.82994 0.52478-0.8839 1.0864-0.06657 0.69276 0.04923 0.82631 0.95636 1.103 1.1737 0.35799 1.7005 0.96532 1.7083 1.9692 0.0061 0.77318-0.45001 1.4882-1.1333 1.777-0.64098 0.2709-1.5998 0.10024-2.112-0.37591-0.12438-0.11563-0.3518-0.47491-0.50539-0.7984-0.37844-0.7971-0.91108-1.2734-1.424-1.2734-0.71359 0-1.3544 0.53726-1.6676 1.3981-0.20376 0.56009-0.44984 0.79762-0.82634 0.79762-0.39347 0-0.60517-0.13524-0.74675-0.47704-0.10357-0.25005-0.09705-0.34768 0.04404-0.6606 0.13353-0.29612 0.14379-0.4079 0.053-0.57753-0.14815-0.27682-0.81114-0.57124-1.2923-0.57387l-0.38366-0.0021-0.55405-1.4512 0.21866-0.73025c0.12026-0.40164 0.24-0.80543 0.2661-0.89731 0.0428-0.15072-0.04135-0.16706-0.86011-0.16706h-0.90752l-0.87638 0.95051c-0.65969 0.7155-0.86882 1.0046-0.84581 1.1694 0.02554 0.18292-0.01798 0.22365-0.26465 0.24771-0.20047 0.01955-0.42897 0.16508-0.71199 0.45345l-0.41676 0.4246h-3.1147l-0.10874-0.23867c-0.13816-0.30322-0.26902-0.30679-0.26902-0.0074 0 0.12724-0.1074 0.35897-0.23866 0.51497-0.13126 0.156-0.23866 0.38916-0.23866 0.51813 0 0.36219 0.19462 0.83578 0.34346 0.83578 0.07362 0 0.13386 0.06293 0.13386 0.13984 0 0.0769 0.08308 0.18431 0.18465 0.23866 0.32205 0.17235 0.6287 0.10937 0.91319-0.18757 0.15091-0.15752 0.32219-0.28639 0.38062-0.28639 0.22372 0 0.32474-0.20525 0.21719-0.4413-0.05688-0.12482-0.13947-0.22695-0.18354-0.22695-0.04407 0-0.08015-0.07733-0.08015-0.17183 0-0.09452-0.05156-0.22339-0.11456-0.28639-0.1643-0.1643 0.12742-0.15163 0.54721 0.02378 0.34323 0.14341 0.43886 0.39909 0.18562 0.49626-0.10733 0.04118-0.13013 0.13743-0.08701 0.36726 0.1157 0.61674-0.3695 1.1732-1.2448 1.4277-0.61812 0.17969-0.5735 0.17939-0.71839 0.0049zm4.484-5.7756 1.5499-1.6229h3.5843l-0.51321 1.5901c-0.28227 0.87456-0.51321 1.6049-0.51321 1.6229 0 0.01803 1.2175 0.03279 2.7056 0.03279h2.7056l0.25374-0.64674c0.13956-0.35571 0.25374-0.69938 0.25374-0.76371 0-0.08811-0.43589-0.11697-1.7661-0.11697-0.97135 0-1.7661-0.02966-1.7661-0.06591s0.11625-0.42288 0.25834-0.85918l0.25834-0.79327h3.3672l0.25374-0.64674c0.13956-0.35571 0.25374-0.69938 0.25374-0.76372 0-0.08785-0.41577-0.11697-1.6706-0.11697-0.91884 0-1.6706-0.03207-1.6706-0.07127s0.11092-0.40435 0.2465-0.81145l0.2465-0.74017h3.9637l0.25374-0.64675c0.13956-0.35571 0.25374-0.69938 0.25374-0.76371 0-0.08859-0.48394-0.11697-1.994-0.11697h-1.994l0.56064-1.7422c0.30835-0.95822 0.56129-1.7959 0.56209-1.8616 0.0011-0.08719-0.24274-0.11933-0.90515-0.11933h-0.90659l-5.8475 5.7315c-3.2161 3.1523-5.8618 5.7728-5.8793 5.8233-0.01925 0.05551 0.43783 0.09177 1.1568 0.09177h1.1886zm4.928-4.9931c0.99275-1.0135 1.8201-1.8325 1.8386-1.82 0.01847 0.01252-0.22979 0.84176-0.55168 1.8428l-0.58525 1.82h-2.5066zm9.1557 6.0622c-0.10501-0.02308-0.27567-0.10121-0.37923-0.17366-0.24781-0.17335-0.8301-0.16747-1.2614 0.01273-0.19014 0.07944-0.36108 0.12909-0.37985 0.11031-0.07999-0.07999 1.05-1.0423 1.4223-1.2113 0.81844-0.37149 1.5092-0.12633 1.502 0.53312-0.0052 0.47747-0.44255 0.83014-0.90387 0.72881zm-18.92-7.063c-0.06247-0.03972-0.22228-0.23238-0.35512-0.42813l-0.24152-0.3559h0.40799c0.34012 0 0.46129 0.055 0.72846 0.33065l0.32048 0.33065-0.26023 0.09893c-0.3067 0.11661-0.44543 0.12211-0.60006 0.0238zm2.1319-1.0796c-0.36422-0.10052-0.60704-0.33279-0.88868-0.85003-0.12865-0.23628-0.38498-0.64331-0.56961-0.90453-0.19397-0.27443-0.29086-0.48988-0.2295-0.51034 0.05842-0.01946 0.33012 0.11789 0.6038 0.30524 0.28215 0.19315 0.72135 0.38799 1.0144 0.45 0.63916 0.13526 0.96291 0.43085 0.96291 0.87916 0 0.49174-0.39247 0.76874-0.8933 0.63051zm7.3897-5.982c-0.17401-0.1409-0.20253-0.2488-0.17764-0.67198l0.02966-0.50412 0.31671 0.26625c0.23821 0.20026 0.33006 0.36682 0.37056 0.67198 0.04795 0.36124 0.03269 0.40572-0.13907 0.40572-0.10611 0-0.2862-0.07553-0.40022-0.16786z" fill="#fff" stroke-width=".095464"/>
  </g>
 </g>
</svg>
