<?xml version="1.0" encoding="UTF-8"?>
<!-- Created with Inkscape (http://www.inkscape.org/) -->
<svg id="SVGRoot" width="48px" height="48px" version="1.1" viewBox="0 0 48 48" xml:space="preserve" xmlns="http://www.w3.org/2000/svg" xmlns:cc="http://creativecommons.org/ns#" xmlns:dc="http://purl.org/dc/elements/1.1/" xmlns:rdf="http://www.w3.org/1999/02/22-rdf-syntax-ns#" xmlns:xlink="http://www.w3.org/1999/xlink"><defs><style>.cls-1{fill:none;stroke:#fff;stroke-linecap:round;stroke-linejoin:round;}</style><linearGradient id="linearGradient4" x1="25" x2="25" y1="6" y2="42" gradientUnits="userSpaceOnUse"><stop stop-color="#BE7ACE" offset="0"/><stop stop-color="#EAA48F" offset="1"/></linearGradient></defs><metadata><rdf:RDF><cc:Work rdf:about=""><dc:format>image/svg+xml</dc:format><dc:type rdf:resource="http://purl.org/dc/dcmitype/StillImage"/></cc:Work></rdf:RDF></metadata><rect x="4" y="4" width="40" height="40" ry="8" fill="url(#linearGradient4)" fill-rule="evenodd" style="paint-order:stroke fill markers"/><path d="m12 4c-4.432 0-8 3.568-8 8v24c0 4.432 3.568 8 8 8h24c4.432 0 8-3.568 8-8v-24c0-4.432-3.568-8-8-8zm0 1h24c3.878 0 7 3.122 7 7v24c0 3.878-3.122 7-7 7h-24c-3.878 0-7-3.122-7-7v-24c0-3.878 3.122-7 7-7z" fill-rule="evenodd" opacity=".3" style="paint-order:stroke fill markers"/><path d="m25.195 10.221c-0.05358-9.03e-4 -0.10718 8.65e-4 -0.16161 0.0058-1.0543 0.09435-1.6327 1.0148-2.6796 1.1678-0.7693 0.11246-1.5662-0.46586-2.2546-0.1181-2.5917 1.3092-5.3704 4.8984-5.9677 8.174-0.56382 3.0922 1.6484 3.0602 2.0092 4.7266 0.18564 0.85755-0.48305 1.924 0.06186 2.6271 1.2097 1.561 6.4774 0.46683 5.7861 1.8107-0.5977 1.162-1.303 2.2333-3.1065 5.7782-0.34611 0.6803 0.85693 1.5729 1.644 1.6348 1.0847 0.08533 1.6755-2.3867 2.6197-1.8681 1.1254 0.61809-1.5261 3.0473-0.42698 3.7074 0.79238 0.47591 1.715-0.79655 2.3763-1.4302 3.8322-3.6722 7.314-8.1598 8.6492-13.193 1.2937-4.8768-1.7198-5.2371-1.7059-7.9388 0.0038-0.73656 0.84485-1.5088 0.48683-2.1606-0.84829-1.5443-3.3678-1.3298-5.0559-1.9847-0.76013-0.29488-1.471-0.92527-2.2745-0.93881zm-2.0052 6.2199c0.08868 1.79e-4 0.17684 0.0108 0.26137 0.0325 0.38682 0.09931 0.25296 0.81583 0.60854 0.99235 0.86837 0.43109 2.2967-0.95501 2.923-0.23518 0.49834 0.57279-0.93655 1.4843-0.60854 2.1606 0.28333 0.58415 1.7371 0.17814 1.8276 0.81644 0.14731 1.0394-1.7352 1.2918-2.498 2.044-0.65417 0.64503-1.1498 2.1376-1.7658 1.4589-1.5776-1.7384-2.7874-1.1728-2.8033-2.5679-0.0056-0.49833 0.84932-0.68483 0.97566-1.1683 0.21575-0.82554-0.86159-1.7371-0.48683-2.5086 0.25852-0.53224 0.94537-1.0261 1.5662-1.0249z" fill="#faebfe" stroke-linecap="round" stroke-linejoin="round" stroke-width="6.0002"/></svg>
