<?xml version="1.0" encoding="UTF-8"?>
<!-- Created with Inkscape (http://www.inkscape.org/) -->
<svg id="SVGRoot" width="48px" height="48px" version="1.1" viewBox="0 0 48 48" xml:space="preserve" xmlns="http://www.w3.org/2000/svg" xmlns:cc="http://creativecommons.org/ns#" xmlns:dc="http://purl.org/dc/elements/1.1/" xmlns:rdf="http://www.w3.org/1999/02/22-rdf-syntax-ns#"><defs><style>.cls-1{fill:none;stroke:#fff;stroke-linecap:round;stroke-linejoin:round;}</style><style>.cls-1{fill:none;stroke:#fff;stroke-linecap:round;stroke-linejoin:round;}</style><style>.cls-1{fill:none;stroke:#fff;stroke-linecap:round;stroke-linejoin:round;}</style><style>.cls-1{fill:none;stroke:#fff;stroke-linecap:round;stroke-linejoin:round;}</style><style>.cls-1{fill:none;stroke:#fff;stroke-linecap:round;stroke-linejoin:round;}</style><style>.a{fill:none;stroke:#b1b5bd;stroke-linecap:round;stroke-linejoin:round;isolation:isolate;opacity:0.63;}</style><style>.cls-1{fill:none;stroke:#fff;stroke-linecap:round;stroke-linejoin:round;}</style><style>.cls-1{fill:none;stroke:#fff;stroke-linecap:round;stroke-linejoin:round;}</style><style>.cls-1{fill:none;stroke:#fff;stroke-linecap:round;stroke-linejoin:round;}</style><style>.cls-1{fill:none;stroke:#fff;stroke-linecap:round;stroke-linejoin:round;}</style><style>.cls-1{fill:none;stroke:#fff;stroke-linecap:round;stroke-linejoin:round;}</style><style>.cls-1{fill:none;stroke:#fff;stroke-linecap:round;stroke-linejoin:round;}</style></defs><metadata><rdf:RDF><cc:Work rdf:about=""><dc:format>image/svg+xml</dc:format><dc:type rdf:resource="http://purl.org/dc/dcmitype/StillImage"/></cc:Work></rdf:RDF></metadata><rect x="4" y="4" width="40" height="40" ry="8" fill="#485fa9" fill-rule="evenodd" style="paint-order:stroke fill markers"/><path d="m12 4c-4.432 0-8 3.568-8 8v24c0 4.432 3.568 8 8 8h24c4.432 0 8-3.568 8-8v-24c0-4.432-3.568-8-8-8zm0 1h24c3.878 0 7 3.122 7 7v24c0 3.878-3.122 7-7 7h-24c-3.878 0-7-3.122-7-7v-24c0-3.878 3.122-7 7-7z" fill-rule="evenodd" opacity=".3" style="paint-order:stroke fill markers"/><path d="m15 14h8l12 20h-9z" fill="#efefef" stroke-linecap="round" stroke-linejoin="round" stroke-width="2"/><path d="m37 14h-8l-19 20h9z" fill="#efefef" stroke-linecap="round" stroke-linejoin="round" stroke-width="2"/><path d="m18.381 16 4.209 7.6523-7.9316 8.3477h3.4512l5.6328-6.2578 3.4414 6.2578h4.2832l-5.3438-8.9043 6.3867-7.0957h-2.6504l-4.8984 5.1562-3.0938-5.1562z" fill="#485fa9"/><rect x="28" y="28" width="12" height="12" ry="6" fill="#efefef"/><rect x="30" y="30" width="8" height="8" ry="4" fill="#485fa9"/><path d="m36.113 32.346q0 0.61062-0.37132 0.9737-0.36307 0.36307-0.89943 0.4951v0.02475q0.70964 0.08251 1.0727 0.42909 0.37133 0.34657 0.37133 0.93244 0 0.5116-0.2558 0.92419-0.24755 0.40433-0.77566 0.64363-0.51986 0.23105-1.345 0.23105-0.95719 0-1.6998-0.32182v-1.0562q0.37958 0.18979 0.79216 0.28881 0.42084 0.09902 0.77566 0.09902 0.66838 0 0.93244-0.23105 0.2723-0.23105 0.2723-0.65188 0-0.24755-0.12378-0.41258-0.12378-0.17328-0.43734-0.2558-0.30531-0.09077-0.85817-0.09077h-0.44559v-0.95719h0.45384q0.54461 0 0.82517-0.09902 0.28881-0.10727 0.38783-0.28056 0.10727-0.18154 0.10727-0.41258 0-0.31356-0.19804-0.48685-0.18979-0.18154-0.64363-0.18154-0.42083 0-0.7344 0.14853-0.30531 0.14028-0.51986 0.28056l-0.57762-0.85818q0.34657-0.24755 0.80866-0.41258 0.47034-0.16503 1.114-0.16503 0.90768 0 1.4358 0.37132 0.53636 0.36307 0.53636 1.0315z" fill="#efefef" stroke-linecap="round" stroke-width="2.7506" aria-label="3"/></svg>
