<?xml version="1.0" encoding="UTF-8"?>
<!-- Created with Inkscape (http://www.inkscape.org/) -->
<svg id="SVGRoot" width="48px" height="48px" version="1.1" viewBox="0 0 48 48" xmlns="http://www.w3.org/2000/svg" xmlns:cc="http://creativecommons.org/ns#" xmlns:dc="http://purl.org/dc/elements/1.1/" xmlns:rdf="http://www.w3.org/1999/02/22-rdf-syntax-ns#">
 <defs id="defs815">
  <style id="style819">.cls-1{fill:none;stroke:#fff;stroke-linecap:round;stroke-linejoin:round;}</style>
  <style id="style819-5">.cls-1{fill:none;stroke:#fff;stroke-linecap:round;stroke-linejoin:round;}</style>
  <style id="current-color-scheme" type="text/css">.ColorScheme-Text {
        color:#31363b;
      }
      .ColorScheme-Accent {
        color:#3daee9;
      }</style>
  <style id="current-color-scheme-6" type="text/css">.ColorScheme-Text {
        color:#31363b;
      }
      .ColorScheme-Accent {
        color:#3daee9;
      }</style>
 </defs>
 <metadata id="metadata818">
  <rdf:RDF>
   <cc:Work rdf:about="">
    <dc:format>image/svg+xml</dc:format>
    <dc:type rdf:resource="http://purl.org/dc/dcmitype/StillImage"/>
    <dc:title/>
   </cc:Work>
  </rdf:RDF>
 </metadata>
 <g id="layer1">
  <rect id="rect1373" x="4" y="4" width="40" height="40" ry="8" fill="#c4493c" fill-rule="evenodd" style="paint-order:stroke fill markers"/>
  <path id="rect817" d="m12 4c-4.432 0-8 3.568-8 8v24c0 4.432 3.568 8 8 8h24c4.432 0 8-3.568 8-8v-24c0-4.432-3.568-8-8-8h-24zm0 1h24c3.878 0 7 3.122 7 7v24c0 3.878-3.122 7-7 7h-24c-3.878 0-7-3.122-7-7v-24c0-3.878 3.122-7 7-7z" fill-rule="evenodd" opacity=".3" style="paint-order:stroke fill markers"/>
  <path id="path962" d="m23.988 7.1625c-1.5737 0-2.6217 0.5731-2.6217 0.5731-0.07561 0.042139-0.13798 0.10451-0.18012 0.18012-0.50595 0.22582-1.0089 0.57008-1.5447 1.1025-0.63114 0.62723-1.2371 1.3734-1.5847 2.0832-0.60661 1.2389-0.80669 2.2047-0.81144 3.8953 0.05237 0.22011 0.0092 0.57393-0.07459 0.69499-0.17095-0.08138-0.43432-0.102-0.63496 0.01273-0.20064 0.11474-0.29442 0.29429-0.3475 0.4603-0.05309 0.16601-0.07095 0.33956-0.07095 0.5349 0 1.1764 0.19272 2.4429 0.4785 3.4659 0.14289 0.51152 0.30824 0.95989 0.49851 1.319 0.18341 0.34621 0.36535 0.65432 0.76232 0.77688 0.02396 0.05356 0.07084 0.2322 0.10734 0.53126 0.05673 0.46487 0.17977 1.3569 0.27655 2.0013l0.14555 0.96609c-3.3782 3.5618-8.1417 4.9725-12.386 6.6862 0.00262 0.23409 0.00458 0.46824 0.010917 0.70228 0.0035 0.12901 0.014868 0.25825 0.020013 0.38753 0.6929-0.27614 1.7101-0.68086 2.1232-0.81326 2.1645-0.69362 6.5582-2.7428 7.4995-3.4987 1.3517-1.0855 1.8818-1.599 2.5417-2.4543l0.68045-0.8824-0.17466-1.1626c-0.09599-0.63917-0.21915-1.5331-0.27473-1.9886-0.07731-0.63366-0.17349-0.84754-0.41118-0.90969-0.67694-0.17702-1.4318-2.8784-1.4318-5.127 0-0.64847 0.27753-0.80697 0.64224-0.36751 0.35721 0.43042 0.48177 0.08483 0.48578-1.3336 0.0046-1.6584 0.17929-2.4971 0.76414-3.6915 0.63738-1.3017 2.4629-3.0466 3.2003-3.1712 0.10534-0.017794 0.18767-0.00154 0.24198 0.052762 0.10116 0.10116 0.09493 0.1939-0.0182 0.26381 0.10047 3.5475 2.2065 4.5374 2.4871 8.0416 0.03612 0.45098-0.0238 0.60133 0.23106 0.7605 0.43986 0.2747 0.40227 0.44393-0.10007 0.44393-0.35492 0-0.39103 0.03863-0.22378 0.24016 0.1092 0.13158 0.24355 0.16457 0.32385 0.16192 0.31471-0.01036 0.39617 0.88238 0.26927 1.4701-0.01806 0.08361-0.10121 0.36927-0.09098 0.68591 0.01025 0.31664 0.05154 0.45334 0.09098 0.30384 0.05482-0.2079 0.24813-0.2694 0.82418-0.26381 0.46227 0.0048 1.1395-0.15447 1.7539-0.41118 0.98179-0.41024 1.6959-0.51532 2.1996-0.32203 0.22809 0.08753 0.22562 0.14329-0.02184 0.56219-0.15112 0.25582-0.34548 0.46576-0.43119 0.46576-0.72563 0.51371-1.2823 0.95943-2.1887 1.2026-0.65977 0.37185-0.80039 0.15104-1.299 0.01274-0.09726-0.02698-0.30817-0.09741-0.49487-0.33476-0.31177-0.39636-0.35306-0.40871-0.50033-0.14555-0.08819 0.15759-0.18864 1.1296-0.22378 2.1596-0.05342 1.5655-0.02338 1.9067 0.18921 2.0832 0.21028 0.17447 0.33058 0.17441 0.69136-0.0055 0.74195-0.36978 0.77391-0.35576 0.25289 0.11462-0.59824 0.54009-0.82615 1.2568-0.44575 1.4027 0.13915 0.05337 0.60584 0.09825 1.0352 0.09825 0.42939 0 0.82414 0.07172 0.87876 0.1601 0.06234 0.10087-0.29173 0.16011-0.95335 0.16011-1.0827 0-1.3739 0.2082-0.66771 0.47668 0.80281 0.30523 0.66249 0.84491-0.26927 1.037-0.4481 0.0924-0.48058 0.12998-0.2347 0.27109 0.39169 0.7141 0.6032 1.2611 1.4828 0.8642l0.48214-0.24016-0.44029 0.3948c-0.2425 0.21661-0.55841 0.45802-0.70228 0.53854-0.22724 0.12717-0.15182 0.33454 0.58038 1.5756 0.46357 0.78572 1.1132 1.7547 1.4428 2.1523 0.76079 0.91793 0.69587 1.239-0.16011 0.80235-0.34082-0.17387-0.72322-0.46643-0.85147-0.64952-0.30056-0.42912-1.2483-1.1277-1.4009-1.0334-0.30192 0.1866-0.24465 1.0879 0.17284 2.7527 0.26791 1.0683 0.54285 3.2408 0.77869 5.5582h2.871c0.57017-4.7563 2.1976-9.6965 1.3136-14.681-0.10643-0.19886-0.09623-0.29623-0.02911-0.29474 0.06713 0.0015 0.19212 0.10287 0.31657 0.30202 0.10611 0.16991 0.82455 0.75886 1.5974 1.3081 1.4627 1.0396 3.4621 1.9465 7.2484 3.2931 0.6073 0.21599 1.6605 0.81228 2.3161 1.0721 0 0-0.0015-0.83417 0-1-1 0-1.5905-0.30822-2.1596-0.51062-3.7729-1.3418-5.732-2.2373-7.1356-3.2349-0.7105-0.42546-1.2702-1.0433-1.732-1.4973-0.20256-0.19911-0.40024-0.099-0.53308-0.27109 0 0-0.48358-0.43005-0.56037-0.72593-0.08181-0.31522 0.14555-0.96609 0.14555-0.96609 0.09677-0.64438 0.21982-1.5364 0.27655-2.0013 0.03648-0.29905 0.08338-0.47952 0.10734-0.53308 0.39697-0.12256 0.57891-0.42884 0.76232-0.77506 0.19027-0.35916 0.35562-0.80753 0.49851-1.319 0.28577-1.023 0.4785-2.2895 0.4785-3.4659 0-0.19534-0.01786-0.36888-0.07095-0.5349-0.05309-0.16601-0.14686-0.34556-0.3475-0.4603-0.20064-0.11474-0.46402-0.09413-0.63496-0.01273-0.01067 0.0051-0.01517 0.01648-0.02547 0.02184-0.02185-0.20913-0.04795-0.30214-0.04912-0.71683-0.0047-1.6906-0.20483-2.6564-0.81144-3.8953-0.35623-0.72737-0.98448-1.4943-1.6338-2.1323-0.32467-0.31899-0.65446-0.60237-0.96427-0.82418-0.2172-0.1555-0.42192-0.23431-0.63132-0.32021-0.048734-0.060725-0.11191-0.10826-0.18376-0.13827 0 0-1.2394-0.52398-2.8073-0.52398zm2.2979 16.84c0.02347 0.0032 0.0544 0.0156 0.09098 0.03822 0.25766 0.15925 0.84259 1.0498 0.68954 1.0498-0.07899 0-0.30092-0.16846-0.49305-0.37297-0.30392-0.32351-0.45167-0.73767-0.28747-0.71502zm-4.2683 9.0314c-0.03849 0.0033-0.1398 0.10076-0.30384 0.30929-0.19227 0.24443-0.4953 0.4221-0.71502 0.4221-0.28506 0.08369-0.58153 0.15229-0.80598 0.21652-0.30314-0.11634-0.30007 0.15734 9e-3 0.75504 0.3561 0.39215-0.07101 0.46846-0.1128 0.74413-0.03694 0.19162-0.17906 0.07516-0.49487-0.40208-0.24426-0.36912-0.5151-0.67135-0.60221-0.67135-0.26033 0-0.18049 1.5293 0.17102 3.2694 0.13492 0.66787 0.58812 2.578 1.0043 4.3228h2.0686c0.04738-0.85438 0.09928-1.7591 0.131-2.4507 0.07901-1.7231 0.19184-3.4257 0.24926-3.7843 0.08909-0.55637 0.04054-0.72624-0.32203-1.1571-0.28501-0.33871-0.51028-0.472-0.68772-0.4039-0.21562 0.08273-0.19995-0.0029 0.08733-0.46758 0.27848-0.45059 0.388-0.70784 0.32385-0.70228z" color="#000000" color-rendering="auto" dominant-baseline="auto" fill="#fff" image-rendering="auto" shape-rendering="auto" solid-color="#000000" style="font-feature-settings:normal;font-variant-alternates:normal;font-variant-caps:normal;font-variant-ligatures:normal;font-variant-numeric:normal;font-variant-position:normal;isolation:auto;mix-blend-mode:normal;shape-padding:0;text-decoration-color:#000000;text-decoration-line:none;text-decoration-style:solid;text-indent:0;text-orientation:mixed;text-transform:none;white-space:normal"/>
 </g>
</svg>
