<?xml version="1.0" encoding="UTF-8"?>
<!-- Created with Inkscape (http://www.inkscape.org/) -->
<svg id="SVGRoot" width="48px" height="48px" version="1.1" viewBox="0 0 48 48" xml:space="preserve" xmlns="http://www.w3.org/2000/svg" xmlns:cc="http://creativecommons.org/ns#" xmlns:dc="http://purl.org/dc/elements/1.1/" xmlns:rdf="http://www.w3.org/1999/02/22-rdf-syntax-ns#"><defs><style>.cls-1{fill:none;stroke:#fff;stroke-linecap:round;stroke-linejoin:round;}</style><style>.cls-1{fill:none;stroke:#fff;stroke-linecap:round;stroke-linejoin:round;}</style><style>.cls-1{fill:none;stroke:#fff;stroke-linecap:round;stroke-linejoin:round;}</style><style>.cls-1{fill:none;stroke:#fff;stroke-linecap:round;stroke-linejoin:round;}</style><style>.cls-1{fill:none;stroke:#fff;stroke-linecap:round;stroke-linejoin:round;}</style><style>.cls-1{fill:none;stroke:#fff;stroke-linecap:round;stroke-linejoin:round;}</style><style>.cls-1{fill:none;stroke:#fff;stroke-linecap:round;stroke-linejoin:round;}</style><style>.cls-1{fill:none;stroke:#fff;stroke-linecap:round;stroke-linejoin:round;}</style><style>.cls-1{fill:none;stroke:#fff;stroke-linecap:round;stroke-linejoin:round;}</style><style>.cls-1{fill:none;stroke:#fff;stroke-linecap:round;stroke-linejoin:round;}</style><style>.cls-1{fill:none;stroke:#fff;stroke-linecap:round;stroke-linejoin:round;}</style><style>.a{fill:none;stroke:#b1b5bd;stroke-linecap:round;stroke-linejoin:round;isolation:isolate;opacity:0.63;}</style><style>.cls-1{fill:none;stroke:#fff;stroke-linecap:round;stroke-linejoin:round;}</style><style>.cls-1{fill:none;stroke:#fff;stroke-linecap:round;stroke-linejoin:round;}</style><style>.cls-1{fill:none;stroke:#fff;stroke-linecap:round;stroke-linejoin:round;}</style><style>.cls-1{fill:none;stroke:#fff;stroke-linecap:round;stroke-linejoin:round;}</style><style>.a{fill:none;stroke:#b1b5bd;stroke-linecap:round;stroke-linejoin:round;isolation:isolate;opacity:0.63;}</style><style>.cls-1{fill:none;stroke:#fff;stroke-linecap:round;stroke-linejoin:round;}</style><style>.cls-1{fill:none;stroke:#fff;stroke-linecap:round;stroke-linejoin:round;}</style><style>.cls-1{fill:none;stroke:#fff;stroke-linecap:round;stroke-linejoin:round;}</style><style>.cls-1{fill:none;stroke:#fff;stroke-linecap:round;stroke-linejoin:round;}</style><style>.cls-1{fill:none;stroke:#fff;stroke-linecap:round;stroke-linejoin:round;}</style><style>.cls-1{fill:none;stroke:#fff;stroke-linecap:round;stroke-linejoin:round;}</style><style>.cls-1{fill:none;stroke:#fff;stroke-linecap:round;stroke-linejoin:round;}</style><style>.cls-1{fill:none;stroke:#fff;stroke-linecap:round;stroke-linejoin:round;}</style><style>.cls-1{fill:none;stroke:#fff;stroke-linecap:round;stroke-linejoin:round;}</style></defs><metadata><rdf:RDF><cc:Work rdf:about=""><dc:format>image/svg+xml</dc:format><dc:type rdf:resource="http://purl.org/dc/dcmitype/StillImage"/></cc:Work></rdf:RDF></metadata><rect x="4" y="16" width="40" height="28" ry="8" fill="#fecbcb" fill-rule="evenodd" style="paint-order:stroke fill markers"/><g stroke-linecap="round"><path d="m12 4c-4.432 0-8 3.568-8 8v12h40v-12c0-4.432-3.568-8-8-8h-24z" fill="#344968" stroke-width="4" style="paint-order:stroke fill markers"/><path d="m12 6c-3.324 0-6 2.676-6 6v6.4922c1.4283 0.95261 3.147 1.5078 5 1.5078 4.986 0 9-4.014 9-9 0-1.853-0.5552-3.5717-1.5078-5h-6.4922zm25 22c-4.986 0-9 4.014-9 9 0 1.853 0.5552 3.5717 1.5078 5h6.4922c3.324 0 6-2.676 6-6v-6.4922c-1.4283-0.95261-3.147-1.5078-5-1.5078z" opacity=".3" stroke-width="4" style="paint-order:stroke fill markers"/><path d="m9 24s3.8-12 17-12c8.4857 0 11.171 5.4 11.171 5.4s-7.5429-2.8286-10.371-0.94286c12.257 0.94286 15.086 5.6571 15.086 5.6571s-4.7143-1.8857-7.5429-1.8857c3.7714 1.8857 4.6571 3.7714 4.6571 3.7714z" fill="#5b84e1" stroke-width="3.7714" style="paint-order:stroke fill markers"/><path d="m39 24s-3.8 12-17 12c-8.4857 0-11.171-5.4-11.171-5.4s7.5429 2.8286 10.371 0.94286c-12.257-0.94286-15.086-5.6571-15.086-5.6571s4.7143 1.8857 7.5429 1.8857c-3.7714-1.8857-4.6571-3.7714-4.6571-3.7714z" fill="#4e4e4e" stroke-width="3.7714" style="paint-order:stroke fill markers"/><path d="m22 36c13.2 0 17-12 17-12h-2s-4 10-14 10c-8.9324 0-12.124-3.3501-12.172-3.4004 0.017943 0.035888 2.7145 5.4004 11.172 5.4004zm-0.80078-4.457c1.6808-3.75e-4 4.8008-1.543 4.8008-1.543s-3 1-6 0c-10.865 0-13.812-4.0145-13.883-4.1133h-2e-3c4.6e-4 7.58e-4 -3.6e-5 0.0027 2e-3 0.0059 0.12022 0.1918 3.0846 4.7275 15.082 5.6504z" fill="#d36244" stroke-width="4" style="paint-order:stroke fill markers"/><path d="m9 24 35-2v2z" fill="#f9df06" stroke-linejoin="round" stroke-width="2" style="paint-order:stroke fill markers"/></g><path d="m12 4c-4.432 0-8 3.568-8 8v24c0 4.432 3.568 8 8 8h24c4.432 0 8-3.568 8-8v-24c0-4.432-3.568-8-8-8zm0 1h24c3.878 0 7 3.122 7 7v24c0 3.878-3.122 7-7 7h-24c-3.878 0-7-3.122-7-7v-24c0-3.878 3.122-7 7-7z" fill-rule="evenodd" opacity=".3" style="paint-order:stroke fill markers"/></svg>
