<?xml version="1.0" encoding="UTF-8"?>
<!-- Created with Inkscape (http://www.inkscape.org/) -->
<svg id="SVGRoot" width="48px" height="48px" version="1.1" viewBox="0 0 48 48" xml:space="preserve" xmlns="http://www.w3.org/2000/svg" xmlns:cc="http://creativecommons.org/ns#" xmlns:dc="http://purl.org/dc/elements/1.1/" xmlns:rdf="http://www.w3.org/1999/02/22-rdf-syntax-ns#" xmlns:xlink="http://www.w3.org/1999/xlink"><defs><linearGradient id="linearGradient10"><stop stop-color="#ffa033" offset="0"/><stop stop-color="#4e4e4e" offset="1"/></linearGradient><style>.cls-1{fill:none;stroke:#fff;stroke-linecap:round;stroke-linejoin:round;}</style><style>.cls-1{fill:none;stroke:#fff;stroke-linecap:round;stroke-linejoin:round;}</style><style>.cls-1{fill:none;stroke:#fff;stroke-linecap:round;stroke-linejoin:round;}</style><style>.cls-1{fill:none;stroke:#fff;stroke-linecap:round;stroke-linejoin:round;}</style><style>.a{fill:none;stroke:#b1b5bd;stroke-linecap:round;stroke-linejoin:round;isolation:isolate;opacity:0.63;}</style><style>.cls-1{fill:none;stroke:#fff;stroke-linecap:round;stroke-linejoin:round;}</style><linearGradient id="linearGradient5" x1="28.189" x2="28.189" y1="12.91" y2="27.709" gradientUnits="userSpaceOnUse" xlink:href="#linearGradient10"/><linearGradient id="linearGradient7" x1="23.721" x2="21.585" y1="24.409" y2="21.129" gradientUnits="userSpaceOnUse" xlink:href="#linearGradient10"/><linearGradient id="linearGradient9" x1="23.202" x2="20.868" y1="33.725" y2="29.908" gradientUnits="userSpaceOnUse" xlink:href="#linearGradient10"/><linearGradient id="linearGradient12" x1="26.66" x2="23.159" y1="12.313" y2="12.398" gradientUnits="userSpaceOnUse"><stop stop-color="#FFC737" offset="0"/><stop stop-color="#BB5E20" offset="1"/></linearGradient></defs><metadata><rdf:RDF><cc:Work rdf:about=""><dc:format>image/svg+xml</dc:format><dc:type rdf:resource="http://purl.org/dc/dcmitype/StillImage"/></cc:Work></rdf:RDF></metadata><rect x="4" y="4" width="40" height="40" ry="8" fill="#0bdcad" fill-rule="evenodd" style="paint-order:stroke fill markers"/><path d="m12 4c-4.432 0-8 3.568-8 8v24c0 4.432 3.568 8 8 8h24c4.432 0 8-3.568 8-8v-24c0-4.432-3.568-8-8-8zm0 1h24c3.878 0 7 3.122 7 7v24c0 3.878-3.122 7-7 7h-24c-3.878 0-7-3.122-7-7v-24c0-3.878 3.122-7 7-7z" fill-rule="evenodd" opacity=".3" style="paint-order:stroke fill markers"/><g stroke-linecap="round" stroke-linejoin="round"><path d="m16.224 18 4.2627-6.0142s2.0269-1.764 4.6305-1.764c3.4904 0 8.8216 1.6089 8.8216 6.8797 0 2.4786-0.97342 3.1684-0.88976 4.8069 0.07893 1.546 0.79132 2.8605 0.9072 4.41 0.16672 2.2295-1.5488 4.8182-3.1641 8.0652z" fill="url(#linearGradient5)" stroke-width="1.046"/><path d="m15.371 20.762c0.22583-4.1023 4.0939-5.8935 7.2325-5.7616 3.7803 0.1588 8.7359 3.3916 8.4077 7.702-0.17407 2.2859-1.9375 3.0049-1.8808 4.6746 0.03829 1.1283 1.9496 2.9307 1.9021 5.292-0.09519 4.7367-4.0253 5.3366-7.008 5.4045-5.1606 0.11748-11.406-3.6264-10.506-7.9182 0.79261-3.7802 2.5082-3.549 2.5578-5.6007 0.02449-1.0117-0.77629-2.5087-0.70561-3.7926z" fill="#ffff85" stroke-width="1.046"/><rect x="20" y="20" width="5" height="5" rx="2.4321" ry="2.5" fill="url(#linearGradient7)" stroke-width="1.1042"/><rect x="19" y="29" width="6" height="5" rx="2.8423" ry="2.4777" fill="url(#linearGradient9)" stroke-width=".92986"/><path d="m21.854 12.294c0.03158-1.1505 1.9815-1.51 3.1311-1.4553 0.98719 0.047 2.6111 0.51255 2.5578 1.4994-0.06 1.1104-1.9316 1.4047-3.0429 1.3671-0.99904-0.03383-2.6734-0.41198-2.646-1.4112z" fill="url(#linearGradient12)" stroke-width="1.046"/><rect x="24.279" y="10.354" width=".4851" height="3.1311" ry=".24255" fill="#4e4e4e" stroke-width="1.046"/><path d="m23.485 11.104s-0.0751-5.0641 0.79381-5.0641c0.93724 0 1.3671 5.0242 1.3671 5.0242s-0.79423-1.207-1.4112-1.1165c-0.48777 0.071568-0.74971 1.1564-0.74971 1.1564z" fill="#fffbca" stroke-width=".99458"/></g></svg>
