<?xml version="1.0" encoding="UTF-8"?>
<!-- Created with Inkscape (http://www.inkscape.org/) -->
<svg id="SVGRoot" width="48px" height="48px" version="1.1" viewBox="0 0 48 48" xmlns="http://www.w3.org/2000/svg" xmlns:cc="http://creativecommons.org/ns#" xmlns:dc="http://purl.org/dc/elements/1.1/" xmlns:rdf="http://www.w3.org/1999/02/22-rdf-syntax-ns#">
 <defs id="defs815">
  <style id="style819">.cls-1{fill:none;stroke:#fff;stroke-linecap:round;stroke-linejoin:round;}</style>
 </defs>
 <metadata id="metadata818">
  <rdf:RDF>
   <cc:Work rdf:about="">
    <dc:format>image/svg+xml</dc:format>
    <dc:type rdf:resource="http://purl.org/dc/dcmitype/StillImage"/>
    <dc:title/>
   </cc:Work>
  </rdf:RDF>
 </metadata>
 <g id="layer1">
  <rect id="rect1373-5" x="4" y="4" width="40" height="40" ry="8" fill="#4e4e4e" fill-rule="evenodd" style="paint-order:stroke fill markers"/>
  <path id="rect817" d="m12 4c-4.432 0-8 3.568-8 8v24c0 4.432 3.568 8 8 8h24c4.432 0 8-3.568 8-8v-24c0-4.432-3.568-8-8-8h-24zm0 1h24c3.878 0 7 3.122 7 7v24c0 3.878-3.122 7-7 7h-24c-3.878 0-7-3.122-7-7v-24c0-3.878 3.122-7 7-7z" fill-rule="evenodd" opacity=".4" style="paint-order:stroke fill markers"/>
  <path id="rect843" d="m12 8c-2.216 0-4 1.784-4 4v24c0 2.216 1.784 4 4 4h19l9-9v-14l-9-9h-19z" fill="#fff" fill-rule="evenodd" style="paint-order:stroke fill markers"/>
  <path id="rect845" d="m13 10c-1.662 0-3 1.338-3 3v22c0 1.662 1.338 3 3 3h16l9-9v-11l-8-8h-17z" fill="#f26eab" fill-rule="evenodd" style="paint-order:stroke fill markers"/>
  <path id="path847" d="m17 8 12 12 7-7 3 4-7 7 7 7-3 4-7.5024-7.476-11.498 11.476h-7l15-15-15-15z" fill="#fff"/>
  <path id="path867" d="m33 6 9 9v-3c0-3.324-2.676-6-6-6h-3zm9 27-9 9h3c3.324 0 6-2.676 6-6v-3z" opacity=".4"/>
 </g>
</svg>
