<?xml version="1.0" encoding="UTF-8"?>
<!-- Created with Inkscape (http://www.inkscape.org/) -->
<svg id="SVGRoot" width="48px" height="48px" version="1.1" viewBox="0 0 48 48" xml:space="preserve" xmlns="http://www.w3.org/2000/svg" xmlns:cc="http://creativecommons.org/ns#" xmlns:dc="http://purl.org/dc/elements/1.1/" xmlns:rdf="http://www.w3.org/1999/02/22-rdf-syntax-ns#"><defs><style>.cls-1{fill:none;stroke:#fff;stroke-linecap:round;stroke-linejoin:round;}</style><style>.cls-1{fill:none;stroke:#fff;stroke-linecap:round;stroke-linejoin:round;}</style><style>.cls-1{fill:none;stroke:#fff;stroke-linecap:round;stroke-linejoin:round;}</style><style>.cls-1{fill:none;stroke:#fff;stroke-linecap:round;stroke-linejoin:round;}</style><style>.cls-1{fill:none;stroke:#fff;stroke-linecap:round;stroke-linejoin:round;}</style><style>.a{fill:none;stroke:#b1b5bd;stroke-linecap:round;stroke-linejoin:round;isolation:isolate;opacity:0.63;}</style><style>.cls-1{fill:none;stroke:#fff;stroke-linecap:round;stroke-linejoin:round;}</style><style>.cls-1{fill:none;stroke:#fff;stroke-linecap:round;stroke-linejoin:round;}</style></defs><metadata><rdf:RDF><cc:Work rdf:about=""><dc:format>image/svg+xml</dc:format><dc:type rdf:resource="http://purl.org/dc/dcmitype/StillImage"/></cc:Work></rdf:RDF></metadata><rect x="4" y="4" width="40" height="40" ry="8" fill="#0fc0a4" fill-rule="evenodd" style="paint-order:stroke fill markers"/><path d="m12 36-6.916 4.0352c1.3842 2.3756 3.9575 3.9648 6.916 3.9648h24c2.9586 0 5.5318-1.5893 6.916-3.9648l-6.916-4.0352h-24z" fill="#C76715" stroke-linecap="round" stroke-linejoin="round"/><path d="m12 4c-4.432 0-8 3.568-8 8v24c0 4.432 3.568 8 8 8h24c4.432 0 8-3.568 8-8v-24c0-4.432-3.568-8-8-8zm0 1h24c3.878 0 7 3.122 7 7v24c0 3.878-3.122 7-7 7h-24c-3.878 0-7-3.122-7-7v-24c0-3.878 3.122-7 7-7z" fill-rule="evenodd" opacity=".3" style="paint-order:stroke fill markers"/><g stroke-linecap="round" stroke-linejoin="round"><rect x="24" y="17" width="2" height="4" fill="#4e4e4e"/><rect x="22" y="12" width="7" height="7" ry="3.5" fill="#4e4e4e"/><path d="m26.592 12.172c-0.93013 0.41264-1.5918 1.5205-1.5918 2.8281 0 1.662 1.0708 3 2.4004 3 0.23179 0 0.45623-0.041231 0.66797-0.11719 0.57924-0.62398 0.93164-1.4603 0.93164-2.3828 0-1.5571-1.0076-2.8712-2.4082-3.3281z" fill="#fff"/><path d="m12 36 12-7 12 7-12 7z" fill="#feb652"/></g><g fill="#fff" stroke-linecap="round" stroke-linejoin="round"><path d="m26 20s2 3.8918 2 6c0 2.5519-2.1236 3.8142-4 4-2.392 0.23686-6-1.5963-6-4 0-2 5-4 6-6 0 0 0 1 1 1s1-1 1-1z"/><path d="m23 29v6s0.2971 1 2 1c0-1-1-1.4472-1-1.4472v-5.5528z"/><path d="m25 27v6s0.2971 1 2 1c0-1-1-1.4472-1-1.4472v-5.5528z"/><path d="m15 10 8 8c0-4 3-6 3-6z"/></g></svg>
