<?xml version="1.0" encoding="UTF-8" standalone="no"?>
<!-- Created with Inkscape (http://www.inkscape.org/) -->

<svg
   id="SVGRoot"
   width="48px"
   height="48px"
   version="1.1"
   viewBox="0 0 48 48"
   sodipodi:docname="patapon.svg"
   xml:space="preserve"
   inkscape:version="1.4.3 (0d15f75042, 2025-12-25)"
   xmlns:inkscape="http://www.inkscape.org/namespaces/inkscape"
   xmlns:sodipodi="http://sodipodi.sourceforge.net/DTD/sodipodi-0.dtd"
   xmlns="http://www.w3.org/2000/svg"
   xmlns:svg="http://www.w3.org/2000/svg"
   xmlns:rdf="http://www.w3.org/1999/02/22-rdf-syntax-ns#"
   xmlns:cc="http://creativecommons.org/ns#"
   xmlns:dc="http://purl.org/dc/elements/1.1/"><sodipodi:namedview
     id="namedview1"
     pagecolor="#505050"
     bordercolor="#eeeeee"
     borderopacity="1"
     inkscape:showpageshadow="0"
     inkscape:pageopacity="0"
     inkscape:pagecheckerboard="0"
     inkscape:deskcolor="#505050"
     showgrid="true"
     inkscape:zoom="16.770833"
     inkscape:cx="24"
     inkscape:cy="24"
     inkscape:window-width="1920"
     inkscape:window-height="1014"
     inkscape:window-x="0"
     inkscape:window-y="0"
     inkscape:window-maximized="1"
     inkscape:current-layer="SVGRoot"><inkscape:grid
       id="grid1"
       units="px"
       originx="0"
       originy="0"
       spacingx="1"
       spacingy="1"
       empcolor="#0099e5"
       empopacity="0.30196078"
       color="#0099e5"
       opacity="0.14902"
       empspacing="5"
       enabled="true"
       visible="true" /></sodipodi:namedview><defs
     id="defs815"><style
       id="style819">.cls-1{fill:none;stroke:#fff;stroke-linecap:round;stroke-linejoin:round;}</style><style
       id="style819-6">.cls-1{fill:none;stroke:#fff;stroke-linecap:round;stroke-linejoin:round;}</style><style
       id="style2">.a{fill:none;stroke:#b1b5bd;stroke-linecap:round;stroke-linejoin:round;isolation:isolate;opacity:0.63;}</style><style
       id="style1">.cls-1{fill:none;stroke:#fff;stroke-linecap:round;stroke-linejoin:round;}</style><style
       id="style2-2">.cls-1{fill:none;stroke:#fff;stroke-linecap:round;stroke-linejoin:round;}</style><style
       id="style3">.cls-1{fill:none;stroke:#fff;stroke-linecap:round;stroke-linejoin:round;}</style></defs><metadata
     id="metadata818"><rdf:RDF><cc:Work
         rdf:about=""><dc:format>image/svg+xml</dc:format><dc:type
           rdf:resource="http://purl.org/dc/dcmitype/StillImage" /></cc:Work></rdf:RDF></metadata><path
     id="rect822"
     d="m 24,12 c -7.756,0 -14,6.244 -14,14 0,7.756 6.244,14 14,14 7.756,0 14,-6.244 14,-14 0,-7.756 -6.244,-14 -14,-14 z m 0,1 c 7.202,0 13,5.798 13,13 0,7.202 -5.798,13 -13,13 -7.202,0 -13,-5.798 -13,-13 0,-7.202 5.798,-13 13,-13 z"
     opacity="0.25"
     style="fill-rule:evenodd;paint-order:stroke fill markers" /><rect
     id="rect1373-5"
     x="4"
     y="4"
     width="28"
     height="40"
     ry="8"
     fill="#efefef"
     style="fill:#f6a559;fill-rule:evenodd;paint-order:stroke fill markers" /><path
     id="rect1373-5-3"
     style="fill:#d2e37f;fill-rule:evenodd;paint-order:stroke fill markers;fill-opacity:1"
     d="M 24 4 L 24 44 L 36 44 C 40.432 44 44 40.432 44 36 L 44 12 C 44 7.568 40.432 4 36 4 L 24 4 z " /><rect
     style="opacity:1;fill:#4e4e4e;stroke-width:0.5;stroke-linecap:round;stroke-linejoin:round;paint-order:stroke fill markers"
     id="rect1"
     width="28"
     height="28"
     x="10"
     y="12"
     ry="14" /><rect
     style="opacity:1;fill:#ffffff;stroke-width:0.619281;stroke-linecap:round;stroke-linejoin:round;paint-order:stroke fill markers"
     id="rect2"
     width="19.816999"
     height="19.816999"
     x="14.0915"
     y="16.091499"
     ry="9.9084997" /><rect
     style="opacity:1;fill:#4e4e4e;stroke-width:0.5;stroke-linecap:round;stroke-linejoin:round;paint-order:stroke fill markers"
     id="rect3"
     width="12"
     height="12"
     x="18"
     y="20"
     ry="6" /><rect
     style="opacity:1;fill:#4e4e4e;fill-opacity:1;stroke-width:0.57735;stroke-linecap:round;stroke-linejoin:round;paint-order:stroke fill markers"
     id="rect6"
     width="16"
     height="4"
     x="16"
     y="12" /><path
     id="rect7"
     style="opacity:1;fill:#4e4e4e;fill-opacity:1;stroke-width:0.5;stroke-linecap:round;stroke-linejoin:round;paint-order:stroke fill markers"
     d="M 14.091797 4 C 14.382888 5.3655792 15.137864 7.2177312 16.248047 9.140625 C 18.256297 12.619016 20.643959 14.973922 21.603516 14.419922 C 22.563072 13.865922 21.719187 10.619016 19.710938 7.140625 C 19.014023 5.9335339 18.271567 4.8618009 17.558594 4 L 14.091797 4 z M 22.210938 4 C 22.076275 4.9765201 22 6.0800418 22 7.25 C 22 11.2665 22.892 14.5 24 14.5 C 25.108 14.5 26 11.2665 26 7.25 C 26 6.0800418 25.923725 4.9765201 25.789062 4 L 22.210938 4 z M 30.441406 4 C 29.728433 4.8618009 28.985977 5.9335339 28.289062 7.140625 C 26.280812 10.619016 25.436928 13.865922 26.396484 14.419922 C 27.356041 14.973922 29.743703 12.619016 31.751953 9.140625 C 32.862136 7.2177312 33.617112 5.3655792 33.908203 4 L 30.441406 4 z " /><path
     id="rect817"
     d="M 12,4 C 7.568,4 4,7.568 4,12 v 24 c 0,4.432 3.568,8 8,8 h 24 c 4.432,0 8,-3.568 8,-8 V 12 C 44,7.568 40.432,4 36,4 Z m 0,1 h 24 c 3.878,0 7,3.122 7,7 v 24 c 0,3.878 -3.122,7 -7,7 H 12 C 8.122,43 5,39.878 5,36 V 12 C 5,8.122 8.122,5 12,5 Z"
     opacity="0.3"
     style="fill-rule:evenodd;paint-order:stroke fill markers" /></svg>
