<?xml version="1.0" encoding="UTF-8"?>
<!-- Created with Inkscape (http://www.inkscape.org/) -->
<svg id="SVGRoot" width="48px" height="48px" version="1.1" viewBox="0 0 48 48" xml:space="preserve" xmlns="http://www.w3.org/2000/svg" xmlns:cc="http://creativecommons.org/ns#" xmlns:dc="http://purl.org/dc/elements/1.1/" xmlns:rdf="http://www.w3.org/1999/02/22-rdf-syntax-ns#"><defs><style>.cls-1{fill:none;stroke:#fff;stroke-linecap:round;stroke-linejoin:round;}</style><style>.cls-1{fill:none;stroke:#fff;stroke-linecap:round;stroke-linejoin:round;}</style><style>.cls-1{fill:none;stroke:#fff;stroke-linecap:round;stroke-linejoin:round;}</style><style>.cls-1{fill:none;stroke:#fff;stroke-linecap:round;stroke-linejoin:round;}</style><style>.cls-1{fill:none;stroke:#fff;stroke-linecap:round;stroke-linejoin:round;}</style><style>.cls-1{fill:none;stroke:#fff;stroke-linecap:round;stroke-linejoin:round;}</style><style id="current-color-scheme" type="text/css">.ColorScheme-Text {
        color:#31363b;
      }
      .ColorScheme-Accent {
        color:#3daee9;
      }</style><style type="text/css">.ColorScheme-Text {
        color:#31363b;
      }
      .ColorScheme-Accent {
        color:#3daee9;
      }</style><style>.cls-1{fill:none;stroke:#fff;stroke-linecap:round;stroke-linejoin:round;}</style><style>.cls-1{fill:none;stroke:#fff;stroke-linecap:round;stroke-linejoin:round;}</style><style>.a{fill:none;stroke:#b1b5bd;stroke-linecap:round;stroke-linejoin:round;isolation:isolate;opacity:0.63;}</style><style>.cls-1{fill:none;stroke:#fff;stroke-linecap:round;stroke-linejoin:round;}</style><style>.cls-1{fill:none;stroke:#fff;stroke-linecap:round;stroke-linejoin:round;}</style><style>.cls-1{fill:none;stroke:#fff;stroke-linecap:round;stroke-linejoin:round;}</style><style>.cls-1{fill:none;stroke:#fff;stroke-linecap:round;stroke-linejoin:round;}</style></defs><metadata><rdf:RDF><cc:Work rdf:about=""><dc:format>image/svg+xml</dc:format><dc:type rdf:resource="http://purl.org/dc/dcmitype/StillImage"/></cc:Work></rdf:RDF></metadata><rect transform="scale(-1,1)" x="-44" y="4" width="30" height="40" ry="8" fill="#f3cf53" fill-rule="evenodd" style="paint-order:stroke fill markers"/><path d="m36 4c4.432 0 8 3.568 8 8v24c0 4.432-3.568 8-8 8h-14c-4.432 0-8-3.568-8-8v-24c0-4.432 3.568-8 8-8zm0 1h-14c-3.878 0-7 3.122-7 7v24c0 3.878 3.122 7 7 7h14c3.878 0 7-3.122 7-7v-24c0-3.878-3.122-7-7-7z" fill-rule="evenodd" opacity=".3" style="paint-order:stroke fill markers"/><path d="m36.293 8.293-8 8c-0.39037 0.39053-0.39037 1.0235 0 1.4141l8 8c0.39053 0.39037 1.0235 0.39037 1.4141 0l8-8c0.39037-0.39053 0.39037-1.0235 0-1.4141l-8-8c-0.39053-0.39037-1.0235-0.39037-1.4141 0z" fill="#f97263" stop-color="#000000" stroke-linecap="round" stroke-linejoin="round"/><path d="m37 12c-0.554 0-1 0.446-1 1s0.446 1 1 1 1-0.446 1-1-0.446-1-1-1zm0 4a1 1 0 0 0-1 1 1 1 0 0 0 1 1 1 1 0 0 0 1-1 1 1 0 0 0-1-1zm4 0c-0.554 0-1 0.446-1 1s0.446 1 1 1 1-0.446 1-1-0.446-1-1-1zm-4 4a1 1 0 0 0-1 1 1 1 0 0 0 1 1 1 1 0 0 0 1-1 1 1 0 0 0-1-1z" fill="#fff"/><path d="m37 8c-0.25588 0-0.51177 0.097785-0.70703 0.29297l-8 8c-0.39037 0.39053-0.39037 1.0235 0 1.4141l8 8c0.39053 0.39037 1.0235 0.39037 1.4141 0l8-8c0.39037-0.39053 0.39037-1.0235 0-1.4141l-8-8c-0.19526-0.19518-0.45115-0.29297-0.70703-0.29297zm0 1 8 8-8 8-8-8 8-8z" opacity=".3" stop-color="#000000" stroke-linecap="round" stroke-linejoin="round"/><rect x="20.049" y="20" width="24" height="24" ry="12" fill="#4fbcff" stroke-linecap="round" stroke-linejoin="round" stroke-width="2"/><path d="m31.049 22.049c-2.0165 0.19845-3.8531 0.99088-5.334 2.2012l2.1387 2.1387c0.91614-0.68496 2.0064-1.1497 3.1953-1.3184v-3.0215zm2 0v3.0215c1.1889 0.16865 2.2792 0.63336 3.1953 1.3184l2.1387-2.1387c-1.4809-1.2103-3.3175-2.0027-5.334-2.2012zm-8.75 3.6172c-1.2103 1.4809-2.0027 3.3175-2.2012 5.334h3.0215c0.16865-1.1889 0.63336-2.2792 1.3184-3.1953l-2.1387-2.1387zm15.5 0-2.1387 2.1387c0.68496 0.91614 1.1497 2.0064 1.3184 3.1953h3.0215c-0.19845-2.0165-0.99088-3.8531-2.2012-5.334zm-17.701 7.334c0.19845 2.0165 0.99088 3.8531 2.2012 5.334l2.1387-2.1387c-0.68496-0.91614-1.1497-2.0064-1.3184-3.1953h-3.0215zm16.881 0c-0.16865 1.1889-0.63336 2.2792-1.3184 3.1953l2.1387 2.1387c1.2103-1.4809 2.0027-3.3175 2.2012-5.334h-3.0215zm-11.125 4.6113-2.1387 2.1387c1.4809 1.2103 3.3175 2.0027 5.334 2.2012v-3.0215c-1.1889-0.16865-2.2792-0.63336-3.1953-1.3184zm8.3906 0c-0.91614 0.68496-2.0064 1.1497-3.1953 1.3184v3.0215c2.0165-0.19845 3.8531-0.99088 5.334-2.2012l-2.1387-2.1387z" fill="#fff" opacity=".5"/><path d="m32.049 20c-6.648 0-12 5.352-12 12s5.352 12 12 12 12-5.352 12-12-5.352-12-12-12zm0 1c6.094 0 11 4.906 11 11s-4.906 11-11 11-11-4.906-11-11 4.906-11 11-11z" opacity=".3"/><path d="m32.049 26c-3.324 0-6 2.676-6 6s2.676 6 6 6 6-2.676 6-6-2.676-6-6-6zm0 2c2.216 0 4 1.784 4 4s-1.784 4-4 4-4-1.784-4-4 1.784-4 4-4z" opacity=".3"/><rect transform="scale(-1,1)" x="-34" y="4" width="30" height="40" ry="8" fill="#efefef" fill-rule="evenodd" style="paint-order:stroke fill markers"/><g fill="#f97263"><path d="m27.031 34.008s2.6508 2.3401 2.9437 3.9318c0.18541 1.0079-0.5065 2.0431-1.3425 2.0431-1.0655 0-1.6012-1.1166-1.6012-1.1166s-0.68618 1.1166-1.4534 1.1166c-1.1841 0-1.7276-0.96311-1.5026-2.1144 0.25246-1.2919 2.956-3.8606 2.956-3.8606z"/><path d="m18.99 31.002s6.2428-5.5111 6.9324-9.2597c0.43665-2.3735-1.1928-4.8117-3.1617-4.8117-2.5094 0-3.7708 2.6296-3.7708 2.6296s-1.616-2.6296-3.4227-2.6296c-2.7886 0-4.0686 2.2682-3.5387 4.9795 0.59456 3.0425 6.9614 9.0918 6.9614 9.0918z"/><path d="m10.99 13.983s2.6501-2.3395 2.9429-3.9308c0.18536-1.0076-0.50637-2.0426-1.3422-2.0426-1.0653 0-1.6007 1.1163-1.6007 1.1163s-0.686-1.1163-1.453-1.1163c-1.1838 0-1.7271 0.96286-1.5022 2.1139 0.2524 1.2916 2.9552 3.8596 2.9552 3.8596z"/></g><path d="m26 4c4.432 0 8 3.568 8 8v24c0 4.432-3.568 8-8 8h-14c-4.432 0-8-3.568-8-8v-24c0-4.432 3.568-8 8-8zm0 1h-14c-3.878 0-7 3.122-7 7v24c0 3.878 3.122 7 7 7h14c3.878 0 7-3.122 7-7v-24c0-3.878-3.122-7-7-7z" fill-rule="evenodd" opacity=".3" style="paint-order:stroke fill markers"/></svg>
