<?xml version="1.0" encoding="UTF-8"?>
<!-- Created with Inkscape (http://www.inkscape.org/) -->
<svg id="SVGRoot" width="48px" height="48px" version="1.1" viewBox="0 0 48 48" xml:space="preserve" xmlns="http://www.w3.org/2000/svg" xmlns:cc="http://creativecommons.org/ns#" xmlns:dc="http://purl.org/dc/elements/1.1/" xmlns:rdf="http://www.w3.org/1999/02/22-rdf-syntax-ns#"><defs><style>.cls-1{fill:none;stroke:#fff;stroke-linecap:round;stroke-linejoin:round;}</style></defs><metadata><rdf:RDF><cc:Work rdf:about=""><dc:format>image/svg+xml</dc:format><dc:type rdf:resource="http://purl.org/dc/dcmitype/StillImage"/></cc:Work></rdf:RDF></metadata><rect x="4" y="4" width="40" height="40" ry="8" fill="#64C223" fill-rule="evenodd" style="paint-order:stroke fill markers"/><path d="m12 4c-4.432 0-8 3.568-8 8v24c0 4.432 3.568 8 8 8h24c4.432 0 8-3.568 8-8v-24c0-4.432-3.568-8-8-8zm0 1h24c3.878 0 7 3.122 7 7v24c0 3.878-3.122 7-7 7h-24c-3.878 0-7-3.122-7-7v-24c0-3.878 3.122-7 7-7z" fill-rule="evenodd" opacity=".3" style="paint-order:stroke fill markers"/><path d="m13.002 25.201c0-3.7856 2.7537-6.434 5.8542-7.1839 3.0844-0.746 6.5556-0.18911 9.508-1.3523 4.294-1.6917 4.6906-4.6484 4.6906-4.6484s1.1638 1.529 1.9242 8.1135c0.10834 0.93822 0.1484 7.5939-2.4832 11.279-1.8951 2.6536-5.4642 4.5258-8.7377 4.5258-5.713 0-5.9765-3.0422-6.7613-3.0003-0.97422 0.05203 0.06709 2.1785-0.8029 2.62-0.96941 0.49194-2.4374-0.66166-2.789-1.6903-0.68269-1.9973 1.2923-2.8642 0.42258-3.6764-0.90599-0.84616-0.82546-3.1423-0.82546-4.9864z" fill="#fff" stroke-linecap="round" stroke-linejoin="round" stroke-width="4.009"/><path d="m16.659 29.089s-0.31371-2.8661 2.6623-4.6906c1.2737-0.78092 2.7983-0.3727 4.3948-0.8029 1.5238-0.4106 2.4932-1.1832 2.4932-1.1832s-0.8227 1.671-2.4087 2.2819c-1.2492 0.48121-2.8017-0.05799-3.9722 0.59161-1.726 0.95785-3.1693 3.8032-3.1693 3.8032z" fill="#64C223" stroke-linecap="round" stroke-linejoin="round" stroke-width="4.009"/></svg>
