<?xml version="1.0" encoding="UTF-8"?>
<!-- Created with Inkscape (http://www.inkscape.org/) -->
<svg id="SVGRoot" width="48px" height="48px" version="1.1" viewBox="0 0 48 48" xmlns="http://www.w3.org/2000/svg" xmlns:cc="http://creativecommons.org/ns#" xmlns:dc="http://purl.org/dc/elements/1.1/" xmlns:rdf="http://www.w3.org/1999/02/22-rdf-syntax-ns#">
 <defs id="defs815">
  <style id="style819">.cls-1{fill:none;stroke:#fff;stroke-linecap:round;stroke-linejoin:round;}</style>
  <style id="style819-1">.cls-1{fill:none;stroke:#fff;stroke-linecap:round;stroke-linejoin:round;}</style>
  <style id="style2">.a{fill:none;stroke:#b1b5bd;stroke-linecap:round;stroke-linejoin:round;isolation:isolate;opacity:0.63;}</style>
 </defs>
 <metadata id="metadata818">
  <rdf:RDF>
   <cc:Work rdf:about="">
    <dc:format>image/svg+xml</dc:format>
    <dc:type rdf:resource="http://purl.org/dc/dcmitype/StillImage"/>
    <dc:title/>
   </cc:Work>
  </rdf:RDF>
 </metadata>
 <g id="layer1">
  <rect id="rect1373-5" x="4" y="4" width="40" height="40" ry="8" fill="#a981af" fill-rule="evenodd" style="paint-order:stroke fill markers"/>
  <path id="rect834" d="m24 6v36h12c3.324 0 6-2.676 6-6v-24c0-3.324-2.676-6-6-6z" fill-rule="evenodd" opacity=".3" style="paint-order:normal"/>
  <path id="rect817" d="m12 4c-4.432 0-8 3.568-8 8v24c0 4.432 3.568 8 8 8h24c4.432 0 8-3.568 8-8v-24c0-4.432-3.568-8-8-8h-24zm0 1h24c3.878 0 7 3.122 7 7v24c0 3.878-3.122 7-7 7h-24c-3.878 0-7-3.122-7-7v-24c0-3.878 3.122-7 7-7z" fill-rule="evenodd" opacity=".3" style="paint-order:stroke fill markers"/>
  <path id="path920" d="m17 10c-3.2193 0-5.5776 2.0192-6.6738 4.2734-1.0963 2.2543-1.3262 4.7389-1.3262 6.7266 0 5.463 3.7768 9.6311 7.2441 12.432 3.4673 2.8005 6.918 4.3848 6.918 4.3848a2.0002 2.0002 0 0 0 1.6758 0s3.4507-1.5843 6.918-4.3848c3.4673-2.8005 7.2441-6.9687 7.2441-12.432 0-1.9877-0.22992-4.4723-1.3262-6.7266-1.0962-2.2543-3.4546-4.2734-6.6738-4.2734-2.9 0-5.0749 0.8963-6.4844 1.8359-0.33351 0.22234-0.25543 0.26144-0.51562 0.48633-0.26019-0.22489-0.18212-0.26399-0.51562-0.48633-1.4095-0.93964-3.5844-1.8359-6.4844-1.8359z" color="#000000" color-rendering="auto" dominant-baseline="auto" fill="#fff" image-rendering="auto" shape-rendering="auto" solid-color="#000000" style="font-feature-settings:normal;font-variant-alternates:normal;font-variant-caps:normal;font-variant-ligatures:normal;font-variant-numeric:normal;font-variant-position:normal;isolation:auto;mix-blend-mode:normal;paint-order:stroke fill markers;shape-padding:0;text-decoration-color:#000000;text-decoration-line:none;text-decoration-style:solid;text-indent:0;text-orientation:mixed;text-transform:none;white-space:normal"/>
  <path id="path828" d="m17 12c-5 0-6 5.3944-6 9 0 9 13 15 13 15s13-6 13-15c0-3.6056-1-9-6-9s-7 3-7 3-2-3-7-3z" fill="#ff7c9a" style="paint-order:stroke fill markers"/>
  <rect id="rect846" x="18" y="23" width="2" height="3" ry="1.5" fill="#502828" fill-rule="evenodd" style="paint-order:stroke fill markers"/>
  <path id="path848" d="m27 23 3 3" fill="none" stroke="#502828" stroke-linecap="round" stroke-linejoin="round" stroke-width="1px"/>
  <path id="path848-1" d="m30 23-3 3" fill="none" stroke="#502828" stroke-linecap="round" stroke-linejoin="round" stroke-width="1px"/>
  <path id="path865" d="m22 28s0 3 2 3 2-3 2-3" fill="none" stroke="#502828" stroke-linecap="round" stroke-linejoin="round" stroke-width="1px"/>
 </g>
</svg>
