<?xml version="1.0" encoding="UTF-8"?>
<!-- Created with Inkscape (http://www.inkscape.org/) -->
<svg id="SVGRoot" width="48px" height="48px" version="1.1" viewBox="0 0 48 48" xml:space="preserve" xmlns="http://www.w3.org/2000/svg" xmlns:cc="http://creativecommons.org/ns#" xmlns:dc="http://purl.org/dc/elements/1.1/" xmlns:rdf="http://www.w3.org/1999/02/22-rdf-syntax-ns#"><defs><style>.cls-1{fill:none;stroke:#fff;stroke-linecap:round;stroke-linejoin:round;}</style><style>.cls-1{fill:none;stroke:#fff;stroke-linecap:round;stroke-linejoin:round;}</style><style>.cls-1{fill:none;stroke:#fff;stroke-linecap:round;stroke-linejoin:round;}</style><style>.cls-1{fill:none;stroke:#fff;stroke-linecap:round;stroke-linejoin:round;}</style><style>.cls-1{fill:none;stroke:#fff;stroke-linecap:round;stroke-linejoin:round;}</style><style>.a{fill:none;stroke:#b1b5bd;stroke-linecap:round;stroke-linejoin:round;isolation:isolate;opacity:0.63;}</style><style>.cls-1{fill:none;stroke:#fff;stroke-linecap:round;stroke-linejoin:round;}</style><style>.cls-1{fill:none;stroke:#fff;stroke-linecap:round;stroke-linejoin:round;}</style><style>.cls-1{fill:none;stroke:#fff;stroke-linecap:round;stroke-linejoin:round;}</style></defs><metadata><rdf:RDF><cc:Work rdf:about=""><dc:format>image/svg+xml</dc:format><dc:type rdf:resource="http://purl.org/dc/dcmitype/StillImage"/></cc:Work></rdf:RDF></metadata><rect x="4" y="4" width="40" height="40" ry="8" fill="#5f903f" fill-rule="evenodd" style="paint-order:stroke fill markers"/><path d="m12 4c-4.432 0-8 3.568-8 8v24c0 4.432 3.568 8 8 8h24c4.432 0 8-3.568 8-8v-24c0-4.432-3.568-8-8-8zm0 1h24c3.878 0 7 3.122 7 7v24c0 3.878-3.122 7-7 7h-24c-3.878 0-7-3.122-7-7v-24c0-3.878 3.122-7 7-7z" fill-rule="evenodd" opacity=".3" style="paint-order:stroke fill markers"/><path d="m23.782 12.127c-2.9939 0.02655-6.0021 1.2568-7.9588 3.5699-1.4979 1.7707-2.6288 4.2051-2.7824 6.5129-0.13618 2.0467 0.06296 3.9411 0.79696 5.9051 1.3339 3.5693 4.6715 6.741 8.4955 6.9257 6.4138 0.31026 7.7196-2.9333 7.7196-2.9333l0.36156 2.4658s2.5765 0.01403 3.535 3e-3c-0.0037-3.8922-0.01573-12.007-0.01573-12.007l-8.9558 0.05635-0.1051 4.2001 3.9292-0.04919s0.19555 0.25713-0.34916 1.2041c-1.0289 1.7888-3.0563 2.153-4.9696 2.0971-2.0004-0.05833-3.648-1.44-4.2875-3.2611-0.52714-1.5014-0.51581-3.2177-0.37727-4.7648 0.28485-3.181 2.4545-4.9882 4.2898-5.0421 4.9923-0.14653 5.0089 2.9761 5.0089 2.9761l5.603 0.03837s0.13352-1.5562-0.89247-3.3141c-1.8213-3.1204-5.5867-4.6144-9.0459-4.5838z" fill="#ffd34e" stroke-width=".11458"/></svg>
