<?xml version="1.0" encoding="UTF-8"?>
<!-- Created with Inkscape (http://www.inkscape.org/) -->
<svg id="SVGRoot" width="48px" height="48px" version="1.1" viewBox="0 0 48 48" xmlns="http://www.w3.org/2000/svg" xmlns:cc="http://creativecommons.org/ns#" xmlns:dc="http://purl.org/dc/elements/1.1/" xmlns:rdf="http://www.w3.org/1999/02/22-rdf-syntax-ns#">
 <defs id="defs815">
  <style id="style819">.cls-1{fill:none;stroke:#fff;stroke-linecap:round;stroke-linejoin:round;}</style>
 </defs>
 <metadata id="metadata818">
  <rdf:RDF>
   <cc:Work rdf:about="">
    <dc:format>image/svg+xml</dc:format>
    <dc:type rdf:resource="http://purl.org/dc/dcmitype/StillImage"/>
    <dc:title/>
   </cc:Work>
  </rdf:RDF>
 </metadata>
 <g id="layer1">
  <rect id="rect1373-5" x="4" y="4" width="40" height="40" ry="8" fill="#ffcd4b" fill-rule="evenodd" style="paint-order:stroke fill markers"/>
  <path id="rect817" d="m12 4c-4.432 0-8 3.568-8 8v24c0 4.432 3.568 8 8 8h24c4.432 0 8-3.568 8-8v-24c0-4.432-3.568-8-8-8h-24zm0 1h24c3.878 0 7 3.122 7 7v24c0 3.878-3.122 7-7 7h-24c-3.878 0-7-3.122-7-7v-24c0-3.878 3.122-7 7-7z" fill-rule="evenodd" opacity=".3" style="paint-order:stroke fill markers"/>
  <path id="path817" d="m13.926 11.979a4.0004 4.0004 0 0 0-1.4121 7.7363l0.71289 0.28516-0.71289 0.28516a4.0012 4.0012 0 1 0 2.9727 7.4297l8.5137-3.4062 8.5137 3.4062a4.0012 4.0012 0 1 0 2.9727-7.4297l-0.71289-0.28516 0.71289-0.28516a4.0004 4.0004 0 0 0-1.5332-7.7344 4.0004 4.0004 0 0 0-1.4395 0.30469l-8.5137 3.4062-8.5137-3.4062a4.0004 4.0004 0 0 0-1.5605-0.30664z" color="#000000" color-rendering="auto" dominant-baseline="auto" fill="#fff" image-rendering="auto" shape-rendering="auto" solid-color="#000000" style="font-feature-settings:normal;font-variant-alternates:normal;font-variant-caps:normal;font-variant-ligatures:normal;font-variant-numeric:normal;font-variant-position:normal;isolation:auto;mix-blend-mode:normal;shape-padding:0;text-decoration-color:#000000;text-decoration-line:none;text-decoration-style:solid;text-indent:0;text-orientation:mixed;text-transform:none;white-space:normal"/>
  <rect id="rect834" x="12" y="25" width="2" height="17" fill="#fff" fill-rule="evenodd" style="paint-order:stroke fill markers"/>
  <rect id="rect836" x="16" y="25" width="2" height="17" fill="#fff" fill-rule="evenodd" style="paint-order:stroke fill markers"/>
  <rect id="rect834-7" x="30" y="25" width="2" height="17" fill="#fff" fill-rule="evenodd" style="paint-order:stroke fill markers"/>
  <rect id="rect836-9" x="34" y="25" width="2" height="17" fill="#fff" fill-rule="evenodd" style="paint-order:stroke fill markers"/>
  <path id="path856" d="m13.963 12.99a2.0002 2.0002 0 0 0-0.70508 3.8672l5.3555 2.1426-5.3555 2.1426a2.0002 2.0002 0 1 0 1.4844 3.7148l9.2578-3.7031 9.2578 3.7031a2.0002 2.0002 0 1 0 1.4844-3.7148l-5.3555-2.1426 5.3555-2.1426a2.0002 2.0002 0 0 0-0.76563-3.8672 2.0002 2.0002 0 0 0-0.71875 0.15234l-9.2578 3.7031-9.2578-3.7031a2.0002 2.0002 0 0 0-0.7793-0.15234z" color="#000000" color-rendering="auto" dominant-baseline="auto" fill="#ffcd4b" image-rendering="auto" shape-rendering="auto" solid-color="#000000" style="font-feature-settings:normal;font-variant-alternates:normal;font-variant-caps:normal;font-variant-ligatures:normal;font-variant-numeric:normal;font-variant-position:normal;isolation:auto;mix-blend-mode:normal;shape-padding:0;text-decoration-color:#000000;text-decoration-line:none;text-decoration-style:solid;text-indent:0;text-orientation:mixed;text-transform:none;white-space:normal"/>
 </g>
</svg>
