<?xml version="1.0" encoding="UTF-8"?>
<!-- Created with Inkscape (http://www.inkscape.org/) -->
<svg id="SVGRoot" width="48px" height="48px" version="1.1" viewBox="0 0 48 48" xml:space="preserve" xmlns="http://www.w3.org/2000/svg" xmlns:cc="http://creativecommons.org/ns#" xmlns:dc="http://purl.org/dc/elements/1.1/" xmlns:rdf="http://www.w3.org/1999/02/22-rdf-syntax-ns#"><defs><style>.cls-1{fill:none;stroke:#fff;stroke-linecap:round;stroke-linejoin:round;}</style><style>.cls-1{fill:none;stroke:#fff;stroke-linecap:round;stroke-linejoin:round;}</style><style>.cls-1{fill:none;stroke:#fff;stroke-linecap:round;stroke-linejoin:round;}</style><style>.cls-1{fill:none;stroke:#fff;stroke-linecap:round;stroke-linejoin:round;}</style><style>.cls-1{fill:none;stroke:#fff;stroke-linecap:round;stroke-linejoin:round;}</style><style>.cls-1{fill:none;stroke:#fff;stroke-linecap:round;stroke-linejoin:round;}</style><style>.a{fill:none;stroke:#b1b5bd;stroke-linecap:round;stroke-linejoin:round;isolation:isolate;opacity:0.63;}</style></defs><metadata><rdf:RDF><cc:Work rdf:about=""><dc:format>image/svg+xml</dc:format><dc:type rdf:resource="http://purl.org/dc/dcmitype/StillImage"/></cc:Work></rdf:RDF></metadata><rect x="4" y="4" width="40" height="40" ry="8" fill="#4e4e4e" fill-rule="evenodd" style="paint-order:stroke fill markers"/><path d="m9 8c-0.554 0-1 0.446-1 1v5c0 0.554 0.446 1 1 1h2v1h-3v2h4s1 0 1-1v-9zm1 2h1v3h-1z" opacity=".3" stroke-linecap="round" stroke-linejoin="round" stroke-width="2" style="paint-order:stroke fill markers"/><path d="m12 4c-4.432 0-8 3.568-8 8v24c0 4.432 3.568 8 8 8h24c4.432 0 8-3.568 8-8v-24c0-4.432-3.568-8-8-8zm0 1h24c3.878 0 7 3.122 7 7v24c0 3.878-3.122 7-7 7h-24c-3.878 0-7-3.122-7-7v-24c0-3.878 3.122-7 7-7z" fill-rule="evenodd" opacity=".4" style="paint-order:stroke fill markers"/><path d="m15 8v1h-1v2h1v4s0 1 1 1h3c1 0 1-1 1-1v-3h-2v2h-1v-3h3v-2h-3v-1z" opacity=".3" stroke-linecap="round" stroke-linejoin="round" stroke-width="2" style="paint-order:stroke fill markers"/><path d="m22 8h-1v2h3v1h-2s-1 0-1 1v3c0 1 1 1 1 1h4v-7s0-1-1-1zm1 5h1v1h-1z" opacity=".3" stroke-linecap="round" stroke-linejoin="round" stroke-width="2" style="paint-order:stroke fill markers"/><path d="m12 14v6h2v8h-2v6h24v-6h-2v-8h2v-6h-21.581zm7 6h2v8h-2zm8 0h2v8h-2z" fill="#fff" stroke-width=".93747"/><rect x="4" y="4" width="40" height="40" ry="8" fill="#4e4e4e" fill-rule="evenodd" style="paint-order:stroke fill markers"/><path d="m9 8c-0.554 0-1 0.446-1 1v5c0 0.554 0.446 1 1 1h2v1h-3v2h4s1 0 1-1v-9zm1 2h1v3h-1z" opacity=".3" stroke-linecap="round" stroke-linejoin="round" stroke-width="2" style="paint-order:stroke fill markers"/><path d="m12 4c-4.432 0-8 3.568-8 8v24c0 4.432 3.568 8 8 8h24c4.432 0 8-3.568 8-8v-24c0-4.432-3.568-8-8-8zm0 1h24c3.878 0 7 3.122 7 7v24c0 3.878-3.122 7-7 7h-24c-3.878 0-7-3.122-7-7v-24c0-3.878 3.122-7 7-7z" fill-rule="evenodd" opacity=".4" style="paint-order:stroke fill markers"/><path d="m15 8v1h-1v2h1v4s0 1 1 1h3c1 0 1-1 1-1v-3h-2v2h-1v-3h3v-2h-3v-1z" opacity=".3" stroke-linecap="round" stroke-linejoin="round" stroke-width="2" style="paint-order:stroke fill markers"/><style type="text/css">.st0{fill:#FFFFFF;}</style><style type="text/css">.st0{fill:#FFFFFF;}</style><style type="text/css">.st0{fill:#FFFFFF;}</style><style type="text/css">.st0{fill:#FFFFFF;}</style><path d="m22 8h-1v2h3v1h-2s-1 0-1 1v3c0 1 1 1 1 1h4v-7s0-1-1-1zm1 5h1v1h-1z" opacity=".3" stroke-linecap="round" stroke-linejoin="round" stroke-width="2" style="paint-order:stroke fill markers"/><style type="text/css">.st0{fill:#FFFFFF;}</style><style type="text/css">.st0{fill:#FFFFFF;}</style><style type="text/css">.st0{fill:#FFFFFF;}</style><style type="text/css">.st0{fill:#FFFFFF;}</style><style type="text/css">.st0{fill:#FFFFFF;}</style><g stroke-linecap="round" stroke-linejoin="bevel"><path d="m33.857 12.109c-0.25803 0.01848-0.50798 0.0885-0.74023 0.20312-0.14395 0.06046-8.3568 3.7603-15.973 13.307-0.54327-2.6849-1.1685-5.8378-1.1719-5.8555-0.1794-1.0777-1.223-1.8237-2.3008-1.6445-1.0777 0.1794-1.8237 1.223-1.6445 2.3008 0 0 0.99341 6.0049 2.0312 10.156 0.15624 0.62664 0.62973 1.0304 1.1582 1.2695-0.17072 0.02208-1.4766 0.16992-1.4766 0.16992-1.0835 0.1412-1.866 1.1585-1.7246 2.2422 0.14023 1.0838 1.1567 1.8668 2.2402 1.7266h0.001953c0.009701-0.0012 11.23-1.3612 17.914-1.7266 0.03366 0.26174-0.03112 0.53114 0.11133 0.76953h0.001953c0.56166 0.93649 1.8052 1.2482 2.7422 0.6875 0.0085-0.0049 0.90463-0.52403 1.6914-1.1953 0.191-0.16296 0.40431-0.35474 0.61133-0.60156 0.14245-0.16984 0.51103-0.63724 0.61914-1.2656 0.09374-0.54491-0.0493-0.94888-0.23438-1.3262-0.18508-0.37729-0.4168-0.73279-0.89453-0.99414-0.46089-0.25214-0.87698-0.26153-1.2227-0.27539 0.46222-0.85565 0.38333-1.933-0.39062-2.5723h-0.001953c-0.87859-0.72353-2.2068-0.59626-2.9316 0.28125l-0.070313 0.095703s-0.31242 0.49394-0.99219 1.0391c-0.69069 0.55388-1.6886 0.97656-2.002 0.97656-0.72397 0-1.2759-0.3916-1.7227-1.0977-0.20342-0.3215-0.33796-0.71494-0.39258-1.0449-0.042672-0.2578-0.004271-0.5011-0.007812-0.54102v-0.001953-0.001953h-0.001954-0.001953c1.3258-3.1657 2.6937-4.2751 3.5527-4.7227 0.08723-0.04544 0.11865-0.03186 0.19141-0.0625l0.30859 0.61719c0.50826 1.0196 1.7754 1.4435 2.7949 0.93555 1.0203-0.50857 1.445-1.777 0.93555-2.7969l-1-2c-0.29434-0.58765-0.85102-1.0038-1.498-1.1191l-0.021485-0.003907s-0.33039-0.050622-0.75586-0.044921c-0.13996 0.001799-0.29795 0.009303-0.46875 0.027343-0.02198 0.0023-0.059602 0.022761-0.082032 0.025391 2.1448-1.3235 3.7754-2.1152 3.7754-2.1152l0.080078-0.035157c0.97757-0.48865 1.3834-1.7061 0.89453-2.6836-0.36004-0.72102-1.1258-1.1581-1.9297-1.1016h-0.001953zm-9.0391 10.791c-0.54408 0.84919-1.1151 1.5522-1.5977 2.709-0.73956 1.7729-0.26156 3.6813 0.67774 5.2383-3.3106 0.35401-5.1093 0.56989-6.7559 0.77734 0.18202-0.13272 0.38906-0.22503 0.52148-0.42383 2.3514-3.527 4.7958-6.117 7.1543-8.3008z" fill="#f280a3" stop-color="#000000" style="paint-order:stroke fill markers"/><path d="m33.93 13.107c-0.13124 0.0094-0.25934 0.04455-0.37695 0.10352 0 0-9.1159 3.7845-16.992 14.59-0.75088-3.5202-1.5742-7.873-1.5742-7.873-0.09067-0.5447-0.60567-0.9128-1.1504-0.82226-0.5447 0.09067-0.9128 0.60567-0.82227 1.1504 0 0 0.9966 6.002 2.0156 10.078 0.21016 0.8429 1.3211 1.0355 1.8027 0.3125 7.8578-11.787 17.615-15.646 17.615-15.646 0.49409-0.24697 0.69435-0.84777 0.44726-1.3418-0.18066-0.36179-0.56145-0.57916-0.96484-0.55078zm-2.3262 5.8848c-0.11548 0.0015-0.24347 0.0074-0.37695 0.02148-0.53391 0.05642-1.2543 0.22464-2.0566 0.64258-1.6046 0.83587-3.4893 2.6554-5.0254 6.3379-0.60049 1.4395-0.21642 3.0889 0.66406 4.4805 0.26317 0.41593 0.585 0.81391 0.96094 1.166-5.9719 0.58773-11.898 1.3672-11.898 1.3672a1 1 0 0 0-0.86328 1.1211 1 1 0 0 0 1.1211 0.86328s12.818-1.5984 19.355-1.8477a1 1 0 0 0-0.3418 1.3691 1 1 0 0 0 1.3711 0.34375s0.86379-0.50651 1.5566-1.0977c0.17322-0.14779 0.33997-0.30055 0.49414-0.48438 0.15418-0.18382 0.32741-0.38016 0.39844-0.79297 0.07102-0.41281-0.25364-1.0714-0.62305-1.2734-0.3694-0.20208-0.66276-0.20898-0.99609-0.20898-0.52758 0-1.1191 0.01459-1.7617 0.04102 0.73866-0.66891 1.1348-1.2598 1.1348-1.2598 0.38031-0.46182 0.31476-1.1444-0.14648-1.5254-0.46182-0.38031-1.1444-0.31476-1.5254 0.14648 0 0-0.40763 0.63472-1.209 1.2773-0.80135 0.64262-1.8423 1.1973-2.627 1.1973-1.1136 0-1.9915-0.65074-2.5684-1.5625-0.57689-0.91176-0.68086-2.0387-0.49414-2.4863 1.3937-3.3411 2.9352-4.6801 4.0254-5.248 0.49788-0.25935 0.8803-0.33576 1.1719-0.375l0.68555 1.3711c0.26734 0.53631 0.91899 0.75411 1.4551 0.48633 0.53631-0.26734 0.75411-0.91899 0.48633-1.4551l-1-2c-0.15332-0.30615-0.44222-0.52192-0.7793-0.58203 0 0-0.24145-0.03784-0.58789-0.0332z" fill="#fff" stop-color="#000000" style="paint-order:stroke fill markers"/><path d="m35.547 30.338-0.05859 0.07813c0.0046-0.0056 0.0013-0.01387 0.0059-0.01953 0.0015-0.0023 0.05273-0.05859 0.05273-0.05859z" fill="#800000" stop-color="#000000" style="paint-order:stroke fill markers"/><path d="m34.08 14.07s-0.17242 0.08366-0.1875 0.08984c2.82e-4 -1.17e-4 0.04297-0.02539 0.04297-0.02539l0.064452-0.029294h2e-3z" fill="#800000" stop-color="#000000" style="paint-order:stroke fill markers"/></g><style type="text/css">.st0{fill:#FFFFFF;}</style><style type="text/css">.st0{fill:#FFFFFF;}</style><style type="text/css">.st0{fill:#FFFFFF;}</style><style type="text/css">.st0{fill:#FFFFFF;}</style></svg>
