<?xml version="1.0" encoding="UTF-8"?>
<!-- Created with Inkscape (http://www.inkscape.org/) -->
<svg id="SVGRoot" width="48px" height="48px" version="1.1" viewBox="0 0 48 48" xml:space="preserve" xmlns="http://www.w3.org/2000/svg" xmlns:cc="http://creativecommons.org/ns#" xmlns:dc="http://purl.org/dc/elements/1.1/" xmlns:rdf="http://www.w3.org/1999/02/22-rdf-syntax-ns#"><defs><style>.cls-1{fill:none;stroke:#fff;stroke-linecap:round;stroke-linejoin:round;}</style><style>.cls-1{fill:none;stroke:#fff;stroke-linecap:round;stroke-linejoin:round;}</style><style>.cls-1{fill:none;stroke:#fff;stroke-linecap:round;stroke-linejoin:round;}</style><style>.cls-1{fill:none;stroke:#fff;stroke-linecap:round;stroke-linejoin:round;}</style><style>.cls-1{fill:none;stroke:#fff;stroke-linecap:round;stroke-linejoin:round;}</style></defs><metadata><rdf:RDF><cc:Work rdf:about=""><dc:format>image/svg+xml</dc:format><dc:type rdf:resource="http://purl.org/dc/dcmitype/StillImage"/></cc:Work></rdf:RDF></metadata><rect x="4" y="4" width="40" height="40" ry="8" fill="#a57e62" fill-rule="evenodd" style="paint-order:stroke fill markers"/><path d="m17 5v38h1v-38h-1zm7 0v38h1v-38h-1zm7 0v38h1v-38h-1zm-20 0.070312c-0.34205 0.048521-0.676 0.12101-1 0.2168v37.426c0.324 0.095784 0.65795 0.16828 1 0.2168v-37.859zm27 0.2168v37.426c0.34536-0.1021 0.67944-0.2313 1-0.38281v-36.66c-0.32056-0.15151-0.65464-0.28071-1-0.38281z" opacity=".3" style="paint-order:stroke fill markers"/><path d="m16 44s-2-3-2.0919-19c-0.05745-9.9998 11.427-15.544 15-10.477 2.034 2.8842 1.2845 12.353 1.2845 16.353 4e-6 6.7412 2.8075 13.124 2.8075 13.124z" fill="#f8d271" stroke-linecap="round" stroke-linejoin="round" stroke-width="2" style="paint-order:stroke fill markers"/><path d="m25 14 4-6 3 2-5 5z" fill="#f8d271" stroke-linecap="round" stroke-linejoin="round" stroke-width="2" style="paint-order:stroke fill markers"/><g fill="#4e4e4e" stroke-linecap="round" stroke-linejoin="round"><rect x="16" y="26" width="3" height="3" ry="1.5" stroke-width="2" style="paint-order:stroke fill markers"/><rect x="26" y="26" width="3" height="3" ry="1.5" stroke-width="2" style="paint-order:stroke fill markers"/><path d="m28.508 30.006a0.5 0.5 0 0 0-0.38281 0.0039s-2.1082 0.91406-5.7656 0.91406c-3.668 0-5.7852-0.80273-5.7852-0.80273a0.5 0.5 0 0 0-0.64453 0.29102 0.5 0.5 0 0 0 0.29102 0.64453s2.3219 0.86719 6.1387 0.86719c3.8274 0 6.1602-0.99414 6.1602-0.99414a0.5 0.5 0 0 0 0.26367-0.6582 0.5 0.5 0 0 0-0.27539-0.26562z" stop-color="#000000" style="paint-order:stroke fill markers"/></g><path d="m12 4c-4.432 0-8 3.568-8 8v24c0 4.432 3.568 8 8 8h24c4.432 0 8-3.568 8-8v-24c0-4.432-3.568-8-8-8zm0 1h24c3.878 0 7 3.122 7 7v24c0 3.878-3.122 7-7 7h-24c-3.878 0-7-3.122-7-7v-24c0-3.878 3.122-7 7-7z" fill-rule="evenodd" opacity=".3" style="paint-order:stroke fill markers"/></svg>
