<?xml version="1.0" encoding="UTF-8"?>
<!-- Created with Inkscape (http://www.inkscape.org/) -->
<svg id="SVGRoot" width="48px" height="48px" version="1.1" viewBox="0 0 48 48" xml:space="preserve" xmlns="http://www.w3.org/2000/svg" xmlns:cc="http://creativecommons.org/ns#" xmlns:dc="http://purl.org/dc/elements/1.1/" xmlns:rdf="http://www.w3.org/1999/02/22-rdf-syntax-ns#"><defs><style>.cls-1{fill:none;stroke:#fff;stroke-linecap:round;stroke-linejoin:round;}</style><style>.cls-1{fill:none;stroke:#fff;stroke-linecap:round;stroke-linejoin:round;}</style><style>.cls-1{fill:none;stroke:#fff;stroke-linecap:round;stroke-linejoin:round;}</style><style>.cls-1{fill:none;stroke:#fff;stroke-linecap:round;stroke-linejoin:round;}</style><style>.cls-1{fill:none;stroke:#fff;stroke-linecap:round;stroke-linejoin:round;}</style><style>.a{fill:none;stroke:#b1b5bd;stroke-linecap:round;stroke-linejoin:round;isolation:isolate;opacity:0.63;}</style><style>.cls-1{fill:none;stroke:#fff;stroke-linecap:round;stroke-linejoin:round;}</style><style>.cls-1{fill:none;stroke:#fff;stroke-linecap:round;stroke-linejoin:round;}</style><style>.cls-1{fill:none;stroke:#fff;stroke-linecap:round;stroke-linejoin:round;}</style><style>.cls-1{fill:none;stroke:#fff;stroke-linecap:round;stroke-linejoin:round;}</style><style>.cls-1{fill:none;stroke:#fff;stroke-linecap:round;stroke-linejoin:round;}</style><style>.cls-1{fill:none;stroke:#fff;stroke-linecap:round;stroke-linejoin:round;}</style></defs><metadata><rdf:RDF><cc:Work rdf:about=""><dc:format>image/svg+xml</dc:format><dc:type rdf:resource="http://purl.org/dc/dcmitype/StillImage"/></cc:Work></rdf:RDF></metadata><rect x="4" y="4" width="40" height="40" ry="8" fill="#1b6075" fill-rule="evenodd" style="paint-order:stroke fill markers"/><path d="m12 4c-4.432 0-8 3.568-8 8v24c0 4.432 3.568 8 8 8h24c4.432 0 8-3.568 8-8v-24c0-4.432-3.568-8-8-8zm0 1h24c3.878 0 7 3.122 7 7v24c0 3.878-3.122 7-7 7h-24c-3.878 0-7-3.122-7-7v-24c0-3.878 3.122-7 7-7z" fill-rule="evenodd" opacity=".3" style="paint-order:stroke fill markers"/><path d="m15 14h8l12 20h-9z" fill="#efefef" stroke-linecap="round" stroke-linejoin="round" stroke-width="2"/><path d="m37 14h-8l-19 20h9z" fill="#efefef" stroke-linecap="round" stroke-linejoin="round" stroke-width="2"/><path d="m18.381 16 4.209 7.6523-7.9316 8.3477h3.4512l5.6328-6.2578 3.4414 6.2578h4.2832l-5.3438-8.9043 6.3867-7.0957h-2.6504l-4.8984 5.1562-3.0938-5.1562z" fill="#80702f"/><rect x="28" y="28" width="12" height="12" ry="6" fill="#efefef"/><rect x="30" y="30" width="8" height="8" ry="4" fill="#80702f"/><path d="m36.307 35.756h-0.72269v1.2437h-1.2353v-1.2437h-2.563v-0.88235l2.6303-3.874h1.1681v3.7731h0.72269zm-1.958-2q0-0.19328 0.0084-0.47059t0.01681-0.5126q0.01681-0.2437 0.02521-0.31933h-0.03361q-0.07563 0.16807-0.15966 0.32773-0.08403 0.15966-0.20168 0.32773l-1.1008 1.6639h1.4454z" fill="#efefef" stroke-linecap="round" stroke-width="2.8011" aria-label="4"/></svg>
