<?xml version="1.0" encoding="UTF-8"?>
<!-- Created with Inkscape (http://www.inkscape.org/) -->
<svg id="SVGRoot" width="48px" height="48px" version="1.1" viewBox="0 0 48 48" xmlns="http://www.w3.org/2000/svg" xmlns:cc="http://creativecommons.org/ns#" xmlns:dc="http://purl.org/dc/elements/1.1/" xmlns:rdf="http://www.w3.org/1999/02/22-rdf-syntax-ns#" xmlns:xlink="http://www.w3.org/1999/xlink">
 <defs id="defs815">
  <style id="style819">.cls-1{fill:none;stroke:#fff;stroke-linecap:round;stroke-linejoin:round;}</style>
  <style id="style2">.a{fill:none;stroke:#b1b5bd;stroke-linecap:round;stroke-linejoin:round;isolation:isolate;opacity:0.63;}</style>
 </defs>
 <metadata id="metadata818">
  <rdf:RDF>
   <cc:Work rdf:about="">
    <dc:format>image/svg+xml</dc:format>
    <dc:type rdf:resource="http://purl.org/dc/dcmitype/StillImage"/>
    <dc:title/>
   </cc:Work>
  </rdf:RDF>
 </metadata>
 <g id="layer1">
  <rect id="rect1373-5" x="4" y="4" width="40" height="40" ry="8" fill="#729dec" fill-rule="evenodd" style="paint-order:stroke fill markers"/>
  <path id="rect817" d="m12 4c-4.432 0-8 3.568-8 8v24c0 4.432 3.568 8 8 8h24c4.432 0 8-3.568 8-8v-24c0-4.432-3.568-8-8-8h-24zm0 1h24c3.878 0 7 3.122 7 7v24c0 3.878-3.122 7-7 7h-24c-3.878 0-7-3.122-7-7v-24c0-3.878 3.122-7 7-7z" fill-rule="evenodd" opacity=".3" style="paint-order:stroke fill markers"/>
  <path id="rect975" d="m12 6c-3.324 0-6 2.676-6 6h6v-6zm0 6v8h8v-8h-8zm8 0h8v-6h-8v6zm8 0v8h8v-8h-8zm8 0h6c0-3.324-2.676-6-6-6v6zm0 8v8h6v-8h-6zm0 8h-8v8h8v-8zm0 8v6c3.324 0 6-2.676 6-6h-6zm-8 0h-8v6h8v-6zm-8 0v-8h-8v8h8zm-8 0h-6c0 3.324 2.676 6 6 6v-6zm0-8v-8h-6v8h6zm8 0h8v-8h-8v8z" fill-rule="evenodd" opacity=".15" style="paint-order:normal"/>
  <rect id="rect840" x="12" y="14" width="24" height="4" ry="1" fill="#d35244" fill-rule="evenodd" style="paint-order:normal"/>
  <rect id="rect836" x="18" y="10" width="12" height="20" ry="6" fill="#4e4e4e" fill-rule="evenodd" style="paint-order:normal"/>
  <rect id="rect842" x="14" y="18" width="2" height="8" fill="#d35244" fill-rule="evenodd" style="paint-order:normal"/>
  <rect id="rect844" x="32" y="18" width="2" height="8" fill="#d35244" fill-rule="evenodd" style="paint-order:normal"/>
  <path id="path838-2" d="m18 18c0 3-4 3-4 8 0 2.6874 1 8 1 8h18s1-5.3126 1-8c0-5-4-5-4-8 0-4-12-4-12 0z" fill="#4e4e4e"/>
  <rect id="rect820" x="32" y="26" width="6" height="10" ry="2" fill="#4e4e4e" fill-rule="evenodd" style="paint-order:normal"/>
  <path id="path855" d="m24 19c-3.7712 0-8 4.2288-8 8v5h16v-5c0-3.7712-4.2288-8-8-8z" fill="#fff"/>
  <path id="path880" d="m22 17c0 2-2 3.5-2 3.5h8s-2-1.5-2-3.5c-1.1603-0.65693-2.8397-0.65693-4 0z" fill="#fff"/>
  <rect id="rect818" x="10" y="26" width="6" height="10" ry="2" fill="#4e4e4e" fill-rule="evenodd" style="paint-order:normal"/>
  <path id="path857" d="m17.147 32.981c-3.5774 1.1924-7.1547-7.1547-5.9622-8.3472 0.56213-0.56213 1.74 0.46482 2.3849 0 1.0197-0.73495-0.03089-3.2886 1.1924-3.5774 1.0942-0.2583 1.2606 2.3849 2.3849 2.3849s1.2606-2.3849 2.3849-2.3849c1.1924 0 2.2794 10.37-2.3849 11.925z" fill="#f9de81"/>
  <path id="path857-2" d="m30.798 32.981c3.5774 1.1924 7.1547-7.1547 5.9622-8.3472-0.56213-0.56213-1.74 0.46482-2.3849 0-1.0197-0.73495 0.03089-3.2886-1.1924-3.5774-1.0942-0.2583-1.2606 2.3849-2.3849 2.3849s-1.2606-2.3849-2.3849-2.3849c-1.1924 0-2.2794 10.37 2.3849 11.925z" fill="#f9de81"/>
  <rect id="rect882" x="19" y="21" width="10" height="10" ry="5" fill-rule="evenodd" opacity=".4" style="paint-order:normal"/>
  <rect id="rect827" x="20" y="22" width="8" height="8" ry="4" fill="#fff" fill-rule="evenodd" style="paint-order:normal"/>
  <rect id="rect834" x="22" y="24" width="4" height="4" ry="2" fill="#b7bfc2" fill-rule="evenodd" style="paint-order:normal"/>
  <path id="rect829" d="m24 25c-0.554 0-1 0.446-1 1v7h2v-7c0-0.554-0.446-1-1-1z" fill="#707070" fill-rule="evenodd" style="paint-order:normal"/>
  <rect id="rect823" x="12" y="32" width="24" height="4" ry="2" fill="#d35244" fill-rule="evenodd" style="paint-order:normal"/>
  <rect id="rect825" x="12" y="34" width="24" height="2" fill="#fff" fill-rule="evenodd" style="paint-order:normal"/>
  <rect id="rect848" x="32" y="14" width="2" height="4" fill="#fff" fill-rule="evenodd" style="paint-order:normal"/>
  <rect id="rect850" x="14" y="14" width="2" height="4" fill="#fff" fill-rule="evenodd" style="paint-order:normal"/>
  <rect id="rect876" x="21" y="13" width="3" height="4" ry="1.5" fill="#fff" fill-rule="evenodd" style="paint-order:normal"/>
  <rect id="rect878" x="24" y="13" width="3" height="4" ry="1.5" fill="#fff" fill-rule="evenodd" style="paint-order:normal"/>
  <path id="path874" d="m22 17 2-1.5 2 1.5-2 2z" fill="#f9de81"/>
  <rect id="rect971" x="22" y="14" width="1" height="2" ry=".5" fill="#4e4e4e" fill-rule="evenodd" style="paint-order:normal"/>
  <rect id="rect973" x="25" y="14" width="1" height="2" ry=".5" fill="#4e4e4e" fill-rule="evenodd" style="paint-order:normal"/>
 </g>
</svg>
