<?xml version="1.0" encoding="UTF-8"?>
<!-- Created with Inkscape (http://www.inkscape.org/) -->
<svg id="SVGRoot" width="48px" height="48px" version="1.1" viewBox="0 0 48 48" xmlns="http://www.w3.org/2000/svg" xmlns:cc="http://creativecommons.org/ns#" xmlns:dc="http://purl.org/dc/elements/1.1/" xmlns:rdf="http://www.w3.org/1999/02/22-rdf-syntax-ns#" xmlns:xlink="http://www.w3.org/1999/xlink">
 <defs id="defs815">
  <style id="style819">.cls-1{fill:none;stroke:#fff;stroke-linecap:round;stroke-linejoin:round;}</style>
  <style id="style2">.a{fill:none;stroke:#b1b5bd;stroke-linecap:round;stroke-linejoin:round;isolation:isolate;opacity:0.63;}</style>
 </defs>
 <metadata id="metadata818">
  <rdf:RDF>
   <cc:Work rdf:about="">
    <dc:format>image/svg+xml</dc:format>
    <dc:type rdf:resource="http://purl.org/dc/dcmitype/StillImage"/>
    <dc:title/>
   </cc:Work>
  </rdf:RDF>
 </metadata>
 <g id="layer1">
  <rect id="rect1373-5" x="4" y="4" width="40" height="40" ry="8" fill="#609ecc" fill-rule="evenodd" style="paint-order:stroke fill markers"/>
  <path id="rect817" d="m12 4c-4.432 0-8 3.568-8 8v24c0 4.432 3.568 8 8 8h24c4.432 0 8-3.568 8-8v-24c0-4.432-3.568-8-8-8h-24zm0 1h24c3.878 0 7 3.122 7 7v24c0 3.878-3.122 7-7 7h-24c-3.878 0-7-3.122-7-7v-24c0-3.878 3.122-7 7-7z" fill-rule="evenodd" opacity=".3" style="paint-order:stroke fill markers"/>
  <path id="path828" d="m31.173 17.19c0.31713-4.6729-3.7469-7.3476-7.1578-7.3135-3.8833 0.03892-6.2428 2.4235-7.0222 4.3063-0.77946 1.8828 0.02109 3.2638-0.44683 3.9927-4.6338 7.2183-4.9673 10.319-4.9673 10.319s-0.74886 0.35619-0.96087 0.67483c-0.38417 0.5774-0.08857 1.1562 0.11893 1.818 0.23422 0.74696 1.193 2.0229 1.193 2.0229s-1.062 1.6921-1.0892 2.6453c-0.02533 0.88795 3.1121 0.67429 3.1121 0.67429s0.52558 0.88193 0.88176 1.2448c0.38212 0.38934 0.9855 0.46682 0.9855 0.46682h6.0686s1.0138-0.12316 1.2448-0.9855c0.10898-0.4067-0.03928-0.93363-0.03928-0.93363h5.2261s1.1847 1.8159 2.1266 1.8673c1.8344 0.10012 2.6244-1.3536 4.4088-2.9046 2.4107-2.0954 3.0978-2.2691 5.135-4.357 0.55935-0.57326 1.2629-1.2147 0.57055-2.3341-0.16395-0.26509-0.88176-0.31121-0.88176-0.31121s0.02244-0.93895-0.67429-1.4523c-0.63763-0.46982-1.2448-0.1556-1.2448-0.1556s-0.51437-1.76-1.9191-1.8673c-1.0585-0.08083-1.6598 0.9855-1.6598 0.9855l-3.2677-5.3943s3.2844-0.4424 3.3714-1.4004c0.07251-0.79793-3.1121-1.6079-3.1121-1.6079z" fill="#2f2f2f"/>
  <path id="path830" d="m11.813 35.072c-0.23606 0.38092 0.23341 0.37605 0.23341 0.37605l1.2189 0.0389-0.8688-1.2837s-0.39976 0.57227-0.58352 0.8688z" fill="#4e4e4e"/>
  <path id="path832" d="m11.168 30.01c-0.09402-0.34866 0.76784-0.94179 0.89858-0.60516 0.41299 1.0634 0.74727 2.023 1.4671 2.7874 1.558 1.6546 3.6479 2.7803 4.2178 4.0711 0.19012 0.43062-0.2995 0.85824-1.1186 0.8619-0.96092 0.0043-1.5234-0.56736-2.3106-1.7238-1.1717-1.7212-2.5722-3.2332-3.1542-5.3915z" fill="#ffdd75"/>
  <path id="path834" d="m18.613 35.548s-0.05335 0.73251 0.03668 1.082c0.10852 0.42122 0.44149 0.53984 0.75187 0.55015 0.75835 0.0252 0.95035-0.26913 0.97193-0.66018 0.02126-0.38529-0.04211-0.66676-0.88024-0.75187-0.3009-0.03055-0.88024-0.22006-0.88024-0.22006z" fill="#ffdd75"/>
  <path id="path836" d="m21.254 35.97s0.51534-0.04987 0.77021-0.01834c0.34127 0.04221 0.52942 0.29981 0.51347 0.55015-0.02373 0.37257-0.15896 0.72776-0.69686 0.71519-0.64256-0.01502-0.58682-1.247-0.58682-1.247z" fill="#ffdd75"/>
  <path id="path838" d="m29.565 36.018s2.2375-0.50809 4.0198-2.6453c2.2617-2.7121 1.0892-6.5354 1.0892-6.5354s0.4186-1.4891 1.2189-1.4004c0.80042 0.08868 0.9855 1.6857 0.9855 1.6857s1.2051-0.22186 1.6857 0.41495c0.43267 0.57326 0.18154 1.3745 0.18154 1.3745s0.60691-0.34062 0.9077 0.23341c0.29864 0.56993-0.53022 1.2051-0.9855 1.6598-1.8354 1.833-3.0857 2.2246-4.5385 3.4493-0.94933 0.80026-1.5605 2.1056-2.7231 2.5416-1.2785 0.47947-1.8413-0.77803-1.8413-0.77803z" fill="#ffdd75"/>
  <path id="path840" d="m25.052 35.344s-2.2778-1.6519-2.1525-4.2791c-4.5625-0.6647-6.0427-5.0831-6.0427-5.0831s-0.38236-0.8646-0.0778-0.93363c0.17575-0.03983 0.72616 0.80396 0.72616 0.80396s1.4778 2.977 3.164 3.7605c1.9414 0.90205 5.9197 0.36869 6.1983-1.3226 0.07705-0.46778-1.3561-1.2122-3.942-2.5675-0.79077-0.41445-2.3081-2.1266-2.3081-2.1266s-0.27887-0.44495-0.12967-0.57055c0.17195-0.14475 0.62242 0.25934 0.62242 0.25934l2.0488 1.7635s0.88961-2.4015 3.0084-3.5011c1.6813-0.87255 3.7864-0.38901 3.7864-0.38901l-0.38901-0.88176s-0.83006 0.23664-1.5042 0.12967c-2.699-0.42826-2.6712-2.4119-2.6712-2.4119s-1.2403 0.23183-1.9969-0.05187c-0.84958-0.31853-1.519-1.4345-1.4004-2.3341 0.13982-1.0607 0.95534-2.1852 2.3081-2.2303 1.9871-0.06624 2.3859 1.4264 2.3859 1.4264l0.15561 1.8413 1.4264 0.05187s-0.22407-1.3199-0.05187-2.1785c0.12452-0.6208 1.0374-0.80396 1.0374-0.80396s-1.1941-2.8278-5.2646-2.8528c-4.5881-0.02814-6.1431 2.942-6.328 5.0831-0.09167 1.0616 0.23668 2.2213-0.20747 3.1899-0.64424 1.4049-4.6188 5.788-4.6422 9.2326-0.02547 3.7404 3.5445 6.0537 5.4981 6.4576 0.78912 0.16318 1.321-0.40665 2.386-0.38901 1.4833 0.02456 1.2488 0.91709 4.3569 0.9077z" fill="#4e4e4e"/>
  <path id="path842" d="m23.986 25.297c0.27387-1.9813 2.8048-3.5597 4.8046-3.5943 2.3261-0.0402 5.1663 2.9679 5.3181 7.482 0.09282 2.7604-2.612 5.9802-6.3084 6.015-2.2985 0.0216-3.7907-1.7109-4.2545-3.4843-0.0764-0.29212 0.03588-0.77562 0.33009-0.84356 0.64427-0.14878 3.844-0.55664 3.9611-2.1272 0.18262-2.4499-3.9267-2.9-3.851-3.4476z" fill="#fff"/>
  <path id="path844" d="m24.871 17.735s-0.95242-0.39568-0.79099-1.4134c0.18615-1.1736 0.93363-1.167 0.93363-1.167s0.31802 0.86493 0.68726 0.8688c0.55684 0.0058 0.69414-0.36336 0.68726-0.68726-0.02088-0.98238-1.0903-1.3689-1.8543-1.3486-1.6595 0.04403-2.0784 1.025-2.0099 2.0747 0.04603 0.70498 0.34082 1.3953 0.92066 1.6079 0.78228 0.2869 1.4264 0.06484 1.4264 0.06484z" fill="#fff"/>
  <path id="path846" d="m28.589 15.321s0.36278-0.36163 0.58682-0.2659c0 0-0.18002 0.57299 0.29341 0.89858 0.30104 0.20703 0.66935-0.07335 0.66935-0.07335 0.13794 0.20819 0.14671 0.60516 0.14671 0.60516s0.34868-1.0182-0.17421-1.6504c-0.29688-0.35896-0.90026-0.71748-1.4029-0.22923-0.18763 0.18227-0.1192 0.71519-0.1192 0.71519z" fill="#fff"/>
  <path id="path848" d="m33.325 18.876c-0.02758-0.4682-0.89473-0.64836-0.89473-0.64836s-3.1784-1.0848-4.733-1.0763c-0.72446 4e-3 -1.7094 0.59833-1.7246 1.3226-0.01584 0.7547 1.3069 1.4335 1.7376 1.4523 2.1092 0.0922 3.3844-0.46682 3.3844-0.46682s-1.9376 0.02574-2.8917-0.12967c-0.7817-0.12733-1.5042-0.55759-1.5042-0.55759l0.22044-0.0778s0.37534 0.2968 1.6987 0.49275c1.347 0.19944 4.0846-0.05187 4.0846-0.05187s0.63711-0.0099 0.62242-0.25934z" fill="#ffdd75"/>
 </g>
</svg>
