<?xml version="1.0" encoding="UTF-8"?>
<!-- Created with Inkscape (http://www.inkscape.org/) -->
<svg id="SVGRoot" width="48px" height="48px" version="1.1" viewBox="0 0 48 48" xmlns="http://www.w3.org/2000/svg" xmlns:cc="http://creativecommons.org/ns#" xmlns:dc="http://purl.org/dc/elements/1.1/" xmlns:rdf="http://www.w3.org/1999/02/22-rdf-syntax-ns#" xmlns:xlink="http://www.w3.org/1999/xlink">
 <defs id="defs815">
  <style id="style819">.cls-1{fill:none;stroke:#fff;stroke-linecap:round;stroke-linejoin:round;}</style>
 </defs>
 <metadata id="metadata818">
  <rdf:RDF>
   <cc:Work rdf:about="">
    <dc:format>image/svg+xml</dc:format>
    <dc:type rdf:resource="http://purl.org/dc/dcmitype/StillImage"/>
    <dc:title/>
   </cc:Work>
  </rdf:RDF>
 </metadata>
 <g id="layer1">
  <rect id="rect1373" x="4" y="4" width="40" height="40" ry="8" fill="#4e4e4e" fill-rule="evenodd" style="paint-order:stroke fill markers"/>
  <path id="rect817" d="m12 4c-4.432 0-8 3.568-8 8v24c0 4.432 3.568 8 8 8h24c4.432 0 8-3.568 8-8v-24c0-4.432-3.568-8-8-8h-24zm0 1h24c3.878 0 7 3.122 7 7v24c0 3.878-3.122 7-7 7h-24c-3.878 0-7-3.122-7-7v-24c0-3.878 3.122-7 7-7z" fill-rule="evenodd" opacity=".4" style="paint-order:stroke fill markers"/>
  <path id="path828-5" d="m17 10c-5 0-5 3-5 3v6h6v-1l-2-3h1s0-1 2-1h4l-3-4zm4 0 3 4h4c2 0 2 1 2 1v2s1-1 3-1 3 1 3 1v-5s0-2-5-2h-10zm12 2c0.554 0 1 0.446 1 1s-0.446 1-1 1-1-0.446-1-1 0.446-1 1-1zm-21 8v4s0 2 4 2h13c1 0 1 1 1 1v6s0 1-1 1h-10c-1 0-1-1-1-1v-2h-6v3s0 4 5 4h16c3 0 3-4 3-4v-9s0-3-3-3h-3l-1 1-1-1h-8l-2-2h-5zm3 2c0.554 0 1 0.446 1 1s-0.446 1-1 1-1-0.446-1-1 0.446-1 1-1zm18 12c0.554 0 1 0.446 1 1s-0.446 1-1 1-1-0.446-1-1 0.446-1 1-1z" fill="#9aa7ab"/>
  <path id="path870" d="m36 26s-2 2-2 3c0 2 2 3 2 3z" opacity=".25"/>
  <path id="path872" d="m21 10 0.17578 0.23438 3.8242 0.76562-2.5996 0.86719 1.5996 2.1328h3l1-2 1 2 0.39648 0.26562c0.14643 0.073641 0.27083 0.15169 0.35352 0.23438l2.25 1.5 0.18945 0.0625c0.25081-0.036874 0.51651-0.0625 0.81055-0.0625 2 0 3 1 3 1v-5s0-2-5-2h-1.4004l-1.5996 1-0.5-1zm12 2c0.554 0 1 0.446 1 1s-0.446 1-1 1-1-0.446-1-1 0.446-1 1-1zm-7 10-12.125 3.7305c0.54194 0.15858 1.2195 0.26953 2.125 0.26953h13c1 0 1 1 1 1v6s-0.0068 0.60063-0.47852 0.86914l6.4785-1.6191v-7.25s0-3-3-3h-3l-1 1-1-1zm-14 9v3s5e-3 2.5851 2.6074 3.5977l14.393-3.5977h-10c-1 0-1-1-1-1l-4 1 4-2v-1zm24 2.7207-2.3184 0.55469c0.19379 0.18216 0.31836 0.43643 0.31836 0.72461 0 0.554-0.446 1-1 1s-1-0.446-1-1c0-0.11906 0.02857-0.23021 0.06641-0.33594l-13.9 3.3359h8.834l8.7383-2.3828c0.24665-0.85488 0.26172-1.6172 0.26172-1.6172zm-9 4.2793h6c1.3444 0 2.0671-0.8087 2.4766-1.6953z" fill="#c0563c"/>
 </g>
</svg>
