<?xml version="1.0" encoding="UTF-8"?>
<!-- Created with Inkscape (http://www.inkscape.org/) -->
<svg id="SVGRoot" width="48px" height="48px" version="1.1" viewBox="0 0 48 48" xmlns="http://www.w3.org/2000/svg" xmlns:cc="http://creativecommons.org/ns#" xmlns:dc="http://purl.org/dc/elements/1.1/" xmlns:rdf="http://www.w3.org/1999/02/22-rdf-syntax-ns#" xmlns:xlink="http://www.w3.org/1999/xlink">
 <defs id="defs815">
  <style id="style819">.cls-1{fill:none;stroke:#fff;stroke-linecap:round;stroke-linejoin:round;}</style>
  <style id="style2">.a{fill:none;stroke:#b1b5bd;stroke-linecap:round;stroke-linejoin:round;isolation:isolate;opacity:0.63;}</style>
 </defs>
 <metadata id="metadata818">
  <rdf:RDF>
   <cc:Work rdf:about="">
    <dc:format>image/svg+xml</dc:format>
    <dc:type rdf:resource="http://purl.org/dc/dcmitype/StillImage"/>
    <dc:title/>
   </cc:Work>
  </rdf:RDF>
 </metadata>
 <g id="layer1" fill-rule="evenodd">
  <rect id="rect1373-5" x="4" y="4" width="40" height="40" ry="8" fill="#f6a559" style="paint-order:stroke fill markers"/>
  <path id="rect817" d="m12 4c-4.432 0-8 3.568-8 8v24c0 4.432 3.568 8 8 8h24c4.432 0 8-3.568 8-8v-24c0-4.432-3.568-8-8-8h-24zm0 1h24c3.878 0 7 3.122 7 7v24c0 3.878-3.122 7-7 7h-24c-3.878 0-7-3.122-7-7v-24c0-3.878 3.122-7 7-7z" opacity=".3" style="paint-order:stroke fill markers"/>
  <path id="rect818" d="m25.651 10.112c-6.1613-0.74597-12.069 2.6646-14.503 8.3734l7.9104 2.1196c1.0221-1.4931 2.6691-2.444 4.4732-2.5826zm3.8637 1.0353-2.1196 7.9104c1.4931 1.0221 2.444 2.6691 2.5826 4.4732l7.9104 2.1196c0.74597-6.1613-2.6646-12.069-8.3734-14.503zm-19.402 11.202c-0.74597 6.1613 2.6646 12.069 8.3734 14.503l2.1196-7.9104c-1.4931-1.0221-2.444-2.6691-2.5826-4.4732zm18.83 5.0455c-1.0221 1.4931-2.6691 2.444-4.4732 2.5826l-2.1196 7.9104c6.1613 0.74597 12.069-2.6646 14.503-8.3734z" fill="#fff" style="paint-order:stroke fill markers"/>
 </g>
</svg>
