<?xml version="1.0" encoding="UTF-8"?>
<!-- Created with Inkscape (http://www.inkscape.org/) -->
<svg id="SVGRoot" width="48px" height="48px" version="1.1" viewBox="0 0 48 48" xmlns="http://www.w3.org/2000/svg" xmlns:cc="http://creativecommons.org/ns#" xmlns:dc="http://purl.org/dc/elements/1.1/" xmlns:rdf="http://www.w3.org/1999/02/22-rdf-syntax-ns#">
 <defs id="defs815">
  <style id="style819">.cls-1{fill:none;stroke:#fff;stroke-linecap:round;stroke-linejoin:round;}</style>
 </defs>
 <metadata id="metadata818">
  <rdf:RDF>
   <cc:Work rdf:about="">
    <dc:format>image/svg+xml</dc:format>
    <dc:type rdf:resource="http://purl.org/dc/dcmitype/StillImage"/>
    <dc:title/>
   </cc:Work>
  </rdf:RDF>
 </metadata>
 <g id="layer1">
  <rect id="rect1373-5" x="4" y="4" width="40" height="40" ry="8" fill="#f97263" fill-rule="evenodd" style="paint-order:stroke fill markers"/>
  <path id="rect817" d="m12 4c-4.432 0-8 3.568-8 8v24c0 4.432 3.568 8 8 8h24c4.432 0 8-3.568 8-8v-24c0-4.432-3.568-8-8-8h-24zm0 1h24c3.878 0 7 3.122 7 7v24c0 3.878-3.122 7-7 7h-24c-3.878 0-7-3.122-7-7v-24c0-3.878 3.122-7 7-7z" fill-rule="evenodd" opacity=".3" style="paint-order:stroke fill markers"/>
  <path id="path817" d="m12 10s0 8 2.7533 8h2.2467s-1 4.643-1 7c0 3 3.8634 5.2201 3.8634 5.2201l2.1366-12.22 6.89 0.01331c0-3e-6 2.11-1.0133 2.11-2.0133-11-1-19-6-19-6z" fill="#fff"/>
  <rect id="rect819-5" x="18" y="20" width="20" height="20" ry="10" fill="#f97263" fill-rule="evenodd" style="paint-order:normal"/>
  <rect id="rect819" x="20" y="22" width="16" height="16" ry="8" fill="#4e4e4e" fill-rule="evenodd" style="paint-order:normal"/>
  <rect id="rect836" x="24" y="26" width="8" height="8" ry="4" fill="#f97263" fill-rule="evenodd" style="paint-order:normal"/>
  <rect id="rect838" x="26" y="28" width="4" height="4" ry="2" fill="#fff" fill-rule="evenodd" style="paint-order:normal"/>
  <rect id="rect840" x="25" y="30" width="3" height="2" fill="#f97263" fill-rule="evenodd" style="paint-order:normal"/>
 </g>
</svg>
