<?xml version="1.0" encoding="UTF-8"?>
<!-- Created with Inkscape (http://www.inkscape.org/) -->
<svg id="SVGRoot" width="48px" height="48px" version="1.1" viewBox="0 0 48 48" xmlns="http://www.w3.org/2000/svg" xmlns:cc="http://creativecommons.org/ns#" xmlns:dc="http://purl.org/dc/elements/1.1/" xmlns:rdf="http://www.w3.org/1999/02/22-rdf-syntax-ns#">
 <defs id="defs815">
  <style id="style819">.cls-1{fill:none;stroke:#fff;stroke-linecap:round;stroke-linejoin:round;}</style>
 </defs>
 <metadata id="metadata818">
  <rdf:RDF>
   <cc:Work rdf:about="">
    <dc:format>image/svg+xml</dc:format>
    <dc:type rdf:resource="http://purl.org/dc/dcmitype/StillImage"/>
    <dc:title/>
   </cc:Work>
  </rdf:RDF>
 </metadata>
 <g id="layer1">
  <path id="rect818-3" d="m12 4c-4.432 0-8 3.568-8 8v12l10 2 10-2v-20z" fill="#699575" fill-rule="evenodd" style="paint-order:stroke fill markers"/>
  <path id="rect818-5-8" d="m4 24v12c0 4.432 3.568 8 8 8h12v-20h-20z" fill="#699575" fill-rule="evenodd" style="paint-order:stroke fill markers"/>
  <path id="rect818-5" d="m24 24v20h12c4.432 0 8-3.568 8-8v-12h-20z" fill="#943657" fill-rule="evenodd" style="paint-order:stroke fill markers"/>
  <path id="rect818" d="m24 4v20h20v-12c0-4.432-3.568-8-8-8h-12z" fill="#4e4e4e" fill-rule="evenodd" style="paint-order:stroke fill markers"/>
  <rect id="rect913" x="31" y="4" width="6" height="7" fill="#707070" fill-rule="evenodd" style="paint-order:stroke fill markers"/>
  <path id="path869-1-2" d="m26 24-2 7v7h19.74c0.16371-0.63965 0.25977-1.3079 0.25977-2v-5l-2-7-2 7-2-7-2 7-2-7-2 7-2-7-2 7-2-7z" fill="#d35244"/>
  <path id="path869-1" d="m26 30-2 7v7h12c4.1468 0 7.5359-3.1239 7.9551-7.1562l-1.9551-6.8438-2 7-2-7-2 7-2-7-2 7-2-7-2 7-2-7z" fill="#f68d59"/>
  <path id="path869" d="m26 37-2 7h4l-2-7zm2 7h4l-2-7-2 7zm4 0h4l-2-7-2 7zm4 0c1.3517 0 2.6221-0.33482 3.7363-0.92188l-1.7363-6.0781-2 7zm6-7-1.6289 5.7031c1.0259-0.66861 1.8823-1.5673 2.5078-2.623l-0.87891-3.0801z" fill="#ffdd75"/>
  <rect id="rect911" x="28" y="8" width="12" height="7" rx="6" ry="2" fill="#979797" fill-rule="evenodd" style="paint-order:stroke fill markers"/>
  <path id="path909" d="m34 9 10 4v11h-10z" fill="#efefef"/>
  <path id="rect917" d="m4.584 39c1.1829 2.9355 4.0471 5 7.416 5h12v-5h-19.416z" fill="#efefef" fill-rule="evenodd" style="paint-order:stroke fill markers"/>
  <path id="path919" d="m4 29v7c0 1.0631 0.21071 2.0736 0.58398 3h15.416v-2h-2v-2h-2v-2h-2v-2h-2v-2h-8z" fill="#707070"/>
  <path id="path971" d="m10 28-3-2h-3v2z" fill="#efefef"/>
  <path id="path973" d="m7 26c5 0 7.9448 2 12 2 4 0 5-1 5-1v-3h-20v2h3z" fill="#96d56b"/>
  <path id="path921" d="m4 28v1h8l-2-1zm0 2v1h10l-2-1zm0 2v1h12l-2-1zm0 2v1h14l-2-1zm0 2v1h16l-2-1z" fill="#b7bfc2"/>
  <path id="rect1000" d="m12 4c-3.3689 0-6.2331 2.0645-7.416 5h19.416v-5h-12z" fill="#4e4e4e" fill-rule="evenodd" style="paint-order:stroke fill markers"/>
  <path id="rect1002" d="m12.504 4c-1.5651 1.8995-2.5039 4.3354-2.5039 7 0 6.094 4.906 11 11 11 1.0425 0 2.0456-0.15333 3-0.42188v-17.578z" fill="#9bc6a6" fill-rule="evenodd" style="paint-order:stroke fill markers"/>
  <path id="rect1020" d="m16 4c-1.108 0-2 0.892-2 2s0.892 2 2 2 2-0.892 2-2-0.892-2-2-2zm4.1816 0c-0.11095 0.31399-0.18164 0.64708-0.18164 1 0 1.662 1.338 3 3 3 0.35292 0 0.68601-0.070688 1-0.18164v-1.0938c-0.295 0.1711-0.63307 0.27539-1 0.27539-1.108 0-2-0.892-2-2 0-0.36693 0.10429-0.705 0.27539-1zm-4.1816 1c0.554 0 1 0.446 1 1s-0.446 1-1 1-1-0.446-1-1 0.446-1 1-1zm-1 5c-1.662 0-3 1.338-3 3s1.338 3 3 3 3-1.338 3-3-1.338-3-3-3zm7 0c-1.108 0-2 0.892-2 2s0.892 2 2 2 2-0.892 2-2-0.892-2-2-2zm-7 1c1.108 0 2 0.892 2 2s-0.892 2-2 2-2-0.892-2-2 0.892-2 2-2zm7 0c0.554 0 1 0.446 1 1s-0.446 1-1 1-1-0.446-1-1 0.446-1 1-1zm0 4c-2.216 0-4 1.784-4 4 0 1.1125 0.45147 2.1142 1.1797 2.8379 0.59322 0.098239 1.1984 0.16211 1.8203 0.16211 0.24877 0 0.49412-0.0084 0.73828-0.02539-1.5363-0.13394-2.7383-1.4024-2.7383-2.9746 0-1.662 1.338-3 3-3 0.7733 0 1.4691 0.29821 2 0.77539v-1.2246c-0.58955-0.34148-1.267-0.55078-2-0.55078z" fill="#daf2e1" fill-rule="evenodd" style="paint-order:stroke fill markers"/>
  <path id="path907" d="m24 13 10-4v15h-10z" fill="#b7bfc2"/>
  <path id="path915" d="m36 12v4l4 2v-4z" fill="#4e4e4e"/>
  <path id="rect817" d="m12 4c-4.432 0-8 3.568-8 8v24c0 4.432 3.568 8 8 8h24c4.432 0 8-3.568 8-8v-24c0-4.432-3.568-8-8-8h-24zm0 1h24c3.878 0 7 3.122 7 7v24c0 3.878-3.122 7-7 7h-24c-3.878 0-7-3.122-7-7v-24c0-3.878 3.122-7 7-7z" fill-rule="evenodd" opacity=".3" style="paint-order:stroke fill markers"/>
 </g>
</svg>
