<?xml version="1.0" encoding="UTF-8"?>
<!-- Created with Inkscape (http://www.inkscape.org/) -->
<svg id="SVGRoot" width="48px" height="48px" version="1.1" viewBox="0 0 48 48" xmlns="http://www.w3.org/2000/svg" xmlns:cc="http://creativecommons.org/ns#" xmlns:dc="http://purl.org/dc/elements/1.1/" xmlns:rdf="http://www.w3.org/1999/02/22-rdf-syntax-ns#">
 <defs id="defs815">
  <style id="style819">.cls-1{fill:none;stroke:#fff;stroke-linecap:round;stroke-linejoin:round;}</style>
 </defs>
 <metadata id="metadata818">
  <rdf:RDF>
   <cc:Work rdf:about="">
    <dc:format>image/svg+xml</dc:format>
    <dc:type rdf:resource="http://purl.org/dc/dcmitype/StillImage"/>
    <dc:title/>
   </cc:Work>
  </rdf:RDF>
 </metadata>
 <g id="layer1">
  <rect id="rect1373-5" x="4" y="4" width="40" height="40" ry="8" fill="#eca139" fill-rule="evenodd" style="paint-order:stroke fill markers"/>
  <path id="rect817" d="m12 4c-4.432 0-8 3.568-8 8v24c0 4.432 3.568 8 8 8h24c4.432 0 8-3.568 8-8v-24c0-4.432-3.568-8-8-8h-24zm0 1h24c3.878 0 7 3.122 7 7v24c0 3.878-3.122 7-7 7h-24c-3.878 0-7-3.122-7-7v-24c0-3.878 3.122-7 7-7z" fill-rule="evenodd" opacity=".3" style="paint-order:stroke fill markers"/>
  <path id="path841" d="m14 12v4l-3-2-2 3 2 2v2h-3v4h2.4668l0.5332 2-2 2 2 4 2.5859-1.5859 1.4141 1.5859-2 3 4 2 5-7h4l5 7 4-2-2-3 1.4141-1.5859 2.5859 1.5859 2-4-2-2 0.5332-2h2.4668v-4h-3v-2l2-2-2-3-3 2v-4h-10z" fill="#7c5231"/>
  <path id="path1001" d="m13 10a1.0001 1.0001 0 0 0-1 1v6a1.0001 1.0001 0 0 0 1 1h2a1.0001 1.0001 0 0 0 0.89453-0.55273l0.72266-1.4473h3.3828v16c0 1.3333-1.4473 2.1055-1.4473 2.1055a1.0001 1.0001 0 0 0-0.55273 0.89453v2a1.0001 1.0001 0 0 0 1 1h10a1.0001 1.0001 0 0 0 1-1v-2a1.0001 1.0001 0 0 0-0.55273-0.89453s-1.4473-0.77214-1.4473-2.1055v-16h4.3105c-0.17162 0.29068-0.31055 0.62313-0.31055 1 0 0.84518 0.41193 1.533 0.93945 2.0605 0.52753 0.52752 1.2154 0.93945 2.0605 0.93945 0.82496 0 1.5199-0.38732 2.0547-0.91211 0.5348-0.5248 0.94531-1.2355 0.94531-2.0879v-6a1.0001 1.0001 0 0 0-1-1z" color="#000000" color-rendering="auto" dominant-baseline="auto" fill="#ecead4" image-rendering="auto" shape-rendering="auto" solid-color="#000000" style="font-feature-settings:normal;font-variant-alternates:normal;font-variant-caps:normal;font-variant-ligatures:normal;font-variant-numeric:normal;font-variant-position:normal;isolation:auto;mix-blend-mode:normal;shape-padding:0;text-decoration-color:#000000;text-decoration-line:none;text-decoration-style:solid;text-indent:0;text-orientation:mixed;text-transform:none;white-space:normal"/>
  <path id="path839" d="m14 12h22v5c0 0.1476-0.11816 0.4369-0.34766 0.66211-0.2295 0.22521-0.53449 0.33789-0.65234 0.33789-0.097631 0-0.40971-0.11674-0.64648-0.35352-0.23677-0.23677-0.35352-0.54885-0.35352-0.64648a1.0001 1.0001 0 0 0 0.70703-1.707l-1-1a1.0001 1.0001 0 0 0-0.70703-0.29297h-6a1.0001 1.0001 0 0 0-1 1v17c0 2.089 1.3213 3.0599 2 3.4844v0.51562h-8v-0.51562c0.67872-0.42446 2-1.3954 2-3.4844v-17a1.0001 1.0001 0 0 0-1-1h-5a1.0001 1.0001 0 0 0-0.89453 0.55273l-0.72266 1.4473h-0.38281z" color="#000000" color-rendering="auto" dominant-baseline="auto" fill="#e0833c" image-rendering="auto" shape-rendering="auto" solid-color="#000000" style="font-feature-settings:normal;font-variant-alternates:normal;font-variant-caps:normal;font-variant-ligatures:normal;font-variant-numeric:normal;font-variant-position:normal;isolation:auto;mix-blend-mode:normal;shape-padding:0;text-decoration-color:#000000;text-decoration-line:none;text-decoration-style:solid;text-indent:0;text-orientation:mixed;text-transform:none;white-space:normal"/>
  <path id="path845" d="m17 19c1.2273-1.3531 3-2 3-2v14s-1.7727-0.68362-3-2c-2.2731-2.4381-2.2395-7.531 0-10z" opacity=".25"/>
  <path id="path843" d="m17 29s-2-2-2-5 2-5 2-5l2 4v2z" fill="#eca139"/>
  <path id="path845-7" d="m31 19c-1.2273-1.3531-3-2-3-2v14s1.7727-0.68362 3-2c2.2731-2.4381 2.2395-7.531 0-10z" opacity=".25"/>
  <path id="path843-5" d="m31 29s2-2 2-5-2-5-2-5l-2 4v2z" fill="#eca139"/>
 </g>
</svg>
