<?xml version="1.0" encoding="UTF-8"?>
<!-- Created with Inkscape (http://www.inkscape.org/) -->
<svg id="SVGRoot" width="48px" height="48px" version="1.1" viewBox="0 0 48 48" xmlns="http://www.w3.org/2000/svg" xmlns:cc="http://creativecommons.org/ns#" xmlns:dc="http://purl.org/dc/elements/1.1/" xmlns:rdf="http://www.w3.org/1999/02/22-rdf-syntax-ns#">
 <defs id="defs815">
  <style id="style819">.cls-1{fill:none;stroke:#fff;stroke-linecap:round;stroke-linejoin:round;}</style>
  <style id="style819-1">.cls-1{fill:none;stroke:#fff;stroke-linecap:round;stroke-linejoin:round;}</style>
 </defs>
 <metadata id="metadata818">
  <rdf:RDF>
   <cc:Work rdf:about="">
    <dc:format>image/svg+xml</dc:format>
    <dc:type rdf:resource="http://purl.org/dc/dcmitype/StillImage"/>
    <dc:title/>
   </cc:Work>
  </rdf:RDF>
 </metadata>
 <g id="layer1">
  <rect id="rect1373-5" x="4" y="4" width="40" height="40" ry="8" fill="#498ab9" fill-rule="evenodd" style="paint-order:stroke fill markers"/>
  <path id="rect817" d="m12 4c-4.432 0-8 3.568-8 8v24c0 4.432 3.568 8 8 8h24c4.432 0 8-3.568 8-8v-24c0-4.432-3.568-8-8-8h-24zm0 1h24c3.878 0 7 3.122 7 7v24c0 3.878-3.122 7-7 7h-24c-3.878 0-7-3.122-7-7v-24c0-3.878 3.122-7 7-7z" fill-rule="evenodd" opacity=".3" style="paint-order:stroke fill markers"/>
  <rect id="rect859" x="26" y="12" width="10" height="10" fill="#96d56b" fill-rule="evenodd" style="paint-order:stroke fill markers"/>
  <rect id="rect859-0" x="26" y="26" width="10" height="10" fill="#dd5c89" fill-rule="evenodd" style="paint-order:stroke fill markers"/>
  <rect id="rect859-0-2" x="12" y="26" width="10" height="10" fill="#729dec" fill-rule="evenodd" style="paint-order:stroke fill markers"/>
  <path id="path894" d="m12 22 10-10v10z" fill="#ffdd75"/>
  <path id="rect902" d="m12 26v10h10v-10h-10zm1 1h8v8h-8v-8z" fill="#fff" fill-rule="evenodd" opacity=".75" style="paint-order:stroke fill markers"/>
  <path id="rect902-6" d="m26 26v10h10v-10zm1 1h8v8h-8z" fill="#fff" fill-rule="evenodd" opacity=".75" style="paint-order:stroke fill markers"/>
  <path id="rect902-6-4" d="m26 12v10h10v-10zm1 1h8v8h-8z" fill="#fff" fill-rule="evenodd" opacity=".75" style="paint-order:stroke fill markers"/>
  <path id="path894-2" d="m22 12-10 10h10v-10zm-1 2.5v6.5h-6.5l6.5-6.5z" fill="#fff" opacity=".75"/>
 </g>
</svg>
