<?xml version="1.0" encoding="UTF-8"?>
<!-- Created with Inkscape (http://www.inkscape.org/) -->
<svg id="SVGRoot" width="48px" height="48px" version="1.1" viewBox="0 0 48 48" xmlns="http://www.w3.org/2000/svg" xmlns:cc="http://creativecommons.org/ns#" xmlns:dc="http://purl.org/dc/elements/1.1/" xmlns:rdf="http://www.w3.org/1999/02/22-rdf-syntax-ns#" xmlns:xlink="http://www.w3.org/1999/xlink">
 <defs id="defs815">
  <style id="style819">.cls-1{fill:none;stroke:#fff;stroke-linecap:round;stroke-linejoin:round;}</style>
  <style id="style2">.a{fill:none;stroke:#b1b5bd;stroke-linecap:round;stroke-linejoin:round;isolation:isolate;opacity:0.63;}</style>
 </defs>
 <metadata id="metadata818">
  <rdf:RDF>
   <cc:Work rdf:about="">
    <dc:format>image/svg+xml</dc:format>
    <dc:type rdf:resource="http://purl.org/dc/dcmitype/StillImage"/>
    <dc:title/>
   </cc:Work>
  </rdf:RDF>
 </metadata>
 <g id="layer1">
  <rect id="rect1373" x="4" y="4" width="40" height="40" ry="8" fill="#4cc5a0" fill-rule="evenodd" style="paint-order:stroke fill markers"/>
  <rect id="rect1007" x="13" y="16" width="8" height="8" ry="4" fill-rule="evenodd" opacity=".3" style="paint-order:stroke fill markers"/>
  <rect id="rect884" x="10" y="28" width="28" height="14" ry="7" fill="#efefef" fill-rule="evenodd" style="paint-order:stroke fill markers"/>
  <path id="path903-2" d="m23.994 22c-0.23215 0.0015-0.45657 0.08362-0.63477 0.23242l-6 5c-0.55326 0.46186-0.45115 1.3396 0.19336 1.6621l6 3c0.28156 0.14078 0.61297 0.14078 0.89453 0l6-3c0.64451-0.32252 0.74662-1.2002 0.19336-1.6621l-6-5c-0.18129-0.15138-0.4103-0.23372-0.64648-0.23242z" color="#000000" color-rendering="auto" dominant-baseline="auto" fill="#ffdd75" image-rendering="auto" shape-rendering="auto" solid-color="#000000" style="font-feature-settings:normal;font-variant-alternates:normal;font-variant-caps:normal;font-variant-ligatures:normal;font-variant-numeric:normal;font-variant-position:normal;isolation:auto;mix-blend-mode:normal;shape-padding:0;text-decoration-color:#000000;text-decoration-line:none;text-decoration-style:solid;text-indent:0;text-orientation:mixed;text-transform:none;white-space:normal"/>
  <path id="path905" d="m17.381 27.215-0.02148 0.01758c-0.55326 0.46186-0.45115 1.3396 0.19336 1.6621l6 3c0.28156 0.14078 0.61297 0.14078 0.89453 0l6-3c0.64451-0.32252 0.74662-1.2002 0.19336-1.6621l-0.02148-0.01758c-0.92728 0.36127-4.8506 1.8516-6.6191 1.8516s-5.6919-1.4903-6.6191-1.8516z" fill="#f6a559"/>
  <rect id="rect928" x="14" y="17" width="6" height="6" ry="3" fill="#fff" fill-rule="evenodd" style="paint-order:stroke fill markers"/>
  <rect id="rect1009" x="27" y="16" width="8" height="8" ry="4" fill-rule="evenodd" opacity=".3" style="paint-order:stroke fill markers"/>
  <rect id="rect928-2" x="28" y="17" width="6" height="6" ry="3" fill="#fff" fill-rule="evenodd" style="paint-order:stroke fill markers"/>
  <path id="rect817" d="m12 4c-4.432 0-8 3.568-8 8v24c0 4.432 3.568 8 8 8h24c4.432 0 8-3.568 8-8v-24c0-4.432-3.568-8-8-8h-24zm0 1h24c3.878 0 7 3.122 7 7v24c0 3.878-3.122 7-7 7h-24c-3.878 0-7-3.122-7-7v-24c0-3.878 3.122-7 7-7z" fill-rule="evenodd" opacity=".3" style="paint-order:stroke fill markers"/>
 </g>
</svg>
