<?xml version="1.0" encoding="UTF-8"?>
<!-- Created with Inkscape (http://www.inkscape.org/) -->
<svg id="SVGRoot" width="48px" height="48px" version="1.1" viewBox="0 0 48 48" xmlns="http://www.w3.org/2000/svg" xmlns:cc="http://creativecommons.org/ns#" xmlns:dc="http://purl.org/dc/elements/1.1/" xmlns:rdf="http://www.w3.org/1999/02/22-rdf-syntax-ns#" xmlns:xlink="http://www.w3.org/1999/xlink">
 <defs id="defs815">
  <style id="style819">.cls-1{fill:none;stroke:#fff;stroke-linecap:round;stroke-linejoin:round;}</style>
 </defs>
 <metadata id="metadata818">
  <rdf:RDF>
   <cc:Work rdf:about="">
    <dc:format>image/svg+xml</dc:format>
    <dc:type rdf:resource="http://purl.org/dc/dcmitype/StillImage"/>
    <dc:title/>
   </cc:Work>
  </rdf:RDF>
 </metadata>
 <g id="layer1">
  <rect id="rect1373-5" x="4" y="4" width="40" height="40" ry="8" fill="#4e4e4e" fill-rule="evenodd" style="paint-order:stroke fill markers"/>
  <path id="rect817" d="m12 4c-4.432 0-8 3.568-8 8v24c0 4.432 3.568 8 8 8h24c4.432 0 8-3.568 8-8v-24c0-4.432-3.568-8-8-8h-24zm0 1h24c3.878 0 7 3.122 7 7v24c0 3.878-3.122 7-7 7h-24c-3.878 0-7-3.122-7-7v-24c0-3.878 3.122-7 7-7z" fill-rule="evenodd" opacity=".4" style="paint-order:stroke fill markers"/>
  <g id="layer1-2" transform="matrix(1.4,0,0,1.4,-9.6,-8.2)">
   <path id="rect822-4" d="m24 13c-3.3639 0-6.322 1.6515-8.1328 4.1836-0.08663 0.12552-0.20865 0.33068-0.0293 0.40234 2.7084 1.082 3.5324 2.2756 3.873 3.5312 0.08415 0.31024-0.10521 0.81191-0.42188 0.86719-1.3125 0.22912-2.7422 0.32812-2.7422 0.32812s2.9259 1.1635 2.9062 1.7344c-0.01021 0.29692-2.6484 0.25781-2.6484 0.25781s2.8759 0.883 3.0703 2.1094c0.11255 0.70993-1.3125 1.7109-1.3125 1.7109s1.5619 0.18966 2.3438 0.42188c0.87523 0.25997 2.1373 0.88882 2.5781 1.0781 1.1036-1.5633 2.5312-2.0625 2.5312-2.0625s0.11985 0.43622 0.30469 0.75c1.031 0.87673 3.5156 1.6875 3.5156 1.6875s-3.8904 1.9596-5.9766 1.875c-5.186-0.21034-7.8047-4.6406-7.8047-4.6406s0.89382-1.1605 1.4297-1.7812c-0.80148-0.63061-1.6392-1.5502-2.0859-2.5547-0.52352-1.1772-0.58594-3.8203-0.58594-3.8203l-0.011719-0.015625c-0.51487 1.2073-0.80078 2.5378-0.80078 3.9375 0 5.54 4.46 10 10 10 2.8833 0 5.4673-1.2147 7.2891-3.1543-0.12843-0.07792-0.51036-0.31204-0.70312-0.51172-0.34287-0.35517-0.85607-0.79145-0.87165-1.2324-0.09487-2.6859 0.0044-5.3757 0.07031-8.0625 0.02837-1.1556 1.9322-2.0234 1.9322-2.0234s0.39596 0.08356 0.72461 0.80273c0.26079 0.57067 0.25391 1.291 0.25391 1.291l-1.5 1.3125s1.3701 1.8856 1.4766 3.1875c0.09444 1.1553-0.22763 3.7139-0.23242 3.752 0.9836-1.549 1.5606-3.383 1.5606-5.3613 0-2.1299-0.66268-4.0963-1.7891-5.7148l-0.0059 0.01172s-0.03802-0.0692-0.08594-0.13281c-0.0092-0.01281-0.02003-0.02435-0.0293-0.03711-0.0812-0.08077-0.21196-0.16055-0.42578-0.1582-0.76283 0.0083-1.6346 0.43576-2.6484 1.0078-0.9436 0.53245-1.8649 1.7507-2.6484 1.9922-0.51688 0.15932-1.7344-0.1875-1.7344-0.1875s1.432 1.7608 1.4297 2.2969c-0.0047 1.1172 0.01098 2.2228-0.01172 3.3516-0.0053 0.26248-1.0264 1.2455-1.9805 0.98437-0.70788-0.19377-0.86989-1.119-0.91406-1.8516-0.07802-1.294 0.04322-2.8893 0.14062-3.3047 0.13115-0.55927 0.89062-2.5781 0.89062-2.5781 0-1e-6 -1.2547 1.1906-2.0469 1.1289-0.60482-0.04713-4.9844-2.9102-4.9844-2.9102s0.297-0.6605 1.4062-1.4766c1.0519-0.77386 1.9688-1.125 1.9688-1.125s1.043 0.39558 1.7109 1.5938c0.32628-0.38999 1.3655-1.1596 2.1914-1.4531 1.1771-0.4183 3.1274-0.43582 3.9258-0.43359-1.3177-0.63718-2.7923-1.0039-4.3593-1.0039z" fill="#e8c66e" fill-rule="evenodd" style="paint-order:normal"/>
  </g>
 </g>
</svg>
