<?xml version="1.0" encoding="UTF-8"?>
<!-- Created with Inkscape (http://www.inkscape.org/) -->
<svg id="SVGRoot" width="48px" height="48px" version="1.1" viewBox="0 0 48 48" xmlns="http://www.w3.org/2000/svg" xmlns:cc="http://creativecommons.org/ns#" xmlns:dc="http://purl.org/dc/elements/1.1/" xmlns:rdf="http://www.w3.org/1999/02/22-rdf-syntax-ns#">
 <defs id="defs815">
  <style id="style819">.cls-1{fill:none;stroke:#fff;stroke-linecap:round;stroke-linejoin:round;}</style>
 </defs>
 <metadata id="metadata818">
  <rdf:RDF>
   <cc:Work rdf:about="">
    <dc:format>image/svg+xml</dc:format>
    <dc:type rdf:resource="http://purl.org/dc/dcmitype/StillImage"/>
    <dc:title/>
   </cc:Work>
  </rdf:RDF>
 </metadata>
 <g id="layer1">
  <rect id="rect1373" x="4" y="4" width="40" height="40" ry="8" fill="#4848aa" fill-rule="evenodd" style="paint-order:stroke fill markers"/>
  <path id="rect854" d="m16.654 4c-3.5495 1.4434-6.9708 3.67-9.9707 6.6699-0.97661 0.97661-1.87 1.999-2.6836 3.0547v3.0566c1.0912-1.7154 2.3778-3.3661 3.9023-4.8906 4.8298-4.8298 10.843-7.4993 16.607-7.8906zm10.602 0c4.4103 0.26928 8.5329 1.9254 11.676 5.0684 3.0968 3.0968 4.7626 7.1414 5.0684 11.479v-7.8281c-0.89332-1.8689-2.0892-3.597-3.6055-5.1133-1.5233-1.5233-3.2655-2.7111-5.1445-3.6055zm16.744 19.5c-0.39441 5.7614-3.064 11.771-7.8906 16.598-1.5245 1.5245-3.1752 2.8112-4.8906 3.9023h3.0566c1.0557-0.81357 2.0781-1.707 3.0547-2.6836 2.9982-2.9982 5.2262-6.4173 6.6699-9.9648z" fill="#e3d383" fill-rule="evenodd" style="paint-order:stroke fill markers"/>
  <path id="path850" d="m8 28c0-12 15-18 15-18s-3 3.0563-3 5c0 2 1 2 1 2h1v14s0 1 3 1 3-2 3-2v-11c0-1-1-3-1-3s1 0 2 1c3-4 8-5 8-5s-3 3-3 5v13s0 1 1 1c1.9437 0 5-3 5-3s-4 7-8 9c-2-1-3-2-3-2s-1 2-3 3c-8-1-13-5-13-5h2c1 0 1-1 1-1v-11s0-1-1-1c-3 0-7 8-7 8z" fill="#efd75d"/>
  <path id="rect817" d="m12 4c-4.432 0-8 3.568-8 8v24c0 4.432 3.568 8 8 8h24c4.432 0 8-3.568 8-8v-24c0-4.432-3.568-8-8-8h-24zm0 1h24c3.878 0 7 3.122 7 7v24c0 3.878-3.122 7-7 7h-24c-3.878 0-7-3.122-7-7v-24c0-3.878 3.122-7 7-7z" fill-rule="evenodd" opacity=".3" style="paint-order:stroke fill markers"/>
 </g>
</svg>
