<?xml version="1.0" encoding="UTF-8"?>
<!-- Created with Inkscape (http://www.inkscape.org/) -->
<svg id="SVGRoot" width="48px" height="48px" version="1.1" viewBox="0 0 48 48" xmlns="http://www.w3.org/2000/svg" xmlns:cc="http://creativecommons.org/ns#" xmlns:dc="http://purl.org/dc/elements/1.1/" xmlns:rdf="http://www.w3.org/1999/02/22-rdf-syntax-ns#">
 <defs id="defs815">
  <style id="style819">.cls-1{fill:none;stroke:#fff;stroke-linecap:round;stroke-linejoin:round;}</style>
  <style id="style819-6">.cls-1{fill:none;stroke:#fff;stroke-linecap:round;stroke-linejoin:round;}</style>
  <style id="style819-66">.cls-1{fill:none;stroke:#fff;stroke-linecap:round;stroke-linejoin:round;}</style>
 </defs>
 <metadata id="metadata818">
  <rdf:RDF>
   <cc:Work rdf:about="">
    <dc:format>image/svg+xml</dc:format>
    <dc:type rdf:resource="http://purl.org/dc/dcmitype/StillImage"/>
    <dc:title/>
   </cc:Work>
  </rdf:RDF>
 </metadata>
 <g id="layer1">
  <rect id="rect1373-5" x="4" y="4" width="40" height="40" ry="8" fill="#4e4e4e" fill-rule="evenodd" style="paint-order:stroke fill markers"/>
  <path id="path828" d="m13.327 19.137c2.1954-2.3332 4.0519-4.8148 6.7803-6.2892 1.1382-0.61506 2.4798-0.9324 3.781-0.94796 3.6772-0.04396 7.6169 0.54353 10.749 2.4226 1.0779 0.64667 2.1741 1.6355 2.4307 2.8439 0.47789 2.2508 0.96193 5.6403 0.86424 8.479-0.12458 3.6198-5.8032 3.5009-9.0205 3.3705-5.5115-0.22335-11.791-3.5383-15.394-6.3197-0.79051-0.61017-0.87214-2.8346-0.19053-3.559z" fill="#b7bfc2"/>
  <path id="rect817" d="m12 4c-4.432 0-8 3.568-8 8v24c0 4.432 3.568 8 8 8h24c4.432 0 8-3.568 8-8v-24c0-4.432-3.568-8-8-8h-24zm0 1h24c3.878 0 7 3.122 7 7v24c0 3.878-3.122 7-7 7h-24c-3.878 0-7-3.122-7-7v-24c0-3.878 3.122-7 7-7z" fill-rule="evenodd" opacity=".4" style="paint-order:stroke fill markers"/>
  <path id="path830" d="m18.998 19.375c0.05342-1.5778 1.7743-3.4627 3.3489-3.3489 1.5013 0.1085 2.8027 2.1172 2.7007 3.619-0.09919 1.4608-1.6153 3.176-3.0788 3.1329-1.5051-0.04441-3.0218-1.898-2.9708-3.4029z" fill="#4e4e4e"/>
  <path id="path832" d="m28 21.393c0.12746-1.6424 1.9784-3.6084 3.619-3.3853 1.4808 0.20129 2.4831 2.337 2.3226 3.8152-0.16003 1.4738-1.5906 3.2965-3.0788 3.2241-1.5504-0.07541-2.9823-2.1143-2.8628-3.654z" fill="#4e4e4e"/>
  <path id="path834" d="m10.19 29.47c-0.52935 1.5343 0.38666 3.4245 1.4596 4.6449 0.51775 0.58889 1.3572 1.084 2.1372 0.99055 0.84261-0.10098 1.388-0.98689 1.9881-1.5849 0.82515-0.82223 1.9529-1.5848 2.1869-2.724 0.24826-1.2086 0.12038-3.0287-0.99406-3.566-1.0088-0.48638-2.8631-0.04022-4.1751 0.44575-0.98875 0.36625-2.2598 0.79967-2.6028 1.7937z" fill="#b7bfc2"/>
  <path id="path836" d="m20.432 32.838c0.58931-2.2015 1.8736-3.2103 3.4029-3.2431 1.4059-0.03014 2.5932 1.018 3.2409 2.8448 0.54349 1.533 0.59097 3.2721 0.3781 4.893-0.12492 0.95124-1.0183 1.0674-1.6745 1.3086-1.0205 0.3752-2.2403 0.54449-3.2409 0.11379-0.99025-0.42625-1.8334-1.3937-2.2146-2.4465-0.39164-1.0815-0.19019-2.3566 0.10803-3.4707z" fill="#b7bfc2"/>
  <path id="path838" d="m30.1 34.186c-0.06953-1.0327-0.17059-2.4684 0.70219-3.0248 0.88432-0.56383 2.1966 0.08114 3.0788 0.64818 0.79066 0.50816 1.2736 1.4185 1.6745 2.2686 0.61737 1.3095 0.20133 1.9791-0.48613 2.4847-0.6438 0.47344-1.5357 0.73314-2.3226 0.59416-0.81637-0.14418-1.5399-0.75286-2.0526-1.4044-0.34531-0.43888-0.55665-1.0092-0.59416-1.5664z" fill="#b7bfc2"/>
 </g>
</svg>
