<?xml version="1.0" encoding="UTF-8"?>
<!-- Created with Inkscape (http://www.inkscape.org/) -->
<svg id="SVGRoot" width="48px" height="48px" version="1.1" viewBox="0 0 48 48" xmlns="http://www.w3.org/2000/svg" xmlns:cc="http://creativecommons.org/ns#" xmlns:dc="http://purl.org/dc/elements/1.1/" xmlns:rdf="http://www.w3.org/1999/02/22-rdf-syntax-ns#">
 <defs id="defs815">
  <style id="style819">.cls-1{fill:none;stroke:#fff;stroke-linecap:round;stroke-linejoin:round;}</style>
 </defs>
 <metadata id="metadata818">
  <rdf:RDF>
   <cc:Work rdf:about="">
    <dc:format>image/svg+xml</dc:format>
    <dc:type rdf:resource="http://purl.org/dc/dcmitype/StillImage"/>
    <dc:title/>
   </cc:Work>
  </rdf:RDF>
 </metadata>
 <g id="layer1" fill-rule="evenodd">
  <path id="rect1373-9" d="m12 4c-4.432 0-8 3.568-8 8v24c0 1.216 0.27648 2.3625 0.75781 3.3926l38.484-30.785c-1.273-2.7243-4.0262-4.6074-7.2422-4.6074h-24z" fill="#f6a559" style="paint-order:stroke fill markers"/>
  <path id="rect1373" d="m43.242 8.6074-38.484 30.785c1.273 2.7243 4.0262 4.6074 7.2422 4.6074h24c4.432 0 8-3.568 8-8v-24c0-1.216-0.27648-2.3625-0.75781-3.3926z" fill="#b072dd" style="paint-order:stroke fill markers"/>
  <path id="rect822-4" d="m12.238 8-2.1191 8 4.9395 4-3.1777 12h-7.8809v4c0 1.4606 0.39399 2.8238 1.0723 4h30.689l2.1191-8-4.9395-4 3.1777-12h7.8809v-4c0-1.4606-0.39399-2.8238-1.0723-4h-30.689z" fill="#3c3c3c" style="paint-order:stroke fill markers"/>
  <path id="rect820" d="m13.707 10-1.3242 5 4.9414 4-2.9141 11h12l4.9414 4h-27.352v2c0 0.69208 0.096052 1.3603 0.25977 2h26.033 4l1.3242-5-4.9414-4 2.9141-11h-12l-4.9414-4h27.352v-2c0-0.69208-0.096052-1.3603-0.25977-2h-26.033-4zm6.8223 12h8l-1.0586 4h-8l1.0586-4z" fill="#fff" style="paint-order:stroke fill markers"/>
  <path id="rect817" d="m12 4c-4.432 0-8 3.568-8 8v24c0 4.432 3.568 8 8 8h24c4.432 0 8-3.568 8-8v-24c0-4.432-3.568-8-8-8h-24zm0 1h24c3.878 0 7 3.122 7 7v24c0 3.878-3.122 7-7 7h-24c-3.878 0-7-3.122-7-7v-24c0-3.878 3.122-7 7-7z" opacity=".3" style="paint-order:stroke fill markers"/>
 </g>
</svg>
