<?xml version="1.0" encoding="UTF-8"?>
<!-- Created with Inkscape (http://www.inkscape.org/) -->
<svg id="SVGRoot" width="48px" height="48px" version="1.1" viewBox="0 0 48 48" xmlns="http://www.w3.org/2000/svg" xmlns:cc="http://creativecommons.org/ns#" xmlns:dc="http://purl.org/dc/elements/1.1/" xmlns:rdf="http://www.w3.org/1999/02/22-rdf-syntax-ns#">
 <defs id="defs815">
  <style id="style819">.cls-1{fill:none;stroke:#fff;stroke-linecap:round;stroke-linejoin:round;}</style>
 </defs>
 <metadata id="metadata818">
  <rdf:RDF>
   <cc:Work rdf:about="">
    <dc:format>image/svg+xml</dc:format>
    <dc:type rdf:resource="http://purl.org/dc/dcmitype/StillImage"/>
    <dc:title/>
   </cc:Work>
  </rdf:RDF>
 </metadata>
 <g id="layer1">
  <rect id="rect1373-5" x="4" y="4" width="40" height="40" ry="8" fill="#ff7591" fill-rule="evenodd" style="paint-order:stroke fill markers"/>
  <path id="rect817" d="m12 4c-4.432 0-8 3.568-8 8v24c0 4.432 3.568 8 8 8h24c4.432 0 8-3.568 8-8v-24c0-4.432-3.568-8-8-8h-24zm0 1h24c3.878 0 7 3.122 7 7v24c0 3.878-3.122 7-7 7h-24c-3.878 0-7-3.122-7-7v-24c0-3.878 3.122-7 7-7z" fill-rule="evenodd" opacity=".3" style="paint-order:stroke fill markers"/>
  <path id="path817" d="m24 22.808c-8.5202-4.9191-8-5.8079-18-5.8079v19c0 3.324 2.676 6 6 6h24c3.324 0 6-2.676 6-6v-10c-2.6453-2.0725-9.3739 1.7882-18-3.1921z" fill="#4e4e4e"/>
  <rect id="rect828" x="8" y="20" width="14" height="14" ry="7" fill="#f3ebec" fill-rule="evenodd" style="paint-order:stroke fill markers"/>
  <rect id="rect828-8" x="20" y="32" width="8" height="8" ry="4" fill="#f3ebec" fill-rule="evenodd" style="paint-order:stroke fill markers"/>
  <rect id="rect873" x="12" y="24" width="6" height="6" ry="3" fill="#4e4e4e" fill-rule="evenodd" style="paint-order:stroke fill markers"/>
  <rect id="rect875" x="22" y="34" width="4" height="4" ry="2" fill="#4e4e4e" fill-rule="evenodd" style="paint-order:stroke fill markers"/>
  <rect id="rect831" x="30" y="28" width="10" height="10" ry="5" fill="#f3ebec" fill-rule="evenodd" style="paint-order:stroke fill markers"/>
  <rect id="rect833" x="33" y="31" width="4" height="4" ry="2" fill="#4e4e4e" fill-rule="evenodd" style="paint-order:stroke fill markers"/>
  <path id="path872" d="m27.638 12.984 4.3068 1.6789 0.69346-1.8249s0.65613-1.5872 1.8249-1.1679c1.2344 0.44282 0.80296 1.7884 0.80296 1.7884s-0.26254 1.3683-2.0074 2.5914c-3.3628 2.3572-10.183 6.9346-10.183 6.9346l10.986 4.2703 1.4234-3.2848-3.9783-1.4964s2.8014-1.8193 4.7003-3.3729c1.8989-1.5536 2.8954-2.8415 3.6213-4.8756 0.73718-2.0657-1.6271-4.6268-3.6498-5.4747-5.6848-2.383-7.4821 1.6059-7.4821 1.6059z" fill="#f3ebec"/>
 </g>
</svg>
