<?xml version="1.0" encoding="UTF-8"?>
<!-- Created with Inkscape (http://www.inkscape.org/) -->
<svg id="SVGRoot" width="48px" height="48px" version="1.1" viewBox="0 0 48 48" xmlns="http://www.w3.org/2000/svg" xmlns:cc="http://creativecommons.org/ns#" xmlns:dc="http://purl.org/dc/elements/1.1/" xmlns:rdf="http://www.w3.org/1999/02/22-rdf-syntax-ns#">
 <defs id="defs815">
  <style id="style819">.cls-1{fill:none;stroke:#fff;stroke-linecap:round;stroke-linejoin:round;}</style>
 </defs>
 <metadata id="metadata818">
  <rdf:RDF>
   <cc:Work rdf:about="">
    <dc:format>image/svg+xml</dc:format>
    <dc:type rdf:resource="http://purl.org/dc/dcmitype/StillImage"/>
    <dc:title/>
   </cc:Work>
  </rdf:RDF>
 </metadata>
 <g id="layer1">
  <rect id="rect1373" x="4" y="4" width="40" height="40" ry="8" fill="#453333" fill-rule="evenodd" style="paint-order:stroke fill markers"/>
  <rect id="rect832" x="9" y="26" width="28" height="10" rx="14" ry="5" fill="#8e6f60" fill-rule="evenodd" style="paint-order:stroke fill markers"/>
  <path id="path830" d="m41 29-11-25h-13l-10 25z" fill="#84695f"/>
  <path id="path828" d="m4 30s6-6 19-6 21 7 21 7v5s-4 4-10 4c-2.0276 0-3.9842-1.2179-6-1-1.7847 0.19292-3.2049 2-5 2-11 0-19-7-19-7z" fill="#6a544c"/>
  <path id="path848" d="m22.826 31.962s-2.7337 1.4639-2.493 2.8236c0.30243 1.7084 4.2094 1.3614 4.2094 1.3614s0.66928 1.7903 3.7599 1.8152c6.0784 0.04891 5.9259-5.2439 5.9259-5.2439z" fill="#96e1d9"/>
  <rect id="rect850" x="8" y="28" width="32" height="8" rx="14.486" ry="4" fill-rule="evenodd" opacity=".25" style="paint-order:stroke fill markers"/>
  <path id="path834" d="m9.9932 24.407c0.58191-2.229 2.0868-2.9428 3.6782-3.5556 1.1448-0.44082 3.6782 0.12261 3.6782 0.12261s0.84296-0.84344 1.3895-1.0217c0.73099-0.23842 1.6756-0.04087 1.6756-0.04087s2.5918-4.4207 7.8059-4.2503c5.7955 0.18942 10.012 5.3961 9.8493 10.094-0.17585 5.0913-4.1111 10.145-11.402 10.176-2.8527 0.01212-5.0268-2.8608-5.0268-2.8608s-1.8328 1.9735-3.4738 1.9208c-1.1663-0.03747-1.4713-0.98084-1.4713-0.98084s-2.1347 0.85228-3.0651 0.40868c-1.311-0.62504-1.6397-3.0552-1.6397-3.0552s-1.4613-0.80469-1.5988-2.0942c-0.17018-1.5956 0.42271-2.3993 0.42271-2.3993s-1.0554-1.5681-0.82148-2.4641z" fill="#453333"/>
  <path id="path836" d="m27.578 16.656c-4.8074-0.07687-6.3008 4.3926-6.3008 4.3926s-1.0284-0.65149-1.5605-0.51953c-1.1771 0.29187-2.2433 0.4874-2.5137 2.6289-0.14681 1.1626 0.44452 2.4688 0.43359 3.6406-0.01794 1.9205 0.85654 1.2208 1.5312 1.3594 0.74734 0.15348 1.6582-0.31746 2.0801-0.95312 0.51698-0.77887 0.21871-1.8791 0.08789-2.8047-0.12746-0.90188-0.83789-2.5996-0.83789-2.5996s0.81183 0.77685 0.98242 1.3008c0.47893 1.4709 0.5051 2.2597 0.4043 3.6973-0.02194 0.31285 0.44562 0.49716 0.43359 0.81055-0.01569 0.40861-0.89648 0.42898-0.89648 0.83789 0 0.40891 0.81825 0.43653 0.89648 0.83789 0.31711 1.627-0.14453 3.207-0.14453 3.207s1.9932 2.382 5.75 2.4277c5.892 0.07169 9.1136-5.1709 8.9883-9.5371-0.13462-4.6909-3.8033-8.6381-9.334-8.7266zm-12.484 5.2559c-0.26781 0.01832-0.54502 0.06831-0.80859 0.16602-3.4983 1.2968-2.9434 3.5957-2.9434 3.5957s1.0472-1.0422 2.8613-0.93945c-1.1189 0.60229-1.6176 0.46903-1.8398 2.2891-0.09135 0.74802-0.06392 1.6964 0.49024 2.207 0.58653 0.54052 1.6108 0.56716 2.3711 0.32617 0.79936-0.25335 1.5603-0.92553 1.8379-1.7168 0.40563-1.1562-0.55267-1.604-0.53125-3.6367 0.0075-0.70887 0.08203-2.125 0.08203-2.125s-0.7161-0.22097-1.5195-0.16602zm-3.3516 6.5645c0 1e-6 -0.46702 0.62074-0.14453 1.416 0.30278 0.74668 0.86524 0.89453 0.86524 0.89453s0.03624-0.43429 0.17383-0.95312c-0.51318-0.47357-0.89453-1.3574-0.89453-1.3574zm6.5527 0.39063c-0.41376 0.01542-0.81078 0.16373-1.1211 0.47461-0.53189 0.53287-0.43359 1.4059-0.43359 2.2832 0 1.7083 0.49074 2.3217 1.416 2.3984 1.1787 0.09783 2.2832-0.81842 2.2832-2.7148 0-0.76779-0.26764-1.7127-0.92383-2.1113-0.3754-0.22806-0.80694-0.3455-1.2207-0.33008zm2.2598 0.61914s0.27054 0.71607 0.27539 1.5039c0.0049 0.78784-0.10156 1.4453-0.10156 1.4453s0.69201-0.50671 0.69336-1.416c0.0017-1.1056-0.86719-1.5332-0.86719-1.5332zm-4.4785 0.49219s-0.94076 0.55688-2.543 0.17383c-0.5571-0.13319-0.68732 1.0549-0.57812 1.6172 0.13268 0.6832 0.71362 1.3836 1.3867 1.5605 0.88022 0.2314 1.8203-0.11523 1.8203-0.11523z" fill="#e0a59e"/>
  <path id="path864" d="m27.404 18.795c-0.29724-0.38481-0.72795-0.83023-1.2137-0.80915-0.67784 0.02942-1.0876 0.81484-1.5894 1.2715-0.60456 0.55025-1.7341 0.94583-1.705 1.7628 0.01335 0.37495 0.46906 0.81923 0.83805 0.75136 0.68218-0.12548 0.28781-1.6551 0.95365-1.8495 0.45993-0.13427 0.92621 0.36267 1.2426 0.72246 0.39343 0.44736 0.39702 1.1305 0.69356 1.6472 0.21576 0.37596 0.6275 0.63467 0.78026 1.0403 0.26556 0.70523-0.42587 1.7972 0.17339 2.2541 0.24188 0.18442 0.71966 0.07454 0.89585-0.17339 0.38905-0.54745-0.21527-1.3264-0.28898-1.994-0.11134-1.0082-0.2847-2.0411-0.49053-3.0343-0.11374-0.54886 0.05292-1.1458-0.28972-1.5894z" fill="#96e1d9"/>
  <path id="path852" d="m27.433 21.974-0.54907-2.572 0.83805-0.72246 0.28898 2.9765z" fill="#453333"/>
  <path id="path866" d="m27.346 29.602c-0.50898-0.0026-0.31677 1.064-0.75084 1.3298-0.38646 0.23664-1.152-0.34482-1.358 0.05876-0.30981 0.60676 0.96202 1.0432 1.1274 1.7041 0.15652 0.62569-0.32891 1.3453-0.34386 1.9674 0.34062 0.08339 0.70173 0.14327 1.086 0.18499-0.11361-0.59104-0.50492-1.3441-0.04788-1.5452 0.15015-0.06607 0.29864 0.17222 0.37433 0.31775 0.1806 0.34724-0.05651 0.87538-0.02394 1.2536 0.1744 0.01273 0.33302 0.04348 0.5158 0.0457 0.07692 9.35e-4 0.14815-0.0078 0.22416-0.0087 0.18426-1.5845 0.24641-2.0271 0.0076-3.14-0.15469-0.72086-0.07342-2.1645-0.81068-2.1681z" fill="#96e1d9"/>
  <path id="path854" d="m27.375 29.689 0.0289 3.0343 0.83805-0.72246-0.37568-2.1963z" fill="#453333"/>
  <path id="path856" d="m27.953 33.649 1.8495-1.994 0.46237 0.17339-1.3871 1.7917z" fill="#453333"/>
  <path id="path858" d="m27.924 18.275 1.8495 1.7917-0.17339-0.95364-1.5027-1.5605z" fill="#453333"/>
  <path id="path860" d="m23.185 30.701-0.69356-7.7159s3.8404-1.3778 4.537 2.9476c0.73738 4.5787-3.8435 4.7682-3.8435 4.7682z" fill="#453333"/>
  <path id="path862" d="m22.983 23.505s0.4594-0.11284 0.66466-0.02889c0.18294 0.07481 0.3971 0.23597 0.40458 0.43347 0.07781 2.057 0.13944 2.965 0.31788 5.6641 0.01995 0.30166-0.81805 0.64844-0.83805 0.34678-0.30203-4.5544-0.54907-6.4154-0.54907-6.4154z" fill="#fff"/>
  <path id="rect817" d="m12 4c-4.432 0-8 3.568-8 8v24c0 4.432 3.568 8 8 8h24c4.432 0 8-3.568 8-8v-24c0-4.432-3.568-8-8-8h-24zm0 1h24c3.878 0 7 3.122 7 7v24c0 3.878-3.122 7-7 7h-24c-3.878 0-7-3.122-7-7v-24c0-3.878 3.122-7 7-7z" fill-rule="evenodd" opacity=".4" style="paint-order:stroke fill markers"/>
 </g>
</svg>
