<?xml version="1.0" encoding="UTF-8"?>
<!-- Created with Inkscape (http://www.inkscape.org/) -->
<svg id="SVGRoot" width="48px" height="48px" version="1.1" viewBox="0 0 48 48" xmlns="http://www.w3.org/2000/svg" xmlns:cc="http://creativecommons.org/ns#" xmlns:dc="http://purl.org/dc/elements/1.1/" xmlns:rdf="http://www.w3.org/1999/02/22-rdf-syntax-ns#">
 <defs id="defs815">
  <style id="style819">.cls-1{fill:none;stroke:#fff;stroke-linecap:round;stroke-linejoin:round;}</style>
 </defs>
 <metadata id="metadata818">
  <rdf:RDF>
   <cc:Work rdf:about="">
    <dc:format>image/svg+xml</dc:format>
    <dc:type rdf:resource="http://purl.org/dc/dcmitype/StillImage"/>
    <dc:title/>
   </cc:Work>
  </rdf:RDF>
 </metadata>
 <g id="layer1">
  <rect id="rect1373-5" x="4" y="4" width="40" height="40" ry="8" fill="#484847" fill-rule="evenodd" style="paint-order:stroke fill markers"/>
  <path id="rect1038" d="m6 12v1h36v-1zm0 2v1h36v-1zm0 2v1h36v-1zm0 2v1h36v-1zm0 2v1h36v-1zm0 2v1h36v-1zm0 2v1h36v-1zm0 2v1h36v-1zm0 2v1h36v-1zm0 2v1h36v-1zm0 2v1h36v-1z" fill-rule="evenodd" opacity=".25" style="paint-order:normal"/>
  <path id="rect1157" d="m12 5c-3.878 0-7 3.122-7 7l10 10-10 10v4c0 1.4323 0.42764 2.7604 1.1602 3.8672 0.26813 0.078135 0.54582 0.13281 0.83984 0.13281h11v3h1v-4l1-1h1.6094c-0.37756 0.4181-0.60938 0.93412-0.60938 1.5 0 1.385 1.338 2.5 3 2.5s3-1.115 3-2.5c0-0.56588-0.23182-1.0819-0.60938-1.5h1.6094l1 1v4h1v-3h11c0.29402 0 0.57172-0.05468 0.83984-0.13281 0.73251-1.1068 1.1602-2.4349 1.1602-3.8672v-4l-10-10 10-10c0-3.878-3.122-7-7-7h-7l-5 5-5-5zm12 28 4 4h-8z" fill-rule="evenodd" opacity=".25" style="paint-order:normal"/>
  <path id="rect1473-6" d="m12 4c-3.8146 0-6.9825 2.6448-7.793 6.207l10.793 10.793-10.797 11.777c0.80465 3.5702 3.9767 6.2227 7.7969 6.2227h6l6-6 6 6h6c3.8202 0 6.9922-2.6525 7.7969-6.2227l-10.797-11.777 10.793-10.793c-0.81045-3.5622-3.9784-6.207-7.793-6.207h-6l-6 6-6-6h-6z" fill="#767674" fill-rule="evenodd" style="paint-order:normal"/>
  <rect id="rect1155" x="22" y="38" width="4" height="3" rx="2" ry="1.5" fill="#cbcbcb" fill-rule="evenodd" style="paint-order:normal"/>
  <path id="path1305" d="m21 37 3-3 3 3s-1.9459-1-3-1-3 1-3 1z" fill="#fff" opacity=".25"/>
  <rect id="rect1307" x="18" y="14" width="12" height="12.071" rx="6" ry="5.5714" fill="#4e4e4d" fill-rule="evenodd" style="paint-order:normal"/>
  <rect id="rect1317" x="20" y="16" width="8" height="8.1" ry="4" fill="#84ce57" fill-rule="evenodd" style="paint-order:normal"/>
  <path id="rect817" d="m12 4c-4.432 0-8 3.568-8 8v24c0 4.432 3.568 8 8 8h24c4.432 0 8-3.568 8-8v-24c0-4.432-3.568-8-8-8h-24zm0 1h24c3.878 0 7 3.122 7 7v24c0 3.878-3.122 7-7 7h-24c-3.878 0-7-3.122-7-7v-24c0-3.878 3.122-7 7-7z" fill-rule="evenodd" opacity=".3" style="paint-order:stroke fill markers"/>
 </g>
</svg>
