<?xml version="1.0" encoding="UTF-8"?>
<!-- Created with Inkscape (http://www.inkscape.org/) -->
<svg id="SVGRoot" width="48px" height="48px" version="1.1" viewBox="0 0 48 48" xml:space="preserve" xmlns="http://www.w3.org/2000/svg" xmlns:cc="http://creativecommons.org/ns#" xmlns:dc="http://purl.org/dc/elements/1.1/" xmlns:rdf="http://www.w3.org/1999/02/22-rdf-syntax-ns#"><defs><style>.cls-1{fill:none;stroke:#fff;stroke-linecap:round;stroke-linejoin:round;}</style><style>.cls-1{fill:none;stroke:#fff;stroke-linecap:round;stroke-linejoin:round;}</style><style>.cls-1{fill:none;stroke:#fff;stroke-linecap:round;stroke-linejoin:round;}</style><style>.cls-1{fill:none;stroke:#fff;stroke-linecap:round;stroke-linejoin:round;}</style><style>.cls-1{fill:none;stroke:#fff;stroke-linecap:round;stroke-linejoin:round;}</style><style>.cls-1{fill:none;stroke:#fff;stroke-linecap:round;stroke-linejoin:round;}</style><style>.a{fill:none;stroke:#b1b5bd;stroke-linecap:round;stroke-linejoin:round;isolation:isolate;opacity:0.63;}</style><style>.cls-1{fill:none;stroke:#fff;stroke-linecap:round;stroke-linejoin:round;}</style><style>.cls-1{fill:none;stroke:#fff;stroke-linecap:round;stroke-linejoin:round;}</style><style>.cls-1{fill:none;stroke:#fff;stroke-linecap:round;stroke-linejoin:round;}</style><style>.cls-1{fill:none;stroke:#fff;stroke-linecap:round;stroke-linejoin:round;}</style><style>.a{fill:none;stroke:#b1b5bd;stroke-linecap:round;stroke-linejoin:round;isolation:isolate;opacity:0.63;}</style></defs><metadata><rdf:RDF><cc:Work rdf:about=""><dc:format>image/svg+xml</dc:format><dc:type rdf:resource="http://purl.org/dc/dcmitype/StillImage"/></cc:Work></rdf:RDF></metadata><rect x="4" y="4" width="40" height="40" ry="8" fill="#85c2f1" fill-rule="evenodd" style="paint-order:stroke fill markers"/><path d="m12 4c-4.432 0-8 3.568-8 8v24c0 4.432 3.568 8 8 8h24c4.432 0 8-3.568 8-8v-24c0-4.432-3.568-8-8-8zm0 1h24c3.878 0 7 3.122 7 7v24c0 3.878-3.122 7-7 7h-24c-3.878 0-7-3.122-7-7v-24c0-3.878 3.122-7 7-7z" fill-rule="evenodd" opacity=".3" style="paint-order:stroke fill markers"/><g stroke-linecap="round"><g stroke-linejoin="round"><path d="m11 35s7-1 15-1c6.0828 0 11 1.0885 11 1.0885s-3.0002-6.0885-12-6.0885c-9.0001 0-14 6-14 6z" fill="#96d56b" stop-color="#000000"/><path d="m25 28c-9.4445 0-14.768 6.3594-14.768 6.3594a1.0001 1.0001 0 0 0 0.9082 1.6309s6.9426-0.99023 14.859-0.99023c5.9635 0 10.783 1.0645 10.783 1.0645a1.0001 1.0001 0 0 0 1.1133-1.418s-0.86364-1.7334-2.8906-3.3789c-2.027-1.6455-5.2804-3.2676-10.006-3.2676zm0 2c4.2745 0 7.0211 1.4215 8.7441 2.8203 0.38603 0.31338 0.53644 0.55098 0.81836 0.8418-2.0426-0.31914-4.8676-0.66211-8.5625-0.66211-5.2105 0-9.1713 0.35403-11.914 0.65234 2.156-1.6336 5.7192-3.6523 10.914-3.6523z" fill="#4e4e4e" stop-color="#000000"/><path d="m11 25s9.0816-0.01361 15-1c6-1 11-3 11-3s-3 8-9 8h-8c-5 0-9-4-9-4z" fill="#f97263" stop-color="#000000"/><path d="m36.629 20.072s-4.9174 1.9621-10.793 2.9414c-5.7562 0.95936-14.838 0.98633-14.838 0.98633a1.0001 1.0001 0 0 0-0.70508 1.707s4.1737 4.293 9.707 4.293h8c3.4444 0 5.9548-2.2724 7.5508-4.4004s2.3848-4.248 2.3848-4.248a1.0001 1.0001 0 0 0-1.3066-1.2793zm-1.7793 2.7285c-0.34495 0.65439-0.30204 0.8018-0.90039 1.5996-1.404 1.872-3.3937 3.5996-5.9492 3.5996h-8c-2.4926 0-4.5693-1.0479-6.1094-2.0684 2.9481-0.05479 7.8497-0.20803 12.273-0.94531 3.7897-0.63161 6.651-1.499 8.6855-2.1855z" fill="#4e4e4e" stop-color="#000000"/></g><g stroke-width="4"><rect x="18" y="12" width="14" height="14" ry="7" fill="#4e4e4e"/><rect x="20" y="14" width="10" height="10" ry="5" fill="#FFE7C7"/><rect x="26" y="18" width="2" height="2" ry="1" fill="#4e4e4e"/></g></g><path d="m19 21s2.3167-2.6584 5-4c2-1 6-1 6-1s-2.5963-3-5-3c-5 0-6 8-6 8z" fill="#4e4e4e"/></svg>
