<?xml version="1.0" encoding="UTF-8"?>
<!-- Created with Inkscape (http://www.inkscape.org/) -->
<svg id="SVGRoot" width="48px" height="48px" version="1.1" viewBox="0 0 48 48" xmlns="http://www.w3.org/2000/svg" xmlns:cc="http://creativecommons.org/ns#" xmlns:dc="http://purl.org/dc/elements/1.1/" xmlns:rdf="http://www.w3.org/1999/02/22-rdf-syntax-ns#">
 <defs id="defs815">
  <style id="style819">.cls-1{fill:none;stroke:#fff;stroke-linecap:round;stroke-linejoin:round;}</style>
 </defs>
 <metadata id="metadata818">
  <rdf:RDF>
   <cc:Work rdf:about="">
    <dc:format>image/svg+xml</dc:format>
    <dc:type rdf:resource="http://purl.org/dc/dcmitype/StillImage"/>
    <dc:title/>
   </cc:Work>
  </rdf:RDF>
 </metadata>
 <g id="layer1">
  <rect id="rect1373-5" x="4" y="4" width="40" height="40" ry="8" fill="#2b3661" fill-rule="evenodd" style="paint-order:stroke fill markers"/>
  <path id="rect817" d="m12 4c-4.432 0-8 3.568-8 8v24c0 4.432 3.568 8 8 8h24c4.432 0 8-3.568 8-8v-24c0-4.432-3.568-8-8-8h-24zm0 1h24c3.878 0 7 3.122 7 7v24c0 3.878-3.122 7-7 7h-24c-3.878 0-7-3.122-7-7v-24c0-3.878 3.122-7 7-7z" fill-rule="evenodd" opacity=".4" style="paint-order:stroke fill markers"/>
  <path id="path830" d="m27 31s-8-1-8-5c0-5 7-8 7-8h-5s0.47295-1.473 1-2c2-2 5-1 5-1s-1-3-3-3c-1.0541 0-3 1-3 1s-1.2546-1-2-1c-4 0-12 10-12 10l3-1-3 4 3-1-4 8 8 5 2 3 2-3z" fill="#943657"/>
  <path id="path830-8" d="m19 12c-4 0-12 10-12 10l3-1-3 4 3-1-4 8 0.77148 0.61719 0.48438-0.89258 3.6387-7.2773a1.0001 1.0001 0 0 0-1.1738-1.4082l1.0801-1.4395a1.0001 1.0001 0 0 0-0.66602-1.5898c0.7849-0.89947 0.92377-1.1542 2.0723-2.3027 1.2264-1.2264 2.5733-2.4449 3.8125-3.3301 1.2392-0.88514 2.3971-1.377 2.9805-1.377-0.07454 0 0.40705 0.13722 0.75586 0.35156 0.34881 0.21434 0.62109 0.42969 0.62109 0.42969a1.0001 1.0001 0 0 0 1.0801 0.10742s0.45098-0.22945 1.0234-0.46094c0.57246-0.23149 1.3087-0.42773 1.5195-0.42773 0.36771 0 0.70826 0.40416 1.043 0.77539-1.1664 0.03097-2.5736 0.34116-3.75 1.5176-0.48713 0.48713-0.70871 1.0341-0.91211 1.5137-0.2034 0.47958-0.33203 0.88672-0.33203 0.88672a1.0001 1.0001 0 0 0 0.95117 1.3066h1.4395c-0.27251 0.1887-0.2776 0.11864-0.55664 0.33789-1.8658 1.466-3.8828 3.6954-3.8828 6.6621 0 1.3333 0.69972 2.4401 1.5918 3.2207 0.89208 0.78057 1.9882 1.3142 3.0566 1.7148 1.1041 0.41403 1.3863 0.38445 2.1836 0.54688l1.3965 0.14844 0.77148-0.63086s-8-1-8-5c0-5 7-8 7-8h-5s0.47295-1.473 1-2c2-2 5-1 5-1s-1-3-3-3c-1.0541 0-3 1-3 1s-1.2546-1-2-1z" color="#000000" color-rendering="auto" dominant-baseline="auto" fill="#f68d59" image-rendering="auto" shape-rendering="auto" solid-color="#000000" style="font-feature-settings:normal;font-variant-alternates:normal;font-variant-caps:normal;font-variant-ligatures:normal;font-variant-numeric:normal;font-variant-position:normal;isolation:auto;mix-blend-mode:normal;shape-padding:0;text-decoration-color:#000000;text-decoration-line:none;text-decoration-style:solid;text-indent:0;text-orientation:mixed;text-transform:none;white-space:normal"/>
  <path id="path832" d="m16 16s1.0694-1.849 2-2c0.73573-0.11939 2 1 2 1s-1.0694 1.0191-2 1.1701c-0.73573 0.11939-2-0.1701-2-0.1701z" fill="#f68d59"/>
  <path id="path828-3-7" d="m25 6s8.3862 6.2619 6 17c-2 9-13 13-13 13l-2 4-2-4s-4.2907-1.5612-8-4.9258v1.416c3.2485 2.7194 6.6527 4.0541 7.2676 4.2832l1.8379 3.6738a1.0001 1.0001 0 0 0 0.68945 0.53125c-0.4642-0.014708-5.0094-0.24246-9.5742-3.3809 0.1589 0.57949 0.40121 1.1228 0.71484 1.6172 4.6882 2.713 9.0645 2.7852 9.0645 2.7852s8.9866-0.13626 15-8c13-17-6-28-6-28zm6.2637 7.1836c0.25213 0.34186 0.53437 0.61362 0.76953 0.98047 2.9688 4.6313 4.4659 10.998-1.8281 19.229-5.512 7.208-13.417 7.5696-14.01 7.5879a1.0001 1.0001 0 0 0 0.69922-0.5332l1.8379-3.6738c1.1043-0.41143 11.204-4.3777 13.244-13.557 0.87727-3.9477 0.32698-7.2954-0.71289-10.033z" fill="#729dec"/>
 </g>
</svg>
