<?xml version="1.0" encoding="UTF-8"?>
<!-- Created with Inkscape (http://www.inkscape.org/) -->
<svg id="SVGRoot" width="48px" height="48px" version="1.1" viewBox="0 0 48 48" xml:space="preserve" xmlns="http://www.w3.org/2000/svg" xmlns:cc="http://creativecommons.org/ns#" xmlns:dc="http://purl.org/dc/elements/1.1/" xmlns:rdf="http://www.w3.org/1999/02/22-rdf-syntax-ns#"><defs><style>.cls-1{fill:none;stroke:#fff;stroke-linecap:round;stroke-linejoin:round;}</style><style>.cls-1{fill:none;stroke:#fff;stroke-linecap:round;stroke-linejoin:round;}</style><style>.cls-1{fill:none;stroke:#fff;stroke-linecap:round;stroke-linejoin:round;}</style><style>.cls-1{fill:none;stroke:#fff;stroke-linecap:round;stroke-linejoin:round;}</style><style>.cls-1{fill:none;stroke:#fff;stroke-linecap:round;stroke-linejoin:round;}</style><style>.a{fill:none;stroke:#b1b5bd;stroke-linecap:round;stroke-linejoin:round;isolation:isolate;opacity:0.63;}</style><style>.a{fill:none;stroke:#b1b5bd;stroke-linecap:round;stroke-linejoin:round;isolation:isolate;opacity:0.63;}</style></defs><metadata><rdf:RDF><cc:Work rdf:about=""><dc:format>image/svg+xml</dc:format><dc:type rdf:resource="http://purl.org/dc/dcmitype/StillImage"/></cc:Work></rdf:RDF></metadata><rect x="4" y="4" width="40" height="40" ry="8" fill="#4e4e4e" fill-rule="evenodd" style="paint-order:stroke fill markers"/><path d="m12 4c-4.432 0-8 3.568-8 8v24c0 4.432 3.568 8 8 8h24c4.432 0 8-3.568 8-8v-24c0-4.432-3.568-8-8-8zm0 1h24c3.878 0 7 3.122 7 7v24c0 3.878-3.122 7-7 7h-24c-3.878 0-7-3.122-7-7v-24c0-3.878 3.122-7 7-7z" fill-rule="evenodd" opacity=".4" style="paint-order:stroke fill markers"/><path d="m22 16v1h-2v1h1v1h1v1h1v1h1v-1h1v1h1v1h-1v1h-1v1h2v-1h2v1h1v-2h2v-1h1v-1h1v-1h1v-1h2v-1h-9v-1zm11 4v1h2v-1zm-2 2v1h2v-1zm2 1v1h1v-1zm1 1v1h1v-1zm1 1v3h1v-3zm0 3h-1v2h1zm-1 2h-2v1h2zm-2 1h-1v1h1zm-3-7v1h1v-1zm1 1v1h2v-1zm2 1v1h1v-1zm-6-2v1h1v-1zm1 1v1h1v-1zm-3-1h-1v1h1zm0 1v2h1v-2zm-1-1v-1h-1v1zm-1-1v-1h-1v1zm-1-1v-1h-1v1zm-1 0h-1v-2h-1v-2h-2v1h-1v1h1v1h-1v1h1v1h-1v1h1v1h1v2h1v-1h1v-2h1zm0 2v1h1v-1zm1 1v1h1v-1zm-2 1v1h1v-1zm1 1v1h1v-1zm-1 0h-1v1h1zm-1 1h-1v-1h-2v-1h-2v1h1v1h1v1h1v1h1v-1h1zm0 1v1h1v1h1v1h4v-1h-1v-1h-1v-1zm5 1h1v1h2v-1h3v-1h-2v-1h1v-1h-2v1h-2v1h-1zm-4 1h-1v1h1zm-1 0v-1h-1v1zm-1 0h-2v1h2zm-2-2h-1v1h1zm-1 1h-1v1h1zm-1 0v-1h-1v1zm0-1h1v-1h-1zm0-1v-1h-1v1zm0-2v-1h-1v1zm2 0h1v-1h-1zm0-1v-1h-1v1zm-1-1v-1h-1v1zm-1-1v-1h-1v1zm0-1h1v-1h-1zm1-1h1v-1h-1zm0 1v1h1v-1zm4-4h1v-1h-1zm1 0v1h1v-1zm1 1v1h1v-1zm1 1v1h1v-1zm1 1v1h1v-1zm1 1v1h1v-1zm1 0h1v-1h-1zm5-4h2v2h-2z" fill="#f280be" stroke-width="1.2649" style="paint-order:stroke fill markers"/><rect x="30" y="18" width="1" height="1" fill="#f9f9f9" style="paint-order:stroke fill markers"/></svg>
