<?xml version="1.0" encoding="UTF-8"?>
<!-- Created with Inkscape (http://www.inkscape.org/) -->
<svg id="SVGRoot" width="48px" height="48px" version="1.1" viewBox="0 0 48 48" xmlns="http://www.w3.org/2000/svg" xmlns:cc="http://creativecommons.org/ns#" xmlns:dc="http://purl.org/dc/elements/1.1/" xmlns:rdf="http://www.w3.org/1999/02/22-rdf-syntax-ns#">
 <defs id="defs815">
  <style id="style819">.cls-1{fill:none;stroke:#fff;stroke-linecap:round;stroke-linejoin:round;}</style>
  <style id="style819-2">.cls-1{fill:none;stroke:#fff;stroke-linecap:round;stroke-linejoin:round;}</style>
  <style id="style819-5">.cls-1{fill:none;stroke:#fff;stroke-linecap:round;stroke-linejoin:round;}</style>
  <style id="style819-18">.cls-1{fill:none;stroke:#fff;stroke-linecap:round;stroke-linejoin:round;}</style>
  <style id="style819-0">.cls-1{fill:none;stroke:#fff;stroke-linecap:round;stroke-linejoin:round;}</style>
  <style id="style819-1">.cls-1{fill:none;stroke:#fff;stroke-linecap:round;stroke-linejoin:round;}</style>
  <style id="style819-7">.cls-1{fill:none;stroke:#fff;stroke-linecap:round;stroke-linejoin:round;}</style>
  <style id="style2">.a{fill:none;stroke:#b1b5bd;stroke-linecap:round;stroke-linejoin:round;isolation:isolate;opacity:0.63;}</style>
 </defs>
 <metadata id="metadata818">
  <rdf:RDF>
   <cc:Work rdf:about="">
    <dc:format>image/svg+xml</dc:format>
    <dc:type rdf:resource="http://purl.org/dc/dcmitype/StillImage"/>
    <dc:title/>
   </cc:Work>
  </rdf:RDF>
 </metadata>
 <g id="layer1">
  <rect id="rect1373-5" x="4" y="4" width="40" height="40" ry="20" fill="#efefef" fill-rule="evenodd" style="paint-order:stroke fill markers"/>
  <path id="rect845" d="m24 4c-11.08 0-20 8.92-20 20s8.92 20 20 20 20-8.92 20-20-8.92-20-20-20zm0 1c10.526 0 19 8.474 19 19s-8.474 19-19 19-19-8.474-19-19 8.474-19 19-19z" fill-rule="evenodd" opacity=".3" style="paint-order:stroke fill markers"/>
  <path id="path937" d="m15 31s3 2 9 2 9-2 9-2" fill="none" stroke="#4e4e4e" stroke-linecap="round" stroke-linejoin="round" stroke-width="2"/>
  <rect id="rect939" x="12" y="14" width="6" height="12" ry="3" fill="#4e4e4e" fill-rule="evenodd" style="paint-order:normal"/>
  <rect id="rect826" x="20" y="22" width="8" height="8" ry="4" fill="#f97263" fill-rule="evenodd" style="paint-order:stroke fill markers"/>
  <path id="rect914" d="m10 2c-3.324 0-6 2.676-6 6 0 0.81856 0.16471 1.597 0.45898 2.3066-1.4466 0.60117-2.459 2.0242-2.459 3.6934 0 2.216 1.784 4 4 4s4-1.784 4-4c2.6333 0 4.8544-1.6826 5.666-4.0332 0.11193 0.0093258 0.21957 0.033203 0.33398 0.033203 2.216 0 4-1.784 4-4s-1.784-4-4-4c-1.0217 0-1.941 0.39163-2.6465 1.0176-0.95616-0.64328-2.1095-1.0176-3.3535-1.0176z" fill="#f97263" fill-rule="evenodd" style="paint-order:stroke fill markers"/>
  <path id="rect914-7" d="m10 2c-3.324 0-6 2.676-6 6 0 0.81856 0.16471 1.597 0.45898 2.3066-1.4466 0.60117-2.459 2.0242-2.459 3.6934 0 2.216 1.784 4 4 4s4-1.784 4-4c2.6333 0 4.8544-1.6826 5.666-4.0332 0.11193 0.0093258 0.21957 0.033203 0.33398 0.033203 2.216 0 4-1.784 4-4s-1.784-4-4-4c-1.0217 0-1.941 0.39163-2.6465 1.0176-0.95616-0.64328-2.1095-1.0176-3.3535-1.0176zm0 1c1.0434 0 1.9987 0.31199 2.7949 0.84766a1.0001 1.0001 0 0 0 1.2227-0.082031c0.53786-0.47719 1.2163-0.76562 1.9824-0.76562 1.6793 0 3 1.3207 3 3s-1.3207 3-3 3c0.02471 0-0.05019-0.012649-0.25-0.029297a1.0001 1.0001 0 0 0-1.0293 0.66992c-0.67598 1.9578-2.5133 3.3594-4.7207 3.3594a1.0001 1.0001 0 0 0-1 1c0 1.6793-1.3207 3-3 3s-3-1.3207-3-3c0-1.2648 0.75894-2.3195 1.8418-2.7695a1.0001 1.0001 0 0 0 0.54102-1.3066c-0.24575-0.59265-0.38281-1.2394-0.38281-1.9238 0-2.7873 2.2127-5 5-5z" color="#000000" color-rendering="auto" dominant-baseline="auto" fill-rule="evenodd" image-rendering="auto" opacity=".3" shape-rendering="auto" solid-color="#000000" style="font-feature-settings:normal;font-variant-alternates:normal;font-variant-caps:normal;font-variant-ligatures:normal;font-variant-numeric:normal;font-variant-position:normal;isolation:auto;mix-blend-mode:normal;paint-order:stroke fill markers;shape-padding:0;text-decoration-color:#000000;text-decoration-line:none;text-decoration-style:solid;text-indent:0;text-orientation:mixed;text-transform:none;white-space:normal"/>
  <rect id="rect939-9" transform="scale(-1,1)" x="-36" y="14" width="6" height="12" ry="3" fill="#4e4e4e" fill-rule="evenodd" style="paint-order:normal"/>
  <path id="rect914-8" d="m38 2c3.324 0 6 2.676 6 6 0 0.81856-0.16471 1.597-0.45898 2.3066 1.4466 0.60117 2.459 2.0242 2.459 3.6934 0 2.216-1.784 4-4 4s-4-1.784-4-4c-2.6333 0-4.8544-1.6826-5.666-4.0332-0.11193 0.0093258-0.21957 0.033203-0.33398 0.033203-2.216 0-4-1.784-4-4s1.784-4 4-4c1.0217 0 1.941 0.39163 2.6465 1.0176 0.95616-0.64328 2.1095-1.0176 3.3535-1.0176z" fill="#f97263" fill-rule="evenodd" style="paint-order:stroke fill markers"/>
  <path id="rect914-7-7" d="m38 2c3.324 0 6 2.676 6 6 0 0.81856-0.16471 1.597-0.45898 2.3066 1.4466 0.60117 2.459 2.0242 2.459 3.6934 0 2.216-1.784 4-4 4s-4-1.784-4-4c-2.6333 0-4.8544-1.6826-5.666-4.0332-0.11193 0.0093258-0.21957 0.033203-0.33398 0.033203-2.216 0-4-1.784-4-4s1.784-4 4-4c1.0217 0 1.941 0.39163 2.6465 1.0176 0.95616-0.64328 2.1095-1.0176 3.3535-1.0176zm0 1c-1.0434 0-1.9987 0.31199-2.7949 0.84766a1.0001 1.0001 0 0 1-1.2227-0.082031c-0.53786-0.47719-1.2163-0.76562-1.9824-0.76562-1.6793 0-3 1.3207-3 3s1.3207 3 3 3c-0.02471 0 0.05019-0.012649 0.25-0.029297a1.0001 1.0001 0 0 1 1.0293 0.66992c0.67598 1.9578 2.5133 3.3594 4.7207 3.3594a1.0001 1.0001 0 0 1 1 1c0 1.6793 1.3207 3 3 3s3-1.3207 3-3c0-1.2648-0.75894-2.3195-1.8418-2.7695a1.0001 1.0001 0 0 1-0.54102-1.3066c0.24575-0.59265 0.38281-1.2394 0.38281-1.9238 0-2.7873-2.2127-5-5-5z" color="#000000" color-rendering="auto" dominant-baseline="auto" fill-rule="evenodd" image-rendering="auto" opacity=".3" shape-rendering="auto" solid-color="#000000" style="font-feature-settings:normal;font-variant-alternates:normal;font-variant-caps:normal;font-variant-ligatures:normal;font-variant-numeric:normal;font-variant-position:normal;isolation:auto;mix-blend-mode:normal;paint-order:stroke fill markers;shape-padding:0;text-decoration-color:#000000;text-decoration-line:none;text-decoration-style:solid;text-indent:0;text-orientation:mixed;text-transform:none;white-space:normal"/>
 </g>
</svg>
