<?xml version="1.0" encoding="UTF-8"?>
<!-- Created with Inkscape (http://www.inkscape.org/) -->
<svg id="SVGRoot" width="48px" height="48px" version="1.1" viewBox="0 0 48 48" xmlns="http://www.w3.org/2000/svg" xmlns:cc="http://creativecommons.org/ns#" xmlns:dc="http://purl.org/dc/elements/1.1/" xmlns:rdf="http://www.w3.org/1999/02/22-rdf-syntax-ns#">
 <defs id="defs815">
  <style id="style819">.cls-1{fill:none;stroke:#fff;stroke-linecap:round;stroke-linejoin:round;}</style>
  <style id="style819-7">.cls-1{fill:none;stroke:#fff;stroke-linecap:round;stroke-linejoin:round;}</style>
 </defs>
 <metadata id="metadata818">
  <rdf:RDF>
   <cc:Work rdf:about="">
    <dc:format>image/svg+xml</dc:format>
    <dc:type rdf:resource="http://purl.org/dc/dcmitype/StillImage"/>
    <dc:title/>
   </cc:Work>
  </rdf:RDF>
 </metadata>
 <g id="layer1">
  <path id="path819" d="m10 6v36h28v-26l-10-10z" fill="#efefef" stroke="#efefef" stroke-linecap="round" stroke-linejoin="round" stroke-width="8"/>
  <path id="path819-8" d="m10 2c-2.209 2.209e-4 -3.9998 1.791-4 4v36c2.209e-4 2.209 1.791 3.9998 4 4h28c2.209-2.21e-4 3.9998-1.791 4-4v-26c-2.04e-4 -1.0608-0.42173-2.0781-1.1719-2.8281l-10-10c-0.75005-0.75014-1.7673-1.1717-2.8281-1.1719zm0 1h18c0.79601 1.532e-4 1.5583 0.31601 2.1211 0.87891l10 10c0.5629 0.56283 0.87875 1.3251 0.87891 2.1211v26c-1.67e-4 1.6687-1.3313 2.9998-3 3h-28c-1.6687-1.67e-4 -2.9998-1.3313-3-3v-36c1.668e-4 -1.6687 1.3313-2.9998 3-3z" color="#000000" color-rendering="auto" dominant-baseline="auto" image-rendering="auto" opacity=".3" shape-rendering="auto" solid-color="#000000" style="font-feature-settings:normal;font-variant-alternates:normal;font-variant-caps:normal;font-variant-ligatures:normal;font-variant-numeric:normal;font-variant-position:normal;isolation:auto;mix-blend-mode:normal;shape-padding:0;text-decoration-color:#000000;text-decoration-line:none;text-decoration-style:solid;text-indent:0;text-orientation:mixed;text-transform:none;white-space:normal"/>
  <rect id="rect825-3" x="16" y="16" width="16" height="10" rx="8" ry="5" fill="#efefef" fill-rule="evenodd" style="paint-order:normal"/>
  <path id="path870" d="m34.274 15.959-8.0107 3.403s-2.4494-3.0307-7.3305-2.4606c-4.9184 0.5745-8.7572 3.9174-9.0044 10.68-0.16208 4.4356 3.9255 12.725 3.9255 12.725l7.7504-3.2473s4.1172 3.8657 7.435 3.194c8.1576-1.6514 9.3506-6.9362 9.0044-12.252-0.34496-5.2957-3.7697-12.043-3.7697-12.043zm-14.659 2.8273c2.0655-0.02487 4.3211 1.2366 5.8281 2.987 0.2193 0.25471 0.41879 0.51954 0.60332 0.79259 0.02626 0.03875 0.05141 0.07728 0.07689 0.11633 0.17487 0.26868 0.33576 0.54324 0.47122 0.82414l2e-3 2e-3c0.13028 0.27043 0.23453 0.54654 0.32335 0.82414 0.02263 0.07042 0.04334 0.14024 0.0631 0.21096 0.02725 0.09795 0.05727 0.19539 0.07887 0.29377 1.711 0.55678 3.2002 2.1153 3.4543 4.6195 0.13577 1.3384-1.4962 2.6861-2.8273 2.8805-1.4165 0.20692-2.4958-0.65992-1.7804-0.89117 1.0495-0.33924 3.0551-0.65425 3.1428-1.9894 0.07924-1.2071-0.76648-2.3344-1.8888-2.8726-0.0081 0.09231-0.02327 0.18375-0.03549 0.27603-0.04362 0.35986-0.1184 0.71413-0.22871 1.0627-0.50908 1.6087-1.7497 3.0103-4.095 3.3675 0.85083 1.9015 3.1893 3.4488 5.1992 3.403 2.2636-0.05158 4.5522-1.4779 5.1321-4.4519 0.70469-3.6137-3.6653-10.418-3.6653-10.418l3.3419-1.0371c0-1e-6 3.566 7.3647 3.2039 11.246-0.39523 4.2355-5.2638 7.0902-7.855 7.1214-3.1565 0.038-6.7616-2.9239-7.4468-6.0529-1.7117-0.55628-3.2021-2.1125-3.4562-4.6175-0.13577-1.3384 1.4981-2.6861 2.8293-2.8805 1.4165-0.20692 2.4939 0.65794 1.7784 0.8892-1.0495 0.33923-3.0532 0.65622-3.1408 1.9913-0.07934 1.2086 0.76829 2.3352 1.8928 2.8726 0.162-2.1122 1.3692-4.2491 4.3474-4.7063-0.04038-0.08836-0.08531-0.17561-0.1321-0.26222-0.05097-0.09636-0.09751-0.19388-0.15576-0.28786-0.11559-0.18271-0.24608-0.3585-0.38644-0.53036-0.02731-0.03395-0.05263-0.06906-0.08084-0.10252-0.1683-0.19705-0.34974-0.38719-0.54417-0.56586-1.095-1.0062-2.5628-1.6845-3.8939-1.6542-2.2636 0.05158-4.5502 1.4759-5.1301 4.4499-0.70472 3.6137 3.6652 10.42 3.6652 10.42l-3.3419 1.0371s-3.566-7.3667-3.2039-11.248c0.39518-4.2355 5.2637-7.0883 7.8549-7.1195zm5.7039 7.5158c-0.04785 8e-3 -0.09625 0.0032-0.14393 0.0138-2.0812 0.46118-2.7332 1.914-2.7228 3.3202 0.04859-0.0081 0.09749-0.0011 0.1459-0.01183 1.3812-0.30607 2.1218-1.0538 2.4704-1.9302 0.06659-0.16737 0.11976-0.34003 0.1597-0.51459 0.03815-0.16674 0.06318-0.33497 0.07887-0.50473 0.0045-0.05525 0.0057-0.11029 0.0079-0.16562 0.0036-0.06896 0.0038-0.13815 4e-3 -0.20702z" fill="#6c91ba"/>
 </g>
</svg>
