<?xml version="1.0" encoding="UTF-8"?>
<!-- Created with Inkscape (http://www.inkscape.org/) -->
<svg id="SVGRoot" width="48px" height="48px" version="1.1" viewBox="0 0 48 48" xmlns="http://www.w3.org/2000/svg" xmlns:cc="http://creativecommons.org/ns#" xmlns:dc="http://purl.org/dc/elements/1.1/" xmlns:rdf="http://www.w3.org/1999/02/22-rdf-syntax-ns#">
 <defs id="defs815">
  <style id="style819">.cls-1{fill:none;stroke:#fff;stroke-linecap:round;stroke-linejoin:round;}</style>
  <style id="style819-1">.cls-1{fill:none;stroke:#fff;stroke-linecap:round;stroke-linejoin:round;}</style>
  <style id="style819-9">.cls-1{fill:none;stroke:#fff;stroke-linecap:round;stroke-linejoin:round;}</style>
 </defs>
 <metadata id="metadata818">
  <rdf:RDF>
   <cc:Work rdf:about="">
    <dc:format>image/svg+xml</dc:format>
    <dc:type rdf:resource="http://purl.org/dc/dcmitype/StillImage"/>
    <dc:title/>
   </cc:Work>
  </rdf:RDF>
 </metadata>
 <g id="layer1" fill-rule="evenodd">
  <rect id="rect820-0" x="6" y="2" width="36" height="44" ry="4" fill="#efefef" style="paint-order:stroke fill markers"/>
  <path id="rect926" d="m10 2c-2.216 0-4 1.784-4 4v36c0 2.216 1.784 4 4 4h28c2.216 0 4-1.784 4-4v-36c0-2.216-1.784-4-4-4h-28zm0 1h28c1.662 0 3 1.338 3 3v36c0 1.662-1.338 3-3 3h-28c-1.662 0-3-1.338-3-3v-36c0-1.662 1.338-3 3-3z" opacity=".3" style="paint-order:stroke fill markers"/>
  <path id="rect839" d="m24 10c-7.756 0-14 6.244-14 14s6.244 14 14 14h16v-2h-16c-6.648 0-12-5.352-12-12s5.352-12 12-12z" fill="#c184ed" opacity=".5" style="paint-order:stroke fill markers"/>
  <path id="rect850" d="m24 14c-5.54 0-10 4.46-10 10s4.46 10 10 10h16v-2h-16c-4.432 0-8-3.568-8-8s3.568-8 8-8c1.0519 0 2.0523 0.20641 2.9707 0.57227l0.74414-1.8574c-1.1482-0.45743-2.3998-0.71484-3.7148-0.71484z" fill="#c184ed" opacity=".75" style="paint-order:stroke fill markers"/>
  <path id="rect861" d="m24 18c-3.324 0-6 2.676-6 6s2.676 6 6 6h16v-2h-16c-2.216 0-4-1.784-4-4s1.784-4 4-4c1.108 0 2.1071 0.44692 2.8301 1.1699l1.416-1.416c-1.0845-1.0845-2.5841-1.7539-4.2461-1.7539z" fill="#c184ed" style="paint-order:stroke fill markers"/>
 </g>
</svg>
