<?xml version="1.0" encoding="UTF-8"?>
<!-- Created with Inkscape (http://www.inkscape.org/) -->
<svg id="SVGRoot" width="48px" height="48px" version="1.1" viewBox="0 0 48 48" xmlns="http://www.w3.org/2000/svg" xmlns:cc="http://creativecommons.org/ns#" xmlns:dc="http://purl.org/dc/elements/1.1/" xmlns:rdf="http://www.w3.org/1999/02/22-rdf-syntax-ns#">
 <defs id="defs815">
  <style id="style819">.cls-1{fill:none;stroke:#fff;stroke-linecap:round;stroke-linejoin:round;}</style>
 </defs>
 <metadata id="metadata818">
  <rdf:RDF>
   <cc:Work rdf:about="">
    <dc:format>image/svg+xml</dc:format>
    <dc:type rdf:resource="http://purl.org/dc/dcmitype/StillImage"/>
    <dc:title/>
   </cc:Work>
  </rdf:RDF>
 </metadata>
 <g id="layer1">
  <path id="path832" d="m10 2a4.0004 4.0004 0 0 0-4 4v36a4.0004 4.0004 0 0 0 4 4h28a4.0004 4.0004 0 0 0 4-4v-26a4.0004 4.0004 0 0 0-1.1719-2.8281l-10-10a4.0004 4.0004 0 0 0-2.8281-1.1719z" color="#000000" color-rendering="auto" dominant-baseline="auto" fill="#efefef" image-rendering="auto" shape-rendering="auto" solid-color="#000000" style="font-feature-settings:normal;font-variant-alternates:normal;font-variant-caps:normal;font-variant-ligatures:normal;font-variant-numeric:normal;font-variant-position:normal;isolation:auto;mix-blend-mode:normal;shape-padding:0;text-decoration-color:#000000;text-decoration-line:none;text-decoration-style:solid;text-indent:0;text-orientation:mixed;text-transform:none;white-space:normal"/>
  <path id="path819-8" d="m10 2c-2.209 2.209e-4 -3.9998 1.791-4 4v36c2.209e-4 2.209 1.791 3.9998 4 4h28c2.209-2.21e-4 3.9998-1.791 4-4v-26c-2.04e-4 -1.0608-0.42173-2.0781-1.1719-2.8281l-10-10c-0.75005-0.75014-1.7673-1.1717-2.8281-1.1719zm0 1h18c0.79601 1.532e-4 1.5583 0.31601 2.1211 0.87891l10 10c0.5629 0.56283 0.87875 1.3251 0.87891 2.1211v26c-1.67e-4 1.6687-1.3313 2.9998-3 3h-28c-1.6687-1.67e-4 -2.9998-1.3313-3-3v-36c1.668e-4 -1.6687 1.3313-2.9998 3-3z" color="#000000" color-rendering="auto" dominant-baseline="auto" image-rendering="auto" opacity=".3" shape-rendering="auto" solid-color="#000000" style="font-feature-settings:normal;font-variant-alternates:normal;font-variant-caps:normal;font-variant-ligatures:normal;font-variant-numeric:normal;font-variant-position:normal;isolation:auto;mix-blend-mode:normal;shape-padding:0;text-decoration-color:#000000;text-decoration-line:none;text-decoration-style:solid;text-indent:0;text-orientation:mixed;text-transform:none;white-space:normal"/>
  <path id="path845" d="m12.391 22.003-2.3463 10.501 1.7896 0.03953 0.75537-2.9436h2.9831s3.3567 0.41041 4.0569-3.9372c0.59355-3.6854-3.0226-3.6594-3.0226-3.6594zm1.537 1.3922h2.0422s2.1841 0.29441 1.8698 2.2672c-0.39125 2.4558-2.545 2.7042-2.545 2.7042l-2.2672-0.03953z" fill="#7788bc"/>
  <path id="path850" d="m19.63 28.966 2.4284-10.98h1.9489l-0.75788 3.6894h3.0487c2.796 0 2.4262 2.2274 2.4262 2.2274l-1.1739 5.0629h-1.8296l1.1341-4.9038s0.17863-1.0739-1.1932-1.0739h-2.7305l-1.2728 5.9777z" fill="#7788bc"/>
  <path id="path845-4" d="m30.729 21.969-2.3463 10.501 1.7896 0.03953 0.75537-2.9436h2.9831s3.3567 0.41041 4.0569-3.9372c0.59355-3.6854-3.0226-3.6594-3.0226-3.6594zm1.537 1.3922h2.0422s2.1841 0.29441 1.8698 2.2672c-0.39125 2.4558-2.545 2.7042-2.545 2.7042l-2.2672-0.03953z" fill="#7788bc"/>
 </g>
</svg>
