<?xml version="1.0" encoding="UTF-8"?>
<!-- Created with Inkscape (http://www.inkscape.org/) -->
<svg id="SVGRoot" width="48px" height="48px" version="1.1" viewBox="0 0 48 48" xmlns="http://www.w3.org/2000/svg" xmlns:cc="http://creativecommons.org/ns#" xmlns:dc="http://purl.org/dc/elements/1.1/" xmlns:rdf="http://www.w3.org/1999/02/22-rdf-syntax-ns#">
 <defs id="defs815">
  <style id="style819">.cls-1{fill:none;stroke:#fff;stroke-linecap:round;stroke-linejoin:round;}</style>
 </defs>
 <metadata id="metadata818">
  <rdf:RDF>
   <cc:Work rdf:about="">
    <dc:format>image/svg+xml</dc:format>
    <dc:type rdf:resource="http://purl.org/dc/dcmitype/StillImage"/>
    <dc:title/>
   </cc:Work>
  </rdf:RDF>
 </metadata>
 <g id="layer1">
  <path id="path819" d="m10 6v36h28v-26l-10-10z" fill="#d35244" stroke="#d35244" stroke-linecap="round" stroke-linejoin="round" stroke-width="8"/>
  <path id="path819-8" d="m10 2c-2.209 2.209e-4 -3.9998 1.791-4 4v36c2.209e-4 2.209 1.791 3.9998 4 4h28c2.209-2.21e-4 3.9998-1.791 4-4v-26c-2.04e-4 -1.0608-0.42173-2.0781-1.1719-2.8281l-10-10c-0.75005-0.75014-1.7673-1.1717-2.8281-1.1719zm0 1h18c0.79601 1.532e-4 1.5583 0.31601 2.1211 0.87891l10 10c0.5629 0.56283 0.87875 1.3251 0.87891 2.1211v26c-1.67e-4 1.6687-1.3313 2.9998-3 3h-28c-1.6687-1.67e-4 -2.9998-1.3313-3-3v-36c1.668e-4 -1.6687 1.3313-2.9998 3-3z" color="#000000" color-rendering="auto" dominant-baseline="auto" image-rendering="auto" opacity=".3" shape-rendering="auto" solid-color="#000000" style="font-feature-settings:normal;font-variant-alternates:normal;font-variant-caps:normal;font-variant-ligatures:normal;font-variant-numeric:normal;font-variant-position:normal;isolation:auto;mix-blend-mode:normal;shape-padding:0;text-decoration-color:#000000;text-decoration-line:none;text-decoration-style:solid;text-indent:0;text-orientation:mixed;text-transform:none;white-space:normal"/>
  <path id="rect856" d="m12 6c-1.108 0-2 0.892-2 2v32c0 1.108 0.892 2 2 2h24c1.108 0 2-0.892 2-2v-23c-5.1e-5 -0.2652-0.10543-0.51952-0.29297-0.70703l-10-10c-0.18751-0.18754-0.44183-0.29292-0.70703-0.29297h-15z" fill="#efefef" fill-rule="evenodd" style="paint-order:stroke fill markers"/>
  <path id="path850" d="m22.965 17.97c-1.0008 0.02828-1.733 0.92103-1.7776 2.3671-0.04724 1.5302 1.1665 4.4479 1.1665 4.4479s-1.1687 3.3452-2.7993 6.5021c0 0-2.2562 0.67183-3.4708 1.4831-1.8299 1.2223-2.4607 2.4761-1.7792 3.5639 0.51429 0.82084 2.0673 0.9436 2.917 0.45748 2.4868-1.4228 4.3445-5.0485 4.3445-5.0485 1.963-0.76544 5.1322-1.2263 5.1322-1.2263s2.1303 1.8697 4.5196 2.0823c1.9916 0.1772 2.6588-0.40173 2.8294-1.4256 0.16145-0.96866-0.76321-1.7108-2.1006-2.1103-1.5622-0.46667-4.8983 0.11363-4.8983 0.11363-1.4597-1.3408-2.8294-3.4798-2.8294-3.4798s1.1089-2.9554 0.99144-5.075c-0.0948-1.7101-1.0723-2.685-2.2455-2.6519zm-0.05433 1.0035c0.44295-0.01751 0.67292 0.69561 0.65945 1.1289-0.03966 1.2764-0.65945 3.3883-0.65945 3.3883s-0.55574-1.9994-0.6187-3.2274c-0.02433-0.4745 0.13328-1.2706 0.6187-1.2898zm0.9009 8.1505c0.5912 1.1525 1.0047 1.632 1.6328 2.3376-1.2147 0.20661-2.0384 0.39901-3.003 0.79837 0.7424-1.4189 0.97275-2.1549 1.3702-3.1359zm6.1886 2.8762c0.42658 0.0023 0.89657 0.01958 1.3928 0.0605 0.39189 0.03232 0.82342 0.50455 0.75905 0.88396-0.10692 0.63022-0.8119 0.61062-1.254 0.51356-1.9891-0.43673-3.0618-1.34-3.0618-1.34s0.88423-0.12504 2.164-0.11806zm-11.117 2.5988s-0.95674 1.4381-2.3616 2.8511c-0.315 0.31681-0.92615 0.69944-1.2827 0.42796-0.2847-0.21679-0.1716-0.80958 0.08752-1.0552 1.4252-1.3507 3.5568-2.2239 3.5568-2.2239z" fill="#d35244"/>
 </g>
</svg>
