<?xml version="1.0" encoding="UTF-8"?>
<!-- Created with Inkscape (http://www.inkscape.org/) -->
<svg id="SVGRoot" width="48px" height="48px" version="1.1" viewBox="0 0 48 48" xmlns="http://www.w3.org/2000/svg" xmlns:cc="http://creativecommons.org/ns#" xmlns:dc="http://purl.org/dc/elements/1.1/" xmlns:rdf="http://www.w3.org/1999/02/22-rdf-syntax-ns#" xmlns:xlink="http://www.w3.org/1999/xlink">
 <defs id="defs815">
  <style id="style819">.cls-1{fill:none;stroke:#fff;stroke-linecap:round;stroke-linejoin:round;}</style>
  <style id="style819-1">.cls-1{fill:none;stroke:#fff;stroke-linecap:round;stroke-linejoin:round;}</style>
  <style id="style819-7">.cls-1{fill:none;stroke:#fff;stroke-linecap:round;stroke-linejoin:round;}</style>
  <style id="style819-78">.cls-1{fill:none;stroke:#fff;stroke-linecap:round;stroke-linejoin:round;}</style>
  <style id="style2">.a{fill:none;stroke:#b1b5bd;stroke-linecap:round;stroke-linejoin:round;isolation:isolate;opacity:0.63;}</style>
  <style id="style819-9">.cls-1{fill:none;stroke:#fff;stroke-linecap:round;stroke-linejoin:round;}</style>
  <style id="style819-1-8">.cls-1{fill:none;stroke:#fff;stroke-linecap:round;stroke-linejoin:round;}</style>
  <style id="style819-7-4">.cls-1{fill:none;stroke:#fff;stroke-linecap:round;stroke-linejoin:round;}</style>
  <style id="style2-5">.a{fill:none;stroke:#b1b5bd;stroke-linecap:round;stroke-linejoin:round;isolation:isolate;opacity:0.63;}</style>
 </defs>
 <metadata id="metadata818">
  <rdf:RDF>
   <cc:Work rdf:about="">
    <dc:format>image/svg+xml</dc:format>
    <dc:type rdf:resource="http://purl.org/dc/dcmitype/StillImage"/>
    <dc:title/>
   </cc:Work>
  </rdf:RDF>
 </metadata>
 <g id="layer1">
  <rect id="rect820-0" x="6" y="2" width="36" height="44" ry="4" fill="#4e4e4e" fill-rule="evenodd" style="paint-order:stroke fill markers"/>
  <path id="rect926" d="m10 2c-2.216 0-4 1.784-4 4v36c0 2.216 1.784 4 4 4h28c2.216 0 4-1.784 4-4v-36c0-2.216-1.784-4-4-4h-28zm0 1h28c1.662 0 3 1.338 3 3v36c0 1.662-1.338 3-3 3h-28c-1.662 0-3-1.338-3-3v-36c0-1.662 1.338-3 3-3z" fill-rule="evenodd" opacity=".4" style="paint-order:stroke fill markers"/>
  <path id="path828" d="m13 4-4 4 2 3-3 3 16 17 16-17-3-3 2-3-4-4h-11z" fill="#7c8487"/>
  <path id="path830" d="m16 4 5 15h6l5-15h-8z" fill="#fff"/>
  <path id="path859" d="m18 4s0.85426 2.5294 4.873 2.9395l-4.6113 3.8437 0.48828 1.4668 5.25-5.25 5.25 5.25 0.48828-1.4668-4.6113-3.8437c4.0188-0.41001 4.873-2.9395 4.873-2.9395h-0.9043c-0.9485 0.87281-2.6418 2-5.0957 2s-4.1472-1.1272-5.0957-2z" opacity=".25"/>
  <path id="path833" d="m24 7-3 3 2 2-2 7 3 9 3-9-2-7 2-2z" fill="#d35244"/>
  <path id="path909" d="M 23,12 22.625,13.3125 24,15 25.375,13.3125 25,12 24,13 Z" opacity=".25"/>
  <path id="rect931" d="m10 40c-1.108 0-2 0.892-2 2s0.892 2 2 2h2v-4z" fill="#f85e4d" fill-rule="evenodd" style="paint-order:stroke fill markers"/>
  <path id="rect931-7-7" d="m36 40v4h2c1.108 0 2-0.892 2-2s-0.892-2-2-2z" fill="#f280a3" fill-rule="evenodd" style="paint-order:stroke fill markers"/>
  <rect id="rect982" x="12" y="40" width="4" height="4" fill="#f68d59" fill-rule="evenodd" style="paint-order:stroke fill markers"/>
  <rect id="rect984" x="16" y="40" width="4" height="4" fill="#ffdd75" fill-rule="evenodd" style="paint-order:stroke fill markers"/>
  <rect id="rect986" x="20" y="40" width="4" height="4" fill="#96d56b" fill-rule="evenodd" style="paint-order:stroke fill markers"/>
  <rect id="rect988" x="24" y="40" width="4" height="4" fill="#96dfd3" fill-rule="evenodd" style="paint-order:stroke fill markers"/>
  <rect id="rect986-2" x="28" y="40" width="4" height="4" fill="#729dec" fill-rule="evenodd" style="paint-order:stroke fill markers"/>
  <rect id="rect988-7" x="32" y="40" width="4" height="4" fill="#b072dd" fill-rule="evenodd" style="paint-order:stroke fill markers"/>
 </g>
</svg>
