<?xml version="1.0" encoding="UTF-8"?>
<!-- Created with Inkscape (http://www.inkscape.org/) -->
<svg id="SVGRoot" width="48px" height="48px" version="1.1" viewBox="0 0 48 48" xmlns="http://www.w3.org/2000/svg" xmlns:cc="http://creativecommons.org/ns#" xmlns:dc="http://purl.org/dc/elements/1.1/" xmlns:rdf="http://www.w3.org/1999/02/22-rdf-syntax-ns#">
 <defs id="defs815">
  <style id="style819">.cls-1{fill:none;stroke:#fff;stroke-linecap:round;stroke-linejoin:round;}</style>
  <style id="style819-1">.cls-1{fill:none;stroke:#fff;stroke-linecap:round;stroke-linejoin:round;}</style>
 </defs>
 <metadata id="metadata818">
  <rdf:RDF>
   <cc:Work rdf:about="">
    <dc:format>image/svg+xml</dc:format>
    <dc:type rdf:resource="http://purl.org/dc/dcmitype/StillImage"/>
    <dc:title/>
   </cc:Work>
  </rdf:RDF>
 </metadata>
 <g id="layer1">
  <rect id="rect820-0" x="6" y="2" width="36" height="44" ry="4" fill="#efefef" fill-rule="evenodd" style="paint-order:stroke fill markers"/>
  <path id="rect816" d="m20 2v24c0 1.108 0.892 2 2 2h4c1.108 0 2-0.892 2-2v-24h-6z" fill="#4e4e4e" fill-rule="evenodd" style="paint-order:normal"/>
  <path id="rect825" d="m24 2v2h-2v-2zm0 2h2v2h-2zm0 2v2h-2v-2zm0 2h2v2h-2zm0 2v2h-2v-2zm0 2h2v2h-2zm0 2v2h-2v-2zm0 2h2v2h-2zm0 2v2h-2v-2zm0 2h2v2h-2zm0 2v2h-2v-2zm0 2h2v1s0 1-1 1h-1z" fill="#808080" fill-rule="evenodd" style="paint-order:normal"/>
  <rect id="rect859" x="20" y="4" width="8" height="12" ry="2" fill="#efefef" fill-rule="evenodd" style="paint-order:normal"/>
  <rect id="rect857" x="22" y="2" width="4" height="8" fill="#efefef" fill-rule="evenodd" style="paint-order:normal"/>
  <rect id="rect861" x="22" y="12" width="4" height="2" ry=".92781" fill="#4e4e4e" fill-rule="evenodd" style="paint-order:normal"/>
  <path id="rect868" d="m22 3v6c0 0.554 0.446 1 1 1h2c0.554 0 1-0.446 1-1v-6h-1v0.5 0.5 4.5c0 0.277-0.223 0.5-0.5 0.5h-1c-0.277 0-0.5-0.223-0.5-0.5v-4.5-0.5-0.5h-1z" fill-rule="evenodd" opacity=".25" style="paint-order:normal"/>
  <path id="rect926" d="m10 2c-2.216 0-4 1.784-4 4v36c0 2.216 1.784 4 4 4h28c2.216 0 4-1.784 4-4v-36c0-2.216-1.784-4-4-4h-28zm0 1h28c1.662 0 3 1.338 3 3v36c0 1.662-1.338 3-3 3h-28c-1.662 0-3-1.338-3-3v-36c0-1.662 1.338-3 3-3z" fill-rule="evenodd" opacity=".3" style="paint-order:stroke fill markers"/>
  <path id="path862" d="m18 32v2h-6v6h4v-2h-2v-2h4v6h-6c-2 0-2-2-2-2v-6s0-2 2-2h6z" opacity=".4"/>
 </g>
</svg>
