<?xml version="1.0" encoding="UTF-8"?>
<!-- Created with Inkscape (http://www.inkscape.org/) -->
<svg id="SVGRoot" width="48px" height="48px" version="1.1" viewBox="0 0 48 48" xmlns="http://www.w3.org/2000/svg" xmlns:cc="http://creativecommons.org/ns#" xmlns:dc="http://purl.org/dc/elements/1.1/" xmlns:rdf="http://www.w3.org/1999/02/22-rdf-syntax-ns#">
 <defs id="defs815">
  <style id="style819">.cls-1{fill:none;stroke:#fff;stroke-linecap:round;stroke-linejoin:round;}</style>
  <style id="style819-1">.cls-1{fill:none;stroke:#fff;stroke-linecap:round;stroke-linejoin:round;}</style>
  <style id="style819-9">.cls-1{fill:none;stroke:#fff;stroke-linecap:round;stroke-linejoin:round;}</style>
 </defs>
 <metadata id="metadata818">
  <rdf:RDF>
   <cc:Work rdf:about="">
    <dc:format>image/svg+xml</dc:format>
    <dc:type rdf:resource="http://purl.org/dc/dcmitype/StillImage"/>
    <dc:title/>
   </cc:Work>
  </rdf:RDF>
 </metadata>
 <g id="layer1" fill-rule="evenodd">
  <rect id="rect820-0" x="6" y="2" width="36" height="44" ry="4" fill="#efefef" style="paint-order:stroke fill markers"/>
  <path id="rect856" d="m24 12c-6.648 0-12 5.352-12 12s5.352 12 12 12 12-5.352 12-12-5.352-12-12-12zm0 2c5.54 0 10 4.46 10 10 0 1.9815-0.57799 3.8186-1.5645 5.3691l-5.0664-3.2246c0.39422-0.62001 0.63086-1.3523 0.63086-2.1445 0-2.216-1.784-4-4-4v-6zm-8.4355 4.6309 5.0664 3.2246c-0.39422 0.62001-0.63086 1.3523-0.63086 2.1445 0 2.216 1.784 4 4 4v6c-5.54 0-10-4.46-10-10 0-1.9815 0.57799-3.8186 1.5645-5.3691zm8.4355 3.3691c1.108 0 2 0.892 2 2s-0.892 2-2 2-2-0.892-2-2 0.892-2 2-2z" opacity=".4" style="paint-order:stroke fill markers"/>
  <path id="rect926" d="m10 2c-2.216 0-4 1.784-4 4v36c0 2.216 1.784 4 4 4h28c2.216 0 4-1.784 4-4v-36c0-2.216-1.784-4-4-4h-28zm0 1h28c1.662 0 3 1.338 3 3v36c0 1.662-1.338 3-3 3h-28c-1.662 0-3-1.338-3-3v-36c0-1.662 1.338-3 3-3z" opacity=".3" style="paint-order:stroke fill markers"/>
 </g>
</svg>
