<?xml version="1.0" encoding="UTF-8"?>
<!-- Created with Inkscape (http://www.inkscape.org/) -->
<svg id="SVGRoot" width="48px" height="48px" version="1.1" viewBox="0 0 48 48" xmlns="http://www.w3.org/2000/svg" xmlns:cc="http://creativecommons.org/ns#" xmlns:dc="http://purl.org/dc/elements/1.1/" xmlns:rdf="http://www.w3.org/1999/02/22-rdf-syntax-ns#">
 <defs id="defs815">
  <style id="style819">.cls-1{fill:none;stroke:#fff;stroke-linecap:round;stroke-linejoin:round;}</style>
  <style id="style819-7">.cls-1{fill:none;stroke:#fff;stroke-linecap:round;stroke-linejoin:round;}</style>
  <style id="style819-8">.cls-1{fill:none;stroke:#fff;stroke-linecap:round;stroke-linejoin:round;}</style>
 </defs>
 <metadata id="metadata818">
  <rdf:RDF>
   <cc:Work rdf:about="">
    <dc:format>image/svg+xml</dc:format>
    <dc:type rdf:resource="http://purl.org/dc/dcmitype/StillImage"/>
    <dc:title/>
   </cc:Work>
  </rdf:RDF>
 </metadata>
 <g id="layer1">
  <path id="path819" d="m10 6v36h28v-26l-10-10z" fill="#efefef" stroke="#efefef" stroke-linecap="round" stroke-linejoin="round" stroke-width="8"/>
  <path id="path819-8" d="m10 2c-2.209 2.209e-4 -3.9998 1.791-4 4v36c2.209e-4 2.209 1.791 3.9998 4 4h28c2.209-2.21e-4 3.9998-1.791 4-4v-26c-2.04e-4 -1.0608-0.42173-2.0781-1.1719-2.8281l-10-10c-0.75005-0.75014-1.7673-1.1717-2.8281-1.1719zm0 1h18c0.79601 1.532e-4 1.5583 0.31601 2.1211 0.87891l10 10c0.5629 0.56283 0.87875 1.3251 0.87891 2.1211v26c-1.67e-4 1.6687-1.3313 2.9998-3 3h-28c-1.6687-1.67e-4 -2.9998-1.3313-3-3v-36c1.668e-4 -1.6687 1.3313-2.9998 3-3z" color="#000000" color-rendering="auto" dominant-baseline="auto" image-rendering="auto" opacity=".3" shape-rendering="auto" solid-color="#000000" style="font-feature-settings:normal;font-variant-alternates:normal;font-variant-caps:normal;font-variant-ligatures:normal;font-variant-numeric:normal;font-variant-position:normal;isolation:auto;mix-blend-mode:normal;shape-padding:0;text-decoration-color:#000000;text-decoration-line:none;text-decoration-style:solid;text-indent:0;text-orientation:mixed;text-transform:none;white-space:normal"/>
  <path id="path830" d="m35.717 10.973c-0.75805 1.031-7.0152 9.4658-8.8281 13.545-3.2594 7.3337-4.8887 15.482-4.8887 15.482h0.28711c1.6227-5.0662 5.2852-13.852 5.2852-13.852s-0.11826-0.1698 0.21094-0.91016c0.26172-0.58859 0.75744-1.1017 1.0371-1.1641 0.03995-0.0089 0.073626-0.008637 0.10352 0.001953 0.23442 0.083076 0.068252 0.77222-0.16797 1.2676-0.42186 0.88464-1.0352 0.97266-1.0352 0.97266s-1.9049 4.2026-5.2695 13.684h0.36328s5.7034-8.1492 13.037-10.594c0-5.7399 2.5057-9.9856 4.1934-12.416 0-0.90217 0.025944-1.6209-0.54297-2.4707-1.8038 2.8343-5.2705 8.7831-5.5898 13.107-1.906 0.59994-3.6758 2.4922-3.6758 2.4922 2.8886-6.4071 6.843-13.116 8.7363-16.236-0.088421-0.092624-0.16767-0.18423-0.27148-0.28125-0.91649-0.85653-1.8917-1.6522-2.9844-2.6289z" fill="#488ec2"/>
  <path id="path832" d="m10 4c-2 0-2 2-2 2v13.766c0.52244 1.7912 1.1679 3.5702 2 5.2344 5 10 11 14 11 14s-2-5.9268-2-9c0-10 5-15.128 5-22 0-1.4484-0.46701-2.8892-0.94922-4h-13.051z" opacity=".2"/>
 </g>
</svg>
