<?xml version="1.0" encoding="UTF-8"?>
<!-- Created with Inkscape (http://www.inkscape.org/) -->
<svg id="SVGRoot" width="48px" height="48px" version="1.1" viewBox="0 0 48 48" xml:space="preserve" xmlns="http://www.w3.org/2000/svg" xmlns:cc="http://creativecommons.org/ns#" xmlns:dc="http://purl.org/dc/elements/1.1/" xmlns:rdf="http://www.w3.org/1999/02/22-rdf-syntax-ns#"><defs><style>.cls-1{fill:none;stroke:#fff;stroke-linecap:round;stroke-linejoin:round;}</style><style>.cls-1{fill:none;stroke:#fff;stroke-linecap:round;stroke-linejoin:round;}</style><style>.cls-1{fill:none;stroke:#fff;stroke-linecap:round;stroke-linejoin:round;}</style><style>.cls-1{fill:none;stroke:#fff;stroke-linecap:round;stroke-linejoin:round;}</style><style>.cls-1{fill:none;stroke:#fff;stroke-linecap:round;stroke-linejoin:round;}</style><style>.cls-1{fill:none;stroke:#fff;stroke-linecap:round;stroke-linejoin:round;}</style></defs><metadata><rdf:RDF><cc:Work rdf:about=""><dc:format>image/svg+xml</dc:format><dc:type rdf:resource="http://purl.org/dc/dcmitype/StillImage"/></cc:Work></rdf:RDF></metadata><path d="m10 2a4.0004 4.0004 0 0 0-4 4v36a4.0004 4.0004 0 0 0 4 4h28a4.0004 4.0004 0 0 0 4-4v-26a4.0004 4.0004 0 0 0-1.1719-2.8281l-10-10a4.0004 4.0004 0 0 0-2.8281-1.1719z" color="#000000" color-rendering="auto" dominant-baseline="auto" fill="#dadada" image-rendering="auto" shape-rendering="auto" solid-color="#000000" style="font-feature-settings:normal;font-variant-alternates:normal;font-variant-caps:normal;font-variant-ligatures:normal;font-variant-numeric:normal;font-variant-position:normal;isolation:auto;mix-blend-mode:normal;shape-padding:0;text-decoration-color:#000000;text-decoration-line:none;text-decoration-style:solid;text-indent:0;text-orientation:mixed;text-transform:none;white-space:normal"/><path d="m10 2c-2.209 2.209e-4 -3.9998 1.791-4 4v36c2.209e-4 2.209 1.791 3.9998 4 4h28c2.209-2.21e-4 3.9998-1.791 4-4v-26c-2.04e-4 -1.0608-0.42173-2.0781-1.1719-2.8281l-10-10c-0.75005-0.75014-1.7673-1.1717-2.8281-1.1719zm0 1h18c0.79601 1.532e-4 1.5583 0.31601 2.1211 0.87891l10 10c0.5629 0.56283 0.87875 1.3251 0.87891 2.1211v26c-1.67e-4 1.6687-1.3313 2.9998-3 3h-28c-1.6687-1.67e-4 -2.9998-1.3313-3-3v-36c1.668e-4 -1.6687 1.3313-2.9998 3-3z" color="#000000" color-rendering="auto" dominant-baseline="auto" image-rendering="auto" opacity=".3" shape-rendering="auto" solid-color="#000000" style="font-feature-settings:normal;font-variant-alternates:normal;font-variant-caps:normal;font-variant-ligatures:normal;font-variant-numeric:normal;font-variant-position:normal;isolation:auto;mix-blend-mode:normal;shape-padding:0;text-decoration-color:#000000;text-decoration-line:none;text-decoration-style:solid;text-indent:0;text-orientation:mixed;text-transform:none;white-space:normal"/><path d="m19.72 31.681 9.1375-4.0532s4.7198-1.8548 2.4979-6.5747c-2.0474-4.3493-7.2345-2.9928-7.2345-2.9928l-7.5173 3.2991s-1.4595 0.45516-0.70695 2.0737c0.69125 1.4868 2.4508 0.80122 2.4508 0.80122l5.42-2.4272s2.4738-0.99286 3.3698 0.68339c1.1718 2.1922-1.2254 2.8278-1.2254 2.8278l-5.3964 2.3565s-5.2542 2.5209-8.1535-2.0737c-3.2091-5.0855 1.7438-7.6351 1.7438-7.6351l7.3523-3.1577s9.1272-3.6675 13.856 4.9015c4.0548 7.3473-3.3934 10.934-3.3934 10.934l-6.2626 2.8749 1.1254 1.7438s0.81598 1.7135-0.98973 2.4979c-1.9278 0.83738-2.933-0.93689-2.933-0.93689z" fill="#4e4e4e" stroke-linecap="round" stroke-linejoin="round" stroke-width="1.5808" style="paint-order:stroke fill markers"/></svg>
