<?xml version="1.0" encoding="UTF-8"?>
<!-- Created with Inkscape (http://www.inkscape.org/) -->
<svg id="SVGRoot" width="48px" height="48px" version="1.1" viewBox="0 0 48 48" xml:space="preserve" xmlns="http://www.w3.org/2000/svg" xmlns:cc="http://creativecommons.org/ns#" xmlns:dc="http://purl.org/dc/elements/1.1/" xmlns:rdf="http://www.w3.org/1999/02/22-rdf-syntax-ns#"><defs id="defs815"><style id="style819">.cls-1{fill:none;stroke:#fff;stroke-linecap:round;stroke-linejoin:round;}</style><style id="style819-1">.cls-1{fill:none;stroke:#fff;stroke-linecap:round;stroke-linejoin:round;}</style><style id="style819-12">.cls-1{fill:none;stroke:#fff;stroke-linecap:round;stroke-linejoin:round;}</style></defs><metadata id="metadata818"><rdf:RDF><cc:Work rdf:about=""><dc:format>image/svg+xml</dc:format><dc:type rdf:resource="http://purl.org/dc/dcmitype/StillImage"/><dc:title/></cc:Work></rdf:RDF></metadata><g id="layer1" fill-rule="evenodd"><rect id="rect820-0" x="6" y="2" width="36" height="44" ry="4" fill="#799959" style="paint-order:stroke fill markers"/><path id="rect926" d="m10 2c-2.216 0-4 1.784-4 4v36c0 2.216 1.784 4 4 4h28c2.216 0 4-1.784 4-4v-36c0-2.216-1.784-4-4-4h-28zm0 1h28c1.662 0 3 1.338 3 3v36c0 1.662-1.338 3-3 3h-28c-1.662 0-3-1.338-3-3v-36c0-1.662 1.338-3 3-3z" opacity=".3" style="paint-order:stroke fill markers"/><path id="rect917-7" d="m35 8h-4v32h4zm-6 0h-4v32h4zm-6 0h-4v32h4zm-6 0h-4v32h4z" opacity=".3" style="paint-order:stroke fill markers"/><path id="rect917" d="m8 13v4h32v-4zm0 6v4h32v-4zm0 6v4h32v-4zm0 6v4h32v-4z" opacity=".3" style="paint-order:stroke fill markers"/><rect id="rect830" x="10" y="10" width="28" height="28" ry="4" fill="#efefef" style="paint-order:stroke fill markers"/><rect id="rect828" x="12" y="12" width="24" height="24" ry="2" opacity=".4" style="paint-order:stroke fill markers"/><rect id="rect915" x="14" y="14" width="4" height="4" ry="1" fill="#efefef" style="paint-order:stroke fill markers"/><rect id="rect962" x="14" y="20" width="12" height="1" ry=".5" fill="#efefef" style="paint-order:stroke fill markers"/><rect id="rect964" x="14" y="22" width="8" height="1" ry=".5" fill="#efefef" style="paint-order:stroke fill markers"/><rect id="rect966" x="14" y="24" width="10" height="1" ry=".5" fill="#efefef" style="paint-order:stroke fill markers"/><rect id="rect968" x="14" y="26" width="4" height="1" ry=".5" fill="#efefef" style="paint-order:stroke fill markers"/></g></svg>
