<?xml version="1.0" encoding="UTF-8"?>
<!-- Created with Inkscape (http://www.inkscape.org/) -->
<svg id="SVGRoot" width="48px" height="48px" version="1.1" viewBox="0 0 48 48" xmlns="http://www.w3.org/2000/svg" xmlns:cc="http://creativecommons.org/ns#" xmlns:dc="http://purl.org/dc/elements/1.1/" xmlns:rdf="http://www.w3.org/1999/02/22-rdf-syntax-ns#">
 <defs id="defs815">
  <style id="style819">.cls-1{fill:none;stroke:#fff;stroke-linecap:round;stroke-linejoin:round;}</style>
  <style id="style819-1">.cls-1{fill:none;stroke:#fff;stroke-linecap:round;stroke-linejoin:round;}</style>
  <style id="style819-9">.cls-1{fill:none;stroke:#fff;stroke-linecap:round;stroke-linejoin:round;}</style>
 </defs>
 <metadata id="metadata818">
  <rdf:RDF>
   <cc:Work rdf:about="">
    <dc:format>image/svg+xml</dc:format>
    <dc:type rdf:resource="http://purl.org/dc/dcmitype/StillImage"/>
    <dc:title/>
   </cc:Work>
  </rdf:RDF>
 </metadata>
 <g id="layer1" fill-rule="evenodd">
  <rect id="rect820-0" x="6" y="2" width="36" height="44" ry="4" fill="#efefef" style="paint-order:stroke fill markers"/>
  <path id="rect926" d="m10 2c-2.216 0-4 1.784-4 4v36c0 2.216 1.784 4 4 4h28c2.216 0 4-1.784 4-4v-36c0-2.216-1.784-4-4-4h-28zm0 1h28c1.662 0 3 1.338 3 3v36c0 1.662-1.338 3-3 3h-28c-1.662 0-3-1.338-3-3v-36c0-1.662 1.338-3 3-3z" opacity=".3" style="paint-order:stroke fill markers"/>
  <path id="rect853" d="m24 12c-6.648 0-12 5.352-12 12s5.352 12 12 12 12-5.352 12-12-5.352-12-12-12zm-1 2.0488v0.95117c0 0.554 0.446 1 1 1s1-0.446 1-1v-0.95117c2.0171 0.19855 3.8529 0.99218 5.334 2.2031l-0.67773 0.67774c-0.39174 0.39174-0.39174 1.0223 0 1.4141s1.0223 0.39174 1.4141 0l0.67774-0.67773c1.2109 1.4811 2.0046 3.3169 2.2031 5.334h-0.95117c-0.554 0-1 0.446-1 1s0.446 1 1 1h0.95117c-0.19855 2.0171-0.99218 3.8529-2.2031 5.334l-0.67774-0.67773c-0.39174-0.39174-1.0223-0.39174-1.4141 0s-0.39174 1.0223 0 1.4141l0.67773 0.67774c-1.4811 1.2109-3.3169 2.0046-5.334 2.2031v-0.95117c0-0.554-0.446-1-1-1s-1 0.446-1 1v0.95117c-2.0171-0.19855-3.8529-0.99218-5.334-2.2031l0.69336-0.69336c0.38251-0.38251 0.38251-0.99835 0-1.3809l-0.033203-0.033203c-0.38251-0.38251-0.99835-0.38251-1.3809 0l-0.69336 0.69336c-1.2109-1.4811-2.0046-3.3169-2.2031-5.334h0.97461c0.54095 0 0.97656-0.43561 0.97656-0.97656v-0.046876c0-0.54095-0.43561-0.97656-0.97656-0.97656h-0.97461c0.19855-2.0171 0.99218-3.8529 2.2031-5.334l0.67774 0.67773c0.39174 0.39174 1.0223 0.39174 1.4141 0s0.39174-1.0223 0-1.4141l-0.67773-0.67774c1.4811-1.2109 3.3169-2.0046 5.334-2.2031z" opacity=".4" style="paint-order:stroke fill markers"/>
  <path id="rect868" d="m24 17-1.6914 3.3848c-1.3628 0.63626-2.3086 2.0068-2.3086 3.6152 0 2.216 1.784 4 4 4s4-1.784 4-4c0-1.6085-0.94582-2.979-2.3086-3.6152l-1.6914-3.3848zm0 5c1.108 0 2 0.892 2 2s-0.892 2-2 2-2-0.892-2-2 0.892-2 2-2z" opacity=".4" style="paint-order:stroke fill markers"/>
 </g>
</svg>
