<?xml version="1.0" encoding="UTF-8"?>
<!-- Created with Inkscape (http://www.inkscape.org/) -->
<svg id="SVGRoot" width="48px" height="48px" version="1.1" viewBox="0 0 48 48" xmlns="http://www.w3.org/2000/svg" xmlns:cc="http://creativecommons.org/ns#" xmlns:dc="http://purl.org/dc/elements/1.1/" xmlns:rdf="http://www.w3.org/1999/02/22-rdf-syntax-ns#">
 <defs id="defs815">
  <style id="style819">.cls-1{fill:none;stroke:#fff;stroke-linecap:round;stroke-linejoin:round;}</style>
  <style id="style819-9">.cls-1{fill:none;stroke:#fff;stroke-linecap:round;stroke-linejoin:round;}</style>
  <style id="style819-8">.cls-1{fill:none;stroke:#fff;stroke-linecap:round;stroke-linejoin:round;}</style>
  <style id="style819-1">.cls-1{fill:none;stroke:#fff;stroke-linecap:round;stroke-linejoin:round;}</style>
 </defs>
 <metadata id="metadata818">
  <rdf:RDF>
   <cc:Work rdf:about="">
    <dc:format>image/svg+xml</dc:format>
    <dc:type rdf:resource="http://purl.org/dc/dcmitype/StillImage"/>
    <dc:title/>
   </cc:Work>
  </rdf:RDF>
 </metadata>
 <g id="layer1" fill-rule="evenodd">
  <rect id="rect820" x="6" y="2" width="36" height="44" ry="4" fill="#efefef" style="paint-order:stroke fill markers"/>
  <path id="rect926" d="m10 2c-2.216 0-4 1.784-4 4v36c0 2.216 1.784 4 4 4h28c2.216 0 4-1.784 4-4v-36c0-2.216-1.784-4-4-4h-28zm0 1h28c1.662 0 3 1.338 3 3v36c0 1.662-1.338 3-3 3h-28c-1.662 0-3-1.338-3-3v-36c0-1.662 1.338-3 3-3z" opacity=".3" style="paint-order:stroke fill markers"/>
  <path id="rect841-2" d="m33 6c-0.04518 0.0015-0.0902 0.0061-0.13476 0.01367l-12 2c-0.48228 0.08025-0.83584 0.49742-0.83594 0.98633v15.174c-0.30482-0.10514-0.62732-0.17383-0.96875-0.17383h-2.0625c-1.6448 0-2.9688 1.324-2.9688 2.9688v0.0625c0 1.6448 1.324 2.9688 2.9688 2.9688h2.0625c1.6448 0 2.9688-1.324 2.9688-2.9688v-13.184l10-1.668v10.002c-0.31399-0.11095-0.64708-0.18164-1-0.18164h-2c-1.662 0-3 1.338-3 3s1.338 3 3 3h2c1.662 0 3-1.338 3-3v-13.994c6e-6 -2e-3 6e-6 -0.0039 0-0.0059v-4c1.84e-4 -0.56391-0.46563-1.0165-1.0293-1z" fill="#627ad4" style="paint-order:stroke fill markers"/>
  <rect id="rect956" x="10" y="32" width="28" height="2" ry="1" opacity=".3" style="paint-order:stroke fill markers"/>
  <rect id="rect958" x="10" y="36" width="28" height="2" ry="1" opacity=".3" style="paint-order:stroke fill markers"/>
  <rect id="rect960" x="10" y="40" width="28" height="2" ry="1" opacity=".3" style="paint-order:stroke fill markers"/>
 </g>
</svg>
