<?xml version="1.0" encoding="UTF-8"?>
<!-- Created with Inkscape (http://www.inkscape.org/) -->
<svg id="SVGRoot" width="48px" height="48px" version="1.1" viewBox="0 0 48 48" xmlns="http://www.w3.org/2000/svg" xmlns:cc="http://creativecommons.org/ns#" xmlns:dc="http://purl.org/dc/elements/1.1/" xmlns:rdf="http://www.w3.org/1999/02/22-rdf-syntax-ns#">
 <defs id="defs815">
  <style id="style819">.cls-1{fill:none;stroke:#fff;stroke-linecap:round;stroke-linejoin:round;}</style>
  <style id="style819-1">.cls-1{fill:none;stroke:#fff;stroke-linecap:round;stroke-linejoin:round;}</style>
 </defs>
 <metadata id="metadata818">
  <rdf:RDF>
   <cc:Work rdf:about="">
    <dc:format>image/svg+xml</dc:format>
    <dc:type rdf:resource="http://purl.org/dc/dcmitype/StillImage"/>
    <dc:title/>
   </cc:Work>
  </rdf:RDF>
 </metadata>
 <g id="layer1">
  <rect id="rect820" x="6" y="6" width="36" height="40" ry="4" fill="#dd5c89" fill-rule="evenodd" style="paint-order:stroke fill markers"/>
  <rect id="rect820-7" x="6" y="2" width="36" height="22" ry="4" fill="#e88fae" fill-rule="evenodd" style="paint-order:stroke fill markers"/>
  <path id="path894" d="m19 3v27.5l10-1.5v-26z" opacity=".25"/>
  <rect id="rect844" x="20" y="3" width="8" height="21" fill="#faced3" fill-rule="evenodd" style="paint-order:normal"/>
  <path id="rect846" d="m20 24h8v4l-8 1z" fill="#e88fae" fill-rule="evenodd" style="paint-order:normal"/>
  <path id="path904" d="m32 40.799s-4.9998-2.1987-4.9998-5.7987c0-2.9368 3-4 5-4 2 0 4.7019 0.90583 4.9574 3 0.24169 1.9811-0.85548 3-2.5742 3-1.2 0-2.3834-1.0013-2.3834-1.0013" fill="none" opacity=".3" stroke="#000" stroke-linecap="round" stroke-linejoin="round" stroke-width="2"/>
  <path id="rect926" d="m10 2c-2.216 0-4 1.784-4 4v36c0 2.216 1.784 4 4 4h28c2.216 0 4-1.784 4-4v-36c0-2.216-1.784-4-4-4h-28zm0 1h28c1.662 0 3 1.338 3 3v36c0 1.662-1.338 3-3 3h-28c-1.662 0-3-1.338-3-3v-36c0-1.662 1.338-3 3-3z" fill-rule="evenodd" opacity=".3" style="paint-order:stroke fill markers"/>
 </g>
</svg>
