<?xml version="1.0" encoding="UTF-8"?>
<!-- Created with Inkscape (http://www.inkscape.org/) -->
<svg id="SVGRoot" width="48px" height="48px" version="1.1" viewBox="0 0 48 48" xmlns="http://www.w3.org/2000/svg" xmlns:cc="http://creativecommons.org/ns#" xmlns:dc="http://purl.org/dc/elements/1.1/" xmlns:rdf="http://www.w3.org/1999/02/22-rdf-syntax-ns#">
 <metadata id="metadata818">
  <rdf:RDF>
   <cc:Work rdf:about="">
    <dc:format>image/svg+xml</dc:format>
    <dc:type rdf:resource="http://purl.org/dc/dcmitype/StillImage"/>
    <dc:title/>
   </cc:Work>
  </rdf:RDF>
 </metadata>
 <g id="layer1">
  <path id="path819" d="m10 6v36h28v-26l-10-10z" fill="#efefef" stroke="#efefef" stroke-linecap="round" stroke-linejoin="round" stroke-width="8"/>
  <path id="rect829-3" d="m35.5 9.3c-0.277 0-0.5 0.223-0.5 0.5v6.2h-19.5c-0.277 0-0.5 0.223-0.5 0.5s0.223 0.5 0.5 0.5h19.5v22h-22v-4.5c0-0.277-0.223-0.5-0.5-0.5s-0.5 0.223-0.5 0.5v4.5h-4.5c-0.277 0-0.5 0.223-0.5 0.5s0.223 0.5 0.5 0.5h4.5v4.5c0 0.277 0.223 0.5 0.5 0.5s0.5-0.223 0.5-0.5v-4.5h22v4.5c0 0.277 0.223 0.5 0.5 0.5s0.5-0.223 0.5-0.5v-4.5h4.5c0.277 0 0.5-0.223 0.5-0.5s-0.223-0.5-0.5-0.5h-4.5v-22h4.5c0.277 0 0.5-0.223 0.5-0.5s-0.223-0.5-0.5-0.5h-4.5v-6.2c0-0.277-0.223-0.5-0.5-0.5z" fill-rule="evenodd" opacity=".1" style="paint-order:stroke fill markers"/>
  <path id="rect818" d="m25 16-11 22h-2v2h8v-2h-2l3-6h6.1816l0.81836 6h-2v2h10v-2h-2l-3-22h-2zm0.85742 6.2852 1.0508 7.7148h-4.9082z" fill="#46589d" fill-rule="evenodd" style="paint-order:stroke fill markers"/>
  <path id="path819-8" d="m10 2c-2.209 2.209e-4 -3.9998 1.791-4 4v36c2.209e-4 2.209 1.791 3.9998 4 4h28c2.209-2.21e-4 3.9998-1.791 4-4v-26c-2.04e-4 -1.0608-0.42173-2.0781-1.1719-2.8281l-10-10c-0.75005-0.75014-1.7673-1.1717-2.8281-1.1719zm0 1h18c0.79601 1.532e-4 1.5583 0.31601 2.1211 0.87891l10 10c0.5629 0.56283 0.87875 1.3251 0.87891 2.1211v26c-1.67e-4 1.6687-1.3313 2.9998-3 3h-28c-1.6687-1.67e-4 -2.9998-1.3313-3-3v-36c1.668e-4 -1.6687 1.3313-2.9998 3-3z" color="#000000" color-rendering="auto" dominant-baseline="auto" image-rendering="auto" opacity=".3" shape-rendering="auto" solid-color="#000000" style="font-feature-settings:normal;font-variant-alternates:normal;font-variant-caps:normal;font-variant-ligatures:normal;font-variant-numeric:normal;font-variant-position:normal;isolation:auto;mix-blend-mode:normal;shape-padding:0;text-decoration-color:#000000;text-decoration-line:none;text-decoration-style:solid;text-indent:0;text-orientation:mixed;text-transform:none;white-space:normal"/>
 </g>
</svg>
