<?xml version="1.0" encoding="UTF-8"?>
<!-- Created with Inkscape (http://www.inkscape.org/) -->
<svg id="SVGRoot" width="48px" height="48px" version="1.1" viewBox="0 0 48 48" xml:space="preserve" xmlns="http://www.w3.org/2000/svg" xmlns:cc="http://creativecommons.org/ns#" xmlns:dc="http://purl.org/dc/elements/1.1/" xmlns:rdf="http://www.w3.org/1999/02/22-rdf-syntax-ns#"><defs><style>.cls-1{fill:none;stroke:#fff;stroke-linecap:round;stroke-linejoin:round;}</style><style>.cls-1{fill:none;stroke:#fff;stroke-linecap:round;stroke-linejoin:round;}</style><style>.cls-1{fill:none;stroke:#fff;stroke-linecap:round;stroke-linejoin:round;}</style><style>.cls-1{fill:none;stroke:#fff;stroke-linecap:round;stroke-linejoin:round;}</style><style>.cls-1{fill:none;stroke:#fff;stroke-linecap:round;stroke-linejoin:round;}</style><style>.cls-1{fill:none;stroke:#fff;stroke-linecap:round;stroke-linejoin:round;}</style><style>.cls-1{fill:none;stroke:#fff;stroke-linecap:round;stroke-linejoin:round;}</style><style>.cls-1{fill:none;stroke:#fff;stroke-linecap:round;stroke-linejoin:round;}</style><style>.cls-1{fill:none;stroke:#fff;stroke-linecap:round;stroke-linejoin:round;}</style><style>.cls-1{fill:none;stroke:#fff;stroke-linecap:round;stroke-linejoin:round;}</style></defs><metadata><rdf:RDF><cc:Work rdf:about=""><dc:format>image/svg+xml</dc:format><dc:type rdf:resource="http://purl.org/dc/dcmitype/StillImage"/></cc:Work></rdf:RDF></metadata><path d="m10 2a4.0004 4.0004 0 0 0-4 4v36a4.0004 4.0004 0 0 0 4 4h28a4.0004 4.0004 0 0 0 4-4v-26a4.0004 4.0004 0 0 0-1.1719-2.8281l-10-10a4.0004 4.0004 0 0 0-2.8281-1.1719z" color="#000000" color-rendering="auto" dominant-baseline="auto" fill="#2fa3f7" image-rendering="auto" shape-rendering="auto" solid-color="#000000" style="font-feature-settings:normal;font-variant-alternates:normal;font-variant-caps:normal;font-variant-ligatures:normal;font-variant-numeric:normal;font-variant-position:normal;isolation:auto;mix-blend-mode:normal;shape-padding:0;text-decoration-color:#000000;text-decoration-line:none;text-decoration-style:solid;text-indent:0;text-orientation:mixed;text-transform:none;white-space:normal"/><path d="m10 2c-2.209 2.209e-4 -3.9998 1.791-4 4v36c2.209e-4 2.209 1.791 3.9998 4 4h28c2.209-2.21e-4 3.9998-1.791 4-4v-26c-2.04e-4 -1.0608-0.42173-2.0781-1.1719-2.8281l-10-10c-0.75005-0.75014-1.7673-1.1717-2.8281-1.1719zm0 1h18c0.79601 1.532e-4 1.5583 0.31601 2.1211 0.87891l10 10c0.5629 0.56283 0.87875 1.3251 0.87891 2.1211v26c-1.67e-4 1.6687-1.3313 2.9998-3 3h-28c-1.6687-1.67e-4 -2.9998-1.3313-3-3v-36c1.668e-4 -1.6687 1.3313-2.9998 3-3z" color="#000000" color-rendering="auto" dominant-baseline="auto" image-rendering="auto" opacity=".3" shape-rendering="auto" solid-color="#000000" style="font-feature-settings:normal;font-variant-alternates:normal;font-variant-caps:normal;font-variant-ligatures:normal;font-variant-numeric:normal;font-variant-position:normal;isolation:auto;mix-blend-mode:normal;shape-padding:0;text-decoration-color:#000000;text-decoration-line:none;text-decoration-style:solid;text-indent:0;text-orientation:mixed;text-transform:none;white-space:normal"/><path d="m12 6c-1.108 0-2 0.892-2 2v32c0 1.108 0.892 2 2 2h24c1.108 0 2-0.892 2-2v-23c-5.1e-5 -0.2652-0.10543-0.51952-0.29297-0.70703l-10-10c-0.18751-0.18754-0.44183-0.29292-0.70703-0.29297z" fill-rule="evenodd" opacity=".5" style="paint-order:stroke fill markers"/><path d="m18.755 18.221q2.8903 0 4.2726 1.2148 1.3823 1.1938 1.3823 3.3929 0 1.3195-0.54454 2.4714t-1.8221 1.864q-1.2566 0.7121-3.4139 0.7121h-1.3614v5.2988h-3.2044v-14.954zm-0.10472 2.618h-1.3823v4.3982h1.0681q1.3195 0 2.0735-0.5236 0.77493-0.5236 0.77493-1.7802 0-1.0053-0.62832-1.5499-0.60738-0.54454-1.9059-0.54454zm16.273 8.964q0 1.6336-1.1729 2.618-1.1519 0.96342-3.5605 0.96342-1.2148 0-2.1363-0.16755-0.92154-0.14661-1.7802-0.50266v-2.618q0.92154 0.43982 1.9687 0.69115 1.0681 0.25133 1.864 0.25133 0.96342 0 1.3823-0.27227 0.43982-0.27227 0.43982-0.73304 0-0.31416-0.23038-0.56549-0.20944-0.25133-0.77493-0.5236-0.54454-0.27227-1.5708-0.67021-1.5289-0.60738-2.3248-1.3404-0.77493-0.75398-0.77493-2.1782 0-1.5917 1.2357-2.4086 1.2566-0.81682 3.3092-0.81682 1.0891 0 2.0525 0.23038t1.9478 0.64926l-0.92154 2.1572q-0.79587-0.35605-1.6336-0.58643t-1.487-0.23038q-1.508 0-1.508 0.83776 0 0.31416 0.20944 0.54454 0.23038 0.20944 0.77493 0.46077 0.56549 0.25133 1.5708 0.64926 1.0263 0.41888 1.7174 0.8587 0.7121 0.43982 1.0472 1.0891 0.35605 0.62832 0.35605 1.6127z" fill="#2fa3f7" stroke-linecap="round" stroke-linejoin="round" stroke-width="3.1416" style="paint-order:stroke fill markers" aria-label="Ps"/><text x="11.85" y="35.946999" fill="#aa5ebb" font-family="Sans" font-size="13.333px" font-style="italic" opacity=".3" stroke-linecap="round" stroke-linejoin="round" stroke-width="2" style="paint-order:stroke fill markers" xml:space="preserve"><tspan x="11.85" y="35.946999"/></text></svg>
