<?xml version="1.0" encoding="UTF-8"?>
<!-- Created with Inkscape (http://www.inkscape.org/) -->
<svg id="SVGRoot" width="48px" height="48px" version="1.1" viewBox="0 0 48 48" xmlns="http://www.w3.org/2000/svg" xmlns:cc="http://creativecommons.org/ns#" xmlns:dc="http://purl.org/dc/elements/1.1/" xmlns:rdf="http://www.w3.org/1999/02/22-rdf-syntax-ns#">
 <defs id="defs815">
  <style id="style819">.cls-1{fill:none;stroke:#fff;stroke-linecap:round;stroke-linejoin:round;}</style>
  <style id="style819-1">.cls-1{fill:none;stroke:#fff;stroke-linecap:round;stroke-linejoin:round;}</style>
 </defs>
 <metadata id="metadata818">
  <rdf:RDF>
   <cc:Work rdf:about="">
    <dc:format>image/svg+xml</dc:format>
    <dc:type rdf:resource="http://purl.org/dc/dcmitype/StillImage"/>
    <dc:title/>
   </cc:Work>
  </rdf:RDF>
 </metadata>
 <g id="layer1">
  <rect id="rect820-0" transform="rotate(90)" x="6" y="-46" width="36" height="44" ry="4" fill="#efefef" fill-rule="evenodd" style="paint-order:stroke fill markers"/>
  <path id="rect926" d="m46 10c0-2.216-1.784-4-4-4h-36c-2.216 0-4 1.784-4 4v28c0 2.216 1.784 4 4 4h36c2.216 0 4-1.784 4-4zm-1 0v28c0 1.662-1.338 3-3 3h-36c-1.662 0-3-1.338-3-3v-28c0-1.662 1.338-3 3-3h36c1.662 0 3 1.338 3 3z" fill-rule="evenodd" opacity=".3" style="paint-order:stroke fill markers"/>
  <path id="path815" d="M 6,14 15.957031,22.849609 7,33 17.072266,23.841797 24,30 30.927734,23.841797 41,33 32.042969,22.849609 42,14 24,27 Z" opacity=".3"/>
 </g>
</svg>
