<?xml version="1.0" encoding="UTF-8"?>
<!-- Created with Inkscape (http://www.inkscape.org/) -->
<svg id="SVGRoot" width="48px" height="48px" version="1.1" viewBox="0 0 48 48" xmlns="http://www.w3.org/2000/svg" xmlns:cc="http://creativecommons.org/ns#" xmlns:dc="http://purl.org/dc/elements/1.1/" xmlns:rdf="http://www.w3.org/1999/02/22-rdf-syntax-ns#">
 <defs id="defs815">
  <style id="style819">.cls-1{fill:none;stroke:#fff;stroke-linecap:round;stroke-linejoin:round;}</style>
  <style id="style819-1">.cls-1{fill:none;stroke:#fff;stroke-linecap:round;stroke-linejoin:round;}</style>
 </defs>
 <metadata id="metadata818">
  <rdf:RDF>
   <cc:Work rdf:about="">
    <dc:format>image/svg+xml</dc:format>
    <dc:type rdf:resource="http://purl.org/dc/dcmitype/StillImage"/>
    <dc:title/>
   </cc:Work>
  </rdf:RDF>
 </metadata>
 <g id="layer1" fill-rule="evenodd">
  <rect id="rect820-0" x="6" y="2" width="36" height="44" ry="4" fill="#efefef" style="paint-order:stroke fill markers"/>
  <path id="rect926" d="m10 2c-2.216 0-4 1.784-4 4v36c0 2.216 1.784 4 4 4h28c2.216 0 4-1.784 4-4v-36c0-2.216-1.784-4-4-4h-28zm0 1h28c1.662 0 3 1.338 3 3v36c0 1.662-1.338 3-3 3h-28c-1.662 0-3-1.338-3-3v-36c0-1.662 1.338-3 3-3z" opacity=".3" style="paint-order:stroke fill markers"/>
  <path id="rect827" d="m12 12v2h2v4h-2v2h6v-2h-2v-4-2h-4zm11 0c-1.108 0-2 0.892-2 2v4c0 1.108 0.892 2 2 2h2c1.108 0 2-0.892 2-2v-4c0-1.108-0.892-2-2-2h-2zm7 0v2h2v4h-2v2h6v-2h-2v-4-2h-4zm-7 2h2v4h-2v-4zm-9 8c-1.108 0-2 0.892-2 2v4c0 1.108 0.892 2 2 2h2c1.108 0 2-0.892 2-2v-4c0-1.108-0.892-2-2-2h-2zm7 0v2h2v4h-2v2h6v-2h-2v-4-2h-4zm11 0c-1.108 0-2 0.892-2 2v4c0 1.108 0.892 2 2 2h2c1.108 0 2-0.892 2-2v-4c0-1.108-0.892-2-2-2h-2zm-18 2h2v4h-2v-4zm18 0h2v4h-2v-4zm-20 8v2h2v4h-2v2h6v-2h-2v-4-2h-4zm11 0c-1.108 0-2 0.892-2 2v4c0 1.108 0.892 2 2 2h2c1.108 0 2-0.892 2-2v-4c0-1.108-0.892-2-2-2h-2zm7 0v2h2v4h-2v2h6v-2h-2v-4-2h-4zm-7 2h2v4h-2v-4z" opacity=".3" style="paint-order:stroke fill markers"/>
 </g>
</svg>
