<?xml version="1.0" encoding="UTF-8"?>
<!-- Created with Inkscape (http://www.inkscape.org/) -->
<svg id="SVGRoot" width="48px" height="48px" version="1.1" viewBox="0 0 48 48" xmlns="http://www.w3.org/2000/svg" xmlns:cc="http://creativecommons.org/ns#" xmlns:dc="http://purl.org/dc/elements/1.1/" xmlns:rdf="http://www.w3.org/1999/02/22-rdf-syntax-ns#">
 <defs id="defs815">
  <style id="style819">.cls-1{fill:none;stroke:#fff;stroke-linecap:round;stroke-linejoin:round;}</style>
  <style id="style819-7">.cls-1{fill:none;stroke:#fff;stroke-linecap:round;stroke-linejoin:round;}</style>
  <style id="style819-9">.cls-1{fill:none;stroke:#fff;stroke-linecap:round;stroke-linejoin:round;}</style>
  <style id="style819-8">.cls-1{fill:none;stroke:#fff;stroke-linecap:round;stroke-linejoin:round;}</style>
  <style id="style819-1">.cls-1{fill:none;stroke:#fff;stroke-linecap:round;stroke-linejoin:round;}</style>
 </defs>
 <metadata id="metadata818">
  <rdf:RDF>
   <cc:Work rdf:about="">
    <dc:format>image/svg+xml</dc:format>
    <dc:type rdf:resource="http://purl.org/dc/dcmitype/StillImage"/>
    <dc:title/>
   </cc:Work>
  </rdf:RDF>
 </metadata>
 <g id="layer1" fill-rule="evenodd">
  <rect id="rect1373-5" x="4" y="4" width="40" height="40" ry="8" fill="#efefef" style="paint-order:stroke fill markers"/>
  <path id="rect817" d="m12 4c-4.432 0-8 3.568-8 8v24c0 4.432 3.568 8 8 8h24c4.432 0 8-3.568 8-8v-24c0-4.432-3.568-8-8-8h-24zm0 1h24c3.878 0 7 3.122 7 7v24c0 3.878-3.122 7-7 7h-24c-3.878 0-7-3.122-7-7v-24c0-3.878 3.122-7 7-7z" opacity=".3" style="paint-order:stroke fill markers"/>
  <path id="rect818" d="m22 10c-0.554 0-1 0.446-1 1v3.4551c-0.56634 0.17674-1.1074 0.40631-1.625 0.67578l-2.4453-2.4453c-0.39174-0.39174-1.0223-0.39174-1.4141 0l-2.8301 2.8301c-0.39174 0.39174-0.39174 1.0223 0 1.4141l2.4453 2.4453c-0.26947 0.51758-0.49904 1.0587-0.67578 1.625h-3.4551c-0.554 0-1 0.446-1 1v4c0 0.554 0.446 1 1 1h3.4551c0.17674 0.56634 0.40631 1.1074 0.67578 1.625l-2.4453 2.4453c-0.39174 0.39174-0.39174 1.0223 0 1.4141l2.8301 2.8301c0.39174 0.39174 1.0223 0.39174 1.4141 0l2.4453-2.4453c0.51758 0.26947 1.0587 0.49904 1.625 0.67578v3.4551c0 0.554 0.446 1 1 1h4c0.554 0 1-0.446 1-1v-3.4551c0.56634-0.17674 1.1074-0.40631 1.625-0.67578l2.4453 2.4453c0.39174 0.39174 1.0223 0.39174 1.4141 0l2.8301-2.8301c0.39174-0.39174 0.39174-1.0223 0-1.4141l-2.4453-2.4453c0.26947-0.51758 0.49904-1.0587 0.67578-1.625h3.4551c0.554 0 1-0.446 1-1v-4c0-0.554-0.446-1-1-1h-3.4551c-0.17674-0.56634-0.40631-1.1074-0.67578-1.625l2.4453-2.4453c0.39174-0.39174 0.39174-1.0223 0-1.4141l-2.8301-2.8301c-0.39174-0.39174-1.0223-0.39174-1.4141 0l-2.4453 2.4453c-0.51758-0.26947-1.0587-0.49904-1.625-0.67578v-3.4551c0-0.554-0.446-1-1-1h-4z" fill="#4f7fbe" style="paint-order:stroke fill markers"/>
  <rect id="rect858" x="18" y="18" width="12" height="12" ry="6" fill="#efefef" style="paint-order:stroke fill markers"/>
 </g>
</svg>
