<?xml version="1.0" encoding="UTF-8"?>
<!-- Created with Inkscape (http://www.inkscape.org/) -->
<svg id="SVGRoot" width="48px" height="48px" version="1.1" viewBox="0 0 48 48" xmlns="http://www.w3.org/2000/svg" xmlns:cc="http://creativecommons.org/ns#" xmlns:dc="http://purl.org/dc/elements/1.1/" xmlns:rdf="http://www.w3.org/1999/02/22-rdf-syntax-ns#">
 <defs id="defs815">
  <style id="style819">.cls-1{fill:none;stroke:#fff;stroke-linecap:round;stroke-linejoin:round;}</style>
  <style id="style819-1">.cls-1{fill:none;stroke:#fff;stroke-linecap:round;stroke-linejoin:round;}</style>
 </defs>
 <metadata id="metadata818">
  <rdf:RDF>
   <cc:Work rdf:about="">
    <dc:format>image/svg+xml</dc:format>
    <dc:type rdf:resource="http://purl.org/dc/dcmitype/StillImage"/>
    <dc:title/>
   </cc:Work>
  </rdf:RDF>
 </metadata>
 <g id="layer1">
  <rect id="rect820" x="6" y="6" width="36" height="40" ry="4" fill="#d35244" fill-rule="evenodd" style="paint-order:stroke fill markers"/>
  <rect id="rect820-7" x="6" y="2" width="36" height="22" ry="4" fill="#f97263" fill-rule="evenodd" style="paint-order:stroke fill markers"/>
  <path id="path894" d="m19 3v27.5l10-1.5v-26z" opacity=".25"/>
  <rect id="rect844" x="20" y="3" width="8" height="21" fill="#facece" fill-rule="evenodd" style="paint-order:normal"/>
  <path id="rect846" d="m20 24h8v4l-8 1z" fill="#f97263" fill-rule="evenodd" style="paint-order:normal"/>
  <path id="rect926" d="m10 2c-2.216 0-4 1.784-4 4v36c0 2.216 1.784 4 4 4h28c2.216 0 4-1.784 4-4v-36c0-2.216-1.784-4-4-4h-28zm0 1h28c1.662 0 3 1.338 3 3v36c0 1.662-1.338 3-3 3h-28c-1.662 0-3-1.338-3-3v-36c0-1.662 1.338-3 3-3z" fill-rule="evenodd" opacity=".3" style="paint-order:stroke fill markers"/>
  <path id="path834-5" d="m24 33c-11 0-12 8-12 8h4s-1-7 8-7c6.883 0 7.9119 4.0739 8.0176 6h-7.0176c0-0.554-0.446-1-1-1s-1 0.446-1 1 0.446 1 1 1h12s-1-8-12-8z" opacity=".4"/>
 </g>
</svg>
