<?xml version="1.0" encoding="UTF-8"?>
<!-- Created with Inkscape (http://www.inkscape.org/) -->
<svg id="SVGRoot" width="48px" height="48px" version="1.1" viewBox="0 0 48 48" xmlns="http://www.w3.org/2000/svg" xmlns:cc="http://creativecommons.org/ns#" xmlns:dc="http://purl.org/dc/elements/1.1/" xmlns:rdf="http://www.w3.org/1999/02/22-rdf-syntax-ns#" xmlns:xlink="http://www.w3.org/1999/xlink">
 <defs id="defs815">
  <style id="style819">.cls-1{fill:none;stroke:#fff;stroke-linecap:round;stroke-linejoin:round;}</style>
  <style id="style819-7">.cls-1{fill:none;stroke:#fff;stroke-linecap:round;stroke-linejoin:round;}</style>
  <style id="style819-48">.cls-1{fill:none;stroke:#fff;stroke-linecap:round;stroke-linejoin:round;}</style>
  <style id="style819-7-7">.cls-1{fill:none;stroke:#fff;stroke-linecap:round;stroke-linejoin:round;}</style>
  <style id="style819-0">.cls-1{fill:none;stroke:#fff;stroke-linecap:round;stroke-linejoin:round;}</style>
  <style id="style819-1">.cls-1{fill:none;stroke:#fff;stroke-linecap:round;stroke-linejoin:round;}</style>
  <style id="style819-9">.cls-1{fill:none;stroke:#fff;stroke-linecap:round;stroke-linejoin:round;}</style>
  <style id="style819-4">.cls-1{fill:none;stroke:#fff;stroke-linecap:round;stroke-linejoin:round;}</style>
  <style id="style819-5">.cls-1{fill:none;stroke:#fff;stroke-linecap:round;stroke-linejoin:round;}</style>
  <style id="style2">.a{fill:none;stroke:#b1b5bd;stroke-linecap:round;stroke-linejoin:round;isolation:isolate;opacity:0.63;}</style>
  <style id="style819-1-58">.cls-1{fill:none;stroke:#fff;stroke-linecap:round;stroke-linejoin:round;}</style>
  <style id="style819-6">.cls-1{fill:none;stroke:#fff;stroke-linecap:round;stroke-linejoin:round;}</style>
  <style id="style2-9">.a{fill:none;stroke:#b1b5bd;stroke-linecap:round;stroke-linejoin:round;isolation:isolate;opacity:0.63;}</style>
  <style id="style819-1-5">.cls-1{fill:none;stroke:#fff;stroke-linecap:round;stroke-linejoin:round;}</style>
  <style id="style819-68">.cls-1{fill:none;stroke:#fff;stroke-linecap:round;stroke-linejoin:round;}</style>
  <style id="style819-7-74">.cls-1{fill:none;stroke:#fff;stroke-linecap:round;stroke-linejoin:round;}</style>
  <style id="style819-0-2">.cls-1{fill:none;stroke:#fff;stroke-linecap:round;stroke-linejoin:round;}</style>
  <style id="style819-1-6">.cls-1{fill:none;stroke:#fff;stroke-linecap:round;stroke-linejoin:round;}</style>
  <style id="style819-9-5">.cls-1{fill:none;stroke:#fff;stroke-linecap:round;stroke-linejoin:round;}</style>
  <style id="style819-4-5">.cls-1{fill:none;stroke:#fff;stroke-linecap:round;stroke-linejoin:round;}</style>
  <style id="style819-5-2">.cls-1{fill:none;stroke:#fff;stroke-linecap:round;stroke-linejoin:round;}</style>
  <style id="style2-4">.a{fill:none;stroke:#b1b5bd;stroke-linecap:round;stroke-linejoin:round;isolation:isolate;opacity:0.63;}</style>
  <style id="style819-1-58-9">.cls-1{fill:none;stroke:#fff;stroke-linecap:round;stroke-linejoin:round;}</style>
  <style id="style819-6-8">.cls-1{fill:none;stroke:#fff;stroke-linecap:round;stroke-linejoin:round;}</style>
  <style id="style2-9-6">.a{fill:none;stroke:#b1b5bd;stroke-linecap:round;stroke-linejoin:round;isolation:isolate;opacity:0.63;}</style>
  <style id="style819-1-5-6">.cls-1{fill:none;stroke:#fff;stroke-linecap:round;stroke-linejoin:round;}</style>
  <style id="style819-73">.cls-1{fill:none;stroke:#fff;stroke-linecap:round;stroke-linejoin:round;}</style>
  <style id="style819-8">.cls-1{fill:none;stroke:#fff;stroke-linecap:round;stroke-linejoin:round;}</style>
 </defs>
 <metadata id="metadata818">
  <rdf:RDF>
   <cc:Work rdf:about="">
    <dc:format>image/svg+xml</dc:format>
    <dc:type rdf:resource="http://purl.org/dc/dcmitype/StillImage"/>
    <dc:title/>
   </cc:Work>
  </rdf:RDF>
 </metadata>
 <g id="layer1">
  <path id="path819" d="m10 6v36h28v-26l-10-10z" fill="#efefef" stroke="#efefef" stroke-linecap="round" stroke-linejoin="round" stroke-width="8"/>
  <path id="path819-8" d="m10 2c-2.209 2.209e-4 -3.9998 1.791-4 4v36c2.209e-4 2.209 1.791 3.9998 4 4h28c2.209-2.21e-4 3.9998-1.791 4-4v-26c-2.04e-4 -1.0608-0.42173-2.0781-1.1719-2.8281l-10-10c-0.75005-0.75014-1.7673-1.1717-2.8281-1.1719zm0 1h18c0.79601 1.532e-4 1.5583 0.31601 2.1211 0.87891l10 10c0.5629 0.56283 0.87875 1.3251 0.87891 2.1211v26c-1.67e-4 1.6687-1.3313 2.9998-3 3h-28c-1.6687-1.67e-4 -2.9998-1.3313-3-3v-36c1.668e-4 -1.6687 1.3313-2.9998 3-3z" color="#000000" color-rendering="auto" dominant-baseline="auto" image-rendering="auto" opacity=".3" shape-rendering="auto" solid-color="#000000" style="font-feature-settings:normal;font-variant-alternates:normal;font-variant-caps:normal;font-variant-ligatures:normal;font-variant-numeric:normal;font-variant-position:normal;isolation:auto;mix-blend-mode:normal;shape-padding:0;text-decoration-color:#000000;text-decoration-line:none;text-decoration-style:solid;text-indent:0;text-orientation:mixed;text-transform:none;white-space:normal"/>
  <path id="path828" d="m19.989 26.637s-5.7608 0.91882-4.4012 1.7972c3.3902 2.1901 14.414-0.36676 14.414-0.36676s-10.987 0.46728-12.103-0.11003c-0.78847-0.40794 2.0906-1.3204 2.0906-1.3204z" fill="#f68d59"/>
  <path id="path830-8" d="m18.852 30.195s-1.4484 0.35666-1.1003 1.0269c0.47177 0.90838 2.4678 1.165 5.4648 1.137 3.6925-0.03448 5.6115-0.91691 5.6115-0.91691l-0.95359-0.91691s-3.1396 0.68335-4.768 0.69686c-2.0692 0.01717-3.7771-0.09301-4.2545-0.4768-0.14293-0.1149 0-0.55015 0-0.55015z" fill="#f68d59"/>
  <path id="path832" d="m19.695 32.909s-1.2789 0.50231-1.2103 1.0269c0.13893 1.0626 2.8172 1.1608 4.9513 1.1736 1.5907 0.0096 4.9513-0.77021 4.9513-0.77021l-1.3937-0.91691s-2.4727 0.49599-3.741 0.51347c-1.1757 0.0162-3.1123 0.0801-3.4843-0.36676-0.14166-0.17017-0.07335-0.66018-0.07335-0.66018z" fill="#f68d59"/>
  <path id="path834" d="m23.986 26.417s-2.1703-3.1602-1.9805-4.9513c0.36636-3.4583 5.1495-5.0777 5.9049-8.4723 0.33792-1.5184-0.95359-2.8974-0.95359-2.8974s0.49526 1.4988 0.14671 2.5674c-1.1506 3.5274-7.0615 4.7264-7.1519 8.4356-0.0548 2.2468 4.0344 5.3181 4.0344 5.3181z" fill="#f68d59"/>
  <path id="path836" d="m25.454 27.481s2.3445-1.6088 2.4573-2.8608c0.12588-1.3971-2.3381-2.2442-2.1272-3.631 0.37703-2.4802 4.9513-4.878 4.9513-4.878s-5.609 0.95601-6.8218 4.9513c-0.46912 1.5453 1.7731 2.8319 1.9439 4.4379 0.07125 0.66996-0.40344 1.9805-0.40344 1.9805z" fill="#f68d59"/>
  <path id="path838" d="m17.018 35.476s-4.2503 0.19908-3.9977 1.6138c0.2394 1.3409 7.2913 1.7976 11.003 1.7238 10.985-0.21854 9.4992-2.7507 9.4992-2.7507s0.28875 1.5684-9.3892 1.9439c-3.1444 0.12198-9.2106-0.35516-9.3525-1.2837-0.12902-0.84397 2.2373-1.247 2.2373-1.247z" fill="#f68d59"/>
  <path id="path840" d="m17.311 39.107s6.0638 0.48695 9.0958 0.36677c6.2772-0.24882 8.619-2.0539 8.619-2.0539s-1.117 2.4801-8.8024 2.7141c-5.9948 0.18248-8.9124-1.0269-8.9124-1.0269z" fill="#f68d59"/>
  <path id="path842" d="m30.442 32.249s3.5674-2.0014 3.5209-3.7043c-0.06014-2.2038-2.7507-2.0539-2.7507-2.0539s3.7472-1.0301 3.9611 2.2006c0.13036 1.9689-4.7313 3.5576-4.7313 3.5576z" fill="#f68d59"/>
 </g>
</svg>
