<?xml version="1.0" encoding="UTF-8"?>
<!-- Created with Inkscape (http://www.inkscape.org/) -->
<svg id="SVGRoot" width="48px" height="48px" version="1.1" viewBox="0 0 48 48" xmlns="http://www.w3.org/2000/svg" xmlns:cc="http://creativecommons.org/ns#" xmlns:dc="http://purl.org/dc/elements/1.1/" xmlns:rdf="http://www.w3.org/1999/02/22-rdf-syntax-ns#">
 <defs id="defs815">
  <style id="style819">.cls-1{fill:none;stroke:#fff;stroke-linecap:round;stroke-linejoin:round;}</style>
  <style id="style819-4">.cls-1{fill:none;stroke:#fff;stroke-linecap:round;stroke-linejoin:round;}</style>
  <style id="style819-1">.cls-1{fill:none;stroke:#fff;stroke-linecap:round;stroke-linejoin:round;}</style>
 </defs>
 <metadata id="metadata818">
  <rdf:RDF>
   <cc:Work rdf:about="">
    <dc:format>image/svg+xml</dc:format>
    <dc:type rdf:resource="http://purl.org/dc/dcmitype/StillImage"/>
    <dc:title/>
   </cc:Work>
  </rdf:RDF>
 </metadata>
 <g id="layer1">
  <path id="path832" d="m10 2a4.0004 4.0004 0 0 0-4 4v36a4.0004 4.0004 0 0 0 4 4h28a4.0004 4.0004 0 0 0 4-4v-26a4.0004 4.0004 0 0 0-1.1719-2.8281l-10-10a4.0004 4.0004 0 0 0-2.8281-1.1719z" color="#000000" color-rendering="auto" dominant-baseline="auto" fill="#efefef" image-rendering="auto" shape-rendering="auto" solid-color="#000000" style="font-feature-settings:normal;font-variant-alternates:normal;font-variant-caps:normal;font-variant-ligatures:normal;font-variant-numeric:normal;font-variant-position:normal;isolation:auto;mix-blend-mode:normal;shape-padding:0;text-decoration-color:#000000;text-decoration-line:none;text-decoration-style:solid;text-indent:0;text-orientation:mixed;text-transform:none;white-space:normal"/>
  <rect id="rect837-5" x="37" y="14" width="1" height="30" ry=".45915" fill="#f97263" fill-rule="evenodd" opacity=".5" style="paint-order:stroke fill markers"/>
  <rect id="rect837" x="10" y="4" width="1" height="40" ry=".45915" fill="#f97263" fill-rule="evenodd" opacity=".5" style="paint-order:stroke fill markers"/>
  <path id="path819-8" d="m10 2c-2.209 2.209e-4 -3.9998 1.791-4 4v36c2.209e-4 2.209 1.791 3.9998 4 4h28c2.209-2.21e-4 3.9998-1.791 4-4v-26c-2.04e-4 -1.0608-0.42173-2.0781-1.1719-2.8281l-10-10c-0.75005-0.75014-1.7673-1.1717-2.8281-1.1719zm0 1h18c0.79601 1.532e-4 1.5583 0.31601 2.1211 0.87891l10 10c0.5629 0.56283 0.87875 1.3251 0.87891 2.1211v26c-1.67e-4 1.6687-1.3313 2.9998-3 3h-28c-1.6687-1.67e-4 -2.9998-1.3313-3-3v-36c1.668e-4 -1.6687 1.3313-2.9998 3-3z" color="#000000" color-rendering="auto" dominant-baseline="auto" image-rendering="auto" opacity=".3" shape-rendering="auto" solid-color="#000000" style="font-feature-settings:normal;font-variant-alternates:normal;font-variant-caps:normal;font-variant-ligatures:normal;font-variant-numeric:normal;font-variant-position:normal;isolation:auto;mix-blend-mode:normal;shape-padding:0;text-decoration-color:#000000;text-decoration-line:none;text-decoration-style:solid;text-indent:0;text-orientation:mixed;text-transform:none;white-space:normal"/>
  <rect id="rect841" x="22" y="6" width="8" height="2" ry="1" fill="#46589d" fill-rule="evenodd" opacity=".3" style="paint-order:stroke fill markers"/>
  <rect id="rect843" x="22" y="10" width="12" height="2" ry="1" fill="#46589d" fill-rule="evenodd" opacity=".3" style="paint-order:stroke fill markers"/>
  <rect id="rect845" x="22" y="14" width="16" height="2" ry="1" fill="#46589d" fill-rule="evenodd" opacity=".3" style="paint-order:stroke fill markers"/>
  <rect id="rect847" x="10" y="18" width="28" height="2" ry="1" fill="#46589d" fill-rule="evenodd" opacity=".3" style="paint-order:stroke fill markers"/>
  <rect id="rect849" x="10" y="22" width="23" height="2" ry=".95942" fill="#46589d" fill-rule="evenodd" opacity=".3" style="paint-order:stroke fill markers"/>
  <rect id="rect851" x="10" y="26" width="28" height="2" ry="1" fill="#46589d" fill-rule="evenodd" opacity=".3" style="paint-order:stroke fill markers"/>
  <rect id="rect853" x="10" y="30" width="26" height="2" ry=".97971" fill="#46589d" fill-rule="evenodd" opacity=".3" style="paint-order:stroke fill markers"/>
  <rect id="rect853-3" x="10" y="34" width="28" height="2" ry="1" fill="#46589d" fill-rule="evenodd" opacity=".3" style="paint-order:stroke fill markers"/>
  <rect id="rect853-3-2" x="10" y="38" width="15" height="2" ry="1" fill="#46589d" fill-rule="evenodd" opacity=".3" style="paint-order:stroke fill markers"/>
  <g id="text850" transform="scale(.98058 1.0198)" fill="#46589d" aria-label="A">
   <path id="path860" d="m16.113 12.943h-3.4078l-0.40552 0.93911q-0.1992 0.46956-0.1992 0.77548 0 0.40552 0.32726 0.59762 0.19209 0.11383 0.94623 0.17075v0.26324h-3.2086v-0.26324q0.51936-0.07826 0.85374-0.42687 0.33438-0.35572 0.82528-1.4585l3.4505-7.6979h0.13518l3.479 7.9113q0.49801 1.1241 0.81816 1.4158 0.24189 0.22055 0.68299 0.25612v0.26324h-4.6671v-0.26324h0.19209q0.56204 0 0.78971-0.15652 0.15652-0.11383 0.15652-0.32727 0-0.12806-0.04269-0.26324-0.01423-0.06403-0.21344-0.53359zm-0.24189-0.52647-1.4371-3.3225-1.4798 3.3225z" fill="#46589d" stroke-width=".36426"/>
  </g>
 </g>
</svg>
