<?xml version="1.0" encoding="UTF-8"?>
<!-- Created with Inkscape (http://www.inkscape.org/) -->
<svg id="SVGRoot" width="48px" height="48px" version="1.1" viewBox="0 0 48 48" xmlns="http://www.w3.org/2000/svg" xmlns:cc="http://creativecommons.org/ns#" xmlns:dc="http://purl.org/dc/elements/1.1/" xmlns:rdf="http://www.w3.org/1999/02/22-rdf-syntax-ns#">
 <defs id="defs815">
  <style id="style819">.cls-1{fill:none;stroke:#fff;stroke-linecap:round;stroke-linejoin:round;}</style>
  <style id="style819-1">.cls-1{fill:none;stroke:#fff;stroke-linecap:round;stroke-linejoin:round;}</style>
 </defs>
 <metadata id="metadata818">
  <rdf:RDF>
   <cc:Work rdf:about="">
    <dc:format>image/svg+xml</dc:format>
    <dc:type rdf:resource="http://purl.org/dc/dcmitype/StillImage"/>
    <dc:title/>
   </cc:Work>
  </rdf:RDF>
 </metadata>
 <g id="layer1" fill-rule="evenodd">
  <rect id="rect866" x="6" y="2" width="36" height="44" rx="18" ry="7" fill="#b7bfc2" style="paint-order:stroke fill markers"/>
  <path id="rect866-4" d="m24 2c-9.972 0-18 3.122-18 7v30c0 3.878 8.028 7 18 7s18-3.122 18-7v-30c0-3.878-8.028-7-18-7zm0 1c9.418 0 17 2.899 17 6.5v29c0 3.601-7.582 6.5-17 6.5s-17-2.899-17-6.5v-29c0-3.601 7.582-6.5 17-6.5z" opacity=".3" style="paint-order:stroke fill markers"/>
  <rect id="rect902" x="8" y="4" width="32" height="10" rx="16" ry="5" fill="#efefef" style="paint-order:stroke fill markers"/>
  <path id="rect902-1" d="m8.3203 18c-0.20853 0.32321-0.32031 0.65703-0.32031 1 0 2.77 7.136 5 16 5s16-2.23 16-5c0-0.34297-0.11178-0.67679-0.32031-1-1.4757 2.2872-7.9132 4-15.68 4s-14.204-1.7128-15.68-4z" fill="#efefef" style="paint-order:stroke fill markers"/>
  <path id="rect902-1-2" d="m8.3203 26c-0.20853 0.32321-0.32031 0.65703-0.32031 1 0 2.77 7.136 5 16 5s16-2.23 16-5c0-0.34297-0.11178-0.67679-0.32031-1-1.4757 2.2872-7.9132 4-15.68 4s-14.204-1.7128-15.68-4z" fill="#efefef" style="paint-order:stroke fill markers"/>
  <path id="rect902-1-1" d="m8.3203 34c-0.20853 0.32321-0.32031 0.65703-0.32031 1 0 2.77 7.136 5 16 5s16-2.23 16-5c0-0.34297-0.11178-0.67679-0.32031-1-1.4757 2.2872-7.9132 4-15.68 4s-14.204-1.7128-15.68-4z" fill="#efefef" style="paint-order:stroke fill markers"/>
 </g>
</svg>
