<?xml version="1.0" encoding="UTF-8"?>
<!-- Created with Inkscape (http://www.inkscape.org/) -->
<svg id="SVGRoot" width="48px" height="48px" version="1.1" viewBox="0 0 48 48" xmlns="http://www.w3.org/2000/svg" xmlns:cc="http://creativecommons.org/ns#" xmlns:dc="http://purl.org/dc/elements/1.1/" xmlns:rdf="http://www.w3.org/1999/02/22-rdf-syntax-ns#">
 <defs id="defs815">
  <style id="style819">.cls-1{fill:none;stroke:#fff;stroke-linecap:round;stroke-linejoin:round;}</style>
  <style id="style819-1">.cls-1{fill:none;stroke:#fff;stroke-linecap:round;stroke-linejoin:round;}</style>
 </defs>
 <metadata id="metadata818">
  <rdf:RDF>
   <cc:Work rdf:about="">
    <dc:format>image/svg+xml</dc:format>
    <dc:type rdf:resource="http://purl.org/dc/dcmitype/StillImage"/>
    <dc:title/>
   </cc:Work>
  </rdf:RDF>
 </metadata>
 <g id="layer1">
  <rect id="rect820-0" x="6" y="2" width="36" height="44" ry="4" fill="#efefef" fill-rule="evenodd" style="paint-order:stroke fill markers"/>
  <path id="path872" d="m24 10s-7 1-7 7 7 7 7 7v-14zm0 14v14s7-1 7-7-7-7-7-7z" fill="#775ba6" opacity=".3"/>
  <path id="rect926" d="m10 2c-2.216 0-4 1.784-4 4v36c0 2.216 1.784 4 4 4h28c2.216 0 4-1.784 4-4v-36c0-2.216-1.784-4-4-4h-28zm0 1h28c1.662 0 3 1.338 3 3v36c0 1.662-1.338 3-3 3h-28c-1.662 0-3-1.338-3-3v-36c0-1.662 1.338-3 3-3z" fill-rule="evenodd" opacity=".3" style="paint-order:stroke fill markers"/>
  <path id="rect842" d="m12 22v4h4v-1h16v1h4v-4h-4v1h-16v-1h-4zm1 1h2v2h-2v-2zm20 0h2v2h-2v-2z" fill-rule="evenodd" opacity=".2" style="paint-order:stroke fill markers"/>
  <path id="path868" d="m24 10s-7-1-7 7c0 7 14 7 14 14s-7 7-7 7" fill="none" stroke="#775ba6" stroke-linecap="round" stroke-linejoin="round" stroke-width="2"/>
  <rect id="rect817" x="22" y="36" width="4" height="4" fill="#775ba6" fill-rule="evenodd" style="paint-order:normal"/>
  <rect id="rect838" x="22" y="8" width="4" height="4" fill="#775ba6" fill-rule="evenodd" style="paint-order:stroke fill markers"/>
  <rect id="rect840" x="22" y="22" width="4" height="4" fill="#775ba6" fill-rule="evenodd" style="paint-order:stroke fill markers"/>
 </g>
</svg>
