<?xml version="1.0" encoding="UTF-8"?>
<!-- Created with Inkscape (http://www.inkscape.org/) -->
<svg id="SVGRoot" width="48px" height="48px" version="1.1" viewBox="0 0 48 48" xml:space="preserve" xmlns="http://www.w3.org/2000/svg" xmlns:cc="http://creativecommons.org/ns#" xmlns:dc="http://purl.org/dc/elements/1.1/" xmlns:rdf="http://www.w3.org/1999/02/22-rdf-syntax-ns#"><defs><style>.cls-1{fill:none;stroke:#fff;stroke-linecap:round;stroke-linejoin:round;}</style><style>.cls-1{fill:none;stroke:#fff;stroke-linecap:round;stroke-linejoin:round;}</style><style>.cls-1{fill:none;stroke:#fff;stroke-linecap:round;stroke-linejoin:round;}</style></defs><metadata><rdf:RDF><cc:Work rdf:about=""><dc:format>image/svg+xml</dc:format><dc:type rdf:resource="http://purl.org/dc/dcmitype/StillImage"/></cc:Work></rdf:RDF></metadata><rect x="4" y="4" width="40" height="40" ry="8" fill="#4b4b4b" fill-rule="evenodd" style="paint-order:stroke fill markers"/><path d="m12 4c-4.432 0-8 3.568-8 8v24c0 4.432 3.568 8 8 8h24c4.432 0 8-3.568 8-8v-24c0-4.432-3.568-8-8-8zm0 1h24c3.878 0 7 3.122 7 7v24c0 3.878-3.122 7-7 7h-24c-3.878 0-7-3.122-7-7v-24c0-3.878 3.122-7 7-7z" fill-rule="evenodd" opacity=".4" style="paint-order:stroke fill markers"/><path d="m18 8v2h4v-2h-4zm4 2v4h2v-4h-2zm-4 0h-2v4h2v-4zm-8 0v2h4v-2h-4zm22 0v4h2v-4h-2zm-16 6v4h2v-4h-2zm2 4v2h4v-2h-4zm4 0h2v-4h-2v4zm10-4v4h2v-4h-2zm-4 10v2h4v-2h-4zm4 2v4h2v-4h-2zm0 4h-4v2h4v-2zm-4 2h-2v4h2v-4zm0 4v2h4v-2h-4zm-6-10v4h2v-4h-2zm-10 2v2h2v-2h-2zm0 4v2h2v-2h-2zm10 0v4h2v-4h-2z" fill="#ff6969" stroke-width="2" style="paint-order:stroke fill markers"/><path d="m28 8v2h4v-2h-4zm0 2h-2v4h2v-4zm0 4v2h4v-2h-4zm0 2h-2v4h2v-4zm0 4v2h4v-2h-4zm-18-6v2h4v-2h-4zm8 0v2h4v-2h-4zm0 12v2h4v-2h-4zm0 2h-2v4h2v-4zm0 4v2h4v-2h-4zm0 2h-2v4h2v-4zm0 4v2h4v-2h-4zm8-10v4h2v-4h-2zm6 6v4h2v-4h-2z" opacity=".4" stroke-width="2" style="paint-order:stroke fill markers"/></svg>
