<?xml version="1.0" encoding="UTF-8"?>
<!-- Created with Inkscape (http://www.inkscape.org/) -->
<svg id="SVGRoot" width="48px" height="48px" version="1.1" viewBox="0 0 48 48" xml:space="preserve" xmlns="http://www.w3.org/2000/svg" xmlns:cc="http://creativecommons.org/ns#" xmlns:dc="http://purl.org/dc/elements/1.1/" xmlns:rdf="http://www.w3.org/1999/02/22-rdf-syntax-ns#"><defs><style>.cls-1{fill:none;stroke:#fff;stroke-linecap:round;stroke-linejoin:round;}</style><style>.cls-1{fill:none;stroke:#fff;stroke-linecap:round;stroke-linejoin:round;}</style></defs><metadata><rdf:RDF><cc:Work rdf:about=""><dc:format>image/svg+xml</dc:format><dc:type rdf:resource="http://purl.org/dc/dcmitype/StillImage"/></cc:Work></rdf:RDF></metadata><rect x="4" y="4" width="40" height="40" ry="8" fill="#efefef" fill-rule="evenodd" style="paint-order:stroke fill markers"/><path d="m12 4c-4.432 0-8 3.568-8 8v24c0 4.432 3.568 8 8 8h24c4.432 0 8-3.568 8-8v-24c0-4.432-3.568-8-8-8zm0 1h24c3.878 0 7 3.122 7 7v24c0 3.878-3.122 7-7 7h-24c-3.878 0-7-3.122-7-7v-24c0-3.878 3.122-7 7-7z" fill-rule="evenodd" opacity=".3" style="paint-order:stroke fill markers"/><g stroke-linecap="round" stroke-linejoin="round"><path d="m12 8c-2.216 0-4 1.784-4 4v10h14v-14h-10zm14 0v14h14v-10c0-2.216-1.784-4-4-4h-10zm-14 2h8v10h-10v-8c0-1.108 0.892-2 2-2zm16 0h8c1.108 0 2 0.892 2 2v8h-10v-10zm-20 16v10c0 2.216 1.784 4 4 4h10v-14h-14zm18 0v14h10c2.216 0 4-1.784 4-4v-10h-14zm-16 2h10v10h-8c-1.108 0-2-0.892-2-2v-8zm18 0h10v8c0 1.108-0.892 2-2 2h-8v-10z" opacity=".2" stroke-width="2" style="paint-order:stroke fill markers"/><path d="m22 12c-5.54 0-10 4.46-10 10s4.46 10 10 10h1.2734l5.4453 4.5371a2.0002 2.0002 0 0 0 3.2539-1.8652l-0.69531-4.168c2.8389-1.7605 4.7227-4.9041 4.7227-8.5039 0-5.54-4.46-10-10-10h-4z" fill="#4b4b4b" stroke-width="2" style="paint-order:stroke fill markers"/><path d="m22 14c-4.432 0-8 3.568-8 8s3.568 8 8 8h2l6 5-0.93359-5.6035c2.902-1.1984 4.9336-4.0518 4.9336-7.3965 0-4.432-3.568-8-8-8h-4z" fill="#fff" stop-color="#000000" style="paint-order:stroke fill markers"/></g></svg>
