<?xml version="1.0" encoding="UTF-8"?>
<!-- Created with Inkscape (http://www.inkscape.org/) -->
<svg id="SVGRoot" width="48px" height="48px" version="1.1" viewBox="0 0 48 48" xml:space="preserve" xmlns="http://www.w3.org/2000/svg" xmlns:cc="http://creativecommons.org/ns#" xmlns:dc="http://purl.org/dc/elements/1.1/" xmlns:rdf="http://www.w3.org/1999/02/22-rdf-syntax-ns#"><defs><style>.cls-1{fill:none;stroke:#fff;stroke-linecap:round;stroke-linejoin:round;}</style><style>.cls-1{fill:none;stroke:#fff;stroke-linecap:round;stroke-linejoin:round;}</style><style>.cls-1{fill:none;stroke:#fff;stroke-linecap:round;stroke-linejoin:round;}</style><style>.cls-1{fill:none;stroke:#fff;stroke-linecap:round;stroke-linejoin:round;}</style><style>.cls-1{fill:none;stroke:#fff;stroke-linecap:round;stroke-linejoin:round;}</style><style>.cls-1{fill:none;stroke:#fff;stroke-linecap:round;stroke-linejoin:round;}</style><style>.cls-1{fill:none;stroke:#fff;stroke-linecap:round;stroke-linejoin:round;}</style><style>.a{fill:none;stroke:#b1b5bd;stroke-linecap:round;stroke-linejoin:round;isolation:isolate;opacity:0.63;}</style><style>.cls-1{fill:none;stroke:#fff;stroke-linecap:round;stroke-linejoin:round;}</style><style>.cls-1{fill:none;stroke:#fff;stroke-linecap:round;stroke-linejoin:round;}</style><style>.a{fill:none;stroke:#b1b5bd;stroke-linecap:round;stroke-linejoin:round;isolation:isolate;opacity:0.63;}</style><style>.cls-1{fill:none;stroke:#fff;stroke-linecap:round;stroke-linejoin:round;}</style><style>.cls-1{fill:none;stroke:#fff;stroke-linecap:round;stroke-linejoin:round;}</style><style>.cls-1{fill:none;stroke:#fff;stroke-linecap:round;stroke-linejoin:round;}</style><style>.cls-1{fill:none;stroke:#fff;stroke-linecap:round;stroke-linejoin:round;}</style><style>.a{fill:none;stroke:#b1b5bd;stroke-linecap:round;stroke-linejoin:round;isolation:isolate;opacity:0.63;}</style></defs><metadata><rdf:RDF><cc:Work rdf:about=""><dc:format>image/svg+xml</dc:format><dc:type rdf:resource="http://purl.org/dc/dcmitype/StillImage"/></cc:Work></rdf:RDF></metadata><rect x="14" y="8" width="32" height="32" ry="16" fill="#efefef" style="paint-order:stroke fill markers"/><path d="m30 16c-4.432 0-8 3.568-8 8s3.568 8 8 8 8-3.568 8-8-3.568-8-8-8zm0 4c2.216 0 4 1.784 4 4s-1.784 4-4 4-4-1.784-4-4 1.784-4 4-4z" opacity=".3" style="paint-order:stroke fill markers"/><path d="m30 8c-8.864 0-16 7.136-16 16s7.136 16 16 16 16-7.136 16-16-7.136-16-16-16zm0 1c8.31 0 15 6.69 15 15s-6.69 15-15 15-15-6.69-15-15 6.69-15 15-15z" opacity=".3" style="paint-order:stroke fill markers"/><path d="m12 4c-4.432 0-8 3.568-8 8v24c0 4.432 3.568 8 8 8h24c4.432 0 8-3.568 8-8v-6s0-2-2-2h-6c-2.216 0-4-1.784-4-4s1.784-4 4-4h6c2 0 2-2 2-2v-6c0-4.432-3.568-8-8-8z" fill="#72adec" fill-rule="evenodd" stop-color="#000000" style="paint-order:stroke fill markers"/><path d="m12 4c-4.432 0-8 3.568-8 8v24c0 4.432 3.568 8 8 8h24c4.432 0 8-3.568 8-8v-6s0-2-2-2h-2-1-3c-2.216 0-4-1.784-4-4s1.784-4 4-4h3 1 2c2 0 2-2 2-2v-6c0-4.432-3.568-8-8-8h-24zm0 1h24c3.8953 0 7 3.1047 7 7v6s-0.01379 0.29125-0.14453 0.55273c-0.13074 0.26149-0.1888 0.44727-0.85547 0.44727h-2-1-3c-2.7527 0-5 2.2473-5 5s2.2473 5 5 5h3 1 2c0.66667 0 0.72473 0.18578 0.85547 0.44727s0.14453 0.55273 0.14453 0.55273v6c0 3.8953-3.1047 7-7 7h-24c-3.8953 0-7-3.1047-7-7v-24c0-3.8953 3.1047-7 7-7z" fill-rule="evenodd" opacity=".3" stop-color="#000000" style="paint-order:stroke fill markers"/><g><rect x="12" y="24" width="16" height="2" ry=".97019" opacity=".3" style="paint-order:stroke fill markers"/><rect x="12" y="28" width="11" height="1" ry=".47019" opacity=".3" style="paint-order:stroke fill markers"/><rect x="12" y="30" width="14" height="1" ry=".47019" opacity=".3" style="paint-order:stroke fill markers"/><rect x="12" y="32" width="7" height="1" ry=".5" opacity=".3" style="paint-order:stroke fill markers"/></g><g fill="#fff"><rect x="14" y="12" width="2" height="2" ry="1" style="paint-order:stroke fill markers"/><rect x="12" y="16" width="2" height="2" ry="1" style="paint-order:stroke fill markers"/><rect x="14" y="20" width="2" height="2" ry="1" style="paint-order:stroke fill markers"/><path d="m17 14 1-1 4 4-4 4-1-1 3-3z" style="paint-order:stroke fill markers"/></g></svg>
