<?xml version="1.0" encoding="UTF-8"?>
<!-- Created with Inkscape (http://www.inkscape.org/) -->
<svg id="SVGRoot" width="48px" height="48px" version="1.1" viewBox="0 0 48 48" xml:space="preserve" xmlns="http://www.w3.org/2000/svg" xmlns:cc="http://creativecommons.org/ns#" xmlns:dc="http://purl.org/dc/elements/1.1/" xmlns:rdf="http://www.w3.org/1999/02/22-rdf-syntax-ns#"><defs><style>.cls-1{fill:none;stroke:#fff;stroke-linecap:round;stroke-linejoin:round;}</style><style>.cls-1{fill:none;stroke:#fff;stroke-linecap:round;stroke-linejoin:round;}</style><style>.cls-1{fill:none;stroke:#fff;stroke-linecap:round;stroke-linejoin:round;}</style><style>.cls-1{fill:none;stroke:#fff;stroke-linecap:round;stroke-linejoin:round;}</style><style>.cls-1{fill:none;stroke:#fff;stroke-linecap:round;stroke-linejoin:round;}</style><style>.a{fill:none;stroke:#b1b5bd;stroke-linecap:round;stroke-linejoin:round;isolation:isolate;opacity:0.63;}</style><style>.cls-1{fill:none;stroke:#fff;stroke-linecap:round;stroke-linejoin:round;}</style><style>.cls-1{fill:none;stroke:#fff;stroke-linecap:round;stroke-linejoin:round;}</style><style>.a{fill:none;stroke:#b1b5bd;stroke-linecap:round;stroke-linejoin:round;isolation:isolate;opacity:0.63;}</style><style>.cls-1{fill:none;stroke:#fff;stroke-linecap:round;stroke-linejoin:round;}</style><style>.cls-1{fill:none;stroke:#fff;stroke-linecap:round;stroke-linejoin:round;}</style></defs><metadata><rdf:RDF><cc:Work rdf:about=""><dc:format>image/svg+xml</dc:format><dc:type rdf:resource="http://purl.org/dc/dcmitype/StillImage"/></cc:Work></rdf:RDF></metadata><g fill-rule="evenodd"><rect x="4" y="4" width="40" height="40" ry="8" fill="#efefef" style="paint-order:stroke fill markers"/><path d="m12 12v24h24v-24zm1 1h22v22h-22z" opacity=".25" style="paint-order:stroke fill markers"/><path d="m24 10c-7.756 0-14 6.244-14 14s6.244 14 14 14 14-6.244 14-14-6.244-14-14-14zm0 1c7.202 0 13 5.798 13 13s-5.798 13-13 13-13-5.798-13-13 5.798-13 13-13z" opacity=".25" style="paint-order:stroke fill markers"/><path d="m12 4c-4.432 0-8 3.568-8 8v24c0 4.432 3.568 8 8 8h24c4.432 0 8-3.568 8-8v-24c0-4.432-3.568-8-8-8h-24zm0 1h24c3.878 0 7 3.122 7 7v24c0 3.878-3.122 7-7 7h-24c-3.878 0-7-3.122-7-7v-24c0-3.878 3.122-7 7-7z" opacity=".3" style="paint-order:stroke fill markers"/></g><path d="m32 10-12 14 12 14h2.5c1.939 0 3.5-1.561 3.5-3.5v-21c0-1.939-1.561-3.5-3.5-3.5h-2.5z" fill="#dd72c9" style="paint-order:stroke fill markers"/><path d="m20 24-10 10v0.5c0 1.939 1.561 3.5 3.5 3.5h20.5l-14-14z" fill="#565d60" style="paint-order:stroke fill markers"/><path d="m13.5 10c-1.939 0-3.5 1.561-3.5 3.5v20.5l24-24h-20.5z" fill="#96dfd3" style="paint-order:stroke fill markers"/></svg>
