<?xml version="1.0" encoding="UTF-8"?>
<svg version="1.1" viewBox="0 0 48 48" xmlns="http://www.w3.org/2000/svg">
 <defs>
  <style id="current-color-scheme" type="text/css">.ColorScheme-Text {
        color:#31363b;
      }
      .ColorScheme-Accent {
        color:#e9bf73;
      }</style>
 </defs>
 <path d="m6 6a4.0004 4.0004 0 0 0-4 4v28a4.0004 4.0004 0 0 0 4 4h36a4.0004 4.0004 0 0 0 4-4v-26a4.0004 4.0004 0 0 0-4-4h-19.344l-0.82812-0.82812a4.0004 4.0004 0 0 0-2.8281-1.1719z" fill="#979797"/>
 <path d="m6 6c-2.209 2.209e-4 -3.9998 1.791-4 4v28c2.209e-4 2.209 1.791 3.9998 4 4h36c2.209-2.21e-4 3.9998-1.791 4-4v-26c0-2.216-1.784-4-4-4h-19.344l-0.82812-0.82812c-0.75005-0.75014-1.7673-1.1717-2.8281-1.1719zm0 6.1547h36c1.662 0 3 1.338 3 3v22.845c0 1.662-1.338 3-3 3h-36c-1.662 0-3-1.338-3-3v-22.845c0-1.662 1.338-3 3-3z" fill-opacity=".3"/>
 <path d="m27 12.155s3 0 3 3h10c0-3 3-3 3-3z" opacity=".3"/>
 <path d="m30 12.155v23c3.5e-4 0.89064 1.077 1.3366 1.707 0.70703l3.293-3.293 3.293 3.293c0.63 0.62956 1.7067 0.18361 1.707-0.70703v-23z" fill="#4e4e4e"/>
 <path d="m32 12.155v20l3-3 3 3v-20h-1v17.5l-2-2-2 2v-17.5z" fill="#979797"/>
 <path d="m30 12.155v23c3.5e-4 0.89064 1.077 1.3366 1.707 0.70703l3.293-3.293 3.293 3.293c0.63 0.62956 1.7067 0.18361 1.707-0.70703v-23h-1v23l-4-4-4 4v-23z" opacity=".4"/>
</svg>
