<?xml version="1.0" encoding="UTF-8"?>
<!-- Created with Inkscape (http://www.inkscape.org/) -->
<svg id="SVGRoot" width="48px" height="48px" version="1.1" viewBox="0 0 48 48" xmlns="http://www.w3.org/2000/svg" xmlns:cc="http://creativecommons.org/ns#" xmlns:dc="http://purl.org/dc/elements/1.1/" xmlns:rdf="http://www.w3.org/1999/02/22-rdf-syntax-ns#">
 <defs id="defs815">
  <style id="style819">.cls-1{fill:none;stroke:#fff;stroke-linecap:round;stroke-linejoin:round;}</style>
 </defs>
 <metadata id="metadata818">
  <rdf:RDF>
   <cc:Work rdf:about="">
    <dc:format>image/svg+xml</dc:format>
    <dc:type rdf:resource="http://purl.org/dc/dcmitype/StillImage"/>
    <dc:title/>
   </cc:Work>
  </rdf:RDF>
 </metadata>
 <g id="layer1" fill-rule="evenodd">
  <rect id="rect1373-5" x="4" y="4" width="40" height="40" ry="8" fill="#f68d59" style="paint-order:stroke fill markers"/>
  <path id="rect817" d="m12 4c-4.432 0-8 3.568-8 8v24c0 4.432 3.568 8 8 8h24c4.432 0 8-3.568 8-8v-24c0-4.432-3.568-8-8-8h-24zm0 1h24c3.878 0 7 3.122 7 7v24c0 3.878-3.122 7-7 7h-24c-3.878 0-7-3.122-7-7v-24c0-3.878 3.122-7 7-7z" opacity=".3" style="paint-order:stroke fill markers"/>
  <rect id="rect817-9" x="10" y="10" width="28" height="28" ry="14" fill="#fff" style="paint-order:normal"/>
  <rect id="rect819" x="14" y="14" width="20" height="20" ry="10" fill="#f68d59" style="paint-order:normal"/>
  <rect id="rect823-5" x="7" y="17" width="12" height="12" ry="6" fill="#f68d59" style="paint-order:normal"/>
  <rect id="rect821-4" x="9" y="19" width="8" height="8" ry="4" fill="#fff" style="paint-order:normal"/>
  <rect id="rect823-5-9" x="24" y="8" width="12" height="12" ry="6" fill="#f68d59" style="paint-order:normal"/>
  <rect id="rect821-4-9" x="26" y="10" width="8" height="8" ry="4" fill="#fff" style="paint-order:normal"/>
  <rect id="rect823-5-9-8" x="23" y="28" width="12" height="12" ry="6" fill="#f68d59" style="paint-order:normal"/>
  <rect id="rect821-4-9-0" x="25" y="30" width="8" height="8" ry="4" fill="#fff" style="paint-order:normal"/>
 </g>
</svg>
