<?xml version="1.0" encoding="UTF-8"?>
<!-- Created with Inkscape (http://www.inkscape.org/) -->
<svg id="SVGRoot" width="48px" height="48px" version="1.1" viewBox="0 0 48 48" xmlns="http://www.w3.org/2000/svg" xmlns:cc="http://creativecommons.org/ns#" xmlns:dc="http://purl.org/dc/elements/1.1/" xmlns:rdf="http://www.w3.org/1999/02/22-rdf-syntax-ns#">
 <defs id="defs815">
  <style id="style819">.cls-1{fill:none;stroke:#fff;stroke-linecap:round;stroke-linejoin:round;}</style>
 </defs>
 <metadata id="metadata818">
  <rdf:RDF>
   <cc:Work rdf:about="">
    <dc:format>image/svg+xml</dc:format>
    <dc:type rdf:resource="http://purl.org/dc/dcmitype/StillImage"/>
    <dc:title/>
   </cc:Work>
  </rdf:RDF>
 </metadata>
 <g id="layer1" fill-rule="evenodd">
  <rect id="rect1373-5" x="4" y="4" width="40" height="40" ry="8" fill="#729dec" style="paint-order:stroke fill markers"/>
  <path id="rect817" d="m12 4c-4.432 0-8 3.568-8 8v24c0 4.432 3.568 8 8 8h24c4.432 0 8-3.568 8-8v-24c0-4.432-3.568-8-8-8h-24zm0 1h24c3.878 0 7 3.122 7 7v24c0 3.878-3.122 7-7 7h-24c-3.878 0-7-3.122-7-7v-24c0-3.878 3.122-7 7-7z" opacity=".3" style="paint-order:stroke fill markers"/>
  <path id="rect846" d="m33 8c-0.554 0-1 0.446-1 1v20c0 0.554 0.446 1 1 1h6c0.554 0 1-0.446 1-1v-17c0-2.216-1.784-4-4-4h-3z" fill="#46589d" style="paint-order:stroke fill markers"/>
  <path id="rect846-0" d="m9 32c-0.554 0-1 0.446-1 1v3c0 2.216 1.784 4 4 4h17c0.554 0 1-0.446 1-1v-6c0-0.554-0.446-1-1-1h-20z" fill="#cfe0f6" style="paint-order:stroke fill markers"/>
  <path id="rect863" d="m33 32c-0.554 0-1 0.446-1 1v6c0 0.554 0.446 1 1 1h3c2.216 0 4-1.784 4-4v-3c0-0.554-0.446-1-1-1h-6z" fill="#fff" style="paint-order:stroke fill markers"/>
  <path id="rect867" d="m11 10c-0.554 0-1 0.446-1 1v2c0 0.554 0.446 1 1 1h13v2h-13c-0.554 0-1 0.446-1 1v10c0 0.554 0.446 1 1 1h16c0.554 0 1-0.446 1-1v-16c0-0.554-0.446-1-1-1h-2zm3 10h10v4h-10z" fill="#fff" style="paint-order:stroke fill markers"/>
 </g>
</svg>
