<?xml version="1.0" encoding="UTF-8"?>
<!-- Created with Inkscape (http://www.inkscape.org/) -->
<svg id="SVGRoot" width="48px" height="48px" version="1.1" viewBox="0 0 48 48" xmlns="http://www.w3.org/2000/svg" xmlns:cc="http://creativecommons.org/ns#" xmlns:dc="http://purl.org/dc/elements/1.1/" xmlns:rdf="http://www.w3.org/1999/02/22-rdf-syntax-ns#">
 <defs id="defs815">
  <style id="style819">.cls-1{fill:none;stroke:#fff;stroke-linecap:round;stroke-linejoin:round;}</style>
 </defs>
 <metadata id="metadata818">
  <rdf:RDF>
   <cc:Work rdf:about="">
    <dc:format>image/svg+xml</dc:format>
    <dc:type rdf:resource="http://purl.org/dc/dcmitype/StillImage"/>
    <dc:title/>
   </cc:Work>
  </rdf:RDF>
 </metadata>
 <g id="layer1">
  <path id="path839-0" d="m24 4v30l16.797 8.3984c1.9434-1.4568 3.2031-3.7719 3.2031-6.3984v-24c0-4.432-3.568-8-8-8h-12z" fill="#d35244"/>
  <path id="path839" d="m12 4c-4.432 0-8 3.568-8 8v24c0 2.6265 1.2597 4.9416 3.2031 6.3984l16.797-8.3984v-30h-12z" fill="#627ad4"/>
  <path id="path837" d="m24 30-17.092 12.18c1.3815 1.1384 3.1538 1.8203 5.0918 1.8203h24c1.938 0 3.7103-0.68192 5.0918-1.8203l-17.092-12.18z" fill="#ffcd4b"/>
  <path id="path817" d="m22 4-16.998 35.885c0.58205 1.0502 1.395 1.9497 2.3691 2.6406 2.3662-2.3011 7.8761-6.5254 16.629-6.5254s14.263 4.2243 16.629 6.5254c0.97416-0.69088 1.7871-1.5905 2.3691-2.6406l-16.998-35.885h-4z" fill="#fff"/>
  <path id="path835" d="m16 30h16l-8-17z" fill="#ffcd4b"/>
  <path id="rect817" d="m12 4c-4.432 0-8 3.568-8 8v24c0 4.432 3.568 8 8 8h24c4.432 0 8-3.568 8-8v-24c0-4.432-3.568-8-8-8h-24zm0 1h24c3.878 0 7 3.122 7 7v24c0 3.878-3.122 7-7 7h-24c-3.878 0-7-3.122-7-7v-24c0-3.878 3.122-7 7-7z" fill-rule="evenodd" opacity=".3" style="paint-order:stroke fill markers"/>
 </g>
</svg>
