<?xml version="1.0" encoding="UTF-8"?>
<!-- Created with Inkscape (http://www.inkscape.org/) -->
<svg id="SVGRoot" width="48px" height="48px" version="1.1" viewBox="0 0 48 48" xmlns="http://www.w3.org/2000/svg" xmlns:cc="http://creativecommons.org/ns#" xmlns:dc="http://purl.org/dc/elements/1.1/" xmlns:rdf="http://www.w3.org/1999/02/22-rdf-syntax-ns#">
 <defs id="defs815">
  <style id="style819">.cls-1{fill:none;stroke:#fff;stroke-linecap:round;stroke-linejoin:round;}</style>
 </defs>
 <metadata id="metadata818">
  <rdf:RDF>
   <cc:Work rdf:about="">
    <dc:format>image/svg+xml</dc:format>
    <dc:type rdf:resource="http://purl.org/dc/dcmitype/StillImage"/>
    <dc:title/>
   </cc:Work>
  </rdf:RDF>
 </metadata>
 <g id="layer1">
  <rect id="rect1373-5" x="4" y="4" width="40" height="40" ry="8" fill="#e3d9ea" fill-rule="evenodd" style="paint-order:stroke fill markers"/>
  <path id="rect817" d="m12 4c-4.432 0-8 3.568-8 8v24c0 4.432 3.568 8 8 8h24c4.432 0 8-3.568 8-8v-24c0-4.432-3.568-8-8-8h-24zm0 1h24c3.878 0 7 3.122 7 7v24c0 3.878-3.122 7-7 7h-24c-3.878 0-7-3.122-7-7v-24c0-3.878 3.122-7 7-7z" fill-rule="evenodd" opacity=".3" style="paint-order:stroke fill markers"/>
  <path id="path862" d="m15 30 8-12 8 10-11 7z" fill="#8e58b5"/>
  <rect id="rect848" x="20" y="10" width="20" height="20" ry="10" fill="#8e58b5" fill-rule="evenodd" style="paint-order:stroke fill markers"/>
  <rect id="rect850" x="24" y="14" width="12" height="12" ry="6" fill="#e3d9ea" fill-rule="evenodd" style="paint-order:stroke fill markers"/>
  <rect id="rect852" x="26" y="16" width="8" height="8" ry="4" fill="#8e58b5" fill-rule="evenodd" style="paint-order:stroke fill markers"/>
  <rect id="rect854" x="10" y="28" width="12" height="12" ry="6" fill="#8e58b5" fill-rule="evenodd" style="paint-order:stroke fill markers"/>
  <rect id="rect856" x="12" y="30" width="8" height="8" ry="4" fill="#e3d9ea" fill-rule="evenodd" style="paint-order:stroke fill markers"/>
  <path id="path864" d="m6 28.49v4.1621l9.4512 3.2715c2.5651 0.73177 3.6628-3.1159 1.0977-3.8477z" color="#000000" color-rendering="auto" dominant-baseline="auto" fill="#8e58b5" image-rendering="auto" shape-rendering="auto" solid-color="#000000" style="font-feature-settings:normal;font-variant-alternates:normal;font-variant-caps:normal;font-variant-ligatures:normal;font-variant-numeric:normal;font-variant-position:normal;isolation:auto;mix-blend-mode:normal;shape-padding:0;text-decoration-color:#000000;text-decoration-line:none;text-decoration-style:solid;text-indent:0;text-orientation:mixed;text-transform:none;white-space:normal"/>
 </g>
</svg>
