<?xml version="1.0" encoding="UTF-8"?>
<!-- Created with Inkscape (http://www.inkscape.org/) -->
<svg id="SVGRoot" width="48px" height="48px" version="1.1" viewBox="0 0 48 48" xmlns="http://www.w3.org/2000/svg" xmlns:cc="http://creativecommons.org/ns#" xmlns:dc="http://purl.org/dc/elements/1.1/" xmlns:rdf="http://www.w3.org/1999/02/22-rdf-syntax-ns#">
 <defs id="defs815">
  <style id="style819">.cls-1{fill:none;stroke:#fff;stroke-linecap:round;stroke-linejoin:round;}</style>
 </defs>
 <metadata id="metadata818">
  <rdf:RDF>
   <cc:Work rdf:about="">
    <dc:format>image/svg+xml</dc:format>
    <dc:type rdf:resource="http://purl.org/dc/dcmitype/StillImage"/>
    <dc:title/>
   </cc:Work>
  </rdf:RDF>
 </metadata>
 <g id="layer1">
  <rect id="rect1373-5" x="4" y="4" width="40" height="40" ry="8" fill="#627ad4" fill-rule="evenodd" style="paint-order:stroke fill markers"/>
  <path id="rect817" d="m12 4c-4.432 0-8 3.568-8 8v24c0 4.432 3.568 8 8 8h24c4.432 0 8-3.568 8-8v-24c0-4.432-3.568-8-8-8h-24zm0 1h24c3.878 0 7 3.122 7 7v24c0 3.878-3.122 7-7 7h-24c-3.878 0-7-3.122-7-7v-24c0-3.878 3.122-7 7-7z" fill-rule="evenodd" opacity=".3" style="paint-order:stroke fill markers"/>
  <path id="path828" d="m12.662 16.627s-5.8481 9.559-0.96069 14.571c3.1423 3.2222 5.4311 1.7251 13.688-2.0815-4.246 4.8762-12.083 8.1923-15.175 4.7578-6.3833-7.0917 2.4475-17.247 2.4475-17.247z" fill="#fff"/>
  <path id="path830" d="m28.851 34.246-5.4851-5.2282-6.6514 2.8984 3.2774-6.8322-4.8119-5.4302 7.5106 1.0057 3.6775-6.2544 1.3644 7.4538 7.0847 1.5648-6.6673 3.601z" fill="#ffc121" fill-rule="evenodd" stroke="#ffc121" stroke-linecap="round" stroke-linejoin="round" stroke-width="2.2653" style="paint-order:normal"/>
  <rect id="rect832" x="37.67" y="22.812" width="2.3789" height=".71367" ry=".35683" fill="#ffc121" fill-rule="evenodd" style="paint-order:normal"/>
  <rect id="rect832-7" transform="rotate(60)" x="35.516" y="-20.568" width="2.3789" height=".71367" ry=".35683" fill="#ffc121" fill-rule="evenodd" style="paint-order:normal"/>
  <rect id="rect832-7-5" transform="rotate(60)" x="39.456" y="-20.731" width="2.3789" height=".71367" ry=".35683" fill="#ffc121" fill-rule="evenodd" style="paint-order:normal"/>
  <rect id="rect832-7-3" transform="matrix(-.5 .86603 .86603 .5 0 0)" x="-1.396" y="43.365" width="2.3789" height=".71367" ry=".35683" fill="#ffc121" fill-rule="evenodd" style="paint-order:normal"/>
  <rect id="rect832-7-5-9" transform="matrix(-.5 .86603 .86603 .5 0 0)" x="2.5439" y="43.202" width="2.3789" height=".71367" ry=".35683" fill="#ffc121" fill-rule="evenodd" style="paint-order:normal"/>
 </g>
</svg>
