<?xml version="1.0" encoding="UTF-8"?>
<!-- Created with Inkscape (http://www.inkscape.org/) -->
<svg id="SVGRoot" width="48px" height="48px" version="1.1" viewBox="0 0 48 48" xmlns="http://www.w3.org/2000/svg" xmlns:cc="http://creativecommons.org/ns#" xmlns:dc="http://purl.org/dc/elements/1.1/" xmlns:rdf="http://www.w3.org/1999/02/22-rdf-syntax-ns#">
 <defs id="defs815">
  <style id="style819">.cls-1{fill:none;stroke:#fff;stroke-linecap:round;stroke-linejoin:round;}</style>
 </defs>
 <metadata id="metadata818">
  <rdf:RDF>
   <cc:Work rdf:about="">
    <dc:format>image/svg+xml</dc:format>
    <dc:type rdf:resource="http://purl.org/dc/dcmitype/StillImage"/>
    <dc:title/>
   </cc:Work>
  </rdf:RDF>
 </metadata>
 <g id="layer1" fill-rule="evenodd">
  <rect id="rect1373-5" x="4" y="4" width="40" height="40" ry="8" fill="#96a2f1" style="paint-order:stroke fill markers"/>
  <path id="rect817" d="m12 4c-4.432 0-8 3.568-8 8v24c0 4.432 3.568 8 8 8h24c4.432 0 8-3.568 8-8v-24c0-4.432-3.568-8-8-8h-24zm0 1h24c3.878 0 7 3.122 7 7v24c0 3.878-3.122 7-7 7h-24c-3.878 0-7-3.122-7-7v-24c0-3.878 3.122-7 7-7z" opacity=".3" style="paint-order:stroke fill markers"/>
  <path id="rect828" d="m30.5 12c-0.55181 0-1.0266 0.2987-1.2871 0.74023-0.95788-0.2883-2.8644-0.71289-6.2129-0.71289-4 0-6.9453 2.1721-6.9453 5.9727 0 6 7.9453 6 7.9453 6s5.9727 0 5.9727 3c0 2.6034-0.97266 5-4.9727 5-2.6276 0-4.8024-1.2855-6-2.1738v-1.3262c0-0.831-0.669-1.5-1.5-1.5s-1.5 0.669-1.5 1.5v4c0 0.831 0.669 1.5 1.5 1.5 0.7707 0 1.3949-0.57779 1.4824-1.3242 1.044 0.58059 2.9662 1.3242 6.0176 1.3242 6 0 7.9727-3.1994 7.9727-7 0-6-8.9727-6-8.9727-6s-4.9453 0-4.9453-3c0-2.6034 0.94534-3.9592 3.9453-3.9727 3.304-0.01484 5.0604 0.8847 6 1.6992v1.7734c0 0.831 0.669 1.5 1.5 1.5s1.5-0.669 1.5-1.5v-4c0-0.831-0.669-1.5-1.5-1.5zm-20.5 18v8h28v-2h-26v-6z" fill="#3a3d62" style="paint-order:normal"/>
 </g>
</svg>
