<?xml version="1.0" encoding="UTF-8"?>
<!-- Created with Inkscape (http://www.inkscape.org/) -->
<svg id="SVGRoot" width="48px" height="48px" version="1.1" viewBox="0 0 48 48" xml:space="preserve" xmlns="http://www.w3.org/2000/svg" xmlns:cc="http://creativecommons.org/ns#" xmlns:dc="http://purl.org/dc/elements/1.1/" xmlns:rdf="http://www.w3.org/1999/02/22-rdf-syntax-ns#"><defs><style>.cls-1{fill:none;stroke:#fff;stroke-linecap:round;stroke-linejoin:round;}</style><style>.cls-1{fill:none;stroke:#fff;stroke-linecap:round;stroke-linejoin:round;}</style></defs><metadata><rdf:RDF><cc:Work rdf:about=""><dc:format>image/svg+xml</dc:format><dc:type rdf:resource="http://purl.org/dc/dcmitype/StillImage"/></cc:Work></rdf:RDF></metadata><rect x="4" y="4" width="40" height="40" ry="8" fill="#654bb1" fill-rule="evenodd" style="paint-order:stroke fill markers"/><path d="m12 4c-4.432 0-8 3.568-8 8v24c0 4.432 3.568 8 8 8h24c4.432 0 8-3.568 8-8v-24c0-4.432-3.568-8-8-8zm0 1h24c3.878 0 7 3.122 7 7v24c0 3.878-3.122 7-7 7h-24c-3.878 0-7-3.122-7-7v-24c0-3.878 3.122-7 7-7z" fill-rule="evenodd" opacity=".3" style="paint-order:stroke fill markers"/><path d="m16 5v11h-11v4h11v11c0 1.9444 0.68188 3.76 1.9609 5.0391 1.2791 1.2791 3.0946 1.9609 5.0391 1.9609 4.4167 0 8.245-1.4169 10.914-4.0859 2.669-2.669 4.0859-6.4974 4.0859-10.914 0-1.9444-0.68188-3.76-1.9609-5.0391-1.2791-1.2791-3.0946-1.9609-5.0391-1.9609h-11v-11zm4 15h11c1.0556 0 1.74 0.31812 2.2109 0.78906 0.47094 0.47094 0.78906 1.1554 0.78906 2.2109 0 3.5833-1.0831 6.255-2.9141 8.0859-1.831 1.831-4.5026 2.9141-8.0859 2.9141-1.0556 0-1.74-0.31812-2.2109-0.78906-0.47094-0.47094-0.78906-1.1554-0.78906-2.2109z" fill="#fff" opacity=".4" stroke-linecap="round" stroke-width="2"/><path d="m18 9c-1.108 0-2 0.892-2 2v5h-5c-1.108 0-2 0.892-2 2s0.892 2 2 2h5v5c0 1.108 0.892 2 2 2s2-0.892 2-2v-5h5c1.108 0 2-0.892 2-2s-0.892-2-2-2h-5v-5c0-1.108-0.892-2-2-2z" fill="#fff" stroke-linecap="round" stroke-width="2"/><path d="m18 11-1 2h2l-1-2zm-5 6-2 1 2 1v-2zm10 0v2l2-1-2-1zm-6 6 1 2 1-2h-2z" fill="#654bb1"/></svg>
