<svg xmlns="http://www.w3.org/2000/svg" viewBox="0 0 48 48">
  <defs id="defs815">
    <style type="text/css" id="current-color-scheme">
      .ColorScheme-Text {
        color:#31363b;
      }
      .ColorScheme-Accent {
        color:#3daee9;
      }
      </style>
  </defs>
 <path 
  d="m6 6a4.0004 4.0004 0 0 0-4 4v28a4.0004 4.0004 0 0 0 4 4h36a4.0004 4.0004 0 0 0 4-4v-26a4.0004 4.0004 0 0 0-4-4h-19.344l-0.82812-0.82812a4.0004 4.0004 0 0 0-2.8281-1.1719z" fill="#e9bf73"/>
 <path 
  d="m6 6c-2.209 2.209e-4 -3.9998 1.791-4 4v28c2.209e-4 2.209 1.791 3.9998 4 4h36c2.209-2.21e-4 3.9998-1.791 4-4v-26c0-2.216-1.784-4-4-4h-19.344l-0.82812-0.82812c-0.75005-0.75014-1.7673-1.1717-2.8281-1.1719zm0 6.1547h36c1.662 0 3 1.338 3 3v22.845c0 1.662-1.338 3-3 3h-36c-1.662 0-3-1.338-3-3v-22.845c0-1.662 1.338-3 3-3z" fill-opacity=".3"/>
 <path d="m24 16c-3.2813 0-6.1749 1.573-7.9961 4 1.514 0.0012 2.849 0.68281 3.7637 1.7402 1.0834-1.0765 2.5774-1.7402 4.2324-1.7402 0.03431 0 0.0674 0.0053 0.10156 0.0059-0.065891-0.32496-0.10156-0.66098-0.10156-1.0059 0-1.1099 0.36922-2.1234 0.97656-2.9512-0.3214-0.030893-0.64679-0.048828-0.97656-0.048828zm5 0c-1.662 0-3 1.338-3 3s1.338 3 3 3 3-1.338 3-3-1.338-3-3-3zm4.0996 5.8574c-0.78736 1.1296-2.0255 1.919-3.4609 2.1016 0.22965 0.63755 0.36133 1.3224 0.36133 2.041 0 0.94157-0.22213 1.8277-0.60547 2.6191 1.2996 0.71142 2.2504 1.9759 2.5215 3.4883 1.3027-1.6883 2.084-3.8005 2.084-6.1074 0-1.4812-0.32738-2.8804-0.90039-4.1426zm-17.1 0.14258c-1.662 0-3 1.338-3 3s1.338 3 3 3 3-1.338 3-3-1.338-3-3-3zm2.8633 7.0957c-0.81094 0.56694-1.7945 0.9043-2.8633 0.9043-0.4326 0-0.84432-0.07149-1.2441-0.17383 1.3727 3.3298 4.4847 5.7461 8.2188 6.123-0.60636-0.8274-0.97461-1.8403-0.97461-2.9492 0-0.44564 0.07715-0.86865 0.18555-1.2793-1.4046-0.4426-2.5777-1.3883-3.3223-2.625zm8.1367 0.9043c-1.662 0-3 1.338-3 3s1.338 3 3 3 3-1.338 3-3-1.338-3-3-3z" opacity=".4"/>
</svg>
