<svg xmlns="http://www.w3.org/2000/svg" viewBox="0 0 48 48">
  <defs id="defs815">
    <style type="text/css" id="current-color-scheme">
      .ColorScheme-Text {
        color:#31363b;
      }
      .ColorScheme-Accent {
        color:#3daee9;
      }
      </style>
  </defs>
 <path 
  d="m6 6a4.0004 4.0004 0 0 0-4 4v28a4.0004 4.0004 0 0 0 4 4h36a4.0004 4.0004 0 0 0 4-4v-26a4.0004 4.0004 0 0 0-4-4h-19.344l-0.82812-0.82812a4.0004 4.0004 0 0 0-2.8281-1.1719z" fill="#e9bf73"/>
 <path 
  d="m6 6c-2.209 2.209e-4 -3.9998 1.791-4 4v28c2.209e-4 2.209 1.791 3.9998 4 4h36c2.209-2.21e-4 3.9998-1.791 4-4v-26c0-2.216-1.784-4-4-4h-19.344l-0.82812-0.82812c-0.75005-0.75014-1.7673-1.1717-2.8281-1.1719zm0 6.1547h36c1.662 0 3 1.338 3 3v22.845c0 1.662-1.338 3-3 3h-36c-1.662 0-3-1.338-3-3v-22.845c0-1.662 1.338-3 3-3z" fill-opacity=".3"/>
 <path d="m24 18c-4.4319 8e-5 -8.432 1.7838-11.324 4.6758l1.8867 1.8867c2.41-2.41 5.7442-3.8965 9.4375-3.8965s7.0275 1.4865 9.4375 3.8965l1.8867-1.8867c-2.8919-2.8919-6.892-4.6757-11.324-4.6758zm0 5.332c-2.9547 0-5.6208 1.1911-7.5488 3.1191l1.8867 1.8867c1.446-1.446 3.4461-2.3379 5.6621-2.3379s4.2161 0.89193 5.6621 2.3379l1.8867-1.8867c-1.928-1.928-4.5941-3.1191-7.5488-3.1191zm0 5.668c-1.385 0-2.6354 0.55718-3.5391 1.4609l3.5391 3.5391 3.5391-3.5391c-0.90375-0.90375-2.1541-1.4609-3.5391-1.4609z" opacity=".4"/>
</svg>
