<svg xmlns="http://www.w3.org/2000/svg" viewBox="0 0 48 48">
  <defs id="defs815">
    <style type="text/css" id="current-color-scheme">
      .ColorScheme-Text {
        color:#31363b;
      }
      .ColorScheme-Accent {
        color:#3daee9;
      }
      </style>
  </defs>
 <path 
  d="m6 6a4.0004 4.0004 0 0 0-4 4v28a4.0004 4.0004 0 0 0 4 4h36a4.0004 4.0004 0 0 0 4-4v-26a4.0004 4.0004 0 0 0-4-4h-19.344l-0.82812-0.82812a4.0004 4.0004 0 0 0-2.8281-1.1719z" fill="#e9bf73"/>
 <path 
  d="m6 6c-2.209 2.209e-4 -3.9998 1.791-4 4v28c2.209e-4 2.209 1.791 3.9998 4 4h36c2.209-2.21e-4 3.9998-1.791 4-4v-26c0-2.216-1.784-4-4-4h-19.344l-0.82812-0.82812c-0.75005-0.75014-1.7673-1.1717-2.8281-1.1719zm0 6.1547h36c1.662 0 3 1.338 3 3v22.845c0 1.662-1.338 3-3 3h-36c-1.662 0-3-1.338-3-3v-22.845c0-1.662 1.338-3 3-3z" fill-opacity=".3"/>
 <path d="m24 16c-5.54 0-10 4.46-10 10 0 0.1174 0.013604 0.23126 0.017578 0.34766l3.7832 1.6211c0.54735-0.59273 1.3251-0.96875 2.1992-0.96875 0.046248 0 0.089041 0.011622 0.13477 0.013672l1.8867-3.3008c-0.003407-0.072174-0.021484-0.13984-0.021484-0.21289 0-2.493 2.007-4.5 4.5-4.5s4.5 2.007 4.5 4.5-2.007 4.5-4.5 4.5c-0.073046 0-0.14072-0.018077-0.21289-0.021484l-3.3008 1.8867c0.00205 0.045725 0.013672 0.088518 0.013672 0.13477 0 1.662-1.338 3-3 3s-3-1.338-3-3c0-0.065026 0.015496-0.12548 0.019531-0.18945l-2.6504-1.1348c1.1658 4.2306 5.0198 7.3242 9.6309 7.3242 5.54 0 10-4.46 10-10s-4.46-10-10-10zm2.5 5c-1.385 0-2.5 1.115-2.5 2.5s1.115 2.5 2.5 2.5 2.5-1.115 2.5-2.5-1.115-2.5-2.5-2.5zm0 1c0.831 0 1.5 0.669 1.5 1.5s-0.669 1.5-1.5 1.5-1.5-0.669-1.5-1.5 0.669-1.5 1.5-1.5zm-6.5 6c-0.44947 0-0.85815 0.15194-1.1914 0.40039l1.5859 0.67969a1.001 1.001 0 1 1-0.78906 1.8398l-1.5801-0.67773c0.12011 0.99156 0.9496 1.7578 1.9746 1.7578 1.108 0 2-0.892 2-2s-0.892-2-2-2z" opacity=".4"/>
</svg>
