<svg xmlns="http://www.w3.org/2000/svg" viewBox="0 0 48 48">
  <defs id="defs815">
    <style type="text/css" id="current-color-scheme">
      .ColorScheme-Text {
        color:#31363b;
      }
      .ColorScheme-Accent {
        color:#e9bf73;
      }
      </style>
  </defs>
 <path 
  d="m6 6a4.0004 4.0004 0 0 0-4 4v28a4.0004 4.0004 0 0 0 4 4h36a4.0004 4.0004 0 0 0 4-4v-26a4.0004 4.0004 0 0 0-4-4h-19.344l-0.82812-0.82812a4.0004 4.0004 0 0 0-2.8281-1.1719z"
  style="fill:currentColor"
  class="ColorScheme-Accent"/>
 <path 
  d="m6 6c-2.209 2.209e-4 -3.9998 1.791-4 4v28c2.209e-4 2.209 1.791 3.9998 4 4h36c2.209-2.21e-4 3.9998-1.791 4-4v-18-6-2c0-2.216-1.784-4-4-4h-19.344l-0.82812-0.82812c-0.75005-0.75014-1.7673-1.1717-2.8281-1.1719h-13zm0 13h36c1.662 0 3 1.338 3 3v16c0 1.662-1.338 3-3 3h-36c-1.662 0-3-1.338-3-3v-16c0-1.662 1.338-3 3-3z" fill-opacity=".3"/>
  <path d="m6 10.075c-1.108 0-2 0.892-2 2v6.738c0.53088-0.47718 1.2267-0.77539 2-0.77539h36c0.7733 0 1.4691 0.29821 2 0.77539v-6.738c0-1.108-0.892-2-2-2z" fill="#fff"/>
</svg>
