<svg xmlns="http://www.w3.org/2000/svg" viewBox="0 0 48 48">
  <defs id="defs815">
    <style type="text/css" id="current-color-scheme">
      .ColorScheme-Text {
        color:#31363b;
      }
      .ColorScheme-Accent {
        color:#3daee9;
      }
      </style>
  </defs>
 <path 
  d="m6 6a4.0004 4.0004 0 0 0-4 4v28a4.0004 4.0004 0 0 0 4 4h36a4.0004 4.0004 0 0 0 4-4v-26a4.0004 4.0004 0 0 0-4-4h-19.344l-0.82812-0.82812a4.0004 4.0004 0 0 0-2.8281-1.1719z" fill="#e9bf73"/>
 <path 
  d="m6 6c-2.209 2.209e-4 -3.9998 1.791-4 4v28c2.209e-4 2.209 1.791 3.9998 4 4h36c2.209-2.21e-4 3.9998-1.791 4-4v-26c0-2.216-1.784-4-4-4h-19.344l-0.82812-0.82812c-0.75005-0.75014-1.7673-1.1717-2.8281-1.1719zm0 6.1547h36c1.662 0 3 1.338 3 3v22.845c0 1.662-1.338 3-3 3h-36c-1.662 0-3-1.338-3-3v-22.845c0-1.662 1.338-3 3-3z" fill-opacity=".3"/>
 <path d="m24 16.011c-0.554 0-1 0.446-1 1v1.1708c-1.1647 0.41156-2 1.5093-2 2.8184 0 0.57381 0.16806 1.1038 0.44531 1.5586-0.31264 0.86403-0.58115 1.6073-1.2129 3.4414h-2.2734c-0.53115 0-0.95898 0.42783-0.95898 0.95898v0.08203c0 0.53116 0.42783 0.95899 0.95898 0.95899h1.5996c-0.60424 1.8095-0.85312 1.9052-1.2235 3.2873-1 3.7321 0.66486 4.7127 0.66486 4.7127l3.125-8h3.75l3.125 8s1.7606-0.83705 0.76061-4.5691c-0.37034-1.3821-0.71497-1.6214-1.3192-3.4309h1.5996c0.53115 0 0.95898-0.42783 0.95898-0.95898v-0.08203c0-0.53116-0.42783-0.95899-0.95898-0.95899h-2.2734c-0.63174-1.8341-0.90025-2.5774-1.2129-3.4414 0.27725-0.45484 0.44531-0.98478 0.44531-1.5586 0-1.3091-0.83531-2.4068-2-2.8184v-1.1708c0-0.554-0.446-1-1-1zm0 3.9891c0.554 0 1 0.446 1 1s-0.446 1-1 1-1-0.446-1-1 0.446-1 1-1zm-0.60547 3.9395c0.19564 0.039832 0.39772 0.060547 0.60547 0.060547s0.40982-0.02071 0.60547-0.06055l0.64453 2.0606h-2.5z" opacity=".4"/>
</svg>
