<svg xmlns="http://www.w3.org/2000/svg" viewBox="0 0 48 48">
  <defs id="defs815">
    <style type="text/css" id="current-color-scheme">
      .ColorScheme-Text {
        color:#31363b;
      }
      .ColorScheme-Accent {
        color:#3daee9;
      }
      </style>
  </defs>
 <path 
  d="m6 6a4.0004 4.0004 0 0 0-4 4v28a4.0004 4.0004 0 0 0 4 4h36a4.0004 4.0004 0 0 0 4-4v-26a4.0004 4.0004 0 0 0-4-4h-19.344l-0.82812-0.82812a4.0004 4.0004 0 0 0-2.8281-1.1719z" fill="#e9bf73"/>
 <path 
  d="m6 6c-2.209 2.209e-4 -3.9998 1.791-4 4v28c2.209e-4 2.209 1.791 3.9998 4 4h36c2.209-2.21e-4 3.9998-1.791 4-4v-26c0-2.216-1.784-4-4-4h-19.344l-0.82812-0.82812c-0.75005-0.75014-1.7673-1.1717-2.8281-1.1719zm0 6.1547h36c1.662 0 3 1.338 3 3v22.845c0 1.662-1.338 3-3 3h-36c-1.662 0-3-1.338-3-3v-22.845c0-1.662 1.338-3 3-3z" fill-opacity=".3"/>
  <path id="path818" d="m30.562 22.701c-0.09967 0.07733-1.8595 1.069-1.8595 3.2739 0 2.5504 2.2393 3.4527 2.3064 3.475-0.01033 0.055-0.35575 1.2357-1.1807 2.4387-0.73556 1.0587-1.5038 2.1156-2.6724 2.1156-1.1686 0-1.4694-0.67885-2.8185-0.67885-1.3147 0-1.7822 0.70119-2.8512 0.70119-1.069 0-1.8148-0.9796-2.6724-2.1826-0.99335-1.4127-1.7959-3.6073-1.7959-5.6903 0-3.3409 2.1723-5.1128 4.3102-5.1128 1.136 0 2.0829 0.74587 2.7962 0.74587 0.67885 0 1.7375-0.79055 3.0299-0.79055 0.4898 0 2.2496 0.04468 3.408 1.7048zm-4.0215-3.1192c0.53448-0.63416 0.91257-1.5141 0.91257-2.394 0-0.12202-0.01033-0.24576-0.03265-0.34544-0.86961 0.03264-1.9042 0.57917-2.5281 1.3027-0.4898 0.55682-0.94695 1.4367-0.94695 2.3287 0 0.13405 0.02234 0.2681 0.03265 0.31106 0.055 0.01033 0.14436 0.02234 0.23373 0.02234 0.78024 0 1.7616-0.52245 2.3287-1.2254z" opacity=".4"/>
</svg>
