<svg xmlns="http://www.w3.org/2000/svg" viewBox="0 0 48 48">
  <defs id="defs815">
    <style type="text/css" id="current-color-scheme">
      .ColorScheme-Text {
        color:#31363b;
      }
      .ColorScheme-Accent {
        color:#3daee9;
      }
      </style>
  </defs>
 <path 
  d="m6 6a4.0004 4.0004 0 0 0-4 4v28a4.0004 4.0004 0 0 0 4 4h36a4.0004 4.0004 0 0 0 4-4v-26a4.0004 4.0004 0 0 0-4-4h-19.344l-0.82812-0.82812a4.0004 4.0004 0 0 0-2.8281-1.1719z" fill="#e9bf73"/>
 <path 
  d="m6 6c-2.209 2.209e-4 -3.9998 1.791-4 4v28c2.209e-4 2.209 1.791 3.9998 4 4h36c2.209-2.21e-4 3.9998-1.791 4-4v-26c0-2.216-1.784-4-4-4h-19.344l-0.82812-0.82812c-0.75005-0.75014-1.7673-1.1717-2.8281-1.1719zm0 6.1547h36c1.662 0 3 1.338 3 3v22.845c0 1.662-1.338 3-3 3h-36c-1.662 0-3-1.338-3-3v-22.845c0-1.662 1.338-3 3-3z" fill-opacity=".3"/>
 <path d="m31 17-10 1c-0.55125 0.05513-1 0.446-1 1v1 1 6 1.1816c-0.31399-0.11095-0.64708-0.18164-1-0.18164-1.662 0-3 1.338-3 3s1.338 3 3 3 3-1.338 3-3v-4-5l8-1v5 0.18164c-0.31399-0.11095-0.64708-0.18164-1-0.18164-1.662 0-3 1.338-3 3s1.338 3 3 3 3-1.338 3-3v-3-6-1-1c0-0.554-0.44875-1.0551-1-1z" opacity=".4"/>
</svg>
