<svg xmlns="http://www.w3.org/2000/svg" viewBox="0 0 48 48">
  <defs id="defs815">
    <style type="text/css" id="current-color-scheme">
      .ColorScheme-Text {
        color:#31363b;
      }
      .ColorScheme-Accent {
        color:#3daee9;
      }
      </style>
  </defs>
 <path 
  d="m6 6a4.0004 4.0004 0 0 0-4 4v28a4.0004 4.0004 0 0 0 4 4h36a4.0004 4.0004 0 0 0 4-4v-26a4.0004 4.0004 0 0 0-4-4h-19.344l-0.82812-0.82812a4.0004 4.0004 0 0 0-2.8281-1.1719z" fill="#e9bf73"/>
 <path 
  d="m6 6c-2.209 2.209e-4 -3.9998 1.791-4 4v28c2.209e-4 2.209 1.791 3.9998 4 4h36c2.209-2.21e-4 3.9998-1.791 4-4v-26c0-2.216-1.784-4-4-4h-19.344l-0.82812-0.82812c-0.75005-0.75014-1.7673-1.1717-2.8281-1.1719zm0 6.1547h36c1.662 0 3 1.338 3 3v22.845c0 1.662-1.338 3-3 3h-36c-1.662 0-3-1.338-3-3v-22.845c0-1.662 1.338-3 3-3z" fill-opacity=".3"/>
 <path d="m23 16c-0.554 0-1 0.446-1 1v1.2598c-0.73448 0.18798-1.4263 0.47494-2.0625 0.84961l-0.88672-0.88672c-0.39174-0.39174-1.0223-0.39174-1.4141 0l-1.4141 1.4141c-0.39174 0.39174-0.39174 1.0223 0 1.4141l0.88672 0.88672c-0.37467 0.63618-0.66163 1.328-0.84961 2.0625h-1.2598c-0.554 0-1 0.446-1 1v2c0 0.554 0.446 1 1 1h1.2598c0.18798 0.73448 0.47494 1.4263 0.84961 2.0625l-0.88672 0.88672c-0.39174 0.39174-0.39174 1.0223 0 1.4141l1.4141 1.4141c0.39174 0.39174 1.0223 0.39174 1.4141 0l0.88672-0.88672c0.63618 0.37467 1.328 0.66163 2.0625 0.84961v1.2598c0 0.554 0.446 1 1 1h2c0.554 0 1-0.446 1-1v-1.2598c0.73448-0.18798 1.4263-0.47494 2.0625-0.84961l0.88672 0.88672c0.39174 0.39174 1.0223 0.39174 1.4141 0l1.4141-1.4141c0.39174-0.39174 0.39174-1.0223 0-1.4141l-0.88672-0.88672c0.37467-0.63618 0.66163-1.328 0.84961-2.0625h1.2598c0.554 0 1-0.446 1-1v-2c0-0.554-0.446-1-1-1h-1.2598c-0.18798-0.73448-0.47494-1.4263-0.84961-2.0625l0.88672-0.88672c0.39174-0.39174 0.39174-1.0223 0-1.4141l-1.4141-1.4141c-0.39174-0.39174-1.0223-0.39174-1.4141 0l-0.88672 0.88672c-0.63618-0.37467-1.328-0.66163-2.0625-0.84961v-1.2598c0-0.554-0.446-1-1-1zm1 6c2.216 0 4 1.784 4 4s-1.784 4-4 4-4-1.784-4-4 1.784-4 4-4z" opacity=".4"/>
</svg>
