<svg xmlns="http://www.w3.org/2000/svg" viewBox="0 0 48 48">
  <defs id="defs815">
    <style type="text/css" id="current-color-scheme">
      .ColorScheme-Text {
        color:#31363b;
      }
      .ColorScheme-Accent {
        color:#3daee9;
      }
      </style>
  </defs>
 <path 
  d="m6 6a4.0004 4.0004 0 0 0-4 4v28a4.0004 4.0004 0 0 0 4 4h36a4.0004 4.0004 0 0 0 4-4v-26a4.0004 4.0004 0 0 0-4-4h-19.344l-0.82812-0.82812a4.0004 4.0004 0 0 0-2.8281-1.1719z" fill="#e9bf73"/>
 <path 
  d="m6 6c-2.209 2.209e-4 -3.9998 1.791-4 4v28c2.209e-4 2.209 1.791 3.9998 4 4h36c2.209-2.21e-4 3.9998-1.791 4-4v-26c0-2.216-1.784-4-4-4h-19.344l-0.82812-0.82812c-0.75005-0.75014-1.7673-1.1717-2.8281-1.1719zm0 6.1547h36c1.662 0 3 1.338 3 3v22.845c0 1.662-1.338 3-3 3h-36c-1.662 0-3-1.338-3-3v-22.845c0-1.662 1.338-3 3-3z" fill-opacity=".3"/>
  <path d="m24 16c-5.54 0-10 4.46-10 10h-2l3 4 3-4h-2v-0.1875c0-4.3287 3.4838-7.8125 7.8125-7.8125h0.375c4.3287 0 7.8125 3.4838 7.8125 7.8125v0.375c0 4.3287-3.4838 7.8125-7.8125 7.8125h-0.375c-1.8479 0-3.5384-0.6386-4.873-1.7031l-1.0234 1.6367c1.6845 1.2919 3.7876 2.0664 6.084 2.0664 5.54 0 10-4.46 10-10s-4.46-10-10-10zm0 4a1 1 0 0 0-1 1v5a1.0001 1.0001 0 0 0 0.29297 0.70703l3 3a1 1 0 0 0 1.4141 0 1 1 0 0 0 0-1.4141l-2.707-2.707v-4.5859a1 1 0 0 0-1-1z" opacity=".4"/>
</svg>
