<svg xmlns="http://www.w3.org/2000/svg" viewBox="0 0 48 48">
  <defs id="defs815">
    <style type="text/css" id="current-color-scheme">
      .ColorScheme-Text {
        color:#31363b;
      }
      .ColorScheme-Accent {
        color:#3daee9;
      }
      </style>
  </defs>
 <path 
  d="m6 6a4.0004 4.0004 0 0 0-4 4v28a4.0004 4.0004 0 0 0 4 4h36a4.0004 4.0004 0 0 0 4-4v-26a4.0004 4.0004 0 0 0-4-4h-19.344l-0.82812-0.82812a4.0004 4.0004 0 0 0-2.8281-1.1719z" fill="#e9bf73"/>
 <path 
  d="m6 6c-2.209 2.209e-4 -3.9998 1.791-4 4v28c2.209e-4 2.209 1.791 3.9998 4 4h36c2.209-2.21e-4 3.9998-1.791 4-4v-26c0-2.216-1.784-4-4-4h-19.344l-0.82812-0.82812c-0.75005-0.75014-1.7673-1.1717-2.8281-1.1719zm0 6.1547h36c1.662 0 3 1.338 3 3v22.845c0 1.662-1.338 3-3 3h-36c-1.662 0-3-1.338-3-3v-22.845c0-1.662 1.338-3 3-3z" fill-opacity=".3"/>
  <path d="m18 18c-2 0-4 2-4 5s2 5 4 5c4 0 6-3 6-3s2 3 6 3c3 0 4-2 4-5s-2-5-4-5c-3 0-6 3-6 3s-2-3-6-3zm1 2c2 0 4 3 4 3s-2 3-4 3c-1.4142 0-3-1-3-3s1.5858-3 3-3zm10 0c1.4142 0 3 1 3 3s-1.5858 3-3 3c-2 0-4-3-4-3s2-3 4-3zm0 10c-0.554 0-1 0.446-1 1v1h-1c-0.554 0-1 0.446-1 1s0.446 1 1 1h1v1c0 0.554 0.446 1 1 1s1-0.446 1-1v-1h1c0.554 0 1-0.446 1-1s-0.446-1-1-1h-1v-1c0-0.554-0.446-1-1-1zm-12 2c-0.554 0-1 0.446-1 1s0.446 1 1 1h4c0.554 0 1-0.446 1-1s-0.446-1-1-1h-4z" opacity=".4"/>
</svg>
