<svg xmlns="http://www.w3.org/2000/svg" viewBox="0 0 48 48">
  <defs id="defs815">
    <style type="text/css" id="current-color-scheme">
      .ColorScheme-Text {
        color:#31363b;
      }
      .ColorScheme-Accent {
        color:#729dec;
      }
      </style>
  </defs>
 <rect x="2" y="6" width="44" height="36" ry="4" fill="#efefef"/>
 <rect x="6" y="10" width="36" height="28" ry="1" style="fill:currentColor" class="ColorScheme-Accent"/>
 <path d="m7.5 32h33c0.277 0 0.5 0.223 0.5 0.5v4c0 0.277-0.223 0.5-0.5 0.5h-33c-0.277 0-0.5-0.223-0.5-0.5v-4c0-0.277 0.223-0.5 0.5-0.5z" fill="#fff" opacity=".5" stroke-linecap="round" stroke-linejoin="bevel"/>
 <path d="m11 14c-0.554 0-1 0.446-1 1v2c0 0.554 0.446 1 1 1h2c0.554 0 1-0.446 1-1v-2c0-0.554-0.446-1-1-1h-2zm0 8c-0.554 0-1 0.446-1 1v2c0 0.554 0.446 1 1 1h2c0.554 0 1-0.446 1-1v-2c0-0.554-0.446-1-1-1h-2z" fill="#fff"/>
 <path d="m6 6c-2.216 0-4 1.784-4 4v28c0 2.216 1.784 4 4 4h36c2.216 0 4-1.784 4-4v-28c0-2.216-1.784-4-4-4zm0 1h36c1.662 0 3 1.338 3 3v28c0 1.662-1.338 3-3 3h-36c-1.662 0-3-1.338-3-3v-28c0-1.662 1.338-3 3-3z" opacity=".3"/>
</svg>
