<?xml version="1.0" encoding="UTF-8"?>
<!-- Created with Inkscape (http://www.inkscape.org/) -->
<svg id="SVGRoot" width="48px" height="48px" version="1.1" viewBox="0 0 48 48" xmlns="http://www.w3.org/2000/svg" xmlns:cc="http://creativecommons.org/ns#" xmlns:dc="http://purl.org/dc/elements/1.1/" xmlns:rdf="http://www.w3.org/1999/02/22-rdf-syntax-ns#" xmlns:xlink="http://www.w3.org/1999/xlink">
 <defs id="defs815">
  <style id="style819">.cls-1{fill:none;stroke:#fff;stroke-linecap:round;stroke-linejoin:round;}</style>
 </defs>
 <metadata id="metadata818">
  <rdf:RDF>
   <cc:Work rdf:about="">
    <dc:format>image/svg+xml</dc:format>
    <dc:type rdf:resource="http://purl.org/dc/dcmitype/StillImage"/>
    <dc:title/>
   </cc:Work>
  </rdf:RDF>
 </metadata>
 <g id="layer1" fill-rule="evenodd">
  <rect id="rect1373" x="4" y="4" width="40" height="40" ry="8" fill="#b7bfc2" style="paint-order:stroke fill markers"/>
  <path id="rect1031" d="m22 6c-1.108 0-2 0.892-2 2v4 24 4c0 1.108 0.892 2 2 2h4 10c3.324 0 6-2.676 6-6v-24c0-3.324-2.676-6-6-6h-10-4z" fill="#fff" opacity=".5" style="paint-order:stroke fill markers"/>
  <path id="rect817" d="m12 4c-4.432 0-8 3.568-8 8v24c0 4.432 3.568 8 8 8h24c4.432 0 8-3.568 8-8v-24c0-4.432-3.568-8-8-8h-24zm0 1h24c3.878 0 7 3.122 7 7v24c0 3.878-3.122 7-7 7h-24c-3.878 0-7-3.122-7-7v-24c0-3.878 3.122-7 7-7z" opacity=".3" style="paint-order:stroke fill markers"/>
  <rect id="rect834" x="26" y="12" width="2" height="24" ry="1" fill="#4e4e4e" style="paint-order:normal"/>
  <rect id="rect1073" x="23" y="21" width="8" height="12" ry="2" opacity=".25" style="paint-order:normal"/>
  <rect id="rect830" x="12" y="12" width="2" height="24" ry="1" fill="#4e4e4e" style="paint-order:normal"/>
  <rect id="rect1071" x="9" y="13" width="8" height="12" ry="2" opacity=".25" style="paint-order:normal"/>
  <rect id="rect832" x="10" y="14" width="6" height="10" ry="1" fill="#efefef" style="paint-order:normal"/>
  <rect id="rect836" x="34" y="12" width="2" height="24" ry="1" fill="#4e4e4e" style="paint-order:normal"/>
  <rect id="rect832-4" x="24" y="22" width="6" height="10" ry="1" fill="#efefef" style="paint-order:normal"/>
  <rect id="rect1075" x="31" y="15" width="8" height="12" ry="2" opacity=".25" style="paint-order:normal"/>
  <rect id="rect832-9" x="32" y="16" width="6" height="10" ry="1" fill="#efefef" style="paint-order:normal"/>
  <rect id="rect889" x="11" y="18" width="4" height="2" ry="1" opacity=".25" style="paint-order:normal"/>
  <rect id="rect894" x="25" y="26" width="4" height="2" ry="1" opacity=".25" style="paint-order:normal"/>
  <rect id="rect896" x="33" y="20" width="4" height="2" ry="1" opacity=".25" style="paint-order:normal"/>
 </g>
</svg>
